<svg xmlns="http://www.w3.org/2000/svg" viewBox="0 0 900 300"><rect width="900" height="300" rx="16" fill="#f8fafc"/><text x="450" y="28" text-anchor="middle" font-family="sans-serif" font-size="18" font-weight="700">접촉점 Manifold 생성</text><g font-family="sans-serif" text-anchor="middle" font-size="12"><text x="145" y="55">1. Face 선택</text><text x="450" y="55">2. Side Plane으로 Clip</text><text x="755" y="55">3. 접촉점 유지</text></g><g transform="translate(50 75)"><rect x="15" y="70" width="190" height="95" fill="#dbeafe" stroke="#2563eb" stroke-width="3"/><rect x="100" y="15" width="130" height="100" fill="#ffedd5" stroke="#ea580c" stroke-width="3" transform="rotate(12 165 65)"/><path d="M75 70H195" stroke="#16a34a" stroke-width="6"/><path d="M95 105L220 78" stroke="#ef4444" stroke-width="5"/><text x="135" y="190">reference / incident</text></g><g transform="translate(350 75)"><path d="M40 45V190M160 45V190" stroke="#7c3aed" stroke-width="3" stroke-dasharray="6 4"/><path d="M10 145L205 85" stroke="#ef4444" stroke-width="5"/><path d="M40 136L160 99" stroke="#16a34a" stroke-width="6"/><text x="100" y="215">바깥 선분 제거</text></g><g transform="translate(650 75)"><rect x="15" y="90" width="190" height="95" fill="#dbeafe" stroke="#2563eb" stroke-width="3"/><path d="M50 90H170" stroke="#16a34a" stroke-width="6"/><circle cx="65" cy="90" r="8" fill="#ef4444"/><circle cx="155" cy="90" r="8" fill="#ef4444"/><text x="110" y="215">최대 2개 contact</text></g></svg>
