<?xml version="1.0" encoding="utf-8" standalone="no"?>
<!DOCTYPE svg PUBLIC "-//W3C//DTD SVG 1.1//EN"
  "http://www.w3.org/Graphics/SVG/1.1/DTD/svg11.dtd">
<svg xmlns:xlink="http://www.w3.org/1999/xlink" width="279.36pt" height="111.312pt" viewBox="0 0 279.36 111.312" xmlns="http://www.w3.org/2000/svg" version="1.1">
 <metadata>
  <rdf:RDF xmlns:dc="http://purl.org/dc/elements/1.1/" xmlns:cc="http://creativecommons.org/ns#" xmlns:rdf="http://www.w3.org/1999/02/22-rdf-syntax-ns#">
   <cc:Work>
    <dc:type rdf:resource="http://purl.org/dc/dcmitype/StillImage"/>
    <dc:date>2026-07-08T05:12:56.601648</dc:date>
    <dc:format>image/svg+xml</dc:format>
    <dc:creator>
     <cc:Agent>
      <dc:title>Matplotlib v3.10.8, https://matplotlib.org/</dc:title>
     </cc:Agent>
    </dc:creator>
   </cc:Work>
  </rdf:RDF>
 </metadata>
 <defs>
  <style type="text/css">*{stroke-linejoin: round; stroke-linecap: butt}</style>
 </defs>
 <g id="figure_1">
  <g id="patch_1">
   <path d="M 0 111.312 
L 279.36 111.312 
L 279.36 0 
L 0 0 
z
" style="fill: #ffffff"/>
  </g>
  <g id="axes_1">
   <g id="patch_2">
    <path d="M 5.76 105.552 
L 273.6 105.552 
L 273.6 5.76 
L 5.76 5.76 
z
" clip-path="url(#p4d12c1d270)" style="fill: #ffffff; stroke: #e5e7eb; stroke-linejoin: miter"/>
   </g>
   <g id="text_1">
    <!-- 위치 += 속도 * dt -->
    <g style="fill: #111827" transform="translate(16.4736 25.832071) scale(0.11 -0.11)">
     <defs>
      <path id="NanumGothicCoding-c704" d="M 3942 3494 
Q 3942 3245 3827 3024 
Q 3712 2803 3507 2636 
Q 3302 2470 3020 2371 
Q 2739 2272 2406 2272 
Q 2080 2272 1805 2368 
Q 1530 2464 1328 2633 
Q 1126 2803 1011 3024 
Q 896 3245 896 3494 
Q 896 3770 1011 3997 
Q 1126 4224 1328 4387 
Q 1530 4550 1805 4636 
Q 2080 4723 2406 4723 
Q 2714 4723 2992 4633 
Q 3270 4544 3481 4384 
Q 3693 4224 3817 3997 
Q 3942 3770 3942 3494 
z
M 3494 3501 
Q 3494 3699 3408 3852 
Q 3322 4006 3171 4112 
Q 3021 4218 2822 4272 
Q 2624 4326 2406 4326 
Q 2176 4326 1984 4268 
Q 1792 4211 1648 4105 
Q 1504 4000 1424 3846 
Q 1344 3693 1344 3501 
Q 1344 3315 1421 3161 
Q 1498 3008 1638 2896 
Q 1779 2784 1974 2723 
Q 2170 2662 2406 2662 
Q 2624 2662 2822 2726 
Q 3021 2790 3171 2902 
Q 3322 3014 3408 3168 
Q 3494 3322 3494 3501 
z
M 5344 -806 
Q 5344 -896 5254 -896 
L 4992 -896 
Q 4902 -896 4902 -806 
L 4902 4915 
Q 4902 5005 4992 5005 
L 5254 5005 
Q 5344 5005 5344 4915 
L 5344 -806 
z
M 4429 1773 
Q 4461 1779 4489 1763 
Q 4518 1747 4525 1722 
L 4557 1504 
Q 4563 1414 4480 1408 
Q 4064 1344 3603 1296 
Q 3142 1248 2682 1216 
L 2682 -691 
Q 2682 -730 2659 -758 
Q 2637 -787 2598 -787 
L 2323 -787 
Q 2291 -787 2265 -758 
Q 2240 -730 2240 -691 
L 2240 1197 
Q 2035 1184 1798 1177 
Q 1562 1171 1334 1164 
Q 1107 1158 902 1155 
Q 698 1152 563 1158 
Q 525 1158 496 1184 
Q 467 1210 467 1242 
L 467 1459 
Q 467 1498 496 1520 
Q 525 1542 563 1542 
Q 749 1542 1008 1545 
Q 1267 1549 1539 1555 
Q 1811 1562 2064 1571 
Q 2317 1581 2490 1587 
Q 2675 1594 2921 1613 
Q 3168 1632 3433 1657 
Q 3699 1683 3958 1712 
Q 4218 1741 4429 1773 
z
" transform="scale(0.015625)"/>
      <path id="NanumGothicCoding-ce58" d="M 3475 3213 
Q 3366 2925 3209 2656 
Q 3053 2387 2848 2131 
Q 2970 1978 3130 1818 
Q 3290 1658 3456 1517 
Q 3622 1376 3792 1261 
Q 3962 1146 4115 1069 
Q 4186 1030 4141 954 
L 4019 742 
Q 3974 666 3891 717 
Q 3738 806 3565 931 
Q 3392 1056 3222 1203 
Q 3053 1350 2889 1510 
Q 2726 1670 2586 1830 
Q 2234 1453 1798 1139 
Q 1363 826 870 589 
Q 781 544 749 608 
L 627 819 
Q 608 851 624 886 
Q 640 922 672 934 
Q 1446 1306 2032 1862 
Q 2618 2419 2989 3187 
Q 3034 3277 3002 3315 
Q 2970 3354 2880 3354 
L 941 3354 
Q 864 3354 864 3437 
L 864 3661 
Q 864 3738 954 3738 
L 3053 3738 
Q 3386 3738 3485 3619 
Q 3584 3501 3475 3213 
z
M 5344 -806 
Q 5344 -896 5254 -896 
L 4992 -896 
Q 4902 -896 4902 -806 
L 4902 4915 
Q 4902 5005 4992 5005 
L 5254 5005 
Q 5344 5005 5344 4915 
L 5344 -806 
z
M 3046 4710 
Q 3142 4710 3142 4621 
L 3142 4416 
Q 3142 4320 3046 4320 
L 1466 4320 
Q 1370 4320 1370 4416 
L 1370 4621 
Q 1370 4710 1466 4710 
L 3046 4710 
z
" transform="scale(0.015625)"/>
      <path id="NanumGothicCoding-20" transform="scale(0.015625)"/>
      <path id="NanumGothicCoding-2b" d="M 3142 1875 
Q 3142 1786 3126 1773 
Q 3110 1760 3021 1760 
L 1830 1760 
L 1830 442 
Q 1830 358 1817 345 
Q 1805 333 1722 333 
L 1472 333 
Q 1389 333 1376 345 
Q 1363 358 1363 442 
L 1363 1760 
L 179 1760 
Q 90 1760 74 1773 
Q 58 1786 58 1875 
L 58 2106 
Q 58 2195 74 2208 
Q 90 2221 179 2221 
L 1363 2221 
L 1363 3526 
Q 1363 3616 1379 3629 
Q 1395 3642 1485 3642 
L 1709 3642 
Q 1798 3642 1814 3629 
Q 1830 3616 1830 3526 
L 1830 2221 
L 3021 2221 
Q 3110 2221 3126 2208 
Q 3142 2195 3142 2106 
L 3142 1875 
z
" transform="scale(0.015625)"/>
      <path id="NanumGothicCoding-3d" d="M 3142 2810 
L 3142 2528 
Q 3142 2458 3132 2448 
Q 3123 2438 3053 2438 
L 147 2438 
Q 77 2438 67 2448 
Q 58 2458 58 2528 
L 58 2810 
Q 58 2880 67 2889 
Q 77 2899 147 2899 
L 3053 2899 
Q 3123 2899 3132 2889 
Q 3142 2880 3142 2810 
z
M 3142 1446 
L 3142 1165 
Q 3142 1094 3132 1084 
Q 3123 1075 3053 1075 
L 147 1075 
Q 77 1075 67 1084 
Q 58 1094 58 1165 
L 58 1446 
Q 58 1517 67 1526 
Q 77 1536 147 1536 
L 3053 1536 
Q 3123 1536 3132 1526 
Q 3142 1517 3142 1446 
z
" transform="scale(0.015625)"/>
      <path id="NanumGothicCoding-c18d" d="M 5920 2080 
Q 5952 2080 5984 2057 
Q 6016 2035 6016 1997 
L 6016 1779 
Q 6016 1747 5984 1721 
Q 5952 1696 5920 1696 
L 480 1696 
Q 442 1696 413 1721 
Q 384 1747 384 1779 
L 384 2003 
Q 384 2042 413 2061 
Q 442 2080 480 2080 
L 2957 2080 
L 2957 2957 
Q 2957 3046 3046 3046 
L 3309 3046 
Q 3398 3046 3398 2957 
L 3398 2080 
L 5920 2080 
z
M 3424 4870 
Q 3411 4819 3401 4764 
Q 3392 4710 3379 4659 
Q 3411 4563 3456 4493 
Q 3571 4288 3769 4089 
Q 3968 3891 4227 3721 
Q 4486 3552 4796 3421 
Q 5107 3290 5446 3213 
Q 5485 3200 5491 3168 
Q 5498 3136 5485 3104 
L 5376 2886 
Q 5363 2854 5340 2838 
Q 5318 2822 5254 2835 
Q 4915 2918 4601 3059 
Q 4288 3200 4019 3379 
Q 3750 3558 3529 3769 
Q 3309 3981 3168 4205 
Q 2886 3744 2358 3366 
Q 1830 2989 1126 2784 
Q 1024 2758 998 2816 
L 902 3046 
Q 890 3078 899 3116 
Q 909 3155 954 3168 
Q 1382 3283 1740 3472 
Q 2099 3661 2364 3894 
Q 2630 4128 2790 4390 
Q 2950 4653 2982 4915 
Q 2995 5005 3066 4992 
L 3354 4960 
Q 3430 4947 3424 4870 
z
M 1139 909 
Q 1139 947 1171 966 
Q 1203 986 1235 986 
L 4634 986 
Q 4934 986 5027 874 
Q 5120 762 5120 499 
L 5120 -870 
Q 5120 -960 5030 -960 
L 4768 -960 
Q 4678 -960 4678 -870 
L 4678 467 
Q 4678 557 4649 579 
Q 4621 602 4531 602 
L 1235 602 
Q 1203 602 1171 624 
Q 1139 646 1139 678 
L 1139 909 
z
" transform="scale(0.015625)"/>
      <path id="NanumGothicCoding-b3c4" d="M 5222 1984 
Q 5222 1894 5139 1894 
L 3405 1894 
L 3405 499 
L 5920 499 
Q 5952 499 5984 476 
Q 6016 454 6016 416 
L 6016 198 
Q 6016 166 5984 140 
Q 5952 115 5920 115 
L 480 115 
Q 442 115 413 140 
Q 384 166 384 198 
L 384 416 
Q 384 454 413 476 
Q 442 499 480 499 
L 2963 499 
L 2963 1894 
L 1683 1894 
Q 1402 1894 1299 1987 
Q 1197 2080 1197 2349 
L 1197 4134 
Q 1197 4403 1299 4496 
Q 1402 4589 1683 4589 
L 5094 4589 
Q 5178 4589 5178 4506 
L 5178 4294 
Q 5178 4205 5094 4205 
L 1792 4205 
Q 1702 4205 1670 4166 
Q 1638 4128 1638 4032 
L 1638 2445 
Q 1638 2355 1670 2316 
Q 1702 2278 1792 2278 
L 5139 2278 
Q 5222 2278 5222 2195 
L 5222 1984 
z
" transform="scale(0.015625)"/>
      <path id="NanumGothicCoding-2a" d="M 3027 2483 
Q 3059 2400 3046 2381 
Q 3034 2362 2950 2336 
L 1901 2035 
Q 2080 1818 2253 1613 
Q 2426 1408 2592 1197 
Q 2637 1133 2640 1110 
Q 2643 1088 2586 1050 
L 2349 870 
Q 2291 826 2272 826 
Q 2253 826 2221 883 
L 1600 1824 
Q 1453 1606 1296 1369 
Q 1139 1133 998 909 
Q 954 832 934 829 
Q 915 826 851 877 
L 646 1037 
Q 576 1088 573 1107 
Q 570 1126 627 1203 
L 1293 2035 
L 230 2336 
Q 154 2355 144 2374 
Q 134 2394 166 2483 
L 230 2720 
Q 256 2797 269 2806 
Q 282 2816 365 2784 
L 1408 2381 
L 1350 3456 
Q 1344 3520 1357 3545 
Q 1370 3571 1459 3571 
L 1709 3571 
Q 1805 3571 1821 3555 
Q 1837 3539 1830 3456 
L 1786 2381 
Q 2029 2483 2288 2579 
Q 2547 2675 2810 2778 
Q 2886 2816 2905 2803 
Q 2925 2790 2957 2707 
L 3027 2483 
z
" transform="scale(0.015625)"/>
      <path id="NanumGothicCoding-64" d="M 2816 -192 
Q 2816 -275 2726 -275 
L 2477 -275 
Q 2387 -275 2387 -192 
L 2387 275 
Q 2125 -339 1491 -339 
Q 1197 -339 957 -198 
Q 717 -58 544 208 
Q 371 474 297 781 
Q 224 1088 224 1427 
Q 224 2029 557 2531 
Q 890 3034 1491 3034 
Q 1811 3034 2038 2874 
Q 2266 2714 2387 2464 
L 2387 4371 
Q 2387 4454 2477 4454 
L 2726 4454 
Q 2816 4454 2816 4371 
L 2816 -192 
z
M 678 1357 
Q 672 1158 717 924 
Q 762 691 867 483 
Q 973 275 1133 153 
Q 1293 32 1530 32 
Q 1766 32 1926 153 
Q 2086 275 2192 483 
Q 2298 691 2336 924 
Q 2374 1158 2374 1357 
Q 2374 1542 2336 1782 
Q 2298 2022 2192 2227 
Q 2086 2432 1926 2553 
Q 1766 2675 1530 2675 
Q 1293 2675 1133 2553 
Q 973 2432 864 2227 
Q 755 2022 713 1782 
Q 672 1542 678 1357 
z
" transform="scale(0.015625)"/>
      <path id="NanumGothicCoding-74" d="M 2733 -269 
Q 2464 -378 2106 -378 
Q 1523 -378 1357 -38 
Q 1248 192 1248 774 
L 1248 2413 
L 416 2413 
Q 326 2413 326 2502 
L 326 2694 
Q 326 2784 416 2784 
L 1248 2784 
L 1248 3686 
Q 1248 3782 1331 3782 
L 1600 3782 
Q 1683 3782 1683 3686 
L 1683 2784 
L 2714 2784 
Q 2803 2784 2803 2694 
L 2803 2502 
Q 2803 2413 2714 2413 
L 1683 2413 
L 1683 486 
Q 1683 6 2208 6 
Q 2470 6 2707 115 
Q 2739 128 2768 115 
Q 2797 102 2797 64 
L 2810 -141 
Q 2822 -230 2733 -269 
z
" transform="scale(0.015625)"/>
     </defs>
     <use xlink:href="#NanumGothicCoding-c704"/>
     <use xlink:href="#NanumGothicCoding-ce58" transform="translate(99.999985 0)"/>
     <use xlink:href="#NanumGothicCoding-20" transform="translate(199.999969 0)"/>
     <use xlink:href="#NanumGothicCoding-2b" transform="translate(249.999954 0)"/>
     <use xlink:href="#NanumGothicCoding-3d" transform="translate(299.999939 0)"/>
     <use xlink:href="#NanumGothicCoding-20" transform="translate(349.999924 0)"/>
     <use xlink:href="#NanumGothicCoding-c18d" transform="translate(399.999908 0)"/>
     <use xlink:href="#NanumGothicCoding-b3c4" transform="translate(499.999893 0)"/>
     <use xlink:href="#NanumGothicCoding-20" transform="translate(599.999878 0)"/>
     <use xlink:href="#NanumGothicCoding-2a" transform="translate(649.999863 0)"/>
     <use xlink:href="#NanumGothicCoding-20" transform="translate(699.999847 0)"/>
     <use xlink:href="#NanumGothicCoding-64" transform="translate(749.999832 0)"/>
     <use xlink:href="#NanumGothicCoding-74" transform="translate(799.999817 0)"/>
    </g>
   </g>
   <g id="text_2">
    <!-- 각도 += 각속도 * dt -->
    <g style="fill: #111827" transform="translate(16.4736 36.809191) scale(0.11 -0.11)">
     <defs>
      <path id="NanumGothicCoding-ac01" d="M 3482 4243 
Q 3334 3354 2707 2675 
Q 2080 1997 890 1498 
Q 787 1453 749 1536 
L 653 1747 
Q 627 1798 649 1830 
Q 672 1862 704 1875 
Q 1722 2298 2301 2880 
Q 2880 3462 3002 4134 
Q 3040 4314 2848 4314 
L 877 4314 
Q 800 4314 800 4397 
L 800 4621 
Q 800 4698 877 4698 
L 2995 4698 
Q 3302 4698 3411 4589 
Q 3520 4480 3482 4243 
z
M 1389 1165 
Q 1389 1203 1421 1222 
Q 1453 1242 1485 1242 
L 4634 1242 
Q 4934 1242 5027 1130 
Q 5120 1018 5120 755 
L 5120 -832 
Q 5120 -922 5030 -922 
L 4768 -922 
Q 4678 -922 4678 -832 
L 4678 723 
Q 4678 813 4649 835 
Q 4621 858 4531 858 
L 1485 858 
Q 1453 858 1421 880 
Q 1389 902 1389 934 
L 1389 1165 
z
M 5120 1664 
Q 5120 1574 5030 1574 
L 4768 1574 
Q 4678 1574 4678 1664 
L 4678 4915 
Q 4678 5005 4768 5005 
L 5030 5005 
Q 5120 5005 5120 4915 
L 5120 3366 
L 6003 3366 
Q 6042 3366 6070 3344 
Q 6099 3322 6099 3283 
L 6099 3066 
Q 6099 3034 6070 3008 
Q 6042 2982 6003 2982 
L 5120 2982 
L 5120 1664 
z
" transform="scale(0.015625)"/>
     </defs>
     <use xlink:href="#NanumGothicCoding-ac01"/>
     <use xlink:href="#NanumGothicCoding-b3c4" transform="translate(99.999985 0)"/>
     <use xlink:href="#NanumGothicCoding-20" transform="translate(199.999969 0)"/>
     <use xlink:href="#NanumGothicCoding-2b" transform="translate(249.999954 0)"/>
     <use xlink:href="#NanumGothicCoding-3d" transform="translate(299.999939 0)"/>
     <use xlink:href="#NanumGothicCoding-20" transform="translate(349.999924 0)"/>
     <use xlink:href="#NanumGothicCoding-ac01" transform="translate(399.999908 0)"/>
     <use xlink:href="#NanumGothicCoding-c18d" transform="translate(499.999893 0)"/>
     <use xlink:href="#NanumGothicCoding-b3c4" transform="translate(599.999878 0)"/>
     <use xlink:href="#NanumGothicCoding-20" transform="translate(699.999863 0)"/>
     <use xlink:href="#NanumGothicCoding-2a" transform="translate(749.999847 0)"/>
     <use xlink:href="#NanumGothicCoding-20" transform="translate(799.999832 0)"/>
     <use xlink:href="#NanumGothicCoding-64" transform="translate(849.999817 0)"/>
     <use xlink:href="#NanumGothicCoding-74" transform="translate(899.999802 0)"/>
    </g>
   </g>
  </g>
 </g>
 <defs>
  <clipPath id="p4d12c1d270">
   <rect x="5.76" y="5.76" width="267.84" height="99.792"/>
  </clipPath>
 </defs>
</svg>
