<?xml version="1.0" encoding="utf-8" standalone="no"?>
<!DOCTYPE svg PUBLIC "-//W3C//DTD SVG 1.1//EN"
  "http://www.w3.org/Graphics/SVG/1.1/DTD/svg11.dtd">
<svg xmlns:xlink="http://www.w3.org/1999/xlink" width="402.12pt" height="172.296pt" viewBox="0 0 402.12 172.296" xmlns="http://www.w3.org/2000/svg" version="1.1">
 <metadata>
  <rdf:RDF xmlns:dc="http://purl.org/dc/elements/1.1/" xmlns:cc="http://creativecommons.org/ns#" xmlns:rdf="http://www.w3.org/1999/02/22-rdf-syntax-ns#">
   <cc:Work>
    <dc:type rdf:resource="http://purl.org/dc/dcmitype/StillImage"/>
    <dc:date>2026-07-08T05:12:54.895785</dc:date>
    <dc:format>image/svg+xml</dc:format>
    <dc:creator>
     <cc:Agent>
      <dc:title>Matplotlib v3.10.8, https://matplotlib.org/</dc:title>
     </cc:Agent>
    </dc:creator>
   </cc:Work>
  </rdf:RDF>
 </metadata>
 <defs>
  <style type="text/css">*{stroke-linejoin: round; stroke-linecap: butt}</style>
 </defs>
 <g id="figure_1">
  <g id="patch_1">
   <path d="M 0 172.296 
L 402.12 172.296 
L 402.12 0 
L 0 0 
z
" style="fill: #ffffff"/>
  </g>
  <g id="axes_1">
   <g id="patch_2">
    <path d="M 5.76 166.536 
L 396.36 166.536 
L 396.36 5.76 
L 5.76 5.76 
z
" clip-path="url(#pc185d9ea87)" style="fill: #ffffff; stroke: #e5e7eb; stroke-linejoin: miter"/>
   </g>
   <g id="text_1">
    <!-- 1. 표면 법선 normal 구하기 -->
    <g style="fill: #111827" transform="translate(21.384 33.040151) scale(0.11 -0.11)">
     <defs>
      <path id="NanumGothicCoding-31" d="M 2022 -211 
Q 2022 -301 1933 -301 
L 1670 -301 
Q 1581 -301 1581 -211 
L 1581 3565 
Q 1382 3398 1209 3251 
Q 1037 3104 845 2938 
Q 774 2880 717 2950 
L 589 3104 
Q 570 3136 570 3171 
Q 570 3206 602 3232 
L 1594 4064 
Q 1619 4090 1670 4090 
L 1843 4090 
Q 1978 4090 2000 4067 
Q 2022 4045 2022 3910 
L 2022 -211 
z
" transform="scale(0.015625)"/>
      <path id="NanumGothicCoding-2e" d="M 1210 -256 
Q 1210 -96 1325 19 
Q 1440 134 1600 134 
Q 1760 134 1872 19 
Q 1984 -96 1984 -256 
Q 1984 -416 1872 -531 
Q 1760 -646 1600 -646 
Q 1440 -646 1325 -531 
Q 1210 -416 1210 -256 
z
" transform="scale(0.015625)"/>
      <path id="NanumGothicCoding-20" transform="scale(0.015625)"/>
      <path id="NanumGothicCoding-d45c" d="M 5357 2016 
Q 5357 1933 5261 1933 
L 4390 1933 
L 4390 499 
L 5920 499 
Q 5952 499 5984 476 
Q 6016 454 6016 416 
L 6016 198 
Q 6016 166 5984 140 
Q 5952 115 5920 115 
L 480 115 
Q 442 115 413 140 
Q 384 166 384 198 
L 384 416 
Q 384 454 413 476 
Q 442 499 480 499 
L 1958 499 
L 1958 1933 
L 1062 1933 
Q 1030 1933 1001 1958 
Q 973 1984 973 2022 
L 973 2221 
Q 973 2259 1001 2284 
Q 1030 2310 1062 2310 
L 1875 2310 
L 1875 4211 
L 1190 4211 
Q 1158 4211 1129 4236 
Q 1101 4262 1101 4301 
L 1101 4499 
Q 1101 4538 1129 4563 
Q 1158 4589 1190 4589 
L 5133 4589 
Q 5229 4589 5229 4506 
L 5229 4294 
Q 5229 4211 5133 4211 
L 4480 4211 
L 4480 2310 
L 5261 2310 
Q 5357 2310 5357 2227 
L 5357 2016 
z
M 2310 2310 
L 4045 2310 
L 4045 4211 
L 2310 4211 
L 2310 2310 
z
M 2394 499 
L 3955 499 
L 3955 1933 
L 2394 1933 
L 2394 499 
z
" transform="scale(0.015625)"/>
      <path id="NanumGothicCoding-ba74" d="M 5344 877 
Q 5344 787 5254 787 
L 4992 787 
Q 4902 787 4902 877 
L 4902 2381 
L 3635 2381 
L 3635 2227 
Q 3635 1958 3532 1865 
Q 3430 1773 3149 1773 
L 1389 1773 
Q 1235 1773 1142 1792 
Q 1050 1811 995 1865 
Q 941 1920 921 2006 
Q 902 2093 902 2227 
L 902 4205 
Q 902 4474 1004 4566 
Q 1107 4659 1389 4659 
L 3149 4659 
Q 3302 4659 3395 4640 
Q 3488 4621 3542 4569 
Q 3597 4518 3616 4428 
Q 3635 4339 3635 4205 
L 3635 3974 
L 4902 3974 
L 4902 4915 
Q 4902 5005 4992 5005 
L 5254 5005 
Q 5344 5005 5344 4915 
L 5344 877 
z
M 1498 4275 
Q 1408 4275 1376 4240 
Q 1344 4205 1344 4109 
L 1344 2323 
Q 1344 2227 1376 2192 
Q 1408 2157 1498 2157 
L 3040 2157 
Q 3130 2157 3162 2192 
Q 3194 2227 3194 2323 
L 3194 4109 
Q 3194 4205 3162 4240 
Q 3130 4275 3040 4275 
L 1498 4275 
z
M 5542 -704 
Q 5542 -742 5510 -761 
Q 5478 -781 5446 -781 
L 2240 -781 
Q 1939 -781 1846 -669 
Q 1754 -557 1754 -294 
L 1754 1005 
Q 1754 1094 1843 1094 
L 2106 1094 
Q 2195 1094 2195 1005 
L 2195 -262 
Q 2195 -352 2224 -374 
Q 2253 -397 2342 -397 
L 5446 -397 
Q 5478 -397 5510 -419 
Q 5542 -442 5542 -474 
L 5542 -704 
z
M 3635 2758 
L 4902 2758 
L 4902 3597 
L 3635 3597 
L 3635 2758 
z
" transform="scale(0.015625)"/>
      <path id="NanumGothicCoding-bc95" d="M 1382 2099 
Q 1229 2099 1136 2118 
Q 1043 2138 992 2192 
Q 941 2246 921 2332 
Q 902 2419 902 2554 
L 902 4781 
Q 902 4813 928 4835 
Q 954 4858 986 4858 
L 1261 4858 
Q 1293 4858 1315 4832 
Q 1338 4806 1338 4781 
L 1338 3821 
L 3200 3821 
L 3200 4774 
Q 3200 4806 3222 4832 
Q 3245 4858 3277 4858 
L 3552 4858 
Q 3584 4858 3609 4835 
Q 3635 4813 3635 4781 
L 3635 3616 
L 4902 3616 
L 4902 4915 
Q 4902 5005 4992 5005 
L 5254 5005 
Q 5344 5005 5344 4915 
L 5344 1971 
Q 5344 1882 5254 1882 
L 4992 1882 
Q 4902 1882 4902 1971 
L 4902 3232 
L 3635 3232 
L 3635 2509 
Q 3635 2266 3532 2182 
Q 3430 2099 3149 2099 
L 1382 2099 
z
M 2170 -845 
Q 2016 -845 1923 -825 
Q 1830 -806 1779 -752 
Q 1728 -698 1709 -611 
Q 1690 -525 1690 -390 
L 1690 1446 
Q 1690 1478 1715 1497 
Q 1741 1517 1773 1517 
L 2054 1517 
Q 2086 1517 2108 1494 
Q 2131 1472 2131 1446 
L 2131 768 
L 4902 768 
L 4902 1434 
Q 4902 1466 4924 1491 
Q 4947 1517 4979 1517 
L 5261 1517 
Q 5293 1517 5318 1494 
Q 5344 1472 5344 1440 
L 5344 -435 
Q 5344 -678 5241 -761 
Q 5139 -845 4858 -845 
L 2170 -845 
z
M 2131 384 
L 2131 -307 
Q 2131 -403 2163 -432 
Q 2195 -461 2285 -461 
L 4749 -461 
Q 4838 -461 4870 -432 
Q 4902 -403 4902 -307 
L 4902 384 
L 2131 384 
z
M 1338 3443 
L 1338 2630 
Q 1338 2534 1370 2505 
Q 1402 2477 1491 2477 
L 3046 2477 
Q 3136 2477 3168 2505 
Q 3200 2534 3200 2630 
L 3200 3443 
L 1338 3443 
z
" transform="scale(0.015625)"/>
      <path id="NanumGothicCoding-c120" d="M 2573 4710 
Q 2573 4461 2544 4224 
Q 2515 3987 2464 3763 
Q 2541 3501 2685 3241 
Q 2829 2982 3024 2748 
Q 3219 2515 3449 2326 
Q 3680 2138 3923 2022 
Q 3962 2003 3958 1971 
Q 3955 1939 3942 1907 
L 3814 1696 
Q 3795 1664 3769 1651 
Q 3744 1638 3686 1670 
Q 3501 1760 3299 1926 
Q 3098 2093 2902 2294 
Q 2707 2496 2540 2723 
Q 2374 2950 2266 3162 
Q 2048 2643 1693 2217 
Q 1338 1792 858 1478 
Q 826 1459 787 1452 
Q 749 1446 723 1478 
L 563 1690 
Q 544 1715 557 1753 
Q 570 1792 602 1811 
Q 947 2022 1232 2336 
Q 1517 2650 1718 3027 
Q 1920 3405 2025 3837 
Q 2131 4269 2125 4717 
Q 2125 4819 2202 4819 
L 2502 4800 
Q 2573 4800 2573 4710 
z
M 4902 3475 
L 4902 4915 
Q 4902 5005 4992 5005 
L 5254 5005 
Q 5344 5005 5344 4915 
L 5344 832 
Q 5344 742 5254 742 
L 4992 742 
Q 4902 742 4902 832 
L 4902 3091 
L 3584 3091 
Q 3501 3091 3501 3168 
L 3501 3398 
Q 3501 3475 3584 3475 
L 4902 3475 
z
M 5536 -704 
Q 5536 -742 5504 -761 
Q 5472 -781 5440 -781 
L 2234 -781 
Q 1933 -781 1840 -669 
Q 1747 -557 1747 -294 
L 1747 960 
Q 1747 1050 1837 1050 
L 2099 1050 
Q 2189 1050 2189 960 
L 2189 -262 
Q 2189 -352 2217 -374 
Q 2246 -397 2336 -397 
L 5440 -397 
Q 5472 -397 5504 -419 
Q 5536 -442 5536 -474 
L 5536 -704 
z
" transform="scale(0.015625)"/>
      <path id="NanumGothicCoding-6e" d="M 2797 -186 
Q 2797 -275 2707 -275 
L 2451 -275 
Q 2362 -275 2362 -186 
L 2362 1574 
Q 2362 2163 2202 2409 
Q 2042 2656 1658 2656 
Q 1318 2656 1088 2384 
Q 858 2112 858 1562 
L 858 -186 
Q 858 -275 768 -275 
L 512 -275 
Q 422 -275 422 -186 
L 422 2118 
Q 422 2394 419 2547 
Q 416 2701 403 2842 
Q 397 2886 425 2908 
Q 454 2931 493 2931 
L 723 2931 
Q 813 2931 813 2842 
L 813 2483 
Q 966 2758 1187 2889 
Q 1408 3021 1696 3021 
Q 2259 3021 2528 2669 
Q 2797 2317 2797 1677 
L 2797 -186 
z
" transform="scale(0.015625)"/>
      <path id="NanumGothicCoding-6f" d="M 2490 1331 
Q 2490 1581 2432 1824 
Q 2374 2067 2253 2266 
Q 2010 2650 1594 2650 
Q 1158 2650 934 2266 
Q 813 2067 758 1824 
Q 704 1581 704 1331 
Q 704 1056 755 813 
Q 806 570 934 397 
Q 1216 6 1594 6 
Q 2035 6 2253 397 
Q 2381 570 2435 813 
Q 2490 1056 2490 1331 
z
M 2931 1331 
Q 2931 979 2851 668 
Q 2771 358 2605 147 
Q 2413 -102 2163 -240 
Q 1914 -378 1594 -378 
Q 1274 -378 1024 -240 
Q 774 -102 582 147 
Q 429 378 349 678 
Q 269 979 269 1331 
Q 269 2054 582 2515 
Q 947 3034 1594 3034 
Q 1920 3034 2166 2909 
Q 2413 2784 2605 2515 
Q 2931 2048 2931 1331 
z
" transform="scale(0.015625)"/>
      <path id="NanumGothicCoding-72" d="M 1946 122 
Q 2035 122 2035 32 
L 2035 -186 
Q 2035 -275 1946 -275 
L 506 -275 
Q 416 -275 416 -186 
L 416 32 
Q 416 122 506 122 
L 883 122 
L 883 2534 
L 390 2534 
Q 301 2534 301 2624 
L 301 2842 
Q 301 2931 390 2931 
L 1165 2931 
Q 1254 2931 1254 2842 
L 1254 2214 
Q 1645 3021 2381 3021 
Q 2758 3021 3059 2874 
Q 3123 2848 3129 2809 
Q 3136 2771 3117 2726 
L 3040 2496 
Q 3021 2451 2992 2454 
Q 2963 2458 2918 2483 
Q 2637 2618 2317 2618 
Q 1792 2592 1485 2048 
Q 1312 1715 1312 1178 
L 1312 122 
L 1946 122 
z
" transform="scale(0.015625)"/>
      <path id="NanumGothicCoding-6d" d="M 269 2118 
Q 269 2387 262 2544 
Q 256 2701 243 2842 
Q 243 2931 333 2931 
L 570 2931 
Q 659 2931 659 2842 
L 653 2566 
Q 698 2771 832 2889 
Q 966 3008 1101 3008 
Q 1338 3008 1482 2816 
Q 1626 2624 1664 2362 
Q 1683 2573 1804 2777 
Q 1926 2982 2202 3008 
Q 2445 3008 2585 2921 
Q 2726 2835 2809 2675 
Q 2893 2515 2925 2304 
Q 2957 2093 2957 1856 
L 2957 -186 
Q 2957 -275 2867 -275 
L 2624 -275 
Q 2534 -275 2534 -192 
L 2534 1766 
Q 2534 2611 2195 2611 
Q 2067 2611 1990 2508 
Q 1914 2406 1878 2252 
Q 1843 2099 1827 1868 
Q 1811 1638 1818 1382 
L 1818 -186 
Q 1818 -275 1728 -275 
L 1498 -275 
Q 1408 -275 1408 -186 
L 1408 1766 
Q 1389 2611 1050 2611 
Q 870 2611 777 2355 
Q 685 2099 691 1619 
L 691 -186 
Q 691 -275 602 -275 
L 358 -275 
Q 269 -275 269 -186 
L 269 2118 
z
" transform="scale(0.015625)"/>
      <path id="NanumGothicCoding-61" d="M 2368 1402 
L 2246 1402 
Q 1888 1414 1645 1376 
Q 1402 1338 1229 1254 
Q 1018 1165 902 976 
Q 787 787 787 589 
Q 787 474 838 342 
Q 890 211 998 141 
Q 1184 -13 1414 -13 
Q 1638 -13 1785 73 
Q 1933 160 2073 342 
Q 2214 525 2291 755 
Q 2368 986 2368 1203 
L 2368 1402 
z
M 723 2400 
Q 691 2381 662 2390 
Q 634 2400 634 2432 
L 634 2682 
Q 634 2765 723 2803 
Q 941 2931 1168 2982 
Q 1395 3034 1658 3034 
Q 2214 3046 2508 2713 
Q 2803 2381 2803 1888 
L 2803 397 
Q 2803 218 2809 77 
Q 2816 -64 2829 -192 
Q 2829 -275 2739 -275 
L 2509 -275 
Q 2419 -275 2419 -192 
L 2419 262 
Q 2285 -38 2009 -208 
Q 1734 -378 1363 -378 
Q 813 -378 512 -19 
Q 410 96 358 256 
Q 307 416 307 570 
Q 307 902 489 1180 
Q 672 1459 1050 1600 
Q 1414 1766 2285 1766 
L 2368 1766 
L 2368 1914 
Q 2368 2240 2185 2454 
Q 2003 2669 1658 2669 
Q 1382 2669 1168 2608 
Q 954 2547 723 2400 
z
" transform="scale(0.015625)"/>
      <path id="NanumGothicCoding-6c" d="M 2605 122 
Q 2694 122 2694 32 
L 2694 -186 
Q 2694 -275 2605 -275 
L 531 -275 
Q 442 -275 442 -186 
L 442 32 
Q 442 122 531 122 
L 1389 122 
L 1389 4032 
L 710 4032 
Q 621 4032 621 4122 
L 621 4339 
Q 621 4429 710 4429 
L 1760 4429 
Q 1850 4429 1850 4339 
L 1850 122 
L 2605 122 
z
" transform="scale(0.015625)"/>
      <path id="NanumGothicCoding-ad6c" d="M 1158 4749 
Q 1158 4787 1190 4806 
Q 1222 4826 1254 4826 
L 4640 4826 
Q 4794 4826 4886 4794 
Q 4979 4762 5030 4701 
Q 5082 4640 5104 4544 
Q 5126 4448 5126 4314 
Q 5139 3814 5065 3296 
Q 4992 2778 4864 2176 
L 5920 2176 
Q 5952 2176 5984 2153 
Q 6016 2131 6016 2093 
L 6016 1875 
Q 6016 1843 5984 1817 
Q 5952 1792 5920 1792 
L 3405 1792 
L 3405 -762 
Q 3405 -800 3382 -829 
Q 3360 -858 3322 -858 
L 3046 -858 
Q 3014 -858 2988 -829 
Q 2963 -800 2963 -762 
L 2963 1792 
L 480 1792 
Q 442 1792 413 1817 
Q 384 1843 384 1875 
L 384 2093 
Q 384 2131 413 2153 
Q 442 2176 480 2176 
L 4429 2176 
Q 4493 2426 4550 2720 
Q 4608 3014 4643 3308 
Q 4678 3603 4691 3865 
Q 4704 4128 4691 4307 
Q 4678 4397 4656 4419 
Q 4634 4442 4544 4442 
L 1254 4442 
Q 1222 4442 1190 4464 
Q 1158 4486 1158 4518 
L 1158 4749 
z
" transform="scale(0.015625)"/>
      <path id="NanumGothicCoding-d558" d="M 3738 1542 
Q 3738 1280 3632 1056 
Q 3526 832 3340 662 
Q 3155 493 2899 397 
Q 2643 301 2349 301 
Q 2048 301 1795 397 
Q 1542 493 1356 659 
Q 1171 826 1065 1053 
Q 960 1280 960 1542 
Q 960 1811 1065 2038 
Q 1171 2266 1356 2432 
Q 1542 2598 1795 2694 
Q 2048 2790 2349 2790 
Q 2643 2790 2899 2691 
Q 3155 2592 3340 2425 
Q 3526 2259 3632 2028 
Q 3738 1798 3738 1542 
z
M 5120 -806 
Q 5120 -896 5030 -896 
L 4768 -896 
Q 4678 -896 4678 -806 
L 4678 4915 
Q 4678 5005 4768 5005 
L 5030 5005 
Q 5120 5005 5120 4915 
L 5120 2554 
L 6003 2554 
Q 6042 2554 6070 2531 
Q 6099 2509 6099 2470 
L 6099 2253 
Q 6099 2221 6070 2195 
Q 6042 2170 6003 2170 
L 5120 2170 
L 5120 -806 
z
M 3302 1542 
Q 3302 1728 3232 1888 
Q 3162 2048 3034 2166 
Q 2906 2285 2730 2352 
Q 2554 2419 2349 2419 
Q 2144 2419 1968 2352 
Q 1792 2285 1664 2166 
Q 1536 2048 1462 1888 
Q 1389 1728 1389 1542 
Q 1389 1357 1462 1200 
Q 1536 1043 1664 924 
Q 1792 806 1968 739 
Q 2144 672 2349 672 
Q 2554 672 2730 739 
Q 2906 806 3034 921 
Q 3162 1037 3232 1197 
Q 3302 1357 3302 1542 
z
M 4218 3328 
Q 4218 3245 4122 3245 
L 589 3245 
Q 557 3245 528 3270 
Q 499 3296 499 3334 
L 499 3539 
Q 499 3578 528 3603 
Q 557 3629 589 3629 
L 4122 3629 
Q 4218 3629 4218 3546 
L 4218 3328 
z
M 3283 4416 
Q 3283 4326 3187 4326 
L 1434 4326 
Q 1402 4326 1373 4348 
Q 1344 4371 1344 4410 
L 1344 4627 
Q 1344 4666 1369 4691 
Q 1395 4717 1427 4717 
L 3187 4717 
Q 3283 4717 3283 4627 
L 3283 4416 
z
" transform="scale(0.015625)"/>
      <path id="NanumGothicCoding-ae30" d="M 5344 -806 
Q 5344 -896 5254 -896 
L 4992 -896 
Q 4902 -896 4902 -806 
L 4902 4915 
Q 4902 5005 4992 5005 
L 5254 5005 
Q 5344 5005 5344 4915 
L 5344 -806 
z
M 3629 4064 
Q 3597 3514 3411 2982 
Q 3226 2451 2896 1968 
Q 2566 1485 2102 1072 
Q 1638 659 1050 346 
Q 966 301 928 365 
L 787 589 
Q 742 666 813 698 
Q 1357 979 1776 1340 
Q 2195 1702 2492 2124 
Q 2790 2547 2963 3014 
Q 3136 3482 3181 3974 
Q 3194 4070 3155 4105 
Q 3117 4141 3027 4141 
L 992 4141 
Q 915 4141 915 4224 
L 915 4448 
Q 915 4525 992 4525 
L 3149 4525 
Q 3450 4525 3546 4413 
Q 3642 4301 3629 4064 
z
" transform="scale(0.015625)"/>
     </defs>
     <use xlink:href="#NanumGothicCoding-31"/>
     <use xlink:href="#NanumGothicCoding-2e" transform="translate(49.999985 0)"/>
     <use xlink:href="#NanumGothicCoding-20" transform="translate(99.999969 0)"/>
     <use xlink:href="#NanumGothicCoding-d45c" transform="translate(149.999954 0)"/>
     <use xlink:href="#NanumGothicCoding-ba74" transform="translate(249.999939 0)"/>
     <use xlink:href="#NanumGothicCoding-20" transform="translate(349.999924 0)"/>
     <use xlink:href="#NanumGothicCoding-bc95" transform="translate(399.999908 0)"/>
     <use xlink:href="#NanumGothicCoding-c120" transform="translate(499.999893 0)"/>
     <use xlink:href="#NanumGothicCoding-20" transform="translate(599.999878 0)"/>
     <use xlink:href="#NanumGothicCoding-6e" transform="translate(649.999863 0)"/>
     <use xlink:href="#NanumGothicCoding-6f" transform="translate(699.999847 0)"/>
     <use xlink:href="#NanumGothicCoding-72" transform="translate(749.999832 0)"/>
     <use xlink:href="#NanumGothicCoding-6d" transform="translate(799.999817 0)"/>
     <use xlink:href="#NanumGothicCoding-61" transform="translate(849.999802 0)"/>
     <use xlink:href="#NanumGothicCoding-6c" transform="translate(899.999786 0)"/>
     <use xlink:href="#NanumGothicCoding-20" transform="translate(949.999771 0)"/>
     <use xlink:href="#NanumGothicCoding-ad6c" transform="translate(999.999756 0)"/>
     <use xlink:href="#NanumGothicCoding-d558" transform="translate(1099.999741 0)"/>
     <use xlink:href="#NanumGothicCoding-ae30" transform="translate(1199.999725 0)"/>
    </g>
   </g>
   <g id="text_2">
    <!-- 2. 카메라의 right/up/forward 축 만들기 -->
    <g style="fill: #111827" transform="translate(21.384 51.340824) scale(0.11 -0.11)">
     <defs>
      <path id="NanumGothicCoding-32" d="M 442 -301 
Q 378 -301 342 -297 
Q 307 -294 291 -278 
Q 275 -262 272 -227 
Q 269 -192 269 -122 
L 269 19 
Q 269 102 320 147 
L 1286 1146 
Q 2317 2246 2310 2854 
Q 2317 3277 2125 3501 
Q 1907 3744 1523 3757 
Q 1069 3757 602 3469 
Q 518 3424 499 3507 
L 461 3718 
Q 442 3827 525 3859 
Q 781 4000 1017 4070 
Q 1254 4141 1510 4141 
Q 2022 4141 2387 3834 
Q 2790 3501 2790 2886 
Q 2790 2650 2681 2365 
Q 2573 2080 2336 1760 
Q 2112 1478 1971 1308 
Q 1830 1139 1600 890 
Q 1350 627 1206 480 
Q 1062 333 826 96 
L 2803 96 
Q 2899 90 2893 6 
L 2893 -218 
Q 2893 -301 2810 -301 
L 442 -301 
z
" transform="scale(0.015625)"/>
      <path id="NanumGothicCoding-ce74" d="M 806 2944 
Q 998 2944 1203 2950 
Q 1408 2957 1603 2963 
Q 1798 2970 1968 2976 
Q 2138 2982 2253 2989 
Q 2291 2989 2358 2995 
Q 2426 3002 2502 3005 
Q 2579 3008 2659 3014 
Q 2739 3021 2797 3034 
Q 2957 3482 3008 3974 
Q 3021 4070 2982 4105 
Q 2944 4141 2854 4141 
L 902 4141 
Q 826 4141 826 4224 
L 826 4448 
Q 826 4525 902 4525 
L 2976 4525 
Q 3277 4525 3373 4413 
Q 3469 4301 3456 4064 
Q 3424 3514 3238 2992 
Q 3053 2470 2723 2000 
Q 2394 1530 1930 1126 
Q 1466 723 877 410 
Q 794 365 755 429 
L 614 653 
Q 570 730 640 762 
Q 1338 1126 1834 1600 
Q 2330 2074 2618 2637 
Q 2528 2624 2438 2621 
Q 2349 2618 2291 2618 
Q 2138 2611 1949 2604 
Q 1760 2598 1565 2592 
Q 1370 2586 1174 2579 
Q 979 2573 806 2573 
Q 723 2573 723 2650 
L 723 2867 
Q 723 2944 806 2944 
z
M 5120 -806 
Q 5120 -896 5030 -896 
L 4768 -896 
Q 4678 -896 4678 -806 
L 4678 4915 
Q 4678 5005 4768 5005 
L 5030 5005 
Q 5120 5005 5120 4915 
L 5120 2656 
L 6003 2656 
Q 6042 2656 6070 2633 
Q 6099 2611 6099 2573 
L 6099 2355 
Q 6099 2323 6070 2297 
Q 6042 2272 6003 2272 
L 5120 2272 
L 5120 -806 
z
" transform="scale(0.015625)"/>
      <path id="NanumGothicCoding-ba54" d="M 678 4038 
Q 678 4307 780 4400 
Q 883 4493 1165 4493 
L 2694 4493 
Q 2848 4493 2941 4473 
Q 3034 4454 3088 4403 
Q 3142 4352 3161 4262 
Q 3181 4173 3181 4038 
L 3181 2803 
L 4000 2803 
L 4000 4806 
Q 4000 4896 4090 4896 
L 4333 4896 
Q 4422 4896 4422 4806 
L 4422 -563 
Q 4422 -653 4333 -653 
L 4090 -653 
Q 4000 -653 4000 -563 
L 4000 2419 
L 3181 2419 
L 3181 1267 
Q 3181 998 3078 905 
Q 2976 813 2694 813 
L 1165 813 
Q 1011 813 918 832 
Q 826 851 771 905 
Q 717 960 697 1046 
Q 678 1133 678 1267 
L 678 4038 
z
M 1274 4109 
Q 1184 4109 1152 4073 
Q 1120 4038 1120 3942 
L 1120 1363 
Q 1120 1267 1152 1232 
Q 1184 1197 1274 1197 
L 2586 1197 
Q 2675 1197 2707 1232 
Q 2739 1267 2739 1363 
L 2739 3942 
Q 2739 4038 2707 4073 
Q 2675 4109 2586 4109 
L 1274 4109 
z
M 5555 -806 
Q 5555 -896 5466 -896 
L 5222 -896 
Q 5133 -896 5133 -806 
L 5133 4915 
Q 5133 5005 5222 5005 
L 5466 5005 
Q 5555 5005 5555 4915 
L 5555 -806 
z
" transform="scale(0.015625)"/>
      <path id="NanumGothicCoding-b77c" d="M 1280 570 
Q 992 582 893 688 
Q 794 794 794 1062 
L 794 2330 
Q 794 2598 906 2691 
Q 1018 2784 1306 2784 
L 2918 2784 
Q 3008 2784 3033 2809 
Q 3059 2835 3059 2931 
L 3059 3994 
Q 3059 4090 3036 4115 
Q 3014 4141 2925 4141 
L 909 4141 
Q 877 4141 848 4160 
Q 819 4179 819 4211 
L 819 4454 
Q 819 4486 848 4505 
Q 877 4525 909 4525 
L 2995 4525 
Q 3149 4525 3245 4502 
Q 3341 4480 3398 4429 
Q 3456 4378 3478 4285 
Q 3501 4192 3501 4058 
L 3501 2854 
Q 3501 2586 3389 2493 
Q 3277 2400 2989 2400 
L 1370 2400 
Q 1280 2400 1257 2374 
Q 1235 2349 1235 2253 
L 1235 1094 
Q 1235 947 1376 947 
Q 2138 934 2838 1004 
Q 3539 1075 4198 1222 
Q 4288 1242 4307 1158 
L 4346 947 
Q 4358 864 4262 838 
Q 3923 762 3548 707 
Q 3174 653 2790 617 
Q 2406 582 2022 569 
Q 1638 557 1280 570 
z
M 5120 -806 
Q 5120 -896 5030 -896 
L 4768 -896 
Q 4678 -896 4678 -806 
L 4678 4915 
Q 4678 5005 4768 5005 
L 5030 5005 
Q 5120 5005 5120 4915 
L 5120 2586 
L 6003 2586 
Q 6042 2586 6070 2563 
Q 6099 2541 6099 2502 
L 6099 2285 
Q 6099 2253 6070 2227 
Q 6042 2202 6003 2202 
L 5120 2202 
L 5120 -806 
z
" transform="scale(0.015625)"/>
      <path id="NanumGothicCoding-c758" d="M 5344 -806 
Q 5344 -896 5254 -896 
L 4992 -896 
Q 4902 -896 4902 -806 
L 4902 4915 
Q 4902 5005 4992 5005 
L 5254 5005 
Q 5344 5005 5344 4915 
L 5344 -806 
z
M 3885 3187 
Q 3885 2867 3769 2601 
Q 3654 2336 3449 2144 
Q 3245 1952 2963 1846 
Q 2682 1741 2349 1741 
Q 2022 1741 1747 1846 
Q 1472 1952 1270 2144 
Q 1069 2336 953 2601 
Q 838 2867 838 3187 
Q 838 3526 953 3795 
Q 1069 4064 1270 4253 
Q 1472 4442 1747 4541 
Q 2022 4640 2349 4640 
Q 2656 4640 2934 4541 
Q 3213 4442 3424 4253 
Q 3635 4064 3760 3795 
Q 3885 3526 3885 3187 
z
M 3437 3194 
Q 3437 3456 3350 3654 
Q 3264 3853 3113 3984 
Q 2963 4115 2764 4179 
Q 2566 4243 2349 4243 
Q 2118 4243 1926 4176 
Q 1734 4109 1590 3977 
Q 1446 3846 1366 3651 
Q 1286 3456 1286 3194 
Q 1286 2701 1577 2416 
Q 1869 2131 2349 2131 
Q 2566 2131 2764 2204 
Q 2963 2278 3113 2412 
Q 3264 2547 3350 2745 
Q 3437 2944 3437 3194 
z
M 4486 1069 
Q 4518 1075 4547 1059 
Q 4576 1043 4582 1018 
L 4614 800 
Q 4621 723 4538 704 
Q 4326 666 4076 630 
Q 3827 595 3561 563 
Q 3296 531 3027 505 
Q 2758 480 2502 461 
Q 2304 448 2038 435 
Q 1773 422 1497 412 
Q 1222 403 972 400 
Q 723 397 563 403 
Q 525 403 496 428 
Q 467 454 467 486 
L 467 704 
Q 467 742 496 764 
Q 525 787 563 787 
Q 749 787 1008 790 
Q 1267 794 1539 800 
Q 1811 806 2064 816 
Q 2317 826 2490 838 
Q 2714 851 2992 876 
Q 3270 902 3545 934 
Q 3821 966 4070 1001 
Q 4320 1037 4486 1069 
z
" transform="scale(0.015625)"/>
      <path id="NanumGothicCoding-69" d="M 2656 122 
Q 2746 122 2746 32 
L 2746 -186 
Q 2746 -275 2656 -275 
L 614 -275 
Q 525 -275 525 -186 
L 525 32 
Q 525 122 614 122 
L 1434 122 
L 1434 2534 
L 685 2534 
Q 595 2534 595 2624 
L 595 2842 
Q 595 2931 685 2931 
L 1805 2931 
Q 1894 2931 1894 2842 
L 1894 122 
L 2656 122 
z
M 1235 3968 
Q 1235 4115 1340 4220 
Q 1446 4326 1594 4326 
Q 1741 4326 1846 4220 
Q 1952 4115 1952 3968 
Q 1952 3821 1846 3715 
Q 1741 3610 1594 3610 
Q 1446 3610 1340 3715 
Q 1235 3821 1235 3968 
z
" transform="scale(0.015625)"/>
      <path id="NanumGothicCoding-67" d="M 550 -1114 
Q 480 -1094 493 -1024 
L 506 -736 
Q 506 -653 589 -698 
Q 826 -806 1030 -854 
Q 1235 -902 1402 -902 
Q 1837 -902 2099 -572 
Q 2362 -243 2387 390 
Q 2246 115 2016 -22 
Q 1786 -160 1498 -160 
Q 1222 -160 995 -54 
Q 768 51 605 249 
Q 442 448 355 742 
Q 269 1037 269 1376 
Q 269 1728 355 2029 
Q 442 2330 605 2554 
Q 768 2778 995 2893 
Q 1222 3008 1498 3008 
Q 1786 3008 2038 2851 
Q 2291 2694 2406 2458 
L 2394 2848 
Q 2394 2931 2483 2931 
L 2720 2931 
Q 2810 2931 2810 2848 
L 2810 493 
Q 2810 122 2710 -230 
Q 2611 -582 2416 -809 
Q 2221 -1037 1977 -1152 
Q 1734 -1267 1395 -1267 
Q 1203 -1267 992 -1232 
Q 781 -1197 550 -1114 
z
M 730 1427 
Q 730 1242 765 1027 
Q 800 813 905 608 
Q 1011 403 1171 307 
Q 1331 211 1555 211 
Q 1779 211 1936 323 
Q 2093 435 2198 624 
Q 2304 813 2336 1027 
Q 2368 1242 2368 1427 
Q 2368 1600 2336 1821 
Q 2304 2042 2198 2227 
Q 2093 2413 1936 2525 
Q 1779 2637 1555 2637 
Q 1331 2637 1174 2525 
Q 1018 2413 909 2227 
Q 800 2042 765 1821 
Q 730 1600 730 1427 
z
" transform="scale(0.015625)"/>
      <path id="NanumGothicCoding-68" d="M 2835 -186 
Q 2835 -275 2746 -275 
L 2490 -275 
Q 2400 -275 2400 -186 
L 2400 1549 
Q 2400 1856 2349 2070 
Q 2298 2285 2192 2416 
Q 2086 2547 1952 2604 
Q 1818 2662 1619 2662 
Q 1267 2662 1043 2412 
Q 819 2163 819 1722 
L 819 -186 
Q 819 -275 730 -275 
L 474 -275 
Q 384 -275 384 -186 
L 384 4346 
Q 384 4435 474 4435 
L 730 4435 
Q 819 4435 819 4346 
L 819 2598 
Q 998 2835 1206 2931 
Q 1414 3027 1664 3027 
Q 2234 3027 2534 2662 
Q 2835 2298 2835 1555 
L 2835 -186 
z
" transform="scale(0.015625)"/>
      <path id="NanumGothicCoding-74" d="M 2733 -269 
Q 2464 -378 2106 -378 
Q 1523 -378 1357 -38 
Q 1248 192 1248 774 
L 1248 2413 
L 416 2413 
Q 326 2413 326 2502 
L 326 2694 
Q 326 2784 416 2784 
L 1248 2784 
L 1248 3686 
Q 1248 3782 1331 3782 
L 1600 3782 
Q 1683 3782 1683 3686 
L 1683 2784 
L 2714 2784 
Q 2803 2784 2803 2694 
L 2803 2502 
Q 2803 2413 2714 2413 
L 1683 2413 
L 1683 486 
Q 1683 6 2208 6 
Q 2470 6 2707 115 
Q 2739 128 2768 115 
Q 2797 102 2797 64 
L 2810 -141 
Q 2822 -230 2733 -269 
z
" transform="scale(0.015625)"/>
      <path id="NanumGothicCoding-2f" d="M 2650 4410 
Q 2726 4410 2736 4397 
Q 2746 4384 2720 4314 
L 934 -486 
Q 909 -544 896 -553 
Q 883 -563 813 -563 
L 544 -563 
Q 467 -563 457 -550 
Q 448 -538 474 -474 
L 2259 4320 
Q 2285 4384 2301 4397 
Q 2317 4410 2400 4410 
L 2650 4410 
z
" transform="scale(0.015625)"/>
      <path id="NanumGothicCoding-75" d="M 2816 -186 
Q 2816 -275 2726 -275 
L 2496 -275 
Q 2406 -275 2406 -186 
L 2406 346 
Q 2240 -38 1997 -208 
Q 1754 -378 1421 -378 
Q 384 -378 384 960 
L 384 2842 
Q 384 2931 474 2931 
L 730 2931 
Q 819 2931 819 2842 
L 819 1075 
Q 819 -13 1491 -13 
Q 1645 -13 1805 92 
Q 1965 198 2099 380 
Q 2234 563 2304 806 
Q 2374 1050 2368 1318 
L 2368 2842 
Q 2368 2931 2458 2931 
L 2714 2931 
Q 2803 2931 2803 2842 
L 2803 525 
Q 2803 314 2806 147 
Q 2810 -19 2816 -186 
z
" transform="scale(0.015625)"/>
      <path id="NanumGothicCoding-70" d="M 397 2848 
Q 397 2931 486 2931 
L 736 2931 
Q 826 2931 826 2848 
L 826 2381 
Q 1088 2995 1722 2995 
Q 2016 2995 2256 2854 
Q 2496 2714 2669 2448 
Q 2842 2182 2915 1875 
Q 2989 1568 2989 1229 
Q 2989 627 2656 124 
Q 2323 -378 1722 -378 
Q 1402 -378 1174 -218 
Q 947 -58 826 173 
L 826 -1171 
Q 826 -1254 736 -1254 
L 486 -1254 
Q 397 -1254 397 -1171 
L 397 2848 
z
M 2534 1299 
Q 2541 1498 2496 1731 
Q 2451 1965 2345 2173 
Q 2240 2381 2080 2502 
Q 1920 2624 1683 2624 
Q 1446 2624 1286 2502 
Q 1126 2381 1020 2173 
Q 915 1965 876 1731 
Q 838 1498 838 1299 
Q 838 1114 876 874 
Q 915 634 1020 429 
Q 1126 224 1286 102 
Q 1446 -19 1683 -19 
Q 1920 -19 2080 102 
Q 2240 224 2349 429 
Q 2458 634 2499 874 
Q 2541 1114 2534 1299 
z
" transform="scale(0.015625)"/>
      <path id="NanumGothicCoding-66" d="M 2694 4422 
Q 2765 4390 2758 4333 
L 2720 4109 
Q 2714 4070 2688 4060 
Q 2662 4051 2637 4064 
Q 2534 4109 2416 4134 
Q 2298 4160 2176 4160 
Q 1798 4160 1690 3782 
Q 1645 3629 1645 3110 
L 1645 2784 
L 2765 2784 
Q 2854 2784 2854 2694 
L 2854 2502 
Q 2854 2413 2765 2413 
L 1645 2413 
L 1645 -186 
Q 1645 -275 1555 -275 
L 1306 -275 
Q 1216 -275 1216 -186 
L 1216 2413 
L 442 2413 
Q 352 2413 352 2502 
L 352 2694 
Q 352 2784 442 2784 
L 1216 2784 
L 1216 3066 
Q 1216 3763 1344 4070 
Q 1542 4531 2138 4531 
Q 2438 4531 2694 4422 
z
" transform="scale(0.015625)"/>
      <path id="NanumGothicCoding-77" d="M 2451 -205 
Q 2432 -275 2349 -275 
L 1971 -275 
Q 1894 -275 1869 -205 
L 1587 1894 
L 1542 2272 
L 1498 1894 
L 1222 -198 
Q 1203 -275 1107 -275 
L 755 -275 
Q 710 -275 681 -262 
Q 653 -250 640 -198 
L 154 2842 
Q 141 2874 160 2902 
Q 179 2931 218 2931 
L 474 2931 
Q 550 2931 589 2842 
L 883 653 
L 941 211 
L 998 672 
L 1242 2618 
Q 1274 2739 1389 2739 
L 1690 2739 
Q 1811 2739 1843 2618 
L 2093 672 
L 2150 211 
L 2214 653 
L 2502 2842 
Q 2515 2880 2547 2905 
Q 2579 2931 2618 2931 
L 2874 2931 
Q 2912 2931 2931 2902 
Q 2950 2874 2938 2842 
L 2451 -205 
z
" transform="scale(0.015625)"/>
      <path id="NanumGothicCoding-64" d="M 2816 -192 
Q 2816 -275 2726 -275 
L 2477 -275 
Q 2387 -275 2387 -192 
L 2387 275 
Q 2125 -339 1491 -339 
Q 1197 -339 957 -198 
Q 717 -58 544 208 
Q 371 474 297 781 
Q 224 1088 224 1427 
Q 224 2029 557 2531 
Q 890 3034 1491 3034 
Q 1811 3034 2038 2874 
Q 2266 2714 2387 2464 
L 2387 4371 
Q 2387 4454 2477 4454 
L 2726 4454 
Q 2816 4454 2816 4371 
L 2816 -192 
z
M 678 1357 
Q 672 1158 717 924 
Q 762 691 867 483 
Q 973 275 1133 153 
Q 1293 32 1530 32 
Q 1766 32 1926 153 
Q 2086 275 2192 483 
Q 2298 691 2336 924 
Q 2374 1158 2374 1357 
Q 2374 1542 2336 1782 
Q 2298 2022 2192 2227 
Q 2086 2432 1926 2553 
Q 1766 2675 1530 2675 
Q 1293 2675 1133 2553 
Q 973 2432 864 2227 
Q 755 2022 713 1782 
Q 672 1542 678 1357 
z
" transform="scale(0.015625)"/>
      <path id="NanumGothicCoding-cd95" d="M 1139 806 
Q 1139 845 1171 864 
Q 1203 883 1235 883 
L 2970 883 
L 2970 1587 
L 480 1587 
Q 442 1587 413 1612 
Q 384 1638 384 1670 
L 384 1888 
Q 384 1926 413 1948 
Q 442 1971 480 1971 
L 5920 1971 
Q 5952 1971 5984 1948 
Q 6016 1926 6016 1888 
L 6016 1670 
Q 6016 1638 5984 1612 
Q 5952 1587 5920 1587 
L 3411 1587 
L 3411 883 
L 4634 883 
Q 4934 883 5027 771 
Q 5120 659 5120 397 
L 5120 -870 
Q 5120 -960 5030 -960 
L 4768 -960 
Q 4678 -960 4678 -870 
L 4678 365 
Q 4678 454 4649 476 
Q 4621 499 4531 499 
L 1235 499 
Q 1203 499 1171 521 
Q 1139 544 1139 576 
L 1139 806 
z
M 4595 3610 
Q 4429 3482 4221 3366 
Q 4013 3251 3770 3142 
Q 4128 3040 4544 2953 
Q 4960 2867 5338 2816 
Q 5389 2803 5398 2784 
Q 5408 2765 5395 2720 
L 5338 2502 
Q 5318 2432 5235 2451 
Q 5030 2483 4777 2531 
Q 4525 2579 4256 2643 
Q 3987 2707 3718 2774 
Q 3450 2842 3206 2912 
Q 2765 2746 2256 2614 
Q 1747 2483 1190 2387 
Q 1094 2368 1069 2432 
L 992 2650 
Q 979 2682 998 2710 
Q 1018 2739 1056 2752 
Q 1523 2842 1926 2944 
Q 2330 3046 2691 3161 
Q 3053 3277 3379 3408 
Q 3706 3539 4026 3693 
Q 4134 3744 4124 3789 
Q 4115 3834 4013 3834 
L 1466 3834 
Q 1382 3834 1382 3917 
L 1382 4141 
Q 1382 4218 1466 4218 
L 4230 4218 
Q 4730 4218 4838 4042 
Q 4947 3866 4595 3610 
z
M 4006 5005 
Q 4102 5005 4102 4915 
L 4102 4710 
Q 4102 4614 4006 4614 
L 2323 4614 
Q 2227 4614 2227 4710 
L 2227 4915 
Q 2227 5005 2323 5005 
L 4006 5005 
z
" transform="scale(0.015625)"/>
      <path id="NanumGothicCoding-b9cc" d="M 870 4192 
Q 870 4461 972 4553 
Q 1075 4646 1357 4646 
L 3117 4646 
Q 3270 4646 3363 4627 
Q 3456 4608 3510 4557 
Q 3565 4506 3584 4416 
Q 3603 4326 3603 4192 
L 3603 2214 
Q 3603 1946 3500 1853 
Q 3398 1760 3117 1760 
L 1357 1760 
Q 1203 1760 1110 1779 
Q 1018 1798 963 1852 
Q 909 1907 889 1993 
Q 870 2080 870 2214 
L 870 4192 
z
M 1466 4262 
Q 1376 4262 1344 4227 
Q 1312 4192 1312 4096 
L 1312 2310 
Q 1312 2214 1344 2179 
Q 1376 2144 1466 2144 
L 3008 2144 
Q 3098 2144 3130 2179 
Q 3162 2214 3162 2310 
L 3162 4096 
Q 3162 4192 3130 4227 
Q 3098 4262 3008 4262 
L 1466 4262 
z
M 5120 845 
Q 5120 755 5030 755 
L 4768 755 
Q 4678 755 4678 845 
L 4678 4915 
Q 4678 5005 4768 5005 
L 5030 5005 
Q 5120 5005 5120 4915 
L 5120 3085 
L 6003 3085 
Q 6042 3085 6070 3062 
Q 6099 3040 6099 3002 
L 6099 2784 
Q 6099 2752 6070 2726 
Q 6042 2701 6003 2701 
L 5120 2701 
L 5120 845 
z
M 5408 -704 
Q 5408 -742 5376 -761 
Q 5344 -781 5312 -781 
L 2054 -781 
Q 1754 -781 1661 -665 
Q 1568 -550 1568 -288 
L 1568 960 
Q 1568 1050 1658 1050 
L 1920 1050 
Q 2010 1050 2010 960 
L 2010 -262 
Q 2010 -352 2038 -374 
Q 2067 -397 2157 -397 
L 5312 -397 
Q 5344 -397 5376 -419 
Q 5408 -442 5408 -474 
L 5408 -704 
z
" transform="scale(0.015625)"/>
      <path id="NanumGothicCoding-b4e4" d="M 5920 2515 
Q 5952 2515 5984 2492 
Q 6016 2470 6016 2432 
L 6016 2214 
Q 6016 2182 5984 2156 
Q 5952 2131 5920 2131 
L 480 2131 
Q 442 2131 413 2156 
Q 384 2182 384 2214 
L 384 2432 
Q 384 2470 413 2492 
Q 442 2515 480 2515 
L 5920 2515 
z
M 5178 3181 
Q 5178 3091 5094 3091 
L 1779 3091 
Q 1498 3091 1395 3184 
Q 1293 3277 1293 3546 
L 1293 4544 
Q 1293 4813 1395 4905 
Q 1498 4998 1779 4998 
L 5050 4998 
Q 5133 4998 5133 4915 
L 5133 4704 
Q 5133 4614 5050 4614 
L 1888 4614 
Q 1798 4614 1766 4579 
Q 1734 4544 1734 4448 
L 1734 3642 
Q 1734 3552 1766 3513 
Q 1798 3475 1888 3475 
L 5094 3475 
Q 5178 3475 5178 3392 
L 5178 3181 
z
M 5248 -781 
Q 5248 -813 5219 -835 
Q 5190 -858 5165 -858 
L 1760 -858 
Q 1459 -858 1366 -746 
Q 1274 -634 1274 -365 
L 1274 96 
Q 1274 365 1386 457 
Q 1498 550 1786 550 
L 4538 550 
Q 4627 550 4652 576 
Q 4678 602 4678 698 
L 4678 1056 
Q 4678 1152 4656 1177 
Q 4634 1203 4544 1203 
L 1350 1203 
Q 1318 1203 1289 1222 
Q 1261 1242 1261 1274 
L 1261 1498 
Q 1261 1530 1289 1549 
Q 1318 1568 1350 1568 
L 4608 1568 
Q 4762 1568 4858 1545 
Q 4954 1523 5011 1472 
Q 5069 1421 5091 1328 
Q 5114 1235 5114 1101 
L 5114 640 
Q 5114 371 5002 278 
Q 4890 186 4602 186 
L 1843 186 
Q 1754 186 1731 160 
Q 1709 134 1709 38 
L 1709 -339 
Q 1709 -429 1734 -457 
Q 1760 -486 1850 -486 
L 5158 -486 
Q 5190 -486 5219 -505 
Q 5248 -525 5248 -557 
L 5248 -781 
z
" transform="scale(0.015625)"/>
     </defs>
     <use xlink:href="#NanumGothicCoding-32"/>
     <use xlink:href="#NanumGothicCoding-2e" transform="translate(49.999985 0)"/>
     <use xlink:href="#NanumGothicCoding-20" transform="translate(99.999969 0)"/>
     <use xlink:href="#NanumGothicCoding-ce74" transform="translate(149.999954 0)"/>
     <use xlink:href="#NanumGothicCoding-ba54" transform="translate(249.999939 0)"/>
     <use xlink:href="#NanumGothicCoding-b77c" transform="translate(349.999924 0)"/>
     <use xlink:href="#NanumGothicCoding-c758" transform="translate(449.999908 0)"/>
     <use xlink:href="#NanumGothicCoding-20" transform="translate(549.999893 0)"/>
     <use xlink:href="#NanumGothicCoding-72" transform="translate(599.999878 0)"/>
     <use xlink:href="#NanumGothicCoding-69" transform="translate(649.999863 0)"/>
     <use xlink:href="#NanumGothicCoding-67" transform="translate(699.999847 0)"/>
     <use xlink:href="#NanumGothicCoding-68" transform="translate(749.999832 0)"/>
     <use xlink:href="#NanumGothicCoding-74" transform="translate(799.999817 0)"/>
     <use xlink:href="#NanumGothicCoding-2f" transform="translate(849.999802 0)"/>
     <use xlink:href="#NanumGothicCoding-75" transform="translate(899.999786 0)"/>
     <use xlink:href="#NanumGothicCoding-70" transform="translate(949.999771 0)"/>
     <use xlink:href="#NanumGothicCoding-2f" transform="translate(999.999756 0)"/>
     <use xlink:href="#NanumGothicCoding-66" transform="translate(1049.999741 0)"/>
     <use xlink:href="#NanumGothicCoding-6f" transform="translate(1099.999725 0)"/>
     <use xlink:href="#NanumGothicCoding-72" transform="translate(1149.99971 0)"/>
     <use xlink:href="#NanumGothicCoding-77" transform="translate(1199.999695 0)"/>
     <use xlink:href="#NanumGothicCoding-61" transform="translate(1249.99968 0)"/>
     <use xlink:href="#NanumGothicCoding-72" transform="translate(1299.999664 0)"/>
     <use xlink:href="#NanumGothicCoding-64" transform="translate(1349.999649 0)"/>
     <use xlink:href="#NanumGothicCoding-20" transform="translate(1399.999634 0)"/>
     <use xlink:href="#NanumGothicCoding-cd95" transform="translate(1449.999619 0)"/>
     <use xlink:href="#NanumGothicCoding-20" transform="translate(1549.999603 0)"/>
     <use xlink:href="#NanumGothicCoding-b9cc" transform="translate(1599.999588 0)"/>
     <use xlink:href="#NanumGothicCoding-b4e4" transform="translate(1699.999573 0)"/>
     <use xlink:href="#NanumGothicCoding-ae30" transform="translate(1799.999557 0)"/>
    </g>
   </g>
   <g id="text_3">
    <!-- 3. 삼각형 앞면/뒷면 판정 -->
    <g style="fill: #111827" transform="translate(21.384 68.455559) scale(0.11 -0.11)">
     <defs>
      <path id="NanumGothicCoding-33" d="M 461 -186 
Q 365 -160 378 -38 
L 403 192 
Q 416 269 506 230 
Q 704 147 928 96 
Q 1152 45 1382 45 
Q 1837 45 2125 262 
Q 2515 538 2515 973 
Q 2509 1798 1222 1798 
L 1088 1798 
Q 1005 1798 1005 1869 
L 1005 2106 
Q 1005 2189 1088 2189 
L 1120 2189 
Q 1536 2189 1914 2330 
Q 2483 2560 2483 3046 
Q 2483 3219 2396 3360 
Q 2310 3501 2125 3597 
Q 2003 3667 1833 3708 
Q 1664 3750 1453 3750 
Q 1254 3750 1056 3692 
Q 858 3635 678 3539 
Q 602 3507 589 3590 
L 563 3821 
Q 550 3910 640 3949 
Q 851 4045 1068 4093 
Q 1286 4141 1498 4141 
Q 2061 4141 2483 3872 
Q 2931 3552 2931 3046 
Q 2931 2643 2650 2368 
Q 2374 2112 1978 2010 
Q 2144 1990 2345 1894 
Q 2547 1798 2669 1664 
Q 2816 1504 2889 1321 
Q 2963 1139 2963 947 
Q 2963 666 2848 432 
Q 2733 198 2496 13 
Q 2259 -173 1987 -259 
Q 1715 -346 1395 -346 
Q 1184 -346 944 -310 
Q 704 -275 461 -186 
z
" transform="scale(0.015625)"/>
      <path id="NanumGothicCoding-c0bc" d="M 1472 819 
Q 1472 1088 1574 1181 
Q 1677 1274 1958 1274 
L 4640 1274 
Q 4794 1274 4886 1254 
Q 4979 1235 5033 1184 
Q 5088 1133 5107 1043 
Q 5126 954 5126 819 
L 5126 -390 
Q 5126 -659 5024 -752 
Q 4922 -845 4640 -845 
L 1958 -845 
Q 1805 -845 1712 -825 
Q 1619 -806 1564 -752 
Q 1510 -698 1491 -611 
Q 1472 -525 1472 -390 
L 1472 819 
z
M 2067 890 
Q 1978 890 1946 854 
Q 1914 819 1914 723 
L 1914 -294 
Q 1914 -390 1946 -425 
Q 1978 -461 2067 -461 
L 4531 -461 
Q 4621 -461 4653 -425 
Q 4685 -390 4685 -294 
L 4685 723 
Q 4685 819 4653 854 
Q 4621 890 4531 890 
L 2067 890 
z
M 2534 4774 
Q 2534 4307 2438 3904 
Q 2515 3635 2652 3392 
Q 2790 3149 2976 2937 
Q 3162 2726 3382 2556 
Q 3603 2387 3846 2272 
Q 3885 2253 3881 2217 
Q 3878 2182 3866 2157 
L 3731 1946 
Q 3712 1914 3686 1901 
Q 3661 1888 3603 1920 
Q 3456 1997 3267 2128 
Q 3078 2259 2886 2438 
Q 2694 2618 2521 2832 
Q 2349 3046 2234 3277 
Q 2022 2790 1664 2393 
Q 1306 1997 826 1683 
Q 794 1664 755 1657 
Q 717 1651 691 1683 
L 531 1894 
Q 512 1920 525 1958 
Q 538 1997 570 2016 
Q 1331 2483 1715 3193 
Q 2099 3904 2086 4781 
Q 2086 4883 2163 4883 
L 2464 4864 
Q 2534 4864 2534 4774 
z
M 5120 1709 
Q 5120 1619 5030 1619 
L 4768 1619 
Q 4678 1619 4678 1709 
L 4678 4915 
Q 4678 5005 4768 5005 
L 5030 5005 
Q 5120 5005 5120 4915 
L 5120 3373 
L 6003 3373 
Q 6042 3373 6070 3350 
Q 6099 3328 6099 3290 
L 6099 3072 
Q 6099 3040 6070 3014 
Q 6042 2989 6003 2989 
L 5120 2989 
L 5120 1709 
z
" transform="scale(0.015625)"/>
      <path id="NanumGothicCoding-ac01" d="M 3482 4243 
Q 3334 3354 2707 2675 
Q 2080 1997 890 1498 
Q 787 1453 749 1536 
L 653 1747 
Q 627 1798 649 1830 
Q 672 1862 704 1875 
Q 1722 2298 2301 2880 
Q 2880 3462 3002 4134 
Q 3040 4314 2848 4314 
L 877 4314 
Q 800 4314 800 4397 
L 800 4621 
Q 800 4698 877 4698 
L 2995 4698 
Q 3302 4698 3411 4589 
Q 3520 4480 3482 4243 
z
M 1389 1165 
Q 1389 1203 1421 1222 
Q 1453 1242 1485 1242 
L 4634 1242 
Q 4934 1242 5027 1130 
Q 5120 1018 5120 755 
L 5120 -832 
Q 5120 -922 5030 -922 
L 4768 -922 
Q 4678 -922 4678 -832 
L 4678 723 
Q 4678 813 4649 835 
Q 4621 858 4531 858 
L 1485 858 
Q 1453 858 1421 880 
Q 1389 902 1389 934 
L 1389 1165 
z
M 5120 1664 
Q 5120 1574 5030 1574 
L 4768 1574 
Q 4678 1574 4678 1664 
L 4678 4915 
Q 4678 5005 4768 5005 
L 5030 5005 
Q 5120 5005 5120 4915 
L 5120 3366 
L 6003 3366 
Q 6042 3366 6070 3344 
Q 6099 3322 6099 3283 
L 6099 3066 
Q 6099 3034 6070 3008 
Q 6042 2982 6003 2982 
L 5120 2982 
L 5120 1664 
z
" transform="scale(0.015625)"/>
      <path id="NanumGothicCoding-d615" d="M 5389 64 
Q 5389 -160 5241 -339 
Q 5094 -518 4841 -646 
Q 4589 -774 4253 -844 
Q 3917 -915 3533 -915 
Q 3117 -915 2777 -844 
Q 2438 -774 2195 -646 
Q 1952 -518 1817 -339 
Q 1683 -160 1683 64 
Q 1683 282 1817 458 
Q 1952 634 2195 762 
Q 2438 890 2777 960 
Q 3117 1030 3533 1030 
Q 3917 1030 4253 963 
Q 4589 896 4841 768 
Q 5094 640 5241 461 
Q 5389 282 5389 64 
z
M 3763 2413 
Q 3763 2182 3660 1993 
Q 3558 1805 3376 1664 
Q 3194 1523 2947 1446 
Q 2701 1370 2413 1370 
Q 2118 1370 1872 1446 
Q 1626 1523 1446 1664 
Q 1267 1805 1164 1997 
Q 1062 2189 1062 2413 
Q 1062 2643 1164 2835 
Q 1267 3027 1446 3161 
Q 1626 3296 1872 3373 
Q 2118 3450 2413 3450 
Q 2701 3450 2947 3373 
Q 3194 3296 3376 3158 
Q 3558 3021 3660 2829 
Q 3763 2637 3763 2413 
z
M 4934 45 
Q 4934 192 4819 307 
Q 4704 422 4509 502 
Q 4314 582 4058 624 
Q 3802 666 3526 666 
Q 3219 666 2963 624 
Q 2707 582 2524 502 
Q 2342 422 2240 307 
Q 2138 192 2138 45 
Q 2138 -96 2240 -208 
Q 2342 -320 2524 -397 
Q 2707 -474 2963 -512 
Q 3219 -550 3526 -550 
Q 3802 -550 4058 -512 
Q 4314 -474 4509 -397 
Q 4704 -320 4819 -208 
Q 4934 -96 4934 45 
z
M 4902 3347 
L 4902 4915 
Q 4902 5005 4992 5005 
L 5254 5005 
Q 5344 5005 5344 4915 
L 5344 1210 
Q 5344 1120 5254 1120 
L 4992 1120 
Q 4902 1120 4902 1210 
L 4902 1926 
L 4096 1926 
Q 4013 1926 4013 2003 
L 4013 2227 
Q 4013 2304 4096 2304 
L 4902 2304 
L 4902 2970 
L 4096 2970 
Q 4013 2970 4013 3046 
L 4013 3270 
Q 4013 3347 4096 3347 
L 4902 3347 
z
M 3341 2413 
Q 3341 2566 3270 2691 
Q 3200 2816 3075 2902 
Q 2950 2989 2780 3037 
Q 2611 3085 2413 3085 
Q 2214 3085 2041 3037 
Q 1869 2989 1744 2902 
Q 1619 2816 1548 2691 
Q 1478 2566 1478 2413 
Q 1478 2259 1548 2134 
Q 1619 2010 1744 1920 
Q 1869 1830 2041 1782 
Q 2214 1734 2413 1734 
Q 2611 1734 2780 1782 
Q 2950 1830 3075 1920 
Q 3200 2010 3270 2134 
Q 3341 2259 3341 2413 
z
M 4147 3821 
Q 4147 3738 4051 3738 
L 742 3738 
Q 710 3738 681 3763 
Q 653 3789 653 3827 
L 653 4032 
Q 653 4070 681 4096 
Q 710 4122 742 4122 
L 4051 4122 
Q 4147 4122 4147 4038 
L 4147 3821 
z
M 3341 4608 
Q 3341 4518 3245 4518 
L 1555 4518 
Q 1523 4518 1494 4540 
Q 1466 4563 1466 4602 
L 1466 4819 
Q 1466 4858 1491 4883 
Q 1517 4909 1549 4909 
L 3245 4909 
Q 3341 4909 3341 4819 
L 3341 4608 
z
" transform="scale(0.015625)"/>
      <path id="NanumGothicCoding-c55e" d="M 3744 3328 
Q 3744 3008 3629 2742 
Q 3514 2477 3312 2285 
Q 3110 2093 2832 1984 
Q 2554 1875 2221 1875 
Q 1901 1875 1625 1980 
Q 1350 2086 1148 2278 
Q 947 2470 835 2739 
Q 723 3008 723 3328 
Q 723 3667 835 3939 
Q 947 4211 1148 4400 
Q 1350 4589 1625 4688 
Q 1901 4787 2221 4787 
Q 2528 4787 2803 4688 
Q 3078 4589 3286 4403 
Q 3494 4218 3619 3946 
Q 3744 3674 3744 3328 
z
M 5504 -762 
Q 5504 -845 5408 -845 
L 1331 -845 
Q 1299 -845 1270 -819 
Q 1242 -794 1242 -755 
L 1242 -557 
Q 1242 -518 1270 -492 
Q 1299 -467 1331 -467 
L 2227 -467 
L 2227 890 
L 1523 890 
Q 1491 890 1462 915 
Q 1434 941 1434 979 
L 1434 1178 
Q 1434 1216 1462 1241 
Q 1491 1267 1523 1267 
L 5216 1267 
Q 5312 1267 5312 1184 
L 5312 973 
Q 5312 890 5216 890 
L 4538 890 
L 4538 -467 
L 5408 -467 
Q 5504 -467 5504 -550 
L 5504 -762 
z
M 3296 3334 
Q 3296 3590 3209 3785 
Q 3123 3981 2976 4112 
Q 2829 4243 2633 4310 
Q 2438 4378 2221 4378 
Q 1997 4378 1805 4310 
Q 1613 4243 1472 4112 
Q 1331 3981 1251 3785 
Q 1171 3590 1171 3334 
Q 1171 3091 1248 2899 
Q 1325 2707 1462 2566 
Q 1600 2426 1792 2352 
Q 1984 2278 2221 2278 
Q 2438 2278 2633 2352 
Q 2829 2426 2976 2566 
Q 3123 2707 3209 2899 
Q 3296 3091 3296 3334 
z
M 2662 -467 
L 4102 -467 
L 4102 890 
L 2662 890 
L 2662 -467 
z
M 5120 1734 
Q 5120 1645 5030 1645 
L 4768 1645 
Q 4678 1645 4678 1734 
L 4678 4915 
Q 4678 5005 4768 5005 
L 5030 5005 
Q 5120 5005 5120 4915 
L 5120 3456 
L 6003 3456 
Q 6042 3456 6070 3433 
Q 6099 3411 6099 3373 
L 6099 3155 
Q 6099 3123 6070 3097 
Q 6042 3072 6003 3072 
L 5120 3072 
L 5120 1734 
z
" transform="scale(0.015625)"/>
      <path id="NanumGothicCoding-b4b7" d="M 3878 2880 
Q 3878 2790 3795 2790 
L 1498 2790 
Q 1216 2790 1113 2883 
Q 1011 2976 1011 3245 
L 1011 4275 
Q 1011 4544 1113 4637 
Q 1216 4730 1498 4730 
L 3750 4730 
Q 3834 4730 3834 4646 
L 3834 4435 
Q 3834 4346 3750 4346 
L 1606 4346 
Q 1517 4346 1485 4310 
Q 1453 4275 1453 4179 
L 1453 3341 
Q 1453 3251 1485 3212 
Q 1517 3174 1606 3174 
L 3795 3174 
Q 3878 3174 3878 3091 
L 3878 2880 
z
M 3795 1133 
Q 3782 1082 3776 1037 
Q 3770 992 3757 947 
Q 3776 877 3811 813 
Q 3846 749 3885 691 
Q 4128 320 4627 16 
Q 5126 -288 5837 -442 
Q 5920 -461 5882 -550 
L 5786 -768 
Q 5754 -845 5664 -819 
Q 4909 -614 4368 -278 
Q 3827 58 3546 474 
Q 3277 51 2758 -291 
Q 2240 -634 1523 -851 
Q 1421 -883 1395 -819 
L 1306 -582 
Q 1267 -493 1357 -461 
Q 1818 -339 2186 -156 
Q 2554 26 2813 243 
Q 3072 461 3209 697 
Q 3347 934 3360 1171 
Q 3360 1248 3437 1248 
L 3744 1222 
Q 3808 1222 3795 1133 
z
M 4448 2464 
Q 4480 2470 4509 2454 
Q 4538 2438 4544 2413 
L 4576 2195 
Q 4582 2106 4499 2099 
Q 4077 2029 3568 1984 
Q 3059 1939 2598 1914 
L 2598 941 
Q 2598 902 2576 873 
Q 2554 845 2515 845 
L 2240 845 
Q 2208 845 2182 873 
Q 2157 902 2157 941 
L 2157 1894 
Q 1965 1888 1744 1878 
Q 1523 1869 1312 1865 
Q 1101 1862 909 1859 
Q 717 1856 582 1862 
Q 544 1862 515 1888 
Q 486 1914 486 1946 
L 486 2163 
Q 486 2202 515 2224 
Q 544 2246 582 2246 
Q 755 2246 1001 2249 
Q 1248 2253 1517 2259 
Q 1786 2266 2042 2272 
Q 2298 2278 2490 2291 
Q 2739 2304 3004 2323 
Q 3270 2342 3526 2364 
Q 3782 2387 4019 2412 
Q 4256 2438 4448 2464 
z
M 5344 1114 
Q 5344 1024 5254 1024 
L 4992 1024 
Q 4902 1024 4902 1114 
L 4902 4915 
Q 4902 5005 4992 5005 
L 5254 5005 
Q 5344 5005 5344 4915 
L 5344 1114 
z
" transform="scale(0.015625)"/>
      <path id="NanumGothicCoding-d310" d="M 4128 2342 
Q 4186 2355 4205 2345 
Q 4224 2336 4237 2291 
L 4275 2080 
Q 4282 2042 4269 2022 
Q 4256 2003 4192 1990 
Q 4013 1958 3792 1929 
Q 3571 1901 3334 1872 
Q 3098 1843 2851 1824 
Q 2605 1805 2374 1792 
Q 2195 1779 1961 1772 
Q 1728 1766 1478 1763 
Q 1229 1760 989 1760 
Q 749 1760 563 1766 
Q 525 1766 496 1792 
Q 467 1818 467 1850 
L 467 2054 
Q 467 2093 496 2115 
Q 525 2138 563 2138 
Q 710 2138 899 2134 
Q 1088 2131 1299 2138 
L 1299 4230 
L 608 4230 
Q 576 4230 547 4256 
Q 518 4282 518 4320 
L 518 4518 
Q 518 4557 547 4582 
Q 576 4608 608 4608 
L 3821 4608 
Q 3917 4608 3917 4525 
L 3917 4314 
Q 3917 4230 3821 4230 
L 3309 4230 
L 3309 2234 
Q 3533 2253 3737 2281 
Q 3942 2310 4128 2342 
z
M 2362 2163 
Q 2490 2170 2618 2176 
Q 2746 2182 2874 2195 
L 2874 4230 
L 1734 4230 
L 1734 2144 
Q 1901 2144 2064 2147 
Q 2227 2150 2362 2163 
z
M 5120 768 
Q 5120 678 5030 678 
L 4768 678 
Q 4678 678 4678 768 
L 4678 4915 
Q 4678 5005 4768 5005 
L 5030 5005 
Q 5120 5005 5120 4915 
L 5120 3130 
L 6003 3130 
Q 6042 3130 6070 3107 
Q 6099 3085 6099 3046 
L 6099 2829 
Q 6099 2797 6070 2771 
Q 6042 2746 6003 2746 
L 5120 2746 
L 5120 768 
z
M 5408 -704 
Q 5408 -742 5376 -761 
Q 5344 -781 5312 -781 
L 2042 -781 
Q 1741 -781 1648 -665 
Q 1555 -550 1555 -288 
L 1555 883 
Q 1555 973 1645 973 
L 1907 973 
Q 1997 973 1997 883 
L 1997 -262 
Q 1997 -352 2025 -374 
Q 2054 -397 2144 -397 
L 5312 -397 
Q 5344 -397 5376 -419 
Q 5408 -442 5408 -474 
L 5408 -704 
z
" transform="scale(0.015625)"/>
      <path id="NanumGothicCoding-c815" d="M 5370 250 
Q 5370 -26 5222 -243 
Q 5075 -461 4822 -611 
Q 4570 -762 4234 -842 
Q 3898 -922 3514 -922 
Q 3098 -922 2758 -842 
Q 2419 -762 2176 -611 
Q 1933 -461 1798 -243 
Q 1664 -26 1664 250 
Q 1664 518 1798 732 
Q 1933 947 2176 1097 
Q 2419 1248 2758 1328 
Q 3098 1408 3514 1408 
Q 3898 1408 4234 1328 
Q 4570 1248 4822 1101 
Q 5075 954 5222 739 
Q 5370 525 5370 250 
z
M 4915 230 
Q 4915 422 4800 569 
Q 4685 717 4489 816 
Q 4294 915 4038 969 
Q 3782 1024 3507 1024 
Q 3200 1024 2944 969 
Q 2688 915 2505 816 
Q 2323 717 2220 569 
Q 2118 422 2118 230 
Q 2118 45 2220 -99 
Q 2323 -243 2505 -339 
Q 2688 -435 2944 -486 
Q 3200 -538 3507 -538 
Q 3782 -538 4038 -486 
Q 4294 -435 4489 -339 
Q 4685 -243 4800 -99 
Q 4915 45 4915 230 
z
M 3501 4166 
Q 3411 3904 3248 3648 
Q 3085 3392 2861 3142 
Q 3078 2912 3398 2704 
Q 3718 2496 4096 2336 
Q 4147 2317 4153 2281 
Q 4160 2246 4141 2214 
L 4013 1984 
Q 3994 1952 3955 1949 
Q 3917 1946 3885 1958 
Q 3744 2022 3581 2112 
Q 3418 2202 3245 2317 
Q 3072 2432 2902 2566 
Q 2733 2701 2586 2848 
Q 2221 2490 1782 2195 
Q 1344 1901 896 1702 
Q 864 1690 832 1683 
Q 800 1677 781 1709 
L 653 1933 
Q 634 1965 650 2000 
Q 666 2035 698 2048 
Q 1523 2445 2105 2957 
Q 2688 3469 3014 4141 
Q 3059 4230 3027 4268 
Q 2995 4307 2906 4307 
L 1030 4307 
Q 954 4307 954 4390 
L 954 4614 
Q 954 4691 1030 4691 
L 3078 4691 
Q 3411 4691 3507 4572 
Q 3603 4454 3501 4166 
z
M 4902 3520 
L 4902 4915 
Q 4902 5005 4992 5005 
L 5254 5005 
Q 5344 5005 5344 4915 
L 5344 1549 
Q 5344 1459 5254 1459 
L 4992 1459 
Q 4902 1459 4902 1549 
L 4902 3136 
L 3718 3136 
Q 3635 3136 3635 3213 
L 3635 3443 
Q 3635 3520 3718 3520 
L 4902 3520 
z
" transform="scale(0.015625)"/>
     </defs>
     <use xlink:href="#NanumGothicCoding-33"/>
     <use xlink:href="#NanumGothicCoding-2e" transform="translate(49.999985 0)"/>
     <use xlink:href="#NanumGothicCoding-20" transform="translate(99.999969 0)"/>
     <use xlink:href="#NanumGothicCoding-c0bc" transform="translate(149.999954 0)"/>
     <use xlink:href="#NanumGothicCoding-ac01" transform="translate(249.999939 0)"/>
     <use xlink:href="#NanumGothicCoding-d615" transform="translate(349.999924 0)"/>
     <use xlink:href="#NanumGothicCoding-20" transform="translate(449.999908 0)"/>
     <use xlink:href="#NanumGothicCoding-c55e" transform="translate(499.999893 0)"/>
     <use xlink:href="#NanumGothicCoding-ba74" transform="translate(599.999878 0)"/>
     <use xlink:href="#NanumGothicCoding-2f" transform="translate(699.999863 0)"/>
     <use xlink:href="#NanumGothicCoding-b4b7" transform="translate(749.999847 0)"/>
     <use xlink:href="#NanumGothicCoding-ba74" transform="translate(849.999832 0)"/>
     <use xlink:href="#NanumGothicCoding-20" transform="translate(949.999817 0)"/>
     <use xlink:href="#NanumGothicCoding-d310" transform="translate(999.999802 0)"/>
     <use xlink:href="#NanumGothicCoding-c815" transform="translate(1099.999786 0)"/>
    </g>
   </g>
   <g id="text_4">
    <!-- 4. 회전 방향 판정 -->
    <g style="fill: #111827" transform="translate(21.384 86.140919) scale(0.11 -0.11)">
     <defs>
      <path id="NanumGothicCoding-34" d="M 1907 1216 
L 1907 3622 
L 570 1216 
L 1907 1216 
z
M 2342 -211 
Q 2342 -301 2253 -301 
L 1997 -301 
Q 1907 -301 1907 -211 
L 1907 826 
L 346 826 
Q 211 826 188 848 
Q 166 870 166 1005 
L 166 1203 
Q 166 1261 172 1280 
Q 179 1299 211 1350 
L 1702 4013 
Q 1741 4070 1757 4080 
Q 1773 4090 1843 4090 
L 2163 4090 
Q 2298 4090 2320 4067 
Q 2342 4045 2342 3910 
L 2342 1216 
L 3040 1216 
Q 3130 1216 3130 1126 
L 3130 915 
Q 3130 826 3040 826 
L 2342 826 
L 2342 -211 
z
" transform="scale(0.015625)"/>
      <path id="NanumGothicCoding-d68c" d="M 4474 826 
Q 4576 845 4582 781 
L 4621 538 
Q 4634 467 4538 448 
Q 4307 410 4051 371 
Q 3795 333 3532 301 
Q 3270 269 3004 246 
Q 2739 224 2502 218 
Q 2317 211 2057 204 
Q 1798 198 1526 195 
Q 1254 192 998 189 
Q 742 186 563 192 
Q 525 192 496 217 
Q 467 243 467 275 
L 467 493 
Q 467 531 496 553 
Q 525 576 563 576 
Q 704 570 912 566 
Q 1120 563 1350 566 
Q 1581 570 1817 573 
Q 2054 576 2259 582 
L 2259 1261 
Q 1997 1286 1782 1372 
Q 1568 1459 1414 1596 
Q 1261 1734 1174 1916 
Q 1088 2099 1088 2310 
Q 1088 2547 1193 2742 
Q 1299 2938 1484 3075 
Q 1670 3213 1923 3286 
Q 2176 3360 2477 3360 
Q 2771 3360 3027 3283 
Q 3283 3206 3468 3068 
Q 3654 2931 3760 2739 
Q 3866 2547 3866 2310 
Q 3866 2093 3779 1913 
Q 3693 1734 3539 1600 
Q 3386 1466 3171 1379 
Q 2957 1293 2701 1267 
L 2701 602 
Q 2899 614 3136 640 
Q 3373 666 3609 694 
Q 3846 723 4070 758 
Q 4294 794 4474 826 
z
M 5344 -806 
Q 5344 -896 5254 -896 
L 4992 -896 
Q 4902 -896 4902 -806 
L 4902 4915 
Q 4902 5005 4992 5005 
L 5254 5005 
Q 5344 5005 5344 4915 
L 5344 -806 
z
M 3430 2310 
Q 3430 2637 3161 2809 
Q 2893 2982 2477 2982 
Q 2272 2982 2096 2937 
Q 1920 2893 1792 2809 
Q 1664 2726 1590 2598 
Q 1517 2470 1517 2310 
Q 1517 2150 1590 2025 
Q 1664 1901 1792 1814 
Q 1920 1728 2096 1680 
Q 2272 1632 2477 1632 
Q 2893 1632 3161 1811 
Q 3430 1990 3430 2310 
z
M 4275 3776 
Q 4275 3693 4179 3693 
L 774 3693 
Q 742 3693 713 3718 
Q 685 3744 685 3782 
L 685 3994 
Q 685 4032 713 4057 
Q 742 4083 774 4083 
L 4179 4083 
Q 4275 4083 4275 4000 
L 4275 3776 
z
M 3373 4582 
Q 3373 4493 3277 4493 
L 1587 4493 
Q 1555 4493 1526 4515 
Q 1498 4538 1498 4576 
L 1498 4794 
Q 1498 4832 1523 4857 
Q 1549 4883 1581 4883 
L 3277 4883 
Q 3373 4883 3373 4794 
L 3373 4582 
z
" transform="scale(0.015625)"/>
      <path id="NanumGothicCoding-c804" d="M 3501 4038 
Q 3411 3770 3244 3494 
Q 3078 3219 2854 2950 
Q 3110 2650 3446 2384 
Q 3782 2118 4109 1946 
Q 4192 1907 4147 1824 
L 4000 1606 
Q 3981 1574 3942 1571 
Q 3904 1568 3872 1587 
Q 3546 1766 3210 2048 
Q 2874 2330 2586 2643 
Q 2221 2259 1785 1939 
Q 1350 1619 909 1414 
Q 877 1402 845 1392 
Q 813 1382 794 1414 
L 666 1638 
Q 646 1670 659 1705 
Q 672 1741 704 1754 
Q 1459 2138 2057 2707 
Q 2656 3277 3014 4013 
Q 3059 4102 3027 4140 
Q 2995 4179 2906 4179 
L 1030 4179 
Q 954 4179 954 4262 
L 954 4486 
Q 954 4563 1030 4563 
L 3078 4563 
Q 3411 4563 3507 4444 
Q 3603 4326 3501 4038 
z
M 4902 3296 
L 4902 4915 
Q 4902 5005 4992 5005 
L 5254 5005 
Q 5344 5005 5344 4915 
L 5344 781 
Q 5344 691 5254 691 
L 4992 691 
Q 4902 691 4902 781 
L 4902 2925 
L 3693 2925 
Q 3610 2925 3610 3002 
L 3610 3219 
Q 3610 3296 3693 3296 
L 4902 3296 
z
M 5542 -704 
Q 5542 -742 5510 -761 
Q 5478 -781 5446 -781 
L 2208 -781 
Q 1907 -781 1814 -669 
Q 1722 -557 1722 -294 
L 1722 922 
Q 1722 1011 1811 1011 
L 2074 1011 
Q 2163 1011 2163 922 
L 2163 -262 
Q 2163 -352 2192 -374 
Q 2221 -397 2310 -397 
L 5446 -397 
Q 5478 -397 5510 -419 
Q 5542 -442 5542 -474 
L 5542 -704 
z
" transform="scale(0.015625)"/>
      <path id="NanumGothicCoding-bc29" d="M 5197 250 
Q 5197 -26 5049 -243 
Q 4902 -461 4649 -611 
Q 4397 -762 4061 -842 
Q 3725 -922 3341 -922 
Q 2925 -922 2585 -842 
Q 2246 -762 2003 -611 
Q 1760 -461 1625 -243 
Q 1491 -26 1491 250 
Q 1491 518 1625 732 
Q 1760 947 2003 1097 
Q 2246 1248 2585 1328 
Q 2925 1408 3341 1408 
Q 3725 1408 4061 1328 
Q 4397 1248 4649 1101 
Q 4902 954 5049 739 
Q 5197 525 5197 250 
z
M 1350 1971 
Q 1197 1971 1104 1990 
Q 1011 2010 960 2064 
Q 909 2118 889 2204 
Q 870 2291 870 2426 
L 870 4730 
Q 870 4762 896 4784 
Q 922 4806 954 4806 
L 1229 4806 
Q 1261 4806 1283 4780 
Q 1306 4755 1306 4730 
L 1306 3731 
L 3174 3731 
L 3174 4723 
Q 3174 4755 3196 4780 
Q 3219 4806 3251 4806 
L 3526 4806 
Q 3558 4806 3584 4784 
Q 3610 4762 3610 4730 
L 3610 2381 
Q 3610 2138 3507 2054 
Q 3405 1971 3123 1971 
L 1350 1971 
z
M 4742 230 
Q 4742 422 4627 569 
Q 4512 717 4317 816 
Q 4122 915 3866 969 
Q 3610 1024 3334 1024 
Q 3027 1024 2771 969 
Q 2515 915 2332 816 
Q 2150 717 2048 569 
Q 1946 422 1946 230 
Q 1946 45 2048 -99 
Q 2150 -243 2332 -339 
Q 2515 -435 2771 -486 
Q 3027 -538 3334 -538 
Q 3610 -538 3866 -486 
Q 4122 -435 4317 -339 
Q 4512 -243 4627 -99 
Q 4742 45 4742 230 
z
M 5120 1530 
Q 5120 1440 5030 1440 
L 4768 1440 
Q 4678 1440 4678 1530 
L 4678 4915 
Q 4678 5005 4768 5005 
L 5030 5005 
Q 5120 5005 5120 4915 
L 5120 3373 
L 6003 3373 
Q 6042 3373 6070 3347 
Q 6099 3322 6099 3283 
L 6099 3072 
Q 6099 3040 6070 3014 
Q 6042 2989 6003 2989 
L 5120 2989 
L 5120 1530 
z
M 1306 3354 
L 1306 2502 
Q 1306 2406 1338 2377 
Q 1370 2349 1459 2349 
L 3021 2349 
Q 3110 2349 3142 2377 
Q 3174 2406 3174 2502 
L 3174 3354 
L 1306 3354 
z
" transform="scale(0.015625)"/>
      <path id="NanumGothicCoding-d5a5" d="M 5197 64 
Q 5197 -160 5049 -339 
Q 4902 -518 4649 -646 
Q 4397 -774 4061 -844 
Q 3725 -915 3341 -915 
Q 2925 -915 2585 -844 
Q 2246 -774 2003 -646 
Q 1760 -518 1625 -339 
Q 1491 -160 1491 64 
Q 1491 282 1625 458 
Q 1760 634 2003 762 
Q 2246 890 2585 960 
Q 2925 1030 3341 1030 
Q 3725 1030 4061 963 
Q 4397 896 4649 768 
Q 4902 640 5049 461 
Q 5197 282 5197 64 
z
M 3725 2413 
Q 3725 2182 3619 1993 
Q 3514 1805 3331 1664 
Q 3149 1523 2896 1446 
Q 2643 1370 2349 1370 
Q 2048 1370 1798 1446 
Q 1549 1523 1363 1664 
Q 1178 1805 1075 1997 
Q 973 2189 973 2413 
Q 973 2643 1075 2835 
Q 1178 3027 1363 3161 
Q 1549 3296 1798 3373 
Q 2048 3450 2349 3450 
Q 2643 3450 2896 3373 
Q 3149 3296 3331 3158 
Q 3514 3021 3619 2829 
Q 3725 2637 3725 2413 
z
M 4742 45 
Q 4742 192 4627 307 
Q 4512 422 4317 502 
Q 4122 582 3866 624 
Q 3610 666 3334 666 
Q 3027 666 2771 624 
Q 2515 582 2332 502 
Q 2150 422 2048 307 
Q 1946 192 1946 45 
Q 1946 -96 2048 -208 
Q 2150 -320 2332 -397 
Q 2515 -474 2771 -512 
Q 3027 -550 3334 -550 
Q 3610 -550 3866 -512 
Q 4122 -474 4317 -397 
Q 4512 -320 4627 -208 
Q 4742 -96 4742 45 
z
M 5120 1254 
Q 5120 1165 5030 1165 
L 4768 1165 
Q 4678 1165 4678 1254 
L 4678 4915 
Q 4678 5005 4768 5005 
L 5030 5005 
Q 5120 5005 5120 4915 
L 5120 3776 
L 6003 3776 
Q 6042 3776 6070 3753 
Q 6099 3731 6099 3693 
L 6099 3482 
Q 6099 3450 6070 3424 
Q 6042 3398 6003 3398 
L 5120 3398 
L 5120 2630 
L 6003 2630 
Q 6042 2630 6070 2608 
Q 6099 2586 6099 2547 
L 6099 2336 
Q 6099 2304 6070 2278 
Q 6042 2253 6003 2253 
L 5120 2253 
L 5120 1254 
z
M 3296 2413 
Q 3296 2566 3225 2691 
Q 3155 2816 3027 2902 
Q 2899 2989 2726 3037 
Q 2554 3085 2349 3085 
Q 2144 3085 1971 3037 
Q 1798 2989 1670 2902 
Q 1542 2816 1468 2691 
Q 1395 2566 1395 2413 
Q 1395 2259 1468 2134 
Q 1542 2010 1670 1920 
Q 1798 1830 1971 1782 
Q 2144 1734 2349 1734 
Q 2554 1734 2726 1782 
Q 2899 1830 3027 1920 
Q 3155 2010 3225 2134 
Q 3296 2259 3296 2413 
z
M 4218 3827 
Q 4218 3744 4122 3744 
L 589 3744 
Q 557 3744 528 3769 
Q 499 3795 499 3834 
L 499 4038 
Q 499 4077 528 4102 
Q 557 4128 589 4128 
L 4122 4128 
Q 4218 4128 4218 4045 
L 4218 3827 
z
M 3283 4608 
Q 3283 4518 3187 4518 
L 1434 4518 
Q 1402 4518 1373 4540 
Q 1344 4563 1344 4602 
L 1344 4819 
Q 1344 4858 1369 4883 
Q 1395 4909 1427 4909 
L 3187 4909 
Q 3283 4909 3283 4819 
L 3283 4608 
z
" transform="scale(0.015625)"/>
     </defs>
     <use xlink:href="#NanumGothicCoding-34"/>
     <use xlink:href="#NanumGothicCoding-2e" transform="translate(49.999985 0)"/>
     <use xlink:href="#NanumGothicCoding-20" transform="translate(99.999969 0)"/>
     <use xlink:href="#NanumGothicCoding-d68c" transform="translate(149.999954 0)"/>
     <use xlink:href="#NanumGothicCoding-c804" transform="translate(249.999939 0)"/>
     <use xlink:href="#NanumGothicCoding-20" transform="translate(349.999924 0)"/>
     <use xlink:href="#NanumGothicCoding-bc29" transform="translate(399.999908 0)"/>
     <use xlink:href="#NanumGothicCoding-d5a5" transform="translate(499.999893 0)"/>
     <use xlink:href="#NanumGothicCoding-20" transform="translate(599.999878 0)"/>
     <use xlink:href="#NanumGothicCoding-d310" transform="translate(649.999863 0)"/>
     <use xlink:href="#NanumGothicCoding-c815" transform="translate(749.999847 0)"/>
    </g>
   </g>
   <g id="text_5">
    <!-- 5. 물리엔진에서 토크 방향 계산 -->
    <g style="fill: #111827" transform="translate(21.384 103.826279) scale(0.11 -0.11)">
     <defs>
      <path id="NanumGothicCoding-35" d="M 576 -205 
Q 493 -173 493 -90 
L 493 179 
Q 493 288 576 243 
Q 800 134 979 89 
Q 1158 45 1350 45 
Q 1773 45 2112 320 
Q 2464 621 2470 1062 
Q 2470 2042 1414 2042 
Q 1267 2042 1100 2013 
Q 934 1984 704 1907 
Q 634 1888 589 1923 
Q 544 1958 544 2029 
L 582 3910 
Q 582 4045 604 4067 
Q 627 4090 755 4090 
L 2611 4090 
Q 2694 4090 2694 4000 
L 2694 3789 
Q 2694 3699 2611 3699 
L 1005 3699 
Q 998 3296 988 2998 
Q 979 2701 973 2317 
Q 1254 2419 1581 2419 
Q 2099 2419 2496 2074 
Q 2899 1702 2899 1152 
Q 2899 486 2445 51 
Q 1965 -346 1350 -346 
Q 1184 -346 989 -317 
Q 794 -288 576 -205 
z
" transform="scale(0.015625)"/>
      <path id="NanumGothicCoding-bb3c" d="M 1299 4538 
Q 1299 4806 1401 4899 
Q 1504 4992 1786 4992 
L 4614 4992 
Q 4768 4992 4861 4973 
Q 4954 4954 5008 4902 
Q 5062 4851 5081 4761 
Q 5101 4672 5101 4538 
L 5101 3475 
Q 5101 3206 4998 3113 
Q 4896 3021 4614 3021 
L 1786 3021 
Q 1632 3021 1539 3040 
Q 1446 3059 1392 3113 
Q 1338 3168 1318 3254 
Q 1299 3341 1299 3475 
L 1299 4538 
z
M 5248 -781 
Q 5248 -813 5219 -835 
Q 5190 -858 5165 -858 
L 1760 -858 
Q 1459 -858 1366 -746 
Q 1274 -634 1274 -365 
L 1274 45 
Q 1274 314 1386 406 
Q 1498 499 1786 499 
L 4538 499 
Q 4627 499 4652 524 
Q 4678 550 4678 646 
L 4678 954 
Q 4678 1050 4656 1075 
Q 4634 1101 4544 1101 
L 1350 1101 
Q 1318 1101 1289 1120 
Q 1261 1139 1261 1171 
L 1261 1395 
Q 1261 1427 1289 1446 
Q 1318 1466 1350 1466 
L 2970 1466 
L 2970 2093 
L 480 2093 
Q 442 2093 413 2118 
Q 384 2144 384 2176 
L 384 2394 
Q 384 2432 413 2454 
Q 442 2477 480 2477 
L 5920 2477 
Q 5952 2477 5984 2454 
Q 6016 2432 6016 2394 
L 6016 2176 
Q 6016 2144 5984 2118 
Q 5952 2093 5920 2093 
L 3411 2093 
L 3411 1466 
L 4608 1466 
Q 4762 1466 4858 1443 
Q 4954 1421 5011 1369 
Q 5069 1318 5091 1225 
Q 5114 1133 5114 998 
L 5114 589 
Q 5114 320 5002 227 
Q 4890 134 4602 134 
L 1843 134 
Q 1754 134 1731 108 
Q 1709 83 1709 -13 
L 1709 -339 
Q 1709 -429 1734 -457 
Q 1760 -486 1850 -486 
L 5158 -486 
Q 5190 -486 5219 -505 
Q 5248 -525 5248 -557 
L 5248 -781 
z
M 1894 4608 
Q 1805 4608 1773 4573 
Q 1741 4538 1741 4442 
L 1741 3571 
Q 1741 3475 1773 3440 
Q 1805 3405 1894 3405 
L 4506 3405 
Q 4595 3405 4627 3440 
Q 4659 3475 4659 3571 
L 4659 4442 
Q 4659 4538 4627 4573 
Q 4595 4608 4506 4608 
L 1894 4608 
z
" transform="scale(0.015625)"/>
      <path id="NanumGothicCoding-b9ac" d="M 5344 -806 
Q 5344 -896 5254 -896 
L 4992 -896 
Q 4902 -896 4902 -806 
L 4902 4915 
Q 4902 5005 4992 5005 
L 5254 5005 
Q 5344 5005 5344 4915 
L 5344 -806 
z
M 1402 550 
Q 1114 563 1014 668 
Q 915 774 915 1043 
L 915 2317 
Q 915 2586 1027 2678 
Q 1139 2771 1427 2771 
L 3040 2771 
Q 3130 2771 3155 2796 
Q 3181 2822 3181 2918 
L 3181 3994 
Q 3181 4090 3158 4115 
Q 3136 4141 3046 4141 
L 1030 4141 
Q 998 4141 969 4160 
Q 941 4179 941 4211 
L 941 4454 
Q 941 4486 969 4505 
Q 998 4525 1030 4525 
L 3117 4525 
Q 3270 4525 3366 4502 
Q 3462 4480 3520 4429 
Q 3578 4378 3600 4285 
Q 3622 4192 3622 4058 
L 3622 2842 
Q 3622 2573 3510 2480 
Q 3398 2387 3110 2387 
L 1491 2387 
Q 1402 2387 1379 2361 
Q 1357 2336 1357 2240 
L 1357 1075 
Q 1357 928 1498 928 
Q 2259 915 2960 985 
Q 3661 1056 4320 1203 
Q 4410 1222 4429 1139 
L 4467 928 
Q 4486 845 4384 819 
Q 4045 742 3670 688 
Q 3296 634 2909 598 
Q 2522 563 2138 550 
Q 1754 538 1402 550 
z
" transform="scale(0.015625)"/>
      <path id="NanumGothicCoding-c5d4" d="M 1914 4704 
Q 2131 4704 2348 4624 
Q 2566 4544 2748 4374 
Q 2931 4205 3056 3939 
Q 3181 3674 3206 3302 
L 4000 3302 
L 4000 4806 
Q 4000 4896 4090 4896 
L 4333 4896 
Q 4422 4896 4422 4806 
L 4422 960 
Q 4422 870 4333 870 
L 4090 870 
Q 4000 870 4000 960 
L 4000 2918 
L 3200 2918 
Q 3162 2573 3037 2323 
Q 2912 2074 2729 1910 
Q 2547 1747 2332 1667 
Q 2118 1587 1907 1587 
Q 1677 1587 1453 1680 
Q 1229 1773 1049 1965 
Q 870 2157 758 2454 
Q 646 2752 646 3155 
Q 646 3565 758 3856 
Q 870 4147 1052 4336 
Q 1235 4525 1459 4614 
Q 1683 4704 1914 4704 
z
M 2771 3155 
Q 2771 3424 2704 3632 
Q 2637 3840 2521 3987 
Q 2406 4134 2246 4211 
Q 2086 4288 1907 4288 
Q 1523 4288 1305 3981 
Q 1088 3674 1088 3155 
Q 1088 2893 1149 2681 
Q 1210 2470 1318 2320 
Q 1427 2170 1577 2086 
Q 1728 2003 1907 2003 
Q 2086 2003 2246 2083 
Q 2406 2163 2521 2313 
Q 2637 2464 2704 2675 
Q 2771 2886 2771 3155 
z
M 5728 -704 
Q 5728 -742 5696 -761 
Q 5664 -781 5632 -781 
L 2246 -781 
Q 1946 -781 1853 -665 
Q 1760 -550 1760 -288 
L 1760 960 
Q 1760 1050 1850 1050 
L 2112 1050 
Q 2202 1050 2202 960 
L 2202 -262 
Q 2202 -352 2230 -374 
Q 2259 -397 2349 -397 
L 5632 -397 
Q 5664 -397 5696 -419 
Q 5728 -442 5728 -474 
L 5728 -704 
z
M 5555 762 
Q 5555 672 5466 672 
L 5222 672 
Q 5133 672 5133 762 
L 5133 4915 
Q 5133 5005 5222 5005 
L 5466 5005 
Q 5555 5005 5555 4915 
L 5555 762 
z
" transform="scale(0.015625)"/>
      <path id="NanumGothicCoding-c9c4" d="M 3520 4038 
Q 3430 3776 3270 3510 
Q 3110 3245 2899 2982 
Q 3162 2682 3498 2416 
Q 3834 2150 4160 1978 
Q 4243 1939 4198 1856 
L 4051 1638 
Q 4032 1606 3993 1603 
Q 3955 1600 3923 1619 
Q 3597 1798 3261 2080 
Q 2925 2362 2637 2675 
Q 2266 2285 1824 1952 
Q 1382 1619 928 1414 
Q 896 1402 864 1392 
Q 832 1382 813 1414 
L 685 1638 
Q 666 1670 678 1705 
Q 691 1741 723 1754 
Q 1478 2138 2076 2707 
Q 2675 3277 3034 4013 
Q 3078 4102 3046 4140 
Q 3014 4179 2925 4179 
L 1050 4179 
Q 973 4179 973 4262 
L 973 4486 
Q 973 4563 1050 4563 
L 3098 4563 
Q 3430 4563 3526 4444 
Q 3622 4326 3520 4038 
z
M 5536 -704 
Q 5536 -742 5504 -761 
Q 5472 -781 5440 -781 
L 2234 -781 
Q 1933 -781 1840 -669 
Q 1747 -557 1747 -294 
L 1747 896 
Q 1747 986 1837 986 
L 2099 986 
Q 2189 986 2189 896 
L 2189 -262 
Q 2189 -352 2217 -374 
Q 2246 -397 2336 -397 
L 5440 -397 
Q 5472 -397 5504 -419 
Q 5536 -442 5536 -474 
L 5536 -704 
z
M 5344 806 
Q 5344 717 5254 717 
L 4992 717 
Q 4902 717 4902 806 
L 4902 4915 
Q 4902 5005 4992 5005 
L 5254 5005 
Q 5344 5005 5344 4915 
L 5344 806 
z
" transform="scale(0.015625)"/>
      <path id="NanumGothicCoding-c5d0" d="M 4422 -563 
Q 4422 -653 4333 -653 
L 4090 -653 
Q 4000 -653 4000 -563 
L 4000 2419 
L 3277 2419 
Q 3251 1978 3136 1648 
Q 3021 1318 2835 1097 
Q 2650 877 2410 768 
Q 2170 659 1901 659 
Q 1613 659 1369 784 
Q 1126 909 947 1155 
Q 768 1402 665 1773 
Q 563 2144 563 2643 
Q 563 3142 665 3510 
Q 768 3878 950 4124 
Q 1133 4371 1376 4489 
Q 1619 4608 1907 4608 
Q 2182 4608 2422 4499 
Q 2662 4390 2848 4166 
Q 3034 3942 3146 3603 
Q 3258 3264 3277 2803 
L 4000 2803 
L 4000 4806 
Q 4000 4896 4090 4896 
L 4333 4896 
Q 4422 4896 4422 4806 
L 4422 -563 
z
M 2835 2643 
Q 2835 2938 2777 3219 
Q 2720 3501 2605 3725 
Q 2490 3949 2314 4086 
Q 2138 4224 1901 4224 
Q 1651 4224 1481 4083 
Q 1312 3942 1206 3715 
Q 1101 3488 1056 3206 
Q 1011 2925 1011 2643 
Q 1011 2362 1062 2077 
Q 1114 1792 1219 1561 
Q 1325 1331 1494 1187 
Q 1664 1043 1901 1043 
Q 2138 1043 2314 1184 
Q 2490 1325 2605 1552 
Q 2720 1779 2777 2067 
Q 2835 2355 2835 2643 
z
M 5555 -806 
Q 5555 -896 5466 -896 
L 5222 -896 
Q 5133 -896 5133 -806 
L 5133 4915 
Q 5133 5005 5222 5005 
L 5466 5005 
Q 5555 5005 5555 4915 
L 5555 -806 
z
" transform="scale(0.015625)"/>
      <path id="NanumGothicCoding-c11c" d="M 5344 -806 
Q 5344 -896 5254 -896 
L 4992 -896 
Q 4902 -896 4902 -806 
L 4902 2534 
L 3501 2534 
Q 3418 2534 3418 2611 
L 3418 2842 
Q 3418 2918 3501 2918 
L 4902 2918 
L 4902 4915 
Q 4902 5005 4992 5005 
L 5254 5005 
Q 5344 5005 5344 4915 
L 5344 -806 
z
M 2515 4589 
Q 2515 4166 2480 3779 
Q 2445 3392 2368 3034 
Q 2432 2778 2566 2493 
Q 2701 2208 2883 1926 
Q 3066 1645 3293 1379 
Q 3520 1114 3776 902 
Q 3808 877 3811 838 
Q 3814 800 3795 774 
L 3635 576 
Q 3578 506 3501 576 
Q 3322 730 3133 944 
Q 2944 1158 2768 1395 
Q 2592 1632 2438 1881 
Q 2285 2131 2176 2362 
Q 1971 1779 1638 1289 
Q 1306 800 845 378 
Q 781 326 736 371 
L 544 570 
Q 525 589 528 621 
Q 531 653 563 685 
Q 954 1056 1242 1465 
Q 1530 1875 1712 2348 
Q 1894 2822 1980 3379 
Q 2067 3936 2067 4602 
Q 2067 4646 2089 4668 
Q 2112 4691 2144 4691 
L 2445 4678 
Q 2515 4678 2515 4589 
z
" transform="scale(0.015625)"/>
      <path id="NanumGothicCoding-d1a0" d="M 6016 198 
Q 6016 166 5984 140 
Q 5952 115 5920 115 
L 480 115 
Q 442 115 413 140 
Q 384 166 384 198 
L 384 416 
Q 384 454 413 476 
Q 442 499 480 499 
L 2963 499 
L 2963 1677 
L 1683 1677 
Q 1402 1677 1299 1769 
Q 1197 1862 1197 2131 
L 1197 4211 
Q 1197 4480 1299 4573 
Q 1402 4666 1683 4666 
L 5094 4666 
Q 5178 4666 5178 4582 
L 5178 4371 
Q 5178 4282 5094 4282 
L 1792 4282 
Q 1702 4282 1670 4246 
Q 1638 4211 1638 4115 
L 1638 3360 
L 5005 3360 
Q 5094 3360 5094 3290 
L 5094 3072 
Q 5094 2989 5011 2989 
L 1638 2989 
L 1638 2227 
Q 1638 2138 1670 2099 
Q 1702 2061 1792 2061 
L 5139 2061 
Q 5222 2061 5222 1978 
L 5222 1766 
Q 5222 1677 5139 1677 
L 3405 1677 
L 3405 499 
L 5920 499 
Q 5952 499 5984 476 
Q 6016 454 6016 416 
L 6016 198 
z
" transform="scale(0.015625)"/>
      <path id="NanumGothicCoding-d06c" d="M 1216 4506 
Q 1216 4544 1248 4563 
Q 1280 4582 1312 4582 
L 4698 4582 
Q 4851 4582 4944 4550 
Q 5037 4518 5088 4457 
Q 5139 4397 5158 4301 
Q 5178 4205 5184 4070 
Q 5190 3898 5180 3626 
Q 5171 3354 5152 3034 
Q 5133 2714 5104 2362 
Q 5075 2010 5040 1670 
Q 5005 1331 4966 1027 
Q 4928 723 4890 499 
L 5920 499 
Q 5952 499 5984 476 
Q 6016 454 6016 416 
L 6016 198 
Q 6016 166 5984 140 
Q 5952 115 5920 115 
L 480 115 
Q 442 115 413 140 
Q 384 166 384 198 
L 384 416 
Q 384 454 413 476 
Q 442 499 480 499 
L 4454 499 
Q 4486 634 4518 835 
Q 4550 1037 4579 1283 
Q 4608 1530 4637 1805 
Q 4666 2080 4685 2362 
Q 4589 2349 4438 2342 
Q 4288 2336 4131 2333 
Q 3974 2330 3846 2326 
Q 3718 2323 3674 2323 
Q 3520 2317 3203 2313 
Q 2886 2310 2531 2307 
Q 2176 2304 1853 2301 
Q 1530 2298 1357 2298 
Q 1274 2298 1274 2374 
L 1274 2592 
Q 1274 2669 1357 2669 
Q 1485 2669 1680 2669 
Q 1875 2669 2102 2672 
Q 2330 2675 2570 2678 
Q 2810 2682 3018 2685 
Q 3226 2688 3392 2688 
Q 3558 2688 3635 2694 
Q 3674 2694 3814 2700 
Q 3955 2707 4124 2710 
Q 4294 2714 4460 2720 
Q 4627 2726 4717 2739 
Q 4742 3149 4752 3501 
Q 4762 3853 4749 4064 
Q 4742 4154 4716 4176 
Q 4691 4198 4602 4198 
L 1312 4198 
Q 1280 4198 1248 4220 
Q 1216 4243 1216 4275 
L 1216 4506 
z
" transform="scale(0.015625)"/>
      <path id="NanumGothicCoding-acc4" d="M 3130 4000 
Q 3117 3846 3094 3702 
Q 3072 3558 3040 3411 
L 4000 3411 
L 4000 4806 
Q 4000 4896 4090 4896 
L 4333 4896 
Q 4422 4896 4422 4806 
L 4422 -563 
Q 4422 -653 4333 -653 
L 4090 -653 
Q 4000 -653 4000 -563 
L 4000 1568 
L 2778 1568 
Q 2694 1568 2694 1645 
L 2694 1869 
Q 2694 1946 2778 1946 
L 4000 1946 
L 4000 3034 
L 2931 3034 
Q 2464 1594 922 570 
Q 838 512 794 576 
L 653 774 
Q 621 813 633 851 
Q 646 890 678 909 
Q 1107 1178 1456 1507 
Q 1805 1837 2061 2211 
Q 2317 2586 2470 2998 
Q 2624 3411 2662 3846 
Q 2675 4006 2636 4054 
Q 2598 4102 2470 4102 
L 915 4102 
Q 838 4102 838 4179 
L 838 4410 
Q 838 4442 864 4464 
Q 890 4486 922 4486 
L 2624 4486 
Q 2912 4486 3030 4364 
Q 3149 4243 3130 4000 
z
M 5555 -806 
Q 5555 -896 5466 -896 
L 5222 -896 
Q 5133 -896 5133 -806 
L 5133 4915 
Q 5133 5005 5222 5005 
L 5466 5005 
Q 5555 5005 5555 4915 
L 5555 -806 
z
" transform="scale(0.015625)"/>
      <path id="NanumGothicCoding-c0b0" d="M 2509 4710 
Q 2509 4461 2480 4224 
Q 2451 3987 2400 3763 
Q 2477 3501 2621 3241 
Q 2765 2982 2960 2748 
Q 3155 2515 3385 2326 
Q 3616 2138 3859 2022 
Q 3898 2003 3894 1971 
Q 3891 1939 3878 1907 
L 3750 1696 
Q 3731 1664 3705 1651 
Q 3680 1638 3622 1670 
Q 3437 1760 3235 1926 
Q 3034 2093 2838 2294 
Q 2643 2496 2476 2723 
Q 2310 2950 2202 3162 
Q 1984 2643 1629 2217 
Q 1274 1792 794 1478 
Q 762 1459 723 1452 
Q 685 1446 659 1478 
L 499 1690 
Q 480 1715 493 1753 
Q 506 1792 538 1811 
Q 883 2022 1168 2336 
Q 1453 2650 1654 3027 
Q 1856 3405 1961 3837 
Q 2067 4269 2061 4717 
Q 2061 4819 2138 4819 
L 2438 4800 
Q 2509 4800 2509 4710 
z
M 5120 832 
Q 5120 742 5030 742 
L 4768 742 
Q 4678 742 4678 832 
L 4678 4915 
Q 4678 5005 4768 5005 
L 5030 5005 
Q 5120 5005 5120 4915 
L 5120 3110 
L 6003 3110 
Q 6042 3110 6070 3088 
Q 6099 3066 6099 3027 
L 6099 2810 
Q 6099 2778 6070 2752 
Q 6042 2726 6003 2726 
L 5120 2726 
L 5120 832 
z
M 5408 -704 
Q 5408 -742 5376 -761 
Q 5344 -781 5312 -781 
L 2016 -781 
Q 1715 -781 1622 -669 
Q 1530 -557 1530 -294 
L 1530 960 
Q 1530 1050 1619 1050 
L 1882 1050 
Q 1971 1050 1971 960 
L 1971 -262 
Q 1971 -352 2000 -374 
Q 2029 -397 2118 -397 
L 5312 -397 
Q 5344 -397 5376 -419 
Q 5408 -442 5408 -474 
L 5408 -704 
z
" transform="scale(0.015625)"/>
     </defs>
     <use xlink:href="#NanumGothicCoding-35"/>
     <use xlink:href="#NanumGothicCoding-2e" transform="translate(49.999985 0)"/>
     <use xlink:href="#NanumGothicCoding-20" transform="translate(99.999969 0)"/>
     <use xlink:href="#NanumGothicCoding-bb3c" transform="translate(149.999954 0)"/>
     <use xlink:href="#NanumGothicCoding-b9ac" transform="translate(249.999939 0)"/>
     <use xlink:href="#NanumGothicCoding-c5d4" transform="translate(349.999924 0)"/>
     <use xlink:href="#NanumGothicCoding-c9c4" transform="translate(449.999908 0)"/>
     <use xlink:href="#NanumGothicCoding-c5d0" transform="translate(549.999893 0)"/>
     <use xlink:href="#NanumGothicCoding-c11c" transform="translate(649.999878 0)"/>
     <use xlink:href="#NanumGothicCoding-20" transform="translate(749.999863 0)"/>
     <use xlink:href="#NanumGothicCoding-d1a0" transform="translate(799.999847 0)"/>
     <use xlink:href="#NanumGothicCoding-d06c" transform="translate(899.999832 0)"/>
     <use xlink:href="#NanumGothicCoding-20" transform="translate(999.999817 0)"/>
     <use xlink:href="#NanumGothicCoding-bc29" transform="translate(1049.999802 0)"/>
     <use xlink:href="#NanumGothicCoding-d5a5" transform="translate(1149.999786 0)"/>
     <use xlink:href="#NanumGothicCoding-20" transform="translate(1249.999771 0)"/>
     <use xlink:href="#NanumGothicCoding-acc4" transform="translate(1299.999756 0)"/>
     <use xlink:href="#NanumGothicCoding-c0b0" transform="translate(1399.999741 0)"/>
    </g>
   </g>
  </g>
 </g>
 <defs>
  <clipPath id="pc185d9ea87">
   <rect x="5.76" y="5.76" width="390.6" height="160.776"/>
  </clipPath>
 </defs>
</svg>
