<?xml version="1.0" encoding="utf-8" standalone="no"?>
<!DOCTYPE svg PUBLIC "-//W3C//DTD SVG 1.1//EN"
  "http://www.w3.org/Graphics/SVG/1.1/DTD/svg11.dtd">
<svg xmlns:xlink="http://www.w3.org/1999/xlink" width="508.32pt" height="149.473919pt" viewBox="0 0 508.32 149.473919" xmlns="http://www.w3.org/2000/svg" version="1.1">
 <metadata>
  <rdf:RDF xmlns:dc="http://purl.org/dc/elements/1.1/" xmlns:cc="http://creativecommons.org/ns#" xmlns:rdf="http://www.w3.org/1999/02/22-rdf-syntax-ns#">
   <cc:Work>
    <dc:type rdf:resource="http://purl.org/dc/dcmitype/StillImage"/>
    <dc:date>2026-07-08T05:12:55.604194</dc:date>
    <dc:format>image/svg+xml</dc:format>
    <dc:creator>
     <cc:Agent>
      <dc:title>Matplotlib v3.10.8, https://matplotlib.org/</dc:title>
     </cc:Agent>
    </dc:creator>
   </cc:Work>
  </rdf:RDF>
 </metadata>
 <defs>
  <style type="text/css">*{stroke-linejoin: round; stroke-linecap: butt}</style>
 </defs>
 <g id="figure_1">
  <g id="patch_1">
   <path d="M -0 149.473919 
L 508.32 149.473919 
L 508.32 0 
L -0 0 
z
" style="fill: #ffffff"/>
  </g>
  <g id="axes_1">
   <g id="text_1">
    <!-- 시간이 지나며 위치가 바뀜 -->
    <g style="fill: #111827" transform="translate(8.64 20.054063) scale(0.15 -0.15)">
     <defs>
      <path id="NanumGothicBold-c2dc" d="M 851 403 
Q 736 307 627 410 
L 333 691 
Q 230 781 352 890 
Q 762 1267 1059 1728 
Q 1357 2189 1536 2714 
Q 1613 2944 1667 3171 
Q 1722 3398 1757 3632 
Q 1792 3866 1805 4118 
Q 1818 4371 1811 4653 
Q 1811 4691 1840 4720 
Q 1869 4749 1901 4749 
L 2470 4730 
Q 2502 4730 2528 4701 
Q 2554 4672 2554 4634 
Q 2554 4250 2525 3917 
Q 2496 3584 2445 3277 
Q 2502 2976 2640 2669 
Q 2778 2362 2960 2083 
Q 3142 1805 3353 1568 
Q 3565 1331 3770 1165 
Q 3872 1088 3782 966 
L 3514 640 
Q 3482 595 3427 588 
Q 3373 582 3315 627 
Q 3155 749 2982 928 
Q 2810 1107 2646 1318 
Q 2483 1530 2348 1750 
Q 2214 1971 2131 2176 
Q 2016 1907 1869 1651 
Q 1722 1395 1552 1164 
Q 1382 934 1203 739 
Q 1024 544 851 403 
z
M 5280 -928 
Q 5280 -1011 5190 -1011 
L 4627 -1011 
Q 4595 -1011 4566 -988 
Q 4538 -966 4538 -928 
L 4538 4979 
Q 4538 5011 4566 5036 
Q 4595 5062 4627 5062 
L 5190 5062 
Q 5280 5062 5280 4979 
L 5280 -928 
z
" transform="scale(0.015625)"/>
      <path id="NanumGothicBold-ac04" d="M 5261 -826 
Q 5261 -864 5229 -883 
Q 5197 -902 5165 -902 
L 1786 -902 
Q 1498 -902 1395 -800 
Q 1293 -698 1293 -448 
L 1293 966 
Q 1293 998 1325 1027 
Q 1357 1056 1389 1056 
L 1933 1056 
Q 1971 1056 2003 1027 
Q 2035 998 2035 966 
L 2035 -186 
Q 2035 -250 2060 -269 
Q 2086 -288 2150 -288 
L 5165 -288 
Q 5197 -288 5229 -313 
Q 5261 -339 5261 -371 
L 5261 -826 
z
M 5971 2605 
Q 5971 2573 5942 2547 
Q 5914 2522 5875 2522 
L 5011 2522 
L 5011 832 
Q 5011 749 4922 749 
L 4358 749 
Q 4326 749 4297 774 
Q 4269 800 4269 832 
L 4269 4979 
Q 4269 5011 4297 5036 
Q 4326 5062 4358 5062 
L 4922 5062 
Q 5011 5062 5011 4979 
L 5011 3136 
L 5875 3136 
Q 5914 3136 5942 3113 
Q 5971 3091 5971 3059 
L 5971 2605 
z
M 717 1312 
Q 570 1254 506 1370 
L 326 1696 
Q 294 1747 307 1798 
Q 320 1850 390 1882 
Q 1229 2266 1750 2774 
Q 2272 3283 2458 3904 
Q 2490 4006 2490 4044 
Q 2490 4083 2368 4083 
L 627 4083 
Q 589 4083 566 4112 
Q 544 4141 544 4179 
L 544 4608 
Q 544 4698 634 4698 
L 2803 4698 
Q 3085 4698 3200 4608 
Q 3315 4518 3315 4314 
Q 3315 4282 3305 4230 
Q 3296 4179 3286 4124 
Q 3277 4070 3267 4028 
Q 3258 3987 3251 3968 
Q 2982 3053 2364 2400 
Q 1747 1747 717 1312 
z
" transform="scale(0.015625)"/>
      <path id="NanumGothicBold-c774" d="M 5274 -928 
Q 5274 -1011 5190 -1011 
L 4621 -1011 
Q 4538 -1011 4538 -928 
L 4538 4979 
Q 4538 5062 4621 5062 
L 5190 5062 
Q 5274 5062 5274 4979 
L 5274 -928 
z
M 2963 2573 
Q 2963 2867 2905 3132 
Q 2848 3398 2739 3596 
Q 2630 3795 2473 3910 
Q 2317 4026 2112 4026 
Q 1907 4026 1750 3910 
Q 1594 3795 1485 3596 
Q 1376 3398 1318 3132 
Q 1261 2867 1261 2573 
Q 1261 2285 1318 2019 
Q 1376 1754 1485 1552 
Q 1594 1350 1750 1232 
Q 1907 1114 2112 1114 
Q 2317 1114 2473 1232 
Q 2630 1350 2739 1552 
Q 2848 1754 2905 2019 
Q 2963 2285 2963 2573 
z
M 2112 461 
Q 1747 461 1452 614 
Q 1158 768 956 1046 
Q 755 1325 646 1715 
Q 538 2106 538 2573 
Q 538 3053 646 3443 
Q 755 3834 956 4106 
Q 1158 4378 1452 4528 
Q 1747 4678 2112 4678 
Q 2483 4678 2774 4528 
Q 3066 4378 3267 4106 
Q 3469 3834 3577 3443 
Q 3686 3053 3686 2573 
Q 3686 2093 3577 1702 
Q 3469 1312 3267 1037 
Q 3066 762 2774 611 
Q 2483 461 2112 461 
z
" transform="scale(0.015625)"/>
      <path id="NanumGothicBold-20" transform="scale(0.015625)"/>
      <path id="NanumGothicBold-c9c0" d="M 717 531 
Q 666 499 608 505 
Q 550 512 518 563 
L 269 896 
Q 224 954 253 1005 
Q 282 1056 326 1082 
Q 730 1331 1094 1657 
Q 1459 1984 1750 2342 
Q 2042 2701 2246 3075 
Q 2451 3450 2541 3795 
Q 2566 3904 2547 3936 
Q 2528 3968 2419 3968 
L 768 3968 
Q 730 3968 707 3997 
Q 685 4026 685 4064 
L 685 4493 
Q 685 4582 774 4582 
L 2861 4582 
Q 3110 4582 3251 4486 
Q 3392 4390 3392 4237 
Q 3392 4154 3379 4067 
Q 3366 3981 3347 3910 
Q 3258 3571 3107 3228 
Q 2957 2886 2739 2541 
Q 2861 2374 3021 2192 
Q 3181 2010 3353 1837 
Q 3526 1664 3692 1513 
Q 3859 1363 3994 1267 
Q 4038 1235 4054 1184 
Q 4070 1133 4032 1082 
L 3757 768 
Q 3674 678 3546 755 
Q 3430 832 3273 969 
Q 3117 1107 2950 1273 
Q 2784 1440 2624 1625 
Q 2464 1811 2336 1978 
Q 2010 1574 1606 1206 
Q 1203 838 717 531 
z
M 5280 -928 
Q 5280 -1011 5190 -1011 
L 4627 -1011 
Q 4595 -1011 4566 -988 
Q 4538 -966 4538 -928 
L 4538 4979 
Q 4538 5011 4566 5036 
Q 4595 5062 4627 5062 
L 5190 5062 
Q 5280 5062 5280 4979 
L 5280 -928 
z
" transform="scale(0.015625)"/>
      <path id="NanumGothicBold-b098" d="M 3981 1203 
Q 3994 1158 3962 1120 
Q 3930 1082 3872 1069 
Q 3635 1005 3270 944 
Q 2906 883 2509 838 
Q 2112 794 1731 778 
Q 1350 762 1082 787 
Q 832 813 723 934 
Q 614 1056 614 1274 
L 614 4602 
Q 614 4634 643 4662 
Q 672 4691 704 4691 
L 1254 4691 
Q 1293 4691 1321 4662 
Q 1350 4634 1350 4602 
L 1350 1517 
Q 1350 1453 1376 1437 
Q 1402 1421 1466 1414 
Q 1696 1395 1987 1404 
Q 2278 1414 2588 1449 
Q 2899 1485 3203 1539 
Q 3507 1594 3770 1658 
Q 3840 1670 3869 1635 
Q 3898 1600 3910 1562 
L 3981 1203 
z
M 5965 2195 
Q 5965 2157 5936 2131 
Q 5907 2106 5875 2106 
L 5005 2106 
L 5005 -928 
Q 5005 -1011 4922 -1011 
L 4352 -1011 
Q 4269 -1011 4269 -928 
L 4269 4979 
Q 4269 5062 4352 5062 
L 4922 5062 
Q 5005 5062 5005 4979 
L 5005 2720 
L 5875 2720 
Q 5907 2720 5936 2697 
Q 5965 2675 5965 2643 
L 5965 2195 
z
" transform="scale(0.015625)"/>
      <path id="NanumGothicBold-ba70" d="M 3475 1158 
Q 3475 909 3372 813 
Q 3270 717 3027 717 
L 1082 717 
Q 813 717 710 813 
Q 608 909 608 1158 
L 608 4160 
Q 608 4403 707 4496 
Q 806 4589 1050 4589 
L 3027 4589 
Q 3270 4589 3372 4502 
Q 3475 4416 3475 4160 
L 3475 3699 
L 4582 3699 
L 4582 4979 
Q 4582 5062 4666 5062 
L 5235 5062 
Q 5318 5062 5318 4979 
L 5318 -928 
Q 5318 -1011 5235 -1011 
L 4666 -1011 
Q 4582 -1011 4582 -928 
L 4582 1517 
L 3475 1517 
L 3475 1158 
z
M 2739 3904 
Q 2739 3955 2723 3971 
Q 2707 3987 2656 3987 
L 1421 3987 
Q 1370 3987 1354 3974 
Q 1338 3962 1338 3910 
L 1338 1402 
Q 1338 1344 1354 1331 
Q 1370 1318 1421 1318 
L 2656 1318 
Q 2707 1318 2723 1331 
Q 2739 1344 2739 1402 
L 2739 3904 
z
M 3475 3098 
L 3475 2118 
L 4582 2118 
L 4582 3098 
L 3475 3098 
z
" transform="scale(0.015625)"/>
      <path id="NanumGothicBold-c704" d="M 2157 4768 
Q 2496 4768 2781 4675 
Q 3066 4582 3270 4416 
Q 3475 4250 3590 4022 
Q 3706 3795 3706 3520 
Q 3706 3238 3590 3008 
Q 3475 2778 3270 2611 
Q 3066 2445 2781 2352 
Q 2496 2259 2157 2259 
Q 1818 2259 1536 2352 
Q 1254 2445 1046 2611 
Q 838 2778 723 3008 
Q 608 3238 608 3520 
Q 608 3795 723 4022 
Q 838 4250 1046 4416 
Q 1254 4582 1536 4675 
Q 1818 4768 2157 4768 
z
M 5280 -928 
Q 5280 -1011 5190 -1011 
L 4627 -1011 
Q 4595 -1011 4566 -988 
Q 4538 -966 4538 -928 
L 4538 4979 
Q 4538 5011 4566 5036 
Q 4595 5062 4627 5062 
L 5190 5062 
Q 5280 5062 5280 4979 
L 5280 -928 
z
M 211 1632 
Q 211 1722 307 1722 
Q 762 1709 1267 1712 
Q 1773 1715 2275 1734 
Q 2778 1754 3251 1789 
Q 3725 1824 4122 1882 
Q 4154 1888 4195 1875 
Q 4237 1862 4243 1811 
L 4282 1402 
Q 4288 1350 4259 1324 
Q 4230 1299 4198 1293 
Q 3872 1242 3456 1203 
Q 3040 1165 2573 1139 
L 2573 -710 
Q 2573 -755 2544 -784 
Q 2515 -813 2477 -813 
L 1952 -813 
Q 1850 -813 1850 -710 
L 1850 1114 
Q 1446 1101 1049 1094 
Q 653 1088 307 1094 
Q 262 1094 236 1123 
Q 211 1152 211 1190 
L 211 1632 
z
M 2157 4166 
Q 1997 4166 1846 4118 
Q 1696 4070 1581 3984 
Q 1466 3898 1395 3776 
Q 1325 3654 1325 3507 
Q 1325 3354 1395 3232 
Q 1466 3110 1581 3020 
Q 1696 2931 1846 2883 
Q 1997 2835 2157 2835 
Q 2330 2835 2483 2883 
Q 2637 2931 2752 3020 
Q 2867 3110 2934 3232 
Q 3002 3354 3002 3507 
Q 3002 3654 2934 3776 
Q 2867 3898 2752 3984 
Q 2637 4070 2483 4118 
Q 2330 4166 2157 4166 
z
" transform="scale(0.015625)"/>
      <path id="NanumGothicBold-ce58" d="M 710 378 
Q 659 352 604 355 
Q 550 358 518 403 
L 320 710 
Q 275 781 297 841 
Q 320 902 365 922 
Q 717 1114 1043 1344 
Q 1370 1574 1645 1836 
Q 1920 2099 2128 2384 
Q 2336 2669 2458 2970 
Q 2496 3059 2502 3100 
Q 2509 3142 2355 3142 
L 710 3142 
Q 672 3142 646 3174 
Q 621 3206 621 3245 
L 621 3667 
Q 621 3706 649 3731 
Q 678 3757 717 3757 
L 2874 3757 
Q 3149 3757 3257 3654 
Q 3366 3552 3366 3437 
Q 3366 3283 3309 3110 
Q 3200 2842 3069 2592 
Q 2938 2342 2771 2106 
Q 2893 1971 3037 1833 
Q 3181 1696 3334 1568 
Q 3488 1440 3641 1325 
Q 3795 1210 3930 1120 
Q 3981 1088 3974 1040 
Q 3968 992 3936 941 
L 3693 602 
Q 3667 563 3616 556 
Q 3565 550 3501 595 
Q 3386 666 3235 781 
Q 3085 896 2931 1033 
Q 2778 1171 2627 1318 
Q 2477 1466 2362 1600 
Q 1702 890 710 378 
z
M 5280 -928 
Q 5280 -1011 5190 -1011 
L 4627 -1011 
Q 4595 -1011 4566 -988 
Q 4538 -966 4538 -928 
L 4538 4979 
Q 4538 5011 4566 5036 
Q 4595 5062 4627 5062 
L 5190 5062 
Q 5280 5062 5280 4979 
L 5280 -928 
z
M 2970 4294 
Q 2970 4256 2938 4224 
Q 2906 4192 2861 4192 
L 1197 4192 
Q 1171 4192 1136 4217 
Q 1101 4243 1101 4288 
L 1101 4678 
Q 1101 4723 1136 4748 
Q 1171 4774 1197 4774 
L 2861 4774 
Q 2899 4774 2934 4742 
Q 2970 4710 2970 4672 
L 2970 4294 
z
" transform="scale(0.015625)"/>
      <path id="NanumGothicBold-ac00" d="M 3379 4102 
Q 3334 3520 3142 2979 
Q 2950 2438 2614 1958 
Q 2278 1478 1804 1062 
Q 1331 646 736 320 
Q 685 294 630 297 
Q 576 301 544 352 
L 288 710 
Q 256 762 269 813 
Q 282 864 326 896 
Q 1280 1402 1869 2144 
Q 2458 2886 2586 3757 
Q 2605 3885 2569 3926 
Q 2534 3968 2419 3968 
L 614 3968 
Q 531 3968 531 4058 
L 531 4506 
Q 531 4582 614 4582 
L 2925 4582 
Q 3213 4582 3305 4464 
Q 3398 4346 3379 4102 
z
M 5971 2202 
Q 5971 2163 5942 2137 
Q 5914 2112 5875 2112 
L 5011 2112 
L 5011 -928 
Q 5011 -1011 4928 -1011 
L 4358 -1011 
Q 4275 -1011 4275 -928 
L 4275 4979 
Q 4275 5062 4358 5062 
L 4928 5062 
Q 5011 5062 5011 4979 
L 5011 2726 
L 5875 2726 
Q 5914 2726 5942 2704 
Q 5971 2682 5971 2650 
L 5971 2202 
z
" transform="scale(0.015625)"/>
      <path id="NanumGothicBold-bc14" d="M 2669 2656 
L 1293 2656 
L 1293 1459 
Q 1293 1350 1408 1350 
L 2554 1350 
Q 2669 1350 2669 1459 
L 2669 2656 
z
M 3405 1178 
Q 3405 966 3302 857 
Q 3200 749 2925 749 
L 1043 749 
Q 762 749 659 845 
Q 557 941 557 1197 
L 557 4653 
Q 557 4685 582 4707 
Q 608 4730 640 4730 
L 1203 4730 
Q 1235 4730 1264 4707 
Q 1293 4685 1293 4653 
L 1293 3251 
L 2669 3251 
L 2669 4659 
Q 2669 4691 2694 4716 
Q 2720 4742 2752 4742 
L 3322 4742 
Q 3354 4742 3379 4716 
Q 3405 4691 3405 4659 
L 3405 1178 
z
M 5965 2195 
Q 5965 2157 5936 2131 
Q 5907 2106 5875 2106 
L 5005 2106 
L 5005 -928 
Q 5005 -1011 4922 -1011 
L 4352 -1011 
Q 4269 -1011 4269 -928 
L 4269 4979 
Q 4269 5062 4352 5062 
L 4922 5062 
Q 5005 5062 5005 4979 
L 5005 2720 
L 5875 2720 
Q 5907 2720 5936 2697 
Q 5965 2675 5965 2643 
L 5965 2195 
z
" transform="scale(0.015625)"/>
      <path id="NanumGothicBold-b01c" d="M 5344 -525 
Q 5344 -768 5235 -870 
Q 5126 -973 4883 -973 
L 1818 -973 
Q 1530 -973 1430 -870 
Q 1331 -768 1331 -518 
L 1331 621 
Q 1331 864 1436 969 
Q 1542 1075 1786 1075 
L 4851 1075 
Q 5139 1075 5241 972 
Q 5344 870 5344 614 
L 5344 -525 
z
M 2163 4301 
Q 2163 3930 2124 3552 
Q 2086 3174 2016 2854 
Q 2285 2861 2547 2877 
Q 2810 2893 3059 2906 
Q 3117 3187 3149 3481 
Q 3181 3776 3181 4038 
Q 3181 4128 3158 4153 
Q 3136 4179 3046 4179 
L 2387 4179 
Q 2355 4179 2320 4201 
Q 2285 4224 2285 4256 
L 2285 4678 
Q 2285 4717 2320 4736 
Q 2355 4755 2387 4755 
L 3430 4755 
Q 3635 4755 3744 4646 
Q 3853 4538 3853 4301 
Q 3853 3962 3817 3610 
Q 3782 3258 3725 2950 
Q 3859 2963 3990 2979 
Q 4122 2995 4230 3014 
Q 4262 3021 4300 2998 
Q 4339 2976 4346 2944 
L 4378 2573 
Q 4384 2534 4358 2496 
Q 4333 2458 4301 2451 
Q 3846 2400 3433 2365 
Q 3021 2330 2618 2298 
L 2618 1434 
Q 2618 1395 2589 1366 
Q 2560 1338 2522 1338 
L 1997 1338 
Q 1952 1338 1923 1366 
Q 1894 1395 1894 1434 
L 1894 2259 
Q 1120 2221 326 2240 
Q 288 2240 262 2272 
Q 237 2304 237 2342 
L 237 2752 
Q 237 2842 326 2842 
Q 570 2835 826 2838 
Q 1082 2842 1357 2842 
Q 1421 3136 1456 3453 
Q 1491 3770 1491 4038 
Q 1491 4128 1468 4153 
Q 1446 4179 1357 4179 
L 659 4179 
Q 627 4179 595 4201 
Q 563 4224 563 4256 
L 563 4678 
Q 563 4717 595 4736 
Q 627 4755 659 4755 
L 1741 4755 
Q 1946 4755 2054 4646 
Q 2163 4538 2163 4301 
z
M 5344 1421 
Q 5344 1338 5261 1338 
L 4710 1338 
Q 4627 1338 4627 1421 
L 4627 4986 
Q 4627 5069 4710 5069 
L 5261 5069 
Q 5344 5069 5344 4986 
L 5344 1421 
z
M 4614 403 
Q 4614 454 4595 470 
Q 4576 486 4525 486 
L 2144 486 
Q 2093 486 2077 473 
Q 2061 461 2061 410 
L 2061 -301 
Q 2061 -358 2077 -371 
Q 2093 -384 2144 -384 
L 4525 -384 
Q 4582 -384 4598 -371 
Q 4614 -358 4614 -301 
L 4614 403 
z
" transform="scale(0.015625)"/>
     </defs>
     <use xlink:href="#NanumGothicBold-c2dc"/>
     <use xlink:href="#NanumGothicBold-ac04" transform="translate(93.999985 0)"/>
     <use xlink:href="#NanumGothicBold-c774" transform="translate(187.999969 0)"/>
     <use xlink:href="#NanumGothicBold-20" transform="translate(281.999954 0)"/>
     <use xlink:href="#NanumGothicBold-c9c0" transform="translate(309.999939 0)"/>
     <use xlink:href="#NanumGothicBold-b098" transform="translate(403.999924 0)"/>
     <use xlink:href="#NanumGothicBold-ba70" transform="translate(497.999908 0)"/>
     <use xlink:href="#NanumGothicBold-20" transform="translate(591.999893 0)"/>
     <use xlink:href="#NanumGothicBold-c704" transform="translate(619.999878 0)"/>
     <use xlink:href="#NanumGothicBold-ce58" transform="translate(713.999863 0)"/>
     <use xlink:href="#NanumGothicBold-ac00" transform="translate(807.999847 0)"/>
     <use xlink:href="#NanumGothicBold-20" transform="translate(901.999832 0)"/>
     <use xlink:href="#NanumGothicBold-bc14" transform="translate(929.999817 0)"/>
     <use xlink:href="#NanumGothicBold-b01c" transform="translate(1023.999802 0)"/>
    </g>
   </g>
   <g id="text_2">
    <!-- 처음 -->
    <g style="fill: #111827" transform="translate(48.406122 88.791169) scale(0.11 -0.11)">
     <defs>
      <path id="NanumGothicBold-cc98" d="M 691 378 
Q 640 352 585 355 
Q 531 358 499 403 
L 301 710 
Q 256 781 278 841 
Q 301 902 346 922 
Q 698 1114 1027 1344 
Q 1357 1574 1632 1836 
Q 1907 2099 2121 2384 
Q 2336 2669 2458 2970 
Q 2496 3059 2502 3100 
Q 2509 3142 2355 3142 
L 691 3142 
Q 646 3142 624 3174 
Q 602 3206 602 3245 
L 602 3667 
Q 602 3757 698 3757 
L 2854 3757 
Q 3130 3757 3238 3654 
Q 3347 3552 3347 3437 
Q 3347 3283 3290 3110 
Q 3053 2515 2688 2016 
Q 2810 1888 2957 1753 
Q 3104 1619 3257 1491 
Q 3411 1363 3568 1248 
Q 3725 1133 3859 1050 
Q 3910 1018 3904 966 
Q 3898 915 3866 864 
L 3635 525 
Q 3603 493 3555 483 
Q 3507 474 3443 512 
Q 3322 582 3168 697 
Q 3014 813 2854 950 
Q 2694 1088 2537 1235 
Q 2381 1382 2259 1517 
Q 1619 864 691 378 
z
M 5325 -928 
Q 5325 -1011 5242 -1011 
L 4672 -1011 
Q 4589 -1011 4589 -928 
L 4589 1920 
L 3610 1920 
Q 3578 1920 3549 1942 
Q 3520 1965 3520 1997 
L 3520 2451 
Q 3520 2483 3549 2508 
Q 3578 2534 3610 2534 
L 4589 2534 
L 4589 4979 
Q 4589 5062 4672 5062 
L 5242 5062 
Q 5325 5062 5325 4979 
L 5325 -928 
z
M 2944 4294 
Q 2944 4256 2915 4224 
Q 2886 4192 2842 4192 
L 1178 4192 
Q 1152 4192 1117 4217 
Q 1082 4243 1082 4288 
L 1082 4678 
Q 1082 4723 1117 4748 
Q 1152 4774 1178 4774 
L 2842 4774 
Q 2880 4774 2912 4742 
Q 2944 4710 2944 4672 
L 2944 4294 
z
" transform="scale(0.015625)"/>
      <path id="NanumGothicBold-c74c" d="M 5875 1760 
Q 5875 1728 5843 1696 
Q 5811 1664 5779 1664 
L 211 1664 
Q 173 1664 147 1693 
Q 122 1722 122 1760 
L 122 2182 
Q 122 2278 211 2278 
L 5779 2278 
Q 5811 2278 5843 2249 
Q 5875 2221 5875 2182 
L 5875 1760 
z
M 2995 2707 
Q 2534 2707 2160 2787 
Q 1786 2867 1517 3017 
Q 1248 3168 1104 3379 
Q 960 3590 960 3853 
Q 960 4109 1107 4320 
Q 1254 4531 1523 4681 
Q 1792 4832 2166 4912 
Q 2541 4992 2995 4992 
Q 3456 4992 3827 4912 
Q 4198 4832 4464 4681 
Q 4730 4531 4874 4320 
Q 5018 4109 5018 3853 
Q 5018 3590 4874 3379 
Q 4730 3168 4464 3017 
Q 4198 2867 3827 2787 
Q 3456 2707 2995 2707 
z
M 2995 4410 
Q 2714 4410 2480 4368 
Q 2246 4326 2080 4249 
Q 1914 4173 1821 4070 
Q 1728 3968 1728 3853 
Q 1728 3738 1821 3635 
Q 1914 3533 2080 3456 
Q 2246 3379 2480 3334 
Q 2714 3290 2995 3290 
Q 3270 3290 3504 3334 
Q 3738 3379 3901 3456 
Q 4064 3533 4157 3635 
Q 4250 3738 4250 3853 
Q 4250 3968 4157 4070 
Q 4064 4173 3901 4249 
Q 3738 4326 3504 4368 
Q 3270 4410 2995 4410 
z
M 4960 -467 
Q 4960 -710 4835 -812 
Q 4710 -915 4474 -915 
L 1517 -915 
Q 1229 -915 1129 -816 
Q 1030 -717 1030 -467 
L 1030 723 
Q 1030 966 1152 1068 
Q 1274 1171 1517 1171 
L 4474 1171 
Q 4762 1171 4861 1075 
Q 4960 979 4960 723 
L 4960 -467 
z
M 4224 454 
Q 4224 557 4134 557 
L 1850 557 
Q 1798 557 1782 534 
Q 1766 512 1766 461 
L 1766 -218 
Q 1766 -275 1782 -288 
Q 1798 -301 1850 -301 
L 4134 -301 
Q 4192 -301 4208 -288 
Q 4224 -275 4224 -218 
L 4224 454 
z
" transform="scale(0.015625)"/>
     </defs>
     <use xlink:href="#NanumGothicBold-cc98"/>
     <use xlink:href="#NanumGothicBold-c74c" transform="translate(93.999985 0)"/>
    </g>
   </g>
   <g id="patch_2">
    <path d="M 90.810799 85.717184 
Q 111.357231 85.717184 129.891202 85.717184 
" clip-path="url(#p245694ef5f)" style="fill: none; stroke: #6b7280; stroke-width: 1.8; stroke-linecap: round"/>
    <path d="M 124.291202 82.917184 
L 129.891202 85.717184 
L 124.291202 88.517184 
z
" clip-path="url(#p245694ef5f)" style="fill: #6b7280; stroke: #6b7280; stroke-width: 1.8; stroke-linecap: round"/>
   </g>
   <g id="text_3">
    <!-- 조금 뒤 -->
    <g style="fill: #111827" transform="translate(156.940204 88.791169) scale(0.11 -0.11)">
     <defs>
      <path id="NanumGothicBold-c870" d="M 998 1715 
Q 954 1702 899 1715 
Q 845 1728 832 1760 
L 678 2150 
Q 666 2202 694 2253 
Q 723 2304 762 2317 
Q 1747 2618 2470 3014 
Q 3194 3411 3635 3872 
Q 3706 3942 3706 3974 
Q 3706 4006 3610 4006 
L 1165 4006 
Q 1082 4006 1082 4090 
L 1082 4538 
Q 1082 4614 1165 4614 
L 4250 4614 
Q 4512 4614 4633 4534 
Q 4755 4454 4755 4307 
Q 4755 4077 4448 3718 
Q 4147 3373 3763 3059 
Q 3923 2982 4131 2886 
Q 4339 2790 4553 2700 
Q 4768 2611 4966 2537 
Q 5165 2464 5312 2419 
Q 5414 2387 5370 2285 
L 5197 1869 
Q 5184 1830 5133 1817 
Q 5082 1805 5030 1818 
Q 4838 1882 4611 1971 
Q 4384 2061 4141 2169 
Q 3898 2278 3651 2400 
Q 3405 2522 3174 2650 
Q 2688 2349 2134 2112 
Q 1581 1875 998 1715 
z
M 5882 122 
Q 5882 90 5850 58 
Q 5818 26 5786 26 
L 211 26 
Q 173 26 147 54 
Q 122 83 122 122 
L 122 550 
Q 122 640 211 640 
L 2624 640 
L 2624 1837 
Q 2624 1926 2714 1926 
L 3270 1926 
Q 3309 1926 3337 1900 
Q 3366 1875 3366 1837 
L 3366 640 
L 5786 640 
Q 5818 640 5850 611 
Q 5882 582 5882 550 
L 5882 122 
z
" transform="scale(0.015625)"/>
      <path id="NanumGothicBold-ae08" d="M 4960 -397 
Q 4960 -640 4835 -745 
Q 4710 -851 4467 -851 
L 1517 -851 
Q 1229 -851 1129 -748 
Q 1030 -646 1030 -397 
L 1030 979 
Q 1030 1222 1152 1324 
Q 1274 1427 1517 1427 
L 4467 1427 
Q 4762 1427 4861 1331 
Q 4960 1235 4960 979 
L 4960 -397 
z
M 5018 4416 
Q 5018 4269 5008 4064 
Q 4998 3859 4976 3625 
Q 4954 3392 4922 3145 
Q 4890 2899 4845 2675 
L 5786 2675 
Q 5818 2675 5850 2643 
Q 5882 2611 5882 2579 
L 5882 2157 
Q 5882 2125 5850 2093 
Q 5818 2061 5786 2061 
L 211 2061 
Q 173 2061 147 2093 
Q 122 2125 122 2157 
L 122 2579 
Q 122 2618 147 2646 
Q 173 2675 211 2675 
L 4160 2675 
Q 4224 2995 4262 3369 
Q 4301 3744 4301 4128 
Q 4301 4218 4256 4243 
Q 4211 4269 4122 4269 
L 1139 4269 
Q 1107 4269 1075 4291 
Q 1043 4314 1043 4346 
L 1043 4794 
Q 1043 4832 1075 4851 
Q 1107 4870 1139 4870 
L 4595 4870 
Q 4800 4870 4909 4761 
Q 5018 4653 5018 4416 
z
M 4224 710 
Q 4224 813 4134 813 
L 1850 813 
Q 1798 813 1782 790 
Q 1766 768 1766 717 
L 1766 -154 
Q 1766 -211 1782 -224 
Q 1798 -237 1850 -237 
L 4134 -237 
Q 4192 -237 4208 -224 
Q 4224 -211 4224 -154 
L 4224 710 
z
" transform="scale(0.015625)"/>
      <path id="NanumGothicBold-b4a4" d="M 5280 -928 
Q 5280 -1011 5190 -1011 
L 4627 -1011 
Q 4595 -1011 4566 -988 
Q 4538 -966 4538 -928 
L 4538 4979 
Q 4538 5011 4566 5036 
Q 4595 5062 4627 5062 
L 5190 5062 
Q 5280 5062 5280 4979 
L 5280 -928 
z
M 3629 2368 
Q 3629 2272 3546 2272 
L 1146 2272 
Q 890 2272 787 2387 
Q 685 2502 685 2726 
L 685 4224 
Q 685 4467 793 4553 
Q 902 4640 1146 4640 
L 3482 4640 
Q 3520 4640 3549 4614 
Q 3578 4589 3578 4557 
L 3578 4115 
Q 3578 4083 3549 4057 
Q 3520 4032 3482 4032 
L 1542 4032 
Q 1427 4032 1427 3923 
L 1427 2989 
Q 1427 2938 1449 2909 
Q 1472 2880 1542 2880 
L 3520 2880 
Q 3571 2880 3600 2864 
Q 3629 2848 3629 2797 
L 3629 2368 
z
M 211 1600 
Q 211 1690 307 1690 
Q 762 1677 1267 1680 
Q 1773 1683 2275 1702 
Q 2778 1722 3251 1757 
Q 3725 1792 4122 1843 
Q 4154 1850 4195 1840 
Q 4237 1830 4243 1779 
L 4282 1370 
Q 4288 1318 4259 1292 
Q 4230 1267 4198 1261 
Q 3885 1210 3475 1174 
Q 3066 1139 2618 1114 
L 2618 -710 
Q 2618 -755 2586 -784 
Q 2554 -813 2515 -813 
L 1990 -813 
Q 1952 -813 1920 -784 
Q 1888 -755 1888 -710 
L 1888 1082 
Q 1472 1069 1069 1062 
Q 666 1056 307 1062 
Q 262 1062 236 1091 
Q 211 1120 211 1158 
L 211 1600 
z
" transform="scale(0.015625)"/>
     </defs>
     <use xlink:href="#NanumGothicBold-c870"/>
     <use xlink:href="#NanumGothicBold-ae08" transform="translate(93.999985 0)"/>
     <use xlink:href="#NanumGothicBold-20" transform="translate(187.999969 0)"/>
     <use xlink:href="#NanumGothicBold-b4a4" transform="translate(215.999954 0)"/>
    </g>
   </g>
   <g id="patch_3">
    <path d="M 206.054881 85.717184 
Q 226.601313 85.717184 245.135284 85.717184 
" clip-path="url(#p245694ef5f)" style="fill: none; stroke: #6b7280; stroke-width: 1.8; stroke-linecap: round"/>
    <path d="M 239.535284 82.917184 
L 245.135284 85.717184 
L 239.535284 88.517184 
z
" clip-path="url(#p245694ef5f)" style="fill: #6b7280; stroke: #6b7280; stroke-width: 1.8; stroke-linecap: round"/>
   </g>
   <g id="text_4">
    <!-- 더 뒤 -->
    <g style="fill: #111827" transform="translate(277.354286 88.791169) scale(0.11 -0.11)">
     <defs>
      <path id="NanumGothicBold-b354" d="M 4640 4979 
Q 4640 5062 4723 5062 
L 5293 5062 
Q 5376 5062 5376 4979 
L 5376 -928 
Q 5376 -1011 5293 -1011 
L 4723 -1011 
Q 4640 -1011 4640 -928 
L 4640 2464 
L 3123 2464 
Q 3098 2464 3062 2489 
Q 3027 2515 3027 2566 
L 3027 2982 
Q 3027 3027 3062 3052 
Q 3098 3078 3123 3078 
L 4640 3078 
L 4640 4979 
z
M 4058 1094 
Q 4070 1024 4041 1001 
Q 4013 979 3981 966 
Q 3725 890 3344 835 
Q 2963 781 2556 749 
Q 2150 717 1763 707 
Q 1376 698 1114 717 
Q 877 730 765 822 
Q 653 915 653 1146 
L 653 4179 
Q 653 4403 745 4492 
Q 838 4582 1082 4582 
L 3341 4582 
Q 3430 4582 3430 4499 
L 3430 4051 
Q 3430 3968 3341 3968 
L 1504 3968 
Q 1389 3968 1389 3859 
L 1389 1523 
Q 1389 1421 1424 1392 
Q 1459 1363 1581 1350 
Q 1779 1338 2054 1344 
Q 2330 1350 2640 1376 
Q 2950 1402 3270 1440 
Q 3590 1478 3878 1530 
Q 3974 1562 3994 1459 
L 4058 1094 
z
" transform="scale(0.015625)"/>
     </defs>
     <use xlink:href="#NanumGothicBold-b354"/>
     <use xlink:href="#NanumGothicBold-20" transform="translate(93.999985 0)"/>
     <use xlink:href="#NanumGothicBold-b4a4" transform="translate(121.999969 0)"/>
    </g>
   </g>
   <g id="patch_4">
    <path d="M 321.298962 85.717184 
Q 341.845394 85.717184 360.379365 85.717184 
" clip-path="url(#p245694ef5f)" style="fill: none; stroke: #6b7280; stroke-width: 1.8; stroke-linecap: round"/>
    <path d="M 354.779365 82.917184 
L 360.379365 85.717184 
L 354.779365 88.517184 
z
" clip-path="url(#p245694ef5f)" style="fill: #6b7280; stroke: #6b7280; stroke-width: 1.8; stroke-linecap: round"/>
   </g>
   <g id="text_5">
    <!-- 더 뒤 -->
    <g style="fill: #111827" transform="translate(392.598367 88.791169) scale(0.11 -0.11)">
     <use xlink:href="#NanumGothicBold-b354"/>
     <use xlink:href="#NanumGothicBold-20" transform="translate(93.999985 0)"/>
     <use xlink:href="#NanumGothicBold-b4a4" transform="translate(121.999969 0)"/>
    </g>
   </g>
  </g>
 </g>
 <defs>
  <clipPath id="p245694ef5f">
   <rect x="8.64" y="30.60045" width="491.04" height="110.233469"/>
  </clipPath>
 </defs>
</svg>
