<?xml version="1.0" encoding="utf-8" standalone="no"?>
<!DOCTYPE svg PUBLIC "-//W3C//DTD SVG 1.1//EN"
  "http://www.w3.org/Graphics/SVG/1.1/DTD/svg11.dtd">
<svg xmlns:xlink="http://www.w3.org/1999/xlink" width="345.813333pt" height="259.644531pt" viewBox="0 0 345.813333 259.644531" xmlns="http://www.w3.org/2000/svg" version="1.1">
 <metadata>
  <rdf:RDF xmlns:dc="http://purl.org/dc/elements/1.1/" xmlns:cc="http://creativecommons.org/ns#" xmlns:rdf="http://www.w3.org/1999/02/22-rdf-syntax-ns#">
   <cc:Work>
    <dc:type rdf:resource="http://purl.org/dc/dcmitype/StillImage"/>
    <dc:date>2026-07-08T05:12:55.248170</dc:date>
    <dc:format>image/svg+xml</dc:format>
    <dc:creator>
     <cc:Agent>
      <dc:title>Matplotlib v3.10.8, https://matplotlib.org/</dc:title>
     </cc:Agent>
    </dc:creator>
   </cc:Work>
  </rdf:RDF>
 </metadata>
 <defs>
  <style type="text/css">*{stroke-linejoin: round; stroke-linecap: butt}</style>
 </defs>
 <g id="figure_1">
  <g id="patch_1">
   <path d="M 0 259.644531 
L 345.813333 259.644531 
L 345.813333 0 
L 0 0 
z
" style="fill: #ffffff"/>
  </g>
  <g id="axes_1">
   <g id="patch_2">
    <path d="M 115.413333 201.724531 
C 115.413333 194.462811 113.662325 187.307032 110.309236 180.865807 
C 106.956147 174.424583 102.098813 168.885855 96.15036 164.720703 
" clip-path="url(#pac9ef1c795)" style="fill: none; stroke: #ef4444; stroke-width: 1.6; stroke-linejoin: miter"/>
   </g>
   <g id="line2d_1">
    <defs>
     <path id="m792b7653af" d="M 0 3.5 
C 0.928211 3.5 1.81853 3.131218 2.474874 2.474874 
C 3.131218 1.81853 3.5 0.928211 3.5 0 
C 3.5 -0.928211 3.131218 -1.81853 2.474874 -2.474874 
C 1.81853 -3.131218 0.928211 -3.5 0 -3.5 
C -0.928211 -3.5 -1.81853 -3.131218 -2.474874 -2.474874 
C -3.131218 -1.81853 -3.5 -0.928211 -3.5 0 
C -3.5 0.928211 -3.131218 1.81853 -2.474874 2.474874 
C -1.81853 3.131218 -0.928211 3.5 0 3.5 
z
" style="stroke: #111827"/>
    </defs>
    <g clip-path="url(#pac9ef1c795)">
     <use xlink:href="#m792b7653af" x="70.24" y="201.724531" style="fill: #111827; stroke: #111827"/>
    </g>
   </g>
   <g id="text_1">
    <!-- 원점 기준 회전 -->
    <g style="fill: #111827" transform="translate(8.64 20.054062) scale(0.15 -0.15)">
     <defs>
      <path id="NanumGothicBold-c6d0" d="M 2182 4410 
Q 2029 4410 1888 4362 
Q 1747 4314 1644 4234 
Q 1542 4154 1481 4042 
Q 1421 3930 1421 3802 
Q 1421 3667 1481 3555 
Q 1542 3443 1644 3363 
Q 1747 3283 1888 3235 
Q 2029 3187 2182 3187 
Q 2342 3187 2480 3235 
Q 2618 3283 2723 3363 
Q 2829 3443 2889 3555 
Q 2950 3667 2950 3802 
Q 2950 3930 2889 4042 
Q 2829 4154 2723 4234 
Q 2618 4314 2480 4362 
Q 2342 4410 2182 4410 
z
M 2182 4973 
Q 2509 4973 2781 4880 
Q 3053 4787 3248 4630 
Q 3443 4474 3552 4262 
Q 3661 4051 3661 3814 
Q 3661 3565 3552 3347 
Q 3443 3130 3248 2973 
Q 3053 2816 2781 2723 
Q 2509 2630 2182 2630 
Q 1856 2630 1587 2723 
Q 1318 2816 1123 2973 
Q 928 3130 822 3347 
Q 717 3565 717 3814 
Q 717 4051 822 4262 
Q 928 4474 1123 4630 
Q 1318 4787 1587 4880 
Q 1856 4973 2182 4973 
z
M 5274 371 
Q 5274 282 5190 282 
L 4621 282 
Q 4538 282 4538 371 
L 4538 954 
L 3443 954 
Q 3411 954 3382 979 
Q 3354 1005 3354 1037 
L 3354 1440 
Q 3354 1472 3382 1494 
Q 3411 1517 3443 1517 
L 4538 1517 
L 4538 4979 
Q 4538 5062 4621 5062 
L 5190 5062 
Q 5274 5062 5274 4979 
L 5274 371 
z
M 4320 2035 
Q 4326 1984 4297 1955 
Q 4269 1926 4237 1914 
Q 4058 1882 3840 1859 
Q 3622 1837 3392 1817 
Q 3162 1798 2934 1782 
Q 2707 1766 2509 1760 
L 2509 838 
Q 2509 800 2480 771 
Q 2451 742 2413 742 
L 1882 742 
Q 1843 742 1814 771 
Q 1786 800 1786 838 
L 1786 1709 
Q 1594 1702 1392 1699 
Q 1190 1696 998 1689 
Q 806 1683 633 1683 
Q 461 1683 333 1690 
Q 294 1690 268 1722 
Q 243 1754 243 1792 
L 243 2189 
Q 243 2227 268 2256 
Q 294 2285 333 2285 
Q 774 2285 1296 2294 
Q 1818 2304 2336 2326 
Q 2854 2349 3334 2384 
Q 3814 2419 4166 2470 
Q 4198 2477 4233 2457 
Q 4269 2438 4275 2400 
L 4320 2035 
z
M 5414 -826 
Q 5414 -864 5385 -883 
Q 5357 -902 5325 -902 
L 1696 -902 
Q 1402 -902 1302 -800 
Q 1203 -698 1203 -448 
L 1203 467 
Q 1203 499 1232 528 
Q 1261 557 1293 557 
L 1843 557 
Q 1882 557 1910 528 
Q 1939 499 1939 467 
L 1939 -186 
Q 1939 -250 1964 -269 
Q 1990 -288 2061 -288 
L 5325 -288 
Q 5357 -288 5385 -313 
Q 5414 -339 5414 -371 
L 5414 -826 
z
" transform="scale(0.015625)"/>
      <path id="NanumGothicBold-c810" d="M 5286 -467 
Q 5286 -710 5177 -812 
Q 5069 -915 4826 -915 
L 2029 -915 
Q 1734 -915 1603 -812 
Q 1472 -710 1472 -461 
L 1472 806 
Q 1472 1050 1577 1158 
Q 1683 1267 1926 1267 
L 4794 1267 
Q 5082 1267 5184 1161 
Q 5286 1056 5286 800 
L 5286 -467 
z
M 781 1600 
Q 742 1574 678 1577 
Q 614 1581 576 1651 
L 390 1965 
Q 358 2016 371 2073 
Q 384 2131 448 2157 
Q 806 2317 1126 2525 
Q 1446 2733 1705 2969 
Q 1965 3206 2157 3465 
Q 2349 3725 2451 3987 
Q 2477 4045 2473 4089 
Q 2470 4134 2368 4134 
L 781 4134 
Q 691 4134 691 4237 
L 691 4659 
Q 691 4698 720 4723 
Q 749 4749 787 4749 
L 2810 4749 
Q 3091 4749 3228 4646 
Q 3366 4544 3334 4333 
Q 3322 4262 3299 4185 
Q 3277 4109 3258 4051 
Q 3098 3597 2784 3162 
Q 2899 3046 3040 2928 
Q 3181 2810 3331 2707 
Q 3482 2605 3629 2515 
Q 3776 2426 3904 2368 
Q 4038 2304 3955 2176 
L 3757 1837 
Q 3725 1786 3680 1773 
Q 3635 1760 3565 1792 
Q 3450 1850 3296 1942 
Q 3142 2035 2979 2156 
Q 2816 2278 2656 2412 
Q 2496 2547 2362 2682 
Q 2035 2362 1638 2090 
Q 1242 1818 781 1600 
z
M 3450 3130 
L 3450 3578 
Q 3450 3610 3478 3632 
Q 3507 3654 3539 3654 
L 4544 3654 
L 4544 4979 
Q 4544 5062 4634 5062 
L 5197 5062 
Q 5229 5062 5257 5036 
Q 5286 5011 5286 4979 
L 5286 1670 
Q 5286 1638 5257 1609 
Q 5229 1581 5197 1581 
L 4634 1581 
Q 4595 1581 4569 1609 
Q 4544 1638 4544 1670 
L 4544 3053 
L 3539 3053 
Q 3507 3053 3478 3075 
Q 3450 3098 3450 3130 
z
M 4550 589 
Q 4550 646 4534 662 
Q 4518 678 4467 678 
L 2285 678 
Q 2234 678 2218 665 
Q 2202 653 2202 595 
L 2202 -243 
Q 2202 -301 2218 -313 
Q 2234 -326 2285 -326 
L 4467 -326 
Q 4518 -326 4534 -313 
Q 4550 -301 4550 -243 
L 4550 589 
z
" transform="scale(0.015625)"/>
      <path id="NanumGothicBold-20" transform="scale(0.015625)"/>
      <path id="NanumGothicBold-ae30" d="M 5274 -928 
Q 5274 -1011 5190 -1011 
L 4621 -1011 
Q 4538 -1011 4538 -928 
L 4538 4979 
Q 4538 5062 4621 5062 
L 5190 5062 
Q 5274 5062 5274 4979 
L 5274 -928 
z
M 3546 4102 
Q 3494 3482 3286 2931 
Q 3078 2381 2736 1907 
Q 2394 1434 1926 1030 
Q 1459 627 896 294 
Q 845 262 784 272 
Q 723 282 691 333 
L 474 672 
Q 442 723 454 771 
Q 467 819 512 845 
Q 1466 1408 2038 2144 
Q 2611 2880 2784 3757 
Q 2810 3885 2771 3926 
Q 2733 3968 2611 3968 
L 806 3968 
Q 717 3968 717 4058 
L 717 4506 
Q 717 4582 806 4582 
L 3098 4582 
Q 3386 4582 3475 4464 
Q 3565 4346 3546 4102 
z
" transform="scale(0.015625)"/>
      <path id="NanumGothicBold-c900" d="M 858 2515 
Q 806 2502 764 2518 
Q 723 2534 710 2566 
L 589 2963 
Q 576 3002 605 3040 
Q 634 3078 666 3091 
Q 1075 3187 1481 3302 
Q 1888 3418 2262 3555 
Q 2637 3693 2960 3843 
Q 3283 3994 3533 4154 
Q 3571 4179 3603 4201 
Q 3635 4224 3644 4240 
Q 3654 4256 3628 4265 
Q 3603 4275 3533 4275 
L 1158 4275 
Q 1075 4275 1075 4358 
L 1075 4800 
Q 1075 4877 1158 4877 
L 4301 4877 
Q 4550 4877 4688 4797 
Q 4826 4717 4826 4582 
Q 4826 4397 4576 4128 
Q 4435 3981 4243 3840 
Q 4051 3699 3827 3571 
Q 4000 3520 4201 3465 
Q 4403 3411 4611 3360 
Q 4819 3309 5024 3267 
Q 5229 3226 5402 3194 
Q 5453 3181 5478 3142 
Q 5504 3104 5478 3053 
L 5325 2688 
Q 5312 2650 5267 2624 
Q 5222 2598 5178 2611 
Q 4928 2650 4653 2717 
Q 4378 2784 4099 2861 
Q 3821 2938 3552 3024 
Q 3283 3110 3053 3187 
Q 2771 3066 2476 2957 
Q 2182 2848 1897 2761 
Q 1613 2675 1347 2614 
Q 1082 2554 858 2515 
z
M 5882 1594 
Q 5882 1562 5850 1526 
Q 5818 1491 5786 1491 
L 3418 1491 
L 3418 371 
Q 3418 282 3328 282 
L 2771 282 
Q 2682 282 2682 371 
L 2682 1491 
L 211 1491 
Q 173 1491 147 1526 
Q 122 1562 122 1594 
L 122 2010 
Q 122 2048 147 2077 
Q 173 2106 211 2106 
L 5786 2106 
Q 5818 2106 5850 2074 
Q 5882 2042 5882 2010 
L 5882 1594 
z
M 5184 -781 
Q 5184 -819 5155 -838 
Q 5126 -858 5088 -858 
L 1466 -858 
Q 1178 -858 1078 -752 
Q 979 -646 979 -397 
L 979 896 
Q 979 928 1008 957 
Q 1037 986 1069 986 
L 1619 986 
Q 1658 986 1686 957 
Q 1715 928 1715 896 
L 1715 -141 
Q 1715 -205 1740 -224 
Q 1766 -243 1830 -243 
L 5088 -243 
Q 5120 -243 5152 -265 
Q 5184 -288 5184 -320 
L 5184 -781 
z
" transform="scale(0.015625)"/>
      <path id="NanumGothicBold-d68c" d="M 211 544 
Q 211 640 307 640 
Q 672 627 1072 633 
Q 1472 640 1875 653 
L 1875 1203 
Q 1651 1248 1462 1341 
Q 1274 1434 1136 1571 
Q 998 1709 921 1881 
Q 845 2054 845 2259 
Q 845 2496 957 2697 
Q 1069 2899 1261 3040 
Q 1453 3181 1709 3261 
Q 1965 3341 2253 3341 
Q 2547 3341 2806 3261 
Q 3066 3181 3258 3040 
Q 3450 2899 3558 2697 
Q 3667 2496 3667 2259 
Q 3667 2054 3584 1881 
Q 3501 1709 3357 1574 
Q 3213 1440 3017 1347 
Q 2822 1254 2592 1216 
L 2592 685 
Q 3014 710 3414 742 
Q 3814 774 4154 826 
Q 4186 832 4227 822 
Q 4269 813 4275 762 
L 4314 358 
Q 4320 307 4294 281 
Q 4269 256 4237 250 
Q 3878 192 3392 147 
Q 2906 102 2371 73 
Q 1837 45 1299 32 
Q 762 19 307 26 
Q 262 26 236 54 
Q 211 83 211 122 
L 211 544 
z
M 5280 -928 
Q 5280 -1011 5190 -1011 
L 4627 -1011 
Q 4595 -1011 4566 -988 
Q 4538 -966 4538 -928 
L 4538 4979 
Q 4538 5011 4566 5036 
Q 4595 5062 4627 5062 
L 5190 5062 
Q 5280 5062 5280 4979 
L 5280 -928 
z
M 4000 3661 
Q 4000 3622 3971 3593 
Q 3942 3565 3904 3565 
L 518 3565 
Q 486 3565 454 3597 
Q 422 3629 422 3667 
L 422 4026 
Q 422 4058 457 4090 
Q 493 4122 525 4122 
L 3904 4122 
Q 3942 4122 3971 4093 
Q 4000 4064 4000 4026 
L 4000 3661 
z
M 2253 2771 
Q 1946 2771 1741 2627 
Q 1536 2483 1536 2259 
Q 1536 2035 1737 1888 
Q 1939 1741 2253 1741 
Q 2573 1741 2774 1888 
Q 2976 2035 2976 2259 
Q 2976 2483 2774 2627 
Q 2573 2771 2253 2771 
z
M 3174 4493 
Q 3174 4448 3145 4416 
Q 3117 4384 3072 4384 
L 1376 4384 
Q 1350 4384 1312 4409 
Q 1274 4435 1274 4486 
L 1274 4858 
Q 1274 4902 1312 4928 
Q 1350 4954 1376 4954 
L 3072 4954 
Q 3110 4954 3142 4922 
Q 3174 4890 3174 4851 
L 3174 4493 
z
" transform="scale(0.015625)"/>
      <path id="NanumGothicBold-c804" d="M 755 1325 
Q 717 1306 656 1306 
Q 595 1306 557 1376 
L 365 1690 
Q 333 1741 349 1795 
Q 365 1850 422 1882 
Q 774 2054 1100 2291 
Q 1427 2528 1692 2797 
Q 1958 3066 2153 3347 
Q 2349 3629 2445 3891 
Q 2470 3955 2467 3996 
Q 2464 4038 2355 4038 
L 781 4038 
Q 736 4038 713 4067 
Q 691 4096 691 4134 
L 691 4563 
Q 691 4653 787 4653 
L 2816 4653 
Q 3098 4653 3232 4547 
Q 3366 4442 3334 4237 
Q 3322 4166 3302 4096 
Q 3283 4026 3264 3968 
Q 3194 3725 3059 3472 
Q 2925 3219 2746 2970 
Q 2861 2842 3008 2714 
Q 3155 2586 3312 2467 
Q 3469 2349 3622 2246 
Q 3776 2144 3904 2074 
Q 4032 2010 3955 1882 
L 3744 1555 
Q 3674 1453 3546 1517 
Q 3430 1574 3273 1680 
Q 3117 1786 2947 1917 
Q 2778 2048 2614 2195 
Q 2451 2342 2323 2477 
Q 1997 2131 1600 1836 
Q 1203 1542 755 1325 
z
M 3437 2918 
L 3437 3360 
Q 3437 3392 3465 3414 
Q 3494 3437 3526 3437 
L 4544 3437 
L 4544 4979 
Q 4544 5062 4627 5062 
L 5197 5062 
Q 5280 5062 5280 4979 
L 5280 826 
Q 5280 742 5197 742 
L 4627 742 
Q 4544 742 4544 826 
L 4544 2835 
L 3526 2835 
Q 3494 2835 3465 2860 
Q 3437 2886 3437 2918 
z
M 5466 -826 
Q 5466 -864 5437 -883 
Q 5408 -902 5376 -902 
L 2042 -902 
Q 1754 -902 1654 -800 
Q 1555 -698 1555 -448 
L 1555 947 
Q 1555 979 1584 1008 
Q 1613 1037 1645 1037 
L 2195 1037 
Q 2234 1037 2262 1008 
Q 2291 979 2291 947 
L 2291 -186 
Q 2291 -250 2316 -269 
Q 2342 -288 2413 -288 
L 5376 -288 
Q 5408 -288 5437 -313 
Q 5466 -339 5466 -371 
L 5466 -826 
z
" transform="scale(0.015625)"/>
     </defs>
     <use xlink:href="#NanumGothicBold-c6d0"/>
     <use xlink:href="#NanumGothicBold-c810" transform="translate(93.999985 0)"/>
     <use xlink:href="#NanumGothicBold-20" transform="translate(187.999969 0)"/>
     <use xlink:href="#NanumGothicBold-ae30" transform="translate(215.999954 0)"/>
     <use xlink:href="#NanumGothicBold-c900" transform="translate(309.999939 0)"/>
     <use xlink:href="#NanumGothicBold-20" transform="translate(403.999924 0)"/>
     <use xlink:href="#NanumGothicBold-d68c" transform="translate(431.999908 0)"/>
     <use xlink:href="#NanumGothicBold-c804" transform="translate(525.999893 0)"/>
    </g>
   </g>
   <g id="patch_3">
    <path d="M 72.239067 201.724531 
Q 150.317996 201.724531 228.396924 201.724531 
" clip-path="url(#pac9ef1c795)" style="fill: none; stroke: #6b7280; stroke-width: 2.2; stroke-linecap: round"/>
   </g>
   <g id="patch_4">
    <path d="M 71.386618 200.086991 
Q 116.170851 136.128477 160.955085 72.169963 
" clip-path="url(#pac9ef1c795)" style="fill: none; stroke: #2563eb; stroke-width: 2.6; stroke-linecap: round"/>
   </g>
   <g id="text_2">
    <!-- O -->
    <g style="fill: #111827" transform="translate(57.47599 219.15638) scale(0.11 -0.11)">
     <defs>
      <path id="NanumGothic-4f" d="M 4160 2093 
Q 4160 2496 4057 2854 
Q 3955 3213 3770 3501 
Q 3546 3814 3235 3984 
Q 2925 4154 2534 4154 
Q 2138 4154 1827 3984 
Q 1517 3814 1293 3501 
Q 1107 3213 1004 2854 
Q 902 2496 902 2093 
Q 902 1690 1004 1328 
Q 1107 966 1293 678 
Q 1523 371 1836 198 
Q 2150 26 2534 26 
Q 2925 26 3235 195 
Q 3546 365 3770 678 
Q 3955 966 4057 1328 
Q 4160 1690 4160 2093 
z
M 4627 2093 
Q 4614 954 4102 314 
Q 3546 -378 2534 -378 
Q 1523 -378 960 314 
Q 435 973 435 2093 
Q 435 2624 563 3053 
Q 691 3482 934 3814 
Q 1222 4166 1628 4361 
Q 2035 4557 2534 4557 
Q 3040 4557 3440 4365 
Q 3840 4173 4128 3808 
Q 4378 3462 4506 3036 
Q 4634 2611 4627 2093 
z
" transform="scale(0.015625)"/>
     </defs>
     <use xlink:href="#NanumGothic-4f"/>
    </g>
   </g>
   <g id="text_3">
    <!-- p -->
    <g style="fill: #111827" transform="translate(234.506667 204.783047) scale(0.11 -0.11)">
     <defs>
      <path id="NanumGothic-70" d="M 2989 1504 
Q 2989 1766 2937 2012 
Q 2886 2259 2764 2451 
Q 2643 2643 2451 2761 
Q 2259 2880 1971 2880 
Q 1709 2880 1517 2771 
Q 1325 2662 1200 2473 
Q 1075 2285 1011 2035 
Q 947 1786 947 1504 
Q 947 762 1225 381 
Q 1504 0 1971 0 
Q 2214 0 2403 105 
Q 2592 211 2723 409 
Q 2854 608 2921 883 
Q 2989 1158 2989 1504 
z
M 518 3098 
Q 518 3187 608 3187 
L 851 3187 
Q 941 3187 941 3098 
L 909 2618 
Q 1037 2899 1341 3072 
Q 1645 3245 2048 3245 
Q 2426 3245 2691 3110 
Q 2957 2976 3126 2742 
Q 3296 2509 3376 2189 
Q 3456 1869 3456 1504 
Q 3456 1107 3363 768 
Q 3270 429 3094 179 
Q 2918 -70 2656 -214 
Q 2394 -358 2048 -358 
Q 1658 -358 1376 -208 
Q 1094 -58 947 211 
L 947 -1165 
Q 947 -1254 858 -1254 
L 614 -1254 
Q 576 -1254 547 -1228 
Q 518 -1203 518 -1165 
L 518 3098 
z
" transform="scale(0.015625)"/>
     </defs>
     <use xlink:href="#NanumGothic-70"/>
    </g>
   </g>
   <g id="text_4">
    <!-- 회전 후 p' -->
    <g style="fill: #111827" transform="translate(166.210669 69.645989) scale(0.11 -0.11)">
     <defs>
      <path id="NanumGothic-d68c" d="M 4282 826 
Q 4384 845 4390 781 
L 4429 538 
Q 4442 467 4346 448 
Q 4115 410 3859 371 
Q 3603 333 3340 301 
Q 3078 269 2812 246 
Q 2547 224 2310 218 
Q 2125 211 1865 204 
Q 1606 198 1334 195 
Q 1062 192 806 189 
Q 550 186 371 192 
Q 333 192 304 217 
Q 275 243 275 275 
L 275 493 
Q 275 531 304 553 
Q 333 576 371 576 
Q 512 570 720 566 
Q 928 563 1158 566 
Q 1389 570 1625 573 
Q 1862 576 2067 582 
L 2067 1261 
Q 1805 1286 1590 1372 
Q 1376 1459 1222 1596 
Q 1069 1734 982 1916 
Q 896 2099 896 2310 
Q 896 2547 1001 2742 
Q 1107 2938 1292 3075 
Q 1478 3213 1731 3286 
Q 1984 3360 2285 3360 
Q 2579 3360 2835 3283 
Q 3091 3206 3276 3068 
Q 3462 2931 3568 2739 
Q 3674 2547 3674 2310 
Q 3674 2093 3587 1913 
Q 3501 1734 3347 1600 
Q 3194 1466 2979 1379 
Q 2765 1293 2509 1267 
L 2509 602 
Q 2707 614 2944 640 
Q 3181 666 3417 694 
Q 3654 723 3878 758 
Q 4102 794 4282 826 
z
M 5152 -806 
Q 5152 -896 5062 -896 
L 4800 -896 
Q 4710 -896 4710 -806 
L 4710 4915 
Q 4710 5005 4800 5005 
L 5062 5005 
Q 5152 5005 5152 4915 
L 5152 -806 
z
M 3238 2310 
Q 3238 2637 2969 2809 
Q 2701 2982 2285 2982 
Q 2080 2982 1904 2937 
Q 1728 2893 1600 2809 
Q 1472 2726 1398 2598 
Q 1325 2470 1325 2310 
Q 1325 2150 1398 2025 
Q 1472 1901 1600 1814 
Q 1728 1728 1904 1680 
Q 2080 1632 2285 1632 
Q 2701 1632 2969 1811 
Q 3238 1990 3238 2310 
z
M 4083 3776 
Q 4083 3693 3987 3693 
L 582 3693 
Q 550 3693 521 3718 
Q 493 3744 493 3782 
L 493 3994 
Q 493 4032 521 4057 
Q 550 4083 582 4083 
L 3987 4083 
Q 4083 4083 4083 4000 
L 4083 3776 
z
M 3181 4582 
Q 3181 4493 3085 4493 
L 1395 4493 
Q 1363 4493 1334 4515 
Q 1306 4538 1306 4576 
L 1306 4794 
Q 1306 4832 1331 4857 
Q 1357 4883 1389 4883 
L 3085 4883 
Q 3181 4883 3181 4794 
L 3181 4582 
z
" transform="scale(0.015625)"/>
      <path id="NanumGothic-c804" d="M 3309 4038 
Q 3219 3770 3052 3494 
Q 2886 3219 2662 2950 
Q 2918 2650 3254 2384 
Q 3590 2118 3917 1946 
Q 4000 1907 3955 1824 
L 3808 1606 
Q 3789 1574 3750 1571 
Q 3712 1568 3680 1587 
Q 3354 1766 3018 2048 
Q 2682 2330 2394 2643 
Q 2029 2259 1593 1939 
Q 1158 1619 717 1414 
Q 685 1402 653 1392 
Q 621 1382 602 1414 
L 474 1638 
Q 454 1670 467 1705 
Q 480 1741 512 1754 
Q 1267 2138 1865 2707 
Q 2464 3277 2822 4013 
Q 2867 4102 2835 4140 
Q 2803 4179 2714 4179 
L 838 4179 
Q 762 4179 762 4262 
L 762 4486 
Q 762 4563 838 4563 
L 2886 4563 
Q 3219 4563 3315 4444 
Q 3411 4326 3309 4038 
z
M 4710 3296 
L 4710 4915 
Q 4710 5005 4800 5005 
L 5062 5005 
Q 5152 5005 5152 4915 
L 5152 781 
Q 5152 691 5062 691 
L 4800 691 
Q 4710 691 4710 781 
L 4710 2925 
L 3501 2925 
Q 3418 2925 3418 3002 
L 3418 3219 
Q 3418 3296 3501 3296 
L 4710 3296 
z
M 5350 -704 
Q 5350 -742 5318 -761 
Q 5286 -781 5254 -781 
L 2016 -781 
Q 1715 -781 1622 -669 
Q 1530 -557 1530 -294 
L 1530 922 
Q 1530 1011 1619 1011 
L 1882 1011 
Q 1971 1011 1971 922 
L 1971 -262 
Q 1971 -352 2000 -374 
Q 2029 -397 2118 -397 
L 5254 -397 
Q 5286 -397 5318 -419 
Q 5350 -442 5350 -474 
L 5350 -704 
z
" transform="scale(0.015625)"/>
      <path id="NanumGothic-20" transform="scale(0.015625)"/>
      <path id="NanumGothic-d6c4" d="M 4685 2630 
Q 4685 2419 4560 2249 
Q 4435 2080 4211 1958 
Q 3987 1837 3673 1769 
Q 3360 1702 2989 1702 
Q 2611 1702 2300 1769 
Q 1990 1837 1766 1958 
Q 1542 2080 1417 2249 
Q 1293 2419 1293 2630 
Q 1293 2842 1417 3011 
Q 1542 3181 1766 3302 
Q 1990 3424 2300 3488 
Q 2611 3552 2989 3552 
Q 3360 3552 3673 3485 
Q 3987 3418 4211 3296 
Q 4435 3174 4560 3004 
Q 4685 2835 4685 2630 
z
M 2854 -858 
Q 2822 -858 2796 -829 
Q 2771 -800 2771 -762 
L 2771 960 
L 288 960 
Q 250 960 221 985 
Q 192 1011 192 1043 
L 192 1261 
Q 192 1299 221 1321 
Q 250 1344 288 1344 
L 5728 1344 
Q 5760 1344 5792 1321 
Q 5824 1299 5824 1261 
L 5824 1043 
Q 5824 1011 5792 985 
Q 5760 960 5728 960 
L 3213 960 
L 3213 -762 
Q 3213 -800 3190 -829 
Q 3168 -858 3130 -858 
L 2854 -858 
z
M 4186 2630 
Q 4186 2765 4099 2867 
Q 4013 2970 3853 3037 
Q 3693 3104 3475 3139 
Q 3258 3174 2989 3174 
Q 2720 3174 2499 3139 
Q 2278 3104 2121 3037 
Q 1965 2970 1875 2867 
Q 1786 2765 1786 2630 
Q 1786 2496 1875 2393 
Q 1965 2291 2121 2220 
Q 2278 2150 2499 2115 
Q 2720 2080 2989 2080 
Q 3258 2080 3475 2115 
Q 3693 2150 3853 2220 
Q 4013 2291 4099 2393 
Q 4186 2496 4186 2630 
z
M 5306 3904 
Q 5306 3821 5210 3821 
L 781 3821 
Q 749 3821 720 3846 
Q 691 3872 691 3910 
L 691 4115 
Q 691 4154 720 4179 
Q 749 4205 781 4205 
L 5210 4205 
Q 5306 4205 5306 4122 
L 5306 3904 
z
M 3795 4998 
Q 3891 4998 3891 4909 
L 3891 4704 
Q 3891 4608 3795 4608 
L 2150 4608 
Q 2054 4608 2054 4704 
L 2054 4909 
Q 2054 4998 2150 4998 
L 3795 4998 
z
" transform="scale(0.015625)"/>
      <path id="NanumGothic-27" d="M 1229 3117 
Q 1229 3046 1219 3036 
Q 1210 3027 1139 3027 
L 890 3027 
Q 819 3027 809 3036 
Q 800 3046 800 3117 
L 800 4416 
Q 800 4486 809 4496 
Q 819 4506 890 4506 
L 1139 4506 
Q 1210 4506 1219 4496 
Q 1229 4486 1229 4416 
L 1229 3117 
z
" transform="scale(0.015625)"/>
     </defs>
     <use xlink:href="#NanumGothic-d68c"/>
     <use xlink:href="#NanumGothic-c804" transform="translate(93.999985 0)"/>
     <use xlink:href="#NanumGothic-20" transform="translate(187.999969 0)"/>
     <use xlink:href="#NanumGothic-d6c4" transform="translate(215.999954 0)"/>
     <use xlink:href="#NanumGothic-20" transform="translate(309.999939 0)"/>
     <use xlink:href="#NanumGothic-70" transform="translate(337.999924 0)"/>
     <use xlink:href="#NanumGothic-27" transform="translate(398.599915 0)"/>
    </g>
   </g>
  </g>
 </g>
 <defs>
  <clipPath id="pac9ef1c795">
   <rect x="8.64" y="29.244531" width="328.533333" height="221.76"/>
  </clipPath>
 </defs>
</svg>
