<?xml version="1.0" encoding="utf-8" standalone="no"?>
<!DOCTYPE svg PUBLIC "-//W3C//DTD SVG 1.1//EN"
  "http://www.w3.org/Graphics/SVG/1.1/DTD/svg11.dtd">
<svg xmlns:xlink="http://www.w3.org/1999/xlink" width="392.84129pt" height="270.205951pt" viewBox="0 0 392.84129 270.205951" xmlns="http://www.w3.org/2000/svg" version="1.1">
 <metadata>
  <rdf:RDF xmlns:dc="http://purl.org/dc/elements/1.1/" xmlns:cc="http://creativecommons.org/ns#" xmlns:rdf="http://www.w3.org/1999/02/22-rdf-syntax-ns#">
   <cc:Work>
    <dc:type rdf:resource="http://purl.org/dc/dcmitype/StillImage"/>
    <dc:date>2026-07-08T05:12:54.703667</dc:date>
    <dc:format>image/svg+xml</dc:format>
    <dc:creator>
     <cc:Agent>
      <dc:title>Matplotlib v3.10.8, https://matplotlib.org/</dc:title>
     </cc:Agent>
    </dc:creator>
   </cc:Work>
  </rdf:RDF>
 </metadata>
 <defs>
  <style type="text/css">*{stroke-linejoin: round; stroke-linecap: butt}</style>
 </defs>
 <g id="figure_1">
  <g id="patch_1">
   <path d="M 0 270.205951 
L 392.84129 270.205951 
L 392.84129 0 
L 0 0 
z
" style="fill: #ffffff"/>
  </g>
  <g id="axes_1">
   <g id="line2d_1">
    <path d="M 256.510452 77.540918 
L 256.510452 216.498596 
" clip-path="url(#p863c8f0550)" style="fill: none; stroke-dasharray: 6.29,2.72; stroke-dashoffset: 0; stroke: #6b7280; stroke-width: 1.7"/>
   </g>
   <g id="line2d_2">
    <defs>
     <path id="m8e30002180" d="M 0 2.5 
C 0.663008 2.5 1.29895 2.236584 1.767767 1.767767 
C 2.236584 1.29895 2.5 0.663008 2.5 0 
C 2.5 -0.663008 2.236584 -1.29895 1.767767 -1.767767 
C 1.29895 -2.236584 0.663008 -2.5 0 -2.5 
C -0.663008 -2.5 -1.29895 -2.236584 -1.767767 -1.767767 
C -2.236584 -1.29895 -2.5 -0.663008 -2.5 0 
C -2.5 0.663008 -2.236584 1.29895 -1.767767 1.767767 
C -1.29895 2.236584 -0.663008 2.5 0 2.5 
z
" style="stroke: #111827"/>
    </defs>
    <g clip-path="url(#p863c8f0550)">
     <use xlink:href="#m8e30002180" x="46.196129" y="216.498596" style="fill: #111827; stroke: #111827"/>
    </g>
   </g>
   <g id="line2d_3">
    <g clip-path="url(#p863c8f0550)">
     <use xlink:href="#m8e30002180" x="256.510452" y="216.498596" style="fill: #111827; stroke: #111827"/>
    </g>
   </g>
   <g id="text_1">
    <!-- 투영: v를 n 방향 성분만 남기기 -->
    <g style="fill: #111827" transform="translate(8.64 20.054062) scale(0.15 -0.15)">
     <defs>
      <path id="NanumGothicBold-d22c" d="M 5088 2234 
Q 5088 2182 5065 2156 
Q 5043 2131 5011 2131 
L 1402 2131 
Q 1146 2131 1043 2249 
Q 941 2368 941 2592 
L 941 4525 
Q 941 4768 1049 4854 
Q 1158 4941 1402 4941 
L 4954 4941 
Q 5043 4941 5043 4858 
L 5043 4442 
Q 5043 4352 4954 4352 
L 1792 4352 
Q 1677 4352 1677 4243 
L 1677 3827 
L 4870 3827 
Q 4902 3827 4931 3801 
Q 4960 3776 4960 3738 
L 4960 3347 
Q 4960 3309 4931 3286 
Q 4902 3264 4870 3264 
L 1677 3264 
L 1677 2861 
Q 1677 2720 1792 2720 
L 4986 2720 
Q 5037 2720 5062 2707 
Q 5088 2694 5088 2643 
L 5088 2234 
z
M 5882 1069 
Q 5882 1037 5850 1005 
Q 5818 973 5786 973 
L 3379 973 
L 3379 -877 
Q 3379 -966 3290 -966 
L 2733 -966 
Q 2643 -966 2643 -877 
L 2643 973 
L 211 973 
Q 173 973 147 1005 
Q 122 1037 122 1069 
L 122 1485 
Q 122 1587 211 1587 
L 5786 1587 
Q 5818 1587 5850 1555 
Q 5882 1523 5882 1485 
L 5882 1069 
z
" transform="scale(0.015625)"/>
      <path id="NanumGothicBold-c601" d="M 5280 1581 
Q 5280 1491 5197 1491 
L 4627 1491 
Q 4544 1491 4544 1581 
L 4544 2342 
L 3194 2342 
Q 2989 2131 2694 2016 
Q 2400 1901 2035 1901 
Q 1696 1901 1411 2009 
Q 1126 2118 924 2313 
Q 723 2509 611 2777 
Q 499 3046 499 3366 
Q 499 3674 611 3946 
Q 723 4218 924 4416 
Q 1126 4614 1411 4729 
Q 1696 4845 2035 4845 
Q 2451 4845 2777 4681 
Q 3104 4518 3309 4250 
L 4544 4250 
L 4544 4979 
Q 4544 5062 4627 5062 
L 5197 5062 
Q 5280 5062 5280 4979 
L 5280 1581 
z
M 5325 198 
Q 5325 -70 5181 -294 
Q 5037 -518 4781 -678 
Q 4525 -838 4173 -924 
Q 3821 -1011 3411 -1011 
Q 2970 -1011 2618 -924 
Q 2266 -838 2019 -681 
Q 1773 -525 1641 -301 
Q 1510 -77 1510 198 
Q 1510 467 1641 688 
Q 1773 909 2019 1069 
Q 2266 1229 2618 1315 
Q 2970 1402 3411 1402 
Q 3821 1402 4173 1315 
Q 4525 1229 4781 1072 
Q 5037 915 5181 694 
Q 5325 474 5325 198 
z
M 4570 179 
Q 4570 339 4477 457 
Q 4384 576 4224 656 
Q 4064 736 3853 777 
Q 3642 819 3411 819 
Q 2893 819 2579 659 
Q 2266 499 2266 179 
Q 2266 26 2349 -86 
Q 2432 -198 2585 -275 
Q 2739 -352 2950 -390 
Q 3162 -429 3411 -429 
Q 3642 -429 3853 -390 
Q 4064 -352 4224 -275 
Q 4384 -198 4477 -86 
Q 4570 26 4570 179 
z
M 2880 3354 
Q 2880 3738 2649 3965 
Q 2419 4192 2035 4192 
Q 1664 4192 1433 3965 
Q 1203 3738 1203 3354 
Q 1203 2963 1433 2736 
Q 1664 2509 2035 2509 
Q 2419 2509 2649 2736 
Q 2880 2963 2880 3354 
z
M 3603 3366 
Q 3603 3251 3587 3142 
Q 3571 3034 3539 2931 
L 4544 2931 
L 4544 3661 
L 3571 3661 
Q 3603 3501 3603 3366 
z
" transform="scale(0.015625)"/>
      <path id="NanumGothicBold-3a" d="M 1011 3053 
Q 806 3053 662 3197 
Q 518 3341 518 3533 
Q 518 3731 662 3875 
Q 806 4019 1011 4019 
Q 1216 4019 1357 3875 
Q 1498 3731 1498 3533 
Q 1498 3341 1357 3197 
Q 1216 3053 1011 3053 
z
M 1011 141 
Q 806 141 662 285 
Q 518 429 518 627 
Q 518 819 662 963 
Q 806 1107 1011 1107 
Q 1216 1107 1357 963 
Q 1498 819 1498 627 
Q 1498 429 1357 285 
Q 1216 141 1011 141 
z
" transform="scale(0.015625)"/>
      <path id="NanumGothicBold-20" transform="scale(0.015625)"/>
      <path id="NanumGothicBold-76" d="M 1920 -250 
Q 1907 -288 1894 -297 
Q 1882 -307 1843 -307 
L 1293 -307 
Q 1254 -307 1238 -297 
Q 1222 -288 1210 -250 
L 45 3149 
Q 32 3181 45 3200 
Q 58 3219 128 3219 
L 685 3219 
Q 717 3219 736 3209 
Q 755 3200 768 3168 
L 1568 755 
L 2362 3168 
Q 2374 3200 2396 3209 
Q 2419 3219 2451 3219 
L 3014 3219 
Q 3085 3219 3097 3200 
Q 3110 3181 3098 3149 
L 1920 -250 
z
" transform="scale(0.015625)"/>
      <path id="NanumGothicBold-b97c" d="M 5088 -870 
Q 5088 -902 5059 -931 
Q 5030 -960 5005 -960 
L 1478 -960 
Q 1229 -960 1139 -870 
Q 1050 -781 1050 -576 
L 1050 109 
Q 1050 314 1136 403 
Q 1222 493 1472 493 
L 4160 493 
Q 4211 493 4224 502 
Q 4237 512 4237 570 
L 4237 749 
Q 4237 819 4224 832 
Q 4211 845 4154 845 
L 1126 845 
Q 1094 845 1065 867 
Q 1037 890 1037 922 
L 1037 1331 
Q 1037 1363 1065 1388 
Q 1094 1414 1126 1414 
L 4518 1414 
Q 4781 1414 4867 1334 
Q 4954 1254 4954 1037 
L 4954 346 
Q 4954 122 4867 45 
Q 4781 -32 4518 -32 
L 1850 -32 
Q 1798 -32 1785 -48 
Q 1773 -64 1773 -122 
L 1773 -314 
Q 1773 -378 1785 -387 
Q 1798 -397 1862 -397 
L 4998 -397 
Q 5030 -397 5059 -419 
Q 5088 -442 5088 -480 
L 5088 -870 
z
M 5050 2829 
Q 5050 2797 5021 2768 
Q 4992 2739 4966 2739 
L 1498 2739 
Q 1248 2739 1158 2828 
Q 1069 2918 1069 3123 
L 1069 3782 
Q 1069 3987 1155 4076 
Q 1242 4166 1491 4166 
L 4154 4166 
Q 4205 4166 4217 4182 
Q 4230 4198 4230 4262 
L 4230 4454 
Q 4230 4512 4217 4521 
Q 4205 4531 4147 4531 
L 1184 4531 
Q 1152 4531 1123 4553 
Q 1094 4576 1094 4608 
L 1094 5011 
Q 1094 5043 1123 5068 
Q 1152 5094 1184 5094 
L 4512 5094 
Q 4774 5094 4860 5014 
Q 4947 4934 4947 4717 
L 4947 4019 
Q 4947 3795 4860 3718 
Q 4774 3642 4512 3642 
L 1875 3642 
Q 1818 3642 1805 3626 
Q 1792 3610 1792 3558 
L 1792 3386 
Q 1792 3328 1805 3318 
Q 1818 3309 1882 3309 
L 4960 3309 
Q 4992 3309 5021 3286 
Q 5050 3264 5050 3226 
L 5050 2829 
z
M 5875 1882 
Q 5875 1850 5843 1818 
Q 5811 1786 5779 1786 
L 211 1786 
Q 173 1786 147 1814 
Q 122 1843 122 1882 
L 122 2272 
Q 122 2362 211 2362 
L 5779 2362 
Q 5811 2362 5843 2333 
Q 5875 2304 5875 2272 
L 5875 1882 
z
" transform="scale(0.015625)"/>
      <path id="NanumGothicBold-6e" d="M 2752 -314 
Q 2720 -314 2697 -285 
Q 2675 -256 2675 -224 
L 2675 1811 
Q 2675 2272 2531 2477 
Q 2387 2682 2080 2682 
Q 1658 2682 1456 2448 
Q 1254 2214 1254 1773 
L 1254 -230 
Q 1254 -314 1178 -314 
L 646 -314 
Q 614 -314 592 -285 
Q 570 -256 570 -224 
L 570 2323 
Q 570 2566 566 2790 
Q 563 3014 550 3142 
Q 538 3226 640 3226 
L 1146 3226 
Q 1216 3226 1203 3174 
L 1197 2944 
Q 1357 3098 1581 3206 
Q 1805 3315 2099 3315 
Q 2714 3315 3037 2953 
Q 3360 2592 3360 1907 
L 3360 -230 
Q 3360 -314 3283 -314 
L 2752 -314 
z
" transform="scale(0.015625)"/>
      <path id="NanumGothicBold-bc29" d="M 4307 186 
Q 4307 346 4214 464 
Q 4122 582 3965 665 
Q 3808 749 3600 790 
Q 3392 832 3155 832 
Q 2643 832 2329 669 
Q 2016 506 2016 186 
Q 2016 -115 2336 -272 
Q 2656 -429 3155 -429 
Q 3392 -429 3600 -390 
Q 3808 -352 3965 -275 
Q 4122 -198 4214 -83 
Q 4307 32 4307 186 
z
M 5062 205 
Q 5062 -64 4918 -288 
Q 4774 -512 4521 -672 
Q 4269 -832 3917 -921 
Q 3565 -1011 3155 -1011 
Q 2714 -1011 2365 -924 
Q 2016 -838 1769 -678 
Q 1523 -518 1392 -294 
Q 1261 -70 1261 205 
Q 1261 474 1392 698 
Q 1523 922 1769 1078 
Q 2016 1235 2365 1324 
Q 2714 1414 3155 1414 
Q 3565 1414 3917 1328 
Q 4269 1242 4521 1082 
Q 4774 922 4918 701 
Q 5062 480 5062 205 
z
M 5965 2963 
Q 5965 2931 5936 2905 
Q 5907 2880 5875 2880 
L 5005 2880 
L 5005 1594 
Q 5005 1562 4979 1533 
Q 4954 1504 4922 1504 
L 4352 1504 
Q 4320 1504 4294 1533 
Q 4269 1562 4269 1600 
L 4269 4979 
Q 4269 5062 4352 5062 
L 4922 5062 
Q 5005 5062 5005 4979 
L 5005 3488 
L 5875 3488 
Q 5907 3488 5936 3465 
Q 5965 3443 5965 3411 
L 5965 2963 
z
M 2688 3309 
L 1331 3309 
L 1331 2662 
Q 1331 2554 1446 2554 
L 2573 2554 
Q 2688 2554 2688 2662 
L 2688 3309 
z
M 3418 2381 
Q 3418 2163 3315 2057 
Q 3213 1952 2938 1952 
L 1088 1952 
Q 806 1952 704 2048 
Q 602 2144 602 2400 
L 602 4774 
Q 602 4858 685 4858 
L 1242 4858 
Q 1274 4858 1302 4832 
Q 1331 4806 1331 4774 
L 1331 3904 
L 2688 3904 
L 2688 4781 
Q 2688 4819 2713 4844 
Q 2739 4870 2771 4870 
L 3334 4870 
Q 3366 4870 3392 4844 
Q 3418 4819 3418 4781 
L 3418 2381 
z
" transform="scale(0.015625)"/>
      <path id="NanumGothicBold-d5a5" d="M 5069 77 
Q 5069 -160 4925 -358 
Q 4781 -557 4528 -697 
Q 4275 -838 3923 -915 
Q 3571 -992 3155 -992 
Q 2720 -992 2368 -915 
Q 2016 -838 1769 -697 
Q 1523 -557 1392 -358 
Q 1261 -160 1261 77 
Q 1261 314 1392 506 
Q 1523 698 1769 838 
Q 2016 979 2368 1056 
Q 2720 1133 3155 1133 
Q 3571 1133 3923 1056 
Q 4275 979 4528 838 
Q 4781 698 4925 506 
Q 5069 314 5069 77 
z
M 2118 3456 
Q 2413 3456 2665 3379 
Q 2918 3302 3104 3164 
Q 3290 3027 3395 2828 
Q 3501 2630 3501 2394 
Q 3501 2150 3395 1952 
Q 3290 1754 3101 1616 
Q 2912 1478 2659 1401 
Q 2406 1325 2112 1325 
Q 1824 1325 1574 1401 
Q 1325 1478 1139 1616 
Q 954 1754 848 1952 
Q 742 2150 742 2394 
Q 742 2630 848 2828 
Q 954 3027 1139 3164 
Q 1325 3302 1577 3379 
Q 1830 3456 2118 3456 
z
M 5875 2650 
Q 5914 2650 5942 2627 
Q 5971 2605 5971 2573 
L 5971 2118 
Q 5971 2086 5942 2060 
Q 5914 2035 5875 2035 
L 5011 2035 
L 5011 1318 
Q 5011 1235 4928 1235 
L 4358 1235 
Q 4275 1235 4275 1325 
L 4275 4979 
Q 4275 5062 4358 5062 
L 4928 5062 
Q 5011 5062 5011 4979 
L 5011 3821 
L 5875 3821 
Q 5914 3821 5942 3798 
Q 5971 3776 5971 3744 
L 5971 3296 
Q 5971 3264 5942 3238 
Q 5914 3213 5875 3213 
L 5011 3213 
L 5011 2650 
L 5875 2650 
z
M 3878 3738 
Q 3878 3699 3849 3670 
Q 3821 3642 3782 3642 
L 352 3642 
Q 314 3642 282 3674 
Q 250 3706 250 3744 
L 250 4102 
Q 250 4134 285 4169 
Q 320 4205 358 4205 
L 3782 4205 
Q 3821 4205 3849 4173 
Q 3878 4141 3878 4102 
L 3878 3738 
z
M 4314 58 
Q 4314 186 4221 285 
Q 4128 384 3968 451 
Q 3808 518 3600 550 
Q 3392 582 3155 582 
Q 2643 582 2332 451 
Q 2022 320 2022 58 
Q 2022 -192 2339 -313 
Q 2656 -435 3155 -435 
Q 3392 -435 3600 -406 
Q 3808 -378 3968 -314 
Q 4128 -250 4221 -160 
Q 4314 -70 4314 58 
z
M 2118 2899 
Q 1830 2899 1632 2761 
Q 1434 2624 1434 2394 
Q 1434 2157 1632 2019 
Q 1830 1882 2118 1882 
Q 2413 1882 2608 2019 
Q 2803 2157 2803 2394 
Q 2803 2624 2608 2761 
Q 2413 2899 2118 2899 
z
M 3046 4544 
Q 3046 4506 3017 4470 
Q 2989 4435 2938 4435 
L 1229 4435 
Q 1203 4435 1168 4460 
Q 1133 4486 1133 4538 
L 1133 4902 
Q 1133 4947 1168 4972 
Q 1203 4998 1229 4998 
L 2938 4998 
Q 2982 4998 3014 4966 
Q 3046 4934 3046 4896 
L 3046 4544 
z
" transform="scale(0.015625)"/>
      <path id="NanumGothicBold-c131" d="M 5331 198 
Q 5331 -70 5187 -294 
Q 5043 -518 4784 -678 
Q 4525 -838 4173 -924 
Q 3821 -1011 3411 -1011 
Q 2970 -1011 2618 -924 
Q 2266 -838 2019 -681 
Q 1773 -525 1641 -301 
Q 1510 -77 1510 198 
Q 1510 467 1641 688 
Q 1773 909 2019 1069 
Q 2266 1229 2618 1315 
Q 2970 1402 3411 1402 
Q 3821 1402 4173 1315 
Q 4525 1229 4784 1072 
Q 5043 915 5187 694 
Q 5331 474 5331 198 
z
M 832 1555 
Q 755 1498 707 1510 
Q 659 1523 621 1574 
L 365 1875 
Q 294 1946 310 1990 
Q 326 2035 390 2074 
Q 749 2317 1014 2585 
Q 1280 2854 1459 3180 
Q 1638 3507 1724 3910 
Q 1811 4314 1811 4826 
Q 1811 4870 1843 4902 
Q 1875 4934 1907 4934 
L 2470 4909 
Q 2554 4909 2554 4813 
Q 2554 4506 2525 4243 
Q 2496 3981 2445 3738 
Q 2547 3494 2710 3280 
Q 2874 3066 3059 2890 
Q 3245 2714 3440 2576 
Q 3635 2438 3808 2362 
Q 3917 2317 3846 2208 
L 3629 1850 
Q 3558 1754 3450 1798 
Q 3059 1978 2723 2272 
Q 2387 2566 2150 2938 
Q 1933 2528 1603 2195 
Q 1274 1862 832 1555 
z
M 3328 3270 
L 3328 3725 
Q 3328 3757 3357 3779 
Q 3386 3802 3418 3802 
L 4544 3802 
L 4544 4979 
Q 4544 5062 4634 5062 
L 5197 5062 
Q 5229 5062 5257 5036 
Q 5286 5011 5286 4979 
L 5286 1581 
Q 5286 1542 5257 1516 
Q 5229 1491 5197 1491 
L 4634 1491 
Q 4544 1491 4544 1581 
L 4544 3194 
L 3418 3194 
Q 3386 3194 3357 3216 
Q 3328 3238 3328 3270 
z
M 4570 179 
Q 4570 339 4477 457 
Q 4384 576 4224 656 
Q 4064 736 3856 777 
Q 3648 819 3411 819 
Q 2899 819 2582 659 
Q 2266 499 2266 179 
Q 2266 26 2352 -86 
Q 2438 -198 2588 -275 
Q 2739 -352 2950 -390 
Q 3162 -429 3411 -429 
Q 3648 -429 3856 -390 
Q 4064 -352 4224 -275 
Q 4384 -198 4477 -86 
Q 4570 26 4570 179 
z
" transform="scale(0.015625)"/>
      <path id="NanumGothicBold-bd84" d="M 5882 1523 
Q 5882 1491 5850 1459 
Q 5818 1427 5786 1427 
L 3418 1427 
L 3418 352 
Q 3418 262 3328 262 
L 2771 262 
Q 2682 262 2682 352 
L 2682 1427 
L 211 1427 
Q 173 1427 147 1459 
Q 122 1491 122 1523 
L 122 1946 
Q 122 1984 147 2013 
Q 173 2042 211 2042 
L 5786 2042 
Q 5818 2042 5850 2010 
Q 5882 1978 5882 1946 
L 5882 1523 
z
M 5158 -787 
Q 5158 -826 5126 -845 
Q 5094 -864 5062 -864 
L 1491 -864 
Q 1203 -864 1104 -761 
Q 1005 -659 1005 -403 
L 1005 877 
Q 1005 909 1033 941 
Q 1062 973 1094 973 
L 1645 973 
Q 1683 973 1712 944 
Q 1741 915 1741 877 
L 1741 -147 
Q 1741 -211 1766 -230 
Q 1792 -250 1856 -250 
L 5062 -250 
Q 5094 -250 5126 -272 
Q 5158 -294 5158 -326 
L 5158 -787 
z
M 4198 3712 
L 1792 3712 
L 1792 3277 
Q 1792 3162 1914 3162 
L 4077 3162 
Q 4198 3162 4198 3277 
L 4198 3712 
z
M 4934 3008 
Q 4934 2790 4832 2684 
Q 4730 2579 4448 2579 
L 1549 2579 
Q 1261 2579 1158 2675 
Q 1056 2771 1056 3027 
L 1056 4845 
Q 1056 4877 1081 4899 
Q 1107 4922 1139 4922 
L 1702 4922 
Q 1734 4922 1763 4899 
Q 1792 4877 1792 4845 
L 1792 4294 
L 4198 4294 
L 4198 4851 
Q 4198 4883 4224 4908 
Q 4250 4934 4282 4934 
L 4851 4934 
Q 4883 4934 4908 4908 
Q 4934 4883 4934 4851 
L 4934 3008 
z
" transform="scale(0.015625)"/>
      <path id="NanumGothicBold-b9cc" d="M 3424 2195 
Q 3424 1952 3325 1856 
Q 3226 1760 2982 1760 
L 1062 1760 
Q 838 1760 729 1856 
Q 621 1952 621 2195 
L 621 4307 
Q 621 4550 720 4643 
Q 819 4736 1062 4736 
L 2982 4736 
Q 3226 4736 3325 4640 
Q 3424 4544 3424 4301 
L 3424 2195 
z
M 2694 4051 
Q 2694 4102 2678 4118 
Q 2662 4134 2611 4134 
L 1434 4134 
Q 1382 4134 1366 4121 
Q 1350 4109 1350 4058 
L 1350 2445 
Q 1350 2387 1366 2374 
Q 1382 2362 1434 2362 
L 2611 2362 
Q 2662 2362 2678 2374 
Q 2694 2387 2694 2445 
L 2694 4051 
z
M 5254 -826 
Q 5254 -864 5225 -883 
Q 5197 -902 5165 -902 
L 1779 -902 
Q 1491 -902 1392 -800 
Q 1293 -698 1293 -448 
L 1293 960 
Q 1293 992 1321 1021 
Q 1350 1050 1382 1050 
L 1933 1050 
Q 1971 1050 2000 1021 
Q 2029 992 2029 960 
L 2029 -186 
Q 2029 -250 2054 -269 
Q 2080 -288 2144 -288 
L 5165 -288 
Q 5197 -288 5225 -313 
Q 5254 -339 5254 -371 
L 5254 -826 
z
M 5965 2605 
Q 5965 2573 5936 2547 
Q 5907 2522 5875 2522 
L 5005 2522 
L 5005 832 
Q 5005 749 4922 749 
L 4352 749 
Q 4269 749 4269 832 
L 4269 4979 
Q 4269 5062 4352 5062 
L 4922 5062 
Q 5005 5062 5005 4979 
L 5005 3136 
L 5875 3136 
Q 5907 3136 5936 3113 
Q 5965 3091 5965 3059 
L 5965 2605 
z
" transform="scale(0.015625)"/>
      <path id="NanumGothicBold-b0a8" d="M 5965 3008 
Q 5965 2976 5936 2950 
Q 5907 2925 5875 2925 
L 5005 2925 
L 5005 1747 
Q 5005 1664 4922 1664 
L 4352 1664 
Q 4269 1664 4269 1754 
L 4269 4979 
Q 4269 5062 4352 5062 
L 4922 5062 
Q 5005 5062 5005 4979 
L 5005 3533 
L 5875 3533 
Q 5907 3533 5936 3510 
Q 5965 3488 5965 3456 
L 5965 3008 
z
M 4282 672 
Q 4282 723 4266 739 
Q 4250 755 4198 755 
L 2061 755 
Q 2010 755 1994 742 
Q 1978 730 1978 678 
L 1978 -243 
Q 1978 -301 1994 -313 
Q 2010 -326 2061 -326 
L 4198 -326 
Q 4250 -326 4266 -313 
Q 4282 -301 4282 -243 
L 4282 672 
z
M 5011 -467 
Q 5011 -710 4905 -812 
Q 4800 -915 4557 -915 
L 1734 -915 
Q 1446 -915 1347 -812 
Q 1248 -710 1248 -461 
L 1248 883 
Q 1248 1126 1353 1235 
Q 1459 1344 1702 1344 
L 4525 1344 
Q 4813 1344 4912 1238 
Q 5011 1133 5011 877 
L 5011 -467 
z
M 3968 2374 
Q 3974 2336 3952 2313 
Q 3930 2291 3898 2285 
Q 3610 2208 3245 2157 
Q 2880 2106 2505 2074 
Q 2131 2042 1772 2032 
Q 1414 2022 1133 2035 
Q 858 2048 765 2160 
Q 672 2272 672 2496 
L 672 4755 
Q 672 4787 701 4816 
Q 730 4845 762 4845 
L 1312 4845 
Q 1350 4845 1379 4816 
Q 1408 4787 1408 4755 
L 1408 2758 
Q 1408 2694 1433 2678 
Q 1459 2662 1530 2656 
Q 1734 2643 2003 2649 
Q 2272 2656 2569 2678 
Q 2867 2701 3177 2742 
Q 3488 2784 3789 2848 
Q 3821 2854 3859 2838 
Q 3898 2822 3904 2790 
L 3968 2374 
z
" transform="scale(0.015625)"/>
      <path id="NanumGothicBold-ae30" d="M 5274 -928 
Q 5274 -1011 5190 -1011 
L 4621 -1011 
Q 4538 -1011 4538 -928 
L 4538 4979 
Q 4538 5062 4621 5062 
L 5190 5062 
Q 5274 5062 5274 4979 
L 5274 -928 
z
M 3546 4102 
Q 3494 3482 3286 2931 
Q 3078 2381 2736 1907 
Q 2394 1434 1926 1030 
Q 1459 627 896 294 
Q 845 262 784 272 
Q 723 282 691 333 
L 474 672 
Q 442 723 454 771 
Q 467 819 512 845 
Q 1466 1408 2038 2144 
Q 2611 2880 2784 3757 
Q 2810 3885 2771 3926 
Q 2733 3968 2611 3968 
L 806 3968 
Q 717 3968 717 4058 
L 717 4506 
Q 717 4582 806 4582 
L 3098 4582 
Q 3386 4582 3475 4464 
Q 3565 4346 3546 4102 
z
" transform="scale(0.015625)"/>
     </defs>
     <use xlink:href="#NanumGothicBold-d22c"/>
     <use xlink:href="#NanumGothicBold-c601" transform="translate(93.999985 0)"/>
     <use xlink:href="#NanumGothicBold-3a" transform="translate(187.999969 0)"/>
     <use xlink:href="#NanumGothicBold-20" transform="translate(218.299957 0)"/>
     <use xlink:href="#NanumGothicBold-76" transform="translate(246.299942 0)"/>
     <use xlink:href="#NanumGothicBold-b97c" transform="translate(294.699936 0)"/>
     <use xlink:href="#NanumGothicBold-20" transform="translate(388.699921 0)"/>
     <use xlink:href="#NanumGothicBold-6e" transform="translate(416.699905 0)"/>
     <use xlink:href="#NanumGothicBold-20" transform="translate(477.299896 0)"/>
     <use xlink:href="#NanumGothicBold-bc29" transform="translate(505.299881 0)"/>
     <use xlink:href="#NanumGothicBold-d5a5" transform="translate(599.299866 0)"/>
     <use xlink:href="#NanumGothicBold-20" transform="translate(693.29985 0)"/>
     <use xlink:href="#NanumGothicBold-c131" transform="translate(721.299835 0)"/>
     <use xlink:href="#NanumGothicBold-bd84" transform="translate(815.29982 0)"/>
     <use xlink:href="#NanumGothicBold-b9cc" transform="translate(909.299805 0)"/>
     <use xlink:href="#NanumGothicBold-20" transform="translate(1003.299789 0)"/>
     <use xlink:href="#NanumGothicBold-b0a8" transform="translate(1031.299774 0)"/>
     <use xlink:href="#NanumGothicBold-ae30" transform="translate(1125.299759 0)"/>
     <use xlink:href="#NanumGothicBold-ae30" transform="translate(1219.299744 0)"/>
    </g>
   </g>
   <g id="patch_2">
    <path d="M 48.194164 216.498596 
Q 192.662967 216.498596 334.895703 216.498596 
" clip-path="url(#p863c8f0550)" style="fill: none; stroke: #6b7280; stroke-width: 2; stroke-linecap: round"/>
    <path d="M 330.095703 214.098596 
L 334.895703 216.498596 
L 330.095703 218.898596 
z
" clip-path="url(#p863c8f0550)" style="fill: #6b7280; stroke: #6b7280; stroke-width: 2; stroke-linecap: round"/>
   </g>
   <g id="patch_3">
    <path d="M 47.861674 215.398147 
Q 151.350334 147.02171 252.227112 80.370982 
" clip-path="url(#p863c8f0550)" style="fill: none; stroke: #2563eb; stroke-width: 2.8; stroke-linecap: round"/>
    <path d="M 246.011314 81.121884 
L 252.227112 80.370982 
L 249.098354 85.794162 
z
" clip-path="url(#p863c8f0550)" style="fill: #2563eb; stroke: #2563eb; stroke-width: 2.8; stroke-linecap: round"/>
   </g>
   <g id="patch_4">
    <path d="M 48.195424 216.498596 
Q 151.353257 216.498596 250.709775 216.498596 
" clip-path="url(#p863c8f0550)" style="fill: none; stroke: #10b981; stroke-width: 3.4; stroke-linecap: round"/>
    <path d="M 245.109775 213.698596 
L 250.709775 216.498596 
L 245.109775 219.298596 
z
" clip-path="url(#p863c8f0550)" style="fill: #10b981; stroke: #10b981; stroke-width: 3.4; stroke-linecap: round"/>
   </g>
   <g id="text_2">
    <!-- 기준 방향 n -->
    <g style="fill: #6b7280" transform="translate(277.437397 232.701757) scale(0.11 -0.11)">
     <defs>
      <path id="NanumGothic-ae30" d="M 5152 -806 
Q 5152 -896 5062 -896 
L 4800 -896 
Q 4710 -896 4710 -806 
L 4710 4915 
Q 4710 5005 4800 5005 
L 5062 5005 
Q 5152 5005 5152 4915 
L 5152 -806 
z
M 3437 4064 
Q 3405 3514 3219 2982 
Q 3034 2451 2704 1968 
Q 2374 1485 1910 1072 
Q 1446 659 858 346 
Q 774 301 736 365 
L 595 589 
Q 550 666 621 698 
Q 1165 979 1584 1340 
Q 2003 1702 2300 2124 
Q 2598 2547 2771 3014 
Q 2944 3482 2989 3974 
Q 3002 4070 2963 4105 
Q 2925 4141 2835 4141 
L 800 4141 
Q 723 4141 723 4224 
L 723 4448 
Q 723 4525 800 4525 
L 2957 4525 
Q 3258 4525 3354 4413 
Q 3450 4301 3437 4064 
z
" transform="scale(0.015625)"/>
      <path id="NanumGothic-c900" d="M 4493 4179 
Q 4307 4013 4076 3859 
Q 3846 3706 3578 3558 
Q 4000 3424 4461 3299 
Q 4922 3174 5331 3091 
Q 5414 3072 5389 3002 
L 5299 2790 
Q 5267 2720 5184 2739 
Q 4973 2778 4707 2842 
Q 4442 2906 4163 2982 
Q 3885 3059 3603 3145 
Q 3322 3232 3085 3315 
Q 2176 2906 870 2598 
Q 813 2586 787 2605 
Q 762 2624 749 2662 
L 691 2848 
Q 666 2938 736 2957 
Q 1261 3078 1741 3228 
Q 2221 3379 2640 3548 
Q 3059 3718 3408 3904 
Q 3757 4090 4006 4275 
Q 4109 4352 4086 4393 
Q 4064 4435 3974 4435 
L 1210 4435 
Q 1126 4435 1126 4518 
L 1126 4742 
Q 1126 4819 1210 4819 
L 4134 4819 
Q 4627 4819 4723 4643 
Q 4819 4467 4493 4179 
z
M 2912 339 
Q 2880 339 2854 368 
Q 2829 397 2829 435 
L 2829 1728 
L 288 1728 
Q 250 1728 221 1753 
Q 192 1779 192 1811 
L 192 2029 
Q 192 2067 221 2089 
Q 250 2112 288 2112 
L 5728 2112 
Q 5760 2112 5792 2089 
Q 5824 2067 5824 2029 
L 5824 1811 
Q 5824 1779 5792 1753 
Q 5760 1728 5728 1728 
L 3270 1728 
L 3270 435 
Q 3270 397 3248 368 
Q 3226 339 3187 339 
L 2912 339 
z
M 5133 -704 
Q 5133 -742 5101 -761 
Q 5069 -781 5037 -781 
L 1510 -781 
Q 1210 -781 1117 -656 
Q 1024 -531 1024 -269 
L 1024 1005 
Q 1024 1094 1114 1094 
L 1376 1094 
Q 1466 1094 1466 1005 
L 1466 -262 
Q 1466 -352 1494 -374 
Q 1523 -397 1613 -397 
L 5037 -397 
Q 5069 -397 5101 -419 
Q 5133 -442 5133 -474 
L 5133 -704 
z
" transform="scale(0.015625)"/>
      <path id="NanumGothic-20" transform="scale(0.015625)"/>
      <path id="NanumGothic-bc29" d="M 5005 250 
Q 5005 -26 4857 -243 
Q 4710 -461 4457 -611 
Q 4205 -762 3869 -842 
Q 3533 -922 3149 -922 
Q 2733 -922 2393 -842 
Q 2054 -762 1811 -611 
Q 1568 -461 1433 -243 
Q 1299 -26 1299 250 
Q 1299 518 1433 732 
Q 1568 947 1811 1097 
Q 2054 1248 2393 1328 
Q 2733 1408 3149 1408 
Q 3533 1408 3869 1328 
Q 4205 1248 4457 1101 
Q 4710 954 4857 739 
Q 5005 525 5005 250 
z
M 1158 1971 
Q 1005 1971 912 1990 
Q 819 2010 768 2064 
Q 717 2118 697 2204 
Q 678 2291 678 2426 
L 678 4730 
Q 678 4762 704 4784 
Q 730 4806 762 4806 
L 1037 4806 
Q 1069 4806 1091 4780 
Q 1114 4755 1114 4730 
L 1114 3731 
L 2982 3731 
L 2982 4723 
Q 2982 4755 3004 4780 
Q 3027 4806 3059 4806 
L 3334 4806 
Q 3366 4806 3392 4784 
Q 3418 4762 3418 4730 
L 3418 2381 
Q 3418 2138 3315 2054 
Q 3213 1971 2931 1971 
L 1158 1971 
z
M 4550 230 
Q 4550 422 4435 569 
Q 4320 717 4125 816 
Q 3930 915 3674 969 
Q 3418 1024 3142 1024 
Q 2835 1024 2579 969 
Q 2323 915 2140 816 
Q 1958 717 1856 569 
Q 1754 422 1754 230 
Q 1754 45 1856 -99 
Q 1958 -243 2140 -339 
Q 2323 -435 2579 -486 
Q 2835 -538 3142 -538 
Q 3418 -538 3674 -486 
Q 3930 -435 4125 -339 
Q 4320 -243 4435 -99 
Q 4550 45 4550 230 
z
M 4928 1530 
Q 4928 1440 4838 1440 
L 4576 1440 
Q 4486 1440 4486 1530 
L 4486 4915 
Q 4486 5005 4576 5005 
L 4838 5005 
Q 4928 5005 4928 4915 
L 4928 3373 
L 5811 3373 
Q 5850 3373 5878 3347 
Q 5907 3322 5907 3283 
L 5907 3072 
Q 5907 3040 5878 3014 
Q 5850 2989 5811 2989 
L 4928 2989 
L 4928 1530 
z
M 1114 3354 
L 1114 2502 
Q 1114 2406 1146 2377 
Q 1178 2349 1267 2349 
L 2829 2349 
Q 2918 2349 2950 2377 
Q 2982 2406 2982 2502 
L 2982 3354 
L 1114 3354 
z
" transform="scale(0.015625)"/>
      <path id="NanumGothic-d5a5" d="M 5005 64 
Q 5005 -160 4857 -339 
Q 4710 -518 4457 -646 
Q 4205 -774 3869 -844 
Q 3533 -915 3149 -915 
Q 2733 -915 2393 -844 
Q 2054 -774 1811 -646 
Q 1568 -518 1433 -339 
Q 1299 -160 1299 64 
Q 1299 282 1433 458 
Q 1568 634 1811 762 
Q 2054 890 2393 960 
Q 2733 1030 3149 1030 
Q 3533 1030 3869 963 
Q 4205 896 4457 768 
Q 4710 640 4857 461 
Q 5005 282 5005 64 
z
M 3533 2413 
Q 3533 2182 3427 1993 
Q 3322 1805 3139 1664 
Q 2957 1523 2704 1446 
Q 2451 1370 2157 1370 
Q 1856 1370 1606 1446 
Q 1357 1523 1171 1664 
Q 986 1805 883 1997 
Q 781 2189 781 2413 
Q 781 2643 883 2835 
Q 986 3027 1171 3161 
Q 1357 3296 1606 3373 
Q 1856 3450 2157 3450 
Q 2451 3450 2704 3373 
Q 2957 3296 3139 3158 
Q 3322 3021 3427 2829 
Q 3533 2637 3533 2413 
z
M 4550 45 
Q 4550 192 4435 307 
Q 4320 422 4125 502 
Q 3930 582 3674 624 
Q 3418 666 3142 666 
Q 2835 666 2579 624 
Q 2323 582 2140 502 
Q 1958 422 1856 307 
Q 1754 192 1754 45 
Q 1754 -96 1856 -208 
Q 1958 -320 2140 -397 
Q 2323 -474 2579 -512 
Q 2835 -550 3142 -550 
Q 3418 -550 3674 -512 
Q 3930 -474 4125 -397 
Q 4320 -320 4435 -208 
Q 4550 -96 4550 45 
z
M 4928 1254 
Q 4928 1165 4838 1165 
L 4576 1165 
Q 4486 1165 4486 1254 
L 4486 4915 
Q 4486 5005 4576 5005 
L 4838 5005 
Q 4928 5005 4928 4915 
L 4928 3776 
L 5811 3776 
Q 5850 3776 5878 3753 
Q 5907 3731 5907 3693 
L 5907 3482 
Q 5907 3450 5878 3424 
Q 5850 3398 5811 3398 
L 4928 3398 
L 4928 2630 
L 5811 2630 
Q 5850 2630 5878 2608 
Q 5907 2586 5907 2547 
L 5907 2336 
Q 5907 2304 5878 2278 
Q 5850 2253 5811 2253 
L 4928 2253 
L 4928 1254 
z
M 3104 2413 
Q 3104 2566 3033 2691 
Q 2963 2816 2835 2902 
Q 2707 2989 2534 3037 
Q 2362 3085 2157 3085 
Q 1952 3085 1779 3037 
Q 1606 2989 1478 2902 
Q 1350 2816 1276 2691 
Q 1203 2566 1203 2413 
Q 1203 2259 1276 2134 
Q 1350 2010 1478 1920 
Q 1606 1830 1779 1782 
Q 1952 1734 2157 1734 
Q 2362 1734 2534 1782 
Q 2707 1830 2835 1920 
Q 2963 2010 3033 2134 
Q 3104 2259 3104 2413 
z
M 4026 3827 
Q 4026 3744 3930 3744 
L 397 3744 
Q 365 3744 336 3769 
Q 307 3795 307 3834 
L 307 4038 
Q 307 4077 336 4102 
Q 365 4128 397 4128 
L 3930 4128 
Q 4026 4128 4026 4045 
L 4026 3827 
z
M 3091 4608 
Q 3091 4518 2995 4518 
L 1242 4518 
Q 1210 4518 1181 4540 
Q 1152 4563 1152 4602 
L 1152 4819 
Q 1152 4858 1177 4883 
Q 1203 4909 1235 4909 
L 2995 4909 
Q 3091 4909 3091 4819 
L 3091 4608 
z
" transform="scale(0.015625)"/>
      <path id="NanumGothic-6e" d="M 3334 -186 
Q 3334 -275 3245 -275 
L 2989 -275 
Q 2899 -275 2899 -186 
L 2899 1830 
Q 2899 2419 2688 2665 
Q 2477 2912 2093 2912 
Q 1574 2912 1302 2624 
Q 1030 2336 1030 1818 
L 1030 -186 
Q 1030 -275 941 -275 
L 685 -275 
Q 595 -275 595 -186 
L 595 2374 
Q 595 2650 592 2803 
Q 589 2957 576 3098 
Q 570 3142 598 3164 
Q 627 3187 666 3187 
L 896 3187 
Q 986 3187 986 3098 
L 986 2746 
Q 1165 3021 1417 3149 
Q 1670 3277 2112 3277 
Q 2720 3277 3027 2925 
Q 3334 2573 3334 1933 
L 3334 -186 
z
" transform="scale(0.015625)"/>
     </defs>
     <use xlink:href="#NanumGothic-ae30"/>
     <use xlink:href="#NanumGothic-c900" transform="translate(93.999985 0)"/>
     <use xlink:href="#NanumGothic-20" transform="translate(187.999969 0)"/>
     <use xlink:href="#NanumGothic-bc29" transform="translate(215.999954 0)"/>
     <use xlink:href="#NanumGothic-d5a5" transform="translate(309.999939 0)"/>
     <use xlink:href="#NanumGothic-20" transform="translate(403.999924 0)"/>
     <use xlink:href="#NanumGothic-6e" transform="translate(431.999908 0)"/>
    </g>
   </g>
   <g id="text_3">
    <!-- 원래 벡터 v -->
    <g style="fill: #2563eb" transform="translate(158.864516 106.888724) scale(0.11 -0.11)">
     <defs>
      <path id="NanumGothic-c6d0" d="M 3642 3699 
Q 3642 3456 3533 3245 
Q 3424 3034 3229 2877 
Q 3034 2720 2765 2627 
Q 2496 2534 2182 2534 
Q 1875 2534 1612 2624 
Q 1350 2714 1158 2874 
Q 966 3034 857 3245 
Q 749 3456 749 3699 
Q 749 3968 857 4185 
Q 966 4403 1158 4556 
Q 1350 4710 1612 4790 
Q 1875 4870 2182 4870 
Q 2477 4870 2739 4787 
Q 3002 4704 3203 4553 
Q 3405 4403 3523 4185 
Q 3642 3968 3642 3699 
z
M 4710 1434 
L 4710 4915 
Q 4710 5005 4800 5005 
L 5062 5005 
Q 5152 5005 5152 4915 
L 5152 339 
Q 5152 250 5062 250 
L 4800 250 
Q 4710 250 4710 339 
L 4710 1050 
L 3430 1050 
Q 3347 1050 3347 1126 
L 3347 1357 
Q 3347 1434 3430 1434 
L 4710 1434 
z
M 3219 3706 
Q 3219 3898 3136 4045 
Q 3053 4192 2912 4291 
Q 2771 4390 2582 4441 
Q 2394 4493 2182 4493 
Q 1965 4493 1779 4441 
Q 1594 4390 1459 4288 
Q 1325 4186 1248 4042 
Q 1171 3898 1171 3706 
Q 1171 3341 1449 3123 
Q 1728 2906 2182 2906 
Q 2394 2906 2582 2966 
Q 2771 3027 2912 3132 
Q 3053 3238 3136 3385 
Q 3219 3533 3219 3706 
z
M 2054 582 
Q 2022 582 1996 611 
Q 1971 640 1971 678 
L 1971 1709 
Q 1773 1696 1549 1689 
Q 1325 1683 1110 1676 
Q 896 1670 707 1667 
Q 518 1664 390 1670 
Q 352 1670 323 1696 
Q 294 1722 294 1754 
L 294 1971 
Q 294 2010 323 2032 
Q 352 2054 390 2054 
Q 576 2054 832 2057 
Q 1088 2061 1357 2067 
Q 1626 2074 1875 2083 
Q 2125 2093 2298 2106 
Q 2522 2118 2797 2144 
Q 3072 2170 3347 2202 
Q 3622 2234 3868 2269 
Q 4115 2304 4282 2336 
Q 4314 2342 4342 2326 
Q 4371 2310 4378 2285 
L 4410 2067 
Q 4416 1990 4333 1971 
Q 3923 1901 3414 1833 
Q 2906 1766 2413 1734 
L 2413 678 
Q 2413 640 2390 611 
Q 2368 582 2330 582 
L 2054 582 
z
M 5306 -704 
Q 5306 -742 5274 -761 
Q 5242 -781 5210 -781 
L 1728 -781 
Q 1427 -781 1334 -669 
Q 1242 -557 1242 -294 
L 1242 512 
Q 1242 602 1331 602 
L 1594 602 
Q 1683 602 1683 512 
L 1683 -262 
Q 1683 -352 1712 -374 
Q 1741 -397 1830 -397 
L 5210 -397 
Q 5242 -397 5274 -419 
Q 5306 -442 5306 -474 
L 5306 -704 
z
" transform="scale(0.015625)"/>
      <path id="NanumGothic-b798" d="M 4128 2586 
L 4941 2586 
L 4941 4915 
Q 4941 5005 5030 5005 
L 5274 5005 
Q 5363 5005 5363 4915 
L 5363 -806 
Q 5363 -896 5274 -896 
L 5030 -896 
Q 4941 -896 4941 -806 
L 4941 2202 
L 4128 2202 
L 4128 -563 
Q 4128 -653 4038 -653 
L 3795 -653 
Q 3706 -653 3706 -563 
L 3706 4806 
Q 3706 4896 3795 4896 
L 4038 4896 
Q 4128 4896 4128 4806 
L 4128 2586 
z
M 973 608 
Q 685 621 585 726 
Q 486 832 486 1101 
L 486 2323 
Q 486 2592 598 2685 
Q 710 2778 998 2778 
L 2227 2778 
Q 2317 2778 2342 2803 
Q 2368 2829 2368 2925 
L 2368 3949 
Q 2368 4045 2345 4070 
Q 2323 4096 2234 4096 
L 602 4096 
Q 570 4096 541 4115 
Q 512 4134 512 4166 
L 512 4410 
Q 512 4442 541 4461 
Q 570 4480 602 4480 
L 2304 4480 
Q 2458 4480 2554 4457 
Q 2650 4435 2707 4384 
Q 2765 4333 2787 4240 
Q 2810 4147 2810 4013 
L 2810 2848 
Q 2810 2579 2698 2486 
Q 2586 2394 2298 2394 
L 1062 2394 
Q 973 2394 950 2368 
Q 928 2342 928 2246 
L 928 1133 
Q 928 986 1069 986 
Q 1574 973 2124 1033 
Q 2675 1094 3232 1222 
Q 3322 1242 3341 1158 
L 3379 947 
Q 3392 864 3296 838 
Q 2746 710 2160 649 
Q 1574 589 973 608 
z
" transform="scale(0.015625)"/>
      <path id="NanumGothic-bca1" d="M 998 1984 
Q 845 1984 752 2003 
Q 659 2022 608 2076 
Q 557 2131 537 2217 
Q 518 2304 518 2438 
L 518 4704 
Q 518 4736 544 4758 
Q 570 4781 602 4781 
L 877 4781 
Q 909 4781 931 4755 
Q 954 4730 954 4704 
L 954 3725 
L 2477 3725 
L 2477 4698 
Q 2477 4730 2499 4755 
Q 2522 4781 2554 4781 
L 2829 4781 
Q 2861 4781 2886 4758 
Q 2912 4736 2912 4704 
L 2912 3469 
L 3808 3469 
L 3808 4806 
Q 3808 4896 3898 4896 
L 4141 4896 
Q 4230 4896 4230 4806 
L 4230 1734 
Q 4230 1645 4141 1645 
L 3898 1645 
Q 3808 1645 3808 1734 
L 3808 3085 
L 2912 3085 
L 2912 2394 
Q 2912 2150 2809 2067 
Q 2707 1984 2426 1984 
L 998 1984 
z
M 1440 1114 
Q 1440 1152 1472 1171 
Q 1504 1190 1536 1190 
L 4877 1190 
Q 5178 1190 5270 1078 
Q 5363 966 5363 704 
L 5363 -832 
Q 5363 -922 5274 -922 
L 5011 -922 
Q 4922 -922 4922 -832 
L 4922 672 
Q 4922 762 4893 784 
Q 4864 806 4774 806 
L 1536 806 
Q 1504 806 1472 828 
Q 1440 851 1440 883 
L 1440 1114 
z
M 954 3347 
L 954 2515 
Q 954 2419 986 2390 
Q 1018 2362 1107 2362 
L 2323 2362 
Q 2413 2362 2445 2390 
Q 2477 2419 2477 2515 
L 2477 3347 
L 954 3347 
z
M 5363 1638 
Q 5363 1549 5274 1549 
L 5030 1549 
Q 4941 1549 4941 1638 
L 4941 4915 
Q 4941 5005 5030 5005 
L 5274 5005 
Q 5363 5005 5363 4915 
L 5363 1638 
z
" transform="scale(0.015625)"/>
      <path id="NanumGothic-d130" d="M 2982 2464 
Q 2797 2451 2582 2441 
Q 2368 2432 2150 2425 
Q 1933 2419 1728 2419 
Q 1523 2419 1357 2426 
L 1088 2426 
L 1088 1229 
Q 1088 1133 1120 1097 
Q 1152 1062 1242 1062 
Q 1779 1050 2406 1098 
Q 3034 1146 3590 1254 
Q 3699 1274 3718 1184 
L 3750 998 
Q 3763 941 3744 918 
Q 3725 896 3667 883 
Q 3398 826 3078 784 
Q 2758 742 2425 713 
Q 2093 685 1763 672 
Q 1434 659 1146 666 
Q 858 672 752 800 
Q 646 928 646 1197 
L 646 4077 
Q 646 4346 748 4435 
Q 851 4525 1133 4525 
L 3142 4525 
Q 3226 4525 3226 4448 
L 3226 4218 
Q 3226 4141 3142 4141 
L 1216 4141 
Q 1126 4141 1107 4118 
Q 1088 4096 1088 4000 
L 1088 2797 
L 1357 2797 
Q 1517 2797 1718 2797 
Q 1920 2797 2137 2803 
Q 2355 2810 2572 2816 
Q 2790 2822 2982 2835 
Q 3021 2842 3043 2816 
Q 3066 2790 3066 2758 
L 3066 2541 
Q 3066 2477 2982 2464 
z
M 5152 -806 
Q 5152 -896 5062 -896 
L 4800 -896 
Q 4710 -896 4710 -806 
L 4710 2470 
L 3622 2470 
Q 3539 2470 3539 2547 
L 3539 2778 
Q 3539 2854 3622 2854 
L 4710 2854 
L 4710 4915 
Q 4710 5005 4800 5005 
L 5062 5005 
Q 5152 5005 5152 4915 
L 5152 -806 
z
" transform="scale(0.015625)"/>
      <path id="NanumGothic-76" d="M 1843 -192 
Q 1811 -275 1715 -275 
L 1402 -275 
Q 1306 -275 1280 -192 
L 154 3098 
Q 141 3130 160 3158 
Q 179 3187 218 3187 
L 506 3187 
Q 582 3187 621 3098 
L 1568 166 
L 2554 3098 
Q 2566 3136 2598 3161 
Q 2630 3187 2669 3187 
L 2950 3187 
Q 2989 3187 3008 3158 
Q 3027 3130 3014 3098 
L 1843 -192 
z
" transform="scale(0.015625)"/>
     </defs>
     <use xlink:href="#NanumGothic-c6d0"/>
     <use xlink:href="#NanumGothic-b798" transform="translate(93.999985 0)"/>
     <use xlink:href="#NanumGothic-20" transform="translate(187.999969 0)"/>
     <use xlink:href="#NanumGothic-bca1" transform="translate(215.999954 0)"/>
     <use xlink:href="#NanumGothic-d130" transform="translate(309.999939 0)"/>
     <use xlink:href="#NanumGothic-20" transform="translate(403.999924 0)"/>
     <use xlink:href="#NanumGothic-76" transform="translate(431.999908 0)"/>
    </g>
   </g>
   <g id="text_4">
    <!-- proj_n(v) -->
    <g style="fill: #10b981" transform="translate(166.375742 206.560279) scale(0.11 -0.11)">
     <defs>
      <path id="NanumGothic-70" d="M 2989 1504 
Q 2989 1766 2937 2012 
Q 2886 2259 2764 2451 
Q 2643 2643 2451 2761 
Q 2259 2880 1971 2880 
Q 1709 2880 1517 2771 
Q 1325 2662 1200 2473 
Q 1075 2285 1011 2035 
Q 947 1786 947 1504 
Q 947 762 1225 381 
Q 1504 0 1971 0 
Q 2214 0 2403 105 
Q 2592 211 2723 409 
Q 2854 608 2921 883 
Q 2989 1158 2989 1504 
z
M 518 3098 
Q 518 3187 608 3187 
L 851 3187 
Q 941 3187 941 3098 
L 909 2618 
Q 1037 2899 1341 3072 
Q 1645 3245 2048 3245 
Q 2426 3245 2691 3110 
Q 2957 2976 3126 2742 
Q 3296 2509 3376 2189 
Q 3456 1869 3456 1504 
Q 3456 1107 3363 768 
Q 3270 429 3094 179 
Q 2918 -70 2656 -214 
Q 2394 -358 2048 -358 
Q 1658 -358 1376 -208 
Q 1094 -58 947 211 
L 947 -1165 
Q 947 -1254 858 -1254 
L 614 -1254 
Q 576 -1254 547 -1228 
Q 518 -1203 518 -1165 
L 518 3098 
z
" transform="scale(0.015625)"/>
      <path id="NanumGothic-72" d="M 2221 2797 
Q 2106 2835 1914 2835 
Q 1440 2835 1210 2368 
Q 1030 2003 1030 1434 
L 1030 -186 
Q 1030 -275 941 -275 
L 691 -275 
Q 602 -275 602 -186 
L 602 2413 
Q 602 2643 598 2787 
Q 595 2931 589 3098 
Q 589 3187 678 3187 
L 915 3187 
Q 1005 3187 1005 3098 
L 1005 2470 
Q 1318 3277 1926 3277 
Q 2074 3277 2221 3238 
Q 2259 3226 2288 3197 
Q 2317 3168 2317 3117 
L 2317 2848 
Q 2317 2810 2285 2797 
Q 2253 2784 2221 2797 
z
" transform="scale(0.015625)"/>
      <path id="NanumGothic-6f" d="M 3130 1453 
Q 3130 1754 3050 2016 
Q 2970 2278 2829 2483 
Q 2496 2893 1965 2893 
Q 1696 2893 1481 2787 
Q 1267 2682 1101 2483 
Q 954 2278 874 2016 
Q 794 1754 794 1453 
Q 794 1146 874 883 
Q 954 621 1101 422 
Q 1440 6 1965 6 
Q 2234 6 2448 115 
Q 2662 224 2829 422 
Q 2970 621 3050 883 
Q 3130 1146 3130 1453 
z
M 3603 1453 
Q 3603 1075 3494 752 
Q 3386 429 3206 186 
Q 2982 -83 2672 -230 
Q 2362 -378 1965 -378 
Q 1568 -378 1254 -230 
Q 941 -83 717 186 
Q 538 429 432 752 
Q 326 1075 326 1453 
Q 326 2227 717 2720 
Q 1165 3277 1965 3277 
Q 2368 3277 2675 3139 
Q 2982 3002 3206 2720 
Q 3603 2214 3603 1453 
z
" transform="scale(0.015625)"/>
      <path id="NanumGothic-6a" d="M 147 -1248 
Q 58 -1242 58 -1126 
L 58 -947 
Q 58 -870 147 -890 
Q 173 -896 221 -899 
Q 269 -902 307 -902 
Q 461 -902 563 -848 
Q 666 -794 723 -704 
Q 794 -563 794 -243 
L 794 3098 
Q 794 3187 883 3187 
L 1139 3187 
Q 1229 3187 1229 3098 
L 1229 -288 
Q 1229 -1267 429 -1267 
Q 339 -1267 278 -1264 
Q 218 -1261 147 -1248 
z
M 698 4397 
Q 698 4525 787 4617 
Q 877 4710 1005 4710 
Q 1133 4710 1225 4617 
Q 1318 4525 1318 4397 
Q 1318 4269 1225 4179 
Q 1133 4090 1005 4090 
Q 877 4090 787 4179 
Q 698 4269 698 4397 
z
" transform="scale(0.015625)"/>
      <path id="NanumGothic-5f" d="M 3392 -794 
Q 3462 -794 3472 -803 
Q 3482 -813 3482 -883 
L 3482 -1037 
Q 3482 -1107 3472 -1116 
Q 3462 -1126 3392 -1126 
L 154 -1126 
Q 83 -1126 73 -1116 
Q 64 -1107 64 -1037 
L 64 -883 
Q 64 -813 73 -803 
Q 83 -794 154 -794 
L 3392 -794 
z
" transform="scale(0.015625)"/>
      <path id="NanumGothic-28" d="M 1984 -1133 
Q 1939 -1133 1929 -1129 
Q 1920 -1126 1894 -1094 
Q 1312 -365 1030 384 
Q 749 1133 749 1933 
Q 749 2726 1030 3475 
Q 1312 4224 1894 4960 
Q 1920 4992 1929 4995 
Q 1939 4998 1971 4998 
L 2150 4998 
Q 2189 4998 2189 4992 
Q 2189 4986 2170 4954 
Q 1165 3379 1165 1933 
Q 1165 1197 1421 448 
Q 1677 -301 2176 -1088 
Q 2208 -1133 2144 -1133 
L 1984 -1133 
z
" transform="scale(0.015625)"/>
      <path id="NanumGothic-29" d="M 301 -1133 
Q 243 -1133 275 -1088 
Q 774 -301 1027 448 
Q 1280 1197 1280 1933 
Q 1280 2662 1030 3414 
Q 781 4166 282 4954 
Q 262 4986 262 4992 
Q 262 4998 294 4998 
L 474 4998 
Q 506 4998 515 4995 
Q 525 4992 557 4960 
Q 1139 4224 1417 3475 
Q 1696 2726 1696 1933 
Q 1696 1133 1417 384 
Q 1139 -365 557 -1094 
Q 525 -1126 515 -1129 
Q 506 -1133 461 -1133 
L 301 -1133 
z
" transform="scale(0.015625)"/>
     </defs>
     <use xlink:href="#NanumGothic-70"/>
     <use xlink:href="#NanumGothic-72" transform="translate(60.599991 0)"/>
     <use xlink:href="#NanumGothic-6f" transform="translate(96.899979 0)"/>
     <use xlink:href="#NanumGothic-6a" transform="translate(157.499969 0)"/>
     <use xlink:href="#NanumGothic-5f" transform="translate(184.399963 0)"/>
     <use xlink:href="#NanumGothic-6e" transform="translate(238.899948 0)"/>
     <use xlink:href="#NanumGothic-28" transform="translate(299.499939 0)"/>
     <use xlink:href="#NanumGothic-76" transform="translate(335.799927 0)"/>
     <use xlink:href="#NanumGothic-29" transform="translate(384.199921 0)"/>
    </g>
   </g>
   <g id="text_5">
    <!-- 투영 결과는 점이 아니라, n 위에 놓인 새 벡터입니다. -->
    <g style="fill: #111827" transform="translate(46.196129 255.320731) scale(0.108 -0.108)">
     <defs>
      <path id="NanumGothic-d22c" d="M 5030 2214 
Q 5030 2125 4947 2125 
L 1491 2125 
Q 1210 2125 1107 2217 
Q 1005 2310 1005 2579 
L 1005 4403 
Q 1005 4672 1107 4765 
Q 1210 4858 1491 4858 
L 4902 4858 
Q 4986 4858 4986 4774 
L 4986 4563 
Q 4986 4474 4902 4474 
L 1600 4474 
Q 1510 4474 1478 4438 
Q 1446 4403 1446 4307 
L 1446 3680 
L 4813 3680 
Q 4902 3680 4902 3610 
L 4902 3392 
Q 4902 3309 4819 3309 
L 1446 3309 
L 1446 2675 
Q 1446 2586 1478 2547 
Q 1510 2509 1600 2509 
L 4947 2509 
Q 5030 2509 5030 2426 
L 5030 2214 
z
M 2854 -858 
Q 2822 -858 2796 -829 
Q 2771 -800 2771 -762 
L 2771 998 
L 288 998 
Q 250 998 221 1024 
Q 192 1050 192 1082 
L 192 1299 
Q 192 1338 221 1360 
Q 250 1382 288 1382 
L 5728 1382 
Q 5760 1382 5792 1360 
Q 5824 1338 5824 1299 
L 5824 1082 
Q 5824 1050 5792 1024 
Q 5760 998 5728 998 
L 3213 998 
L 3213 -762 
Q 3213 -800 3190 -829 
Q 3168 -858 3130 -858 
L 2854 -858 
z
" transform="scale(0.015625)"/>
      <path id="NanumGothic-c601" d="M 5152 1504 
Q 5152 1414 5062 1414 
L 4800 1414 
Q 4710 1414 4710 1504 
L 4710 2438 
L 3302 2438 
Q 3098 2189 2781 2048 
Q 2464 1907 2086 1907 
Q 1773 1907 1497 2009 
Q 1222 2112 1017 2301 
Q 813 2490 694 2749 
Q 576 3008 576 3328 
Q 576 3661 694 3926 
Q 813 4192 1017 4374 
Q 1222 4557 1497 4656 
Q 1773 4755 2086 4755 
Q 2470 4755 2822 4592 
Q 3174 4429 3386 4122 
L 4710 4122 
L 4710 4915 
Q 4710 5005 4800 5005 
L 5062 5005 
Q 5152 5005 5152 4915 
L 5152 1504 
z
M 5203 250 
Q 5203 -26 5056 -243 
Q 4909 -461 4656 -611 
Q 4403 -762 4067 -842 
Q 3731 -922 3347 -922 
Q 2931 -922 2592 -842 
Q 2253 -762 2009 -611 
Q 1766 -461 1632 -243 
Q 1498 -26 1498 250 
Q 1498 518 1632 732 
Q 1766 947 2009 1097 
Q 2253 1248 2592 1328 
Q 2931 1408 3347 1408 
Q 3731 1408 4067 1328 
Q 4403 1248 4656 1101 
Q 4909 954 5056 739 
Q 5203 525 5203 250 
z
M 3174 3334 
Q 3174 3584 3084 3776 
Q 2995 3968 2844 4096 
Q 2694 4224 2496 4288 
Q 2298 4352 2086 4352 
Q 1862 4352 1670 4288 
Q 1478 4224 1334 4096 
Q 1190 3968 1107 3776 
Q 1024 3584 1024 3334 
Q 1024 3098 1104 2909 
Q 1184 2720 1328 2585 
Q 1472 2451 1664 2380 
Q 1856 2310 2086 2310 
Q 2298 2310 2496 2380 
Q 2694 2451 2844 2585 
Q 2995 2720 3084 2909 
Q 3174 3098 3174 3334 
z
M 4749 230 
Q 4749 422 4633 569 
Q 4518 717 4323 816 
Q 4128 915 3872 969 
Q 3616 1024 3341 1024 
Q 3034 1024 2778 969 
Q 2522 915 2339 816 
Q 2157 717 2054 569 
Q 1952 422 1952 230 
Q 1952 45 2054 -99 
Q 2157 -243 2339 -339 
Q 2522 -435 2778 -486 
Q 3034 -538 3341 -538 
Q 3616 -538 3872 -486 
Q 4128 -435 4323 -339 
Q 4518 -243 4633 -99 
Q 4749 45 4749 230 
z
M 3622 3328 
Q 3622 3046 3526 2816 
L 4710 2816 
L 4710 3744 
L 3565 3744 
Q 3622 3552 3622 3328 
z
" transform="scale(0.015625)"/>
      <path id="NanumGothic-acb0" d="M 3418 4326 
Q 3405 4250 3385 4176 
Q 3366 4102 3347 4032 
L 4710 4032 
L 4710 4915 
Q 4710 5005 4800 5005 
L 5062 5005 
Q 5152 5005 5152 4915 
L 5152 1965 
Q 5152 1875 5062 1875 
L 4800 1875 
Q 4710 1875 4710 1965 
L 4710 2541 
L 3078 2541 
Q 2995 2541 2995 2618 
L 2995 2842 
Q 2995 2918 3078 2918 
L 4710 2918 
L 4710 3654 
L 3219 3654 
Q 3098 3366 2902 3107 
Q 2707 2848 2422 2608 
Q 2138 2368 1750 2144 
Q 1363 1920 864 1709 
Q 768 1664 723 1747 
L 627 1958 
Q 602 2016 618 2041 
Q 634 2067 678 2086 
Q 1734 2522 2281 3053 
Q 2829 3584 2938 4211 
Q 2976 4397 2784 4397 
L 851 4397 
Q 774 4397 774 4480 
L 774 4704 
Q 774 4781 851 4781 
L 2931 4781 
Q 3238 4781 3350 4672 
Q 3462 4563 3418 4326 
z
M 5286 -838 
Q 5286 -870 5257 -892 
Q 5229 -915 5203 -915 
L 1984 -915 
Q 1683 -915 1590 -803 
Q 1498 -691 1498 -422 
L 1498 58 
Q 1498 326 1610 419 
Q 1722 512 2010 512 
L 4570 512 
Q 4659 512 4684 537 
Q 4710 563 4710 659 
L 4710 1024 
Q 4710 1120 4688 1145 
Q 4666 1171 4576 1171 
L 1574 1171 
Q 1542 1171 1513 1190 
Q 1485 1210 1485 1242 
L 1485 1472 
Q 1485 1504 1513 1523 
Q 1542 1542 1574 1542 
L 4646 1542 
Q 4800 1542 4896 1520 
Q 4992 1498 5049 1446 
Q 5107 1395 5129 1302 
Q 5152 1210 5152 1075 
L 5152 595 
Q 5152 326 5040 233 
Q 4928 141 4640 141 
L 2074 141 
Q 1984 141 1961 115 
Q 1939 90 1939 -6 
L 1939 -397 
Q 1939 -486 1964 -515 
Q 1990 -544 2080 -544 
L 5197 -544 
Q 5229 -544 5257 -563 
Q 5286 -582 5286 -614 
L 5286 -838 
z
" transform="scale(0.015625)"/>
      <path id="NanumGothic-acfc" d="M 4928 -806 
Q 4928 -896 4838 -896 
L 4576 -896 
Q 4486 -896 4486 -806 
L 4486 4915 
Q 4486 5005 4576 5005 
L 4838 5005 
Q 4928 5005 4928 4915 
L 4928 2413 
L 5811 2413 
Q 5850 2413 5878 2390 
Q 5907 2368 5907 2330 
L 5907 2112 
Q 5907 2080 5878 2054 
Q 5850 2029 5811 2029 
L 4928 2029 
L 4928 -806 
z
M 4090 973 
Q 4192 992 4198 928 
L 4237 704 
Q 4250 627 4154 614 
Q 3725 544 3213 486 
Q 2701 429 2182 397 
Q 1997 384 1747 377 
Q 1498 371 1238 368 
Q 979 365 732 365 
Q 486 365 307 371 
Q 269 371 240 396 
Q 211 422 211 454 
L 211 672 
Q 211 710 240 732 
Q 269 755 307 755 
Q 429 755 589 752 
Q 749 749 925 749 
Q 1101 749 1289 752 
Q 1478 755 1658 755 
L 1658 2522 
Q 1658 2560 1680 2589 
Q 1702 2618 1741 2618 
L 2016 2618 
Q 2048 2618 2073 2589 
Q 2099 2560 2099 2522 
L 2099 768 
Q 2112 768 2131 771 
Q 2150 774 2170 774 
Q 2394 787 2650 803 
Q 2906 819 3162 841 
Q 3418 864 3658 896 
Q 3898 928 4090 973 
z
M 608 4410 
Q 608 4448 640 4467 
Q 672 4486 704 4486 
L 3104 4486 
Q 3258 4486 3350 4454 
Q 3443 4422 3494 4361 
Q 3546 4301 3565 4205 
Q 3584 4109 3590 3974 
Q 3597 3712 3587 3437 
Q 3578 3162 3555 2883 
Q 3533 2605 3494 2336 
Q 3456 2067 3405 1830 
Q 3392 1792 3369 1760 
Q 3347 1728 3309 1734 
L 3053 1754 
Q 2944 1760 2976 1869 
Q 3034 2106 3075 2381 
Q 3117 2656 3139 2934 
Q 3162 3213 3168 3478 
Q 3174 3744 3155 3968 
Q 3142 4058 3120 4080 
Q 3098 4102 3008 4102 
L 704 4102 
Q 659 4102 633 4124 
Q 608 4147 608 4179 
L 608 4410 
z
" transform="scale(0.015625)"/>
      <path id="NanumGothic-b294" d="M 5037 2893 
Q 5037 2854 5005 2835 
Q 4973 2816 4941 2816 
L 1619 2816 
Q 1318 2816 1225 2941 
Q 1133 3066 1133 3328 
L 1133 4806 
Q 1133 4896 1222 4896 
L 1485 4896 
Q 1574 4896 1574 4806 
L 1574 3341 
Q 1574 3251 1603 3225 
Q 1632 3200 1722 3200 
L 4941 3200 
Q 4973 3200 5005 3177 
Q 5037 3155 5037 3123 
L 5037 2893 
z
M 5133 -704 
Q 5133 -742 5101 -761 
Q 5069 -781 5037 -781 
L 1562 -781 
Q 1261 -781 1168 -656 
Q 1075 -531 1075 -269 
L 1075 979 
Q 1075 1069 1165 1069 
L 1427 1069 
Q 1517 1069 1517 979 
L 1517 -262 
Q 1517 -352 1545 -374 
Q 1574 -397 1664 -397 
L 5037 -397 
Q 5069 -397 5101 -419 
Q 5133 -442 5133 -474 
L 5133 -704 
z
M 5728 1958 
Q 5760 1958 5792 1936 
Q 5824 1914 5824 1875 
L 5824 1658 
Q 5824 1626 5792 1600 
Q 5760 1574 5728 1574 
L 288 1574 
Q 250 1574 221 1600 
Q 192 1626 192 1658 
L 192 1875 
Q 192 1914 221 1936 
Q 250 1958 288 1958 
L 5728 1958 
z
" transform="scale(0.015625)"/>
      <path id="NanumGothic-c810" d="M 1498 819 
Q 1498 1088 1600 1181 
Q 1702 1274 1984 1274 
L 4666 1274 
Q 4819 1274 4912 1254 
Q 5005 1235 5059 1184 
Q 5114 1133 5133 1043 
Q 5152 954 5152 819 
L 5152 -390 
Q 5152 -659 5049 -752 
Q 4947 -845 4666 -845 
L 1984 -845 
Q 1830 -845 1737 -825 
Q 1645 -806 1590 -752 
Q 1536 -698 1517 -611 
Q 1498 -525 1498 -390 
L 1498 819 
z
M 2093 890 
Q 2003 890 1971 854 
Q 1939 819 1939 723 
L 1939 -294 
Q 1939 -390 1971 -425 
Q 2003 -461 2093 -461 
L 4557 -461 
Q 4646 -461 4678 -425 
Q 4710 -390 4710 -294 
L 4710 723 
Q 4710 819 4678 854 
Q 4646 890 4557 890 
L 2093 890 
z
M 3309 4205 
Q 3219 3942 3056 3686 
Q 2893 3430 2669 3181 
Q 2886 2950 3206 2742 
Q 3526 2534 3904 2374 
Q 3955 2355 3961 2320 
Q 3968 2285 3949 2253 
L 3821 2022 
Q 3802 1990 3763 1987 
Q 3725 1984 3693 1997 
Q 3552 2061 3389 2150 
Q 3226 2240 3053 2355 
Q 2880 2470 2710 2604 
Q 2541 2739 2394 2886 
Q 2029 2528 1590 2233 
Q 1152 1939 704 1741 
Q 672 1728 640 1721 
Q 608 1715 589 1747 
L 461 1971 
Q 442 2003 458 2038 
Q 474 2074 506 2086 
Q 1331 2483 1913 2995 
Q 2496 3507 2822 4179 
Q 2867 4269 2835 4307 
Q 2803 4346 2714 4346 
L 838 4346 
Q 762 4346 762 4429 
L 762 4653 
Q 762 4730 838 4730 
L 2886 4730 
Q 3219 4730 3315 4611 
Q 3411 4493 3309 4205 
z
M 4710 3520 
L 4710 4915 
Q 4710 5005 4800 5005 
L 5062 5005 
Q 5152 5005 5152 4915 
L 5152 1728 
Q 5152 1638 5062 1638 
L 4800 1638 
Q 4710 1638 4710 1728 
L 4710 3136 
L 3526 3136 
Q 3443 3136 3443 3213 
L 3443 3443 
Q 3443 3520 3526 3520 
L 4710 3520 
z
" transform="scale(0.015625)"/>
      <path id="NanumGothic-c774" d="M 3654 2566 
Q 3654 2208 3568 1843 
Q 3482 1478 3296 1184 
Q 3110 890 2819 701 
Q 2528 512 2118 512 
Q 1696 512 1405 697 
Q 1114 883 938 1180 
Q 762 1478 685 1843 
Q 608 2208 608 2566 
Q 608 2944 685 3312 
Q 762 3680 938 3974 
Q 1114 4269 1405 4448 
Q 1696 4627 2118 4627 
Q 2528 4627 2819 4448 
Q 3110 4269 3296 3977 
Q 3482 3686 3568 3318 
Q 3654 2950 3654 2566 
z
M 3200 2573 
Q 3200 2867 3139 3168 
Q 3078 3469 2950 3709 
Q 2822 3949 2617 4099 
Q 2413 4250 2118 4250 
Q 1811 4250 1609 4099 
Q 1408 3949 1286 3709 
Q 1165 3469 1113 3168 
Q 1062 2867 1062 2573 
Q 1062 2291 1110 1993 
Q 1158 1696 1280 1449 
Q 1402 1203 1606 1046 
Q 1811 890 2118 890 
Q 2413 890 2617 1046 
Q 2822 1203 2950 1449 
Q 3078 1696 3139 1993 
Q 3200 2291 3200 2573 
z
M 5152 -806 
Q 5152 -896 5062 -896 
L 4800 -896 
Q 4710 -896 4710 -806 
L 4710 4915 
Q 4710 5005 4800 5005 
L 5062 5005 
Q 5152 5005 5152 4915 
L 5152 -806 
z
" transform="scale(0.015625)"/>
      <path id="NanumGothic-c544" d="M 3533 2566 
Q 3533 2208 3446 1843 
Q 3360 1478 3174 1184 
Q 2989 890 2697 701 
Q 2406 512 1997 512 
Q 1574 512 1283 697 
Q 992 883 816 1180 
Q 640 1478 563 1843 
Q 486 2208 486 2566 
Q 486 2944 563 3312 
Q 640 3680 816 3974 
Q 992 4269 1283 4448 
Q 1574 4627 1997 4627 
Q 2406 4627 2697 4448 
Q 2989 4269 3174 3977 
Q 3360 3686 3446 3318 
Q 3533 2950 3533 2566 
z
M 3078 2573 
Q 3078 2861 3017 3155 
Q 2957 3450 2829 3686 
Q 2701 3923 2496 4070 
Q 2291 4218 1997 4218 
Q 1690 4218 1488 4070 
Q 1286 3923 1164 3686 
Q 1043 3450 992 3155 
Q 941 2861 941 2573 
Q 941 2298 989 2003 
Q 1037 1709 1158 1469 
Q 1280 1229 1485 1075 
Q 1690 922 1997 922 
Q 2291 922 2496 1075 
Q 2701 1229 2829 1469 
Q 2957 1709 3017 2003 
Q 3078 2298 3078 2573 
z
M 4928 -806 
Q 4928 -896 4838 -896 
L 4576 -896 
Q 4486 -896 4486 -806 
L 4486 4915 
Q 4486 5005 4576 5005 
L 4838 5005 
Q 4928 5005 4928 4915 
L 4928 2586 
L 5811 2586 
Q 5850 2586 5878 2563 
Q 5907 2541 5907 2502 
L 5907 2285 
Q 5907 2253 5878 2227 
Q 5850 2202 5811 2202 
L 4928 2202 
L 4928 -806 
z
" transform="scale(0.015625)"/>
      <path id="NanumGothic-b2c8" d="M 5152 -806 
Q 5152 -896 5062 -896 
L 4800 -896 
Q 4710 -896 4710 -806 
L 4710 4915 
Q 4710 5005 4800 5005 
L 5062 5005 
Q 5152 5005 5152 4915 
L 5152 -806 
z
M 1267 1440 
Q 1267 1344 1299 1312 
Q 1331 1280 1421 1274 
Q 1734 1261 2089 1270 
Q 2445 1280 2803 1309 
Q 3162 1338 3504 1382 
Q 3846 1427 4141 1485 
Q 4250 1510 4269 1408 
L 4301 1229 
Q 4320 1139 4218 1114 
Q 4000 1062 3657 1017 
Q 3315 973 2918 937 
Q 2522 902 2106 886 
Q 1690 870 1331 877 
Q 1043 883 934 1011 
Q 826 1139 826 1408 
L 826 4557 
Q 826 4646 915 4646 
L 1178 4646 
Q 1267 4646 1267 4557 
L 1267 1440 
z
" transform="scale(0.015625)"/>
      <path id="NanumGothic-b77c" d="M 1088 570 
Q 800 582 701 688 
Q 602 794 602 1062 
L 602 2330 
Q 602 2598 714 2691 
Q 826 2784 1114 2784 
L 2726 2784 
Q 2816 2784 2841 2809 
Q 2867 2835 2867 2931 
L 2867 3994 
Q 2867 4090 2844 4115 
Q 2822 4141 2733 4141 
L 717 4141 
Q 685 4141 656 4160 
Q 627 4179 627 4211 
L 627 4454 
Q 627 4486 656 4505 
Q 685 4525 717 4525 
L 2803 4525 
Q 2957 4525 3053 4502 
Q 3149 4480 3206 4429 
Q 3264 4378 3286 4285 
Q 3309 4192 3309 4058 
L 3309 2854 
Q 3309 2586 3197 2493 
Q 3085 2400 2797 2400 
L 1178 2400 
Q 1088 2400 1065 2374 
Q 1043 2349 1043 2253 
L 1043 1094 
Q 1043 947 1184 947 
Q 1946 934 2646 1004 
Q 3347 1075 4006 1222 
Q 4096 1242 4115 1158 
L 4154 947 
Q 4166 864 4070 838 
Q 3731 762 3356 707 
Q 2982 653 2598 617 
Q 2214 582 1830 569 
Q 1446 557 1088 570 
z
M 4928 -806 
Q 4928 -896 4838 -896 
L 4576 -896 
Q 4486 -896 4486 -806 
L 4486 4915 
Q 4486 5005 4576 5005 
L 4838 5005 
Q 4928 5005 4928 4915 
L 4928 2586 
L 5811 2586 
Q 5850 2586 5878 2563 
Q 5907 2541 5907 2502 
L 5907 2285 
Q 5907 2253 5878 2227 
Q 5850 2202 5811 2202 
L 4928 2202 
L 4928 -806 
z
" transform="scale(0.015625)"/>
      <path id="NanumGothic-2c" d="M 1299 115 
Q 1382 115 1382 86 
Q 1382 58 1370 19 
L 947 -1126 
Q 922 -1178 899 -1194 
Q 877 -1210 832 -1210 
L 563 -1210 
Q 480 -1210 499 -1120 
L 800 6 
Q 813 45 838 80 
Q 864 115 934 115 
L 1299 115 
z
" transform="scale(0.015625)"/>
      <path id="NanumGothic-c704" d="M 3750 3494 
Q 3750 3245 3635 3024 
Q 3520 2803 3315 2636 
Q 3110 2470 2828 2371 
Q 2547 2272 2214 2272 
Q 1888 2272 1613 2368 
Q 1338 2464 1136 2633 
Q 934 2803 819 3024 
Q 704 3245 704 3494 
Q 704 3770 819 3997 
Q 934 4224 1136 4387 
Q 1338 4550 1613 4636 
Q 1888 4723 2214 4723 
Q 2522 4723 2800 4633 
Q 3078 4544 3289 4384 
Q 3501 4224 3625 3997 
Q 3750 3770 3750 3494 
z
M 3302 3501 
Q 3302 3699 3216 3852 
Q 3130 4006 2979 4112 
Q 2829 4218 2630 4272 
Q 2432 4326 2214 4326 
Q 1984 4326 1792 4268 
Q 1600 4211 1456 4105 
Q 1312 4000 1232 3846 
Q 1152 3693 1152 3501 
Q 1152 3315 1229 3161 
Q 1306 3008 1446 2896 
Q 1587 2784 1782 2723 
Q 1978 2662 2214 2662 
Q 2432 2662 2630 2726 
Q 2829 2790 2979 2902 
Q 3130 3014 3216 3168 
Q 3302 3322 3302 3501 
z
M 5152 -806 
Q 5152 -896 5062 -896 
L 4800 -896 
Q 4710 -896 4710 -806 
L 4710 4915 
Q 4710 5005 4800 5005 
L 5062 5005 
Q 5152 5005 5152 4915 
L 5152 -806 
z
M 4237 1773 
Q 4269 1779 4297 1763 
Q 4326 1747 4333 1722 
L 4365 1504 
Q 4371 1414 4288 1408 
Q 3872 1344 3411 1296 
Q 2950 1248 2490 1216 
L 2490 -691 
Q 2490 -730 2467 -758 
Q 2445 -787 2406 -787 
L 2131 -787 
Q 2099 -787 2073 -758 
Q 2048 -730 2048 -691 
L 2048 1197 
Q 1843 1184 1606 1177 
Q 1370 1171 1142 1164 
Q 915 1158 710 1155 
Q 506 1152 371 1158 
Q 333 1158 304 1184 
Q 275 1210 275 1242 
L 275 1459 
Q 275 1498 304 1520 
Q 333 1542 371 1542 
Q 557 1542 816 1545 
Q 1075 1549 1347 1555 
Q 1619 1562 1872 1571 
Q 2125 1581 2298 1587 
Q 2483 1594 2729 1613 
Q 2976 1632 3241 1657 
Q 3507 1683 3766 1712 
Q 4026 1741 4237 1773 
z
" transform="scale(0.015625)"/>
      <path id="NanumGothic-c5d0" d="M 4230 -563 
Q 4230 -653 4141 -653 
L 3898 -653 
Q 3808 -653 3808 -563 
L 3808 2419 
L 3085 2419 
Q 3059 1978 2944 1648 
Q 2829 1318 2643 1097 
Q 2458 877 2218 768 
Q 1978 659 1709 659 
Q 1421 659 1177 784 
Q 934 909 755 1155 
Q 576 1402 473 1773 
Q 371 2144 371 2643 
Q 371 3142 473 3510 
Q 576 3878 758 4124 
Q 941 4371 1184 4489 
Q 1427 4608 1715 4608 
Q 1990 4608 2230 4499 
Q 2470 4390 2656 4166 
Q 2842 3942 2954 3603 
Q 3066 3264 3085 2803 
L 3808 2803 
L 3808 4806 
Q 3808 4896 3898 4896 
L 4141 4896 
Q 4230 4896 4230 4806 
L 4230 -563 
z
M 2643 2643 
Q 2643 2938 2585 3219 
Q 2528 3501 2413 3725 
Q 2298 3949 2122 4086 
Q 1946 4224 1709 4224 
Q 1459 4224 1289 4083 
Q 1120 3942 1014 3715 
Q 909 3488 864 3206 
Q 819 2925 819 2643 
Q 819 2362 870 2077 
Q 922 1792 1027 1561 
Q 1133 1331 1302 1187 
Q 1472 1043 1709 1043 
Q 1946 1043 2122 1184 
Q 2298 1325 2413 1552 
Q 2528 1779 2585 2067 
Q 2643 2355 2643 2643 
z
M 5363 -806 
Q 5363 -896 5274 -896 
L 5030 -896 
Q 4941 -896 4941 -806 
L 4941 4915 
Q 4941 5005 5030 5005 
L 5274 5005 
Q 5363 5005 5363 4915 
L 5363 -806 
z
" transform="scale(0.015625)"/>
      <path id="NanumGothic-b193" d="M 5037 3238 
Q 5037 3200 5005 3181 
Q 4973 3162 4941 3162 
L 3226 3162 
L 3226 2515 
L 5728 2515 
Q 5760 2515 5792 2492 
Q 5824 2470 5824 2432 
L 5824 2214 
Q 5824 2182 5792 2156 
Q 5760 2131 5728 2131 
L 288 2131 
Q 250 2131 221 2156 
Q 192 2182 192 2214 
L 192 2432 
Q 192 2470 221 2492 
Q 250 2515 288 2515 
L 2784 2515 
L 2784 3162 
L 1619 3162 
Q 1318 3162 1225 3286 
Q 1133 3411 1133 3674 
L 1133 4934 
Q 1133 5024 1222 5024 
L 1485 5024 
Q 1574 5024 1574 4934 
L 1574 3680 
Q 1574 3590 1603 3568 
Q 1632 3546 1722 3546 
L 4941 3546 
Q 4973 3546 5005 3523 
Q 5037 3501 5037 3469 
L 5037 3238 
z
M 4506 -314 
Q 4506 -512 4378 -659 
Q 4250 -806 4045 -902 
Q 3840 -998 3574 -1046 
Q 3309 -1094 3040 -1094 
Q 2765 -1094 2499 -1046 
Q 2234 -998 2026 -899 
Q 1818 -800 1690 -653 
Q 1562 -506 1562 -314 
Q 1562 -115 1690 29 
Q 1818 173 2026 269 
Q 2234 365 2496 413 
Q 2758 461 3034 461 
Q 3302 461 3568 413 
Q 3834 365 4042 269 
Q 4250 173 4378 25 
Q 4506 -122 4506 -314 
z
M 5152 755 
Q 5152 672 5056 672 
L 1037 672 
Q 1005 672 976 697 
Q 947 723 947 762 
L 947 941 
Q 947 979 976 1004 
Q 1005 1030 1037 1030 
L 5056 1030 
Q 5152 1030 5152 947 
L 5152 755 
z
M 4038 -314 
Q 4038 -205 3952 -128 
Q 3866 -51 3722 0 
Q 3578 51 3398 76 
Q 3219 102 3034 102 
Q 2848 102 2669 80 
Q 2490 58 2346 6 
Q 2202 -45 2112 -125 
Q 2022 -205 2022 -314 
Q 2022 -422 2112 -499 
Q 2202 -576 2346 -627 
Q 2490 -678 2669 -704 
Q 2848 -730 3034 -730 
Q 3219 -730 3398 -704 
Q 3578 -678 3722 -627 
Q 3866 -576 3952 -499 
Q 4038 -422 4038 -314 
z
M 4051 1427 
Q 4051 1338 3955 1338 
L 2074 1338 
Q 2042 1338 2013 1360 
Q 1984 1382 1984 1421 
L 1984 1606 
Q 1984 1645 2009 1670 
Q 2035 1696 2067 1696 
L 3955 1696 
Q 4051 1696 4051 1606 
L 4051 1427 
z
" transform="scale(0.015625)"/>
      <path id="NanumGothic-c778" d="M 5152 832 
Q 5152 742 5062 742 
L 4800 742 
Q 4710 742 4710 832 
L 4710 4915 
Q 4710 5005 4800 5005 
L 5062 5005 
Q 5152 5005 5152 4915 
L 5152 832 
z
M 5344 -704 
Q 5344 -742 5312 -761 
Q 5280 -781 5248 -781 
L 2042 -781 
Q 1741 -781 1648 -669 
Q 1555 -557 1555 -294 
L 1555 960 
Q 1555 1050 1645 1050 
L 1907 1050 
Q 1997 1050 1997 960 
L 1997 -262 
Q 1997 -352 2025 -374 
Q 2054 -397 2144 -397 
L 5248 -397 
Q 5280 -397 5312 -419 
Q 5344 -442 5344 -474 
L 5344 -704 
z
M 3584 3232 
Q 3584 2899 3469 2620 
Q 3354 2342 3149 2144 
Q 2944 1946 2665 1834 
Q 2387 1722 2061 1722 
Q 1747 1722 1472 1830 
Q 1197 1939 995 2140 
Q 794 2342 678 2617 
Q 563 2893 563 3232 
Q 563 3584 678 3865 
Q 794 4147 995 4345 
Q 1197 4544 1472 4646 
Q 1747 4749 2061 4749 
Q 2355 4749 2630 4646 
Q 2906 4544 3117 4349 
Q 3328 4154 3456 3872 
Q 3584 3590 3584 3232 
z
M 3136 3238 
Q 3136 3507 3049 3715 
Q 2963 3923 2816 4060 
Q 2669 4198 2473 4268 
Q 2278 4339 2061 4339 
Q 1837 4339 1648 4268 
Q 1459 4198 1315 4060 
Q 1171 3923 1091 3715 
Q 1011 3507 1011 3238 
Q 1011 2982 1088 2777 
Q 1165 2573 1305 2429 
Q 1446 2285 1638 2205 
Q 1830 2125 2061 2125 
Q 2278 2125 2473 2205 
Q 2669 2285 2816 2429 
Q 2963 2573 3049 2777 
Q 3136 2982 3136 3238 
z
" transform="scale(0.015625)"/>
      <path id="NanumGothic-c0c8" d="M 4128 2586 
L 4941 2586 
L 4941 4915 
Q 4941 5005 5030 5005 
L 5274 5005 
Q 5363 5005 5363 4915 
L 5363 -806 
Q 5363 -896 5274 -896 
L 5030 -896 
Q 4941 -896 4941 -806 
L 4941 2202 
L 4128 2202 
L 4128 -563 
Q 4128 -653 4038 -653 
L 3795 -653 
Q 3706 -653 3706 -563 
L 3706 4806 
Q 3706 4896 3795 4896 
L 4038 4896 
Q 4128 4896 4128 4806 
L 4128 2586 
z
M 2035 4557 
Q 2035 4134 2019 3769 
Q 2003 3405 1952 3078 
Q 1990 2816 2092 2537 
Q 2195 2259 2342 1974 
Q 2490 1690 2685 1418 
Q 2880 1146 3110 909 
Q 3136 883 3139 844 
Q 3142 806 3110 781 
L 2931 608 
Q 2899 576 2860 579 
Q 2822 582 2797 614 
Q 2643 781 2492 979 
Q 2342 1178 2208 1392 
Q 2074 1606 1962 1824 
Q 1850 2042 1773 2240 
Q 1606 1709 1324 1289 
Q 1043 870 621 467 
Q 557 416 512 461 
L 307 653 
Q 250 698 326 768 
Q 666 1088 906 1446 
Q 1146 1805 1299 2253 
Q 1453 2701 1523 3267 
Q 1594 3834 1594 4570 
Q 1594 4614 1616 4636 
Q 1638 4659 1670 4659 
L 1952 4646 
Q 2035 4646 2035 4557 
z
" transform="scale(0.015625)"/>
      <path id="NanumGothic-c785" d="M 5152 1965 
Q 5152 1875 5062 1875 
L 4800 1875 
Q 4710 1875 4710 1965 
L 4710 4915 
Q 4710 5005 4800 5005 
L 5062 5005 
Q 5152 5005 5152 4915 
L 5152 1965 
z
M 3590 3411 
Q 3590 3104 3468 2841 
Q 3347 2579 3142 2387 
Q 2938 2195 2659 2086 
Q 2381 1978 2067 1978 
Q 1760 1978 1488 2083 
Q 1216 2189 1011 2377 
Q 806 2566 688 2828 
Q 570 3091 570 3411 
Q 570 3750 688 4016 
Q 806 4282 1011 4467 
Q 1216 4653 1488 4752 
Q 1760 4851 2067 4851 
Q 2355 4851 2630 4752 
Q 2906 4653 3120 4467 
Q 3334 4282 3462 4016 
Q 3590 3750 3590 3411 
z
M 3142 3418 
Q 3142 3667 3052 3859 
Q 2963 4051 2812 4182 
Q 2662 4314 2470 4381 
Q 2278 4448 2067 4448 
Q 1856 4448 1664 4381 
Q 1472 4314 1328 4186 
Q 1184 4058 1101 3862 
Q 1018 3667 1018 3418 
Q 1018 3181 1098 2989 
Q 1178 2797 1318 2659 
Q 1459 2522 1651 2448 
Q 1843 2374 2067 2374 
Q 2278 2374 2470 2448 
Q 2662 2522 2812 2656 
Q 2963 2790 3052 2982 
Q 3142 3174 3142 3418 
z
M 1978 -845 
Q 1824 -845 1731 -825 
Q 1638 -806 1587 -752 
Q 1536 -698 1517 -611 
Q 1498 -525 1498 -390 
L 1498 1446 
Q 1498 1478 1523 1497 
Q 1549 1517 1581 1517 
L 1862 1517 
Q 1894 1517 1916 1494 
Q 1939 1472 1939 1446 
L 1939 768 
L 4710 768 
L 4710 1434 
Q 4710 1466 4732 1491 
Q 4755 1517 4787 1517 
L 5069 1517 
Q 5101 1517 5126 1494 
Q 5152 1472 5152 1440 
L 5152 -435 
Q 5152 -678 5049 -761 
Q 4947 -845 4666 -845 
L 1978 -845 
z
M 1939 384 
L 1939 -307 
Q 1939 -403 1971 -432 
Q 2003 -461 2093 -461 
L 4557 -461 
Q 4646 -461 4678 -432 
Q 4710 -403 4710 -307 
L 4710 384 
L 1939 384 
z
" transform="scale(0.015625)"/>
      <path id="NanumGothic-b2e4" d="M 4019 1171 
Q 4032 1082 3936 1062 
Q 3699 1005 3337 953 
Q 2976 902 2576 864 
Q 2176 826 1785 806 
Q 1395 787 1107 794 
Q 819 800 713 928 
Q 608 1056 608 1325 
L 608 4077 
Q 608 4346 710 4435 
Q 813 4525 1094 4525 
L 3296 4525 
Q 3379 4525 3379 4448 
L 3379 4218 
Q 3379 4141 3296 4141 
L 1178 4141 
Q 1088 4141 1069 4118 
Q 1050 4096 1050 4000 
L 1050 1357 
Q 1050 1261 1082 1229 
Q 1114 1197 1203 1190 
Q 1510 1178 1852 1194 
Q 2195 1210 2544 1245 
Q 2893 1280 3229 1328 
Q 3565 1376 3866 1434 
Q 3968 1453 3987 1363 
L 4019 1171 
z
M 4928 -806 
Q 4928 -896 4838 -896 
L 4576 -896 
Q 4486 -896 4486 -806 
L 4486 4915 
Q 4486 5005 4576 5005 
L 4838 5005 
Q 4928 5005 4928 4915 
L 4928 2586 
L 5811 2586 
Q 5850 2586 5878 2563 
Q 5907 2541 5907 2502 
L 5907 2285 
Q 5907 2253 5878 2227 
Q 5850 2202 5811 2202 
L 4928 2202 
L 4928 -806 
z
" transform="scale(0.015625)"/>
      <path id="NanumGothic-2e" d="M 691 -256 
Q 691 -122 784 -29 
Q 877 64 1011 64 
Q 1146 64 1238 -29 
Q 1331 -122 1331 -256 
Q 1331 -390 1238 -483 
Q 1146 -576 1011 -576 
Q 877 -576 784 -483 
Q 691 -390 691 -256 
z
" transform="scale(0.015625)"/>
     </defs>
     <use xlink:href="#NanumGothic-d22c"/>
     <use xlink:href="#NanumGothic-c601" transform="translate(93.999985 0)"/>
     <use xlink:href="#NanumGothic-20" transform="translate(187.999969 0)"/>
     <use xlink:href="#NanumGothic-acb0" transform="translate(215.999954 0)"/>
     <use xlink:href="#NanumGothic-acfc" transform="translate(309.999939 0)"/>
     <use xlink:href="#NanumGothic-b294" transform="translate(403.999924 0)"/>
     <use xlink:href="#NanumGothic-20" transform="translate(497.999908 0)"/>
     <use xlink:href="#NanumGothic-c810" transform="translate(525.999893 0)"/>
     <use xlink:href="#NanumGothic-c774" transform="translate(619.999878 0)"/>
     <use xlink:href="#NanumGothic-20" transform="translate(713.999863 0)"/>
     <use xlink:href="#NanumGothic-c544" transform="translate(741.999847 0)"/>
     <use xlink:href="#NanumGothic-b2c8" transform="translate(835.999832 0)"/>
     <use xlink:href="#NanumGothic-b77c" transform="translate(929.999817 0)"/>
     <use xlink:href="#NanumGothic-2c" transform="translate(1023.999802 0)"/>
     <use xlink:href="#NanumGothic-20" transform="translate(1054.299789 0)"/>
     <use xlink:href="#NanumGothic-6e" transform="translate(1082.299774 0)"/>
     <use xlink:href="#NanumGothic-20" transform="translate(1142.899765 0)"/>
     <use xlink:href="#NanumGothic-c704" transform="translate(1170.89975 0)"/>
     <use xlink:href="#NanumGothic-c5d0" transform="translate(1264.899734 0)"/>
     <use xlink:href="#NanumGothic-20" transform="translate(1358.899719 0)"/>
     <use xlink:href="#NanumGothic-b193" transform="translate(1386.899704 0)"/>
     <use xlink:href="#NanumGothic-c778" transform="translate(1480.899689 0)"/>
     <use xlink:href="#NanumGothic-20" transform="translate(1574.899673 0)"/>
     <use xlink:href="#NanumGothic-c0c8" transform="translate(1602.899658 0)"/>
     <use xlink:href="#NanumGothic-20" transform="translate(1696.899643 0)"/>
     <use xlink:href="#NanumGothic-bca1" transform="translate(1724.899628 0)"/>
     <use xlink:href="#NanumGothic-d130" transform="translate(1818.899612 0)"/>
     <use xlink:href="#NanumGothic-c785" transform="translate(1912.899597 0)"/>
     <use xlink:href="#NanumGothic-b2c8" transform="translate(2006.899582 0)"/>
     <use xlink:href="#NanumGothic-b2e4" transform="translate(2100.899567 0)"/>
     <use xlink:href="#NanumGothic-2e" transform="translate(2194.899551 0)"/>
    </g>
   </g>
  </g>
 </g>
 <defs>
  <clipPath id="p863c8f0550">
   <rect x="8.64" y="28.717951" width="375.56129" height="232.848"/>
  </clipPath>
 </defs>
</svg>
