<?xml version="1.0" encoding="utf-8" standalone="no"?>
<!DOCTYPE svg PUBLIC "-//W3C//DTD SVG 1.1//EN"
  "http://www.w3.org/Graphics/SVG/1.1/DTD/svg11.dtd">
<svg xmlns:xlink="http://www.w3.org/1999/xlink" width="463.68pt" height="267.944531pt" viewBox="0 0 463.68 267.944531" xmlns="http://www.w3.org/2000/svg" version="1.1">
 <metadata>
  <rdf:RDF xmlns:dc="http://purl.org/dc/elements/1.1/" xmlns:cc="http://creativecommons.org/ns#" xmlns:rdf="http://www.w3.org/1999/02/22-rdf-syntax-ns#">
   <cc:Work>
    <dc:type rdf:resource="http://purl.org/dc/dcmitype/StillImage"/>
    <dc:date>2026-07-08T05:12:56.479518</dc:date>
    <dc:format>image/svg+xml</dc:format>
    <dc:creator>
     <cc:Agent>
      <dc:title>Matplotlib v3.10.8, https://matplotlib.org/</dc:title>
     </cc:Agent>
    </dc:creator>
   </cc:Work>
  </rdf:RDF>
 </metadata>
 <defs>
  <style type="text/css">*{stroke-linejoin: round; stroke-linecap: butt}</style>
 </defs>
 <g id="figure_1">
  <g id="patch_1">
   <path d="M 0 267.944531 
L 463.68 267.944531 
L 463.68 0 
L 0 0 
z
" style="fill: #ffffff"/>
  </g>
  <g id="axes_1">
   <g id="patch_2">
    <path d="M 83.04 184.904531 
L 127.68 95.624531 
L 194.64 129.104531 
L 161.16 203.504531 
L 83.04 184.904531 
z
" clip-path="url(#p629f107437)" style="fill: none; stroke: #2563eb; stroke-width: 2.2; stroke-linejoin: miter"/>
   </g>
   <g id="line2d_1">
    <defs>
     <path id="m72a3e8c2d5" d="M 0 2 
C 0.530406 2 1.03916 1.789267 1.414214 1.414214 
C 1.789267 1.03916 2 0.530406 2 0 
C 2 -0.530406 1.789267 -1.03916 1.414214 -1.414214 
C 1.03916 -1.789267 0.530406 -2 0 -2 
C -0.530406 -2 -1.03916 -1.789267 -1.414214 -1.414214 
C -1.789267 -1.03916 -2 -0.530406 -2 0 
C -2 0.530406 -1.789267 1.03916 -1.414214 1.414214 
C -1.03916 1.789267 -0.530406 2 0 2 
z
" style="stroke: #2563eb"/>
    </defs>
    <g clip-path="url(#p629f107437)">
     <use xlink:href="#m72a3e8c2d5" x="83.04" y="184.904531" style="fill: #2563eb; stroke: #2563eb"/>
    </g>
   </g>
   <g id="line2d_2">
    <g clip-path="url(#p629f107437)">
     <use xlink:href="#m72a3e8c2d5" x="127.68" y="95.624531" style="fill: #2563eb; stroke: #2563eb"/>
    </g>
   </g>
   <g id="line2d_3">
    <g clip-path="url(#p629f107437)">
     <use xlink:href="#m72a3e8c2d5" x="194.64" y="129.104531" style="fill: #2563eb; stroke: #2563eb"/>
    </g>
   </g>
   <g id="line2d_4">
    <g clip-path="url(#p629f107437)">
     <use xlink:href="#m72a3e8c2d5" x="161.16" y="203.504531" style="fill: #2563eb; stroke: #2563eb"/>
    </g>
   </g>
   <g id="line2d_5">
    <path d="M 53.28 225.824531 
L 410.4 225.824531 
" clip-path="url(#p629f107437)" style="fill: none; stroke: #111827; stroke-width: 1.8; stroke-linecap: square"/>
   </g>
   <g id="line2d_6">
    <path d="M 83.04 184.904531 
L 90.48 225.824531 
" clip-path="url(#p629f107437)" style="fill: none; stroke-dasharray: 3.7,1.6; stroke-dashoffset: 0; stroke: #6b7280"/>
   </g>
   <g id="line2d_7">
    <path d="M 127.68 95.624531 
L 150 225.824531 
" clip-path="url(#p629f107437)" style="fill: none; stroke-dasharray: 3.7,1.6; stroke-dashoffset: 0; stroke: #6b7280"/>
   </g>
   <g id="line2d_8">
    <path d="M 194.64 129.104531 
L 224.4 225.824531 
" clip-path="url(#p629f107437)" style="fill: none; stroke-dasharray: 3.7,1.6; stroke-dashoffset: 0; stroke: #6b7280"/>
   </g>
   <g id="line2d_9">
    <path d="M 161.16 203.504531 
L 187.2 225.824531 
" clip-path="url(#p629f107437)" style="fill: none; stroke-dasharray: 3.7,1.6; stroke-dashoffset: 0; stroke: #6b7280"/>
   </g>
   <g id="line2d_10">
    <path d="M 90.48 241.448531 
L 224.4 241.448531 
" clip-path="url(#p629f107437)" style="fill: none; stroke: #10b981; stroke-width: 8"/>
   </g>
   <g id="text_1">
    <!-- 점들을 축에 투영해 min ~ max 구간을 만든다 -->
    <g style="fill: #111827" transform="translate(8.64 20.054063) scale(0.15 -0.15)">
     <defs>
      <path id="NanumGothicBold-c810" d="M 5286 -467 
Q 5286 -710 5177 -812 
Q 5069 -915 4826 -915 
L 2029 -915 
Q 1734 -915 1603 -812 
Q 1472 -710 1472 -461 
L 1472 806 
Q 1472 1050 1577 1158 
Q 1683 1267 1926 1267 
L 4794 1267 
Q 5082 1267 5184 1161 
Q 5286 1056 5286 800 
L 5286 -467 
z
M 781 1600 
Q 742 1574 678 1577 
Q 614 1581 576 1651 
L 390 1965 
Q 358 2016 371 2073 
Q 384 2131 448 2157 
Q 806 2317 1126 2525 
Q 1446 2733 1705 2969 
Q 1965 3206 2157 3465 
Q 2349 3725 2451 3987 
Q 2477 4045 2473 4089 
Q 2470 4134 2368 4134 
L 781 4134 
Q 691 4134 691 4237 
L 691 4659 
Q 691 4698 720 4723 
Q 749 4749 787 4749 
L 2810 4749 
Q 3091 4749 3228 4646 
Q 3366 4544 3334 4333 
Q 3322 4262 3299 4185 
Q 3277 4109 3258 4051 
Q 3098 3597 2784 3162 
Q 2899 3046 3040 2928 
Q 3181 2810 3331 2707 
Q 3482 2605 3629 2515 
Q 3776 2426 3904 2368 
Q 4038 2304 3955 2176 
L 3757 1837 
Q 3725 1786 3680 1773 
Q 3635 1760 3565 1792 
Q 3450 1850 3296 1942 
Q 3142 2035 2979 2156 
Q 2816 2278 2656 2412 
Q 2496 2547 2362 2682 
Q 2035 2362 1638 2090 
Q 1242 1818 781 1600 
z
M 3450 3130 
L 3450 3578 
Q 3450 3610 3478 3632 
Q 3507 3654 3539 3654 
L 4544 3654 
L 4544 4979 
Q 4544 5062 4634 5062 
L 5197 5062 
Q 5229 5062 5257 5036 
Q 5286 5011 5286 4979 
L 5286 1670 
Q 5286 1638 5257 1609 
Q 5229 1581 5197 1581 
L 4634 1581 
Q 4595 1581 4569 1609 
Q 4544 1638 4544 1670 
L 4544 3053 
L 3539 3053 
Q 3507 3053 3478 3075 
Q 3450 3098 3450 3130 
z
M 4550 589 
Q 4550 646 4534 662 
Q 4518 678 4467 678 
L 2285 678 
Q 2234 678 2218 665 
Q 2202 653 2202 595 
L 2202 -243 
Q 2202 -301 2218 -313 
Q 2234 -326 2285 -326 
L 4467 -326 
Q 4518 -326 4534 -313 
Q 4550 -301 4550 -243 
L 4550 589 
z
" transform="scale(0.015625)"/>
      <path id="NanumGothicBold-b4e4" d="M 5875 2157 
Q 5875 2125 5843 2093 
Q 5811 2061 5779 2061 
L 211 2061 
Q 173 2061 147 2089 
Q 122 2118 122 2157 
L 122 2554 
Q 122 2650 211 2650 
L 5779 2650 
Q 5811 2650 5843 2627 
Q 5875 2605 5875 2573 
L 5875 2157 
z
M 5024 3206 
Q 5024 3155 5001 3132 
Q 4979 3110 4947 3110 
L 1491 3110 
Q 1235 3110 1132 3228 
Q 1030 3347 1030 3571 
L 1030 4653 
Q 1030 4896 1139 4982 
Q 1248 5069 1491 5069 
L 4890 5069 
Q 4979 5069 4979 4986 
L 4979 4563 
Q 4979 4474 4890 4474 
L 1875 4474 
Q 1754 4474 1754 4365 
L 1754 3814 
Q 1754 3763 1779 3734 
Q 1805 3706 1875 3706 
L 4922 3706 
Q 4973 3706 4998 3693 
Q 5024 3680 5024 3629 
L 5024 3206 
z
M 5139 -845 
Q 5139 -877 5107 -905 
Q 5075 -934 5050 -934 
L 1472 -934 
Q 1222 -934 1132 -844 
Q 1043 -755 1043 -550 
L 1043 237 
Q 1043 442 1129 534 
Q 1216 627 1466 627 
L 4192 627 
Q 4243 627 4256 636 
Q 4269 646 4269 704 
L 4269 934 
Q 4269 1005 4256 1017 
Q 4243 1030 4186 1030 
L 1120 1030 
Q 1088 1030 1059 1052 
Q 1030 1075 1030 1107 
L 1030 1536 
Q 1030 1568 1059 1597 
Q 1088 1626 1120 1626 
L 4550 1626 
Q 4813 1626 4899 1542 
Q 4986 1459 4986 1242 
L 4986 461 
Q 4986 237 4899 160 
Q 4813 83 4550 83 
L 1843 83 
Q 1792 83 1779 67 
Q 1766 51 1766 0 
L 1766 -262 
Q 1766 -320 1779 -329 
Q 1792 -339 1850 -339 
L 5043 -339 
Q 5075 -339 5107 -361 
Q 5139 -384 5139 -429 
L 5139 -845 
z
" transform="scale(0.015625)"/>
      <path id="NanumGothicBold-c744" d="M 3008 4570 
Q 2726 4570 2496 4528 
Q 2266 4486 2096 4409 
Q 1926 4333 1833 4230 
Q 1741 4128 1741 4013 
Q 1741 3898 1833 3802 
Q 1926 3706 2096 3632 
Q 2266 3558 2496 3520 
Q 2726 3482 3008 3482 
Q 3283 3482 3516 3520 
Q 3750 3558 3920 3632 
Q 4090 3706 4182 3805 
Q 4275 3904 4275 4019 
Q 4275 4134 4182 4233 
Q 4090 4333 3920 4409 
Q 3750 4486 3516 4528 
Q 3283 4570 3008 4570 
z
M 5018 4019 
Q 5018 3789 4886 3587 
Q 4755 3386 4499 3242 
Q 4243 3098 3868 3014 
Q 3494 2931 3008 2931 
Q 2522 2931 2147 3014 
Q 1773 3098 1517 3242 
Q 1261 3386 1129 3587 
Q 998 3789 998 4019 
Q 998 4250 1129 4454 
Q 1261 4659 1517 4806 
Q 1773 4954 2147 5040 
Q 2522 5126 3008 5126 
Q 3494 5126 3868 5040 
Q 4243 4954 4499 4806 
Q 4755 4659 4886 4454 
Q 5018 4250 5018 4019 
z
M 5114 -845 
Q 5114 -877 5085 -905 
Q 5056 -934 5030 -934 
L 1459 -934 
Q 1210 -934 1120 -844 
Q 1030 -755 1030 -550 
L 1030 198 
Q 1030 403 1116 492 
Q 1203 582 1453 582 
L 4166 582 
Q 4218 582 4230 592 
Q 4243 602 4243 666 
L 4243 858 
Q 4243 928 4230 944 
Q 4218 960 4160 960 
L 1107 960 
Q 1075 960 1046 982 
Q 1018 1005 1018 1037 
L 1018 1466 
Q 1018 1498 1046 1523 
Q 1075 1549 1107 1549 
L 4531 1549 
Q 4794 1549 4880 1469 
Q 4966 1389 4966 1171 
L 4966 422 
Q 4966 198 4880 121 
Q 4794 45 4531 45 
L 1830 45 
Q 1779 45 1766 29 
Q 1754 13 1754 -45 
L 1754 -262 
Q 1754 -320 1766 -329 
Q 1779 -339 1837 -339 
L 5024 -339 
Q 5056 -339 5085 -364 
Q 5114 -390 5114 -429 
L 5114 -845 
z
M 211 1958 
Q 122 1958 122 2048 
L 122 2458 
Q 122 2496 147 2525 
Q 173 2554 211 2554 
L 5786 2554 
Q 5818 2554 5850 2522 
Q 5882 2490 5882 2458 
L 5882 2048 
Q 5882 2016 5850 1987 
Q 5818 1958 5786 1958 
L 211 1958 
z
" transform="scale(0.015625)"/>
      <path id="NanumGothicBold-20" transform="scale(0.015625)"/>
      <path id="NanumGothicBold-cd95" d="M 4960 -928 
Q 4960 -960 4931 -989 
Q 4902 -1018 4870 -1018 
L 4320 -1018 
Q 4282 -1018 4253 -989 
Q 4224 -960 4224 -928 
L 4224 147 
Q 4224 218 4198 237 
Q 4173 256 4102 256 
L 998 256 
Q 966 256 937 278 
Q 909 301 909 333 
L 909 774 
Q 909 813 937 835 
Q 966 858 998 858 
L 2630 858 
L 2630 1357 
L 211 1357 
Q 122 1357 122 1446 
L 122 1850 
Q 122 1888 147 1917 
Q 173 1946 211 1946 
L 5779 1946 
Q 5811 1946 5843 1914 
Q 5875 1882 5875 1850 
L 5875 1446 
Q 5875 1414 5843 1385 
Q 5811 1357 5779 1357 
L 3366 1357 
L 3366 858 
L 4538 858 
Q 4781 858 4870 755 
Q 4960 653 4960 410 
L 4960 -928 
z
M 979 2240 
Q 934 2227 883 2243 
Q 832 2259 819 2298 
L 710 2669 
Q 698 2707 723 2745 
Q 749 2784 794 2797 
Q 1562 2944 2224 3133 
Q 2886 3322 3424 3571 
Q 3482 3597 3498 3613 
Q 3514 3629 3504 3638 
Q 3494 3648 3468 3651 
Q 3443 3654 3424 3654 
L 1216 3654 
Q 1126 3654 1126 3738 
L 1126 4128 
Q 1126 4205 1216 4205 
L 4122 4205 
Q 4403 4205 4537 4112 
Q 4672 4019 4672 3904 
Q 4672 3795 4605 3692 
Q 4538 3590 4442 3507 
Q 4230 3302 3840 3110 
Q 4160 3040 4518 2976 
Q 4877 2912 5222 2861 
Q 5274 2848 5293 2806 
Q 5312 2765 5299 2726 
L 5203 2394 
Q 5190 2362 5148 2333 
Q 5107 2304 5050 2317 
Q 4589 2387 4051 2505 
Q 3514 2624 3021 2771 
Q 2554 2605 2026 2467 
Q 1498 2330 979 2240 
z
M 3859 4563 
Q 3859 4525 3827 4493 
Q 3795 4461 3750 4461 
L 2112 4461 
Q 2086 4461 2051 4486 
Q 2016 4512 2016 4557 
L 2016 4909 
Q 2016 4954 2051 4979 
Q 2086 5005 2112 5005 
L 3750 5005 
Q 3789 5005 3824 4973 
Q 3859 4941 3859 4902 
L 3859 4563 
z
" transform="scale(0.015625)"/>
      <path id="NanumGothicBold-c5d0" d="M 2342 2630 
Q 2342 2874 2304 3117 
Q 2266 3360 2182 3558 
Q 2099 3757 1968 3878 
Q 1837 4000 1658 4000 
Q 1491 4000 1369 3875 
Q 1248 3750 1171 3552 
Q 1094 3354 1056 3110 
Q 1018 2867 1018 2630 
Q 1018 2400 1056 2157 
Q 1094 1914 1171 1712 
Q 1248 1510 1369 1382 
Q 1491 1254 1658 1254 
Q 1837 1254 1965 1382 
Q 2093 1510 2176 1708 
Q 2259 1907 2300 2150 
Q 2342 2394 2342 2630 
z
M 4314 -717 
Q 4314 -806 4230 -806 
L 3706 -806 
Q 3616 -806 3616 -717 
L 3616 2291 
L 3034 2291 
Q 3002 1901 2883 1593 
Q 2765 1286 2582 1072 
Q 2400 858 2163 746 
Q 1926 634 1651 634 
Q 1344 634 1094 771 
Q 845 909 669 1168 
Q 493 1427 397 1798 
Q 301 2170 301 2637 
Q 301 3142 403 3520 
Q 506 3898 685 4147 
Q 864 4397 1110 4518 
Q 1357 4640 1651 4640 
Q 1933 4640 2176 4534 
Q 2419 4429 2604 4214 
Q 2790 4000 2905 3673 
Q 3021 3347 3046 2906 
L 3616 2906 
L 3616 4870 
Q 3616 4954 3706 4954 
L 4230 4954 
Q 4314 4954 4314 4870 
L 4314 -717 
z
M 5549 -934 
Q 5549 -1018 5466 -1018 
L 4909 -1018 
Q 4826 -1018 4826 -934 
L 4826 4979 
Q 4826 5062 4915 5062 
L 5466 5062 
Q 5549 5062 5549 4979 
L 5549 -934 
z
" transform="scale(0.015625)"/>
      <path id="NanumGothicBold-d22c" d="M 5088 2234 
Q 5088 2182 5065 2156 
Q 5043 2131 5011 2131 
L 1402 2131 
Q 1146 2131 1043 2249 
Q 941 2368 941 2592 
L 941 4525 
Q 941 4768 1049 4854 
Q 1158 4941 1402 4941 
L 4954 4941 
Q 5043 4941 5043 4858 
L 5043 4442 
Q 5043 4352 4954 4352 
L 1792 4352 
Q 1677 4352 1677 4243 
L 1677 3827 
L 4870 3827 
Q 4902 3827 4931 3801 
Q 4960 3776 4960 3738 
L 4960 3347 
Q 4960 3309 4931 3286 
Q 4902 3264 4870 3264 
L 1677 3264 
L 1677 2861 
Q 1677 2720 1792 2720 
L 4986 2720 
Q 5037 2720 5062 2707 
Q 5088 2694 5088 2643 
L 5088 2234 
z
M 5882 1069 
Q 5882 1037 5850 1005 
Q 5818 973 5786 973 
L 3379 973 
L 3379 -877 
Q 3379 -966 3290 -966 
L 2733 -966 
Q 2643 -966 2643 -877 
L 2643 973 
L 211 973 
Q 173 973 147 1005 
Q 122 1037 122 1069 
L 122 1485 
Q 122 1587 211 1587 
L 5786 1587 
Q 5818 1587 5850 1555 
Q 5882 1523 5882 1485 
L 5882 1069 
z
" transform="scale(0.015625)"/>
      <path id="NanumGothicBold-c601" d="M 5280 1581 
Q 5280 1491 5197 1491 
L 4627 1491 
Q 4544 1491 4544 1581 
L 4544 2342 
L 3194 2342 
Q 2989 2131 2694 2016 
Q 2400 1901 2035 1901 
Q 1696 1901 1411 2009 
Q 1126 2118 924 2313 
Q 723 2509 611 2777 
Q 499 3046 499 3366 
Q 499 3674 611 3946 
Q 723 4218 924 4416 
Q 1126 4614 1411 4729 
Q 1696 4845 2035 4845 
Q 2451 4845 2777 4681 
Q 3104 4518 3309 4250 
L 4544 4250 
L 4544 4979 
Q 4544 5062 4627 5062 
L 5197 5062 
Q 5280 5062 5280 4979 
L 5280 1581 
z
M 5325 198 
Q 5325 -70 5181 -294 
Q 5037 -518 4781 -678 
Q 4525 -838 4173 -924 
Q 3821 -1011 3411 -1011 
Q 2970 -1011 2618 -924 
Q 2266 -838 2019 -681 
Q 1773 -525 1641 -301 
Q 1510 -77 1510 198 
Q 1510 467 1641 688 
Q 1773 909 2019 1069 
Q 2266 1229 2618 1315 
Q 2970 1402 3411 1402 
Q 3821 1402 4173 1315 
Q 4525 1229 4781 1072 
Q 5037 915 5181 694 
Q 5325 474 5325 198 
z
M 4570 179 
Q 4570 339 4477 457 
Q 4384 576 4224 656 
Q 4064 736 3853 777 
Q 3642 819 3411 819 
Q 2893 819 2579 659 
Q 2266 499 2266 179 
Q 2266 26 2349 -86 
Q 2432 -198 2585 -275 
Q 2739 -352 2950 -390 
Q 3162 -429 3411 -429 
Q 3642 -429 3853 -390 
Q 4064 -352 4224 -275 
Q 4384 -198 4477 -86 
Q 4570 26 4570 179 
z
M 2880 3354 
Q 2880 3738 2649 3965 
Q 2419 4192 2035 4192 
Q 1664 4192 1433 3965 
Q 1203 3738 1203 3354 
Q 1203 2963 1433 2736 
Q 1664 2509 2035 2509 
Q 2419 2509 2649 2736 
Q 2880 2963 2880 3354 
z
M 3603 3366 
Q 3603 3251 3587 3142 
Q 3571 3034 3539 2931 
L 4544 2931 
L 4544 3661 
L 3571 3661 
Q 3603 3501 3603 3366 
z
" transform="scale(0.015625)"/>
      <path id="NanumGothicBold-d574" d="M 1837 2278 
Q 1690 2278 1568 2220 
Q 1446 2163 1363 2064 
Q 1280 1965 1235 1833 
Q 1190 1702 1190 1562 
Q 1190 1414 1235 1283 
Q 1280 1152 1363 1049 
Q 1446 947 1568 889 
Q 1690 832 1837 832 
Q 1990 832 2112 889 
Q 2234 947 2317 1049 
Q 2400 1152 2445 1283 
Q 2490 1414 2490 1562 
Q 2490 1702 2445 1833 
Q 2400 1965 2317 2064 
Q 2234 2163 2112 2220 
Q 1990 2278 1837 2278 
z
M 1837 2848 
Q 2125 2848 2365 2745 
Q 2605 2643 2777 2470 
Q 2950 2298 3043 2064 
Q 3136 1830 3136 1562 
Q 3136 1293 3043 1056 
Q 2950 819 2777 643 
Q 2605 467 2365 368 
Q 2125 269 1837 269 
Q 1549 269 1309 368 
Q 1069 467 899 643 
Q 730 819 637 1056 
Q 544 1293 544 1562 
Q 544 1830 637 2064 
Q 730 2298 899 2470 
Q 1069 2643 1309 2745 
Q 1549 2848 1837 2848 
z
M 3290 3270 
Q 3290 3232 3261 3203 
Q 3232 3174 3194 3174 
L 333 3174 
Q 301 3174 265 3206 
Q 230 3238 230 3277 
L 230 3667 
Q 230 3699 265 3731 
Q 301 3763 333 3763 
L 3194 3763 
Q 3232 3763 3261 3734 
Q 3290 3706 3290 3667 
L 3290 3270 
z
M 4826 4979 
Q 4826 5062 4915 5062 
L 5466 5062 
Q 5549 5062 5549 4979 
L 5549 -928 
Q 5549 -1011 5466 -1011 
L 4909 -1011 
Q 4826 -1011 4826 -928 
L 4826 2093 
L 4282 2093 
L 4282 -685 
Q 4282 -774 4198 -774 
L 3674 -774 
Q 3584 -774 3584 -685 
L 3584 4864 
Q 3584 4947 3674 4947 
L 4198 4947 
Q 4282 4947 4282 4864 
L 4282 2707 
L 4826 2707 
L 4826 4979 
z
M 2656 4237 
Q 2656 4198 2627 4163 
Q 2598 4128 2554 4128 
L 1018 4128 
Q 992 4128 957 4157 
Q 922 4186 922 4230 
L 922 4621 
Q 922 4666 957 4691 
Q 992 4717 1018 4717 
L 2554 4717 
Q 2592 4717 2624 4685 
Q 2656 4653 2656 4614 
L 2656 4237 
z
" transform="scale(0.015625)"/>
      <path id="NanumGothicBold-6d" d="M 4698 -314 
Q 4666 -314 4640 -285 
Q 4614 -256 4614 -224 
L 4614 1990 
Q 4614 2291 4473 2480 
Q 4333 2669 4064 2669 
Q 3872 2669 3721 2589 
Q 3571 2509 3468 2371 
Q 3366 2234 3312 2042 
Q 3258 1850 3258 1626 
L 3258 -230 
Q 3258 -314 3181 -314 
L 2650 -314 
Q 2618 -314 2592 -285 
Q 2566 -256 2566 -224 
L 2566 1990 
Q 2566 2669 2003 2669 
Q 1645 2669 1443 2451 
Q 1242 2234 1242 1850 
L 1242 -230 
Q 1242 -314 1165 -314 
L 634 -314 
Q 602 -314 579 -285 
Q 557 -256 557 -224 
L 557 2323 
Q 557 2566 550 2790 
Q 544 3014 531 3142 
Q 518 3226 621 3226 
L 1165 3226 
Q 1222 3226 1222 3174 
L 1216 2950 
Q 1344 3098 1568 3200 
Q 1792 3302 2042 3302 
Q 2374 3302 2649 3148 
Q 2925 2995 3046 2694 
Q 3194 3002 3482 3152 
Q 3770 3302 4096 3302 
Q 4640 3302 4973 2979 
Q 5306 2656 5306 2074 
L 5306 -230 
Q 5306 -262 5283 -288 
Q 5261 -314 5229 -314 
L 4698 -314 
z
" transform="scale(0.015625)"/>
      <path id="NanumGothicBold-69" d="M 813 3898 
Q 627 3898 502 4022 
Q 378 4147 378 4326 
Q 378 4512 502 4640 
Q 627 4768 813 4768 
Q 998 4768 1126 4640 
Q 1254 4512 1254 4326 
Q 1254 4147 1126 4022 
Q 998 3898 813 3898 
z
M 538 -326 
Q 506 -326 483 -304 
Q 461 -282 461 -250 
L 461 3123 
Q 461 3155 483 3177 
Q 506 3200 538 3200 
L 1075 3200 
Q 1107 3200 1129 3177 
Q 1152 3155 1152 3123 
L 1152 -250 
Q 1152 -282 1129 -304 
Q 1107 -326 1075 -326 
L 538 -326 
z
" transform="scale(0.015625)"/>
      <path id="NanumGothicBold-6e" d="M 2752 -314 
Q 2720 -314 2697 -285 
Q 2675 -256 2675 -224 
L 2675 1811 
Q 2675 2272 2531 2477 
Q 2387 2682 2080 2682 
Q 1658 2682 1456 2448 
Q 1254 2214 1254 1773 
L 1254 -230 
Q 1254 -314 1178 -314 
L 646 -314 
Q 614 -314 592 -285 
Q 570 -256 570 -224 
L 570 2323 
Q 570 2566 566 2790 
Q 563 3014 550 3142 
Q 538 3226 640 3226 
L 1146 3226 
Q 1216 3226 1203 3174 
L 1197 2944 
Q 1357 3098 1581 3206 
Q 1805 3315 2099 3315 
Q 2714 3315 3037 2953 
Q 3360 2592 3360 1907 
L 3360 -230 
Q 3360 -314 3283 -314 
L 2752 -314 
z
" transform="scale(0.015625)"/>
      <path id="NanumGothicBold-7e" d="M 2784 1536 
Q 2650 1536 2445 1597 
Q 2240 1658 2035 1747 
Q 1786 1856 1642 1894 
Q 1498 1933 1427 1933 
Q 1357 1933 1280 1894 
Q 1203 1856 1129 1798 
Q 1056 1741 989 1673 
Q 922 1606 877 1542 
Q 813 1440 762 1530 
L 538 1888 
Q 486 1978 499 2003 
Q 512 2035 547 2080 
Q 582 2125 634 2189 
Q 800 2387 985 2480 
Q 1171 2573 1434 2573 
Q 1568 2573 1712 2534 
Q 1856 2496 2003 2445 
Q 2144 2394 2281 2339 
Q 2419 2285 2547 2234 
Q 2726 2170 2790 2170 
Q 2925 2170 3085 2298 
Q 3245 2426 3373 2598 
Q 3398 2637 3420 2630 
Q 3443 2624 3456 2598 
L 3738 2189 
Q 3750 2163 3756 2147 
Q 3763 2131 3738 2093 
Q 3578 1805 3325 1670 
Q 3072 1536 2784 1536 
z
" transform="scale(0.015625)"/>
      <path id="NanumGothicBold-61" d="M 2464 -314 
Q 2419 -314 2406 -304 
Q 2394 -294 2394 -256 
L 2394 32 
Q 2234 -192 1987 -304 
Q 1741 -416 1491 -416 
Q 1229 -416 1008 -345 
Q 787 -275 630 -134 
Q 474 6 384 214 
Q 294 422 294 698 
Q 294 1024 409 1270 
Q 525 1517 771 1680 
Q 1018 1843 1402 1923 
Q 1786 2003 2330 2003 
Q 2330 2125 2304 2246 
Q 2278 2368 2217 2464 
Q 2157 2560 2048 2621 
Q 1939 2682 1773 2682 
Q 1485 2682 1251 2605 
Q 1018 2528 813 2400 
Q 710 2336 675 2342 
Q 640 2349 640 2413 
L 640 2899 
Q 640 2925 637 2953 
Q 634 2982 646 3002 
Q 666 3027 742 3072 
Q 960 3181 1187 3251 
Q 1414 3322 1760 3322 
Q 2406 3322 2716 3008 
Q 3027 2694 3027 2022 
L 3027 506 
Q 3027 326 3030 131 
Q 3034 -64 3053 -211 
Q 3066 -314 2982 -314 
L 2464 -314 
z
M 2349 1395 
Q 1638 1395 1331 1222 
Q 1024 1050 1024 704 
Q 1024 461 1165 339 
Q 1306 218 1542 218 
Q 1907 218 2128 486 
Q 2349 755 2349 1325 
L 2349 1395 
z
" transform="scale(0.015625)"/>
      <path id="NanumGothicBold-78" d="M 2515 -301 
Q 2445 -301 2419 -262 
L 1632 954 
L 845 -262 
Q 813 -301 749 -301 
L 90 -301 
Q 13 -301 70 -224 
L 1235 1542 
L 186 3142 
Q 160 3174 173 3196 
Q 186 3219 237 3219 
L 877 3219 
Q 928 3219 954 3181 
L 1632 2131 
L 2310 3181 
Q 2336 3219 2387 3219 
L 3027 3219 
Q 3078 3219 3091 3196 
Q 3104 3174 3078 3142 
L 2029 1542 
L 3194 -224 
Q 3251 -301 3174 -301 
L 2515 -301 
z
" transform="scale(0.015625)"/>
      <path id="NanumGothicBold-ad6c" d="M 5018 4422 
Q 5018 3802 4954 3264 
Q 4890 2726 4774 2234 
L 5786 2234 
Q 5818 2234 5850 2202 
Q 5882 2170 5882 2138 
L 5882 1715 
Q 5882 1683 5850 1651 
Q 5818 1619 5786 1619 
L 3315 1619 
L 3315 -877 
Q 3315 -966 3226 -966 
L 2669 -966 
Q 2579 -966 2579 -877 
L 2579 1619 
L 211 1619 
Q 173 1619 147 1651 
Q 122 1683 122 1715 
L 122 2138 
Q 122 2176 147 2205 
Q 173 2234 211 2234 
L 4070 2234 
Q 4160 2624 4224 3126 
Q 4288 3629 4288 4128 
Q 4288 4218 4243 4240 
Q 4198 4262 4109 4262 
L 1024 4262 
Q 992 4262 960 4284 
Q 928 4307 928 4339 
L 928 4800 
Q 928 4838 960 4857 
Q 992 4877 1024 4877 
L 4595 4877 
Q 4800 4877 4909 4768 
Q 5018 4659 5018 4422 
z
" transform="scale(0.015625)"/>
      <path id="NanumGothicBold-ac04" d="M 5261 -826 
Q 5261 -864 5229 -883 
Q 5197 -902 5165 -902 
L 1786 -902 
Q 1498 -902 1395 -800 
Q 1293 -698 1293 -448 
L 1293 966 
Q 1293 998 1325 1027 
Q 1357 1056 1389 1056 
L 1933 1056 
Q 1971 1056 2003 1027 
Q 2035 998 2035 966 
L 2035 -186 
Q 2035 -250 2060 -269 
Q 2086 -288 2150 -288 
L 5165 -288 
Q 5197 -288 5229 -313 
Q 5261 -339 5261 -371 
L 5261 -826 
z
M 5971 2605 
Q 5971 2573 5942 2547 
Q 5914 2522 5875 2522 
L 5011 2522 
L 5011 832 
Q 5011 749 4922 749 
L 4358 749 
Q 4326 749 4297 774 
Q 4269 800 4269 832 
L 4269 4979 
Q 4269 5011 4297 5036 
Q 4326 5062 4358 5062 
L 4922 5062 
Q 5011 5062 5011 4979 
L 5011 3136 
L 5875 3136 
Q 5914 3136 5942 3113 
Q 5971 3091 5971 3059 
L 5971 2605 
z
M 717 1312 
Q 570 1254 506 1370 
L 326 1696 
Q 294 1747 307 1798 
Q 320 1850 390 1882 
Q 1229 2266 1750 2774 
Q 2272 3283 2458 3904 
Q 2490 4006 2490 4044 
Q 2490 4083 2368 4083 
L 627 4083 
Q 589 4083 566 4112 
Q 544 4141 544 4179 
L 544 4608 
Q 544 4698 634 4698 
L 2803 4698 
Q 3085 4698 3200 4608 
Q 3315 4518 3315 4314 
Q 3315 4282 3305 4230 
Q 3296 4179 3286 4124 
Q 3277 4070 3267 4028 
Q 3258 3987 3251 3968 
Q 2982 3053 2364 2400 
Q 1747 1747 717 1312 
z
" transform="scale(0.015625)"/>
      <path id="NanumGothicBold-b9cc" d="M 3424 2195 
Q 3424 1952 3325 1856 
Q 3226 1760 2982 1760 
L 1062 1760 
Q 838 1760 729 1856 
Q 621 1952 621 2195 
L 621 4307 
Q 621 4550 720 4643 
Q 819 4736 1062 4736 
L 2982 4736 
Q 3226 4736 3325 4640 
Q 3424 4544 3424 4301 
L 3424 2195 
z
M 2694 4051 
Q 2694 4102 2678 4118 
Q 2662 4134 2611 4134 
L 1434 4134 
Q 1382 4134 1366 4121 
Q 1350 4109 1350 4058 
L 1350 2445 
Q 1350 2387 1366 2374 
Q 1382 2362 1434 2362 
L 2611 2362 
Q 2662 2362 2678 2374 
Q 2694 2387 2694 2445 
L 2694 4051 
z
M 5254 -826 
Q 5254 -864 5225 -883 
Q 5197 -902 5165 -902 
L 1779 -902 
Q 1491 -902 1392 -800 
Q 1293 -698 1293 -448 
L 1293 960 
Q 1293 992 1321 1021 
Q 1350 1050 1382 1050 
L 1933 1050 
Q 1971 1050 2000 1021 
Q 2029 992 2029 960 
L 2029 -186 
Q 2029 -250 2054 -269 
Q 2080 -288 2144 -288 
L 5165 -288 
Q 5197 -288 5225 -313 
Q 5254 -339 5254 -371 
L 5254 -826 
z
M 5965 2605 
Q 5965 2573 5936 2547 
Q 5907 2522 5875 2522 
L 5005 2522 
L 5005 832 
Q 5005 749 4922 749 
L 4352 749 
Q 4269 749 4269 832 
L 4269 4979 
Q 4269 5062 4352 5062 
L 4922 5062 
Q 5005 5062 5005 4979 
L 5005 3136 
L 5875 3136 
Q 5907 3136 5936 3113 
Q 5965 3091 5965 3059 
L 5965 2605 
z
" transform="scale(0.015625)"/>
      <path id="NanumGothicBold-b4e0" d="M 5158 -787 
Q 5158 -826 5126 -845 
Q 5094 -864 5062 -864 
L 1542 -864 
Q 1248 -864 1149 -758 
Q 1050 -653 1050 -403 
L 1050 877 
Q 1050 909 1078 937 
Q 1107 966 1139 966 
L 1690 966 
Q 1728 966 1757 937 
Q 1786 909 1786 877 
L 1786 -147 
Q 1786 -211 1811 -230 
Q 1837 -250 1907 -250 
L 5062 -250 
Q 5094 -250 5126 -272 
Q 5158 -294 5158 -326 
L 5158 -787 
z
M 5875 1542 
Q 5875 1504 5843 1472 
Q 5811 1440 5779 1440 
L 211 1440 
Q 122 1440 122 1542 
L 122 1965 
Q 122 2054 211 2054 
L 5779 2054 
Q 5811 2054 5843 2025 
Q 5875 1997 5875 1965 
L 5875 1542 
z
M 5011 2746 
Q 5011 2694 4988 2672 
Q 4966 2650 4934 2650 
L 1510 2650 
Q 1254 2650 1152 2765 
Q 1050 2880 1050 3104 
L 1050 4467 
Q 1050 4710 1158 4796 
Q 1267 4883 1510 4883 
L 4877 4883 
Q 4966 4883 4966 4800 
L 4966 4358 
Q 4966 4275 4877 4275 
L 1914 4275 
Q 1792 4275 1792 4166 
L 1792 3366 
Q 1792 3315 1817 3286 
Q 1843 3258 1914 3258 
L 4909 3258 
Q 4960 3258 4985 3245 
Q 5011 3232 5011 3181 
L 5011 2746 
z
" transform="scale(0.015625)"/>
      <path id="NanumGothicBold-b2e4" d="M 5965 2195 
Q 5965 2157 5936 2131 
Q 5907 2106 5875 2106 
L 5005 2106 
L 5005 -928 
Q 5005 -1011 4922 -1011 
L 4352 -1011 
Q 4269 -1011 4269 -928 
L 4269 4979 
Q 4269 5062 4352 5062 
L 4922 5062 
Q 5005 5062 5005 4979 
L 5005 2720 
L 5875 2720 
Q 5907 2720 5936 2697 
Q 5965 2675 5965 2643 
L 5965 2195 
z
M 3949 1114 
Q 3962 1043 3933 1020 
Q 3904 998 3872 986 
Q 3616 909 3235 851 
Q 2854 794 2448 758 
Q 2042 723 1654 710 
Q 1267 698 1005 717 
Q 768 730 656 822 
Q 544 915 544 1146 
L 544 4179 
Q 544 4403 637 4492 
Q 730 4582 973 4582 
L 3296 4582 
Q 3386 4582 3386 4499 
L 3386 4051 
Q 3386 3968 3296 3968 
L 1395 3968 
Q 1280 3968 1280 3859 
L 1280 1530 
Q 1280 1427 1315 1398 
Q 1350 1370 1472 1357 
Q 1670 1338 1945 1350 
Q 2221 1363 2528 1392 
Q 2835 1421 3155 1465 
Q 3475 1510 3763 1562 
Q 3859 1581 3878 1485 
L 3949 1114 
z
" transform="scale(0.015625)"/>
     </defs>
     <use xlink:href="#NanumGothicBold-c810"/>
     <use xlink:href="#NanumGothicBold-b4e4" transform="translate(93.999985 0)"/>
     <use xlink:href="#NanumGothicBold-c744" transform="translate(187.999969 0)"/>
     <use xlink:href="#NanumGothicBold-20" transform="translate(281.999954 0)"/>
     <use xlink:href="#NanumGothicBold-cd95" transform="translate(309.999939 0)"/>
     <use xlink:href="#NanumGothicBold-c5d0" transform="translate(403.999924 0)"/>
     <use xlink:href="#NanumGothicBold-20" transform="translate(497.999908 0)"/>
     <use xlink:href="#NanumGothicBold-d22c" transform="translate(525.999893 0)"/>
     <use xlink:href="#NanumGothicBold-c601" transform="translate(619.999878 0)"/>
     <use xlink:href="#NanumGothicBold-d574" transform="translate(713.999863 0)"/>
     <use xlink:href="#NanumGothicBold-20" transform="translate(807.999847 0)"/>
     <use xlink:href="#NanumGothicBold-6d" transform="translate(835.999832 0)"/>
     <use xlink:href="#NanumGothicBold-69" transform="translate(926.79982 0)"/>
     <use xlink:href="#NanumGothicBold-6e" transform="translate(950.999817 0)"/>
     <use xlink:href="#NanumGothicBold-20" transform="translate(1011.599808 0)"/>
     <use xlink:href="#NanumGothicBold-7e" transform="translate(1039.599792 0)"/>
     <use xlink:href="#NanumGothicBold-20" transform="translate(1104.999786 0)"/>
     <use xlink:href="#NanumGothicBold-6d" transform="translate(1132.999771 0)"/>
     <use xlink:href="#NanumGothicBold-61" transform="translate(1223.799759 0)"/>
     <use xlink:href="#NanumGothicBold-78" transform="translate(1278.299744 0)"/>
     <use xlink:href="#NanumGothicBold-20" transform="translate(1329.299728 0)"/>
     <use xlink:href="#NanumGothicBold-ad6c" transform="translate(1357.299713 0)"/>
     <use xlink:href="#NanumGothicBold-ac04" transform="translate(1451.299698 0)"/>
     <use xlink:href="#NanumGothicBold-c744" transform="translate(1545.299683 0)"/>
     <use xlink:href="#NanumGothicBold-20" transform="translate(1639.299667 0)"/>
     <use xlink:href="#NanumGothicBold-b9cc" transform="translate(1667.299652 0)"/>
     <use xlink:href="#NanumGothicBold-b4e0" transform="translate(1761.299637 0)"/>
     <use xlink:href="#NanumGothicBold-b2e4" transform="translate(1855.299622 0)"/>
    </g>
   </g>
   <g id="text_2">
    <!-- p1 -->
    <g style="fill: #2563eb" transform="translate(86.76 182.105) scale(0.1 -0.1)">
     <defs>
      <path id="NanumGothic-70" d="M 2989 1504 
Q 2989 1766 2937 2012 
Q 2886 2259 2764 2451 
Q 2643 2643 2451 2761 
Q 2259 2880 1971 2880 
Q 1709 2880 1517 2771 
Q 1325 2662 1200 2473 
Q 1075 2285 1011 2035 
Q 947 1786 947 1504 
Q 947 762 1225 381 
Q 1504 0 1971 0 
Q 2214 0 2403 105 
Q 2592 211 2723 409 
Q 2854 608 2921 883 
Q 2989 1158 2989 1504 
z
M 518 3098 
Q 518 3187 608 3187 
L 851 3187 
Q 941 3187 941 3098 
L 909 2618 
Q 1037 2899 1341 3072 
Q 1645 3245 2048 3245 
Q 2426 3245 2691 3110 
Q 2957 2976 3126 2742 
Q 3296 2509 3376 2189 
Q 3456 1869 3456 1504 
Q 3456 1107 3363 768 
Q 3270 429 3094 179 
Q 2918 -70 2656 -214 
Q 2394 -358 2048 -358 
Q 1658 -358 1376 -208 
Q 1094 -58 947 211 
L 947 -1165 
Q 947 -1254 858 -1254 
L 614 -1254 
Q 576 -1254 547 -1228 
Q 518 -1203 518 -1165 
L 518 3098 
z
" transform="scale(0.015625)"/>
      <path id="NanumGothic-31" d="M 2362 -211 
Q 2362 -301 2272 -301 
L 2010 -301 
Q 1920 -301 1920 -211 
L 1920 3949 
Q 1722 3782 1549 3635 
Q 1376 3488 1184 3322 
Q 1114 3264 1056 3334 
L 928 3488 
Q 909 3520 909 3555 
Q 909 3590 941 3616 
L 1933 4448 
Q 1958 4474 2010 4474 
L 2182 4474 
Q 2317 4474 2339 4451 
Q 2362 4429 2362 4294 
L 2362 -211 
z
" transform="scale(0.015625)"/>
     </defs>
     <use xlink:href="#NanumGothic-70"/>
     <use xlink:href="#NanumGothic-31" transform="translate(60.599991 0)"/>
    </g>
   </g>
   <g id="text_3">
    <!-- p2 -->
    <g style="fill: #2563eb" transform="translate(131.4 92.825) scale(0.1 -0.1)">
     <defs>
      <path id="NanumGothic-32" d="M 576 -301 
Q 506 -301 470 -297 
Q 435 -294 419 -278 
Q 403 -262 400 -227 
Q 397 -192 397 -122 
L 403 19 
Q 403 102 454 154 
L 1510 1318 
Q 2688 2592 2688 3251 
Q 2688 3635 2432 3891 
Q 2182 4141 1811 4141 
Q 1293 4141 730 3853 
Q 640 3808 627 3891 
L 589 4102 
Q 570 4211 653 4237 
Q 979 4384 1241 4454 
Q 1504 4525 1779 4525 
Q 2394 4525 2758 4218 
Q 3168 3885 3168 3270 
Q 3168 3034 3053 2752 
Q 2938 2470 2733 2163 
Q 2605 1984 2371 1696 
Q 2138 1408 1837 1082 
Q 1613 838 1392 588 
Q 1171 339 947 96 
L 3187 96 
Q 3277 96 3277 6 
L 3277 -211 
Q 3277 -301 3187 -301 
L 576 -301 
z
" transform="scale(0.015625)"/>
     </defs>
     <use xlink:href="#NanumGothic-70"/>
     <use xlink:href="#NanumGothic-32" transform="translate(60.599991 0)"/>
    </g>
   </g>
   <g id="text_4">
    <!-- p3 -->
    <g style="fill: #2563eb" transform="translate(198.36 126.305) scale(0.1 -0.1)">
     <defs>
      <path id="NanumGothic-33" d="M 493 -192 
Q 397 -166 410 -45 
L 435 205 
Q 448 282 538 243 
Q 806 134 1046 89 
Q 1286 45 1606 38 
Q 2112 32 2458 294 
Q 2861 563 2861 1082 
Q 2861 1990 1498 1990 
L 1165 1990 
Q 1082 1990 1082 2061 
L 1082 2298 
Q 1082 2381 1165 2381 
L 1197 2381 
Q 1882 2381 2266 2528 
Q 2848 2752 2848 3334 
Q 2848 3520 2749 3677 
Q 2650 3834 2483 3942 
Q 2330 4032 2138 4083 
Q 1946 4134 1734 4134 
Q 1517 4134 1254 4076 
Q 992 4019 749 3923 
Q 666 3891 653 3974 
L 627 4211 
Q 608 4301 710 4339 
Q 998 4435 1248 4480 
Q 1498 4525 1779 4525 
Q 2426 4525 2835 4250 
Q 3302 3936 3302 3334 
Q 3302 2906 2995 2592 
Q 2739 2317 2330 2189 
Q 2534 2163 2710 2080 
Q 2886 1997 3014 1850 
Q 3162 1690 3238 1488 
Q 3315 1286 3315 1043 
Q 3315 723 3184 464 
Q 3053 205 2810 19 
Q 2573 -154 2265 -253 
Q 1958 -352 1581 -346 
Q 1242 -339 995 -307 
Q 749 -275 493 -192 
z
" transform="scale(0.015625)"/>
     </defs>
     <use xlink:href="#NanumGothic-70"/>
     <use xlink:href="#NanumGothic-33" transform="translate(60.599991 0)"/>
    </g>
   </g>
   <g id="text_5">
    <!-- p4 -->
    <g style="fill: #2563eb" transform="translate(164.88 200.705) scale(0.1 -0.1)">
     <defs>
      <path id="NanumGothic-34" d="M 2509 1216 
L 2509 4070 
Q 2035 3354 1568 2643 
Q 1101 1933 621 1216 
L 2509 1216 
z
M 2944 -211 
Q 2944 -301 2854 -301 
L 2598 -301 
Q 2509 -301 2509 -211 
L 2509 826 
L 397 826 
Q 262 826 240 848 
Q 218 870 218 1005 
L 218 1203 
Q 218 1261 224 1280 
Q 230 1299 262 1350 
L 2304 4397 
Q 2342 4454 2358 4464 
Q 2374 4474 2445 4474 
L 2765 4474 
Q 2899 4474 2921 4451 
Q 2944 4429 2944 4294 
L 2944 1216 
L 3578 1216 
Q 3667 1216 3667 1126 
L 3667 915 
Q 3667 826 3578 826 
L 2944 826 
L 2944 -211 
z
" transform="scale(0.015625)"/>
     </defs>
     <use xlink:href="#NanumGothic-70"/>
     <use xlink:href="#NanumGothic-34" transform="translate(60.599991 0)"/>
    </g>
   </g>
   <g id="patch_3">
    <path d="M 386.36168 225.824531 
Q 399.239548 225.824531 410.104955 225.824531 
" clip-path="url(#p629f107437)" style="fill: none; stroke: #111827; stroke-width: 1.8; stroke-linecap: round"/>
    <path d="M 405.304955 223.424531 
L 410.104955 225.824531 
L 405.304955 228.224531 
z
" clip-path="url(#p629f107437)" style="fill: #111827; stroke: #111827; stroke-width: 1.8; stroke-linecap: round"/>
   </g>
   <g id="text_6">
    <!-- axis -->
    <g style="fill: #111827" transform="translate(397.047969 219.583047) scale(0.11 -0.11)">
     <defs>
      <path id="NanumGothic-61" d="M 2566 1530 
L 2445 1530 
Q 2086 1542 1808 1500 
Q 1530 1459 1344 1389 
Q 1075 1293 940 1104 
Q 806 915 806 653 
Q 806 493 857 355 
Q 909 218 1018 141 
Q 1210 -13 1530 -13 
Q 1754 -13 1942 76 
Q 2131 166 2272 332 
Q 2413 499 2489 745 
Q 2566 992 2566 1312 
L 2566 1530 
z
M 742 2650 
Q 710 2630 681 2640 
Q 653 2650 653 2682 
L 653 2925 
Q 653 3014 742 3059 
Q 966 3181 1219 3229 
Q 1472 3277 1773 3277 
Q 2413 3277 2707 2973 
Q 3002 2669 3002 2054 
L 3002 448 
Q 3002 256 3008 105 
Q 3014 -45 3027 -186 
Q 3027 -275 2938 -275 
L 2707 -275 
Q 2618 -275 2618 -186 
L 2618 307 
Q 2483 -19 2166 -198 
Q 1850 -378 1478 -378 
Q 832 -378 531 0 
Q 429 128 377 297 
Q 326 467 326 634 
Q 326 1024 508 1305 
Q 691 1587 1069 1728 
Q 1530 1894 2483 1894 
L 2566 1894 
L 2566 2086 
Q 2566 2490 2384 2701 
Q 2202 2912 1773 2912 
Q 1485 2912 1229 2851 
Q 973 2790 742 2650 
z
" transform="scale(0.015625)"/>
      <path id="NanumGothic-78" d="M 3046 -186 
Q 3066 -218 3050 -246 
Q 3034 -275 2995 -275 
L 2637 -275 
Q 2560 -275 2509 -186 
L 1645 1222 
L 717 -186 
Q 659 -275 589 -275 
L 269 -275 
Q 230 -275 214 -246 
Q 198 -218 218 -186 
L 1389 1562 
L 339 3098 
Q 320 3130 336 3158 
Q 352 3187 390 3187 
L 742 3187 
Q 819 3187 870 3098 
L 1645 1894 
L 2432 3098 
Q 2490 3187 2560 3187 
L 2874 3187 
Q 2912 3187 2928 3158 
Q 2944 3130 2925 3098 
L 1901 1562 
L 3046 -186 
z
" transform="scale(0.015625)"/>
      <path id="NanumGothic-69" d="M 1050 -186 
Q 1050 -275 960 -275 
L 678 -275 
Q 589 -275 589 -186 
L 589 3098 
Q 589 3187 678 3187 
L 960 3187 
Q 1050 3187 1050 3098 
L 1050 -186 
z
M 506 4397 
Q 506 4525 595 4617 
Q 685 4710 813 4710 
Q 941 4710 1033 4617 
Q 1126 4525 1126 4397 
Q 1126 4269 1033 4179 
Q 941 4090 813 4090 
Q 685 4090 595 4179 
Q 506 4269 506 4397 
z
" transform="scale(0.015625)"/>
      <path id="NanumGothic-73" d="M 422 147 
Q 813 -13 1229 -13 
Q 1574 -13 1798 156 
Q 2022 326 2022 614 
Q 2022 781 1897 937 
Q 1773 1094 1594 1197 
Q 1395 1306 1187 1405 
Q 979 1504 787 1613 
Q 557 1741 448 1929 
Q 339 2118 339 2323 
Q 339 2560 428 2739 
Q 518 2918 672 3040 
Q 826 3162 1030 3219 
Q 1235 3277 1466 3277 
Q 1709 3277 1888 3251 
Q 2067 3226 2246 3174 
Q 2285 3162 2313 3136 
Q 2342 3110 2336 3066 
L 2317 2874 
Q 2310 2822 2278 2809 
Q 2246 2797 2214 2810 
Q 2054 2867 1894 2889 
Q 1734 2912 1510 2912 
Q 768 2912 768 2323 
Q 768 2195 867 2080 
Q 966 1965 1203 1850 
Q 1408 1747 1606 1654 
Q 1805 1562 2035 1434 
Q 2234 1325 2365 1101 
Q 2496 877 2496 614 
Q 2496 358 2393 172 
Q 2291 -13 2118 -134 
Q 1946 -256 1722 -317 
Q 1498 -378 1261 -378 
Q 1120 -378 1008 -371 
Q 896 -365 797 -352 
Q 698 -339 595 -320 
Q 493 -301 378 -269 
Q 288 -237 294 -154 
L 320 83 
Q 333 186 422 147 
z
" transform="scale(0.015625)"/>
     </defs>
     <use xlink:href="#NanumGothic-61"/>
     <use xlink:href="#NanumGothic-78" transform="translate(54.499985 0)"/>
     <use xlink:href="#NanumGothic-69" transform="translate(105.499969 0)"/>
     <use xlink:href="#NanumGothic-73" transform="translate(129.699966 0)"/>
    </g>
   </g>
   <g id="text_7">
    <!-- 도형의 그림자 구간 = min ~ max -->
    <g style="fill: #10b981" transform="translate(82.748086 256.644023) scale(0.105 -0.105)">
     <defs>
      <path id="NanumGothic-b3c4" d="M 5030 1984 
Q 5030 1894 4947 1894 
L 3213 1894 
L 3213 499 
L 5728 499 
Q 5760 499 5792 476 
Q 5824 454 5824 416 
L 5824 198 
Q 5824 166 5792 140 
Q 5760 115 5728 115 
L 288 115 
Q 250 115 221 140 
Q 192 166 192 198 
L 192 416 
Q 192 454 221 476 
Q 250 499 288 499 
L 2771 499 
L 2771 1894 
L 1491 1894 
Q 1210 1894 1107 1987 
Q 1005 2080 1005 2349 
L 1005 4134 
Q 1005 4403 1107 4496 
Q 1210 4589 1491 4589 
L 4902 4589 
Q 4986 4589 4986 4506 
L 4986 4294 
Q 4986 4205 4902 4205 
L 1600 4205 
Q 1510 4205 1478 4166 
Q 1446 4128 1446 4032 
L 1446 2445 
Q 1446 2355 1478 2316 
Q 1510 2278 1600 2278 
L 4947 2278 
Q 5030 2278 5030 2195 
L 5030 1984 
z
" transform="scale(0.015625)"/>
      <path id="NanumGothic-d615" d="M 5197 64 
Q 5197 -160 5049 -339 
Q 4902 -518 4649 -646 
Q 4397 -774 4061 -844 
Q 3725 -915 3341 -915 
Q 2925 -915 2585 -844 
Q 2246 -774 2003 -646 
Q 1760 -518 1625 -339 
Q 1491 -160 1491 64 
Q 1491 282 1625 458 
Q 1760 634 2003 762 
Q 2246 890 2585 960 
Q 2925 1030 3341 1030 
Q 3725 1030 4061 963 
Q 4397 896 4649 768 
Q 4902 640 5049 461 
Q 5197 282 5197 64 
z
M 3571 2413 
Q 3571 2182 3468 1993 
Q 3366 1805 3184 1664 
Q 3002 1523 2755 1446 
Q 2509 1370 2221 1370 
Q 1926 1370 1680 1446 
Q 1434 1523 1254 1664 
Q 1075 1805 972 1997 
Q 870 2189 870 2413 
Q 870 2643 972 2835 
Q 1075 3027 1254 3161 
Q 1434 3296 1680 3373 
Q 1926 3450 2221 3450 
Q 2509 3450 2755 3373 
Q 3002 3296 3184 3158 
Q 3366 3021 3468 2829 
Q 3571 2637 3571 2413 
z
M 4742 45 
Q 4742 192 4627 307 
Q 4512 422 4317 502 
Q 4122 582 3866 624 
Q 3610 666 3334 666 
Q 3027 666 2771 624 
Q 2515 582 2332 502 
Q 2150 422 2048 307 
Q 1946 192 1946 45 
Q 1946 -96 2048 -208 
Q 2150 -320 2332 -397 
Q 2515 -474 2771 -512 
Q 3027 -550 3334 -550 
Q 3610 -550 3866 -512 
Q 4122 -474 4317 -397 
Q 4512 -320 4627 -208 
Q 4742 -96 4742 45 
z
M 4710 3347 
L 4710 4915 
Q 4710 5005 4800 5005 
L 5062 5005 
Q 5152 5005 5152 4915 
L 5152 1210 
Q 5152 1120 5062 1120 
L 4800 1120 
Q 4710 1120 4710 1210 
L 4710 1926 
L 3904 1926 
Q 3821 1926 3821 2003 
L 3821 2227 
Q 3821 2304 3904 2304 
L 4710 2304 
L 4710 2970 
L 3904 2970 
Q 3821 2970 3821 3046 
L 3821 3270 
Q 3821 3347 3904 3347 
L 4710 3347 
z
M 3149 2413 
Q 3149 2566 3078 2691 
Q 3008 2816 2883 2902 
Q 2758 2989 2588 3037 
Q 2419 3085 2221 3085 
Q 2022 3085 1849 3037 
Q 1677 2989 1552 2902 
Q 1427 2816 1356 2691 
Q 1286 2566 1286 2413 
Q 1286 2259 1356 2134 
Q 1427 2010 1552 1920 
Q 1677 1830 1849 1782 
Q 2022 1734 2221 1734 
Q 2419 1734 2588 1782 
Q 2758 1830 2883 1920 
Q 3008 2010 3078 2134 
Q 3149 2259 3149 2413 
z
M 3955 3821 
Q 3955 3738 3859 3738 
L 550 3738 
Q 518 3738 489 3763 
Q 461 3789 461 3827 
L 461 4032 
Q 461 4070 489 4096 
Q 518 4122 550 4122 
L 3859 4122 
Q 3955 4122 3955 4038 
L 3955 3821 
z
M 3149 4608 
Q 3149 4518 3053 4518 
L 1363 4518 
Q 1331 4518 1302 4540 
Q 1274 4563 1274 4602 
L 1274 4819 
Q 1274 4858 1299 4883 
Q 1325 4909 1357 4909 
L 3053 4909 
Q 3149 4909 3149 4819 
L 3149 4608 
z
" transform="scale(0.015625)"/>
      <path id="NanumGothic-c758" d="M 5152 -806 
Q 5152 -896 5062 -896 
L 4800 -896 
Q 4710 -896 4710 -806 
L 4710 4915 
Q 4710 5005 4800 5005 
L 5062 5005 
Q 5152 5005 5152 4915 
L 5152 -806 
z
M 3693 3187 
Q 3693 2867 3577 2601 
Q 3462 2336 3257 2144 
Q 3053 1952 2771 1846 
Q 2490 1741 2157 1741 
Q 1830 1741 1555 1846 
Q 1280 1952 1078 2144 
Q 877 2336 761 2601 
Q 646 2867 646 3187 
Q 646 3526 761 3795 
Q 877 4064 1078 4253 
Q 1280 4442 1555 4541 
Q 1830 4640 2157 4640 
Q 2464 4640 2742 4541 
Q 3021 4442 3232 4253 
Q 3443 4064 3568 3795 
Q 3693 3526 3693 3187 
z
M 3245 3194 
Q 3245 3456 3158 3654 
Q 3072 3853 2921 3984 
Q 2771 4115 2572 4179 
Q 2374 4243 2157 4243 
Q 1926 4243 1734 4176 
Q 1542 4109 1398 3977 
Q 1254 3846 1174 3651 
Q 1094 3456 1094 3194 
Q 1094 2701 1385 2416 
Q 1677 2131 2157 2131 
Q 2374 2131 2572 2204 
Q 2771 2278 2921 2412 
Q 3072 2547 3158 2745 
Q 3245 2944 3245 3194 
z
M 4294 1069 
Q 4326 1075 4355 1059 
Q 4384 1043 4390 1018 
L 4422 800 
Q 4429 723 4346 704 
Q 4134 666 3884 630 
Q 3635 595 3369 563 
Q 3104 531 2835 505 
Q 2566 480 2310 461 
Q 2112 448 1846 435 
Q 1581 422 1305 412 
Q 1030 403 780 400 
Q 531 397 371 403 
Q 333 403 304 428 
Q 275 454 275 486 
L 275 704 
Q 275 742 304 764 
Q 333 787 371 787 
Q 557 787 816 790 
Q 1075 794 1347 800 
Q 1619 806 1872 816 
Q 2125 826 2298 838 
Q 2522 851 2800 876 
Q 3078 902 3353 934 
Q 3629 966 3878 1001 
Q 4128 1037 4294 1069 
z
" transform="scale(0.015625)"/>
      <path id="NanumGothic-20" transform="scale(0.015625)"/>
      <path id="NanumGothic-adf8" d="M 979 4435 
Q 979 4474 1011 4493 
Q 1043 4512 1075 4512 
L 4506 4512 
Q 4659 4512 4752 4480 
Q 4845 4448 4896 4387 
Q 4947 4326 4966 4230 
Q 4986 4134 4992 4000 
Q 4998 3827 4988 3561 
Q 4979 3296 4960 2979 
Q 4941 2662 4912 2320 
Q 4883 1978 4848 1648 
Q 4813 1318 4774 1020 
Q 4736 723 4698 499 
L 5728 499 
Q 5760 499 5792 476 
Q 5824 454 5824 416 
L 5824 198 
Q 5824 166 5792 140 
Q 5760 115 5728 115 
L 288 115 
Q 250 115 221 140 
Q 192 166 192 198 
L 192 416 
Q 192 454 221 476 
Q 250 499 288 499 
L 4262 499 
Q 4301 666 4342 941 
Q 4384 1216 4422 1542 
Q 4461 1869 4489 2227 
Q 4518 2586 4537 2918 
Q 4557 3251 4563 3532 
Q 4570 3814 4557 3994 
Q 4550 4083 4524 4105 
Q 4499 4128 4410 4128 
L 1075 4128 
Q 1043 4128 1011 4150 
Q 979 4173 979 4205 
L 979 4435 
z
" transform="scale(0.015625)"/>
      <path id="NanumGothic-b9bc" d="M 5152 1574 
Q 5152 1485 5062 1485 
L 4800 1485 
Q 4710 1485 4710 1574 
L 4710 4915 
Q 4710 5005 4800 5005 
L 5062 5005 
Q 5152 5005 5152 4915 
L 5152 1574 
z
M 1498 672 
Q 1498 941 1600 1033 
Q 1702 1126 1984 1126 
L 4666 1126 
Q 4819 1126 4912 1107 
Q 5005 1088 5059 1037 
Q 5114 986 5133 896 
Q 5152 806 5152 672 
L 5152 -390 
Q 5152 -659 5049 -752 
Q 4947 -845 4666 -845 
L 1984 -845 
Q 1830 -845 1737 -825 
Q 1645 -806 1590 -752 
Q 1536 -698 1517 -611 
Q 1498 -525 1498 -390 
L 1498 672 
z
M 2093 742 
Q 2003 742 1971 707 
Q 1939 672 1939 576 
L 1939 -294 
Q 1939 -390 1971 -425 
Q 2003 -461 2093 -461 
L 4557 -461 
Q 4646 -461 4678 -425 
Q 4710 -390 4710 -294 
L 4710 576 
Q 4710 672 4678 707 
Q 4646 742 4557 742 
L 2093 742 
z
M 1197 1805 
Q 909 1805 809 1917 
Q 710 2029 710 2298 
L 710 3053 
Q 710 3322 822 3414 
Q 934 3507 1222 3507 
L 2765 3507 
Q 2854 3507 2880 3532 
Q 2906 3558 2906 3654 
L 2906 4230 
Q 2906 4326 2883 4352 
Q 2861 4378 2771 4378 
L 813 4378 
Q 736 4378 736 4461 
L 736 4685 
Q 736 4762 813 4762 
L 2842 4762 
Q 2995 4762 3091 4739 
Q 3187 4717 3244 4665 
Q 3302 4614 3324 4521 
Q 3347 4429 3347 4294 
L 3347 3578 
Q 3347 3309 3235 3216 
Q 3123 3123 2835 3123 
L 1286 3123 
Q 1197 3123 1174 3097 
Q 1152 3072 1152 2976 
L 1152 2330 
Q 1152 2182 1293 2182 
Q 1670 2182 2016 2195 
Q 2362 2208 2691 2237 
Q 3021 2266 3341 2307 
Q 3661 2349 3994 2406 
Q 4058 2419 4080 2406 
Q 4102 2394 4115 2342 
L 4154 2138 
Q 4166 2080 4144 2061 
Q 4122 2042 4064 2029 
Q 3462 1920 2720 1859 
Q 1978 1798 1197 1805 
z
" transform="scale(0.015625)"/>
      <path id="NanumGothic-c790" d="M 3674 858 
Q 3654 826 3625 819 
Q 3597 813 3546 851 
Q 3392 966 3219 1116 
Q 3046 1267 2880 1436 
Q 2714 1606 2554 1788 
Q 2394 1971 2259 2150 
Q 1939 1747 1529 1379 
Q 1120 1011 595 646 
Q 563 627 531 617 
Q 499 608 480 634 
L 326 832 
Q 301 864 307 899 
Q 314 934 339 954 
Q 1363 1677 1936 2419 
Q 2509 3162 2733 3968 
Q 2758 4058 2736 4099 
Q 2714 4141 2624 4141 
L 685 4141 
Q 608 4141 608 4224 
L 608 4448 
Q 608 4525 698 4525 
L 2797 4525 
Q 3130 4525 3219 4409 
Q 3309 4294 3219 4000 
Q 2970 3181 2515 2496 
Q 2662 2291 2828 2092 
Q 2995 1894 3161 1718 
Q 3328 1542 3494 1398 
Q 3661 1254 3808 1158 
Q 3840 1133 3840 1101 
Q 3840 1069 3821 1043 
L 3674 858 
z
M 4928 -806 
Q 4928 -896 4838 -896 
L 4576 -896 
Q 4486 -896 4486 -806 
L 4486 4915 
Q 4486 5005 4576 5005 
L 4838 5005 
Q 4928 5005 4928 4915 
L 4928 2586 
L 5811 2586 
Q 5850 2586 5878 2563 
Q 5907 2541 5907 2502 
L 5907 2285 
Q 5907 2253 5878 2227 
Q 5850 2202 5811 2202 
L 4928 2202 
L 4928 -806 
z
" transform="scale(0.015625)"/>
      <path id="NanumGothic-ad6c" d="M 966 4749 
Q 966 4787 998 4806 
Q 1030 4826 1062 4826 
L 4448 4826 
Q 4602 4826 4694 4794 
Q 4787 4762 4838 4701 
Q 4890 4640 4912 4544 
Q 4934 4448 4934 4314 
Q 4947 3814 4873 3296 
Q 4800 2778 4672 2176 
L 5728 2176 
Q 5760 2176 5792 2153 
Q 5824 2131 5824 2093 
L 5824 1875 
Q 5824 1843 5792 1817 
Q 5760 1792 5728 1792 
L 3213 1792 
L 3213 -762 
Q 3213 -800 3190 -829 
Q 3168 -858 3130 -858 
L 2854 -858 
Q 2822 -858 2796 -829 
Q 2771 -800 2771 -762 
L 2771 1792 
L 288 1792 
Q 250 1792 221 1817 
Q 192 1843 192 1875 
L 192 2093 
Q 192 2131 221 2153 
Q 250 2176 288 2176 
L 4237 2176 
Q 4301 2426 4358 2720 
Q 4416 3014 4451 3308 
Q 4486 3603 4499 3865 
Q 4512 4128 4499 4307 
Q 4486 4397 4464 4419 
Q 4442 4442 4352 4442 
L 1062 4442 
Q 1030 4442 998 4464 
Q 966 4486 966 4518 
L 966 4749 
z
" transform="scale(0.015625)"/>
      <path id="NanumGothic-ac04" d="M 3290 4198 
Q 3130 3264 2480 2531 
Q 1830 1798 698 1325 
Q 659 1312 617 1312 
Q 576 1312 557 1363 
L 461 1574 
Q 435 1626 457 1658 
Q 480 1690 512 1702 
Q 979 1894 1372 2156 
Q 1766 2419 2064 2726 
Q 2362 3034 2554 3379 
Q 2746 3725 2810 4090 
Q 2848 4269 2656 4269 
L 685 4269 
Q 608 4269 608 4352 
L 608 4576 
Q 608 4653 685 4653 
L 2803 4653 
Q 3110 4653 3219 4544 
Q 3328 4435 3290 4198 
z
M 4928 806 
Q 4928 717 4838 717 
L 4576 717 
Q 4486 717 4486 806 
L 4486 4915 
Q 4486 5005 4576 5005 
L 4838 5005 
Q 4928 5005 4928 4915 
L 4928 3066 
L 5811 3066 
Q 5850 3066 5878 3043 
Q 5907 3021 5907 2982 
L 5907 2765 
Q 5907 2733 5878 2707 
Q 5850 2682 5811 2682 
L 4928 2682 
L 4928 806 
z
M 5216 -704 
Q 5216 -742 5184 -761 
Q 5152 -781 5120 -781 
L 1862 -781 
Q 1562 -781 1469 -669 
Q 1376 -557 1376 -294 
L 1376 934 
Q 1376 1024 1466 1024 
L 1728 1024 
Q 1818 1024 1818 934 
L 1818 -262 
Q 1818 -352 1846 -374 
Q 1875 -397 1965 -397 
L 5120 -397 
Q 5152 -397 5184 -419 
Q 5216 -442 5216 -474 
L 5216 -704 
z
" transform="scale(0.015625)"/>
      <path id="NanumGothic-3d" d="M 3757 2995 
Q 3827 2995 3836 2985 
Q 3846 2976 3846 2906 
L 3846 2618 
Q 3846 2547 3836 2537 
Q 3827 2528 3757 2528 
L 467 2528 
Q 397 2528 387 2537 
Q 378 2547 378 2618 
L 378 2906 
Q 378 2976 387 2985 
Q 397 2995 467 2995 
L 3757 2995 
z
M 3757 1626 
Q 3827 1626 3836 1616 
Q 3846 1606 3846 1536 
L 3846 1261 
Q 3846 1190 3836 1180 
Q 3827 1171 3757 1171 
L 467 1171 
Q 397 1171 387 1180 
Q 378 1190 378 1261 
L 378 1536 
Q 378 1606 387 1616 
Q 397 1626 467 1626 
L 3757 1626 
z
" transform="scale(0.015625)"/>
      <path id="NanumGothic-6d" d="M 602 2374 
Q 602 2643 595 2800 
Q 589 2957 576 3098 
Q 576 3187 666 3187 
L 902 3187 
Q 992 3187 992 3098 
L 992 2752 
Q 1139 2989 1388 3126 
Q 1638 3264 2003 3264 
Q 2387 3264 2675 3075 
Q 2963 2886 3027 2522 
Q 3162 2886 3459 3075 
Q 3757 3264 4147 3264 
Q 4397 3264 4598 3174 
Q 4800 3085 4944 2928 
Q 5088 2771 5165 2560 
Q 5242 2349 5242 2112 
L 5242 -186 
Q 5242 -275 5152 -275 
L 4909 -275 
Q 4819 -275 4819 -192 
L 4819 2022 
Q 4819 2899 4083 2899 
Q 3859 2899 3683 2800 
Q 3507 2701 3382 2528 
Q 3258 2355 3197 2124 
Q 3136 1894 3142 1638 
L 3142 -186 
Q 3142 -275 3053 -275 
L 2797 -275 
Q 2707 -275 2707 -186 
L 2707 2022 
Q 2707 2899 1965 2899 
Q 1530 2899 1280 2617 
Q 1030 2336 1030 1875 
L 1030 -186 
Q 1030 -275 941 -275 
L 691 -275 
Q 602 -275 602 -186 
L 602 2374 
z
" transform="scale(0.015625)"/>
      <path id="NanumGothic-6e" d="M 3334 -186 
Q 3334 -275 3245 -275 
L 2989 -275 
Q 2899 -275 2899 -186 
L 2899 1830 
Q 2899 2419 2688 2665 
Q 2477 2912 2093 2912 
Q 1574 2912 1302 2624 
Q 1030 2336 1030 1818 
L 1030 -186 
Q 1030 -275 941 -275 
L 685 -275 
Q 595 -275 595 -186 
L 595 2374 
Q 595 2650 592 2803 
Q 589 2957 576 3098 
Q 570 3142 598 3164 
Q 627 3187 666 3187 
L 896 3187 
Q 986 3187 986 3098 
L 986 2746 
Q 1165 3021 1417 3149 
Q 1670 3277 2112 3277 
Q 2720 3277 3027 2925 
Q 3334 2573 3334 1933 
L 3334 -186 
z
" transform="scale(0.015625)"/>
      <path id="NanumGothic-7e" d="M 3635 2310 
Q 3686 2240 3686 2217 
Q 3686 2195 3635 2112 
Q 3328 1600 2842 1600 
Q 2598 1600 2054 1843 
Q 1517 2099 1376 2099 
Q 1139 2099 845 1709 
Q 787 1626 768 1626 
Q 749 1626 691 1709 
L 595 1843 
Q 544 1920 547 1955 
Q 550 1990 602 2080 
Q 909 2560 1382 2560 
Q 1651 2560 2170 2317 
Q 2688 2061 2848 2061 
Q 2976 2061 3113 2166 
Q 3251 2272 3392 2464 
Q 3443 2534 3456 2537 
Q 3469 2541 3520 2470 
L 3635 2310 
z
" transform="scale(0.015625)"/>
     </defs>
     <use xlink:href="#NanumGothic-b3c4"/>
     <use xlink:href="#NanumGothic-d615" transform="translate(93.999985 0)"/>
     <use xlink:href="#NanumGothic-c758" transform="translate(187.999969 0)"/>
     <use xlink:href="#NanumGothic-20" transform="translate(281.999954 0)"/>
     <use xlink:href="#NanumGothic-adf8" transform="translate(309.999939 0)"/>
     <use xlink:href="#NanumGothic-b9bc" transform="translate(403.999924 0)"/>
     <use xlink:href="#NanumGothic-c790" transform="translate(497.999908 0)"/>
     <use xlink:href="#NanumGothic-20" transform="translate(591.999893 0)"/>
     <use xlink:href="#NanumGothic-ad6c" transform="translate(619.999878 0)"/>
     <use xlink:href="#NanumGothic-ac04" transform="translate(713.999863 0)"/>
     <use xlink:href="#NanumGothic-20" transform="translate(807.999847 0)"/>
     <use xlink:href="#NanumGothic-3d" transform="translate(835.999832 0)"/>
     <use xlink:href="#NanumGothic-20" transform="translate(901.399826 0)"/>
     <use xlink:href="#NanumGothic-6d" transform="translate(929.399811 0)"/>
     <use xlink:href="#NanumGothic-69" transform="translate(1020.199799 0)"/>
     <use xlink:href="#NanumGothic-6e" transform="translate(1044.399796 0)"/>
     <use xlink:href="#NanumGothic-20" transform="translate(1104.999786 0)"/>
     <use xlink:href="#NanumGothic-7e" transform="translate(1132.999771 0)"/>
     <use xlink:href="#NanumGothic-20" transform="translate(1198.399765 0)"/>
     <use xlink:href="#NanumGothic-6d" transform="translate(1226.39975 0)"/>
     <use xlink:href="#NanumGothic-61" transform="translate(1317.199738 0)"/>
     <use xlink:href="#NanumGothic-78" transform="translate(1371.699722 0)"/>
    </g>
   </g>
  </g>
 </g>
 <defs>
  <clipPath id="p629f107437">
   <rect x="8.64" y="28.664531" width="446.4" height="230.64"/>
  </clipPath>
 </defs>
</svg>
