<?xml version="1.0" encoding="utf-8" standalone="no"?>
<!DOCTYPE svg PUBLIC "-//W3C//DTD SVG 1.1//EN"
  "http://www.w3.org/Graphics/SVG/1.1/DTD/svg11.dtd">
<svg xmlns:xlink="http://www.w3.org/1999/xlink" width="413.28pt" height="259.424531pt" viewBox="0 0 413.28 259.424531" xmlns="http://www.w3.org/2000/svg" version="1.1">
 <metadata>
  <rdf:RDF xmlns:dc="http://purl.org/dc/elements/1.1/" xmlns:cc="http://creativecommons.org/ns#" xmlns:rdf="http://www.w3.org/1999/02/22-rdf-syntax-ns#">
   <cc:Work>
    <dc:type rdf:resource="http://purl.org/dc/dcmitype/StillImage"/>
    <dc:date>2026-07-08T05:12:56.307369</dc:date>
    <dc:format>image/svg+xml</dc:format>
    <dc:creator>
     <cc:Agent>
      <dc:title>Matplotlib v3.10.8, https://matplotlib.org/</dc:title>
     </cc:Agent>
    </dc:creator>
   </cc:Work>
  </rdf:RDF>
 </metadata>
 <defs>
  <style type="text/css">*{stroke-linejoin: round; stroke-linecap: butt}</style>
 </defs>
 <g id="figure_1">
  <g id="patch_1">
   <path d="M 0 259.424531 
L 413.28 259.424531 
L 413.28 0 
L 0 0 
z
" style="fill: #ffffff"/>
  </g>
  <g id="axes_1">
   <g id="patch_2">
    <path d="M 56.16 195.344531 
L 214.56 195.344531 
L 214.56 88.424531 
L 56.16 88.424531 
L 56.16 195.344531 
z
" clip-path="url(#p3cdb262e3e)" style="fill: none; stroke: #2563eb; stroke-width: 2.2; stroke-linejoin: miter"/>
   </g>
   <g id="patch_3">
    <path d="M 285.84 179.504531 
C 296.342043 179.504531 306.415363 175.332025 313.841429 167.90596 
C 321.267494 160.479894 325.44 150.406574 325.44 139.904531 
C 325.44 129.402488 321.267494 119.329168 313.841429 111.903103 
C 306.415363 104.477037 296.342043 100.304531 285.84 100.304531 
C 275.337957 100.304531 265.264637 104.477037 257.838571 111.903103 
C 250.412506 119.329168 246.24 129.402488 246.24 139.904531 
C 246.24 150.406574 250.412506 160.479894 257.838571 167.90596 
C 265.264637 175.332025 275.337957 179.504531 285.84 179.504531 
L 285.84 179.504531 
z
" clip-path="url(#p3cdb262e3e)" style="fill: none; stroke: #10b981; stroke-width: 2.2; stroke-linejoin: miter"/>
   </g>
   <g id="line2d_1">
    <defs>
     <path id="m3b7fc1b07d" d="M 0 3 
C 0.795609 3 1.55874 2.683901 2.12132 2.12132 
C 2.683901 1.55874 3 0.795609 3 0 
C 3 -0.795609 2.683901 -1.55874 2.12132 -2.12132 
C 1.55874 -2.683901 0.795609 -3 0 -3 
C -0.795609 -3 -1.55874 -2.683901 -2.12132 -2.12132 
C -2.683901 -1.55874 -3 -0.795609 -3 0 
C -3 0.795609 -2.683901 1.55874 -2.12132 2.12132 
C -1.55874 2.683901 -0.795609 3 0 3 
z
" style="stroke: #ef4444"/>
    </defs>
    <g clip-path="url(#p3cdb262e3e)">
     <use xlink:href="#m3b7fc1b07d" x="214.56" y="139.904531" style="fill: #ef4444; stroke: #ef4444"/>
    </g>
   </g>
   <g id="line2d_2">
    <defs>
     <path id="ma5b56c3193" d="M 0 2.5 
C 0.663008 2.5 1.29895 2.236584 1.767767 1.767767 
C 2.236584 1.29895 2.5 0.663008 2.5 0 
C 2.5 -0.663008 2.236584 -1.29895 1.767767 -1.767767 
C 1.29895 -2.236584 0.663008 -2.5 0 -2.5 
C -0.663008 -2.5 -1.29895 -2.236584 -1.767767 -1.767767 
C -2.236584 -1.29895 -2.5 -0.663008 -2.5 0 
C -2.5 0.663008 -2.236584 1.29895 -1.767767 1.767767 
C -1.29895 2.236584 -0.663008 2.5 0 2.5 
z
" style="stroke: #10b981"/>
    </defs>
    <g clip-path="url(#p3cdb262e3e)">
     <use xlink:href="#ma5b56c3193" x="285.84" y="139.904531" style="fill: #10b981; stroke: #10b981"/>
    </g>
   </g>
   <g id="text_1">
    <!-- 원 vs 박스: 가장 가까운 점 찾기 -->
    <g style="fill: #111827" transform="translate(8.64 20.054062) scale(0.15 -0.15)">
     <defs>
      <path id="NanumGothicBold-c6d0" d="M 2182 4410 
Q 2029 4410 1888 4362 
Q 1747 4314 1644 4234 
Q 1542 4154 1481 4042 
Q 1421 3930 1421 3802 
Q 1421 3667 1481 3555 
Q 1542 3443 1644 3363 
Q 1747 3283 1888 3235 
Q 2029 3187 2182 3187 
Q 2342 3187 2480 3235 
Q 2618 3283 2723 3363 
Q 2829 3443 2889 3555 
Q 2950 3667 2950 3802 
Q 2950 3930 2889 4042 
Q 2829 4154 2723 4234 
Q 2618 4314 2480 4362 
Q 2342 4410 2182 4410 
z
M 2182 4973 
Q 2509 4973 2781 4880 
Q 3053 4787 3248 4630 
Q 3443 4474 3552 4262 
Q 3661 4051 3661 3814 
Q 3661 3565 3552 3347 
Q 3443 3130 3248 2973 
Q 3053 2816 2781 2723 
Q 2509 2630 2182 2630 
Q 1856 2630 1587 2723 
Q 1318 2816 1123 2973 
Q 928 3130 822 3347 
Q 717 3565 717 3814 
Q 717 4051 822 4262 
Q 928 4474 1123 4630 
Q 1318 4787 1587 4880 
Q 1856 4973 2182 4973 
z
M 5274 371 
Q 5274 282 5190 282 
L 4621 282 
Q 4538 282 4538 371 
L 4538 954 
L 3443 954 
Q 3411 954 3382 979 
Q 3354 1005 3354 1037 
L 3354 1440 
Q 3354 1472 3382 1494 
Q 3411 1517 3443 1517 
L 4538 1517 
L 4538 4979 
Q 4538 5062 4621 5062 
L 5190 5062 
Q 5274 5062 5274 4979 
L 5274 371 
z
M 4320 2035 
Q 4326 1984 4297 1955 
Q 4269 1926 4237 1914 
Q 4058 1882 3840 1859 
Q 3622 1837 3392 1817 
Q 3162 1798 2934 1782 
Q 2707 1766 2509 1760 
L 2509 838 
Q 2509 800 2480 771 
Q 2451 742 2413 742 
L 1882 742 
Q 1843 742 1814 771 
Q 1786 800 1786 838 
L 1786 1709 
Q 1594 1702 1392 1699 
Q 1190 1696 998 1689 
Q 806 1683 633 1683 
Q 461 1683 333 1690 
Q 294 1690 268 1722 
Q 243 1754 243 1792 
L 243 2189 
Q 243 2227 268 2256 
Q 294 2285 333 2285 
Q 774 2285 1296 2294 
Q 1818 2304 2336 2326 
Q 2854 2349 3334 2384 
Q 3814 2419 4166 2470 
Q 4198 2477 4233 2457 
Q 4269 2438 4275 2400 
L 4320 2035 
z
M 5414 -826 
Q 5414 -864 5385 -883 
Q 5357 -902 5325 -902 
L 1696 -902 
Q 1402 -902 1302 -800 
Q 1203 -698 1203 -448 
L 1203 467 
Q 1203 499 1232 528 
Q 1261 557 1293 557 
L 1843 557 
Q 1882 557 1910 528 
Q 1939 499 1939 467 
L 1939 -186 
Q 1939 -250 1964 -269 
Q 1990 -288 2061 -288 
L 5325 -288 
Q 5357 -288 5385 -313 
Q 5414 -339 5414 -371 
L 5414 -826 
z
" transform="scale(0.015625)"/>
      <path id="NanumGothicBold-20" transform="scale(0.015625)"/>
      <path id="NanumGothicBold-76" d="M 1920 -250 
Q 1907 -288 1894 -297 
Q 1882 -307 1843 -307 
L 1293 -307 
Q 1254 -307 1238 -297 
Q 1222 -288 1210 -250 
L 45 3149 
Q 32 3181 45 3200 
Q 58 3219 128 3219 
L 685 3219 
Q 717 3219 736 3209 
Q 755 3200 768 3168 
L 1568 755 
L 2362 3168 
Q 2374 3200 2396 3209 
Q 2419 3219 2451 3219 
L 3014 3219 
Q 3085 3219 3097 3200 
Q 3110 3181 3098 3149 
L 1920 -250 
z
" transform="scale(0.015625)"/>
      <path id="NanumGothicBold-73" d="M 2099 -186 
Q 1754 -416 1280 -416 
Q 1152 -416 1011 -403 
Q 870 -390 739 -371 
Q 608 -352 505 -326 
Q 403 -301 346 -275 
Q 320 -262 291 -240 
Q 262 -218 269 -166 
L 307 250 
Q 314 314 326 326 
Q 339 339 410 320 
Q 621 256 848 227 
Q 1075 198 1254 198 
Q 1536 198 1673 339 
Q 1811 480 1811 666 
Q 1811 768 1740 873 
Q 1670 979 1504 1088 
Q 1331 1190 1145 1296 
Q 960 1402 781 1504 
Q 576 1626 438 1827 
Q 301 2029 301 2272 
Q 301 2541 397 2736 
Q 493 2931 653 3062 
Q 813 3194 1021 3254 
Q 1229 3315 1459 3315 
Q 1581 3315 1712 3302 
Q 1843 3290 1968 3267 
Q 2093 3245 2192 3216 
Q 2291 3187 2342 3155 
Q 2374 3136 2377 3120 
Q 2381 3104 2374 3072 
L 2336 2662 
Q 2330 2592 2304 2582 
Q 2278 2573 2208 2586 
Q 2086 2630 1933 2669 
Q 1843 2682 1744 2694 
Q 1645 2707 1498 2707 
Q 1235 2707 1126 2585 
Q 1018 2464 1018 2291 
Q 1018 2189 1139 2073 
Q 1261 1958 1446 1862 
Q 1645 1766 1814 1664 
Q 1984 1562 2067 1498 
Q 2298 1331 2413 1136 
Q 2528 941 2528 666 
Q 2528 128 2099 -186 
z
" transform="scale(0.015625)"/>
      <path id="NanumGothicBold-bc15" d="M 4998 -909 
Q 4998 -941 4969 -969 
Q 4941 -998 4909 -998 
L 4358 -998 
Q 4320 -998 4291 -969 
Q 4262 -941 4262 -909 
L 4262 544 
Q 4262 614 4236 633 
Q 4211 653 4147 653 
L 1254 653 
Q 1222 653 1190 675 
Q 1158 698 1158 730 
L 1158 1184 
Q 1158 1229 1190 1248 
Q 1222 1267 1254 1267 
L 4576 1267 
Q 4819 1267 4908 1164 
Q 4998 1062 4998 819 
L 4998 -909 
z
M 5965 3059 
Q 5965 3027 5936 3001 
Q 5907 2976 5875 2976 
L 5005 2976 
L 5005 1670 
Q 5005 1587 4922 1587 
L 4352 1587 
Q 4269 1587 4269 1677 
L 4269 4979 
Q 4269 5062 4352 5062 
L 4922 5062 
Q 5005 5062 5005 4979 
L 5005 3590 
L 5875 3590 
Q 5907 3590 5936 3568 
Q 5965 3546 5965 3514 
L 5965 3059 
z
M 2688 3283 
L 1331 3283 
L 1331 2637 
Q 1331 2528 1446 2528 
L 2573 2528 
Q 2688 2528 2688 2637 
L 2688 3283 
z
M 3418 2355 
Q 3418 2138 3315 2032 
Q 3213 1926 2938 1926 
L 1088 1926 
Q 806 1926 704 2022 
Q 602 2118 602 2374 
L 602 4749 
Q 602 4781 627 4806 
Q 653 4832 685 4832 
L 1242 4832 
Q 1274 4832 1302 4806 
Q 1331 4781 1331 4749 
L 1331 3878 
L 2688 3878 
L 2688 4755 
Q 2688 4787 2713 4816 
Q 2739 4845 2771 4845 
L 3334 4845 
Q 3366 4845 3392 4816 
Q 3418 4787 3418 4755 
L 3418 2355 
z
" transform="scale(0.015625)"/>
      <path id="NanumGothicBold-c2a4" d="M 902 1760 
Q 870 1747 828 1756 
Q 787 1766 755 1818 
L 525 2214 
Q 499 2266 521 2307 
Q 544 2349 589 2362 
Q 1069 2541 1430 2749 
Q 1792 2957 2045 3225 
Q 2298 3494 2442 3840 
Q 2586 4186 2630 4640 
Q 2637 4685 2659 4729 
Q 2682 4774 2733 4768 
L 3290 4742 
Q 3398 4736 3392 4602 
Q 3386 4435 3354 4288 
Q 3430 3981 3622 3699 
Q 3814 3418 4092 3184 
Q 4371 2950 4710 2771 
Q 5050 2592 5414 2490 
Q 5459 2477 5468 2435 
Q 5478 2394 5466 2362 
L 5248 1952 
Q 5197 1856 5094 1882 
Q 4800 1958 4502 2099 
Q 4205 2240 3929 2429 
Q 3654 2618 3424 2851 
Q 3194 3085 3034 3354 
Q 2714 2790 2166 2393 
Q 1619 1997 902 1760 
z
M 5786 685 
Q 5818 685 5850 653 
Q 5882 621 5882 582 
L 5882 166 
Q 5882 134 5850 102 
Q 5818 70 5786 70 
L 211 70 
Q 173 70 147 102 
Q 122 134 122 166 
L 122 582 
Q 122 685 211 685 
L 5786 685 
z
" transform="scale(0.015625)"/>
      <path id="NanumGothicBold-3a" d="M 1011 3053 
Q 806 3053 662 3197 
Q 518 3341 518 3533 
Q 518 3731 662 3875 
Q 806 4019 1011 4019 
Q 1216 4019 1357 3875 
Q 1498 3731 1498 3533 
Q 1498 3341 1357 3197 
Q 1216 3053 1011 3053 
z
M 1011 141 
Q 806 141 662 285 
Q 518 429 518 627 
Q 518 819 662 963 
Q 806 1107 1011 1107 
Q 1216 1107 1357 963 
Q 1498 819 1498 627 
Q 1498 429 1357 285 
Q 1216 141 1011 141 
z
" transform="scale(0.015625)"/>
      <path id="NanumGothicBold-ac00" d="M 3379 4102 
Q 3334 3520 3142 2979 
Q 2950 2438 2614 1958 
Q 2278 1478 1804 1062 
Q 1331 646 736 320 
Q 685 294 630 297 
Q 576 301 544 352 
L 288 710 
Q 256 762 269 813 
Q 282 864 326 896 
Q 1280 1402 1869 2144 
Q 2458 2886 2586 3757 
Q 2605 3885 2569 3926 
Q 2534 3968 2419 3968 
L 614 3968 
Q 531 3968 531 4058 
L 531 4506 
Q 531 4582 614 4582 
L 2925 4582 
Q 3213 4582 3305 4464 
Q 3398 4346 3379 4102 
z
M 5971 2202 
Q 5971 2163 5942 2137 
Q 5914 2112 5875 2112 
L 5011 2112 
L 5011 -928 
Q 5011 -1011 4928 -1011 
L 4358 -1011 
Q 4275 -1011 4275 -928 
L 4275 4979 
Q 4275 5062 4358 5062 
L 4928 5062 
Q 5011 5062 5011 4979 
L 5011 2726 
L 5875 2726 
Q 5914 2726 5942 2704 
Q 5971 2682 5971 2650 
L 5971 2202 
z
" transform="scale(0.015625)"/>
      <path id="NanumGothicBold-c7a5" d="M 5075 205 
Q 5075 -64 4928 -291 
Q 4781 -518 4525 -681 
Q 4269 -845 3913 -934 
Q 3558 -1024 3149 -1024 
Q 2707 -1024 2355 -934 
Q 2003 -845 1756 -681 
Q 1510 -518 1376 -294 
Q 1242 -70 1242 205 
Q 1242 474 1376 698 
Q 1510 922 1756 1085 
Q 2003 1248 2355 1337 
Q 2707 1427 3149 1427 
Q 3558 1427 3913 1337 
Q 4269 1248 4525 1088 
Q 4781 928 4928 704 
Q 5075 480 5075 205 
z
M 723 1619 
Q 678 1600 617 1600 
Q 557 1600 518 1670 
L 320 1990 
Q 288 2042 304 2099 
Q 320 2157 384 2189 
Q 1094 2515 1622 2985 
Q 2150 3456 2406 3987 
Q 2438 4045 2432 4089 
Q 2426 4134 2323 4134 
L 717 4134 
Q 672 4134 649 4166 
Q 627 4198 627 4237 
L 627 4659 
Q 627 4749 723 4749 
L 2778 4749 
Q 3059 4749 3196 4646 
Q 3334 4544 3302 4333 
Q 3290 4262 3270 4185 
Q 3251 4109 3226 4051 
Q 3149 3846 3024 3638 
Q 2899 3430 2746 3226 
Q 2861 3110 3001 2995 
Q 3142 2880 3289 2777 
Q 3437 2675 3581 2588 
Q 3725 2502 3853 2438 
Q 3923 2406 3942 2371 
Q 3962 2336 3917 2272 
L 3706 1914 
Q 3635 1798 3514 1869 
Q 3398 1920 3248 2013 
Q 3098 2106 2938 2224 
Q 2778 2342 2618 2473 
Q 2458 2605 2323 2739 
Q 1984 2406 1574 2118 
Q 1165 1830 723 1619 
z
M 5971 2989 
Q 5971 2957 5942 2931 
Q 5914 2906 5875 2906 
L 5011 2906 
L 5011 1600 
Q 5011 1568 4985 1539 
Q 4960 1510 4928 1510 
L 4358 1510 
Q 4326 1510 4300 1539 
Q 4275 1568 4275 1606 
L 4275 4979 
Q 4275 5062 4358 5062 
L 4928 5062 
Q 5011 5062 5011 4979 
L 5011 3520 
L 5875 3520 
Q 5914 3520 5942 3494 
Q 5971 3469 5971 3437 
L 5971 2989 
z
M 4320 186 
Q 4320 346 4224 467 
Q 4128 589 3968 672 
Q 3808 755 3597 800 
Q 3386 845 3149 845 
Q 2637 845 2320 675 
Q 2003 506 2003 186 
Q 2003 32 2089 -83 
Q 2176 -198 2326 -278 
Q 2477 -358 2688 -400 
Q 2899 -442 3149 -442 
Q 3386 -442 3597 -400 
Q 3808 -358 3968 -278 
Q 4128 -198 4224 -83 
Q 4320 32 4320 186 
z
" transform="scale(0.015625)"/>
      <path id="NanumGothicBold-ae4c" d="M 3750 4134 
Q 3750 3642 3651 3120 
Q 3552 2598 3353 2089 
Q 3155 1581 2860 1107 
Q 2566 634 2182 243 
Q 2150 211 2089 198 
Q 2029 186 1984 224 
L 1664 499 
Q 1619 538 1635 602 
Q 1651 666 1677 691 
Q 1971 998 2217 1382 
Q 2464 1766 2643 2179 
Q 2822 2592 2921 3011 
Q 3021 3430 3021 3795 
Q 3021 3923 2998 3964 
Q 2976 4006 2867 4006 
L 2266 4006 
Q 2176 4006 2176 4096 
L 2176 4493 
Q 2176 4570 2266 4570 
L 3302 4570 
Q 3552 4570 3651 4474 
Q 3750 4378 3750 4134 
z
M 5971 2176 
Q 5971 2144 5942 2118 
Q 5914 2093 5882 2093 
L 5011 2093 
L 5011 -928 
Q 5011 -1011 4928 -1011 
L 4384 -1011 
Q 4301 -1011 4301 -928 
L 4301 4979 
Q 4301 5062 4384 5062 
L 4928 5062 
Q 5011 5062 5011 4979 
L 5011 2707 
L 5882 2707 
Q 5914 2707 5942 2684 
Q 5971 2662 5971 2630 
L 5971 2176 
z
M 2003 4109 
Q 2003 3712 1913 3289 
Q 1824 2867 1648 2454 
Q 1472 2042 1216 1651 
Q 960 1261 627 928 
Q 582 883 518 873 
Q 454 864 410 909 
L 128 1158 
Q 90 1203 96 1257 
Q 102 1312 134 1344 
Q 397 1594 611 1917 
Q 826 2240 979 2576 
Q 1133 2912 1219 3229 
Q 1306 3546 1306 3795 
Q 1306 3923 1283 3964 
Q 1261 4006 1146 4006 
L 390 4006 
Q 307 4006 307 4096 
L 307 4493 
Q 307 4570 390 4570 
L 1549 4570 
Q 1805 4570 1904 4461 
Q 2003 4352 2003 4109 
z
" transform="scale(0.015625)"/>
      <path id="NanumGothicBold-c6b4" d="M 3014 2624 
Q 2566 2624 2192 2704 
Q 1818 2784 1549 2934 
Q 1280 3085 1129 3302 
Q 979 3520 979 3795 
Q 979 4070 1129 4291 
Q 1280 4512 1549 4662 
Q 1818 4813 2192 4893 
Q 2566 4973 3014 4973 
Q 3462 4973 3833 4893 
Q 4205 4813 4473 4662 
Q 4742 4512 4892 4291 
Q 5043 4070 5043 3795 
Q 5043 3520 4892 3302 
Q 4742 3085 4473 2934 
Q 4205 2784 3833 2704 
Q 3462 2624 3014 2624 
z
M 3014 4384 
Q 2733 4384 2502 4339 
Q 2272 4294 2102 4217 
Q 1933 4141 1840 4032 
Q 1747 3923 1747 3795 
Q 1747 3667 1840 3558 
Q 1933 3450 2102 3373 
Q 2272 3296 2502 3254 
Q 2733 3213 3014 3213 
Q 3290 3213 3520 3254 
Q 3750 3296 3920 3373 
Q 4090 3450 4182 3558 
Q 4275 3667 4275 3795 
Q 4275 3923 4182 4032 
Q 4090 4141 3920 4217 
Q 3750 4294 3520 4339 
Q 3290 4384 3014 4384 
z
M 5882 1645 
Q 5882 1613 5850 1577 
Q 5818 1542 5786 1542 
L 3418 1542 
L 3418 371 
Q 3418 282 3328 282 
L 2771 282 
Q 2682 282 2682 371 
L 2682 1542 
L 211 1542 
Q 173 1542 147 1577 
Q 122 1613 122 1645 
L 122 2061 
Q 122 2099 147 2128 
Q 173 2157 211 2157 
L 5786 2157 
Q 5818 2157 5850 2125 
Q 5882 2093 5882 2061 
L 5882 1645 
z
M 5184 -781 
Q 5184 -819 5155 -838 
Q 5126 -858 5088 -858 
L 1466 -858 
Q 1178 -858 1078 -755 
Q 979 -653 979 -403 
L 979 954 
Q 979 986 1008 1014 
Q 1037 1043 1069 1043 
L 1619 1043 
Q 1658 1043 1686 1014 
Q 1715 986 1715 954 
L 1715 -141 
Q 1715 -205 1740 -224 
Q 1766 -243 1830 -243 
L 5088 -243 
Q 5120 -243 5152 -265 
Q 5184 -288 5184 -320 
L 5184 -781 
z
" transform="scale(0.015625)"/>
      <path id="NanumGothicBold-c810" d="M 5286 -467 
Q 5286 -710 5177 -812 
Q 5069 -915 4826 -915 
L 2029 -915 
Q 1734 -915 1603 -812 
Q 1472 -710 1472 -461 
L 1472 806 
Q 1472 1050 1577 1158 
Q 1683 1267 1926 1267 
L 4794 1267 
Q 5082 1267 5184 1161 
Q 5286 1056 5286 800 
L 5286 -467 
z
M 781 1600 
Q 742 1574 678 1577 
Q 614 1581 576 1651 
L 390 1965 
Q 358 2016 371 2073 
Q 384 2131 448 2157 
Q 806 2317 1126 2525 
Q 1446 2733 1705 2969 
Q 1965 3206 2157 3465 
Q 2349 3725 2451 3987 
Q 2477 4045 2473 4089 
Q 2470 4134 2368 4134 
L 781 4134 
Q 691 4134 691 4237 
L 691 4659 
Q 691 4698 720 4723 
Q 749 4749 787 4749 
L 2810 4749 
Q 3091 4749 3228 4646 
Q 3366 4544 3334 4333 
Q 3322 4262 3299 4185 
Q 3277 4109 3258 4051 
Q 3098 3597 2784 3162 
Q 2899 3046 3040 2928 
Q 3181 2810 3331 2707 
Q 3482 2605 3629 2515 
Q 3776 2426 3904 2368 
Q 4038 2304 3955 2176 
L 3757 1837 
Q 3725 1786 3680 1773 
Q 3635 1760 3565 1792 
Q 3450 1850 3296 1942 
Q 3142 2035 2979 2156 
Q 2816 2278 2656 2412 
Q 2496 2547 2362 2682 
Q 2035 2362 1638 2090 
Q 1242 1818 781 1600 
z
M 3450 3130 
L 3450 3578 
Q 3450 3610 3478 3632 
Q 3507 3654 3539 3654 
L 4544 3654 
L 4544 4979 
Q 4544 5062 4634 5062 
L 5197 5062 
Q 5229 5062 5257 5036 
Q 5286 5011 5286 4979 
L 5286 1670 
Q 5286 1638 5257 1609 
Q 5229 1581 5197 1581 
L 4634 1581 
Q 4595 1581 4569 1609 
Q 4544 1638 4544 1670 
L 4544 3053 
L 3539 3053 
Q 3507 3053 3478 3075 
Q 3450 3098 3450 3130 
z
M 4550 589 
Q 4550 646 4534 662 
Q 4518 678 4467 678 
L 2285 678 
Q 2234 678 2218 665 
Q 2202 653 2202 595 
L 2202 -243 
Q 2202 -301 2218 -313 
Q 2234 -326 2285 -326 
L 4467 -326 
Q 4518 -326 4534 -313 
Q 4550 -301 4550 -243 
L 4550 589 
z
" transform="scale(0.015625)"/>
      <path id="NanumGothicBold-cc3e" d="M 4672 307 
Q 4474 115 4141 -64 
Q 4429 -160 4777 -243 
Q 5126 -326 5395 -384 
Q 5523 -416 5485 -525 
L 5350 -883 
Q 5318 -966 5190 -947 
Q 5005 -909 4781 -851 
Q 4557 -794 4323 -726 
Q 4090 -659 3856 -582 
Q 3622 -506 3411 -429 
Q 2931 -621 2403 -771 
Q 1875 -922 1376 -1005 
Q 1306 -1018 1267 -1002 
Q 1229 -986 1203 -928 
L 1069 -576 
Q 1050 -525 1078 -486 
Q 1107 -448 1152 -435 
Q 1542 -358 1923 -262 
Q 2304 -166 2646 -57 
Q 2989 51 3277 172 
Q 3565 294 3776 416 
Q 3872 480 3872 521 
Q 3872 563 3725 563 
L 1498 563 
Q 1466 563 1443 585 
Q 1421 608 1421 646 
L 1421 1069 
Q 1421 1139 1498 1139 
L 4352 1139 
Q 4691 1139 4828 1052 
Q 4966 966 4966 826 
Q 4966 717 4892 579 
Q 4819 442 4672 307 
z
M 3360 3789 
Q 3360 3725 3328 3632 
Q 3296 3539 3258 3462 
Q 3098 3123 2765 2771 
Q 2874 2682 3005 2589 
Q 3136 2496 3270 2413 
Q 3405 2330 3536 2262 
Q 3667 2195 3782 2150 
Q 3853 2125 3862 2077 
Q 3872 2029 3840 1971 
L 3661 1670 
Q 3590 1562 3462 1619 
Q 3347 1664 3200 1744 
Q 3053 1824 2899 1923 
Q 2746 2022 2592 2131 
Q 2438 2240 2317 2349 
Q 1971 2067 1555 1817 
Q 1139 1568 672 1376 
Q 640 1363 582 1369 
Q 525 1376 493 1434 
L 314 1766 
Q 282 1818 307 1866 
Q 333 1914 384 1933 
Q 736 2080 1059 2265 
Q 1382 2451 1648 2649 
Q 1914 2848 2109 3046 
Q 2304 3245 2394 3418 
Q 2419 3462 2422 3491 
Q 2426 3520 2323 3520 
L 672 3520 
Q 634 3520 611 3549 
Q 589 3578 589 3616 
L 589 4019 
Q 589 4096 685 4096 
L 2829 4096 
Q 3085 4096 3222 4029 
Q 3360 3962 3360 3789 
z
M 5971 2822 
Q 5971 2790 5942 2764 
Q 5914 2739 5875 2739 
L 5011 2739 
L 5011 1549 
Q 5011 1459 4928 1459 
L 4358 1459 
Q 4275 1459 4275 1555 
L 4275 4979 
Q 4275 5062 4358 5062 
L 4928 5062 
Q 5011 5062 5011 4979 
L 5011 3354 
L 5875 3354 
Q 5914 3354 5942 3331 
Q 5971 3309 5971 3277 
L 5971 2822 
z
M 2816 4538 
Q 2816 4499 2787 4464 
Q 2758 4429 2714 4429 
L 1216 4429 
Q 1190 4429 1155 4454 
Q 1120 4480 1120 4531 
L 1120 4896 
Q 1120 4941 1155 4966 
Q 1190 4992 1216 4992 
L 2714 4992 
Q 2752 4992 2784 4960 
Q 2816 4928 2816 4890 
L 2816 4538 
z
" transform="scale(0.015625)"/>
      <path id="NanumGothicBold-ae30" d="M 5274 -928 
Q 5274 -1011 5190 -1011 
L 4621 -1011 
Q 4538 -1011 4538 -928 
L 4538 4979 
Q 4538 5062 4621 5062 
L 5190 5062 
Q 5274 5062 5274 4979 
L 5274 -928 
z
M 3546 4102 
Q 3494 3482 3286 2931 
Q 3078 2381 2736 1907 
Q 2394 1434 1926 1030 
Q 1459 627 896 294 
Q 845 262 784 272 
Q 723 282 691 333 
L 474 672 
Q 442 723 454 771 
Q 467 819 512 845 
Q 1466 1408 2038 2144 
Q 2611 2880 2784 3757 
Q 2810 3885 2771 3926 
Q 2733 3968 2611 3968 
L 806 3968 
Q 717 3968 717 4058 
L 717 4506 
Q 717 4582 806 4582 
L 3098 4582 
Q 3386 4582 3475 4464 
Q 3565 4346 3546 4102 
z
" transform="scale(0.015625)"/>
     </defs>
     <use xlink:href="#NanumGothicBold-c6d0"/>
     <use xlink:href="#NanumGothicBold-20" transform="translate(93.999985 0)"/>
     <use xlink:href="#NanumGothicBold-76" transform="translate(121.999969 0)"/>
     <use xlink:href="#NanumGothicBold-73" transform="translate(170.399963 0)"/>
     <use xlink:href="#NanumGothicBold-20" transform="translate(212.799957 0)"/>
     <use xlink:href="#NanumGothicBold-bc15" transform="translate(240.799942 0)"/>
     <use xlink:href="#NanumGothicBold-c2a4" transform="translate(334.799927 0)"/>
     <use xlink:href="#NanumGothicBold-3a" transform="translate(428.799911 0)"/>
     <use xlink:href="#NanumGothicBold-20" transform="translate(459.099899 0)"/>
     <use xlink:href="#NanumGothicBold-ac00" transform="translate(487.099884 0)"/>
     <use xlink:href="#NanumGothicBold-c7a5" transform="translate(581.099869 0)"/>
     <use xlink:href="#NanumGothicBold-20" transform="translate(675.099854 0)"/>
     <use xlink:href="#NanumGothicBold-ac00" transform="translate(703.099838 0)"/>
     <use xlink:href="#NanumGothicBold-ae4c" transform="translate(797.099823 0)"/>
     <use xlink:href="#NanumGothicBold-c6b4" transform="translate(891.099808 0)"/>
     <use xlink:href="#NanumGothicBold-20" transform="translate(985.099792 0)"/>
     <use xlink:href="#NanumGothicBold-c810" transform="translate(1013.099777 0)"/>
     <use xlink:href="#NanumGothicBold-20" transform="translate(1107.099762 0)"/>
     <use xlink:href="#NanumGothicBold-cc3e" transform="translate(1135.099747 0)"/>
     <use xlink:href="#NanumGothicBold-ae30" transform="translate(1229.099731 0)"/>
    </g>
   </g>
   <g id="patch_4">
    <path d="M 216.556919 139.904531 
Q 250.198371 139.904531 281.380148 139.904531 
" clip-path="url(#p3cdb262e3e)" style="fill: none; stroke: #ef4444; stroke-width: 2.2; stroke-linecap: round"/>
    <path d="M 275.780148 137.104531 
L 281.380148 139.904531 
L 275.780148 142.704531 
z
" clip-path="url(#p3cdb262e3e)" style="fill: #ef4444; stroke: #ef4444; stroke-width: 2.2; stroke-linecap: round"/>
   </g>
   <g id="text_2">
    <!-- closest -->
    <g style="fill: #ef4444" transform="translate(216.54 126.984023) scale(0.105 -0.105)">
     <defs>
      <path id="NanumGothic-63" d="M 2816 -301 
Q 2624 -333 2445 -345 
Q 2266 -358 2016 -358 
Q 1619 -358 1308 -217 
Q 998 -77 784 166 
Q 570 410 454 742 
Q 339 1075 339 1459 
Q 339 1850 460 2179 
Q 582 2509 809 2749 
Q 1037 2989 1353 3126 
Q 1670 3264 2067 3264 
Q 2278 3264 2451 3248 
Q 2624 3232 2822 3187 
Q 2912 3162 2906 3066 
L 2886 2861 
Q 2874 2784 2790 2803 
Q 2624 2854 2470 2876 
Q 2317 2899 2131 2899 
Q 1805 2899 1558 2793 
Q 1312 2688 1145 2496 
Q 979 2304 896 2038 
Q 813 1773 813 1459 
Q 813 1171 899 908 
Q 986 646 1149 444 
Q 1312 243 1545 124 
Q 1779 6 2080 6 
Q 2304 6 2451 25 
Q 2598 45 2784 96 
Q 2880 122 2886 51 
L 2906 -186 
Q 2912 -282 2816 -301 
z
" transform="scale(0.015625)"/>
      <path id="NanumGothic-6c" d="M 1056 -186 
Q 1056 -275 966 -275 
L 685 -275 
Q 595 -275 595 -186 
L 595 4723 
Q 595 4813 685 4813 
L 966 4813 
Q 1056 4813 1056 4723 
L 1056 -186 
z
" transform="scale(0.015625)"/>
      <path id="NanumGothic-6f" d="M 3130 1453 
Q 3130 1754 3050 2016 
Q 2970 2278 2829 2483 
Q 2496 2893 1965 2893 
Q 1696 2893 1481 2787 
Q 1267 2682 1101 2483 
Q 954 2278 874 2016 
Q 794 1754 794 1453 
Q 794 1146 874 883 
Q 954 621 1101 422 
Q 1440 6 1965 6 
Q 2234 6 2448 115 
Q 2662 224 2829 422 
Q 2970 621 3050 883 
Q 3130 1146 3130 1453 
z
M 3603 1453 
Q 3603 1075 3494 752 
Q 3386 429 3206 186 
Q 2982 -83 2672 -230 
Q 2362 -378 1965 -378 
Q 1568 -378 1254 -230 
Q 941 -83 717 186 
Q 538 429 432 752 
Q 326 1075 326 1453 
Q 326 2227 717 2720 
Q 1165 3277 1965 3277 
Q 2368 3277 2675 3139 
Q 2982 3002 3206 2720 
Q 3603 2214 3603 1453 
z
" transform="scale(0.015625)"/>
      <path id="NanumGothic-73" d="M 422 147 
Q 813 -13 1229 -13 
Q 1574 -13 1798 156 
Q 2022 326 2022 614 
Q 2022 781 1897 937 
Q 1773 1094 1594 1197 
Q 1395 1306 1187 1405 
Q 979 1504 787 1613 
Q 557 1741 448 1929 
Q 339 2118 339 2323 
Q 339 2560 428 2739 
Q 518 2918 672 3040 
Q 826 3162 1030 3219 
Q 1235 3277 1466 3277 
Q 1709 3277 1888 3251 
Q 2067 3226 2246 3174 
Q 2285 3162 2313 3136 
Q 2342 3110 2336 3066 
L 2317 2874 
Q 2310 2822 2278 2809 
Q 2246 2797 2214 2810 
Q 2054 2867 1894 2889 
Q 1734 2912 1510 2912 
Q 768 2912 768 2323 
Q 768 2195 867 2080 
Q 966 1965 1203 1850 
Q 1408 1747 1606 1654 
Q 1805 1562 2035 1434 
Q 2234 1325 2365 1101 
Q 2496 877 2496 614 
Q 2496 358 2393 172 
Q 2291 -13 2118 -134 
Q 1946 -256 1722 -317 
Q 1498 -378 1261 -378 
Q 1120 -378 1008 -371 
Q 896 -365 797 -352 
Q 698 -339 595 -320 
Q 493 -301 378 -269 
Q 288 -237 294 -154 
L 320 83 
Q 333 186 422 147 
z
" transform="scale(0.015625)"/>
      <path id="NanumGothic-65" d="M 2733 1696 
Q 2733 1958 2681 2163 
Q 2630 2368 2522 2534 
Q 2285 2912 1837 2912 
Q 1376 2912 1088 2528 
Q 973 2355 896 2131 
Q 819 1907 813 1696 
L 2733 1696 
z
M 813 1331 
Q 806 1011 886 764 
Q 966 518 1120 352 
Q 1274 186 1488 96 
Q 1702 6 1965 6 
Q 2221 6 2445 54 
Q 2669 102 2861 211 
Q 2944 250 2944 166 
L 2944 -122 
Q 2944 -179 2874 -211 
Q 2662 -294 2432 -336 
Q 2202 -378 1933 -378 
Q 1146 -378 742 80 
Q 339 538 339 1459 
Q 339 2272 742 2771 
Q 1165 3277 1811 3277 
Q 2170 3277 2432 3149 
Q 2694 3021 2880 2765 
Q 3206 2310 3206 1549 
Q 3206 1466 3203 1421 
Q 3200 1376 3181 1357 
Q 3162 1338 3114 1334 
Q 3066 1331 2976 1331 
L 813 1331 
z
" transform="scale(0.015625)"/>
      <path id="NanumGothic-74" d="M 2208 -282 
Q 1939 -378 1677 -378 
Q 1158 -378 992 -38 
Q 883 192 883 774 
L 883 2816 
L 282 2816 
Q 192 2816 192 2906 
L 192 3098 
Q 192 3187 282 3187 
L 883 3187 
L 883 4051 
Q 883 4147 966 4147 
L 1235 4147 
Q 1318 4147 1318 4051 
L 1318 3187 
L 2029 3187 
Q 2118 3187 2118 3098 
L 2118 2906 
Q 2118 2816 2029 2816 
L 1318 2816 
L 1318 557 
Q 1318 -13 1779 -13 
Q 1958 -13 2182 64 
Q 2214 77 2243 64 
Q 2272 51 2272 13 
L 2285 -154 
Q 2298 -243 2208 -282 
z
" transform="scale(0.015625)"/>
     </defs>
     <use xlink:href="#NanumGothic-63"/>
     <use xlink:href="#NanumGothic-6c" transform="translate(48.399994 0)"/>
     <use xlink:href="#NanumGothic-6f" transform="translate(72.599991 0)"/>
     <use xlink:href="#NanumGothic-73" transform="translate(133.199982 0)"/>
     <use xlink:href="#NanumGothic-65" transform="translate(175.599976 0)"/>
     <use xlink:href="#NanumGothic-73" transform="translate(230.09996 0)"/>
     <use xlink:href="#NanumGothic-74" transform="translate(272.499954 0)"/>
    </g>
   </g>
   <g id="text_3">
    <!-- circle center -->
    <g style="fill: #10b981" transform="translate(256.723008 95.304023) scale(0.105 -0.105)">
     <defs>
      <path id="NanumGothic-69" d="M 1050 -186 
Q 1050 -275 960 -275 
L 678 -275 
Q 589 -275 589 -186 
L 589 3098 
Q 589 3187 678 3187 
L 960 3187 
Q 1050 3187 1050 3098 
L 1050 -186 
z
M 506 4397 
Q 506 4525 595 4617 
Q 685 4710 813 4710 
Q 941 4710 1033 4617 
Q 1126 4525 1126 4397 
Q 1126 4269 1033 4179 
Q 941 4090 813 4090 
Q 685 4090 595 4179 
Q 506 4269 506 4397 
z
" transform="scale(0.015625)"/>
      <path id="NanumGothic-72" d="M 2221 2797 
Q 2106 2835 1914 2835 
Q 1440 2835 1210 2368 
Q 1030 2003 1030 1434 
L 1030 -186 
Q 1030 -275 941 -275 
L 691 -275 
Q 602 -275 602 -186 
L 602 2413 
Q 602 2643 598 2787 
Q 595 2931 589 3098 
Q 589 3187 678 3187 
L 915 3187 
Q 1005 3187 1005 3098 
L 1005 2470 
Q 1318 3277 1926 3277 
Q 2074 3277 2221 3238 
Q 2259 3226 2288 3197 
Q 2317 3168 2317 3117 
L 2317 2848 
Q 2317 2810 2285 2797 
Q 2253 2784 2221 2797 
z
" transform="scale(0.015625)"/>
      <path id="NanumGothic-20" transform="scale(0.015625)"/>
      <path id="NanumGothic-6e" d="M 3334 -186 
Q 3334 -275 3245 -275 
L 2989 -275 
Q 2899 -275 2899 -186 
L 2899 1830 
Q 2899 2419 2688 2665 
Q 2477 2912 2093 2912 
Q 1574 2912 1302 2624 
Q 1030 2336 1030 1818 
L 1030 -186 
Q 1030 -275 941 -275 
L 685 -275 
Q 595 -275 595 -186 
L 595 2374 
Q 595 2650 592 2803 
Q 589 2957 576 3098 
Q 570 3142 598 3164 
Q 627 3187 666 3187 
L 896 3187 
Q 986 3187 986 3098 
L 986 2746 
Q 1165 3021 1417 3149 
Q 1670 3277 2112 3277 
Q 2720 3277 3027 2925 
Q 3334 2573 3334 1933 
L 3334 -186 
z
" transform="scale(0.015625)"/>
     </defs>
     <use xlink:href="#NanumGothic-63"/>
     <use xlink:href="#NanumGothic-69" transform="translate(48.399994 0)"/>
     <use xlink:href="#NanumGothic-72" transform="translate(72.599991 0)"/>
     <use xlink:href="#NanumGothic-63" transform="translate(108.899979 0)"/>
     <use xlink:href="#NanumGothic-6c" transform="translate(157.299973 0)"/>
     <use xlink:href="#NanumGothic-65" transform="translate(181.499969 0)"/>
     <use xlink:href="#NanumGothic-20" transform="translate(235.999954 0)"/>
     <use xlink:href="#NanumGothic-63" transform="translate(263.999939 0)"/>
     <use xlink:href="#NanumGothic-65" transform="translate(312.399933 0)"/>
     <use xlink:href="#NanumGothic-6e" transform="translate(366.899918 0)"/>
     <use xlink:href="#NanumGothic-74" transform="translate(427.499908 0)"/>
     <use xlink:href="#NanumGothic-65" transform="translate(463.799896 0)"/>
     <use xlink:href="#NanumGothic-72" transform="translate(518.299881 0)"/>
    </g>
   </g>
   <g id="text_4">
    <!-- closest와 원 중심 사이 거리가 radius 이하이면 충돌입니다. -->
    <g style="fill: #111827" transform="translate(48.24 235.884023) scale(0.105 -0.105)">
     <defs>
      <path id="NanumGothic-c640" d="M 4090 890 
Q 4192 909 4198 845 
L 4237 621 
Q 4250 544 4154 531 
Q 3936 493 3686 461 
Q 3437 429 3181 400 
Q 2925 371 2669 348 
Q 2413 326 2182 314 
Q 2003 301 1760 294 
Q 1517 288 1254 285 
Q 992 282 742 282 
Q 493 282 307 288 
Q 269 288 240 313 
Q 211 339 211 371 
L 211 589 
Q 211 627 240 649 
Q 269 672 307 672 
Q 442 666 630 662 
Q 819 659 1030 659 
Q 1242 659 1462 665 
Q 1683 672 1882 678 
L 1882 1792 
Q 1594 1824 1354 1942 
Q 1114 2061 938 2246 
Q 762 2432 662 2672 
Q 563 2912 563 3187 
Q 563 3520 678 3782 
Q 794 4045 995 4224 
Q 1197 4403 1475 4499 
Q 1754 4595 2074 4595 
Q 2381 4595 2659 4499 
Q 2938 4403 3149 4220 
Q 3360 4038 3485 3776 
Q 3610 3514 3610 3187 
Q 3610 2918 3514 2684 
Q 3418 2451 3248 2268 
Q 3078 2086 2841 1964 
Q 2605 1843 2323 1805 
L 2323 698 
Q 2534 710 2768 729 
Q 3002 749 3232 771 
Q 3462 794 3683 826 
Q 3904 858 4090 890 
z
M 3162 3194 
Q 3162 3437 3072 3619 
Q 2982 3802 2832 3926 
Q 2682 4051 2483 4115 
Q 2285 4179 2074 4179 
Q 1850 4179 1658 4115 
Q 1466 4051 1322 3926 
Q 1178 3802 1094 3616 
Q 1011 3430 1011 3194 
Q 1011 2963 1091 2780 
Q 1171 2598 1312 2467 
Q 1453 2336 1648 2265 
Q 1843 2195 2074 2195 
Q 2285 2195 2483 2268 
Q 2682 2342 2832 2476 
Q 2982 2611 3072 2793 
Q 3162 2976 3162 3194 
z
M 4928 -806 
Q 4928 -896 4838 -896 
L 4576 -896 
Q 4486 -896 4486 -806 
L 4486 4915 
Q 4486 5005 4576 5005 
L 4838 5005 
Q 4928 5005 4928 4915 
L 4928 2413 
L 5811 2413 
Q 5850 2413 5878 2390 
Q 5907 2368 5907 2330 
L 5907 2112 
Q 5907 2080 5878 2054 
Q 5850 2029 5811 2029 
L 4928 2029 
L 4928 -806 
z
" transform="scale(0.015625)"/>
      <path id="NanumGothic-c6d0" d="M 3642 3699 
Q 3642 3456 3533 3245 
Q 3424 3034 3229 2877 
Q 3034 2720 2765 2627 
Q 2496 2534 2182 2534 
Q 1875 2534 1612 2624 
Q 1350 2714 1158 2874 
Q 966 3034 857 3245 
Q 749 3456 749 3699 
Q 749 3968 857 4185 
Q 966 4403 1158 4556 
Q 1350 4710 1612 4790 
Q 1875 4870 2182 4870 
Q 2477 4870 2739 4787 
Q 3002 4704 3203 4553 
Q 3405 4403 3523 4185 
Q 3642 3968 3642 3699 
z
M 4710 1434 
L 4710 4915 
Q 4710 5005 4800 5005 
L 5062 5005 
Q 5152 5005 5152 4915 
L 5152 339 
Q 5152 250 5062 250 
L 4800 250 
Q 4710 250 4710 339 
L 4710 1050 
L 3430 1050 
Q 3347 1050 3347 1126 
L 3347 1357 
Q 3347 1434 3430 1434 
L 4710 1434 
z
M 3219 3706 
Q 3219 3898 3136 4045 
Q 3053 4192 2912 4291 
Q 2771 4390 2582 4441 
Q 2394 4493 2182 4493 
Q 1965 4493 1779 4441 
Q 1594 4390 1459 4288 
Q 1325 4186 1248 4042 
Q 1171 3898 1171 3706 
Q 1171 3341 1449 3123 
Q 1728 2906 2182 2906 
Q 2394 2906 2582 2966 
Q 2771 3027 2912 3132 
Q 3053 3238 3136 3385 
Q 3219 3533 3219 3706 
z
M 2054 582 
Q 2022 582 1996 611 
Q 1971 640 1971 678 
L 1971 1709 
Q 1773 1696 1549 1689 
Q 1325 1683 1110 1676 
Q 896 1670 707 1667 
Q 518 1664 390 1670 
Q 352 1670 323 1696 
Q 294 1722 294 1754 
L 294 1971 
Q 294 2010 323 2032 
Q 352 2054 390 2054 
Q 576 2054 832 2057 
Q 1088 2061 1357 2067 
Q 1626 2074 1875 2083 
Q 2125 2093 2298 2106 
Q 2522 2118 2797 2144 
Q 3072 2170 3347 2202 
Q 3622 2234 3868 2269 
Q 4115 2304 4282 2336 
Q 4314 2342 4342 2326 
Q 4371 2310 4378 2285 
L 4410 2067 
Q 4416 1990 4333 1971 
Q 3923 1901 3414 1833 
Q 2906 1766 2413 1734 
L 2413 678 
Q 2413 640 2390 611 
Q 2368 582 2330 582 
L 2054 582 
z
M 5306 -704 
Q 5306 -742 5274 -761 
Q 5242 -781 5210 -781 
L 1728 -781 
Q 1427 -781 1334 -669 
Q 1242 -557 1242 -294 
L 1242 512 
Q 1242 602 1331 602 
L 1594 602 
Q 1683 602 1683 512 
L 1683 -262 
Q 1683 -352 1712 -374 
Q 1741 -397 1830 -397 
L 5210 -397 
Q 5242 -397 5274 -419 
Q 5306 -442 5306 -474 
L 5306 -704 
z
" transform="scale(0.015625)"/>
      <path id="NanumGothic-c911" d="M 5728 2310 
Q 5760 2310 5792 2288 
Q 5824 2266 5824 2227 
L 5824 2010 
Q 5824 1978 5792 1952 
Q 5760 1926 5728 1926 
L 3219 1926 
L 3219 1146 
Q 3507 1133 3817 1078 
Q 4128 1024 4390 905 
Q 4653 787 4822 595 
Q 4992 403 4992 109 
Q 4992 -218 4787 -422 
Q 4582 -627 4281 -742 
Q 3981 -858 3632 -899 
Q 3283 -941 2995 -941 
Q 2803 -941 2582 -921 
Q 2362 -902 2141 -860 
Q 1920 -819 1715 -742 
Q 1510 -666 1353 -547 
Q 1197 -429 1101 -269 
Q 1005 -109 1005 109 
Q 1005 397 1174 592 
Q 1344 787 1606 905 
Q 1869 1024 2182 1078 
Q 2496 1133 2778 1146 
L 2778 1926 
L 288 1926 
Q 250 1926 221 1952 
Q 192 1978 192 2010 
L 192 2227 
Q 192 2266 221 2288 
Q 250 2310 288 2310 
L 5728 2310 
z
M 4493 4218 
Q 4160 3904 3590 3610 
Q 3770 3558 3990 3500 
Q 4211 3443 4441 3385 
Q 4672 3328 4902 3277 
Q 5133 3226 5331 3187 
Q 5414 3168 5389 3098 
L 5299 2886 
Q 5267 2816 5184 2835 
Q 4966 2874 4697 2938 
Q 4429 3002 4150 3075 
Q 3872 3149 3600 3225 
Q 3328 3302 3098 3379 
Q 2592 3168 2013 3005 
Q 1434 2842 832 2739 
Q 774 2726 752 2748 
Q 730 2771 717 2810 
L 659 3002 
Q 634 3098 710 3104 
Q 1152 3174 1638 3308 
Q 2125 3443 2576 3609 
Q 3027 3776 3404 3958 
Q 3782 4141 4006 4307 
Q 4109 4384 4086 4429 
Q 4064 4474 3974 4474 
L 1210 4474 
Q 1126 4474 1126 4557 
L 1126 4781 
Q 1126 4858 1210 4858 
L 4134 4858 
Q 4627 4858 4716 4688 
Q 4806 4518 4493 4218 
z
M 4525 102 
Q 4525 314 4352 438 
Q 4179 563 3936 633 
Q 3693 704 3433 726 
Q 3174 749 2995 749 
Q 2810 749 2550 726 
Q 2291 704 2051 633 
Q 1811 563 1641 438 
Q 1472 314 1472 102 
Q 1472 -102 1641 -230 
Q 1811 -358 2051 -425 
Q 2291 -493 2550 -515 
Q 2810 -538 2995 -538 
Q 3174 -538 3436 -515 
Q 3699 -493 3939 -425 
Q 4179 -358 4352 -230 
Q 4525 -102 4525 102 
z
" transform="scale(0.015625)"/>
      <path id="NanumGothic-c2ec" d="M 1498 819 
Q 1498 1088 1600 1181 
Q 1702 1274 1984 1274 
L 4666 1274 
Q 4819 1274 4912 1254 
Q 5005 1235 5059 1184 
Q 5114 1133 5133 1043 
Q 5152 954 5152 819 
L 5152 -390 
Q 5152 -659 5049 -752 
Q 4947 -845 4666 -845 
L 1984 -845 
Q 1830 -845 1737 -825 
Q 1645 -806 1590 -752 
Q 1536 -698 1517 -611 
Q 1498 -525 1498 -390 
L 1498 819 
z
M 2093 890 
Q 2003 890 1971 854 
Q 1939 819 1939 723 
L 1939 -294 
Q 1939 -390 1971 -425 
Q 2003 -461 2093 -461 
L 4557 -461 
Q 4646 -461 4678 -425 
Q 4710 -390 4710 -294 
L 4710 723 
Q 4710 819 4678 854 
Q 4646 890 4557 890 
L 2093 890 
z
M 2342 4774 
Q 2342 4307 2246 3904 
Q 2323 3635 2460 3392 
Q 2598 3149 2784 2937 
Q 2970 2726 3190 2556 
Q 3411 2387 3654 2272 
Q 3693 2253 3689 2217 
Q 3686 2182 3674 2157 
L 3539 1946 
Q 3520 1914 3494 1901 
Q 3469 1888 3411 1920 
Q 3264 1997 3075 2128 
Q 2886 2259 2694 2438 
Q 2502 2618 2329 2832 
Q 2157 3046 2042 3277 
Q 1830 2790 1472 2393 
Q 1114 1997 634 1683 
Q 602 1664 563 1657 
Q 525 1651 499 1683 
L 339 1894 
Q 326 1920 336 1958 
Q 346 1997 378 2016 
Q 1139 2483 1523 3193 
Q 1907 3904 1894 4781 
Q 1894 4883 1971 4883 
L 2272 4864 
Q 2342 4864 2342 4774 
z
M 5152 1728 
Q 5152 1638 5062 1638 
L 4800 1638 
Q 4710 1638 4710 1728 
L 4710 4915 
Q 4710 5005 4800 5005 
L 5062 5005 
Q 5152 5005 5152 4915 
L 5152 1728 
z
" transform="scale(0.015625)"/>
      <path id="NanumGothic-c0ac" d="M 2285 4589 
Q 2285 4166 2249 3779 
Q 2214 3392 2138 3034 
Q 2202 2778 2336 2493 
Q 2470 2208 2652 1926 
Q 2835 1645 3062 1379 
Q 3290 1114 3546 902 
Q 3578 877 3581 838 
Q 3584 800 3565 774 
L 3405 576 
Q 3347 506 3270 576 
Q 3091 730 2902 944 
Q 2714 1158 2538 1395 
Q 2362 1632 2208 1881 
Q 2054 2131 1946 2362 
Q 1741 1779 1408 1289 
Q 1075 800 614 378 
Q 550 326 506 371 
L 314 570 
Q 294 589 297 621 
Q 301 653 333 685 
Q 723 1056 1011 1465 
Q 1299 1875 1481 2348 
Q 1664 2822 1750 3379 
Q 1837 3936 1837 4602 
Q 1837 4646 1859 4668 
Q 1882 4691 1914 4691 
L 2214 4678 
Q 2285 4678 2285 4589 
z
M 4928 -806 
Q 4928 -896 4838 -896 
L 4576 -896 
Q 4486 -896 4486 -806 
L 4486 4915 
Q 4486 5005 4576 5005 
L 4838 5005 
Q 4928 5005 4928 4915 
L 4928 2586 
L 5811 2586 
Q 5850 2586 5878 2563 
Q 5907 2541 5907 2502 
L 5907 2285 
Q 5907 2253 5878 2227 
Q 5850 2202 5811 2202 
L 4928 2202 
L 4928 -806 
z
" transform="scale(0.015625)"/>
      <path id="NanumGothic-c774" d="M 3654 2566 
Q 3654 2208 3568 1843 
Q 3482 1478 3296 1184 
Q 3110 890 2819 701 
Q 2528 512 2118 512 
Q 1696 512 1405 697 
Q 1114 883 938 1180 
Q 762 1478 685 1843 
Q 608 2208 608 2566 
Q 608 2944 685 3312 
Q 762 3680 938 3974 
Q 1114 4269 1405 4448 
Q 1696 4627 2118 4627 
Q 2528 4627 2819 4448 
Q 3110 4269 3296 3977 
Q 3482 3686 3568 3318 
Q 3654 2950 3654 2566 
z
M 3200 2573 
Q 3200 2867 3139 3168 
Q 3078 3469 2950 3709 
Q 2822 3949 2617 4099 
Q 2413 4250 2118 4250 
Q 1811 4250 1609 4099 
Q 1408 3949 1286 3709 
Q 1165 3469 1113 3168 
Q 1062 2867 1062 2573 
Q 1062 2291 1110 1993 
Q 1158 1696 1280 1449 
Q 1402 1203 1606 1046 
Q 1811 890 2118 890 
Q 2413 890 2617 1046 
Q 2822 1203 2950 1449 
Q 3078 1696 3139 1993 
Q 3200 2291 3200 2573 
z
M 5152 -806 
Q 5152 -896 5062 -896 
L 4800 -896 
Q 4710 -896 4710 -806 
L 4710 4915 
Q 4710 5005 4800 5005 
L 5062 5005 
Q 5152 5005 5152 4915 
L 5152 -806 
z
" transform="scale(0.015625)"/>
      <path id="NanumGothic-ac70" d="M 4710 2701 
L 4710 4915 
Q 4710 5005 4800 5005 
L 5062 5005 
Q 5152 5005 5152 4915 
L 5152 -806 
Q 5152 -896 5062 -896 
L 4800 -896 
Q 4710 -896 4710 -806 
L 4710 2317 
L 3398 2317 
Q 3315 2317 3315 2394 
L 3315 2624 
Q 3315 2701 3398 2701 
L 4710 2701 
z
M 3392 4064 
Q 3360 3514 3174 2982 
Q 2989 2451 2659 1968 
Q 2330 1485 1866 1072 
Q 1402 659 813 346 
Q 730 301 691 365 
L 550 589 
Q 506 666 576 698 
Q 1120 979 1539 1340 
Q 1958 1702 2256 2124 
Q 2554 2547 2726 3014 
Q 2899 3482 2944 3974 
Q 2957 4070 2918 4105 
Q 2880 4141 2790 4141 
L 755 4141 
Q 678 4141 678 4224 
L 678 4448 
Q 678 4525 755 4525 
L 2912 4525 
Q 3213 4525 3309 4413 
Q 3405 4301 3392 4064 
z
" transform="scale(0.015625)"/>
      <path id="NanumGothic-b9ac" d="M 5152 -806 
Q 5152 -896 5062 -896 
L 4800 -896 
Q 4710 -896 4710 -806 
L 4710 4915 
Q 4710 5005 4800 5005 
L 5062 5005 
Q 5152 5005 5152 4915 
L 5152 -806 
z
M 1210 550 
Q 922 563 822 668 
Q 723 774 723 1043 
L 723 2317 
Q 723 2586 835 2678 
Q 947 2771 1235 2771 
L 2848 2771 
Q 2938 2771 2963 2796 
Q 2989 2822 2989 2918 
L 2989 3994 
Q 2989 4090 2966 4115 
Q 2944 4141 2854 4141 
L 838 4141 
Q 806 4141 777 4160 
Q 749 4179 749 4211 
L 749 4454 
Q 749 4486 777 4505 
Q 806 4525 838 4525 
L 2925 4525 
Q 3078 4525 3174 4502 
Q 3270 4480 3328 4429 
Q 3386 4378 3408 4285 
Q 3430 4192 3430 4058 
L 3430 2842 
Q 3430 2573 3318 2480 
Q 3206 2387 2918 2387 
L 1299 2387 
Q 1210 2387 1187 2361 
Q 1165 2336 1165 2240 
L 1165 1075 
Q 1165 928 1306 928 
Q 2067 915 2768 985 
Q 3469 1056 4128 1203 
Q 4218 1222 4237 1139 
L 4275 928 
Q 4294 845 4192 819 
Q 3853 742 3478 688 
Q 3104 634 2717 598 
Q 2330 563 1946 550 
Q 1562 538 1210 550 
z
" transform="scale(0.015625)"/>
      <path id="NanumGothic-ac00" d="M 3245 4064 
Q 3213 3514 3027 2982 
Q 2842 2451 2512 1968 
Q 2182 1485 1718 1072 
Q 1254 659 666 346 
Q 582 301 544 365 
L 403 589 
Q 358 666 429 698 
Q 973 979 1392 1340 
Q 1811 1702 2108 2124 
Q 2406 2547 2579 3014 
Q 2752 3482 2797 3974 
Q 2810 4070 2771 4105 
Q 2733 4141 2643 4141 
L 659 4141 
Q 582 4141 582 4224 
L 582 4448 
Q 582 4525 659 4525 
L 2765 4525 
Q 3066 4525 3162 4413 
Q 3258 4301 3245 4064 
z
M 4928 -806 
Q 4928 -896 4838 -896 
L 4576 -896 
Q 4486 -896 4486 -806 
L 4486 4915 
Q 4486 5005 4576 5005 
L 4838 5005 
Q 4928 5005 4928 4915 
L 4928 2650 
L 5811 2650 
Q 5850 2650 5878 2627 
Q 5907 2605 5907 2566 
L 5907 2349 
Q 5907 2317 5878 2291 
Q 5850 2266 5811 2266 
L 4928 2266 
L 4928 -806 
z
" transform="scale(0.015625)"/>
      <path id="NanumGothic-61" d="M 2566 1530 
L 2445 1530 
Q 2086 1542 1808 1500 
Q 1530 1459 1344 1389 
Q 1075 1293 940 1104 
Q 806 915 806 653 
Q 806 493 857 355 
Q 909 218 1018 141 
Q 1210 -13 1530 -13 
Q 1754 -13 1942 76 
Q 2131 166 2272 332 
Q 2413 499 2489 745 
Q 2566 992 2566 1312 
L 2566 1530 
z
M 742 2650 
Q 710 2630 681 2640 
Q 653 2650 653 2682 
L 653 2925 
Q 653 3014 742 3059 
Q 966 3181 1219 3229 
Q 1472 3277 1773 3277 
Q 2413 3277 2707 2973 
Q 3002 2669 3002 2054 
L 3002 448 
Q 3002 256 3008 105 
Q 3014 -45 3027 -186 
Q 3027 -275 2938 -275 
L 2707 -275 
Q 2618 -275 2618 -186 
L 2618 307 
Q 2483 -19 2166 -198 
Q 1850 -378 1478 -378 
Q 832 -378 531 0 
Q 429 128 377 297 
Q 326 467 326 634 
Q 326 1024 508 1305 
Q 691 1587 1069 1728 
Q 1530 1894 2483 1894 
L 2566 1894 
L 2566 2086 
Q 2566 2490 2384 2701 
Q 2202 2912 1773 2912 
Q 1485 2912 1229 2851 
Q 973 2790 742 2650 
z
" transform="scale(0.015625)"/>
      <path id="NanumGothic-64" d="M 877 1459 
Q 877 1158 925 912 
Q 973 666 1075 480 
Q 1216 250 1417 128 
Q 1619 6 1901 6 
Q 2157 6 2352 140 
Q 2547 275 2678 483 
Q 2810 691 2874 950 
Q 2938 1210 2938 1459 
Q 2938 1766 2870 2028 
Q 2803 2291 2672 2483 
Q 2541 2675 2349 2784 
Q 2157 2893 1901 2893 
Q 1357 2893 1075 2426 
Q 973 2240 925 1993 
Q 877 1747 877 1459 
z
M 3366 -186 
Q 3366 -275 3277 -275 
L 3027 -275 
Q 2938 -275 2938 -186 
L 2938 294 
Q 2592 -358 1824 -358 
Q 1139 -358 755 166 
Q 403 653 403 1459 
Q 403 3258 1824 3258 
Q 2208 3258 2505 3104 
Q 2803 2950 2938 2707 
L 2938 4723 
Q 2938 4813 3027 4813 
L 3277 4813 
Q 3366 4813 3366 4723 
L 3366 -186 
z
" transform="scale(0.015625)"/>
      <path id="NanumGothic-75" d="M 3347 -186 
Q 3347 -275 3258 -275 
L 3027 -275 
Q 2938 -275 2938 -186 
L 2938 346 
Q 2771 -38 2492 -208 
Q 2214 -378 1792 -378 
Q 595 -378 595 960 
L 595 3098 
Q 595 3187 685 3187 
L 941 3187 
Q 1030 3187 1030 3098 
L 1030 1075 
Q 1030 -13 1862 -13 
Q 2106 -13 2301 92 
Q 2496 198 2630 380 
Q 2765 563 2835 806 
Q 2906 1050 2899 1318 
L 2899 3098 
Q 2899 3187 2989 3187 
L 3245 3187 
Q 3334 3187 3334 3098 
L 3334 525 
Q 3334 314 3337 147 
Q 3341 -19 3347 -186 
z
" transform="scale(0.015625)"/>
      <path id="NanumGothic-d558" d="M 3546 1542 
Q 3546 1280 3440 1056 
Q 3334 832 3148 662 
Q 2963 493 2707 397 
Q 2451 301 2157 301 
Q 1856 301 1603 397 
Q 1350 493 1164 659 
Q 979 826 873 1053 
Q 768 1280 768 1542 
Q 768 1811 873 2038 
Q 979 2266 1164 2432 
Q 1350 2598 1603 2694 
Q 1856 2790 2157 2790 
Q 2451 2790 2707 2691 
Q 2963 2592 3148 2425 
Q 3334 2259 3440 2028 
Q 3546 1798 3546 1542 
z
M 4928 -806 
Q 4928 -896 4838 -896 
L 4576 -896 
Q 4486 -896 4486 -806 
L 4486 4915 
Q 4486 5005 4576 5005 
L 4838 5005 
Q 4928 5005 4928 4915 
L 4928 2554 
L 5811 2554 
Q 5850 2554 5878 2531 
Q 5907 2509 5907 2470 
L 5907 2253 
Q 5907 2221 5878 2195 
Q 5850 2170 5811 2170 
L 4928 2170 
L 4928 -806 
z
M 3110 1542 
Q 3110 1728 3040 1888 
Q 2970 2048 2842 2166 
Q 2714 2285 2538 2352 
Q 2362 2419 2157 2419 
Q 1952 2419 1776 2352 
Q 1600 2285 1472 2166 
Q 1344 2048 1270 1888 
Q 1197 1728 1197 1542 
Q 1197 1357 1270 1200 
Q 1344 1043 1472 924 
Q 1600 806 1776 739 
Q 1952 672 2157 672 
Q 2362 672 2538 739 
Q 2714 806 2842 921 
Q 2970 1037 3040 1197 
Q 3110 1357 3110 1542 
z
M 4026 3328 
Q 4026 3245 3930 3245 
L 397 3245 
Q 365 3245 336 3270 
Q 307 3296 307 3334 
L 307 3539 
Q 307 3578 336 3603 
Q 365 3629 397 3629 
L 3930 3629 
Q 4026 3629 4026 3546 
L 4026 3328 
z
M 3091 4416 
Q 3091 4326 2995 4326 
L 1242 4326 
Q 1210 4326 1181 4348 
Q 1152 4371 1152 4410 
L 1152 4627 
Q 1152 4666 1177 4691 
Q 1203 4717 1235 4717 
L 2995 4717 
Q 3091 4717 3091 4627 
L 3091 4416 
z
" transform="scale(0.015625)"/>
      <path id="NanumGothic-ba74" d="M 5152 877 
Q 5152 787 5062 787 
L 4800 787 
Q 4710 787 4710 877 
L 4710 2381 
L 3443 2381 
L 3443 2227 
Q 3443 1958 3340 1865 
Q 3238 1773 2957 1773 
L 1197 1773 
Q 1043 1773 950 1792 
Q 858 1811 803 1865 
Q 749 1920 729 2006 
Q 710 2093 710 2227 
L 710 4205 
Q 710 4474 812 4566 
Q 915 4659 1197 4659 
L 2957 4659 
Q 3110 4659 3203 4640 
Q 3296 4621 3350 4569 
Q 3405 4518 3424 4428 
Q 3443 4339 3443 4205 
L 3443 3974 
L 4710 3974 
L 4710 4915 
Q 4710 5005 4800 5005 
L 5062 5005 
Q 5152 5005 5152 4915 
L 5152 877 
z
M 1306 4275 
Q 1216 4275 1184 4240 
Q 1152 4205 1152 4109 
L 1152 2323 
Q 1152 2227 1184 2192 
Q 1216 2157 1306 2157 
L 2848 2157 
Q 2938 2157 2970 2192 
Q 3002 2227 3002 2323 
L 3002 4109 
Q 3002 4205 2970 4240 
Q 2938 4275 2848 4275 
L 1306 4275 
z
M 5350 -704 
Q 5350 -742 5318 -761 
Q 5286 -781 5254 -781 
L 2048 -781 
Q 1747 -781 1654 -669 
Q 1562 -557 1562 -294 
L 1562 1005 
Q 1562 1094 1651 1094 
L 1914 1094 
Q 2003 1094 2003 1005 
L 2003 -262 
Q 2003 -352 2032 -374 
Q 2061 -397 2150 -397 
L 5254 -397 
Q 5286 -397 5318 -419 
Q 5350 -442 5350 -474 
L 5350 -704 
z
M 3443 2758 
L 4710 2758 
L 4710 3597 
L 3443 3597 
L 3443 2758 
z
" transform="scale(0.015625)"/>
      <path id="NanumGothic-cda9" d="M 5728 1997 
Q 5760 1997 5792 1974 
Q 5824 1952 5824 1914 
L 5824 1696 
Q 5824 1664 5792 1638 
Q 5760 1613 5728 1613 
L 3219 1613 
L 3219 1037 
Q 3501 1024 3814 969 
Q 4128 915 4390 803 
Q 4653 691 4822 508 
Q 4992 326 4992 51 
Q 4992 -256 4787 -448 
Q 4582 -640 4278 -752 
Q 3974 -864 3625 -905 
Q 3277 -947 2995 -947 
Q 2810 -947 2589 -931 
Q 2368 -915 2147 -870 
Q 1926 -826 1721 -752 
Q 1517 -678 1357 -569 
Q 1197 -461 1101 -307 
Q 1005 -154 1005 51 
Q 1005 320 1177 502 
Q 1350 685 1612 800 
Q 1875 915 2185 969 
Q 2496 1024 2778 1037 
L 2778 1613 
L 288 1613 
Q 250 1613 221 1638 
Q 192 1664 192 1696 
L 192 1914 
Q 192 1952 221 1974 
Q 250 1997 288 1997 
L 5728 1997 
z
M 4403 3610 
Q 4058 3366 3578 3142 
Q 3930 3040 4346 2953 
Q 4762 2867 5146 2816 
Q 5197 2810 5206 2787 
Q 5216 2765 5203 2720 
L 5146 2502 
Q 5133 2432 5043 2451 
Q 4838 2483 4585 2531 
Q 4333 2579 4064 2640 
Q 3795 2701 3526 2768 
Q 3258 2835 3008 2906 
Q 2573 2746 2070 2614 
Q 1568 2483 998 2387 
Q 902 2368 877 2432 
L 800 2650 
Q 787 2682 806 2714 
Q 826 2746 864 2752 
Q 1318 2835 1715 2934 
Q 2112 3034 2470 3149 
Q 2829 3264 3165 3398 
Q 3501 3533 3834 3693 
Q 3942 3744 3932 3789 
Q 3923 3834 3821 3834 
L 1274 3834 
Q 1190 3834 1190 3917 
L 1190 4141 
Q 1190 4218 1274 4218 
L 4038 4218 
Q 4538 4218 4646 4042 
Q 4755 3866 4403 3610 
z
M 4525 45 
Q 4525 237 4352 355 
Q 4179 474 3932 538 
Q 3686 602 3427 621 
Q 3168 640 2995 640 
Q 2816 640 2557 621 
Q 2298 602 2058 538 
Q 1818 474 1645 355 
Q 1472 237 1472 45 
Q 1472 -147 1645 -262 
Q 1818 -378 2058 -442 
Q 2298 -506 2557 -525 
Q 2816 -544 2995 -544 
Q 3168 -544 3427 -525 
Q 3686 -506 3932 -442 
Q 4179 -378 4352 -262 
Q 4525 -147 4525 45 
z
M 3814 5005 
Q 3910 5005 3910 4915 
L 3910 4710 
Q 3910 4614 3814 4614 
L 2131 4614 
Q 2035 4614 2035 4710 
L 2035 4915 
Q 2035 5005 2131 5005 
L 3814 5005 
z
" transform="scale(0.015625)"/>
      <path id="NanumGothic-b3cc" d="M 4986 3219 
Q 4986 3130 4902 3130 
L 3226 3130 
L 3226 2528 
L 5728 2528 
Q 5760 2528 5792 2505 
Q 5824 2483 5824 2445 
L 5824 2227 
Q 5824 2195 5792 2169 
Q 5760 2144 5728 2144 
L 288 2144 
Q 250 2144 221 2169 
Q 192 2195 192 2227 
L 192 2445 
Q 192 2483 221 2505 
Q 250 2528 288 2528 
L 2784 2528 
L 2784 3130 
L 1587 3130 
Q 1306 3130 1203 3222 
Q 1101 3315 1101 3584 
L 1101 4544 
Q 1101 4813 1203 4905 
Q 1306 4998 1587 4998 
L 4858 4998 
Q 4941 4998 4941 4915 
L 4941 4704 
Q 4941 4614 4858 4614 
L 1696 4614 
Q 1606 4614 1574 4579 
Q 1542 4544 1542 4448 
L 1542 3680 
Q 1542 3590 1574 3552 
Q 1606 3514 1696 3514 
L 4902 3514 
Q 4986 3514 4986 3430 
L 4986 3219 
z
M 5056 -781 
Q 5056 -813 5027 -835 
Q 4998 -858 4973 -858 
L 1568 -858 
Q 1267 -858 1174 -746 
Q 1082 -634 1082 -365 
L 1082 141 
Q 1082 410 1194 502 
Q 1306 595 1594 595 
L 4346 595 
Q 4435 595 4460 620 
Q 4486 646 4486 742 
L 4486 1082 
Q 4486 1178 4464 1203 
Q 4442 1229 4352 1229 
L 1158 1229 
Q 1126 1229 1097 1248 
Q 1069 1267 1069 1299 
L 1069 1523 
Q 1069 1555 1097 1574 
Q 1126 1594 1158 1594 
L 4416 1594 
Q 4570 1594 4666 1571 
Q 4762 1549 4819 1497 
Q 4877 1446 4899 1353 
Q 4922 1261 4922 1126 
L 4922 685 
Q 4922 416 4810 323 
Q 4698 230 4410 230 
L 1651 230 
Q 1562 230 1539 204 
Q 1517 179 1517 83 
L 1517 -339 
Q 1517 -429 1542 -457 
Q 1568 -486 1658 -486 
L 4966 -486 
Q 4998 -486 5027 -505 
Q 5056 -525 5056 -557 
L 5056 -781 
z
" transform="scale(0.015625)"/>
      <path id="NanumGothic-c785" d="M 5152 1965 
Q 5152 1875 5062 1875 
L 4800 1875 
Q 4710 1875 4710 1965 
L 4710 4915 
Q 4710 5005 4800 5005 
L 5062 5005 
Q 5152 5005 5152 4915 
L 5152 1965 
z
M 3590 3411 
Q 3590 3104 3468 2841 
Q 3347 2579 3142 2387 
Q 2938 2195 2659 2086 
Q 2381 1978 2067 1978 
Q 1760 1978 1488 2083 
Q 1216 2189 1011 2377 
Q 806 2566 688 2828 
Q 570 3091 570 3411 
Q 570 3750 688 4016 
Q 806 4282 1011 4467 
Q 1216 4653 1488 4752 
Q 1760 4851 2067 4851 
Q 2355 4851 2630 4752 
Q 2906 4653 3120 4467 
Q 3334 4282 3462 4016 
Q 3590 3750 3590 3411 
z
M 3142 3418 
Q 3142 3667 3052 3859 
Q 2963 4051 2812 4182 
Q 2662 4314 2470 4381 
Q 2278 4448 2067 4448 
Q 1856 4448 1664 4381 
Q 1472 4314 1328 4186 
Q 1184 4058 1101 3862 
Q 1018 3667 1018 3418 
Q 1018 3181 1098 2989 
Q 1178 2797 1318 2659 
Q 1459 2522 1651 2448 
Q 1843 2374 2067 2374 
Q 2278 2374 2470 2448 
Q 2662 2522 2812 2656 
Q 2963 2790 3052 2982 
Q 3142 3174 3142 3418 
z
M 1978 -845 
Q 1824 -845 1731 -825 
Q 1638 -806 1587 -752 
Q 1536 -698 1517 -611 
Q 1498 -525 1498 -390 
L 1498 1446 
Q 1498 1478 1523 1497 
Q 1549 1517 1581 1517 
L 1862 1517 
Q 1894 1517 1916 1494 
Q 1939 1472 1939 1446 
L 1939 768 
L 4710 768 
L 4710 1434 
Q 4710 1466 4732 1491 
Q 4755 1517 4787 1517 
L 5069 1517 
Q 5101 1517 5126 1494 
Q 5152 1472 5152 1440 
L 5152 -435 
Q 5152 -678 5049 -761 
Q 4947 -845 4666 -845 
L 1978 -845 
z
M 1939 384 
L 1939 -307 
Q 1939 -403 1971 -432 
Q 2003 -461 2093 -461 
L 4557 -461 
Q 4646 -461 4678 -432 
Q 4710 -403 4710 -307 
L 4710 384 
L 1939 384 
z
" transform="scale(0.015625)"/>
      <path id="NanumGothic-b2c8" d="M 5152 -806 
Q 5152 -896 5062 -896 
L 4800 -896 
Q 4710 -896 4710 -806 
L 4710 4915 
Q 4710 5005 4800 5005 
L 5062 5005 
Q 5152 5005 5152 4915 
L 5152 -806 
z
M 1267 1440 
Q 1267 1344 1299 1312 
Q 1331 1280 1421 1274 
Q 1734 1261 2089 1270 
Q 2445 1280 2803 1309 
Q 3162 1338 3504 1382 
Q 3846 1427 4141 1485 
Q 4250 1510 4269 1408 
L 4301 1229 
Q 4320 1139 4218 1114 
Q 4000 1062 3657 1017 
Q 3315 973 2918 937 
Q 2522 902 2106 886 
Q 1690 870 1331 877 
Q 1043 883 934 1011 
Q 826 1139 826 1408 
L 826 4557 
Q 826 4646 915 4646 
L 1178 4646 
Q 1267 4646 1267 4557 
L 1267 1440 
z
" transform="scale(0.015625)"/>
      <path id="NanumGothic-b2e4" d="M 4019 1171 
Q 4032 1082 3936 1062 
Q 3699 1005 3337 953 
Q 2976 902 2576 864 
Q 2176 826 1785 806 
Q 1395 787 1107 794 
Q 819 800 713 928 
Q 608 1056 608 1325 
L 608 4077 
Q 608 4346 710 4435 
Q 813 4525 1094 4525 
L 3296 4525 
Q 3379 4525 3379 4448 
L 3379 4218 
Q 3379 4141 3296 4141 
L 1178 4141 
Q 1088 4141 1069 4118 
Q 1050 4096 1050 4000 
L 1050 1357 
Q 1050 1261 1082 1229 
Q 1114 1197 1203 1190 
Q 1510 1178 1852 1194 
Q 2195 1210 2544 1245 
Q 2893 1280 3229 1328 
Q 3565 1376 3866 1434 
Q 3968 1453 3987 1363 
L 4019 1171 
z
M 4928 -806 
Q 4928 -896 4838 -896 
L 4576 -896 
Q 4486 -896 4486 -806 
L 4486 4915 
Q 4486 5005 4576 5005 
L 4838 5005 
Q 4928 5005 4928 4915 
L 4928 2586 
L 5811 2586 
Q 5850 2586 5878 2563 
Q 5907 2541 5907 2502 
L 5907 2285 
Q 5907 2253 5878 2227 
Q 5850 2202 5811 2202 
L 4928 2202 
L 4928 -806 
z
" transform="scale(0.015625)"/>
      <path id="NanumGothic-2e" d="M 691 -256 
Q 691 -122 784 -29 
Q 877 64 1011 64 
Q 1146 64 1238 -29 
Q 1331 -122 1331 -256 
Q 1331 -390 1238 -483 
Q 1146 -576 1011 -576 
Q 877 -576 784 -483 
Q 691 -390 691 -256 
z
" transform="scale(0.015625)"/>
     </defs>
     <use xlink:href="#NanumGothic-63"/>
     <use xlink:href="#NanumGothic-6c" transform="translate(48.399994 0)"/>
     <use xlink:href="#NanumGothic-6f" transform="translate(72.599991 0)"/>
     <use xlink:href="#NanumGothic-73" transform="translate(133.199982 0)"/>
     <use xlink:href="#NanumGothic-65" transform="translate(175.599976 0)"/>
     <use xlink:href="#NanumGothic-73" transform="translate(230.09996 0)"/>
     <use xlink:href="#NanumGothic-74" transform="translate(272.499954 0)"/>
     <use xlink:href="#NanumGothic-c640" transform="translate(308.799942 0)"/>
     <use xlink:href="#NanumGothic-20" transform="translate(402.799927 0)"/>
     <use xlink:href="#NanumGothic-c6d0" transform="translate(430.799911 0)"/>
     <use xlink:href="#NanumGothic-20" transform="translate(524.799896 0)"/>
     <use xlink:href="#NanumGothic-c911" transform="translate(552.799881 0)"/>
     <use xlink:href="#NanumGothic-c2ec" transform="translate(646.799866 0)"/>
     <use xlink:href="#NanumGothic-20" transform="translate(740.79985 0)"/>
     <use xlink:href="#NanumGothic-c0ac" transform="translate(768.799835 0)"/>
     <use xlink:href="#NanumGothic-c774" transform="translate(862.79982 0)"/>
     <use xlink:href="#NanumGothic-20" transform="translate(956.799805 0)"/>
     <use xlink:href="#NanumGothic-ac70" transform="translate(984.799789 0)"/>
     <use xlink:href="#NanumGothic-b9ac" transform="translate(1078.799774 0)"/>
     <use xlink:href="#NanumGothic-ac00" transform="translate(1172.799759 0)"/>
     <use xlink:href="#NanumGothic-20" transform="translate(1266.799744 0)"/>
     <use xlink:href="#NanumGothic-72" transform="translate(1294.799728 0)"/>
     <use xlink:href="#NanumGothic-61" transform="translate(1331.099716 0)"/>
     <use xlink:href="#NanumGothic-64" transform="translate(1385.599701 0)"/>
     <use xlink:href="#NanumGothic-69" transform="translate(1446.199692 0)"/>
     <use xlink:href="#NanumGothic-75" transform="translate(1470.399689 0)"/>
     <use xlink:href="#NanumGothic-73" transform="translate(1530.99968 0)"/>
     <use xlink:href="#NanumGothic-20" transform="translate(1573.399673 0)"/>
     <use xlink:href="#NanumGothic-c774" transform="translate(1601.399658 0)"/>
     <use xlink:href="#NanumGothic-d558" transform="translate(1695.399643 0)"/>
     <use xlink:href="#NanumGothic-c774" transform="translate(1789.399628 0)"/>
     <use xlink:href="#NanumGothic-ba74" transform="translate(1883.399612 0)"/>
     <use xlink:href="#NanumGothic-20" transform="translate(1977.399597 0)"/>
     <use xlink:href="#NanumGothic-cda9" transform="translate(2005.399582 0)"/>
     <use xlink:href="#NanumGothic-b3cc" transform="translate(2099.399567 0)"/>
     <use xlink:href="#NanumGothic-c785" transform="translate(2193.399551 0)"/>
     <use xlink:href="#NanumGothic-b2c8" transform="translate(2287.399536 0)"/>
     <use xlink:href="#NanumGothic-b2e4" transform="translate(2381.399521 0)"/>
     <use xlink:href="#NanumGothic-2e" transform="translate(2475.399506 0)"/>
    </g>
   </g>
  </g>
 </g>
 <defs>
  <clipPath id="p3cdb262e3e">
   <rect x="8.64" y="29.024531" width="396" height="221.76"/>
  </clipPath>
 </defs>
</svg>
