<?xml version="1.0" encoding="utf-8" standalone="no"?>
<!DOCTYPE svg PUBLIC "-//W3C//DTD SVG 1.1//EN"
  "http://www.w3.org/Graphics/SVG/1.1/DTD/svg11.dtd">
<svg xmlns:xlink="http://www.w3.org/1999/xlink" width="397.146667pt" height="242.550531pt" viewBox="0 0 397.146667 242.550531" xmlns="http://www.w3.org/2000/svg" version="1.1">
 <metadata>
  <rdf:RDF xmlns:dc="http://purl.org/dc/elements/1.1/" xmlns:cc="http://creativecommons.org/ns#" xmlns:rdf="http://www.w3.org/1999/02/22-rdf-syntax-ns#">
   <cc:Work>
    <dc:type rdf:resource="http://purl.org/dc/dcmitype/StillImage"/>
    <dc:date>2026-07-08T05:12:55.282463</dc:date>
    <dc:format>image/svg+xml</dc:format>
    <dc:creator>
     <cc:Agent>
      <dc:title>Matplotlib v3.10.8, https://matplotlib.org/</dc:title>
     </cc:Agent>
    </dc:creator>
   </cc:Work>
  </rdf:RDF>
 </metadata>
 <defs>
  <style type="text/css">*{stroke-linejoin: round; stroke-linecap: butt}</style>
 </defs>
 <g id="figure_1">
  <g id="patch_1">
   <path d="M 0 242.550531 
L 397.146667 242.550531 
L 397.146667 0 
L 0 0 
z
" style="fill: #ffffff"/>
  </g>
  <g id="axes_1">
   <g id="patch_2">
    <path d="M 130.197333 165.534531 
C 130.197333 160.484273 129.358055 155.468945 127.713852 150.693832 
C 126.069649 145.91872 123.643265 141.449876 120.534016 137.470219 
" clip-path="url(#pb23d784bf3)" style="fill: none; stroke: #111827; stroke-width: 1.8; stroke-linejoin: miter"/>
   </g>
   <g id="line2d_1">
    <defs>
     <path id="me9763fd162" d="M 0 4 
C 1.060812 4 2.078319 3.578535 2.828427 2.828427 
C 3.578535 2.078319 4 1.060812 4 0 
C 4 -1.060812 3.578535 -2.078319 2.828427 -2.828427 
C 2.078319 -3.578535 1.060812 -4 0 -4 
C -1.060812 -4 -2.078319 -3.578535 -2.828427 -2.828427 
C -3.578535 -2.078319 -4 -1.060812 -4 0 
C -4 1.060812 -3.578535 2.078319 -2.828427 2.828427 
C -2.078319 3.578535 -1.060812 4 0 4 
z
" style="stroke: #111827"/>
    </defs>
    <g clip-path="url(#pb23d784bf3)">
     <use xlink:href="#me9763fd162" x="84.613333" y="165.534531" style="fill: #111827; stroke: #111827"/>
    </g>
   </g>
   <g id="text_1">
    <!-- 피벗 회전: 문은 경첩을 기준으로 돈다 -->
    <g style="fill: #111827" transform="translate(8.64 20.054062) scale(0.15 -0.15)">
     <defs>
      <path id="NanumGothicBold-d53c" d="M 3872 4064 
Q 3872 4026 3843 3997 
Q 3814 3968 3776 3968 
L 3315 3968 
L 3315 1440 
Q 3501 1459 3689 1475 
Q 3878 1491 4058 1517 
Q 4090 1523 4125 1507 
Q 4160 1491 4166 1459 
L 4224 1056 
Q 4237 1005 4208 979 
Q 4179 954 4147 947 
Q 3770 890 3309 851 
Q 2848 813 2349 787 
Q 1850 762 1338 755 
Q 826 749 346 762 
Q 301 762 275 790 
Q 250 819 250 858 
L 250 1267 
Q 250 1357 346 1357 
Q 493 1350 646 1350 
Q 800 1350 947 1350 
L 947 3968 
L 448 3968 
Q 416 3968 381 4000 
Q 346 4032 346 4070 
L 346 4467 
Q 346 4506 381 4538 
Q 416 4570 448 4570 
L 3776 4570 
Q 3814 4570 3843 4541 
Q 3872 4512 3872 4467 
L 3872 4064 
z
M 5280 -928 
Q 5280 -1011 5190 -1011 
L 4627 -1011 
Q 4595 -1011 4566 -988 
Q 4538 -966 4538 -928 
L 4538 4979 
Q 4538 5011 4566 5036 
Q 4595 5062 4627 5062 
L 5190 5062 
Q 5280 5062 5280 4979 
L 5280 -928 
z
M 1664 1357 
Q 2150 1370 2598 1395 
L 2598 3968 
L 1664 3968 
L 1664 1357 
z
" transform="scale(0.015625)"/>
      <path id="NanumGothicBold-bc97" d="M 3456 2272 
Q 3456 2054 3353 1945 
Q 3251 1837 2970 1837 
L 1126 1837 
Q 838 1837 736 1936 
Q 634 2035 634 2291 
L 634 4717 
Q 634 4749 659 4774 
Q 685 4800 723 4800 
L 1274 4800 
Q 1306 4800 1334 4774 
Q 1363 4749 1363 4717 
L 1363 3821 
L 2726 3821 
L 2726 4723 
Q 2726 4755 2752 4784 
Q 2778 4813 2810 4813 
L 3373 4813 
Q 3405 4813 3430 4784 
Q 3456 4755 3456 4723 
L 3456 3565 
L 4538 3565 
L 4538 4979 
Q 4538 5062 4621 5062 
L 5190 5062 
Q 5274 5062 5274 4979 
L 5274 1325 
Q 5274 1242 5190 1242 
L 4621 1242 
Q 4538 1242 4538 1325 
L 4538 2950 
L 3456 2950 
L 3456 2272 
z
M 1344 -1011 
Q 1229 -1037 1184 -934 
L 1018 -563 
Q 998 -518 1017 -480 
Q 1037 -442 1088 -422 
Q 1997 -147 2470 253 
Q 2944 653 3021 1274 
Q 3027 1318 3056 1356 
Q 3085 1395 3136 1389 
L 3635 1357 
Q 3725 1350 3737 1312 
Q 3750 1274 3744 1229 
Q 3731 1158 3718 1094 
Q 3706 1030 3693 966 
Q 3776 736 3974 521 
Q 4173 307 4435 124 
Q 4698 -58 4998 -189 
Q 5299 -320 5587 -378 
Q 5632 -390 5661 -428 
Q 5690 -467 5670 -518 
L 5504 -896 
Q 5459 -992 5338 -973 
Q 5082 -928 4803 -816 
Q 4525 -704 4259 -544 
Q 3994 -384 3763 -179 
Q 3533 26 3373 262 
Q 3046 -198 2521 -521 
Q 1997 -845 1344 -1011 
z
M 2726 3226 
L 1363 3226 
L 1363 2554 
Q 1363 2483 1395 2460 
Q 1427 2438 1485 2438 
L 2605 2438 
Q 2669 2438 2697 2460 
Q 2726 2483 2726 2554 
L 2726 3226 
z
" transform="scale(0.015625)"/>
      <path id="NanumGothicBold-20" transform="scale(0.015625)"/>
      <path id="NanumGothicBold-d68c" d="M 211 544 
Q 211 640 307 640 
Q 672 627 1072 633 
Q 1472 640 1875 653 
L 1875 1203 
Q 1651 1248 1462 1341 
Q 1274 1434 1136 1571 
Q 998 1709 921 1881 
Q 845 2054 845 2259 
Q 845 2496 957 2697 
Q 1069 2899 1261 3040 
Q 1453 3181 1709 3261 
Q 1965 3341 2253 3341 
Q 2547 3341 2806 3261 
Q 3066 3181 3258 3040 
Q 3450 2899 3558 2697 
Q 3667 2496 3667 2259 
Q 3667 2054 3584 1881 
Q 3501 1709 3357 1574 
Q 3213 1440 3017 1347 
Q 2822 1254 2592 1216 
L 2592 685 
Q 3014 710 3414 742 
Q 3814 774 4154 826 
Q 4186 832 4227 822 
Q 4269 813 4275 762 
L 4314 358 
Q 4320 307 4294 281 
Q 4269 256 4237 250 
Q 3878 192 3392 147 
Q 2906 102 2371 73 
Q 1837 45 1299 32 
Q 762 19 307 26 
Q 262 26 236 54 
Q 211 83 211 122 
L 211 544 
z
M 5280 -928 
Q 5280 -1011 5190 -1011 
L 4627 -1011 
Q 4595 -1011 4566 -988 
Q 4538 -966 4538 -928 
L 4538 4979 
Q 4538 5011 4566 5036 
Q 4595 5062 4627 5062 
L 5190 5062 
Q 5280 5062 5280 4979 
L 5280 -928 
z
M 4000 3661 
Q 4000 3622 3971 3593 
Q 3942 3565 3904 3565 
L 518 3565 
Q 486 3565 454 3597 
Q 422 3629 422 3667 
L 422 4026 
Q 422 4058 457 4090 
Q 493 4122 525 4122 
L 3904 4122 
Q 3942 4122 3971 4093 
Q 4000 4064 4000 4026 
L 4000 3661 
z
M 2253 2771 
Q 1946 2771 1741 2627 
Q 1536 2483 1536 2259 
Q 1536 2035 1737 1888 
Q 1939 1741 2253 1741 
Q 2573 1741 2774 1888 
Q 2976 2035 2976 2259 
Q 2976 2483 2774 2627 
Q 2573 2771 2253 2771 
z
M 3174 4493 
Q 3174 4448 3145 4416 
Q 3117 4384 3072 4384 
L 1376 4384 
Q 1350 4384 1312 4409 
Q 1274 4435 1274 4486 
L 1274 4858 
Q 1274 4902 1312 4928 
Q 1350 4954 1376 4954 
L 3072 4954 
Q 3110 4954 3142 4922 
Q 3174 4890 3174 4851 
L 3174 4493 
z
" transform="scale(0.015625)"/>
      <path id="NanumGothicBold-c804" d="M 755 1325 
Q 717 1306 656 1306 
Q 595 1306 557 1376 
L 365 1690 
Q 333 1741 349 1795 
Q 365 1850 422 1882 
Q 774 2054 1100 2291 
Q 1427 2528 1692 2797 
Q 1958 3066 2153 3347 
Q 2349 3629 2445 3891 
Q 2470 3955 2467 3996 
Q 2464 4038 2355 4038 
L 781 4038 
Q 736 4038 713 4067 
Q 691 4096 691 4134 
L 691 4563 
Q 691 4653 787 4653 
L 2816 4653 
Q 3098 4653 3232 4547 
Q 3366 4442 3334 4237 
Q 3322 4166 3302 4096 
Q 3283 4026 3264 3968 
Q 3194 3725 3059 3472 
Q 2925 3219 2746 2970 
Q 2861 2842 3008 2714 
Q 3155 2586 3312 2467 
Q 3469 2349 3622 2246 
Q 3776 2144 3904 2074 
Q 4032 2010 3955 1882 
L 3744 1555 
Q 3674 1453 3546 1517 
Q 3430 1574 3273 1680 
Q 3117 1786 2947 1917 
Q 2778 2048 2614 2195 
Q 2451 2342 2323 2477 
Q 1997 2131 1600 1836 
Q 1203 1542 755 1325 
z
M 3437 2918 
L 3437 3360 
Q 3437 3392 3465 3414 
Q 3494 3437 3526 3437 
L 4544 3437 
L 4544 4979 
Q 4544 5062 4627 5062 
L 5197 5062 
Q 5280 5062 5280 4979 
L 5280 826 
Q 5280 742 5197 742 
L 4627 742 
Q 4544 742 4544 826 
L 4544 2835 
L 3526 2835 
Q 3494 2835 3465 2860 
Q 3437 2886 3437 2918 
z
M 5466 -826 
Q 5466 -864 5437 -883 
Q 5408 -902 5376 -902 
L 2042 -902 
Q 1754 -902 1654 -800 
Q 1555 -698 1555 -448 
L 1555 947 
Q 1555 979 1584 1008 
Q 1613 1037 1645 1037 
L 2195 1037 
Q 2234 1037 2262 1008 
Q 2291 979 2291 947 
L 2291 -186 
Q 2291 -250 2316 -269 
Q 2342 -288 2413 -288 
L 5376 -288 
Q 5408 -288 5437 -313 
Q 5466 -339 5466 -371 
L 5466 -826 
z
" transform="scale(0.015625)"/>
      <path id="NanumGothicBold-3a" d="M 1011 3053 
Q 806 3053 662 3197 
Q 518 3341 518 3533 
Q 518 3731 662 3875 
Q 806 4019 1011 4019 
Q 1216 4019 1357 3875 
Q 1498 3731 1498 3533 
Q 1498 3341 1357 3197 
Q 1216 3053 1011 3053 
z
M 1011 141 
Q 806 141 662 285 
Q 518 429 518 627 
Q 518 819 662 963 
Q 806 1107 1011 1107 
Q 1216 1107 1357 963 
Q 1498 819 1498 627 
Q 1498 429 1357 285 
Q 1216 141 1011 141 
z
" transform="scale(0.015625)"/>
      <path id="NanumGothicBold-bb38" d="M 4934 3149 
Q 4934 2906 4809 2803 
Q 4685 2701 4442 2701 
L 1549 2701 
Q 1254 2701 1155 2800 
Q 1056 2899 1056 3149 
L 1056 4442 
Q 1056 4685 1181 4790 
Q 1306 4896 1549 4896 
L 4442 4896 
Q 4736 4896 4835 4797 
Q 4934 4698 4934 4442 
L 4934 3149 
z
M 4211 4211 
Q 4211 4262 4192 4278 
Q 4173 4294 4122 4294 
L 1875 4294 
Q 1818 4294 1802 4281 
Q 1786 4269 1786 4218 
L 1786 3386 
Q 1786 3328 1802 3315 
Q 1818 3302 1875 3302 
L 4122 3302 
Q 4179 3302 4195 3315 
Q 4211 3328 4211 3386 
L 4211 4211 
z
M 5882 1626 
Q 5882 1594 5850 1558 
Q 5818 1523 5786 1523 
L 3418 1523 
L 3418 365 
Q 3418 275 3328 275 
L 2771 275 
Q 2682 275 2682 365 
L 2682 1523 
L 211 1523 
Q 173 1523 147 1558 
Q 122 1594 122 1626 
L 122 2042 
Q 122 2080 147 2109 
Q 173 2138 211 2138 
L 5786 2138 
Q 5818 2138 5850 2106 
Q 5882 2074 5882 2042 
L 5882 1626 
z
M 5184 -787 
Q 5184 -826 5155 -845 
Q 5126 -864 5088 -864 
L 1466 -864 
Q 1178 -864 1078 -758 
Q 979 -653 979 -403 
L 979 947 
Q 979 979 1008 1008 
Q 1037 1037 1069 1037 
L 1619 1037 
Q 1658 1037 1686 1008 
Q 1715 979 1715 947 
L 1715 -147 
Q 1715 -211 1740 -230 
Q 1766 -250 1830 -250 
L 5088 -250 
Q 5120 -250 5152 -272 
Q 5184 -294 5184 -326 
L 5184 -787 
z
" transform="scale(0.015625)"/>
      <path id="NanumGothicBold-c740" d="M 3014 2637 
Q 2566 2637 2192 2717 
Q 1818 2797 1549 2944 
Q 1280 3091 1129 3308 
Q 979 3526 979 3802 
Q 979 4077 1129 4297 
Q 1280 4518 1549 4665 
Q 1818 4813 2192 4893 
Q 2566 4973 3014 4973 
Q 3462 4973 3833 4893 
Q 4205 4813 4473 4665 
Q 4742 4518 4892 4297 
Q 5043 4077 5043 3802 
Q 5043 3526 4892 3308 
Q 4742 3091 4473 2944 
Q 4205 2797 3833 2717 
Q 3462 2637 3014 2637 
z
M 3014 4384 
Q 2733 4384 2502 4342 
Q 2272 4301 2102 4224 
Q 1933 4147 1840 4038 
Q 1747 3930 1747 3802 
Q 1747 3674 1840 3568 
Q 1933 3462 2102 3385 
Q 2272 3309 2502 3267 
Q 2733 3226 3014 3226 
Q 3290 3226 3520 3267 
Q 3750 3309 3920 3385 
Q 4090 3462 4182 3568 
Q 4275 3674 4275 3802 
Q 4275 3930 4182 4038 
Q 4090 4147 3920 4224 
Q 3750 4301 3520 4342 
Q 3290 4384 3014 4384 
z
M 211 1510 
Q 173 1510 147 1542 
Q 122 1574 122 1613 
L 122 2029 
Q 122 2067 147 2096 
Q 173 2125 211 2125 
L 5786 2125 
Q 5818 2125 5850 2093 
Q 5882 2061 5882 2029 
L 5882 1613 
Q 5882 1581 5850 1545 
Q 5818 1510 5786 1510 
L 211 1510 
z
M 5184 -755 
Q 5184 -794 5155 -813 
Q 5126 -832 5088 -832 
L 1523 -832 
Q 1235 -832 1136 -729 
Q 1037 -627 1037 -371 
L 1037 1018 
Q 1037 1050 1065 1078 
Q 1094 1107 1126 1107 
L 1677 1107 
Q 1715 1107 1744 1078 
Q 1773 1050 1773 1018 
L 1773 -115 
Q 1773 -179 1798 -198 
Q 1824 -218 1894 -218 
L 5088 -218 
Q 5120 -218 5152 -240 
Q 5184 -262 5184 -294 
L 5184 -755 
z
" transform="scale(0.015625)"/>
      <path id="NanumGothicBold-acbd" d="M 3450 4365 
Q 3450 4339 3443 4291 
Q 3437 4243 3427 4192 
Q 3418 4141 3408 4099 
Q 3398 4058 3392 4038 
Q 3386 4032 3386 4019 
L 4544 4019 
L 4544 4979 
Q 4544 5062 4627 5062 
L 5197 5062 
Q 5280 5062 5280 4979 
L 5280 1587 
Q 5280 1491 5197 1491 
L 4627 1491 
Q 4544 1491 4544 1581 
L 4544 2195 
L 3168 2195 
Q 3136 2195 3107 2220 
Q 3078 2246 3078 2278 
L 3078 2701 
Q 3078 2733 3107 2755 
Q 3136 2778 3168 2778 
L 4544 2778 
L 4544 3430 
L 3155 3430 
Q 2842 2771 2275 2265 
Q 1709 1760 890 1414 
Q 819 1382 768 1392 
Q 717 1402 685 1466 
L 518 1805 
Q 493 1862 502 1913 
Q 512 1965 576 1997 
Q 966 2163 1296 2380 
Q 1626 2598 1885 2854 
Q 2144 3110 2323 3388 
Q 2502 3667 2592 3955 
Q 2624 4058 2611 4096 
Q 2598 4134 2502 4134 
L 787 4134 
Q 742 4134 720 4166 
Q 698 4198 698 4237 
L 698 4659 
Q 698 4749 794 4749 
L 2938 4749 
Q 3219 4749 3334 4659 
Q 3450 4570 3450 4365 
z
M 5293 198 
Q 5293 -70 5149 -294 
Q 5005 -518 4752 -678 
Q 4499 -838 4147 -928 
Q 3795 -1018 3386 -1018 
Q 2944 -1018 2595 -931 
Q 2246 -845 2000 -685 
Q 1754 -525 1622 -301 
Q 1491 -77 1491 198 
Q 1491 467 1622 691 
Q 1754 915 2000 1072 
Q 2246 1229 2595 1318 
Q 2944 1408 3386 1408 
Q 3795 1408 4147 1321 
Q 4499 1235 4752 1075 
Q 5005 915 5149 694 
Q 5293 474 5293 198 
z
M 4538 179 
Q 4538 339 4445 457 
Q 4352 576 4195 659 
Q 4038 742 3827 784 
Q 3616 826 3386 826 
Q 2867 826 2556 662 
Q 2246 499 2246 179 
Q 2246 -122 2563 -278 
Q 2880 -435 3386 -435 
Q 3616 -435 3827 -396 
Q 4038 -358 4195 -281 
Q 4352 -205 4445 -89 
Q 4538 26 4538 179 
z
" transform="scale(0.015625)"/>
      <path id="NanumGothicBold-cca9" d="M 5280 -486 
Q 5280 -704 5177 -809 
Q 5075 -915 4800 -915 
L 1971 -915 
Q 1690 -915 1587 -819 
Q 1485 -723 1485 -467 
L 1485 1242 
Q 1485 1325 1568 1325 
L 2131 1325 
Q 2163 1325 2192 1299 
Q 2221 1274 2221 1242 
L 2221 717 
L 4544 717 
L 4544 1274 
Q 4544 1306 4569 1331 
Q 4595 1357 4627 1357 
L 5197 1357 
Q 5229 1357 5254 1331 
Q 5280 1306 5280 1274 
L 5280 -486 
z
M 774 1491 
Q 742 1478 688 1491 
Q 634 1504 602 1562 
L 448 1875 
Q 416 1933 441 1977 
Q 467 2022 512 2042 
Q 845 2163 1158 2332 
Q 1472 2502 1741 2688 
Q 2010 2874 2218 3072 
Q 2426 3270 2547 3462 
Q 2573 3501 2576 3533 
Q 2579 3565 2477 3565 
L 813 3565 
Q 774 3565 752 3593 
Q 730 3622 730 3661 
L 730 4064 
Q 730 4141 819 4141 
L 2963 4141 
Q 3219 4141 3356 4073 
Q 3494 4006 3494 3834 
Q 3494 3770 3462 3674 
Q 3430 3578 3398 3507 
Q 3309 3341 3184 3168 
Q 3059 2995 2899 2829 
Q 3008 2739 3139 2649 
Q 3270 2560 3404 2480 
Q 3539 2400 3670 2336 
Q 3802 2272 3917 2227 
Q 4064 2176 3974 2048 
L 3795 1747 
Q 3731 1638 3597 1696 
Q 3475 1741 3331 1824 
Q 3187 1907 3033 2003 
Q 2880 2099 2733 2208 
Q 2586 2317 2464 2426 
Q 2106 2138 1677 1898 
Q 1248 1658 774 1491 
z
M 3578 2810 
L 3578 3251 
Q 3578 3283 3606 3305 
Q 3635 3328 3674 3328 
L 4544 3328 
L 4544 4979 
Q 4544 5062 4627 5062 
L 5197 5062 
Q 5280 5062 5280 4979 
L 5280 1741 
Q 5280 1651 5197 1651 
L 4627 1651 
Q 4544 1651 4544 1734 
L 4544 2726 
L 3674 2726 
Q 3635 2726 3606 2752 
Q 3578 2778 3578 2810 
z
M 4544 122 
L 2221 122 
L 2221 -205 
Q 2221 -314 2336 -314 
L 4429 -314 
Q 4544 -314 4544 -205 
L 4544 122 
z
M 2950 4570 
Q 2950 4525 2921 4493 
Q 2893 4461 2848 4461 
L 1350 4461 
Q 1325 4461 1289 4486 
Q 1254 4512 1254 4563 
L 1254 4915 
Q 1254 4960 1289 4985 
Q 1325 5011 1350 5011 
L 2848 5011 
Q 2886 5011 2918 4979 
Q 2950 4947 2950 4909 
L 2950 4570 
z
" transform="scale(0.015625)"/>
      <path id="NanumGothicBold-c744" d="M 3008 4570 
Q 2726 4570 2496 4528 
Q 2266 4486 2096 4409 
Q 1926 4333 1833 4230 
Q 1741 4128 1741 4013 
Q 1741 3898 1833 3802 
Q 1926 3706 2096 3632 
Q 2266 3558 2496 3520 
Q 2726 3482 3008 3482 
Q 3283 3482 3516 3520 
Q 3750 3558 3920 3632 
Q 4090 3706 4182 3805 
Q 4275 3904 4275 4019 
Q 4275 4134 4182 4233 
Q 4090 4333 3920 4409 
Q 3750 4486 3516 4528 
Q 3283 4570 3008 4570 
z
M 5018 4019 
Q 5018 3789 4886 3587 
Q 4755 3386 4499 3242 
Q 4243 3098 3868 3014 
Q 3494 2931 3008 2931 
Q 2522 2931 2147 3014 
Q 1773 3098 1517 3242 
Q 1261 3386 1129 3587 
Q 998 3789 998 4019 
Q 998 4250 1129 4454 
Q 1261 4659 1517 4806 
Q 1773 4954 2147 5040 
Q 2522 5126 3008 5126 
Q 3494 5126 3868 5040 
Q 4243 4954 4499 4806 
Q 4755 4659 4886 4454 
Q 5018 4250 5018 4019 
z
M 5114 -845 
Q 5114 -877 5085 -905 
Q 5056 -934 5030 -934 
L 1459 -934 
Q 1210 -934 1120 -844 
Q 1030 -755 1030 -550 
L 1030 198 
Q 1030 403 1116 492 
Q 1203 582 1453 582 
L 4166 582 
Q 4218 582 4230 592 
Q 4243 602 4243 666 
L 4243 858 
Q 4243 928 4230 944 
Q 4218 960 4160 960 
L 1107 960 
Q 1075 960 1046 982 
Q 1018 1005 1018 1037 
L 1018 1466 
Q 1018 1498 1046 1523 
Q 1075 1549 1107 1549 
L 4531 1549 
Q 4794 1549 4880 1469 
Q 4966 1389 4966 1171 
L 4966 422 
Q 4966 198 4880 121 
Q 4794 45 4531 45 
L 1830 45 
Q 1779 45 1766 29 
Q 1754 13 1754 -45 
L 1754 -262 
Q 1754 -320 1766 -329 
Q 1779 -339 1837 -339 
L 5024 -339 
Q 5056 -339 5085 -364 
Q 5114 -390 5114 -429 
L 5114 -845 
z
M 211 1958 
Q 122 1958 122 2048 
L 122 2458 
Q 122 2496 147 2525 
Q 173 2554 211 2554 
L 5786 2554 
Q 5818 2554 5850 2522 
Q 5882 2490 5882 2458 
L 5882 2048 
Q 5882 2016 5850 1987 
Q 5818 1958 5786 1958 
L 211 1958 
z
" transform="scale(0.015625)"/>
      <path id="NanumGothicBold-ae30" d="M 5274 -928 
Q 5274 -1011 5190 -1011 
L 4621 -1011 
Q 4538 -1011 4538 -928 
L 4538 4979 
Q 4538 5062 4621 5062 
L 5190 5062 
Q 5274 5062 5274 4979 
L 5274 -928 
z
M 3546 4102 
Q 3494 3482 3286 2931 
Q 3078 2381 2736 1907 
Q 2394 1434 1926 1030 
Q 1459 627 896 294 
Q 845 262 784 272 
Q 723 282 691 333 
L 474 672 
Q 442 723 454 771 
Q 467 819 512 845 
Q 1466 1408 2038 2144 
Q 2611 2880 2784 3757 
Q 2810 3885 2771 3926 
Q 2733 3968 2611 3968 
L 806 3968 
Q 717 3968 717 4058 
L 717 4506 
Q 717 4582 806 4582 
L 3098 4582 
Q 3386 4582 3475 4464 
Q 3565 4346 3546 4102 
z
" transform="scale(0.015625)"/>
      <path id="NanumGothicBold-c900" d="M 858 2515 
Q 806 2502 764 2518 
Q 723 2534 710 2566 
L 589 2963 
Q 576 3002 605 3040 
Q 634 3078 666 3091 
Q 1075 3187 1481 3302 
Q 1888 3418 2262 3555 
Q 2637 3693 2960 3843 
Q 3283 3994 3533 4154 
Q 3571 4179 3603 4201 
Q 3635 4224 3644 4240 
Q 3654 4256 3628 4265 
Q 3603 4275 3533 4275 
L 1158 4275 
Q 1075 4275 1075 4358 
L 1075 4800 
Q 1075 4877 1158 4877 
L 4301 4877 
Q 4550 4877 4688 4797 
Q 4826 4717 4826 4582 
Q 4826 4397 4576 4128 
Q 4435 3981 4243 3840 
Q 4051 3699 3827 3571 
Q 4000 3520 4201 3465 
Q 4403 3411 4611 3360 
Q 4819 3309 5024 3267 
Q 5229 3226 5402 3194 
Q 5453 3181 5478 3142 
Q 5504 3104 5478 3053 
L 5325 2688 
Q 5312 2650 5267 2624 
Q 5222 2598 5178 2611 
Q 4928 2650 4653 2717 
Q 4378 2784 4099 2861 
Q 3821 2938 3552 3024 
Q 3283 3110 3053 3187 
Q 2771 3066 2476 2957 
Q 2182 2848 1897 2761 
Q 1613 2675 1347 2614 
Q 1082 2554 858 2515 
z
M 5882 1594 
Q 5882 1562 5850 1526 
Q 5818 1491 5786 1491 
L 3418 1491 
L 3418 371 
Q 3418 282 3328 282 
L 2771 282 
Q 2682 282 2682 371 
L 2682 1491 
L 211 1491 
Q 173 1491 147 1526 
Q 122 1562 122 1594 
L 122 2010 
Q 122 2048 147 2077 
Q 173 2106 211 2106 
L 5786 2106 
Q 5818 2106 5850 2074 
Q 5882 2042 5882 2010 
L 5882 1594 
z
M 5184 -781 
Q 5184 -819 5155 -838 
Q 5126 -858 5088 -858 
L 1466 -858 
Q 1178 -858 1078 -752 
Q 979 -646 979 -397 
L 979 896 
Q 979 928 1008 957 
Q 1037 986 1069 986 
L 1619 986 
Q 1658 986 1686 957 
Q 1715 928 1715 896 
L 1715 -141 
Q 1715 -205 1740 -224 
Q 1766 -243 1830 -243 
L 5088 -243 
Q 5120 -243 5152 -265 
Q 5184 -288 5184 -320 
L 5184 -781 
z
" transform="scale(0.015625)"/>
      <path id="NanumGothicBold-c73c" d="M 5882 166 
Q 5882 134 5850 102 
Q 5818 70 5786 70 
L 211 70 
Q 173 70 147 102 
Q 122 134 122 166 
L 122 589 
Q 122 627 147 656 
Q 173 685 211 685 
L 5786 685 
Q 5818 685 5850 653 
Q 5882 621 5882 589 
L 5882 166 
z
M 3002 1741 
Q 2554 1741 2170 1843 
Q 1786 1946 1504 2138 
Q 1222 2330 1062 2598 
Q 902 2867 902 3200 
Q 902 3533 1062 3801 
Q 1222 4070 1504 4262 
Q 1786 4454 2170 4556 
Q 2554 4659 3002 4659 
Q 3450 4659 3834 4556 
Q 4218 4454 4499 4262 
Q 4781 4070 4937 3801 
Q 5094 3533 5094 3200 
Q 5094 2867 4937 2598 
Q 4781 2330 4499 2138 
Q 4218 1946 3834 1843 
Q 3450 1741 3002 1741 
z
M 3002 4051 
Q 2733 4051 2489 3990 
Q 2246 3930 2064 3818 
Q 1882 3706 1773 3549 
Q 1664 3392 1664 3200 
Q 1664 3008 1773 2848 
Q 1882 2688 2064 2576 
Q 2246 2464 2489 2403 
Q 2733 2342 3002 2342 
Q 3270 2342 3513 2403 
Q 3757 2464 3939 2576 
Q 4122 2688 4227 2848 
Q 4333 3008 4333 3200 
Q 4333 3392 4227 3549 
Q 4122 3706 3939 3818 
Q 3757 3930 3513 3990 
Q 3270 4051 3002 4051 
z
" transform="scale(0.015625)"/>
      <path id="NanumGothicBold-b85c" d="M 5882 122 
Q 5882 90 5850 58 
Q 5818 26 5786 26 
L 211 26 
Q 173 26 147 58 
Q 122 90 122 122 
L 122 525 
Q 122 563 147 595 
Q 173 627 211 627 
L 2637 627 
L 2637 1581 
L 1491 1581 
Q 1350 1581 1260 1600 
Q 1171 1619 1120 1670 
Q 1069 1722 1049 1802 
Q 1030 1882 1030 2010 
L 1030 3040 
Q 1030 3168 1049 3248 
Q 1069 3328 1120 3376 
Q 1171 3424 1260 3440 
Q 1350 3456 1491 3456 
L 4154 3456 
Q 4218 3456 4234 3472 
Q 4250 3488 4250 3558 
L 4250 4058 
Q 4250 4128 4234 4137 
Q 4218 4147 4154 4147 
L 1139 4147 
Q 1107 4147 1081 4176 
Q 1056 4205 1056 4237 
L 1056 4666 
Q 1056 4698 1081 4723 
Q 1107 4749 1139 4749 
L 4506 4749 
Q 4774 4749 4870 4662 
Q 4966 4576 4966 4326 
L 4966 3290 
Q 4966 3040 4870 2953 
Q 4774 2867 4506 2867 
L 1837 2867 
Q 1773 2867 1760 2854 
Q 1747 2842 1747 2778 
L 1747 2272 
Q 1747 2202 1763 2186 
Q 1779 2170 1843 2170 
L 5018 2170 
Q 5050 2170 5075 2147 
Q 5101 2125 5101 2093 
L 5101 1664 
Q 5101 1632 5072 1606 
Q 5043 1581 5018 1581 
L 3373 1581 
L 3373 627 
L 5786 627 
Q 5818 627 5850 592 
Q 5882 557 5882 525 
L 5882 122 
z
" transform="scale(0.015625)"/>
      <path id="NanumGothicBold-b3c8" d="M 5011 2746 
Q 5011 2694 4988 2672 
Q 4966 2650 4934 2650 
L 3366 2650 
L 3366 1952 
L 5779 1952 
Q 5811 1952 5843 1923 
Q 5875 1894 5875 1862 
L 5875 1434 
Q 5875 1402 5843 1370 
Q 5811 1338 5779 1338 
L 211 1338 
Q 173 1338 147 1366 
Q 122 1395 122 1434 
L 122 1862 
Q 122 1952 211 1952 
L 2630 1952 
L 2630 2650 
L 1510 2650 
Q 1254 2650 1152 2765 
Q 1050 2880 1050 3104 
L 1050 4467 
Q 1050 4710 1158 4796 
Q 1267 4883 1510 4883 
L 4877 4883 
Q 4966 4883 4966 4800 
L 4966 4358 
Q 4966 4275 4877 4275 
L 1914 4275 
Q 1792 4275 1792 4166 
L 1792 3366 
Q 1792 3315 1817 3286 
Q 1843 3258 1914 3258 
L 4909 3258 
Q 4960 3258 4985 3245 
Q 5011 3232 5011 3181 
L 5011 2746 
z
M 5152 -787 
Q 5152 -826 5120 -845 
Q 5088 -864 5056 -864 
L 1536 -864 
Q 1242 -864 1142 -758 
Q 1043 -653 1043 -403 
L 1043 819 
Q 1043 851 1072 883 
Q 1101 915 1133 915 
L 1683 915 
Q 1722 915 1750 883 
Q 1779 851 1779 819 
L 1779 -147 
Q 1779 -211 1804 -230 
Q 1830 -250 1901 -250 
L 5056 -250 
Q 5088 -250 5120 -272 
Q 5152 -294 5152 -326 
L 5152 -787 
z
" transform="scale(0.015625)"/>
      <path id="NanumGothicBold-b2e4" d="M 5965 2195 
Q 5965 2157 5936 2131 
Q 5907 2106 5875 2106 
L 5005 2106 
L 5005 -928 
Q 5005 -1011 4922 -1011 
L 4352 -1011 
Q 4269 -1011 4269 -928 
L 4269 4979 
Q 4269 5062 4352 5062 
L 4922 5062 
Q 5005 5062 5005 4979 
L 5005 2720 
L 5875 2720 
Q 5907 2720 5936 2697 
Q 5965 2675 5965 2643 
L 5965 2195 
z
M 3949 1114 
Q 3962 1043 3933 1020 
Q 3904 998 3872 986 
Q 3616 909 3235 851 
Q 2854 794 2448 758 
Q 2042 723 1654 710 
Q 1267 698 1005 717 
Q 768 730 656 822 
Q 544 915 544 1146 
L 544 4179 
Q 544 4403 637 4492 
Q 730 4582 973 4582 
L 3296 4582 
Q 3386 4582 3386 4499 
L 3386 4051 
Q 3386 3968 3296 3968 
L 1395 3968 
Q 1280 3968 1280 3859 
L 1280 1530 
Q 1280 1427 1315 1398 
Q 1350 1370 1472 1357 
Q 1670 1338 1945 1350 
Q 2221 1363 2528 1392 
Q 2835 1421 3155 1465 
Q 3475 1510 3763 1562 
Q 3859 1581 3878 1485 
L 3949 1114 
z
" transform="scale(0.015625)"/>
     </defs>
     <use xlink:href="#NanumGothicBold-d53c"/>
     <use xlink:href="#NanumGothicBold-bc97" transform="translate(93.999985 0)"/>
     <use xlink:href="#NanumGothicBold-20" transform="translate(187.999969 0)"/>
     <use xlink:href="#NanumGothicBold-d68c" transform="translate(215.999954 0)"/>
     <use xlink:href="#NanumGothicBold-c804" transform="translate(309.999939 0)"/>
     <use xlink:href="#NanumGothicBold-3a" transform="translate(403.999924 0)"/>
     <use xlink:href="#NanumGothicBold-20" transform="translate(434.299911 0)"/>
     <use xlink:href="#NanumGothicBold-bb38" transform="translate(462.299896 0)"/>
     <use xlink:href="#NanumGothicBold-c740" transform="translate(556.299881 0)"/>
     <use xlink:href="#NanumGothicBold-20" transform="translate(650.299866 0)"/>
     <use xlink:href="#NanumGothicBold-acbd" transform="translate(678.29985 0)"/>
     <use xlink:href="#NanumGothicBold-cca9" transform="translate(772.299835 0)"/>
     <use xlink:href="#NanumGothicBold-c744" transform="translate(866.29982 0)"/>
     <use xlink:href="#NanumGothicBold-20" transform="translate(960.299805 0)"/>
     <use xlink:href="#NanumGothicBold-ae30" transform="translate(988.299789 0)"/>
     <use xlink:href="#NanumGothicBold-c900" transform="translate(1082.299774 0)"/>
     <use xlink:href="#NanumGothicBold-c73c" transform="translate(1176.299759 0)"/>
     <use xlink:href="#NanumGothicBold-b85c" transform="translate(1270.299744 0)"/>
     <use xlink:href="#NanumGothicBold-20" transform="translate(1364.299728 0)"/>
     <use xlink:href="#NanumGothicBold-b3c8" transform="translate(1392.299713 0)"/>
     <use xlink:href="#NanumGothicBold-b2e4" transform="translate(1486.299698 0)"/>
    </g>
   </g>
   <g id="patch_3">
    <path d="M 86.611668 165.534531 
Q 183.37684 165.534531 280.142013 165.534531 
" clip-path="url(#pb23d784bf3)" style="fill: none; stroke: #6b7280; stroke-width: 2.2; stroke-linecap: round"/>
   </g>
   <g id="patch_4">
    <path d="M 86.188042 164.304234 
Q 162.440039 104.729645 238.692036 45.155056 
" clip-path="url(#pb23d784bf3)" style="fill: none; stroke: #2563eb; stroke-width: 2.8; stroke-linecap: round"/>
   </g>
   <g id="patch_5">
    <path d="M 84.613333 216.713473 
Q 84.613333 196.873433 84.613333 179.493067 
" clip-path="url(#pb23d784bf3)" style="fill: none; stroke: #ef4444; stroke-width: 2.2; stroke-linecap: round"/>
    <path d="M 82.213333 184.293067 
L 84.613333 179.493067 
L 87.013333 184.293067 
z
" clip-path="url(#pb23d784bf3)" style="fill: #ef4444; stroke: #ef4444; stroke-width: 2.2; stroke-linecap: round"/>
   </g>
   <g id="text_2">
    <!-- pivot -->
    <g style="fill: #111827" transform="translate(53.605021 181.88838) scale(0.11 -0.11)">
     <defs>
      <path id="NanumGothic-70" d="M 2989 1504 
Q 2989 1766 2937 2012 
Q 2886 2259 2764 2451 
Q 2643 2643 2451 2761 
Q 2259 2880 1971 2880 
Q 1709 2880 1517 2771 
Q 1325 2662 1200 2473 
Q 1075 2285 1011 2035 
Q 947 1786 947 1504 
Q 947 762 1225 381 
Q 1504 0 1971 0 
Q 2214 0 2403 105 
Q 2592 211 2723 409 
Q 2854 608 2921 883 
Q 2989 1158 2989 1504 
z
M 518 3098 
Q 518 3187 608 3187 
L 851 3187 
Q 941 3187 941 3098 
L 909 2618 
Q 1037 2899 1341 3072 
Q 1645 3245 2048 3245 
Q 2426 3245 2691 3110 
Q 2957 2976 3126 2742 
Q 3296 2509 3376 2189 
Q 3456 1869 3456 1504 
Q 3456 1107 3363 768 
Q 3270 429 3094 179 
Q 2918 -70 2656 -214 
Q 2394 -358 2048 -358 
Q 1658 -358 1376 -208 
Q 1094 -58 947 211 
L 947 -1165 
Q 947 -1254 858 -1254 
L 614 -1254 
Q 576 -1254 547 -1228 
Q 518 -1203 518 -1165 
L 518 3098 
z
" transform="scale(0.015625)"/>
      <path id="NanumGothic-69" d="M 1050 -186 
Q 1050 -275 960 -275 
L 678 -275 
Q 589 -275 589 -186 
L 589 3098 
Q 589 3187 678 3187 
L 960 3187 
Q 1050 3187 1050 3098 
L 1050 -186 
z
M 506 4397 
Q 506 4525 595 4617 
Q 685 4710 813 4710 
Q 941 4710 1033 4617 
Q 1126 4525 1126 4397 
Q 1126 4269 1033 4179 
Q 941 4090 813 4090 
Q 685 4090 595 4179 
Q 506 4269 506 4397 
z
" transform="scale(0.015625)"/>
      <path id="NanumGothic-76" d="M 1843 -192 
Q 1811 -275 1715 -275 
L 1402 -275 
Q 1306 -275 1280 -192 
L 154 3098 
Q 141 3130 160 3158 
Q 179 3187 218 3187 
L 506 3187 
Q 582 3187 621 3098 
L 1568 166 
L 2554 3098 
Q 2566 3136 2598 3161 
Q 2630 3187 2669 3187 
L 2950 3187 
Q 2989 3187 3008 3158 
Q 3027 3130 3014 3098 
L 1843 -192 
z
" transform="scale(0.015625)"/>
      <path id="NanumGothic-6f" d="M 3130 1453 
Q 3130 1754 3050 2016 
Q 2970 2278 2829 2483 
Q 2496 2893 1965 2893 
Q 1696 2893 1481 2787 
Q 1267 2682 1101 2483 
Q 954 2278 874 2016 
Q 794 1754 794 1453 
Q 794 1146 874 883 
Q 954 621 1101 422 
Q 1440 6 1965 6 
Q 2234 6 2448 115 
Q 2662 224 2829 422 
Q 2970 621 3050 883 
Q 3130 1146 3130 1453 
z
M 3603 1453 
Q 3603 1075 3494 752 
Q 3386 429 3206 186 
Q 2982 -83 2672 -230 
Q 2362 -378 1965 -378 
Q 1568 -378 1254 -230 
Q 941 -83 717 186 
Q 538 429 432 752 
Q 326 1075 326 1453 
Q 326 2227 717 2720 
Q 1165 3277 1965 3277 
Q 2368 3277 2675 3139 
Q 2982 3002 3206 2720 
Q 3603 2214 3603 1453 
z
" transform="scale(0.015625)"/>
      <path id="NanumGothic-74" d="M 2208 -282 
Q 1939 -378 1677 -378 
Q 1158 -378 992 -38 
Q 883 192 883 774 
L 883 2816 
L 282 2816 
Q 192 2816 192 2906 
L 192 3098 
Q 192 3187 282 3187 
L 883 3187 
L 883 4051 
Q 883 4147 966 4147 
L 1235 4147 
Q 1318 4147 1318 4051 
L 1318 3187 
L 2029 3187 
Q 2118 3187 2118 3098 
L 2118 2906 
Q 2118 2816 2029 2816 
L 1318 2816 
L 1318 557 
Q 1318 -13 1779 -13 
Q 1958 -13 2182 64 
Q 2214 77 2243 64 
Q 2272 51 2272 13 
L 2285 -154 
Q 2298 -243 2208 -282 
z
" transform="scale(0.015625)"/>
     </defs>
     <use xlink:href="#NanumGothic-70"/>
     <use xlink:href="#NanumGothic-69" transform="translate(60.599991 0)"/>
     <use xlink:href="#NanumGothic-76" transform="translate(84.799988 0)"/>
     <use xlink:href="#NanumGothic-6f" transform="translate(133.199982 0)"/>
     <use xlink:href="#NanumGothic-74" transform="translate(193.799973 0)"/>
    </g>
   </g>
   <g id="text_3">
    <!-- 문 닫힘 -->
    <g style="fill: #6b7280" transform="translate(166.328667 183.787714) scale(0.11 -0.11)">
     <defs>
      <path id="NanumGothic-bb38" d="M 1107 4365 
Q 1107 4634 1209 4726 
Q 1312 4819 1594 4819 
L 4422 4819 
Q 4576 4819 4669 4800 
Q 4762 4781 4816 4729 
Q 4870 4678 4889 4588 
Q 4909 4499 4909 4365 
L 4909 3174 
Q 4909 2906 4806 2813 
Q 4704 2720 4422 2720 
L 1594 2720 
Q 1440 2720 1347 2739 
Q 1254 2758 1200 2812 
Q 1146 2867 1126 2953 
Q 1107 3040 1107 3174 
L 1107 4365 
z
M 1702 4435 
Q 1613 4435 1581 4400 
Q 1549 4365 1549 4269 
L 1549 3270 
Q 1549 3174 1581 3139 
Q 1613 3104 1702 3104 
L 4314 3104 
Q 4403 3104 4435 3139 
Q 4467 3174 4467 3270 
L 4467 4269 
Q 4467 4365 4435 4400 
Q 4403 4435 4314 4435 
L 1702 4435 
z
M 2912 314 
Q 2880 314 2854 342 
Q 2829 371 2829 410 
L 2829 1715 
L 288 1715 
Q 250 1715 221 1740 
Q 192 1766 192 1798 
L 192 2016 
Q 192 2054 221 2076 
Q 250 2099 288 2099 
L 5728 2099 
Q 5760 2099 5792 2076 
Q 5824 2054 5824 2016 
L 5824 1798 
Q 5824 1766 5792 1740 
Q 5760 1715 5728 1715 
L 3270 1715 
L 3270 410 
Q 3270 371 3248 342 
Q 3226 314 3187 314 
L 2912 314 
z
M 5133 -704 
Q 5133 -742 5101 -761 
Q 5069 -781 5037 -781 
L 1510 -781 
Q 1210 -781 1117 -656 
Q 1024 -531 1024 -269 
L 1024 1005 
Q 1024 1094 1114 1094 
L 1376 1094 
Q 1466 1094 1466 1005 
L 1466 -262 
Q 1466 -352 1494 -374 
Q 1523 -397 1613 -397 
L 5037 -397 
Q 5069 -397 5101 -419 
Q 5133 -442 5133 -474 
L 5133 -704 
z
" transform="scale(0.015625)"/>
      <path id="NanumGothic-20" transform="scale(0.015625)"/>
      <path id="NanumGothic-b2eb" d="M 5069 -755 
Q 5069 -845 4986 -845 
L 1824 -845 
Q 1542 -845 1440 -752 
Q 1338 -659 1338 -390 
L 1338 819 
Q 1338 1088 1440 1181 
Q 1542 1274 1824 1274 
L 4877 1274 
Q 4960 1274 4960 1190 
L 4960 979 
Q 4960 890 4877 890 
L 1939 890 
Q 1850 890 1818 854 
Q 1786 819 1786 723 
L 1786 -294 
Q 1786 -384 1818 -422 
Q 1850 -461 1939 -461 
L 4986 -461 
Q 5069 -461 5069 -544 
L 5069 -755 
z
M 4070 2330 
Q 4090 2246 3994 2221 
Q 3782 2170 3433 2118 
Q 3085 2067 2688 2028 
Q 2291 1990 1891 1968 
Q 1491 1946 1178 1952 
Q 890 1958 784 2086 
Q 678 2214 678 2483 
L 678 4282 
Q 678 4550 780 4640 
Q 883 4730 1165 4730 
L 3347 4730 
Q 3430 4730 3430 4653 
L 3430 4422 
Q 3430 4346 3347 4346 
L 1248 4346 
Q 1158 4346 1139 4323 
Q 1120 4301 1120 4205 
L 1120 2515 
Q 1120 2419 1152 2384 
Q 1184 2349 1274 2349 
Q 1600 2349 1945 2365 
Q 2291 2381 2630 2413 
Q 2970 2445 3296 2489 
Q 3622 2534 3910 2592 
Q 3974 2605 3996 2585 
Q 4019 2566 4032 2528 
L 4070 2330 
z
M 4928 1709 
Q 4928 1619 4838 1619 
L 4576 1619 
Q 4486 1619 4486 1709 
L 4486 4915 
Q 4486 5005 4576 5005 
L 4838 5005 
Q 4928 5005 4928 4915 
L 4928 3392 
L 5811 3392 
Q 5850 3392 5878 3369 
Q 5907 3347 5907 3309 
L 5907 3091 
Q 5907 3059 5878 3033 
Q 5850 3008 5811 3008 
L 4928 3008 
L 4928 1709 
z
" transform="scale(0.015625)"/>
      <path id="NanumGothic-d798" d="M 5152 1414 
Q 5152 1325 5062 1325 
L 4800 1325 
Q 4710 1325 4710 1414 
L 4710 4915 
Q 4710 5005 4800 5005 
L 5062 5005 
Q 5152 5005 5152 4915 
L 5152 1414 
z
M 3149 4608 
Q 3149 4518 3053 4518 
L 1363 4518 
Q 1331 4518 1302 4540 
Q 1274 4563 1274 4602 
L 1274 4819 
Q 1274 4858 1299 4883 
Q 1325 4909 1357 4909 
L 3053 4909 
Q 3149 4909 3149 4819 
L 3149 4608 
z
M 4051 3821 
Q 4051 3738 3955 3738 
L 550 3738 
Q 518 3738 489 3763 
Q 461 3789 461 3827 
L 461 4032 
Q 461 4070 489 4096 
Q 518 4122 550 4122 
L 3955 4122 
Q 4051 4122 4051 4038 
L 4051 3821 
z
M 3622 2413 
Q 3622 2182 3516 1993 
Q 3411 1805 3228 1664 
Q 3046 1523 2793 1446 
Q 2541 1370 2246 1370 
Q 1946 1370 1696 1446 
Q 1446 1523 1260 1664 
Q 1075 1805 972 1997 
Q 870 2189 870 2413 
Q 870 2643 972 2835 
Q 1075 3027 1260 3161 
Q 1446 3296 1696 3373 
Q 1946 3450 2246 3450 
Q 2541 3450 2793 3373 
Q 3046 3296 3228 3158 
Q 3411 3021 3516 2829 
Q 3622 2637 3622 2413 
z
M 3194 2413 
Q 3194 2566 3123 2691 
Q 3053 2816 2925 2902 
Q 2797 2989 2624 3037 
Q 2451 3085 2246 3085 
Q 2042 3085 1869 3037 
Q 1696 2989 1568 2902 
Q 1440 2816 1366 2691 
Q 1293 2566 1293 2413 
Q 1293 2259 1366 2134 
Q 1440 2010 1568 1920 
Q 1696 1830 1869 1782 
Q 2042 1734 2246 1734 
Q 2451 1734 2624 1782 
Q 2797 1830 2925 1920 
Q 3053 2010 3123 2134 
Q 3194 2259 3194 2413 
z
M 1498 499 
Q 1498 768 1600 861 
Q 1702 954 1984 954 
L 4666 954 
Q 4819 954 4912 934 
Q 5005 915 5059 864 
Q 5114 813 5133 723 
Q 5152 634 5152 499 
L 5152 -390 
Q 5152 -659 5049 -752 
Q 4947 -845 4666 -845 
L 1984 -845 
Q 1830 -845 1737 -825 
Q 1645 -806 1590 -752 
Q 1536 -698 1517 -611 
Q 1498 -525 1498 -390 
L 1498 499 
z
M 2093 570 
Q 2003 570 1971 534 
Q 1939 499 1939 403 
L 1939 -294 
Q 1939 -390 1971 -425 
Q 2003 -461 2093 -461 
L 4557 -461 
Q 4646 -461 4678 -425 
Q 4710 -390 4710 -294 
L 4710 403 
Q 4710 499 4678 534 
Q 4646 570 4557 570 
L 2093 570 
z
" transform="scale(0.015625)"/>
     </defs>
     <use xlink:href="#NanumGothic-bb38"/>
     <use xlink:href="#NanumGothic-20" transform="translate(93.999985 0)"/>
     <use xlink:href="#NanumGothic-b2eb" transform="translate(121.999969 0)"/>
     <use xlink:href="#NanumGothic-d798" transform="translate(215.999954 0)"/>
    </g>
   </g>
   <g id="text_4">
    <!-- 문 회전 후 -->
    <g style="fill: #2563eb" transform="translate(170.038811 100.189703) scale(0.11 -0.11)">
     <defs>
      <path id="NanumGothic-d68c" d="M 4282 826 
Q 4384 845 4390 781 
L 4429 538 
Q 4442 467 4346 448 
Q 4115 410 3859 371 
Q 3603 333 3340 301 
Q 3078 269 2812 246 
Q 2547 224 2310 218 
Q 2125 211 1865 204 
Q 1606 198 1334 195 
Q 1062 192 806 189 
Q 550 186 371 192 
Q 333 192 304 217 
Q 275 243 275 275 
L 275 493 
Q 275 531 304 553 
Q 333 576 371 576 
Q 512 570 720 566 
Q 928 563 1158 566 
Q 1389 570 1625 573 
Q 1862 576 2067 582 
L 2067 1261 
Q 1805 1286 1590 1372 
Q 1376 1459 1222 1596 
Q 1069 1734 982 1916 
Q 896 2099 896 2310 
Q 896 2547 1001 2742 
Q 1107 2938 1292 3075 
Q 1478 3213 1731 3286 
Q 1984 3360 2285 3360 
Q 2579 3360 2835 3283 
Q 3091 3206 3276 3068 
Q 3462 2931 3568 2739 
Q 3674 2547 3674 2310 
Q 3674 2093 3587 1913 
Q 3501 1734 3347 1600 
Q 3194 1466 2979 1379 
Q 2765 1293 2509 1267 
L 2509 602 
Q 2707 614 2944 640 
Q 3181 666 3417 694 
Q 3654 723 3878 758 
Q 4102 794 4282 826 
z
M 5152 -806 
Q 5152 -896 5062 -896 
L 4800 -896 
Q 4710 -896 4710 -806 
L 4710 4915 
Q 4710 5005 4800 5005 
L 5062 5005 
Q 5152 5005 5152 4915 
L 5152 -806 
z
M 3238 2310 
Q 3238 2637 2969 2809 
Q 2701 2982 2285 2982 
Q 2080 2982 1904 2937 
Q 1728 2893 1600 2809 
Q 1472 2726 1398 2598 
Q 1325 2470 1325 2310 
Q 1325 2150 1398 2025 
Q 1472 1901 1600 1814 
Q 1728 1728 1904 1680 
Q 2080 1632 2285 1632 
Q 2701 1632 2969 1811 
Q 3238 1990 3238 2310 
z
M 4083 3776 
Q 4083 3693 3987 3693 
L 582 3693 
Q 550 3693 521 3718 
Q 493 3744 493 3782 
L 493 3994 
Q 493 4032 521 4057 
Q 550 4083 582 4083 
L 3987 4083 
Q 4083 4083 4083 4000 
L 4083 3776 
z
M 3181 4582 
Q 3181 4493 3085 4493 
L 1395 4493 
Q 1363 4493 1334 4515 
Q 1306 4538 1306 4576 
L 1306 4794 
Q 1306 4832 1331 4857 
Q 1357 4883 1389 4883 
L 3085 4883 
Q 3181 4883 3181 4794 
L 3181 4582 
z
" transform="scale(0.015625)"/>
      <path id="NanumGothic-c804" d="M 3309 4038 
Q 3219 3770 3052 3494 
Q 2886 3219 2662 2950 
Q 2918 2650 3254 2384 
Q 3590 2118 3917 1946 
Q 4000 1907 3955 1824 
L 3808 1606 
Q 3789 1574 3750 1571 
Q 3712 1568 3680 1587 
Q 3354 1766 3018 2048 
Q 2682 2330 2394 2643 
Q 2029 2259 1593 1939 
Q 1158 1619 717 1414 
Q 685 1402 653 1392 
Q 621 1382 602 1414 
L 474 1638 
Q 454 1670 467 1705 
Q 480 1741 512 1754 
Q 1267 2138 1865 2707 
Q 2464 3277 2822 4013 
Q 2867 4102 2835 4140 
Q 2803 4179 2714 4179 
L 838 4179 
Q 762 4179 762 4262 
L 762 4486 
Q 762 4563 838 4563 
L 2886 4563 
Q 3219 4563 3315 4444 
Q 3411 4326 3309 4038 
z
M 4710 3296 
L 4710 4915 
Q 4710 5005 4800 5005 
L 5062 5005 
Q 5152 5005 5152 4915 
L 5152 781 
Q 5152 691 5062 691 
L 4800 691 
Q 4710 691 4710 781 
L 4710 2925 
L 3501 2925 
Q 3418 2925 3418 3002 
L 3418 3219 
Q 3418 3296 3501 3296 
L 4710 3296 
z
M 5350 -704 
Q 5350 -742 5318 -761 
Q 5286 -781 5254 -781 
L 2016 -781 
Q 1715 -781 1622 -669 
Q 1530 -557 1530 -294 
L 1530 922 
Q 1530 1011 1619 1011 
L 1882 1011 
Q 1971 1011 1971 922 
L 1971 -262 
Q 1971 -352 2000 -374 
Q 2029 -397 2118 -397 
L 5254 -397 
Q 5286 -397 5318 -419 
Q 5350 -442 5350 -474 
L 5350 -704 
z
" transform="scale(0.015625)"/>
      <path id="NanumGothic-d6c4" d="M 4685 2630 
Q 4685 2419 4560 2249 
Q 4435 2080 4211 1958 
Q 3987 1837 3673 1769 
Q 3360 1702 2989 1702 
Q 2611 1702 2300 1769 
Q 1990 1837 1766 1958 
Q 1542 2080 1417 2249 
Q 1293 2419 1293 2630 
Q 1293 2842 1417 3011 
Q 1542 3181 1766 3302 
Q 1990 3424 2300 3488 
Q 2611 3552 2989 3552 
Q 3360 3552 3673 3485 
Q 3987 3418 4211 3296 
Q 4435 3174 4560 3004 
Q 4685 2835 4685 2630 
z
M 2854 -858 
Q 2822 -858 2796 -829 
Q 2771 -800 2771 -762 
L 2771 960 
L 288 960 
Q 250 960 221 985 
Q 192 1011 192 1043 
L 192 1261 
Q 192 1299 221 1321 
Q 250 1344 288 1344 
L 5728 1344 
Q 5760 1344 5792 1321 
Q 5824 1299 5824 1261 
L 5824 1043 
Q 5824 1011 5792 985 
Q 5760 960 5728 960 
L 3213 960 
L 3213 -762 
Q 3213 -800 3190 -829 
Q 3168 -858 3130 -858 
L 2854 -858 
z
M 4186 2630 
Q 4186 2765 4099 2867 
Q 4013 2970 3853 3037 
Q 3693 3104 3475 3139 
Q 3258 3174 2989 3174 
Q 2720 3174 2499 3139 
Q 2278 3104 2121 3037 
Q 1965 2970 1875 2867 
Q 1786 2765 1786 2630 
Q 1786 2496 1875 2393 
Q 1965 2291 2121 2220 
Q 2278 2150 2499 2115 
Q 2720 2080 2989 2080 
Q 3258 2080 3475 2115 
Q 3693 2150 3853 2220 
Q 4013 2291 4099 2393 
Q 4186 2496 4186 2630 
z
M 5306 3904 
Q 5306 3821 5210 3821 
L 781 3821 
Q 749 3821 720 3846 
Q 691 3872 691 3910 
L 691 4115 
Q 691 4154 720 4179 
Q 749 4205 781 4205 
L 5210 4205 
Q 5306 4205 5306 4122 
L 5306 3904 
z
M 3795 4998 
Q 3891 4998 3891 4909 
L 3891 4704 
Q 3891 4608 3795 4608 
L 2150 4608 
Q 2054 4608 2054 4704 
L 2054 4909 
Q 2054 4998 2150 4998 
L 3795 4998 
z
" transform="scale(0.015625)"/>
     </defs>
     <use xlink:href="#NanumGothic-bb38"/>
     <use xlink:href="#NanumGothic-20" transform="translate(93.999985 0)"/>
     <use xlink:href="#NanumGothic-d68c" transform="translate(121.999969 0)"/>
     <use xlink:href="#NanumGothic-c804" transform="translate(215.999954 0)"/>
     <use xlink:href="#NanumGothic-20" transform="translate(309.999939 0)"/>
     <use xlink:href="#NanumGothic-d6c4" transform="translate(337.999924 0)"/>
    </g>
   </g>
   <g id="text_5">
    <!-- 문 끝 p -->
    <g style="fill: #111827" transform="translate(287.842 168.664375) scale(0.11 -0.11)">
     <defs>
      <path id="NanumGothic-b05d" d="M 2989 4819 
Q 2989 4858 3021 4877 
Q 3053 4896 3085 4896 
L 4531 4896 
Q 4685 4896 4777 4864 
Q 4870 4832 4921 4771 
Q 4973 4710 4995 4614 
Q 5018 4518 5018 4384 
Q 5018 4243 5008 4048 
Q 4998 3853 4976 3641 
Q 4954 3430 4922 3219 
Q 4890 3008 4851 2835 
L 5728 2835 
Q 5760 2835 5792 2812 
Q 5824 2790 5824 2752 
L 5824 2534 
Q 5824 2502 5792 2476 
Q 5760 2451 5728 2451 
L 288 2451 
Q 250 2451 221 2476 
Q 192 2502 192 2534 
L 192 2752 
Q 192 2790 201 2812 
Q 211 2835 250 2835 
L 2221 2835 
Q 2266 3002 2310 3210 
Q 2355 3418 2384 3629 
Q 2413 3840 2429 4038 
Q 2445 4237 2445 4390 
Q 2445 4480 2416 4502 
Q 2387 4525 2298 4525 
L 877 4525 
Q 845 4525 813 4547 
Q 781 4570 781 4602 
L 781 4819 
Q 781 4858 813 4877 
Q 845 4896 877 4896 
L 2381 4896 
Q 2682 4896 2778 4771 
Q 2874 4646 2867 4384 
Q 2867 4218 2848 4019 
Q 2829 3821 2800 3616 
Q 2771 3411 2732 3209 
Q 2694 3008 2650 2835 
L 4429 2835 
Q 4467 3008 4499 3203 
Q 4531 3398 4553 3600 
Q 4576 3802 4585 4003 
Q 4595 4205 4595 4390 
Q 4595 4480 4566 4502 
Q 4538 4525 4448 4525 
L 3085 4525 
Q 3053 4525 3021 4547 
Q 2989 4570 2989 4602 
L 2989 4819 
z
M 4851 333 
Q 4851 256 4774 256 
L 1517 256 
L 1517 -320 
Q 1517 -410 1549 -448 
Q 1581 -486 1670 -486 
L 4922 -486 
Q 5005 -486 5005 -570 
L 5005 -768 
Q 5005 -858 4922 -858 
L 1568 -858 
Q 1286 -858 1184 -765 
Q 1082 -672 1082 -403 
L 1082 1274 
Q 1082 1542 1184 1635 
Q 1286 1728 1568 1728 
L 4877 1728 
Q 4960 1728 4960 1645 
L 4960 1453 
Q 4960 1363 4877 1363 
L 1670 1363 
Q 1581 1363 1549 1328 
Q 1517 1293 1517 1197 
L 1517 627 
L 4768 627 
Q 4851 627 4851 550 
L 4851 333 
z
" transform="scale(0.015625)"/>
     </defs>
     <use xlink:href="#NanumGothic-bb38"/>
     <use xlink:href="#NanumGothic-20" transform="translate(93.999985 0)"/>
     <use xlink:href="#NanumGothic-b05d" transform="translate(121.999969 0)"/>
     <use xlink:href="#NanumGothic-20" transform="translate(215.999954 0)"/>
     <use xlink:href="#NanumGothic-70" transform="translate(243.999939 0)"/>
    </g>
   </g>
   <g id="text_6">
    <!-- 회전축 -->
    <g style="fill: #ef4444" transform="translate(92.210667 210.862552) scale(0.11 -0.11)">
     <defs>
      <path id="NanumGothic-cd95" d="M 947 806 
Q 947 845 979 864 
Q 1011 883 1043 883 
L 2778 883 
L 2778 1587 
L 288 1587 
Q 250 1587 221 1612 
Q 192 1638 192 1670 
L 192 1888 
Q 192 1926 221 1948 
Q 250 1971 288 1971 
L 5728 1971 
Q 5760 1971 5792 1948 
Q 5824 1926 5824 1888 
L 5824 1670 
Q 5824 1638 5792 1612 
Q 5760 1587 5728 1587 
L 3219 1587 
L 3219 883 
L 4442 883 
Q 4742 883 4835 771 
Q 4928 659 4928 397 
L 4928 -870 
Q 4928 -960 4838 -960 
L 4576 -960 
Q 4486 -960 4486 -870 
L 4486 365 
Q 4486 454 4457 476 
Q 4429 499 4339 499 
L 1043 499 
Q 1011 499 979 521 
Q 947 544 947 576 
L 947 806 
z
M 4403 3610 
Q 4237 3482 4029 3366 
Q 3821 3251 3578 3142 
Q 3936 3040 4352 2953 
Q 4768 2867 5146 2816 
Q 5197 2803 5206 2784 
Q 5216 2765 5203 2720 
L 5146 2502 
Q 5126 2432 5043 2451 
Q 4838 2483 4585 2531 
Q 4333 2579 4064 2643 
Q 3795 2707 3526 2774 
Q 3258 2842 3014 2912 
Q 2573 2746 2064 2614 
Q 1555 2483 998 2387 
Q 902 2368 877 2432 
L 800 2650 
Q 787 2682 806 2710 
Q 826 2739 864 2752 
Q 1331 2842 1734 2944 
Q 2138 3046 2499 3161 
Q 2861 3277 3187 3408 
Q 3514 3539 3834 3693 
Q 3942 3744 3932 3789 
Q 3923 3834 3821 3834 
L 1274 3834 
Q 1190 3834 1190 3917 
L 1190 4141 
Q 1190 4218 1274 4218 
L 4038 4218 
Q 4538 4218 4646 4042 
Q 4755 3866 4403 3610 
z
M 3814 5005 
Q 3910 5005 3910 4915 
L 3910 4710 
Q 3910 4614 3814 4614 
L 2131 4614 
Q 2035 4614 2035 4710 
L 2035 4915 
Q 2035 5005 2131 5005 
L 3814 5005 
z
" transform="scale(0.015625)"/>
     </defs>
     <use xlink:href="#NanumGothic-d68c"/>
     <use xlink:href="#NanumGothic-c804" transform="translate(93.999985 0)"/>
     <use xlink:href="#NanumGothic-cd95" transform="translate(187.999969 0)"/>
    </g>
   </g>
   <g id="text_7">
    <!-- 공식: p' = pivot + rotate(p - pivot, angle) -->
    <g style="fill: #111827" transform="translate(46.626667 58.585542) scale(0.11 -0.11)">
     <defs>
      <path id="NanumGothic-acf5" d="M 4992 243 
Q 4992 -70 4813 -294 
Q 4634 -518 4349 -659 
Q 4064 -800 3705 -867 
Q 3347 -934 2995 -934 
Q 2650 -934 2294 -867 
Q 1939 -800 1651 -659 
Q 1363 -518 1184 -294 
Q 1005 -70 1005 243 
Q 1005 550 1184 774 
Q 1363 998 1651 1142 
Q 1939 1286 2294 1356 
Q 2650 1427 2995 1427 
Q 3354 1427 3709 1360 
Q 4064 1293 4349 1149 
Q 4634 1005 4813 781 
Q 4992 557 4992 243 
z
M 4525 237 
Q 4525 448 4374 595 
Q 4224 742 3993 838 
Q 3763 934 3494 979 
Q 3226 1024 2995 1024 
Q 2752 1024 2483 979 
Q 2214 934 1990 838 
Q 1766 742 1619 595 
Q 1472 448 1472 237 
Q 1472 32 1619 -115 
Q 1766 -262 1990 -355 
Q 2214 -448 2483 -489 
Q 2752 -531 2995 -531 
Q 3232 -531 3501 -489 
Q 3770 -448 3997 -355 
Q 4224 -262 4374 -115 
Q 4525 32 4525 237 
z
M 2918 3475 
Q 2950 3475 2976 3446 
Q 3002 3418 3002 3379 
L 3002 2304 
L 5728 2304 
Q 5760 2304 5792 2281 
Q 5824 2259 5824 2221 
L 5824 2003 
Q 5824 1971 5792 1945 
Q 5760 1920 5728 1920 
L 288 1920 
Q 250 1920 221 1945 
Q 192 1971 192 2003 
L 192 2221 
Q 192 2259 221 2281 
Q 250 2304 288 2304 
L 2573 2304 
L 2573 3379 
Q 2573 3418 2595 3446 
Q 2618 3475 2656 3475 
L 2918 3475 
z
M 1056 4794 
Q 1056 4832 1088 4851 
Q 1120 4870 1152 4870 
L 4461 4870 
Q 4614 4870 4707 4838 
Q 4800 4806 4851 4745 
Q 4902 4685 4924 4589 
Q 4947 4493 4947 4358 
Q 4947 4166 4934 3948 
Q 4922 3731 4896 3520 
Q 4870 3309 4835 3113 
Q 4800 2918 4768 2771 
Q 4755 2733 4732 2701 
Q 4710 2669 4672 2675 
L 4416 2694 
Q 4307 2701 4339 2810 
Q 4378 2950 4410 3152 
Q 4442 3354 4467 3568 
Q 4493 3782 4502 3990 
Q 4512 4198 4512 4352 
Q 4512 4442 4483 4464 
Q 4454 4486 4365 4486 
L 1152 4486 
Q 1120 4486 1088 4508 
Q 1056 4531 1056 4563 
L 1056 4794 
z
" transform="scale(0.015625)"/>
      <path id="NanumGothic-c2dd" d="M 2342 4742 
Q 2342 4275 2246 3872 
Q 2323 3603 2460 3360 
Q 2598 3117 2784 2905 
Q 2970 2694 3190 2524 
Q 3411 2355 3654 2240 
Q 3693 2221 3689 2185 
Q 3686 2150 3674 2125 
L 3539 1914 
Q 3520 1882 3494 1869 
Q 3469 1856 3411 1888 
Q 3264 1965 3075 2096 
Q 2886 2227 2694 2406 
Q 2502 2586 2329 2800 
Q 2157 3014 2042 3245 
Q 1830 2758 1472 2361 
Q 1114 1965 634 1651 
Q 602 1632 563 1625 
Q 525 1619 499 1651 
L 339 1862 
Q 326 1888 336 1926 
Q 346 1965 378 1984 
Q 1139 2451 1523 3161 
Q 1907 3872 1894 4749 
Q 1894 4851 1971 4851 
L 2272 4832 
Q 2342 4832 2342 4742 
z
M 1421 1165 
Q 1421 1203 1453 1222 
Q 1485 1242 1517 1242 
L 4666 1242 
Q 4966 1242 5059 1130 
Q 5152 1018 5152 755 
L 5152 -832 
Q 5152 -922 5062 -922 
L 4800 -922 
Q 4710 -922 4710 -832 
L 4710 723 
Q 4710 813 4681 835 
Q 4653 858 4563 858 
L 1517 858 
Q 1485 858 1453 880 
Q 1421 902 1421 934 
L 1421 1165 
z
M 5152 1683 
Q 5152 1594 5062 1594 
L 4800 1594 
Q 4710 1594 4710 1683 
L 4710 4915 
Q 4710 5005 4800 5005 
L 5062 5005 
Q 5152 5005 5152 4915 
L 5152 1683 
z
" transform="scale(0.015625)"/>
      <path id="NanumGothic-3a" d="M 646 3526 
Q 646 3674 755 3782 
Q 864 3891 1011 3891 
Q 1158 3891 1267 3782 
Q 1376 3674 1376 3526 
Q 1376 3379 1267 3270 
Q 1158 3162 1011 3162 
Q 864 3162 755 3270 
Q 646 3379 646 3526 
z
M 646 640 
Q 646 787 755 896 
Q 864 1005 1011 1005 
Q 1158 1005 1267 896 
Q 1376 787 1376 640 
Q 1376 493 1267 384 
Q 1158 275 1011 275 
Q 864 275 755 384 
Q 646 493 646 640 
z
" transform="scale(0.015625)"/>
      <path id="NanumGothic-27" d="M 1229 3117 
Q 1229 3046 1219 3036 
Q 1210 3027 1139 3027 
L 890 3027 
Q 819 3027 809 3036 
Q 800 3046 800 3117 
L 800 4416 
Q 800 4486 809 4496 
Q 819 4506 890 4506 
L 1139 4506 
Q 1210 4506 1219 4496 
Q 1229 4486 1229 4416 
L 1229 3117 
z
" transform="scale(0.015625)"/>
      <path id="NanumGothic-3d" d="M 3757 2995 
Q 3827 2995 3836 2985 
Q 3846 2976 3846 2906 
L 3846 2618 
Q 3846 2547 3836 2537 
Q 3827 2528 3757 2528 
L 467 2528 
Q 397 2528 387 2537 
Q 378 2547 378 2618 
L 378 2906 
Q 378 2976 387 2985 
Q 397 2995 467 2995 
L 3757 2995 
z
M 3757 1626 
Q 3827 1626 3836 1616 
Q 3846 1606 3846 1536 
L 3846 1261 
Q 3846 1190 3836 1180 
Q 3827 1171 3757 1171 
L 467 1171 
Q 397 1171 387 1180 
Q 378 1190 378 1261 
L 378 1536 
Q 378 1606 387 1616 
Q 397 1626 467 1626 
L 3757 1626 
z
" transform="scale(0.015625)"/>
      <path id="NanumGothic-2b" d="M 3846 1971 
Q 3846 1882 3830 1869 
Q 3814 1856 3725 1856 
L 2342 1856 
L 2342 474 
Q 2342 390 2329 377 
Q 2317 365 2234 365 
L 1984 365 
Q 1901 365 1888 377 
Q 1875 390 1875 474 
L 1875 1856 
L 499 1856 
Q 410 1856 394 1869 
Q 378 1882 378 1971 
L 378 2202 
Q 378 2291 394 2304 
Q 410 2317 499 2317 
L 1875 2317 
L 1875 3686 
Q 1875 3776 1891 3789 
Q 1907 3802 1997 3802 
L 2221 3802 
Q 2310 3802 2326 3789 
Q 2342 3776 2342 3686 
L 2342 2317 
L 3725 2317 
Q 3814 2317 3830 2304 
Q 3846 2291 3846 2202 
L 3846 1971 
z
" transform="scale(0.015625)"/>
      <path id="NanumGothic-72" d="M 2221 2797 
Q 2106 2835 1914 2835 
Q 1440 2835 1210 2368 
Q 1030 2003 1030 1434 
L 1030 -186 
Q 1030 -275 941 -275 
L 691 -275 
Q 602 -275 602 -186 
L 602 2413 
Q 602 2643 598 2787 
Q 595 2931 589 3098 
Q 589 3187 678 3187 
L 915 3187 
Q 1005 3187 1005 3098 
L 1005 2470 
Q 1318 3277 1926 3277 
Q 2074 3277 2221 3238 
Q 2259 3226 2288 3197 
Q 2317 3168 2317 3117 
L 2317 2848 
Q 2317 2810 2285 2797 
Q 2253 2784 2221 2797 
z
" transform="scale(0.015625)"/>
      <path id="NanumGothic-61" d="M 2566 1530 
L 2445 1530 
Q 2086 1542 1808 1500 
Q 1530 1459 1344 1389 
Q 1075 1293 940 1104 
Q 806 915 806 653 
Q 806 493 857 355 
Q 909 218 1018 141 
Q 1210 -13 1530 -13 
Q 1754 -13 1942 76 
Q 2131 166 2272 332 
Q 2413 499 2489 745 
Q 2566 992 2566 1312 
L 2566 1530 
z
M 742 2650 
Q 710 2630 681 2640 
Q 653 2650 653 2682 
L 653 2925 
Q 653 3014 742 3059 
Q 966 3181 1219 3229 
Q 1472 3277 1773 3277 
Q 2413 3277 2707 2973 
Q 3002 2669 3002 2054 
L 3002 448 
Q 3002 256 3008 105 
Q 3014 -45 3027 -186 
Q 3027 -275 2938 -275 
L 2707 -275 
Q 2618 -275 2618 -186 
L 2618 307 
Q 2483 -19 2166 -198 
Q 1850 -378 1478 -378 
Q 832 -378 531 0 
Q 429 128 377 297 
Q 326 467 326 634 
Q 326 1024 508 1305 
Q 691 1587 1069 1728 
Q 1530 1894 2483 1894 
L 2566 1894 
L 2566 2086 
Q 2566 2490 2384 2701 
Q 2202 2912 1773 2912 
Q 1485 2912 1229 2851 
Q 973 2790 742 2650 
z
" transform="scale(0.015625)"/>
      <path id="NanumGothic-65" d="M 2733 1696 
Q 2733 1958 2681 2163 
Q 2630 2368 2522 2534 
Q 2285 2912 1837 2912 
Q 1376 2912 1088 2528 
Q 973 2355 896 2131 
Q 819 1907 813 1696 
L 2733 1696 
z
M 813 1331 
Q 806 1011 886 764 
Q 966 518 1120 352 
Q 1274 186 1488 96 
Q 1702 6 1965 6 
Q 2221 6 2445 54 
Q 2669 102 2861 211 
Q 2944 250 2944 166 
L 2944 -122 
Q 2944 -179 2874 -211 
Q 2662 -294 2432 -336 
Q 2202 -378 1933 -378 
Q 1146 -378 742 80 
Q 339 538 339 1459 
Q 339 2272 742 2771 
Q 1165 3277 1811 3277 
Q 2170 3277 2432 3149 
Q 2694 3021 2880 2765 
Q 3206 2310 3206 1549 
Q 3206 1466 3203 1421 
Q 3200 1376 3181 1357 
Q 3162 1338 3114 1334 
Q 3066 1331 2976 1331 
L 813 1331 
z
" transform="scale(0.015625)"/>
      <path id="NanumGothic-28" d="M 1984 -1133 
Q 1939 -1133 1929 -1129 
Q 1920 -1126 1894 -1094 
Q 1312 -365 1030 384 
Q 749 1133 749 1933 
Q 749 2726 1030 3475 
Q 1312 4224 1894 4960 
Q 1920 4992 1929 4995 
Q 1939 4998 1971 4998 
L 2150 4998 
Q 2189 4998 2189 4992 
Q 2189 4986 2170 4954 
Q 1165 3379 1165 1933 
Q 1165 1197 1421 448 
Q 1677 -301 2176 -1088 
Q 2208 -1133 2144 -1133 
L 1984 -1133 
z
" transform="scale(0.015625)"/>
      <path id="NanumGothic-2d" d="M 1946 2419 
Q 2016 2419 2025 2409 
Q 2035 2400 2035 2330 
L 2035 2048 
Q 2035 1978 2025 1968 
Q 2016 1958 1946 1958 
L 448 1958 
Q 378 1958 368 1968 
Q 358 1978 358 2048 
L 358 2330 
Q 358 2400 368 2409 
Q 378 2419 448 2419 
L 1946 2419 
z
" transform="scale(0.015625)"/>
      <path id="NanumGothic-2c" d="M 1299 115 
Q 1382 115 1382 86 
Q 1382 58 1370 19 
L 947 -1126 
Q 922 -1178 899 -1194 
Q 877 -1210 832 -1210 
L 563 -1210 
Q 480 -1210 499 -1120 
L 800 6 
Q 813 45 838 80 
Q 864 115 934 115 
L 1299 115 
z
" transform="scale(0.015625)"/>
      <path id="NanumGothic-6e" d="M 3334 -186 
Q 3334 -275 3245 -275 
L 2989 -275 
Q 2899 -275 2899 -186 
L 2899 1830 
Q 2899 2419 2688 2665 
Q 2477 2912 2093 2912 
Q 1574 2912 1302 2624 
Q 1030 2336 1030 1818 
L 1030 -186 
Q 1030 -275 941 -275 
L 685 -275 
Q 595 -275 595 -186 
L 595 2374 
Q 595 2650 592 2803 
Q 589 2957 576 3098 
Q 570 3142 598 3164 
Q 627 3187 666 3187 
L 896 3187 
Q 986 3187 986 3098 
L 986 2746 
Q 1165 3021 1417 3149 
Q 1670 3277 2112 3277 
Q 2720 3277 3027 2925 
Q 3334 2573 3334 1933 
L 3334 -186 
z
" transform="scale(0.015625)"/>
      <path id="NanumGothic-67" d="M 2950 1472 
Q 2950 2157 2668 2528 
Q 2387 2899 1907 2899 
Q 1389 2899 1126 2553 
Q 864 2208 864 1459 
Q 864 1184 941 953 
Q 1018 723 1152 560 
Q 1286 397 1472 304 
Q 1658 211 1875 211 
Q 2099 211 2297 304 
Q 2496 397 2640 566 
Q 2784 736 2867 966 
Q 2950 1197 2950 1472 
z
M 749 -1114 
Q 672 -1094 685 -1018 
L 704 -736 
Q 704 -653 787 -698 
Q 1030 -806 1254 -854 
Q 1478 -902 1741 -902 
Q 2323 -902 2614 -547 
Q 2906 -192 2944 422 
Q 2797 134 2509 -13 
Q 2221 -160 1869 -160 
Q 1555 -160 1286 -45 
Q 1018 70 819 281 
Q 621 493 505 793 
Q 390 1094 390 1459 
Q 390 1888 470 2224 
Q 550 2560 723 2790 
Q 896 3021 1171 3142 
Q 1446 3264 1837 3264 
Q 2176 3264 2435 3152 
Q 2694 3040 2963 2752 
L 2950 3098 
Q 2950 3187 3040 3187 
L 3283 3187 
Q 3373 3187 3373 3098 
L 3373 538 
Q 3373 122 3267 -214 
Q 3162 -550 2954 -784 
Q 2746 -1018 2438 -1142 
Q 2131 -1267 1734 -1267 
Q 1446 -1267 1228 -1232 
Q 1011 -1197 749 -1114 
z
" transform="scale(0.015625)"/>
      <path id="NanumGothic-6c" d="M 1056 -186 
Q 1056 -275 966 -275 
L 685 -275 
Q 595 -275 595 -186 
L 595 4723 
Q 595 4813 685 4813 
L 966 4813 
Q 1056 4813 1056 4723 
L 1056 -186 
z
" transform="scale(0.015625)"/>
      <path id="NanumGothic-29" d="M 301 -1133 
Q 243 -1133 275 -1088 
Q 774 -301 1027 448 
Q 1280 1197 1280 1933 
Q 1280 2662 1030 3414 
Q 781 4166 282 4954 
Q 262 4986 262 4992 
Q 262 4998 294 4998 
L 474 4998 
Q 506 4998 515 4995 
Q 525 4992 557 4960 
Q 1139 4224 1417 3475 
Q 1696 2726 1696 1933 
Q 1696 1133 1417 384 
Q 1139 -365 557 -1094 
Q 525 -1126 515 -1129 
Q 506 -1133 461 -1133 
L 301 -1133 
z
" transform="scale(0.015625)"/>
     </defs>
     <use xlink:href="#NanumGothic-acf5"/>
     <use xlink:href="#NanumGothic-c2dd" transform="translate(93.999985 0)"/>
     <use xlink:href="#NanumGothic-3a" transform="translate(187.999969 0)"/>
     <use xlink:href="#NanumGothic-20" transform="translate(218.299957 0)"/>
     <use xlink:href="#NanumGothic-70" transform="translate(246.299942 0)"/>
     <use xlink:href="#NanumGothic-27" transform="translate(306.899933 0)"/>
     <use xlink:href="#NanumGothic-20" transform="translate(337.199921 0)"/>
     <use xlink:href="#NanumGothic-3d" transform="translate(365.199905 0)"/>
     <use xlink:href="#NanumGothic-20" transform="translate(430.599899 0)"/>
     <use xlink:href="#NanumGothic-70" transform="translate(458.599884 0)"/>
     <use xlink:href="#NanumGothic-69" transform="translate(519.199875 0)"/>
     <use xlink:href="#NanumGothic-76" transform="translate(543.399872 0)"/>
     <use xlink:href="#NanumGothic-6f" transform="translate(591.799866 0)"/>
     <use xlink:href="#NanumGothic-74" transform="translate(652.399857 0)"/>
     <use xlink:href="#NanumGothic-20" transform="translate(688.699844 0)"/>
     <use xlink:href="#NanumGothic-2b" transform="translate(716.699829 0)"/>
     <use xlink:href="#NanumGothic-20" transform="translate(782.099823 0)"/>
     <use xlink:href="#NanumGothic-72" transform="translate(810.099808 0)"/>
     <use xlink:href="#NanumGothic-6f" transform="translate(846.399796 0)"/>
     <use xlink:href="#NanumGothic-74" transform="translate(906.999786 0)"/>
     <use xlink:href="#NanumGothic-61" transform="translate(943.299774 0)"/>
     <use xlink:href="#NanumGothic-74" transform="translate(997.799759 0)"/>
     <use xlink:href="#NanumGothic-65" transform="translate(1034.099747 0)"/>
     <use xlink:href="#NanumGothic-28" transform="translate(1088.599731 0)"/>
     <use xlink:href="#NanumGothic-70" transform="translate(1124.899719 0)"/>
     <use xlink:href="#NanumGothic-20" transform="translate(1185.49971 0)"/>
     <use xlink:href="#NanumGothic-2d" transform="translate(1213.499695 0)"/>
     <use xlink:href="#NanumGothic-20" transform="translate(1249.799683 0)"/>
     <use xlink:href="#NanumGothic-70" transform="translate(1277.799667 0)"/>
     <use xlink:href="#NanumGothic-69" transform="translate(1338.399658 0)"/>
     <use xlink:href="#NanumGothic-76" transform="translate(1362.599655 0)"/>
     <use xlink:href="#NanumGothic-6f" transform="translate(1410.999649 0)"/>
     <use xlink:href="#NanumGothic-74" transform="translate(1471.59964 0)"/>
     <use xlink:href="#NanumGothic-2c" transform="translate(1507.899628 0)"/>
     <use xlink:href="#NanumGothic-20" transform="translate(1538.199615 0)"/>
     <use xlink:href="#NanumGothic-61" transform="translate(1566.1996 0)"/>
     <use xlink:href="#NanumGothic-6e" transform="translate(1620.699585 0)"/>
     <use xlink:href="#NanumGothic-67" transform="translate(1681.299576 0)"/>
     <use xlink:href="#NanumGothic-6c" transform="translate(1741.899567 0)"/>
     <use xlink:href="#NanumGothic-65" transform="translate(1766.099564 0)"/>
     <use xlink:href="#NanumGothic-29" transform="translate(1820.599548 0)"/>
    </g>
   </g>
  </g>
 </g>
 <defs>
  <clipPath id="pb23d784bf3">
   <rect x="8.64" y="28.782531" width="379.866667" height="205.128"/>
  </clipPath>
 </defs>
</svg>
