<?xml version="1.0" encoding="utf-8" standalone="no"?>
<!DOCTYPE svg PUBLIC "-//W3C//DTD SVG 1.1//EN"
  "http://www.w3.org/Graphics/SVG/1.1/DTD/svg11.dtd">
<svg xmlns:xlink="http://www.w3.org/1999/xlink" width="311.724pt" height="111.312pt" viewBox="0 0 311.724 111.312" xmlns="http://www.w3.org/2000/svg" version="1.1">
 <metadata>
  <rdf:RDF xmlns:dc="http://purl.org/dc/elements/1.1/" xmlns:cc="http://creativecommons.org/ns#" xmlns:rdf="http://www.w3.org/1999/02/22-rdf-syntax-ns#">
   <cc:Work>
    <dc:type rdf:resource="http://purl.org/dc/dcmitype/StillImage"/>
    <dc:date>2026-07-08T05:12:55.573569</dc:date>
    <dc:format>image/svg+xml</dc:format>
    <dc:creator>
     <cc:Agent>
      <dc:title>Matplotlib v3.10.8, https://matplotlib.org/</dc:title>
     </cc:Agent>
    </dc:creator>
   </cc:Work>
  </rdf:RDF>
 </metadata>
 <defs>
  <style type="text/css">*{stroke-linejoin: round; stroke-linecap: butt}</style>
 </defs>
 <g id="figure_1">
  <g id="patch_1">
   <path d="M 0 111.312 
L 311.724 111.312 
L 311.724 0 
L 0 0 
z
" style="fill: #ffffff"/>
  </g>
  <g id="axes_1">
   <g id="patch_2">
    <path d="M 5.76 105.552 
L 305.964 105.552 
L 305.964 5.76 
L 5.76 5.76 
z
" clip-path="url(#pf12529b785)" style="fill: #ffffff; stroke: #e5e7eb; stroke-linejoin: miter"/>
   </g>
   <g id="text_1">
    <!-- 60fps라면 dt ≈ 1 / 60 -->
    <g style="fill: #111827" transform="translate(17.76816 26.337384) scale(0.11 -0.11)">
     <defs>
      <path id="NanumGothicCoding-36" d="M 2643 3661 
Q 2502 3712 2358 3741 
Q 2214 3770 2080 3770 
Q 1446 3770 1056 3200 
Q 723 2694 704 1888 
Q 832 2131 1043 2298 
Q 1318 2515 1696 2515 
Q 2118 2515 2451 2227 
Q 2925 1818 2925 1120 
Q 2925 499 2547 77 
Q 2163 -346 1651 -346 
Q 1139 -346 749 70 
Q 275 595 269 1760 
Q 269 2816 736 3469 
Q 1280 4166 2067 4166 
Q 2189 4166 2355 4144 
Q 2522 4122 2669 4077 
Q 2765 4064 2752 3974 
L 2739 3718 
Q 2739 3680 2707 3664 
Q 2675 3648 2643 3661 
z
M 2483 1088 
Q 2490 1453 2310 1741 
Q 2054 2112 1651 2112 
Q 1498 2118 1328 2035 
Q 1158 1952 1040 1792 
Q 922 1632 867 1446 
Q 813 1261 813 1088 
Q 813 723 992 435 
Q 1248 45 1651 45 
Q 2054 45 2310 435 
Q 2477 723 2483 1088 
z
" transform="scale(0.015625)"/>
      <path id="NanumGothicCoding-30" d="M 1747 1242 
L 1453 1242 
Q 1376 1242 1376 1331 
L 1376 2355 
Q 1376 2445 1453 2445 
L 1747 2445 
Q 1824 2445 1824 2355 
L 1824 1331 
Q 1824 1242 1747 1242 
z
M 2470 1907 
Q 2483 3731 1600 3731 
Q 717 3731 730 1907 
Q 717 77 1600 77 
Q 2483 77 2470 1907 
z
M 2906 1907 
Q 2906 -326 1606 -326 
Q 294 -326 294 1907 
Q 294 2726 544 3354 
Q 909 4141 1606 4141 
Q 2285 4141 2662 3354 
Q 2790 3040 2848 2637 
Q 2906 2234 2906 1907 
z
" transform="scale(0.015625)"/>
      <path id="NanumGothicCoding-66" d="M 2694 4422 
Q 2765 4390 2758 4333 
L 2720 4109 
Q 2714 4070 2688 4060 
Q 2662 4051 2637 4064 
Q 2534 4109 2416 4134 
Q 2298 4160 2176 4160 
Q 1798 4160 1690 3782 
Q 1645 3629 1645 3110 
L 1645 2784 
L 2765 2784 
Q 2854 2784 2854 2694 
L 2854 2502 
Q 2854 2413 2765 2413 
L 1645 2413 
L 1645 -186 
Q 1645 -275 1555 -275 
L 1306 -275 
Q 1216 -275 1216 -186 
L 1216 2413 
L 442 2413 
Q 352 2413 352 2502 
L 352 2694 
Q 352 2784 442 2784 
L 1216 2784 
L 1216 3066 
Q 1216 3763 1344 4070 
Q 1542 4531 2138 4531 
Q 2438 4531 2694 4422 
z
" transform="scale(0.015625)"/>
      <path id="NanumGothicCoding-70" d="M 397 2848 
Q 397 2931 486 2931 
L 736 2931 
Q 826 2931 826 2848 
L 826 2381 
Q 1088 2995 1722 2995 
Q 2016 2995 2256 2854 
Q 2496 2714 2669 2448 
Q 2842 2182 2915 1875 
Q 2989 1568 2989 1229 
Q 2989 627 2656 124 
Q 2323 -378 1722 -378 
Q 1402 -378 1174 -218 
Q 947 -58 826 173 
L 826 -1171 
Q 826 -1254 736 -1254 
L 486 -1254 
Q 397 -1254 397 -1171 
L 397 2848 
z
M 2534 1299 
Q 2541 1498 2496 1731 
Q 2451 1965 2345 2173 
Q 2240 2381 2080 2502 
Q 1920 2624 1683 2624 
Q 1446 2624 1286 2502 
Q 1126 2381 1020 2173 
Q 915 1965 876 1731 
Q 838 1498 838 1299 
Q 838 1114 876 874 
Q 915 634 1020 429 
Q 1126 224 1286 102 
Q 1446 -19 1683 -19 
Q 1920 -19 2080 102 
Q 2240 224 2349 429 
Q 2458 634 2499 874 
Q 2541 1114 2534 1299 
z
" transform="scale(0.015625)"/>
      <path id="NanumGothicCoding-73" d="M 582 147 
Q 992 -13 1427 -13 
Q 1792 -13 2045 169 
Q 2298 352 2298 538 
Q 2298 710 2157 838 
Q 2016 966 1811 1069 
Q 1594 1184 1386 1289 
Q 1178 1395 966 1504 
Q 723 1626 611 1802 
Q 499 1978 499 2144 
Q 499 2349 588 2509 
Q 678 2669 832 2790 
Q 986 2912 1206 2973 
Q 1427 3034 1677 3034 
Q 1907 3034 2099 3008 
Q 2291 2982 2496 2918 
Q 2541 2906 2569 2880 
Q 2598 2854 2592 2816 
L 2573 2611 
Q 2566 2560 2531 2547 
Q 2496 2534 2464 2547 
Q 2278 2618 2105 2643 
Q 1933 2669 1722 2669 
Q 947 2669 947 2144 
Q 947 2048 1049 1942 
Q 1152 1837 1402 1728 
Q 1645 1613 1840 1520 
Q 2035 1427 2272 1299 
Q 2554 1133 2659 953 
Q 2765 774 2765 544 
Q 2765 358 2656 166 
Q 2547 -26 2364 -141 
Q 2182 -256 1945 -317 
Q 1709 -378 1466 -378 
Q 1312 -378 1193 -371 
Q 1075 -365 969 -352 
Q 864 -339 758 -320 
Q 653 -301 538 -269 
Q 435 -237 442 -160 
L 474 90 
Q 493 186 582 147 
z
" transform="scale(0.015625)"/>
      <path id="NanumGothicCoding-b77c" d="M 1280 570 
Q 992 582 893 688 
Q 794 794 794 1062 
L 794 2330 
Q 794 2598 906 2691 
Q 1018 2784 1306 2784 
L 2918 2784 
Q 3008 2784 3033 2809 
Q 3059 2835 3059 2931 
L 3059 3994 
Q 3059 4090 3036 4115 
Q 3014 4141 2925 4141 
L 909 4141 
Q 877 4141 848 4160 
Q 819 4179 819 4211 
L 819 4454 
Q 819 4486 848 4505 
Q 877 4525 909 4525 
L 2995 4525 
Q 3149 4525 3245 4502 
Q 3341 4480 3398 4429 
Q 3456 4378 3478 4285 
Q 3501 4192 3501 4058 
L 3501 2854 
Q 3501 2586 3389 2493 
Q 3277 2400 2989 2400 
L 1370 2400 
Q 1280 2400 1257 2374 
Q 1235 2349 1235 2253 
L 1235 1094 
Q 1235 947 1376 947 
Q 2138 934 2838 1004 
Q 3539 1075 4198 1222 
Q 4288 1242 4307 1158 
L 4346 947 
Q 4358 864 4262 838 
Q 3923 762 3548 707 
Q 3174 653 2790 617 
Q 2406 582 2022 569 
Q 1638 557 1280 570 
z
M 5120 -806 
Q 5120 -896 5030 -896 
L 4768 -896 
Q 4678 -896 4678 -806 
L 4678 4915 
Q 4678 5005 4768 5005 
L 5030 5005 
Q 5120 5005 5120 4915 
L 5120 2586 
L 6003 2586 
Q 6042 2586 6070 2563 
Q 6099 2541 6099 2502 
L 6099 2285 
Q 6099 2253 6070 2227 
Q 6042 2202 6003 2202 
L 5120 2202 
L 5120 -806 
z
" transform="scale(0.015625)"/>
      <path id="NanumGothicCoding-ba74" d="M 5344 877 
Q 5344 787 5254 787 
L 4992 787 
Q 4902 787 4902 877 
L 4902 2381 
L 3635 2381 
L 3635 2227 
Q 3635 1958 3532 1865 
Q 3430 1773 3149 1773 
L 1389 1773 
Q 1235 1773 1142 1792 
Q 1050 1811 995 1865 
Q 941 1920 921 2006 
Q 902 2093 902 2227 
L 902 4205 
Q 902 4474 1004 4566 
Q 1107 4659 1389 4659 
L 3149 4659 
Q 3302 4659 3395 4640 
Q 3488 4621 3542 4569 
Q 3597 4518 3616 4428 
Q 3635 4339 3635 4205 
L 3635 3974 
L 4902 3974 
L 4902 4915 
Q 4902 5005 4992 5005 
L 5254 5005 
Q 5344 5005 5344 4915 
L 5344 877 
z
M 1498 4275 
Q 1408 4275 1376 4240 
Q 1344 4205 1344 4109 
L 1344 2323 
Q 1344 2227 1376 2192 
Q 1408 2157 1498 2157 
L 3040 2157 
Q 3130 2157 3162 2192 
Q 3194 2227 3194 2323 
L 3194 4109 
Q 3194 4205 3162 4240 
Q 3130 4275 3040 4275 
L 1498 4275 
z
M 5542 -704 
Q 5542 -742 5510 -761 
Q 5478 -781 5446 -781 
L 2240 -781 
Q 1939 -781 1846 -669 
Q 1754 -557 1754 -294 
L 1754 1005 
Q 1754 1094 1843 1094 
L 2106 1094 
Q 2195 1094 2195 1005 
L 2195 -262 
Q 2195 -352 2224 -374 
Q 2253 -397 2342 -397 
L 5446 -397 
Q 5478 -397 5510 -419 
Q 5542 -442 5542 -474 
L 5542 -704 
z
M 3635 2758 
L 4902 2758 
L 4902 3597 
L 3635 3597 
L 3635 2758 
z
" transform="scale(0.015625)"/>
      <path id="NanumGothicCoding-20" transform="scale(0.015625)"/>
      <path id="NanumGothicCoding-64" d="M 2816 -192 
Q 2816 -275 2726 -275 
L 2477 -275 
Q 2387 -275 2387 -192 
L 2387 275 
Q 2125 -339 1491 -339 
Q 1197 -339 957 -198 
Q 717 -58 544 208 
Q 371 474 297 781 
Q 224 1088 224 1427 
Q 224 2029 557 2531 
Q 890 3034 1491 3034 
Q 1811 3034 2038 2874 
Q 2266 2714 2387 2464 
L 2387 4371 
Q 2387 4454 2477 4454 
L 2726 4454 
Q 2816 4454 2816 4371 
L 2816 -192 
z
M 678 1357 
Q 672 1158 717 924 
Q 762 691 867 483 
Q 973 275 1133 153 
Q 1293 32 1530 32 
Q 1766 32 1926 153 
Q 2086 275 2192 483 
Q 2298 691 2336 924 
Q 2374 1158 2374 1357 
Q 2374 1542 2336 1782 
Q 2298 2022 2192 2227 
Q 2086 2432 1926 2553 
Q 1766 2675 1530 2675 
Q 1293 2675 1133 2553 
Q 973 2432 864 2227 
Q 755 2022 713 1782 
Q 672 1542 678 1357 
z
" transform="scale(0.015625)"/>
      <path id="NanumGothicCoding-74" d="M 2733 -269 
Q 2464 -378 2106 -378 
Q 1523 -378 1357 -38 
Q 1248 192 1248 774 
L 1248 2413 
L 416 2413 
Q 326 2413 326 2502 
L 326 2694 
Q 326 2784 416 2784 
L 1248 2784 
L 1248 3686 
Q 1248 3782 1331 3782 
L 1600 3782 
Q 1683 3782 1683 3686 
L 1683 2784 
L 2714 2784 
Q 2803 2784 2803 2694 
L 2803 2502 
Q 2803 2413 2714 2413 
L 1683 2413 
L 1683 486 
Q 1683 6 2208 6 
Q 2470 6 2707 115 
Q 2739 128 2768 115 
Q 2797 102 2797 64 
L 2810 -141 
Q 2822 -230 2733 -269 
z
" transform="scale(0.015625)"/>
      <path id="NanumGothicCoding-2248" d="M 5222 1235 
Q 5152 1139 5043 1049 
Q 4934 960 4796 896 
Q 4659 832 4502 793 
Q 4346 755 4186 755 
Q 3923 755 3673 793 
Q 3424 832 3200 922 
Q 3110 960 2979 998 
Q 2848 1037 2707 1069 
Q 2566 1101 2435 1123 
Q 2304 1146 2208 1146 
Q 2080 1146 1949 1123 
Q 1818 1101 1699 1059 
Q 1581 1018 1478 957 
Q 1376 896 1312 819 
L 1171 941 
Q 1242 1037 1350 1126 
Q 1459 1216 1596 1280 
Q 1734 1344 1888 1382 
Q 2042 1421 2208 1421 
Q 2470 1421 2723 1379 
Q 2976 1338 3200 1248 
Q 3456 1146 3725 1088 
Q 3994 1030 4186 1030 
Q 4307 1030 4441 1052 
Q 4576 1075 4694 1116 
Q 4813 1158 4915 1219 
Q 5018 1280 5082 1357 
L 5222 1235 
z
M 5222 2822 
Q 5152 2726 5043 2636 
Q 4934 2547 4796 2483 
Q 4659 2419 4502 2380 
Q 4346 2342 4186 2342 
Q 3923 2342 3673 2380 
Q 3424 2419 3200 2509 
Q 3110 2547 2979 2585 
Q 2848 2624 2707 2656 
Q 2566 2688 2435 2710 
Q 2304 2733 2208 2733 
Q 2080 2733 1949 2710 
Q 1818 2688 1699 2646 
Q 1581 2605 1478 2544 
Q 1376 2483 1312 2406 
L 1171 2528 
Q 1242 2624 1350 2713 
Q 1459 2803 1596 2867 
Q 1734 2931 1888 2969 
Q 2042 3008 2208 3008 
Q 2470 3008 2723 2966 
Q 2976 2925 3200 2835 
Q 3456 2733 3725 2675 
Q 3994 2618 4186 2618 
Q 4307 2618 4441 2640 
Q 4576 2662 4694 2704 
Q 4813 2746 4915 2806 
Q 5018 2867 5082 2944 
L 5222 2822 
z
" transform="scale(0.015625)"/>
      <path id="NanumGothicCoding-31" d="M 2022 -211 
Q 2022 -301 1933 -301 
L 1670 -301 
Q 1581 -301 1581 -211 
L 1581 3565 
Q 1382 3398 1209 3251 
Q 1037 3104 845 2938 
Q 774 2880 717 2950 
L 589 3104 
Q 570 3136 570 3171 
Q 570 3206 602 3232 
L 1594 4064 
Q 1619 4090 1670 4090 
L 1843 4090 
Q 1978 4090 2000 4067 
Q 2022 4045 2022 3910 
L 2022 -211 
z
" transform="scale(0.015625)"/>
      <path id="NanumGothicCoding-2f" d="M 2650 4410 
Q 2726 4410 2736 4397 
Q 2746 4384 2720 4314 
L 934 -486 
Q 909 -544 896 -553 
Q 883 -563 813 -563 
L 544 -563 
Q 467 -563 457 -550 
Q 448 -538 474 -474 
L 2259 4320 
Q 2285 4384 2301 4397 
Q 2317 4410 2400 4410 
L 2650 4410 
z
" transform="scale(0.015625)"/>
     </defs>
     <use xlink:href="#NanumGothicCoding-36"/>
     <use xlink:href="#NanumGothicCoding-30" transform="translate(49.999985 0)"/>
     <use xlink:href="#NanumGothicCoding-66" transform="translate(99.999969 0)"/>
     <use xlink:href="#NanumGothicCoding-70" transform="translate(149.999954 0)"/>
     <use xlink:href="#NanumGothicCoding-73" transform="translate(199.999939 0)"/>
     <use xlink:href="#NanumGothicCoding-b77c" transform="translate(249.999924 0)"/>
     <use xlink:href="#NanumGothicCoding-ba74" transform="translate(349.999908 0)"/>
     <use xlink:href="#NanumGothicCoding-20" transform="translate(449.999893 0)"/>
     <use xlink:href="#NanumGothicCoding-64" transform="translate(499.999878 0)"/>
     <use xlink:href="#NanumGothicCoding-74" transform="translate(549.999863 0)"/>
     <use xlink:href="#NanumGothicCoding-20" transform="translate(599.999847 0)"/>
     <use xlink:href="#NanumGothicCoding-2248" transform="translate(649.999832 0)"/>
     <use xlink:href="#NanumGothicCoding-20" transform="translate(749.999817 0)"/>
     <use xlink:href="#NanumGothicCoding-31" transform="translate(799.999802 0)"/>
     <use xlink:href="#NanumGothicCoding-20" transform="translate(849.999786 0)"/>
     <use xlink:href="#NanumGothicCoding-2f" transform="translate(899.999771 0)"/>
     <use xlink:href="#NanumGothicCoding-20" transform="translate(949.999756 0)"/>
     <use xlink:href="#NanumGothicCoding-36" transform="translate(999.999741 0)"/>
     <use xlink:href="#NanumGothicCoding-30" transform="translate(1049.999725 0)"/>
    </g>
   </g>
   <g id="text_2">
    <!-- 144fps라면 dt ≈ 1 / 144 -->
    <g style="fill: #111827" transform="translate(17.76816 37.314504) scale(0.11 -0.11)">
     <defs>
      <path id="NanumGothicCoding-34" d="M 1907 1216 
L 1907 3622 
L 570 1216 
L 1907 1216 
z
M 2342 -211 
Q 2342 -301 2253 -301 
L 1997 -301 
Q 1907 -301 1907 -211 
L 1907 826 
L 346 826 
Q 211 826 188 848 
Q 166 870 166 1005 
L 166 1203 
Q 166 1261 172 1280 
Q 179 1299 211 1350 
L 1702 4013 
Q 1741 4070 1757 4080 
Q 1773 4090 1843 4090 
L 2163 4090 
Q 2298 4090 2320 4067 
Q 2342 4045 2342 3910 
L 2342 1216 
L 3040 1216 
Q 3130 1216 3130 1126 
L 3130 915 
Q 3130 826 3040 826 
L 2342 826 
L 2342 -211 
z
" transform="scale(0.015625)"/>
     </defs>
     <use xlink:href="#NanumGothicCoding-31"/>
     <use xlink:href="#NanumGothicCoding-34" transform="translate(49.999985 0)"/>
     <use xlink:href="#NanumGothicCoding-34" transform="translate(99.999969 0)"/>
     <use xlink:href="#NanumGothicCoding-66" transform="translate(149.999954 0)"/>
     <use xlink:href="#NanumGothicCoding-70" transform="translate(199.999939 0)"/>
     <use xlink:href="#NanumGothicCoding-73" transform="translate(249.999924 0)"/>
     <use xlink:href="#NanumGothicCoding-b77c" transform="translate(299.999908 0)"/>
     <use xlink:href="#NanumGothicCoding-ba74" transform="translate(399.999893 0)"/>
     <use xlink:href="#NanumGothicCoding-20" transform="translate(499.999878 0)"/>
     <use xlink:href="#NanumGothicCoding-64" transform="translate(549.999863 0)"/>
     <use xlink:href="#NanumGothicCoding-74" transform="translate(599.999847 0)"/>
     <use xlink:href="#NanumGothicCoding-20" transform="translate(649.999832 0)"/>
     <use xlink:href="#NanumGothicCoding-2248" transform="translate(699.999817 0)"/>
     <use xlink:href="#NanumGothicCoding-20" transform="translate(799.999802 0)"/>
     <use xlink:href="#NanumGothicCoding-31" transform="translate(849.999786 0)"/>
     <use xlink:href="#NanumGothicCoding-20" transform="translate(899.999771 0)"/>
     <use xlink:href="#NanumGothicCoding-2f" transform="translate(949.999756 0)"/>
     <use xlink:href="#NanumGothicCoding-20" transform="translate(999.999741 0)"/>
     <use xlink:href="#NanumGothicCoding-31" transform="translate(1049.999725 0)"/>
     <use xlink:href="#NanumGothicCoding-34" transform="translate(1099.99971 0)"/>
     <use xlink:href="#NanumGothicCoding-34" transform="translate(1149.999695 0)"/>
    </g>
   </g>
  </g>
 </g>
 <defs>
  <clipPath id="pf12529b785">
   <rect x="5.76" y="5.76" width="300.204" height="99.792"/>
  </clipPath>
 </defs>
</svg>
