<?xml version="1.0" encoding="utf-8" standalone="no"?>
<!DOCTYPE svg PUBLIC "-//W3C//DTD SVG 1.1//EN"
  "http://www.w3.org/Graphics/SVG/1.1/DTD/svg11.dtd">
<svg xmlns:xlink="http://www.w3.org/1999/xlink" width="474.84pt" height="158.316131pt" viewBox="0 0 474.84 158.316131" xmlns="http://www.w3.org/2000/svg" version="1.1">
 <metadata>
  <rdf:RDF xmlns:dc="http://purl.org/dc/elements/1.1/" xmlns:cc="http://creativecommons.org/ns#" xmlns:rdf="http://www.w3.org/1999/02/22-rdf-syntax-ns#">
   <cc:Work>
    <dc:type rdf:resource="http://purl.org/dc/dcmitype/StillImage"/>
    <dc:date>2026-07-08T05:12:54.643937</dc:date>
    <dc:format>image/svg+xml</dc:format>
    <dc:creator>
     <cc:Agent>
      <dc:title>Matplotlib v3.10.8, https://matplotlib.org/</dc:title>
     </cc:Agent>
    </dc:creator>
   </cc:Work>
  </rdf:RDF>
 </metadata>
 <defs>
  <style type="text/css">*{stroke-linejoin: round; stroke-linecap: butt}</style>
 </defs>
 <g id="figure_1">
  <g id="patch_1">
   <path d="M 0 158.316131 
L 474.84 158.316131 
L 474.84 0 
L 0 0 
z
" style="fill: #ffffff"/>
  </g>
  <g id="axes_1">
   <g id="line2d_1">
    <defs>
     <path id="md26116f4e6" d="M 0 2 
C 0.530406 2 1.03916 1.789267 1.414214 1.414214 
C 1.789267 1.03916 2 0.530406 2 0 
C 2 -0.530406 1.789267 -1.03916 1.414214 -1.414214 
C 1.03916 -1.789267 0.530406 -2 0 -2 
C -0.530406 -2 -1.03916 -1.789267 -1.414214 -1.414214 
C -1.789267 -1.03916 -2 -0.530406 -2 0 
C -2 0.530406 -1.789267 1.03916 -1.414214 1.414214 
C -1.03916 1.789267 -0.530406 2 0 2 
z
" style="stroke: #2563eb"/>
    </defs>
    <g clip-path="url(#p663d03b6cc)">
     <use xlink:href="#md26116f4e6" x="60.4968" y="100.869731" style="fill: #2563eb; stroke: #2563eb"/>
    </g>
   </g>
   <g id="line2d_2">
    <g clip-path="url(#p663d03b6cc)">
     <use xlink:href="#md26116f4e6" x="213.0168" y="100.869731" style="fill: #2563eb; stroke: #2563eb"/>
    </g>
   </g>
   <g id="line2d_3">
    <g clip-path="url(#p663d03b6cc)">
     <use xlink:href="#md26116f4e6" x="365.5368" y="100.869731" style="fill: #2563eb; stroke: #2563eb"/>
    </g>
   </g>
   <g id="text_1">
    <!-- 내적: 방향 관계 보기 -->
    <g style="fill: #111827" transform="translate(8.64 20.054062) scale(0.15 -0.15)">
     <defs>
      <path id="NanumGothicBold-b0b4" d="M 4819 4979 
Q 4819 5011 4848 5036 
Q 4877 5062 4915 5062 
L 5459 5062 
Q 5549 5062 5549 4979 
L 5549 -928 
Q 5549 -1011 5459 -1011 
L 4909 -1011 
Q 4877 -1011 4848 -985 
Q 4819 -960 4819 -928 
L 4819 2099 
L 4211 2099 
L 4211 -685 
Q 4211 -723 4182 -748 
Q 4154 -774 4122 -774 
L 3603 -774 
Q 3565 -774 3536 -748 
Q 3507 -723 3507 -685 
L 3507 4864 
Q 3507 4896 3536 4921 
Q 3565 4947 3603 4947 
L 4122 4947 
Q 4154 4947 4182 4921 
Q 4211 4896 4211 4864 
L 4211 2714 
L 4819 2714 
L 4819 4979 
z
M 3296 1082 
Q 3302 1037 3270 1014 
Q 3238 992 3194 979 
Q 2970 915 2698 867 
Q 2426 819 2134 793 
Q 1843 768 1558 758 
Q 1274 749 1024 762 
Q 794 774 672 899 
Q 550 1024 550 1242 
L 550 4538 
Q 550 4570 579 4598 
Q 608 4627 646 4627 
L 1178 4627 
Q 1216 4627 1248 4598 
Q 1280 4570 1280 4538 
L 1280 1485 
Q 1280 1389 1395 1382 
Q 1555 1363 1763 1369 
Q 1971 1376 2198 1401 
Q 2426 1427 2659 1465 
Q 2893 1504 3104 1555 
Q 3136 1562 3181 1549 
Q 3226 1536 3232 1485 
L 3296 1082 
z
" transform="scale(0.015625)"/>
      <path id="NanumGothicBold-c801" d="M 781 1568 
Q 742 1542 678 1545 
Q 614 1549 576 1619 
L 390 1933 
Q 358 1984 371 2041 
Q 384 2099 448 2125 
Q 806 2285 1126 2493 
Q 1446 2701 1705 2937 
Q 1965 3174 2157 3433 
Q 2349 3693 2451 3955 
Q 2477 4013 2473 4057 
Q 2470 4102 2368 4102 
L 781 4102 
Q 691 4102 691 4205 
L 691 4627 
Q 691 4666 720 4691 
Q 749 4717 787 4717 
L 2810 4717 
Q 3091 4717 3228 4614 
Q 3366 4512 3334 4301 
Q 3322 4230 3299 4153 
Q 3277 4077 3258 4019 
Q 3091 3546 2778 3123 
Q 2893 3008 3033 2889 
Q 3174 2771 3324 2665 
Q 3475 2560 3625 2470 
Q 3776 2381 3904 2323 
Q 4032 2259 3968 2138 
L 3757 1792 
Q 3725 1741 3680 1728 
Q 3635 1715 3565 1747 
Q 3450 1805 3296 1901 
Q 3142 1997 2976 2118 
Q 2810 2240 2650 2374 
Q 2490 2509 2355 2643 
Q 2029 2323 1635 2051 
Q 1242 1779 781 1568 
z
M 5286 -909 
Q 5286 -941 5254 -969 
Q 5222 -998 5190 -998 
L 4646 -998 
Q 4602 -998 4573 -969 
Q 4544 -941 4544 -909 
L 4544 480 
Q 4544 550 4518 569 
Q 4493 589 4429 589 
L 1466 589 
Q 1434 589 1405 611 
Q 1376 634 1376 666 
L 1376 1120 
Q 1376 1158 1405 1177 
Q 1434 1197 1466 1197 
L 4858 1197 
Q 5101 1197 5193 1097 
Q 5286 998 5286 755 
L 5286 -909 
z
M 3450 3059 
L 3450 3507 
Q 3450 3539 3478 3561 
Q 3507 3584 3539 3584 
L 4544 3584 
L 4544 4979 
Q 4544 5062 4634 5062 
L 5197 5062 
Q 5229 5062 5257 5036 
Q 5286 5011 5286 4979 
L 5286 1606 
Q 5286 1574 5257 1545 
Q 5229 1517 5197 1517 
L 4634 1517 
Q 4595 1517 4569 1545 
Q 4544 1574 4544 1606 
L 4544 2982 
L 3539 2982 
Q 3507 2982 3478 3004 
Q 3450 3027 3450 3059 
z
" transform="scale(0.015625)"/>
      <path id="NanumGothicBold-3a" d="M 1011 3053 
Q 806 3053 662 3197 
Q 518 3341 518 3533 
Q 518 3731 662 3875 
Q 806 4019 1011 4019 
Q 1216 4019 1357 3875 
Q 1498 3731 1498 3533 
Q 1498 3341 1357 3197 
Q 1216 3053 1011 3053 
z
M 1011 141 
Q 806 141 662 285 
Q 518 429 518 627 
Q 518 819 662 963 
Q 806 1107 1011 1107 
Q 1216 1107 1357 963 
Q 1498 819 1498 627 
Q 1498 429 1357 285 
Q 1216 141 1011 141 
z
" transform="scale(0.015625)"/>
      <path id="NanumGothicBold-20" transform="scale(0.015625)"/>
      <path id="NanumGothicBold-bc29" d="M 4307 186 
Q 4307 346 4214 464 
Q 4122 582 3965 665 
Q 3808 749 3600 790 
Q 3392 832 3155 832 
Q 2643 832 2329 669 
Q 2016 506 2016 186 
Q 2016 -115 2336 -272 
Q 2656 -429 3155 -429 
Q 3392 -429 3600 -390 
Q 3808 -352 3965 -275 
Q 4122 -198 4214 -83 
Q 4307 32 4307 186 
z
M 5062 205 
Q 5062 -64 4918 -288 
Q 4774 -512 4521 -672 
Q 4269 -832 3917 -921 
Q 3565 -1011 3155 -1011 
Q 2714 -1011 2365 -924 
Q 2016 -838 1769 -678 
Q 1523 -518 1392 -294 
Q 1261 -70 1261 205 
Q 1261 474 1392 698 
Q 1523 922 1769 1078 
Q 2016 1235 2365 1324 
Q 2714 1414 3155 1414 
Q 3565 1414 3917 1328 
Q 4269 1242 4521 1082 
Q 4774 922 4918 701 
Q 5062 480 5062 205 
z
M 5965 2963 
Q 5965 2931 5936 2905 
Q 5907 2880 5875 2880 
L 5005 2880 
L 5005 1594 
Q 5005 1562 4979 1533 
Q 4954 1504 4922 1504 
L 4352 1504 
Q 4320 1504 4294 1533 
Q 4269 1562 4269 1600 
L 4269 4979 
Q 4269 5062 4352 5062 
L 4922 5062 
Q 5005 5062 5005 4979 
L 5005 3488 
L 5875 3488 
Q 5907 3488 5936 3465 
Q 5965 3443 5965 3411 
L 5965 2963 
z
M 2688 3309 
L 1331 3309 
L 1331 2662 
Q 1331 2554 1446 2554 
L 2573 2554 
Q 2688 2554 2688 2662 
L 2688 3309 
z
M 3418 2381 
Q 3418 2163 3315 2057 
Q 3213 1952 2938 1952 
L 1088 1952 
Q 806 1952 704 2048 
Q 602 2144 602 2400 
L 602 4774 
Q 602 4858 685 4858 
L 1242 4858 
Q 1274 4858 1302 4832 
Q 1331 4806 1331 4774 
L 1331 3904 
L 2688 3904 
L 2688 4781 
Q 2688 4819 2713 4844 
Q 2739 4870 2771 4870 
L 3334 4870 
Q 3366 4870 3392 4844 
Q 3418 4819 3418 4781 
L 3418 2381 
z
" transform="scale(0.015625)"/>
      <path id="NanumGothicBold-d5a5" d="M 5069 77 
Q 5069 -160 4925 -358 
Q 4781 -557 4528 -697 
Q 4275 -838 3923 -915 
Q 3571 -992 3155 -992 
Q 2720 -992 2368 -915 
Q 2016 -838 1769 -697 
Q 1523 -557 1392 -358 
Q 1261 -160 1261 77 
Q 1261 314 1392 506 
Q 1523 698 1769 838 
Q 2016 979 2368 1056 
Q 2720 1133 3155 1133 
Q 3571 1133 3923 1056 
Q 4275 979 4528 838 
Q 4781 698 4925 506 
Q 5069 314 5069 77 
z
M 2118 3456 
Q 2413 3456 2665 3379 
Q 2918 3302 3104 3164 
Q 3290 3027 3395 2828 
Q 3501 2630 3501 2394 
Q 3501 2150 3395 1952 
Q 3290 1754 3101 1616 
Q 2912 1478 2659 1401 
Q 2406 1325 2112 1325 
Q 1824 1325 1574 1401 
Q 1325 1478 1139 1616 
Q 954 1754 848 1952 
Q 742 2150 742 2394 
Q 742 2630 848 2828 
Q 954 3027 1139 3164 
Q 1325 3302 1577 3379 
Q 1830 3456 2118 3456 
z
M 5875 2650 
Q 5914 2650 5942 2627 
Q 5971 2605 5971 2573 
L 5971 2118 
Q 5971 2086 5942 2060 
Q 5914 2035 5875 2035 
L 5011 2035 
L 5011 1318 
Q 5011 1235 4928 1235 
L 4358 1235 
Q 4275 1235 4275 1325 
L 4275 4979 
Q 4275 5062 4358 5062 
L 4928 5062 
Q 5011 5062 5011 4979 
L 5011 3821 
L 5875 3821 
Q 5914 3821 5942 3798 
Q 5971 3776 5971 3744 
L 5971 3296 
Q 5971 3264 5942 3238 
Q 5914 3213 5875 3213 
L 5011 3213 
L 5011 2650 
L 5875 2650 
z
M 3878 3738 
Q 3878 3699 3849 3670 
Q 3821 3642 3782 3642 
L 352 3642 
Q 314 3642 282 3674 
Q 250 3706 250 3744 
L 250 4102 
Q 250 4134 285 4169 
Q 320 4205 358 4205 
L 3782 4205 
Q 3821 4205 3849 4173 
Q 3878 4141 3878 4102 
L 3878 3738 
z
M 4314 58 
Q 4314 186 4221 285 
Q 4128 384 3968 451 
Q 3808 518 3600 550 
Q 3392 582 3155 582 
Q 2643 582 2332 451 
Q 2022 320 2022 58 
Q 2022 -192 2339 -313 
Q 2656 -435 3155 -435 
Q 3392 -435 3600 -406 
Q 3808 -378 3968 -314 
Q 4128 -250 4221 -160 
Q 4314 -70 4314 58 
z
M 2118 2899 
Q 1830 2899 1632 2761 
Q 1434 2624 1434 2394 
Q 1434 2157 1632 2019 
Q 1830 1882 2118 1882 
Q 2413 1882 2608 2019 
Q 2803 2157 2803 2394 
Q 2803 2624 2608 2761 
Q 2413 2899 2118 2899 
z
M 3046 4544 
Q 3046 4506 3017 4470 
Q 2989 4435 2938 4435 
L 1229 4435 
Q 1203 4435 1168 4460 
Q 1133 4486 1133 4538 
L 1133 4902 
Q 1133 4947 1168 4972 
Q 1203 4998 1229 4998 
L 2938 4998 
Q 2982 4998 3014 4966 
Q 3046 4934 3046 4896 
L 3046 4544 
z
" transform="scale(0.015625)"/>
      <path id="NanumGothicBold-ad00" d="M 5971 2387 
Q 5971 2355 5942 2329 
Q 5914 2304 5882 2304 
L 5043 2304 
L 5043 717 
Q 5043 634 4960 634 
L 4390 634 
Q 4307 634 4307 717 
L 4307 4979 
Q 4307 5062 4390 5062 
L 4960 5062 
Q 5043 5062 5043 4979 
L 5043 2918 
L 5882 2918 
Q 5914 2918 5942 2892 
Q 5971 2867 5971 2835 
L 5971 2387 
z
M 5274 -800 
Q 5274 -838 5245 -857 
Q 5216 -877 5178 -877 
L 1715 -877 
Q 1427 -877 1324 -774 
Q 1222 -672 1222 -422 
L 1222 800 
Q 1222 832 1251 861 
Q 1280 890 1318 890 
L 1869 890 
Q 1907 890 1939 861 
Q 1971 832 1971 800 
L 1971 -160 
Q 1971 -224 1996 -243 
Q 2022 -262 2086 -262 
L 5178 -262 
Q 5210 -262 5242 -284 
Q 5274 -307 5274 -339 
L 5274 -800 
z
M 205 1920 
Q 205 2016 294 2016 
Q 582 2003 876 2003 
Q 1171 2003 1478 2003 
L 1478 3219 
Q 1478 3315 1568 3315 
L 2112 3315 
Q 2202 3315 2202 3219 
L 2202 2022 
Q 2656 2035 3091 2064 
Q 3526 2093 3917 2138 
Q 3949 2144 3984 2131 
Q 4019 2118 4026 2074 
L 4058 1683 
Q 4064 1638 4038 1606 
Q 4013 1574 3981 1568 
Q 3539 1517 3052 1485 
Q 2566 1453 2083 1433 
Q 1600 1414 1142 1408 
Q 685 1402 294 1414 
Q 256 1414 230 1443 
Q 205 1472 205 1510 
L 205 1920 
z
M 3674 4250 
Q 3674 4064 3661 3862 
Q 3648 3661 3629 3456 
Q 3610 3251 3581 3062 
Q 3552 2874 3514 2720 
Q 3501 2669 3465 2630 
Q 3430 2592 3386 2598 
L 2886 2643 
Q 2803 2650 2822 2765 
Q 2848 2886 2873 3056 
Q 2899 3226 2918 3398 
Q 2938 3571 2947 3724 
Q 2957 3878 2957 3968 
Q 2957 4058 2912 4080 
Q 2867 4102 2778 4102 
L 762 4102 
Q 730 4102 698 4124 
Q 666 4147 666 4179 
L 666 4627 
Q 666 4666 698 4685 
Q 730 4704 762 4704 
L 3245 4704 
Q 3450 4704 3562 4595 
Q 3674 4486 3674 4250 
z
" transform="scale(0.015625)"/>
      <path id="NanumGothicBold-acc4" d="M 755 461 
Q 704 429 653 422 
Q 602 416 570 461 
L 314 813 
Q 275 870 297 918 
Q 320 966 352 992 
Q 787 1261 1136 1603 
Q 1485 1946 1731 2314 
Q 1978 2682 2112 3053 
Q 2246 3424 2259 3744 
Q 2266 3878 2234 3926 
Q 2202 3974 2067 3974 
L 653 3974 
Q 563 3974 563 4058 
L 563 4493 
Q 563 4525 592 4550 
Q 621 4576 653 4576 
L 2515 4576 
Q 2790 4576 2892 4470 
Q 2995 4365 2989 4115 
Q 2982 3987 2972 3859 
Q 2963 3731 2944 3610 
L 3629 3610 
L 3629 4870 
Q 3629 4954 3718 4954 
L 4243 4954 
Q 4326 4954 4326 4870 
L 4326 -717 
Q 4326 -806 4243 -806 
L 3718 -806 
Q 3629 -806 3629 -717 
L 3629 1594 
L 2714 1594 
Q 2682 1594 2653 1619 
Q 2624 1645 2624 1677 
L 2624 2099 
Q 2624 2131 2653 2153 
Q 2682 2176 2714 2176 
L 3629 2176 
L 3629 3021 
L 2816 3021 
Q 2573 2246 2041 1593 
Q 1510 941 755 461 
z
M 5549 -941 
Q 5549 -1024 5466 -1024 
L 4909 -1024 
Q 4826 -1024 4826 -941 
L 4826 4979 
Q 4826 5062 4915 5062 
L 5466 5062 
Q 5549 5062 5549 4979 
L 5549 -941 
z
" transform="scale(0.015625)"/>
      <path id="NanumGothicBold-bcf4" d="M 5882 122 
Q 5882 90 5850 58 
Q 5818 26 5786 26 
L 211 26 
Q 173 26 147 58 
Q 122 90 122 122 
L 122 538 
Q 122 576 147 608 
Q 173 640 211 640 
L 2630 640 
L 2630 1811 
L 1459 1811 
Q 1178 1811 1075 1907 
Q 973 2003 973 2266 
L 973 4710 
Q 973 4742 998 4764 
Q 1024 4787 1056 4787 
L 1619 4787 
Q 1651 4787 1680 4764 
Q 1709 4742 1709 4710 
L 1709 3808 
L 4282 3808 
L 4282 4717 
Q 4282 4749 4307 4774 
Q 4333 4800 4365 4800 
L 4934 4800 
Q 4966 4800 4992 4774 
Q 5018 4749 5018 4717 
L 5018 2240 
Q 5018 2029 4915 1920 
Q 4813 1811 4538 1811 
L 3366 1811 
L 3366 640 
L 5786 640 
Q 5818 640 5850 605 
Q 5882 570 5882 538 
L 5882 122 
z
M 4282 3213 
L 1709 3213 
L 1709 2522 
Q 1709 2413 1824 2413 
L 4166 2413 
Q 4282 2413 4282 2522 
L 4282 3213 
z
" transform="scale(0.015625)"/>
      <path id="NanumGothicBold-ae30" d="M 5274 -928 
Q 5274 -1011 5190 -1011 
L 4621 -1011 
Q 4538 -1011 4538 -928 
L 4538 4979 
Q 4538 5062 4621 5062 
L 5190 5062 
Q 5274 5062 5274 4979 
L 5274 -928 
z
M 3546 4102 
Q 3494 3482 3286 2931 
Q 3078 2381 2736 1907 
Q 2394 1434 1926 1030 
Q 1459 627 896 294 
Q 845 262 784 272 
Q 723 282 691 333 
L 474 672 
Q 442 723 454 771 
Q 467 819 512 845 
Q 1466 1408 2038 2144 
Q 2611 2880 2784 3757 
Q 2810 3885 2771 3926 
Q 2733 3968 2611 3968 
L 806 3968 
Q 717 3968 717 4058 
L 717 4506 
Q 717 4582 806 4582 
L 3098 4582 
Q 3386 4582 3475 4464 
Q 3565 4346 3546 4102 
z
" transform="scale(0.015625)"/>
     </defs>
     <use xlink:href="#NanumGothicBold-b0b4"/>
     <use xlink:href="#NanumGothicBold-c801" transform="translate(93.999985 0)"/>
     <use xlink:href="#NanumGothicBold-3a" transform="translate(187.999969 0)"/>
     <use xlink:href="#NanumGothicBold-20" transform="translate(218.299957 0)"/>
     <use xlink:href="#NanumGothicBold-bc29" transform="translate(246.299942 0)"/>
     <use xlink:href="#NanumGothicBold-d5a5" transform="translate(340.299927 0)"/>
     <use xlink:href="#NanumGothicBold-20" transform="translate(434.299911 0)"/>
     <use xlink:href="#NanumGothicBold-ad00" transform="translate(462.299896 0)"/>
     <use xlink:href="#NanumGothicBold-acc4" transform="translate(556.299881 0)"/>
     <use xlink:href="#NanumGothicBold-20" transform="translate(650.299866 0)"/>
     <use xlink:href="#NanumGothicBold-bcf4" transform="translate(678.29985 0)"/>
     <use xlink:href="#NanumGothicBold-ae30" transform="translate(772.299835 0)"/>
    </g>
   </g>
   <g id="patch_2">
    <path d="M 62.496018 100.869731 
Q 80.324232 100.869731 95.692771 100.869731 
" clip-path="url(#p663d03b6cc)" style="fill: none; stroke: #2563eb; stroke-width: 2.2; stroke-linecap: round"/>
    <path d="M 90.092771 98.069731 
L 95.692771 100.869731 
L 90.092771 103.669731 
z
" clip-path="url(#p663d03b6cc)" style="fill: #2563eb; stroke: #2563eb; stroke-width: 2.2; stroke-linecap: round"/>
   </g>
   <g id="patch_3">
    <path d="M 80.798418 90.193331 
Q 98.626632 90.193331 113.995171 90.193331 
" clip-path="url(#p663d03b6cc)" style="fill: none; stroke: #10b981; stroke-width: 2.2; stroke-linecap: round"/>
    <path d="M 108.395171 87.393331 
L 113.995171 90.193331 
L 108.395171 92.993331 
z
" clip-path="url(#p663d03b6cc)" style="fill: #10b981; stroke: #10b981; stroke-width: 2.2; stroke-linecap: round"/>
   </g>
   <g id="text_2">
    <!-- 같은 방향 -->
    <g style="fill: #111827" transform="translate(62.68 55.137316) scale(0.11 -0.11)">
     <defs>
      <path id="NanumGothicBold-ac19" d="M 1754 -973 
Q 1498 -973 1395 -877 
Q 1293 -781 1293 -544 
L 1293 1101 
Q 1293 1338 1401 1434 
Q 1510 1530 1754 1530 
L 4909 1530 
Q 5005 1530 5005 1446 
L 5005 1056 
Q 5005 973 4909 973 
L 2118 973 
Q 2061 973 2048 963 
Q 2035 954 2035 890 
L 2035 563 
L 4883 563 
Q 4915 563 4947 537 
Q 4979 512 4979 480 
L 4979 102 
Q 4979 64 4947 41 
Q 4915 19 4883 19 
L 2035 19 
L 2035 -320 
Q 2035 -390 2044 -403 
Q 2054 -416 2125 -416 
L 5005 -416 
Q 5114 -416 5114 -499 
L 5114 -870 
Q 5114 -973 5005 -973 
L 1754 -973 
z
M 723 1664 
Q 576 1606 518 1722 
L 352 2035 
Q 326 2086 336 2144 
Q 346 2202 416 2234 
Q 819 2406 1161 2614 
Q 1504 2822 1769 3056 
Q 2035 3290 2214 3539 
Q 2394 3789 2464 4051 
Q 2490 4160 2490 4198 
Q 2490 4237 2381 4237 
L 627 4237 
Q 589 4237 566 4265 
Q 544 4294 544 4333 
L 544 4736 
Q 544 4774 569 4803 
Q 595 4832 634 4832 
L 2784 4832 
Q 3066 4832 3184 4739 
Q 3302 4646 3302 4442 
Q 3302 4410 3292 4355 
Q 3283 4301 3273 4243 
Q 3264 4186 3251 4134 
Q 3238 4083 3232 4064 
Q 2989 3245 2368 2662 
Q 1747 2080 723 1664 
z
M 5971 3181 
Q 5971 3149 5942 3123 
Q 5914 3098 5875 3098 
L 5011 3098 
L 5011 1914 
Q 5011 1824 4922 1824 
L 4358 1824 
Q 4326 1824 4297 1849 
Q 4269 1875 4269 1920 
L 4269 4979 
Q 4269 5011 4297 5036 
Q 4326 5062 4358 5062 
L 4922 5062 
Q 5011 5062 5011 4979 
L 5011 3712 
L 5875 3712 
Q 5914 3712 5942 3689 
Q 5971 3667 5971 3635 
L 5971 3181 
z
" transform="scale(0.015625)"/>
      <path id="NanumGothicBold-c740" d="M 3014 2637 
Q 2566 2637 2192 2717 
Q 1818 2797 1549 2944 
Q 1280 3091 1129 3308 
Q 979 3526 979 3802 
Q 979 4077 1129 4297 
Q 1280 4518 1549 4665 
Q 1818 4813 2192 4893 
Q 2566 4973 3014 4973 
Q 3462 4973 3833 4893 
Q 4205 4813 4473 4665 
Q 4742 4518 4892 4297 
Q 5043 4077 5043 3802 
Q 5043 3526 4892 3308 
Q 4742 3091 4473 2944 
Q 4205 2797 3833 2717 
Q 3462 2637 3014 2637 
z
M 3014 4384 
Q 2733 4384 2502 4342 
Q 2272 4301 2102 4224 
Q 1933 4147 1840 4038 
Q 1747 3930 1747 3802 
Q 1747 3674 1840 3568 
Q 1933 3462 2102 3385 
Q 2272 3309 2502 3267 
Q 2733 3226 3014 3226 
Q 3290 3226 3520 3267 
Q 3750 3309 3920 3385 
Q 4090 3462 4182 3568 
Q 4275 3674 4275 3802 
Q 4275 3930 4182 4038 
Q 4090 4147 3920 4224 
Q 3750 4301 3520 4342 
Q 3290 4384 3014 4384 
z
M 211 1510 
Q 173 1510 147 1542 
Q 122 1574 122 1613 
L 122 2029 
Q 122 2067 147 2096 
Q 173 2125 211 2125 
L 5786 2125 
Q 5818 2125 5850 2093 
Q 5882 2061 5882 2029 
L 5882 1613 
Q 5882 1581 5850 1545 
Q 5818 1510 5786 1510 
L 211 1510 
z
M 5184 -755 
Q 5184 -794 5155 -813 
Q 5126 -832 5088 -832 
L 1523 -832 
Q 1235 -832 1136 -729 
Q 1037 -627 1037 -371 
L 1037 1018 
Q 1037 1050 1065 1078 
Q 1094 1107 1126 1107 
L 1677 1107 
Q 1715 1107 1744 1078 
Q 1773 1050 1773 1018 
L 1773 -115 
Q 1773 -179 1798 -198 
Q 1824 -218 1894 -218 
L 5088 -218 
Q 5120 -218 5152 -240 
Q 5184 -262 5184 -294 
L 5184 -755 
z
" transform="scale(0.015625)"/>
     </defs>
     <use xlink:href="#NanumGothicBold-ac19"/>
     <use xlink:href="#NanumGothicBold-c740" transform="translate(93.999985 0)"/>
     <use xlink:href="#NanumGothicBold-20" transform="translate(187.999969 0)"/>
     <use xlink:href="#NanumGothicBold-bc29" transform="translate(215.999954 0)"/>
     <use xlink:href="#NanumGothicBold-d5a5" transform="translate(309.999939 0)"/>
    </g>
   </g>
   <g id="text_3">
    <!-- dot &gt; 0 -->
    <g style="fill: #6b7280" transform="translate(67.638984 70.234823) scale(0.105 -0.105)">
     <defs>
      <path id="NanumGothic-64" d="M 877 1459 
Q 877 1158 925 912 
Q 973 666 1075 480 
Q 1216 250 1417 128 
Q 1619 6 1901 6 
Q 2157 6 2352 140 
Q 2547 275 2678 483 
Q 2810 691 2874 950 
Q 2938 1210 2938 1459 
Q 2938 1766 2870 2028 
Q 2803 2291 2672 2483 
Q 2541 2675 2349 2784 
Q 2157 2893 1901 2893 
Q 1357 2893 1075 2426 
Q 973 2240 925 1993 
Q 877 1747 877 1459 
z
M 3366 -186 
Q 3366 -275 3277 -275 
L 3027 -275 
Q 2938 -275 2938 -186 
L 2938 294 
Q 2592 -358 1824 -358 
Q 1139 -358 755 166 
Q 403 653 403 1459 
Q 403 3258 1824 3258 
Q 2208 3258 2505 3104 
Q 2803 2950 2938 2707 
L 2938 4723 
Q 2938 4813 3027 4813 
L 3277 4813 
Q 3366 4813 3366 4723 
L 3366 -186 
z
" transform="scale(0.015625)"/>
      <path id="NanumGothic-6f" d="M 3130 1453 
Q 3130 1754 3050 2016 
Q 2970 2278 2829 2483 
Q 2496 2893 1965 2893 
Q 1696 2893 1481 2787 
Q 1267 2682 1101 2483 
Q 954 2278 874 2016 
Q 794 1754 794 1453 
Q 794 1146 874 883 
Q 954 621 1101 422 
Q 1440 6 1965 6 
Q 2234 6 2448 115 
Q 2662 224 2829 422 
Q 2970 621 3050 883 
Q 3130 1146 3130 1453 
z
M 3603 1453 
Q 3603 1075 3494 752 
Q 3386 429 3206 186 
Q 2982 -83 2672 -230 
Q 2362 -378 1965 -378 
Q 1568 -378 1254 -230 
Q 941 -83 717 186 
Q 538 429 432 752 
Q 326 1075 326 1453 
Q 326 2227 717 2720 
Q 1165 3277 1965 3277 
Q 2368 3277 2675 3139 
Q 2982 3002 3206 2720 
Q 3603 2214 3603 1453 
z
" transform="scale(0.015625)"/>
      <path id="NanumGothic-74" d="M 2208 -282 
Q 1939 -378 1677 -378 
Q 1158 -378 992 -38 
Q 883 192 883 774 
L 883 2816 
L 282 2816 
Q 192 2816 192 2906 
L 192 3098 
Q 192 3187 282 3187 
L 883 3187 
L 883 4051 
Q 883 4147 966 4147 
L 1235 4147 
Q 1318 4147 1318 4051 
L 1318 3187 
L 2029 3187 
Q 2118 3187 2118 3098 
L 2118 2906 
Q 2118 2816 2029 2816 
L 1318 2816 
L 1318 557 
Q 1318 -13 1779 -13 
Q 1958 -13 2182 64 
Q 2214 77 2243 64 
Q 2272 51 2272 13 
L 2285 -154 
Q 2298 -243 2208 -282 
z
" transform="scale(0.015625)"/>
      <path id="NanumGothic-20" transform="scale(0.015625)"/>
      <path id="NanumGothic-3e" d="M 352 -576 
Q 352 -518 352 -486 
Q 352 -454 361 -428 
Q 371 -403 393 -377 
Q 416 -352 454 -314 
Q 704 -64 976 211 
Q 1248 486 1523 764 
Q 1798 1043 2070 1318 
Q 2342 1594 2592 1843 
Q 2650 1907 2650 1929 
Q 2650 1952 2579 2022 
L 467 4160 
Q 422 4205 400 4230 
Q 378 4256 368 4281 
Q 358 4307 355 4345 
Q 352 4384 352 4448 
L 352 4698 
Q 352 4845 368 4851 
Q 384 4858 480 4755 
L 2944 2259 
Q 2982 2221 3004 2195 
Q 3027 2170 3036 2147 
Q 3046 2125 3049 2093 
Q 3053 2061 3053 2010 
L 3053 1843 
Q 3053 1792 3049 1760 
Q 3046 1728 3036 1705 
Q 3027 1683 3004 1657 
Q 2982 1632 2944 1594 
L 461 -902 
Q 378 -986 365 -979 
Q 352 -973 352 -851 
L 352 -576 
z
" transform="scale(0.015625)"/>
      <path id="NanumGothic-30" d="M 3066 2093 
Q 3066 4102 1965 4102 
Q 864 4102 864 2093 
Q 864 77 1965 77 
Q 3066 77 3066 2093 
z
M 3526 2093 
Q 3526 -326 1965 -326 
Q 390 -326 390 2093 
Q 390 3098 698 3725 
Q 1088 4512 1965 4512 
Q 2829 4512 3226 3725 
Q 3373 3411 3449 3008 
Q 3526 2605 3526 2093 
z
" transform="scale(0.015625)"/>
     </defs>
     <use xlink:href="#NanumGothic-64"/>
     <use xlink:href="#NanumGothic-6f" transform="translate(60.599991 0)"/>
     <use xlink:href="#NanumGothic-74" transform="translate(121.199982 0)"/>
     <use xlink:href="#NanumGothic-20" transform="translate(157.499969 0)"/>
     <use xlink:href="#NanumGothic-3e" transform="translate(185.499954 0)"/>
     <use xlink:href="#NanumGothic-20" transform="translate(240.199951 0)"/>
     <use xlink:href="#NanumGothic-30" transform="translate(268.199936 0)"/>
    </g>
   </g>
   <g id="patch_4">
    <path d="M 215.016018 100.869731 
Q 232.844232 100.869731 248.212771 100.869731 
" clip-path="url(#p663d03b6cc)" style="fill: none; stroke: #2563eb; stroke-width: 2.2; stroke-linecap: round"/>
    <path d="M 242.612771 98.069731 
L 248.212771 100.869731 
L 242.612771 103.669731 
z
" clip-path="url(#p663d03b6cc)" style="fill: #2563eb; stroke: #2563eb; stroke-width: 2.2; stroke-linecap: round"/>
   </g>
   <g id="patch_5">
    <path d="M 264.8736 120.223313 
Q 264.8736 100.871384 264.8736 83.979129 
" clip-path="url(#p663d03b6cc)" style="fill: none; stroke: #ef4444; stroke-width: 2.2; stroke-linecap: round"/>
    <path d="M 262.0736 89.579129 
L 264.8736 83.979129 
L 267.6736 89.579129 
z
" clip-path="url(#p663d03b6cc)" style="fill: #ef4444; stroke: #ef4444; stroke-width: 2.2; stroke-linecap: round"/>
   </g>
   <g id="text_4">
    <!-- 직각 -->
    <g style="fill: #111827" transform="translate(227.08 55.137316) scale(0.11 -0.11)">
     <defs>
      <path id="NanumGothicBold-c9c1" d="M 781 1568 
Q 742 1542 678 1545 
Q 614 1549 576 1619 
L 390 1933 
Q 358 1984 374 2041 
Q 390 2099 448 2125 
Q 806 2285 1126 2493 
Q 1446 2701 1705 2937 
Q 1965 3174 2157 3433 
Q 2349 3693 2451 3955 
Q 2477 4013 2473 4057 
Q 2470 4102 2368 4102 
L 781 4102 
Q 698 4102 698 4205 
L 698 4627 
Q 698 4717 787 4717 
L 2810 4717 
Q 3091 4717 3228 4614 
Q 3366 4512 3334 4301 
Q 3322 4230 3302 4153 
Q 3283 4077 3258 4019 
Q 3098 3565 2784 3136 
Q 2899 3021 3040 2905 
Q 3181 2790 3328 2688 
Q 3475 2586 3622 2499 
Q 3770 2413 3898 2355 
Q 4026 2291 3962 2170 
L 3744 1811 
Q 3693 1715 3558 1779 
Q 3443 1837 3292 1929 
Q 3142 2022 2982 2140 
Q 2822 2259 2662 2390 
Q 2502 2522 2368 2656 
Q 2042 2330 1642 2058 
Q 1242 1786 781 1568 
z
M 5216 -909 
Q 5216 -941 5187 -969 
Q 5158 -998 5126 -998 
L 4576 -998 
Q 4538 -998 4509 -969 
Q 4480 -941 4480 -909 
L 4480 480 
Q 4480 550 4454 569 
Q 4429 589 4365 589 
L 1478 589 
Q 1446 589 1417 611 
Q 1389 634 1389 666 
L 1389 1120 
Q 1389 1158 1417 1177 
Q 1446 1197 1478 1197 
L 4794 1197 
Q 5037 1197 5126 1097 
Q 5216 998 5216 755 
L 5216 -909 
z
M 4480 1606 
L 4480 4979 
Q 4480 5062 4563 5062 
L 5133 5062 
Q 5216 5062 5216 4979 
L 5216 1606 
Q 5216 1574 5190 1545 
Q 5165 1517 5133 1517 
L 4563 1517 
Q 4531 1517 4505 1545 
Q 4480 1574 4480 1606 
z
" transform="scale(0.015625)"/>
      <path id="NanumGothicBold-ac01" d="M 5005 -909 
Q 5005 -941 4976 -969 
Q 4947 -998 4909 -998 
L 4365 -998 
Q 4326 -998 4294 -969 
Q 4262 -941 4262 -909 
L 4262 544 
Q 4262 614 4236 633 
Q 4211 653 4147 653 
L 1254 653 
Q 1222 653 1193 675 
Q 1165 698 1165 730 
L 1165 1184 
Q 1165 1229 1193 1248 
Q 1222 1267 1254 1267 
L 4576 1267 
Q 4819 1267 4912 1164 
Q 5005 1062 5005 819 
L 5005 -909 
z
M 5971 2995 
Q 5971 2963 5942 2937 
Q 5914 2912 5875 2912 
L 5011 2912 
L 5011 1670 
Q 5011 1587 4922 1587 
L 4358 1587 
Q 4326 1587 4297 1612 
Q 4269 1638 4269 1677 
L 4269 4979 
Q 4269 5011 4297 5036 
Q 4326 5062 4358 5062 
L 4922 5062 
Q 5011 5062 5011 4979 
L 5011 3526 
L 5875 3526 
Q 5914 3526 5942 3500 
Q 5971 3475 5971 3443 
L 5971 2995 
z
M 723 1523 
Q 570 1459 518 1581 
L 352 1914 
Q 326 1965 336 2016 
Q 346 2067 416 2099 
Q 1203 2438 1740 2918 
Q 2278 3398 2458 3981 
Q 2490 4083 2486 4124 
Q 2483 4166 2368 4166 
L 627 4166 
Q 589 4166 566 4195 
Q 544 4224 544 4262 
L 544 4685 
Q 544 4774 634 4774 
L 2803 4774 
Q 3085 4774 3200 4684 
Q 3315 4595 3315 4390 
Q 3315 4365 3305 4317 
Q 3296 4269 3286 4217 
Q 3277 4166 3267 4124 
Q 3258 4083 3251 4064 
Q 3008 3187 2371 2563 
Q 1734 1939 723 1523 
z
" transform="scale(0.015625)"/>
     </defs>
     <use xlink:href="#NanumGothicBold-c9c1"/>
     <use xlink:href="#NanumGothicBold-ac01" transform="translate(93.999985 0)"/>
    </g>
   </g>
   <g id="text_5">
    <!-- dot = 0 -->
    <g style="fill: #6b7280" transform="translate(219.59707 70.234823) scale(0.105 -0.105)">
     <defs>
      <path id="NanumGothic-3d" d="M 3757 2995 
Q 3827 2995 3836 2985 
Q 3846 2976 3846 2906 
L 3846 2618 
Q 3846 2547 3836 2537 
Q 3827 2528 3757 2528 
L 467 2528 
Q 397 2528 387 2537 
Q 378 2547 378 2618 
L 378 2906 
Q 378 2976 387 2985 
Q 397 2995 467 2995 
L 3757 2995 
z
M 3757 1626 
Q 3827 1626 3836 1616 
Q 3846 1606 3846 1536 
L 3846 1261 
Q 3846 1190 3836 1180 
Q 3827 1171 3757 1171 
L 467 1171 
Q 397 1171 387 1180 
Q 378 1190 378 1261 
L 378 1536 
Q 378 1606 387 1616 
Q 397 1626 467 1626 
L 3757 1626 
z
" transform="scale(0.015625)"/>
     </defs>
     <use xlink:href="#NanumGothic-64"/>
     <use xlink:href="#NanumGothic-6f" transform="translate(60.599991 0)"/>
     <use xlink:href="#NanumGothic-74" transform="translate(121.199982 0)"/>
     <use xlink:href="#NanumGothic-20" transform="translate(157.499969 0)"/>
     <use xlink:href="#NanumGothic-3d" transform="translate(185.499954 0)"/>
     <use xlink:href="#NanumGothic-20" transform="translate(250.899948 0)"/>
     <use xlink:href="#NanumGothic-30" transform="translate(278.899933 0)"/>
    </g>
   </g>
   <g id="patch_6">
    <path d="M 367.536018 100.869731 
Q 385.364232 100.869731 400.732771 100.869731 
" clip-path="url(#p663d03b6cc)" style="fill: none; stroke: #2563eb; stroke-width: 2.2; stroke-linecap: round"/>
    <path d="M 395.132771 98.069731 
L 400.732771 100.869731 
L 395.132771 103.669731 
z
" clip-path="url(#p663d03b6cc)" style="fill: #2563eb; stroke: #2563eb; stroke-width: 2.2; stroke-linecap: round"/>
   </g>
   <g id="patch_7">
    <path d="M 424.545582 90.193331 
Q 406.717368 90.193331 391.348829 90.193331 
" clip-path="url(#p663d03b6cc)" style="fill: none; stroke: #f59e0b; stroke-width: 2.2; stroke-linecap: round"/>
    <path d="M 396.948829 92.993331 
L 391.348829 90.193331 
L 396.948829 87.393331 
z
" clip-path="url(#p663d03b6cc)" style="fill: #f59e0b; stroke: #f59e0b; stroke-width: 2.2; stroke-linecap: round"/>
   </g>
   <g id="text_6">
    <!-- 반대 방향 -->
    <g style="fill: #111827" transform="translate(367.72 55.137316) scale(0.11 -0.11)">
     <defs>
      <path id="NanumGothicBold-bc18" d="M 2688 3142 
L 1331 3142 
L 1331 2406 
Q 1331 2298 1446 2298 
L 2573 2298 
Q 2688 2298 2688 2406 
L 2688 3142 
z
M 3418 2125 
Q 3418 1907 3315 1801 
Q 3213 1696 2938 1696 
L 1088 1696 
Q 806 1696 704 1792 
Q 602 1888 602 2144 
L 602 4717 
Q 602 4749 627 4771 
Q 653 4794 685 4794 
L 1242 4794 
Q 1274 4794 1302 4771 
Q 1331 4749 1331 4717 
L 1331 3738 
L 2688 3738 
L 2688 4723 
Q 2688 4755 2713 4780 
Q 2739 4806 2771 4806 
L 3334 4806 
Q 3366 4806 3392 4780 
Q 3418 4755 3418 4723 
L 3418 2125 
z
M 5254 -826 
Q 5254 -864 5225 -883 
Q 5197 -902 5165 -902 
L 1779 -902 
Q 1491 -902 1392 -800 
Q 1293 -698 1293 -448 
L 1293 902 
Q 1293 934 1321 966 
Q 1350 998 1382 998 
L 1933 998 
Q 1971 998 2000 969 
Q 2029 941 2029 902 
L 2029 -186 
Q 2029 -250 2054 -269 
Q 2080 -288 2150 -288 
L 5165 -288 
Q 5197 -288 5225 -313 
Q 5254 -339 5254 -371 
L 5254 -826 
z
M 5965 2522 
Q 5965 2490 5936 2467 
Q 5907 2445 5875 2445 
L 5005 2445 
L 5005 832 
Q 5005 749 4922 749 
L 4352 749 
Q 4269 749 4269 832 
L 4269 4979 
Q 4269 5062 4352 5062 
L 4922 5062 
Q 5005 5062 5005 4979 
L 5005 3059 
L 5875 3059 
Q 5907 3059 5936 3036 
Q 5965 3014 5965 2982 
L 5965 2522 
z
" transform="scale(0.015625)"/>
      <path id="NanumGothicBold-b300" d="M 4826 4979 
Q 4826 5062 4915 5062 
L 5466 5062 
Q 5549 5062 5549 4979 
L 5549 -928 
Q 5549 -1011 5466 -1011 
L 4909 -1011 
Q 4826 -1011 4826 -928 
L 4826 2099 
L 4230 2099 
L 4230 -685 
Q 4230 -774 4147 -774 
L 3622 -774 
Q 3533 -774 3533 -685 
L 3533 4864 
Q 3533 4947 3622 4947 
L 4147 4947 
Q 4230 4947 4230 4864 
L 4230 2714 
L 4826 2714 
L 4826 4979 
z
M 3277 1011 
Q 3290 954 3251 928 
Q 3213 902 3181 890 
Q 2970 832 2678 790 
Q 2387 749 2070 723 
Q 1754 698 1440 688 
Q 1126 678 883 698 
Q 653 710 534 806 
Q 416 902 416 1126 
L 416 4154 
Q 416 4378 509 4467 
Q 602 4557 845 4557 
L 2701 4557 
Q 2790 4557 2790 4467 
L 2790 4026 
Q 2790 3942 2701 3942 
L 1274 3942 
Q 1152 3942 1152 3834 
L 1152 1498 
Q 1152 1395 1187 1366 
Q 1222 1338 1344 1325 
Q 1478 1306 1696 1312 
Q 1914 1318 2160 1340 
Q 2406 1363 2646 1395 
Q 2886 1427 3066 1466 
Q 3110 1478 3148 1465 
Q 3187 1453 3200 1402 
L 3277 1011 
z
" transform="scale(0.015625)"/>
     </defs>
     <use xlink:href="#NanumGothicBold-bc18"/>
     <use xlink:href="#NanumGothicBold-b300" transform="translate(93.999985 0)"/>
     <use xlink:href="#NanumGothicBold-20" transform="translate(187.999969 0)"/>
     <use xlink:href="#NanumGothicBold-bc29" transform="translate(215.999954 0)"/>
     <use xlink:href="#NanumGothicBold-d5a5" transform="translate(309.999939 0)"/>
    </g>
   </g>
   <g id="text_7">
    <!-- dot &lt; 0 -->
    <g style="fill: #6b7280" transform="translate(372.678984 70.234823) scale(0.105 -0.105)">
     <defs>
      <path id="NanumGothic-3c" d="M 3194 -838 
Q 3194 -960 3181 -966 
Q 3168 -973 3085 -890 
L 614 1594 
Q 576 1632 553 1657 
Q 531 1683 521 1705 
Q 512 1728 509 1760 
Q 506 1792 506 1843 
L 506 2010 
Q 506 2061 509 2093 
Q 512 2125 521 2147 
Q 531 2170 553 2195 
Q 576 2221 614 2259 
L 3059 4742 
Q 3162 4845 3178 4838 
Q 3194 4832 3194 4685 
L 3194 4442 
Q 3194 4378 3190 4339 
Q 3187 4301 3177 4275 
Q 3168 4250 3145 4224 
Q 3123 4198 3078 4154 
L 979 2022 
Q 909 1952 905 1929 
Q 902 1907 966 1843 
Q 1216 1594 1485 1322 
Q 1754 1050 2029 771 
Q 2304 493 2576 217 
Q 2848 -58 3098 -307 
Q 3168 -384 3181 -416 
Q 3194 -448 3194 -563 
L 3194 -838 
z
" transform="scale(0.015625)"/>
     </defs>
     <use xlink:href="#NanumGothic-64"/>
     <use xlink:href="#NanumGothic-6f" transform="translate(60.599991 0)"/>
     <use xlink:href="#NanumGothic-74" transform="translate(121.199982 0)"/>
     <use xlink:href="#NanumGothic-20" transform="translate(157.499969 0)"/>
     <use xlink:href="#NanumGothic-3c" transform="translate(185.499954 0)"/>
     <use xlink:href="#NanumGothic-20" transform="translate(240.199951 0)"/>
     <use xlink:href="#NanumGothic-30" transform="translate(268.199936 0)"/>
    </g>
   </g>
  </g>
 </g>
 <defs>
  <clipPath id="p663d03b6cc">
   <rect x="8.64" y="27.660131" width="457.56" height="122.016"/>
  </clipPath>
 </defs>
</svg>
