<?xml version="1.0" encoding="utf-8" standalone="no"?>
<!DOCTYPE svg PUBLIC "-//W3C//DTD SVG 1.1//EN"
  "http://www.w3.org/Graphics/SVG/1.1/DTD/svg11.dtd">
<svg xmlns:xlink="http://www.w3.org/1999/xlink" width="290.52pt" height="548.603531pt" viewBox="0 0 290.52 548.603531" xmlns="http://www.w3.org/2000/svg" version="1.1">
 <metadata>
  <rdf:RDF xmlns:dc="http://purl.org/dc/elements/1.1/" xmlns:cc="http://creativecommons.org/ns#" xmlns:rdf="http://www.w3.org/1999/02/22-rdf-syntax-ns#">
   <cc:Work>
    <dc:type rdf:resource="http://purl.org/dc/dcmitype/StillImage"/>
    <dc:date>2026-07-08T05:12:56.146732</dc:date>
    <dc:format>image/svg+xml</dc:format>
    <dc:creator>
     <cc:Agent>
      <dc:title>Matplotlib v3.10.8, https://matplotlib.org/</dc:title>
     </cc:Agent>
    </dc:creator>
   </cc:Work>
  </rdf:RDF>
 </metadata>
 <defs>
  <style type="text/css">*{stroke-linejoin: round; stroke-linecap: butt}</style>
 </defs>
 <g id="figure_1">
  <g id="patch_1">
   <path d="M 0 548.603531 
L 290.52 548.603531 
L 290.52 0 
L 0 0 
z
" style="fill: #ffffff"/>
  </g>
  <g id="axes_1">
   <g id="text_1">
    <!-- 심화 학습 흐름 -->
    <g style="fill: #111827" transform="translate(8.64 20.054063) scale(0.15 -0.15)">
     <defs>
      <path id="NanumGothicBold-c2ec" d="M 5216 -467 
Q 5216 -710 5107 -812 
Q 4998 -915 4755 -915 
L 2035 -915 
Q 1747 -915 1612 -812 
Q 1478 -710 1478 -461 
L 1478 858 
Q 1478 1101 1587 1209 
Q 1696 1318 1939 1318 
L 4723 1318 
Q 5011 1318 5113 1212 
Q 5216 1107 5216 851 
L 5216 -467 
z
M 781 1619 
Q 704 1562 659 1574 
Q 614 1587 570 1638 
L 314 1939 
Q 243 2010 259 2054 
Q 275 2099 339 2138 
Q 698 2381 966 2640 
Q 1235 2899 1417 3212 
Q 1600 3526 1689 3916 
Q 1779 4307 1779 4819 
Q 1779 4870 1811 4902 
Q 1843 4934 1875 4934 
L 2438 4909 
Q 2522 4909 2522 4806 
Q 2522 4205 2406 3738 
Q 2515 3507 2675 3302 
Q 2835 3098 3017 2928 
Q 3200 2758 3389 2630 
Q 3578 2502 3744 2426 
Q 3853 2381 3782 2272 
L 3565 1920 
Q 3501 1818 3386 1862 
Q 3002 2035 2675 2320 
Q 2349 2605 2112 2970 
Q 1888 2566 1555 2246 
Q 1222 1926 781 1619 
z
M 5222 1722 
Q 5222 1638 5133 1638 
L 4570 1638 
Q 4538 1638 4509 1664 
Q 4480 1690 4480 1728 
L 4480 4979 
Q 4480 5011 4509 5036 
Q 4538 5062 4570 5062 
L 5133 5062 
Q 5222 5062 5222 4979 
L 5222 1722 
z
M 4480 646 
Q 4480 698 4464 714 
Q 4448 730 4397 730 
L 2298 730 
Q 2240 730 2224 717 
Q 2208 704 2208 653 
L 2208 -243 
Q 2208 -301 2224 -313 
Q 2240 -326 2298 -326 
L 4397 -326 
Q 4448 -326 4464 -313 
Q 4480 -301 4480 -243 
L 4480 646 
z
" transform="scale(0.015625)"/>
      <path id="NanumGothicBold-d654" d="M 2093 3347 
Q 2387 3347 2643 3267 
Q 2899 3187 3091 3046 
Q 3283 2906 3392 2704 
Q 3501 2502 3501 2266 
Q 3501 2061 3421 1885 
Q 3341 1709 3197 1574 
Q 3053 1440 2854 1347 
Q 2656 1254 2426 1216 
L 2426 678 
Q 3174 717 3904 832 
Q 3936 838 3974 828 
Q 4013 819 4019 768 
L 4058 371 
Q 4064 320 4038 294 
Q 4013 269 3981 262 
Q 3085 115 2125 70 
Q 1165 26 243 38 
Q 205 38 179 67 
Q 154 96 154 134 
L 154 550 
Q 154 646 243 646 
Q 973 627 1715 646 
L 1715 1222 
Q 1491 1267 1302 1360 
Q 1114 1453 976 1587 
Q 838 1722 761 1891 
Q 685 2061 685 2266 
Q 685 2502 797 2704 
Q 909 2906 1101 3046 
Q 1293 3187 1549 3267 
Q 1805 3347 2093 3347 
z
M 5971 2016 
Q 5971 1984 5942 1958 
Q 5914 1933 5882 1933 
L 5043 1933 
L 5043 -928 
Q 5043 -1011 4960 -1011 
L 4390 -1011 
Q 4307 -1011 4307 -928 
L 4307 4979 
Q 4307 5062 4390 5062 
L 4960 5062 
Q 5043 5062 5043 4979 
L 5043 2547 
L 5882 2547 
Q 5914 2547 5942 2521 
Q 5971 2496 5971 2464 
L 5971 2016 
z
M 3834 3661 
Q 3834 3622 3805 3593 
Q 3776 3565 3738 3565 
L 358 3565 
Q 326 3565 291 3597 
Q 256 3629 256 3667 
L 256 4026 
Q 256 4058 294 4090 
Q 333 4122 365 4122 
L 3738 4122 
Q 3776 4122 3805 4093 
Q 3834 4064 3834 4026 
L 3834 3661 
z
M 2093 2778 
Q 1786 2778 1581 2634 
Q 1376 2490 1376 2266 
Q 1376 2042 1577 1894 
Q 1779 1747 2093 1747 
Q 2406 1747 2608 1894 
Q 2810 2042 2810 2266 
Q 2810 2490 2608 2634 
Q 2406 2778 2093 2778 
z
M 3021 4493 
Q 3021 4448 2992 4416 
Q 2963 4384 2918 4384 
L 1203 4384 
Q 1178 4384 1142 4409 
Q 1107 4435 1107 4486 
L 1107 4858 
Q 1107 4902 1142 4928 
Q 1178 4954 1203 4954 
L 2918 4954 
Q 2957 4954 2989 4922 
Q 3021 4890 3021 4851 
L 3021 4493 
z
" transform="scale(0.015625)"/>
      <path id="NanumGothicBold-20" transform="scale(0.015625)"/>
      <path id="NanumGothicBold-d559" d="M 2118 2874 
Q 1818 2874 1622 2730 
Q 1427 2586 1427 2362 
Q 1427 2246 1478 2150 
Q 1530 2054 1622 1984 
Q 1715 1914 1843 1872 
Q 1971 1830 2118 1830 
Q 2419 1830 2614 1984 
Q 2810 2138 2810 2362 
Q 2810 2586 2618 2730 
Q 2426 2874 2118 2874 
z
M 2118 3430 
Q 2406 3430 2662 3350 
Q 2918 3270 3104 3129 
Q 3290 2989 3398 2793 
Q 3507 2598 3507 2362 
Q 3507 2125 3398 1926 
Q 3290 1728 3101 1584 
Q 2912 1440 2659 1360 
Q 2406 1280 2112 1280 
Q 1824 1280 1574 1360 
Q 1325 1440 1139 1584 
Q 954 1728 845 1926 
Q 736 2125 736 2362 
Q 736 2598 845 2793 
Q 954 2989 1139 3129 
Q 1325 3270 1577 3350 
Q 1830 3430 2118 3430 
z
M 3859 3731 
Q 3859 3693 3830 3664 
Q 3802 3635 3763 3635 
L 371 3635 
Q 333 3635 301 3667 
Q 269 3699 269 3738 
L 269 4096 
Q 269 4128 304 4163 
Q 339 4198 378 4198 
L 3763 4198 
Q 3802 4198 3830 4166 
Q 3859 4134 3859 4096 
L 3859 3731 
z
M 3034 4544 
Q 3034 4506 3005 4470 
Q 2976 4435 2925 4435 
L 1254 4435 
Q 1229 4435 1193 4460 
Q 1158 4486 1158 4538 
L 1158 4902 
Q 1158 4947 1193 4972 
Q 1229 4998 1254 4998 
L 2925 4998 
Q 2970 4998 3002 4966 
Q 3034 4934 3034 4896 
L 3034 4544 
z
M 5971 2726 
Q 5971 2694 5942 2668 
Q 5914 2643 5875 2643 
L 5011 2643 
L 5011 1248 
Q 5011 1158 4928 1158 
L 4358 1158 
Q 4275 1158 4275 1254 
L 4275 4979 
Q 4275 5062 4358 5062 
L 4928 5062 
Q 5011 5062 5011 4979 
L 5011 3258 
L 5875 3258 
Q 5914 3258 5942 3235 
Q 5971 3213 5971 3181 
L 5971 2726 
z
M 5005 -909 
Q 5005 -941 4976 -969 
Q 4947 -998 4909 -998 
L 4365 -998 
Q 4326 -998 4297 -969 
Q 4269 -941 4269 -909 
L 4269 192 
Q 4269 262 4240 281 
Q 4211 301 4147 301 
L 1254 301 
Q 1222 301 1193 323 
Q 1165 346 1165 378 
L 1165 819 
Q 1165 858 1193 880 
Q 1222 902 1254 902 
L 4576 902 
Q 4819 902 4912 800 
Q 5005 698 5005 454 
L 5005 -909 
z
" transform="scale(0.015625)"/>
      <path id="NanumGothicBold-c2b5" d="M 4966 -486 
Q 4966 -704 4864 -809 
Q 4762 -915 4486 -915 
L 1523 -915 
Q 1242 -915 1139 -819 
Q 1037 -723 1037 -467 
L 1037 1344 
Q 1037 1376 1062 1398 
Q 1088 1421 1120 1421 
L 1683 1421 
Q 1715 1421 1744 1398 
Q 1773 1376 1773 1344 
L 1773 762 
L 4230 762 
L 4230 1344 
Q 4230 1376 4256 1401 
Q 4282 1427 4314 1427 
L 4883 1427 
Q 4915 1427 4940 1401 
Q 4966 1376 4966 1344 
L 4966 -486 
z
M 986 2829 
Q 845 2797 813 2867 
L 640 3270 
Q 627 3302 640 3340 
Q 653 3379 698 3392 
Q 1107 3482 1452 3619 
Q 1798 3757 2051 3945 
Q 2304 4134 2454 4380 
Q 2605 4627 2630 4947 
Q 2643 5050 2752 5050 
L 3245 5030 
Q 3334 5030 3334 4941 
Q 3328 4883 3325 4825 
Q 3322 4768 3309 4717 
Q 3405 4474 3606 4269 
Q 3808 4064 4077 3904 
Q 4346 3744 4666 3629 
Q 4986 3514 5312 3437 
Q 5350 3424 5366 3389 
Q 5382 3354 5370 3322 
L 5178 2944 
Q 5165 2912 5129 2886 
Q 5094 2861 5030 2874 
Q 4768 2906 4477 3002 
Q 4186 3098 3910 3248 
Q 3635 3398 3398 3587 
Q 3162 3776 3014 3987 
Q 2714 3552 2189 3257 
Q 1664 2963 986 2829 
z
M 5875 1958 
Q 5875 1926 5843 1891 
Q 5811 1856 5779 1856 
L 211 1856 
Q 122 1856 122 1958 
L 122 2368 
Q 122 2458 211 2458 
L 5779 2458 
Q 5811 2458 5843 2429 
Q 5875 2400 5875 2368 
L 5875 1958 
z
M 4230 166 
L 1773 166 
L 1773 -205 
Q 1773 -314 1894 -314 
L 4109 -314 
Q 4230 -314 4230 -205 
L 4230 166 
z
" transform="scale(0.015625)"/>
      <path id="NanumGothicBold-d750" d="M 5786 666 
Q 5818 666 5850 634 
Q 5882 602 5882 570 
L 5882 166 
Q 5882 134 5850 99 
Q 5818 64 5786 64 
L 211 64 
Q 173 64 147 99 
Q 122 134 122 166 
L 122 570 
Q 122 608 147 637 
Q 173 666 211 666 
L 5786 666 
z
M 2995 1082 
Q 2611 1082 2291 1165 
Q 1971 1248 1740 1395 
Q 1510 1542 1382 1747 
Q 1254 1952 1254 2195 
Q 1254 2438 1385 2643 
Q 1517 2848 1747 2995 
Q 1978 3142 2298 3225 
Q 2618 3309 2995 3309 
Q 3379 3309 3699 3225 
Q 4019 3142 4252 2995 
Q 4486 2848 4614 2643 
Q 4742 2438 4742 2195 
Q 4742 1952 4614 1747 
Q 4486 1542 4252 1395 
Q 4019 1248 3699 1165 
Q 3379 1082 2995 1082 
z
M 2995 2771 
Q 2784 2771 2595 2729 
Q 2406 2688 2268 2611 
Q 2131 2534 2051 2428 
Q 1971 2323 1971 2195 
Q 1971 2067 2051 1961 
Q 2131 1856 2268 1779 
Q 2406 1702 2595 1660 
Q 2784 1619 2995 1619 
Q 3206 1619 3395 1660 
Q 3584 1702 3721 1779 
Q 3859 1856 3942 1961 
Q 4026 2067 4026 2195 
Q 4026 2323 3942 2428 
Q 3859 2534 3721 2611 
Q 3584 2688 3395 2729 
Q 3206 2771 2995 2771 
z
M 5370 3642 
Q 5370 3603 5341 3574 
Q 5312 3546 5274 3546 
L 723 3546 
Q 691 3546 659 3578 
Q 627 3610 627 3648 
L 627 4026 
Q 627 4058 662 4090 
Q 698 4122 730 4122 
L 5274 4122 
Q 5312 4122 5341 4093 
Q 5370 4064 5370 4026 
L 5370 3642 
z
M 4064 4499 
Q 4064 4461 4035 4429 
Q 4006 4397 3962 4397 
L 2035 4397 
Q 2010 4397 1974 4422 
Q 1939 4448 1939 4493 
L 1939 4890 
Q 1939 4934 1974 4963 
Q 2010 4992 2035 4992 
L 3962 4992 
Q 4000 4992 4032 4957 
Q 4064 4922 4064 4883 
L 4064 4499 
z
" transform="scale(0.015625)"/>
      <path id="NanumGothicBold-b984" d="M 5875 1542 
Q 5875 1510 5843 1478 
Q 5811 1446 5779 1446 
L 211 1446 
Q 173 1446 147 1475 
Q 122 1504 122 1542 
L 122 1958 
Q 122 2048 211 2048 
L 5779 2048 
Q 5811 2048 5843 2019 
Q 5875 1990 5875 1958 
L 5875 1542 
z
M 5075 2592 
Q 5075 2560 5046 2528 
Q 5018 2496 4992 2496 
L 1485 2496 
Q 1235 2496 1145 2589 
Q 1056 2682 1056 2886 
L 1056 3667 
Q 1056 3872 1142 3961 
Q 1229 4051 1478 4051 
L 4160 4051 
Q 4211 4051 4224 4067 
Q 4237 4083 4237 4141 
L 4237 4397 
Q 4237 4448 4224 4457 
Q 4211 4467 4154 4467 
L 1178 4467 
Q 1146 4467 1117 4492 
Q 1088 4518 1088 4550 
L 1088 4960 
Q 1088 4992 1117 5017 
Q 1146 5043 1178 5043 
L 4518 5043 
Q 4781 5043 4867 4963 
Q 4954 4883 4954 4666 
L 4954 3898 
Q 4954 3674 4867 3594 
Q 4781 3514 4518 3514 
L 1862 3514 
Q 1805 3514 1792 3498 
Q 1779 3482 1779 3430 
L 1779 3149 
Q 1779 3091 1792 3081 
Q 1805 3072 1869 3072 
L 4986 3072 
Q 5018 3072 5046 3049 
Q 5075 3027 5075 2989 
L 5075 2592 
z
M 4966 -499 
Q 4966 -742 4844 -844 
Q 4723 -947 4480 -947 
L 1510 -947 
Q 1222 -947 1123 -848 
Q 1024 -749 1024 -499 
L 1024 570 
Q 1024 813 1145 918 
Q 1267 1024 1510 1024 
L 4480 1024 
Q 4768 1024 4867 928 
Q 4966 832 4966 570 
L 4966 -499 
z
M 4230 339 
Q 4230 390 4214 406 
Q 4198 422 4147 422 
L 1843 422 
Q 1792 422 1776 409 
Q 1760 397 1760 346 
L 1760 -262 
Q 1760 -320 1776 -333 
Q 1792 -346 1843 -346 
L 4147 -346 
Q 4198 -346 4214 -333 
Q 4230 -320 4230 -262 
L 4230 339 
z
" transform="scale(0.015625)"/>
     </defs>
     <use xlink:href="#NanumGothicBold-c2ec"/>
     <use xlink:href="#NanumGothicBold-d654" transform="translate(93.999985 0)"/>
     <use xlink:href="#NanumGothicBold-20" transform="translate(187.999969 0)"/>
     <use xlink:href="#NanumGothicBold-d559" transform="translate(215.999954 0)"/>
     <use xlink:href="#NanumGothicBold-c2b5" transform="translate(309.999939 0)"/>
     <use xlink:href="#NanumGothicBold-20" transform="translate(403.999924 0)"/>
     <use xlink:href="#NanumGothicBold-d750" transform="translate(431.999908 0)"/>
     <use xlink:href="#NanumGothicBold-b984" transform="translate(525.999893 0)"/>
    </g>
   </g>
   <g id="text_2">
    <!-- AABB -->
    <g style="fill: #111827" transform="translate(130.597344 60.313516) scale(0.11 -0.11)">
     <defs>
      <path id="NanumGothicBold-41" d="M 3949 -320 
Q 3904 -320 3885 -310 
Q 3866 -301 3846 -256 
L 3386 896 
L 1299 896 
L 838 -256 
Q 826 -301 806 -310 
Q 787 -320 742 -320 
L 154 -320 
Q 38 -320 77 -230 
L 1946 4435 
Q 1965 4486 1974 4496 
Q 1984 4506 2048 4506 
L 2643 4506 
Q 2701 4506 2713 4496 
Q 2726 4486 2746 4435 
L 4614 -230 
Q 4646 -320 4538 -320 
L 3949 -320 
z
M 1562 1568 
L 3117 1568 
L 2342 3539 
L 1562 1568 
z
" transform="scale(0.015625)"/>
      <path id="NanumGothicBold-42" d="M 653 -320 
Q 576 -320 576 -256 
L 576 4416 
Q 576 4506 653 4506 
L 1760 4506 
Q 2490 4506 2896 4205 
Q 3302 3904 3302 3283 
Q 3302 2899 3145 2627 
Q 2989 2355 2701 2202 
Q 2886 2131 3024 2016 
Q 3162 1901 3254 1753 
Q 3347 1606 3392 1443 
Q 3437 1280 3437 1120 
Q 3437 397 2963 38 
Q 2490 -320 1594 -320 
L 653 -320 
z
M 1306 3827 
L 1306 2528 
L 1651 2528 
Q 2157 2528 2368 2723 
Q 2579 2918 2579 3226 
Q 2579 3494 2393 3660 
Q 2208 3827 1760 3827 
L 1306 3827 
z
M 1293 1837 
L 1293 365 
L 1606 365 
Q 2221 365 2467 560 
Q 2714 755 2714 1094 
Q 2714 1440 2445 1638 
Q 2176 1837 1536 1837 
L 1293 1837 
z
" transform="scale(0.015625)"/>
     </defs>
     <use xlink:href="#NanumGothicBold-41"/>
     <use xlink:href="#NanumGothicBold-41" transform="translate(72.699982 0)"/>
     <use xlink:href="#NanumGothicBold-42" transform="translate(145.399963 0)"/>
     <use xlink:href="#NanumGothicBold-42" transform="translate(205.999954 0)"/>
    </g>
   </g>
   <g id="patch_2">
    <path d="M 145.26 66.071189 
Q 145.26 80.691809 145.26 93.299968 
" clip-path="url(#p47583b619e)" style="fill: none; stroke: #6b7280; stroke-width: 1.8; stroke-linecap: round"/>
    <path d="M 148.06 87.699968 
L 145.26 93.299968 
L 142.46 87.699968 
z
" clip-path="url(#p47583b619e)" style="fill: #6b7280; stroke: #6b7280; stroke-width: 1.8; stroke-linecap: round"/>
   </g>
   <g id="text_3">
    <!-- Circle -->
    <g style="fill: #111827" transform="translate(131.245312 121.792516) scale(0.11 -0.11)">
     <defs>
      <path id="NanumGothicBold-43" d="M 3878 -269 
Q 3693 -320 3430 -365 
Q 3168 -410 2822 -410 
Q 2278 -410 1833 -230 
Q 1389 -51 1075 278 
Q 762 608 589 1069 
Q 416 1530 416 2093 
Q 416 2650 585 3110 
Q 755 3571 1068 3900 
Q 1382 4230 1827 4412 
Q 2272 4595 2822 4595 
Q 3110 4595 3385 4566 
Q 3661 4538 3885 4467 
Q 3955 4448 3968 4419 
Q 3981 4390 3974 4326 
L 3962 3853 
Q 3962 3750 3930 3750 
Q 3898 3750 3821 3776 
Q 3341 3923 2822 3923 
Q 2426 3923 2115 3788 
Q 1805 3654 1590 3411 
Q 1376 3168 1264 2832 
Q 1152 2496 1152 2093 
Q 1152 1696 1273 1360 
Q 1395 1024 1616 777 
Q 1837 531 2141 390 
Q 2445 250 2816 250 
Q 3149 250 3382 278 
Q 3616 307 3814 378 
Q 3898 410 3923 397 
Q 3949 384 3949 339 
L 3974 -115 
Q 3981 -186 3965 -218 
Q 3949 -250 3878 -269 
z
" transform="scale(0.015625)"/>
      <path id="NanumGothicBold-69" d="M 813 3898 
Q 627 3898 502 4022 
Q 378 4147 378 4326 
Q 378 4512 502 4640 
Q 627 4768 813 4768 
Q 998 4768 1126 4640 
Q 1254 4512 1254 4326 
Q 1254 4147 1126 4022 
Q 998 3898 813 3898 
z
M 538 -326 
Q 506 -326 483 -304 
Q 461 -282 461 -250 
L 461 3123 
Q 461 3155 483 3177 
Q 506 3200 538 3200 
L 1075 3200 
Q 1107 3200 1129 3177 
Q 1152 3155 1152 3123 
L 1152 -250 
Q 1152 -282 1129 -304 
Q 1107 -326 1075 -326 
L 538 -326 
z
" transform="scale(0.015625)"/>
      <path id="NanumGothicBold-72" d="M 2240 2579 
Q 2112 2611 2016 2620 
Q 1920 2630 1850 2618 
Q 1658 2579 1539 2454 
Q 1421 2330 1360 2163 
Q 1299 1997 1280 1805 
Q 1261 1613 1261 1440 
L 1261 -224 
Q 1261 -314 1184 -314 
L 653 -314 
Q 582 -314 582 -218 
L 582 2362 
Q 582 2566 576 2771 
Q 570 2976 570 3130 
Q 570 3187 589 3203 
Q 608 3219 653 3219 
L 1184 3219 
Q 1229 3219 1235 3206 
Q 1242 3194 1242 3162 
L 1242 2880 
Q 1286 2957 1360 3033 
Q 1434 3110 1520 3171 
Q 1606 3232 1696 3267 
Q 1786 3302 1862 3302 
Q 1984 3302 2083 3299 
Q 2182 3296 2291 3232 
Q 2323 3219 2329 3190 
Q 2336 3162 2336 3136 
L 2336 2656 
Q 2336 2630 2317 2598 
Q 2298 2566 2240 2579 
z
" transform="scale(0.015625)"/>
      <path id="NanumGothicBold-63" d="M 2867 -307 
Q 2797 -333 2694 -352 
Q 2592 -371 2473 -384 
Q 2355 -397 2224 -400 
Q 2093 -403 1971 -397 
Q 1568 -371 1257 -220 
Q 947 -70 736 173 
Q 525 416 419 745 
Q 314 1075 314 1459 
Q 314 1862 442 2201 
Q 570 2541 803 2787 
Q 1037 3034 1363 3168 
Q 1690 3302 2093 3302 
Q 2291 3302 2492 3280 
Q 2694 3258 2886 3194 
Q 2912 3187 2925 3168 
Q 2938 3149 2931 3091 
L 2874 2650 
Q 2867 2605 2844 2585 
Q 2822 2566 2765 2579 
Q 2624 2630 2435 2649 
Q 2246 2669 2080 2669 
Q 1562 2669 1293 2336 
Q 1024 2003 1024 1459 
Q 1024 934 1277 614 
Q 1530 294 2010 237 
Q 2451 186 2797 294 
Q 2861 320 2877 301 
Q 2893 282 2899 243 
L 2931 -198 
Q 2938 -250 2928 -272 
Q 2918 -294 2867 -307 
z
" transform="scale(0.015625)"/>
      <path id="NanumGothicBold-6c" d="M 544 -326 
Q 474 -326 474 -250 
L 474 4794 
Q 474 4826 496 4848 
Q 518 4870 550 4870 
L 1088 4870 
Q 1120 4870 1142 4848 
Q 1165 4826 1165 4794 
L 1165 -250 
Q 1165 -282 1142 -304 
Q 1120 -326 1088 -326 
L 544 -326 
z
" transform="scale(0.015625)"/>
      <path id="NanumGothicBold-65" d="M 3232 1293 
Q 3232 1242 3203 1216 
Q 3174 1190 3142 1190 
L 1037 1190 
Q 1069 762 1305 490 
Q 1542 218 1952 218 
Q 2163 218 2432 272 
Q 2701 326 2925 461 
Q 2970 486 2982 454 
Q 2995 422 2995 371 
L 2995 -70 
Q 2995 -128 2976 -160 
Q 2957 -192 2899 -224 
Q 2707 -326 2448 -371 
Q 2189 -416 1920 -416 
Q 1126 -416 720 61 
Q 314 538 314 1459 
Q 314 1805 403 2137 
Q 493 2470 675 2732 
Q 858 2995 1139 3155 
Q 1421 3315 1805 3315 
Q 2195 3315 2467 3168 
Q 2739 3021 2912 2771 
Q 3085 2522 3161 2189 
Q 3238 1856 3238 1478 
Q 3238 1434 3235 1376 
Q 3232 1318 3232 1293 
z
M 1830 2701 
Q 1658 2701 1523 2624 
Q 1389 2547 1293 2425 
Q 1197 2304 1136 2144 
Q 1075 1984 1050 1824 
L 2515 1824 
Q 2515 1952 2473 2105 
Q 2432 2259 2349 2390 
Q 2266 2522 2138 2611 
Q 2010 2701 1830 2701 
z
" transform="scale(0.015625)"/>
     </defs>
     <use xlink:href="#NanumGothicBold-43"/>
     <use xlink:href="#NanumGothicBold-69" transform="translate(67.199997 0)"/>
     <use xlink:href="#NanumGothicBold-72" transform="translate(91.399994 0)"/>
     <use xlink:href="#NanumGothicBold-63" transform="translate(127.699982 0)"/>
     <use xlink:href="#NanumGothicBold-6c" transform="translate(176.099976 0)"/>
     <use xlink:href="#NanumGothicBold-65" transform="translate(200.299973 0)"/>
    </g>
   </g>
   <g id="patch_3">
    <path d="M 145.26 127.550189 
Q 145.26 142.170809 145.26 154.778968 
" clip-path="url(#p47583b619e)" style="fill: none; stroke: #6b7280; stroke-width: 1.8; stroke-linecap: round"/>
    <path d="M 148.06 149.178968 
L 145.26 154.778968 
L 142.46 149.178968 
z
" clip-path="url(#p47583b619e)" style="fill: #6b7280; stroke: #6b7280; stroke-width: 1.8; stroke-linecap: round"/>
   </g>
   <g id="text_4">
    <!-- Circle vs Box -->
    <g style="fill: #111827" transform="translate(113.700312 183.271516) scale(0.11 -0.11)">
     <defs>
      <path id="NanumGothicBold-76" d="M 1920 -250 
Q 1907 -288 1894 -297 
Q 1882 -307 1843 -307 
L 1293 -307 
Q 1254 -307 1238 -297 
Q 1222 -288 1210 -250 
L 45 3149 
Q 32 3181 45 3200 
Q 58 3219 128 3219 
L 685 3219 
Q 717 3219 736 3209 
Q 755 3200 768 3168 
L 1568 755 
L 2362 3168 
Q 2374 3200 2396 3209 
Q 2419 3219 2451 3219 
L 3014 3219 
Q 3085 3219 3097 3200 
Q 3110 3181 3098 3149 
L 1920 -250 
z
" transform="scale(0.015625)"/>
      <path id="NanumGothicBold-73" d="M 2099 -186 
Q 1754 -416 1280 -416 
Q 1152 -416 1011 -403 
Q 870 -390 739 -371 
Q 608 -352 505 -326 
Q 403 -301 346 -275 
Q 320 -262 291 -240 
Q 262 -218 269 -166 
L 307 250 
Q 314 314 326 326 
Q 339 339 410 320 
Q 621 256 848 227 
Q 1075 198 1254 198 
Q 1536 198 1673 339 
Q 1811 480 1811 666 
Q 1811 768 1740 873 
Q 1670 979 1504 1088 
Q 1331 1190 1145 1296 
Q 960 1402 781 1504 
Q 576 1626 438 1827 
Q 301 2029 301 2272 
Q 301 2541 397 2736 
Q 493 2931 653 3062 
Q 813 3194 1021 3254 
Q 1229 3315 1459 3315 
Q 1581 3315 1712 3302 
Q 1843 3290 1968 3267 
Q 2093 3245 2192 3216 
Q 2291 3187 2342 3155 
Q 2374 3136 2377 3120 
Q 2381 3104 2374 3072 
L 2336 2662 
Q 2330 2592 2304 2582 
Q 2278 2573 2208 2586 
Q 2086 2630 1933 2669 
Q 1843 2682 1744 2694 
Q 1645 2707 1498 2707 
Q 1235 2707 1126 2585 
Q 1018 2464 1018 2291 
Q 1018 2189 1139 2073 
Q 1261 1958 1446 1862 
Q 1645 1766 1814 1664 
Q 1984 1562 2067 1498 
Q 2298 1331 2413 1136 
Q 2528 941 2528 666 
Q 2528 128 2099 -186 
z
" transform="scale(0.015625)"/>
      <path id="NanumGothicBold-6f" d="M 3238 173 
Q 3008 -115 2688 -265 
Q 2368 -416 1965 -416 
Q 1555 -416 1241 -269 
Q 928 -122 717 134 
Q 506 390 400 729 
Q 294 1069 294 1453 
Q 294 1837 400 2176 
Q 506 2515 717 2768 
Q 928 3021 1238 3168 
Q 1549 3315 1965 3315 
Q 2374 3315 2688 3168 
Q 3002 3021 3213 2768 
Q 3424 2515 3529 2176 
Q 3635 1837 3635 1453 
Q 3635 1075 3532 745 
Q 3430 416 3238 173 
z
M 1965 2688 
Q 1715 2688 1532 2579 
Q 1350 2470 1235 2294 
Q 1120 2118 1062 1897 
Q 1005 1677 1005 1453 
Q 1005 1229 1062 1008 
Q 1120 787 1235 608 
Q 1350 429 1532 320 
Q 1715 211 1965 211 
Q 2214 211 2396 320 
Q 2579 429 2694 608 
Q 2810 787 2867 1008 
Q 2925 1229 2925 1453 
Q 2925 1670 2867 1891 
Q 2810 2112 2694 2288 
Q 2579 2464 2396 2576 
Q 2214 2688 1965 2688 
z
" transform="scale(0.015625)"/>
      <path id="NanumGothicBold-78" d="M 2515 -301 
Q 2445 -301 2419 -262 
L 1632 954 
L 845 -262 
Q 813 -301 749 -301 
L 90 -301 
Q 13 -301 70 -224 
L 1235 1542 
L 186 3142 
Q 160 3174 173 3196 
Q 186 3219 237 3219 
L 877 3219 
Q 928 3219 954 3181 
L 1632 2131 
L 2310 3181 
Q 2336 3219 2387 3219 
L 3027 3219 
Q 3078 3219 3091 3196 
Q 3104 3174 3078 3142 
L 2029 1542 
L 3194 -224 
Q 3251 -301 3174 -301 
L 2515 -301 
z
" transform="scale(0.015625)"/>
     </defs>
     <use xlink:href="#NanumGothicBold-43"/>
     <use xlink:href="#NanumGothicBold-69" transform="translate(67.199997 0)"/>
     <use xlink:href="#NanumGothicBold-72" transform="translate(91.399994 0)"/>
     <use xlink:href="#NanumGothicBold-63" transform="translate(127.699982 0)"/>
     <use xlink:href="#NanumGothicBold-6c" transform="translate(176.099976 0)"/>
     <use xlink:href="#NanumGothicBold-65" transform="translate(200.299973 0)"/>
     <use xlink:href="#NanumGothicBold-20" transform="translate(254.799957 0)"/>
     <use xlink:href="#NanumGothicBold-76" transform="translate(282.799942 0)"/>
     <use xlink:href="#NanumGothicBold-73" transform="translate(331.199936 0)"/>
     <use xlink:href="#NanumGothicBold-20" transform="translate(373.59993 0)"/>
     <use xlink:href="#NanumGothicBold-42" transform="translate(401.599915 0)"/>
     <use xlink:href="#NanumGothicBold-6f" transform="translate(462.199905 0)"/>
     <use xlink:href="#NanumGothicBold-78" transform="translate(522.799896 0)"/>
    </g>
   </g>
   <g id="patch_4">
    <path d="M 145.26 189.029189 
Q 145.26 203.649809 145.26 216.257968 
" clip-path="url(#p47583b619e)" style="fill: none; stroke: #6b7280; stroke-width: 1.8; stroke-linecap: round"/>
    <path d="M 148.06 210.657968 
L 145.26 216.257968 
L 142.46 210.657968 
z
" clip-path="url(#p47583b619e)" style="fill: #6b7280; stroke: #6b7280; stroke-width: 1.8; stroke-linecap: round"/>
   </g>
   <g id="text_5">
    <!-- OBB -->
    <g style="fill: #111827" transform="translate(134.266016 244.750516) scale(0.11 -0.11)">
     <defs>
      <path id="NanumGothicBold-4f" d="M 4141 288 
Q 3853 -77 3446 -253 
Q 3040 -429 2534 -429 
Q 1971 -429 1564 -227 
Q 1158 -26 899 320 
Q 640 666 515 1123 
Q 390 1581 390 2093 
Q 390 2592 518 3049 
Q 646 3507 908 3852 
Q 1171 4198 1574 4403 
Q 1978 4608 2534 4608 
Q 3078 4608 3481 4400 
Q 3885 4192 4150 3846 
Q 4416 3501 4547 3046 
Q 4678 2592 4672 2093 
Q 4666 1530 4538 1078 
Q 4410 627 4141 288 
z
M 2534 3923 
Q 2163 3923 1897 3760 
Q 1632 3597 1462 3337 
Q 1293 3078 1213 2748 
Q 1133 2419 1133 2093 
Q 1133 1766 1213 1436 
Q 1293 1107 1462 844 
Q 1632 582 1897 419 
Q 2163 256 2534 256 
Q 2906 256 3171 419 
Q 3437 582 3603 844 
Q 3770 1107 3850 1436 
Q 3930 1766 3930 2093 
Q 3930 2413 3853 2739 
Q 3776 3066 3606 3328 
Q 3437 3590 3171 3756 
Q 2906 3923 2534 3923 
z
" transform="scale(0.015625)"/>
     </defs>
     <use xlink:href="#NanumGothicBold-4f"/>
     <use xlink:href="#NanumGothicBold-42" transform="translate(78.699982 0)"/>
     <use xlink:href="#NanumGothicBold-42" transform="translate(139.299973 0)"/>
    </g>
   </g>
   <g id="patch_5">
    <path d="M 145.26 250.508189 
Q 145.26 265.128809 145.26 277.736968 
" clip-path="url(#p47583b619e)" style="fill: none; stroke: #6b7280; stroke-width: 1.8; stroke-linecap: round"/>
    <path d="M 148.06 272.136968 
L 145.26 277.736968 
L 142.46 272.136968 
z
" clip-path="url(#p47583b619e)" style="fill: #6b7280; stroke: #6b7280; stroke-width: 1.8; stroke-linecap: round"/>
   </g>
   <g id="text_6">
    <!-- SAT -->
    <g style="fill: #111827" transform="translate(135.575703 306.229516) scale(0.11 -0.11)">
     <defs>
      <path id="NanumGothicBold-53" d="M 2784 26 
Q 2618 -154 2358 -278 
Q 2099 -403 1811 -429 
Q 1658 -442 1469 -429 
Q 1280 -416 1104 -387 
Q 928 -358 784 -323 
Q 640 -288 576 -256 
Q 480 -211 461 -188 
Q 442 -166 454 -96 
L 499 378 
Q 506 429 531 441 
Q 557 454 627 422 
Q 704 390 845 348 
Q 986 307 1158 278 
Q 1331 250 1507 243 
Q 1683 237 1824 269 
Q 2010 314 2125 387 
Q 2240 461 2307 560 
Q 2374 659 2400 777 
Q 2426 896 2426 1024 
Q 2426 1146 2269 1357 
Q 2112 1568 1818 1741 
Q 1459 1952 1196 2134 
Q 934 2317 764 2496 
Q 595 2675 512 2867 
Q 429 3059 429 3290 
Q 429 3552 541 3792 
Q 653 4032 848 4211 
Q 1043 4390 1315 4496 
Q 1587 4602 1914 4602 
Q 2246 4602 2460 4560 
Q 2675 4518 2829 4461 
Q 2899 4435 2915 4406 
Q 2931 4378 2918 4333 
L 2835 3923 
Q 2822 3853 2793 3827 
Q 2765 3802 2694 3827 
Q 2598 3859 2483 3888 
Q 2368 3917 2246 3936 
Q 2125 3955 2013 3961 
Q 1901 3968 1811 3955 
Q 1453 3898 1309 3722 
Q 1165 3546 1165 3277 
Q 1165 3117 1331 2921 
Q 1498 2726 1818 2534 
Q 2221 2291 2480 2099 
Q 2739 1907 2889 1731 
Q 3040 1555 3101 1376 
Q 3162 1197 3162 986 
Q 3162 422 2784 26 
z
" transform="scale(0.015625)"/>
      <path id="NanumGothicBold-54" d="M 2138 3834 
L 2138 -243 
Q 2138 -320 2061 -320 
L 1491 -320 
Q 1414 -320 1414 -243 
L 1414 3834 
L 173 3834 
Q 141 3834 118 3856 
Q 96 3878 96 3917 
L 96 4429 
Q 96 4461 118 4483 
Q 141 4506 173 4506 
L 3386 4506 
Q 3418 4506 3440 4483 
Q 3462 4461 3462 4429 
L 3462 3917 
Q 3462 3834 3386 3834 
L 2138 3834 
z
" transform="scale(0.015625)"/>
     </defs>
     <use xlink:href="#NanumGothicBold-53"/>
     <use xlink:href="#NanumGothicBold-41" transform="translate(54.499985 0)"/>
     <use xlink:href="#NanumGothicBold-54" transform="translate(121.574966 0)"/>
    </g>
   </g>
   <g id="patch_6">
    <path d="M 145.26 311.987189 
Q 145.26 326.607809 145.26 339.215968 
" clip-path="url(#p47583b619e)" style="fill: none; stroke: #6b7280; stroke-width: 1.8; stroke-linecap: round"/>
    <path d="M 148.06 333.615968 
L 145.26 339.215968 
L 142.46 333.615968 
z
" clip-path="url(#p47583b619e)" style="fill: #6b7280; stroke: #6b7280; stroke-width: 1.8; stroke-linecap: round"/>
   </g>
   <g id="text_7">
    <!-- Impulse -->
    <g style="fill: #111827" transform="translate(125.608672 367.708516) scale(0.11 -0.11)">
     <defs>
      <path id="NanumGothicBold-49" d="M 1203 -237 
Q 1203 -320 1120 -320 
L 538 -320 
Q 454 -320 454 -237 
L 454 4422 
Q 454 4506 538 4506 
L 1120 4506 
Q 1203 4506 1203 4422 
L 1203 -237 
z
" transform="scale(0.015625)"/>
      <path id="NanumGothicBold-6d" d="M 4698 -314 
Q 4666 -314 4640 -285 
Q 4614 -256 4614 -224 
L 4614 1990 
Q 4614 2291 4473 2480 
Q 4333 2669 4064 2669 
Q 3872 2669 3721 2589 
Q 3571 2509 3468 2371 
Q 3366 2234 3312 2042 
Q 3258 1850 3258 1626 
L 3258 -230 
Q 3258 -314 3181 -314 
L 2650 -314 
Q 2618 -314 2592 -285 
Q 2566 -256 2566 -224 
L 2566 1990 
Q 2566 2669 2003 2669 
Q 1645 2669 1443 2451 
Q 1242 2234 1242 1850 
L 1242 -230 
Q 1242 -314 1165 -314 
L 634 -314 
Q 602 -314 579 -285 
Q 557 -256 557 -224 
L 557 2323 
Q 557 2566 550 2790 
Q 544 3014 531 3142 
Q 518 3226 621 3226 
L 1165 3226 
Q 1222 3226 1222 3174 
L 1216 2950 
Q 1344 3098 1568 3200 
Q 1792 3302 2042 3302 
Q 2374 3302 2649 3148 
Q 2925 2995 3046 2694 
Q 3194 3002 3482 3152 
Q 3770 3302 4096 3302 
Q 4640 3302 4973 2979 
Q 5306 2656 5306 2074 
L 5306 -230 
Q 5306 -262 5283 -288 
Q 5261 -314 5229 -314 
L 4698 -314 
z
" transform="scale(0.015625)"/>
      <path id="NanumGothicBold-70" d="M 2061 -474 
Q 1805 -474 1568 -365 
Q 1331 -256 1171 -70 
L 1171 -1210 
Q 1171 -1261 1158 -1277 
Q 1146 -1293 1101 -1293 
L 570 -1293 
Q 531 -1293 512 -1277 
Q 493 -1261 493 -1210 
L 493 3130 
Q 493 3232 589 3232 
L 1082 3232 
Q 1171 3232 1171 3130 
L 1171 2899 
Q 1350 3085 1574 3187 
Q 1798 3290 2061 3290 
Q 2406 3290 2678 3158 
Q 2950 3027 3139 2784 
Q 3328 2541 3427 2189 
Q 3526 1837 3526 1395 
Q 3526 966 3424 620 
Q 3322 275 3133 32 
Q 2944 -211 2672 -342 
Q 2400 -474 2061 -474 
z
M 1990 2637 
Q 1824 2637 1677 2557 
Q 1530 2477 1418 2320 
Q 1306 2163 1238 1932 
Q 1171 1702 1171 1402 
Q 1171 774 1395 473 
Q 1619 173 1990 173 
Q 2387 173 2598 493 
Q 2810 813 2810 1402 
Q 2810 2022 2592 2329 
Q 2374 2637 1990 2637 
z
" transform="scale(0.015625)"/>
      <path id="NanumGothicBold-75" d="M 2784 -314 
Q 2752 -314 2729 -298 
Q 2707 -282 2714 -250 
L 2714 6 
Q 2547 -198 2307 -307 
Q 2067 -416 1805 -416 
Q 1184 -416 877 -51 
Q 570 314 570 992 
L 570 3136 
Q 570 3168 592 3197 
Q 614 3226 646 3226 
L 1171 3226 
Q 1203 3226 1228 3194 
Q 1254 3162 1254 3130 
L 1254 1094 
Q 1254 614 1411 416 
Q 1568 218 1875 218 
Q 2221 218 2448 480 
Q 2675 742 2675 1261 
L 2675 3136 
Q 2675 3168 2697 3197 
Q 2720 3226 2752 3226 
L 3283 3226 
Q 3315 3226 3337 3190 
Q 3360 3155 3360 3123 
L 3360 512 
Q 3360 314 3366 122 
Q 3373 -70 3373 -230 
Q 3373 -314 3302 -314 
L 2784 -314 
z
" transform="scale(0.015625)"/>
     </defs>
     <use xlink:href="#NanumGothicBold-49"/>
     <use xlink:href="#NanumGothicBold-6d" transform="translate(24.199997 0)"/>
     <use xlink:href="#NanumGothicBold-70" transform="translate(114.999985 0)"/>
     <use xlink:href="#NanumGothicBold-75" transform="translate(175.599976 0)"/>
     <use xlink:href="#NanumGothicBold-6c" transform="translate(236.199966 0)"/>
     <use xlink:href="#NanumGothicBold-73" transform="translate(260.399963 0)"/>
     <use xlink:href="#NanumGothicBold-65" transform="translate(302.799957 0)"/>
    </g>
   </g>
   <g id="patch_7">
    <path d="M 145.26 373.466189 
Q 145.26 388.086809 145.26 400.694968 
" clip-path="url(#p47583b619e)" style="fill: none; stroke: #6b7280; stroke-width: 1.8; stroke-linecap: round"/>
    <path d="M 148.06 395.094968 
L 145.26 400.694968 
L 142.46 395.094968 
z
" clip-path="url(#p47583b619e)" style="fill: #6b7280; stroke: #6b7280; stroke-width: 1.8; stroke-linecap: round"/>
   </g>
   <g id="text_8">
    <!-- Angular vel. -->
    <g style="fill: #111827" transform="translate(114.741016 429.171187) scale(0.11 -0.11)">
     <defs>
      <path id="NanumGothicBold-6e" d="M 2752 -314 
Q 2720 -314 2697 -285 
Q 2675 -256 2675 -224 
L 2675 1811 
Q 2675 2272 2531 2477 
Q 2387 2682 2080 2682 
Q 1658 2682 1456 2448 
Q 1254 2214 1254 1773 
L 1254 -230 
Q 1254 -314 1178 -314 
L 646 -314 
Q 614 -314 592 -285 
Q 570 -256 570 -224 
L 570 2323 
Q 570 2566 566 2790 
Q 563 3014 550 3142 
Q 538 3226 640 3226 
L 1146 3226 
Q 1216 3226 1203 3174 
L 1197 2944 
Q 1357 3098 1581 3206 
Q 1805 3315 2099 3315 
Q 2714 3315 3037 2953 
Q 3360 2592 3360 1907 
L 3360 -230 
Q 3360 -314 3283 -314 
L 2752 -314 
z
" transform="scale(0.015625)"/>
      <path id="NanumGothicBold-67" d="M 1747 -1312 
Q 1491 -1312 1241 -1277 
Q 992 -1242 749 -1152 
Q 691 -1120 668 -1101 
Q 646 -1082 646 -1037 
L 678 -518 
Q 691 -397 806 -454 
Q 1024 -563 1277 -617 
Q 1530 -672 1754 -672 
Q 2170 -672 2416 -454 
Q 2662 -237 2682 141 
Q 2515 -38 2291 -128 
Q 2067 -218 1850 -218 
Q 1530 -218 1254 -93 
Q 979 32 780 253 
Q 582 474 470 781 
Q 358 1088 358 1453 
Q 358 2400 739 2854 
Q 1120 3309 1830 3309 
Q 1958 3309 2089 3277 
Q 2221 3245 2342 3193 
Q 2464 3142 2566 3075 
Q 2669 3008 2746 2931 
L 2739 3155 
Q 2733 3206 2745 3225 
Q 2758 3245 2822 3245 
L 3328 3245 
Q 3405 3245 3405 3149 
L 3405 506 
Q 3405 -358 2982 -835 
Q 2560 -1312 1747 -1312 
z
M 1907 2682 
Q 1504 2682 1289 2387 
Q 1075 2093 1075 1453 
Q 1075 1210 1139 1018 
Q 1203 826 1315 694 
Q 1427 563 1571 492 
Q 1715 422 1875 422 
Q 2054 422 2208 492 
Q 2362 563 2477 697 
Q 2592 832 2659 1024 
Q 2726 1216 2726 1466 
Q 2726 2048 2508 2365 
Q 2291 2682 1907 2682 
z
" transform="scale(0.015625)"/>
      <path id="NanumGothicBold-61" d="M 2464 -314 
Q 2419 -314 2406 -304 
Q 2394 -294 2394 -256 
L 2394 32 
Q 2234 -192 1987 -304 
Q 1741 -416 1491 -416 
Q 1229 -416 1008 -345 
Q 787 -275 630 -134 
Q 474 6 384 214 
Q 294 422 294 698 
Q 294 1024 409 1270 
Q 525 1517 771 1680 
Q 1018 1843 1402 1923 
Q 1786 2003 2330 2003 
Q 2330 2125 2304 2246 
Q 2278 2368 2217 2464 
Q 2157 2560 2048 2621 
Q 1939 2682 1773 2682 
Q 1485 2682 1251 2605 
Q 1018 2528 813 2400 
Q 710 2336 675 2342 
Q 640 2349 640 2413 
L 640 2899 
Q 640 2925 637 2953 
Q 634 2982 646 3002 
Q 666 3027 742 3072 
Q 960 3181 1187 3251 
Q 1414 3322 1760 3322 
Q 2406 3322 2716 3008 
Q 3027 2694 3027 2022 
L 3027 506 
Q 3027 326 3030 131 
Q 3034 -64 3053 -211 
Q 3066 -314 2982 -314 
L 2464 -314 
z
M 2349 1395 
Q 1638 1395 1331 1222 
Q 1024 1050 1024 704 
Q 1024 461 1165 339 
Q 1306 218 1542 218 
Q 1907 218 2128 486 
Q 2349 755 2349 1325 
L 2349 1395 
z
" transform="scale(0.015625)"/>
      <path id="NanumGothicBold-2e" d="M 1011 -742 
Q 806 -742 662 -598 
Q 518 -454 518 -250 
Q 518 -45 662 96 
Q 806 237 1011 237 
Q 1216 237 1357 96 
Q 1498 -45 1498 -250 
Q 1498 -454 1357 -598 
Q 1216 -742 1011 -742 
z
" transform="scale(0.015625)"/>
     </defs>
     <use xlink:href="#NanumGothicBold-41"/>
     <use xlink:href="#NanumGothicBold-6e" transform="translate(72.699982 0)"/>
     <use xlink:href="#NanumGothicBold-67" transform="translate(133.299973 0)"/>
     <use xlink:href="#NanumGothicBold-75" transform="translate(193.899963 0)"/>
     <use xlink:href="#NanumGothicBold-6c" transform="translate(254.499954 0)"/>
     <use xlink:href="#NanumGothicBold-61" transform="translate(278.699951 0)"/>
     <use xlink:href="#NanumGothicBold-72" transform="translate(333.199936 0)"/>
     <use xlink:href="#NanumGothicBold-20" transform="translate(369.499924 0)"/>
     <use xlink:href="#NanumGothicBold-76" transform="translate(397.499908 0)"/>
     <use xlink:href="#NanumGothicBold-65" transform="translate(445.899902 0)"/>
     <use xlink:href="#NanumGothicBold-6c" transform="translate(500.399887 0)"/>
     <use xlink:href="#NanumGothicBold-2e" transform="translate(524.599884 0)"/>
    </g>
   </g>
   <g id="patch_8">
    <path d="M 145.26 434.945189 
Q 145.26 449.565809 145.26 462.173968 
" clip-path="url(#p47583b619e)" style="fill: none; stroke: #6b7280; stroke-width: 1.8; stroke-linecap: round"/>
    <path d="M 148.06 456.573968 
L 145.26 462.173968 
L 142.46 456.573968 
z
" clip-path="url(#p47583b619e)" style="fill: #6b7280; stroke: #6b7280; stroke-width: 1.8; stroke-linecap: round"/>
   </g>
   <g id="text_9">
    <!-- Constraint -->
    <g style="fill: #111827" transform="translate(118.915859 490.666516) scale(0.11 -0.11)">
     <defs>
      <path id="NanumGothicBold-74" d="M 2278 -262 
Q 2189 -320 1993 -368 
Q 1798 -416 1574 -416 
Q 1306 -416 1146 -304 
Q 986 -192 909 -45 
Q 819 122 800 346 
Q 781 570 781 954 
L 781 2560 
L 250 2560 
Q 218 2560 195 2582 
Q 173 2605 173 2637 
L 173 3142 
Q 173 3174 195 3196 
Q 218 3219 250 3219 
L 781 3219 
L 781 4115 
Q 781 4147 806 4169 
Q 832 4192 864 4192 
L 1382 4192 
Q 1421 4192 1443 4169 
Q 1466 4147 1466 4115 
L 1466 3219 
L 2080 3219 
Q 2112 3219 2134 3196 
Q 2157 3174 2157 3142 
L 2157 2637 
Q 2157 2605 2134 2582 
Q 2112 2560 2080 2560 
L 1466 2560 
L 1466 909 
Q 1466 474 1485 358 
Q 1510 243 1606 217 
Q 1702 192 1824 205 
Q 1907 218 2009 240 
Q 2112 262 2189 294 
Q 2221 307 2233 297 
Q 2246 288 2259 237 
L 2310 -186 
Q 2317 -230 2278 -262 
z
" transform="scale(0.015625)"/>
     </defs>
     <use xlink:href="#NanumGothicBold-43"/>
     <use xlink:href="#NanumGothicBold-6f" transform="translate(67.199997 0)"/>
     <use xlink:href="#NanumGothicBold-6e" transform="translate(127.799988 0)"/>
     <use xlink:href="#NanumGothicBold-73" transform="translate(188.399979 0)"/>
     <use xlink:href="#NanumGothicBold-74" transform="translate(230.799973 0)"/>
     <use xlink:href="#NanumGothicBold-72" transform="translate(267.09996 0)"/>
     <use xlink:href="#NanumGothicBold-61" transform="translate(303.399948 0)"/>
     <use xlink:href="#NanumGothicBold-69" transform="translate(357.899933 0)"/>
     <use xlink:href="#NanumGothicBold-6e" transform="translate(382.09993 0)"/>
     <use xlink:href="#NanumGothicBold-74" transform="translate(442.699921 0)"/>
    </g>
   </g>
  </g>
 </g>
 <defs>
  <clipPath id="p47583b619e">
   <rect x="8.64" y="29.915531" width="273.24" height="510.048"/>
  </clipPath>
 </defs>
</svg>
