<?xml version="1.0" encoding="utf-8" standalone="no"?>
<!DOCTYPE svg PUBLIC "-//W3C//DTD SVG 1.1//EN"
  "http://www.w3.org/Graphics/SVG/1.1/DTD/svg11.dtd">
<svg xmlns:xlink="http://www.w3.org/1999/xlink" width="313.8075pt" height="225.769031pt" viewBox="0 0 313.8075 225.769031" xmlns="http://www.w3.org/2000/svg" version="1.1">
 <metadata>
  <rdf:RDF xmlns:dc="http://purl.org/dc/elements/1.1/" xmlns:cc="http://creativecommons.org/ns#" xmlns:rdf="http://www.w3.org/1999/02/22-rdf-syntax-ns#">
   <cc:Work>
    <dc:type rdf:resource="http://purl.org/dc/dcmitype/StillImage"/>
    <dc:date>2026-07-08T05:12:55.731910</dc:date>
    <dc:format>image/svg+xml</dc:format>
    <dc:creator>
     <cc:Agent>
      <dc:title>Matplotlib v3.10.8, https://matplotlib.org/</dc:title>
     </cc:Agent>
    </dc:creator>
   </cc:Work>
  </rdf:RDF>
 </metadata>
 <defs>
  <style type="text/css">*{stroke-linejoin: round; stroke-linecap: butt}</style>
 </defs>
 <g id="figure_1">
  <g id="patch_1">
   <path d="M 0 225.769031 
L 313.8075 225.769031 
L 313.8075 0 
L 0 0 
z
" style="fill: #ffffff"/>
  </g>
  <g id="axes_1">
   <g id="patch_2">
    <path d="M 55.791 169.978031 
L 211.752 169.978031 
L 211.752 68.422031 
L 55.791 68.422031 
L 55.791 169.978031 
z
" clip-path="url(#p2351426864)" style="fill: none; stroke: #111827; stroke-width: 2.2; stroke-linejoin: miter"/>
   </g>
   <g id="text_1">
    <!-- 2D 화면을 3D로 생각하면 -->
    <g style="fill: #111827" transform="translate(8.64 20.054063) scale(0.15 -0.15)">
     <defs>
      <path id="NanumGothicBold-32" d="M 486 -352 
Q 365 -352 365 -269 
L 365 96 
Q 365 147 393 198 
Q 422 250 461 301 
L 1434 1453 
Q 1965 2086 2221 2508 
Q 2477 2931 2477 3200 
Q 2477 3507 2288 3705 
Q 2099 3904 1824 3904 
Q 1562 3904 1315 3830 
Q 1069 3757 781 3590 
Q 730 3558 678 3561 
Q 627 3565 614 3622 
L 525 4109 
Q 512 4141 531 4173 
Q 550 4205 614 4243 
Q 858 4371 1171 4473 
Q 1485 4576 1786 4576 
Q 2093 4576 2352 4489 
Q 2611 4403 2800 4233 
Q 2989 4064 3097 3808 
Q 3206 3552 3206 3219 
Q 3206 2931 3078 2633 
Q 2950 2336 2758 2051 
Q 2566 1766 2348 1507 
Q 2131 1248 1952 1037 
Q 1811 864 1654 675 
Q 1498 486 1338 307 
L 3213 307 
Q 3302 307 3302 205 
L 3302 -243 
Q 3302 -352 3213 -352 
L 486 -352 
z
" transform="scale(0.015625)"/>
      <path id="NanumGothicBold-44" d="M 3411 230 
Q 3238 90 3020 -12 
Q 2803 -115 2553 -182 
Q 2304 -250 2035 -285 
Q 1766 -320 1504 -320 
L 723 -320 
Q 614 -320 592 -294 
Q 570 -269 570 -173 
L 570 4339 
Q 570 4461 592 4483 
Q 614 4506 736 4506 
L 1824 4506 
Q 3072 4506 3680 3802 
Q 3949 3494 4080 3088 
Q 4211 2682 4211 2106 
Q 4211 1510 4003 1024 
Q 3795 538 3411 230 
z
M 3130 3322 
Q 2720 3827 1811 3827 
L 1312 3827 
L 1312 365 
L 1600 365 
Q 1971 365 2297 457 
Q 2624 550 2874 755 
Q 3162 973 3318 1315 
Q 3475 1658 3475 2131 
Q 3475 2515 3392 2812 
Q 3309 3110 3130 3322 
z
" transform="scale(0.015625)"/>
      <path id="NanumGothicBold-20" transform="scale(0.015625)"/>
      <path id="NanumGothicBold-d654" d="M 2093 3347 
Q 2387 3347 2643 3267 
Q 2899 3187 3091 3046 
Q 3283 2906 3392 2704 
Q 3501 2502 3501 2266 
Q 3501 2061 3421 1885 
Q 3341 1709 3197 1574 
Q 3053 1440 2854 1347 
Q 2656 1254 2426 1216 
L 2426 678 
Q 3174 717 3904 832 
Q 3936 838 3974 828 
Q 4013 819 4019 768 
L 4058 371 
Q 4064 320 4038 294 
Q 4013 269 3981 262 
Q 3085 115 2125 70 
Q 1165 26 243 38 
Q 205 38 179 67 
Q 154 96 154 134 
L 154 550 
Q 154 646 243 646 
Q 973 627 1715 646 
L 1715 1222 
Q 1491 1267 1302 1360 
Q 1114 1453 976 1587 
Q 838 1722 761 1891 
Q 685 2061 685 2266 
Q 685 2502 797 2704 
Q 909 2906 1101 3046 
Q 1293 3187 1549 3267 
Q 1805 3347 2093 3347 
z
M 5971 2016 
Q 5971 1984 5942 1958 
Q 5914 1933 5882 1933 
L 5043 1933 
L 5043 -928 
Q 5043 -1011 4960 -1011 
L 4390 -1011 
Q 4307 -1011 4307 -928 
L 4307 4979 
Q 4307 5062 4390 5062 
L 4960 5062 
Q 5043 5062 5043 4979 
L 5043 2547 
L 5882 2547 
Q 5914 2547 5942 2521 
Q 5971 2496 5971 2464 
L 5971 2016 
z
M 3834 3661 
Q 3834 3622 3805 3593 
Q 3776 3565 3738 3565 
L 358 3565 
Q 326 3565 291 3597 
Q 256 3629 256 3667 
L 256 4026 
Q 256 4058 294 4090 
Q 333 4122 365 4122 
L 3738 4122 
Q 3776 4122 3805 4093 
Q 3834 4064 3834 4026 
L 3834 3661 
z
M 2093 2778 
Q 1786 2778 1581 2634 
Q 1376 2490 1376 2266 
Q 1376 2042 1577 1894 
Q 1779 1747 2093 1747 
Q 2406 1747 2608 1894 
Q 2810 2042 2810 2266 
Q 2810 2490 2608 2634 
Q 2406 2778 2093 2778 
z
M 3021 4493 
Q 3021 4448 2992 4416 
Q 2963 4384 2918 4384 
L 1203 4384 
Q 1178 4384 1142 4409 
Q 1107 4435 1107 4486 
L 1107 4858 
Q 1107 4902 1142 4928 
Q 1178 4954 1203 4954 
L 2918 4954 
Q 2957 4954 2989 4922 
Q 3021 4890 3021 4851 
L 3021 4493 
z
" transform="scale(0.015625)"/>
      <path id="NanumGothicBold-ba74" d="M 3456 2080 
Q 3456 1830 3357 1734 
Q 3258 1638 3014 1638 
L 1114 1638 
Q 845 1638 742 1734 
Q 640 1830 640 2080 
L 640 4288 
Q 640 4531 739 4624 
Q 838 4717 1082 4717 
L 3014 4717 
Q 3258 4717 3357 4630 
Q 3456 4544 3456 4288 
L 3456 4045 
L 4544 4045 
L 4544 4979 
Q 4544 5062 4627 5062 
L 5197 5062 
Q 5280 5062 5280 4979 
L 5280 768 
Q 5280 685 5197 685 
L 4627 685 
Q 4544 685 4544 768 
L 4544 2202 
L 3456 2202 
L 3456 2080 
z
M 5466 -826 
Q 5466 -864 5437 -883 
Q 5408 -902 5376 -902 
L 2048 -902 
Q 1760 -902 1657 -800 
Q 1555 -698 1555 -448 
L 1555 870 
Q 1555 902 1587 934 
Q 1619 966 1651 966 
L 2195 966 
Q 2240 966 2269 934 
Q 2298 902 2298 870 
L 2298 -186 
Q 2298 -250 2323 -269 
Q 2349 -288 2413 -288 
L 5376 -288 
Q 5408 -288 5437 -313 
Q 5466 -339 5466 -371 
L 5466 -826 
z
M 2733 4045 
Q 2733 4096 2717 4112 
Q 2701 4128 2650 4128 
L 1446 4128 
Q 1395 4128 1379 4115 
Q 1363 4102 1363 4051 
L 1363 2310 
Q 1363 2246 1379 2233 
Q 1395 2221 1446 2221 
L 2650 2221 
Q 2701 2221 2717 2233 
Q 2733 2246 2733 2310 
L 2733 4045 
z
M 4544 2790 
L 4544 3456 
L 3456 3456 
L 3456 2790 
L 4544 2790 
z
" transform="scale(0.015625)"/>
      <path id="NanumGothicBold-c744" d="M 3008 4570 
Q 2726 4570 2496 4528 
Q 2266 4486 2096 4409 
Q 1926 4333 1833 4230 
Q 1741 4128 1741 4013 
Q 1741 3898 1833 3802 
Q 1926 3706 2096 3632 
Q 2266 3558 2496 3520 
Q 2726 3482 3008 3482 
Q 3283 3482 3516 3520 
Q 3750 3558 3920 3632 
Q 4090 3706 4182 3805 
Q 4275 3904 4275 4019 
Q 4275 4134 4182 4233 
Q 4090 4333 3920 4409 
Q 3750 4486 3516 4528 
Q 3283 4570 3008 4570 
z
M 5018 4019 
Q 5018 3789 4886 3587 
Q 4755 3386 4499 3242 
Q 4243 3098 3868 3014 
Q 3494 2931 3008 2931 
Q 2522 2931 2147 3014 
Q 1773 3098 1517 3242 
Q 1261 3386 1129 3587 
Q 998 3789 998 4019 
Q 998 4250 1129 4454 
Q 1261 4659 1517 4806 
Q 1773 4954 2147 5040 
Q 2522 5126 3008 5126 
Q 3494 5126 3868 5040 
Q 4243 4954 4499 4806 
Q 4755 4659 4886 4454 
Q 5018 4250 5018 4019 
z
M 5114 -845 
Q 5114 -877 5085 -905 
Q 5056 -934 5030 -934 
L 1459 -934 
Q 1210 -934 1120 -844 
Q 1030 -755 1030 -550 
L 1030 198 
Q 1030 403 1116 492 
Q 1203 582 1453 582 
L 4166 582 
Q 4218 582 4230 592 
Q 4243 602 4243 666 
L 4243 858 
Q 4243 928 4230 944 
Q 4218 960 4160 960 
L 1107 960 
Q 1075 960 1046 982 
Q 1018 1005 1018 1037 
L 1018 1466 
Q 1018 1498 1046 1523 
Q 1075 1549 1107 1549 
L 4531 1549 
Q 4794 1549 4880 1469 
Q 4966 1389 4966 1171 
L 4966 422 
Q 4966 198 4880 121 
Q 4794 45 4531 45 
L 1830 45 
Q 1779 45 1766 29 
Q 1754 13 1754 -45 
L 1754 -262 
Q 1754 -320 1766 -329 
Q 1779 -339 1837 -339 
L 5024 -339 
Q 5056 -339 5085 -364 
Q 5114 -390 5114 -429 
L 5114 -845 
z
M 211 1958 
Q 122 1958 122 2048 
L 122 2458 
Q 122 2496 147 2525 
Q 173 2554 211 2554 
L 5786 2554 
Q 5818 2554 5850 2522 
Q 5882 2490 5882 2458 
L 5882 2048 
Q 5882 2016 5850 1987 
Q 5818 1958 5786 1958 
L 211 1958 
z
" transform="scale(0.015625)"/>
      <path id="NanumGothicBold-33" d="M 2854 -13 
Q 2611 -211 2268 -304 
Q 1926 -397 1555 -397 
Q 1280 -397 1001 -349 
Q 723 -301 486 -218 
Q 422 -198 396 -169 
Q 371 -141 378 -83 
L 435 397 
Q 442 454 474 473 
Q 506 493 595 461 
Q 762 410 928 362 
Q 1094 314 1267 301 
Q 1402 288 1542 281 
Q 1683 275 1820 291 
Q 1958 307 2083 348 
Q 2208 390 2317 467 
Q 2624 678 2624 1107 
Q 2624 1254 2557 1392 
Q 2490 1530 2349 1635 
Q 2208 1741 1987 1801 
Q 1766 1862 1459 1862 
L 1139 1862 
Q 1088 1862 1072 1878 
Q 1056 1894 1056 1946 
L 1056 2419 
Q 1056 2477 1072 2489 
Q 1088 2502 1139 2502 
L 1446 2502 
Q 1587 2502 1785 2544 
Q 1984 2586 2169 2682 
Q 2355 2778 2486 2925 
Q 2618 3072 2618 3283 
Q 2618 3450 2534 3571 
Q 2451 3693 2320 3769 
Q 2189 3846 2035 3881 
Q 1882 3917 1747 3917 
Q 1658 3917 1539 3897 
Q 1421 3878 1296 3849 
Q 1171 3821 1043 3782 
Q 915 3744 813 3706 
Q 736 3674 704 3690 
Q 672 3706 659 3763 
L 602 4230 
Q 589 4269 608 4301 
Q 627 4333 698 4358 
Q 979 4461 1248 4518 
Q 1517 4576 1786 4576 
Q 2074 4576 2352 4505 
Q 2630 4435 2844 4288 
Q 3059 4141 3193 3904 
Q 3328 3667 3328 3341 
Q 3328 3168 3267 2995 
Q 3206 2822 3097 2668 
Q 2989 2515 2835 2393 
Q 2682 2272 2502 2195 
Q 2925 2010 3142 1725 
Q 3360 1440 3360 1088 
Q 3360 749 3229 467 
Q 3098 186 2854 -13 
z
" transform="scale(0.015625)"/>
      <path id="NanumGothicBold-b85c" d="M 5882 122 
Q 5882 90 5850 58 
Q 5818 26 5786 26 
L 211 26 
Q 173 26 147 58 
Q 122 90 122 122 
L 122 525 
Q 122 563 147 595 
Q 173 627 211 627 
L 2637 627 
L 2637 1581 
L 1491 1581 
Q 1350 1581 1260 1600 
Q 1171 1619 1120 1670 
Q 1069 1722 1049 1802 
Q 1030 1882 1030 2010 
L 1030 3040 
Q 1030 3168 1049 3248 
Q 1069 3328 1120 3376 
Q 1171 3424 1260 3440 
Q 1350 3456 1491 3456 
L 4154 3456 
Q 4218 3456 4234 3472 
Q 4250 3488 4250 3558 
L 4250 4058 
Q 4250 4128 4234 4137 
Q 4218 4147 4154 4147 
L 1139 4147 
Q 1107 4147 1081 4176 
Q 1056 4205 1056 4237 
L 1056 4666 
Q 1056 4698 1081 4723 
Q 1107 4749 1139 4749 
L 4506 4749 
Q 4774 4749 4870 4662 
Q 4966 4576 4966 4326 
L 4966 3290 
Q 4966 3040 4870 2953 
Q 4774 2867 4506 2867 
L 1837 2867 
Q 1773 2867 1760 2854 
Q 1747 2842 1747 2778 
L 1747 2272 
Q 1747 2202 1763 2186 
Q 1779 2170 1843 2170 
L 5018 2170 
Q 5050 2170 5075 2147 
Q 5101 2125 5101 2093 
L 5101 1664 
Q 5101 1632 5072 1606 
Q 5043 1581 5018 1581 
L 3373 1581 
L 3373 627 
L 5786 627 
Q 5818 627 5850 592 
Q 5882 557 5882 525 
L 5882 122 
z
" transform="scale(0.015625)"/>
      <path id="NanumGothicBold-c0dd" d="M 5600 198 
Q 5600 -70 5430 -294 
Q 5261 -518 4973 -678 
Q 4685 -838 4307 -924 
Q 3930 -1011 3520 -1011 
Q 3078 -1011 2704 -924 
Q 2330 -838 2051 -681 
Q 1773 -525 1616 -301 
Q 1459 -77 1459 198 
Q 1459 467 1616 688 
Q 1773 909 2051 1069 
Q 2330 1229 2704 1315 
Q 3078 1402 3520 1402 
Q 3930 1402 4307 1315 
Q 4685 1229 4973 1072 
Q 5261 915 5430 694 
Q 5600 474 5600 198 
z
M 4826 4979 
Q 4826 5062 4915 5062 
L 5466 5062 
Q 5549 5062 5549 4979 
L 5549 1555 
Q 5549 1466 5466 1466 
L 4909 1466 
Q 4826 1466 4826 1555 
L 4826 2893 
L 4250 2893 
L 4250 1728 
Q 4250 1645 4166 1645 
L 3642 1645 
Q 3552 1645 3552 1728 
L 3552 4877 
Q 3552 4960 3642 4960 
L 4166 4960 
Q 4250 4960 4250 4877 
L 4250 3507 
L 4826 3507 
L 4826 4979 
z
M 698 1741 
Q 646 1709 588 1705 
Q 531 1702 486 1754 
L 250 2029 
Q 154 2131 275 2234 
Q 646 2496 889 2784 
Q 1133 3072 1277 3385 
Q 1421 3699 1478 4044 
Q 1536 4390 1536 4768 
Q 1536 4819 1565 4848 
Q 1594 4877 1626 4877 
L 2163 4851 
Q 2246 4851 2246 4749 
Q 2246 4230 2150 3782 
Q 2278 3411 2579 3065 
Q 2880 2720 3245 2477 
Q 3296 2445 3293 2409 
Q 3290 2374 3258 2330 
L 3014 2003 
Q 2938 1907 2829 1978 
Q 2560 2144 2291 2406 
Q 2022 2669 1850 2976 
Q 1651 2598 1366 2294 
Q 1082 1990 698 1741 
z
M 4845 179 
Q 4845 339 4726 457 
Q 4608 576 4419 656 
Q 4230 736 3993 777 
Q 3757 819 3520 819 
Q 3264 819 3030 777 
Q 2797 736 2614 656 
Q 2432 576 2323 457 
Q 2214 339 2214 179 
Q 2214 26 2323 -86 
Q 2432 -198 2614 -275 
Q 2797 -352 3033 -390 
Q 3270 -429 3520 -429 
Q 3757 -429 3993 -390 
Q 4230 -352 4419 -275 
Q 4608 -198 4726 -86 
Q 4845 26 4845 179 
z
" transform="scale(0.015625)"/>
      <path id="NanumGothicBold-ac01" d="M 5005 -909 
Q 5005 -941 4976 -969 
Q 4947 -998 4909 -998 
L 4365 -998 
Q 4326 -998 4294 -969 
Q 4262 -941 4262 -909 
L 4262 544 
Q 4262 614 4236 633 
Q 4211 653 4147 653 
L 1254 653 
Q 1222 653 1193 675 
Q 1165 698 1165 730 
L 1165 1184 
Q 1165 1229 1193 1248 
Q 1222 1267 1254 1267 
L 4576 1267 
Q 4819 1267 4912 1164 
Q 5005 1062 5005 819 
L 5005 -909 
z
M 5971 2995 
Q 5971 2963 5942 2937 
Q 5914 2912 5875 2912 
L 5011 2912 
L 5011 1670 
Q 5011 1587 4922 1587 
L 4358 1587 
Q 4326 1587 4297 1612 
Q 4269 1638 4269 1677 
L 4269 4979 
Q 4269 5011 4297 5036 
Q 4326 5062 4358 5062 
L 4922 5062 
Q 5011 5062 5011 4979 
L 5011 3526 
L 5875 3526 
Q 5914 3526 5942 3500 
Q 5971 3475 5971 3443 
L 5971 2995 
z
M 723 1523 
Q 570 1459 518 1581 
L 352 1914 
Q 326 1965 336 2016 
Q 346 2067 416 2099 
Q 1203 2438 1740 2918 
Q 2278 3398 2458 3981 
Q 2490 4083 2486 4124 
Q 2483 4166 2368 4166 
L 627 4166 
Q 589 4166 566 4195 
Q 544 4224 544 4262 
L 544 4685 
Q 544 4774 634 4774 
L 2803 4774 
Q 3085 4774 3200 4684 
Q 3315 4595 3315 4390 
Q 3315 4365 3305 4317 
Q 3296 4269 3286 4217 
Q 3277 4166 3267 4124 
Q 3258 4083 3251 4064 
Q 3008 3187 2371 2563 
Q 1734 1939 723 1523 
z
" transform="scale(0.015625)"/>
      <path id="NanumGothicBold-d558" d="M 3917 3251 
Q 3917 3213 3888 3181 
Q 3859 3149 3821 3149 
L 352 3149 
Q 314 3149 278 3184 
Q 243 3219 243 3258 
L 243 3648 
Q 243 3680 278 3712 
Q 314 3744 352 3744 
L 3821 3744 
Q 3859 3744 3888 3715 
Q 3917 3686 3917 3648 
L 3917 3251 
z
M 3098 4275 
Q 3098 4237 3069 4205 
Q 3040 4173 2995 4173 
L 1197 4173 
Q 1171 4173 1136 4198 
Q 1101 4224 1101 4269 
L 1101 4691 
Q 1101 4736 1136 4761 
Q 1171 4787 1197 4787 
L 2995 4787 
Q 3034 4787 3066 4755 
Q 3098 4723 3098 4685 
L 3098 4275 
z
M 2131 2253 
Q 1805 2253 1609 2051 
Q 1414 1850 1414 1530 
Q 1414 1216 1609 1011 
Q 1805 806 2131 806 
Q 2470 806 2662 1011 
Q 2854 1216 2854 1530 
Q 2854 1850 2662 2051 
Q 2470 2253 2131 2253 
z
M 2131 2835 
Q 2445 2835 2707 2742 
Q 2970 2650 3155 2480 
Q 3341 2310 3446 2073 
Q 3552 1837 3552 1549 
Q 3552 1261 3446 1017 
Q 3341 774 3152 598 
Q 2963 422 2700 320 
Q 2438 218 2125 218 
Q 1811 218 1552 317 
Q 1293 416 1107 595 
Q 922 774 819 1017 
Q 717 1261 717 1549 
Q 717 1830 819 2067 
Q 922 2304 1110 2473 
Q 1299 2643 1558 2739 
Q 1818 2835 2131 2835 
z
M 5971 2118 
Q 5971 2086 5942 2060 
Q 5914 2035 5875 2035 
L 5011 2035 
L 5011 -928 
Q 5011 -1011 4928 -1011 
L 4358 -1011 
Q 4275 -1011 4275 -928 
L 4275 4979 
Q 4275 5062 4358 5062 
L 4928 5062 
Q 5011 5062 5011 4979 
L 5011 2650 
L 5875 2650 
Q 5914 2650 5942 2627 
Q 5971 2605 5971 2573 
L 5971 2118 
z
" transform="scale(0.015625)"/>
     </defs>
     <use xlink:href="#NanumGothicBold-32"/>
     <use xlink:href="#NanumGothicBold-44" transform="translate(60.599991 0)"/>
     <use xlink:href="#NanumGothicBold-20" transform="translate(133.299973 0)"/>
     <use xlink:href="#NanumGothicBold-d654" transform="translate(161.299957 0)"/>
     <use xlink:href="#NanumGothicBold-ba74" transform="translate(255.299942 0)"/>
     <use xlink:href="#NanumGothicBold-c744" transform="translate(349.299927 0)"/>
     <use xlink:href="#NanumGothicBold-20" transform="translate(443.299911 0)"/>
     <use xlink:href="#NanumGothicBold-33" transform="translate(471.299896 0)"/>
     <use xlink:href="#NanumGothicBold-44" transform="translate(531.899887 0)"/>
     <use xlink:href="#NanumGothicBold-b85c" transform="translate(604.599869 0)"/>
     <use xlink:href="#NanumGothicBold-20" transform="translate(698.599854 0)"/>
     <use xlink:href="#NanumGothicBold-c0dd" transform="translate(726.599838 0)"/>
     <use xlink:href="#NanumGothicBold-ac01" transform="translate(820.599823 0)"/>
     <use xlink:href="#NanumGothicBold-d558" transform="translate(914.599808 0)"/>
     <use xlink:href="#NanumGothicBold-ba74" transform="translate(1008.599792 0)"/>
    </g>
   </g>
   <g id="patch_3">
    <path d="M 191.794424 118.345304 
Q 224.445548 102.878982 254.469607 88.65706 
" clip-path="url(#p2351426864)" style="fill: none; stroke: #7c3aed; stroke-width: 2.6; stroke-linecap: round"/>
    <path d="M 248.210033 88.523877 
L 254.469607 88.65706 
L 250.607317 93.584809 
z
" clip-path="url(#p2351426864)" style="fill: #7c3aed; stroke: #7c3aed; stroke-width: 2.6; stroke-linecap: round"/>
   </g>
   <g id="text_2">
    <!-- 화면 -->
    <g style="fill: #111827" transform="translate(123.4315 122.258547) scale(0.11 -0.11)">
     <defs>
      <path id="NanumGothic-d654" d="M 3514 2310 
Q 3514 2093 3427 1913 
Q 3341 1734 3187 1600 
Q 3034 1466 2819 1379 
Q 2605 1293 2349 1267 
L 2349 602 
Q 2566 614 2803 636 
Q 3040 659 3267 688 
Q 3494 717 3705 749 
Q 3917 781 4090 813 
Q 4192 832 4198 768 
L 4237 525 
Q 4250 448 4154 435 
Q 3725 365 3213 307 
Q 2701 250 2182 218 
Q 1997 205 1747 198 
Q 1498 192 1238 189 
Q 979 186 732 186 
Q 486 186 307 192 
Q 269 192 240 217 
Q 211 243 211 275 
L 211 493 
Q 211 531 240 553 
Q 269 576 307 576 
Q 448 570 643 566 
Q 838 563 1052 566 
Q 1267 570 1488 573 
Q 1709 576 1907 582 
L 1907 1261 
Q 1645 1286 1430 1372 
Q 1216 1459 1062 1596 
Q 909 1734 822 1916 
Q 736 2099 736 2310 
Q 736 2547 841 2742 
Q 947 2938 1132 3075 
Q 1318 3213 1571 3286 
Q 1824 3360 2125 3360 
Q 2419 3360 2675 3283 
Q 2931 3206 3116 3068 
Q 3302 2931 3408 2739 
Q 3514 2547 3514 2310 
z
M 4928 -806 
Q 4928 -896 4838 -896 
L 4576 -896 
Q 4486 -896 4486 -806 
L 4486 4915 
Q 4486 5005 4576 5005 
L 4838 5005 
Q 4928 5005 4928 4915 
L 4928 2413 
L 5811 2413 
Q 5850 2413 5878 2390 
Q 5907 2368 5907 2330 
L 5907 2112 
Q 5907 2080 5878 2054 
Q 5850 2029 5811 2029 
L 4928 2029 
L 4928 -806 
z
M 3078 2310 
Q 3078 2637 2809 2809 
Q 2541 2982 2125 2982 
Q 1920 2982 1744 2937 
Q 1568 2893 1440 2809 
Q 1312 2726 1238 2598 
Q 1165 2470 1165 2310 
Q 1165 2150 1238 2025 
Q 1312 1901 1440 1814 
Q 1568 1728 1744 1680 
Q 1920 1632 2125 1632 
Q 2541 1632 2809 1811 
Q 3078 1990 3078 2310 
z
M 3923 3776 
Q 3923 3693 3827 3693 
L 422 3693 
Q 390 3693 361 3718 
Q 333 3744 333 3782 
L 333 3994 
Q 333 4032 361 4057 
Q 390 4083 422 4083 
L 3827 4083 
Q 3923 4083 3923 4000 
L 3923 3776 
z
M 3021 4582 
Q 3021 4493 2925 4493 
L 1235 4493 
Q 1203 4493 1174 4515 
Q 1146 4538 1146 4576 
L 1146 4794 
Q 1146 4832 1171 4857 
Q 1197 4883 1229 4883 
L 2925 4883 
Q 3021 4883 3021 4794 
L 3021 4582 
z
" transform="scale(0.015625)"/>
      <path id="NanumGothic-ba74" d="M 5152 877 
Q 5152 787 5062 787 
L 4800 787 
Q 4710 787 4710 877 
L 4710 2381 
L 3443 2381 
L 3443 2227 
Q 3443 1958 3340 1865 
Q 3238 1773 2957 1773 
L 1197 1773 
Q 1043 1773 950 1792 
Q 858 1811 803 1865 
Q 749 1920 729 2006 
Q 710 2093 710 2227 
L 710 4205 
Q 710 4474 812 4566 
Q 915 4659 1197 4659 
L 2957 4659 
Q 3110 4659 3203 4640 
Q 3296 4621 3350 4569 
Q 3405 4518 3424 4428 
Q 3443 4339 3443 4205 
L 3443 3974 
L 4710 3974 
L 4710 4915 
Q 4710 5005 4800 5005 
L 5062 5005 
Q 5152 5005 5152 4915 
L 5152 877 
z
M 1306 4275 
Q 1216 4275 1184 4240 
Q 1152 4205 1152 4109 
L 1152 2323 
Q 1152 2227 1184 2192 
Q 1216 2157 1306 2157 
L 2848 2157 
Q 2938 2157 2970 2192 
Q 3002 2227 3002 2323 
L 3002 4109 
Q 3002 4205 2970 4240 
Q 2938 4275 2848 4275 
L 1306 4275 
z
M 5350 -704 
Q 5350 -742 5318 -761 
Q 5286 -781 5254 -781 
L 2048 -781 
Q 1747 -781 1654 -669 
Q 1562 -557 1562 -294 
L 1562 1005 
Q 1562 1094 1651 1094 
L 1914 1094 
Q 2003 1094 2003 1005 
L 2003 -262 
Q 2003 -352 2032 -374 
Q 2061 -397 2150 -397 
L 5254 -397 
Q 5286 -397 5318 -419 
Q 5350 -442 5350 -474 
L 5350 -704 
z
M 3443 2758 
L 4710 2758 
L 4710 3597 
L 3443 3597 
L 3443 2758 
z
" transform="scale(0.015625)"/>
     </defs>
     <use xlink:href="#NanumGothic-d654"/>
     <use xlink:href="#NanumGothic-ba74" transform="translate(93.999985 0)"/>
    </g>
   </g>
   <g id="text_3">
    <!-- z축 -->
    <g style="fill: #7c3aed" transform="translate(229.887 76.921047) scale(0.11 -0.11)">
     <defs>
      <path id="NanumGothic-7a" d="M 454 -275 
Q 320 -275 297 -252 
Q 275 -230 275 -96 
L 275 6 
Q 275 90 326 147 
L 2387 2816 
L 448 2816 
Q 358 2816 358 2906 
L 358 3098 
Q 358 3187 448 3187 
L 2707 3187 
Q 2842 3187 2864 3164 
Q 2886 3142 2886 3008 
L 2886 2893 
Q 2886 2810 2842 2758 
L 774 83 
L 2797 83 
Q 2886 83 2886 -6 
L 2886 -186 
Q 2886 -275 2797 -275 
L 454 -275 
z
" transform="scale(0.015625)"/>
      <path id="NanumGothic-cd95" d="M 947 806 
Q 947 845 979 864 
Q 1011 883 1043 883 
L 2778 883 
L 2778 1587 
L 288 1587 
Q 250 1587 221 1612 
Q 192 1638 192 1670 
L 192 1888 
Q 192 1926 221 1948 
Q 250 1971 288 1971 
L 5728 1971 
Q 5760 1971 5792 1948 
Q 5824 1926 5824 1888 
L 5824 1670 
Q 5824 1638 5792 1612 
Q 5760 1587 5728 1587 
L 3219 1587 
L 3219 883 
L 4442 883 
Q 4742 883 4835 771 
Q 4928 659 4928 397 
L 4928 -870 
Q 4928 -960 4838 -960 
L 4576 -960 
Q 4486 -960 4486 -870 
L 4486 365 
Q 4486 454 4457 476 
Q 4429 499 4339 499 
L 1043 499 
Q 1011 499 979 521 
Q 947 544 947 576 
L 947 806 
z
M 4403 3610 
Q 4237 3482 4029 3366 
Q 3821 3251 3578 3142 
Q 3936 3040 4352 2953 
Q 4768 2867 5146 2816 
Q 5197 2803 5206 2784 
Q 5216 2765 5203 2720 
L 5146 2502 
Q 5126 2432 5043 2451 
Q 4838 2483 4585 2531 
Q 4333 2579 4064 2643 
Q 3795 2707 3526 2774 
Q 3258 2842 3014 2912 
Q 2573 2746 2064 2614 
Q 1555 2483 998 2387 
Q 902 2368 877 2432 
L 800 2650 
Q 787 2682 806 2710 
Q 826 2739 864 2752 
Q 1331 2842 1734 2944 
Q 2138 3046 2499 3161 
Q 2861 3277 3187 3408 
Q 3514 3539 3834 3693 
Q 3942 3744 3932 3789 
Q 3923 3834 3821 3834 
L 1274 3834 
Q 1190 3834 1190 3917 
L 1190 4141 
Q 1190 4218 1274 4218 
L 4038 4218 
Q 4538 4218 4646 4042 
Q 4755 3866 4403 3610 
z
M 3814 5005 
Q 3910 5005 3910 4915 
L 3910 4710 
Q 3910 4614 3814 4614 
L 2131 4614 
Q 2035 4614 2035 4710 
L 2035 4915 
Q 2035 5005 2131 5005 
L 3814 5005 
z
" transform="scale(0.015625)"/>
     </defs>
     <use xlink:href="#NanumGothic-7a"/>
     <use xlink:href="#NanumGothic-cd95" transform="translate(48.399994 0)"/>
    </g>
   </g>
   <g id="text_4">
    <!-- 화면 밖/안쪽 방향 -->
    <g style="fill: #6b7280" transform="translate(226.26 103.984523) scale(0.105 -0.105)">
     <defs>
      <path id="NanumGothic-20" transform="scale(0.015625)"/>
      <path id="NanumGothic-bc16" d="M 1158 2022 
Q 1005 2022 912 2041 
Q 819 2061 768 2115 
Q 717 2170 697 2256 
Q 678 2342 678 2477 
L 678 4698 
Q 678 4730 704 4752 
Q 730 4774 762 4774 
L 1037 4774 
Q 1069 4774 1091 4748 
Q 1114 4723 1114 4698 
L 1114 3744 
L 2976 3744 
L 2976 4691 
Q 2976 4723 2998 4748 
Q 3021 4774 3053 4774 
L 3328 4774 
Q 3360 4774 3385 4752 
Q 3411 4730 3411 4698 
L 3411 2432 
Q 3411 2189 3308 2105 
Q 3206 2022 2925 2022 
L 1158 2022 
z
M 4928 1734 
Q 4928 1645 4838 1645 
L 4576 1645 
Q 4486 1645 4486 1734 
L 4486 4915 
Q 4486 5005 4576 5005 
L 4838 5005 
Q 4928 5005 4928 4915 
L 4928 3462 
L 5811 3462 
Q 5850 3462 5878 3440 
Q 5907 3418 5907 3379 
L 5907 3162 
Q 5907 3130 5878 3104 
Q 5850 3078 5811 3078 
L 4928 3078 
L 4928 1734 
z
M 1114 3366 
L 1114 2554 
Q 1114 2458 1146 2429 
Q 1178 2400 1267 2400 
L 2822 2400 
Q 2912 2400 2944 2429 
Q 2976 2458 2976 2554 
L 2976 3366 
L 1114 3366 
z
M 1133 1178 
Q 1133 1216 1165 1235 
Q 1197 1254 1229 1254 
L 2566 1254 
Q 2867 1254 2960 1142 
Q 3053 1030 3053 768 
L 3053 -832 
Q 3053 -922 2963 -922 
L 2733 -922 
Q 2643 -922 2643 -832 
L 2643 717 
Q 2643 806 2614 828 
Q 2586 851 2496 851 
L 1229 851 
Q 1197 851 1165 873 
Q 1133 896 1133 928 
L 1133 1178 
z
M 3162 1178 
Q 3162 1216 3194 1235 
Q 3226 1254 3258 1254 
L 4448 1254 
Q 4749 1254 4841 1142 
Q 4934 1030 4934 768 
L 4934 -832 
Q 4934 -922 4845 -922 
L 4614 -922 
Q 4525 -922 4525 -832 
L 4525 717 
Q 4525 806 4496 828 
Q 4467 851 4378 851 
L 3258 851 
Q 3226 851 3194 873 
Q 3162 896 3162 928 
L 3162 1178 
z
" transform="scale(0.015625)"/>
      <path id="NanumGothic-2f" d="M 2304 4595 
Q 2381 4595 2390 4582 
Q 2400 4570 2374 4493 
L 589 -666 
Q 563 -730 550 -739 
Q 538 -749 467 -749 
L 198 -749 
Q 122 -749 112 -736 
Q 102 -723 128 -653 
L 1914 4499 
Q 1939 4570 1955 4582 
Q 1971 4595 2054 4595 
L 2304 4595 
z
" transform="scale(0.015625)"/>
      <path id="NanumGothic-c548" d="M 3552 3232 
Q 3552 2899 3437 2620 
Q 3322 2342 3117 2144 
Q 2912 1946 2633 1834 
Q 2355 1722 2029 1722 
Q 1715 1722 1440 1830 
Q 1165 1939 963 2140 
Q 762 2342 646 2617 
Q 531 2893 531 3232 
Q 531 3584 646 3865 
Q 762 4147 963 4345 
Q 1165 4544 1440 4646 
Q 1715 4749 2029 4749 
Q 2323 4749 2598 4646 
Q 2874 4544 3085 4349 
Q 3296 4154 3424 3872 
Q 3552 3590 3552 3232 
z
M 3104 3238 
Q 3104 3507 3017 3715 
Q 2931 3923 2784 4060 
Q 2637 4198 2441 4268 
Q 2246 4339 2029 4339 
Q 1805 4339 1616 4268 
Q 1427 4198 1283 4060 
Q 1139 3923 1059 3715 
Q 979 3507 979 3238 
Q 979 2982 1056 2777 
Q 1133 2573 1273 2429 
Q 1414 2285 1606 2205 
Q 1798 2125 2029 2125 
Q 2246 2125 2441 2205 
Q 2637 2285 2784 2429 
Q 2931 2573 3017 2777 
Q 3104 2982 3104 3238 
z
M 4928 832 
Q 4928 742 4838 742 
L 4576 742 
Q 4486 742 4486 832 
L 4486 4915 
Q 4486 5005 4576 5005 
L 4838 5005 
Q 4928 5005 4928 4915 
L 4928 3091 
L 5811 3091 
Q 5850 3091 5878 3068 
Q 5907 3046 5907 3008 
L 5907 2790 
Q 5907 2758 5878 2732 
Q 5850 2707 5811 2707 
L 4928 2707 
L 4928 832 
z
M 5216 -704 
Q 5216 -742 5184 -761 
Q 5152 -781 5120 -781 
L 1862 -781 
Q 1562 -781 1469 -665 
Q 1376 -550 1376 -288 
L 1376 960 
Q 1376 1050 1466 1050 
L 1728 1050 
Q 1818 1050 1818 960 
L 1818 -262 
Q 1818 -352 1846 -374 
Q 1875 -397 1965 -397 
L 5120 -397 
Q 5152 -397 5184 -419 
Q 5216 -442 5216 -474 
L 5216 -704 
z
" transform="scale(0.015625)"/>
      <path id="NanumGothic-cabd" d="M 2675 4243 
Q 2618 4166 2557 4089 
Q 2496 4013 2426 3942 
Q 2605 3763 2822 3622 
Q 3040 3482 3264 3373 
Q 3622 3590 3859 3820 
Q 4096 4051 4269 4339 
Q 4301 4390 4288 4432 
Q 4275 4474 4205 4474 
L 3104 4474 
Q 3027 4474 3027 4563 
L 3027 4768 
Q 3027 4845 3117 4845 
L 4365 4845 
Q 4723 4845 4803 4704 
Q 4883 4563 4742 4320 
Q 4659 4179 4572 4051 
Q 4486 3923 4384 3808 
Q 4493 3725 4637 3645 
Q 4781 3565 4925 3491 
Q 5069 3418 5206 3363 
Q 5344 3309 5446 3277 
Q 5491 3264 5500 3225 
Q 5510 3187 5485 3142 
L 5376 2957 
Q 5338 2886 5229 2938 
Q 5114 2982 4970 3049 
Q 4826 3117 4678 3200 
Q 4531 3283 4387 3369 
Q 4243 3456 4128 3546 
Q 3904 3341 3613 3158 
Q 3322 2976 2918 2778 
Q 2835 2733 2778 2810 
L 2675 2950 
Q 2643 2989 2659 3027 
Q 2675 3066 2714 3085 
Q 2758 3104 2796 3123 
Q 2835 3142 2874 3162 
Q 2688 3270 2502 3411 
Q 2317 3552 2163 3699 
Q 1581 3219 749 2906 
Q 698 2886 669 2883 
Q 640 2880 614 2925 
L 518 3110 
Q 493 3155 509 3184 
Q 525 3213 557 3226 
Q 806 3309 1059 3440 
Q 1312 3571 1536 3721 
Q 1760 3872 1939 4032 
Q 2118 4192 2214 4346 
Q 2246 4390 2236 4432 
Q 2227 4474 2157 4474 
L 1005 4474 
Q 922 4474 922 4563 
L 922 4768 
Q 922 4806 950 4825 
Q 979 4845 1018 4845 
L 2330 4845 
Q 3104 4845 2675 4243 
z
M 5824 1728 
Q 5824 1696 5792 1670 
Q 5760 1645 5728 1645 
L 288 1645 
Q 250 1645 221 1670 
Q 192 1696 192 1728 
L 192 1952 
Q 192 1990 221 2009 
Q 250 2029 288 2029 
L 2842 2029 
L 2842 2566 
Q 2842 2656 2931 2656 
L 3194 2656 
Q 3283 2656 3283 2566 
L 3283 2029 
L 5728 2029 
Q 5760 2029 5792 2006 
Q 5824 1984 5824 1946 
L 5824 1728 
z
M 4928 -870 
Q 4928 -960 4838 -960 
L 4576 -960 
Q 4486 -960 4486 -870 
L 4486 467 
Q 4486 557 4457 579 
Q 4429 602 4339 602 
L 1043 602 
Q 1011 602 979 624 
Q 947 646 947 678 
L 947 909 
Q 947 947 979 966 
Q 1011 986 1043 986 
L 4442 986 
Q 4742 986 4835 874 
Q 4928 762 4928 499 
L 4928 -870 
z
" transform="scale(0.015625)"/>
      <path id="NanumGothic-bc29" d="M 5005 250 
Q 5005 -26 4857 -243 
Q 4710 -461 4457 -611 
Q 4205 -762 3869 -842 
Q 3533 -922 3149 -922 
Q 2733 -922 2393 -842 
Q 2054 -762 1811 -611 
Q 1568 -461 1433 -243 
Q 1299 -26 1299 250 
Q 1299 518 1433 732 
Q 1568 947 1811 1097 
Q 2054 1248 2393 1328 
Q 2733 1408 3149 1408 
Q 3533 1408 3869 1328 
Q 4205 1248 4457 1101 
Q 4710 954 4857 739 
Q 5005 525 5005 250 
z
M 1158 1971 
Q 1005 1971 912 1990 
Q 819 2010 768 2064 
Q 717 2118 697 2204 
Q 678 2291 678 2426 
L 678 4730 
Q 678 4762 704 4784 
Q 730 4806 762 4806 
L 1037 4806 
Q 1069 4806 1091 4780 
Q 1114 4755 1114 4730 
L 1114 3731 
L 2982 3731 
L 2982 4723 
Q 2982 4755 3004 4780 
Q 3027 4806 3059 4806 
L 3334 4806 
Q 3366 4806 3392 4784 
Q 3418 4762 3418 4730 
L 3418 2381 
Q 3418 2138 3315 2054 
Q 3213 1971 2931 1971 
L 1158 1971 
z
M 4550 230 
Q 4550 422 4435 569 
Q 4320 717 4125 816 
Q 3930 915 3674 969 
Q 3418 1024 3142 1024 
Q 2835 1024 2579 969 
Q 2323 915 2140 816 
Q 1958 717 1856 569 
Q 1754 422 1754 230 
Q 1754 45 1856 -99 
Q 1958 -243 2140 -339 
Q 2323 -435 2579 -486 
Q 2835 -538 3142 -538 
Q 3418 -538 3674 -486 
Q 3930 -435 4125 -339 
Q 4320 -243 4435 -99 
Q 4550 45 4550 230 
z
M 4928 1530 
Q 4928 1440 4838 1440 
L 4576 1440 
Q 4486 1440 4486 1530 
L 4486 4915 
Q 4486 5005 4576 5005 
L 4838 5005 
Q 4928 5005 4928 4915 
L 4928 3373 
L 5811 3373 
Q 5850 3373 5878 3347 
Q 5907 3322 5907 3283 
L 5907 3072 
Q 5907 3040 5878 3014 
Q 5850 2989 5811 2989 
L 4928 2989 
L 4928 1530 
z
M 1114 3354 
L 1114 2502 
Q 1114 2406 1146 2377 
Q 1178 2349 1267 2349 
L 2829 2349 
Q 2918 2349 2950 2377 
Q 2982 2406 2982 2502 
L 2982 3354 
L 1114 3354 
z
" transform="scale(0.015625)"/>
      <path id="NanumGothic-d5a5" d="M 5005 64 
Q 5005 -160 4857 -339 
Q 4710 -518 4457 -646 
Q 4205 -774 3869 -844 
Q 3533 -915 3149 -915 
Q 2733 -915 2393 -844 
Q 2054 -774 1811 -646 
Q 1568 -518 1433 -339 
Q 1299 -160 1299 64 
Q 1299 282 1433 458 
Q 1568 634 1811 762 
Q 2054 890 2393 960 
Q 2733 1030 3149 1030 
Q 3533 1030 3869 963 
Q 4205 896 4457 768 
Q 4710 640 4857 461 
Q 5005 282 5005 64 
z
M 3533 2413 
Q 3533 2182 3427 1993 
Q 3322 1805 3139 1664 
Q 2957 1523 2704 1446 
Q 2451 1370 2157 1370 
Q 1856 1370 1606 1446 
Q 1357 1523 1171 1664 
Q 986 1805 883 1997 
Q 781 2189 781 2413 
Q 781 2643 883 2835 
Q 986 3027 1171 3161 
Q 1357 3296 1606 3373 
Q 1856 3450 2157 3450 
Q 2451 3450 2704 3373 
Q 2957 3296 3139 3158 
Q 3322 3021 3427 2829 
Q 3533 2637 3533 2413 
z
M 4550 45 
Q 4550 192 4435 307 
Q 4320 422 4125 502 
Q 3930 582 3674 624 
Q 3418 666 3142 666 
Q 2835 666 2579 624 
Q 2323 582 2140 502 
Q 1958 422 1856 307 
Q 1754 192 1754 45 
Q 1754 -96 1856 -208 
Q 1958 -320 2140 -397 
Q 2323 -474 2579 -512 
Q 2835 -550 3142 -550 
Q 3418 -550 3674 -512 
Q 3930 -474 4125 -397 
Q 4320 -320 4435 -208 
Q 4550 -96 4550 45 
z
M 4928 1254 
Q 4928 1165 4838 1165 
L 4576 1165 
Q 4486 1165 4486 1254 
L 4486 4915 
Q 4486 5005 4576 5005 
L 4838 5005 
Q 4928 5005 4928 4915 
L 4928 3776 
L 5811 3776 
Q 5850 3776 5878 3753 
Q 5907 3731 5907 3693 
L 5907 3482 
Q 5907 3450 5878 3424 
Q 5850 3398 5811 3398 
L 4928 3398 
L 4928 2630 
L 5811 2630 
Q 5850 2630 5878 2608 
Q 5907 2586 5907 2547 
L 5907 2336 
Q 5907 2304 5878 2278 
Q 5850 2253 5811 2253 
L 4928 2253 
L 4928 1254 
z
M 3104 2413 
Q 3104 2566 3033 2691 
Q 2963 2816 2835 2902 
Q 2707 2989 2534 3037 
Q 2362 3085 2157 3085 
Q 1952 3085 1779 3037 
Q 1606 2989 1478 2902 
Q 1350 2816 1276 2691 
Q 1203 2566 1203 2413 
Q 1203 2259 1276 2134 
Q 1350 2010 1478 1920 
Q 1606 1830 1779 1782 
Q 1952 1734 2157 1734 
Q 2362 1734 2534 1782 
Q 2707 1830 2835 1920 
Q 2963 2010 3033 2134 
Q 3104 2259 3104 2413 
z
M 4026 3827 
Q 4026 3744 3930 3744 
L 397 3744 
Q 365 3744 336 3769 
Q 307 3795 307 3834 
L 307 4038 
Q 307 4077 336 4102 
Q 365 4128 397 4128 
L 3930 4128 
Q 4026 4128 4026 4045 
L 4026 3827 
z
M 3091 4608 
Q 3091 4518 2995 4518 
L 1242 4518 
Q 1210 4518 1181 4540 
Q 1152 4563 1152 4602 
L 1152 4819 
Q 1152 4858 1177 4883 
Q 1203 4909 1235 4909 
L 2995 4909 
Q 3091 4909 3091 4819 
L 3091 4608 
z
" transform="scale(0.015625)"/>
     </defs>
     <use xlink:href="#NanumGothic-d654"/>
     <use xlink:href="#NanumGothic-ba74" transform="translate(93.999985 0)"/>
     <use xlink:href="#NanumGothic-20" transform="translate(187.999969 0)"/>
     <use xlink:href="#NanumGothic-bc16" transform="translate(215.999954 0)"/>
     <use xlink:href="#NanumGothic-2f" transform="translate(309.999939 0)"/>
     <use xlink:href="#NanumGothic-c548" transform="translate(347.499924 0)"/>
     <use xlink:href="#NanumGothic-cabd" transform="translate(441.499908 0)"/>
     <use xlink:href="#NanumGothic-20" transform="translate(535.499893 0)"/>
     <use xlink:href="#NanumGothic-bc29" transform="translate(563.499878 0)"/>
     <use xlink:href="#NanumGothic-d5a5" transform="translate(657.499863 0)"/>
    </g>
   </g>
  </g>
 </g>
 <defs>
  <clipPath id="p2351426864">
   <rect x="8.64" y="28.525031" width="290.16" height="188.604"/>
  </clipPath>
 </defs>
</svg>
