<?xml version="1.0" encoding="utf-8" standalone="no"?>
<!DOCTYPE svg PUBLIC "-//W3C//DTD SVG 1.1//EN"
  "http://www.w3.org/Graphics/SVG/1.1/DTD/svg11.dtd">
<svg xmlns:xlink="http://www.w3.org/1999/xlink" width="279.36pt" height="125.7264pt" viewBox="0 0 279.36 125.7264" xmlns="http://www.w3.org/2000/svg" version="1.1">
 <metadata>
  <rdf:RDF xmlns:dc="http://purl.org/dc/elements/1.1/" xmlns:cc="http://creativecommons.org/ns#" xmlns:rdf="http://www.w3.org/1999/02/22-rdf-syntax-ns#">
   <cc:Work>
    <dc:type rdf:resource="http://purl.org/dc/dcmitype/StillImage"/>
    <dc:date>2026-07-08T05:12:55.907856</dc:date>
    <dc:format>image/svg+xml</dc:format>
    <dc:creator>
     <cc:Agent>
      <dc:title>Matplotlib v3.10.8, https://matplotlib.org/</dc:title>
     </cc:Agent>
    </dc:creator>
   </cc:Work>
  </rdf:RDF>
 </metadata>
 <defs>
  <style type="text/css">*{stroke-linejoin: round; stroke-linecap: butt}</style>
 </defs>
 <g id="figure_1">
  <g id="patch_1">
   <path d="M 0 125.7264 
L 279.36 125.7264 
L 279.36 0 
L 0 0 
z
" style="fill: #ffffff"/>
  </g>
  <g id="axes_1">
   <g id="patch_2">
    <path d="M 5.76 119.9664 
L 273.6 119.9664 
L 273.6 5.76 
L 5.76 5.76 
z
" clip-path="url(#p28b537a67b)" style="fill: #ffffff; stroke: #e5e7eb; stroke-linejoin: miter"/>
   </g>
   <g id="text_1">
    <!-- 오른쪽: 길이 1 -->
    <g style="fill: #111827" transform="translate(16.4736 27.561799) scale(0.11 -0.11)">
     <defs>
      <path id="NanumGothicCoding-c624" d="M 5920 499 
Q 5952 499 5984 476 
Q 6016 454 6016 416 
L 6016 198 
Q 6016 166 5984 140 
Q 5952 115 5920 115 
L 480 115 
Q 442 115 413 140 
Q 384 166 384 198 
L 384 416 
Q 384 454 413 476 
Q 442 499 480 499 
L 2963 499 
L 2963 1830 
Q 2650 1856 2326 1945 
Q 2003 2035 1737 2208 
Q 1472 2381 1305 2637 
Q 1139 2893 1139 3251 
Q 1139 3642 1334 3914 
Q 1530 4186 1834 4352 
Q 2138 4518 2499 4595 
Q 2861 4672 3187 4672 
Q 3520 4672 3885 4595 
Q 4250 4518 4547 4352 
Q 4845 4186 5040 3914 
Q 5235 3642 5235 3251 
Q 5235 2893 5068 2633 
Q 4902 2374 4640 2204 
Q 4378 2035 4051 1942 
Q 3725 1850 3405 1830 
L 3405 499 
L 5920 499 
z
M 3187 4269 
Q 2963 4269 2691 4224 
Q 2419 4179 2179 4064 
Q 1939 3949 1776 3750 
Q 1613 3552 1613 3245 
Q 1613 2938 1776 2739 
Q 1939 2541 2179 2429 
Q 2419 2317 2691 2272 
Q 2963 2227 3187 2227 
Q 3405 2227 3677 2272 
Q 3949 2317 4189 2429 
Q 4429 2541 4595 2739 
Q 4762 2938 4762 3245 
Q 4762 3552 4595 3750 
Q 4429 3949 4189 4064 
Q 3949 4179 3677 4224 
Q 3405 4269 3187 4269 
z
" transform="scale(0.015625)"/>
      <path id="NanumGothicCoding-b978" d="M 5920 1734 
Q 5952 1734 5984 1712 
Q 6016 1690 6016 1651 
L 6016 1434 
Q 6016 1402 5984 1376 
Q 5952 1350 5920 1350 
L 480 1350 
Q 442 1350 413 1376 
Q 384 1402 384 1434 
L 384 1651 
Q 384 1690 413 1712 
Q 442 1734 480 1734 
L 5920 1734 
z
M 5274 -704 
Q 5274 -742 5242 -761 
Q 5210 -781 5178 -781 
L 1754 -781 
Q 1453 -781 1360 -656 
Q 1267 -531 1267 -269 
L 1267 749 
Q 1267 838 1357 838 
L 1619 838 
Q 1709 838 1709 749 
L 1709 -262 
Q 1709 -352 1737 -374 
Q 1766 -397 1856 -397 
L 5178 -397 
Q 5210 -397 5242 -419 
Q 5274 -442 5274 -474 
L 5274 -704 
z
M 5235 2406 
Q 5235 2374 5206 2352 
Q 5178 2330 5152 2330 
L 1779 2330 
Q 1478 2330 1385 2442 
Q 1293 2554 1293 2822 
L 1293 3328 
Q 1293 3603 1405 3692 
Q 1517 3782 1805 3782 
L 4525 3782 
Q 4614 3782 4636 3808 
Q 4659 3834 4659 3930 
L 4659 4352 
Q 4659 4448 4636 4473 
Q 4614 4499 4525 4499 
L 1382 4499 
Q 1350 4499 1321 4518 
Q 1293 4538 1293 4570 
L 1293 4800 
Q 1293 4832 1321 4851 
Q 1350 4870 1382 4870 
L 4595 4870 
Q 4749 4870 4845 4848 
Q 4941 4826 4998 4774 
Q 5056 4723 5078 4630 
Q 5101 4538 5101 4403 
L 5101 3878 
Q 5101 3603 4989 3513 
Q 4877 3424 4589 3424 
L 1862 3424 
Q 1773 3424 1750 3398 
Q 1728 3373 1728 3277 
L 1728 2842 
Q 1728 2752 1753 2723 
Q 1779 2694 1869 2694 
L 5146 2694 
Q 5178 2694 5206 2675 
Q 5235 2656 5235 2624 
L 5235 2406 
z
" transform="scale(0.015625)"/>
      <path id="NanumGothicCoding-cabd" d="M 2867 4243 
Q 2810 4166 2749 4089 
Q 2688 4013 2618 3942 
Q 2797 3763 3014 3622 
Q 3232 3482 3456 3373 
Q 3814 3590 4051 3820 
Q 4288 4051 4461 4339 
Q 4493 4390 4480 4432 
Q 4467 4474 4397 4474 
L 3296 4474 
Q 3219 4474 3219 4563 
L 3219 4768 
Q 3219 4845 3309 4845 
L 4557 4845 
Q 4915 4845 4995 4704 
Q 5075 4563 4934 4320 
Q 4851 4179 4764 4051 
Q 4678 3923 4576 3808 
Q 4685 3725 4829 3645 
Q 4973 3565 5117 3491 
Q 5261 3418 5398 3363 
Q 5536 3309 5638 3277 
Q 5683 3264 5692 3225 
Q 5702 3187 5677 3142 
L 5568 2957 
Q 5530 2886 5421 2938 
Q 5306 2982 5162 3049 
Q 5018 3117 4870 3200 
Q 4723 3283 4579 3369 
Q 4435 3456 4320 3546 
Q 4096 3341 3805 3158 
Q 3514 2976 3110 2778 
Q 3027 2733 2970 2810 
L 2867 2950 
Q 2835 2989 2851 3027 
Q 2867 3066 2906 3085 
Q 2950 3104 2988 3123 
Q 3027 3142 3066 3162 
Q 2880 3270 2694 3411 
Q 2509 3552 2355 3699 
Q 1773 3219 941 2906 
Q 890 2886 861 2883 
Q 832 2880 806 2925 
L 710 3110 
Q 685 3155 701 3184 
Q 717 3213 749 3226 
Q 998 3309 1251 3440 
Q 1504 3571 1728 3721 
Q 1952 3872 2131 4032 
Q 2310 4192 2406 4346 
Q 2438 4390 2428 4432 
Q 2419 4474 2349 4474 
L 1197 4474 
Q 1114 4474 1114 4563 
L 1114 4768 
Q 1114 4806 1142 4825 
Q 1171 4845 1210 4845 
L 2522 4845 
Q 3296 4845 2867 4243 
z
M 6016 1728 
Q 6016 1696 5984 1670 
Q 5952 1645 5920 1645 
L 480 1645 
Q 442 1645 413 1670 
Q 384 1696 384 1728 
L 384 1952 
Q 384 1990 413 2009 
Q 442 2029 480 2029 
L 3034 2029 
L 3034 2566 
Q 3034 2656 3123 2656 
L 3386 2656 
Q 3475 2656 3475 2566 
L 3475 2029 
L 5920 2029 
Q 5952 2029 5984 2006 
Q 6016 1984 6016 1946 
L 6016 1728 
z
M 5120 -870 
Q 5120 -960 5030 -960 
L 4768 -960 
Q 4678 -960 4678 -870 
L 4678 467 
Q 4678 557 4649 579 
Q 4621 602 4531 602 
L 1235 602 
Q 1203 602 1171 624 
Q 1139 646 1139 678 
L 1139 909 
Q 1139 947 1171 966 
Q 1203 986 1235 986 
L 4634 986 
Q 4934 986 5027 874 
Q 5120 762 5120 499 
L 5120 -870 
z
" transform="scale(0.015625)"/>
      <path id="NanumGothicCoding-3a" d="M 1158 3149 
Q 1158 3322 1289 3453 
Q 1421 3584 1600 3584 
Q 1773 3584 1907 3453 
Q 2042 3322 2042 3149 
Q 2042 2963 1907 2835 
Q 1773 2707 1600 2707 
Q 1421 2707 1289 2835 
Q 1158 2963 1158 3149 
z
M 1158 640 
Q 1158 826 1289 954 
Q 1421 1082 1600 1082 
Q 1773 1082 1907 954 
Q 2042 826 2042 640 
Q 2042 467 1907 336 
Q 1773 205 1600 205 
Q 1421 205 1289 336 
Q 1158 467 1158 640 
z
" transform="scale(0.015625)"/>
      <path id="NanumGothicCoding-20" transform="scale(0.015625)"/>
      <path id="NanumGothicCoding-ae38" d="M 5344 1952 
Q 5344 1862 5254 1862 
L 4992 1862 
Q 4902 1862 4902 1952 
L 4902 4915 
Q 4902 5005 4992 5005 
L 5254 5005 
Q 5344 5005 5344 4915 
L 5344 1952 
z
M 3622 4326 
Q 3546 3904 3366 3545 
Q 3187 3187 2876 2867 
Q 2566 2547 2112 2262 
Q 1658 1978 1030 1709 
Q 928 1664 890 1747 
L 794 1958 
Q 768 2010 781 2038 
Q 794 2067 845 2086 
Q 2912 2938 3142 4218 
Q 3181 4397 2989 4397 
L 1018 4397 
Q 941 4397 941 4480 
L 941 4704 
Q 941 4781 1018 4781 
L 3136 4781 
Q 3443 4781 3555 4672 
Q 3667 4563 3622 4326 
z
M 5478 -838 
Q 5478 -870 5449 -892 
Q 5421 -915 5395 -915 
L 2176 -915 
Q 1875 -915 1782 -803 
Q 1690 -691 1690 -422 
L 1690 58 
Q 1690 326 1802 419 
Q 1914 512 2202 512 
L 4762 512 
Q 4851 512 4876 537 
Q 4902 563 4902 659 
L 4902 1024 
Q 4902 1120 4880 1145 
Q 4858 1171 4768 1171 
L 1766 1171 
Q 1734 1171 1705 1190 
Q 1677 1210 1677 1242 
L 1677 1472 
Q 1677 1504 1705 1523 
Q 1734 1542 1766 1542 
L 4838 1542 
Q 4992 1542 5088 1520 
Q 5184 1498 5241 1446 
Q 5299 1395 5321 1302 
Q 5344 1210 5344 1075 
L 5344 595 
Q 5344 326 5232 233 
Q 5120 141 4832 141 
L 2266 141 
Q 2176 141 2153 115 
Q 2131 90 2131 -6 
L 2131 -397 
Q 2131 -486 2156 -515 
Q 2182 -544 2272 -544 
L 5389 -544 
Q 5421 -544 5449 -563 
Q 5478 -582 5478 -614 
L 5478 -838 
z
" transform="scale(0.015625)"/>
      <path id="NanumGothicCoding-c774" d="M 3846 2566 
Q 3846 2208 3760 1843 
Q 3674 1478 3488 1184 
Q 3302 890 3011 701 
Q 2720 512 2310 512 
Q 1888 512 1597 697 
Q 1306 883 1130 1180 
Q 954 1478 877 1843 
Q 800 2208 800 2566 
Q 800 2944 877 3312 
Q 954 3680 1130 3974 
Q 1306 4269 1597 4448 
Q 1888 4627 2310 4627 
Q 2720 4627 3011 4448 
Q 3302 4269 3488 3977 
Q 3674 3686 3760 3318 
Q 3846 2950 3846 2566 
z
M 3392 2573 
Q 3392 2867 3331 3168 
Q 3270 3469 3142 3709 
Q 3014 3949 2809 4099 
Q 2605 4250 2310 4250 
Q 2003 4250 1801 4099 
Q 1600 3949 1478 3709 
Q 1357 3469 1305 3168 
Q 1254 2867 1254 2573 
Q 1254 2291 1302 1993 
Q 1350 1696 1472 1449 
Q 1594 1203 1798 1046 
Q 2003 890 2310 890 
Q 2605 890 2809 1046 
Q 3014 1203 3142 1449 
Q 3270 1696 3331 1993 
Q 3392 2291 3392 2573 
z
M 5344 -806 
Q 5344 -896 5254 -896 
L 4992 -896 
Q 4902 -896 4902 -806 
L 4902 4915 
Q 4902 5005 4992 5005 
L 5254 5005 
Q 5344 5005 5344 4915 
L 5344 -806 
z
" transform="scale(0.015625)"/>
      <path id="NanumGothicCoding-31" d="M 2022 -211 
Q 2022 -301 1933 -301 
L 1670 -301 
Q 1581 -301 1581 -211 
L 1581 3565 
Q 1382 3398 1209 3251 
Q 1037 3104 845 2938 
Q 774 2880 717 2950 
L 589 3104 
Q 570 3136 570 3171 
Q 570 3206 602 3232 
L 1594 4064 
Q 1619 4090 1670 4090 
L 1843 4090 
Q 1978 4090 2000 4067 
Q 2022 4045 2022 3910 
L 2022 -211 
z
" transform="scale(0.015625)"/>
     </defs>
     <use xlink:href="#NanumGothicCoding-c624"/>
     <use xlink:href="#NanumGothicCoding-b978" transform="translate(99.999985 0)"/>
     <use xlink:href="#NanumGothicCoding-cabd" transform="translate(199.999969 0)"/>
     <use xlink:href="#NanumGothicCoding-3a" transform="translate(299.999954 0)"/>
     <use xlink:href="#NanumGothicCoding-20" transform="translate(349.999939 0)"/>
     <use xlink:href="#NanumGothicCoding-ae38" transform="translate(399.999924 0)"/>
     <use xlink:href="#NanumGothicCoding-c774" transform="translate(499.999908 0)"/>
     <use xlink:href="#NanumGothicCoding-20" transform="translate(599.999893 0)"/>
     <use xlink:href="#NanumGothicCoding-31" transform="translate(649.999878 0)"/>
    </g>
   </g>
   <g id="text_2">
    <!-- 아래: 길이 1 -->
    <g style="fill: #111827" transform="translate(16.4736 40.047159) scale(0.11 -0.11)">
     <defs>
      <path id="NanumGothicCoding-c544" d="M 3725 2566 
Q 3725 2208 3638 1843 
Q 3552 1478 3366 1184 
Q 3181 890 2889 701 
Q 2598 512 2189 512 
Q 1766 512 1475 697 
Q 1184 883 1008 1180 
Q 832 1478 755 1843 
Q 678 2208 678 2566 
Q 678 2944 755 3312 
Q 832 3680 1008 3974 
Q 1184 4269 1475 4448 
Q 1766 4627 2189 4627 
Q 2598 4627 2889 4448 
Q 3181 4269 3366 3977 
Q 3552 3686 3638 3318 
Q 3725 2950 3725 2566 
z
M 3270 2573 
Q 3270 2861 3209 3155 
Q 3149 3450 3021 3686 
Q 2893 3923 2688 4070 
Q 2483 4218 2189 4218 
Q 1882 4218 1680 4070 
Q 1478 3923 1356 3686 
Q 1235 3450 1184 3155 
Q 1133 2861 1133 2573 
Q 1133 2298 1181 2003 
Q 1229 1709 1350 1469 
Q 1472 1229 1677 1075 
Q 1882 922 2189 922 
Q 2483 922 2688 1075 
Q 2893 1229 3021 1469 
Q 3149 1709 3209 2003 
Q 3270 2298 3270 2573 
z
M 5120 -806 
Q 5120 -896 5030 -896 
L 4768 -896 
Q 4678 -896 4678 -806 
L 4678 4915 
Q 4678 5005 4768 5005 
L 5030 5005 
Q 5120 5005 5120 4915 
L 5120 2586 
L 6003 2586 
Q 6042 2586 6070 2563 
Q 6099 2541 6099 2502 
L 6099 2285 
Q 6099 2253 6070 2227 
Q 6042 2202 6003 2202 
L 5120 2202 
L 5120 -806 
z
" transform="scale(0.015625)"/>
      <path id="NanumGothicCoding-b798" d="M 4320 2586 
L 5133 2586 
L 5133 4915 
Q 5133 5005 5222 5005 
L 5466 5005 
Q 5555 5005 5555 4915 
L 5555 -806 
Q 5555 -896 5466 -896 
L 5222 -896 
Q 5133 -896 5133 -806 
L 5133 2202 
L 4320 2202 
L 4320 -563 
Q 4320 -653 4230 -653 
L 3987 -653 
Q 3898 -653 3898 -563 
L 3898 4806 
Q 3898 4896 3987 4896 
L 4230 4896 
Q 4320 4896 4320 4806 
L 4320 2586 
z
M 1165 608 
Q 877 621 777 726 
Q 678 832 678 1101 
L 678 2323 
Q 678 2592 790 2685 
Q 902 2778 1190 2778 
L 2419 2778 
Q 2509 2778 2534 2803 
Q 2560 2829 2560 2925 
L 2560 3949 
Q 2560 4045 2537 4070 
Q 2515 4096 2426 4096 
L 794 4096 
Q 762 4096 733 4115 
Q 704 4134 704 4166 
L 704 4410 
Q 704 4442 733 4461 
Q 762 4480 794 4480 
L 2496 4480 
Q 2650 4480 2746 4457 
Q 2842 4435 2899 4384 
Q 2957 4333 2979 4240 
Q 3002 4147 3002 4013 
L 3002 2848 
Q 3002 2579 2890 2486 
Q 2778 2394 2490 2394 
L 1254 2394 
Q 1165 2394 1142 2368 
Q 1120 2342 1120 2246 
L 1120 1133 
Q 1120 986 1261 986 
Q 1766 973 2316 1033 
Q 2867 1094 3424 1222 
Q 3514 1242 3533 1158 
L 3571 947 
Q 3584 864 3488 838 
Q 2938 710 2352 649 
Q 1766 589 1165 608 
z
" transform="scale(0.015625)"/>
     </defs>
     <use xlink:href="#NanumGothicCoding-c544"/>
     <use xlink:href="#NanumGothicCoding-b798" transform="translate(99.999985 0)"/>
     <use xlink:href="#NanumGothicCoding-3a" transform="translate(199.999969 0)"/>
     <use xlink:href="#NanumGothicCoding-20" transform="translate(249.999954 0)"/>
     <use xlink:href="#NanumGothicCoding-ae38" transform="translate(299.999939 0)"/>
     <use xlink:href="#NanumGothicCoding-c774" transform="translate(399.999924 0)"/>
     <use xlink:href="#NanumGothicCoding-20" transform="translate(499.999908 0)"/>
     <use xlink:href="#NanumGothicCoding-31" transform="translate(549.999893 0)"/>
    </g>
   </g>
   <g id="text_3">
    <!-- 오른쪽+아래: 길이 √2 -->
    <g style="fill: #111827" transform="translate(16.4736 52.687207) scale(0.11 -0.11)">
     <defs>
      <path id="NanumGothicCoding-2b" d="M 3142 1875 
Q 3142 1786 3126 1773 
Q 3110 1760 3021 1760 
L 1830 1760 
L 1830 442 
Q 1830 358 1817 345 
Q 1805 333 1722 333 
L 1472 333 
Q 1389 333 1376 345 
Q 1363 358 1363 442 
L 1363 1760 
L 179 1760 
Q 90 1760 74 1773 
Q 58 1786 58 1875 
L 58 2106 
Q 58 2195 74 2208 
Q 90 2221 179 2221 
L 1363 2221 
L 1363 3526 
Q 1363 3616 1379 3629 
Q 1395 3642 1485 3642 
L 1709 3642 
Q 1798 3642 1814 3629 
Q 1830 3616 1830 3526 
L 1830 2221 
L 3021 2221 
Q 3110 2221 3126 2208 
Q 3142 2195 3142 2106 
L 3142 1875 
z
" transform="scale(0.015625)"/>
      <path id="NanumGothicCoding-221a" d="M 5670 3667 
L 3181 3667 
L 1843 -403 
L 1139 883 
L 832 678 
L 730 813 
L 1222 1248 
L 1773 237 
L 2970 3917 
L 5670 3917 
L 5670 3667 
z
" transform="scale(0.015625)"/>
      <path id="NanumGothicCoding-32" d="M 442 -301 
Q 378 -301 342 -297 
Q 307 -294 291 -278 
Q 275 -262 272 -227 
Q 269 -192 269 -122 
L 269 19 
Q 269 102 320 147 
L 1286 1146 
Q 2317 2246 2310 2854 
Q 2317 3277 2125 3501 
Q 1907 3744 1523 3757 
Q 1069 3757 602 3469 
Q 518 3424 499 3507 
L 461 3718 
Q 442 3827 525 3859 
Q 781 4000 1017 4070 
Q 1254 4141 1510 4141 
Q 2022 4141 2387 3834 
Q 2790 3501 2790 2886 
Q 2790 2650 2681 2365 
Q 2573 2080 2336 1760 
Q 2112 1478 1971 1308 
Q 1830 1139 1600 890 
Q 1350 627 1206 480 
Q 1062 333 826 96 
L 2803 96 
Q 2899 90 2893 6 
L 2893 -218 
Q 2893 -301 2810 -301 
L 442 -301 
z
" transform="scale(0.015625)"/>
     </defs>
     <use xlink:href="#NanumGothicCoding-c624"/>
     <use xlink:href="#NanumGothicCoding-b978" transform="translate(99.999985 0)"/>
     <use xlink:href="#NanumGothicCoding-cabd" transform="translate(199.999969 0)"/>
     <use xlink:href="#NanumGothicCoding-2b" transform="translate(299.999954 0)"/>
     <use xlink:href="#NanumGothicCoding-c544" transform="translate(349.999939 0)"/>
     <use xlink:href="#NanumGothicCoding-b798" transform="translate(449.999924 0)"/>
     <use xlink:href="#NanumGothicCoding-3a" transform="translate(549.999908 0)"/>
     <use xlink:href="#NanumGothicCoding-20" transform="translate(599.999893 0)"/>
     <use xlink:href="#NanumGothicCoding-ae38" transform="translate(649.999878 0)"/>
     <use xlink:href="#NanumGothicCoding-c774" transform="translate(749.999863 0)"/>
     <use xlink:href="#NanumGothicCoding-20" transform="translate(849.999847 0)"/>
     <use xlink:href="#NanumGothicCoding-221a" transform="translate(899.999832 0)"/>
     <use xlink:href="#NanumGothicCoding-32" transform="translate(999.999817 0)"/>
    </g>
   </g>
  </g>
 </g>
 <defs>
  <clipPath id="p28b537a67b">
   <rect x="5.76" y="5.76" width="267.84" height="114.2064"/>
  </clipPath>
 </defs>
</svg>
