<?xml version="1.0" encoding="utf-8" standalone="no"?>
<!DOCTYPE svg PUBLIC "-//W3C//DTD SVG 1.1//EN"
  "http://www.w3.org/Graphics/SVG/1.1/DTD/svg11.dtd">
<svg xmlns:xlink="http://www.w3.org/1999/xlink" width="311.724pt" height="275.202856pt" viewBox="0 0 311.724 275.202856" xmlns="http://www.w3.org/2000/svg" version="1.1">
 <metadata>
  <rdf:RDF xmlns:dc="http://purl.org/dc/elements/1.1/" xmlns:cc="http://creativecommons.org/ns#" xmlns:rdf="http://www.w3.org/1999/02/22-rdf-syntax-ns#">
   <cc:Work>
    <dc:type rdf:resource="http://purl.org/dc/dcmitype/StillImage"/>
    <dc:date>2026-07-08T05:12:56.698733</dc:date>
    <dc:format>image/svg+xml</dc:format>
    <dc:creator>
     <cc:Agent>
      <dc:title>Matplotlib v3.10.8, https://matplotlib.org/</dc:title>
     </cc:Agent>
    </dc:creator>
   </cc:Work>
  </rdf:RDF>
 </metadata>
 <defs>
  <style type="text/css">*{stroke-linejoin: round; stroke-linecap: butt}</style>
 </defs>
 <g id="figure_1">
  <g id="patch_1">
   <path d="M 0 275.202856 
L 311.724 275.202856 
L 311.724 0 
L 0 0 
z
" style="fill: #ffffff"/>
  </g>
  <g id="axes_1">
   <g id="patch_2">
    <path d="M 5.76 259.6752 
L 305.964 259.6752 
L 305.964 5.76 
L 5.76 5.76 
z
" clip-path="url(#pa9ae2bcd69)" style="fill: #ffffff; stroke: #e5e7eb; stroke-linejoin: miter"/>
   </g>
   <g id="text_1">
    <!-- local -->
    <g style="fill: #111827" transform="translate(17.76816 43.842168) scale(0.11 -0.11)">
     <defs>
      <path id="NanumGothicCoding-6c" d="M 2605 122 
Q 2694 122 2694 32 
L 2694 -186 
Q 2694 -275 2605 -275 
L 531 -275 
Q 442 -275 442 -186 
L 442 32 
Q 442 122 531 122 
L 1389 122 
L 1389 4032 
L 710 4032 
Q 621 4032 621 4122 
L 621 4339 
Q 621 4429 710 4429 
L 1760 4429 
Q 1850 4429 1850 4339 
L 1850 122 
L 2605 122 
z
" transform="scale(0.015625)"/>
      <path id="NanumGothicCoding-6f" d="M 2490 1331 
Q 2490 1581 2432 1824 
Q 2374 2067 2253 2266 
Q 2010 2650 1594 2650 
Q 1158 2650 934 2266 
Q 813 2067 758 1824 
Q 704 1581 704 1331 
Q 704 1056 755 813 
Q 806 570 934 397 
Q 1216 6 1594 6 
Q 2035 6 2253 397 
Q 2381 570 2435 813 
Q 2490 1056 2490 1331 
z
M 2931 1331 
Q 2931 979 2851 668 
Q 2771 358 2605 147 
Q 2413 -102 2163 -240 
Q 1914 -378 1594 -378 
Q 1274 -378 1024 -240 
Q 774 -102 582 147 
Q 429 378 349 678 
Q 269 979 269 1331 
Q 269 2054 582 2515 
Q 947 3034 1594 3034 
Q 1920 3034 2166 2909 
Q 2413 2784 2605 2515 
Q 2931 2048 2931 1331 
z
" transform="scale(0.015625)"/>
      <path id="NanumGothicCoding-63" d="M 2624 -288 
Q 2451 -333 2310 -349 
Q 2170 -365 1952 -365 
Q 1581 -365 1289 -233 
Q 998 -102 780 128 
Q 563 358 454 668 
Q 346 979 346 1338 
Q 346 1702 461 2009 
Q 576 2317 787 2541 
Q 998 2765 1289 2896 
Q 1581 3027 1952 3027 
Q 2150 3027 2297 3011 
Q 2445 2995 2630 2950 
Q 2714 2931 2707 2842 
L 2688 2624 
Q 2675 2547 2598 2566 
Q 2445 2618 2307 2640 
Q 2170 2662 2010 2662 
Q 1741 2662 1507 2556 
Q 1274 2451 1126 2272 
Q 979 2093 899 1853 
Q 819 1613 819 1338 
Q 819 1088 902 848 
Q 986 608 1130 419 
Q 1274 230 1507 115 
Q 1741 0 2010 0 
Q 2170 0 2298 19 
Q 2426 38 2592 96 
Q 2662 115 2688 51 
L 2707 -179 
Q 2714 -269 2624 -288 
z
" transform="scale(0.015625)"/>
      <path id="NanumGothicCoding-61" d="M 2368 1402 
L 2246 1402 
Q 1888 1414 1645 1376 
Q 1402 1338 1229 1254 
Q 1018 1165 902 976 
Q 787 787 787 589 
Q 787 474 838 342 
Q 890 211 998 141 
Q 1184 -13 1414 -13 
Q 1638 -13 1785 73 
Q 1933 160 2073 342 
Q 2214 525 2291 755 
Q 2368 986 2368 1203 
L 2368 1402 
z
M 723 2400 
Q 691 2381 662 2390 
Q 634 2400 634 2432 
L 634 2682 
Q 634 2765 723 2803 
Q 941 2931 1168 2982 
Q 1395 3034 1658 3034 
Q 2214 3046 2508 2713 
Q 2803 2381 2803 1888 
L 2803 397 
Q 2803 218 2809 77 
Q 2816 -64 2829 -192 
Q 2829 -275 2739 -275 
L 2509 -275 
Q 2419 -275 2419 -192 
L 2419 262 
Q 2285 -38 2009 -208 
Q 1734 -378 1363 -378 
Q 813 -378 512 -19 
Q 410 96 358 256 
Q 307 416 307 570 
Q 307 902 489 1180 
Q 672 1459 1050 1600 
Q 1414 1766 2285 1766 
L 2368 1766 
L 2368 1914 
Q 2368 2240 2185 2454 
Q 2003 2669 1658 2669 
Q 1382 2669 1168 2608 
Q 954 2547 723 2400 
z
" transform="scale(0.015625)"/>
     </defs>
     <use xlink:href="#NanumGothicCoding-6c"/>
     <use xlink:href="#NanumGothicCoding-6f" transform="translate(49.999985 0)"/>
     <use xlink:href="#NanumGothicCoding-63" transform="translate(99.999969 0)"/>
     <use xlink:href="#NanumGothicCoding-61" transform="translate(149.999954 0)"/>
     <use xlink:href="#NanumGothicCoding-6c" transform="translate(199.999939 0)"/>
    </g>
   </g>
   <g id="text_2">
    <!--  ↓ modelMatrix -->
    <g style="fill: #111827" transform="translate(17.76816 72.960496) scale(0.11 -0.11)">
     <defs>
      <path id="NanumGothicCoding-20" transform="scale(0.015625)"/>
      <path id="NanumGothicCoding-2193" d="M 4243 -115 
L 3200 -1274 
L 2157 -115 
L 3123 -582 
L 3123 5120 
L 3277 5120 
L 3277 -582 
L 4243 -115 
z
" transform="scale(0.015625)"/>
      <path id="NanumGothicCoding-6d" d="M 269 2118 
Q 269 2387 262 2544 
Q 256 2701 243 2842 
Q 243 2931 333 2931 
L 570 2931 
Q 659 2931 659 2842 
L 653 2566 
Q 698 2771 832 2889 
Q 966 3008 1101 3008 
Q 1338 3008 1482 2816 
Q 1626 2624 1664 2362 
Q 1683 2573 1804 2777 
Q 1926 2982 2202 3008 
Q 2445 3008 2585 2921 
Q 2726 2835 2809 2675 
Q 2893 2515 2925 2304 
Q 2957 2093 2957 1856 
L 2957 -186 
Q 2957 -275 2867 -275 
L 2624 -275 
Q 2534 -275 2534 -192 
L 2534 1766 
Q 2534 2611 2195 2611 
Q 2067 2611 1990 2508 
Q 1914 2406 1878 2252 
Q 1843 2099 1827 1868 
Q 1811 1638 1818 1382 
L 1818 -186 
Q 1818 -275 1728 -275 
L 1498 -275 
Q 1408 -275 1408 -186 
L 1408 1766 
Q 1389 2611 1050 2611 
Q 870 2611 777 2355 
Q 685 2099 691 1619 
L 691 -186 
Q 691 -275 602 -275 
L 358 -275 
Q 269 -275 269 -186 
L 269 2118 
z
" transform="scale(0.015625)"/>
      <path id="NanumGothicCoding-64" d="M 2816 -192 
Q 2816 -275 2726 -275 
L 2477 -275 
Q 2387 -275 2387 -192 
L 2387 275 
Q 2125 -339 1491 -339 
Q 1197 -339 957 -198 
Q 717 -58 544 208 
Q 371 474 297 781 
Q 224 1088 224 1427 
Q 224 2029 557 2531 
Q 890 3034 1491 3034 
Q 1811 3034 2038 2874 
Q 2266 2714 2387 2464 
L 2387 4371 
Q 2387 4454 2477 4454 
L 2726 4454 
Q 2816 4454 2816 4371 
L 2816 -192 
z
M 678 1357 
Q 672 1158 717 924 
Q 762 691 867 483 
Q 973 275 1133 153 
Q 1293 32 1530 32 
Q 1766 32 1926 153 
Q 2086 275 2192 483 
Q 2298 691 2336 924 
Q 2374 1158 2374 1357 
Q 2374 1542 2336 1782 
Q 2298 2022 2192 2227 
Q 2086 2432 1926 2553 
Q 1766 2675 1530 2675 
Q 1293 2675 1133 2553 
Q 973 2432 864 2227 
Q 755 2022 713 1782 
Q 672 1542 678 1357 
z
" transform="scale(0.015625)"/>
      <path id="NanumGothicCoding-65" d="M 2458 1536 
Q 2458 1734 2410 1939 
Q 2362 2144 2266 2298 
Q 2042 2669 1626 2669 
Q 1210 2669 973 2291 
Q 864 2106 806 1907 
Q 749 1709 742 1536 
L 2458 1536 
z
M 736 1171 
Q 730 966 810 726 
Q 890 486 1030 336 
Q 1171 186 1350 96 
Q 1530 6 1786 6 
Q 2010 6 2202 51 
Q 2394 96 2586 198 
Q 2662 230 2669 154 
L 2669 -141 
Q 2669 -192 2598 -224 
Q 2400 -301 2211 -339 
Q 2022 -378 1754 -378 
Q 1069 -378 665 80 
Q 262 538 262 1312 
Q 262 2016 659 2541 
Q 1075 3034 1632 3034 
Q 1978 3034 2205 2912 
Q 2432 2790 2611 2541 
Q 2931 2112 2931 1376 
Q 2931 1299 2928 1257 
Q 2925 1216 2905 1197 
Q 2886 1178 2838 1174 
Q 2790 1171 2701 1171 
L 736 1171 
z
" transform="scale(0.015625)"/>
      <path id="NanumGothicCoding-4d" d="M 2867 -186 
Q 2867 -275 2778 -275 
L 2534 -275 
Q 2445 -275 2445 -186 
L 2445 3674 
L 2362 3187 
Q 1869 19 1869 13 
Q 1837 -51 1773 -51 
L 1421 -51 
Q 1376 -51 1357 -35 
Q 1338 -19 1325 13 
L 832 3187 
Q 819 3283 793 3414 
Q 768 3546 749 3674 
L 749 -186 
Q 749 -275 659 -275 
L 416 -275 
Q 326 -275 326 -186 
L 326 3910 
Q 326 4045 348 4067 
Q 371 4090 506 4090 
L 986 4090 
Q 1037 4090 1059 4077 
Q 1082 4064 1101 4013 
L 1536 966 
L 1600 480 
L 1664 966 
L 2099 4019 
Q 2125 4090 2202 4090 
L 2688 4090 
Q 2822 4090 2844 4067 
Q 2867 4045 2867 3910 
L 2867 -186 
z
" transform="scale(0.015625)"/>
      <path id="NanumGothicCoding-74" d="M 2733 -269 
Q 2464 -378 2106 -378 
Q 1523 -378 1357 -38 
Q 1248 192 1248 774 
L 1248 2413 
L 416 2413 
Q 326 2413 326 2502 
L 326 2694 
Q 326 2784 416 2784 
L 1248 2784 
L 1248 3686 
Q 1248 3782 1331 3782 
L 1600 3782 
Q 1683 3782 1683 3686 
L 1683 2784 
L 2714 2784 
Q 2803 2784 2803 2694 
L 2803 2502 
Q 2803 2413 2714 2413 
L 1683 2413 
L 1683 486 
Q 1683 6 2208 6 
Q 2470 6 2707 115 
Q 2739 128 2768 115 
Q 2797 102 2797 64 
L 2810 -141 
Q 2822 -230 2733 -269 
z
" transform="scale(0.015625)"/>
      <path id="NanumGothicCoding-72" d="M 1946 122 
Q 2035 122 2035 32 
L 2035 -186 
Q 2035 -275 1946 -275 
L 506 -275 
Q 416 -275 416 -186 
L 416 32 
Q 416 122 506 122 
L 883 122 
L 883 2534 
L 390 2534 
Q 301 2534 301 2624 
L 301 2842 
Q 301 2931 390 2931 
L 1165 2931 
Q 1254 2931 1254 2842 
L 1254 2214 
Q 1645 3021 2381 3021 
Q 2758 3021 3059 2874 
Q 3123 2848 3129 2809 
Q 3136 2771 3117 2726 
L 3040 2496 
Q 3021 2451 2992 2454 
Q 2963 2458 2918 2483 
Q 2637 2618 2317 2618 
Q 1792 2592 1485 2048 
Q 1312 1715 1312 1178 
L 1312 122 
L 1946 122 
z
" transform="scale(0.015625)"/>
      <path id="NanumGothicCoding-69" d="M 2656 122 
Q 2746 122 2746 32 
L 2746 -186 
Q 2746 -275 2656 -275 
L 614 -275 
Q 525 -275 525 -186 
L 525 32 
Q 525 122 614 122 
L 1434 122 
L 1434 2534 
L 685 2534 
Q 595 2534 595 2624 
L 595 2842 
Q 595 2931 685 2931 
L 1805 2931 
Q 1894 2931 1894 2842 
L 1894 122 
L 2656 122 
z
M 1235 3968 
Q 1235 4115 1340 4220 
Q 1446 4326 1594 4326 
Q 1741 4326 1846 4220 
Q 1952 4115 1952 3968 
Q 1952 3821 1846 3715 
Q 1741 3610 1594 3610 
Q 1446 3610 1340 3715 
Q 1235 3821 1235 3968 
z
" transform="scale(0.015625)"/>
      <path id="NanumGothicCoding-78" d="M 2950 -186 
Q 2970 -218 2954 -246 
Q 2938 -275 2899 -275 
L 2579 -275 
Q 2502 -275 2451 -186 
L 1600 1082 
L 749 -186 
Q 691 -275 621 -275 
L 301 -275 
Q 262 -275 246 -246 
Q 230 -218 250 -186 
L 1357 1434 
L 378 2842 
Q 358 2874 374 2902 
Q 390 2931 429 2931 
L 749 2931 
Q 826 2931 877 2842 
L 1600 1786 
L 2323 2842 
Q 2381 2931 2451 2931 
L 2771 2931 
Q 2810 2931 2826 2902 
Q 2842 2874 2822 2842 
L 1843 1434 
L 2950 -186 
z
" transform="scale(0.015625)"/>
     </defs>
     <use xlink:href="#NanumGothicCoding-20"/>
     <use xlink:href="#NanumGothicCoding-2193" transform="translate(49.999985 0)"/>
     <use xlink:href="#NanumGothicCoding-20" transform="translate(149.999969 0)"/>
     <use xlink:href="#NanumGothicCoding-6d" transform="translate(199.999954 0)"/>
     <use xlink:href="#NanumGothicCoding-6f" transform="translate(249.999939 0)"/>
     <use xlink:href="#NanumGothicCoding-64" transform="translate(299.999924 0)"/>
     <use xlink:href="#NanumGothicCoding-65" transform="translate(349.999908 0)"/>
     <use xlink:href="#NanumGothicCoding-6c" transform="translate(399.999893 0)"/>
     <use xlink:href="#NanumGothicCoding-4d" transform="translate(449.999878 0)"/>
     <use xlink:href="#NanumGothicCoding-61" transform="translate(499.999863 0)"/>
     <use xlink:href="#NanumGothicCoding-74" transform="translate(549.999847 0)"/>
     <use xlink:href="#NanumGothicCoding-72" transform="translate(599.999832 0)"/>
     <use xlink:href="#NanumGothicCoding-69" transform="translate(649.999817 0)"/>
     <use xlink:href="#NanumGothicCoding-78" transform="translate(699.999802 0)"/>
    </g>
   </g>
   <g id="text_3">
    <!-- world -->
    <g style="fill: #111827" transform="translate(17.76816 99.703512) scale(0.11 -0.11)">
     <defs>
      <path id="NanumGothicCoding-77" d="M 2451 -205 
Q 2432 -275 2349 -275 
L 1971 -275 
Q 1894 -275 1869 -205 
L 1587 1894 
L 1542 2272 
L 1498 1894 
L 1222 -198 
Q 1203 -275 1107 -275 
L 755 -275 
Q 710 -275 681 -262 
Q 653 -250 640 -198 
L 154 2842 
Q 141 2874 160 2902 
Q 179 2931 218 2931 
L 474 2931 
Q 550 2931 589 2842 
L 883 653 
L 941 211 
L 998 672 
L 1242 2618 
Q 1274 2739 1389 2739 
L 1690 2739 
Q 1811 2739 1843 2618 
L 2093 672 
L 2150 211 
L 2214 653 
L 2502 2842 
Q 2515 2880 2547 2905 
Q 2579 2931 2618 2931 
L 2874 2931 
Q 2912 2931 2931 2902 
Q 2950 2874 2938 2842 
L 2451 -205 
z
" transform="scale(0.015625)"/>
     </defs>
     <use xlink:href="#NanumGothicCoding-77"/>
     <use xlink:href="#NanumGothicCoding-6f" transform="translate(49.999985 0)"/>
     <use xlink:href="#NanumGothicCoding-72" transform="translate(99.999969 0)"/>
     <use xlink:href="#NanumGothicCoding-6c" transform="translate(149.999954 0)"/>
     <use xlink:href="#NanumGothicCoding-64" transform="translate(199.999939 0)"/>
    </g>
   </g>
   <g id="text_4">
    <!--  ↓ viewMatrix -->
    <g style="fill: #111827" transform="translate(17.76816 128.82184) scale(0.11 -0.11)">
     <defs>
      <path id="NanumGothicCoding-76" d="M 1856 -192 
Q 1824 -275 1728 -275 
L 1414 -275 
Q 1318 -275 1293 -192 
L 282 2842 
Q 269 2874 288 2902 
Q 307 2931 346 2931 
L 627 2931 
Q 704 2931 742 2842 
L 1581 166 
L 2458 2842 
Q 2470 2880 2502 2905 
Q 2534 2931 2573 2931 
L 2854 2931 
Q 2893 2931 2912 2902 
Q 2931 2874 2918 2842 
L 1856 -192 
z
" transform="scale(0.015625)"/>
     </defs>
     <use xlink:href="#NanumGothicCoding-20"/>
     <use xlink:href="#NanumGothicCoding-2193" transform="translate(49.999985 0)"/>
     <use xlink:href="#NanumGothicCoding-20" transform="translate(149.999969 0)"/>
     <use xlink:href="#NanumGothicCoding-76" transform="translate(199.999954 0)"/>
     <use xlink:href="#NanumGothicCoding-69" transform="translate(249.999939 0)"/>
     <use xlink:href="#NanumGothicCoding-65" transform="translate(299.999924 0)"/>
     <use xlink:href="#NanumGothicCoding-77" transform="translate(349.999908 0)"/>
     <use xlink:href="#NanumGothicCoding-4d" transform="translate(399.999893 0)"/>
     <use xlink:href="#NanumGothicCoding-61" transform="translate(449.999878 0)"/>
     <use xlink:href="#NanumGothicCoding-74" transform="translate(499.999863 0)"/>
     <use xlink:href="#NanumGothicCoding-72" transform="translate(549.999847 0)"/>
     <use xlink:href="#NanumGothicCoding-69" transform="translate(599.999832 0)"/>
     <use xlink:href="#NanumGothicCoding-78" transform="translate(649.999817 0)"/>
    </g>
   </g>
   <g id="text_5">
    <!-- camera space -->
    <g style="fill: #111827" transform="translate(17.76816 155.564856) scale(0.11 -0.11)">
     <defs>
      <path id="NanumGothicCoding-73" d="M 582 147 
Q 992 -13 1427 -13 
Q 1792 -13 2045 169 
Q 2298 352 2298 538 
Q 2298 710 2157 838 
Q 2016 966 1811 1069 
Q 1594 1184 1386 1289 
Q 1178 1395 966 1504 
Q 723 1626 611 1802 
Q 499 1978 499 2144 
Q 499 2349 588 2509 
Q 678 2669 832 2790 
Q 986 2912 1206 2973 
Q 1427 3034 1677 3034 
Q 1907 3034 2099 3008 
Q 2291 2982 2496 2918 
Q 2541 2906 2569 2880 
Q 2598 2854 2592 2816 
L 2573 2611 
Q 2566 2560 2531 2547 
Q 2496 2534 2464 2547 
Q 2278 2618 2105 2643 
Q 1933 2669 1722 2669 
Q 947 2669 947 2144 
Q 947 2048 1049 1942 
Q 1152 1837 1402 1728 
Q 1645 1613 1840 1520 
Q 2035 1427 2272 1299 
Q 2554 1133 2659 953 
Q 2765 774 2765 544 
Q 2765 358 2656 166 
Q 2547 -26 2364 -141 
Q 2182 -256 1945 -317 
Q 1709 -378 1466 -378 
Q 1312 -378 1193 -371 
Q 1075 -365 969 -352 
Q 864 -339 758 -320 
Q 653 -301 538 -269 
Q 435 -237 442 -160 
L 474 90 
Q 493 186 582 147 
z
" transform="scale(0.015625)"/>
      <path id="NanumGothicCoding-70" d="M 397 2848 
Q 397 2931 486 2931 
L 736 2931 
Q 826 2931 826 2848 
L 826 2381 
Q 1088 2995 1722 2995 
Q 2016 2995 2256 2854 
Q 2496 2714 2669 2448 
Q 2842 2182 2915 1875 
Q 2989 1568 2989 1229 
Q 2989 627 2656 124 
Q 2323 -378 1722 -378 
Q 1402 -378 1174 -218 
Q 947 -58 826 173 
L 826 -1171 
Q 826 -1254 736 -1254 
L 486 -1254 
Q 397 -1254 397 -1171 
L 397 2848 
z
M 2534 1299 
Q 2541 1498 2496 1731 
Q 2451 1965 2345 2173 
Q 2240 2381 2080 2502 
Q 1920 2624 1683 2624 
Q 1446 2624 1286 2502 
Q 1126 2381 1020 2173 
Q 915 1965 876 1731 
Q 838 1498 838 1299 
Q 838 1114 876 874 
Q 915 634 1020 429 
Q 1126 224 1286 102 
Q 1446 -19 1683 -19 
Q 1920 -19 2080 102 
Q 2240 224 2349 429 
Q 2458 634 2499 874 
Q 2541 1114 2534 1299 
z
" transform="scale(0.015625)"/>
     </defs>
     <use xlink:href="#NanumGothicCoding-63"/>
     <use xlink:href="#NanumGothicCoding-61" transform="translate(49.999985 0)"/>
     <use xlink:href="#NanumGothicCoding-6d" transform="translate(99.999969 0)"/>
     <use xlink:href="#NanumGothicCoding-65" transform="translate(149.999954 0)"/>
     <use xlink:href="#NanumGothicCoding-72" transform="translate(199.999939 0)"/>
     <use xlink:href="#NanumGothicCoding-61" transform="translate(249.999924 0)"/>
     <use xlink:href="#NanumGothicCoding-20" transform="translate(299.999908 0)"/>
     <use xlink:href="#NanumGothicCoding-73" transform="translate(349.999893 0)"/>
     <use xlink:href="#NanumGothicCoding-70" transform="translate(399.999878 0)"/>
     <use xlink:href="#NanumGothicCoding-61" transform="translate(449.999863 0)"/>
     <use xlink:href="#NanumGothicCoding-63" transform="translate(499.999847 0)"/>
     <use xlink:href="#NanumGothicCoding-65" transform="translate(549.999832 0)"/>
    </g>
   </g>
   <g id="text_6">
    <!--  ↓ projectionMatrix -->
    <g style="fill: #111827" transform="translate(17.76816 184.683184) scale(0.11 -0.11)">
     <defs>
      <path id="NanumGothicCoding-6a" d="M 1453 3968 
Q 1453 4115 1558 4220 
Q 1664 4326 1811 4326 
Q 1958 4326 2064 4220 
Q 2170 4115 2170 3968 
Q 2170 3821 2064 3715 
Q 1958 3610 1811 3610 
Q 1664 3610 1558 3715 
Q 1453 3821 1453 3968 
z
M 614 134 
Q 704 134 704 45 
L 704 -288 
Q 704 -582 774 -698 
Q 832 -787 934 -838 
Q 1037 -896 1184 -896 
Q 1331 -896 1434 -838 
Q 1536 -787 1594 -698 
Q 1664 -582 1664 -243 
L 1664 2534 
L 794 2534 
Q 704 2534 704 2624 
L 704 2842 
Q 704 2931 794 2931 
L 2010 2931 
Q 2099 2931 2099 2842 
L 2099 -288 
Q 2099 -1267 1229 -1267 
Q 262 -1267 262 -288 
L 269 45 
Q 269 134 358 134 
L 614 134 
z
" transform="scale(0.015625)"/>
      <path id="NanumGothicCoding-6e" d="M 2797 -186 
Q 2797 -275 2707 -275 
L 2451 -275 
Q 2362 -275 2362 -186 
L 2362 1574 
Q 2362 2163 2202 2409 
Q 2042 2656 1658 2656 
Q 1318 2656 1088 2384 
Q 858 2112 858 1562 
L 858 -186 
Q 858 -275 768 -275 
L 512 -275 
Q 422 -275 422 -186 
L 422 2118 
Q 422 2394 419 2547 
Q 416 2701 403 2842 
Q 397 2886 425 2908 
Q 454 2931 493 2931 
L 723 2931 
Q 813 2931 813 2842 
L 813 2483 
Q 966 2758 1187 2889 
Q 1408 3021 1696 3021 
Q 2259 3021 2528 2669 
Q 2797 2317 2797 1677 
L 2797 -186 
z
" transform="scale(0.015625)"/>
     </defs>
     <use xlink:href="#NanumGothicCoding-20"/>
     <use xlink:href="#NanumGothicCoding-2193" transform="translate(49.999985 0)"/>
     <use xlink:href="#NanumGothicCoding-20" transform="translate(149.999969 0)"/>
     <use xlink:href="#NanumGothicCoding-70" transform="translate(199.999954 0)"/>
     <use xlink:href="#NanumGothicCoding-72" transform="translate(249.999939 0)"/>
     <use xlink:href="#NanumGothicCoding-6f" transform="translate(299.999924 0)"/>
     <use xlink:href="#NanumGothicCoding-6a" transform="translate(349.999908 0)"/>
     <use xlink:href="#NanumGothicCoding-65" transform="translate(399.999893 0)"/>
     <use xlink:href="#NanumGothicCoding-63" transform="translate(449.999878 0)"/>
     <use xlink:href="#NanumGothicCoding-74" transform="translate(499.999863 0)"/>
     <use xlink:href="#NanumGothicCoding-69" transform="translate(549.999847 0)"/>
     <use xlink:href="#NanumGothicCoding-6f" transform="translate(599.999832 0)"/>
     <use xlink:href="#NanumGothicCoding-6e" transform="translate(649.999817 0)"/>
     <use xlink:href="#NanumGothicCoding-4d" transform="translate(699.999802 0)"/>
     <use xlink:href="#NanumGothicCoding-61" transform="translate(749.999786 0)"/>
     <use xlink:href="#NanumGothicCoding-74" transform="translate(799.999771 0)"/>
     <use xlink:href="#NanumGothicCoding-72" transform="translate(849.999756 0)"/>
     <use xlink:href="#NanumGothicCoding-69" transform="translate(899.999741 0)"/>
     <use xlink:href="#NanumGothicCoding-78" transform="translate(949.999725 0)"/>
    </g>
   </g>
   <g id="text_7">
    <!-- clip space -->
    <g style="fill: #111827" transform="translate(17.76816 211.4262) scale(0.11 -0.11)">
     <use xlink:href="#NanumGothicCoding-63"/>
     <use xlink:href="#NanumGothicCoding-6c" transform="translate(49.999985 0)"/>
     <use xlink:href="#NanumGothicCoding-69" transform="translate(99.999969 0)"/>
     <use xlink:href="#NanumGothicCoding-70" transform="translate(149.999954 0)"/>
     <use xlink:href="#NanumGothicCoding-20" transform="translate(199.999939 0)"/>
     <use xlink:href="#NanumGothicCoding-73" transform="translate(249.999924 0)"/>
     <use xlink:href="#NanumGothicCoding-70" transform="translate(299.999908 0)"/>
     <use xlink:href="#NanumGothicCoding-61" transform="translate(349.999893 0)"/>
     <use xlink:href="#NanumGothicCoding-63" transform="translate(399.999878 0)"/>
     <use xlink:href="#NanumGothicCoding-65" transform="translate(449.999863 0)"/>
    </g>
   </g>
   <g id="text_8">
    <!--  ↓ perspective divide -->
    <g style="fill: #111827" transform="translate(17.76816 240.544528) scale(0.11 -0.11)">
     <use xlink:href="#NanumGothicCoding-20"/>
     <use xlink:href="#NanumGothicCoding-2193" transform="translate(49.999985 0)"/>
     <use xlink:href="#NanumGothicCoding-20" transform="translate(149.999969 0)"/>
     <use xlink:href="#NanumGothicCoding-70" transform="translate(199.999954 0)"/>
     <use xlink:href="#NanumGothicCoding-65" transform="translate(249.999939 0)"/>
     <use xlink:href="#NanumGothicCoding-72" transform="translate(299.999924 0)"/>
     <use xlink:href="#NanumGothicCoding-73" transform="translate(349.999908 0)"/>
     <use xlink:href="#NanumGothicCoding-70" transform="translate(399.999893 0)"/>
     <use xlink:href="#NanumGothicCoding-65" transform="translate(449.999878 0)"/>
     <use xlink:href="#NanumGothicCoding-63" transform="translate(499.999863 0)"/>
     <use xlink:href="#NanumGothicCoding-74" transform="translate(549.999847 0)"/>
     <use xlink:href="#NanumGothicCoding-69" transform="translate(599.999832 0)"/>
     <use xlink:href="#NanumGothicCoding-76" transform="translate(649.999817 0)"/>
     <use xlink:href="#NanumGothicCoding-65" transform="translate(699.999802 0)"/>
     <use xlink:href="#NanumGothicCoding-20" transform="translate(749.999786 0)"/>
     <use xlink:href="#NanumGothicCoding-64" transform="translate(799.999771 0)"/>
     <use xlink:href="#NanumGothicCoding-69" transform="translate(849.999756 0)"/>
     <use xlink:href="#NanumGothicCoding-76" transform="translate(899.999741 0)"/>
     <use xlink:href="#NanumGothicCoding-69" transform="translate(949.999725 0)"/>
     <use xlink:href="#NanumGothicCoding-64" transform="translate(999.99971 0)"/>
     <use xlink:href="#NanumGothicCoding-65" transform="translate(1049.999695 0)"/>
    </g>
   </g>
   <g id="text_9">
    <!-- screen -->
    <g style="fill: #111827" transform="translate(17.76816 267.287544) scale(0.11 -0.11)">
     <use xlink:href="#NanumGothicCoding-73"/>
     <use xlink:href="#NanumGothicCoding-63" transform="translate(49.999985 0)"/>
     <use xlink:href="#NanumGothicCoding-72" transform="translate(99.999969 0)"/>
     <use xlink:href="#NanumGothicCoding-65" transform="translate(149.999954 0)"/>
     <use xlink:href="#NanumGothicCoding-65" transform="translate(199.999939 0)"/>
     <use xlink:href="#NanumGothicCoding-6e" transform="translate(249.999924 0)"/>
    </g>
   </g>
  </g>
 </g>
 <defs>
  <clipPath id="pa9ae2bcd69">
   <rect x="5.76" y="5.76" width="300.204" height="253.9152"/>
  </clipPath>
 </defs>
</svg>
