<?xml version="1.0" encoding="utf-8" standalone="no"?>
<!DOCTYPE svg PUBLIC "-//W3C//DTD SVG 1.1//EN"
  "http://www.w3.org/Graphics/SVG/1.1/DTD/svg11.dtd">
<svg xmlns:xlink="http://www.w3.org/1999/xlink" width="385.08pt" height="247.889476pt" viewBox="0 0 385.08 247.889476" xmlns="http://www.w3.org/2000/svg" version="1.1">
 <metadata>
  <rdf:RDF xmlns:dc="http://purl.org/dc/elements/1.1/" xmlns:cc="http://creativecommons.org/ns#" xmlns:rdf="http://www.w3.org/1999/02/22-rdf-syntax-ns#">
   <cc:Work>
    <dc:type rdf:resource="http://purl.org/dc/dcmitype/StillImage"/>
    <dc:date>2026-07-08T05:12:54.807063</dc:date>
    <dc:format>image/svg+xml</dc:format>
    <dc:creator>
     <cc:Agent>
      <dc:title>Matplotlib v3.10.8, https://matplotlib.org/</dc:title>
     </cc:Agent>
    </dc:creator>
   </cc:Work>
  </rdf:RDF>
 </metadata>
 <defs>
  <style type="text/css">*{stroke-linejoin: round; stroke-linecap: butt}</style>
 </defs>
 <g id="figure_1">
  <g id="patch_1">
   <path d="M 0 247.889476 
L 385.08 247.889476 
L 385.08 0 
L 0 0 
z
" style="fill: #ffffff"/>
  </g>
  <g id="axes_1">
   <g id="line2d_1">
    <path d="M 44.962759 195.662166 
L 299.222069 104.855269 
" clip-path="url(#p9e6e2eda52)" style="fill: none; stroke: #111827; stroke-width: 2.5; stroke-linecap: square"/>
   </g>
   <g id="line2d_2">
    <defs>
     <path id="mf5a484397c" d="M 0 4.5 
C 1.193414 4.5 2.338109 4.025852 3.181981 3.181981 
C 4.025852 2.338109 4.5 1.193414 4.5 0 
C 4.5 -1.193414 4.025852 -2.338109 3.181981 -3.181981 
C 2.338109 -4.025852 1.193414 -4.5 0 -4.5 
C -1.193414 -4.5 -2.338109 -4.025852 -3.181981 -3.181981 
C -4.025852 -2.338109 -4.5 -1.193414 -4.5 0 
C -4.5 1.193414 -4.025852 2.338109 -3.181981 3.181981 
C -2.338109 4.025852 -1.193414 4.5 0 4.5 
z
" style="stroke: #2563eb"/>
    </defs>
    <g clip-path="url(#p9e6e2eda52)">
     <use xlink:href="#mf5a484397c" x="110.343724" y="172.052373" style="fill: #2563eb; stroke: #2563eb"/>
    </g>
   </g>
   <g id="text_1">
    <!-- 경사면에서는 중력을 경사 방향으로 투영해 생각할 수 있다 -->
    <g style="fill: #111827" transform="translate(8.64 20.098594) scale(0.15 -0.15)">
     <defs>
      <path id="NanumGothicBold-acbd" d="M 3450 4365 
Q 3450 4339 3443 4291 
Q 3437 4243 3427 4192 
Q 3418 4141 3408 4099 
Q 3398 4058 3392 4038 
Q 3386 4032 3386 4019 
L 4544 4019 
L 4544 4979 
Q 4544 5062 4627 5062 
L 5197 5062 
Q 5280 5062 5280 4979 
L 5280 1587 
Q 5280 1491 5197 1491 
L 4627 1491 
Q 4544 1491 4544 1581 
L 4544 2195 
L 3168 2195 
Q 3136 2195 3107 2220 
Q 3078 2246 3078 2278 
L 3078 2701 
Q 3078 2733 3107 2755 
Q 3136 2778 3168 2778 
L 4544 2778 
L 4544 3430 
L 3155 3430 
Q 2842 2771 2275 2265 
Q 1709 1760 890 1414 
Q 819 1382 768 1392 
Q 717 1402 685 1466 
L 518 1805 
Q 493 1862 502 1913 
Q 512 1965 576 1997 
Q 966 2163 1296 2380 
Q 1626 2598 1885 2854 
Q 2144 3110 2323 3388 
Q 2502 3667 2592 3955 
Q 2624 4058 2611 4096 
Q 2598 4134 2502 4134 
L 787 4134 
Q 742 4134 720 4166 
Q 698 4198 698 4237 
L 698 4659 
Q 698 4749 794 4749 
L 2938 4749 
Q 3219 4749 3334 4659 
Q 3450 4570 3450 4365 
z
M 5293 198 
Q 5293 -70 5149 -294 
Q 5005 -518 4752 -678 
Q 4499 -838 4147 -928 
Q 3795 -1018 3386 -1018 
Q 2944 -1018 2595 -931 
Q 2246 -845 2000 -685 
Q 1754 -525 1622 -301 
Q 1491 -77 1491 198 
Q 1491 467 1622 691 
Q 1754 915 2000 1072 
Q 2246 1229 2595 1318 
Q 2944 1408 3386 1408 
Q 3795 1408 4147 1321 
Q 4499 1235 4752 1075 
Q 5005 915 5149 694 
Q 5293 474 5293 198 
z
M 4538 179 
Q 4538 339 4445 457 
Q 4352 576 4195 659 
Q 4038 742 3827 784 
Q 3616 826 3386 826 
Q 2867 826 2556 662 
Q 2246 499 2246 179 
Q 2246 -122 2563 -278 
Q 2880 -435 3386 -435 
Q 3616 -435 3827 -396 
Q 4038 -358 4195 -281 
Q 4352 -205 4445 -89 
Q 4538 26 4538 179 
z
" transform="scale(0.015625)"/>
      <path id="NanumGothicBold-c0ac" d="M 5971 2202 
Q 5971 2163 5942 2137 
Q 5914 2112 5882 2112 
L 5011 2112 
L 5011 -928 
Q 5011 -1011 4928 -1011 
L 4358 -1011 
Q 4275 -1011 4275 -928 
L 4275 4979 
Q 4275 5062 4358 5062 
L 4928 5062 
Q 5011 5062 5011 4979 
L 5011 2726 
L 5882 2726 
Q 5914 2726 5942 2704 
Q 5971 2682 5971 2650 
L 5971 2202 
z
M 730 403 
Q 608 307 506 410 
L 205 691 
Q 115 781 224 890 
Q 640 1267 934 1728 
Q 1229 2189 1408 2714 
Q 1485 2944 1539 3171 
Q 1594 3398 1626 3632 
Q 1658 3866 1670 4118 
Q 1683 4371 1677 4653 
Q 1677 4691 1705 4720 
Q 1734 4749 1766 4749 
L 2336 4730 
Q 2368 4730 2393 4701 
Q 2419 4672 2419 4634 
Q 2419 4243 2393 3907 
Q 2368 3571 2310 3258 
Q 2374 2957 2508 2656 
Q 2643 2355 2822 2076 
Q 3002 1798 3210 1564 
Q 3418 1331 3622 1165 
Q 3725 1088 3635 966 
L 3366 640 
Q 3334 595 3280 588 
Q 3226 582 3162 627 
Q 3008 749 2835 928 
Q 2662 1107 2505 1315 
Q 2349 1523 2214 1744 
Q 2080 1965 1997 2170 
Q 1882 1901 1734 1645 
Q 1587 1389 1420 1161 
Q 1254 934 1078 739 
Q 902 544 730 403 
z
" transform="scale(0.015625)"/>
      <path id="NanumGothicBold-ba74" d="M 3456 2080 
Q 3456 1830 3357 1734 
Q 3258 1638 3014 1638 
L 1114 1638 
Q 845 1638 742 1734 
Q 640 1830 640 2080 
L 640 4288 
Q 640 4531 739 4624 
Q 838 4717 1082 4717 
L 3014 4717 
Q 3258 4717 3357 4630 
Q 3456 4544 3456 4288 
L 3456 4045 
L 4544 4045 
L 4544 4979 
Q 4544 5062 4627 5062 
L 5197 5062 
Q 5280 5062 5280 4979 
L 5280 768 
Q 5280 685 5197 685 
L 4627 685 
Q 4544 685 4544 768 
L 4544 2202 
L 3456 2202 
L 3456 2080 
z
M 5466 -826 
Q 5466 -864 5437 -883 
Q 5408 -902 5376 -902 
L 2048 -902 
Q 1760 -902 1657 -800 
Q 1555 -698 1555 -448 
L 1555 870 
Q 1555 902 1587 934 
Q 1619 966 1651 966 
L 2195 966 
Q 2240 966 2269 934 
Q 2298 902 2298 870 
L 2298 -186 
Q 2298 -250 2323 -269 
Q 2349 -288 2413 -288 
L 5376 -288 
Q 5408 -288 5437 -313 
Q 5466 -339 5466 -371 
L 5466 -826 
z
M 2733 4045 
Q 2733 4096 2717 4112 
Q 2701 4128 2650 4128 
L 1446 4128 
Q 1395 4128 1379 4115 
Q 1363 4102 1363 4051 
L 1363 2310 
Q 1363 2246 1379 2233 
Q 1395 2221 1446 2221 
L 2650 2221 
Q 2701 2221 2717 2233 
Q 2733 2246 2733 2310 
L 2733 4045 
z
M 4544 2790 
L 4544 3456 
L 3456 3456 
L 3456 2790 
L 4544 2790 
z
" transform="scale(0.015625)"/>
      <path id="NanumGothicBold-c5d0" d="M 2342 2630 
Q 2342 2874 2304 3117 
Q 2266 3360 2182 3558 
Q 2099 3757 1968 3878 
Q 1837 4000 1658 4000 
Q 1491 4000 1369 3875 
Q 1248 3750 1171 3552 
Q 1094 3354 1056 3110 
Q 1018 2867 1018 2630 
Q 1018 2400 1056 2157 
Q 1094 1914 1171 1712 
Q 1248 1510 1369 1382 
Q 1491 1254 1658 1254 
Q 1837 1254 1965 1382 
Q 2093 1510 2176 1708 
Q 2259 1907 2300 2150 
Q 2342 2394 2342 2630 
z
M 4314 -717 
Q 4314 -806 4230 -806 
L 3706 -806 
Q 3616 -806 3616 -717 
L 3616 2291 
L 3034 2291 
Q 3002 1901 2883 1593 
Q 2765 1286 2582 1072 
Q 2400 858 2163 746 
Q 1926 634 1651 634 
Q 1344 634 1094 771 
Q 845 909 669 1168 
Q 493 1427 397 1798 
Q 301 2170 301 2637 
Q 301 3142 403 3520 
Q 506 3898 685 4147 
Q 864 4397 1110 4518 
Q 1357 4640 1651 4640 
Q 1933 4640 2176 4534 
Q 2419 4429 2604 4214 
Q 2790 4000 2905 3673 
Q 3021 3347 3046 2906 
L 3616 2906 
L 3616 4870 
Q 3616 4954 3706 4954 
L 4230 4954 
Q 4314 4954 4314 4870 
L 4314 -717 
z
M 5549 -934 
Q 5549 -1018 5466 -1018 
L 4909 -1018 
Q 4826 -1018 4826 -934 
L 4826 4979 
Q 4826 5062 4915 5062 
L 5466 5062 
Q 5549 5062 5549 4979 
L 5549 -934 
z
" transform="scale(0.015625)"/>
      <path id="NanumGothicBold-c11c" d="M 5382 -928 
Q 5382 -1011 5299 -1011 
L 4730 -1011 
Q 4646 -1011 4646 -928 
L 4646 2458 
L 3328 2458 
Q 3296 2458 3267 2483 
Q 3238 2509 3238 2541 
L 3238 2995 
Q 3238 3027 3267 3049 
Q 3296 3072 3328 3072 
L 4646 3072 
L 4646 4979 
Q 4646 5062 4730 5062 
L 5299 5062 
Q 5382 5062 5382 4979 
L 5382 -928 
z
M 800 339 
Q 678 243 576 346 
L 275 627 
Q 186 717 294 819 
Q 710 1203 1004 1664 
Q 1299 2125 1478 2650 
Q 1638 3117 1699 3600 
Q 1760 4083 1747 4653 
Q 1747 4691 1776 4720 
Q 1805 4749 1837 4749 
L 2406 4730 
Q 2438 4730 2464 4701 
Q 2490 4672 2490 4634 
Q 2490 3846 2374 3187 
Q 2432 2880 2566 2569 
Q 2701 2259 2883 1974 
Q 3066 1690 3277 1446 
Q 3488 1203 3699 1037 
Q 3802 960 3712 832 
L 3443 506 
Q 3411 461 3356 454 
Q 3302 448 3238 493 
Q 3078 614 2902 800 
Q 2726 986 2566 1200 
Q 2406 1414 2272 1641 
Q 2138 1869 2061 2080 
Q 1946 1811 1798 1561 
Q 1651 1312 1488 1085 
Q 1325 858 1149 669 
Q 973 480 800 339 
z
" transform="scale(0.015625)"/>
      <path id="NanumGothicBold-b294" d="M 5158 -787 
Q 5158 -826 5126 -845 
Q 5094 -864 5062 -864 
L 1542 -864 
Q 1248 -864 1149 -761 
Q 1050 -659 1050 -410 
L 1050 979 
Q 1050 1011 1078 1040 
Q 1107 1069 1139 1069 
L 1690 1069 
Q 1728 1069 1757 1040 
Q 1786 1011 1786 979 
L 1786 -147 
Q 1786 -211 1811 -230 
Q 1837 -250 1907 -250 
L 5062 -250 
Q 5094 -250 5126 -272 
Q 5158 -294 5158 -326 
L 5158 -787 
z
M 5082 2874 
Q 5082 2829 5053 2809 
Q 5024 2790 4992 2790 
L 1562 2790 
Q 1267 2790 1168 2896 
Q 1069 3002 1069 3251 
L 1069 4858 
Q 1069 4890 1097 4918 
Q 1126 4947 1158 4947 
L 1715 4947 
Q 1754 4947 1782 4918 
Q 1811 4890 1811 4858 
L 1811 3507 
Q 1811 3443 1836 3424 
Q 1862 3405 1933 3405 
L 4992 3405 
Q 5024 3405 5053 3382 
Q 5082 3360 5082 3328 
L 5082 2874 
z
M 5875 1619 
Q 5875 1587 5843 1552 
Q 5811 1517 5779 1517 
L 211 1517 
Q 173 1517 147 1549 
Q 122 1581 122 1619 
L 122 2042 
Q 122 2131 211 2131 
L 5779 2131 
Q 5811 2131 5843 2102 
Q 5875 2074 5875 2042 
L 5875 1619 
z
" transform="scale(0.015625)"/>
      <path id="NanumGothicBold-20" transform="scale(0.015625)"/>
      <path id="NanumGothicBold-c911" d="M 5018 83 
Q 5018 -442 4493 -730 
Q 3968 -1018 2995 -1018 
Q 2022 -1018 1497 -730 
Q 973 -442 973 83 
Q 973 550 1398 828 
Q 1824 1107 2618 1171 
L 2618 1773 
L 211 1773 
Q 173 1773 147 1805 
Q 122 1837 122 1875 
L 122 2278 
Q 122 2310 147 2342 
Q 173 2374 211 2374 
L 5779 2374 
Q 5811 2374 5843 2342 
Q 5875 2310 5875 2278 
L 5875 1875 
Q 5875 1843 5830 1808 
Q 5786 1773 5754 1773 
L 3354 1773 
L 3354 1171 
Q 4154 1114 4586 832 
Q 5018 550 5018 83 
z
M 4768 4640 
Q 4768 4448 4525 4186 
Q 4403 4058 4227 3933 
Q 4051 3808 3840 3680 
Q 4000 3635 4195 3587 
Q 4390 3539 4598 3491 
Q 4806 3443 5011 3401 
Q 5216 3360 5389 3334 
Q 5440 3328 5469 3296 
Q 5498 3264 5472 3206 
L 5325 2854 
Q 5312 2816 5273 2790 
Q 5235 2765 5184 2778 
Q 4954 2803 4685 2857 
Q 4416 2912 4131 2982 
Q 3846 3053 3568 3136 
Q 3290 3219 3053 3302 
Q 2547 3098 1974 2934 
Q 1402 2771 832 2675 
Q 781 2662 745 2688 
Q 710 2714 698 2746 
L 589 3130 
Q 576 3168 598 3203 
Q 621 3238 653 3245 
Q 1139 3347 1555 3456 
Q 1971 3565 2320 3686 
Q 2669 3808 2963 3942 
Q 3258 4077 3501 4224 
Q 3539 4250 3571 4269 
Q 3603 4288 3609 4301 
Q 3616 4314 3590 4323 
Q 3565 4333 3494 4333 
L 1158 4333 
Q 1075 4333 1075 4422 
L 1075 4851 
Q 1075 4928 1158 4928 
L 4250 4928 
Q 4755 4928 4768 4640 
z
M 4288 77 
Q 4288 307 3961 464 
Q 3635 621 2995 621 
Q 2355 621 2028 464 
Q 1702 307 1702 77 
Q 1702 -147 2028 -304 
Q 2355 -461 2995 -461 
Q 3635 -461 3961 -304 
Q 4288 -147 4288 77 
z
" transform="scale(0.015625)"/>
      <path id="NanumGothicBold-b825" d="M 3642 1901 
Q 3648 1862 3616 1827 
Q 3584 1792 3552 1786 
Q 3309 1728 3001 1689 
Q 2694 1651 2368 1628 
Q 2042 1606 1712 1600 
Q 1382 1594 1094 1606 
Q 845 1619 755 1712 
Q 666 1805 666 2010 
L 666 3117 
Q 666 3315 752 3395 
Q 838 3475 1043 3475 
L 2259 3475 
Q 2323 3475 2336 3491 
Q 2349 3507 2349 3578 
L 2349 4122 
Q 2349 4192 2336 4205 
Q 2323 4218 2259 4218 
L 781 4218 
Q 749 4218 720 4243 
Q 691 4269 691 4301 
L 691 4710 
Q 691 4742 720 4764 
Q 749 4787 781 4787 
L 2637 4787 
Q 2886 4787 2976 4688 
Q 3066 4589 3066 4365 
L 3066 3360 
Q 3066 3123 2966 3033 
Q 2867 2944 2662 2944 
L 1472 2944 
Q 1421 2944 1401 2928 
Q 1382 2912 1382 2854 
L 1382 2298 
Q 1382 2189 1498 2182 
Q 1696 2170 1936 2176 
Q 2176 2182 2429 2201 
Q 2682 2221 2944 2249 
Q 3206 2278 3450 2323 
Q 3482 2330 3526 2314 
Q 3571 2298 3578 2259 
L 3642 1901 
z
M 3533 4237 
L 4544 4237 
L 4544 4979 
Q 4544 5062 4627 5062 
L 5197 5062 
Q 5280 5062 5280 4979 
L 5280 1472 
Q 5280 1389 5197 1389 
L 4627 1389 
Q 4544 1389 4544 1472 
L 4544 2573 
L 3533 2573 
Q 3501 2573 3469 2595 
Q 3437 2618 3437 2650 
L 3437 3066 
Q 3437 3098 3469 3120 
Q 3501 3142 3533 3142 
L 4544 3142 
L 4544 3661 
L 3533 3661 
Q 3501 3661 3469 3683 
Q 3437 3706 3437 3738 
L 3437 4160 
Q 3437 4192 3469 4214 
Q 3501 4237 3533 4237 
z
M 5280 -909 
Q 5280 -941 5251 -969 
Q 5222 -998 5190 -998 
L 4640 -998 
Q 4602 -998 4573 -969 
Q 4544 -941 4544 -909 
L 4544 352 
Q 4544 416 4518 435 
Q 4493 454 4422 454 
L 1446 454 
Q 1414 454 1385 476 
Q 1357 499 1357 531 
L 1357 992 
Q 1357 1030 1385 1049 
Q 1414 1069 1446 1069 
L 4858 1069 
Q 5101 1069 5190 969 
Q 5280 870 5280 627 
L 5280 -909 
z
" transform="scale(0.015625)"/>
      <path id="NanumGothicBold-c744" d="M 3008 4570 
Q 2726 4570 2496 4528 
Q 2266 4486 2096 4409 
Q 1926 4333 1833 4230 
Q 1741 4128 1741 4013 
Q 1741 3898 1833 3802 
Q 1926 3706 2096 3632 
Q 2266 3558 2496 3520 
Q 2726 3482 3008 3482 
Q 3283 3482 3516 3520 
Q 3750 3558 3920 3632 
Q 4090 3706 4182 3805 
Q 4275 3904 4275 4019 
Q 4275 4134 4182 4233 
Q 4090 4333 3920 4409 
Q 3750 4486 3516 4528 
Q 3283 4570 3008 4570 
z
M 5018 4019 
Q 5018 3789 4886 3587 
Q 4755 3386 4499 3242 
Q 4243 3098 3868 3014 
Q 3494 2931 3008 2931 
Q 2522 2931 2147 3014 
Q 1773 3098 1517 3242 
Q 1261 3386 1129 3587 
Q 998 3789 998 4019 
Q 998 4250 1129 4454 
Q 1261 4659 1517 4806 
Q 1773 4954 2147 5040 
Q 2522 5126 3008 5126 
Q 3494 5126 3868 5040 
Q 4243 4954 4499 4806 
Q 4755 4659 4886 4454 
Q 5018 4250 5018 4019 
z
M 5114 -845 
Q 5114 -877 5085 -905 
Q 5056 -934 5030 -934 
L 1459 -934 
Q 1210 -934 1120 -844 
Q 1030 -755 1030 -550 
L 1030 198 
Q 1030 403 1116 492 
Q 1203 582 1453 582 
L 4166 582 
Q 4218 582 4230 592 
Q 4243 602 4243 666 
L 4243 858 
Q 4243 928 4230 944 
Q 4218 960 4160 960 
L 1107 960 
Q 1075 960 1046 982 
Q 1018 1005 1018 1037 
L 1018 1466 
Q 1018 1498 1046 1523 
Q 1075 1549 1107 1549 
L 4531 1549 
Q 4794 1549 4880 1469 
Q 4966 1389 4966 1171 
L 4966 422 
Q 4966 198 4880 121 
Q 4794 45 4531 45 
L 1830 45 
Q 1779 45 1766 29 
Q 1754 13 1754 -45 
L 1754 -262 
Q 1754 -320 1766 -329 
Q 1779 -339 1837 -339 
L 5024 -339 
Q 5056 -339 5085 -364 
Q 5114 -390 5114 -429 
L 5114 -845 
z
M 211 1958 
Q 122 1958 122 2048 
L 122 2458 
Q 122 2496 147 2525 
Q 173 2554 211 2554 
L 5786 2554 
Q 5818 2554 5850 2522 
Q 5882 2490 5882 2458 
L 5882 2048 
Q 5882 2016 5850 1987 
Q 5818 1958 5786 1958 
L 211 1958 
z
" transform="scale(0.015625)"/>
      <path id="NanumGothicBold-bc29" d="M 4307 186 
Q 4307 346 4214 464 
Q 4122 582 3965 665 
Q 3808 749 3600 790 
Q 3392 832 3155 832 
Q 2643 832 2329 669 
Q 2016 506 2016 186 
Q 2016 -115 2336 -272 
Q 2656 -429 3155 -429 
Q 3392 -429 3600 -390 
Q 3808 -352 3965 -275 
Q 4122 -198 4214 -83 
Q 4307 32 4307 186 
z
M 5062 205 
Q 5062 -64 4918 -288 
Q 4774 -512 4521 -672 
Q 4269 -832 3917 -921 
Q 3565 -1011 3155 -1011 
Q 2714 -1011 2365 -924 
Q 2016 -838 1769 -678 
Q 1523 -518 1392 -294 
Q 1261 -70 1261 205 
Q 1261 474 1392 698 
Q 1523 922 1769 1078 
Q 2016 1235 2365 1324 
Q 2714 1414 3155 1414 
Q 3565 1414 3917 1328 
Q 4269 1242 4521 1082 
Q 4774 922 4918 701 
Q 5062 480 5062 205 
z
M 5965 2963 
Q 5965 2931 5936 2905 
Q 5907 2880 5875 2880 
L 5005 2880 
L 5005 1594 
Q 5005 1562 4979 1533 
Q 4954 1504 4922 1504 
L 4352 1504 
Q 4320 1504 4294 1533 
Q 4269 1562 4269 1600 
L 4269 4979 
Q 4269 5062 4352 5062 
L 4922 5062 
Q 5005 5062 5005 4979 
L 5005 3488 
L 5875 3488 
Q 5907 3488 5936 3465 
Q 5965 3443 5965 3411 
L 5965 2963 
z
M 2688 3309 
L 1331 3309 
L 1331 2662 
Q 1331 2554 1446 2554 
L 2573 2554 
Q 2688 2554 2688 2662 
L 2688 3309 
z
M 3418 2381 
Q 3418 2163 3315 2057 
Q 3213 1952 2938 1952 
L 1088 1952 
Q 806 1952 704 2048 
Q 602 2144 602 2400 
L 602 4774 
Q 602 4858 685 4858 
L 1242 4858 
Q 1274 4858 1302 4832 
Q 1331 4806 1331 4774 
L 1331 3904 
L 2688 3904 
L 2688 4781 
Q 2688 4819 2713 4844 
Q 2739 4870 2771 4870 
L 3334 4870 
Q 3366 4870 3392 4844 
Q 3418 4819 3418 4781 
L 3418 2381 
z
" transform="scale(0.015625)"/>
      <path id="NanumGothicBold-d5a5" d="M 5069 77 
Q 5069 -160 4925 -358 
Q 4781 -557 4528 -697 
Q 4275 -838 3923 -915 
Q 3571 -992 3155 -992 
Q 2720 -992 2368 -915 
Q 2016 -838 1769 -697 
Q 1523 -557 1392 -358 
Q 1261 -160 1261 77 
Q 1261 314 1392 506 
Q 1523 698 1769 838 
Q 2016 979 2368 1056 
Q 2720 1133 3155 1133 
Q 3571 1133 3923 1056 
Q 4275 979 4528 838 
Q 4781 698 4925 506 
Q 5069 314 5069 77 
z
M 2118 3456 
Q 2413 3456 2665 3379 
Q 2918 3302 3104 3164 
Q 3290 3027 3395 2828 
Q 3501 2630 3501 2394 
Q 3501 2150 3395 1952 
Q 3290 1754 3101 1616 
Q 2912 1478 2659 1401 
Q 2406 1325 2112 1325 
Q 1824 1325 1574 1401 
Q 1325 1478 1139 1616 
Q 954 1754 848 1952 
Q 742 2150 742 2394 
Q 742 2630 848 2828 
Q 954 3027 1139 3164 
Q 1325 3302 1577 3379 
Q 1830 3456 2118 3456 
z
M 5875 2650 
Q 5914 2650 5942 2627 
Q 5971 2605 5971 2573 
L 5971 2118 
Q 5971 2086 5942 2060 
Q 5914 2035 5875 2035 
L 5011 2035 
L 5011 1318 
Q 5011 1235 4928 1235 
L 4358 1235 
Q 4275 1235 4275 1325 
L 4275 4979 
Q 4275 5062 4358 5062 
L 4928 5062 
Q 5011 5062 5011 4979 
L 5011 3821 
L 5875 3821 
Q 5914 3821 5942 3798 
Q 5971 3776 5971 3744 
L 5971 3296 
Q 5971 3264 5942 3238 
Q 5914 3213 5875 3213 
L 5011 3213 
L 5011 2650 
L 5875 2650 
z
M 3878 3738 
Q 3878 3699 3849 3670 
Q 3821 3642 3782 3642 
L 352 3642 
Q 314 3642 282 3674 
Q 250 3706 250 3744 
L 250 4102 
Q 250 4134 285 4169 
Q 320 4205 358 4205 
L 3782 4205 
Q 3821 4205 3849 4173 
Q 3878 4141 3878 4102 
L 3878 3738 
z
M 4314 58 
Q 4314 186 4221 285 
Q 4128 384 3968 451 
Q 3808 518 3600 550 
Q 3392 582 3155 582 
Q 2643 582 2332 451 
Q 2022 320 2022 58 
Q 2022 -192 2339 -313 
Q 2656 -435 3155 -435 
Q 3392 -435 3600 -406 
Q 3808 -378 3968 -314 
Q 4128 -250 4221 -160 
Q 4314 -70 4314 58 
z
M 2118 2899 
Q 1830 2899 1632 2761 
Q 1434 2624 1434 2394 
Q 1434 2157 1632 2019 
Q 1830 1882 2118 1882 
Q 2413 1882 2608 2019 
Q 2803 2157 2803 2394 
Q 2803 2624 2608 2761 
Q 2413 2899 2118 2899 
z
M 3046 4544 
Q 3046 4506 3017 4470 
Q 2989 4435 2938 4435 
L 1229 4435 
Q 1203 4435 1168 4460 
Q 1133 4486 1133 4538 
L 1133 4902 
Q 1133 4947 1168 4972 
Q 1203 4998 1229 4998 
L 2938 4998 
Q 2982 4998 3014 4966 
Q 3046 4934 3046 4896 
L 3046 4544 
z
" transform="scale(0.015625)"/>
      <path id="NanumGothicBold-c73c" d="M 5882 166 
Q 5882 134 5850 102 
Q 5818 70 5786 70 
L 211 70 
Q 173 70 147 102 
Q 122 134 122 166 
L 122 589 
Q 122 627 147 656 
Q 173 685 211 685 
L 5786 685 
Q 5818 685 5850 653 
Q 5882 621 5882 589 
L 5882 166 
z
M 3002 1741 
Q 2554 1741 2170 1843 
Q 1786 1946 1504 2138 
Q 1222 2330 1062 2598 
Q 902 2867 902 3200 
Q 902 3533 1062 3801 
Q 1222 4070 1504 4262 
Q 1786 4454 2170 4556 
Q 2554 4659 3002 4659 
Q 3450 4659 3834 4556 
Q 4218 4454 4499 4262 
Q 4781 4070 4937 3801 
Q 5094 3533 5094 3200 
Q 5094 2867 4937 2598 
Q 4781 2330 4499 2138 
Q 4218 1946 3834 1843 
Q 3450 1741 3002 1741 
z
M 3002 4051 
Q 2733 4051 2489 3990 
Q 2246 3930 2064 3818 
Q 1882 3706 1773 3549 
Q 1664 3392 1664 3200 
Q 1664 3008 1773 2848 
Q 1882 2688 2064 2576 
Q 2246 2464 2489 2403 
Q 2733 2342 3002 2342 
Q 3270 2342 3513 2403 
Q 3757 2464 3939 2576 
Q 4122 2688 4227 2848 
Q 4333 3008 4333 3200 
Q 4333 3392 4227 3549 
Q 4122 3706 3939 3818 
Q 3757 3930 3513 3990 
Q 3270 4051 3002 4051 
z
" transform="scale(0.015625)"/>
      <path id="NanumGothicBold-b85c" d="M 5882 122 
Q 5882 90 5850 58 
Q 5818 26 5786 26 
L 211 26 
Q 173 26 147 58 
Q 122 90 122 122 
L 122 525 
Q 122 563 147 595 
Q 173 627 211 627 
L 2637 627 
L 2637 1581 
L 1491 1581 
Q 1350 1581 1260 1600 
Q 1171 1619 1120 1670 
Q 1069 1722 1049 1802 
Q 1030 1882 1030 2010 
L 1030 3040 
Q 1030 3168 1049 3248 
Q 1069 3328 1120 3376 
Q 1171 3424 1260 3440 
Q 1350 3456 1491 3456 
L 4154 3456 
Q 4218 3456 4234 3472 
Q 4250 3488 4250 3558 
L 4250 4058 
Q 4250 4128 4234 4137 
Q 4218 4147 4154 4147 
L 1139 4147 
Q 1107 4147 1081 4176 
Q 1056 4205 1056 4237 
L 1056 4666 
Q 1056 4698 1081 4723 
Q 1107 4749 1139 4749 
L 4506 4749 
Q 4774 4749 4870 4662 
Q 4966 4576 4966 4326 
L 4966 3290 
Q 4966 3040 4870 2953 
Q 4774 2867 4506 2867 
L 1837 2867 
Q 1773 2867 1760 2854 
Q 1747 2842 1747 2778 
L 1747 2272 
Q 1747 2202 1763 2186 
Q 1779 2170 1843 2170 
L 5018 2170 
Q 5050 2170 5075 2147 
Q 5101 2125 5101 2093 
L 5101 1664 
Q 5101 1632 5072 1606 
Q 5043 1581 5018 1581 
L 3373 1581 
L 3373 627 
L 5786 627 
Q 5818 627 5850 592 
Q 5882 557 5882 525 
L 5882 122 
z
" transform="scale(0.015625)"/>
      <path id="NanumGothicBold-d22c" d="M 5088 2234 
Q 5088 2182 5065 2156 
Q 5043 2131 5011 2131 
L 1402 2131 
Q 1146 2131 1043 2249 
Q 941 2368 941 2592 
L 941 4525 
Q 941 4768 1049 4854 
Q 1158 4941 1402 4941 
L 4954 4941 
Q 5043 4941 5043 4858 
L 5043 4442 
Q 5043 4352 4954 4352 
L 1792 4352 
Q 1677 4352 1677 4243 
L 1677 3827 
L 4870 3827 
Q 4902 3827 4931 3801 
Q 4960 3776 4960 3738 
L 4960 3347 
Q 4960 3309 4931 3286 
Q 4902 3264 4870 3264 
L 1677 3264 
L 1677 2861 
Q 1677 2720 1792 2720 
L 4986 2720 
Q 5037 2720 5062 2707 
Q 5088 2694 5088 2643 
L 5088 2234 
z
M 5882 1069 
Q 5882 1037 5850 1005 
Q 5818 973 5786 973 
L 3379 973 
L 3379 -877 
Q 3379 -966 3290 -966 
L 2733 -966 
Q 2643 -966 2643 -877 
L 2643 973 
L 211 973 
Q 173 973 147 1005 
Q 122 1037 122 1069 
L 122 1485 
Q 122 1587 211 1587 
L 5786 1587 
Q 5818 1587 5850 1555 
Q 5882 1523 5882 1485 
L 5882 1069 
z
" transform="scale(0.015625)"/>
      <path id="NanumGothicBold-c601" d="M 5280 1581 
Q 5280 1491 5197 1491 
L 4627 1491 
Q 4544 1491 4544 1581 
L 4544 2342 
L 3194 2342 
Q 2989 2131 2694 2016 
Q 2400 1901 2035 1901 
Q 1696 1901 1411 2009 
Q 1126 2118 924 2313 
Q 723 2509 611 2777 
Q 499 3046 499 3366 
Q 499 3674 611 3946 
Q 723 4218 924 4416 
Q 1126 4614 1411 4729 
Q 1696 4845 2035 4845 
Q 2451 4845 2777 4681 
Q 3104 4518 3309 4250 
L 4544 4250 
L 4544 4979 
Q 4544 5062 4627 5062 
L 5197 5062 
Q 5280 5062 5280 4979 
L 5280 1581 
z
M 5325 198 
Q 5325 -70 5181 -294 
Q 5037 -518 4781 -678 
Q 4525 -838 4173 -924 
Q 3821 -1011 3411 -1011 
Q 2970 -1011 2618 -924 
Q 2266 -838 2019 -681 
Q 1773 -525 1641 -301 
Q 1510 -77 1510 198 
Q 1510 467 1641 688 
Q 1773 909 2019 1069 
Q 2266 1229 2618 1315 
Q 2970 1402 3411 1402 
Q 3821 1402 4173 1315 
Q 4525 1229 4781 1072 
Q 5037 915 5181 694 
Q 5325 474 5325 198 
z
M 4570 179 
Q 4570 339 4477 457 
Q 4384 576 4224 656 
Q 4064 736 3853 777 
Q 3642 819 3411 819 
Q 2893 819 2579 659 
Q 2266 499 2266 179 
Q 2266 26 2349 -86 
Q 2432 -198 2585 -275 
Q 2739 -352 2950 -390 
Q 3162 -429 3411 -429 
Q 3642 -429 3853 -390 
Q 4064 -352 4224 -275 
Q 4384 -198 4477 -86 
Q 4570 26 4570 179 
z
M 2880 3354 
Q 2880 3738 2649 3965 
Q 2419 4192 2035 4192 
Q 1664 4192 1433 3965 
Q 1203 3738 1203 3354 
Q 1203 2963 1433 2736 
Q 1664 2509 2035 2509 
Q 2419 2509 2649 2736 
Q 2880 2963 2880 3354 
z
M 3603 3366 
Q 3603 3251 3587 3142 
Q 3571 3034 3539 2931 
L 4544 2931 
L 4544 3661 
L 3571 3661 
Q 3603 3501 3603 3366 
z
" transform="scale(0.015625)"/>
      <path id="NanumGothicBold-d574" d="M 1837 2278 
Q 1690 2278 1568 2220 
Q 1446 2163 1363 2064 
Q 1280 1965 1235 1833 
Q 1190 1702 1190 1562 
Q 1190 1414 1235 1283 
Q 1280 1152 1363 1049 
Q 1446 947 1568 889 
Q 1690 832 1837 832 
Q 1990 832 2112 889 
Q 2234 947 2317 1049 
Q 2400 1152 2445 1283 
Q 2490 1414 2490 1562 
Q 2490 1702 2445 1833 
Q 2400 1965 2317 2064 
Q 2234 2163 2112 2220 
Q 1990 2278 1837 2278 
z
M 1837 2848 
Q 2125 2848 2365 2745 
Q 2605 2643 2777 2470 
Q 2950 2298 3043 2064 
Q 3136 1830 3136 1562 
Q 3136 1293 3043 1056 
Q 2950 819 2777 643 
Q 2605 467 2365 368 
Q 2125 269 1837 269 
Q 1549 269 1309 368 
Q 1069 467 899 643 
Q 730 819 637 1056 
Q 544 1293 544 1562 
Q 544 1830 637 2064 
Q 730 2298 899 2470 
Q 1069 2643 1309 2745 
Q 1549 2848 1837 2848 
z
M 3290 3270 
Q 3290 3232 3261 3203 
Q 3232 3174 3194 3174 
L 333 3174 
Q 301 3174 265 3206 
Q 230 3238 230 3277 
L 230 3667 
Q 230 3699 265 3731 
Q 301 3763 333 3763 
L 3194 3763 
Q 3232 3763 3261 3734 
Q 3290 3706 3290 3667 
L 3290 3270 
z
M 4826 4979 
Q 4826 5062 4915 5062 
L 5466 5062 
Q 5549 5062 5549 4979 
L 5549 -928 
Q 5549 -1011 5466 -1011 
L 4909 -1011 
Q 4826 -1011 4826 -928 
L 4826 2093 
L 4282 2093 
L 4282 -685 
Q 4282 -774 4198 -774 
L 3674 -774 
Q 3584 -774 3584 -685 
L 3584 4864 
Q 3584 4947 3674 4947 
L 4198 4947 
Q 4282 4947 4282 4864 
L 4282 2707 
L 4826 2707 
L 4826 4979 
z
M 2656 4237 
Q 2656 4198 2627 4163 
Q 2598 4128 2554 4128 
L 1018 4128 
Q 992 4128 957 4157 
Q 922 4186 922 4230 
L 922 4621 
Q 922 4666 957 4691 
Q 992 4717 1018 4717 
L 2554 4717 
Q 2592 4717 2624 4685 
Q 2656 4653 2656 4614 
L 2656 4237 
z
" transform="scale(0.015625)"/>
      <path id="NanumGothicBold-c0dd" d="M 5600 198 
Q 5600 -70 5430 -294 
Q 5261 -518 4973 -678 
Q 4685 -838 4307 -924 
Q 3930 -1011 3520 -1011 
Q 3078 -1011 2704 -924 
Q 2330 -838 2051 -681 
Q 1773 -525 1616 -301 
Q 1459 -77 1459 198 
Q 1459 467 1616 688 
Q 1773 909 2051 1069 
Q 2330 1229 2704 1315 
Q 3078 1402 3520 1402 
Q 3930 1402 4307 1315 
Q 4685 1229 4973 1072 
Q 5261 915 5430 694 
Q 5600 474 5600 198 
z
M 4826 4979 
Q 4826 5062 4915 5062 
L 5466 5062 
Q 5549 5062 5549 4979 
L 5549 1555 
Q 5549 1466 5466 1466 
L 4909 1466 
Q 4826 1466 4826 1555 
L 4826 2893 
L 4250 2893 
L 4250 1728 
Q 4250 1645 4166 1645 
L 3642 1645 
Q 3552 1645 3552 1728 
L 3552 4877 
Q 3552 4960 3642 4960 
L 4166 4960 
Q 4250 4960 4250 4877 
L 4250 3507 
L 4826 3507 
L 4826 4979 
z
M 698 1741 
Q 646 1709 588 1705 
Q 531 1702 486 1754 
L 250 2029 
Q 154 2131 275 2234 
Q 646 2496 889 2784 
Q 1133 3072 1277 3385 
Q 1421 3699 1478 4044 
Q 1536 4390 1536 4768 
Q 1536 4819 1565 4848 
Q 1594 4877 1626 4877 
L 2163 4851 
Q 2246 4851 2246 4749 
Q 2246 4230 2150 3782 
Q 2278 3411 2579 3065 
Q 2880 2720 3245 2477 
Q 3296 2445 3293 2409 
Q 3290 2374 3258 2330 
L 3014 2003 
Q 2938 1907 2829 1978 
Q 2560 2144 2291 2406 
Q 2022 2669 1850 2976 
Q 1651 2598 1366 2294 
Q 1082 1990 698 1741 
z
M 4845 179 
Q 4845 339 4726 457 
Q 4608 576 4419 656 
Q 4230 736 3993 777 
Q 3757 819 3520 819 
Q 3264 819 3030 777 
Q 2797 736 2614 656 
Q 2432 576 2323 457 
Q 2214 339 2214 179 
Q 2214 26 2323 -86 
Q 2432 -198 2614 -275 
Q 2797 -352 3033 -390 
Q 3270 -429 3520 -429 
Q 3757 -429 3993 -390 
Q 4230 -352 4419 -275 
Q 4608 -198 4726 -86 
Q 4845 26 4845 179 
z
" transform="scale(0.015625)"/>
      <path id="NanumGothicBold-ac01" d="M 5005 -909 
Q 5005 -941 4976 -969 
Q 4947 -998 4909 -998 
L 4365 -998 
Q 4326 -998 4294 -969 
Q 4262 -941 4262 -909 
L 4262 544 
Q 4262 614 4236 633 
Q 4211 653 4147 653 
L 1254 653 
Q 1222 653 1193 675 
Q 1165 698 1165 730 
L 1165 1184 
Q 1165 1229 1193 1248 
Q 1222 1267 1254 1267 
L 4576 1267 
Q 4819 1267 4912 1164 
Q 5005 1062 5005 819 
L 5005 -909 
z
M 5971 2995 
Q 5971 2963 5942 2937 
Q 5914 2912 5875 2912 
L 5011 2912 
L 5011 1670 
Q 5011 1587 4922 1587 
L 4358 1587 
Q 4326 1587 4297 1612 
Q 4269 1638 4269 1677 
L 4269 4979 
Q 4269 5011 4297 5036 
Q 4326 5062 4358 5062 
L 4922 5062 
Q 5011 5062 5011 4979 
L 5011 3526 
L 5875 3526 
Q 5914 3526 5942 3500 
Q 5971 3475 5971 3443 
L 5971 2995 
z
M 723 1523 
Q 570 1459 518 1581 
L 352 1914 
Q 326 1965 336 2016 
Q 346 2067 416 2099 
Q 1203 2438 1740 2918 
Q 2278 3398 2458 3981 
Q 2490 4083 2486 4124 
Q 2483 4166 2368 4166 
L 627 4166 
Q 589 4166 566 4195 
Q 544 4224 544 4262 
L 544 4685 
Q 544 4774 634 4774 
L 2803 4774 
Q 3085 4774 3200 4684 
Q 3315 4595 3315 4390 
Q 3315 4365 3305 4317 
Q 3296 4269 3286 4217 
Q 3277 4166 3267 4124 
Q 3258 4083 3251 4064 
Q 3008 3187 2371 2563 
Q 1734 1939 723 1523 
z
" transform="scale(0.015625)"/>
      <path id="NanumGothicBold-d560" d="M 2118 2995 
Q 1818 2995 1622 2867 
Q 1427 2739 1427 2547 
Q 1427 2342 1622 2208 
Q 1818 2074 2118 2074 
Q 2426 2074 2618 2208 
Q 2810 2342 2810 2547 
Q 2810 2739 2618 2867 
Q 2426 2995 2118 2995 
z
M 2118 3539 
Q 2406 3539 2659 3468 
Q 2912 3398 3101 3267 
Q 3290 3136 3395 2953 
Q 3501 2771 3501 2547 
Q 3501 2317 3392 2131 
Q 3283 1946 3097 1814 
Q 2912 1683 2659 1609 
Q 2406 1536 2112 1536 
Q 1824 1536 1574 1609 
Q 1325 1683 1139 1814 
Q 954 1946 848 2131 
Q 742 2317 742 2547 
Q 742 2771 848 2953 
Q 954 3136 1142 3267 
Q 1331 3398 1580 3468 
Q 1830 3539 2118 3539 
z
M 3846 3840 
Q 3846 3795 3817 3766 
Q 3789 3738 3750 3738 
L 378 3738 
Q 339 3738 307 3770 
Q 275 3802 275 3846 
L 275 4179 
Q 275 4211 310 4243 
Q 346 4275 384 4275 
L 3750 4275 
Q 3789 4275 3817 4246 
Q 3846 4218 3846 4179 
L 3846 3840 
z
M 3021 4621 
Q 3021 4582 2992 4550 
Q 2963 4518 2912 4518 
L 1254 4518 
Q 1229 4518 1193 4544 
Q 1158 4570 1158 4614 
L 1158 4954 
Q 1158 4998 1193 5024 
Q 1229 5050 1254 5050 
L 2912 5050 
Q 2957 5050 2989 5018 
Q 3021 4986 3021 4947 
L 3021 4621 
z
M 5971 3002 
Q 5971 2970 5942 2944 
Q 5914 2918 5875 2918 
L 5011 2918 
L 5011 1600 
Q 5011 1568 4985 1539 
Q 4960 1510 4928 1510 
L 4358 1510 
Q 4326 1510 4300 1539 
Q 4275 1568 4275 1606 
L 4275 4979 
Q 4275 5062 4358 5062 
L 4928 5062 
Q 5011 5062 5011 4979 
L 5011 3533 
L 5875 3533 
Q 5914 3533 5942 3507 
Q 5971 3482 5971 3450 
L 5971 3002 
z
M 5171 -915 
Q 5171 -947 5142 -976 
Q 5114 -1005 5088 -1005 
L 1677 -1005 
Q 1427 -1005 1334 -909 
Q 1242 -813 1242 -608 
L 1242 6 
Q 1242 211 1331 300 
Q 1421 390 1670 390 
L 4211 390 
Q 4269 390 4281 406 
Q 4294 422 4294 480 
L 4294 595 
Q 4294 666 4281 678 
Q 4269 691 4205 691 
L 1318 691 
Q 1286 691 1257 713 
Q 1229 736 1229 768 
L 1229 1165 
Q 1229 1197 1257 1225 
Q 1286 1254 1318 1254 
L 4570 1254 
Q 4838 1254 4924 1168 
Q 5011 1082 5011 858 
L 5011 262 
Q 5011 38 4924 -48 
Q 4838 -134 4570 -134 
L 2048 -134 
Q 1990 -134 1977 -150 
Q 1965 -166 1965 -218 
L 1965 -365 
Q 1965 -429 1977 -438 
Q 1990 -448 2054 -448 
L 5082 -448 
Q 5114 -448 5142 -470 
Q 5171 -493 5171 -531 
L 5171 -915 
z
" transform="scale(0.015625)"/>
      <path id="NanumGothicBold-c218" d="M 5882 1318 
Q 5882 1286 5850 1251 
Q 5818 1216 5786 1216 
L 3360 1216 
L 3360 -877 
Q 3360 -966 3270 -966 
L 2714 -966 
Q 2624 -966 2624 -877 
L 2624 1216 
L 211 1216 
Q 173 1216 147 1251 
Q 122 1286 122 1318 
L 122 1734 
Q 122 1773 147 1801 
Q 173 1830 211 1830 
L 5786 1830 
Q 5818 1830 5850 1798 
Q 5882 1766 5882 1734 
L 5882 1318 
z
M 909 2419 
Q 864 2406 819 2409 
Q 774 2413 755 2445 
L 538 2854 
Q 518 2899 537 2940 
Q 557 2982 608 2995 
Q 1062 3123 1424 3296 
Q 1786 3469 2048 3709 
Q 2310 3949 2464 4259 
Q 2618 4570 2656 4966 
Q 2662 5011 2691 5046 
Q 2720 5082 2771 5082 
L 3309 5062 
Q 3398 5062 3398 4960 
Q 3386 4768 3360 4608 
Q 3450 4346 3651 4112 
Q 3853 3878 4125 3683 
Q 4397 3488 4726 3344 
Q 5056 3200 5402 3117 
Q 5446 3104 5472 3072 
Q 5498 3040 5478 2995 
L 5286 2573 
Q 5254 2490 5152 2509 
Q 4845 2566 4528 2691 
Q 4211 2816 3929 2989 
Q 3648 3162 3417 3366 
Q 3187 3571 3046 3795 
Q 2739 3302 2192 2953 
Q 1645 2605 909 2419 
z
" transform="scale(0.015625)"/>
      <path id="NanumGothicBold-c788" d="M 3558 3366 
Q 3558 3046 3446 2777 
Q 3334 2509 3126 2317 
Q 2918 2125 2633 2016 
Q 2349 1907 2003 1907 
Q 1664 1907 1382 2016 
Q 1101 2125 899 2317 
Q 698 2509 589 2777 
Q 480 3046 480 3366 
Q 480 3674 589 3942 
Q 698 4211 899 4409 
Q 1101 4608 1382 4723 
Q 1664 4838 2003 4838 
Q 2349 4838 2633 4723 
Q 2918 4608 3126 4409 
Q 3334 4211 3446 3942 
Q 3558 3674 3558 3366 
z
M 1248 -1005 
Q 1197 -1037 1149 -1046 
Q 1101 -1056 1056 -998 
L 813 -653 
Q 781 -614 784 -576 
Q 787 -538 858 -499 
Q 1421 -192 1677 269 
Q 1933 730 1933 1293 
Q 1933 1389 2016 1389 
L 2522 1382 
Q 2611 1382 2611 1312 
Q 2611 1203 2604 1100 
Q 2598 998 2586 902 
Q 2611 717 2684 547 
Q 2758 378 2851 230 
Q 2944 83 3053 -32 
Q 3162 -147 3270 -218 
Q 3322 -250 3360 -259 
Q 3398 -269 3456 -218 
Q 3802 45 3968 432 
Q 4134 819 4134 1293 
Q 4134 1389 4218 1389 
L 4723 1382 
Q 4762 1382 4790 1366 
Q 4819 1350 4819 1312 
Q 4819 1197 4809 1094 
Q 4800 992 4787 890 
Q 4832 666 4937 461 
Q 5043 256 5187 83 
Q 5331 -90 5500 -224 
Q 5670 -358 5850 -448 
Q 5901 -480 5907 -521 
Q 5914 -563 5888 -595 
L 5632 -960 
Q 5594 -1018 5485 -973 
Q 5357 -922 5216 -826 
Q 5075 -730 4940 -605 
Q 4806 -480 4684 -333 
Q 4563 -186 4480 -32 
Q 4301 -333 4048 -560 
Q 3795 -787 3488 -954 
Q 3366 -1018 3232 -954 
Q 2963 -838 2694 -592 
Q 2426 -346 2272 -38 
Q 2093 -346 1833 -595 
Q 1574 -845 1248 -1005 
z
M 5210 1754 
Q 5210 1670 5126 1670 
L 4557 1670 
Q 4474 1670 4474 1760 
L 4474 4979 
Q 4474 5062 4557 5062 
L 5126 5062 
Q 5210 5062 5210 4979 
L 5210 1754 
z
M 2829 3354 
Q 2829 3738 2605 3958 
Q 2381 4179 2003 4179 
Q 1638 4179 1414 3958 
Q 1190 3738 1190 3354 
Q 1190 2970 1414 2749 
Q 1638 2528 2003 2528 
Q 2381 2528 2605 2749 
Q 2829 2970 2829 3354 
z
" transform="scale(0.015625)"/>
      <path id="NanumGothicBold-b2e4" d="M 5965 2195 
Q 5965 2157 5936 2131 
Q 5907 2106 5875 2106 
L 5005 2106 
L 5005 -928 
Q 5005 -1011 4922 -1011 
L 4352 -1011 
Q 4269 -1011 4269 -928 
L 4269 4979 
Q 4269 5062 4352 5062 
L 4922 5062 
Q 5005 5062 5005 4979 
L 5005 2720 
L 5875 2720 
Q 5907 2720 5936 2697 
Q 5965 2675 5965 2643 
L 5965 2195 
z
M 3949 1114 
Q 3962 1043 3933 1020 
Q 3904 998 3872 986 
Q 3616 909 3235 851 
Q 2854 794 2448 758 
Q 2042 723 1654 710 
Q 1267 698 1005 717 
Q 768 730 656 822 
Q 544 915 544 1146 
L 544 4179 
Q 544 4403 637 4492 
Q 730 4582 973 4582 
L 3296 4582 
Q 3386 4582 3386 4499 
L 3386 4051 
Q 3386 3968 3296 3968 
L 1395 3968 
Q 1280 3968 1280 3859 
L 1280 1530 
Q 1280 1427 1315 1398 
Q 1350 1370 1472 1357 
Q 1670 1338 1945 1350 
Q 2221 1363 2528 1392 
Q 2835 1421 3155 1465 
Q 3475 1510 3763 1562 
Q 3859 1581 3878 1485 
L 3949 1114 
z
" transform="scale(0.015625)"/>
     </defs>
     <use xlink:href="#NanumGothicBold-acbd"/>
     <use xlink:href="#NanumGothicBold-c0ac" transform="translate(93.999985 0)"/>
     <use xlink:href="#NanumGothicBold-ba74" transform="translate(187.999969 0)"/>
     <use xlink:href="#NanumGothicBold-c5d0" transform="translate(281.999954 0)"/>
     <use xlink:href="#NanumGothicBold-c11c" transform="translate(375.999939 0)"/>
     <use xlink:href="#NanumGothicBold-b294" transform="translate(469.999924 0)"/>
     <use xlink:href="#NanumGothicBold-20" transform="translate(563.999908 0)"/>
     <use xlink:href="#NanumGothicBold-c911" transform="translate(591.999893 0)"/>
     <use xlink:href="#NanumGothicBold-b825" transform="translate(685.999878 0)"/>
     <use xlink:href="#NanumGothicBold-c744" transform="translate(779.999863 0)"/>
     <use xlink:href="#NanumGothicBold-20" transform="translate(873.999847 0)"/>
     <use xlink:href="#NanumGothicBold-acbd" transform="translate(901.999832 0)"/>
     <use xlink:href="#NanumGothicBold-c0ac" transform="translate(995.999817 0)"/>
     <use xlink:href="#NanumGothicBold-20" transform="translate(1089.999802 0)"/>
     <use xlink:href="#NanumGothicBold-bc29" transform="translate(1117.999786 0)"/>
     <use xlink:href="#NanumGothicBold-d5a5" transform="translate(1211.999771 0)"/>
     <use xlink:href="#NanumGothicBold-c73c" transform="translate(1305.999756 0)"/>
     <use xlink:href="#NanumGothicBold-b85c" transform="translate(1399.999741 0)"/>
     <use xlink:href="#NanumGothicBold-20" transform="translate(1493.999725 0)"/>
     <use xlink:href="#NanumGothicBold-d22c" transform="translate(1521.99971 0)"/>
     <use xlink:href="#NanumGothicBold-c601" transform="translate(1615.999695 0)"/>
     <use xlink:href="#NanumGothicBold-d574" transform="translate(1709.99968 0)"/>
     <use xlink:href="#NanumGothicBold-20" transform="translate(1803.999664 0)"/>
     <use xlink:href="#NanumGothicBold-c0dd" transform="translate(1831.999649 0)"/>
     <use xlink:href="#NanumGothicBold-ac01" transform="translate(1925.999634 0)"/>
     <use xlink:href="#NanumGothicBold-d560" transform="translate(2019.999619 0)"/>
     <use xlink:href="#NanumGothicBold-20" transform="translate(2113.999603 0)"/>
     <use xlink:href="#NanumGothicBold-c218" transform="translate(2141.999588 0)"/>
     <use xlink:href="#NanumGothicBold-20" transform="translate(2235.999573 0)"/>
     <use xlink:href="#NanumGothicBold-c788" transform="translate(2263.999557 0)"/>
     <use xlink:href="#NanumGothicBold-b2e4" transform="translate(2357.999542 0)"/>
    </g>
   </g>
   <g id="patch_2">
    <path d="M 110.343724 174.054625 
Q 110.343724 196.570924 110.343724 216.180334 
" clip-path="url(#p9e6e2eda52)" style="fill: none; stroke: #ef4444; stroke-width: 2.6; stroke-linecap: round"/>
    <path d="M 113.143724 210.580334 
L 110.343724 216.180334 
L 107.543724 210.580334 
z
" clip-path="url(#p9e6e2eda52)" style="fill: #ef4444; stroke: #ef4444; stroke-width: 2.6; stroke-linecap: round"/>
   </g>
   <g id="patch_3">
    <path d="M 112.223932 171.368661 
Q 150.299447 157.523019 185.643087 144.670786 
" clip-path="url(#p9e6e2eda52)" style="fill: none; stroke: #10b981; stroke-width: 2.6; stroke-linecap: round"/>
    <path d="M 179.423363 143.953126 
L 185.643087 144.670786 
L 181.337124 149.215969 
z
" clip-path="url(#p9e6e2eda52)" style="fill: #10b981; stroke: #10b981; stroke-width: 2.6; stroke-linecap: round"/>
   </g>
   <g id="text_2">
    <!-- 물체 -->
    <g style="fill: #2563eb" transform="translate(115.792138 171.478613) scale(0.11 -0.11)">
     <defs>
      <path id="NanumGothic-bb3c" d="M 1107 4538 
Q 1107 4806 1209 4899 
Q 1312 4992 1594 4992 
L 4422 4992 
Q 4576 4992 4669 4973 
Q 4762 4954 4816 4902 
Q 4870 4851 4889 4761 
Q 4909 4672 4909 4538 
L 4909 3475 
Q 4909 3206 4806 3113 
Q 4704 3021 4422 3021 
L 1594 3021 
Q 1440 3021 1347 3040 
Q 1254 3059 1200 3113 
Q 1146 3168 1126 3254 
Q 1107 3341 1107 3475 
L 1107 4538 
z
M 5056 -781 
Q 5056 -813 5027 -835 
Q 4998 -858 4973 -858 
L 1568 -858 
Q 1267 -858 1174 -746 
Q 1082 -634 1082 -365 
L 1082 45 
Q 1082 314 1194 406 
Q 1306 499 1594 499 
L 4346 499 
Q 4435 499 4460 524 
Q 4486 550 4486 646 
L 4486 954 
Q 4486 1050 4464 1075 
Q 4442 1101 4352 1101 
L 1158 1101 
Q 1126 1101 1097 1120 
Q 1069 1139 1069 1171 
L 1069 1395 
Q 1069 1427 1097 1446 
Q 1126 1466 1158 1466 
L 2778 1466 
L 2778 2093 
L 288 2093 
Q 250 2093 221 2118 
Q 192 2144 192 2176 
L 192 2394 
Q 192 2432 221 2454 
Q 250 2477 288 2477 
L 5728 2477 
Q 5760 2477 5792 2454 
Q 5824 2432 5824 2394 
L 5824 2176 
Q 5824 2144 5792 2118 
Q 5760 2093 5728 2093 
L 3219 2093 
L 3219 1466 
L 4416 1466 
Q 4570 1466 4666 1443 
Q 4762 1421 4819 1369 
Q 4877 1318 4899 1225 
Q 4922 1133 4922 998 
L 4922 589 
Q 4922 320 4810 227 
Q 4698 134 4410 134 
L 1651 134 
Q 1562 134 1539 108 
Q 1517 83 1517 -13 
L 1517 -339 
Q 1517 -429 1542 -457 
Q 1568 -486 1658 -486 
L 4966 -486 
Q 4998 -486 5027 -505 
Q 5056 -525 5056 -557 
L 5056 -781 
z
M 1702 4608 
Q 1613 4608 1581 4573 
Q 1549 4538 1549 4442 
L 1549 3571 
Q 1549 3475 1581 3440 
Q 1613 3405 1702 3405 
L 4314 3405 
Q 4403 3405 4435 3440 
Q 4467 3475 4467 3571 
L 4467 4442 
Q 4467 4538 4435 4573 
Q 4403 4608 4314 4608 
L 1702 4608 
z
" transform="scale(0.015625)"/>
      <path id="NanumGothic-ccb4" d="M 2835 3213 
Q 2726 2925 2582 2653 
Q 2438 2381 2259 2125 
Q 2509 1798 2800 1520 
Q 3091 1242 3379 1056 
Q 3450 1005 3386 934 
L 3226 730 
Q 3194 691 3168 691 
Q 3142 691 3091 730 
Q 2963 826 2822 947 
Q 2682 1069 2541 1209 
Q 2400 1350 2262 1500 
Q 2125 1651 2003 1798 
Q 1715 1453 1376 1158 
Q 1037 864 666 634 
Q 640 614 605 614 
Q 570 614 557 627 
L 397 832 
Q 378 864 390 899 
Q 403 934 429 954 
Q 774 1171 1078 1443 
Q 1382 1715 1632 2006 
Q 1882 2298 2064 2598 
Q 2246 2899 2349 3187 
Q 2413 3354 2240 3354 
L 685 3354 
Q 608 3354 608 3437 
L 608 3661 
Q 608 3738 698 3738 
L 2413 3738 
Q 2746 3738 2845 3619 
Q 2944 3501 2835 3213 
z
M 3808 2502 
L 3808 4806 
Q 3808 4896 3898 4896 
L 4141 4896 
Q 4230 4896 4230 4806 
L 4230 -563 
Q 4230 -653 4141 -653 
L 3898 -653 
Q 3808 -653 3808 -563 
L 3808 2118 
L 3021 2118 
Q 2982 2118 2953 2144 
Q 2925 2170 2925 2202 
L 2925 2419 
Q 2925 2458 2953 2480 
Q 2982 2502 3021 2502 
L 3808 2502 
z
M 5363 -806 
Q 5363 -896 5274 -896 
L 5030 -896 
Q 4941 -896 4941 -806 
L 4941 4915 
Q 4941 5005 5030 5005 
L 5274 5005 
Q 5363 5005 5363 4915 
L 5363 -806 
z
M 2381 4659 
Q 2477 4659 2477 4570 
L 2477 4365 
Q 2477 4269 2381 4269 
L 1184 4269 
Q 1088 4269 1088 4365 
L 1088 4570 
Q 1088 4659 1184 4659 
L 2381 4659 
z
" transform="scale(0.015625)"/>
     </defs>
     <use xlink:href="#NanumGothic-bb3c"/>
     <use xlink:href="#NanumGothic-ccb4" transform="translate(93.999985 0)"/>
    </g>
   </g>
   <g id="text_3">
    <!-- gravity -->
    <g style="fill: #ef4444" transform="translate(117.608276 225.940407) scale(0.11 -0.11)">
     <defs>
      <path id="NanumGothic-67" d="M 2950 1472 
Q 2950 2157 2668 2528 
Q 2387 2899 1907 2899 
Q 1389 2899 1126 2553 
Q 864 2208 864 1459 
Q 864 1184 941 953 
Q 1018 723 1152 560 
Q 1286 397 1472 304 
Q 1658 211 1875 211 
Q 2099 211 2297 304 
Q 2496 397 2640 566 
Q 2784 736 2867 966 
Q 2950 1197 2950 1472 
z
M 749 -1114 
Q 672 -1094 685 -1018 
L 704 -736 
Q 704 -653 787 -698 
Q 1030 -806 1254 -854 
Q 1478 -902 1741 -902 
Q 2323 -902 2614 -547 
Q 2906 -192 2944 422 
Q 2797 134 2509 -13 
Q 2221 -160 1869 -160 
Q 1555 -160 1286 -45 
Q 1018 70 819 281 
Q 621 493 505 793 
Q 390 1094 390 1459 
Q 390 1888 470 2224 
Q 550 2560 723 2790 
Q 896 3021 1171 3142 
Q 1446 3264 1837 3264 
Q 2176 3264 2435 3152 
Q 2694 3040 2963 2752 
L 2950 3098 
Q 2950 3187 3040 3187 
L 3283 3187 
Q 3373 3187 3373 3098 
L 3373 538 
Q 3373 122 3267 -214 
Q 3162 -550 2954 -784 
Q 2746 -1018 2438 -1142 
Q 2131 -1267 1734 -1267 
Q 1446 -1267 1228 -1232 
Q 1011 -1197 749 -1114 
z
" transform="scale(0.015625)"/>
      <path id="NanumGothic-72" d="M 2221 2797 
Q 2106 2835 1914 2835 
Q 1440 2835 1210 2368 
Q 1030 2003 1030 1434 
L 1030 -186 
Q 1030 -275 941 -275 
L 691 -275 
Q 602 -275 602 -186 
L 602 2413 
Q 602 2643 598 2787 
Q 595 2931 589 3098 
Q 589 3187 678 3187 
L 915 3187 
Q 1005 3187 1005 3098 
L 1005 2470 
Q 1318 3277 1926 3277 
Q 2074 3277 2221 3238 
Q 2259 3226 2288 3197 
Q 2317 3168 2317 3117 
L 2317 2848 
Q 2317 2810 2285 2797 
Q 2253 2784 2221 2797 
z
" transform="scale(0.015625)"/>
      <path id="NanumGothic-61" d="M 2566 1530 
L 2445 1530 
Q 2086 1542 1808 1500 
Q 1530 1459 1344 1389 
Q 1075 1293 940 1104 
Q 806 915 806 653 
Q 806 493 857 355 
Q 909 218 1018 141 
Q 1210 -13 1530 -13 
Q 1754 -13 1942 76 
Q 2131 166 2272 332 
Q 2413 499 2489 745 
Q 2566 992 2566 1312 
L 2566 1530 
z
M 742 2650 
Q 710 2630 681 2640 
Q 653 2650 653 2682 
L 653 2925 
Q 653 3014 742 3059 
Q 966 3181 1219 3229 
Q 1472 3277 1773 3277 
Q 2413 3277 2707 2973 
Q 3002 2669 3002 2054 
L 3002 448 
Q 3002 256 3008 105 
Q 3014 -45 3027 -186 
Q 3027 -275 2938 -275 
L 2707 -275 
Q 2618 -275 2618 -186 
L 2618 307 
Q 2483 -19 2166 -198 
Q 1850 -378 1478 -378 
Q 832 -378 531 0 
Q 429 128 377 297 
Q 326 467 326 634 
Q 326 1024 508 1305 
Q 691 1587 1069 1728 
Q 1530 1894 2483 1894 
L 2566 1894 
L 2566 2086 
Q 2566 2490 2384 2701 
Q 2202 2912 1773 2912 
Q 1485 2912 1229 2851 
Q 973 2790 742 2650 
z
" transform="scale(0.015625)"/>
      <path id="NanumGothic-76" d="M 1843 -192 
Q 1811 -275 1715 -275 
L 1402 -275 
Q 1306 -275 1280 -192 
L 154 3098 
Q 141 3130 160 3158 
Q 179 3187 218 3187 
L 506 3187 
Q 582 3187 621 3098 
L 1568 166 
L 2554 3098 
Q 2566 3136 2598 3161 
Q 2630 3187 2669 3187 
L 2950 3187 
Q 2989 3187 3008 3158 
Q 3027 3130 3014 3098 
L 1843 -192 
z
" transform="scale(0.015625)"/>
      <path id="NanumGothic-69" d="M 1050 -186 
Q 1050 -275 960 -275 
L 678 -275 
Q 589 -275 589 -186 
L 589 3098 
Q 589 3187 678 3187 
L 960 3187 
Q 1050 3187 1050 3098 
L 1050 -186 
z
M 506 4397 
Q 506 4525 595 4617 
Q 685 4710 813 4710 
Q 941 4710 1033 4617 
Q 1126 4525 1126 4397 
Q 1126 4269 1033 4179 
Q 941 4090 813 4090 
Q 685 4090 595 4179 
Q 506 4269 506 4397 
z
" transform="scale(0.015625)"/>
      <path id="NanumGothic-74" d="M 2208 -282 
Q 1939 -378 1677 -378 
Q 1158 -378 992 -38 
Q 883 192 883 774 
L 883 2816 
L 282 2816 
Q 192 2816 192 2906 
L 192 3098 
Q 192 3187 282 3187 
L 883 3187 
L 883 4051 
Q 883 4147 966 4147 
L 1235 4147 
Q 1318 4147 1318 4051 
L 1318 3187 
L 2029 3187 
Q 2118 3187 2118 3098 
L 2118 2906 
Q 2118 2816 2029 2816 
L 1318 2816 
L 1318 557 
Q 1318 -13 1779 -13 
Q 1958 -13 2182 64 
Q 2214 77 2243 64 
Q 2272 51 2272 13 
L 2285 -154 
Q 2298 -243 2208 -282 
z
" transform="scale(0.015625)"/>
      <path id="NanumGothic-79" d="M 301 -1222 
Q 224 -1203 237 -1126 
L 256 -909 
Q 256 -832 333 -864 
Q 435 -902 570 -902 
Q 704 -902 816 -860 
Q 928 -819 986 -749 
Q 1056 -659 1142 -454 
Q 1229 -250 1312 13 
Q 1024 794 742 1555 
Q 461 2317 173 3098 
Q 160 3130 173 3158 
Q 186 3187 224 3187 
L 525 3187 
Q 614 3187 653 3098 
L 1517 614 
Q 1754 1267 1968 1859 
Q 2182 2451 2419 3098 
Q 2451 3187 2547 3187 
L 2822 3187 
Q 2861 3187 2873 3158 
Q 2886 3130 2874 3098 
L 1542 -474 
Q 1472 -659 1385 -806 
Q 1299 -954 1210 -1043 
Q 1094 -1152 953 -1206 
Q 813 -1261 659 -1261 
Q 563 -1261 486 -1254 
Q 410 -1248 301 -1222 
z
" transform="scale(0.015625)"/>
     </defs>
     <use xlink:href="#NanumGothic-67"/>
     <use xlink:href="#NanumGothic-72" transform="translate(60.599991 0)"/>
     <use xlink:href="#NanumGothic-61" transform="translate(96.899979 0)"/>
     <use xlink:href="#NanumGothic-76" transform="translate(151.399963 0)"/>
     <use xlink:href="#NanumGothic-69" transform="translate(199.799957 0)"/>
     <use xlink:href="#NanumGothic-74" transform="translate(223.999954 0)"/>
     <use xlink:href="#NanumGothic-79" transform="translate(260.299942 0)"/>
    </g>
   </g>
   <g id="text_4">
    <!-- slopeDir 방향 성분 -->
    <g style="fill: #10b981" transform="translate(179.356966 135.320854) scale(0.11 -0.11)">
     <defs>
      <path id="NanumGothic-73" d="M 422 147 
Q 813 -13 1229 -13 
Q 1574 -13 1798 156 
Q 2022 326 2022 614 
Q 2022 781 1897 937 
Q 1773 1094 1594 1197 
Q 1395 1306 1187 1405 
Q 979 1504 787 1613 
Q 557 1741 448 1929 
Q 339 2118 339 2323 
Q 339 2560 428 2739 
Q 518 2918 672 3040 
Q 826 3162 1030 3219 
Q 1235 3277 1466 3277 
Q 1709 3277 1888 3251 
Q 2067 3226 2246 3174 
Q 2285 3162 2313 3136 
Q 2342 3110 2336 3066 
L 2317 2874 
Q 2310 2822 2278 2809 
Q 2246 2797 2214 2810 
Q 2054 2867 1894 2889 
Q 1734 2912 1510 2912 
Q 768 2912 768 2323 
Q 768 2195 867 2080 
Q 966 1965 1203 1850 
Q 1408 1747 1606 1654 
Q 1805 1562 2035 1434 
Q 2234 1325 2365 1101 
Q 2496 877 2496 614 
Q 2496 358 2393 172 
Q 2291 -13 2118 -134 
Q 1946 -256 1722 -317 
Q 1498 -378 1261 -378 
Q 1120 -378 1008 -371 
Q 896 -365 797 -352 
Q 698 -339 595 -320 
Q 493 -301 378 -269 
Q 288 -237 294 -154 
L 320 83 
Q 333 186 422 147 
z
" transform="scale(0.015625)"/>
      <path id="NanumGothic-6c" d="M 1056 -186 
Q 1056 -275 966 -275 
L 685 -275 
Q 595 -275 595 -186 
L 595 4723 
Q 595 4813 685 4813 
L 966 4813 
Q 1056 4813 1056 4723 
L 1056 -186 
z
" transform="scale(0.015625)"/>
      <path id="NanumGothic-6f" d="M 3130 1453 
Q 3130 1754 3050 2016 
Q 2970 2278 2829 2483 
Q 2496 2893 1965 2893 
Q 1696 2893 1481 2787 
Q 1267 2682 1101 2483 
Q 954 2278 874 2016 
Q 794 1754 794 1453 
Q 794 1146 874 883 
Q 954 621 1101 422 
Q 1440 6 1965 6 
Q 2234 6 2448 115 
Q 2662 224 2829 422 
Q 2970 621 3050 883 
Q 3130 1146 3130 1453 
z
M 3603 1453 
Q 3603 1075 3494 752 
Q 3386 429 3206 186 
Q 2982 -83 2672 -230 
Q 2362 -378 1965 -378 
Q 1568 -378 1254 -230 
Q 941 -83 717 186 
Q 538 429 432 752 
Q 326 1075 326 1453 
Q 326 2227 717 2720 
Q 1165 3277 1965 3277 
Q 2368 3277 2675 3139 
Q 2982 3002 3206 2720 
Q 3603 2214 3603 1453 
z
" transform="scale(0.015625)"/>
      <path id="NanumGothic-70" d="M 2989 1504 
Q 2989 1766 2937 2012 
Q 2886 2259 2764 2451 
Q 2643 2643 2451 2761 
Q 2259 2880 1971 2880 
Q 1709 2880 1517 2771 
Q 1325 2662 1200 2473 
Q 1075 2285 1011 2035 
Q 947 1786 947 1504 
Q 947 762 1225 381 
Q 1504 0 1971 0 
Q 2214 0 2403 105 
Q 2592 211 2723 409 
Q 2854 608 2921 883 
Q 2989 1158 2989 1504 
z
M 518 3098 
Q 518 3187 608 3187 
L 851 3187 
Q 941 3187 941 3098 
L 909 2618 
Q 1037 2899 1341 3072 
Q 1645 3245 2048 3245 
Q 2426 3245 2691 3110 
Q 2957 2976 3126 2742 
Q 3296 2509 3376 2189 
Q 3456 1869 3456 1504 
Q 3456 1107 3363 768 
Q 3270 429 3094 179 
Q 2918 -70 2656 -214 
Q 2394 -358 2048 -358 
Q 1658 -358 1376 -208 
Q 1094 -58 947 211 
L 947 -1165 
Q 947 -1254 858 -1254 
L 614 -1254 
Q 576 -1254 547 -1228 
Q 518 -1203 518 -1165 
L 518 3098 
z
" transform="scale(0.015625)"/>
      <path id="NanumGothic-65" d="M 2733 1696 
Q 2733 1958 2681 2163 
Q 2630 2368 2522 2534 
Q 2285 2912 1837 2912 
Q 1376 2912 1088 2528 
Q 973 2355 896 2131 
Q 819 1907 813 1696 
L 2733 1696 
z
M 813 1331 
Q 806 1011 886 764 
Q 966 518 1120 352 
Q 1274 186 1488 96 
Q 1702 6 1965 6 
Q 2221 6 2445 54 
Q 2669 102 2861 211 
Q 2944 250 2944 166 
L 2944 -122 
Q 2944 -179 2874 -211 
Q 2662 -294 2432 -336 
Q 2202 -378 1933 -378 
Q 1146 -378 742 80 
Q 339 538 339 1459 
Q 339 2272 742 2771 
Q 1165 3277 1811 3277 
Q 2170 3277 2432 3149 
Q 2694 3021 2880 2765 
Q 3206 2310 3206 1549 
Q 3206 1466 3203 1421 
Q 3200 1376 3181 1357 
Q 3162 1338 3114 1334 
Q 3066 1331 2976 1331 
L 813 1331 
z
" transform="scale(0.015625)"/>
      <path id="NanumGothic-44" d="M 3706 2131 
Q 3706 3149 3142 3635 
Q 2643 4064 1773 4064 
L 1082 4064 
L 1082 128 
L 1472 128 
Q 3706 128 3706 2131 
z
M 4173 2106 
Q 4173 1510 3968 1043 
Q 3763 576 3398 269 
Q 3053 6 2560 -134 
Q 2067 -275 1446 -275 
L 787 -275 
Q 653 -275 630 -252 
Q 608 -230 608 -96 
L 608 4282 
Q 608 4416 630 4438 
Q 653 4461 787 4461 
L 1792 4461 
Q 3008 4461 3622 3802 
Q 4173 3194 4173 2106 
z
" transform="scale(0.015625)"/>
      <path id="NanumGothic-20" transform="scale(0.015625)"/>
      <path id="NanumGothic-bc29" d="M 5005 250 
Q 5005 -26 4857 -243 
Q 4710 -461 4457 -611 
Q 4205 -762 3869 -842 
Q 3533 -922 3149 -922 
Q 2733 -922 2393 -842 
Q 2054 -762 1811 -611 
Q 1568 -461 1433 -243 
Q 1299 -26 1299 250 
Q 1299 518 1433 732 
Q 1568 947 1811 1097 
Q 2054 1248 2393 1328 
Q 2733 1408 3149 1408 
Q 3533 1408 3869 1328 
Q 4205 1248 4457 1101 
Q 4710 954 4857 739 
Q 5005 525 5005 250 
z
M 1158 1971 
Q 1005 1971 912 1990 
Q 819 2010 768 2064 
Q 717 2118 697 2204 
Q 678 2291 678 2426 
L 678 4730 
Q 678 4762 704 4784 
Q 730 4806 762 4806 
L 1037 4806 
Q 1069 4806 1091 4780 
Q 1114 4755 1114 4730 
L 1114 3731 
L 2982 3731 
L 2982 4723 
Q 2982 4755 3004 4780 
Q 3027 4806 3059 4806 
L 3334 4806 
Q 3366 4806 3392 4784 
Q 3418 4762 3418 4730 
L 3418 2381 
Q 3418 2138 3315 2054 
Q 3213 1971 2931 1971 
L 1158 1971 
z
M 4550 230 
Q 4550 422 4435 569 
Q 4320 717 4125 816 
Q 3930 915 3674 969 
Q 3418 1024 3142 1024 
Q 2835 1024 2579 969 
Q 2323 915 2140 816 
Q 1958 717 1856 569 
Q 1754 422 1754 230 
Q 1754 45 1856 -99 
Q 1958 -243 2140 -339 
Q 2323 -435 2579 -486 
Q 2835 -538 3142 -538 
Q 3418 -538 3674 -486 
Q 3930 -435 4125 -339 
Q 4320 -243 4435 -99 
Q 4550 45 4550 230 
z
M 4928 1530 
Q 4928 1440 4838 1440 
L 4576 1440 
Q 4486 1440 4486 1530 
L 4486 4915 
Q 4486 5005 4576 5005 
L 4838 5005 
Q 4928 5005 4928 4915 
L 4928 3373 
L 5811 3373 
Q 5850 3373 5878 3347 
Q 5907 3322 5907 3283 
L 5907 3072 
Q 5907 3040 5878 3014 
Q 5850 2989 5811 2989 
L 4928 2989 
L 4928 1530 
z
M 1114 3354 
L 1114 2502 
Q 1114 2406 1146 2377 
Q 1178 2349 1267 2349 
L 2829 2349 
Q 2918 2349 2950 2377 
Q 2982 2406 2982 2502 
L 2982 3354 
L 1114 3354 
z
" transform="scale(0.015625)"/>
      <path id="NanumGothic-d5a5" d="M 5005 64 
Q 5005 -160 4857 -339 
Q 4710 -518 4457 -646 
Q 4205 -774 3869 -844 
Q 3533 -915 3149 -915 
Q 2733 -915 2393 -844 
Q 2054 -774 1811 -646 
Q 1568 -518 1433 -339 
Q 1299 -160 1299 64 
Q 1299 282 1433 458 
Q 1568 634 1811 762 
Q 2054 890 2393 960 
Q 2733 1030 3149 1030 
Q 3533 1030 3869 963 
Q 4205 896 4457 768 
Q 4710 640 4857 461 
Q 5005 282 5005 64 
z
M 3533 2413 
Q 3533 2182 3427 1993 
Q 3322 1805 3139 1664 
Q 2957 1523 2704 1446 
Q 2451 1370 2157 1370 
Q 1856 1370 1606 1446 
Q 1357 1523 1171 1664 
Q 986 1805 883 1997 
Q 781 2189 781 2413 
Q 781 2643 883 2835 
Q 986 3027 1171 3161 
Q 1357 3296 1606 3373 
Q 1856 3450 2157 3450 
Q 2451 3450 2704 3373 
Q 2957 3296 3139 3158 
Q 3322 3021 3427 2829 
Q 3533 2637 3533 2413 
z
M 4550 45 
Q 4550 192 4435 307 
Q 4320 422 4125 502 
Q 3930 582 3674 624 
Q 3418 666 3142 666 
Q 2835 666 2579 624 
Q 2323 582 2140 502 
Q 1958 422 1856 307 
Q 1754 192 1754 45 
Q 1754 -96 1856 -208 
Q 1958 -320 2140 -397 
Q 2323 -474 2579 -512 
Q 2835 -550 3142 -550 
Q 3418 -550 3674 -512 
Q 3930 -474 4125 -397 
Q 4320 -320 4435 -208 
Q 4550 -96 4550 45 
z
M 4928 1254 
Q 4928 1165 4838 1165 
L 4576 1165 
Q 4486 1165 4486 1254 
L 4486 4915 
Q 4486 5005 4576 5005 
L 4838 5005 
Q 4928 5005 4928 4915 
L 4928 3776 
L 5811 3776 
Q 5850 3776 5878 3753 
Q 5907 3731 5907 3693 
L 5907 3482 
Q 5907 3450 5878 3424 
Q 5850 3398 5811 3398 
L 4928 3398 
L 4928 2630 
L 5811 2630 
Q 5850 2630 5878 2608 
Q 5907 2586 5907 2547 
L 5907 2336 
Q 5907 2304 5878 2278 
Q 5850 2253 5811 2253 
L 4928 2253 
L 4928 1254 
z
M 3104 2413 
Q 3104 2566 3033 2691 
Q 2963 2816 2835 2902 
Q 2707 2989 2534 3037 
Q 2362 3085 2157 3085 
Q 1952 3085 1779 3037 
Q 1606 2989 1478 2902 
Q 1350 2816 1276 2691 
Q 1203 2566 1203 2413 
Q 1203 2259 1276 2134 
Q 1350 2010 1478 1920 
Q 1606 1830 1779 1782 
Q 1952 1734 2157 1734 
Q 2362 1734 2534 1782 
Q 2707 1830 2835 1920 
Q 2963 2010 3033 2134 
Q 3104 2259 3104 2413 
z
M 4026 3827 
Q 4026 3744 3930 3744 
L 397 3744 
Q 365 3744 336 3769 
Q 307 3795 307 3834 
L 307 4038 
Q 307 4077 336 4102 
Q 365 4128 397 4128 
L 3930 4128 
Q 4026 4128 4026 4045 
L 4026 3827 
z
M 3091 4608 
Q 3091 4518 2995 4518 
L 1242 4518 
Q 1210 4518 1181 4540 
Q 1152 4563 1152 4602 
L 1152 4819 
Q 1152 4858 1177 4883 
Q 1203 4909 1235 4909 
L 2995 4909 
Q 3091 4909 3091 4819 
L 3091 4608 
z
" transform="scale(0.015625)"/>
      <path id="NanumGothic-c131" d="M 5203 250 
Q 5203 -26 5056 -243 
Q 4909 -461 4656 -611 
Q 4403 -762 4067 -842 
Q 3731 -922 3347 -922 
Q 2931 -922 2592 -842 
Q 2253 -762 2009 -611 
Q 1766 -461 1632 -243 
Q 1498 -26 1498 250 
Q 1498 518 1632 732 
Q 1766 947 2009 1097 
Q 2253 1248 2592 1328 
Q 2931 1408 3347 1408 
Q 3731 1408 4067 1328 
Q 4403 1248 4656 1101 
Q 4909 954 5056 739 
Q 5203 525 5203 250 
z
M 4749 230 
Q 4749 422 4633 569 
Q 4518 717 4323 816 
Q 4128 915 3872 969 
Q 3616 1024 3341 1024 
Q 3034 1024 2778 969 
Q 2522 915 2339 816 
Q 2157 717 2054 569 
Q 1952 422 1952 230 
Q 1952 45 2054 -99 
Q 2157 -243 2339 -339 
Q 2522 -435 2778 -486 
Q 3034 -538 3341 -538 
Q 3616 -538 3872 -486 
Q 4128 -435 4323 -339 
Q 4518 -243 4633 -99 
Q 4749 45 4749 230 
z
M 2387 4774 
Q 2387 4307 2291 3904 
Q 2368 3635 2505 3392 
Q 2643 3149 2828 2937 
Q 3014 2726 3235 2556 
Q 3456 2387 3699 2272 
Q 3738 2253 3734 2217 
Q 3731 2182 3718 2157 
L 3584 1946 
Q 3565 1914 3539 1901 
Q 3514 1888 3456 1920 
Q 3309 1997 3120 2128 
Q 2931 2259 2739 2438 
Q 2547 2618 2374 2832 
Q 2202 3046 2086 3277 
Q 1875 2790 1516 2393 
Q 1158 1997 678 1683 
Q 646 1664 608 1657 
Q 570 1651 544 1683 
L 384 1894 
Q 365 1920 377 1958 
Q 390 1997 422 2016 
Q 1184 2483 1568 3193 
Q 1952 3904 1939 4781 
Q 1939 4883 2016 4883 
L 2317 4864 
Q 2387 4864 2387 4774 
z
M 4710 3622 
L 4710 4915 
Q 4710 5005 4800 5005 
L 5062 5005 
Q 5152 5005 5152 4915 
L 5152 1536 
Q 5152 1446 5062 1446 
L 4800 1446 
Q 4710 1446 4710 1536 
L 4710 3238 
L 3398 3238 
Q 3315 3238 3315 3315 
L 3315 3546 
Q 3315 3622 3398 3622 
L 4710 3622 
z
" transform="scale(0.015625)"/>
      <path id="NanumGothic-bd84" d="M 1600 2637 
Q 1446 2637 1353 2656 
Q 1261 2675 1209 2729 
Q 1158 2784 1139 2870 
Q 1120 2957 1120 3091 
L 1120 4838 
Q 1120 4870 1145 4892 
Q 1171 4915 1203 4915 
L 1478 4915 
Q 1510 4915 1532 4889 
Q 1555 4864 1555 4838 
L 1555 4179 
L 4461 4179 
L 4461 4832 
Q 4461 4864 4483 4889 
Q 4506 4915 4538 4915 
L 4813 4915 
Q 4845 4915 4870 4892 
Q 4896 4870 4896 4838 
L 4896 3046 
Q 4896 2803 4793 2720 
Q 4691 2637 4410 2637 
L 1600 2637 
z
M 2912 262 
Q 2880 262 2854 291 
Q 2829 320 2829 358 
L 2829 1626 
L 288 1626 
Q 250 1626 221 1651 
Q 192 1677 192 1709 
L 192 1926 
Q 192 1965 221 1987 
Q 250 2010 288 2010 
L 5728 2010 
Q 5760 2010 5792 1987 
Q 5824 1965 5824 1926 
L 5824 1709 
Q 5824 1677 5792 1651 
Q 5760 1626 5728 1626 
L 3270 1626 
L 3270 358 
Q 3270 320 3248 291 
Q 3226 262 3187 262 
L 2912 262 
z
M 1555 3802 
L 1555 3168 
Q 1555 3072 1587 3043 
Q 1619 3014 1709 3014 
L 4307 3014 
Q 4397 3014 4429 3043 
Q 4461 3072 4461 3168 
L 4461 3802 
L 1555 3802 
z
M 5133 -704 
Q 5133 -742 5101 -761 
Q 5069 -781 5037 -781 
L 1510 -781 
Q 1210 -781 1117 -656 
Q 1024 -531 1024 -269 
L 1024 915 
Q 1024 1005 1114 1005 
L 1376 1005 
Q 1466 1005 1466 915 
L 1466 -262 
Q 1466 -352 1494 -374 
Q 1523 -397 1613 -397 
L 5037 -397 
Q 5069 -397 5101 -419 
Q 5133 -442 5133 -474 
L 5133 -704 
z
" transform="scale(0.015625)"/>
     </defs>
     <use xlink:href="#NanumGothic-73"/>
     <use xlink:href="#NanumGothic-6c" transform="translate(42.399994 0)"/>
     <use xlink:href="#NanumGothic-6f" transform="translate(66.599991 0)"/>
     <use xlink:href="#NanumGothic-70" transform="translate(127.199982 0)"/>
     <use xlink:href="#NanumGothic-65" transform="translate(187.799973 0)"/>
     <use xlink:href="#NanumGothic-44" transform="translate(242.299957 0)"/>
     <use xlink:href="#NanumGothic-69" transform="translate(314.999939 0)"/>
     <use xlink:href="#NanumGothic-72" transform="translate(339.199936 0)"/>
     <use xlink:href="#NanumGothic-20" transform="translate(375.499924 0)"/>
     <use xlink:href="#NanumGothic-bc29" transform="translate(403.499908 0)"/>
     <use xlink:href="#NanumGothic-d5a5" transform="translate(497.499893 0)"/>
     <use xlink:href="#NanumGothic-20" transform="translate(591.499878 0)"/>
     <use xlink:href="#NanumGothic-c131" transform="translate(619.499863 0)"/>
     <use xlink:href="#NanumGothic-bd84" transform="translate(713.499847 0)"/>
    </g>
   </g>
  </g>
 </g>
 <defs>
  <clipPath id="p9e6e2eda52">
   <rect x="8.64" y="28.577476" width="326.904828" height="210.672"/>
  </clipPath>
 </defs>
</svg>
