<?xml version="1.0" encoding="utf-8" standalone="no"?>
<!DOCTYPE svg PUBLIC "-//W3C//DTD SVG 1.1//EN"
  "http://www.w3.org/Graphics/SVG/1.1/DTD/svg11.dtd">
<svg xmlns:xlink="http://www.w3.org/1999/xlink" width="463.68pt" height="241.904531pt" viewBox="0 0 463.68 241.904531" xmlns="http://www.w3.org/2000/svg" version="1.1">
 <metadata>
  <rdf:RDF xmlns:dc="http://purl.org/dc/elements/1.1/" xmlns:cc="http://creativecommons.org/ns#" xmlns:rdf="http://www.w3.org/1999/02/22-rdf-syntax-ns#">
   <cc:Work>
    <dc:type rdf:resource="http://purl.org/dc/dcmitype/StillImage"/>
    <dc:date>2026-07-08T05:12:56.398381</dc:date>
    <dc:format>image/svg+xml</dc:format>
    <dc:creator>
     <cc:Agent>
      <dc:title>Matplotlib v3.10.8, https://matplotlib.org/</dc:title>
     </cc:Agent>
    </dc:creator>
   </cc:Work>
  </rdf:RDF>
 </metadata>
 <defs>
  <style type="text/css">*{stroke-linejoin: round; stroke-linecap: butt}</style>
 </defs>
 <g id="figure_1">
  <g id="patch_1">
   <path d="M 0 241.904531 
L 463.68 241.904531 
L 463.68 0 
L 0 0 
z
" style="fill: #ffffff"/>
  </g>
  <g id="axes_1">
   <g id="patch_2">
    <path d="M 60.72 110.504531 
L 101.64 77.024531 
L 142.56 103.064531 
L 112.8 132.824531 
L 60.72 110.504531 
z
" clip-path="url(#p6954686e7c)" style="fill: none; stroke: #2563eb; stroke-width: 2.2; stroke-linejoin: miter"/>
   </g>
   <g id="patch_3">
    <path d="M 246.72 99.344531 
L 295.08 73.304531 
L 321.12 117.944531 
L 272.76 136.544531 
L 246.72 99.344531 
z
" clip-path="url(#p6954686e7c)" style="fill: none; stroke: #10b981; stroke-width: 2.2; stroke-linejoin: miter"/>
   </g>
   <g id="line2d_1">
    <path d="M 45.84 188.624531 
L 410.4 188.624531 
" clip-path="url(#p6954686e7c)" style="fill: none; stroke: #111827; stroke-width: 1.8; stroke-linecap: square"/>
   </g>
   <g id="line2d_2">
    <path d="M 86.76 206.480531 
L 157.44 206.480531 
" clip-path="url(#p6954686e7c)" style="fill: none; stroke: #2563eb; stroke-width: 8"/>
   </g>
   <g id="line2d_3">
    <path d="M 235.56 206.480531 
L 302.52 206.480531 
" clip-path="url(#p6954686e7c)" style="fill: none; stroke: #10b981; stroke-width: 8"/>
   </g>
   <g id="text_1">
    <!-- SAT: 어떤 축에서라도 빈틈이 있으면 충돌 아님 -->
    <g style="fill: #111827" transform="translate(8.64 20.054062) scale(0.15 -0.15)">
     <defs>
      <path id="NanumGothicBold-53" d="M 2784 26 
Q 2618 -154 2358 -278 
Q 2099 -403 1811 -429 
Q 1658 -442 1469 -429 
Q 1280 -416 1104 -387 
Q 928 -358 784 -323 
Q 640 -288 576 -256 
Q 480 -211 461 -188 
Q 442 -166 454 -96 
L 499 378 
Q 506 429 531 441 
Q 557 454 627 422 
Q 704 390 845 348 
Q 986 307 1158 278 
Q 1331 250 1507 243 
Q 1683 237 1824 269 
Q 2010 314 2125 387 
Q 2240 461 2307 560 
Q 2374 659 2400 777 
Q 2426 896 2426 1024 
Q 2426 1146 2269 1357 
Q 2112 1568 1818 1741 
Q 1459 1952 1196 2134 
Q 934 2317 764 2496 
Q 595 2675 512 2867 
Q 429 3059 429 3290 
Q 429 3552 541 3792 
Q 653 4032 848 4211 
Q 1043 4390 1315 4496 
Q 1587 4602 1914 4602 
Q 2246 4602 2460 4560 
Q 2675 4518 2829 4461 
Q 2899 4435 2915 4406 
Q 2931 4378 2918 4333 
L 2835 3923 
Q 2822 3853 2793 3827 
Q 2765 3802 2694 3827 
Q 2598 3859 2483 3888 
Q 2368 3917 2246 3936 
Q 2125 3955 2013 3961 
Q 1901 3968 1811 3955 
Q 1453 3898 1309 3722 
Q 1165 3546 1165 3277 
Q 1165 3117 1331 2921 
Q 1498 2726 1818 2534 
Q 2221 2291 2480 2099 
Q 2739 1907 2889 1731 
Q 3040 1555 3101 1376 
Q 3162 1197 3162 986 
Q 3162 422 2784 26 
z
" transform="scale(0.015625)"/>
      <path id="NanumGothicBold-41" d="M 3949 -320 
Q 3904 -320 3885 -310 
Q 3866 -301 3846 -256 
L 3386 896 
L 1299 896 
L 838 -256 
Q 826 -301 806 -310 
Q 787 -320 742 -320 
L 154 -320 
Q 38 -320 77 -230 
L 1946 4435 
Q 1965 4486 1974 4496 
Q 1984 4506 2048 4506 
L 2643 4506 
Q 2701 4506 2713 4496 
Q 2726 4486 2746 4435 
L 4614 -230 
Q 4646 -320 4538 -320 
L 3949 -320 
z
M 1562 1568 
L 3117 1568 
L 2342 3539 
L 1562 1568 
z
" transform="scale(0.015625)"/>
      <path id="NanumGothicBold-54" d="M 2138 3834 
L 2138 -243 
Q 2138 -320 2061 -320 
L 1491 -320 
Q 1414 -320 1414 -243 
L 1414 3834 
L 173 3834 
Q 141 3834 118 3856 
Q 96 3878 96 3917 
L 96 4429 
Q 96 4461 118 4483 
Q 141 4506 173 4506 
L 3386 4506 
Q 3418 4506 3440 4483 
Q 3462 4461 3462 4429 
L 3462 3917 
Q 3462 3834 3386 3834 
L 2138 3834 
z
" transform="scale(0.015625)"/>
      <path id="NanumGothicBold-3a" d="M 1011 3053 
Q 806 3053 662 3197 
Q 518 3341 518 3533 
Q 518 3731 662 3875 
Q 806 4019 1011 4019 
Q 1216 4019 1357 3875 
Q 1498 3731 1498 3533 
Q 1498 3341 1357 3197 
Q 1216 3053 1011 3053 
z
M 1011 141 
Q 806 141 662 285 
Q 518 429 518 627 
Q 518 819 662 963 
Q 806 1107 1011 1107 
Q 1216 1107 1357 963 
Q 1498 819 1498 627 
Q 1498 429 1357 285 
Q 1216 141 1011 141 
z
" transform="scale(0.015625)"/>
      <path id="NanumGothicBold-20" transform="scale(0.015625)"/>
      <path id="NanumGothicBold-c5b4" d="M 2061 454 
Q 1696 454 1405 611 
Q 1114 768 912 1046 
Q 710 1325 601 1715 
Q 493 2106 493 2573 
Q 493 3053 601 3443 
Q 710 3834 912 4109 
Q 1114 4384 1405 4534 
Q 1696 4685 2061 4685 
Q 2400 4685 2675 4557 
Q 2950 4429 3152 4195 
Q 3354 3962 3475 3629 
Q 3597 3296 3629 2886 
L 4582 2886 
L 4582 4979 
Q 4582 5062 4666 5062 
L 5235 5062 
Q 5318 5062 5318 4979 
L 5318 -928 
Q 5318 -1011 5235 -1011 
L 4666 -1011 
Q 4582 -1011 4582 -928 
L 4582 2272 
L 3629 2272 
Q 3597 1856 3475 1520 
Q 3354 1184 3152 947 
Q 2950 710 2675 582 
Q 2400 454 2061 454 
z
M 2918 2573 
Q 2918 2867 2860 3132 
Q 2803 3398 2694 3596 
Q 2586 3795 2426 3913 
Q 2266 4032 2061 4032 
Q 1862 4032 1705 3913 
Q 1549 3795 1440 3596 
Q 1331 3398 1273 3132 
Q 1216 2867 1216 2573 
Q 1216 2285 1273 2019 
Q 1331 1754 1440 1552 
Q 1549 1350 1705 1228 
Q 1862 1107 2061 1107 
Q 2266 1107 2426 1228 
Q 2586 1350 2694 1552 
Q 2803 1754 2860 2019 
Q 2918 2285 2918 2573 
z
" transform="scale(0.015625)"/>
      <path id="NanumGothicBold-b5a4" d="M 5517 -826 
Q 5517 -864 5488 -883 
Q 5459 -902 5421 -902 
L 1952 -902 
Q 1664 -902 1561 -800 
Q 1459 -698 1459 -448 
L 1459 947 
Q 1459 979 1488 1008 
Q 1517 1037 1555 1037 
L 2099 1037 
Q 2138 1037 2170 1008 
Q 2202 979 2202 947 
L 2202 -186 
Q 2202 -250 2227 -269 
Q 2253 -288 2317 -288 
L 5421 -288 
Q 5453 -288 5485 -313 
Q 5517 -339 5517 -371 
L 5517 -826 
z
M 5338 832 
Q 5338 749 5254 749 
L 4717 749 
Q 4634 749 4634 832 
L 4634 2925 
L 3603 2925 
Q 3571 2925 3542 2947 
Q 3514 2970 3514 3002 
L 3514 3418 
Q 3514 3450 3542 3472 
Q 3571 3494 3603 3494 
L 4634 3494 
L 4634 4979 
Q 4634 5062 4717 5062 
L 5254 5062 
Q 5338 5062 5338 4979 
L 5338 832 
z
M 4218 1837 
Q 4230 1779 4201 1753 
Q 4173 1728 4141 1715 
Q 4026 1677 3840 1648 
Q 3654 1619 3449 1600 
Q 3245 1581 3037 1571 
Q 2829 1562 2675 1574 
Q 2483 1587 2364 1708 
Q 2246 1830 2246 2035 
L 2246 4346 
Q 2246 4570 2339 4659 
Q 2432 4749 2675 4749 
L 3782 4749 
Q 3878 4749 3878 4666 
L 3878 4256 
Q 3878 4224 3852 4195 
Q 3827 4166 3782 4166 
L 3059 4166 
Q 2944 4166 2944 4058 
L 2944 2285 
Q 2944 2202 2969 2179 
Q 2995 2157 3085 2150 
Q 3168 2150 3289 2153 
Q 3411 2157 3545 2173 
Q 3680 2189 3808 2208 
Q 3936 2227 4038 2253 
Q 4128 2272 4160 2176 
L 4218 1837 
z
M 2112 1773 
Q 2118 1722 2086 1696 
Q 2054 1670 2022 1658 
Q 1933 1632 1782 1613 
Q 1632 1594 1475 1584 
Q 1318 1574 1171 1571 
Q 1024 1568 934 1581 
Q 762 1606 627 1702 
Q 493 1798 493 1971 
L 493 4346 
Q 493 4570 589 4659 
Q 685 4749 928 4749 
L 1965 4749 
Q 2054 4749 2054 4666 
L 2054 4256 
Q 2054 4224 2028 4195 
Q 2003 4166 1965 4166 
L 1312 4166 
Q 1190 4166 1190 4058 
L 1190 2272 
Q 1190 2208 1206 2182 
Q 1222 2157 1306 2144 
Q 1350 2138 1436 2141 
Q 1523 2144 1616 2147 
Q 1709 2150 1798 2160 
Q 1888 2170 1952 2182 
Q 1997 2195 2029 2179 
Q 2061 2163 2067 2112 
L 2112 1773 
z
" transform="scale(0.015625)"/>
      <path id="NanumGothicBold-cd95" d="M 4960 -928 
Q 4960 -960 4931 -989 
Q 4902 -1018 4870 -1018 
L 4320 -1018 
Q 4282 -1018 4253 -989 
Q 4224 -960 4224 -928 
L 4224 147 
Q 4224 218 4198 237 
Q 4173 256 4102 256 
L 998 256 
Q 966 256 937 278 
Q 909 301 909 333 
L 909 774 
Q 909 813 937 835 
Q 966 858 998 858 
L 2630 858 
L 2630 1357 
L 211 1357 
Q 122 1357 122 1446 
L 122 1850 
Q 122 1888 147 1917 
Q 173 1946 211 1946 
L 5779 1946 
Q 5811 1946 5843 1914 
Q 5875 1882 5875 1850 
L 5875 1446 
Q 5875 1414 5843 1385 
Q 5811 1357 5779 1357 
L 3366 1357 
L 3366 858 
L 4538 858 
Q 4781 858 4870 755 
Q 4960 653 4960 410 
L 4960 -928 
z
M 979 2240 
Q 934 2227 883 2243 
Q 832 2259 819 2298 
L 710 2669 
Q 698 2707 723 2745 
Q 749 2784 794 2797 
Q 1562 2944 2224 3133 
Q 2886 3322 3424 3571 
Q 3482 3597 3498 3613 
Q 3514 3629 3504 3638 
Q 3494 3648 3468 3651 
Q 3443 3654 3424 3654 
L 1216 3654 
Q 1126 3654 1126 3738 
L 1126 4128 
Q 1126 4205 1216 4205 
L 4122 4205 
Q 4403 4205 4537 4112 
Q 4672 4019 4672 3904 
Q 4672 3795 4605 3692 
Q 4538 3590 4442 3507 
Q 4230 3302 3840 3110 
Q 4160 3040 4518 2976 
Q 4877 2912 5222 2861 
Q 5274 2848 5293 2806 
Q 5312 2765 5299 2726 
L 5203 2394 
Q 5190 2362 5148 2333 
Q 5107 2304 5050 2317 
Q 4589 2387 4051 2505 
Q 3514 2624 3021 2771 
Q 2554 2605 2026 2467 
Q 1498 2330 979 2240 
z
M 3859 4563 
Q 3859 4525 3827 4493 
Q 3795 4461 3750 4461 
L 2112 4461 
Q 2086 4461 2051 4486 
Q 2016 4512 2016 4557 
L 2016 4909 
Q 2016 4954 2051 4979 
Q 2086 5005 2112 5005 
L 3750 5005 
Q 3789 5005 3824 4973 
Q 3859 4941 3859 4902 
L 3859 4563 
z
" transform="scale(0.015625)"/>
      <path id="NanumGothicBold-c5d0" d="M 2342 2630 
Q 2342 2874 2304 3117 
Q 2266 3360 2182 3558 
Q 2099 3757 1968 3878 
Q 1837 4000 1658 4000 
Q 1491 4000 1369 3875 
Q 1248 3750 1171 3552 
Q 1094 3354 1056 3110 
Q 1018 2867 1018 2630 
Q 1018 2400 1056 2157 
Q 1094 1914 1171 1712 
Q 1248 1510 1369 1382 
Q 1491 1254 1658 1254 
Q 1837 1254 1965 1382 
Q 2093 1510 2176 1708 
Q 2259 1907 2300 2150 
Q 2342 2394 2342 2630 
z
M 4314 -717 
Q 4314 -806 4230 -806 
L 3706 -806 
Q 3616 -806 3616 -717 
L 3616 2291 
L 3034 2291 
Q 3002 1901 2883 1593 
Q 2765 1286 2582 1072 
Q 2400 858 2163 746 
Q 1926 634 1651 634 
Q 1344 634 1094 771 
Q 845 909 669 1168 
Q 493 1427 397 1798 
Q 301 2170 301 2637 
Q 301 3142 403 3520 
Q 506 3898 685 4147 
Q 864 4397 1110 4518 
Q 1357 4640 1651 4640 
Q 1933 4640 2176 4534 
Q 2419 4429 2604 4214 
Q 2790 4000 2905 3673 
Q 3021 3347 3046 2906 
L 3616 2906 
L 3616 4870 
Q 3616 4954 3706 4954 
L 4230 4954 
Q 4314 4954 4314 4870 
L 4314 -717 
z
M 5549 -934 
Q 5549 -1018 5466 -1018 
L 4909 -1018 
Q 4826 -1018 4826 -934 
L 4826 4979 
Q 4826 5062 4915 5062 
L 5466 5062 
Q 5549 5062 5549 4979 
L 5549 -934 
z
" transform="scale(0.015625)"/>
      <path id="NanumGothicBold-c11c" d="M 5382 -928 
Q 5382 -1011 5299 -1011 
L 4730 -1011 
Q 4646 -1011 4646 -928 
L 4646 2458 
L 3328 2458 
Q 3296 2458 3267 2483 
Q 3238 2509 3238 2541 
L 3238 2995 
Q 3238 3027 3267 3049 
Q 3296 3072 3328 3072 
L 4646 3072 
L 4646 4979 
Q 4646 5062 4730 5062 
L 5299 5062 
Q 5382 5062 5382 4979 
L 5382 -928 
z
M 800 339 
Q 678 243 576 346 
L 275 627 
Q 186 717 294 819 
Q 710 1203 1004 1664 
Q 1299 2125 1478 2650 
Q 1638 3117 1699 3600 
Q 1760 4083 1747 4653 
Q 1747 4691 1776 4720 
Q 1805 4749 1837 4749 
L 2406 4730 
Q 2438 4730 2464 4701 
Q 2490 4672 2490 4634 
Q 2490 3846 2374 3187 
Q 2432 2880 2566 2569 
Q 2701 2259 2883 1974 
Q 3066 1690 3277 1446 
Q 3488 1203 3699 1037 
Q 3802 960 3712 832 
L 3443 506 
Q 3411 461 3356 454 
Q 3302 448 3238 493 
Q 3078 614 2902 800 
Q 2726 986 2566 1200 
Q 2406 1414 2272 1641 
Q 2138 1869 2061 2080 
Q 1946 1811 1798 1561 
Q 1651 1312 1488 1085 
Q 1325 858 1149 669 
Q 973 480 800 339 
z
" transform="scale(0.015625)"/>
      <path id="NanumGothicBold-b77c" d="M 3923 806 
Q 3930 755 3894 726 
Q 3859 698 3808 685 
Q 3526 621 3132 573 
Q 2739 525 2339 499 
Q 1939 474 1577 467 
Q 1216 461 1005 480 
Q 723 506 617 602 
Q 512 698 512 941 
L 512 2477 
Q 512 2707 624 2809 
Q 736 2912 960 2912 
L 2483 2912 
Q 2534 2912 2553 2928 
Q 2573 2944 2573 3008 
L 2573 3904 
Q 2573 3955 2560 3974 
Q 2547 3994 2483 3994 
L 640 3994 
Q 608 3994 579 4019 
Q 550 4045 550 4077 
L 550 4518 
Q 550 4550 579 4572 
Q 608 4595 640 4595 
L 2867 4595 
Q 3142 4595 3222 4492 
Q 3302 4390 3302 4160 
L 3302 2739 
Q 3302 2496 3203 2406 
Q 3104 2317 2854 2317 
L 1338 2317 
Q 1248 2317 1248 2227 
L 1248 1216 
Q 1248 1146 1273 1123 
Q 1299 1101 1363 1101 
Q 1651 1088 1955 1097 
Q 2259 1107 2563 1129 
Q 2867 1152 3161 1190 
Q 3456 1229 3718 1280 
Q 3770 1293 3811 1270 
Q 3853 1248 3866 1190 
L 3923 806 
z
M 5965 2195 
Q 5965 2157 5936 2131 
Q 5907 2106 5875 2106 
L 5005 2106 
L 5005 -928 
Q 5005 -1011 4922 -1011 
L 4352 -1011 
Q 4269 -1011 4269 -928 
L 4269 4979 
Q 4269 5062 4352 5062 
L 4922 5062 
Q 5005 5062 5005 4979 
L 5005 2720 
L 5875 2720 
Q 5907 2720 5936 2697 
Q 5965 2675 5965 2643 
L 5965 2195 
z
" transform="scale(0.015625)"/>
      <path id="NanumGothicBold-b3c4" d="M 5069 1971 
Q 5069 1920 5046 1897 
Q 5024 1875 4992 1875 
L 3373 1875 
L 3373 640 
L 5786 640 
Q 5818 640 5850 608 
Q 5882 576 5882 544 
L 5882 122 
Q 5882 90 5850 58 
Q 5818 26 5786 26 
L 211 26 
Q 173 26 147 58 
Q 122 90 122 122 
L 122 544 
Q 122 582 147 611 
Q 173 640 211 640 
L 2637 640 
L 2637 1875 
L 1446 1875 
Q 1190 1875 1075 2003 
Q 960 2131 960 2355 
L 960 4224 
Q 960 4467 1069 4553 
Q 1178 4640 1421 4640 
L 4934 4640 
Q 5024 4640 5024 4557 
L 5024 4109 
Q 5024 4026 4934 4026 
L 1811 4026 
Q 1696 4026 1696 3917 
L 1696 2598 
Q 1696 2541 1718 2512 
Q 1741 2483 1811 2483 
L 4966 2483 
Q 5018 2483 5043 2470 
Q 5069 2458 5069 2406 
L 5069 1971 
z
" transform="scale(0.015625)"/>
      <path id="NanumGothicBold-be48" d="M 5408 -826 
Q 5408 -864 5379 -883 
Q 5350 -902 5318 -902 
L 1971 -902 
Q 1683 -902 1580 -800 
Q 1478 -698 1478 -448 
L 1478 947 
Q 1478 979 1507 1008 
Q 1536 1037 1574 1037 
L 2125 1037 
Q 2163 1037 2195 1008 
Q 2227 979 2227 947 
L 2227 -186 
Q 2227 -250 2252 -269 
Q 2278 -288 2342 -288 
L 5318 -288 
Q 5350 -288 5379 -313 
Q 5408 -339 5408 -371 
L 5408 -826 
z
M 5216 826 
Q 5216 742 5126 742 
L 4563 742 
Q 4531 742 4502 768 
Q 4474 794 4474 832 
L 4474 4979 
Q 4474 5011 4502 5036 
Q 4531 5062 4563 5062 
L 5126 5062 
Q 5216 5062 5216 4979 
L 5216 826 
z
M 2758 3142 
L 1370 3142 
L 1370 2406 
Q 1370 2298 1485 2298 
L 2643 2298 
Q 2758 2298 2758 2406 
L 2758 3142 
z
M 3488 2125 
Q 3488 1907 3385 1801 
Q 3283 1696 3008 1696 
L 1126 1696 
Q 845 1696 742 1792 
Q 640 1888 640 2144 
L 640 4717 
Q 640 4749 665 4771 
Q 691 4794 723 4794 
L 1280 4794 
Q 1312 4794 1341 4771 
Q 1370 4749 1370 4717 
L 1370 3738 
L 2758 3738 
L 2758 4723 
Q 2758 4755 2784 4780 
Q 2810 4806 2842 4806 
L 3405 4806 
Q 3437 4806 3462 4780 
Q 3488 4755 3488 4723 
L 3488 2125 
z
" transform="scale(0.015625)"/>
      <path id="NanumGothicBold-d2c8" d="M 4966 -499 
Q 4966 -742 4844 -844 
Q 4723 -947 4480 -947 
L 1510 -947 
Q 1222 -947 1123 -848 
Q 1024 -749 1024 -499 
L 1024 576 
Q 1024 819 1145 921 
Q 1267 1024 1510 1024 
L 4480 1024 
Q 4768 1024 4867 928 
Q 4966 832 4966 576 
L 4966 -499 
z
M 1485 2522 
Q 1229 2522 1129 2618 
Q 1030 2714 1030 2950 
L 1030 4531 
Q 1030 4768 1136 4864 
Q 1242 4960 1485 4960 
L 4864 4960 
Q 4954 4960 4954 4877 
L 4954 4486 
Q 4954 4397 4864 4397 
L 1850 4397 
Q 1792 4397 1779 4387 
Q 1766 4378 1766 4320 
L 1766 4013 
L 4768 4013 
Q 4800 4013 4832 3987 
Q 4864 3962 4864 3930 
L 4864 3552 
Q 4864 3514 4832 3488 
Q 4800 3462 4768 3462 
L 1766 3462 
L 1766 3174 
Q 1766 3104 1779 3091 
Q 1792 3078 1862 3078 
L 4890 3078 
Q 4998 3078 4998 2995 
L 4998 2624 
Q 4998 2522 4890 2522 
L 1485 2522 
z
M 5875 1568 
Q 5875 1536 5843 1501 
Q 5811 1466 5779 1466 
L 211 1466 
Q 122 1466 122 1568 
L 122 1978 
Q 122 2067 211 2067 
L 5779 2067 
Q 5811 2067 5843 2038 
Q 5875 2010 5875 1978 
L 5875 1568 
z
M 4230 339 
Q 4230 390 4214 406 
Q 4198 422 4147 422 
L 1843 422 
Q 1792 422 1776 409 
Q 1760 397 1760 346 
L 1760 -262 
Q 1760 -320 1776 -333 
Q 1792 -346 1843 -346 
L 4147 -346 
Q 4198 -346 4214 -333 
Q 4230 -320 4230 -262 
L 4230 339 
z
" transform="scale(0.015625)"/>
      <path id="NanumGothicBold-c774" d="M 5274 -928 
Q 5274 -1011 5190 -1011 
L 4621 -1011 
Q 4538 -1011 4538 -928 
L 4538 4979 
Q 4538 5062 4621 5062 
L 5190 5062 
Q 5274 5062 5274 4979 
L 5274 -928 
z
M 2963 2573 
Q 2963 2867 2905 3132 
Q 2848 3398 2739 3596 
Q 2630 3795 2473 3910 
Q 2317 4026 2112 4026 
Q 1907 4026 1750 3910 
Q 1594 3795 1485 3596 
Q 1376 3398 1318 3132 
Q 1261 2867 1261 2573 
Q 1261 2285 1318 2019 
Q 1376 1754 1485 1552 
Q 1594 1350 1750 1232 
Q 1907 1114 2112 1114 
Q 2317 1114 2473 1232 
Q 2630 1350 2739 1552 
Q 2848 1754 2905 2019 
Q 2963 2285 2963 2573 
z
M 2112 461 
Q 1747 461 1452 614 
Q 1158 768 956 1046 
Q 755 1325 646 1715 
Q 538 2106 538 2573 
Q 538 3053 646 3443 
Q 755 3834 956 4106 
Q 1158 4378 1452 4528 
Q 1747 4678 2112 4678 
Q 2483 4678 2774 4528 
Q 3066 4378 3267 4106 
Q 3469 3834 3577 3443 
Q 3686 3053 3686 2573 
Q 3686 2093 3577 1702 
Q 3469 1312 3267 1037 
Q 3066 762 2774 611 
Q 2483 461 2112 461 
z
" transform="scale(0.015625)"/>
      <path id="NanumGothicBold-c788" d="M 3558 3366 
Q 3558 3046 3446 2777 
Q 3334 2509 3126 2317 
Q 2918 2125 2633 2016 
Q 2349 1907 2003 1907 
Q 1664 1907 1382 2016 
Q 1101 2125 899 2317 
Q 698 2509 589 2777 
Q 480 3046 480 3366 
Q 480 3674 589 3942 
Q 698 4211 899 4409 
Q 1101 4608 1382 4723 
Q 1664 4838 2003 4838 
Q 2349 4838 2633 4723 
Q 2918 4608 3126 4409 
Q 3334 4211 3446 3942 
Q 3558 3674 3558 3366 
z
M 1248 -1005 
Q 1197 -1037 1149 -1046 
Q 1101 -1056 1056 -998 
L 813 -653 
Q 781 -614 784 -576 
Q 787 -538 858 -499 
Q 1421 -192 1677 269 
Q 1933 730 1933 1293 
Q 1933 1389 2016 1389 
L 2522 1382 
Q 2611 1382 2611 1312 
Q 2611 1203 2604 1100 
Q 2598 998 2586 902 
Q 2611 717 2684 547 
Q 2758 378 2851 230 
Q 2944 83 3053 -32 
Q 3162 -147 3270 -218 
Q 3322 -250 3360 -259 
Q 3398 -269 3456 -218 
Q 3802 45 3968 432 
Q 4134 819 4134 1293 
Q 4134 1389 4218 1389 
L 4723 1382 
Q 4762 1382 4790 1366 
Q 4819 1350 4819 1312 
Q 4819 1197 4809 1094 
Q 4800 992 4787 890 
Q 4832 666 4937 461 
Q 5043 256 5187 83 
Q 5331 -90 5500 -224 
Q 5670 -358 5850 -448 
Q 5901 -480 5907 -521 
Q 5914 -563 5888 -595 
L 5632 -960 
Q 5594 -1018 5485 -973 
Q 5357 -922 5216 -826 
Q 5075 -730 4940 -605 
Q 4806 -480 4684 -333 
Q 4563 -186 4480 -32 
Q 4301 -333 4048 -560 
Q 3795 -787 3488 -954 
Q 3366 -1018 3232 -954 
Q 2963 -838 2694 -592 
Q 2426 -346 2272 -38 
Q 2093 -346 1833 -595 
Q 1574 -845 1248 -1005 
z
M 5210 1754 
Q 5210 1670 5126 1670 
L 4557 1670 
Q 4474 1670 4474 1760 
L 4474 4979 
Q 4474 5062 4557 5062 
L 5126 5062 
Q 5210 5062 5210 4979 
L 5210 1754 
z
M 2829 3354 
Q 2829 3738 2605 3958 
Q 2381 4179 2003 4179 
Q 1638 4179 1414 3958 
Q 1190 3738 1190 3354 
Q 1190 2970 1414 2749 
Q 1638 2528 2003 2528 
Q 2381 2528 2605 2749 
Q 2829 2970 2829 3354 
z
" transform="scale(0.015625)"/>
      <path id="NanumGothicBold-c73c" d="M 5882 166 
Q 5882 134 5850 102 
Q 5818 70 5786 70 
L 211 70 
Q 173 70 147 102 
Q 122 134 122 166 
L 122 589 
Q 122 627 147 656 
Q 173 685 211 685 
L 5786 685 
Q 5818 685 5850 653 
Q 5882 621 5882 589 
L 5882 166 
z
M 3002 1741 
Q 2554 1741 2170 1843 
Q 1786 1946 1504 2138 
Q 1222 2330 1062 2598 
Q 902 2867 902 3200 
Q 902 3533 1062 3801 
Q 1222 4070 1504 4262 
Q 1786 4454 2170 4556 
Q 2554 4659 3002 4659 
Q 3450 4659 3834 4556 
Q 4218 4454 4499 4262 
Q 4781 4070 4937 3801 
Q 5094 3533 5094 3200 
Q 5094 2867 4937 2598 
Q 4781 2330 4499 2138 
Q 4218 1946 3834 1843 
Q 3450 1741 3002 1741 
z
M 3002 4051 
Q 2733 4051 2489 3990 
Q 2246 3930 2064 3818 
Q 1882 3706 1773 3549 
Q 1664 3392 1664 3200 
Q 1664 3008 1773 2848 
Q 1882 2688 2064 2576 
Q 2246 2464 2489 2403 
Q 2733 2342 3002 2342 
Q 3270 2342 3513 2403 
Q 3757 2464 3939 2576 
Q 4122 2688 4227 2848 
Q 4333 3008 4333 3200 
Q 4333 3392 4227 3549 
Q 4122 3706 3939 3818 
Q 3757 3930 3513 3990 
Q 3270 4051 3002 4051 
z
" transform="scale(0.015625)"/>
      <path id="NanumGothicBold-ba74" d="M 3456 2080 
Q 3456 1830 3357 1734 
Q 3258 1638 3014 1638 
L 1114 1638 
Q 845 1638 742 1734 
Q 640 1830 640 2080 
L 640 4288 
Q 640 4531 739 4624 
Q 838 4717 1082 4717 
L 3014 4717 
Q 3258 4717 3357 4630 
Q 3456 4544 3456 4288 
L 3456 4045 
L 4544 4045 
L 4544 4979 
Q 4544 5062 4627 5062 
L 5197 5062 
Q 5280 5062 5280 4979 
L 5280 768 
Q 5280 685 5197 685 
L 4627 685 
Q 4544 685 4544 768 
L 4544 2202 
L 3456 2202 
L 3456 2080 
z
M 5466 -826 
Q 5466 -864 5437 -883 
Q 5408 -902 5376 -902 
L 2048 -902 
Q 1760 -902 1657 -800 
Q 1555 -698 1555 -448 
L 1555 870 
Q 1555 902 1587 934 
Q 1619 966 1651 966 
L 2195 966 
Q 2240 966 2269 934 
Q 2298 902 2298 870 
L 2298 -186 
Q 2298 -250 2323 -269 
Q 2349 -288 2413 -288 
L 5376 -288 
Q 5408 -288 5437 -313 
Q 5466 -339 5466 -371 
L 5466 -826 
z
M 2733 4045 
Q 2733 4096 2717 4112 
Q 2701 4128 2650 4128 
L 1446 4128 
Q 1395 4128 1379 4115 
Q 1363 4102 1363 4051 
L 1363 2310 
Q 1363 2246 1379 2233 
Q 1395 2221 1446 2221 
L 2650 2221 
Q 2701 2221 2717 2233 
Q 2733 2246 2733 2310 
L 2733 4045 
z
M 4544 2790 
L 4544 3456 
L 3456 3456 
L 3456 2790 
L 4544 2790 
z
" transform="scale(0.015625)"/>
      <path id="NanumGothicBold-cda9" d="M 5030 -13 
Q 5030 -237 4892 -429 
Q 4755 -621 4496 -758 
Q 4237 -896 3856 -976 
Q 3475 -1056 2995 -1056 
Q 2515 -1056 2134 -976 
Q 1754 -896 1494 -758 
Q 1235 -621 1097 -429 
Q 960 -237 960 -13 
Q 960 378 1395 662 
Q 1830 947 2630 1005 
L 2630 1427 
L 211 1427 
Q 122 1427 122 1523 
L 122 1933 
Q 122 1971 147 2000 
Q 173 2029 211 2029 
L 5779 2029 
Q 5811 2029 5843 1997 
Q 5875 1965 5875 1933 
L 5875 1523 
Q 5875 1485 5843 1456 
Q 5811 1427 5779 1427 
L 3366 1427 
L 3366 1005 
Q 4160 947 4595 662 
Q 5030 378 5030 -13 
z
M 4672 3936 
Q 4672 3827 4605 3724 
Q 4538 3622 4442 3539 
Q 4339 3437 4185 3341 
Q 4032 3245 3846 3155 
Q 4154 3072 4525 3001 
Q 4896 2931 5229 2886 
Q 5280 2874 5299 2832 
Q 5318 2790 5306 2752 
L 5203 2419 
Q 5190 2387 5148 2358 
Q 5107 2330 5050 2342 
Q 4582 2413 4041 2531 
Q 3501 2650 3002 2797 
Q 2534 2637 2016 2502 
Q 1498 2368 979 2278 
Q 934 2266 883 2282 
Q 832 2298 819 2336 
L 698 2701 
Q 685 2739 710 2780 
Q 736 2822 781 2835 
Q 1549 2976 2217 3165 
Q 2886 3354 3424 3603 
Q 3482 3629 3498 3645 
Q 3514 3661 3504 3670 
Q 3494 3680 3468 3683 
Q 3443 3686 3424 3686 
L 1216 3686 
Q 1126 3686 1126 3770 
L 1126 4160 
Q 1126 4237 1216 4237 
L 4122 4237 
Q 4403 4237 4537 4144 
Q 4672 4051 4672 3936 
z
M 2995 474 
Q 2355 474 2022 323 
Q 1690 173 1690 -19 
Q 1690 -211 2022 -364 
Q 2355 -518 2995 -518 
Q 3635 -518 3968 -364 
Q 4301 -211 4301 -19 
Q 4301 173 3968 323 
Q 3635 474 2995 474 
z
M 3859 4595 
Q 3859 4557 3827 4525 
Q 3795 4493 3750 4493 
L 2112 4493 
Q 2086 4493 2051 4518 
Q 2016 4544 2016 4589 
L 2016 4941 
Q 2016 4986 2051 5011 
Q 2086 5037 2112 5037 
L 3750 5037 
Q 3789 5037 3824 5005 
Q 3859 4973 3859 4934 
L 3859 4595 
z
" transform="scale(0.015625)"/>
      <path id="NanumGothicBold-b3cc" d="M 5011 3219 
Q 5011 3162 4988 3139 
Q 4966 3117 4934 3117 
L 3366 3117 
L 3366 2547 
L 5779 2547 
Q 5811 2547 5843 2515 
Q 5875 2483 5875 2451 
L 5875 2042 
Q 5875 2010 5843 1978 
Q 5811 1946 5779 1946 
L 211 1946 
Q 173 1946 147 1974 
Q 122 2003 122 2042 
L 122 2451 
Q 122 2490 147 2518 
Q 173 2547 211 2547 
L 2630 2547 
L 2630 3117 
L 1510 3117 
Q 1254 3117 1152 3235 
Q 1050 3354 1050 3578 
L 1050 4602 
Q 1050 4845 1158 4931 
Q 1267 5018 1510 5018 
L 4877 5018 
Q 4966 5018 4966 4934 
L 4966 4512 
Q 4966 4422 4877 4422 
L 1914 4422 
Q 1792 4422 1792 4314 
L 1792 3821 
Q 1792 3770 1817 3741 
Q 1843 3712 1914 3712 
L 4909 3712 
Q 4960 3712 4985 3699 
Q 5011 3686 5011 3635 
L 5011 3219 
z
M 5114 -845 
Q 5114 -877 5085 -905 
Q 5056 -934 5030 -934 
L 1459 -934 
Q 1210 -934 1120 -844 
Q 1030 -755 1030 -550 
L 1030 198 
Q 1030 403 1116 496 
Q 1203 589 1453 589 
L 4166 589 
Q 4218 589 4230 598 
Q 4243 608 4243 666 
L 4243 858 
Q 4243 928 4230 944 
Q 4218 960 4160 960 
L 1107 960 
Q 1075 960 1046 982 
Q 1018 1005 1018 1037 
L 1018 1466 
Q 1018 1498 1046 1523 
Q 1075 1549 1107 1549 
L 4531 1549 
Q 4794 1549 4880 1469 
Q 4966 1389 4966 1171 
L 4966 422 
Q 4966 198 4880 121 
Q 4794 45 4531 45 
L 1830 45 
Q 1779 45 1766 29 
Q 1754 13 1754 -38 
L 1754 -262 
Q 1754 -320 1766 -329 
Q 1779 -339 1837 -339 
L 5024 -339 
Q 5056 -339 5085 -361 
Q 5114 -384 5114 -429 
L 5114 -845 
z
" transform="scale(0.015625)"/>
      <path id="NanumGothicBold-c544" d="M 5965 2195 
Q 5965 2157 5936 2131 
Q 5907 2106 5875 2106 
L 5011 2106 
L 5011 -928 
Q 5011 -966 4982 -988 
Q 4954 -1011 4922 -1011 
L 4358 -1011 
Q 4269 -1011 4269 -928 
L 4269 4979 
Q 4269 5062 4358 5062 
L 4922 5062 
Q 4954 5062 4982 5036 
Q 5011 5011 5011 4979 
L 5011 2720 
L 5875 2720 
Q 5907 2720 5936 2697 
Q 5965 2675 5965 2643 
L 5965 2195 
z
M 2848 2586 
Q 2848 2880 2790 3142 
Q 2733 3405 2624 3600 
Q 2515 3795 2355 3910 
Q 2195 4026 1990 4026 
Q 1792 4026 1635 3910 
Q 1478 3795 1369 3600 
Q 1261 3405 1203 3142 
Q 1146 2880 1146 2586 
Q 1146 2298 1203 2035 
Q 1261 1773 1369 1574 
Q 1478 1376 1635 1257 
Q 1792 1139 1990 1139 
Q 2195 1139 2355 1257 
Q 2515 1376 2624 1574 
Q 2733 1773 2790 2035 
Q 2848 2298 2848 2586 
z
M 1990 486 
Q 1626 486 1331 636 
Q 1037 787 835 1062 
Q 634 1338 525 1722 
Q 416 2106 416 2573 
Q 416 3053 525 3443 
Q 634 3834 835 4106 
Q 1037 4378 1331 4528 
Q 1626 4678 1990 4678 
Q 2362 4678 2653 4531 
Q 2944 4384 3149 4112 
Q 3354 3840 3462 3453 
Q 3571 3066 3571 2586 
Q 3571 2106 3462 1718 
Q 3354 1331 3149 1056 
Q 2944 781 2653 633 
Q 2362 486 1990 486 
z
" transform="scale(0.015625)"/>
      <path id="NanumGothicBold-b2d8" d="M 5216 1734 
Q 5216 1651 5133 1651 
L 4563 1651 
Q 4480 1651 4480 1741 
L 4480 4979 
Q 4480 5062 4563 5062 
L 5133 5062 
Q 5216 5062 5216 4979 
L 5216 1734 
z
M 4480 646 
Q 4480 698 4461 714 
Q 4442 730 4390 730 
L 2285 730 
Q 2234 730 2218 717 
Q 2202 704 2202 653 
L 2202 -218 
Q 2202 -275 2218 -288 
Q 2234 -301 2285 -301 
L 4390 -301 
Q 4448 -301 4464 -288 
Q 4480 -275 4480 -218 
L 4480 646 
z
M 5210 -454 
Q 5210 -698 5101 -800 
Q 4992 -902 4749 -902 
L 1958 -902 
Q 1670 -902 1568 -800 
Q 1466 -698 1466 -448 
L 1466 870 
Q 1466 1114 1574 1222 
Q 1683 1331 1926 1331 
L 4717 1331 
Q 5005 1331 5107 1225 
Q 5210 1120 5210 864 
L 5210 -454 
z
M 4141 2368 
Q 4147 2330 4121 2307 
Q 4096 2285 4064 2278 
Q 3776 2202 3401 2150 
Q 3027 2099 2640 2067 
Q 2253 2035 1881 2025 
Q 1510 2016 1229 2029 
Q 947 2042 854 2154 
Q 762 2266 762 2490 
L 762 4755 
Q 762 4787 790 4816 
Q 819 4845 851 4845 
L 1402 4845 
Q 1440 4845 1469 4816 
Q 1498 4787 1498 4755 
L 1498 2752 
Q 1498 2688 1526 2672 
Q 1555 2656 1619 2650 
Q 1824 2637 2105 2643 
Q 2387 2650 2700 2672 
Q 3014 2694 3337 2736 
Q 3661 2778 3962 2842 
Q 3994 2848 4029 2832 
Q 4064 2816 4070 2784 
L 4141 2368 
z
" transform="scale(0.015625)"/>
     </defs>
     <use xlink:href="#NanumGothicBold-53"/>
     <use xlink:href="#NanumGothicBold-41" transform="translate(54.499985 0)"/>
     <use xlink:href="#NanumGothicBold-54" transform="translate(121.574966 0)"/>
     <use xlink:href="#NanumGothicBold-3a" transform="translate(176.074951 0)"/>
     <use xlink:href="#NanumGothicBold-20" transform="translate(206.374939 0)"/>
     <use xlink:href="#NanumGothicBold-c5b4" transform="translate(234.374924 0)"/>
     <use xlink:href="#NanumGothicBold-b5a4" transform="translate(328.374908 0)"/>
     <use xlink:href="#NanumGothicBold-20" transform="translate(422.374893 0)"/>
     <use xlink:href="#NanumGothicBold-cd95" transform="translate(450.374878 0)"/>
     <use xlink:href="#NanumGothicBold-c5d0" transform="translate(544.374863 0)"/>
     <use xlink:href="#NanumGothicBold-c11c" transform="translate(638.374847 0)"/>
     <use xlink:href="#NanumGothicBold-b77c" transform="translate(732.374832 0)"/>
     <use xlink:href="#NanumGothicBold-b3c4" transform="translate(826.374817 0)"/>
     <use xlink:href="#NanumGothicBold-20" transform="translate(920.374802 0)"/>
     <use xlink:href="#NanumGothicBold-be48" transform="translate(948.374786 0)"/>
     <use xlink:href="#NanumGothicBold-d2c8" transform="translate(1042.374771 0)"/>
     <use xlink:href="#NanumGothicBold-c774" transform="translate(1136.374756 0)"/>
     <use xlink:href="#NanumGothicBold-20" transform="translate(1230.374741 0)"/>
     <use xlink:href="#NanumGothicBold-c788" transform="translate(1258.374725 0)"/>
     <use xlink:href="#NanumGothicBold-c73c" transform="translate(1352.37471 0)"/>
     <use xlink:href="#NanumGothicBold-ba74" transform="translate(1446.374695 0)"/>
     <use xlink:href="#NanumGothicBold-20" transform="translate(1540.37468 0)"/>
     <use xlink:href="#NanumGothicBold-cda9" transform="translate(1568.374664 0)"/>
     <use xlink:href="#NanumGothicBold-b3cc" transform="translate(1662.374649 0)"/>
     <use xlink:href="#NanumGothicBold-20" transform="translate(1756.374634 0)"/>
     <use xlink:href="#NanumGothicBold-c544" transform="translate(1784.374619 0)"/>
     <use xlink:href="#NanumGothicBold-b2d8" transform="translate(1878.374603 0)"/>
    </g>
   </g>
   <g id="text_2">
    <!-- 도형 A -->
    <g style="fill: #2563eb" transform="translate(85.761328 67.063047) scale(0.11 -0.11)">
     <defs>
      <path id="NanumGothic-b3c4" d="M 5030 1984 
Q 5030 1894 4947 1894 
L 3213 1894 
L 3213 499 
L 5728 499 
Q 5760 499 5792 476 
Q 5824 454 5824 416 
L 5824 198 
Q 5824 166 5792 140 
Q 5760 115 5728 115 
L 288 115 
Q 250 115 221 140 
Q 192 166 192 198 
L 192 416 
Q 192 454 221 476 
Q 250 499 288 499 
L 2771 499 
L 2771 1894 
L 1491 1894 
Q 1210 1894 1107 1987 
Q 1005 2080 1005 2349 
L 1005 4134 
Q 1005 4403 1107 4496 
Q 1210 4589 1491 4589 
L 4902 4589 
Q 4986 4589 4986 4506 
L 4986 4294 
Q 4986 4205 4902 4205 
L 1600 4205 
Q 1510 4205 1478 4166 
Q 1446 4128 1446 4032 
L 1446 2445 
Q 1446 2355 1478 2316 
Q 1510 2278 1600 2278 
L 4947 2278 
Q 5030 2278 5030 2195 
L 5030 1984 
z
" transform="scale(0.015625)"/>
      <path id="NanumGothic-d615" d="M 5197 64 
Q 5197 -160 5049 -339 
Q 4902 -518 4649 -646 
Q 4397 -774 4061 -844 
Q 3725 -915 3341 -915 
Q 2925 -915 2585 -844 
Q 2246 -774 2003 -646 
Q 1760 -518 1625 -339 
Q 1491 -160 1491 64 
Q 1491 282 1625 458 
Q 1760 634 2003 762 
Q 2246 890 2585 960 
Q 2925 1030 3341 1030 
Q 3725 1030 4061 963 
Q 4397 896 4649 768 
Q 4902 640 5049 461 
Q 5197 282 5197 64 
z
M 3571 2413 
Q 3571 2182 3468 1993 
Q 3366 1805 3184 1664 
Q 3002 1523 2755 1446 
Q 2509 1370 2221 1370 
Q 1926 1370 1680 1446 
Q 1434 1523 1254 1664 
Q 1075 1805 972 1997 
Q 870 2189 870 2413 
Q 870 2643 972 2835 
Q 1075 3027 1254 3161 
Q 1434 3296 1680 3373 
Q 1926 3450 2221 3450 
Q 2509 3450 2755 3373 
Q 3002 3296 3184 3158 
Q 3366 3021 3468 2829 
Q 3571 2637 3571 2413 
z
M 4742 45 
Q 4742 192 4627 307 
Q 4512 422 4317 502 
Q 4122 582 3866 624 
Q 3610 666 3334 666 
Q 3027 666 2771 624 
Q 2515 582 2332 502 
Q 2150 422 2048 307 
Q 1946 192 1946 45 
Q 1946 -96 2048 -208 
Q 2150 -320 2332 -397 
Q 2515 -474 2771 -512 
Q 3027 -550 3334 -550 
Q 3610 -550 3866 -512 
Q 4122 -474 4317 -397 
Q 4512 -320 4627 -208 
Q 4742 -96 4742 45 
z
M 4710 3347 
L 4710 4915 
Q 4710 5005 4800 5005 
L 5062 5005 
Q 5152 5005 5152 4915 
L 5152 1210 
Q 5152 1120 5062 1120 
L 4800 1120 
Q 4710 1120 4710 1210 
L 4710 1926 
L 3904 1926 
Q 3821 1926 3821 2003 
L 3821 2227 
Q 3821 2304 3904 2304 
L 4710 2304 
L 4710 2970 
L 3904 2970 
Q 3821 2970 3821 3046 
L 3821 3270 
Q 3821 3347 3904 3347 
L 4710 3347 
z
M 3149 2413 
Q 3149 2566 3078 2691 
Q 3008 2816 2883 2902 
Q 2758 2989 2588 3037 
Q 2419 3085 2221 3085 
Q 2022 3085 1849 3037 
Q 1677 2989 1552 2902 
Q 1427 2816 1356 2691 
Q 1286 2566 1286 2413 
Q 1286 2259 1356 2134 
Q 1427 2010 1552 1920 
Q 1677 1830 1849 1782 
Q 2022 1734 2221 1734 
Q 2419 1734 2588 1782 
Q 2758 1830 2883 1920 
Q 3008 2010 3078 2134 
Q 3149 2259 3149 2413 
z
M 3955 3821 
Q 3955 3738 3859 3738 
L 550 3738 
Q 518 3738 489 3763 
Q 461 3789 461 3827 
L 461 4032 
Q 461 4070 489 4096 
Q 518 4122 550 4122 
L 3859 4122 
Q 3955 4122 3955 4038 
L 3955 3821 
z
M 3149 4608 
Q 3149 4518 3053 4518 
L 1363 4518 
Q 1331 4518 1302 4540 
Q 1274 4563 1274 4602 
L 1274 4819 
Q 1274 4858 1299 4883 
Q 1325 4909 1357 4909 
L 3053 4909 
Q 3149 4909 3149 4819 
L 3149 4608 
z
" transform="scale(0.015625)"/>
      <path id="NanumGothic-20" transform="scale(0.015625)"/>
      <path id="NanumGothic-41" d="M 3386 1402 
Q 3117 2067 2870 2716 
Q 2624 3366 2355 4032 
Q 2086 3366 1827 2716 
Q 1568 2067 1299 1402 
L 3386 1402 
z
M 4499 -186 
Q 4531 -275 4442 -275 
L 4134 -275 
Q 4096 -275 4067 -262 
Q 4038 -250 4013 -186 
L 3539 992 
L 1133 992 
Q 1011 691 896 403 
Q 781 115 666 -186 
Q 640 -250 611 -262 
Q 582 -275 544 -275 
L 243 -275 
Q 154 -275 186 -186 
L 2067 4397 
Q 2099 4474 2182 4474 
L 2573 4474 
Q 2656 4474 2688 4397 
L 4499 -186 
z
" transform="scale(0.015625)"/>
     </defs>
     <use xlink:href="#NanumGothic-b3c4"/>
     <use xlink:href="#NanumGothic-d615" transform="translate(93.999985 0)"/>
     <use xlink:href="#NanumGothic-20" transform="translate(187.999969 0)"/>
     <use xlink:href="#NanumGothic-41" transform="translate(215.999954 0)"/>
    </g>
   </g>
   <g id="text_3">
    <!-- 도형 B -->
    <g style="fill: #10b981" transform="translate(268.707344 63.343047) scale(0.11 -0.11)">
     <defs>
      <path id="NanumGothic-42" d="M 2784 3277 
Q 2784 4064 1741 4064 
L 1088 4064 
L 1088 2394 
L 1619 2394 
Q 2202 2394 2493 2624 
Q 2784 2854 2784 3277 
z
M 2931 1050 
Q 2931 1523 2585 1753 
Q 2240 1984 1491 1984 
L 1075 1984 
L 1075 128 
L 1568 128 
Q 2931 128 2931 1050 
z
M 3405 1075 
Q 3405 -275 1555 -275 
L 781 -275 
Q 646 -275 624 -252 
Q 602 -230 602 -96 
L 602 4282 
Q 602 4416 624 4438 
Q 646 4461 781 4461 
L 1741 4461 
Q 3258 4461 3258 3296 
Q 3258 2406 2413 2214 
Q 2899 2074 3152 1789 
Q 3405 1504 3405 1075 
z
" transform="scale(0.015625)"/>
     </defs>
     <use xlink:href="#NanumGothic-b3c4"/>
     <use xlink:href="#NanumGothic-d615" transform="translate(93.999985 0)"/>
     <use xlink:href="#NanumGothic-20" transform="translate(187.999969 0)"/>
     <use xlink:href="#NanumGothic-42" transform="translate(215.999954 0)"/>
    </g>
   </g>
   <g id="patch_4">
    <path d="M 386.36168 188.624531 
Q 399.239548 188.624531 410.104955 188.624531 
" clip-path="url(#p6954686e7c)" style="fill: none; stroke: #111827; stroke-width: 1.8; stroke-linecap: round"/>
    <path d="M 405.304955 186.224531 
L 410.104955 188.624531 
L 405.304955 191.024531 
z
" clip-path="url(#p6954686e7c)" style="fill: #111827; stroke: #111827; stroke-width: 1.8; stroke-linecap: round"/>
   </g>
   <g id="text_4">
    <!-- axis -->
    <g style="fill: #111827" transform="translate(397.047969 182.383047) scale(0.11 -0.11)">
     <defs>
      <path id="NanumGothic-61" d="M 2566 1530 
L 2445 1530 
Q 2086 1542 1808 1500 
Q 1530 1459 1344 1389 
Q 1075 1293 940 1104 
Q 806 915 806 653 
Q 806 493 857 355 
Q 909 218 1018 141 
Q 1210 -13 1530 -13 
Q 1754 -13 1942 76 
Q 2131 166 2272 332 
Q 2413 499 2489 745 
Q 2566 992 2566 1312 
L 2566 1530 
z
M 742 2650 
Q 710 2630 681 2640 
Q 653 2650 653 2682 
L 653 2925 
Q 653 3014 742 3059 
Q 966 3181 1219 3229 
Q 1472 3277 1773 3277 
Q 2413 3277 2707 2973 
Q 3002 2669 3002 2054 
L 3002 448 
Q 3002 256 3008 105 
Q 3014 -45 3027 -186 
Q 3027 -275 2938 -275 
L 2707 -275 
Q 2618 -275 2618 -186 
L 2618 307 
Q 2483 -19 2166 -198 
Q 1850 -378 1478 -378 
Q 832 -378 531 0 
Q 429 128 377 297 
Q 326 467 326 634 
Q 326 1024 508 1305 
Q 691 1587 1069 1728 
Q 1530 1894 2483 1894 
L 2566 1894 
L 2566 2086 
Q 2566 2490 2384 2701 
Q 2202 2912 1773 2912 
Q 1485 2912 1229 2851 
Q 973 2790 742 2650 
z
" transform="scale(0.015625)"/>
      <path id="NanumGothic-78" d="M 3046 -186 
Q 3066 -218 3050 -246 
Q 3034 -275 2995 -275 
L 2637 -275 
Q 2560 -275 2509 -186 
L 1645 1222 
L 717 -186 
Q 659 -275 589 -275 
L 269 -275 
Q 230 -275 214 -246 
Q 198 -218 218 -186 
L 1389 1562 
L 339 3098 
Q 320 3130 336 3158 
Q 352 3187 390 3187 
L 742 3187 
Q 819 3187 870 3098 
L 1645 1894 
L 2432 3098 
Q 2490 3187 2560 3187 
L 2874 3187 
Q 2912 3187 2928 3158 
Q 2944 3130 2925 3098 
L 1901 1562 
L 3046 -186 
z
" transform="scale(0.015625)"/>
      <path id="NanumGothic-69" d="M 1050 -186 
Q 1050 -275 960 -275 
L 678 -275 
Q 589 -275 589 -186 
L 589 3098 
Q 589 3187 678 3187 
L 960 3187 
Q 1050 3187 1050 3098 
L 1050 -186 
z
M 506 4397 
Q 506 4525 595 4617 
Q 685 4710 813 4710 
Q 941 4710 1033 4617 
Q 1126 4525 1126 4397 
Q 1126 4269 1033 4179 
Q 941 4090 813 4090 
Q 685 4090 595 4179 
Q 506 4269 506 4397 
z
" transform="scale(0.015625)"/>
      <path id="NanumGothic-73" d="M 422 147 
Q 813 -13 1229 -13 
Q 1574 -13 1798 156 
Q 2022 326 2022 614 
Q 2022 781 1897 937 
Q 1773 1094 1594 1197 
Q 1395 1306 1187 1405 
Q 979 1504 787 1613 
Q 557 1741 448 1929 
Q 339 2118 339 2323 
Q 339 2560 428 2739 
Q 518 2918 672 3040 
Q 826 3162 1030 3219 
Q 1235 3277 1466 3277 
Q 1709 3277 1888 3251 
Q 2067 3226 2246 3174 
Q 2285 3162 2313 3136 
Q 2342 3110 2336 3066 
L 2317 2874 
Q 2310 2822 2278 2809 
Q 2246 2797 2214 2810 
Q 2054 2867 1894 2889 
Q 1734 2912 1510 2912 
Q 768 2912 768 2323 
Q 768 2195 867 2080 
Q 966 1965 1203 1850 
Q 1408 1747 1606 1654 
Q 1805 1562 2035 1434 
Q 2234 1325 2365 1101 
Q 2496 877 2496 614 
Q 2496 358 2393 172 
Q 2291 -13 2118 -134 
Q 1946 -256 1722 -317 
Q 1498 -378 1261 -378 
Q 1120 -378 1008 -371 
Q 896 -365 797 -352 
Q 698 -339 595 -320 
Q 493 -301 378 -269 
Q 288 -237 294 -154 
L 320 83 
Q 333 186 422 147 
z
" transform="scale(0.015625)"/>
     </defs>
     <use xlink:href="#NanumGothic-61"/>
     <use xlink:href="#NanumGothic-78" transform="translate(54.499985 0)"/>
     <use xlink:href="#NanumGothic-69" transform="translate(105.499969 0)"/>
     <use xlink:href="#NanumGothic-73" transform="translate(129.699966 0)"/>
    </g>
   </g>
   <g id="text_5">
    <!-- A의 구간 -->
    <g style="fill: #2563eb" transform="translate(102.964844 224.141) scale(0.1 -0.1)">
     <defs>
      <path id="NanumGothic-c758" d="M 5152 -806 
Q 5152 -896 5062 -896 
L 4800 -896 
Q 4710 -896 4710 -806 
L 4710 4915 
Q 4710 5005 4800 5005 
L 5062 5005 
Q 5152 5005 5152 4915 
L 5152 -806 
z
M 3693 3187 
Q 3693 2867 3577 2601 
Q 3462 2336 3257 2144 
Q 3053 1952 2771 1846 
Q 2490 1741 2157 1741 
Q 1830 1741 1555 1846 
Q 1280 1952 1078 2144 
Q 877 2336 761 2601 
Q 646 2867 646 3187 
Q 646 3526 761 3795 
Q 877 4064 1078 4253 
Q 1280 4442 1555 4541 
Q 1830 4640 2157 4640 
Q 2464 4640 2742 4541 
Q 3021 4442 3232 4253 
Q 3443 4064 3568 3795 
Q 3693 3526 3693 3187 
z
M 3245 3194 
Q 3245 3456 3158 3654 
Q 3072 3853 2921 3984 
Q 2771 4115 2572 4179 
Q 2374 4243 2157 4243 
Q 1926 4243 1734 4176 
Q 1542 4109 1398 3977 
Q 1254 3846 1174 3651 
Q 1094 3456 1094 3194 
Q 1094 2701 1385 2416 
Q 1677 2131 2157 2131 
Q 2374 2131 2572 2204 
Q 2771 2278 2921 2412 
Q 3072 2547 3158 2745 
Q 3245 2944 3245 3194 
z
M 4294 1069 
Q 4326 1075 4355 1059 
Q 4384 1043 4390 1018 
L 4422 800 
Q 4429 723 4346 704 
Q 4134 666 3884 630 
Q 3635 595 3369 563 
Q 3104 531 2835 505 
Q 2566 480 2310 461 
Q 2112 448 1846 435 
Q 1581 422 1305 412 
Q 1030 403 780 400 
Q 531 397 371 403 
Q 333 403 304 428 
Q 275 454 275 486 
L 275 704 
Q 275 742 304 764 
Q 333 787 371 787 
Q 557 787 816 790 
Q 1075 794 1347 800 
Q 1619 806 1872 816 
Q 2125 826 2298 838 
Q 2522 851 2800 876 
Q 3078 902 3353 934 
Q 3629 966 3878 1001 
Q 4128 1037 4294 1069 
z
" transform="scale(0.015625)"/>
      <path id="NanumGothic-ad6c" d="M 966 4749 
Q 966 4787 998 4806 
Q 1030 4826 1062 4826 
L 4448 4826 
Q 4602 4826 4694 4794 
Q 4787 4762 4838 4701 
Q 4890 4640 4912 4544 
Q 4934 4448 4934 4314 
Q 4947 3814 4873 3296 
Q 4800 2778 4672 2176 
L 5728 2176 
Q 5760 2176 5792 2153 
Q 5824 2131 5824 2093 
L 5824 1875 
Q 5824 1843 5792 1817 
Q 5760 1792 5728 1792 
L 3213 1792 
L 3213 -762 
Q 3213 -800 3190 -829 
Q 3168 -858 3130 -858 
L 2854 -858 
Q 2822 -858 2796 -829 
Q 2771 -800 2771 -762 
L 2771 1792 
L 288 1792 
Q 250 1792 221 1817 
Q 192 1843 192 1875 
L 192 2093 
Q 192 2131 221 2153 
Q 250 2176 288 2176 
L 4237 2176 
Q 4301 2426 4358 2720 
Q 4416 3014 4451 3308 
Q 4486 3603 4499 3865 
Q 4512 4128 4499 4307 
Q 4486 4397 4464 4419 
Q 4442 4442 4352 4442 
L 1062 4442 
Q 1030 4442 998 4464 
Q 966 4486 966 4518 
L 966 4749 
z
" transform="scale(0.015625)"/>
      <path id="NanumGothic-ac04" d="M 3290 4198 
Q 3130 3264 2480 2531 
Q 1830 1798 698 1325 
Q 659 1312 617 1312 
Q 576 1312 557 1363 
L 461 1574 
Q 435 1626 457 1658 
Q 480 1690 512 1702 
Q 979 1894 1372 2156 
Q 1766 2419 2064 2726 
Q 2362 3034 2554 3379 
Q 2746 3725 2810 4090 
Q 2848 4269 2656 4269 
L 685 4269 
Q 608 4269 608 4352 
L 608 4576 
Q 608 4653 685 4653 
L 2803 4653 
Q 3110 4653 3219 4544 
Q 3328 4435 3290 4198 
z
M 4928 806 
Q 4928 717 4838 717 
L 4576 717 
Q 4486 717 4486 806 
L 4486 4915 
Q 4486 5005 4576 5005 
L 4838 5005 
Q 4928 5005 4928 4915 
L 4928 3066 
L 5811 3066 
Q 5850 3066 5878 3043 
Q 5907 3021 5907 2982 
L 5907 2765 
Q 5907 2733 5878 2707 
Q 5850 2682 5811 2682 
L 4928 2682 
L 4928 806 
z
M 5216 -704 
Q 5216 -742 5184 -761 
Q 5152 -781 5120 -781 
L 1862 -781 
Q 1562 -781 1469 -669 
Q 1376 -557 1376 -294 
L 1376 934 
Q 1376 1024 1466 1024 
L 1728 1024 
Q 1818 1024 1818 934 
L 1818 -262 
Q 1818 -352 1846 -374 
Q 1875 -397 1965 -397 
L 5120 -397 
Q 5152 -397 5184 -419 
Q 5216 -442 5216 -474 
L 5216 -704 
z
" transform="scale(0.015625)"/>
     </defs>
     <use xlink:href="#NanumGothic-41"/>
     <use xlink:href="#NanumGothic-c758" transform="translate(72.699982 0)"/>
     <use xlink:href="#NanumGothic-20" transform="translate(166.699966 0)"/>
     <use xlink:href="#NanumGothic-ad6c" transform="translate(194.699951 0)"/>
     <use xlink:href="#NanumGothic-ac04" transform="translate(288.699936 0)"/>
    </g>
   </g>
   <g id="text_6">
    <!-- B의 구간 -->
    <g style="fill: #10b981" transform="translate(250.510312 224.141) scale(0.1 -0.1)">
     <use xlink:href="#NanumGothic-42"/>
     <use xlink:href="#NanumGothic-c758" transform="translate(60.599991 0)"/>
     <use xlink:href="#NanumGothic-20" transform="translate(154.599976 0)"/>
     <use xlink:href="#NanumGothic-ad6c" transform="translate(182.59996 0)"/>
     <use xlink:href="#NanumGothic-ac04" transform="translate(276.599945 0)"/>
    </g>
   </g>
   <g id="patch_5">
    <path d="M 196.5 150.137673 
Q 196.5 177.310103 196.5 202.470072 
" style="fill: none; stroke: #ef4444; stroke-width: 1.8; stroke-linecap: round"/>
    <path d="M 198.7 198.070072 
L 196.5 202.470072 
L 194.3 198.070072 
z
" style="fill: #ef4444; stroke: #ef4444; stroke-width: 1.8; stroke-linecap: round"/>
   </g>
   <g id="text_7">
    <!-- 빈틈 -->
    <g style="fill: #ef4444" transform="translate(186.16 143.984531) scale(0.11 -0.11)">
     <defs>
      <path id="NanumGothic-be48" d="M 5152 832 
Q 5152 742 5062 742 
L 4800 742 
Q 4710 742 4710 832 
L 4710 4915 
Q 4710 5005 4800 5005 
L 5062 5005 
Q 5152 5005 5152 4915 
L 5152 832 
z
M 5440 -704 
Q 5440 -742 5408 -761 
Q 5376 -781 5344 -781 
L 2054 -781 
Q 1754 -781 1661 -669 
Q 1568 -557 1568 -294 
L 1568 960 
Q 1568 1050 1658 1050 
L 1920 1050 
Q 2010 1050 2010 960 
L 2010 -262 
Q 2010 -352 2038 -374 
Q 2067 -397 2157 -397 
L 5344 -397 
Q 5376 -397 5408 -419 
Q 5440 -442 5440 -474 
L 5440 -704 
z
M 1190 1715 
Q 1037 1715 944 1734 
Q 851 1754 800 1808 
Q 749 1862 729 1948 
Q 710 2035 710 2170 
L 710 4691 
Q 710 4723 736 4745 
Q 762 4768 794 4768 
L 1069 4768 
Q 1101 4768 1123 4742 
Q 1146 4717 1146 4691 
L 1146 3584 
L 3008 3584 
L 3008 4685 
Q 3008 4717 3030 4742 
Q 3053 4768 3085 4768 
L 3360 4768 
Q 3392 4768 3417 4745 
Q 3443 4723 3443 4691 
L 3443 2125 
Q 3443 1882 3340 1798 
Q 3238 1715 2957 1715 
L 1190 1715 
z
M 1146 3206 
L 1146 2246 
Q 1146 2150 1178 2121 
Q 1210 2093 1299 2093 
L 2854 2093 
Q 2944 2093 2976 2121 
Q 3008 2150 3008 2246 
L 3008 3206 
L 1146 3206 
z
" transform="scale(0.015625)"/>
      <path id="NanumGothic-d2c8" d="M 1075 589 
Q 1075 858 1177 950 
Q 1280 1043 1562 1043 
L 4442 1043 
Q 4595 1043 4688 1024 
Q 4781 1005 4835 953 
Q 4890 902 4909 812 
Q 4928 723 4928 589 
L 4928 -390 
Q 4928 -659 4825 -752 
Q 4723 -845 4442 -845 
L 1562 -845 
Q 1408 -845 1315 -825 
Q 1222 -806 1168 -752 
Q 1114 -698 1094 -611 
Q 1075 -525 1075 -390 
L 1075 589 
z
M 4838 3590 
Q 4838 3507 4755 3507 
L 1523 3507 
L 1523 3014 
Q 1523 2925 1555 2886 
Q 1587 2848 1677 2848 
L 4883 2848 
Q 4966 2848 4966 2765 
L 4966 2573 
Q 4966 2483 4883 2483 
L 1568 2483 
Q 1286 2483 1184 2576 
Q 1082 2669 1082 2938 
L 1082 4435 
Q 1082 4704 1184 4797 
Q 1286 4890 1568 4890 
L 4838 4890 
Q 4922 4890 4922 4806 
L 4922 4608 
Q 4922 4518 4838 4518 
L 1677 4518 
Q 1587 4518 1555 4483 
Q 1523 4448 1523 4352 
L 1523 3872 
L 4749 3872 
Q 4838 3872 4838 3802 
L 4838 3590 
z
M 1670 672 
Q 1581 672 1549 637 
Q 1517 602 1517 506 
L 1517 -294 
Q 1517 -390 1549 -425 
Q 1581 -461 1670 -461 
L 4333 -461 
Q 4422 -461 4454 -425 
Q 4486 -390 4486 -294 
L 4486 506 
Q 4486 602 4454 637 
Q 4422 672 4333 672 
L 1670 672 
z
M 5728 1952 
Q 5760 1952 5792 1929 
Q 5824 1907 5824 1869 
L 5824 1651 
Q 5824 1619 5792 1593 
Q 5760 1568 5728 1568 
L 288 1568 
Q 250 1568 221 1593 
Q 192 1619 192 1651 
L 192 1869 
Q 192 1907 221 1929 
Q 250 1952 288 1952 
L 5728 1952 
z
" transform="scale(0.015625)"/>
     </defs>
     <use xlink:href="#NanumGothic-be48"/>
     <use xlink:href="#NanumGothic-d2c8" transform="translate(93.999985 0)"/>
    </g>
   </g>
  </g>
 </g>
 <defs>
  <clipPath id="p6954686e7c">
   <rect x="8.64" y="28.664531" width="446.4" height="204.6"/>
  </clipPath>
 </defs>
</svg>
