<?xml version="1.0" encoding="utf-8" standalone="no"?>
<!DOCTYPE svg PUBLIC "-//W3C//DTD SVG 1.1//EN"
  "http://www.w3.org/Graphics/SVG/1.1/DTD/svg11.dtd">
<svg xmlns:xlink="http://www.w3.org/1999/xlink" width="876.6pt" height="152.646807pt" viewBox="0 0 876.6 152.646807" xmlns="http://www.w3.org/2000/svg" version="1.1">
 <metadata>
  <rdf:RDF xmlns:dc="http://purl.org/dc/elements/1.1/" xmlns:cc="http://creativecommons.org/ns#" xmlns:rdf="http://www.w3.org/1999/02/22-rdf-syntax-ns#">
   <cc:Work>
    <dc:type rdf:resource="http://purl.org/dc/dcmitype/StillImage"/>
    <dc:date>2026-07-08T05:12:55.871790</dc:date>
    <dc:format>image/svg+xml</dc:format>
    <dc:creator>
     <cc:Agent>
      <dc:title>Matplotlib v3.10.8, https://matplotlib.org/</dc:title>
     </cc:Agent>
    </dc:creator>
   </cc:Work>
  </rdf:RDF>
 </metadata>
 <defs>
  <style type="text/css">*{stroke-linejoin: round; stroke-linecap: butt}</style>
 </defs>
 <g id="figure_1">
  <g id="patch_1">
   <path d="M 0 152.646807 
L 876.6 152.646807 
L 876.6 0 
L 0 0 
z
" style="fill: #ffffff"/>
  </g>
  <g id="axes_1">
   <g id="text_1">
    <!-- 그래픽스 좌표 변환 -->
    <g style="fill: #111827" transform="translate(8.64 20.054062) scale(0.15 -0.15)">
     <defs>
      <path id="NanumGothicBold-adf8" d="M 5882 160 
Q 5882 128 5850 96 
Q 5818 64 5786 64 
L 211 64 
Q 173 64 147 96 
Q 122 128 122 160 
L 122 582 
Q 122 621 147 649 
Q 173 678 211 678 
L 4070 678 
Q 4173 1254 4227 2051 
Q 4282 2848 4282 3757 
Q 4282 3866 4256 3914 
Q 4230 3962 4122 3962 
L 1024 3962 
Q 992 3962 966 3990 
Q 941 4019 941 4051 
L 941 4474 
Q 941 4506 966 4534 
Q 992 4563 1024 4563 
L 4589 4563 
Q 4870 4563 4950 4419 
Q 5030 4275 5030 4038 
Q 5030 3181 4982 2342 
Q 4934 1504 4794 678 
L 5786 678 
Q 5818 678 5850 646 
Q 5882 614 5882 582 
L 5882 160 
z
" transform="scale(0.015625)"/>
      <path id="NanumGothicBold-b798" d="M 3334 870 
Q 3347 826 3318 797 
Q 3290 768 3238 755 
Q 3040 704 2742 659 
Q 2445 614 2121 579 
Q 1798 544 1478 531 
Q 1158 518 915 531 
Q 621 557 518 653 
Q 416 749 416 992 
L 416 2464 
Q 416 2694 531 2793 
Q 646 2893 870 2893 
L 2022 2893 
Q 2074 2893 2093 2909 
Q 2112 2925 2112 2989 
L 2112 3866 
Q 2112 3917 2099 3936 
Q 2086 3955 2022 3955 
L 531 3955 
Q 499 3955 470 3980 
Q 442 4006 442 4038 
L 442 4461 
Q 442 4493 470 4518 
Q 499 4544 531 4544 
L 2381 4544 
Q 2656 4544 2736 4441 
Q 2816 4339 2816 4102 
L 2816 2726 
Q 2816 2483 2717 2396 
Q 2618 2310 2368 2310 
L 1222 2310 
Q 1126 2310 1126 2221 
L 1126 1261 
Q 1126 1190 1152 1171 
Q 1178 1152 1248 1146 
Q 1478 1133 1702 1142 
Q 1926 1152 2156 1174 
Q 2387 1197 2633 1235 
Q 2880 1274 3155 1325 
Q 3245 1344 3264 1242 
L 3334 870 
z
M 4826 4979 
Q 4826 5062 4915 5062 
L 5466 5062 
Q 5549 5062 5549 4979 
L 5549 -928 
Q 5549 -1011 5466 -1011 
L 4909 -1011 
Q 4826 -1011 4826 -928 
L 4826 2099 
L 4275 2099 
L 4275 -685 
Q 4275 -774 4192 -774 
L 3667 -774 
Q 3578 -774 3578 -685 
L 3578 4864 
Q 3578 4947 3667 4947 
L 4192 4947 
Q 4275 4947 4275 4864 
L 4275 2714 
L 4826 2714 
L 4826 4979 
z
" transform="scale(0.015625)"/>
      <path id="NanumGothicBold-d53d" d="M 288 2336 
Q 288 2374 317 2400 
Q 346 2426 384 2426 
Q 544 2419 697 2419 
Q 851 2419 1005 2419 
L 1005 4115 
L 448 4115 
Q 416 4115 381 4150 
Q 346 4186 346 4224 
L 346 4621 
Q 346 4653 381 4685 
Q 416 4717 448 4717 
L 3693 4717 
Q 3731 4717 3760 4688 
Q 3789 4659 3789 4621 
L 3789 4218 
Q 3789 4179 3760 4147 
Q 3731 4115 3693 4115 
L 3302 4115 
L 3302 2509 
Q 3456 2528 3609 2547 
Q 3763 2566 3923 2586 
Q 3955 2592 3990 2576 
Q 4026 2560 4032 2528 
L 4077 2144 
Q 4083 2093 4048 2054 
Q 4013 2016 3981 2010 
Q 3597 1952 3161 1913 
Q 2726 1875 2265 1852 
Q 1805 1830 1328 1824 
Q 851 1818 384 1830 
Q 346 1830 317 1862 
Q 288 1894 288 1933 
L 288 2336 
z
M 5222 -909 
Q 5222 -941 5190 -969 
Q 5158 -998 5126 -998 
L 4582 -998 
Q 4538 -998 4509 -969 
Q 4480 -941 4480 -909 
L 4480 518 
Q 4480 589 4454 608 
Q 4429 627 4365 627 
L 1446 627 
Q 1414 627 1385 649 
Q 1357 672 1357 704 
L 1357 1158 
Q 1357 1197 1385 1219 
Q 1414 1242 1446 1242 
L 4794 1242 
Q 5037 1242 5129 1139 
Q 5222 1037 5222 794 
L 5222 -909 
z
M 5222 1651 
Q 5222 1613 5193 1587 
Q 5165 1562 5133 1562 
L 4570 1562 
Q 4480 1562 4480 1645 
L 4480 4979 
Q 4480 5011 4512 5036 
Q 4544 5062 4582 5062 
L 5146 5062 
Q 5222 5062 5222 4979 
L 5222 1651 
z
M 1702 2426 
Q 1939 2432 2163 2438 
Q 2387 2445 2605 2458 
L 2605 4115 
L 1702 4115 
L 1702 2426 
z
" transform="scale(0.015625)"/>
      <path id="NanumGothicBold-c2a4" d="M 902 1760 
Q 870 1747 828 1756 
Q 787 1766 755 1818 
L 525 2214 
Q 499 2266 521 2307 
Q 544 2349 589 2362 
Q 1069 2541 1430 2749 
Q 1792 2957 2045 3225 
Q 2298 3494 2442 3840 
Q 2586 4186 2630 4640 
Q 2637 4685 2659 4729 
Q 2682 4774 2733 4768 
L 3290 4742 
Q 3398 4736 3392 4602 
Q 3386 4435 3354 4288 
Q 3430 3981 3622 3699 
Q 3814 3418 4092 3184 
Q 4371 2950 4710 2771 
Q 5050 2592 5414 2490 
Q 5459 2477 5468 2435 
Q 5478 2394 5466 2362 
L 5248 1952 
Q 5197 1856 5094 1882 
Q 4800 1958 4502 2099 
Q 4205 2240 3929 2429 
Q 3654 2618 3424 2851 
Q 3194 3085 3034 3354 
Q 2714 2790 2166 2393 
Q 1619 1997 902 1760 
z
M 5786 685 
Q 5818 685 5850 653 
Q 5882 621 5882 582 
L 5882 166 
Q 5882 134 5850 102 
Q 5818 70 5786 70 
L 211 70 
Q 173 70 147 102 
Q 122 134 122 166 
L 122 582 
Q 122 685 211 685 
L 5786 685 
z
" transform="scale(0.015625)"/>
      <path id="NanumGothicBold-20" transform="scale(0.015625)"/>
      <path id="NanumGothicBold-c88c" d="M 5971 2016 
Q 5971 1984 5942 1958 
Q 5914 1933 5882 1933 
L 5043 1933 
L 5043 -928 
Q 5043 -1011 4960 -1011 
L 4390 -1011 
Q 4307 -1011 4307 -928 
L 4307 4979 
Q 4307 5062 4390 5062 
L 4960 5062 
Q 5043 5062 5043 4979 
L 5043 2547 
L 5882 2547 
Q 5914 2547 5942 2521 
Q 5971 2496 5971 2464 
L 5971 2016 
z
M 550 1888 
Q 506 1875 458 1897 
Q 410 1920 397 1952 
L 243 2285 
Q 224 2330 253 2378 
Q 282 2426 326 2438 
Q 1050 2701 1613 3053 
Q 2176 3405 2490 3750 
Q 2560 3834 2560 3862 
Q 2560 3891 2458 3891 
L 691 3891 
Q 659 3891 630 3913 
Q 602 3936 602 3974 
L 602 4410 
Q 602 4493 691 4493 
L 2944 4493 
Q 3046 4493 3142 4467 
Q 3238 4442 3315 4397 
Q 3392 4352 3437 4294 
Q 3482 4237 3482 4179 
Q 3482 4090 3456 3984 
Q 3430 3878 3341 3750 
Q 3226 3584 3072 3414 
Q 2918 3245 2733 3078 
Q 2854 3014 2998 2947 
Q 3142 2880 3296 2816 
Q 3450 2752 3600 2697 
Q 3750 2643 3885 2605 
Q 3994 2573 3942 2464 
L 3770 2106 
Q 3757 2074 3709 2061 
Q 3661 2048 3610 2061 
Q 3258 2170 2890 2339 
Q 2522 2509 2202 2682 
Q 1830 2426 1408 2218 
Q 986 2010 550 1888 
z
M 1773 1933 
Q 1773 2022 1862 2022 
L 2406 2022 
Q 2496 2022 2496 1933 
L 2496 832 
Q 3200 877 3904 986 
Q 3936 992 3974 982 
Q 4013 973 4019 922 
L 4058 512 
Q 4064 461 4038 435 
Q 4013 410 3981 403 
Q 3085 256 2125 211 
Q 1165 166 243 179 
Q 154 179 154 282 
L 154 704 
Q 154 794 243 794 
Q 627 781 1008 784 
Q 1389 787 1773 800 
L 1773 1933 
z
" transform="scale(0.015625)"/>
      <path id="NanumGothicBold-d45c" d="M 5235 1856 
Q 5235 1811 5206 1782 
Q 5178 1754 5139 1754 
L 4346 1754 
L 4346 640 
L 5786 640 
Q 5818 640 5850 608 
Q 5882 576 5882 544 
L 5882 122 
Q 5882 90 5850 58 
Q 5818 26 5786 26 
L 211 26 
Q 173 26 147 58 
Q 122 90 122 122 
L 122 544 
Q 122 582 147 611 
Q 173 640 211 640 
L 1651 640 
L 1651 1754 
L 858 1754 
Q 826 1754 790 1786 
Q 755 1818 755 1862 
L 755 2246 
Q 755 2278 790 2310 
Q 826 2342 858 2342 
L 1587 2342 
L 1587 4045 
L 979 4045 
Q 947 4045 908 4077 
Q 870 4109 870 4154 
L 870 4538 
Q 870 4570 908 4602 
Q 947 4634 979 4634 
L 5018 4634 
Q 5056 4634 5085 4605 
Q 5114 4576 5114 4538 
L 5114 4147 
Q 5114 4102 5085 4073 
Q 5056 4045 5018 4045 
L 4410 4045 
L 4410 2342 
L 5139 2342 
Q 5178 2342 5206 2313 
Q 5235 2285 5235 2246 
L 5235 1856 
z
M 2304 4045 
L 2304 2342 
L 3693 2342 
L 3693 4045 
L 2304 4045 
z
M 3610 640 
L 3610 1754 
L 2387 1754 
L 2387 640 
L 3610 640 
z
" transform="scale(0.015625)"/>
      <path id="NanumGothicBold-bcc0" d="M 3456 2067 
Q 3456 1850 3353 1744 
Q 3251 1638 2976 1638 
L 1126 1638 
Q 845 1638 742 1734 
Q 640 1830 640 2086 
L 640 4698 
Q 640 4730 665 4752 
Q 691 4774 723 4774 
L 1280 4774 
Q 1312 4774 1341 4752 
Q 1370 4730 1370 4698 
L 1370 3699 
L 2726 3699 
L 2726 4704 
Q 2726 4736 2752 4761 
Q 2778 4787 2810 4787 
L 3373 4787 
Q 3405 4787 3430 4761 
Q 3456 4736 3456 4704 
L 3456 4090 
L 4544 4090 
L 4544 4979 
Q 4544 5062 4627 5062 
L 5197 5062 
Q 5280 5062 5280 4979 
L 5280 787 
Q 5280 704 5197 704 
L 4627 704 
Q 4544 704 4544 787 
L 4544 2221 
L 3456 2221 
L 3456 2067 
z
M 5466 -826 
Q 5466 -864 5437 -883 
Q 5408 -902 5376 -902 
L 2048 -902 
Q 1760 -902 1657 -800 
Q 1555 -698 1555 -448 
L 1555 870 
Q 1555 902 1587 934 
Q 1619 966 1651 966 
L 2195 966 
Q 2240 966 2269 934 
Q 2298 902 2298 870 
L 2298 -186 
Q 2298 -250 2323 -269 
Q 2349 -288 2413 -288 
L 5376 -288 
Q 5408 -288 5437 -313 
Q 5466 -339 5466 -371 
L 5466 -826 
z
M 2726 3104 
L 1370 3104 
L 1370 2368 
Q 1370 2259 1485 2259 
L 2611 2259 
Q 2726 2259 2726 2368 
L 2726 3104 
z
M 4544 2797 
L 4544 3514 
L 3456 3514 
L 3456 2797 
L 4544 2797 
z
" transform="scale(0.015625)"/>
      <path id="NanumGothicBold-d658" d="M 224 1267 
Q 224 1357 314 1357 
Q 672 1344 1049 1341 
Q 1427 1338 1824 1350 
L 1824 1779 
Q 1613 1818 1427 1891 
Q 1242 1965 1104 2077 
Q 966 2189 889 2336 
Q 813 2483 813 2656 
Q 813 2867 925 3036 
Q 1037 3206 1229 3321 
Q 1421 3437 1673 3501 
Q 1926 3565 2202 3565 
Q 2483 3565 2736 3501 
Q 2989 3437 3181 3321 
Q 3373 3206 3485 3036 
Q 3597 2867 3597 2656 
Q 3597 2477 3517 2326 
Q 3437 2176 3293 2064 
Q 3149 1952 2957 1878 
Q 2765 1805 2547 1773 
L 2547 1370 
Q 2918 1389 3270 1414 
Q 3622 1440 3949 1478 
Q 3981 1485 4016 1472 
Q 4051 1459 4058 1414 
L 4090 1056 
Q 4096 1011 4070 982 
Q 4045 954 4013 947 
Q 3571 896 3081 861 
Q 2592 826 2109 806 
Q 1626 787 1165 780 
Q 704 774 314 787 
Q 275 787 249 816 
Q 224 845 224 883 
L 224 1267 
z
M 5971 2157 
Q 5971 2125 5942 2099 
Q 5914 2074 5882 2074 
L 5043 2074 
L 5043 403 
Q 5043 320 4960 320 
L 4390 320 
Q 4307 320 4307 403 
L 4307 4979 
Q 4307 5062 4390 5062 
L 4960 5062 
Q 5043 5062 5043 4979 
L 5043 2688 
L 5882 2688 
Q 5914 2688 5942 2665 
Q 5971 2643 5971 2611 
L 5971 2157 
z
M 5338 -870 
Q 5338 -909 5309 -928 
Q 5280 -947 5248 -947 
L 1677 -947 
Q 1382 -947 1283 -844 
Q 1184 -742 1184 -493 
L 1184 429 
Q 1184 461 1213 489 
Q 1242 518 1274 518 
L 1830 518 
Q 1875 518 1900 489 
Q 1926 461 1926 429 
L 1926 -230 
Q 1926 -294 1955 -313 
Q 1984 -333 2048 -333 
L 5248 -333 
Q 5280 -333 5309 -358 
Q 5338 -384 5338 -416 
L 5338 -870 
z
M 3840 3834 
Q 3840 3795 3811 3766 
Q 3782 3738 3744 3738 
L 538 3738 
Q 506 3738 474 3770 
Q 442 3802 442 3840 
L 442 4173 
Q 442 4211 477 4243 
Q 512 4275 544 4275 
L 3744 4275 
Q 3782 4275 3811 4246 
Q 3840 4218 3840 4173 
L 3840 3834 
z
M 3040 4602 
Q 3040 4563 3011 4528 
Q 2982 4493 2931 4493 
L 1357 4493 
Q 1331 4493 1292 4521 
Q 1254 4550 1254 4595 
L 1254 4941 
Q 1254 4986 1292 5011 
Q 1331 5037 1357 5037 
L 2931 5037 
Q 2976 5037 3008 5005 
Q 3040 4973 3040 4934 
L 3040 4602 
z
M 2202 3046 
Q 1914 3046 1725 2937 
Q 1536 2829 1536 2656 
Q 1536 2483 1725 2374 
Q 1914 2266 2202 2266 
Q 2496 2266 2681 2374 
Q 2867 2483 2867 2656 
Q 2867 2829 2681 2937 
Q 2496 3046 2202 3046 
z
" transform="scale(0.015625)"/>
     </defs>
     <use xlink:href="#NanumGothicBold-adf8"/>
     <use xlink:href="#NanumGothicBold-b798" transform="translate(93.999985 0)"/>
     <use xlink:href="#NanumGothicBold-d53d" transform="translate(187.999969 0)"/>
     <use xlink:href="#NanumGothicBold-c2a4" transform="translate(281.999954 0)"/>
     <use xlink:href="#NanumGothicBold-20" transform="translate(375.999939 0)"/>
     <use xlink:href="#NanumGothicBold-c88c" transform="translate(403.999924 0)"/>
     <use xlink:href="#NanumGothicBold-d45c" transform="translate(497.999908 0)"/>
     <use xlink:href="#NanumGothicBold-20" transform="translate(591.999893 0)"/>
     <use xlink:href="#NanumGothicBold-bcc0" transform="translate(619.999878 0)"/>
     <use xlink:href="#NanumGothicBold-d658" transform="translate(713.999863 0)"/>
    </g>
   </g>
   <g id="text_2">
    <!-- 로컬 좌표 -->
    <g style="fill: #111827" transform="translate(37.876287 90.478875) scale(0.11 -0.11)">
     <defs>
      <path id="NanumGothicBold-b85c" d="M 5882 122 
Q 5882 90 5850 58 
Q 5818 26 5786 26 
L 211 26 
Q 173 26 147 58 
Q 122 90 122 122 
L 122 525 
Q 122 563 147 595 
Q 173 627 211 627 
L 2637 627 
L 2637 1581 
L 1491 1581 
Q 1350 1581 1260 1600 
Q 1171 1619 1120 1670 
Q 1069 1722 1049 1802 
Q 1030 1882 1030 2010 
L 1030 3040 
Q 1030 3168 1049 3248 
Q 1069 3328 1120 3376 
Q 1171 3424 1260 3440 
Q 1350 3456 1491 3456 
L 4154 3456 
Q 4218 3456 4234 3472 
Q 4250 3488 4250 3558 
L 4250 4058 
Q 4250 4128 4234 4137 
Q 4218 4147 4154 4147 
L 1139 4147 
Q 1107 4147 1081 4176 
Q 1056 4205 1056 4237 
L 1056 4666 
Q 1056 4698 1081 4723 
Q 1107 4749 1139 4749 
L 4506 4749 
Q 4774 4749 4870 4662 
Q 4966 4576 4966 4326 
L 4966 3290 
Q 4966 3040 4870 2953 
Q 4774 2867 4506 2867 
L 1837 2867 
Q 1773 2867 1760 2854 
Q 1747 2842 1747 2778 
L 1747 2272 
Q 1747 2202 1763 2186 
Q 1779 2170 1843 2170 
L 5018 2170 
Q 5050 2170 5075 2147 
Q 5101 2125 5101 2093 
L 5101 1664 
Q 5101 1632 5072 1606 
Q 5043 1581 5018 1581 
L 3373 1581 
L 3373 627 
L 5786 627 
Q 5818 627 5850 592 
Q 5882 557 5882 525 
L 5882 122 
z
" transform="scale(0.015625)"/>
      <path id="NanumGothicBold-ceec" d="M 5434 -909 
Q 5434 -941 5402 -969 
Q 5370 -998 5344 -998 
L 1907 -998 
Q 1658 -998 1568 -902 
Q 1478 -806 1478 -602 
L 1478 173 
Q 1478 378 1564 467 
Q 1651 557 1901 557 
L 4474 557 
Q 4525 557 4537 576 
Q 4550 595 4550 653 
L 4550 877 
Q 4550 947 4537 963 
Q 4525 979 4467 979 
L 1555 979 
Q 1523 979 1491 1001 
Q 1459 1024 1459 1056 
L 1459 1478 
Q 1459 1510 1491 1539 
Q 1523 1568 1555 1568 
L 4832 1568 
Q 5094 1568 5180 1478 
Q 5267 1389 5267 1171 
L 5267 403 
Q 5267 179 5180 96 
Q 5094 13 4832 13 
L 2278 13 
Q 2227 13 2214 -3 
Q 2202 -19 2202 -70 
L 2202 -333 
Q 2202 -390 2214 -400 
Q 2227 -410 2285 -410 
L 5338 -410 
Q 5370 -410 5402 -435 
Q 5434 -461 5434 -499 
L 5434 -909 
z
M 858 1677 
Q 787 1645 736 1654 
Q 685 1664 653 1728 
L 480 2048 
Q 448 2099 461 2153 
Q 474 2208 544 2240 
Q 1466 2630 2022 3149 
Q 1696 3123 1366 3110 
Q 1037 3098 749 3098 
Q 723 3098 691 3123 
Q 659 3149 659 3200 
L 659 3597 
Q 659 3635 691 3660 
Q 723 3686 742 3686 
Q 1165 3693 1641 3705 
Q 2118 3718 2515 3750 
Q 2611 3936 2669 4122 
Q 2701 4230 2697 4268 
Q 2694 4307 2579 4307 
L 800 4307 
Q 762 4307 739 4336 
Q 717 4365 717 4403 
L 717 4794 
Q 717 4890 806 4890 
L 2976 4890 
Q 3258 4890 3373 4800 
Q 3488 4710 3488 4506 
Q 3488 4474 3481 4426 
Q 3475 4378 3465 4330 
Q 3456 4282 3443 4240 
Q 3430 4198 3424 4179 
Q 3315 3757 3091 3389 
Q 2867 3021 2537 2710 
Q 2208 2400 1782 2141 
Q 1357 1882 858 1677 
z
M 3334 3046 
L 3334 3507 
Q 3334 3539 3363 3561 
Q 3392 3584 3424 3584 
L 4544 3584 
L 4544 4979 
Q 4544 5062 4627 5062 
L 5197 5062 
Q 5280 5062 5280 4979 
L 5280 1939 
Q 5280 1907 5254 1878 
Q 5229 1850 5197 1850 
L 4627 1850 
Q 4595 1850 4569 1878 
Q 4544 1907 4544 1939 
L 4544 2970 
L 3424 2970 
Q 3392 2970 3363 2992 
Q 3334 3014 3334 3046 
z
" transform="scale(0.015625)"/>
     </defs>
     <use xlink:href="#NanumGothicBold-b85c"/>
     <use xlink:href="#NanumGothicBold-ceec" transform="translate(93.999985 0)"/>
     <use xlink:href="#NanumGothicBold-20" transform="translate(187.999969 0)"/>
     <use xlink:href="#NanumGothicBold-c88c" transform="translate(215.999954 0)"/>
     <use xlink:href="#NanumGothicBold-d45c" transform="translate(309.999939 0)"/>
    </g>
   </g>
   <g id="patch_2">
    <path d="M 92.968451 87.404891 
Q 114.125233 87.404891 133.269553 87.404891 
" clip-path="url(#pe3f89b722d)" style="fill: none; stroke: #6b7280; stroke-width: 1.8; stroke-linecap: round"/>
    <path d="M 127.669553 84.604891 
L 133.269553 87.404891 
L 127.669553 90.204891 
z
" clip-path="url(#pe3f89b722d)" style="fill: #6b7280; stroke: #6b7280; stroke-width: 1.8; stroke-linecap: round"/>
   </g>
   <g id="text_3">
    <!-- modelMatrix -->
    <g style="fill: #111827" transform="translate(146.001764 90.478875) scale(0.11 -0.11)">
     <defs>
      <path id="NanumGothicBold-6d" d="M 4698 -314 
Q 4666 -314 4640 -285 
Q 4614 -256 4614 -224 
L 4614 1990 
Q 4614 2291 4473 2480 
Q 4333 2669 4064 2669 
Q 3872 2669 3721 2589 
Q 3571 2509 3468 2371 
Q 3366 2234 3312 2042 
Q 3258 1850 3258 1626 
L 3258 -230 
Q 3258 -314 3181 -314 
L 2650 -314 
Q 2618 -314 2592 -285 
Q 2566 -256 2566 -224 
L 2566 1990 
Q 2566 2669 2003 2669 
Q 1645 2669 1443 2451 
Q 1242 2234 1242 1850 
L 1242 -230 
Q 1242 -314 1165 -314 
L 634 -314 
Q 602 -314 579 -285 
Q 557 -256 557 -224 
L 557 2323 
Q 557 2566 550 2790 
Q 544 3014 531 3142 
Q 518 3226 621 3226 
L 1165 3226 
Q 1222 3226 1222 3174 
L 1216 2950 
Q 1344 3098 1568 3200 
Q 1792 3302 2042 3302 
Q 2374 3302 2649 3148 
Q 2925 2995 3046 2694 
Q 3194 3002 3482 3152 
Q 3770 3302 4096 3302 
Q 4640 3302 4973 2979 
Q 5306 2656 5306 2074 
L 5306 -230 
Q 5306 -262 5283 -288 
Q 5261 -314 5229 -314 
L 4698 -314 
z
" transform="scale(0.015625)"/>
      <path id="NanumGothicBold-6f" d="M 3238 173 
Q 3008 -115 2688 -265 
Q 2368 -416 1965 -416 
Q 1555 -416 1241 -269 
Q 928 -122 717 134 
Q 506 390 400 729 
Q 294 1069 294 1453 
Q 294 1837 400 2176 
Q 506 2515 717 2768 
Q 928 3021 1238 3168 
Q 1549 3315 1965 3315 
Q 2374 3315 2688 3168 
Q 3002 3021 3213 2768 
Q 3424 2515 3529 2176 
Q 3635 1837 3635 1453 
Q 3635 1075 3532 745 
Q 3430 416 3238 173 
z
M 1965 2688 
Q 1715 2688 1532 2579 
Q 1350 2470 1235 2294 
Q 1120 2118 1062 1897 
Q 1005 1677 1005 1453 
Q 1005 1229 1062 1008 
Q 1120 787 1235 608 
Q 1350 429 1532 320 
Q 1715 211 1965 211 
Q 2214 211 2396 320 
Q 2579 429 2694 608 
Q 2810 787 2867 1008 
Q 2925 1229 2925 1453 
Q 2925 1670 2867 1891 
Q 2810 2112 2694 2288 
Q 2579 2464 2396 2576 
Q 2214 2688 1965 2688 
z
" transform="scale(0.015625)"/>
      <path id="NanumGothicBold-64" d="M 2810 -333 
Q 2714 -333 2714 -230 
L 2714 13 
Q 2586 -166 2336 -288 
Q 2086 -410 1830 -410 
Q 1485 -410 1213 -278 
Q 941 -147 752 99 
Q 563 346 464 698 
Q 365 1050 365 1491 
Q 365 1920 467 2269 
Q 570 2618 758 2861 
Q 947 3104 1219 3238 
Q 1491 3373 1830 3373 
Q 2086 3373 2313 3270 
Q 2541 3168 2714 2982 
L 2714 4806 
Q 2714 4858 2730 4874 
Q 2746 4890 2790 4890 
L 3315 4890 
Q 3398 4890 3398 4806 
L 3398 -230 
Q 3398 -282 3366 -307 
Q 3334 -333 3296 -333 
L 2810 -333 
z
M 1901 2720 
Q 1504 2720 1293 2397 
Q 1082 2074 1082 1491 
Q 1082 864 1299 550 
Q 1517 237 1901 237 
Q 2067 237 2214 320 
Q 2362 403 2474 563 
Q 2586 723 2650 956 
Q 2714 1190 2714 1491 
Q 2714 2112 2499 2416 
Q 2285 2720 1901 2720 
z
" transform="scale(0.015625)"/>
      <path id="NanumGothicBold-65" d="M 3232 1293 
Q 3232 1242 3203 1216 
Q 3174 1190 3142 1190 
L 1037 1190 
Q 1069 762 1305 490 
Q 1542 218 1952 218 
Q 2163 218 2432 272 
Q 2701 326 2925 461 
Q 2970 486 2982 454 
Q 2995 422 2995 371 
L 2995 -70 
Q 2995 -128 2976 -160 
Q 2957 -192 2899 -224 
Q 2707 -326 2448 -371 
Q 2189 -416 1920 -416 
Q 1126 -416 720 61 
Q 314 538 314 1459 
Q 314 1805 403 2137 
Q 493 2470 675 2732 
Q 858 2995 1139 3155 
Q 1421 3315 1805 3315 
Q 2195 3315 2467 3168 
Q 2739 3021 2912 2771 
Q 3085 2522 3161 2189 
Q 3238 1856 3238 1478 
Q 3238 1434 3235 1376 
Q 3232 1318 3232 1293 
z
M 1830 2701 
Q 1658 2701 1523 2624 
Q 1389 2547 1293 2425 
Q 1197 2304 1136 2144 
Q 1075 1984 1050 1824 
L 2515 1824 
Q 2515 1952 2473 2105 
Q 2432 2259 2349 2390 
Q 2266 2522 2138 2611 
Q 2010 2701 1830 2701 
z
" transform="scale(0.015625)"/>
      <path id="NanumGothicBold-6c" d="M 544 -326 
Q 474 -326 474 -250 
L 474 4794 
Q 474 4826 496 4848 
Q 518 4870 550 4870 
L 1088 4870 
Q 1120 4870 1142 4848 
Q 1165 4826 1165 4794 
L 1165 -250 
Q 1165 -282 1142 -304 
Q 1120 -326 1088 -326 
L 544 -326 
z
" transform="scale(0.015625)"/>
      <path id="NanumGothicBold-4d" d="M 4909 -320 
Q 4858 -320 4845 -304 
Q 4832 -288 4832 -250 
L 4832 3226 
L 3443 -237 
Q 3430 -269 3414 -275 
Q 3398 -282 3334 -282 
L 2822 -282 
Q 2758 -282 2742 -275 
Q 2726 -269 2714 -237 
L 1325 3226 
L 1325 -250 
Q 1325 -288 1312 -304 
Q 1299 -320 1248 -320 
L 653 -320 
Q 576 -320 576 -250 
L 576 4371 
Q 576 4461 595 4483 
Q 614 4506 717 4506 
L 1478 4506 
Q 1523 4506 1532 4490 
Q 1542 4474 1562 4429 
L 3078 666 
L 4595 4429 
Q 4614 4474 4624 4490 
Q 4634 4506 4678 4506 
L 5440 4506 
Q 5542 4506 5561 4483 
Q 5581 4461 5581 4371 
L 5581 -250 
Q 5581 -320 5504 -320 
L 4909 -320 
z
" transform="scale(0.015625)"/>
      <path id="NanumGothicBold-61" d="M 2464 -314 
Q 2419 -314 2406 -304 
Q 2394 -294 2394 -256 
L 2394 32 
Q 2234 -192 1987 -304 
Q 1741 -416 1491 -416 
Q 1229 -416 1008 -345 
Q 787 -275 630 -134 
Q 474 6 384 214 
Q 294 422 294 698 
Q 294 1024 409 1270 
Q 525 1517 771 1680 
Q 1018 1843 1402 1923 
Q 1786 2003 2330 2003 
Q 2330 2125 2304 2246 
Q 2278 2368 2217 2464 
Q 2157 2560 2048 2621 
Q 1939 2682 1773 2682 
Q 1485 2682 1251 2605 
Q 1018 2528 813 2400 
Q 710 2336 675 2342 
Q 640 2349 640 2413 
L 640 2899 
Q 640 2925 637 2953 
Q 634 2982 646 3002 
Q 666 3027 742 3072 
Q 960 3181 1187 3251 
Q 1414 3322 1760 3322 
Q 2406 3322 2716 3008 
Q 3027 2694 3027 2022 
L 3027 506 
Q 3027 326 3030 131 
Q 3034 -64 3053 -211 
Q 3066 -314 2982 -314 
L 2464 -314 
z
M 2349 1395 
Q 1638 1395 1331 1222 
Q 1024 1050 1024 704 
Q 1024 461 1165 339 
Q 1306 218 1542 218 
Q 1907 218 2128 486 
Q 2349 755 2349 1325 
L 2349 1395 
z
" transform="scale(0.015625)"/>
      <path id="NanumGothicBold-74" d="M 2278 -262 
Q 2189 -320 1993 -368 
Q 1798 -416 1574 -416 
Q 1306 -416 1146 -304 
Q 986 -192 909 -45 
Q 819 122 800 346 
Q 781 570 781 954 
L 781 2560 
L 250 2560 
Q 218 2560 195 2582 
Q 173 2605 173 2637 
L 173 3142 
Q 173 3174 195 3196 
Q 218 3219 250 3219 
L 781 3219 
L 781 4115 
Q 781 4147 806 4169 
Q 832 4192 864 4192 
L 1382 4192 
Q 1421 4192 1443 4169 
Q 1466 4147 1466 4115 
L 1466 3219 
L 2080 3219 
Q 2112 3219 2134 3196 
Q 2157 3174 2157 3142 
L 2157 2637 
Q 2157 2605 2134 2582 
Q 2112 2560 2080 2560 
L 1466 2560 
L 1466 909 
Q 1466 474 1485 358 
Q 1510 243 1606 217 
Q 1702 192 1824 205 
Q 1907 218 2009 240 
Q 2112 262 2189 294 
Q 2221 307 2233 297 
Q 2246 288 2259 237 
L 2310 -186 
Q 2317 -230 2278 -262 
z
" transform="scale(0.015625)"/>
      <path id="NanumGothicBold-72" d="M 2240 2579 
Q 2112 2611 2016 2620 
Q 1920 2630 1850 2618 
Q 1658 2579 1539 2454 
Q 1421 2330 1360 2163 
Q 1299 1997 1280 1805 
Q 1261 1613 1261 1440 
L 1261 -224 
Q 1261 -314 1184 -314 
L 653 -314 
Q 582 -314 582 -218 
L 582 2362 
Q 582 2566 576 2771 
Q 570 2976 570 3130 
Q 570 3187 589 3203 
Q 608 3219 653 3219 
L 1184 3219 
Q 1229 3219 1235 3206 
Q 1242 3194 1242 3162 
L 1242 2880 
Q 1286 2957 1360 3033 
Q 1434 3110 1520 3171 
Q 1606 3232 1696 3267 
Q 1786 3302 1862 3302 
Q 1984 3302 2083 3299 
Q 2182 3296 2291 3232 
Q 2323 3219 2329 3190 
Q 2336 3162 2336 3136 
L 2336 2656 
Q 2336 2630 2317 2598 
Q 2298 2566 2240 2579 
z
" transform="scale(0.015625)"/>
      <path id="NanumGothicBold-69" d="M 813 3898 
Q 627 3898 502 4022 
Q 378 4147 378 4326 
Q 378 4512 502 4640 
Q 627 4768 813 4768 
Q 998 4768 1126 4640 
Q 1254 4512 1254 4326 
Q 1254 4147 1126 4022 
Q 998 3898 813 3898 
z
M 538 -326 
Q 506 -326 483 -304 
Q 461 -282 461 -250 
L 461 3123 
Q 461 3155 483 3177 
Q 506 3200 538 3200 
L 1075 3200 
Q 1107 3200 1129 3177 
Q 1152 3155 1152 3123 
L 1152 -250 
Q 1152 -282 1129 -304 
Q 1107 -326 1075 -326 
L 538 -326 
z
" transform="scale(0.015625)"/>
      <path id="NanumGothicBold-78" d="M 2515 -301 
Q 2445 -301 2419 -262 
L 1632 954 
L 845 -262 
Q 813 -301 749 -301 
L 90 -301 
Q 13 -301 70 -224 
L 1235 1542 
L 186 3142 
Q 160 3174 173 3196 
Q 186 3219 237 3219 
L 877 3219 
Q 928 3219 954 3181 
L 1632 2131 
L 2310 3181 
Q 2336 3219 2387 3219 
L 3027 3219 
Q 3078 3219 3091 3196 
Q 3104 3174 3078 3142 
L 2029 1542 
L 3194 -224 
Q 3251 -301 3174 -301 
L 2515 -301 
z
" transform="scale(0.015625)"/>
     </defs>
     <use xlink:href="#NanumGothicBold-6d"/>
     <use xlink:href="#NanumGothicBold-6f" transform="translate(90.799988 0)"/>
     <use xlink:href="#NanumGothicBold-64" transform="translate(151.399979 0)"/>
     <use xlink:href="#NanumGothicBold-65" transform="translate(211.999969 0)"/>
     <use xlink:href="#NanumGothicBold-6c" transform="translate(266.499954 0)"/>
     <use xlink:href="#NanumGothicBold-4d" transform="translate(290.699951 0)"/>
     <use xlink:href="#NanumGothicBold-61" transform="translate(387.599945 0)"/>
     <use xlink:href="#NanumGothicBold-74" transform="translate(442.09993 0)"/>
     <use xlink:href="#NanumGothicBold-72" transform="translate(478.399918 0)"/>
     <use xlink:href="#NanumGothicBold-69" transform="translate(514.699905 0)"/>
     <use xlink:href="#NanumGothicBold-78" transform="translate(538.899902 0)"/>
    </g>
   </g>
   <g id="patch_3">
    <path d="M 211.317912 87.404891 
Q 232.474694 87.404891 251.619014 87.404891 
" clip-path="url(#pe3f89b722d)" style="fill: none; stroke: #6b7280; stroke-width: 1.8; stroke-linecap: round"/>
    <path d="M 246.019014 84.604891 
L 251.619014 87.404891 
L 246.019014 90.204891 
z
" clip-path="url(#pe3f89b722d)" style="fill: #6b7280; stroke: #6b7280; stroke-width: 1.8; stroke-linecap: round"/>
   </g>
   <g id="text_4">
    <!-- 월드 좌표 -->
    <g style="fill: #111827" transform="translate(274.57521 90.478875) scale(0.11 -0.11)">
     <defs>
      <path id="NanumGothicBold-c6d4" d="M 5427 -947 
Q 5427 -979 5398 -1008 
Q 5370 -1037 5344 -1037 
L 1779 -1037 
Q 1530 -1037 1437 -947 
Q 1344 -858 1344 -653 
L 1344 -45 
Q 1344 160 1433 249 
Q 1523 339 1773 339 
L 4474 339 
Q 4525 339 4537 355 
Q 4550 371 4550 429 
L 4550 531 
Q 4550 602 4537 618 
Q 4525 634 4467 634 
L 1427 634 
Q 1395 634 1363 656 
Q 1331 678 1331 710 
L 1331 1094 
Q 1331 1126 1363 1152 
Q 1395 1178 1427 1178 
L 4838 1178 
Q 5101 1178 5187 1098 
Q 5274 1018 5274 800 
L 5274 186 
Q 5274 -38 5187 -115 
Q 5101 -192 4838 -192 
L 2150 -192 
Q 2099 -192 2086 -208 
Q 2074 -224 2074 -275 
L 2074 -403 
Q 2074 -467 2086 -476 
Q 2099 -486 2157 -486 
L 5338 -486 
Q 5370 -486 5398 -508 
Q 5427 -531 5427 -570 
L 5427 -947 
z
M 5274 1459 
Q 5274 1376 5190 1376 
L 4621 1376 
Q 4538 1376 4538 1459 
L 4538 1574 
L 3443 1574 
Q 3411 1574 3382 1600 
Q 3354 1626 3354 1658 
L 3354 2022 
Q 3354 2054 3382 2076 
Q 3411 2099 3443 2099 
L 4538 2099 
L 4538 4986 
Q 4538 5069 4621 5069 
L 5190 5069 
Q 5274 5069 5274 4986 
L 5274 1459 
z
M 4320 2528 
Q 4326 2490 4297 2451 
Q 4269 2413 4237 2406 
Q 4051 2374 3820 2352 
Q 3590 2330 3353 2310 
Q 3117 2291 2893 2278 
Q 2669 2266 2509 2259 
L 2509 1523 
Q 2509 1485 2480 1456 
Q 2451 1427 2413 1427 
L 1882 1427 
Q 1843 1427 1814 1456 
Q 1786 1485 1786 1523 
L 1786 2208 
Q 1594 2202 1392 2198 
Q 1190 2195 998 2192 
Q 806 2189 633 2189 
Q 461 2189 333 2195 
Q 294 2195 268 2227 
Q 243 2259 243 2298 
L 243 2675 
Q 243 2765 333 2765 
Q 1632 2752 2569 2800 
Q 3507 2848 4166 2938 
Q 4198 2944 4233 2921 
Q 4269 2899 4275 2867 
L 4320 2528 
z
M 2182 4531 
Q 1843 4531 1628 4390 
Q 1414 4250 1414 4038 
Q 1414 3821 1628 3683 
Q 1843 3546 2182 3546 
Q 2528 3546 2742 3683 
Q 2957 3821 2957 4038 
Q 2957 4250 2742 4390 
Q 2528 4531 2182 4531 
z
M 2182 5050 
Q 2515 5050 2784 4970 
Q 3053 4890 3245 4752 
Q 3437 4614 3542 4432 
Q 3648 4250 3648 4038 
Q 3648 3827 3542 3641 
Q 3437 3456 3245 3318 
Q 3053 3181 2784 3101 
Q 2515 3021 2182 3021 
Q 1856 3021 1587 3101 
Q 1318 3181 1126 3318 
Q 934 3456 828 3641 
Q 723 3827 723 4038 
Q 723 4250 828 4432 
Q 934 4614 1126 4752 
Q 1318 4890 1587 4970 
Q 1856 5050 2182 5050 
z
" transform="scale(0.015625)"/>
      <path id="NanumGothicBold-b4dc" d="M 5786 685 
Q 5818 685 5850 653 
Q 5882 621 5882 589 
L 5882 166 
Q 5882 134 5850 102 
Q 5818 70 5786 70 
L 211 70 
Q 173 70 147 102 
Q 122 134 122 166 
L 122 589 
Q 122 627 147 656 
Q 173 685 211 685 
L 5786 685 
z
M 5069 1978 
Q 5069 1926 5046 1904 
Q 5024 1882 4992 1882 
L 1446 1882 
Q 1190 1882 1075 2010 
Q 960 2138 960 2362 
L 960 4218 
Q 960 4461 1069 4547 
Q 1178 4634 1421 4634 
L 4934 4634 
Q 5024 4634 5024 4550 
L 5024 4102 
Q 5024 4019 4934 4019 
L 1811 4019 
Q 1696 4019 1696 3910 
L 1696 2605 
Q 1696 2547 1718 2518 
Q 1741 2490 1811 2490 
L 4966 2490 
Q 5018 2490 5043 2477 
Q 5069 2464 5069 2413 
L 5069 1978 
z
" transform="scale(0.015625)"/>
     </defs>
     <use xlink:href="#NanumGothicBold-c6d4"/>
     <use xlink:href="#NanumGothicBold-b4dc" transform="translate(93.999985 0)"/>
     <use xlink:href="#NanumGothicBold-20" transform="translate(187.999969 0)"/>
     <use xlink:href="#NanumGothicBold-c88c" transform="translate(215.999954 0)"/>
     <use xlink:href="#NanumGothicBold-d45c" transform="translate(309.999939 0)"/>
    </g>
   </g>
   <g id="patch_4">
    <path d="M 329.667373 87.404891 
Q 350.824155 87.404891 369.968476 87.404891 
" clip-path="url(#pe3f89b722d)" style="fill: none; stroke: #6b7280; stroke-width: 1.8; stroke-linecap: round"/>
    <path d="M 364.368476 84.604891 
L 369.968476 87.404891 
L 364.368476 90.204891 
z
" clip-path="url(#pe3f89b722d)" style="fill: #6b7280; stroke: #6b7280; stroke-width: 1.8; stroke-linecap: round"/>
   </g>
   <g id="text_5">
    <!-- viewMatrix -->
    <g style="fill: #111827" transform="translate(387.033655 90.478875) scale(0.11 -0.11)">
     <defs>
      <path id="NanumGothicBold-76" d="M 1920 -250 
Q 1907 -288 1894 -297 
Q 1882 -307 1843 -307 
L 1293 -307 
Q 1254 -307 1238 -297 
Q 1222 -288 1210 -250 
L 45 3149 
Q 32 3181 45 3200 
Q 58 3219 128 3219 
L 685 3219 
Q 717 3219 736 3209 
Q 755 3200 768 3168 
L 1568 755 
L 2362 3168 
Q 2374 3200 2396 3209 
Q 2419 3219 2451 3219 
L 3014 3219 
Q 3085 3219 3097 3200 
Q 3110 3181 3098 3149 
L 1920 -250 
z
" transform="scale(0.015625)"/>
      <path id="NanumGothicBold-77" d="M 4269 -250 
Q 4256 -288 4240 -297 
Q 4224 -307 4192 -307 
L 3597 -307 
Q 3565 -307 3549 -297 
Q 3533 -288 3514 -250 
L 2720 2157 
L 1920 -250 
Q 1901 -288 1881 -297 
Q 1862 -307 1830 -307 
L 1242 -307 
Q 1216 -307 1197 -297 
Q 1178 -288 1165 -250 
L 26 3149 
Q 13 3181 22 3200 
Q 32 3219 102 3219 
L 659 3219 
Q 698 3219 714 3209 
Q 730 3200 742 3168 
L 1536 666 
L 2342 3168 
Q 2355 3219 2419 3219 
L 3014 3219 
Q 3078 3219 3091 3168 
L 3898 666 
L 4691 3168 
Q 4704 3219 4768 3219 
L 5338 3219 
Q 5402 3219 5414 3200 
Q 5427 3181 5414 3149 
L 4269 -250 
z
" transform="scale(0.015625)"/>
     </defs>
     <use xlink:href="#NanumGothicBold-76"/>
     <use xlink:href="#NanumGothicBold-69" transform="translate(48.399994 0)"/>
     <use xlink:href="#NanumGothicBold-65" transform="translate(72.599991 0)"/>
     <use xlink:href="#NanumGothicBold-77" transform="translate(127.099976 0)"/>
     <use xlink:href="#NanumGothicBold-4d" transform="translate(211.899963 0)"/>
     <use xlink:href="#NanumGothicBold-61" transform="translate(308.799957 0)"/>
     <use xlink:href="#NanumGothicBold-74" transform="translate(363.299942 0)"/>
     <use xlink:href="#NanumGothicBold-72" transform="translate(399.59993 0)"/>
     <use xlink:href="#NanumGothicBold-69" transform="translate(435.899918 0)"/>
     <use xlink:href="#NanumGothicBold-78" transform="translate(460.099915 0)"/>
    </g>
   </g>
   <g id="patch_5">
    <path d="M 448.016834 87.404891 
Q 469.173616 87.404891 488.317937 87.404891 
" clip-path="url(#pe3f89b722d)" style="fill: none; stroke: #6b7280; stroke-width: 1.8; stroke-linecap: round"/>
    <path d="M 482.717937 84.604891 
L 488.317937 87.404891 
L 482.717937 90.204891 
z
" clip-path="url(#pe3f89b722d)" style="fill: #6b7280; stroke: #6b7280; stroke-width: 1.8; stroke-linecap: round"/>
   </g>
   <g id="text_6">
    <!-- 카메라 좌표 -->
    <g style="fill: #111827" transform="translate(506.104132 90.478875) scale(0.11 -0.11)">
     <defs>
      <path id="NanumGothicBold-ce74" d="M 3430 4102 
Q 3392 3520 3190 2969 
Q 2989 2419 2646 1923 
Q 2304 1427 1824 1001 
Q 1344 576 749 250 
Q 698 218 643 224 
Q 589 230 557 282 
L 301 640 
Q 269 691 281 742 
Q 294 794 346 819 
Q 947 1146 1414 1581 
Q 1882 2016 2189 2534 
Q 1792 2496 1353 2477 
Q 915 2458 531 2451 
Q 506 2451 474 2476 
Q 442 2502 442 2554 
L 442 2970 
Q 442 3008 474 3033 
Q 506 3059 525 3059 
Q 762 3059 1021 3068 
Q 1280 3078 1539 3091 
Q 1798 3104 2041 3117 
Q 2285 3130 2490 3149 
Q 2541 3302 2576 3456 
Q 2611 3610 2643 3757 
Q 2662 3885 2627 3926 
Q 2592 3968 2470 3968 
L 672 3968 
Q 582 3968 582 4058 
L 582 4506 
Q 582 4582 672 4582 
L 2982 4582 
Q 3270 4582 3360 4464 
Q 3450 4346 3430 4102 
z
M 5971 2266 
Q 5971 2234 5942 2205 
Q 5914 2176 5875 2176 
L 5011 2176 
L 5011 -928 
Q 5011 -1011 4928 -1011 
L 4358 -1011 
Q 4275 -1011 4275 -928 
L 4275 4979 
Q 4275 5062 4358 5062 
L 4928 5062 
Q 5011 5062 5011 4979 
L 5011 2790 
L 5875 2790 
Q 5914 2790 5942 2768 
Q 5971 2746 5971 2714 
L 5971 2266 
z
" transform="scale(0.015625)"/>
      <path id="NanumGothicBold-ba54" d="M 2925 1190 
Q 2925 941 2832 854 
Q 2739 768 2502 768 
L 883 768 
Q 614 768 518 854 
Q 422 941 422 1190 
L 422 4160 
Q 422 4403 512 4486 
Q 602 4570 845 4570 
L 2502 4570 
Q 2739 4570 2832 4493 
Q 2925 4416 2925 4160 
L 2925 2950 
L 3610 2950 
L 3610 4877 
Q 3610 4960 3699 4960 
L 4224 4960 
Q 4307 4960 4307 4877 
L 4307 -717 
Q 4307 -806 4224 -806 
L 3699 -806 
Q 3610 -806 3610 -717 
L 3610 2336 
L 2925 2336 
L 2925 1190 
z
M 5549 -941 
Q 5549 -1024 5466 -1024 
L 4909 -1024 
Q 4826 -1024 4826 -941 
L 4826 4979 
Q 4826 5062 4915 5062 
L 5466 5062 
Q 5549 5062 5549 4979 
L 5549 -941 
z
M 2208 3885 
Q 2208 3936 2189 3952 
Q 2170 3968 2118 3968 
L 1229 3968 
Q 1171 3968 1155 3955 
Q 1139 3942 1139 3891 
L 1139 1453 
Q 1139 1395 1155 1382 
Q 1171 1370 1229 1370 
L 2118 1370 
Q 2176 1370 2192 1382 
Q 2208 1395 2208 1453 
L 2208 3885 
z
" transform="scale(0.015625)"/>
      <path id="NanumGothicBold-b77c" d="M 3923 806 
Q 3930 755 3894 726 
Q 3859 698 3808 685 
Q 3526 621 3132 573 
Q 2739 525 2339 499 
Q 1939 474 1577 467 
Q 1216 461 1005 480 
Q 723 506 617 602 
Q 512 698 512 941 
L 512 2477 
Q 512 2707 624 2809 
Q 736 2912 960 2912 
L 2483 2912 
Q 2534 2912 2553 2928 
Q 2573 2944 2573 3008 
L 2573 3904 
Q 2573 3955 2560 3974 
Q 2547 3994 2483 3994 
L 640 3994 
Q 608 3994 579 4019 
Q 550 4045 550 4077 
L 550 4518 
Q 550 4550 579 4572 
Q 608 4595 640 4595 
L 2867 4595 
Q 3142 4595 3222 4492 
Q 3302 4390 3302 4160 
L 3302 2739 
Q 3302 2496 3203 2406 
Q 3104 2317 2854 2317 
L 1338 2317 
Q 1248 2317 1248 2227 
L 1248 1216 
Q 1248 1146 1273 1123 
Q 1299 1101 1363 1101 
Q 1651 1088 1955 1097 
Q 2259 1107 2563 1129 
Q 2867 1152 3161 1190 
Q 3456 1229 3718 1280 
Q 3770 1293 3811 1270 
Q 3853 1248 3866 1190 
L 3923 806 
z
M 5965 2195 
Q 5965 2157 5936 2131 
Q 5907 2106 5875 2106 
L 5005 2106 
L 5005 -928 
Q 5005 -1011 4922 -1011 
L 4352 -1011 
Q 4269 -1011 4269 -928 
L 4269 4979 
Q 4269 5062 4352 5062 
L 4922 5062 
Q 5005 5062 5005 4979 
L 5005 2720 
L 5875 2720 
Q 5907 2720 5936 2697 
Q 5965 2675 5965 2643 
L 5965 2195 
z
" transform="scale(0.015625)"/>
     </defs>
     <use xlink:href="#NanumGothicBold-ce74"/>
     <use xlink:href="#NanumGothicBold-ba54" transform="translate(93.999985 0)"/>
     <use xlink:href="#NanumGothicBold-b77c" transform="translate(187.999969 0)"/>
     <use xlink:href="#NanumGothicBold-20" transform="translate(281.999954 0)"/>
     <use xlink:href="#NanumGothicBold-c88c" transform="translate(309.999939 0)"/>
     <use xlink:href="#NanumGothicBold-d45c" transform="translate(403.999924 0)"/>
    </g>
   </g>
   <g id="patch_6">
    <path d="M 566.366295 87.404891 
Q 587.523077 87.404891 606.667398 87.404891 
" clip-path="url(#pe3f89b722d)" style="fill: none; stroke: #6b7280; stroke-width: 1.8; stroke-linecap: round"/>
    <path d="M 601.067398 84.604891 
L 606.667398 87.404891 
L 601.067398 90.204891 
z
" clip-path="url(#pe3f89b722d)" style="fill: #6b7280; stroke: #6b7280; stroke-width: 1.8; stroke-linecap: round"/>
   </g>
   <g id="text_7">
    <!-- projectionMatrix -->
    <g style="fill: #111827" transform="translate(609.59328 90.423875) scale(0.11 -0.11)">
     <defs>
      <path id="NanumGothicBold-70" d="M 2061 -474 
Q 1805 -474 1568 -365 
Q 1331 -256 1171 -70 
L 1171 -1210 
Q 1171 -1261 1158 -1277 
Q 1146 -1293 1101 -1293 
L 570 -1293 
Q 531 -1293 512 -1277 
Q 493 -1261 493 -1210 
L 493 3130 
Q 493 3232 589 3232 
L 1082 3232 
Q 1171 3232 1171 3130 
L 1171 2899 
Q 1350 3085 1574 3187 
Q 1798 3290 2061 3290 
Q 2406 3290 2678 3158 
Q 2950 3027 3139 2784 
Q 3328 2541 3427 2189 
Q 3526 1837 3526 1395 
Q 3526 966 3424 620 
Q 3322 275 3133 32 
Q 2944 -211 2672 -342 
Q 2400 -474 2061 -474 
z
M 1990 2637 
Q 1824 2637 1677 2557 
Q 1530 2477 1418 2320 
Q 1306 2163 1238 1932 
Q 1171 1702 1171 1402 
Q 1171 774 1395 473 
Q 1619 173 1990 173 
Q 2387 173 2598 493 
Q 2810 813 2810 1402 
Q 2810 2022 2592 2329 
Q 2374 2637 1990 2637 
z
" transform="scale(0.015625)"/>
      <path id="NanumGothicBold-6a" d="M 960 3910 
Q 774 3910 649 4032 
Q 525 4154 525 4339 
Q 525 4525 649 4649 
Q 774 4774 960 4774 
Q 1139 4774 1270 4649 
Q 1402 4525 1402 4339 
Q 1402 4154 1270 4032 
Q 1139 3910 960 3910 
z
M 1133 -947 
Q 1037 -1133 861 -1229 
Q 685 -1325 461 -1325 
Q 333 -1325 253 -1321 
Q 173 -1318 102 -1293 
Q 45 -1267 45 -1203 
L 45 -794 
Q 45 -736 122 -736 
Q 314 -768 438 -720 
Q 563 -672 582 -557 
Q 595 -499 601 -329 
Q 608 -160 608 38 
L 608 3130 
Q 608 3213 685 3213 
L 1222 3213 
Q 1293 3213 1293 3130 
L 1293 19 
Q 1293 -288 1257 -537 
Q 1222 -787 1133 -947 
z
" transform="scale(0.015625)"/>
      <path id="NanumGothicBold-63" d="M 2867 -307 
Q 2797 -333 2694 -352 
Q 2592 -371 2473 -384 
Q 2355 -397 2224 -400 
Q 2093 -403 1971 -397 
Q 1568 -371 1257 -220 
Q 947 -70 736 173 
Q 525 416 419 745 
Q 314 1075 314 1459 
Q 314 1862 442 2201 
Q 570 2541 803 2787 
Q 1037 3034 1363 3168 
Q 1690 3302 2093 3302 
Q 2291 3302 2492 3280 
Q 2694 3258 2886 3194 
Q 2912 3187 2925 3168 
Q 2938 3149 2931 3091 
L 2874 2650 
Q 2867 2605 2844 2585 
Q 2822 2566 2765 2579 
Q 2624 2630 2435 2649 
Q 2246 2669 2080 2669 
Q 1562 2669 1293 2336 
Q 1024 2003 1024 1459 
Q 1024 934 1277 614 
Q 1530 294 2010 237 
Q 2451 186 2797 294 
Q 2861 320 2877 301 
Q 2893 282 2899 243 
L 2931 -198 
Q 2938 -250 2928 -272 
Q 2918 -294 2867 -307 
z
" transform="scale(0.015625)"/>
      <path id="NanumGothicBold-6e" d="M 2752 -314 
Q 2720 -314 2697 -285 
Q 2675 -256 2675 -224 
L 2675 1811 
Q 2675 2272 2531 2477 
Q 2387 2682 2080 2682 
Q 1658 2682 1456 2448 
Q 1254 2214 1254 1773 
L 1254 -230 
Q 1254 -314 1178 -314 
L 646 -314 
Q 614 -314 592 -285 
Q 570 -256 570 -224 
L 570 2323 
Q 570 2566 566 2790 
Q 563 3014 550 3142 
Q 538 3226 640 3226 
L 1146 3226 
Q 1216 3226 1203 3174 
L 1197 2944 
Q 1357 3098 1581 3206 
Q 1805 3315 2099 3315 
Q 2714 3315 3037 2953 
Q 3360 2592 3360 1907 
L 3360 -230 
Q 3360 -314 3283 -314 
L 2752 -314 
z
" transform="scale(0.015625)"/>
     </defs>
     <use xlink:href="#NanumGothicBold-70"/>
     <use xlink:href="#NanumGothicBold-72" transform="translate(60.599991 0)"/>
     <use xlink:href="#NanumGothicBold-6f" transform="translate(96.899979 0)"/>
     <use xlink:href="#NanumGothicBold-6a" transform="translate(157.499969 0)"/>
     <use xlink:href="#NanumGothicBold-65" transform="translate(184.399963 0)"/>
     <use xlink:href="#NanumGothicBold-63" transform="translate(238.899948 0)"/>
     <use xlink:href="#NanumGothicBold-74" transform="translate(287.299942 0)"/>
     <use xlink:href="#NanumGothicBold-69" transform="translate(323.59993 0)"/>
     <use xlink:href="#NanumGothicBold-6f" transform="translate(347.799927 0)"/>
     <use xlink:href="#NanumGothicBold-6e" transform="translate(408.399918 0)"/>
     <use xlink:href="#NanumGothicBold-4d" transform="translate(468.999908 0)"/>
     <use xlink:href="#NanumGothicBold-61" transform="translate(565.899902 0)"/>
     <use xlink:href="#NanumGothicBold-74" transform="translate(620.399887 0)"/>
     <use xlink:href="#NanumGothicBold-72" transform="translate(656.699875 0)"/>
     <use xlink:href="#NanumGothicBold-69" transform="translate(692.999863 0)"/>
     <use xlink:href="#NanumGothicBold-78" transform="translate(717.19986 0)"/>
    </g>
   </g>
   <g id="patch_7">
    <path d="M 684.715756 87.404891 
Q 705.872538 87.404891 725.016859 87.404891 
" clip-path="url(#pe3f89b722d)" style="fill: none; stroke: #6b7280; stroke-width: 1.8; stroke-linecap: round"/>
    <path d="M 719.416859 84.604891 
L 725.016859 87.404891 
L 719.416859 90.204891 
z
" clip-path="url(#pe3f89b722d)" style="fill: #6b7280; stroke: #6b7280; stroke-width: 1.8; stroke-linecap: round"/>
   </g>
   <g id="text_8">
    <!-- 화면 좌표 -->
    <g style="fill: #111827" transform="translate(747.973054 90.478875) scale(0.11 -0.11)">
     <defs>
      <path id="NanumGothicBold-d654" d="M 2093 3347 
Q 2387 3347 2643 3267 
Q 2899 3187 3091 3046 
Q 3283 2906 3392 2704 
Q 3501 2502 3501 2266 
Q 3501 2061 3421 1885 
Q 3341 1709 3197 1574 
Q 3053 1440 2854 1347 
Q 2656 1254 2426 1216 
L 2426 678 
Q 3174 717 3904 832 
Q 3936 838 3974 828 
Q 4013 819 4019 768 
L 4058 371 
Q 4064 320 4038 294 
Q 4013 269 3981 262 
Q 3085 115 2125 70 
Q 1165 26 243 38 
Q 205 38 179 67 
Q 154 96 154 134 
L 154 550 
Q 154 646 243 646 
Q 973 627 1715 646 
L 1715 1222 
Q 1491 1267 1302 1360 
Q 1114 1453 976 1587 
Q 838 1722 761 1891 
Q 685 2061 685 2266 
Q 685 2502 797 2704 
Q 909 2906 1101 3046 
Q 1293 3187 1549 3267 
Q 1805 3347 2093 3347 
z
M 5971 2016 
Q 5971 1984 5942 1958 
Q 5914 1933 5882 1933 
L 5043 1933 
L 5043 -928 
Q 5043 -1011 4960 -1011 
L 4390 -1011 
Q 4307 -1011 4307 -928 
L 4307 4979 
Q 4307 5062 4390 5062 
L 4960 5062 
Q 5043 5062 5043 4979 
L 5043 2547 
L 5882 2547 
Q 5914 2547 5942 2521 
Q 5971 2496 5971 2464 
L 5971 2016 
z
M 3834 3661 
Q 3834 3622 3805 3593 
Q 3776 3565 3738 3565 
L 358 3565 
Q 326 3565 291 3597 
Q 256 3629 256 3667 
L 256 4026 
Q 256 4058 294 4090 
Q 333 4122 365 4122 
L 3738 4122 
Q 3776 4122 3805 4093 
Q 3834 4064 3834 4026 
L 3834 3661 
z
M 2093 2778 
Q 1786 2778 1581 2634 
Q 1376 2490 1376 2266 
Q 1376 2042 1577 1894 
Q 1779 1747 2093 1747 
Q 2406 1747 2608 1894 
Q 2810 2042 2810 2266 
Q 2810 2490 2608 2634 
Q 2406 2778 2093 2778 
z
M 3021 4493 
Q 3021 4448 2992 4416 
Q 2963 4384 2918 4384 
L 1203 4384 
Q 1178 4384 1142 4409 
Q 1107 4435 1107 4486 
L 1107 4858 
Q 1107 4902 1142 4928 
Q 1178 4954 1203 4954 
L 2918 4954 
Q 2957 4954 2989 4922 
Q 3021 4890 3021 4851 
L 3021 4493 
z
" transform="scale(0.015625)"/>
      <path id="NanumGothicBold-ba74" d="M 3456 2080 
Q 3456 1830 3357 1734 
Q 3258 1638 3014 1638 
L 1114 1638 
Q 845 1638 742 1734 
Q 640 1830 640 2080 
L 640 4288 
Q 640 4531 739 4624 
Q 838 4717 1082 4717 
L 3014 4717 
Q 3258 4717 3357 4630 
Q 3456 4544 3456 4288 
L 3456 4045 
L 4544 4045 
L 4544 4979 
Q 4544 5062 4627 5062 
L 5197 5062 
Q 5280 5062 5280 4979 
L 5280 768 
Q 5280 685 5197 685 
L 4627 685 
Q 4544 685 4544 768 
L 4544 2202 
L 3456 2202 
L 3456 2080 
z
M 5466 -826 
Q 5466 -864 5437 -883 
Q 5408 -902 5376 -902 
L 2048 -902 
Q 1760 -902 1657 -800 
Q 1555 -698 1555 -448 
L 1555 870 
Q 1555 902 1587 934 
Q 1619 966 1651 966 
L 2195 966 
Q 2240 966 2269 934 
Q 2298 902 2298 870 
L 2298 -186 
Q 2298 -250 2323 -269 
Q 2349 -288 2413 -288 
L 5376 -288 
Q 5408 -288 5437 -313 
Q 5466 -339 5466 -371 
L 5466 -826 
z
M 2733 4045 
Q 2733 4096 2717 4112 
Q 2701 4128 2650 4128 
L 1446 4128 
Q 1395 4128 1379 4115 
Q 1363 4102 1363 4051 
L 1363 2310 
Q 1363 2246 1379 2233 
Q 1395 2221 1446 2221 
L 2650 2221 
Q 2701 2221 2717 2233 
Q 2733 2246 2733 2310 
L 2733 4045 
z
M 4544 2790 
L 4544 3456 
L 3456 3456 
L 3456 2790 
L 4544 2790 
z
" transform="scale(0.015625)"/>
     </defs>
     <use xlink:href="#NanumGothicBold-d654"/>
     <use xlink:href="#NanumGothicBold-ba74" transform="translate(93.999985 0)"/>
     <use xlink:href="#NanumGothicBold-20" transform="translate(187.999969 0)"/>
     <use xlink:href="#NanumGothicBold-c88c" transform="translate(215.999954 0)"/>
     <use xlink:href="#NanumGothicBold-d45c" transform="translate(309.999939 0)"/>
    </g>
   </g>
  </g>
 </g>
 <defs>
  <clipPath id="pe3f89b722d">
   <rect x="8.64" y="30.802974" width="859.32" height="113.203832"/>
  </clipPath>
 </defs>
</svg>
