<?xml version="1.0" encoding="utf-8" standalone="no"?>
<!DOCTYPE svg PUBLIC "-//W3C//DTD SVG 1.1//EN"
  "http://www.w3.org/Graphics/SVG/1.1/DTD/svg11.dtd">
<svg xmlns:xlink="http://www.w3.org/1999/xlink" width="279.36pt" height="111.312pt" viewBox="0 0 279.36 111.312" xmlns="http://www.w3.org/2000/svg" version="1.1">
 <metadata>
  <rdf:RDF xmlns:dc="http://purl.org/dc/elements/1.1/" xmlns:cc="http://creativecommons.org/ns#" xmlns:rdf="http://www.w3.org/1999/02/22-rdf-syntax-ns#">
   <cc:Work>
    <dc:type rdf:resource="http://purl.org/dc/dcmitype/StillImage"/>
    <dc:date>2026-07-08T05:12:55.928347</dc:date>
    <dc:format>image/svg+xml</dc:format>
    <dc:creator>
     <cc:Agent>
      <dc:title>Matplotlib v3.10.8, https://matplotlib.org/</dc:title>
     </cc:Agent>
    </dc:creator>
   </cc:Work>
  </rdf:RDF>
 </metadata>
 <defs>
  <style type="text/css">*{stroke-linejoin: round; stroke-linecap: butt}</style>
 </defs>
 <g id="figure_1">
  <g id="patch_1">
   <path d="M 0 111.312 
L 279.36 111.312 
L 279.36 0 
L 0 0 
z
" style="fill: #ffffff"/>
  </g>
  <g id="axes_1">
   <g id="patch_2">
    <path d="M 5.76 105.552 
L 273.6 105.552 
L 273.6 5.76 
L 5.76 5.76 
z
" clip-path="url(#p63b57cf731)" style="fill: #ffffff; stroke: #e5e7eb; stroke-linejoin: miter"/>
   </g>
   <g id="text_1">
    <!-- - 부호: 반대 방향 -->
    <g style="fill: #111827" transform="translate(16.4736 25.766759) scale(0.11 -0.11)">
     <defs>
      <path id="NanumGothicCoding-2d" d="M 2938 2131 
L 2938 1850 
Q 2938 1779 2928 1769 
Q 2918 1760 2848 1760 
L 352 1760 
Q 282 1760 272 1769 
Q 262 1779 262 1850 
L 262 2131 
Q 262 2202 272 2211 
Q 282 2221 352 2221 
L 2848 2221 
Q 2918 2221 2928 2211 
Q 2938 2202 2938 2131 
z
" transform="scale(0.015625)"/>
      <path id="NanumGothicCoding-20" transform="scale(0.015625)"/>
      <path id="NanumGothicCoding-bd80" d="M 1690 2419 
Q 1536 2419 1443 2438 
Q 1350 2458 1299 2512 
Q 1248 2566 1229 2652 
Q 1210 2739 1210 2874 
L 1210 4909 
Q 1210 4941 1235 4963 
Q 1261 4986 1293 4986 
L 1568 4986 
Q 1600 4986 1622 4960 
Q 1645 4934 1645 4909 
L 1645 4058 
L 4723 4058 
L 4723 4902 
Q 4723 4934 4745 4960 
Q 4768 4986 4800 4986 
L 5075 4986 
Q 5107 4986 5132 4963 
Q 5158 4941 5158 4909 
L 5158 2829 
Q 5158 2586 5056 2502 
Q 4954 2419 4672 2419 
L 1690 2419 
z
M 3046 -858 
Q 3014 -858 2988 -829 
Q 2963 -800 2963 -762 
L 2963 1242 
L 480 1242 
Q 442 1242 413 1267 
Q 384 1293 384 1325 
L 384 1542 
Q 384 1581 413 1603 
Q 442 1626 480 1626 
L 5920 1626 
Q 5952 1626 5984 1603 
Q 6016 1581 6016 1542 
L 6016 1325 
Q 6016 1293 5984 1267 
Q 5952 1242 5920 1242 
L 3405 1242 
L 3405 -762 
Q 3405 -800 3382 -829 
Q 3360 -858 3322 -858 
L 3046 -858 
z
M 1645 3680 
L 1645 2950 
Q 1645 2854 1677 2825 
Q 1709 2797 1798 2797 
L 4570 2797 
Q 4659 2797 4691 2825 
Q 4723 2854 4723 2950 
L 4723 3680 
L 1645 3680 
z
" transform="scale(0.015625)"/>
      <path id="NanumGothicCoding-d638" d="M 4877 2355 
Q 4877 2131 4774 1939 
Q 4672 1747 4480 1603 
Q 4288 1459 4013 1366 
Q 3738 1274 3398 1254 
L 3398 499 
L 5920 499 
Q 5952 499 5984 476 
Q 6016 454 6016 416 
L 6016 198 
Q 6016 166 5984 140 
Q 5952 115 5920 115 
L 480 115 
Q 442 115 413 140 
Q 384 166 384 198 
L 384 416 
Q 384 454 413 476 
Q 442 499 480 499 
L 2957 499 
L 2957 1254 
Q 2611 1280 2339 1369 
Q 2067 1459 1878 1603 
Q 1690 1747 1587 1939 
Q 1485 2131 1485 2355 
Q 1485 2598 1603 2803 
Q 1722 3008 1942 3152 
Q 2163 3296 2476 3376 
Q 2790 3456 3181 3456 
Q 3571 3456 3884 3373 
Q 4198 3290 4419 3146 
Q 4640 3002 4758 2797 
Q 4877 2592 4877 2355 
z
M 4378 2355 
Q 4378 2682 4061 2877 
Q 3744 3072 3181 3072 
Q 2618 3072 2298 2880 
Q 1978 2688 1978 2355 
Q 1978 2029 2298 1830 
Q 2618 1632 3181 1632 
Q 3744 1632 4061 1830 
Q 4378 2029 4378 2355 
z
M 5498 3802 
Q 5498 3718 5402 3718 
L 973 3718 
Q 941 3718 912 3744 
Q 883 3770 883 3808 
L 883 4013 
Q 883 4051 912 4076 
Q 941 4102 973 4102 
L 5402 4102 
Q 5498 4102 5498 4019 
L 5498 3802 
z
M 3987 4877 
Q 4083 4877 4083 4787 
L 4083 4582 
Q 4083 4486 3987 4486 
L 2342 4486 
Q 2246 4486 2246 4582 
L 2246 4787 
Q 2246 4877 2342 4877 
L 3987 4877 
z
" transform="scale(0.015625)"/>
      <path id="NanumGothicCoding-3a" d="M 1158 3149 
Q 1158 3322 1289 3453 
Q 1421 3584 1600 3584 
Q 1773 3584 1907 3453 
Q 2042 3322 2042 3149 
Q 2042 2963 1907 2835 
Q 1773 2707 1600 2707 
Q 1421 2707 1289 2835 
Q 1158 2963 1158 3149 
z
M 1158 640 
Q 1158 826 1289 954 
Q 1421 1082 1600 1082 
Q 1773 1082 1907 954 
Q 2042 826 2042 640 
Q 2042 467 1907 336 
Q 1773 205 1600 205 
Q 1421 205 1289 336 
Q 1158 467 1158 640 
z
" transform="scale(0.015625)"/>
      <path id="NanumGothicCoding-bc18" d="M 1350 1715 
Q 1197 1715 1104 1734 
Q 1011 1754 960 1808 
Q 909 1862 889 1948 
Q 870 2035 870 2170 
L 870 4691 
Q 870 4723 896 4745 
Q 922 4768 954 4768 
L 1229 4768 
Q 1261 4768 1283 4742 
Q 1306 4717 1306 4691 
L 1306 3584 
L 3168 3584 
L 3168 4685 
Q 3168 4717 3190 4742 
Q 3213 4768 3245 4768 
L 3520 4768 
Q 3552 4768 3577 4745 
Q 3603 4723 3603 4691 
L 3603 2125 
Q 3603 1882 3500 1798 
Q 3398 1715 3117 1715 
L 1350 1715 
z
M 5120 832 
Q 5120 742 5030 742 
L 4768 742 
Q 4678 742 4678 832 
L 4678 4915 
Q 4678 5005 4768 5005 
L 5030 5005 
Q 5120 5005 5120 4915 
L 5120 3130 
L 6003 3130 
Q 6042 3130 6070 3107 
Q 6099 3085 6099 3046 
L 6099 2829 
Q 6099 2797 6070 2771 
Q 6042 2746 6003 2746 
L 5120 2746 
L 5120 832 
z
M 5408 -704 
Q 5408 -742 5376 -761 
Q 5344 -781 5312 -781 
L 2054 -781 
Q 1754 -781 1661 -669 
Q 1568 -557 1568 -294 
L 1568 960 
Q 1568 1050 1658 1050 
L 1920 1050 
Q 2010 1050 2010 960 
L 2010 -262 
Q 2010 -352 2038 -374 
Q 2067 -397 2157 -397 
L 5312 -397 
Q 5344 -397 5376 -419 
Q 5408 -442 5408 -474 
L 5408 -704 
z
M 1306 3206 
L 1306 2246 
Q 1306 2150 1338 2121 
Q 1370 2093 1459 2093 
L 3014 2093 
Q 3104 2093 3136 2121 
Q 3168 2150 3168 2246 
L 3168 3206 
L 1306 3206 
z
" transform="scale(0.015625)"/>
      <path id="NanumGothicCoding-b300" d="M 4320 2586 
L 5133 2586 
L 5133 4915 
Q 5133 5005 5222 5005 
L 5466 5005 
Q 5555 5005 5555 4915 
L 5555 -806 
Q 5555 -896 5466 -896 
L 5222 -896 
Q 5133 -896 5133 -806 
L 5133 2202 
L 4320 2202 
L 4320 -563 
Q 4320 -653 4230 -653 
L 3987 -653 
Q 3898 -653 3898 -563 
L 3898 4806 
Q 3898 4896 3987 4896 
L 4230 4896 
Q 4320 4896 4320 4806 
L 4320 2586 
z
M 3590 1082 
Q 3603 992 3507 973 
Q 3059 864 2476 816 
Q 1894 768 1286 781 
Q 998 787 892 915 
Q 787 1043 787 1312 
L 787 4019 
Q 787 4288 889 4377 
Q 992 4467 1274 4467 
L 3027 4467 
Q 3110 4467 3110 4390 
L 3110 4160 
Q 3110 4083 3027 4083 
L 1357 4083 
Q 1267 4083 1248 4060 
Q 1229 4038 1229 3942 
L 1229 1344 
Q 1229 1248 1261 1216 
Q 1293 1184 1382 1178 
Q 1939 1158 2438 1196 
Q 2938 1235 3437 1344 
Q 3539 1363 3558 1274 
L 3590 1082 
z
" transform="scale(0.015625)"/>
      <path id="NanumGothicCoding-bc29" d="M 5197 250 
Q 5197 -26 5049 -243 
Q 4902 -461 4649 -611 
Q 4397 -762 4061 -842 
Q 3725 -922 3341 -922 
Q 2925 -922 2585 -842 
Q 2246 -762 2003 -611 
Q 1760 -461 1625 -243 
Q 1491 -26 1491 250 
Q 1491 518 1625 732 
Q 1760 947 2003 1097 
Q 2246 1248 2585 1328 
Q 2925 1408 3341 1408 
Q 3725 1408 4061 1328 
Q 4397 1248 4649 1101 
Q 4902 954 5049 739 
Q 5197 525 5197 250 
z
M 1350 1971 
Q 1197 1971 1104 1990 
Q 1011 2010 960 2064 
Q 909 2118 889 2204 
Q 870 2291 870 2426 
L 870 4730 
Q 870 4762 896 4784 
Q 922 4806 954 4806 
L 1229 4806 
Q 1261 4806 1283 4780 
Q 1306 4755 1306 4730 
L 1306 3731 
L 3174 3731 
L 3174 4723 
Q 3174 4755 3196 4780 
Q 3219 4806 3251 4806 
L 3526 4806 
Q 3558 4806 3584 4784 
Q 3610 4762 3610 4730 
L 3610 2381 
Q 3610 2138 3507 2054 
Q 3405 1971 3123 1971 
L 1350 1971 
z
M 4742 230 
Q 4742 422 4627 569 
Q 4512 717 4317 816 
Q 4122 915 3866 969 
Q 3610 1024 3334 1024 
Q 3027 1024 2771 969 
Q 2515 915 2332 816 
Q 2150 717 2048 569 
Q 1946 422 1946 230 
Q 1946 45 2048 -99 
Q 2150 -243 2332 -339 
Q 2515 -435 2771 -486 
Q 3027 -538 3334 -538 
Q 3610 -538 3866 -486 
Q 4122 -435 4317 -339 
Q 4512 -243 4627 -99 
Q 4742 45 4742 230 
z
M 5120 1530 
Q 5120 1440 5030 1440 
L 4768 1440 
Q 4678 1440 4678 1530 
L 4678 4915 
Q 4678 5005 4768 5005 
L 5030 5005 
Q 5120 5005 5120 4915 
L 5120 3373 
L 6003 3373 
Q 6042 3373 6070 3347 
Q 6099 3322 6099 3283 
L 6099 3072 
Q 6099 3040 6070 3014 
Q 6042 2989 6003 2989 
L 5120 2989 
L 5120 1530 
z
M 1306 3354 
L 1306 2502 
Q 1306 2406 1338 2377 
Q 1370 2349 1459 2349 
L 3021 2349 
Q 3110 2349 3142 2377 
Q 3174 2406 3174 2502 
L 3174 3354 
L 1306 3354 
z
" transform="scale(0.015625)"/>
      <path id="NanumGothicCoding-d5a5" d="M 5197 64 
Q 5197 -160 5049 -339 
Q 4902 -518 4649 -646 
Q 4397 -774 4061 -844 
Q 3725 -915 3341 -915 
Q 2925 -915 2585 -844 
Q 2246 -774 2003 -646 
Q 1760 -518 1625 -339 
Q 1491 -160 1491 64 
Q 1491 282 1625 458 
Q 1760 634 2003 762 
Q 2246 890 2585 960 
Q 2925 1030 3341 1030 
Q 3725 1030 4061 963 
Q 4397 896 4649 768 
Q 4902 640 5049 461 
Q 5197 282 5197 64 
z
M 3725 2413 
Q 3725 2182 3619 1993 
Q 3514 1805 3331 1664 
Q 3149 1523 2896 1446 
Q 2643 1370 2349 1370 
Q 2048 1370 1798 1446 
Q 1549 1523 1363 1664 
Q 1178 1805 1075 1997 
Q 973 2189 973 2413 
Q 973 2643 1075 2835 
Q 1178 3027 1363 3161 
Q 1549 3296 1798 3373 
Q 2048 3450 2349 3450 
Q 2643 3450 2896 3373 
Q 3149 3296 3331 3158 
Q 3514 3021 3619 2829 
Q 3725 2637 3725 2413 
z
M 4742 45 
Q 4742 192 4627 307 
Q 4512 422 4317 502 
Q 4122 582 3866 624 
Q 3610 666 3334 666 
Q 3027 666 2771 624 
Q 2515 582 2332 502 
Q 2150 422 2048 307 
Q 1946 192 1946 45 
Q 1946 -96 2048 -208 
Q 2150 -320 2332 -397 
Q 2515 -474 2771 -512 
Q 3027 -550 3334 -550 
Q 3610 -550 3866 -512 
Q 4122 -474 4317 -397 
Q 4512 -320 4627 -208 
Q 4742 -96 4742 45 
z
M 5120 1254 
Q 5120 1165 5030 1165 
L 4768 1165 
Q 4678 1165 4678 1254 
L 4678 4915 
Q 4678 5005 4768 5005 
L 5030 5005 
Q 5120 5005 5120 4915 
L 5120 3776 
L 6003 3776 
Q 6042 3776 6070 3753 
Q 6099 3731 6099 3693 
L 6099 3482 
Q 6099 3450 6070 3424 
Q 6042 3398 6003 3398 
L 5120 3398 
L 5120 2630 
L 6003 2630 
Q 6042 2630 6070 2608 
Q 6099 2586 6099 2547 
L 6099 2336 
Q 6099 2304 6070 2278 
Q 6042 2253 6003 2253 
L 5120 2253 
L 5120 1254 
z
M 3296 2413 
Q 3296 2566 3225 2691 
Q 3155 2816 3027 2902 
Q 2899 2989 2726 3037 
Q 2554 3085 2349 3085 
Q 2144 3085 1971 3037 
Q 1798 2989 1670 2902 
Q 1542 2816 1468 2691 
Q 1395 2566 1395 2413 
Q 1395 2259 1468 2134 
Q 1542 2010 1670 1920 
Q 1798 1830 1971 1782 
Q 2144 1734 2349 1734 
Q 2554 1734 2726 1782 
Q 2899 1830 3027 1920 
Q 3155 2010 3225 2134 
Q 3296 2259 3296 2413 
z
M 4218 3827 
Q 4218 3744 4122 3744 
L 589 3744 
Q 557 3744 528 3769 
Q 499 3795 499 3834 
L 499 4038 
Q 499 4077 528 4102 
Q 557 4128 589 4128 
L 4122 4128 
Q 4218 4128 4218 4045 
L 4218 3827 
z
M 3283 4608 
Q 3283 4518 3187 4518 
L 1434 4518 
Q 1402 4518 1373 4540 
Q 1344 4563 1344 4602 
L 1344 4819 
Q 1344 4858 1369 4883 
Q 1395 4909 1427 4909 
L 3187 4909 
Q 3283 4909 3283 4819 
L 3283 4608 
z
" transform="scale(0.015625)"/>
     </defs>
     <use xlink:href="#NanumGothicCoding-2d"/>
     <use xlink:href="#NanumGothicCoding-20" transform="translate(49.999985 0)"/>
     <use xlink:href="#NanumGothicCoding-bd80" transform="translate(99.999969 0)"/>
     <use xlink:href="#NanumGothicCoding-d638" transform="translate(199.999954 0)"/>
     <use xlink:href="#NanumGothicCoding-3a" transform="translate(299.999939 0)"/>
     <use xlink:href="#NanumGothicCoding-20" transform="translate(349.999924 0)"/>
     <use xlink:href="#NanumGothicCoding-bc18" transform="translate(399.999908 0)"/>
     <use xlink:href="#NanumGothicCoding-b300" transform="translate(499.999893 0)"/>
     <use xlink:href="#NanumGothicCoding-20" transform="translate(599.999878 0)"/>
     <use xlink:href="#NanumGothicCoding-bc29" transform="translate(649.999863 0)"/>
     <use xlink:href="#NanumGothicCoding-d5a5" transform="translate(749.999847 0)"/>
    </g>
   </g>
   <g id="text_2">
    <!-- 0.9: 에너지 일부 손실 -->
    <g style="fill: #111827" transform="translate(16.4736 36.731847) scale(0.11 -0.11)">
     <defs>
      <path id="NanumGothicCoding-30" d="M 1747 1242 
L 1453 1242 
Q 1376 1242 1376 1331 
L 1376 2355 
Q 1376 2445 1453 2445 
L 1747 2445 
Q 1824 2445 1824 2355 
L 1824 1331 
Q 1824 1242 1747 1242 
z
M 2470 1907 
Q 2483 3731 1600 3731 
Q 717 3731 730 1907 
Q 717 77 1600 77 
Q 2483 77 2470 1907 
z
M 2906 1907 
Q 2906 -326 1606 -326 
Q 294 -326 294 1907 
Q 294 2726 544 3354 
Q 909 4141 1606 4141 
Q 2285 4141 2662 3354 
Q 2790 3040 2848 2637 
Q 2906 2234 2906 1907 
z
" transform="scale(0.015625)"/>
      <path id="NanumGothicCoding-2e" d="M 1210 -256 
Q 1210 -96 1325 19 
Q 1440 134 1600 134 
Q 1760 134 1872 19 
Q 1984 -96 1984 -256 
Q 1984 -416 1872 -531 
Q 1760 -646 1600 -646 
Q 1440 -646 1325 -531 
Q 1210 -416 1210 -256 
z
" transform="scale(0.015625)"/>
      <path id="NanumGothicCoding-39" d="M 563 154 
Q 704 102 848 73 
Q 992 45 1126 45 
Q 1760 45 2157 608 
Q 2483 1120 2502 1926 
Q 2374 1683 2163 1517 
Q 1888 1299 1510 1299 
Q 1088 1299 755 1587 
Q 282 1997 282 2694 
Q 282 3315 659 3738 
Q 1043 4160 1555 4160 
Q 2067 4160 2458 3744 
Q 2931 3219 2938 2054 
Q 2938 998 2477 339 
Q 1926 -352 1139 -352 
Q 1018 -352 851 -329 
Q 685 -307 538 -262 
Q 442 -250 454 -160 
L 467 96 
Q 467 134 499 150 
Q 531 166 563 154 
z
M 723 2726 
Q 717 2362 896 2074 
Q 1152 1702 1555 1702 
Q 1709 1696 1878 1779 
Q 2048 1862 2166 2022 
Q 2285 2182 2339 2368 
Q 2394 2554 2394 2726 
Q 2394 3091 2214 3379 
Q 1958 3770 1555 3770 
Q 1152 3770 896 3379 
Q 730 3091 723 2726 
z
" transform="scale(0.015625)"/>
      <path id="NanumGothicCoding-c5d0" d="M 4422 -563 
Q 4422 -653 4333 -653 
L 4090 -653 
Q 4000 -653 4000 -563 
L 4000 2419 
L 3277 2419 
Q 3251 1978 3136 1648 
Q 3021 1318 2835 1097 
Q 2650 877 2410 768 
Q 2170 659 1901 659 
Q 1613 659 1369 784 
Q 1126 909 947 1155 
Q 768 1402 665 1773 
Q 563 2144 563 2643 
Q 563 3142 665 3510 
Q 768 3878 950 4124 
Q 1133 4371 1376 4489 
Q 1619 4608 1907 4608 
Q 2182 4608 2422 4499 
Q 2662 4390 2848 4166 
Q 3034 3942 3146 3603 
Q 3258 3264 3277 2803 
L 4000 2803 
L 4000 4806 
Q 4000 4896 4090 4896 
L 4333 4896 
Q 4422 4896 4422 4806 
L 4422 -563 
z
M 2835 2643 
Q 2835 2938 2777 3219 
Q 2720 3501 2605 3725 
Q 2490 3949 2314 4086 
Q 2138 4224 1901 4224 
Q 1651 4224 1481 4083 
Q 1312 3942 1206 3715 
Q 1101 3488 1056 3206 
Q 1011 2925 1011 2643 
Q 1011 2362 1062 2077 
Q 1114 1792 1219 1561 
Q 1325 1331 1494 1187 
Q 1664 1043 1901 1043 
Q 2138 1043 2314 1184 
Q 2490 1325 2605 1552 
Q 2720 1779 2777 2067 
Q 2835 2355 2835 2643 
z
M 5555 -806 
Q 5555 -896 5466 -896 
L 5222 -896 
Q 5133 -896 5133 -806 
L 5133 4915 
Q 5133 5005 5222 5005 
L 5466 5005 
Q 5555 5005 5555 4915 
L 5555 -806 
z
" transform="scale(0.015625)"/>
      <path id="NanumGothicCoding-b108" d="M 4902 3066 
L 4902 4915 
Q 4902 5005 4992 5005 
L 5254 5005 
Q 5344 5005 5344 4915 
L 5344 -806 
Q 5344 -896 5254 -896 
L 4992 -896 
Q 4902 -896 4902 -806 
L 4902 2682 
L 3117 2682 
Q 3034 2682 3034 2758 
L 3034 2989 
Q 3034 3066 3117 3066 
L 4902 3066 
z
M 1414 1434 
Q 1414 1338 1446 1306 
Q 1478 1274 1568 1267 
Q 1882 1254 2218 1260 
Q 2554 1267 2883 1289 
Q 3213 1312 3536 1350 
Q 3859 1389 4147 1446 
Q 4256 1472 4275 1370 
L 4307 1190 
Q 4326 1094 4224 1075 
Q 3962 1018 3616 973 
Q 3270 928 2899 899 
Q 2528 870 2157 860 
Q 1786 851 1478 870 
Q 1190 883 1081 1008 
Q 973 1133 973 1402 
L 973 4557 
Q 973 4646 1062 4646 
L 1325 4646 
Q 1414 4646 1414 4557 
L 1414 1434 
z
" transform="scale(0.015625)"/>
      <path id="NanumGothicCoding-c9c0" d="M 4019 858 
Q 4000 826 3971 819 
Q 3942 813 3891 851 
Q 3738 966 3565 1116 
Q 3392 1267 3225 1436 
Q 3059 1606 2899 1788 
Q 2739 1971 2605 2150 
Q 2285 1747 1875 1379 
Q 1466 1011 941 646 
Q 909 627 877 617 
Q 845 608 826 634 
L 672 832 
Q 646 864 652 899 
Q 659 934 685 954 
Q 1709 1677 2281 2419 
Q 2854 3162 3078 3968 
Q 3104 4058 3081 4099 
Q 3059 4141 2970 4141 
L 1030 4141 
Q 954 4141 954 4224 
L 954 4448 
Q 954 4525 1043 4525 
L 3142 4525 
Q 3475 4525 3564 4409 
Q 3654 4294 3565 4000 
Q 3315 3181 2861 2496 
Q 3008 2291 3174 2092 
Q 3341 1894 3507 1718 
Q 3674 1542 3840 1398 
Q 4006 1254 4154 1158 
Q 4186 1133 4186 1101 
Q 4186 1069 4166 1043 
L 4019 858 
z
M 5344 -806 
Q 5344 -896 5254 -896 
L 4992 -896 
Q 4902 -896 4902 -806 
L 4902 4915 
Q 4902 5005 4992 5005 
L 5254 5005 
Q 5344 5005 5344 4915 
L 5344 -806 
z
" transform="scale(0.015625)"/>
      <path id="NanumGothicCoding-c77c" d="M 5344 2003 
Q 5344 1914 5254 1914 
L 4992 1914 
Q 4902 1914 4902 2003 
L 4902 4915 
Q 4902 5005 4992 5005 
L 5254 5005 
Q 5344 5005 5344 4915 
L 5344 2003 
z
M 3757 3469 
Q 3757 3168 3638 2915 
Q 3520 2662 3315 2476 
Q 3110 2291 2835 2185 
Q 2560 2080 2246 2080 
Q 1939 2080 1673 2182 
Q 1408 2285 1206 2467 
Q 1005 2650 889 2906 
Q 774 3162 774 3469 
Q 774 3795 889 4054 
Q 1005 4314 1206 4493 
Q 1408 4672 1673 4768 
Q 1939 4864 2246 4864 
Q 2534 4864 2806 4768 
Q 3078 4672 3289 4493 
Q 3501 4314 3629 4054 
Q 3757 3795 3757 3469 
z
M 3309 3475 
Q 3309 3712 3219 3897 
Q 3130 4083 2982 4204 
Q 2835 4326 2643 4390 
Q 2451 4454 2246 4454 
Q 2035 4454 1846 4393 
Q 1658 4333 1520 4211 
Q 1382 4090 1302 3904 
Q 1222 3718 1222 3475 
Q 1222 3245 1299 3062 
Q 1376 2880 1513 2749 
Q 1651 2618 1836 2550 
Q 2022 2483 2246 2483 
Q 2451 2483 2643 2550 
Q 2835 2618 2982 2746 
Q 3130 2874 3219 3059 
Q 3309 3245 3309 3475 
z
M 5478 -838 
Q 5478 -870 5449 -892 
Q 5421 -915 5395 -915 
L 2176 -915 
Q 1875 -915 1782 -803 
Q 1690 -691 1690 -422 
L 1690 58 
Q 1690 326 1802 419 
Q 1914 512 2202 512 
L 4762 512 
Q 4851 512 4876 537 
Q 4902 563 4902 659 
L 4902 1024 
Q 4902 1120 4880 1145 
Q 4858 1171 4768 1171 
L 1766 1171 
Q 1734 1171 1705 1190 
Q 1677 1210 1677 1242 
L 1677 1472 
Q 1677 1504 1705 1523 
Q 1734 1542 1766 1542 
L 4838 1542 
Q 4992 1542 5088 1520 
Q 5184 1498 5241 1446 
Q 5299 1395 5321 1302 
Q 5344 1210 5344 1075 
L 5344 595 
Q 5344 326 5232 233 
Q 5120 141 4832 141 
L 2266 141 
Q 2176 141 2153 115 
Q 2131 90 2131 -6 
L 2131 -397 
Q 2131 -486 2156 -515 
Q 2182 -544 2272 -544 
L 5389 -544 
Q 5421 -544 5449 -563 
Q 5478 -582 5478 -614 
L 5478 -838 
z
" transform="scale(0.015625)"/>
      <path id="NanumGothicCoding-c190" d="M 5920 1894 
Q 5952 1894 5984 1872 
Q 6016 1850 6016 1811 
L 6016 1594 
Q 6016 1562 5984 1536 
Q 5952 1510 5920 1510 
L 480 1510 
Q 442 1510 413 1536 
Q 384 1562 384 1594 
L 384 1818 
Q 384 1856 413 1875 
Q 442 1894 480 1894 
L 2957 1894 
L 2957 2854 
Q 2957 2944 3046 2944 
L 3309 2944 
Q 3398 2944 3398 2854 
L 3398 1894 
L 5920 1894 
z
M 3424 4806 
Q 3411 4755 3401 4700 
Q 3392 4646 3379 4595 
Q 3411 4499 3456 4429 
Q 3571 4224 3769 4025 
Q 3968 3827 4227 3657 
Q 4486 3488 4796 3357 
Q 5107 3226 5446 3149 
Q 5485 3136 5491 3104 
Q 5498 3072 5485 3040 
L 5376 2822 
Q 5363 2790 5340 2774 
Q 5318 2758 5254 2771 
Q 4915 2854 4601 2995 
Q 4288 3136 4019 3315 
Q 3750 3494 3529 3705 
Q 3309 3917 3168 4141 
Q 2886 3680 2358 3302 
Q 1830 2925 1126 2720 
Q 1024 2694 998 2752 
L 902 2982 
Q 890 3014 899 3052 
Q 909 3091 954 3104 
Q 1382 3219 1740 3408 
Q 2099 3597 2364 3830 
Q 2630 4064 2790 4326 
Q 2950 4589 2982 4851 
Q 2995 4941 3066 4928 
L 3354 4896 
Q 3430 4883 3424 4806 
z
M 5306 -704 
Q 5306 -742 5274 -761 
Q 5242 -781 5210 -781 
L 1754 -781 
Q 1453 -781 1360 -656 
Q 1267 -531 1267 -269 
L 1267 973 
Q 1267 1062 1357 1062 
L 1619 1062 
Q 1709 1062 1709 973 
L 1709 -262 
Q 1709 -352 1737 -374 
Q 1766 -397 1856 -397 
L 5210 -397 
Q 5242 -397 5274 -419 
Q 5306 -442 5306 -474 
L 5306 -704 
z
" transform="scale(0.015625)"/>
      <path id="NanumGothicCoding-c2e4" d="M 5478 -838 
Q 5478 -870 5449 -892 
Q 5421 -915 5395 -915 
L 2176 -915 
Q 1875 -915 1782 -803 
Q 1690 -691 1690 -422 
L 1690 58 
Q 1690 326 1802 419 
Q 1914 512 2202 512 
L 4762 512 
Q 4851 512 4876 537 
Q 4902 563 4902 659 
L 4902 1024 
Q 4902 1120 4880 1145 
Q 4858 1171 4768 1171 
L 1766 1171 
Q 1734 1171 1705 1190 
Q 1677 1210 1677 1242 
L 1677 1472 
Q 1677 1504 1705 1523 
Q 1734 1542 1766 1542 
L 4838 1542 
Q 4992 1542 5088 1520 
Q 5184 1498 5241 1446 
Q 5299 1395 5321 1302 
Q 5344 1210 5344 1075 
L 5344 595 
Q 5344 326 5232 233 
Q 5120 141 4832 141 
L 2266 141 
Q 2176 141 2153 115 
Q 2131 90 2131 -6 
L 2131 -397 
Q 2131 -486 2156 -515 
Q 2182 -544 2272 -544 
L 5389 -544 
Q 5421 -544 5449 -563 
Q 5478 -582 5478 -614 
L 5478 -838 
z
M 2547 4806 
Q 2541 4358 2432 3974 
Q 2515 3763 2662 3552 
Q 2810 3341 2998 3155 
Q 3187 2970 3408 2819 
Q 3629 2669 3859 2573 
Q 3898 2560 3898 2525 
Q 3898 2490 3885 2464 
L 3763 2246 
Q 3744 2208 3709 2205 
Q 3674 2202 3635 2214 
Q 3430 2304 3225 2441 
Q 3021 2579 2832 2748 
Q 2643 2918 2486 3100 
Q 2330 3283 2227 3462 
Q 2022 3078 1692 2742 
Q 1363 2406 883 2099 
Q 838 2067 809 2064 
Q 781 2061 749 2099 
L 589 2298 
Q 538 2368 621 2426 
Q 1018 2675 1299 2940 
Q 1581 3206 1757 3497 
Q 1933 3789 2016 4115 
Q 2099 4442 2099 4813 
Q 2099 4864 2124 4889 
Q 2150 4915 2176 4915 
L 2477 4896 
Q 2547 4896 2547 4806 
z
M 5344 2003 
Q 5344 1914 5254 1914 
L 4992 1914 
Q 4902 1914 4902 2003 
L 4902 4915 
Q 4902 5005 4992 5005 
L 5254 5005 
Q 5344 5005 5344 4915 
L 5344 2003 
z
" transform="scale(0.015625)"/>
     </defs>
     <use xlink:href="#NanumGothicCoding-30"/>
     <use xlink:href="#NanumGothicCoding-2e" transform="translate(49.999985 0)"/>
     <use xlink:href="#NanumGothicCoding-39" transform="translate(99.999969 0)"/>
     <use xlink:href="#NanumGothicCoding-3a" transform="translate(149.999954 0)"/>
     <use xlink:href="#NanumGothicCoding-20" transform="translate(199.999939 0)"/>
     <use xlink:href="#NanumGothicCoding-c5d0" transform="translate(249.999924 0)"/>
     <use xlink:href="#NanumGothicCoding-b108" transform="translate(349.999908 0)"/>
     <use xlink:href="#NanumGothicCoding-c9c0" transform="translate(449.999893 0)"/>
     <use xlink:href="#NanumGothicCoding-20" transform="translate(549.999878 0)"/>
     <use xlink:href="#NanumGothicCoding-c77c" transform="translate(599.999863 0)"/>
     <use xlink:href="#NanumGothicCoding-bd80" transform="translate(699.999847 0)"/>
     <use xlink:href="#NanumGothicCoding-20" transform="translate(799.999832 0)"/>
     <use xlink:href="#NanumGothicCoding-c190" transform="translate(849.999817 0)"/>
     <use xlink:href="#NanumGothicCoding-c2e4" transform="translate(949.999802 0)"/>
    </g>
   </g>
  </g>
 </g>
 <defs>
  <clipPath id="p63b57cf731">
   <rect x="5.76" y="5.76" width="267.84" height="99.792"/>
  </clipPath>
 </defs>
</svg>
