<svg xmlns="http://www.w3.org/2000/svg" viewBox="0 0 880 240">
  <rect width="880" height="240" rx="16" fill="#f8fafc"/>
  <text x="440" y="28" text-anchor="middle" font-family="-apple-system, BlinkMacSystemFont, 'Segoe UI', Roboto, 'Apple SD Gothic Neo', 'Malgun Gothic', 'Nanum Gothic', 'Noto Sans KR', sans-serif" font-size="18" font-weight="700" fill="#0f172a">가변 렌더 프레임과 고정 물리 스텝</text>
  <g font-family="-apple-system, BlinkMacSystemFont, 'Segoe UI', Roboto, 'Apple SD Gothic Neo', 'Malgun Gothic', 'Nanum Gothic', 'Noto Sans KR', sans-serif"><text x="25" y="82" font-size="14" fill="#0369a1">Render</text><text x="25" y="168" font-size="14" fill="#15803d">Physics</text></g>
  <line x1="105" y1="78" x2="845" y2="78" stroke="#94a3b8" stroke-width="2"/>
  <g fill="#38bdf8"><rect x="120" y="60" width="70" height="36" rx="5"/><rect x="205" y="60" width="115" height="36" rx="5"/><rect x="335" y="60" width="55" height="36" rx="5"/><rect x="405" y="60" width="145" height="36" rx="5"/><rect x="565" y="60" width="80" height="36" rx="5"/><rect x="660" y="60" width="160" height="36" rx="5"/></g>
  <line x1="105" y1="164" x2="845" y2="164" stroke="#94a3b8" stroke-width="2"/>
  <g fill="#4ade80"><rect x="120" y="146" width="90" height="36" rx="5"/><rect x="220" y="146" width="90" height="36" rx="5"/><rect x="320" y="146" width="90" height="36" rx="5"/><rect x="420" y="146" width="90" height="36" rx="5"/><rect x="520" y="146" width="90" height="36" rx="5"/><rect x="620" y="146" width="90" height="36" rx="5"/><rect x="720" y="146" width="90" height="36" rx="5"/></g>
  <text x="440" y="215" text-anchor="middle" font-family="-apple-system, BlinkMacSystemFont, 'Segoe UI', Roboto, 'Apple SD Gothic Neo', 'Malgun Gothic', 'Nanum Gothic', 'Noto Sans KR', sans-serif" font-size="12" fill="#475569">렌더 간격은 달라도 물리는 fixedDt 간격으로 반복한다</text>
</svg>
