<?xml version="1.0" encoding="utf-8" standalone="no"?>
<!DOCTYPE svg PUBLIC "-//W3C//DTD SVG 1.1//EN"
  "http://www.w3.org/Graphics/SVG/1.1/DTD/svg11.dtd">
<svg xmlns:xlink="http://www.w3.org/1999/xlink" width="299.52pt" height="259.532531pt" viewBox="0 0 299.52 259.532531" xmlns="http://www.w3.org/2000/svg" version="1.1">
 <metadata>
  <rdf:RDF xmlns:dc="http://purl.org/dc/elements/1.1/" xmlns:cc="http://creativecommons.org/ns#" xmlns:rdf="http://www.w3.org/1999/02/22-rdf-syntax-ns#">
   <cc:Work>
    <dc:type rdf:resource="http://purl.org/dc/dcmitype/StillImage"/>
    <dc:date>2026-07-08T05:12:56.624877</dc:date>
    <dc:format>image/svg+xml</dc:format>
    <dc:creator>
     <cc:Agent>
      <dc:title>Matplotlib v3.10.8, https://matplotlib.org/</dc:title>
     </cc:Agent>
    </dc:creator>
   </cc:Work>
  </rdf:RDF>
 </metadata>
 <defs>
  <style type="text/css">*{stroke-linejoin: round; stroke-linecap: butt}</style>
 </defs>
 <g id="figure_1">
  <g id="patch_1">
   <path d="M 0 259.532531 
L 299.52 259.532531 
L 299.52 0 
L 0 0 
z
" style="fill: #ffffff"/>
  </g>
  <g id="axes_1">
   <g id="patch_2">
    <path d="M 73.152 202.508531 
L 194.112 202.508531 
L 194.112 105.740531 
L 73.152 105.740531 
L 73.152 202.508531 
z
" clip-path="url(#p80c42a9d62)" style="fill: none; stroke: #2563eb; stroke-width: 2.2; stroke-linejoin: miter"/>
   </g>
   <g id="line2d_1">
    <defs>
     <path id="m2a5847d18e" d="M 0 2.5 
C 0.663008 2.5 1.29895 2.236584 1.767767 1.767767 
C 2.236584 1.29895 2.5 0.663008 2.5 0 
C 2.5 -0.663008 2.236584 -1.29895 1.767767 -1.767767 
C 1.29895 -2.236584 0.663008 -2.5 0 -2.5 
C -0.663008 -2.5 -1.29895 -2.236584 -1.767767 -1.767767 
C -2.236584 -1.29895 -2.5 -0.663008 -2.5 0 
C -2.5 0.663008 -2.236584 1.29895 -1.767767 1.767767 
C -1.29895 2.236584 -0.663008 2.5 0 2.5 
z
" style="stroke: #2563eb"/>
    </defs>
    <g clip-path="url(#p80c42a9d62)">
     <use xlink:href="#m2a5847d18e" x="133.632" y="154.124531" style="fill: #2563eb; stroke: #2563eb"/>
    </g>
   </g>
   <g id="line2d_2">
    <defs>
     <path id="madf5bf6ab8" d="M 0 3 
C 0.795609 3 1.55874 2.683901 2.12132 2.12132 
C 2.683901 1.55874 3 0.795609 3 0 
C 3 -0.795609 2.683901 -1.55874 2.12132 -2.12132 
C 1.55874 -2.683901 0.795609 -3 0 -3 
C -0.795609 -3 -1.55874 -2.683901 -2.12132 -2.12132 
C -2.683901 -1.55874 -3 -0.795609 -3 0 
C -3 0.795609 -2.683901 1.55874 -2.12132 2.12132 
C -1.55874 2.683901 -0.795609 3 0 3 
z
" style="stroke: #ef4444"/>
    </defs>
    <g clip-path="url(#p80c42a9d62)">
     <use xlink:href="#madf5bf6ab8" x="194.112" y="113.804531" style="fill: #ef4444; stroke: #ef4444"/>
    </g>
   </g>
   <g id="text_1">
    <!-- 충돌점과 중심 -->
    <g style="fill: #111827" transform="translate(8.64 20.054062) scale(0.15 -0.15)">
     <defs>
      <path id="NanumGothicBold-cda9" d="M 5030 -13 
Q 5030 -237 4892 -429 
Q 4755 -621 4496 -758 
Q 4237 -896 3856 -976 
Q 3475 -1056 2995 -1056 
Q 2515 -1056 2134 -976 
Q 1754 -896 1494 -758 
Q 1235 -621 1097 -429 
Q 960 -237 960 -13 
Q 960 378 1395 662 
Q 1830 947 2630 1005 
L 2630 1427 
L 211 1427 
Q 122 1427 122 1523 
L 122 1933 
Q 122 1971 147 2000 
Q 173 2029 211 2029 
L 5779 2029 
Q 5811 2029 5843 1997 
Q 5875 1965 5875 1933 
L 5875 1523 
Q 5875 1485 5843 1456 
Q 5811 1427 5779 1427 
L 3366 1427 
L 3366 1005 
Q 4160 947 4595 662 
Q 5030 378 5030 -13 
z
M 4672 3936 
Q 4672 3827 4605 3724 
Q 4538 3622 4442 3539 
Q 4339 3437 4185 3341 
Q 4032 3245 3846 3155 
Q 4154 3072 4525 3001 
Q 4896 2931 5229 2886 
Q 5280 2874 5299 2832 
Q 5318 2790 5306 2752 
L 5203 2419 
Q 5190 2387 5148 2358 
Q 5107 2330 5050 2342 
Q 4582 2413 4041 2531 
Q 3501 2650 3002 2797 
Q 2534 2637 2016 2502 
Q 1498 2368 979 2278 
Q 934 2266 883 2282 
Q 832 2298 819 2336 
L 698 2701 
Q 685 2739 710 2780 
Q 736 2822 781 2835 
Q 1549 2976 2217 3165 
Q 2886 3354 3424 3603 
Q 3482 3629 3498 3645 
Q 3514 3661 3504 3670 
Q 3494 3680 3468 3683 
Q 3443 3686 3424 3686 
L 1216 3686 
Q 1126 3686 1126 3770 
L 1126 4160 
Q 1126 4237 1216 4237 
L 4122 4237 
Q 4403 4237 4537 4144 
Q 4672 4051 4672 3936 
z
M 2995 474 
Q 2355 474 2022 323 
Q 1690 173 1690 -19 
Q 1690 -211 2022 -364 
Q 2355 -518 2995 -518 
Q 3635 -518 3968 -364 
Q 4301 -211 4301 -19 
Q 4301 173 3968 323 
Q 3635 474 2995 474 
z
M 3859 4595 
Q 3859 4557 3827 4525 
Q 3795 4493 3750 4493 
L 2112 4493 
Q 2086 4493 2051 4518 
Q 2016 4544 2016 4589 
L 2016 4941 
Q 2016 4986 2051 5011 
Q 2086 5037 2112 5037 
L 3750 5037 
Q 3789 5037 3824 5005 
Q 3859 4973 3859 4934 
L 3859 4595 
z
" transform="scale(0.015625)"/>
      <path id="NanumGothicBold-b3cc" d="M 5011 3219 
Q 5011 3162 4988 3139 
Q 4966 3117 4934 3117 
L 3366 3117 
L 3366 2547 
L 5779 2547 
Q 5811 2547 5843 2515 
Q 5875 2483 5875 2451 
L 5875 2042 
Q 5875 2010 5843 1978 
Q 5811 1946 5779 1946 
L 211 1946 
Q 173 1946 147 1974 
Q 122 2003 122 2042 
L 122 2451 
Q 122 2490 147 2518 
Q 173 2547 211 2547 
L 2630 2547 
L 2630 3117 
L 1510 3117 
Q 1254 3117 1152 3235 
Q 1050 3354 1050 3578 
L 1050 4602 
Q 1050 4845 1158 4931 
Q 1267 5018 1510 5018 
L 4877 5018 
Q 4966 5018 4966 4934 
L 4966 4512 
Q 4966 4422 4877 4422 
L 1914 4422 
Q 1792 4422 1792 4314 
L 1792 3821 
Q 1792 3770 1817 3741 
Q 1843 3712 1914 3712 
L 4909 3712 
Q 4960 3712 4985 3699 
Q 5011 3686 5011 3635 
L 5011 3219 
z
M 5114 -845 
Q 5114 -877 5085 -905 
Q 5056 -934 5030 -934 
L 1459 -934 
Q 1210 -934 1120 -844 
Q 1030 -755 1030 -550 
L 1030 198 
Q 1030 403 1116 496 
Q 1203 589 1453 589 
L 4166 589 
Q 4218 589 4230 598 
Q 4243 608 4243 666 
L 4243 858 
Q 4243 928 4230 944 
Q 4218 960 4160 960 
L 1107 960 
Q 1075 960 1046 982 
Q 1018 1005 1018 1037 
L 1018 1466 
Q 1018 1498 1046 1523 
Q 1075 1549 1107 1549 
L 4531 1549 
Q 4794 1549 4880 1469 
Q 4966 1389 4966 1171 
L 4966 422 
Q 4966 198 4880 121 
Q 4794 45 4531 45 
L 1830 45 
Q 1779 45 1766 29 
Q 1754 13 1754 -38 
L 1754 -262 
Q 1754 -320 1766 -329 
Q 1779 -339 1837 -339 
L 5024 -339 
Q 5056 -339 5085 -361 
Q 5114 -384 5114 -429 
L 5114 -845 
z
" transform="scale(0.015625)"/>
      <path id="NanumGothicBold-c810" d="M 5286 -467 
Q 5286 -710 5177 -812 
Q 5069 -915 4826 -915 
L 2029 -915 
Q 1734 -915 1603 -812 
Q 1472 -710 1472 -461 
L 1472 806 
Q 1472 1050 1577 1158 
Q 1683 1267 1926 1267 
L 4794 1267 
Q 5082 1267 5184 1161 
Q 5286 1056 5286 800 
L 5286 -467 
z
M 781 1600 
Q 742 1574 678 1577 
Q 614 1581 576 1651 
L 390 1965 
Q 358 2016 371 2073 
Q 384 2131 448 2157 
Q 806 2317 1126 2525 
Q 1446 2733 1705 2969 
Q 1965 3206 2157 3465 
Q 2349 3725 2451 3987 
Q 2477 4045 2473 4089 
Q 2470 4134 2368 4134 
L 781 4134 
Q 691 4134 691 4237 
L 691 4659 
Q 691 4698 720 4723 
Q 749 4749 787 4749 
L 2810 4749 
Q 3091 4749 3228 4646 
Q 3366 4544 3334 4333 
Q 3322 4262 3299 4185 
Q 3277 4109 3258 4051 
Q 3098 3597 2784 3162 
Q 2899 3046 3040 2928 
Q 3181 2810 3331 2707 
Q 3482 2605 3629 2515 
Q 3776 2426 3904 2368 
Q 4038 2304 3955 2176 
L 3757 1837 
Q 3725 1786 3680 1773 
Q 3635 1760 3565 1792 
Q 3450 1850 3296 1942 
Q 3142 2035 2979 2156 
Q 2816 2278 2656 2412 
Q 2496 2547 2362 2682 
Q 2035 2362 1638 2090 
Q 1242 1818 781 1600 
z
M 3450 3130 
L 3450 3578 
Q 3450 3610 3478 3632 
Q 3507 3654 3539 3654 
L 4544 3654 
L 4544 4979 
Q 4544 5062 4634 5062 
L 5197 5062 
Q 5229 5062 5257 5036 
Q 5286 5011 5286 4979 
L 5286 1670 
Q 5286 1638 5257 1609 
Q 5229 1581 5197 1581 
L 4634 1581 
Q 4595 1581 4569 1609 
Q 4544 1638 4544 1670 
L 4544 3053 
L 3539 3053 
Q 3507 3053 3478 3075 
Q 3450 3098 3450 3130 
z
M 4550 589 
Q 4550 646 4534 662 
Q 4518 678 4467 678 
L 2285 678 
Q 2234 678 2218 665 
Q 2202 653 2202 595 
L 2202 -243 
Q 2202 -301 2218 -313 
Q 2234 -326 2285 -326 
L 4467 -326 
Q 4518 -326 4534 -313 
Q 4550 -301 4550 -243 
L 4550 589 
z
" transform="scale(0.015625)"/>
      <path id="NanumGothicBold-acfc" d="M 5971 2048 
Q 5971 2016 5942 1990 
Q 5914 1965 5882 1965 
L 5043 1965 
L 5043 -928 
Q 5043 -1011 4960 -1011 
L 4390 -1011 
Q 4307 -1011 4307 -928 
L 4307 4979 
Q 4307 5062 4390 5062 
L 4960 5062 
Q 5043 5062 5043 4979 
L 5043 2579 
L 5882 2579 
Q 5914 2579 5942 2556 
Q 5971 2534 5971 2496 
L 5971 2048 
z
M 154 768 
Q 154 858 243 858 
Q 544 845 835 845 
Q 1126 845 1427 851 
L 1427 2547 
Q 1427 2637 1517 2637 
L 2061 2637 
Q 2150 2637 2150 2547 
L 2150 877 
Q 2598 902 3033 940 
Q 3469 979 3904 1050 
Q 3936 1056 3974 1046 
Q 4013 1037 4019 986 
L 4058 582 
Q 4064 525 4038 499 
Q 4013 474 3981 467 
Q 3085 320 2125 275 
Q 1165 230 243 250 
Q 205 250 179 278 
Q 154 307 154 346 
L 154 768 
z
M 3674 4077 
Q 3674 3552 3629 2995 
Q 3584 2438 3482 1875 
Q 3469 1824 3440 1776 
Q 3411 1728 3360 1734 
L 2848 1779 
Q 2765 1786 2784 1914 
Q 2854 2374 2902 2844 
Q 2950 3315 2950 3795 
Q 2950 3885 2905 3910 
Q 2861 3936 2771 3936 
L 653 3936 
Q 614 3936 582 3958 
Q 550 3981 550 4013 
L 550 4454 
Q 550 4499 582 4518 
Q 614 4538 653 4538 
L 3251 4538 
Q 3450 4538 3562 4426 
Q 3674 4314 3674 4077 
z
" transform="scale(0.015625)"/>
      <path id="NanumGothicBold-20" transform="scale(0.015625)"/>
      <path id="NanumGothicBold-c911" d="M 5018 83 
Q 5018 -442 4493 -730 
Q 3968 -1018 2995 -1018 
Q 2022 -1018 1497 -730 
Q 973 -442 973 83 
Q 973 550 1398 828 
Q 1824 1107 2618 1171 
L 2618 1773 
L 211 1773 
Q 173 1773 147 1805 
Q 122 1837 122 1875 
L 122 2278 
Q 122 2310 147 2342 
Q 173 2374 211 2374 
L 5779 2374 
Q 5811 2374 5843 2342 
Q 5875 2310 5875 2278 
L 5875 1875 
Q 5875 1843 5830 1808 
Q 5786 1773 5754 1773 
L 3354 1773 
L 3354 1171 
Q 4154 1114 4586 832 
Q 5018 550 5018 83 
z
M 4768 4640 
Q 4768 4448 4525 4186 
Q 4403 4058 4227 3933 
Q 4051 3808 3840 3680 
Q 4000 3635 4195 3587 
Q 4390 3539 4598 3491 
Q 4806 3443 5011 3401 
Q 5216 3360 5389 3334 
Q 5440 3328 5469 3296 
Q 5498 3264 5472 3206 
L 5325 2854 
Q 5312 2816 5273 2790 
Q 5235 2765 5184 2778 
Q 4954 2803 4685 2857 
Q 4416 2912 4131 2982 
Q 3846 3053 3568 3136 
Q 3290 3219 3053 3302 
Q 2547 3098 1974 2934 
Q 1402 2771 832 2675 
Q 781 2662 745 2688 
Q 710 2714 698 2746 
L 589 3130 
Q 576 3168 598 3203 
Q 621 3238 653 3245 
Q 1139 3347 1555 3456 
Q 1971 3565 2320 3686 
Q 2669 3808 2963 3942 
Q 3258 4077 3501 4224 
Q 3539 4250 3571 4269 
Q 3603 4288 3609 4301 
Q 3616 4314 3590 4323 
Q 3565 4333 3494 4333 
L 1158 4333 
Q 1075 4333 1075 4422 
L 1075 4851 
Q 1075 4928 1158 4928 
L 4250 4928 
Q 4755 4928 4768 4640 
z
M 4288 77 
Q 4288 307 3961 464 
Q 3635 621 2995 621 
Q 2355 621 2028 464 
Q 1702 307 1702 77 
Q 1702 -147 2028 -304 
Q 2355 -461 2995 -461 
Q 3635 -461 3961 -304 
Q 4288 -147 4288 77 
z
" transform="scale(0.015625)"/>
      <path id="NanumGothicBold-c2ec" d="M 5216 -467 
Q 5216 -710 5107 -812 
Q 4998 -915 4755 -915 
L 2035 -915 
Q 1747 -915 1612 -812 
Q 1478 -710 1478 -461 
L 1478 858 
Q 1478 1101 1587 1209 
Q 1696 1318 1939 1318 
L 4723 1318 
Q 5011 1318 5113 1212 
Q 5216 1107 5216 851 
L 5216 -467 
z
M 781 1619 
Q 704 1562 659 1574 
Q 614 1587 570 1638 
L 314 1939 
Q 243 2010 259 2054 
Q 275 2099 339 2138 
Q 698 2381 966 2640 
Q 1235 2899 1417 3212 
Q 1600 3526 1689 3916 
Q 1779 4307 1779 4819 
Q 1779 4870 1811 4902 
Q 1843 4934 1875 4934 
L 2438 4909 
Q 2522 4909 2522 4806 
Q 2522 4205 2406 3738 
Q 2515 3507 2675 3302 
Q 2835 3098 3017 2928 
Q 3200 2758 3389 2630 
Q 3578 2502 3744 2426 
Q 3853 2381 3782 2272 
L 3565 1920 
Q 3501 1818 3386 1862 
Q 3002 2035 2675 2320 
Q 2349 2605 2112 2970 
Q 1888 2566 1555 2246 
Q 1222 1926 781 1619 
z
M 5222 1722 
Q 5222 1638 5133 1638 
L 4570 1638 
Q 4538 1638 4509 1664 
Q 4480 1690 4480 1728 
L 4480 4979 
Q 4480 5011 4509 5036 
Q 4538 5062 4570 5062 
L 5133 5062 
Q 5222 5062 5222 4979 
L 5222 1722 
z
M 4480 646 
Q 4480 698 4464 714 
Q 4448 730 4397 730 
L 2298 730 
Q 2240 730 2224 717 
Q 2208 704 2208 653 
L 2208 -243 
Q 2208 -301 2224 -313 
Q 2240 -326 2298 -326 
L 4397 -326 
Q 4448 -326 4464 -313 
Q 4480 -301 4480 -243 
L 4480 646 
z
" transform="scale(0.015625)"/>
     </defs>
     <use xlink:href="#NanumGothicBold-cda9"/>
     <use xlink:href="#NanumGothicBold-b3cc" transform="translate(93.999985 0)"/>
     <use xlink:href="#NanumGothicBold-c810" transform="translate(187.999969 0)"/>
     <use xlink:href="#NanumGothicBold-acfc" transform="translate(281.999954 0)"/>
     <use xlink:href="#NanumGothicBold-20" transform="translate(375.999939 0)"/>
     <use xlink:href="#NanumGothicBold-c911" transform="translate(403.999924 0)"/>
     <use xlink:href="#NanumGothicBold-c2ec" transform="translate(497.999908 0)"/>
    </g>
   </g>
   <g id="text_2">
    <!-- 중심 -->
    <g style="fill: #2563eb" transform="translate(123.762 173.172023) scale(0.105 -0.105)">
     <defs>
      <path id="NanumGothic-c911" d="M 5728 2310 
Q 5760 2310 5792 2288 
Q 5824 2266 5824 2227 
L 5824 2010 
Q 5824 1978 5792 1952 
Q 5760 1926 5728 1926 
L 3219 1926 
L 3219 1146 
Q 3507 1133 3817 1078 
Q 4128 1024 4390 905 
Q 4653 787 4822 595 
Q 4992 403 4992 109 
Q 4992 -218 4787 -422 
Q 4582 -627 4281 -742 
Q 3981 -858 3632 -899 
Q 3283 -941 2995 -941 
Q 2803 -941 2582 -921 
Q 2362 -902 2141 -860 
Q 1920 -819 1715 -742 
Q 1510 -666 1353 -547 
Q 1197 -429 1101 -269 
Q 1005 -109 1005 109 
Q 1005 397 1174 592 
Q 1344 787 1606 905 
Q 1869 1024 2182 1078 
Q 2496 1133 2778 1146 
L 2778 1926 
L 288 1926 
Q 250 1926 221 1952 
Q 192 1978 192 2010 
L 192 2227 
Q 192 2266 221 2288 
Q 250 2310 288 2310 
L 5728 2310 
z
M 4493 4218 
Q 4160 3904 3590 3610 
Q 3770 3558 3990 3500 
Q 4211 3443 4441 3385 
Q 4672 3328 4902 3277 
Q 5133 3226 5331 3187 
Q 5414 3168 5389 3098 
L 5299 2886 
Q 5267 2816 5184 2835 
Q 4966 2874 4697 2938 
Q 4429 3002 4150 3075 
Q 3872 3149 3600 3225 
Q 3328 3302 3098 3379 
Q 2592 3168 2013 3005 
Q 1434 2842 832 2739 
Q 774 2726 752 2748 
Q 730 2771 717 2810 
L 659 3002 
Q 634 3098 710 3104 
Q 1152 3174 1638 3308 
Q 2125 3443 2576 3609 
Q 3027 3776 3404 3958 
Q 3782 4141 4006 4307 
Q 4109 4384 4086 4429 
Q 4064 4474 3974 4474 
L 1210 4474 
Q 1126 4474 1126 4557 
L 1126 4781 
Q 1126 4858 1210 4858 
L 4134 4858 
Q 4627 4858 4716 4688 
Q 4806 4518 4493 4218 
z
M 4525 102 
Q 4525 314 4352 438 
Q 4179 563 3936 633 
Q 3693 704 3433 726 
Q 3174 749 2995 749 
Q 2810 749 2550 726 
Q 2291 704 2051 633 
Q 1811 563 1641 438 
Q 1472 314 1472 102 
Q 1472 -102 1641 -230 
Q 1811 -358 2051 -425 
Q 2291 -493 2550 -515 
Q 2810 -538 2995 -538 
Q 3174 -538 3436 -515 
Q 3699 -493 3939 -425 
Q 4179 -358 4352 -230 
Q 4525 -102 4525 102 
z
" transform="scale(0.015625)"/>
      <path id="NanumGothic-c2ec" d="M 1498 819 
Q 1498 1088 1600 1181 
Q 1702 1274 1984 1274 
L 4666 1274 
Q 4819 1274 4912 1254 
Q 5005 1235 5059 1184 
Q 5114 1133 5133 1043 
Q 5152 954 5152 819 
L 5152 -390 
Q 5152 -659 5049 -752 
Q 4947 -845 4666 -845 
L 1984 -845 
Q 1830 -845 1737 -825 
Q 1645 -806 1590 -752 
Q 1536 -698 1517 -611 
Q 1498 -525 1498 -390 
L 1498 819 
z
M 2093 890 
Q 2003 890 1971 854 
Q 1939 819 1939 723 
L 1939 -294 
Q 1939 -390 1971 -425 
Q 2003 -461 2093 -461 
L 4557 -461 
Q 4646 -461 4678 -425 
Q 4710 -390 4710 -294 
L 4710 723 
Q 4710 819 4678 854 
Q 4646 890 4557 890 
L 2093 890 
z
M 2342 4774 
Q 2342 4307 2246 3904 
Q 2323 3635 2460 3392 
Q 2598 3149 2784 2937 
Q 2970 2726 3190 2556 
Q 3411 2387 3654 2272 
Q 3693 2253 3689 2217 
Q 3686 2182 3674 2157 
L 3539 1946 
Q 3520 1914 3494 1901 
Q 3469 1888 3411 1920 
Q 3264 1997 3075 2128 
Q 2886 2259 2694 2438 
Q 2502 2618 2329 2832 
Q 2157 3046 2042 3277 
Q 1830 2790 1472 2393 
Q 1114 1997 634 1683 
Q 602 1664 563 1657 
Q 525 1651 499 1683 
L 339 1894 
Q 326 1920 336 1958 
Q 346 1997 378 2016 
Q 1139 2483 1523 3193 
Q 1907 3904 1894 4781 
Q 1894 4883 1971 4883 
L 2272 4864 
Q 2342 4864 2342 4774 
z
M 5152 1728 
Q 5152 1638 5062 1638 
L 4800 1638 
Q 4710 1638 4710 1728 
L 4710 4915 
Q 4710 5005 4800 5005 
L 5062 5005 
Q 5152 5005 5152 4915 
L 5152 1728 
z
" transform="scale(0.015625)"/>
     </defs>
     <use xlink:href="#NanumGothic-c911"/>
     <use xlink:href="#NanumGothic-c2ec" transform="translate(93.999985 0)"/>
    </g>
   </g>
   <g id="text_3">
    <!-- 충돌점 -->
    <g style="fill: #ef4444" transform="translate(206.208 110.676023) scale(0.105 -0.105)">
     <defs>
      <path id="NanumGothic-cda9" d="M 5728 1997 
Q 5760 1997 5792 1974 
Q 5824 1952 5824 1914 
L 5824 1696 
Q 5824 1664 5792 1638 
Q 5760 1613 5728 1613 
L 3219 1613 
L 3219 1037 
Q 3501 1024 3814 969 
Q 4128 915 4390 803 
Q 4653 691 4822 508 
Q 4992 326 4992 51 
Q 4992 -256 4787 -448 
Q 4582 -640 4278 -752 
Q 3974 -864 3625 -905 
Q 3277 -947 2995 -947 
Q 2810 -947 2589 -931 
Q 2368 -915 2147 -870 
Q 1926 -826 1721 -752 
Q 1517 -678 1357 -569 
Q 1197 -461 1101 -307 
Q 1005 -154 1005 51 
Q 1005 320 1177 502 
Q 1350 685 1612 800 
Q 1875 915 2185 969 
Q 2496 1024 2778 1037 
L 2778 1613 
L 288 1613 
Q 250 1613 221 1638 
Q 192 1664 192 1696 
L 192 1914 
Q 192 1952 221 1974 
Q 250 1997 288 1997 
L 5728 1997 
z
M 4403 3610 
Q 4058 3366 3578 3142 
Q 3930 3040 4346 2953 
Q 4762 2867 5146 2816 
Q 5197 2810 5206 2787 
Q 5216 2765 5203 2720 
L 5146 2502 
Q 5133 2432 5043 2451 
Q 4838 2483 4585 2531 
Q 4333 2579 4064 2640 
Q 3795 2701 3526 2768 
Q 3258 2835 3008 2906 
Q 2573 2746 2070 2614 
Q 1568 2483 998 2387 
Q 902 2368 877 2432 
L 800 2650 
Q 787 2682 806 2714 
Q 826 2746 864 2752 
Q 1318 2835 1715 2934 
Q 2112 3034 2470 3149 
Q 2829 3264 3165 3398 
Q 3501 3533 3834 3693 
Q 3942 3744 3932 3789 
Q 3923 3834 3821 3834 
L 1274 3834 
Q 1190 3834 1190 3917 
L 1190 4141 
Q 1190 4218 1274 4218 
L 4038 4218 
Q 4538 4218 4646 4042 
Q 4755 3866 4403 3610 
z
M 4525 45 
Q 4525 237 4352 355 
Q 4179 474 3932 538 
Q 3686 602 3427 621 
Q 3168 640 2995 640 
Q 2816 640 2557 621 
Q 2298 602 2058 538 
Q 1818 474 1645 355 
Q 1472 237 1472 45 
Q 1472 -147 1645 -262 
Q 1818 -378 2058 -442 
Q 2298 -506 2557 -525 
Q 2816 -544 2995 -544 
Q 3168 -544 3427 -525 
Q 3686 -506 3932 -442 
Q 4179 -378 4352 -262 
Q 4525 -147 4525 45 
z
M 3814 5005 
Q 3910 5005 3910 4915 
L 3910 4710 
Q 3910 4614 3814 4614 
L 2131 4614 
Q 2035 4614 2035 4710 
L 2035 4915 
Q 2035 5005 2131 5005 
L 3814 5005 
z
" transform="scale(0.015625)"/>
      <path id="NanumGothic-b3cc" d="M 4986 3219 
Q 4986 3130 4902 3130 
L 3226 3130 
L 3226 2528 
L 5728 2528 
Q 5760 2528 5792 2505 
Q 5824 2483 5824 2445 
L 5824 2227 
Q 5824 2195 5792 2169 
Q 5760 2144 5728 2144 
L 288 2144 
Q 250 2144 221 2169 
Q 192 2195 192 2227 
L 192 2445 
Q 192 2483 221 2505 
Q 250 2528 288 2528 
L 2784 2528 
L 2784 3130 
L 1587 3130 
Q 1306 3130 1203 3222 
Q 1101 3315 1101 3584 
L 1101 4544 
Q 1101 4813 1203 4905 
Q 1306 4998 1587 4998 
L 4858 4998 
Q 4941 4998 4941 4915 
L 4941 4704 
Q 4941 4614 4858 4614 
L 1696 4614 
Q 1606 4614 1574 4579 
Q 1542 4544 1542 4448 
L 1542 3680 
Q 1542 3590 1574 3552 
Q 1606 3514 1696 3514 
L 4902 3514 
Q 4986 3514 4986 3430 
L 4986 3219 
z
M 5056 -781 
Q 5056 -813 5027 -835 
Q 4998 -858 4973 -858 
L 1568 -858 
Q 1267 -858 1174 -746 
Q 1082 -634 1082 -365 
L 1082 141 
Q 1082 410 1194 502 
Q 1306 595 1594 595 
L 4346 595 
Q 4435 595 4460 620 
Q 4486 646 4486 742 
L 4486 1082 
Q 4486 1178 4464 1203 
Q 4442 1229 4352 1229 
L 1158 1229 
Q 1126 1229 1097 1248 
Q 1069 1267 1069 1299 
L 1069 1523 
Q 1069 1555 1097 1574 
Q 1126 1594 1158 1594 
L 4416 1594 
Q 4570 1594 4666 1571 
Q 4762 1549 4819 1497 
Q 4877 1446 4899 1353 
Q 4922 1261 4922 1126 
L 4922 685 
Q 4922 416 4810 323 
Q 4698 230 4410 230 
L 1651 230 
Q 1562 230 1539 204 
Q 1517 179 1517 83 
L 1517 -339 
Q 1517 -429 1542 -457 
Q 1568 -486 1658 -486 
L 4966 -486 
Q 4998 -486 5027 -505 
Q 5056 -525 5056 -557 
L 5056 -781 
z
" transform="scale(0.015625)"/>
      <path id="NanumGothic-c810" d="M 1498 819 
Q 1498 1088 1600 1181 
Q 1702 1274 1984 1274 
L 4666 1274 
Q 4819 1274 4912 1254 
Q 5005 1235 5059 1184 
Q 5114 1133 5133 1043 
Q 5152 954 5152 819 
L 5152 -390 
Q 5152 -659 5049 -752 
Q 4947 -845 4666 -845 
L 1984 -845 
Q 1830 -845 1737 -825 
Q 1645 -806 1590 -752 
Q 1536 -698 1517 -611 
Q 1498 -525 1498 -390 
L 1498 819 
z
M 2093 890 
Q 2003 890 1971 854 
Q 1939 819 1939 723 
L 1939 -294 
Q 1939 -390 1971 -425 
Q 2003 -461 2093 -461 
L 4557 -461 
Q 4646 -461 4678 -425 
Q 4710 -390 4710 -294 
L 4710 723 
Q 4710 819 4678 854 
Q 4646 890 4557 890 
L 2093 890 
z
M 3309 4205 
Q 3219 3942 3056 3686 
Q 2893 3430 2669 3181 
Q 2886 2950 3206 2742 
Q 3526 2534 3904 2374 
Q 3955 2355 3961 2320 
Q 3968 2285 3949 2253 
L 3821 2022 
Q 3802 1990 3763 1987 
Q 3725 1984 3693 1997 
Q 3552 2061 3389 2150 
Q 3226 2240 3053 2355 
Q 2880 2470 2710 2604 
Q 2541 2739 2394 2886 
Q 2029 2528 1590 2233 
Q 1152 1939 704 1741 
Q 672 1728 640 1721 
Q 608 1715 589 1747 
L 461 1971 
Q 442 2003 458 2038 
Q 474 2074 506 2086 
Q 1331 2483 1913 2995 
Q 2496 3507 2822 4179 
Q 2867 4269 2835 4307 
Q 2803 4346 2714 4346 
L 838 4346 
Q 762 4346 762 4429 
L 762 4653 
Q 762 4730 838 4730 
L 2886 4730 
Q 3219 4730 3315 4611 
Q 3411 4493 3309 4205 
z
M 4710 3520 
L 4710 4915 
Q 4710 5005 4800 5005 
L 5062 5005 
Q 5152 5005 5152 4915 
L 5152 1728 
Q 5152 1638 5062 1638 
L 4800 1638 
Q 4710 1638 4710 1728 
L 4710 3136 
L 3526 3136 
Q 3443 3136 3443 3213 
L 3443 3443 
Q 3443 3520 3526 3520 
L 4710 3520 
z
" transform="scale(0.015625)"/>
     </defs>
     <use xlink:href="#NanumGothic-cda9"/>
     <use xlink:href="#NanumGothic-b3cc" transform="translate(93.999985 0)"/>
     <use xlink:href="#NanumGothic-c810" transform="translate(187.999969 0)"/>
    </g>
   </g>
   <g id="patch_3">
    <path d="M 135.296824 153.014648 
Q 163.873375 133.963615 190.496379 116.214946 
" clip-path="url(#p80c42a9d62)" style="fill: none; stroke: #ef4444; stroke-width: 2.1; stroke-linecap: round"/>
    <path d="M 184.283736 116.991526 
L 190.496379 116.214946 
L 187.390057 121.651007 
z
" clip-path="url(#p80c42a9d62)" style="fill: #ef4444; stroke: #ef4444; stroke-width: 2.1; stroke-linecap: round"/>
   </g>
  </g>
 </g>
 <defs>
  <clipPath id="p80c42a9d62">
   <rect x="8.64" y="29.132531" width="282.24" height="221.76"/>
  </clipPath>
 </defs>
</svg>
