<svg xmlns="http://www.w3.org/2000/svg" viewBox="0 0 760 260"><rect width="760" height="260" rx="16" fill="#f8fafc"/><text x="380" y="28" text-anchor="middle" font-family="sans-serif" font-size="18" font-weight="700">Capsule = 선분 + 반지름</text><path d="M190 190A55 55 0 0 1 135 135V95A55 55 0 0 1 245 95V135A55 55 0 0 1 190 190Z" fill="#dbeafe" stroke="#2563eb" stroke-width="3"/><path d="M190 80V170" stroke="#334155" stroke-width="4"/><circle cx="190" cy="120" r="6" fill="#ef4444"/><circle cx="350" cy="120" r="35" fill="#ffedd5" stroke="#ea580c" stroke-width="3"/><path d="M350 120H190" stroke="#ef4444" stroke-dasharray="6 4" stroke-width="3"/><text x="270" y="108" text-anchor="middle" font-family="sans-serif" font-size="12">closest point</text><g transform="translate(490 55)"><path d="M70 0V140" stroke="#94a3b8" stroke-width="5"/><path d="M70 45Q25 50 25 95Q25 140 70 140" fill="#dcfce7" stroke="#16a34a" stroke-width="3"/><text x="75" y="175" text-anchor="middle" font-family="sans-serif" font-size="12">둥근 끝이 모서리를 넘기 쉬움</text></g></svg>
