<?xml version="1.0" encoding="utf-8" standalone="no"?>
<!DOCTYPE svg PUBLIC "-//W3C//DTD SVG 1.1//EN"
  "http://www.w3.org/Graphics/SVG/1.1/DTD/svg11.dtd">
<svg xmlns:xlink="http://www.w3.org/1999/xlink" width="352.08pt" height="183.028377pt" viewBox="0 0 352.08 183.028377" xmlns="http://www.w3.org/2000/svg" version="1.1">
 <metadata>
  <rdf:RDF xmlns:dc="http://purl.org/dc/elements/1.1/" xmlns:cc="http://creativecommons.org/ns#" xmlns:rdf="http://www.w3.org/1999/02/22-rdf-syntax-ns#">
   <cc:Work>
    <dc:type rdf:resource="http://purl.org/dc/dcmitype/StillImage"/>
    <dc:date>2026-07-08T05:12:55.525434</dc:date>
    <dc:format>image/svg+xml</dc:format>
    <dc:creator>
     <cc:Agent>
      <dc:title>Matplotlib v3.10.8, https://matplotlib.org/</dc:title>
     </cc:Agent>
    </dc:creator>
   </cc:Work>
  </rdf:RDF>
 </metadata>
 <defs>
  <style type="text/css">*{stroke-linejoin: round; stroke-linecap: butt}</style>
 </defs>
 <g id="figure_1">
  <g id="patch_1">
   <path d="M 0 183.028377 
L 352.08 183.028377 
L 352.08 0 
L 0 0 
z
" style="fill: #ffffff"/>
  </g>
  <g id="axes_1">
   <g id="text_1">
    <!-- 운동 관계 -->
    <g style="fill: #111827" transform="translate(8.64 20.054063) scale(0.15 -0.15)">
     <defs>
      <path id="NanumGothicBold-c6b4" d="M 3014 2624 
Q 2566 2624 2192 2704 
Q 1818 2784 1549 2934 
Q 1280 3085 1129 3302 
Q 979 3520 979 3795 
Q 979 4070 1129 4291 
Q 1280 4512 1549 4662 
Q 1818 4813 2192 4893 
Q 2566 4973 3014 4973 
Q 3462 4973 3833 4893 
Q 4205 4813 4473 4662 
Q 4742 4512 4892 4291 
Q 5043 4070 5043 3795 
Q 5043 3520 4892 3302 
Q 4742 3085 4473 2934 
Q 4205 2784 3833 2704 
Q 3462 2624 3014 2624 
z
M 3014 4384 
Q 2733 4384 2502 4339 
Q 2272 4294 2102 4217 
Q 1933 4141 1840 4032 
Q 1747 3923 1747 3795 
Q 1747 3667 1840 3558 
Q 1933 3450 2102 3373 
Q 2272 3296 2502 3254 
Q 2733 3213 3014 3213 
Q 3290 3213 3520 3254 
Q 3750 3296 3920 3373 
Q 4090 3450 4182 3558 
Q 4275 3667 4275 3795 
Q 4275 3923 4182 4032 
Q 4090 4141 3920 4217 
Q 3750 4294 3520 4339 
Q 3290 4384 3014 4384 
z
M 5882 1645 
Q 5882 1613 5850 1577 
Q 5818 1542 5786 1542 
L 3418 1542 
L 3418 371 
Q 3418 282 3328 282 
L 2771 282 
Q 2682 282 2682 371 
L 2682 1542 
L 211 1542 
Q 173 1542 147 1577 
Q 122 1613 122 1645 
L 122 2061 
Q 122 2099 147 2128 
Q 173 2157 211 2157 
L 5786 2157 
Q 5818 2157 5850 2125 
Q 5882 2093 5882 2061 
L 5882 1645 
z
M 5184 -781 
Q 5184 -819 5155 -838 
Q 5126 -858 5088 -858 
L 1466 -858 
Q 1178 -858 1078 -755 
Q 979 -653 979 -403 
L 979 954 
Q 979 986 1008 1014 
Q 1037 1043 1069 1043 
L 1619 1043 
Q 1658 1043 1686 1014 
Q 1715 986 1715 954 
L 1715 -141 
Q 1715 -205 1740 -224 
Q 1766 -243 1830 -243 
L 5088 -243 
Q 5120 -243 5152 -265 
Q 5184 -288 5184 -320 
L 5184 -781 
z
" transform="scale(0.015625)"/>
      <path id="NanumGothicBold-b3d9" d="M 5011 2925 
Q 5011 2874 4988 2851 
Q 4966 2829 4934 2829 
L 3366 2829 
L 3366 2170 
L 5779 2170 
Q 5811 2170 5843 2138 
Q 5875 2106 5875 2074 
L 5875 1651 
Q 5875 1619 5843 1587 
Q 5811 1555 5779 1555 
L 211 1555 
Q 173 1555 147 1584 
Q 122 1613 122 1651 
L 122 2074 
Q 122 2112 147 2141 
Q 173 2170 211 2170 
L 2630 2170 
L 2630 2829 
L 1510 2829 
Q 1254 2829 1152 2944 
Q 1050 3059 1050 3283 
L 1050 4538 
Q 1050 4781 1158 4867 
Q 1267 4954 1510 4954 
L 4877 4954 
Q 4966 4954 4966 4870 
L 4966 4435 
Q 4966 4346 4877 4346 
L 1914 4346 
Q 1792 4346 1792 4237 
L 1792 3546 
Q 1792 3494 1817 3462 
Q 1843 3430 1914 3430 
L 4909 3430 
Q 4960 3430 4985 3417 
Q 5011 3405 5011 3354 
L 5011 2925 
z
M 5011 83 
Q 5011 -442 4489 -730 
Q 3968 -1018 2995 -1018 
Q 2022 -1018 1500 -730 
Q 979 -442 979 83 
Q 979 602 1500 893 
Q 2022 1184 2995 1184 
Q 3968 1184 4489 893 
Q 5011 602 5011 83 
z
M 2995 621 
Q 2355 621 2032 464 
Q 1709 307 1709 77 
Q 1709 -147 2032 -304 
Q 2355 -461 2995 -461 
Q 3635 -461 3958 -304 
Q 4282 -147 4282 77 
Q 4282 307 3958 464 
Q 3635 621 2995 621 
z
" transform="scale(0.015625)"/>
      <path id="NanumGothicBold-20" transform="scale(0.015625)"/>
      <path id="NanumGothicBold-ad00" d="M 5971 2387 
Q 5971 2355 5942 2329 
Q 5914 2304 5882 2304 
L 5043 2304 
L 5043 717 
Q 5043 634 4960 634 
L 4390 634 
Q 4307 634 4307 717 
L 4307 4979 
Q 4307 5062 4390 5062 
L 4960 5062 
Q 5043 5062 5043 4979 
L 5043 2918 
L 5882 2918 
Q 5914 2918 5942 2892 
Q 5971 2867 5971 2835 
L 5971 2387 
z
M 5274 -800 
Q 5274 -838 5245 -857 
Q 5216 -877 5178 -877 
L 1715 -877 
Q 1427 -877 1324 -774 
Q 1222 -672 1222 -422 
L 1222 800 
Q 1222 832 1251 861 
Q 1280 890 1318 890 
L 1869 890 
Q 1907 890 1939 861 
Q 1971 832 1971 800 
L 1971 -160 
Q 1971 -224 1996 -243 
Q 2022 -262 2086 -262 
L 5178 -262 
Q 5210 -262 5242 -284 
Q 5274 -307 5274 -339 
L 5274 -800 
z
M 205 1920 
Q 205 2016 294 2016 
Q 582 2003 876 2003 
Q 1171 2003 1478 2003 
L 1478 3219 
Q 1478 3315 1568 3315 
L 2112 3315 
Q 2202 3315 2202 3219 
L 2202 2022 
Q 2656 2035 3091 2064 
Q 3526 2093 3917 2138 
Q 3949 2144 3984 2131 
Q 4019 2118 4026 2074 
L 4058 1683 
Q 4064 1638 4038 1606 
Q 4013 1574 3981 1568 
Q 3539 1517 3052 1485 
Q 2566 1453 2083 1433 
Q 1600 1414 1142 1408 
Q 685 1402 294 1414 
Q 256 1414 230 1443 
Q 205 1472 205 1510 
L 205 1920 
z
M 3674 4250 
Q 3674 4064 3661 3862 
Q 3648 3661 3629 3456 
Q 3610 3251 3581 3062 
Q 3552 2874 3514 2720 
Q 3501 2669 3465 2630 
Q 3430 2592 3386 2598 
L 2886 2643 
Q 2803 2650 2822 2765 
Q 2848 2886 2873 3056 
Q 2899 3226 2918 3398 
Q 2938 3571 2947 3724 
Q 2957 3878 2957 3968 
Q 2957 4058 2912 4080 
Q 2867 4102 2778 4102 
L 762 4102 
Q 730 4102 698 4124 
Q 666 4147 666 4179 
L 666 4627 
Q 666 4666 698 4685 
Q 730 4704 762 4704 
L 3245 4704 
Q 3450 4704 3562 4595 
Q 3674 4486 3674 4250 
z
" transform="scale(0.015625)"/>
      <path id="NanumGothicBold-acc4" d="M 755 461 
Q 704 429 653 422 
Q 602 416 570 461 
L 314 813 
Q 275 870 297 918 
Q 320 966 352 992 
Q 787 1261 1136 1603 
Q 1485 1946 1731 2314 
Q 1978 2682 2112 3053 
Q 2246 3424 2259 3744 
Q 2266 3878 2234 3926 
Q 2202 3974 2067 3974 
L 653 3974 
Q 563 3974 563 4058 
L 563 4493 
Q 563 4525 592 4550 
Q 621 4576 653 4576 
L 2515 4576 
Q 2790 4576 2892 4470 
Q 2995 4365 2989 4115 
Q 2982 3987 2972 3859 
Q 2963 3731 2944 3610 
L 3629 3610 
L 3629 4870 
Q 3629 4954 3718 4954 
L 4243 4954 
Q 4326 4954 4326 4870 
L 4326 -717 
Q 4326 -806 4243 -806 
L 3718 -806 
Q 3629 -806 3629 -717 
L 3629 1594 
L 2714 1594 
Q 2682 1594 2653 1619 
Q 2624 1645 2624 1677 
L 2624 2099 
Q 2624 2131 2653 2153 
Q 2682 2176 2714 2176 
L 3629 2176 
L 3629 3021 
L 2816 3021 
Q 2573 2246 2041 1593 
Q 1510 941 755 461 
z
M 5549 -941 
Q 5549 -1024 5466 -1024 
L 4909 -1024 
Q 4826 -1024 4826 -941 
L 4826 4979 
Q 4826 5062 4915 5062 
L 5466 5062 
Q 5549 5062 5549 4979 
L 5549 -941 
z
" transform="scale(0.015625)"/>
     </defs>
     <use xlink:href="#NanumGothicBold-c6b4"/>
     <use xlink:href="#NanumGothicBold-b3d9" transform="translate(93.999985 0)"/>
     <use xlink:href="#NanumGothicBold-20" transform="translate(187.999969 0)"/>
     <use xlink:href="#NanumGothicBold-ad00" transform="translate(215.999954 0)"/>
     <use xlink:href="#NanumGothicBold-acc4" transform="translate(309.999939 0)"/>
    </g>
   </g>
   <g id="text_2">
    <!-- 가속도 -->
    <g style="fill: #111827" transform="translate(57.514615 106.639285) scale(0.11 -0.11)">
     <defs>
      <path id="NanumGothicBold-ac00" d="M 3379 4102 
Q 3334 3520 3142 2979 
Q 2950 2438 2614 1958 
Q 2278 1478 1804 1062 
Q 1331 646 736 320 
Q 685 294 630 297 
Q 576 301 544 352 
L 288 710 
Q 256 762 269 813 
Q 282 864 326 896 
Q 1280 1402 1869 2144 
Q 2458 2886 2586 3757 
Q 2605 3885 2569 3926 
Q 2534 3968 2419 3968 
L 614 3968 
Q 531 3968 531 4058 
L 531 4506 
Q 531 4582 614 4582 
L 2925 4582 
Q 3213 4582 3305 4464 
Q 3398 4346 3379 4102 
z
M 5971 2202 
Q 5971 2163 5942 2137 
Q 5914 2112 5875 2112 
L 5011 2112 
L 5011 -928 
Q 5011 -1011 4928 -1011 
L 4358 -1011 
Q 4275 -1011 4275 -928 
L 4275 4979 
Q 4275 5062 4358 5062 
L 4928 5062 
Q 5011 5062 5011 4979 
L 5011 2726 
L 5875 2726 
Q 5914 2726 5942 2704 
Q 5971 2682 5971 2650 
L 5971 2202 
z
" transform="scale(0.015625)"/>
      <path id="NanumGothicBold-c18d" d="M 5875 1677 
Q 5875 1645 5843 1613 
Q 5811 1581 5779 1581 
L 211 1581 
Q 173 1581 147 1609 
Q 122 1638 122 1677 
L 122 2099 
Q 122 2138 147 2166 
Q 173 2195 211 2195 
L 2630 2195 
L 2630 2976 
Q 2630 3066 2720 3066 
L 3245 3066 
Q 3283 3066 3312 3040 
Q 3341 3014 3341 2976 
L 3341 2195 
L 5779 2195 
Q 5811 2195 5843 2163 
Q 5875 2131 5875 2099 
L 5875 1677 
z
M 986 2726 
Q 845 2694 813 2765 
L 640 3174 
Q 627 3206 640 3244 
Q 653 3283 698 3296 
Q 1152 3418 1497 3571 
Q 1843 3725 2083 3923 
Q 2323 4122 2457 4378 
Q 2592 4634 2624 4960 
Q 2637 5062 2746 5062 
L 3251 5043 
Q 3341 5043 3341 4954 
Q 3334 4890 3331 4832 
Q 3328 4774 3315 4710 
Q 3418 4467 3626 4249 
Q 3834 4032 4102 3856 
Q 4371 3680 4684 3549 
Q 4998 3418 5312 3341 
Q 5350 3328 5366 3293 
Q 5382 3258 5370 3226 
L 5178 2835 
Q 5146 2746 5030 2765 
Q 4768 2810 4480 2922 
Q 4192 3034 3920 3194 
Q 3648 3354 3414 3552 
Q 3181 3750 3027 3974 
Q 2726 3526 2198 3209 
Q 1670 2893 986 2726 
z
M 5018 -954 
Q 5018 -986 4989 -1014 
Q 4960 -1043 4928 -1043 
L 4371 -1043 
Q 4333 -1043 4304 -1014 
Q 4275 -986 4275 -954 
L 4275 333 
Q 4275 397 4249 416 
Q 4224 435 4160 435 
L 986 435 
Q 954 435 925 457 
Q 896 480 896 512 
L 896 966 
Q 896 1005 925 1024 
Q 954 1043 986 1043 
L 4595 1043 
Q 4858 1043 4938 953 
Q 5018 864 5018 589 
L 5018 -954 
z
" transform="scale(0.015625)"/>
      <path id="NanumGothicBold-b3c4" d="M 5069 1971 
Q 5069 1920 5046 1897 
Q 5024 1875 4992 1875 
L 3373 1875 
L 3373 640 
L 5786 640 
Q 5818 640 5850 608 
Q 5882 576 5882 544 
L 5882 122 
Q 5882 90 5850 58 
Q 5818 26 5786 26 
L 211 26 
Q 173 26 147 58 
Q 122 90 122 122 
L 122 544 
Q 122 582 147 611 
Q 173 640 211 640 
L 2637 640 
L 2637 1875 
L 1446 1875 
Q 1190 1875 1075 2003 
Q 960 2131 960 2355 
L 960 4224 
Q 960 4467 1069 4553 
Q 1178 4640 1421 4640 
L 4934 4640 
Q 5024 4640 5024 4557 
L 5024 4109 
Q 5024 4026 4934 4026 
L 1811 4026 
Q 1696 4026 1696 3917 
L 1696 2598 
Q 1696 2541 1718 2512 
Q 1741 2483 1811 2483 
L 4966 2483 
Q 5018 2483 5043 2470 
Q 5069 2458 5069 2406 
L 5069 1971 
z
" transform="scale(0.015625)"/>
     </defs>
     <use xlink:href="#NanumGothicBold-ac00"/>
     <use xlink:href="#NanumGothicBold-c18d" transform="translate(93.999985 0)"/>
     <use xlink:href="#NanumGothicBold-b3c4" transform="translate(187.999969 0)"/>
    </g>
   </g>
   <g id="patch_2">
    <path d="M 113.65365 103.5653 
Q 140.628769 103.5653 165.591426 103.5653 
" clip-path="url(#p64ae4bd4df)" style="fill: none; stroke: #6b7280; stroke-width: 1.8; stroke-linecap: round"/>
    <path d="M 159.991426 100.7653 
L 165.591426 103.5653 
L 159.991426 106.3653 
z
" clip-path="url(#p64ae4bd4df)" style="fill: #6b7280; stroke: #6b7280; stroke-width: 1.8; stroke-linecap: round"/>
   </g>
   <g id="text_3">
    <!-- 속도를 바꿈 -->
    <g style="fill: #111827" transform="translate(193.719231 106.639285) scale(0.11 -0.11)">
     <defs>
      <path id="NanumGothicBold-b97c" d="M 5088 -870 
Q 5088 -902 5059 -931 
Q 5030 -960 5005 -960 
L 1478 -960 
Q 1229 -960 1139 -870 
Q 1050 -781 1050 -576 
L 1050 109 
Q 1050 314 1136 403 
Q 1222 493 1472 493 
L 4160 493 
Q 4211 493 4224 502 
Q 4237 512 4237 570 
L 4237 749 
Q 4237 819 4224 832 
Q 4211 845 4154 845 
L 1126 845 
Q 1094 845 1065 867 
Q 1037 890 1037 922 
L 1037 1331 
Q 1037 1363 1065 1388 
Q 1094 1414 1126 1414 
L 4518 1414 
Q 4781 1414 4867 1334 
Q 4954 1254 4954 1037 
L 4954 346 
Q 4954 122 4867 45 
Q 4781 -32 4518 -32 
L 1850 -32 
Q 1798 -32 1785 -48 
Q 1773 -64 1773 -122 
L 1773 -314 
Q 1773 -378 1785 -387 
Q 1798 -397 1862 -397 
L 4998 -397 
Q 5030 -397 5059 -419 
Q 5088 -442 5088 -480 
L 5088 -870 
z
M 5050 2829 
Q 5050 2797 5021 2768 
Q 4992 2739 4966 2739 
L 1498 2739 
Q 1248 2739 1158 2828 
Q 1069 2918 1069 3123 
L 1069 3782 
Q 1069 3987 1155 4076 
Q 1242 4166 1491 4166 
L 4154 4166 
Q 4205 4166 4217 4182 
Q 4230 4198 4230 4262 
L 4230 4454 
Q 4230 4512 4217 4521 
Q 4205 4531 4147 4531 
L 1184 4531 
Q 1152 4531 1123 4553 
Q 1094 4576 1094 4608 
L 1094 5011 
Q 1094 5043 1123 5068 
Q 1152 5094 1184 5094 
L 4512 5094 
Q 4774 5094 4860 5014 
Q 4947 4934 4947 4717 
L 4947 4019 
Q 4947 3795 4860 3718 
Q 4774 3642 4512 3642 
L 1875 3642 
Q 1818 3642 1805 3626 
Q 1792 3610 1792 3558 
L 1792 3386 
Q 1792 3328 1805 3318 
Q 1818 3309 1882 3309 
L 4960 3309 
Q 4992 3309 5021 3286 
Q 5050 3264 5050 3226 
L 5050 2829 
z
M 5875 1882 
Q 5875 1850 5843 1818 
Q 5811 1786 5779 1786 
L 211 1786 
Q 173 1786 147 1814 
Q 122 1843 122 1882 
L 122 2272 
Q 122 2362 211 2362 
L 5779 2362 
Q 5811 2362 5843 2333 
Q 5875 2304 5875 2272 
L 5875 1882 
z
" transform="scale(0.015625)"/>
      <path id="NanumGothicBold-bc14" d="M 2669 2656 
L 1293 2656 
L 1293 1459 
Q 1293 1350 1408 1350 
L 2554 1350 
Q 2669 1350 2669 1459 
L 2669 2656 
z
M 3405 1178 
Q 3405 966 3302 857 
Q 3200 749 2925 749 
L 1043 749 
Q 762 749 659 845 
Q 557 941 557 1197 
L 557 4653 
Q 557 4685 582 4707 
Q 608 4730 640 4730 
L 1203 4730 
Q 1235 4730 1264 4707 
Q 1293 4685 1293 4653 
L 1293 3251 
L 2669 3251 
L 2669 4659 
Q 2669 4691 2694 4716 
Q 2720 4742 2752 4742 
L 3322 4742 
Q 3354 4742 3379 4716 
Q 3405 4691 3405 4659 
L 3405 1178 
z
M 5965 2195 
Q 5965 2157 5936 2131 
Q 5907 2106 5875 2106 
L 5005 2106 
L 5005 -928 
Q 5005 -1011 4922 -1011 
L 4352 -1011 
Q 4269 -1011 4269 -928 
L 4269 4979 
Q 4269 5062 4352 5062 
L 4922 5062 
Q 5005 5062 5005 4979 
L 5005 2720 
L 5875 2720 
Q 5907 2720 5936 2697 
Q 5965 2675 5965 2643 
L 5965 2195 
z
" transform="scale(0.015625)"/>
      <path id="NanumGothicBold-afc8" d="M 5882 2291 
Q 5882 2259 5850 2227 
Q 5818 2195 5786 2195 
L 3354 2195 
L 3354 1293 
L 4512 1293 
Q 4800 1293 4899 1193 
Q 4998 1094 4998 838 
L 4998 -467 
Q 4998 -710 4876 -812 
Q 4755 -915 4512 -915 
L 1491 -915 
Q 1203 -915 1104 -816 
Q 1005 -717 1005 -467 
L 1005 838 
Q 1005 1082 1126 1187 
Q 1248 1293 1491 1293 
L 2618 1293 
L 2618 2195 
L 211 2195 
Q 173 2195 147 2227 
Q 122 2259 122 2291 
L 122 2707 
Q 122 2746 147 2774 
Q 173 2803 211 2803 
L 1907 2803 
Q 2003 3200 2057 3577 
Q 2112 3955 2112 4211 
Q 2112 4301 2073 4323 
Q 2035 4346 1946 4346 
L 800 4346 
Q 768 4346 736 4368 
Q 704 4390 704 4422 
L 704 4858 
Q 704 4896 736 4915 
Q 768 4934 800 4934 
L 2413 4934 
Q 2579 4934 2707 4841 
Q 2835 4749 2835 4512 
Q 2835 4090 2774 3658 
Q 2714 3226 2605 2803 
L 4224 2803 
Q 4250 2950 4272 3136 
Q 4294 3322 4313 3514 
Q 4333 3706 4342 3885 
Q 4352 4064 4352 4211 
Q 4352 4301 4313 4323 
Q 4275 4346 4186 4346 
L 3091 4346 
Q 3059 4346 3027 4368 
Q 2995 4390 2995 4422 
L 2995 4858 
Q 2995 4896 3027 4915 
Q 3059 4934 3091 4934 
L 4659 4934 
Q 4826 4934 4954 4841 
Q 5082 4749 5082 4512 
Q 5082 4339 5066 4096 
Q 5050 3853 5024 3609 
Q 4998 3366 4969 3148 
Q 4941 2931 4915 2803 
L 5786 2803 
Q 5818 2803 5850 2771 
Q 5882 2739 5882 2707 
L 5882 2291 
z
M 4262 576 
Q 4262 678 4179 678 
L 1824 678 
Q 1773 678 1757 656 
Q 1741 634 1741 582 
L 1741 -218 
Q 1741 -275 1757 -288 
Q 1773 -301 1824 -301 
L 4179 -301 
Q 4230 -301 4246 -288 
Q 4262 -275 4262 -218 
L 4262 576 
z
" transform="scale(0.015625)"/>
     </defs>
     <use xlink:href="#NanumGothicBold-c18d"/>
     <use xlink:href="#NanumGothicBold-b3c4" transform="translate(93.999985 0)"/>
     <use xlink:href="#NanumGothicBold-b97c" transform="translate(187.999969 0)"/>
     <use xlink:href="#NanumGothicBold-20" transform="translate(281.999954 0)"/>
     <use xlink:href="#NanumGothicBold-bc14" transform="translate(309.999939 0)"/>
     <use xlink:href="#NanumGothicBold-afc8" transform="translate(403.999924 0)"/>
    </g>
   </g>
  </g>
 </g>
 <defs>
  <clipPath id="p64ae4bd4df">
   <rect x="8.64" y="32.742224" width="334.8" height="141.646154"/>
  </clipPath>
 </defs>
</svg>
