<?xml version="1.0" encoding="utf-8" standalone="no"?>
<!DOCTYPE svg PUBLIC "-//W3C//DTD SVG 1.1//EN"
  "http://www.w3.org/Graphics/SVG/1.1/DTD/svg11.dtd">
<svg xmlns:xlink="http://www.w3.org/1999/xlink" width="522.648pt" height="111.312pt" viewBox="0 0 522.648 111.312" xmlns="http://www.w3.org/2000/svg" version="1.1">
 <metadata>
  <rdf:RDF xmlns:dc="http://purl.org/dc/elements/1.1/" xmlns:cc="http://creativecommons.org/ns#" xmlns:rdf="http://www.w3.org/1999/02/22-rdf-syntax-ns#">
   <cc:Work>
    <dc:type rdf:resource="http://purl.org/dc/dcmitype/StillImage"/>
    <dc:date>2026-07-08T05:12:56.512629</dc:date>
    <dc:format>image/svg+xml</dc:format>
    <dc:creator>
     <cc:Agent>
      <dc:title>Matplotlib v3.10.8, https://matplotlib.org/</dc:title>
     </cc:Agent>
    </dc:creator>
   </cc:Work>
  </rdf:RDF>
 </metadata>
 <defs>
  <style type="text/css">*{stroke-linejoin: round; stroke-linecap: butt}</style>
 </defs>
 <g id="figure_1">
  <g id="patch_1">
   <path d="M 0 111.312 
L 522.648 111.312 
L 522.648 0 
L 0 0 
z
" style="fill: #ffffff"/>
  </g>
  <g id="axes_1">
   <g id="patch_2">
    <path d="M 5.76 105.552 
L 516.888 105.552 
L 516.888 5.76 
L 5.76 5.76 
z
" clip-path="url(#pac48e96f2d)" style="fill: #ffffff; stroke: #e5e7eb; stroke-linejoin: miter"/>
   </g>
   <g id="text_1">
    <!-- relativeVelocity = velocityB - velocityA -->
    <g style="fill: #111827" transform="translate(26.20512 25.347384) scale(0.11 -0.11)">
     <defs>
      <path id="NanumGothicCoding-72" d="M 1946 122 
Q 2035 122 2035 32 
L 2035 -186 
Q 2035 -275 1946 -275 
L 506 -275 
Q 416 -275 416 -186 
L 416 32 
Q 416 122 506 122 
L 883 122 
L 883 2534 
L 390 2534 
Q 301 2534 301 2624 
L 301 2842 
Q 301 2931 390 2931 
L 1165 2931 
Q 1254 2931 1254 2842 
L 1254 2214 
Q 1645 3021 2381 3021 
Q 2758 3021 3059 2874 
Q 3123 2848 3129 2809 
Q 3136 2771 3117 2726 
L 3040 2496 
Q 3021 2451 2992 2454 
Q 2963 2458 2918 2483 
Q 2637 2618 2317 2618 
Q 1792 2592 1485 2048 
Q 1312 1715 1312 1178 
L 1312 122 
L 1946 122 
z
" transform="scale(0.015625)"/>
      <path id="NanumGothicCoding-65" d="M 2458 1536 
Q 2458 1734 2410 1939 
Q 2362 2144 2266 2298 
Q 2042 2669 1626 2669 
Q 1210 2669 973 2291 
Q 864 2106 806 1907 
Q 749 1709 742 1536 
L 2458 1536 
z
M 736 1171 
Q 730 966 810 726 
Q 890 486 1030 336 
Q 1171 186 1350 96 
Q 1530 6 1786 6 
Q 2010 6 2202 51 
Q 2394 96 2586 198 
Q 2662 230 2669 154 
L 2669 -141 
Q 2669 -192 2598 -224 
Q 2400 -301 2211 -339 
Q 2022 -378 1754 -378 
Q 1069 -378 665 80 
Q 262 538 262 1312 
Q 262 2016 659 2541 
Q 1075 3034 1632 3034 
Q 1978 3034 2205 2912 
Q 2432 2790 2611 2541 
Q 2931 2112 2931 1376 
Q 2931 1299 2928 1257 
Q 2925 1216 2905 1197 
Q 2886 1178 2838 1174 
Q 2790 1171 2701 1171 
L 736 1171 
z
" transform="scale(0.015625)"/>
      <path id="NanumGothicCoding-6c" d="M 2605 122 
Q 2694 122 2694 32 
L 2694 -186 
Q 2694 -275 2605 -275 
L 531 -275 
Q 442 -275 442 -186 
L 442 32 
Q 442 122 531 122 
L 1389 122 
L 1389 4032 
L 710 4032 
Q 621 4032 621 4122 
L 621 4339 
Q 621 4429 710 4429 
L 1760 4429 
Q 1850 4429 1850 4339 
L 1850 122 
L 2605 122 
z
" transform="scale(0.015625)"/>
      <path id="NanumGothicCoding-61" d="M 2368 1402 
L 2246 1402 
Q 1888 1414 1645 1376 
Q 1402 1338 1229 1254 
Q 1018 1165 902 976 
Q 787 787 787 589 
Q 787 474 838 342 
Q 890 211 998 141 
Q 1184 -13 1414 -13 
Q 1638 -13 1785 73 
Q 1933 160 2073 342 
Q 2214 525 2291 755 
Q 2368 986 2368 1203 
L 2368 1402 
z
M 723 2400 
Q 691 2381 662 2390 
Q 634 2400 634 2432 
L 634 2682 
Q 634 2765 723 2803 
Q 941 2931 1168 2982 
Q 1395 3034 1658 3034 
Q 2214 3046 2508 2713 
Q 2803 2381 2803 1888 
L 2803 397 
Q 2803 218 2809 77 
Q 2816 -64 2829 -192 
Q 2829 -275 2739 -275 
L 2509 -275 
Q 2419 -275 2419 -192 
L 2419 262 
Q 2285 -38 2009 -208 
Q 1734 -378 1363 -378 
Q 813 -378 512 -19 
Q 410 96 358 256 
Q 307 416 307 570 
Q 307 902 489 1180 
Q 672 1459 1050 1600 
Q 1414 1766 2285 1766 
L 2368 1766 
L 2368 1914 
Q 2368 2240 2185 2454 
Q 2003 2669 1658 2669 
Q 1382 2669 1168 2608 
Q 954 2547 723 2400 
z
" transform="scale(0.015625)"/>
      <path id="NanumGothicCoding-74" d="M 2733 -269 
Q 2464 -378 2106 -378 
Q 1523 -378 1357 -38 
Q 1248 192 1248 774 
L 1248 2413 
L 416 2413 
Q 326 2413 326 2502 
L 326 2694 
Q 326 2784 416 2784 
L 1248 2784 
L 1248 3686 
Q 1248 3782 1331 3782 
L 1600 3782 
Q 1683 3782 1683 3686 
L 1683 2784 
L 2714 2784 
Q 2803 2784 2803 2694 
L 2803 2502 
Q 2803 2413 2714 2413 
L 1683 2413 
L 1683 486 
Q 1683 6 2208 6 
Q 2470 6 2707 115 
Q 2739 128 2768 115 
Q 2797 102 2797 64 
L 2810 -141 
Q 2822 -230 2733 -269 
z
" transform="scale(0.015625)"/>
      <path id="NanumGothicCoding-69" d="M 2656 122 
Q 2746 122 2746 32 
L 2746 -186 
Q 2746 -275 2656 -275 
L 614 -275 
Q 525 -275 525 -186 
L 525 32 
Q 525 122 614 122 
L 1434 122 
L 1434 2534 
L 685 2534 
Q 595 2534 595 2624 
L 595 2842 
Q 595 2931 685 2931 
L 1805 2931 
Q 1894 2931 1894 2842 
L 1894 122 
L 2656 122 
z
M 1235 3968 
Q 1235 4115 1340 4220 
Q 1446 4326 1594 4326 
Q 1741 4326 1846 4220 
Q 1952 4115 1952 3968 
Q 1952 3821 1846 3715 
Q 1741 3610 1594 3610 
Q 1446 3610 1340 3715 
Q 1235 3821 1235 3968 
z
" transform="scale(0.015625)"/>
      <path id="NanumGothicCoding-76" d="M 1856 -192 
Q 1824 -275 1728 -275 
L 1414 -275 
Q 1318 -275 1293 -192 
L 282 2842 
Q 269 2874 288 2902 
Q 307 2931 346 2931 
L 627 2931 
Q 704 2931 742 2842 
L 1581 166 
L 2458 2842 
Q 2470 2880 2502 2905 
Q 2534 2931 2573 2931 
L 2854 2931 
Q 2893 2931 2912 2902 
Q 2931 2874 2918 2842 
L 1856 -192 
z
" transform="scale(0.015625)"/>
      <path id="NanumGothicCoding-56" d="M 2502 4000 
Q 2515 4038 2547 4064 
Q 2579 4090 2618 4090 
L 2912 4090 
Q 2950 4090 2969 4061 
Q 2989 4032 2976 4000 
L 1869 -192 
Q 1850 -243 1827 -259 
Q 1805 -275 1754 -275 
L 1402 -275 
Q 1350 -275 1328 -259 
Q 1306 -243 1286 -192 
L 218 4000 
Q 205 4032 224 4061 
Q 243 4090 282 4090 
L 576 4090 
Q 653 4090 691 4000 
L 1504 678 
Q 1517 608 1529 553 
Q 1542 499 1555 448 
Q 1568 390 1581 333 
Q 1594 390 1606 448 
Q 1619 499 1632 553 
Q 1645 608 1664 678 
L 2502 4000 
z
" transform="scale(0.015625)"/>
      <path id="NanumGothicCoding-6f" d="M 2490 1331 
Q 2490 1581 2432 1824 
Q 2374 2067 2253 2266 
Q 2010 2650 1594 2650 
Q 1158 2650 934 2266 
Q 813 2067 758 1824 
Q 704 1581 704 1331 
Q 704 1056 755 813 
Q 806 570 934 397 
Q 1216 6 1594 6 
Q 2035 6 2253 397 
Q 2381 570 2435 813 
Q 2490 1056 2490 1331 
z
M 2931 1331 
Q 2931 979 2851 668 
Q 2771 358 2605 147 
Q 2413 -102 2163 -240 
Q 1914 -378 1594 -378 
Q 1274 -378 1024 -240 
Q 774 -102 582 147 
Q 429 378 349 678 
Q 269 979 269 1331 
Q 269 2054 582 2515 
Q 947 3034 1594 3034 
Q 1920 3034 2166 2909 
Q 2413 2784 2605 2515 
Q 2931 2048 2931 1331 
z
" transform="scale(0.015625)"/>
      <path id="NanumGothicCoding-63" d="M 2624 -288 
Q 2451 -333 2310 -349 
Q 2170 -365 1952 -365 
Q 1581 -365 1289 -233 
Q 998 -102 780 128 
Q 563 358 454 668 
Q 346 979 346 1338 
Q 346 1702 461 2009 
Q 576 2317 787 2541 
Q 998 2765 1289 2896 
Q 1581 3027 1952 3027 
Q 2150 3027 2297 3011 
Q 2445 2995 2630 2950 
Q 2714 2931 2707 2842 
L 2688 2624 
Q 2675 2547 2598 2566 
Q 2445 2618 2307 2640 
Q 2170 2662 2010 2662 
Q 1741 2662 1507 2556 
Q 1274 2451 1126 2272 
Q 979 2093 899 1853 
Q 819 1613 819 1338 
Q 819 1088 902 848 
Q 986 608 1130 419 
Q 1274 230 1507 115 
Q 1741 0 2010 0 
Q 2170 0 2298 19 
Q 2426 38 2592 96 
Q 2662 115 2688 51 
L 2707 -179 
Q 2714 -269 2624 -288 
z
" transform="scale(0.015625)"/>
      <path id="NanumGothicCoding-79" d="M 365 -1222 
Q 288 -1203 301 -1126 
L 320 -890 
Q 320 -813 397 -845 
Q 506 -883 634 -883 
Q 768 -883 880 -851 
Q 992 -819 1050 -749 
Q 1120 -659 1206 -454 
Q 1293 -250 1376 13 
Q 1088 794 326 2842 
Q 314 2874 326 2902 
Q 339 2931 378 2931 
L 653 2931 
Q 742 2931 781 2842 
L 1587 589 
L 2419 2842 
Q 2451 2931 2547 2931 
L 2822 2931 
Q 2861 2931 2873 2902 
Q 2886 2874 2874 2842 
L 1606 -474 
Q 1536 -659 1449 -806 
Q 1363 -954 1274 -1043 
Q 1158 -1152 1017 -1206 
Q 877 -1261 723 -1261 
Q 627 -1261 547 -1254 
Q 467 -1248 365 -1222 
z
" transform="scale(0.015625)"/>
      <path id="NanumGothicCoding-20" transform="scale(0.015625)"/>
      <path id="NanumGothicCoding-3d" d="M 3142 2810 
L 3142 2528 
Q 3142 2458 3132 2448 
Q 3123 2438 3053 2438 
L 147 2438 
Q 77 2438 67 2448 
Q 58 2458 58 2528 
L 58 2810 
Q 58 2880 67 2889 
Q 77 2899 147 2899 
L 3053 2899 
Q 3123 2899 3132 2889 
Q 3142 2880 3142 2810 
z
M 3142 1446 
L 3142 1165 
Q 3142 1094 3132 1084 
Q 3123 1075 3053 1075 
L 147 1075 
Q 77 1075 67 1084 
Q 58 1094 58 1165 
L 58 1446 
Q 58 1517 67 1526 
Q 77 1536 147 1536 
L 3053 1536 
Q 3123 1536 3132 1526 
Q 3142 1517 3142 1446 
z
" transform="scale(0.015625)"/>
      <path id="NanumGothicCoding-42" d="M 2278 3034 
Q 2278 3686 1299 3693 
L 883 3693 
L 883 2266 
L 1242 2266 
Q 1696 2266 1987 2470 
Q 2278 2675 2278 3034 
z
M 2426 1043 
Q 2426 1414 2080 1635 
Q 1734 1856 1114 1856 
L 883 1856 
L 883 134 
L 1190 134 
Q 2426 134 2426 1043 
z
M 2899 1069 
Q 2899 -275 1178 -275 
L 602 -275 
Q 467 -275 444 -252 
Q 422 -230 422 -96 
L 422 3930 
Q 422 4051 444 4070 
Q 467 4090 602 4090 
L 1299 4090 
Q 2752 4090 2752 3046 
Q 2752 2253 1907 2086 
Q 2394 1958 2646 1676 
Q 2899 1395 2899 1069 
z
" transform="scale(0.015625)"/>
      <path id="NanumGothicCoding-2d" d="M 2938 2131 
L 2938 1850 
Q 2938 1779 2928 1769 
Q 2918 1760 2848 1760 
L 352 1760 
Q 282 1760 272 1769 
Q 262 1779 262 1850 
L 262 2131 
Q 262 2202 272 2211 
Q 282 2221 352 2221 
L 2848 2221 
Q 2918 2221 2928 2211 
Q 2938 2202 2938 2131 
z
" transform="scale(0.015625)"/>
      <path id="NanumGothicCoding-41" d="M 2170 1402 
L 1619 3603 
L 1056 1402 
L 2170 1402 
z
M 3046 -186 
Q 3078 -275 2989 -275 
L 2688 -275 
Q 2650 -275 2621 -262 
Q 2592 -250 2566 -186 
L 2259 992 
L 954 992 
L 627 -186 
Q 602 -250 573 -262 
Q 544 -275 506 -275 
L 205 -275 
Q 115 -275 147 -186 
L 1325 4013 
Q 1357 4090 1440 4090 
L 1830 4090 
Q 1914 4090 1946 4013 
L 3046 -186 
z
" transform="scale(0.015625)"/>
     </defs>
     <use xlink:href="#NanumGothicCoding-72"/>
     <use xlink:href="#NanumGothicCoding-65" transform="translate(49.999985 0)"/>
     <use xlink:href="#NanumGothicCoding-6c" transform="translate(99.999969 0)"/>
     <use xlink:href="#NanumGothicCoding-61" transform="translate(149.999954 0)"/>
     <use xlink:href="#NanumGothicCoding-74" transform="translate(199.999939 0)"/>
     <use xlink:href="#NanumGothicCoding-69" transform="translate(249.999924 0)"/>
     <use xlink:href="#NanumGothicCoding-76" transform="translate(299.999908 0)"/>
     <use xlink:href="#NanumGothicCoding-65" transform="translate(349.999893 0)"/>
     <use xlink:href="#NanumGothicCoding-56" transform="translate(399.999878 0)"/>
     <use xlink:href="#NanumGothicCoding-65" transform="translate(449.999863 0)"/>
     <use xlink:href="#NanumGothicCoding-6c" transform="translate(499.999847 0)"/>
     <use xlink:href="#NanumGothicCoding-6f" transform="translate(549.999832 0)"/>
     <use xlink:href="#NanumGothicCoding-63" transform="translate(599.999817 0)"/>
     <use xlink:href="#NanumGothicCoding-69" transform="translate(649.999802 0)"/>
     <use xlink:href="#NanumGothicCoding-74" transform="translate(699.999786 0)"/>
     <use xlink:href="#NanumGothicCoding-79" transform="translate(749.999771 0)"/>
     <use xlink:href="#NanumGothicCoding-20" transform="translate(799.999756 0)"/>
     <use xlink:href="#NanumGothicCoding-3d" transform="translate(849.999741 0)"/>
     <use xlink:href="#NanumGothicCoding-20" transform="translate(899.999725 0)"/>
     <use xlink:href="#NanumGothicCoding-76" transform="translate(949.99971 0)"/>
     <use xlink:href="#NanumGothicCoding-65" transform="translate(999.999695 0)"/>
     <use xlink:href="#NanumGothicCoding-6c" transform="translate(1049.99968 0)"/>
     <use xlink:href="#NanumGothicCoding-6f" transform="translate(1099.999664 0)"/>
     <use xlink:href="#NanumGothicCoding-63" transform="translate(1149.999649 0)"/>
     <use xlink:href="#NanumGothicCoding-69" transform="translate(1199.999634 0)"/>
     <use xlink:href="#NanumGothicCoding-74" transform="translate(1249.999619 0)"/>
     <use xlink:href="#NanumGothicCoding-79" transform="translate(1299.999603 0)"/>
     <use xlink:href="#NanumGothicCoding-42" transform="translate(1349.999588 0)"/>
     <use xlink:href="#NanumGothicCoding-20" transform="translate(1399.999573 0)"/>
     <use xlink:href="#NanumGothicCoding-2d" transform="translate(1449.999557 0)"/>
     <use xlink:href="#NanumGothicCoding-20" transform="translate(1499.999542 0)"/>
     <use xlink:href="#NanumGothicCoding-76" transform="translate(1549.999527 0)"/>
     <use xlink:href="#NanumGothicCoding-65" transform="translate(1599.999512 0)"/>
     <use xlink:href="#NanumGothicCoding-6c" transform="translate(1649.999496 0)"/>
     <use xlink:href="#NanumGothicCoding-6f" transform="translate(1699.999481 0)"/>
     <use xlink:href="#NanumGothicCoding-63" transform="translate(1749.999466 0)"/>
     <use xlink:href="#NanumGothicCoding-69" transform="translate(1799.999451 0)"/>
     <use xlink:href="#NanumGothicCoding-74" transform="translate(1849.999435 0)"/>
     <use xlink:href="#NanumGothicCoding-79" transform="translate(1899.99942 0)"/>
     <use xlink:href="#NanumGothicCoding-41" transform="translate(1949.999405 0)"/>
    </g>
   </g>
   <g id="text_2">
    <!-- normalVelocity = relativeVelocity · normal -->
    <g style="fill: #111827" transform="translate(26.20512 36.324504) scale(0.11 -0.11)">
     <defs>
      <path id="NanumGothicCoding-6e" d="M 2797 -186 
Q 2797 -275 2707 -275 
L 2451 -275 
Q 2362 -275 2362 -186 
L 2362 1574 
Q 2362 2163 2202 2409 
Q 2042 2656 1658 2656 
Q 1318 2656 1088 2384 
Q 858 2112 858 1562 
L 858 -186 
Q 858 -275 768 -275 
L 512 -275 
Q 422 -275 422 -186 
L 422 2118 
Q 422 2394 419 2547 
Q 416 2701 403 2842 
Q 397 2886 425 2908 
Q 454 2931 493 2931 
L 723 2931 
Q 813 2931 813 2842 
L 813 2483 
Q 966 2758 1187 2889 
Q 1408 3021 1696 3021 
Q 2259 3021 2528 2669 
Q 2797 2317 2797 1677 
L 2797 -186 
z
" transform="scale(0.015625)"/>
      <path id="NanumGothicCoding-6d" d="M 269 2118 
Q 269 2387 262 2544 
Q 256 2701 243 2842 
Q 243 2931 333 2931 
L 570 2931 
Q 659 2931 659 2842 
L 653 2566 
Q 698 2771 832 2889 
Q 966 3008 1101 3008 
Q 1338 3008 1482 2816 
Q 1626 2624 1664 2362 
Q 1683 2573 1804 2777 
Q 1926 2982 2202 3008 
Q 2445 3008 2585 2921 
Q 2726 2835 2809 2675 
Q 2893 2515 2925 2304 
Q 2957 2093 2957 1856 
L 2957 -186 
Q 2957 -275 2867 -275 
L 2624 -275 
Q 2534 -275 2534 -192 
L 2534 1766 
Q 2534 2611 2195 2611 
Q 2067 2611 1990 2508 
Q 1914 2406 1878 2252 
Q 1843 2099 1827 1868 
Q 1811 1638 1818 1382 
L 1818 -186 
Q 1818 -275 1728 -275 
L 1498 -275 
Q 1408 -275 1408 -186 
L 1408 1766 
Q 1389 2611 1050 2611 
Q 870 2611 777 2355 
Q 685 2099 691 1619 
L 691 -186 
Q 691 -275 602 -275 
L 358 -275 
Q 269 -275 269 -186 
L 269 2118 
z
" transform="scale(0.015625)"/>
      <path id="NanumGothicCoding-b7" d="M 3565 2125 
Q 3565 1965 3456 1862 
Q 3347 1760 3194 1760 
Q 3040 1760 2934 1862 
Q 2829 1965 2829 2125 
Q 2829 2278 2934 2387 
Q 3040 2496 3194 2496 
Q 3347 2496 3456 2387 
Q 3565 2278 3565 2125 
z
" transform="scale(0.015625)"/>
     </defs>
     <use xlink:href="#NanumGothicCoding-6e"/>
     <use xlink:href="#NanumGothicCoding-6f" transform="translate(49.999985 0)"/>
     <use xlink:href="#NanumGothicCoding-72" transform="translate(99.999969 0)"/>
     <use xlink:href="#NanumGothicCoding-6d" transform="translate(149.999954 0)"/>
     <use xlink:href="#NanumGothicCoding-61" transform="translate(199.999939 0)"/>
     <use xlink:href="#NanumGothicCoding-6c" transform="translate(249.999924 0)"/>
     <use xlink:href="#NanumGothicCoding-56" transform="translate(299.999908 0)"/>
     <use xlink:href="#NanumGothicCoding-65" transform="translate(349.999893 0)"/>
     <use xlink:href="#NanumGothicCoding-6c" transform="translate(399.999878 0)"/>
     <use xlink:href="#NanumGothicCoding-6f" transform="translate(449.999863 0)"/>
     <use xlink:href="#NanumGothicCoding-63" transform="translate(499.999847 0)"/>
     <use xlink:href="#NanumGothicCoding-69" transform="translate(549.999832 0)"/>
     <use xlink:href="#NanumGothicCoding-74" transform="translate(599.999817 0)"/>
     <use xlink:href="#NanumGothicCoding-79" transform="translate(649.999802 0)"/>
     <use xlink:href="#NanumGothicCoding-20" transform="translate(699.999786 0)"/>
     <use xlink:href="#NanumGothicCoding-3d" transform="translate(749.999771 0)"/>
     <use xlink:href="#NanumGothicCoding-20" transform="translate(799.999756 0)"/>
     <use xlink:href="#NanumGothicCoding-72" transform="translate(849.999741 0)"/>
     <use xlink:href="#NanumGothicCoding-65" transform="translate(899.999725 0)"/>
     <use xlink:href="#NanumGothicCoding-6c" transform="translate(949.99971 0)"/>
     <use xlink:href="#NanumGothicCoding-61" transform="translate(999.999695 0)"/>
     <use xlink:href="#NanumGothicCoding-74" transform="translate(1049.99968 0)"/>
     <use xlink:href="#NanumGothicCoding-69" transform="translate(1099.999664 0)"/>
     <use xlink:href="#NanumGothicCoding-76" transform="translate(1149.999649 0)"/>
     <use xlink:href="#NanumGothicCoding-65" transform="translate(1199.999634 0)"/>
     <use xlink:href="#NanumGothicCoding-56" transform="translate(1249.999619 0)"/>
     <use xlink:href="#NanumGothicCoding-65" transform="translate(1299.999603 0)"/>
     <use xlink:href="#NanumGothicCoding-6c" transform="translate(1349.999588 0)"/>
     <use xlink:href="#NanumGothicCoding-6f" transform="translate(1399.999573 0)"/>
     <use xlink:href="#NanumGothicCoding-63" transform="translate(1449.999557 0)"/>
     <use xlink:href="#NanumGothicCoding-69" transform="translate(1499.999542 0)"/>
     <use xlink:href="#NanumGothicCoding-74" transform="translate(1549.999527 0)"/>
     <use xlink:href="#NanumGothicCoding-79" transform="translate(1599.999512 0)"/>
     <use xlink:href="#NanumGothicCoding-20" transform="translate(1649.999496 0)"/>
     <use xlink:href="#NanumGothicCoding-b7" transform="translate(1699.999481 0)"/>
     <use xlink:href="#NanumGothicCoding-20" transform="translate(1799.999466 0)"/>
     <use xlink:href="#NanumGothicCoding-6e" transform="translate(1849.999451 0)"/>
     <use xlink:href="#NanumGothicCoding-6f" transform="translate(1899.999435 0)"/>
     <use xlink:href="#NanumGothicCoding-72" transform="translate(1949.99942 0)"/>
     <use xlink:href="#NanumGothicCoding-6d" transform="translate(1999.999405 0)"/>
     <use xlink:href="#NanumGothicCoding-61" transform="translate(2049.99939 0)"/>
     <use xlink:href="#NanumGothicCoding-6c" transform="translate(2099.999374 0)"/>
    </g>
   </g>
  </g>
 </g>
 <defs>
  <clipPath id="pac48e96f2d">
   <rect x="5.76" y="5.76" width="511.128" height="99.792"/>
  </clipPath>
 </defs>
</svg>
