<?xml version="1.0" encoding="utf-8" standalone="no"?>
<!DOCTYPE svg PUBLIC "-//W3C//DTD SVG 1.1//EN"
  "http://www.w3.org/Graphics/SVG/1.1/DTD/svg11.dtd">
<svg xmlns:xlink="http://www.w3.org/1999/xlink" width="256.7808pt" height="237.296051pt" viewBox="0 0 256.7808 237.296051" xmlns="http://www.w3.org/2000/svg" version="1.1">
 <metadata>
  <rdf:RDF xmlns:dc="http://purl.org/dc/elements/1.1/" xmlns:cc="http://creativecommons.org/ns#" xmlns:rdf="http://www.w3.org/1999/02/22-rdf-syntax-ns#">
   <cc:Work>
    <dc:type rdf:resource="http://purl.org/dc/dcmitype/StillImage"/>
    <dc:date>2026-07-08T05:12:55.710392</dc:date>
    <dc:format>image/svg+xml</dc:format>
    <dc:creator>
     <cc:Agent>
      <dc:title>Matplotlib v3.10.8, https://matplotlib.org/</dc:title>
     </cc:Agent>
    </dc:creator>
   </cc:Work>
  </rdf:RDF>
 </metadata>
 <defs>
  <style type="text/css">*{stroke-linejoin: round; stroke-linecap: butt}</style>
 </defs>
 <g id="figure_1">
  <g id="patch_1">
   <path d="M 0 237.296051 
L 256.7808 237.296051 
L 256.7808 0 
L 0 0 
z
" style="fill: #ffffff"/>
  </g>
  <g id="axes_1">
   <g id="patch_2">
    <path d="M 68.5152 180.755891 
L 176.29056 144.830771 
L 148.3488 68.988851 
L 40.57344 104.913971 
L 68.5152 180.755891 
z
" clip-path="url(#pc52a2a123f)" style="fill: none; stroke: #10b981; stroke-width: 2.4; stroke-linejoin: miter"/>
   </g>
   <g id="text_1">
    <!-- OBB -->
    <g style="fill: #111827" transform="translate(8.64 20.054062) scale(0.15 -0.15)">
     <defs>
      <path id="NanumGothicBold-4f" d="M 4141 288 
Q 3853 -77 3446 -253 
Q 3040 -429 2534 -429 
Q 1971 -429 1564 -227 
Q 1158 -26 899 320 
Q 640 666 515 1123 
Q 390 1581 390 2093 
Q 390 2592 518 3049 
Q 646 3507 908 3852 
Q 1171 4198 1574 4403 
Q 1978 4608 2534 4608 
Q 3078 4608 3481 4400 
Q 3885 4192 4150 3846 
Q 4416 3501 4547 3046 
Q 4678 2592 4672 2093 
Q 4666 1530 4538 1078 
Q 4410 627 4141 288 
z
M 2534 3923 
Q 2163 3923 1897 3760 
Q 1632 3597 1462 3337 
Q 1293 3078 1213 2748 
Q 1133 2419 1133 2093 
Q 1133 1766 1213 1436 
Q 1293 1107 1462 844 
Q 1632 582 1897 419 
Q 2163 256 2534 256 
Q 2906 256 3171 419 
Q 3437 582 3603 844 
Q 3770 1107 3850 1436 
Q 3930 1766 3930 2093 
Q 3930 2413 3853 2739 
Q 3776 3066 3606 3328 
Q 3437 3590 3171 3756 
Q 2906 3923 2534 3923 
z
" transform="scale(0.015625)"/>
      <path id="NanumGothicBold-42" d="M 653 -320 
Q 576 -320 576 -256 
L 576 4416 
Q 576 4506 653 4506 
L 1760 4506 
Q 2490 4506 2896 4205 
Q 3302 3904 3302 3283 
Q 3302 2899 3145 2627 
Q 2989 2355 2701 2202 
Q 2886 2131 3024 2016 
Q 3162 1901 3254 1753 
Q 3347 1606 3392 1443 
Q 3437 1280 3437 1120 
Q 3437 397 2963 38 
Q 2490 -320 1594 -320 
L 653 -320 
z
M 1306 3827 
L 1306 2528 
L 1651 2528 
Q 2157 2528 2368 2723 
Q 2579 2918 2579 3226 
Q 2579 3494 2393 3660 
Q 2208 3827 1760 3827 
L 1306 3827 
z
M 1293 1837 
L 1293 365 
L 1606 365 
Q 2221 365 2467 560 
Q 2714 755 2714 1094 
Q 2714 1440 2445 1638 
Q 2176 1837 1536 1837 
L 1293 1837 
z
" transform="scale(0.015625)"/>
     </defs>
     <use xlink:href="#NanumGothicBold-4f"/>
     <use xlink:href="#NanumGothicBold-42" transform="translate(78.699982 0)"/>
     <use xlink:href="#NanumGothicBold-42" transform="translate(139.299973 0)"/>
    </g>
   </g>
   <g id="text_2">
    <!-- 회전된 박스 -->
    <g style="fill: #6b7280" transform="translate(102.2454 211.617143) scale(0.105 -0.105)">
     <defs>
      <path id="NanumGothic-d68c" d="M 4282 826 
Q 4384 845 4390 781 
L 4429 538 
Q 4442 467 4346 448 
Q 4115 410 3859 371 
Q 3603 333 3340 301 
Q 3078 269 2812 246 
Q 2547 224 2310 218 
Q 2125 211 1865 204 
Q 1606 198 1334 195 
Q 1062 192 806 189 
Q 550 186 371 192 
Q 333 192 304 217 
Q 275 243 275 275 
L 275 493 
Q 275 531 304 553 
Q 333 576 371 576 
Q 512 570 720 566 
Q 928 563 1158 566 
Q 1389 570 1625 573 
Q 1862 576 2067 582 
L 2067 1261 
Q 1805 1286 1590 1372 
Q 1376 1459 1222 1596 
Q 1069 1734 982 1916 
Q 896 2099 896 2310 
Q 896 2547 1001 2742 
Q 1107 2938 1292 3075 
Q 1478 3213 1731 3286 
Q 1984 3360 2285 3360 
Q 2579 3360 2835 3283 
Q 3091 3206 3276 3068 
Q 3462 2931 3568 2739 
Q 3674 2547 3674 2310 
Q 3674 2093 3587 1913 
Q 3501 1734 3347 1600 
Q 3194 1466 2979 1379 
Q 2765 1293 2509 1267 
L 2509 602 
Q 2707 614 2944 640 
Q 3181 666 3417 694 
Q 3654 723 3878 758 
Q 4102 794 4282 826 
z
M 5152 -806 
Q 5152 -896 5062 -896 
L 4800 -896 
Q 4710 -896 4710 -806 
L 4710 4915 
Q 4710 5005 4800 5005 
L 5062 5005 
Q 5152 5005 5152 4915 
L 5152 -806 
z
M 3238 2310 
Q 3238 2637 2969 2809 
Q 2701 2982 2285 2982 
Q 2080 2982 1904 2937 
Q 1728 2893 1600 2809 
Q 1472 2726 1398 2598 
Q 1325 2470 1325 2310 
Q 1325 2150 1398 2025 
Q 1472 1901 1600 1814 
Q 1728 1728 1904 1680 
Q 2080 1632 2285 1632 
Q 2701 1632 2969 1811 
Q 3238 1990 3238 2310 
z
M 4083 3776 
Q 4083 3693 3987 3693 
L 582 3693 
Q 550 3693 521 3718 
Q 493 3744 493 3782 
L 493 3994 
Q 493 4032 521 4057 
Q 550 4083 582 4083 
L 3987 4083 
Q 4083 4083 4083 4000 
L 4083 3776 
z
M 3181 4582 
Q 3181 4493 3085 4493 
L 1395 4493 
Q 1363 4493 1334 4515 
Q 1306 4538 1306 4576 
L 1306 4794 
Q 1306 4832 1331 4857 
Q 1357 4883 1389 4883 
L 3085 4883 
Q 3181 4883 3181 4794 
L 3181 4582 
z
" transform="scale(0.015625)"/>
      <path id="NanumGothic-c804" d="M 3309 4038 
Q 3219 3770 3052 3494 
Q 2886 3219 2662 2950 
Q 2918 2650 3254 2384 
Q 3590 2118 3917 1946 
Q 4000 1907 3955 1824 
L 3808 1606 
Q 3789 1574 3750 1571 
Q 3712 1568 3680 1587 
Q 3354 1766 3018 2048 
Q 2682 2330 2394 2643 
Q 2029 2259 1593 1939 
Q 1158 1619 717 1414 
Q 685 1402 653 1392 
Q 621 1382 602 1414 
L 474 1638 
Q 454 1670 467 1705 
Q 480 1741 512 1754 
Q 1267 2138 1865 2707 
Q 2464 3277 2822 4013 
Q 2867 4102 2835 4140 
Q 2803 4179 2714 4179 
L 838 4179 
Q 762 4179 762 4262 
L 762 4486 
Q 762 4563 838 4563 
L 2886 4563 
Q 3219 4563 3315 4444 
Q 3411 4326 3309 4038 
z
M 4710 3296 
L 4710 4915 
Q 4710 5005 4800 5005 
L 5062 5005 
Q 5152 5005 5152 4915 
L 5152 781 
Q 5152 691 5062 691 
L 4800 691 
Q 4710 691 4710 781 
L 4710 2925 
L 3501 2925 
Q 3418 2925 3418 3002 
L 3418 3219 
Q 3418 3296 3501 3296 
L 4710 3296 
z
M 5350 -704 
Q 5350 -742 5318 -761 
Q 5286 -781 5254 -781 
L 2016 -781 
Q 1715 -781 1622 -669 
Q 1530 -557 1530 -294 
L 1530 922 
Q 1530 1011 1619 1011 
L 1882 1011 
Q 1971 1011 1971 922 
L 1971 -262 
Q 1971 -352 2000 -374 
Q 2029 -397 2118 -397 
L 5254 -397 
Q 5286 -397 5318 -419 
Q 5350 -442 5350 -474 
L 5350 -704 
z
" transform="scale(0.015625)"/>
      <path id="NanumGothic-b41c" d="M 3770 2746 
Q 3770 2656 3686 2656 
L 2509 2656 
L 2509 1670 
Q 2950 1696 3417 1731 
Q 3885 1766 4307 1818 
Q 4352 1824 4377 1805 
Q 4403 1786 4410 1754 
L 4429 1555 
Q 4435 1523 4419 1497 
Q 4403 1472 4352 1466 
Q 3878 1408 3334 1360 
Q 2790 1312 2310 1293 
Q 2234 1286 2109 1283 
Q 1984 1280 1833 1280 
Q 1683 1280 1513 1277 
Q 1344 1274 1184 1274 
Q 800 1267 371 1267 
Q 333 1267 304 1292 
Q 275 1318 275 1350 
L 275 1568 
Q 275 1606 304 1628 
Q 333 1651 371 1651 
L 1005 1651 
Q 1274 1651 1562 1651 
Q 1850 1651 2067 1658 
L 2067 2656 
L 1331 2656 
Q 1050 2656 947 2749 
Q 845 2842 845 3110 
L 845 4224 
Q 845 4493 947 4585 
Q 1050 4678 1331 4678 
L 3642 4678 
Q 3725 4678 3725 4595 
L 3725 4384 
Q 3725 4294 3642 4294 
L 1440 4294 
Q 1350 4294 1318 4259 
Q 1286 4224 1286 4128 
L 1286 3206 
Q 1286 3117 1318 3078 
Q 1350 3040 1440 3040 
L 3686 3040 
Q 3770 3040 3770 2957 
L 3770 2746 
z
M 5350 -704 
Q 5350 -742 5318 -761 
Q 5286 -781 5254 -781 
L 1894 -781 
Q 1594 -781 1501 -669 
Q 1408 -557 1408 -294 
L 1408 685 
Q 1408 774 1498 774 
L 1760 774 
Q 1850 774 1850 685 
L 1850 -262 
Q 1850 -352 1878 -374 
Q 1907 -397 1997 -397 
L 5254 -397 
Q 5286 -397 5318 -419 
Q 5350 -442 5350 -474 
L 5350 -704 
z
M 5152 595 
Q 5152 506 5062 506 
L 4800 506 
Q 4710 506 4710 595 
L 4710 4915 
Q 4710 5005 4800 5005 
L 5062 5005 
Q 5152 5005 5152 4915 
L 5152 595 
z
" transform="scale(0.015625)"/>
      <path id="NanumGothic-20" transform="scale(0.015625)"/>
      <path id="NanumGothic-bc15" d="M 1158 1939 
Q 1005 1939 912 1958 
Q 819 1978 768 2032 
Q 717 2086 697 2172 
Q 678 2259 678 2394 
L 678 4698 
Q 678 4730 704 4752 
Q 730 4774 762 4774 
L 1037 4774 
Q 1069 4774 1091 4748 
Q 1114 4723 1114 4698 
L 1114 3699 
L 2976 3699 
L 2976 4691 
Q 2976 4723 2998 4748 
Q 3021 4774 3053 4774 
L 3328 4774 
Q 3360 4774 3385 4752 
Q 3411 4730 3411 4698 
L 3411 2349 
Q 3411 2106 3308 2022 
Q 3206 1939 2925 1939 
L 1158 1939 
z
M 1197 1165 
Q 1197 1203 1229 1222 
Q 1261 1242 1293 1242 
L 4442 1242 
Q 4742 1242 4835 1130 
Q 4928 1018 4928 755 
L 4928 -832 
Q 4928 -922 4838 -922 
L 4576 -922 
Q 4486 -922 4486 -832 
L 4486 723 
Q 4486 813 4457 835 
Q 4429 858 4339 858 
L 1293 858 
Q 1261 858 1229 880 
Q 1197 902 1197 934 
L 1197 1165 
z
M 4928 1690 
Q 4928 1600 4838 1600 
L 4576 1600 
Q 4486 1600 4486 1690 
L 4486 4915 
Q 4486 5005 4576 5005 
L 4838 5005 
Q 4928 5005 4928 4915 
L 4928 3328 
L 5811 3328 
Q 5850 3328 5878 3305 
Q 5907 3283 5907 3245 
L 5907 3027 
Q 5907 2995 5878 2969 
Q 5850 2944 5811 2944 
L 4928 2944 
L 4928 1690 
z
M 1114 3322 
L 1114 2470 
Q 1114 2374 1146 2345 
Q 1178 2317 1267 2317 
L 2822 2317 
Q 2912 2317 2944 2345 
Q 2976 2374 2976 2470 
L 2976 3322 
L 1114 3322 
z
" transform="scale(0.015625)"/>
      <path id="NanumGothic-c2a4" d="M 3232 4608 
Q 3213 4429 3168 4269 
Q 3181 4198 3200 4137 
Q 3219 4077 3245 4032 
Q 3405 3718 3632 3436 
Q 3859 3155 4128 2924 
Q 4397 2694 4701 2524 
Q 5005 2355 5325 2266 
Q 5363 2253 5376 2214 
Q 5389 2176 5376 2144 
L 5274 1933 
Q 5254 1901 5232 1881 
Q 5210 1862 5146 1888 
Q 4794 2010 4470 2195 
Q 4147 2381 3868 2614 
Q 3590 2848 3360 3126 
Q 3130 3405 2963 3706 
Q 2816 3398 2598 3110 
Q 2381 2822 2112 2576 
Q 1843 2330 1529 2131 
Q 1216 1933 870 1805 
Q 768 1766 742 1830 
L 627 2054 
Q 614 2086 624 2121 
Q 634 2157 672 2176 
Q 1101 2336 1465 2595 
Q 1830 2854 2108 3177 
Q 2387 3501 2563 3878 
Q 2739 4256 2790 4653 
Q 2797 4730 2874 4730 
L 3162 4698 
Q 3238 4685 3232 4608 
z
M 5728 499 
Q 5760 499 5792 476 
Q 5824 454 5824 416 
L 5824 198 
Q 5824 166 5792 140 
Q 5760 115 5728 115 
L 288 115 
Q 250 115 221 140 
Q 192 166 192 198 
L 192 416 
Q 192 454 221 476 
Q 250 499 288 499 
L 5728 499 
z
" transform="scale(0.015625)"/>
     </defs>
     <use xlink:href="#NanumGothic-d68c"/>
     <use xlink:href="#NanumGothic-c804" transform="translate(93.999985 0)"/>
     <use xlink:href="#NanumGothic-b41c" transform="translate(187.999969 0)"/>
     <use xlink:href="#NanumGothic-20" transform="translate(281.999954 0)"/>
     <use xlink:href="#NanumGothic-bc15" transform="translate(309.999939 0)"/>
     <use xlink:href="#NanumGothic-c2a4" transform="translate(403.999924 0)"/>
    </g>
   </g>
  </g>
 </g>
 <defs>
  <clipPath id="pc52a2a123f">
   <rect x="8.64" y="29.072051" width="239.5008" height="199.584"/>
  </clipPath>
 </defs>
</svg>
