<svg xmlns="http://www.w3.org/2000/svg" viewBox="0 0 900 270"><rect width="900" height="270" rx="16" fill="#f8fafc"/><defs><marker id="a" markerWidth="8" markerHeight="8" refX="7" refY="4" orient="auto"><path d="M0 0L8 4L0 8Z" fill="#ef4444"/></marker></defs><text x="450" y="28" text-anchor="middle" font-family="sans-serif" font-size="18" font-weight="700">후크의 법칙: 평형으로 되돌리는 힘</text><g font-family="sans-serif" text-anchor="middle"><text x="170" y="58">늘어남 x &gt; 0</text><text x="450" y="58">평형 x = 0</text><text x="730" y="58">압축 x &lt; 0</text></g><g stroke="#334155" stroke-width="4" fill="none"><path d="M65 100H100L115 80L135 120L155 80L175 120L195 80L215 120L235 100H270"/><path d="M350 100H380L400 80L420 120L440 80L460 120L480 80L500 120L520 100H550"/><path d="M645 100H675L690 80L705 120L720 80L735 120L750 100H820"/></g><g fill="#60a5fa"><rect x="270" y="72" width="45" height="56"/><rect x="550" y="72" width="45" height="56"/><rect x="820" y="72" width="45" height="56"/></g><g stroke="#ef4444" stroke-width="4" marker-end="url(#a)"><path d="M300 175H235"/><path d="M840 175H880"/></g><g font-family="sans-serif" font-size="12"><text x="240" y="205">F = -kx (왼쪽)</text><text x="750" y="205">F = -kx (오른쪽)</text><text x="450" y="230" text-anchor="middle">복원력은 항상 평형 위치를 향한다</text></g></svg>
