<?xml version="1.0" encoding="utf-8" standalone="no"?>
<!DOCTYPE svg PUBLIC "-//W3C//DTD SVG 1.1//EN"
  "http://www.w3.org/Graphics/SVG/1.1/DTD/svg11.dtd">
<svg xmlns:xlink="http://www.w3.org/1999/xlink" width="291.636pt" height="125.7264pt" viewBox="0 0 291.636 125.7264" xmlns="http://www.w3.org/2000/svg" version="1.1">
 <metadata>
  <rdf:RDF xmlns:dc="http://purl.org/dc/elements/1.1/" xmlns:cc="http://creativecommons.org/ns#" xmlns:rdf="http://www.w3.org/1999/02/22-rdf-syntax-ns#">
   <cc:Work>
    <dc:type rdf:resource="http://purl.org/dc/dcmitype/StillImage"/>
    <dc:date>2026-07-08T05:12:54.581725</dc:date>
    <dc:format>image/svg+xml</dc:format>
    <dc:creator>
     <cc:Agent>
      <dc:title>Matplotlib v3.10.8, https://matplotlib.org/</dc:title>
     </cc:Agent>
    </dc:creator>
   </cc:Work>
  </rdf:RDF>
 </metadata>
 <defs>
  <style type="text/css">*{stroke-linejoin: round; stroke-linecap: butt}</style>
 </defs>
 <g id="figure_1">
  <g id="patch_1">
   <path d="M 0 125.7264 
L 291.636 125.7264 
L 291.636 0 
L 0 0 
z
" style="fill: #ffffff"/>
  </g>
  <g id="axes_1">
   <g id="patch_2">
    <path d="M 5.76 119.9664 
L 285.876 119.9664 
L 285.876 5.76 
L 5.76 5.76 
z
" clip-path="url(#pcd7d78f575)" style="fill: #ffffff; stroke: #e5e7eb; stroke-linejoin: miter"/>
   </g>
   <g id="text_1">
    <!-- 내적 = 1    완전히 같은 방향 -->
    <g style="fill: #111827" transform="translate(16.96464 27.496487) scale(0.11 -0.11)">
     <defs>
      <path id="NanumGothicCoding-b0b4" d="M 4320 2586 
L 5133 2586 
L 5133 4915 
Q 5133 5005 5222 5005 
L 5466 5005 
Q 5555 5005 5555 4915 
L 5555 -806 
Q 5555 -896 5466 -896 
L 5222 -896 
Q 5133 -896 5133 -806 
L 5133 2202 
L 4320 2202 
L 4320 -563 
Q 4320 -653 4230 -653 
L 3987 -653 
Q 3898 -653 3898 -563 
L 3898 4806 
Q 3898 4896 3987 4896 
L 4230 4896 
Q 4320 4896 4320 4806 
L 4320 2586 
z
M 1350 1446 
Q 1350 1350 1382 1318 
Q 1414 1286 1504 1280 
Q 2048 1261 2502 1312 
Q 2957 1363 3405 1466 
Q 3514 1491 3533 1389 
L 3565 1210 
Q 3584 1120 3482 1094 
Q 3078 986 2531 925 
Q 1984 864 1414 883 
Q 1126 896 1017 1021 
Q 909 1146 909 1414 
L 909 4461 
Q 909 4550 998 4550 
L 1261 4550 
Q 1350 4550 1350 4461 
L 1350 1446 
z
" transform="scale(0.015625)"/>
      <path id="NanumGothicCoding-c801" d="M 3501 4166 
Q 3411 3904 3248 3648 
Q 3085 3392 2861 3142 
Q 3078 2912 3398 2704 
Q 3718 2496 4096 2336 
Q 4147 2317 4153 2281 
Q 4160 2246 4141 2214 
L 4013 1984 
Q 3994 1952 3955 1949 
Q 3917 1946 3885 1958 
Q 3744 2022 3581 2112 
Q 3418 2202 3245 2317 
Q 3072 2432 2902 2566 
Q 2733 2701 2586 2848 
Q 2221 2490 1782 2195 
Q 1344 1901 896 1702 
Q 864 1690 832 1683 
Q 800 1677 781 1709 
L 653 1933 
Q 634 1965 650 2000 
Q 666 2035 698 2048 
Q 1523 2445 2105 2957 
Q 2688 3469 3014 4141 
Q 3059 4230 3027 4268 
Q 2995 4307 2906 4307 
L 1030 4307 
Q 954 4307 954 4390 
L 954 4614 
Q 954 4691 1030 4691 
L 3078 4691 
Q 3411 4691 3507 4572 
Q 3603 4454 3501 4166 
z
M 1613 1133 
Q 1613 1171 1645 1190 
Q 1677 1210 1709 1210 
L 4858 1210 
Q 5158 1210 5251 1098 
Q 5344 986 5344 723 
L 5344 -832 
Q 5344 -922 5254 -922 
L 4992 -922 
Q 4902 -922 4902 -832 
L 4902 691 
Q 4902 781 4873 803 
Q 4845 826 4755 826 
L 1709 826 
Q 1677 826 1645 848 
Q 1613 870 1613 902 
L 1613 1133 
z
M 4902 3462 
L 4902 4915 
Q 4902 5005 4992 5005 
L 5254 5005 
Q 5344 5005 5344 4915 
L 5344 1651 
Q 5344 1562 5254 1562 
L 4992 1562 
Q 4902 1562 4902 1651 
L 4902 3078 
L 3693 3078 
Q 3610 3078 3610 3155 
L 3610 3386 
Q 3610 3462 3693 3462 
L 4902 3462 
z
" transform="scale(0.015625)"/>
      <path id="NanumGothicCoding-20" transform="scale(0.015625)"/>
      <path id="NanumGothicCoding-3d" d="M 3142 2810 
L 3142 2528 
Q 3142 2458 3132 2448 
Q 3123 2438 3053 2438 
L 147 2438 
Q 77 2438 67 2448 
Q 58 2458 58 2528 
L 58 2810 
Q 58 2880 67 2889 
Q 77 2899 147 2899 
L 3053 2899 
Q 3123 2899 3132 2889 
Q 3142 2880 3142 2810 
z
M 3142 1446 
L 3142 1165 
Q 3142 1094 3132 1084 
Q 3123 1075 3053 1075 
L 147 1075 
Q 77 1075 67 1084 
Q 58 1094 58 1165 
L 58 1446 
Q 58 1517 67 1526 
Q 77 1536 147 1536 
L 3053 1536 
Q 3123 1536 3132 1526 
Q 3142 1517 3142 1446 
z
" transform="scale(0.015625)"/>
      <path id="NanumGothicCoding-31" d="M 2022 -211 
Q 2022 -301 1933 -301 
L 1670 -301 
Q 1581 -301 1581 -211 
L 1581 3565 
Q 1382 3398 1209 3251 
Q 1037 3104 845 2938 
Q 774 2880 717 2950 
L 589 3104 
Q 570 3136 570 3171 
Q 570 3206 602 3232 
L 1594 4064 
Q 1619 4090 1670 4090 
L 1843 4090 
Q 1978 4090 2000 4067 
Q 2022 4045 2022 3910 
L 2022 -211 
z
" transform="scale(0.015625)"/>
      <path id="NanumGothicCoding-c644" d="M 3757 3610 
Q 3757 3392 3670 3200 
Q 3584 3008 3424 2854 
Q 3264 2701 3033 2598 
Q 2803 2496 2515 2470 
L 2515 1734 
Q 3002 1747 3450 1769 
Q 3898 1792 4288 1837 
Q 4346 1843 4362 1827 
Q 4378 1811 4384 1779 
L 4410 1562 
Q 4416 1523 4400 1504 
Q 4384 1485 4326 1472 
Q 3808 1402 3171 1373 
Q 2534 1344 1894 1344 
L 563 1344 
Q 525 1344 496 1369 
Q 467 1395 467 1427 
L 467 1651 
Q 467 1690 496 1709 
Q 525 1728 563 1728 
L 1670 1728 
L 2074 1728 
L 2074 2470 
Q 1792 2496 1568 2598 
Q 1344 2701 1187 2851 
Q 1030 3002 947 3197 
Q 864 3392 864 3610 
Q 864 3872 963 4086 
Q 1062 4301 1251 4451 
Q 1440 4602 1705 4685 
Q 1971 4768 2298 4768 
Q 2611 4768 2876 4685 
Q 3142 4602 3337 4451 
Q 3533 4301 3645 4086 
Q 3757 3872 3757 3610 
z
M 3322 3616 
Q 3322 3802 3238 3939 
Q 3155 4077 3014 4169 
Q 2874 4262 2688 4307 
Q 2502 4352 2298 4352 
Q 2086 4352 1904 4307 
Q 1722 4262 1587 4169 
Q 1453 4077 1376 3939 
Q 1299 3802 1299 3616 
Q 1299 3443 1372 3302 
Q 1446 3162 1580 3066 
Q 1715 2970 1897 2918 
Q 2080 2867 2298 2867 
Q 2502 2867 2688 2921 
Q 2874 2976 3014 3075 
Q 3155 3174 3238 3312 
Q 3322 3450 3322 3616 
z
M 5120 698 
Q 5120 608 5030 608 
L 4768 608 
Q 4678 608 4678 698 
L 4678 4915 
Q 4678 5005 4768 5005 
L 5030 5005 
Q 5120 5005 5120 4915 
L 5120 2861 
L 6003 2861 
Q 6042 2861 6070 2838 
Q 6099 2816 6099 2778 
L 6099 2560 
Q 6099 2528 6070 2502 
Q 6042 2477 6003 2477 
L 5120 2477 
L 5120 698 
z
M 5408 -704 
Q 5408 -742 5376 -761 
Q 5344 -781 5312 -781 
L 2016 -781 
Q 1715 -781 1622 -665 
Q 1530 -550 1530 -288 
L 1530 762 
Q 1530 851 1619 851 
L 1882 851 
Q 1971 851 1971 762 
L 1971 -262 
Q 1971 -352 2000 -374 
Q 2029 -397 2118 -397 
L 5312 -397 
Q 5344 -397 5376 -419 
Q 5408 -442 5408 -474 
L 5408 -704 
z
" transform="scale(0.015625)"/>
      <path id="NanumGothicCoding-c804" d="M 3501 4038 
Q 3411 3770 3244 3494 
Q 3078 3219 2854 2950 
Q 3110 2650 3446 2384 
Q 3782 2118 4109 1946 
Q 4192 1907 4147 1824 
L 4000 1606 
Q 3981 1574 3942 1571 
Q 3904 1568 3872 1587 
Q 3546 1766 3210 2048 
Q 2874 2330 2586 2643 
Q 2221 2259 1785 1939 
Q 1350 1619 909 1414 
Q 877 1402 845 1392 
Q 813 1382 794 1414 
L 666 1638 
Q 646 1670 659 1705 
Q 672 1741 704 1754 
Q 1459 2138 2057 2707 
Q 2656 3277 3014 4013 
Q 3059 4102 3027 4140 
Q 2995 4179 2906 4179 
L 1030 4179 
Q 954 4179 954 4262 
L 954 4486 
Q 954 4563 1030 4563 
L 3078 4563 
Q 3411 4563 3507 4444 
Q 3603 4326 3501 4038 
z
M 4902 3296 
L 4902 4915 
Q 4902 5005 4992 5005 
L 5254 5005 
Q 5344 5005 5344 4915 
L 5344 781 
Q 5344 691 5254 691 
L 4992 691 
Q 4902 691 4902 781 
L 4902 2925 
L 3693 2925 
Q 3610 2925 3610 3002 
L 3610 3219 
Q 3610 3296 3693 3296 
L 4902 3296 
z
M 5542 -704 
Q 5542 -742 5510 -761 
Q 5478 -781 5446 -781 
L 2208 -781 
Q 1907 -781 1814 -669 
Q 1722 -557 1722 -294 
L 1722 922 
Q 1722 1011 1811 1011 
L 2074 1011 
Q 2163 1011 2163 922 
L 2163 -262 
Q 2163 -352 2192 -374 
Q 2221 -397 2310 -397 
L 5446 -397 
Q 5478 -397 5510 -419 
Q 5542 -442 5542 -474 
L 5542 -704 
z
" transform="scale(0.015625)"/>
      <path id="NanumGothicCoding-d788" d="M 5344 -806 
Q 5344 -896 5254 -896 
L 4992 -896 
Q 4902 -896 4902 -806 
L 4902 4915 
Q 4902 5005 4992 5005 
L 5254 5005 
Q 5344 5005 5344 4915 
L 5344 -806 
z
M 3379 4416 
Q 3379 4326 3283 4326 
L 1530 4326 
Q 1498 4326 1469 4348 
Q 1440 4371 1440 4410 
L 1440 4627 
Q 1440 4666 1465 4691 
Q 1491 4717 1523 4717 
L 3283 4717 
Q 3379 4717 3379 4627 
L 3379 4416 
z
M 4314 3328 
Q 4314 3245 4218 3245 
L 685 3245 
Q 653 3245 624 3270 
Q 595 3296 595 3334 
L 595 3539 
Q 595 3578 624 3603 
Q 653 3629 685 3629 
L 4218 3629 
Q 4314 3629 4314 3546 
L 4314 3328 
z
M 3834 1542 
Q 3834 1280 3728 1056 
Q 3622 832 3436 662 
Q 3251 493 2995 397 
Q 2739 301 2445 301 
Q 2144 301 1891 397 
Q 1638 493 1452 659 
Q 1267 826 1161 1053 
Q 1056 1280 1056 1542 
Q 1056 1811 1161 2038 
Q 1267 2266 1452 2432 
Q 1638 2598 1891 2694 
Q 2144 2790 2445 2790 
Q 2739 2790 2995 2691 
Q 3251 2592 3436 2425 
Q 3622 2259 3728 2028 
Q 3834 1798 3834 1542 
z
M 3398 1542 
Q 3398 1728 3328 1888 
Q 3258 2048 3130 2166 
Q 3002 2285 2826 2352 
Q 2650 2419 2445 2419 
Q 2240 2419 2064 2352 
Q 1888 2285 1760 2166 
Q 1632 2048 1558 1888 
Q 1485 1728 1485 1542 
Q 1485 1357 1558 1200 
Q 1632 1043 1760 924 
Q 1888 806 2064 739 
Q 2240 672 2445 672 
Q 2650 672 2826 739 
Q 3002 806 3130 921 
Q 3258 1037 3328 1197 
Q 3398 1357 3398 1542 
z
" transform="scale(0.015625)"/>
      <path id="NanumGothicCoding-ac19" d="M 5120 218 
Q 5120 134 5037 134 
L 1978 134 
L 1978 -378 
Q 1978 -467 2010 -505 
Q 2042 -544 2131 -544 
L 5178 -544 
Q 5261 -544 5261 -627 
L 5261 -826 
Q 5261 -915 5178 -915 
L 2016 -915 
Q 1734 -915 1632 -822 
Q 1530 -730 1530 -461 
L 1530 1088 
Q 1530 1357 1632 1449 
Q 1734 1542 2016 1542 
L 5069 1542 
Q 5152 1542 5152 1459 
L 5152 1261 
Q 5152 1171 5069 1171 
L 2131 1171 
Q 2042 1171 2010 1136 
Q 1978 1101 1978 1005 
L 1978 499 
L 5030 499 
Q 5120 499 5120 429 
L 5120 218 
z
M 3482 4326 
Q 3405 3904 3225 3545 
Q 3046 3187 2736 2867 
Q 2426 2547 1971 2262 
Q 1517 1978 890 1709 
Q 787 1664 749 1747 
L 653 1958 
Q 627 2010 649 2042 
Q 672 2074 704 2086 
Q 2771 2938 3002 4211 
Q 3040 4397 2848 4397 
L 877 4397 
Q 800 4397 800 4480 
L 800 4704 
Q 800 4781 877 4781 
L 2995 4781 
Q 3302 4781 3414 4672 
Q 3526 4563 3482 4326 
z
M 5120 1952 
Q 5120 1862 5030 1862 
L 4768 1862 
Q 4678 1862 4678 1952 
L 4678 4915 
Q 4678 5005 4768 5005 
L 5030 5005 
Q 5120 5005 5120 4915 
L 5120 3616 
L 6003 3616 
Q 6042 3616 6070 3593 
Q 6099 3571 6099 3533 
L 6099 3315 
Q 6099 3283 6070 3257 
Q 6042 3232 6003 3232 
L 5120 3232 
L 5120 1952 
z
" transform="scale(0.015625)"/>
      <path id="NanumGothicCoding-c740" d="M 5920 2022 
Q 5952 2022 5984 2000 
Q 6016 1978 6016 1939 
L 6016 1722 
Q 6016 1690 5984 1664 
Q 5952 1638 5920 1638 
L 480 1638 
Q 442 1638 413 1664 
Q 384 1690 384 1722 
L 384 1939 
Q 384 1978 413 2000 
Q 442 2022 480 2022 
L 5920 2022 
z
M 3200 2624 
Q 2893 2624 2544 2681 
Q 2195 2739 1897 2873 
Q 1600 3008 1405 3229 
Q 1210 3450 1210 3776 
Q 1210 4122 1405 4342 
Q 1600 4563 1897 4691 
Q 2195 4819 2544 4867 
Q 2893 4915 3200 4915 
Q 3514 4915 3866 4857 
Q 4218 4800 4512 4669 
Q 4806 4538 4998 4320 
Q 5190 4102 5190 3776 
Q 5190 3450 4998 3229 
Q 4806 3008 4512 2873 
Q 4218 2739 3866 2681 
Q 3514 2624 3200 2624 
z
M 3200 4518 
Q 2995 4518 2732 4489 
Q 2470 4461 2240 4381 
Q 2010 4301 1850 4153 
Q 1690 4006 1690 3770 
Q 1690 3533 1850 3385 
Q 2010 3238 2240 3158 
Q 2470 3078 2732 3049 
Q 2995 3021 3200 3021 
Q 3405 3021 3667 3049 
Q 3930 3078 4160 3158 
Q 4390 3238 4550 3385 
Q 4710 3533 4710 3770 
Q 4710 4006 4550 4153 
Q 4390 4301 4160 4381 
Q 3930 4461 3667 4489 
Q 3405 4518 3200 4518 
z
M 5325 -704 
Q 5325 -742 5293 -761 
Q 5261 -781 5229 -781 
L 1754 -781 
Q 1453 -781 1360 -656 
Q 1267 -531 1267 -269 
L 1267 1037 
Q 1267 1126 1357 1126 
L 1619 1126 
Q 1709 1126 1709 1037 
L 1709 -262 
Q 1709 -352 1737 -374 
Q 1766 -397 1856 -397 
L 5229 -397 
Q 5261 -397 5293 -419 
Q 5325 -442 5325 -474 
L 5325 -704 
z
" transform="scale(0.015625)"/>
      <path id="NanumGothicCoding-bc29" d="M 5197 250 
Q 5197 -26 5049 -243 
Q 4902 -461 4649 -611 
Q 4397 -762 4061 -842 
Q 3725 -922 3341 -922 
Q 2925 -922 2585 -842 
Q 2246 -762 2003 -611 
Q 1760 -461 1625 -243 
Q 1491 -26 1491 250 
Q 1491 518 1625 732 
Q 1760 947 2003 1097 
Q 2246 1248 2585 1328 
Q 2925 1408 3341 1408 
Q 3725 1408 4061 1328 
Q 4397 1248 4649 1101 
Q 4902 954 5049 739 
Q 5197 525 5197 250 
z
M 1350 1971 
Q 1197 1971 1104 1990 
Q 1011 2010 960 2064 
Q 909 2118 889 2204 
Q 870 2291 870 2426 
L 870 4730 
Q 870 4762 896 4784 
Q 922 4806 954 4806 
L 1229 4806 
Q 1261 4806 1283 4780 
Q 1306 4755 1306 4730 
L 1306 3731 
L 3174 3731 
L 3174 4723 
Q 3174 4755 3196 4780 
Q 3219 4806 3251 4806 
L 3526 4806 
Q 3558 4806 3584 4784 
Q 3610 4762 3610 4730 
L 3610 2381 
Q 3610 2138 3507 2054 
Q 3405 1971 3123 1971 
L 1350 1971 
z
M 4742 230 
Q 4742 422 4627 569 
Q 4512 717 4317 816 
Q 4122 915 3866 969 
Q 3610 1024 3334 1024 
Q 3027 1024 2771 969 
Q 2515 915 2332 816 
Q 2150 717 2048 569 
Q 1946 422 1946 230 
Q 1946 45 2048 -99 
Q 2150 -243 2332 -339 
Q 2515 -435 2771 -486 
Q 3027 -538 3334 -538 
Q 3610 -538 3866 -486 
Q 4122 -435 4317 -339 
Q 4512 -243 4627 -99 
Q 4742 45 4742 230 
z
M 5120 1530 
Q 5120 1440 5030 1440 
L 4768 1440 
Q 4678 1440 4678 1530 
L 4678 4915 
Q 4678 5005 4768 5005 
L 5030 5005 
Q 5120 5005 5120 4915 
L 5120 3373 
L 6003 3373 
Q 6042 3373 6070 3347 
Q 6099 3322 6099 3283 
L 6099 3072 
Q 6099 3040 6070 3014 
Q 6042 2989 6003 2989 
L 5120 2989 
L 5120 1530 
z
M 1306 3354 
L 1306 2502 
Q 1306 2406 1338 2377 
Q 1370 2349 1459 2349 
L 3021 2349 
Q 3110 2349 3142 2377 
Q 3174 2406 3174 2502 
L 3174 3354 
L 1306 3354 
z
" transform="scale(0.015625)"/>
      <path id="NanumGothicCoding-d5a5" d="M 5197 64 
Q 5197 -160 5049 -339 
Q 4902 -518 4649 -646 
Q 4397 -774 4061 -844 
Q 3725 -915 3341 -915 
Q 2925 -915 2585 -844 
Q 2246 -774 2003 -646 
Q 1760 -518 1625 -339 
Q 1491 -160 1491 64 
Q 1491 282 1625 458 
Q 1760 634 2003 762 
Q 2246 890 2585 960 
Q 2925 1030 3341 1030 
Q 3725 1030 4061 963 
Q 4397 896 4649 768 
Q 4902 640 5049 461 
Q 5197 282 5197 64 
z
M 3725 2413 
Q 3725 2182 3619 1993 
Q 3514 1805 3331 1664 
Q 3149 1523 2896 1446 
Q 2643 1370 2349 1370 
Q 2048 1370 1798 1446 
Q 1549 1523 1363 1664 
Q 1178 1805 1075 1997 
Q 973 2189 973 2413 
Q 973 2643 1075 2835 
Q 1178 3027 1363 3161 
Q 1549 3296 1798 3373 
Q 2048 3450 2349 3450 
Q 2643 3450 2896 3373 
Q 3149 3296 3331 3158 
Q 3514 3021 3619 2829 
Q 3725 2637 3725 2413 
z
M 4742 45 
Q 4742 192 4627 307 
Q 4512 422 4317 502 
Q 4122 582 3866 624 
Q 3610 666 3334 666 
Q 3027 666 2771 624 
Q 2515 582 2332 502 
Q 2150 422 2048 307 
Q 1946 192 1946 45 
Q 1946 -96 2048 -208 
Q 2150 -320 2332 -397 
Q 2515 -474 2771 -512 
Q 3027 -550 3334 -550 
Q 3610 -550 3866 -512 
Q 4122 -474 4317 -397 
Q 4512 -320 4627 -208 
Q 4742 -96 4742 45 
z
M 5120 1254 
Q 5120 1165 5030 1165 
L 4768 1165 
Q 4678 1165 4678 1254 
L 4678 4915 
Q 4678 5005 4768 5005 
L 5030 5005 
Q 5120 5005 5120 4915 
L 5120 3776 
L 6003 3776 
Q 6042 3776 6070 3753 
Q 6099 3731 6099 3693 
L 6099 3482 
Q 6099 3450 6070 3424 
Q 6042 3398 6003 3398 
L 5120 3398 
L 5120 2630 
L 6003 2630 
Q 6042 2630 6070 2608 
Q 6099 2586 6099 2547 
L 6099 2336 
Q 6099 2304 6070 2278 
Q 6042 2253 6003 2253 
L 5120 2253 
L 5120 1254 
z
M 3296 2413 
Q 3296 2566 3225 2691 
Q 3155 2816 3027 2902 
Q 2899 2989 2726 3037 
Q 2554 3085 2349 3085 
Q 2144 3085 1971 3037 
Q 1798 2989 1670 2902 
Q 1542 2816 1468 2691 
Q 1395 2566 1395 2413 
Q 1395 2259 1468 2134 
Q 1542 2010 1670 1920 
Q 1798 1830 1971 1782 
Q 2144 1734 2349 1734 
Q 2554 1734 2726 1782 
Q 2899 1830 3027 1920 
Q 3155 2010 3225 2134 
Q 3296 2259 3296 2413 
z
M 4218 3827 
Q 4218 3744 4122 3744 
L 589 3744 
Q 557 3744 528 3769 
Q 499 3795 499 3834 
L 499 4038 
Q 499 4077 528 4102 
Q 557 4128 589 4128 
L 4122 4128 
Q 4218 4128 4218 4045 
L 4218 3827 
z
M 3283 4608 
Q 3283 4518 3187 4518 
L 1434 4518 
Q 1402 4518 1373 4540 
Q 1344 4563 1344 4602 
L 1344 4819 
Q 1344 4858 1369 4883 
Q 1395 4909 1427 4909 
L 3187 4909 
Q 3283 4909 3283 4819 
L 3283 4608 
z
" transform="scale(0.015625)"/>
     </defs>
     <use xlink:href="#NanumGothicCoding-b0b4"/>
     <use xlink:href="#NanumGothicCoding-c801" transform="translate(99.999985 0)"/>
     <use xlink:href="#NanumGothicCoding-20" transform="translate(199.999969 0)"/>
     <use xlink:href="#NanumGothicCoding-3d" transform="translate(249.999954 0)"/>
     <use xlink:href="#NanumGothicCoding-20" transform="translate(299.999939 0)"/>
     <use xlink:href="#NanumGothicCoding-31" transform="translate(349.999924 0)"/>
     <use xlink:href="#NanumGothicCoding-20" transform="translate(399.999908 0)"/>
     <use xlink:href="#NanumGothicCoding-20" transform="translate(449.999893 0)"/>
     <use xlink:href="#NanumGothicCoding-20" transform="translate(499.999878 0)"/>
     <use xlink:href="#NanumGothicCoding-20" transform="translate(549.999863 0)"/>
     <use xlink:href="#NanumGothicCoding-c644" transform="translate(599.999847 0)"/>
     <use xlink:href="#NanumGothicCoding-c804" transform="translate(699.999832 0)"/>
     <use xlink:href="#NanumGothicCoding-d788" transform="translate(799.999817 0)"/>
     <use xlink:href="#NanumGothicCoding-20" transform="translate(899.999802 0)"/>
     <use xlink:href="#NanumGothicCoding-ac19" transform="translate(949.999786 0)"/>
     <use xlink:href="#NanumGothicCoding-c740" transform="translate(1049.999771 0)"/>
     <use xlink:href="#NanumGothicCoding-20" transform="translate(1149.999756 0)"/>
     <use xlink:href="#NanumGothicCoding-bc29" transform="translate(1199.999741 0)"/>
     <use xlink:href="#NanumGothicCoding-d5a5" transform="translate(1299.999725 0)"/>
    </g>
   </g>
   <g id="text_2">
    <!-- 내적 = 0    직각 -->
    <g style="fill: #111827" transform="translate(16.96464 40.059191) scale(0.11 -0.11)">
     <defs>
      <path id="NanumGothicCoding-30" d="M 1747 1242 
L 1453 1242 
Q 1376 1242 1376 1331 
L 1376 2355 
Q 1376 2445 1453 2445 
L 1747 2445 
Q 1824 2445 1824 2355 
L 1824 1331 
Q 1824 1242 1747 1242 
z
M 2470 1907 
Q 2483 3731 1600 3731 
Q 717 3731 730 1907 
Q 717 77 1600 77 
Q 2483 77 2470 1907 
z
M 2906 1907 
Q 2906 -326 1606 -326 
Q 294 -326 294 1907 
Q 294 2726 544 3354 
Q 909 4141 1606 4141 
Q 2285 4141 2662 3354 
Q 2790 3040 2848 2637 
Q 2906 2234 2906 1907 
z
" transform="scale(0.015625)"/>
      <path id="NanumGothicCoding-c9c1" d="M 3520 4166 
Q 3430 3917 3276 3667 
Q 3123 3418 2912 3174 
Q 3130 2950 3450 2739 
Q 3770 2528 4147 2368 
Q 4198 2349 4204 2313 
Q 4211 2278 4192 2246 
L 4064 2016 
Q 4045 1984 4006 1981 
Q 3968 1978 3936 1990 
Q 3795 2054 3632 2144 
Q 3469 2234 3296 2349 
Q 3123 2464 2953 2598 
Q 2784 2733 2637 2880 
Q 2266 2515 1821 2211 
Q 1376 1907 915 1702 
Q 883 1690 851 1683 
Q 819 1677 800 1709 
L 672 1933 
Q 653 1965 669 2000 
Q 685 2035 717 2048 
Q 1542 2445 2124 2957 
Q 2707 3469 3034 4141 
Q 3078 4230 3046 4268 
Q 3014 4307 2925 4307 
L 1050 4307 
Q 973 4307 973 4390 
L 973 4614 
Q 973 4691 1050 4691 
L 3098 4691 
Q 3430 4691 3526 4572 
Q 3622 4454 3520 4166 
z
M 1613 1133 
Q 1613 1171 1645 1190 
Q 1677 1210 1709 1210 
L 4858 1210 
Q 5158 1210 5251 1098 
Q 5344 986 5344 723 
L 5344 -832 
Q 5344 -922 5254 -922 
L 4992 -922 
Q 4902 -922 4902 -832 
L 4902 691 
Q 4902 781 4873 803 
Q 4845 826 4755 826 
L 1709 826 
Q 1677 826 1645 848 
Q 1613 870 1613 902 
L 1613 1133 
z
M 5344 1658 
Q 5344 1568 5254 1568 
L 4992 1568 
Q 4902 1568 4902 1658 
L 4902 4915 
Q 4902 5005 4992 5005 
L 5254 5005 
Q 5344 5005 5344 4915 
L 5344 1658 
z
" transform="scale(0.015625)"/>
      <path id="NanumGothicCoding-ac01" d="M 3482 4243 
Q 3334 3354 2707 2675 
Q 2080 1997 890 1498 
Q 787 1453 749 1536 
L 653 1747 
Q 627 1798 649 1830 
Q 672 1862 704 1875 
Q 1722 2298 2301 2880 
Q 2880 3462 3002 4134 
Q 3040 4314 2848 4314 
L 877 4314 
Q 800 4314 800 4397 
L 800 4621 
Q 800 4698 877 4698 
L 2995 4698 
Q 3302 4698 3411 4589 
Q 3520 4480 3482 4243 
z
M 1389 1165 
Q 1389 1203 1421 1222 
Q 1453 1242 1485 1242 
L 4634 1242 
Q 4934 1242 5027 1130 
Q 5120 1018 5120 755 
L 5120 -832 
Q 5120 -922 5030 -922 
L 4768 -922 
Q 4678 -922 4678 -832 
L 4678 723 
Q 4678 813 4649 835 
Q 4621 858 4531 858 
L 1485 858 
Q 1453 858 1421 880 
Q 1389 902 1389 934 
L 1389 1165 
z
M 5120 1664 
Q 5120 1574 5030 1574 
L 4768 1574 
Q 4678 1574 4678 1664 
L 4678 4915 
Q 4678 5005 4768 5005 
L 5030 5005 
Q 5120 5005 5120 4915 
L 5120 3366 
L 6003 3366 
Q 6042 3366 6070 3344 
Q 6099 3322 6099 3283 
L 6099 3066 
Q 6099 3034 6070 3008 
Q 6042 2982 6003 2982 
L 5120 2982 
L 5120 1664 
z
" transform="scale(0.015625)"/>
     </defs>
     <use xlink:href="#NanumGothicCoding-b0b4"/>
     <use xlink:href="#NanumGothicCoding-c801" transform="translate(99.999985 0)"/>
     <use xlink:href="#NanumGothicCoding-20" transform="translate(199.999969 0)"/>
     <use xlink:href="#NanumGothicCoding-3d" transform="translate(249.999954 0)"/>
     <use xlink:href="#NanumGothicCoding-20" transform="translate(299.999939 0)"/>
     <use xlink:href="#NanumGothicCoding-30" transform="translate(349.999924 0)"/>
     <use xlink:href="#NanumGothicCoding-20" transform="translate(399.999908 0)"/>
     <use xlink:href="#NanumGothicCoding-20" transform="translate(449.999893 0)"/>
     <use xlink:href="#NanumGothicCoding-20" transform="translate(499.999878 0)"/>
     <use xlink:href="#NanumGothicCoding-20" transform="translate(549.999863 0)"/>
     <use xlink:href="#NanumGothicCoding-c9c1" transform="translate(599.999847 0)"/>
     <use xlink:href="#NanumGothicCoding-ac01" transform="translate(699.999832 0)"/>
    </g>
   </g>
   <g id="text_3">
    <!-- 내적 = -1   완전히 반대 방향 -->
    <g style="fill: #111827" transform="translate(16.96464 52.621895) scale(0.11 -0.11)">
     <defs>
      <path id="NanumGothicCoding-2d" d="M 2938 2131 
L 2938 1850 
Q 2938 1779 2928 1769 
Q 2918 1760 2848 1760 
L 352 1760 
Q 282 1760 272 1769 
Q 262 1779 262 1850 
L 262 2131 
Q 262 2202 272 2211 
Q 282 2221 352 2221 
L 2848 2221 
Q 2918 2221 2928 2211 
Q 2938 2202 2938 2131 
z
" transform="scale(0.015625)"/>
      <path id="NanumGothicCoding-bc18" d="M 1350 1715 
Q 1197 1715 1104 1734 
Q 1011 1754 960 1808 
Q 909 1862 889 1948 
Q 870 2035 870 2170 
L 870 4691 
Q 870 4723 896 4745 
Q 922 4768 954 4768 
L 1229 4768 
Q 1261 4768 1283 4742 
Q 1306 4717 1306 4691 
L 1306 3584 
L 3168 3584 
L 3168 4685 
Q 3168 4717 3190 4742 
Q 3213 4768 3245 4768 
L 3520 4768 
Q 3552 4768 3577 4745 
Q 3603 4723 3603 4691 
L 3603 2125 
Q 3603 1882 3500 1798 
Q 3398 1715 3117 1715 
L 1350 1715 
z
M 5120 832 
Q 5120 742 5030 742 
L 4768 742 
Q 4678 742 4678 832 
L 4678 4915 
Q 4678 5005 4768 5005 
L 5030 5005 
Q 5120 5005 5120 4915 
L 5120 3130 
L 6003 3130 
Q 6042 3130 6070 3107 
Q 6099 3085 6099 3046 
L 6099 2829 
Q 6099 2797 6070 2771 
Q 6042 2746 6003 2746 
L 5120 2746 
L 5120 832 
z
M 5408 -704 
Q 5408 -742 5376 -761 
Q 5344 -781 5312 -781 
L 2054 -781 
Q 1754 -781 1661 -669 
Q 1568 -557 1568 -294 
L 1568 960 
Q 1568 1050 1658 1050 
L 1920 1050 
Q 2010 1050 2010 960 
L 2010 -262 
Q 2010 -352 2038 -374 
Q 2067 -397 2157 -397 
L 5312 -397 
Q 5344 -397 5376 -419 
Q 5408 -442 5408 -474 
L 5408 -704 
z
M 1306 3206 
L 1306 2246 
Q 1306 2150 1338 2121 
Q 1370 2093 1459 2093 
L 3014 2093 
Q 3104 2093 3136 2121 
Q 3168 2150 3168 2246 
L 3168 3206 
L 1306 3206 
z
" transform="scale(0.015625)"/>
      <path id="NanumGothicCoding-b300" d="M 4320 2586 
L 5133 2586 
L 5133 4915 
Q 5133 5005 5222 5005 
L 5466 5005 
Q 5555 5005 5555 4915 
L 5555 -806 
Q 5555 -896 5466 -896 
L 5222 -896 
Q 5133 -896 5133 -806 
L 5133 2202 
L 4320 2202 
L 4320 -563 
Q 4320 -653 4230 -653 
L 3987 -653 
Q 3898 -653 3898 -563 
L 3898 4806 
Q 3898 4896 3987 4896 
L 4230 4896 
Q 4320 4896 4320 4806 
L 4320 2586 
z
M 3590 1082 
Q 3603 992 3507 973 
Q 3059 864 2476 816 
Q 1894 768 1286 781 
Q 998 787 892 915 
Q 787 1043 787 1312 
L 787 4019 
Q 787 4288 889 4377 
Q 992 4467 1274 4467 
L 3027 4467 
Q 3110 4467 3110 4390 
L 3110 4160 
Q 3110 4083 3027 4083 
L 1357 4083 
Q 1267 4083 1248 4060 
Q 1229 4038 1229 3942 
L 1229 1344 
Q 1229 1248 1261 1216 
Q 1293 1184 1382 1178 
Q 1939 1158 2438 1196 
Q 2938 1235 3437 1344 
Q 3539 1363 3558 1274 
L 3590 1082 
z
" transform="scale(0.015625)"/>
     </defs>
     <use xlink:href="#NanumGothicCoding-b0b4"/>
     <use xlink:href="#NanumGothicCoding-c801" transform="translate(99.999985 0)"/>
     <use xlink:href="#NanumGothicCoding-20" transform="translate(199.999969 0)"/>
     <use xlink:href="#NanumGothicCoding-3d" transform="translate(249.999954 0)"/>
     <use xlink:href="#NanumGothicCoding-20" transform="translate(299.999939 0)"/>
     <use xlink:href="#NanumGothicCoding-2d" transform="translate(349.999924 0)"/>
     <use xlink:href="#NanumGothicCoding-31" transform="translate(399.999908 0)"/>
     <use xlink:href="#NanumGothicCoding-20" transform="translate(449.999893 0)"/>
     <use xlink:href="#NanumGothicCoding-20" transform="translate(499.999878 0)"/>
     <use xlink:href="#NanumGothicCoding-20" transform="translate(549.999863 0)"/>
     <use xlink:href="#NanumGothicCoding-c644" transform="translate(599.999847 0)"/>
     <use xlink:href="#NanumGothicCoding-c804" transform="translate(699.999832 0)"/>
     <use xlink:href="#NanumGothicCoding-d788" transform="translate(799.999817 0)"/>
     <use xlink:href="#NanumGothicCoding-20" transform="translate(899.999802 0)"/>
     <use xlink:href="#NanumGothicCoding-bc18" transform="translate(949.999786 0)"/>
     <use xlink:href="#NanumGothicCoding-b300" transform="translate(1049.999771 0)"/>
     <use xlink:href="#NanumGothicCoding-20" transform="translate(1149.999756 0)"/>
     <use xlink:href="#NanumGothicCoding-bc29" transform="translate(1199.999741 0)"/>
     <use xlink:href="#NanumGothicCoding-d5a5" transform="translate(1299.999725 0)"/>
    </g>
   </g>
  </g>
 </g>
 <defs>
  <clipPath id="pcd7d78f575">
   <rect x="5.76" y="5.76" width="280.116" height="114.2064"/>
  </clipPath>
 </defs>
</svg>
