<?xml version="1.0" encoding="utf-8" standalone="no"?>
<!DOCTYPE svg PUBLIC "-//W3C//DTD SVG 1.1//EN"
  "http://www.w3.org/Graphics/SVG/1.1/DTD/svg11.dtd">
<svg xmlns:xlink="http://www.w3.org/1999/xlink" width="402.12pt" height="149.0112pt" viewBox="0 0 402.12 149.0112" xmlns="http://www.w3.org/2000/svg" version="1.1">
 <metadata>
  <rdf:RDF xmlns:dc="http://purl.org/dc/elements/1.1/" xmlns:cc="http://creativecommons.org/ns#" xmlns:rdf="http://www.w3.org/1999/02/22-rdf-syntax-ns#">
   <cc:Work>
    <dc:type rdf:resource="http://purl.org/dc/dcmitype/StillImage"/>
    <dc:date>2026-07-08T05:12:55.668833</dc:date>
    <dc:format>image/svg+xml</dc:format>
    <dc:creator>
     <cc:Agent>
      <dc:title>Matplotlib v3.10.8, https://matplotlib.org/</dc:title>
     </cc:Agent>
    </dc:creator>
   </cc:Work>
  </rdf:RDF>
 </metadata>
 <defs>
  <style type="text/css">*{stroke-linejoin: round; stroke-linecap: butt}</style>
 </defs>
 <g id="figure_1">
  <g id="patch_1">
   <path d="M 0 149.0112 
L 402.12 149.0112 
L 402.12 0 
L 0 0 
z
" style="fill: #ffffff"/>
  </g>
  <g id="axes_1">
   <g id="patch_2">
    <path d="M 5.76 143.2512 
L 396.36 143.2512 
L 396.36 5.76 
L 5.76 5.76 
z
" clip-path="url(#p6459d62e72)" style="fill: #ffffff; stroke: #e5e7eb; stroke-linejoin: miter"/>
   </g>
   <g id="text_1">
    <!-- v를 둘로 나누어 생각한다. -->
    <g style="fill: #111827" transform="translate(21.384 30.323319) scale(0.11 -0.11)">
     <defs>
      <path id="NanumGothicCoding-76" d="M 1856 -192 
Q 1824 -275 1728 -275 
L 1414 -275 
Q 1318 -275 1293 -192 
L 282 2842 
Q 269 2874 288 2902 
Q 307 2931 346 2931 
L 627 2931 
Q 704 2931 742 2842 
L 1581 166 
L 2458 2842 
Q 2470 2880 2502 2905 
Q 2534 2931 2573 2931 
L 2854 2931 
Q 2893 2931 2912 2902 
Q 2931 2874 2918 2842 
L 1856 -192 
z
" transform="scale(0.015625)"/>
      <path id="NanumGothicCoding-b97c" d="M 5920 2278 
Q 5952 2278 5984 2256 
Q 6016 2234 6016 2195 
L 6016 1978 
Q 6016 1946 5984 1920 
Q 5952 1894 5920 1894 
L 480 1894 
Q 442 1894 413 1920 
Q 384 1946 384 1978 
L 384 2195 
Q 384 2234 413 2256 
Q 442 2278 480 2278 
L 5920 2278 
z
M 5254 -781 
Q 5254 -813 5225 -835 
Q 5197 -858 5171 -858 
L 1760 -858 
Q 1459 -858 1366 -746 
Q 1274 -634 1274 -365 
L 1274 13 
Q 1274 282 1386 374 
Q 1498 467 1786 467 
L 4544 467 
Q 4634 467 4656 492 
Q 4678 518 4678 614 
L 4678 858 
Q 4678 954 4656 979 
Q 4634 1005 4544 1005 
L 1350 1005 
Q 1318 1005 1289 1024 
Q 1261 1043 1261 1075 
L 1261 1299 
Q 1261 1331 1289 1350 
Q 1318 1370 1350 1370 
L 4608 1370 
Q 4762 1370 4858 1347 
Q 4954 1325 5011 1273 
Q 5069 1222 5091 1129 
Q 5114 1037 5114 902 
L 5114 557 
Q 5114 288 5002 195 
Q 4890 102 4602 102 
L 1843 102 
Q 1754 102 1731 76 
Q 1709 51 1709 -45 
L 1709 -339 
Q 1709 -429 1734 -457 
Q 1760 -486 1850 -486 
L 5165 -486 
Q 5197 -486 5225 -505 
Q 5254 -525 5254 -557 
L 5254 -781 
z
M 5203 2880 
Q 5203 2848 5174 2825 
Q 5146 2803 5120 2803 
L 1786 2803 
Q 1485 2803 1392 2915 
Q 1299 3027 1299 3296 
L 1299 3642 
Q 1299 3910 1411 4003 
Q 1523 4096 1811 4096 
L 4525 4096 
Q 4614 4096 4636 4118 
Q 4659 4141 4659 4243 
L 4659 4506 
Q 4659 4602 4636 4627 
Q 4614 4653 4525 4653 
L 1389 4653 
Q 1357 4653 1328 4672 
Q 1299 4691 1299 4723 
L 1299 4954 
Q 1299 4986 1328 5005 
Q 1357 5024 1389 5024 
L 4595 5024 
Q 4749 5024 4845 5001 
Q 4941 4979 4998 4928 
Q 5056 4877 5078 4784 
Q 5101 4691 5101 4557 
L 5101 4186 
Q 5101 3910 4989 3820 
Q 4877 3731 4589 3731 
L 1869 3731 
Q 1779 3731 1756 3705 
Q 1734 3680 1734 3584 
L 1734 3315 
Q 1734 3226 1760 3197 
Q 1786 3168 1875 3168 
L 5114 3168 
Q 5146 3168 5174 3149 
Q 5203 3130 5203 3098 
L 5203 2880 
z
" transform="scale(0.015625)"/>
      <path id="NanumGothicCoding-20" transform="scale(0.015625)"/>
      <path id="NanumGothicCoding-b458" d="M 5248 -781 
Q 5248 -813 5219 -835 
Q 5190 -858 5165 -858 
L 1760 -858 
Q 1459 -858 1366 -746 
Q 1274 -634 1274 -365 
L 1274 45 
Q 1274 314 1386 406 
Q 1498 499 1786 499 
L 4538 499 
Q 4627 499 4652 524 
Q 4678 550 4678 646 
L 4678 954 
Q 4678 1050 4656 1075 
Q 4634 1101 4544 1101 
L 1350 1101 
Q 1318 1101 1289 1120 
Q 1261 1139 1261 1171 
L 1261 1395 
Q 1261 1427 1289 1446 
Q 1318 1466 1350 1466 
L 2970 1466 
L 2970 2093 
L 480 2093 
Q 442 2093 413 2118 
Q 384 2144 384 2176 
L 384 2394 
Q 384 2432 413 2454 
Q 442 2477 480 2477 
L 5920 2477 
Q 5952 2477 5984 2454 
Q 6016 2432 6016 2394 
L 6016 2176 
Q 6016 2144 5984 2118 
Q 5952 2093 5920 2093 
L 3411 2093 
L 3411 1466 
L 4608 1466 
Q 4762 1466 4858 1443 
Q 4954 1421 5011 1369 
Q 5069 1318 5091 1225 
Q 5114 1133 5114 998 
L 5114 589 
Q 5114 320 5002 227 
Q 4890 134 4602 134 
L 1843 134 
Q 1754 134 1731 108 
Q 1709 83 1709 -13 
L 1709 -339 
Q 1709 -429 1734 -457 
Q 1760 -486 1850 -486 
L 5158 -486 
Q 5190 -486 5219 -505 
Q 5248 -525 5248 -557 
L 5248 -781 
z
M 5171 3098 
Q 5171 3008 5088 3008 
L 1786 3008 
Q 1504 3008 1401 3101 
Q 1299 3194 1299 3462 
L 1299 4525 
Q 1299 4794 1401 4886 
Q 1504 4979 1786 4979 
L 5043 4979 
Q 5126 4979 5126 4896 
L 5126 4685 
Q 5126 4595 5043 4595 
L 1894 4595 
Q 1805 4595 1773 4560 
Q 1741 4525 1741 4429 
L 1741 3558 
Q 1741 3469 1773 3430 
Q 1805 3392 1894 3392 
L 5088 3392 
Q 5171 3392 5171 3309 
L 5171 3098 
z
" transform="scale(0.015625)"/>
      <path id="NanumGothicCoding-b85c" d="M 2963 499 
L 2963 1613 
L 1683 1613 
Q 1382 1613 1289 1725 
Q 1197 1837 1197 2106 
L 1197 2906 
Q 1197 3181 1309 3270 
Q 1421 3360 1709 3360 
L 4595 3360 
Q 4685 3360 4707 3385 
Q 4730 3411 4730 3507 
L 4730 4173 
Q 4730 4269 4707 4294 
Q 4685 4320 4595 4320 
L 1286 4320 
Q 1254 4320 1225 4339 
Q 1197 4358 1197 4390 
L 1197 4634 
Q 1197 4666 1225 4685 
Q 1254 4704 1286 4704 
L 4666 4704 
Q 4819 4704 4915 4681 
Q 5011 4659 5068 4608 
Q 5126 4557 5148 4464 
Q 5171 4371 5171 4237 
L 5171 3437 
Q 5171 3162 5059 3072 
Q 4947 2982 4659 2982 
L 1773 2982 
Q 1683 2982 1660 2956 
Q 1638 2931 1638 2835 
L 1638 2144 
Q 1638 2054 1664 2025 
Q 1690 1997 1779 1997 
L 5216 1997 
Q 5248 1997 5277 1977 
Q 5306 1958 5306 1926 
L 5306 1690 
Q 5306 1658 5277 1635 
Q 5248 1613 5222 1613 
L 3405 1613 
L 3405 499 
L 5920 499 
Q 5952 499 5984 476 
Q 6016 454 6016 416 
L 6016 198 
Q 6016 166 5984 140 
Q 5952 115 5920 115 
L 480 115 
Q 442 115 413 140 
Q 384 166 384 198 
L 384 416 
Q 384 454 413 476 
Q 442 499 480 499 
L 2963 499 
z
" transform="scale(0.015625)"/>
      <path id="NanumGothicCoding-b098" d="M 5120 -806 
Q 5120 -896 5030 -896 
L 4768 -896 
Q 4678 -896 4678 -806 
L 4678 4915 
Q 4678 5005 4768 5005 
L 5030 5005 
Q 5120 5005 5120 4915 
L 5120 2586 
L 6003 2586 
Q 6042 2586 6070 2563 
Q 6099 2541 6099 2502 
L 6099 2285 
Q 6099 2253 6070 2227 
Q 6042 2202 6003 2202 
L 5120 2202 
L 5120 -806 
z
M 1350 1440 
Q 1350 1344 1382 1312 
Q 1414 1280 1504 1274 
Q 2118 1254 2784 1328 
Q 3450 1402 4051 1517 
Q 4160 1542 4179 1440 
L 4211 1261 
Q 4230 1171 4128 1146 
Q 3891 1088 3548 1037 
Q 3206 986 2828 947 
Q 2451 909 2076 889 
Q 1702 870 1414 877 
Q 1126 883 1017 1011 
Q 909 1139 909 1408 
L 909 4557 
Q 909 4646 998 4646 
L 1261 4646 
Q 1350 4646 1350 4557 
L 1350 1440 
z
" transform="scale(0.015625)"/>
      <path id="NanumGothicCoding-b204" d="M 3046 -858 
Q 3014 -858 2988 -829 
Q 2963 -800 2963 -762 
L 2963 1267 
L 480 1267 
Q 442 1267 413 1292 
Q 384 1318 384 1350 
L 384 1568 
Q 384 1606 413 1628 
Q 442 1651 480 1651 
L 5920 1651 
Q 5952 1651 5984 1628 
Q 6016 1606 6016 1568 
L 6016 1350 
Q 6016 1318 5984 1292 
Q 5952 1267 5920 1267 
L 3405 1267 
L 3405 -762 
Q 3405 -800 3382 -829 
Q 3360 -858 3322 -858 
L 3046 -858 
z
M 5293 2598 
Q 5293 2560 5261 2541 
Q 5229 2522 5197 2522 
L 1760 2522 
Q 1459 2522 1366 2646 
Q 1274 2771 1274 3034 
L 1274 4826 
Q 1274 4915 1363 4915 
L 1626 4915 
Q 1715 4915 1715 4826 
L 1715 3040 
Q 1715 2950 1744 2928 
Q 1773 2906 1862 2906 
L 5197 2906 
Q 5229 2906 5261 2883 
Q 5293 2861 5293 2829 
L 5293 2598 
z
" transform="scale(0.015625)"/>
      <path id="NanumGothicCoding-c5b4" d="M 5344 -806 
Q 5344 -896 5254 -896 
L 4992 -896 
Q 4902 -896 4902 -806 
L 4902 2381 
L 3757 2381 
Q 3738 2042 3638 1709 
Q 3539 1376 3353 1110 
Q 3168 845 2889 678 
Q 2611 512 2227 512 
Q 1805 512 1513 697 
Q 1222 883 1046 1180 
Q 870 1478 793 1843 
Q 717 2208 717 2566 
Q 717 2944 793 3312 
Q 870 3680 1046 3974 
Q 1222 4269 1513 4448 
Q 1805 4627 2227 4627 
Q 2611 4627 2889 4470 
Q 3168 4314 3353 4051 
Q 3539 3789 3638 3453 
Q 3738 3117 3757 2765 
L 4902 2765 
L 4902 4915 
Q 4902 5005 4992 5005 
L 5254 5005 
Q 5344 5005 5344 4915 
L 5344 -806 
z
M 3309 2573 
Q 3309 2861 3248 3155 
Q 3187 3450 3059 3686 
Q 2931 3923 2726 4070 
Q 2522 4218 2227 4218 
Q 1920 4218 1718 4070 
Q 1517 3923 1395 3686 
Q 1274 3450 1222 3155 
Q 1171 2861 1171 2573 
Q 1171 2298 1219 2003 
Q 1267 1709 1388 1469 
Q 1510 1229 1715 1075 
Q 1920 922 2227 922 
Q 2522 922 2726 1075 
Q 2931 1229 3059 1469 
Q 3187 1709 3248 2003 
Q 3309 2298 3309 2573 
z
" transform="scale(0.015625)"/>
      <path id="NanumGothicCoding-c0dd" d="M 1626 250 
Q 1626 525 1773 739 
Q 1920 954 2185 1104 
Q 2451 1254 2812 1331 
Q 3174 1408 3610 1408 
Q 4006 1408 4364 1331 
Q 4723 1254 4998 1107 
Q 5274 960 5434 745 
Q 5594 531 5594 250 
Q 5594 -32 5434 -253 
Q 5274 -474 4998 -621 
Q 4723 -768 4364 -845 
Q 4006 -922 3610 -922 
Q 3174 -922 2812 -845 
Q 2451 -768 2185 -621 
Q 1920 -474 1773 -253 
Q 1626 -32 1626 250 
z
M 2099 230 
Q 2099 38 2211 -106 
Q 2323 -250 2524 -346 
Q 2726 -442 3001 -490 
Q 3277 -538 3603 -538 
Q 3891 -538 4166 -490 
Q 4442 -442 4653 -346 
Q 4864 -250 4995 -106 
Q 5126 38 5126 230 
Q 5126 429 4995 576 
Q 4864 723 4653 822 
Q 4442 922 4166 973 
Q 3891 1024 3603 1024 
Q 3277 1024 3001 973 
Q 2726 922 2524 822 
Q 2323 723 2211 576 
Q 2099 429 2099 230 
z
M 4320 1773 
Q 4320 1683 4230 1683 
L 3987 1683 
Q 3898 1683 3898 1773 
L 3898 4806 
Q 3898 4896 3987 4896 
L 4230 4896 
Q 4320 4896 4320 4806 
L 4320 3392 
L 5133 3392 
L 5133 4915 
Q 5133 5005 5222 5005 
L 5466 5005 
Q 5555 5005 5555 4915 
L 5555 1574 
Q 5555 1485 5466 1485 
L 5222 1485 
Q 5133 1485 5133 1574 
L 5133 3008 
L 4320 3008 
L 4320 1773 
z
M 2323 4704 
Q 2317 4218 2189 3776 
Q 2266 3552 2394 3334 
Q 2522 3117 2685 2925 
Q 2848 2733 3040 2576 
Q 3232 2419 3430 2317 
Q 3501 2278 3450 2202 
L 3296 1984 
Q 3277 1958 3254 1955 
Q 3232 1952 3174 1984 
Q 2822 2202 2508 2541 
Q 2195 2880 1990 3245 
Q 1805 2854 1526 2505 
Q 1248 2157 858 1837 
Q 806 1798 771 1798 
Q 736 1798 723 1818 
L 544 2022 
Q 486 2093 576 2157 
Q 902 2413 1139 2694 
Q 1376 2976 1536 3293 
Q 1696 3610 1779 3962 
Q 1862 4314 1875 4710 
Q 1869 4755 1894 4784 
Q 1920 4813 1952 4813 
L 2253 4794 
Q 2323 4794 2323 4704 
z
" transform="scale(0.015625)"/>
      <path id="NanumGothicCoding-ac01" d="M 3482 4243 
Q 3334 3354 2707 2675 
Q 2080 1997 890 1498 
Q 787 1453 749 1536 
L 653 1747 
Q 627 1798 649 1830 
Q 672 1862 704 1875 
Q 1722 2298 2301 2880 
Q 2880 3462 3002 4134 
Q 3040 4314 2848 4314 
L 877 4314 
Q 800 4314 800 4397 
L 800 4621 
Q 800 4698 877 4698 
L 2995 4698 
Q 3302 4698 3411 4589 
Q 3520 4480 3482 4243 
z
M 1389 1165 
Q 1389 1203 1421 1222 
Q 1453 1242 1485 1242 
L 4634 1242 
Q 4934 1242 5027 1130 
Q 5120 1018 5120 755 
L 5120 -832 
Q 5120 -922 5030 -922 
L 4768 -922 
Q 4678 -922 4678 -832 
L 4678 723 
Q 4678 813 4649 835 
Q 4621 858 4531 858 
L 1485 858 
Q 1453 858 1421 880 
Q 1389 902 1389 934 
L 1389 1165 
z
M 5120 1664 
Q 5120 1574 5030 1574 
L 4768 1574 
Q 4678 1574 4678 1664 
L 4678 4915 
Q 4678 5005 4768 5005 
L 5030 5005 
Q 5120 5005 5120 4915 
L 5120 3366 
L 6003 3366 
Q 6042 3366 6070 3344 
Q 6099 3322 6099 3283 
L 6099 3066 
Q 6099 3034 6070 3008 
Q 6042 2982 6003 2982 
L 5120 2982 
L 5120 1664 
z
" transform="scale(0.015625)"/>
      <path id="NanumGothicCoding-d55c" d="M 3680 2170 
Q 3680 1939 3577 1734 
Q 3475 1530 3299 1376 
Q 3123 1222 2880 1136 
Q 2637 1050 2355 1050 
Q 2074 1050 1830 1136 
Q 1587 1222 1411 1376 
Q 1235 1530 1136 1734 
Q 1037 1939 1037 2170 
Q 1037 2400 1136 2601 
Q 1235 2803 1411 2953 
Q 1587 3104 1830 3190 
Q 2074 3277 2355 3277 
Q 2637 3277 2880 3190 
Q 3123 3104 3299 2953 
Q 3475 2803 3577 2601 
Q 3680 2400 3680 2170 
z
M 5120 544 
Q 5120 454 5030 454 
L 4768 454 
Q 4678 454 4678 544 
L 4678 4915 
Q 4678 5005 4768 5005 
L 5030 5005 
Q 5120 5005 5120 4915 
L 5120 2797 
L 6003 2797 
Q 6042 2797 6070 2774 
Q 6099 2752 6099 2714 
L 6099 2496 
Q 6099 2464 6070 2438 
Q 6042 2413 6003 2413 
L 5120 2413 
L 5120 544 
z
M 3245 2170 
Q 3245 2323 3177 2454 
Q 3110 2586 2992 2682 
Q 2874 2778 2710 2832 
Q 2547 2886 2355 2886 
Q 2163 2886 2003 2832 
Q 1843 2778 1721 2682 
Q 1600 2586 1533 2454 
Q 1466 2323 1466 2170 
Q 1466 2016 1533 1881 
Q 1600 1747 1721 1651 
Q 1843 1555 2003 1497 
Q 2163 1440 2355 1440 
Q 2547 1440 2710 1497 
Q 2874 1555 2992 1651 
Q 3110 1747 3177 1881 
Q 3245 2016 3245 2170 
z
M 5408 -723 
Q 5408 -762 5376 -781 
Q 5344 -800 5312 -800 
L 2010 -800 
Q 1709 -800 1616 -688 
Q 1523 -576 1523 -314 
L 1523 570 
Q 1523 659 1613 659 
L 1875 659 
Q 1965 659 1965 570 
L 1965 -288 
Q 1965 -378 1993 -397 
Q 2022 -416 2112 -416 
L 5312 -416 
Q 5344 -416 5376 -438 
Q 5408 -461 5408 -493 
L 5408 -723 
z
M 4218 3667 
Q 4218 3584 4122 3584 
L 589 3584 
Q 557 3584 528 3609 
Q 499 3635 499 3674 
L 499 3878 
Q 499 3917 528 3942 
Q 557 3968 589 3968 
L 4122 3968 
Q 4218 3968 4218 3885 
L 4218 3667 
z
M 3283 4538 
Q 3283 4454 3187 4454 
L 1434 4454 
Q 1402 4454 1373 4473 
Q 1344 4493 1344 4531 
L 1344 4755 
Q 1344 4794 1369 4819 
Q 1395 4845 1427 4845 
L 3187 4845 
Q 3283 4845 3283 4755 
L 3283 4538 
z
" transform="scale(0.015625)"/>
      <path id="NanumGothicCoding-b2e4" d="M 4211 1171 
Q 4224 1082 4128 1062 
Q 3891 1005 3529 953 
Q 3168 902 2768 864 
Q 2368 826 1977 806 
Q 1587 787 1299 794 
Q 1011 800 905 928 
Q 800 1056 800 1325 
L 800 4077 
Q 800 4346 902 4435 
Q 1005 4525 1286 4525 
L 3488 4525 
Q 3571 4525 3571 4448 
L 3571 4218 
Q 3571 4141 3488 4141 
L 1370 4141 
Q 1280 4141 1261 4118 
Q 1242 4096 1242 4000 
L 1242 1357 
Q 1242 1261 1274 1229 
Q 1306 1197 1395 1190 
Q 1702 1178 2044 1194 
Q 2387 1210 2736 1245 
Q 3085 1280 3421 1328 
Q 3757 1376 4058 1434 
Q 4160 1453 4179 1363 
L 4211 1171 
z
M 5120 -806 
Q 5120 -896 5030 -896 
L 4768 -896 
Q 4678 -896 4678 -806 
L 4678 4915 
Q 4678 5005 4768 5005 
L 5030 5005 
Q 5120 5005 5120 4915 
L 5120 2586 
L 6003 2586 
Q 6042 2586 6070 2563 
Q 6099 2541 6099 2502 
L 6099 2285 
Q 6099 2253 6070 2227 
Q 6042 2202 6003 2202 
L 5120 2202 
L 5120 -806 
z
" transform="scale(0.015625)"/>
      <path id="NanumGothicCoding-2e" d="M 1210 -256 
Q 1210 -96 1325 19 
Q 1440 134 1600 134 
Q 1760 134 1872 19 
Q 1984 -96 1984 -256 
Q 1984 -416 1872 -531 
Q 1760 -646 1600 -646 
Q 1440 -646 1325 -531 
Q 1210 -416 1210 -256 
z
" transform="scale(0.015625)"/>
     </defs>
     <use xlink:href="#NanumGothicCoding-76"/>
     <use xlink:href="#NanumGothicCoding-b97c" transform="translate(49.999985 0)"/>
     <use xlink:href="#NanumGothicCoding-20" transform="translate(149.999969 0)"/>
     <use xlink:href="#NanumGothicCoding-b458" transform="translate(199.999954 0)"/>
     <use xlink:href="#NanumGothicCoding-b85c" transform="translate(299.999939 0)"/>
     <use xlink:href="#NanumGothicCoding-20" transform="translate(399.999924 0)"/>
     <use xlink:href="#NanumGothicCoding-b098" transform="translate(449.999908 0)"/>
     <use xlink:href="#NanumGothicCoding-b204" transform="translate(549.999893 0)"/>
     <use xlink:href="#NanumGothicCoding-c5b4" transform="translate(649.999878 0)"/>
     <use xlink:href="#NanumGothicCoding-20" transform="translate(749.999863 0)"/>
     <use xlink:href="#NanumGothicCoding-c0dd" transform="translate(799.999847 0)"/>
     <use xlink:href="#NanumGothicCoding-ac01" transform="translate(899.999832 0)"/>
     <use xlink:href="#NanumGothicCoding-d55c" transform="translate(999.999817 0)"/>
     <use xlink:href="#NanumGothicCoding-b2e4" transform="translate(1099.999802 0)"/>
     <use xlink:href="#NanumGothicCoding-2e" transform="translate(1199.999786 0)"/>
    </g>
   </g>
   <g id="text_2">
    <!-- 1. 벽을 따라가는 성분       → 그대로 유지 -->
    <g style="fill: #111827" transform="translate(21.384 60.648727) scale(0.11 -0.11)">
     <defs>
      <path id="NanumGothicCoding-31" d="M 2022 -211 
Q 2022 -301 1933 -301 
L 1670 -301 
Q 1581 -301 1581 -211 
L 1581 3565 
Q 1382 3398 1209 3251 
Q 1037 3104 845 2938 
Q 774 2880 717 2950 
L 589 3104 
Q 570 3136 570 3171 
Q 570 3206 602 3232 
L 1594 4064 
Q 1619 4090 1670 4090 
L 1843 4090 
Q 1978 4090 2000 4067 
Q 2022 4045 2022 3910 
L 2022 -211 
z
" transform="scale(0.015625)"/>
      <path id="NanumGothicCoding-bcbd" d="M 1382 1920 
Q 1229 1920 1136 1939 
Q 1043 1958 992 2012 
Q 941 2067 921 2153 
Q 902 2240 902 2374 
L 902 4698 
Q 902 4730 928 4752 
Q 954 4774 986 4774 
L 1261 4774 
Q 1293 4774 1315 4748 
Q 1338 4723 1338 4698 
L 1338 3661 
L 3206 3661 
L 3206 4691 
Q 3206 4723 3228 4748 
Q 3251 4774 3283 4774 
L 3558 4774 
Q 3590 4774 3616 4752 
Q 3642 4730 3642 4698 
L 3642 3981 
L 4902 3981 
L 4902 4915 
Q 4902 5005 4992 5005 
L 5254 5005 
Q 5344 5005 5344 4915 
L 5344 1690 
Q 5344 1600 5254 1600 
L 4992 1600 
Q 4902 1600 4902 1690 
L 4902 2477 
L 3642 2477 
L 3642 2330 
Q 3642 2086 3539 2003 
Q 3437 1920 3155 1920 
L 1382 1920 
z
M 1613 1165 
Q 1613 1203 1645 1222 
Q 1677 1242 1709 1242 
L 4858 1242 
Q 5158 1242 5251 1130 
Q 5344 1018 5344 755 
L 5344 -832 
Q 5344 -922 5254 -922 
L 4992 -922 
Q 4902 -922 4902 -832 
L 4902 723 
Q 4902 813 4873 835 
Q 4845 858 4755 858 
L 1709 858 
Q 1677 858 1645 880 
Q 1613 902 1613 934 
L 1613 1165 
z
M 1338 3283 
L 1338 2451 
Q 1338 2355 1370 2326 
Q 1402 2298 1491 2298 
L 3053 2298 
Q 3142 2298 3174 2326 
Q 3206 2355 3206 2451 
L 3206 3283 
L 1338 3283 
z
M 3642 2854 
L 4902 2854 
L 4902 3603 
L 3642 3603 
L 3642 2854 
z
" transform="scale(0.015625)"/>
      <path id="NanumGothicCoding-c744" d="M 3194 2874 
Q 2893 2874 2547 2918 
Q 2202 2963 1907 3088 
Q 1613 3213 1421 3424 
Q 1229 3635 1229 3974 
Q 1229 4307 1421 4518 
Q 1613 4730 1907 4851 
Q 2202 4973 2547 5021 
Q 2893 5069 3194 5069 
Q 3507 5069 3852 5024 
Q 4198 4979 4489 4857 
Q 4781 4736 4969 4521 
Q 5158 4307 5158 3974 
Q 5158 3635 4966 3424 
Q 4774 3213 4483 3088 
Q 4192 2963 3846 2918 
Q 3501 2874 3194 2874 
z
M 3194 4678 
Q 2989 4678 2729 4652 
Q 2470 4627 2240 4550 
Q 2010 4474 1853 4333 
Q 1696 4192 1696 3968 
Q 1696 3744 1853 3606 
Q 2010 3469 2240 3392 
Q 2470 3315 2729 3289 
Q 2989 3264 3194 3264 
Q 3398 3264 3657 3289 
Q 3917 3315 4147 3392 
Q 4378 3469 4534 3606 
Q 4691 3744 4691 3968 
Q 4691 4192 4531 4333 
Q 4371 4474 4140 4550 
Q 3910 4627 3651 4652 
Q 3392 4678 3194 4678 
z
M 5920 2483 
Q 5952 2483 5984 2460 
Q 6016 2438 6016 2400 
L 6016 2182 
Q 6016 2150 5984 2124 
Q 5952 2099 5920 2099 
L 480 2099 
Q 442 2099 413 2124 
Q 384 2150 384 2182 
L 384 2400 
Q 384 2438 413 2460 
Q 442 2483 480 2483 
L 5920 2483 
z
M 5248 -781 
Q 5248 -813 5219 -835 
Q 5190 -858 5165 -858 
L 1760 -858 
Q 1459 -858 1366 -746 
Q 1274 -634 1274 -365 
L 1274 96 
Q 1274 365 1386 457 
Q 1498 550 1786 550 
L 4538 550 
Q 4627 550 4652 576 
Q 4678 602 4678 698 
L 4678 1056 
Q 4678 1152 4656 1177 
Q 4634 1203 4544 1203 
L 1350 1203 
Q 1318 1203 1289 1222 
Q 1261 1242 1261 1274 
L 1261 1498 
Q 1261 1530 1289 1549 
Q 1318 1568 1350 1568 
L 4608 1568 
Q 4762 1568 4858 1545 
Q 4954 1523 5011 1472 
Q 5069 1421 5091 1328 
Q 5114 1235 5114 1101 
L 5114 640 
Q 5114 371 5002 278 
Q 4890 186 4602 186 
L 1843 186 
Q 1754 186 1731 160 
Q 1709 134 1709 38 
L 1709 -339 
Q 1709 -429 1734 -457 
Q 1760 -486 1850 -486 
L 5158 -486 
Q 5190 -486 5219 -505 
Q 5248 -525 5248 -557 
L 5248 -781 
z
" transform="scale(0.015625)"/>
      <path id="NanumGothicCoding-b530" d="M 5120 -806 
Q 5120 -896 5030 -896 
L 4768 -896 
Q 4678 -896 4678 -806 
L 4678 4915 
Q 4678 5005 4768 5005 
L 5030 5005 
Q 5120 5005 5120 4915 
L 5120 2586 
L 6003 2586 
Q 6042 2586 6070 2563 
Q 6099 2541 6099 2502 
L 6099 2285 
Q 6099 2253 6070 2227 
Q 6042 2202 6003 2202 
L 5120 2202 
L 5120 -806 
z
M 4384 1114 
Q 4403 1018 4320 1005 
Q 3654 858 2867 858 
Q 2605 858 2505 986 
Q 2406 1114 2406 1325 
L 2406 4070 
Q 2406 4339 2508 4428 
Q 2611 4518 2893 4518 
L 3910 4518 
Q 3994 4518 3994 4442 
L 3994 4230 
Q 3994 4154 3910 4154 
L 2957 4154 
Q 2867 4154 2848 4131 
Q 2829 4109 2829 4013 
L 2829 1338 
Q 2829 1235 2944 1235 
Q 3290 1235 3626 1267 
Q 3962 1299 4230 1363 
Q 4282 1376 4307 1363 
Q 4333 1350 4346 1293 
L 4384 1114 
z
M 2285 998 
Q 2291 954 2272 931 
Q 2253 909 2189 896 
Q 1946 851 1693 844 
Q 1440 838 1210 858 
Q 928 883 819 1001 
Q 710 1120 710 1389 
L 710 4070 
Q 710 4339 812 4428 
Q 915 4518 1197 4518 
L 2157 4518 
Q 2240 4518 2240 4442 
L 2240 4230 
Q 2240 4154 2157 4154 
L 1261 4154 
Q 1171 4154 1152 4131 
Q 1133 4109 1133 4013 
L 1133 1402 
Q 1133 1306 1165 1274 
Q 1197 1242 1286 1235 
Q 1491 1222 1708 1225 
Q 1926 1229 2144 1254 
Q 2240 1261 2259 1171 
L 2285 998 
z
" transform="scale(0.015625)"/>
      <path id="NanumGothicCoding-b77c" d="M 1280 570 
Q 992 582 893 688 
Q 794 794 794 1062 
L 794 2330 
Q 794 2598 906 2691 
Q 1018 2784 1306 2784 
L 2918 2784 
Q 3008 2784 3033 2809 
Q 3059 2835 3059 2931 
L 3059 3994 
Q 3059 4090 3036 4115 
Q 3014 4141 2925 4141 
L 909 4141 
Q 877 4141 848 4160 
Q 819 4179 819 4211 
L 819 4454 
Q 819 4486 848 4505 
Q 877 4525 909 4525 
L 2995 4525 
Q 3149 4525 3245 4502 
Q 3341 4480 3398 4429 
Q 3456 4378 3478 4285 
Q 3501 4192 3501 4058 
L 3501 2854 
Q 3501 2586 3389 2493 
Q 3277 2400 2989 2400 
L 1370 2400 
Q 1280 2400 1257 2374 
Q 1235 2349 1235 2253 
L 1235 1094 
Q 1235 947 1376 947 
Q 2138 934 2838 1004 
Q 3539 1075 4198 1222 
Q 4288 1242 4307 1158 
L 4346 947 
Q 4358 864 4262 838 
Q 3923 762 3548 707 
Q 3174 653 2790 617 
Q 2406 582 2022 569 
Q 1638 557 1280 570 
z
M 5120 -806 
Q 5120 -896 5030 -896 
L 4768 -896 
Q 4678 -896 4678 -806 
L 4678 4915 
Q 4678 5005 4768 5005 
L 5030 5005 
Q 5120 5005 5120 4915 
L 5120 2586 
L 6003 2586 
Q 6042 2586 6070 2563 
Q 6099 2541 6099 2502 
L 6099 2285 
Q 6099 2253 6070 2227 
Q 6042 2202 6003 2202 
L 5120 2202 
L 5120 -806 
z
" transform="scale(0.015625)"/>
      <path id="NanumGothicCoding-ac00" d="M 3437 4064 
Q 3405 3514 3219 2982 
Q 3034 2451 2704 1968 
Q 2374 1485 1910 1072 
Q 1446 659 858 346 
Q 774 301 736 365 
L 595 589 
Q 550 666 621 698 
Q 1165 979 1584 1340 
Q 2003 1702 2300 2124 
Q 2598 2547 2771 3014 
Q 2944 3482 2989 3974 
Q 3002 4070 2963 4105 
Q 2925 4141 2835 4141 
L 851 4141 
Q 774 4141 774 4224 
L 774 4448 
Q 774 4525 851 4525 
L 2957 4525 
Q 3258 4525 3354 4413 
Q 3450 4301 3437 4064 
z
M 5120 -806 
Q 5120 -896 5030 -896 
L 4768 -896 
Q 4678 -896 4678 -806 
L 4678 4915 
Q 4678 5005 4768 5005 
L 5030 5005 
Q 5120 5005 5120 4915 
L 5120 2650 
L 6003 2650 
Q 6042 2650 6070 2627 
Q 6099 2605 6099 2566 
L 6099 2349 
Q 6099 2317 6070 2291 
Q 6042 2266 6003 2266 
L 5120 2266 
L 5120 -806 
z
" transform="scale(0.015625)"/>
      <path id="NanumGothicCoding-b294" d="M 5229 2893 
Q 5229 2854 5197 2835 
Q 5165 2816 5133 2816 
L 1811 2816 
Q 1510 2816 1417 2941 
Q 1325 3066 1325 3328 
L 1325 4806 
Q 1325 4896 1414 4896 
L 1677 4896 
Q 1766 4896 1766 4806 
L 1766 3341 
Q 1766 3251 1795 3225 
Q 1824 3200 1914 3200 
L 5133 3200 
Q 5165 3200 5197 3177 
Q 5229 3155 5229 3123 
L 5229 2893 
z
M 5325 -704 
Q 5325 -742 5293 -761 
Q 5261 -781 5229 -781 
L 1754 -781 
Q 1453 -781 1360 -656 
Q 1267 -531 1267 -269 
L 1267 979 
Q 1267 1069 1357 1069 
L 1619 1069 
Q 1709 1069 1709 979 
L 1709 -262 
Q 1709 -352 1737 -374 
Q 1766 -397 1856 -397 
L 5229 -397 
Q 5261 -397 5293 -419 
Q 5325 -442 5325 -474 
L 5325 -704 
z
M 5920 1958 
Q 5952 1958 5984 1936 
Q 6016 1914 6016 1875 
L 6016 1658 
Q 6016 1626 5984 1600 
Q 5952 1574 5920 1574 
L 480 1574 
Q 442 1574 413 1600 
Q 384 1626 384 1658 
L 384 1875 
Q 384 1914 413 1936 
Q 442 1958 480 1958 
L 5920 1958 
z
" transform="scale(0.015625)"/>
      <path id="NanumGothicCoding-c131" d="M 5395 250 
Q 5395 -26 5248 -243 
Q 5101 -461 4848 -611 
Q 4595 -762 4259 -842 
Q 3923 -922 3539 -922 
Q 3123 -922 2784 -842 
Q 2445 -762 2201 -611 
Q 1958 -461 1824 -243 
Q 1690 -26 1690 250 
Q 1690 518 1824 732 
Q 1958 947 2201 1097 
Q 2445 1248 2784 1328 
Q 3123 1408 3539 1408 
Q 3923 1408 4259 1328 
Q 4595 1248 4848 1101 
Q 5101 954 5248 739 
Q 5395 525 5395 250 
z
M 4941 230 
Q 4941 422 4825 569 
Q 4710 717 4515 816 
Q 4320 915 4064 969 
Q 3808 1024 3533 1024 
Q 3226 1024 2970 969 
Q 2714 915 2531 816 
Q 2349 717 2246 569 
Q 2144 422 2144 230 
Q 2144 45 2246 -99 
Q 2349 -243 2531 -339 
Q 2714 -435 2970 -486 
Q 3226 -538 3533 -538 
Q 3808 -538 4064 -486 
Q 4320 -435 4515 -339 
Q 4710 -243 4825 -99 
Q 4941 45 4941 230 
z
M 2579 4774 
Q 2579 4307 2483 3904 
Q 2560 3635 2697 3392 
Q 2835 3149 3020 2937 
Q 3206 2726 3427 2556 
Q 3648 2387 3891 2272 
Q 3930 2253 3926 2217 
Q 3923 2182 3910 2157 
L 3776 1946 
Q 3757 1914 3731 1901 
Q 3706 1888 3648 1920 
Q 3501 1997 3312 2128 
Q 3123 2259 2931 2438 
Q 2739 2618 2566 2832 
Q 2394 3046 2278 3277 
Q 2067 2790 1708 2393 
Q 1350 1997 870 1683 
Q 838 1664 800 1657 
Q 762 1651 736 1683 
L 576 1894 
Q 557 1920 569 1958 
Q 582 1997 614 2016 
Q 1376 2483 1760 3193 
Q 2144 3904 2131 4781 
Q 2131 4883 2208 4883 
L 2509 4864 
Q 2579 4864 2579 4774 
z
M 4902 3622 
L 4902 4915 
Q 4902 5005 4992 5005 
L 5254 5005 
Q 5344 5005 5344 4915 
L 5344 1536 
Q 5344 1446 5254 1446 
L 4992 1446 
Q 4902 1446 4902 1536 
L 4902 3238 
L 3590 3238 
Q 3507 3238 3507 3315 
L 3507 3546 
Q 3507 3622 3590 3622 
L 4902 3622 
z
" transform="scale(0.015625)"/>
      <path id="NanumGothicCoding-bd84" d="M 1792 2637 
Q 1638 2637 1545 2656 
Q 1453 2675 1401 2729 
Q 1350 2784 1331 2870 
Q 1312 2957 1312 3091 
L 1312 4838 
Q 1312 4870 1337 4892 
Q 1363 4915 1395 4915 
L 1670 4915 
Q 1702 4915 1724 4889 
Q 1747 4864 1747 4838 
L 1747 4179 
L 4653 4179 
L 4653 4832 
Q 4653 4864 4675 4889 
Q 4698 4915 4730 4915 
L 5005 4915 
Q 5037 4915 5062 4892 
Q 5088 4870 5088 4838 
L 5088 3046 
Q 5088 2803 4985 2720 
Q 4883 2637 4602 2637 
L 1792 2637 
z
M 3104 262 
Q 3072 262 3046 291 
Q 3021 320 3021 358 
L 3021 1626 
L 480 1626 
Q 442 1626 413 1651 
Q 384 1677 384 1709 
L 384 1926 
Q 384 1965 413 1987 
Q 442 2010 480 2010 
L 5920 2010 
Q 5952 2010 5984 1987 
Q 6016 1965 6016 1926 
L 6016 1709 
Q 6016 1677 5984 1651 
Q 5952 1626 5920 1626 
L 3462 1626 
L 3462 358 
Q 3462 320 3440 291 
Q 3418 262 3379 262 
L 3104 262 
z
M 1747 3802 
L 1747 3168 
Q 1747 3072 1779 3043 
Q 1811 3014 1901 3014 
L 4499 3014 
Q 4589 3014 4621 3043 
Q 4653 3072 4653 3168 
L 4653 3802 
L 1747 3802 
z
M 5325 -704 
Q 5325 -742 5293 -761 
Q 5261 -781 5229 -781 
L 1702 -781 
Q 1402 -781 1309 -656 
Q 1216 -531 1216 -269 
L 1216 915 
Q 1216 1005 1306 1005 
L 1568 1005 
Q 1658 1005 1658 915 
L 1658 -262 
Q 1658 -352 1686 -374 
Q 1715 -397 1805 -397 
L 5229 -397 
Q 5261 -397 5293 -419 
Q 5325 -442 5325 -474 
L 5325 -704 
z
" transform="scale(0.015625)"/>
      <path id="NanumGothicCoding-2192" d="M 6080 1920 
L 4922 877 
L 5389 1843 
L 320 1843 
L 320 1997 
L 5389 1997 
L 4922 2963 
L 6080 1920 
z
" transform="scale(0.015625)"/>
      <path id="NanumGothicCoding-adf8" d="M 1171 4435 
Q 1171 4474 1203 4493 
Q 1235 4512 1267 4512 
L 4698 4512 
Q 4851 4512 4944 4480 
Q 5037 4448 5088 4387 
Q 5139 4326 5158 4230 
Q 5178 4134 5184 4000 
Q 5190 3827 5180 3561 
Q 5171 3296 5152 2979 
Q 5133 2662 5104 2320 
Q 5075 1978 5040 1648 
Q 5005 1318 4966 1020 
Q 4928 723 4890 499 
L 5920 499 
Q 5952 499 5984 476 
Q 6016 454 6016 416 
L 6016 198 
Q 6016 166 5984 140 
Q 5952 115 5920 115 
L 480 115 
Q 442 115 413 140 
Q 384 166 384 198 
L 384 416 
Q 384 454 413 476 
Q 442 499 480 499 
L 4454 499 
Q 4493 666 4534 941 
Q 4576 1216 4614 1542 
Q 4653 1869 4681 2227 
Q 4710 2586 4729 2918 
Q 4749 3251 4755 3532 
Q 4762 3814 4749 3994 
Q 4742 4083 4716 4105 
Q 4691 4128 4602 4128 
L 1267 4128 
Q 1235 4128 1203 4150 
Q 1171 4173 1171 4205 
L 1171 4435 
z
" transform="scale(0.015625)"/>
      <path id="NanumGothicCoding-b300" d="M 4320 2586 
L 5133 2586 
L 5133 4915 
Q 5133 5005 5222 5005 
L 5466 5005 
Q 5555 5005 5555 4915 
L 5555 -806 
Q 5555 -896 5466 -896 
L 5222 -896 
Q 5133 -896 5133 -806 
L 5133 2202 
L 4320 2202 
L 4320 -563 
Q 4320 -653 4230 -653 
L 3987 -653 
Q 3898 -653 3898 -563 
L 3898 4806 
Q 3898 4896 3987 4896 
L 4230 4896 
Q 4320 4896 4320 4806 
L 4320 2586 
z
M 3590 1082 
Q 3603 992 3507 973 
Q 3059 864 2476 816 
Q 1894 768 1286 781 
Q 998 787 892 915 
Q 787 1043 787 1312 
L 787 4019 
Q 787 4288 889 4377 
Q 992 4467 1274 4467 
L 3027 4467 
Q 3110 4467 3110 4390 
L 3110 4160 
Q 3110 4083 3027 4083 
L 1357 4083 
Q 1267 4083 1248 4060 
Q 1229 4038 1229 3942 
L 1229 1344 
Q 1229 1248 1261 1216 
Q 1293 1184 1382 1178 
Q 1939 1158 2438 1196 
Q 2938 1235 3437 1344 
Q 3539 1363 3558 1274 
L 3590 1082 
z
" transform="scale(0.015625)"/>
      <path id="NanumGothicCoding-c720" d="M 3187 2387 
Q 2861 2387 2499 2457 
Q 2138 2528 1834 2678 
Q 1530 2829 1334 3072 
Q 1139 3315 1139 3661 
Q 1139 4006 1334 4249 
Q 1530 4493 1834 4643 
Q 2138 4794 2499 4861 
Q 2861 4928 3187 4928 
Q 3520 4928 3885 4861 
Q 4250 4794 4547 4643 
Q 4845 4493 5040 4249 
Q 5235 4006 5235 3661 
Q 5235 3315 5040 3072 
Q 4845 2829 4547 2678 
Q 4250 2528 3885 2457 
Q 3520 2387 3187 2387 
z
M 3187 4525 
Q 2963 4525 2691 4489 
Q 2419 4454 2179 4358 
Q 1939 4262 1776 4092 
Q 1613 3923 1613 3654 
Q 1613 3386 1776 3219 
Q 1939 3053 2179 2957 
Q 2419 2861 2691 2825 
Q 2963 2790 3187 2790 
Q 3405 2790 3677 2825 
Q 3949 2861 4189 2957 
Q 4429 3053 4595 3219 
Q 4762 3386 4762 3654 
Q 4762 3923 4595 4092 
Q 4429 4262 4189 4358 
Q 3949 4454 3677 4489 
Q 3405 4525 3187 4525 
z
M 2042 -858 
Q 2010 -858 1984 -829 
Q 1958 -800 1958 -762 
L 1958 1312 
L 480 1312 
Q 442 1312 413 1337 
Q 384 1363 384 1395 
L 384 1613 
Q 384 1651 413 1673 
Q 442 1696 480 1696 
L 5920 1696 
Q 5952 1696 5984 1673 
Q 6016 1651 6016 1613 
L 6016 1395 
Q 6016 1363 5984 1337 
Q 5952 1312 5920 1312 
L 4384 1312 
L 4384 -762 
Q 4384 -800 4361 -829 
Q 4339 -858 4301 -858 
L 4026 -858 
Q 3994 -858 3968 -829 
Q 3942 -800 3942 -762 
L 3942 1312 
L 2400 1312 
L 2400 -762 
Q 2400 -800 2377 -829 
Q 2355 -858 2317 -858 
L 2042 -858 
z
" transform="scale(0.015625)"/>
      <path id="NanumGothicCoding-c9c0" d="M 4019 858 
Q 4000 826 3971 819 
Q 3942 813 3891 851 
Q 3738 966 3565 1116 
Q 3392 1267 3225 1436 
Q 3059 1606 2899 1788 
Q 2739 1971 2605 2150 
Q 2285 1747 1875 1379 
Q 1466 1011 941 646 
Q 909 627 877 617 
Q 845 608 826 634 
L 672 832 
Q 646 864 652 899 
Q 659 934 685 954 
Q 1709 1677 2281 2419 
Q 2854 3162 3078 3968 
Q 3104 4058 3081 4099 
Q 3059 4141 2970 4141 
L 1030 4141 
Q 954 4141 954 4224 
L 954 4448 
Q 954 4525 1043 4525 
L 3142 4525 
Q 3475 4525 3564 4409 
Q 3654 4294 3565 4000 
Q 3315 3181 2861 2496 
Q 3008 2291 3174 2092 
Q 3341 1894 3507 1718 
Q 3674 1542 3840 1398 
Q 4006 1254 4154 1158 
Q 4186 1133 4186 1101 
Q 4186 1069 4166 1043 
L 4019 858 
z
M 5344 -806 
Q 5344 -896 5254 -896 
L 4992 -896 
Q 4902 -896 4902 -806 
L 4902 4915 
Q 4902 5005 4992 5005 
L 5254 5005 
Q 5344 5005 5344 4915 
L 5344 -806 
z
" transform="scale(0.015625)"/>
     </defs>
     <use xlink:href="#NanumGothicCoding-31"/>
     <use xlink:href="#NanumGothicCoding-2e" transform="translate(49.999985 0)"/>
     <use xlink:href="#NanumGothicCoding-20" transform="translate(99.999969 0)"/>
     <use xlink:href="#NanumGothicCoding-bcbd" transform="translate(149.999954 0)"/>
     <use xlink:href="#NanumGothicCoding-c744" transform="translate(249.999939 0)"/>
     <use xlink:href="#NanumGothicCoding-20" transform="translate(349.999924 0)"/>
     <use xlink:href="#NanumGothicCoding-b530" transform="translate(399.999908 0)"/>
     <use xlink:href="#NanumGothicCoding-b77c" transform="translate(499.999893 0)"/>
     <use xlink:href="#NanumGothicCoding-ac00" transform="translate(599.999878 0)"/>
     <use xlink:href="#NanumGothicCoding-b294" transform="translate(699.999863 0)"/>
     <use xlink:href="#NanumGothicCoding-20" transform="translate(799.999847 0)"/>
     <use xlink:href="#NanumGothicCoding-c131" transform="translate(849.999832 0)"/>
     <use xlink:href="#NanumGothicCoding-bd84" transform="translate(949.999817 0)"/>
     <use xlink:href="#NanumGothicCoding-20" transform="translate(1049.999802 0)"/>
     <use xlink:href="#NanumGothicCoding-20" transform="translate(1099.999786 0)"/>
     <use xlink:href="#NanumGothicCoding-20" transform="translate(1149.999771 0)"/>
     <use xlink:href="#NanumGothicCoding-20" transform="translate(1199.999756 0)"/>
     <use xlink:href="#NanumGothicCoding-20" transform="translate(1249.999741 0)"/>
     <use xlink:href="#NanumGothicCoding-20" transform="translate(1299.999725 0)"/>
     <use xlink:href="#NanumGothicCoding-20" transform="translate(1349.99971 0)"/>
     <use xlink:href="#NanumGothicCoding-2192" transform="translate(1399.999695 0)"/>
     <use xlink:href="#NanumGothicCoding-20" transform="translate(1499.99968 0)"/>
     <use xlink:href="#NanumGothicCoding-adf8" transform="translate(1549.999664 0)"/>
     <use xlink:href="#NanumGothicCoding-b300" transform="translate(1649.999649 0)"/>
     <use xlink:href="#NanumGothicCoding-b85c" transform="translate(1749.999634 0)"/>
     <use xlink:href="#NanumGothicCoding-20" transform="translate(1849.999619 0)"/>
     <use xlink:href="#NanumGothicCoding-c720" transform="translate(1899.999603 0)"/>
     <use xlink:href="#NanumGothicCoding-c9c0" transform="translate(1999.999588 0)"/>
    </g>
   </g>
   <g id="text_3">
    <!-- 2. 벽을 파고드는 normal 성분 → 반대로 뒤집음 -->
    <g style="fill: #111827" transform="translate(21.384 75.772759) scale(0.11 -0.11)">
     <defs>
      <path id="NanumGothicCoding-32" d="M 442 -301 
Q 378 -301 342 -297 
Q 307 -294 291 -278 
Q 275 -262 272 -227 
Q 269 -192 269 -122 
L 269 19 
Q 269 102 320 147 
L 1286 1146 
Q 2317 2246 2310 2854 
Q 2317 3277 2125 3501 
Q 1907 3744 1523 3757 
Q 1069 3757 602 3469 
Q 518 3424 499 3507 
L 461 3718 
Q 442 3827 525 3859 
Q 781 4000 1017 4070 
Q 1254 4141 1510 4141 
Q 2022 4141 2387 3834 
Q 2790 3501 2790 2886 
Q 2790 2650 2681 2365 
Q 2573 2080 2336 1760 
Q 2112 1478 1971 1308 
Q 1830 1139 1600 890 
Q 1350 627 1206 480 
Q 1062 333 826 96 
L 2803 96 
Q 2899 90 2893 6 
L 2893 -218 
Q 2893 -301 2810 -301 
L 442 -301 
z
" transform="scale(0.015625)"/>
      <path id="NanumGothicCoding-d30c" d="M 4147 1357 
Q 4250 1376 4256 1312 
L 4294 1088 
Q 4307 1011 4211 998 
Q 4038 966 3814 937 
Q 3590 909 3350 883 
Q 3110 858 2857 835 
Q 2605 813 2374 800 
Q 2195 787 1958 780 
Q 1722 774 1469 771 
Q 1216 768 973 768 
Q 730 768 544 774 
Q 506 774 477 800 
Q 448 826 448 858 
L 448 1075 
Q 448 1114 477 1133 
Q 506 1152 544 1152 
Q 685 1146 864 1142 
Q 1043 1139 1242 1146 
L 1242 4147 
L 589 4147 
Q 557 4147 528 4172 
Q 499 4198 499 4237 
L 499 4435 
Q 499 4474 528 4499 
Q 557 4525 589 4525 
L 3840 4525 
Q 3936 4525 3936 4442 
L 3936 4230 
Q 3936 4147 3840 4147 
L 3373 4147 
L 3373 1248 
Q 3578 1274 3773 1299 
Q 3968 1325 4147 1357 
z
M 2362 1178 
Q 2509 1184 2649 1190 
Q 2790 1197 2938 1210 
L 2938 4147 
L 1677 4147 
L 1677 1152 
Q 1862 1158 2038 1161 
Q 2214 1165 2362 1178 
z
M 5120 -806 
Q 5120 -896 5030 -896 
L 4768 -896 
Q 4678 -896 4678 -806 
L 4678 4915 
Q 4678 5005 4768 5005 
L 5030 5005 
Q 5120 5005 5120 4915 
L 5120 2586 
L 6003 2586 
Q 6042 2586 6070 2563 
Q 6099 2541 6099 2502 
L 6099 2285 
Q 6099 2253 6070 2227 
Q 6042 2202 6003 2202 
L 5120 2202 
L 5120 -806 
z
" transform="scale(0.015625)"/>
      <path id="NanumGothicCoding-ace0" d="M 5920 499 
Q 5952 499 5984 476 
Q 6016 454 6016 416 
L 6016 198 
Q 6016 166 5984 140 
Q 5952 115 5920 115 
L 480 115 
Q 442 115 413 140 
Q 384 166 384 198 
L 384 416 
Q 384 454 413 476 
Q 442 499 480 499 
L 2758 499 
L 2758 2464 
Q 2758 2502 2780 2531 
Q 2803 2560 2842 2560 
L 3117 2560 
Q 3149 2560 3174 2531 
Q 3200 2502 3200 2464 
L 3200 499 
L 5920 499 
z
M 1190 4486 
Q 1190 4525 1222 4544 
Q 1254 4563 1286 4563 
L 4698 4563 
Q 4851 4563 4944 4531 
Q 5037 4499 5088 4438 
Q 5139 4378 5158 4282 
Q 5178 4186 5184 4051 
Q 5190 3789 5184 3462 
Q 5178 3136 5152 2784 
Q 5126 2432 5081 2073 
Q 5037 1715 4973 1389 
Q 4966 1350 4940 1318 
Q 4915 1286 4877 1293 
L 4621 1312 
Q 4512 1318 4544 1427 
Q 4602 1677 4646 2038 
Q 4691 2400 4720 2774 
Q 4749 3149 4758 3491 
Q 4768 3834 4749 4045 
Q 4736 4134 4713 4156 
Q 4691 4179 4602 4179 
L 1286 4179 
Q 1254 4179 1222 4201 
Q 1190 4224 1190 4256 
L 1190 4486 
z
" transform="scale(0.015625)"/>
      <path id="NanumGothicCoding-b4dc" d="M 5920 499 
Q 5952 499 5984 476 
Q 6016 454 6016 416 
L 6016 198 
Q 6016 166 5984 140 
Q 5952 115 5920 115 
L 480 115 
Q 442 115 413 140 
Q 384 166 384 198 
L 384 416 
Q 384 454 413 476 
Q 442 499 480 499 
L 5920 499 
z
M 5222 1920 
Q 5222 1830 5139 1830 
L 1683 1830 
Q 1402 1830 1299 1923 
Q 1197 2016 1197 2285 
L 1197 4134 
Q 1197 4403 1299 4496 
Q 1402 4589 1683 4589 
L 5094 4589 
Q 5178 4589 5178 4506 
L 5178 4294 
Q 5178 4205 5094 4205 
L 1792 4205 
Q 1702 4205 1670 4169 
Q 1638 4134 1638 4038 
L 1638 2381 
Q 1638 2291 1670 2252 
Q 1702 2214 1792 2214 
L 5139 2214 
Q 5222 2214 5222 2131 
L 5222 1920 
z
" transform="scale(0.015625)"/>
      <path id="NanumGothicCoding-6e" d="M 2797 -186 
Q 2797 -275 2707 -275 
L 2451 -275 
Q 2362 -275 2362 -186 
L 2362 1574 
Q 2362 2163 2202 2409 
Q 2042 2656 1658 2656 
Q 1318 2656 1088 2384 
Q 858 2112 858 1562 
L 858 -186 
Q 858 -275 768 -275 
L 512 -275 
Q 422 -275 422 -186 
L 422 2118 
Q 422 2394 419 2547 
Q 416 2701 403 2842 
Q 397 2886 425 2908 
Q 454 2931 493 2931 
L 723 2931 
Q 813 2931 813 2842 
L 813 2483 
Q 966 2758 1187 2889 
Q 1408 3021 1696 3021 
Q 2259 3021 2528 2669 
Q 2797 2317 2797 1677 
L 2797 -186 
z
" transform="scale(0.015625)"/>
      <path id="NanumGothicCoding-6f" d="M 2490 1331 
Q 2490 1581 2432 1824 
Q 2374 2067 2253 2266 
Q 2010 2650 1594 2650 
Q 1158 2650 934 2266 
Q 813 2067 758 1824 
Q 704 1581 704 1331 
Q 704 1056 755 813 
Q 806 570 934 397 
Q 1216 6 1594 6 
Q 2035 6 2253 397 
Q 2381 570 2435 813 
Q 2490 1056 2490 1331 
z
M 2931 1331 
Q 2931 979 2851 668 
Q 2771 358 2605 147 
Q 2413 -102 2163 -240 
Q 1914 -378 1594 -378 
Q 1274 -378 1024 -240 
Q 774 -102 582 147 
Q 429 378 349 678 
Q 269 979 269 1331 
Q 269 2054 582 2515 
Q 947 3034 1594 3034 
Q 1920 3034 2166 2909 
Q 2413 2784 2605 2515 
Q 2931 2048 2931 1331 
z
" transform="scale(0.015625)"/>
      <path id="NanumGothicCoding-72" d="M 1946 122 
Q 2035 122 2035 32 
L 2035 -186 
Q 2035 -275 1946 -275 
L 506 -275 
Q 416 -275 416 -186 
L 416 32 
Q 416 122 506 122 
L 883 122 
L 883 2534 
L 390 2534 
Q 301 2534 301 2624 
L 301 2842 
Q 301 2931 390 2931 
L 1165 2931 
Q 1254 2931 1254 2842 
L 1254 2214 
Q 1645 3021 2381 3021 
Q 2758 3021 3059 2874 
Q 3123 2848 3129 2809 
Q 3136 2771 3117 2726 
L 3040 2496 
Q 3021 2451 2992 2454 
Q 2963 2458 2918 2483 
Q 2637 2618 2317 2618 
Q 1792 2592 1485 2048 
Q 1312 1715 1312 1178 
L 1312 122 
L 1946 122 
z
" transform="scale(0.015625)"/>
      <path id="NanumGothicCoding-6d" d="M 269 2118 
Q 269 2387 262 2544 
Q 256 2701 243 2842 
Q 243 2931 333 2931 
L 570 2931 
Q 659 2931 659 2842 
L 653 2566 
Q 698 2771 832 2889 
Q 966 3008 1101 3008 
Q 1338 3008 1482 2816 
Q 1626 2624 1664 2362 
Q 1683 2573 1804 2777 
Q 1926 2982 2202 3008 
Q 2445 3008 2585 2921 
Q 2726 2835 2809 2675 
Q 2893 2515 2925 2304 
Q 2957 2093 2957 1856 
L 2957 -186 
Q 2957 -275 2867 -275 
L 2624 -275 
Q 2534 -275 2534 -192 
L 2534 1766 
Q 2534 2611 2195 2611 
Q 2067 2611 1990 2508 
Q 1914 2406 1878 2252 
Q 1843 2099 1827 1868 
Q 1811 1638 1818 1382 
L 1818 -186 
Q 1818 -275 1728 -275 
L 1498 -275 
Q 1408 -275 1408 -186 
L 1408 1766 
Q 1389 2611 1050 2611 
Q 870 2611 777 2355 
Q 685 2099 691 1619 
L 691 -186 
Q 691 -275 602 -275 
L 358 -275 
Q 269 -275 269 -186 
L 269 2118 
z
" transform="scale(0.015625)"/>
      <path id="NanumGothicCoding-61" d="M 2368 1402 
L 2246 1402 
Q 1888 1414 1645 1376 
Q 1402 1338 1229 1254 
Q 1018 1165 902 976 
Q 787 787 787 589 
Q 787 474 838 342 
Q 890 211 998 141 
Q 1184 -13 1414 -13 
Q 1638 -13 1785 73 
Q 1933 160 2073 342 
Q 2214 525 2291 755 
Q 2368 986 2368 1203 
L 2368 1402 
z
M 723 2400 
Q 691 2381 662 2390 
Q 634 2400 634 2432 
L 634 2682 
Q 634 2765 723 2803 
Q 941 2931 1168 2982 
Q 1395 3034 1658 3034 
Q 2214 3046 2508 2713 
Q 2803 2381 2803 1888 
L 2803 397 
Q 2803 218 2809 77 
Q 2816 -64 2829 -192 
Q 2829 -275 2739 -275 
L 2509 -275 
Q 2419 -275 2419 -192 
L 2419 262 
Q 2285 -38 2009 -208 
Q 1734 -378 1363 -378 
Q 813 -378 512 -19 
Q 410 96 358 256 
Q 307 416 307 570 
Q 307 902 489 1180 
Q 672 1459 1050 1600 
Q 1414 1766 2285 1766 
L 2368 1766 
L 2368 1914 
Q 2368 2240 2185 2454 
Q 2003 2669 1658 2669 
Q 1382 2669 1168 2608 
Q 954 2547 723 2400 
z
" transform="scale(0.015625)"/>
      <path id="NanumGothicCoding-6c" d="M 2605 122 
Q 2694 122 2694 32 
L 2694 -186 
Q 2694 -275 2605 -275 
L 531 -275 
Q 442 -275 442 -186 
L 442 32 
Q 442 122 531 122 
L 1389 122 
L 1389 4032 
L 710 4032 
Q 621 4032 621 4122 
L 621 4339 
Q 621 4429 710 4429 
L 1760 4429 
Q 1850 4429 1850 4339 
L 1850 122 
L 2605 122 
z
" transform="scale(0.015625)"/>
      <path id="NanumGothicCoding-bc18" d="M 1350 1715 
Q 1197 1715 1104 1734 
Q 1011 1754 960 1808 
Q 909 1862 889 1948 
Q 870 2035 870 2170 
L 870 4691 
Q 870 4723 896 4745 
Q 922 4768 954 4768 
L 1229 4768 
Q 1261 4768 1283 4742 
Q 1306 4717 1306 4691 
L 1306 3584 
L 3168 3584 
L 3168 4685 
Q 3168 4717 3190 4742 
Q 3213 4768 3245 4768 
L 3520 4768 
Q 3552 4768 3577 4745 
Q 3603 4723 3603 4691 
L 3603 2125 
Q 3603 1882 3500 1798 
Q 3398 1715 3117 1715 
L 1350 1715 
z
M 5120 832 
Q 5120 742 5030 742 
L 4768 742 
Q 4678 742 4678 832 
L 4678 4915 
Q 4678 5005 4768 5005 
L 5030 5005 
Q 5120 5005 5120 4915 
L 5120 3130 
L 6003 3130 
Q 6042 3130 6070 3107 
Q 6099 3085 6099 3046 
L 6099 2829 
Q 6099 2797 6070 2771 
Q 6042 2746 6003 2746 
L 5120 2746 
L 5120 832 
z
M 5408 -704 
Q 5408 -742 5376 -761 
Q 5344 -781 5312 -781 
L 2054 -781 
Q 1754 -781 1661 -669 
Q 1568 -557 1568 -294 
L 1568 960 
Q 1568 1050 1658 1050 
L 1920 1050 
Q 2010 1050 2010 960 
L 2010 -262 
Q 2010 -352 2038 -374 
Q 2067 -397 2157 -397 
L 5312 -397 
Q 5344 -397 5376 -419 
Q 5408 -442 5408 -474 
L 5408 -704 
z
M 1306 3206 
L 1306 2246 
Q 1306 2150 1338 2121 
Q 1370 2093 1459 2093 
L 3014 2093 
Q 3104 2093 3136 2121 
Q 3168 2150 3168 2246 
L 3168 3206 
L 1306 3206 
z
" transform="scale(0.015625)"/>
      <path id="NanumGothicCoding-b4a4" d="M 3808 2336 
Q 3808 2246 3725 2246 
L 1421 2246 
Q 1139 2246 1036 2339 
Q 934 2432 934 2701 
L 934 4134 
Q 934 4403 1036 4496 
Q 1139 4589 1421 4589 
L 3680 4589 
Q 3763 4589 3763 4506 
L 3763 4294 
Q 3763 4205 3680 4205 
L 1530 4205 
Q 1440 4205 1408 4169 
Q 1376 4134 1376 4038 
L 1376 2797 
Q 1376 2707 1408 2668 
Q 1440 2630 1530 2630 
L 3725 2630 
Q 3808 2630 3808 2547 
L 3808 2336 
z
M 5344 -806 
Q 5344 -896 5254 -896 
L 4992 -896 
Q 4902 -896 4902 -806 
L 4902 4915 
Q 4902 5005 4992 5005 
L 5254 5005 
Q 5344 5005 5344 4915 
L 5344 -806 
z
M 4422 1741 
Q 4454 1747 4483 1731 
Q 4512 1715 4518 1690 
L 4550 1472 
Q 4557 1382 4474 1376 
Q 4070 1318 3596 1273 
Q 3123 1229 2682 1197 
L 2682 -691 
Q 2682 -730 2659 -758 
Q 2637 -787 2598 -787 
L 2323 -787 
Q 2291 -787 2265 -758 
Q 2240 -730 2240 -691 
L 2240 1165 
Q 2029 1152 1785 1145 
Q 1542 1139 1312 1132 
Q 1082 1126 883 1123 
Q 685 1120 563 1126 
Q 525 1126 496 1152 
Q 467 1178 467 1210 
L 467 1427 
Q 467 1466 496 1488 
Q 525 1510 563 1510 
Q 749 1510 1008 1513 
Q 1267 1517 1539 1526 
Q 1811 1536 2064 1542 
Q 2317 1549 2490 1562 
Q 2714 1574 2982 1593 
Q 3251 1613 3516 1635 
Q 3782 1658 4019 1686 
Q 4256 1715 4422 1741 
z
" transform="scale(0.015625)"/>
      <path id="NanumGothicCoding-c9d1" d="M 2170 -845 
Q 2016 -845 1923 -825 
Q 1830 -806 1779 -752 
Q 1728 -698 1709 -611 
Q 1690 -525 1690 -390 
L 1690 1446 
Q 1690 1478 1715 1497 
Q 1741 1517 1773 1517 
L 2054 1517 
Q 2086 1517 2108 1494 
Q 2131 1472 2131 1446 
L 2131 768 
L 4902 768 
L 4902 1434 
Q 4902 1466 4924 1491 
Q 4947 1517 4979 1517 
L 5261 1517 
Q 5293 1517 5318 1494 
Q 5344 1472 5344 1440 
L 5344 -435 
Q 5344 -678 5241 -761 
Q 5139 -845 4858 -845 
L 2170 -845 
z
M 3520 4250 
Q 3437 4013 3289 3776 
Q 3142 3539 2938 3302 
Q 3181 3053 3504 2838 
Q 3827 2624 4173 2496 
Q 4211 2483 4208 2448 
Q 4205 2413 4192 2381 
L 4064 2157 
Q 4045 2125 4019 2112 
Q 3994 2099 3936 2131 
Q 3584 2291 3248 2515 
Q 2912 2739 2650 3002 
Q 2298 2656 1856 2358 
Q 1414 2061 915 1843 
Q 883 1830 851 1824 
Q 819 1818 800 1850 
L 672 2074 
Q 653 2106 669 2141 
Q 685 2176 717 2189 
Q 1606 2611 2166 3107 
Q 2726 3603 3034 4224 
Q 3078 4314 3046 4352 
Q 3014 4390 2925 4390 
L 1050 4390 
Q 973 4390 973 4474 
L 973 4698 
Q 973 4774 1062 4774 
L 3098 4774 
Q 3430 4774 3526 4656 
Q 3622 4538 3520 4250 
z
M 2131 384 
L 2131 -307 
Q 2131 -403 2163 -432 
Q 2195 -461 2285 -461 
L 4749 -461 
Q 4838 -461 4870 -432 
Q 4902 -403 4902 -307 
L 4902 384 
L 2131 384 
z
M 5344 1958 
Q 5344 1869 5254 1869 
L 4992 1869 
Q 4902 1869 4902 1958 
L 4902 4915 
Q 4902 5005 4992 5005 
L 5254 5005 
Q 5344 5005 5344 4915 
L 5344 1958 
z
" transform="scale(0.015625)"/>
      <path id="NanumGothicCoding-c74c" d="M 1267 672 
Q 1267 941 1369 1033 
Q 1472 1126 1754 1126 
L 4634 1126 
Q 4787 1126 4880 1107 
Q 4973 1088 5027 1037 
Q 5082 986 5101 896 
Q 5120 806 5120 672 
L 5120 -390 
Q 5120 -659 5017 -752 
Q 4915 -845 4634 -845 
L 1754 -845 
Q 1600 -845 1507 -825 
Q 1414 -806 1360 -752 
Q 1306 -698 1286 -611 
Q 1267 -525 1267 -390 
L 1267 672 
z
M 1862 742 
Q 1773 742 1741 707 
Q 1709 672 1709 576 
L 1709 -294 
Q 1709 -390 1741 -425 
Q 1773 -461 1862 -461 
L 4525 -461 
Q 4614 -461 4646 -425 
Q 4678 -390 4678 -294 
L 4678 576 
Q 4678 672 4646 707 
Q 4614 742 4525 742 
L 1862 742 
z
M 5920 2144 
Q 5952 2144 5984 2121 
Q 6016 2099 6016 2061 
L 6016 1843 
Q 6016 1811 5984 1785 
Q 5952 1760 5920 1760 
L 480 1760 
Q 442 1760 413 1785 
Q 384 1811 384 1843 
L 384 2061 
Q 384 2099 413 2121 
Q 442 2144 480 2144 
L 5920 2144 
z
M 3187 2669 
Q 2867 2669 2515 2723 
Q 2163 2778 1872 2906 
Q 1581 3034 1389 3254 
Q 1197 3475 1197 3802 
Q 1197 4128 1389 4342 
Q 1581 4557 1872 4688 
Q 2163 4819 2515 4873 
Q 2867 4928 3187 4928 
Q 3514 4928 3866 4864 
Q 4218 4800 4509 4665 
Q 4800 4531 4989 4316 
Q 5178 4102 5178 3802 
Q 5178 3494 4989 3280 
Q 4800 3066 4505 2931 
Q 4211 2797 3862 2733 
Q 3514 2669 3187 2669 
z
M 3187 4531 
Q 2963 4531 2697 4496 
Q 2432 4461 2201 4374 
Q 1971 4288 1817 4147 
Q 1664 4006 1664 3795 
Q 1664 3590 1817 3449 
Q 1971 3309 2201 3222 
Q 2432 3136 2697 3101 
Q 2963 3066 3187 3066 
Q 3405 3066 3670 3101 
Q 3936 3136 4166 3222 
Q 4397 3309 4553 3449 
Q 4710 3590 4710 3795 
Q 4710 4006 4553 4147 
Q 4397 4288 4166 4374 
Q 3936 4461 3670 4496 
Q 3405 4531 3187 4531 
z
" transform="scale(0.015625)"/>
     </defs>
     <use xlink:href="#NanumGothicCoding-32"/>
     <use xlink:href="#NanumGothicCoding-2e" transform="translate(49.999985 0)"/>
     <use xlink:href="#NanumGothicCoding-20" transform="translate(99.999969 0)"/>
     <use xlink:href="#NanumGothicCoding-bcbd" transform="translate(149.999954 0)"/>
     <use xlink:href="#NanumGothicCoding-c744" transform="translate(249.999939 0)"/>
     <use xlink:href="#NanumGothicCoding-20" transform="translate(349.999924 0)"/>
     <use xlink:href="#NanumGothicCoding-d30c" transform="translate(399.999908 0)"/>
     <use xlink:href="#NanumGothicCoding-ace0" transform="translate(499.999893 0)"/>
     <use xlink:href="#NanumGothicCoding-b4dc" transform="translate(599.999878 0)"/>
     <use xlink:href="#NanumGothicCoding-b294" transform="translate(699.999863 0)"/>
     <use xlink:href="#NanumGothicCoding-20" transform="translate(799.999847 0)"/>
     <use xlink:href="#NanumGothicCoding-6e" transform="translate(849.999832 0)"/>
     <use xlink:href="#NanumGothicCoding-6f" transform="translate(899.999817 0)"/>
     <use xlink:href="#NanumGothicCoding-72" transform="translate(949.999802 0)"/>
     <use xlink:href="#NanumGothicCoding-6d" transform="translate(999.999786 0)"/>
     <use xlink:href="#NanumGothicCoding-61" transform="translate(1049.999771 0)"/>
     <use xlink:href="#NanumGothicCoding-6c" transform="translate(1099.999756 0)"/>
     <use xlink:href="#NanumGothicCoding-20" transform="translate(1149.999741 0)"/>
     <use xlink:href="#NanumGothicCoding-c131" transform="translate(1199.999725 0)"/>
     <use xlink:href="#NanumGothicCoding-bd84" transform="translate(1299.99971 0)"/>
     <use xlink:href="#NanumGothicCoding-20" transform="translate(1399.999695 0)"/>
     <use xlink:href="#NanumGothicCoding-2192" transform="translate(1449.99968 0)"/>
     <use xlink:href="#NanumGothicCoding-20" transform="translate(1549.999664 0)"/>
     <use xlink:href="#NanumGothicCoding-bc18" transform="translate(1599.999649 0)"/>
     <use xlink:href="#NanumGothicCoding-b300" transform="translate(1699.999634 0)"/>
     <use xlink:href="#NanumGothicCoding-b85c" transform="translate(1799.999619 0)"/>
     <use xlink:href="#NanumGothicCoding-20" transform="translate(1899.999603 0)"/>
     <use xlink:href="#NanumGothicCoding-b4a4" transform="translate(1949.999588 0)"/>
     <use xlink:href="#NanumGothicCoding-c9d1" transform="translate(2049.999573 0)"/>
     <use xlink:href="#NanumGothicCoding-c74c" transform="translate(2149.999557 0)"/>
    </g>
   </g>
  </g>
 </g>
 <defs>
  <clipPath id="p6459d62e72">
   <rect x="5.76" y="5.76" width="390.6" height="137.4912"/>
  </clipPath>
 </defs>
</svg>
