<?xml version="1.0" encoding="utf-8" standalone="no"?>
<!DOCTYPE svg PUBLIC "-//W3C//DTD SVG 1.1//EN"
  "http://www.w3.org/Graphics/SVG/1.1/DTD/svg11.dtd">
<svg xmlns:xlink="http://www.w3.org/1999/xlink" width="385.56pt" height="202.974731pt" viewBox="0 0 385.56 202.974731" xmlns="http://www.w3.org/2000/svg" version="1.1">
 <metadata>
  <rdf:RDF xmlns:dc="http://purl.org/dc/elements/1.1/" xmlns:cc="http://creativecommons.org/ns#" xmlns:rdf="http://www.w3.org/1999/02/22-rdf-syntax-ns#">
   <cc:Work>
    <dc:type rdf:resource="http://purl.org/dc/dcmitype/StillImage"/>
    <dc:date>2026-07-08T05:12:55.017476</dc:date>
    <dc:format>image/svg+xml</dc:format>
    <dc:creator>
     <cc:Agent>
      <dc:title>Matplotlib v3.10.8, https://matplotlib.org/</dc:title>
     </cc:Agent>
    </dc:creator>
   </cc:Work>
  </rdf:RDF>
 </metadata>
 <defs>
  <style type="text/css">*{stroke-linejoin: round; stroke-linecap: butt}</style>
 </defs>
 <g id="figure_1">
  <g id="patch_1">
   <path d="M 0 202.974731 
L 385.56 202.974731 
L 385.56 -0 
L 0 -0 
z
" style="fill: #ffffff"/>
  </g>
  <g id="axes_1">
   <g id="line2d_1">
    <defs>
     <path id="m6b597c6a6d" d="M 0 4.5 
C 1.193414 4.5 2.338109 4.025852 3.181981 3.181981 
C 4.025852 2.338109 4.5 1.193414 4.5 0 
C 4.5 -1.193414 4.025852 -2.338109 3.181981 -3.181981 
C 2.338109 -4.025852 1.193414 -4.5 0 -4.5 
C -1.193414 -4.5 -2.338109 -4.025852 -3.181981 -3.181981 
C -4.025852 -2.338109 -4.5 -1.193414 -4.5 0 
C -4.5 1.193414 -4.025852 2.338109 -3.181981 3.181981 
C -2.338109 4.025852 -1.193414 4.5 0 4.5 
z
" style="stroke: #2563eb"/>
    </defs>
    <g clip-path="url(#pe0ef0485b3)">
     <use xlink:href="#m6b597c6a6d" x="82.296" y="139.092731" style="fill: #2563eb; stroke: #2563eb"/>
    </g>
   </g>
   <g id="text_1">
    <!-- 각도에서 속도 벡터 만들기 -->
    <g style="fill: #111827" transform="translate(8.64 20.054062) scale(0.15 -0.15)">
     <defs>
      <path id="NanumGothicBold-ac01" d="M 5005 -909 
Q 5005 -941 4976 -969 
Q 4947 -998 4909 -998 
L 4365 -998 
Q 4326 -998 4294 -969 
Q 4262 -941 4262 -909 
L 4262 544 
Q 4262 614 4236 633 
Q 4211 653 4147 653 
L 1254 653 
Q 1222 653 1193 675 
Q 1165 698 1165 730 
L 1165 1184 
Q 1165 1229 1193 1248 
Q 1222 1267 1254 1267 
L 4576 1267 
Q 4819 1267 4912 1164 
Q 5005 1062 5005 819 
L 5005 -909 
z
M 5971 2995 
Q 5971 2963 5942 2937 
Q 5914 2912 5875 2912 
L 5011 2912 
L 5011 1670 
Q 5011 1587 4922 1587 
L 4358 1587 
Q 4326 1587 4297 1612 
Q 4269 1638 4269 1677 
L 4269 4979 
Q 4269 5011 4297 5036 
Q 4326 5062 4358 5062 
L 4922 5062 
Q 5011 5062 5011 4979 
L 5011 3526 
L 5875 3526 
Q 5914 3526 5942 3500 
Q 5971 3475 5971 3443 
L 5971 2995 
z
M 723 1523 
Q 570 1459 518 1581 
L 352 1914 
Q 326 1965 336 2016 
Q 346 2067 416 2099 
Q 1203 2438 1740 2918 
Q 2278 3398 2458 3981 
Q 2490 4083 2486 4124 
Q 2483 4166 2368 4166 
L 627 4166 
Q 589 4166 566 4195 
Q 544 4224 544 4262 
L 544 4685 
Q 544 4774 634 4774 
L 2803 4774 
Q 3085 4774 3200 4684 
Q 3315 4595 3315 4390 
Q 3315 4365 3305 4317 
Q 3296 4269 3286 4217 
Q 3277 4166 3267 4124 
Q 3258 4083 3251 4064 
Q 3008 3187 2371 2563 
Q 1734 1939 723 1523 
z
" transform="scale(0.015625)"/>
      <path id="NanumGothicBold-b3c4" d="M 5069 1971 
Q 5069 1920 5046 1897 
Q 5024 1875 4992 1875 
L 3373 1875 
L 3373 640 
L 5786 640 
Q 5818 640 5850 608 
Q 5882 576 5882 544 
L 5882 122 
Q 5882 90 5850 58 
Q 5818 26 5786 26 
L 211 26 
Q 173 26 147 58 
Q 122 90 122 122 
L 122 544 
Q 122 582 147 611 
Q 173 640 211 640 
L 2637 640 
L 2637 1875 
L 1446 1875 
Q 1190 1875 1075 2003 
Q 960 2131 960 2355 
L 960 4224 
Q 960 4467 1069 4553 
Q 1178 4640 1421 4640 
L 4934 4640 
Q 5024 4640 5024 4557 
L 5024 4109 
Q 5024 4026 4934 4026 
L 1811 4026 
Q 1696 4026 1696 3917 
L 1696 2598 
Q 1696 2541 1718 2512 
Q 1741 2483 1811 2483 
L 4966 2483 
Q 5018 2483 5043 2470 
Q 5069 2458 5069 2406 
L 5069 1971 
z
" transform="scale(0.015625)"/>
      <path id="NanumGothicBold-c5d0" d="M 2342 2630 
Q 2342 2874 2304 3117 
Q 2266 3360 2182 3558 
Q 2099 3757 1968 3878 
Q 1837 4000 1658 4000 
Q 1491 4000 1369 3875 
Q 1248 3750 1171 3552 
Q 1094 3354 1056 3110 
Q 1018 2867 1018 2630 
Q 1018 2400 1056 2157 
Q 1094 1914 1171 1712 
Q 1248 1510 1369 1382 
Q 1491 1254 1658 1254 
Q 1837 1254 1965 1382 
Q 2093 1510 2176 1708 
Q 2259 1907 2300 2150 
Q 2342 2394 2342 2630 
z
M 4314 -717 
Q 4314 -806 4230 -806 
L 3706 -806 
Q 3616 -806 3616 -717 
L 3616 2291 
L 3034 2291 
Q 3002 1901 2883 1593 
Q 2765 1286 2582 1072 
Q 2400 858 2163 746 
Q 1926 634 1651 634 
Q 1344 634 1094 771 
Q 845 909 669 1168 
Q 493 1427 397 1798 
Q 301 2170 301 2637 
Q 301 3142 403 3520 
Q 506 3898 685 4147 
Q 864 4397 1110 4518 
Q 1357 4640 1651 4640 
Q 1933 4640 2176 4534 
Q 2419 4429 2604 4214 
Q 2790 4000 2905 3673 
Q 3021 3347 3046 2906 
L 3616 2906 
L 3616 4870 
Q 3616 4954 3706 4954 
L 4230 4954 
Q 4314 4954 4314 4870 
L 4314 -717 
z
M 5549 -934 
Q 5549 -1018 5466 -1018 
L 4909 -1018 
Q 4826 -1018 4826 -934 
L 4826 4979 
Q 4826 5062 4915 5062 
L 5466 5062 
Q 5549 5062 5549 4979 
L 5549 -934 
z
" transform="scale(0.015625)"/>
      <path id="NanumGothicBold-c11c" d="M 5382 -928 
Q 5382 -1011 5299 -1011 
L 4730 -1011 
Q 4646 -1011 4646 -928 
L 4646 2458 
L 3328 2458 
Q 3296 2458 3267 2483 
Q 3238 2509 3238 2541 
L 3238 2995 
Q 3238 3027 3267 3049 
Q 3296 3072 3328 3072 
L 4646 3072 
L 4646 4979 
Q 4646 5062 4730 5062 
L 5299 5062 
Q 5382 5062 5382 4979 
L 5382 -928 
z
M 800 339 
Q 678 243 576 346 
L 275 627 
Q 186 717 294 819 
Q 710 1203 1004 1664 
Q 1299 2125 1478 2650 
Q 1638 3117 1699 3600 
Q 1760 4083 1747 4653 
Q 1747 4691 1776 4720 
Q 1805 4749 1837 4749 
L 2406 4730 
Q 2438 4730 2464 4701 
Q 2490 4672 2490 4634 
Q 2490 3846 2374 3187 
Q 2432 2880 2566 2569 
Q 2701 2259 2883 1974 
Q 3066 1690 3277 1446 
Q 3488 1203 3699 1037 
Q 3802 960 3712 832 
L 3443 506 
Q 3411 461 3356 454 
Q 3302 448 3238 493 
Q 3078 614 2902 800 
Q 2726 986 2566 1200 
Q 2406 1414 2272 1641 
Q 2138 1869 2061 2080 
Q 1946 1811 1798 1561 
Q 1651 1312 1488 1085 
Q 1325 858 1149 669 
Q 973 480 800 339 
z
" transform="scale(0.015625)"/>
      <path id="NanumGothicBold-20" transform="scale(0.015625)"/>
      <path id="NanumGothicBold-c18d" d="M 5875 1677 
Q 5875 1645 5843 1613 
Q 5811 1581 5779 1581 
L 211 1581 
Q 173 1581 147 1609 
Q 122 1638 122 1677 
L 122 2099 
Q 122 2138 147 2166 
Q 173 2195 211 2195 
L 2630 2195 
L 2630 2976 
Q 2630 3066 2720 3066 
L 3245 3066 
Q 3283 3066 3312 3040 
Q 3341 3014 3341 2976 
L 3341 2195 
L 5779 2195 
Q 5811 2195 5843 2163 
Q 5875 2131 5875 2099 
L 5875 1677 
z
M 986 2726 
Q 845 2694 813 2765 
L 640 3174 
Q 627 3206 640 3244 
Q 653 3283 698 3296 
Q 1152 3418 1497 3571 
Q 1843 3725 2083 3923 
Q 2323 4122 2457 4378 
Q 2592 4634 2624 4960 
Q 2637 5062 2746 5062 
L 3251 5043 
Q 3341 5043 3341 4954 
Q 3334 4890 3331 4832 
Q 3328 4774 3315 4710 
Q 3418 4467 3626 4249 
Q 3834 4032 4102 3856 
Q 4371 3680 4684 3549 
Q 4998 3418 5312 3341 
Q 5350 3328 5366 3293 
Q 5382 3258 5370 3226 
L 5178 2835 
Q 5146 2746 5030 2765 
Q 4768 2810 4480 2922 
Q 4192 3034 3920 3194 
Q 3648 3354 3414 3552 
Q 3181 3750 3027 3974 
Q 2726 3526 2198 3209 
Q 1670 2893 986 2726 
z
M 5018 -954 
Q 5018 -986 4989 -1014 
Q 4960 -1043 4928 -1043 
L 4371 -1043 
Q 4333 -1043 4304 -1014 
Q 4275 -986 4275 -954 
L 4275 333 
Q 4275 397 4249 416 
Q 4224 435 4160 435 
L 986 435 
Q 954 435 925 457 
Q 896 480 896 512 
L 896 966 
Q 896 1005 925 1024 
Q 954 1043 986 1043 
L 4595 1043 
Q 4858 1043 4938 953 
Q 5018 864 5018 589 
L 5018 -954 
z
" transform="scale(0.015625)"/>
      <path id="NanumGothicBold-bca1" d="M 2970 2362 
Q 2970 2144 2867 2038 
Q 2765 1933 2483 1933 
L 934 1933 
Q 646 1933 544 2029 
Q 442 2125 442 2381 
L 442 4691 
Q 442 4723 467 4745 
Q 493 4768 525 4768 
L 1062 4768 
Q 1094 4768 1123 4745 
Q 1152 4723 1152 4691 
L 1152 3846 
L 2259 3846 
L 2259 4698 
Q 2259 4730 2284 4755 
Q 2310 4781 2342 4781 
L 2886 4781 
Q 2918 4781 2944 4755 
Q 2970 4730 2970 4698 
L 2970 3616 
L 3616 3616 
L 3616 4877 
Q 3616 4960 3706 4960 
L 4230 4960 
Q 4314 4960 4314 4877 
L 4314 1670 
Q 4314 1587 4230 1587 
L 3706 1587 
Q 3616 1587 3616 1670 
L 3616 3002 
L 2970 3002 
L 2970 2362 
z
M 5549 -909 
Q 5549 -941 5520 -969 
Q 5491 -998 5459 -998 
L 4909 -998 
Q 4870 -998 4841 -969 
Q 4813 -941 4813 -909 
L 4813 499 
Q 4813 570 4784 589 
Q 4755 608 4691 608 
L 1504 608 
Q 1472 608 1443 630 
Q 1414 653 1414 685 
L 1414 1139 
Q 1414 1178 1443 1200 
Q 1472 1222 1504 1222 
L 5126 1222 
Q 5370 1222 5459 1120 
Q 5549 1018 5549 774 
L 5549 -909 
z
M 4826 4979 
Q 4826 5062 4915 5062 
L 5466 5062 
Q 5549 5062 5549 4979 
L 5549 1626 
Q 5549 1594 5523 1565 
Q 5498 1536 5466 1536 
L 4909 1536 
Q 4877 1536 4851 1565 
Q 4826 1594 4826 1626 
L 4826 4979 
z
M 2259 3258 
L 1152 3258 
L 1152 2637 
Q 1152 2528 1274 2528 
L 2138 2528 
Q 2259 2528 2259 2637 
L 2259 3258 
z
" transform="scale(0.015625)"/>
      <path id="NanumGothicBold-d130" d="M 3776 922 
Q 3789 851 3760 825 
Q 3731 800 3699 787 
Q 3488 723 3149 672 
Q 2810 621 2432 592 
Q 2054 563 1686 556 
Q 1318 550 1050 576 
Q 589 614 589 1037 
L 589 4179 
Q 589 4403 681 4492 
Q 774 4582 1018 4582 
L 3136 4582 
Q 3232 4582 3232 4499 
L 3232 4051 
Q 3232 3968 3136 3968 
L 1440 3968 
Q 1325 3968 1325 3859 
L 1325 2957 
Q 1530 2957 1750 2957 
Q 1971 2957 2188 2960 
Q 2406 2963 2608 2969 
Q 2810 2976 2976 2989 
Q 3002 2989 3027 2976 
Q 3053 2963 3053 2931 
L 3059 2490 
Q 3059 2438 3040 2409 
Q 3021 2381 3002 2381 
Q 2822 2368 2611 2358 
Q 2400 2349 2179 2342 
Q 1958 2336 1740 2336 
Q 1523 2336 1325 2336 
L 1325 1357 
Q 1325 1254 1360 1219 
Q 1395 1184 1510 1178 
Q 1709 1165 1955 1168 
Q 2202 1171 2470 1193 
Q 2739 1216 3027 1251 
Q 3315 1286 3597 1344 
Q 3693 1363 3712 1274 
L 3776 922 
z
M 4640 4979 
Q 4640 5062 4723 5062 
L 5293 5062 
Q 5376 5062 5376 4979 
L 5376 -928 
Q 5376 -1011 5293 -1011 
L 4723 -1011 
Q 4640 -1011 4640 -928 
L 4640 2426 
L 3654 2426 
Q 3629 2426 3593 2451 
Q 3558 2477 3558 2528 
L 3558 2944 
Q 3558 2989 3593 3014 
Q 3629 3040 3654 3040 
L 4640 3040 
L 4640 4979 
z
" transform="scale(0.015625)"/>
      <path id="NanumGothicBold-b9cc" d="M 3424 2195 
Q 3424 1952 3325 1856 
Q 3226 1760 2982 1760 
L 1062 1760 
Q 838 1760 729 1856 
Q 621 1952 621 2195 
L 621 4307 
Q 621 4550 720 4643 
Q 819 4736 1062 4736 
L 2982 4736 
Q 3226 4736 3325 4640 
Q 3424 4544 3424 4301 
L 3424 2195 
z
M 2694 4051 
Q 2694 4102 2678 4118 
Q 2662 4134 2611 4134 
L 1434 4134 
Q 1382 4134 1366 4121 
Q 1350 4109 1350 4058 
L 1350 2445 
Q 1350 2387 1366 2374 
Q 1382 2362 1434 2362 
L 2611 2362 
Q 2662 2362 2678 2374 
Q 2694 2387 2694 2445 
L 2694 4051 
z
M 5254 -826 
Q 5254 -864 5225 -883 
Q 5197 -902 5165 -902 
L 1779 -902 
Q 1491 -902 1392 -800 
Q 1293 -698 1293 -448 
L 1293 960 
Q 1293 992 1321 1021 
Q 1350 1050 1382 1050 
L 1933 1050 
Q 1971 1050 2000 1021 
Q 2029 992 2029 960 
L 2029 -186 
Q 2029 -250 2054 -269 
Q 2080 -288 2144 -288 
L 5165 -288 
Q 5197 -288 5225 -313 
Q 5254 -339 5254 -371 
L 5254 -826 
z
M 5965 2605 
Q 5965 2573 5936 2547 
Q 5907 2522 5875 2522 
L 5005 2522 
L 5005 832 
Q 5005 749 4922 749 
L 4352 749 
Q 4269 749 4269 832 
L 4269 4979 
Q 4269 5062 4352 5062 
L 4922 5062 
Q 5005 5062 5005 4979 
L 5005 3136 
L 5875 3136 
Q 5907 3136 5936 3113 
Q 5965 3091 5965 3059 
L 5965 2605 
z
" transform="scale(0.015625)"/>
      <path id="NanumGothicBold-b4e4" d="M 5875 2157 
Q 5875 2125 5843 2093 
Q 5811 2061 5779 2061 
L 211 2061 
Q 173 2061 147 2089 
Q 122 2118 122 2157 
L 122 2554 
Q 122 2650 211 2650 
L 5779 2650 
Q 5811 2650 5843 2627 
Q 5875 2605 5875 2573 
L 5875 2157 
z
M 5024 3206 
Q 5024 3155 5001 3132 
Q 4979 3110 4947 3110 
L 1491 3110 
Q 1235 3110 1132 3228 
Q 1030 3347 1030 3571 
L 1030 4653 
Q 1030 4896 1139 4982 
Q 1248 5069 1491 5069 
L 4890 5069 
Q 4979 5069 4979 4986 
L 4979 4563 
Q 4979 4474 4890 4474 
L 1875 4474 
Q 1754 4474 1754 4365 
L 1754 3814 
Q 1754 3763 1779 3734 
Q 1805 3706 1875 3706 
L 4922 3706 
Q 4973 3706 4998 3693 
Q 5024 3680 5024 3629 
L 5024 3206 
z
M 5139 -845 
Q 5139 -877 5107 -905 
Q 5075 -934 5050 -934 
L 1472 -934 
Q 1222 -934 1132 -844 
Q 1043 -755 1043 -550 
L 1043 237 
Q 1043 442 1129 534 
Q 1216 627 1466 627 
L 4192 627 
Q 4243 627 4256 636 
Q 4269 646 4269 704 
L 4269 934 
Q 4269 1005 4256 1017 
Q 4243 1030 4186 1030 
L 1120 1030 
Q 1088 1030 1059 1052 
Q 1030 1075 1030 1107 
L 1030 1536 
Q 1030 1568 1059 1597 
Q 1088 1626 1120 1626 
L 4550 1626 
Q 4813 1626 4899 1542 
Q 4986 1459 4986 1242 
L 4986 461 
Q 4986 237 4899 160 
Q 4813 83 4550 83 
L 1843 83 
Q 1792 83 1779 67 
Q 1766 51 1766 0 
L 1766 -262 
Q 1766 -320 1779 -329 
Q 1792 -339 1850 -339 
L 5043 -339 
Q 5075 -339 5107 -361 
Q 5139 -384 5139 -429 
L 5139 -845 
z
" transform="scale(0.015625)"/>
      <path id="NanumGothicBold-ae30" d="M 5274 -928 
Q 5274 -1011 5190 -1011 
L 4621 -1011 
Q 4538 -1011 4538 -928 
L 4538 4979 
Q 4538 5062 4621 5062 
L 5190 5062 
Q 5274 5062 5274 4979 
L 5274 -928 
z
M 3546 4102 
Q 3494 3482 3286 2931 
Q 3078 2381 2736 1907 
Q 2394 1434 1926 1030 
Q 1459 627 896 294 
Q 845 262 784 272 
Q 723 282 691 333 
L 474 672 
Q 442 723 454 771 
Q 467 819 512 845 
Q 1466 1408 2038 2144 
Q 2611 2880 2784 3757 
Q 2810 3885 2771 3926 
Q 2733 3968 2611 3968 
L 806 3968 
Q 717 3968 717 4058 
L 717 4506 
Q 717 4582 806 4582 
L 3098 4582 
Q 3386 4582 3475 4464 
Q 3565 4346 3546 4102 
z
" transform="scale(0.015625)"/>
     </defs>
     <use xlink:href="#NanumGothicBold-ac01"/>
     <use xlink:href="#NanumGothicBold-b3c4" transform="translate(93.999985 0)"/>
     <use xlink:href="#NanumGothicBold-c5d0" transform="translate(187.999969 0)"/>
     <use xlink:href="#NanumGothicBold-c11c" transform="translate(281.999954 0)"/>
     <use xlink:href="#NanumGothicBold-20" transform="translate(375.999939 0)"/>
     <use xlink:href="#NanumGothicBold-c18d" transform="translate(403.999924 0)"/>
     <use xlink:href="#NanumGothicBold-b3c4" transform="translate(497.999908 0)"/>
     <use xlink:href="#NanumGothicBold-20" transform="translate(591.999893 0)"/>
     <use xlink:href="#NanumGothicBold-bca1" transform="translate(619.999878 0)"/>
     <use xlink:href="#NanumGothicBold-d130" transform="translate(713.999863 0)"/>
     <use xlink:href="#NanumGothicBold-20" transform="translate(807.999847 0)"/>
     <use xlink:href="#NanumGothicBold-b9cc" transform="translate(835.999832 0)"/>
     <use xlink:href="#NanumGothicBold-b4e4" transform="translate(929.999817 0)"/>
     <use xlink:href="#NanumGothicBold-ae30" transform="translate(1023.999802 0)"/>
    </g>
   </g>
   <g id="patch_2">
    <path d="M 84.102559 138.236993 
Q 152.268213 105.947999 217.402639 75.09485 
" clip-path="url(#pe0ef0485b3)" style="fill: none; stroke: #10b981; stroke-width: 3; stroke-linecap: round"/>
    <path d="M 211.143065 74.961667 
L 217.402639 75.09485 
L 213.540349 80.022599 
z
" clip-path="url(#pe0ef0485b3)" style="fill: #10b981; stroke: #10b981; stroke-width: 3; stroke-linecap: round"/>
   </g>
   <g id="text_2">
    <!-- shooter -->
    <g style="fill: #2563eb" transform="translate(74.9304 158.723847) scale(0.11 -0.11)">
     <defs>
      <path id="NanumGothic-73" d="M 422 147 
Q 813 -13 1229 -13 
Q 1574 -13 1798 156 
Q 2022 326 2022 614 
Q 2022 781 1897 937 
Q 1773 1094 1594 1197 
Q 1395 1306 1187 1405 
Q 979 1504 787 1613 
Q 557 1741 448 1929 
Q 339 2118 339 2323 
Q 339 2560 428 2739 
Q 518 2918 672 3040 
Q 826 3162 1030 3219 
Q 1235 3277 1466 3277 
Q 1709 3277 1888 3251 
Q 2067 3226 2246 3174 
Q 2285 3162 2313 3136 
Q 2342 3110 2336 3066 
L 2317 2874 
Q 2310 2822 2278 2809 
Q 2246 2797 2214 2810 
Q 2054 2867 1894 2889 
Q 1734 2912 1510 2912 
Q 768 2912 768 2323 
Q 768 2195 867 2080 
Q 966 1965 1203 1850 
Q 1408 1747 1606 1654 
Q 1805 1562 2035 1434 
Q 2234 1325 2365 1101 
Q 2496 877 2496 614 
Q 2496 358 2393 172 
Q 2291 -13 2118 -134 
Q 1946 -256 1722 -317 
Q 1498 -378 1261 -378 
Q 1120 -378 1008 -371 
Q 896 -365 797 -352 
Q 698 -339 595 -320 
Q 493 -301 378 -269 
Q 288 -237 294 -154 
L 320 83 
Q 333 186 422 147 
z
" transform="scale(0.015625)"/>
      <path id="NanumGothic-68" d="M 3334 -186 
Q 3334 -275 3245 -275 
L 2989 -275 
Q 2899 -275 2899 -186 
L 2899 1786 
Q 2899 2093 2844 2307 
Q 2790 2522 2688 2653 
Q 2586 2784 2438 2841 
Q 2291 2899 2112 2899 
Q 1587 2899 1308 2649 
Q 1030 2400 1030 1958 
L 1030 -186 
Q 1030 -275 941 -275 
L 685 -275 
Q 595 -275 595 -186 
L 595 4730 
Q 595 4819 685 4819 
L 941 4819 
Q 1030 4819 1030 4730 
L 1030 2874 
Q 1210 3078 1475 3171 
Q 1741 3264 2138 3264 
Q 2758 3264 3046 2899 
Q 3334 2534 3334 1792 
L 3334 -186 
z
" transform="scale(0.015625)"/>
      <path id="NanumGothic-6f" d="M 3130 1453 
Q 3130 1754 3050 2016 
Q 2970 2278 2829 2483 
Q 2496 2893 1965 2893 
Q 1696 2893 1481 2787 
Q 1267 2682 1101 2483 
Q 954 2278 874 2016 
Q 794 1754 794 1453 
Q 794 1146 874 883 
Q 954 621 1101 422 
Q 1440 6 1965 6 
Q 2234 6 2448 115 
Q 2662 224 2829 422 
Q 2970 621 3050 883 
Q 3130 1146 3130 1453 
z
M 3603 1453 
Q 3603 1075 3494 752 
Q 3386 429 3206 186 
Q 2982 -83 2672 -230 
Q 2362 -378 1965 -378 
Q 1568 -378 1254 -230 
Q 941 -83 717 186 
Q 538 429 432 752 
Q 326 1075 326 1453 
Q 326 2227 717 2720 
Q 1165 3277 1965 3277 
Q 2368 3277 2675 3139 
Q 2982 3002 3206 2720 
Q 3603 2214 3603 1453 
z
" transform="scale(0.015625)"/>
      <path id="NanumGothic-74" d="M 2208 -282 
Q 1939 -378 1677 -378 
Q 1158 -378 992 -38 
Q 883 192 883 774 
L 883 2816 
L 282 2816 
Q 192 2816 192 2906 
L 192 3098 
Q 192 3187 282 3187 
L 883 3187 
L 883 4051 
Q 883 4147 966 4147 
L 1235 4147 
Q 1318 4147 1318 4051 
L 1318 3187 
L 2029 3187 
Q 2118 3187 2118 3098 
L 2118 2906 
Q 2118 2816 2029 2816 
L 1318 2816 
L 1318 557 
Q 1318 -13 1779 -13 
Q 1958 -13 2182 64 
Q 2214 77 2243 64 
Q 2272 51 2272 13 
L 2285 -154 
Q 2298 -243 2208 -282 
z
" transform="scale(0.015625)"/>
      <path id="NanumGothic-65" d="M 2733 1696 
Q 2733 1958 2681 2163 
Q 2630 2368 2522 2534 
Q 2285 2912 1837 2912 
Q 1376 2912 1088 2528 
Q 973 2355 896 2131 
Q 819 1907 813 1696 
L 2733 1696 
z
M 813 1331 
Q 806 1011 886 764 
Q 966 518 1120 352 
Q 1274 186 1488 96 
Q 1702 6 1965 6 
Q 2221 6 2445 54 
Q 2669 102 2861 211 
Q 2944 250 2944 166 
L 2944 -122 
Q 2944 -179 2874 -211 
Q 2662 -294 2432 -336 
Q 2202 -378 1933 -378 
Q 1146 -378 742 80 
Q 339 538 339 1459 
Q 339 2272 742 2771 
Q 1165 3277 1811 3277 
Q 2170 3277 2432 3149 
Q 2694 3021 2880 2765 
Q 3206 2310 3206 1549 
Q 3206 1466 3203 1421 
Q 3200 1376 3181 1357 
Q 3162 1338 3114 1334 
Q 3066 1331 2976 1331 
L 813 1331 
z
" transform="scale(0.015625)"/>
      <path id="NanumGothic-72" d="M 2221 2797 
Q 2106 2835 1914 2835 
Q 1440 2835 1210 2368 
Q 1030 2003 1030 1434 
L 1030 -186 
Q 1030 -275 941 -275 
L 691 -275 
Q 602 -275 602 -186 
L 602 2413 
Q 602 2643 598 2787 
Q 595 2931 589 3098 
Q 589 3187 678 3187 
L 915 3187 
Q 1005 3187 1005 3098 
L 1005 2470 
Q 1318 3277 1926 3277 
Q 2074 3277 2221 3238 
Q 2259 3226 2288 3197 
Q 2317 3168 2317 3117 
L 2317 2848 
Q 2317 2810 2285 2797 
Q 2253 2784 2221 2797 
z
" transform="scale(0.015625)"/>
     </defs>
     <use xlink:href="#NanumGothic-73"/>
     <use xlink:href="#NanumGothic-68" transform="translate(42.399994 0)"/>
     <use xlink:href="#NanumGothic-6f" transform="translate(102.999985 0)"/>
     <use xlink:href="#NanumGothic-6f" transform="translate(163.599976 0)"/>
     <use xlink:href="#NanumGothic-74" transform="translate(224.199966 0)"/>
     <use xlink:href="#NanumGothic-65" transform="translate(260.499954 0)"/>
     <use xlink:href="#NanumGothic-72" transform="translate(314.999939 0)"/>
    </g>
   </g>
   <g id="text_3">
    <!-- bulletVelocity = 방향 벡터 × speed -->
    <g style="fill: #10b981" transform="translate(112.445977 94.287581) scale(0.105 -0.105)">
     <defs>
      <path id="NanumGothic-62" d="M 3066 1478 
Q 3072 1747 3017 2003 
Q 2963 2259 2841 2464 
Q 2720 2669 2518 2793 
Q 2317 2918 2022 2918 
Q 1760 2918 1565 2806 
Q 1370 2694 1242 2496 
Q 1114 2298 1050 2035 
Q 986 1773 986 1478 
Q 986 1190 1066 924 
Q 1146 659 1283 460 
Q 1421 262 1609 144 
Q 1798 26 2022 26 
Q 2317 26 2518 150 
Q 2720 275 2841 480 
Q 2963 685 3017 947 
Q 3072 1210 3066 1478 
z
M 557 4749 
Q 557 4838 646 4838 
L 896 4838 
Q 986 4838 986 4749 
L 986 2707 
Q 1146 2970 1440 3126 
Q 1734 3283 2099 3283 
Q 3526 3283 3526 1478 
Q 3533 1120 3453 790 
Q 3373 461 3193 211 
Q 3014 -38 2742 -188 
Q 2470 -339 2099 -339 
Q 1331 -339 986 314 
L 986 -186 
Q 986 -275 896 -275 
L 646 -275 
Q 557 -275 557 -186 
L 557 4749 
z
" transform="scale(0.015625)"/>
      <path id="NanumGothic-75" d="M 3347 -186 
Q 3347 -275 3258 -275 
L 3027 -275 
Q 2938 -275 2938 -186 
L 2938 346 
Q 2771 -38 2492 -208 
Q 2214 -378 1792 -378 
Q 595 -378 595 960 
L 595 3098 
Q 595 3187 685 3187 
L 941 3187 
Q 1030 3187 1030 3098 
L 1030 1075 
Q 1030 -13 1862 -13 
Q 2106 -13 2301 92 
Q 2496 198 2630 380 
Q 2765 563 2835 806 
Q 2906 1050 2899 1318 
L 2899 3098 
Q 2899 3187 2989 3187 
L 3245 3187 
Q 3334 3187 3334 3098 
L 3334 525 
Q 3334 314 3337 147 
Q 3341 -19 3347 -186 
z
" transform="scale(0.015625)"/>
      <path id="NanumGothic-6c" d="M 1056 -186 
Q 1056 -275 966 -275 
L 685 -275 
Q 595 -275 595 -186 
L 595 4723 
Q 595 4813 685 4813 
L 966 4813 
Q 1056 4813 1056 4723 
L 1056 -186 
z
" transform="scale(0.015625)"/>
      <path id="NanumGothic-56" d="M 3706 4371 
Q 3718 4410 3750 4435 
Q 3782 4461 3821 4461 
L 4109 4461 
Q 4147 4461 4166 4432 
Q 4186 4403 4173 4371 
L 2426 -192 
Q 2406 -243 2384 -259 
Q 2362 -275 2310 -275 
L 1958 -275 
Q 1907 -275 1884 -259 
Q 1862 -243 1843 -192 
L 134 4371 
Q 122 4403 141 4432 
Q 160 4461 198 4461 
L 518 4461 
Q 595 4461 634 4371 
L 2138 192 
Q 2522 1222 2912 2262 
Q 3302 3302 3706 4371 
z
" transform="scale(0.015625)"/>
      <path id="NanumGothic-63" d="M 2816 -301 
Q 2624 -333 2445 -345 
Q 2266 -358 2016 -358 
Q 1619 -358 1308 -217 
Q 998 -77 784 166 
Q 570 410 454 742 
Q 339 1075 339 1459 
Q 339 1850 460 2179 
Q 582 2509 809 2749 
Q 1037 2989 1353 3126 
Q 1670 3264 2067 3264 
Q 2278 3264 2451 3248 
Q 2624 3232 2822 3187 
Q 2912 3162 2906 3066 
L 2886 2861 
Q 2874 2784 2790 2803 
Q 2624 2854 2470 2876 
Q 2317 2899 2131 2899 
Q 1805 2899 1558 2793 
Q 1312 2688 1145 2496 
Q 979 2304 896 2038 
Q 813 1773 813 1459 
Q 813 1171 899 908 
Q 986 646 1149 444 
Q 1312 243 1545 124 
Q 1779 6 2080 6 
Q 2304 6 2451 25 
Q 2598 45 2784 96 
Q 2880 122 2886 51 
L 2906 -186 
Q 2912 -282 2816 -301 
z
" transform="scale(0.015625)"/>
      <path id="NanumGothic-69" d="M 1050 -186 
Q 1050 -275 960 -275 
L 678 -275 
Q 589 -275 589 -186 
L 589 3098 
Q 589 3187 678 3187 
L 960 3187 
Q 1050 3187 1050 3098 
L 1050 -186 
z
M 506 4397 
Q 506 4525 595 4617 
Q 685 4710 813 4710 
Q 941 4710 1033 4617 
Q 1126 4525 1126 4397 
Q 1126 4269 1033 4179 
Q 941 4090 813 4090 
Q 685 4090 595 4179 
Q 506 4269 506 4397 
z
" transform="scale(0.015625)"/>
      <path id="NanumGothic-79" d="M 301 -1222 
Q 224 -1203 237 -1126 
L 256 -909 
Q 256 -832 333 -864 
Q 435 -902 570 -902 
Q 704 -902 816 -860 
Q 928 -819 986 -749 
Q 1056 -659 1142 -454 
Q 1229 -250 1312 13 
Q 1024 794 742 1555 
Q 461 2317 173 3098 
Q 160 3130 173 3158 
Q 186 3187 224 3187 
L 525 3187 
Q 614 3187 653 3098 
L 1517 614 
Q 1754 1267 1968 1859 
Q 2182 2451 2419 3098 
Q 2451 3187 2547 3187 
L 2822 3187 
Q 2861 3187 2873 3158 
Q 2886 3130 2874 3098 
L 1542 -474 
Q 1472 -659 1385 -806 
Q 1299 -954 1210 -1043 
Q 1094 -1152 953 -1206 
Q 813 -1261 659 -1261 
Q 563 -1261 486 -1254 
Q 410 -1248 301 -1222 
z
" transform="scale(0.015625)"/>
      <path id="NanumGothic-20" transform="scale(0.015625)"/>
      <path id="NanumGothic-3d" d="M 3757 2995 
Q 3827 2995 3836 2985 
Q 3846 2976 3846 2906 
L 3846 2618 
Q 3846 2547 3836 2537 
Q 3827 2528 3757 2528 
L 467 2528 
Q 397 2528 387 2537 
Q 378 2547 378 2618 
L 378 2906 
Q 378 2976 387 2985 
Q 397 2995 467 2995 
L 3757 2995 
z
M 3757 1626 
Q 3827 1626 3836 1616 
Q 3846 1606 3846 1536 
L 3846 1261 
Q 3846 1190 3836 1180 
Q 3827 1171 3757 1171 
L 467 1171 
Q 397 1171 387 1180 
Q 378 1190 378 1261 
L 378 1536 
Q 378 1606 387 1616 
Q 397 1626 467 1626 
L 3757 1626 
z
" transform="scale(0.015625)"/>
      <path id="NanumGothic-bc29" d="M 5005 250 
Q 5005 -26 4857 -243 
Q 4710 -461 4457 -611 
Q 4205 -762 3869 -842 
Q 3533 -922 3149 -922 
Q 2733 -922 2393 -842 
Q 2054 -762 1811 -611 
Q 1568 -461 1433 -243 
Q 1299 -26 1299 250 
Q 1299 518 1433 732 
Q 1568 947 1811 1097 
Q 2054 1248 2393 1328 
Q 2733 1408 3149 1408 
Q 3533 1408 3869 1328 
Q 4205 1248 4457 1101 
Q 4710 954 4857 739 
Q 5005 525 5005 250 
z
M 1158 1971 
Q 1005 1971 912 1990 
Q 819 2010 768 2064 
Q 717 2118 697 2204 
Q 678 2291 678 2426 
L 678 4730 
Q 678 4762 704 4784 
Q 730 4806 762 4806 
L 1037 4806 
Q 1069 4806 1091 4780 
Q 1114 4755 1114 4730 
L 1114 3731 
L 2982 3731 
L 2982 4723 
Q 2982 4755 3004 4780 
Q 3027 4806 3059 4806 
L 3334 4806 
Q 3366 4806 3392 4784 
Q 3418 4762 3418 4730 
L 3418 2381 
Q 3418 2138 3315 2054 
Q 3213 1971 2931 1971 
L 1158 1971 
z
M 4550 230 
Q 4550 422 4435 569 
Q 4320 717 4125 816 
Q 3930 915 3674 969 
Q 3418 1024 3142 1024 
Q 2835 1024 2579 969 
Q 2323 915 2140 816 
Q 1958 717 1856 569 
Q 1754 422 1754 230 
Q 1754 45 1856 -99 
Q 1958 -243 2140 -339 
Q 2323 -435 2579 -486 
Q 2835 -538 3142 -538 
Q 3418 -538 3674 -486 
Q 3930 -435 4125 -339 
Q 4320 -243 4435 -99 
Q 4550 45 4550 230 
z
M 4928 1530 
Q 4928 1440 4838 1440 
L 4576 1440 
Q 4486 1440 4486 1530 
L 4486 4915 
Q 4486 5005 4576 5005 
L 4838 5005 
Q 4928 5005 4928 4915 
L 4928 3373 
L 5811 3373 
Q 5850 3373 5878 3347 
Q 5907 3322 5907 3283 
L 5907 3072 
Q 5907 3040 5878 3014 
Q 5850 2989 5811 2989 
L 4928 2989 
L 4928 1530 
z
M 1114 3354 
L 1114 2502 
Q 1114 2406 1146 2377 
Q 1178 2349 1267 2349 
L 2829 2349 
Q 2918 2349 2950 2377 
Q 2982 2406 2982 2502 
L 2982 3354 
L 1114 3354 
z
" transform="scale(0.015625)"/>
      <path id="NanumGothic-d5a5" d="M 5005 64 
Q 5005 -160 4857 -339 
Q 4710 -518 4457 -646 
Q 4205 -774 3869 -844 
Q 3533 -915 3149 -915 
Q 2733 -915 2393 -844 
Q 2054 -774 1811 -646 
Q 1568 -518 1433 -339 
Q 1299 -160 1299 64 
Q 1299 282 1433 458 
Q 1568 634 1811 762 
Q 2054 890 2393 960 
Q 2733 1030 3149 1030 
Q 3533 1030 3869 963 
Q 4205 896 4457 768 
Q 4710 640 4857 461 
Q 5005 282 5005 64 
z
M 3533 2413 
Q 3533 2182 3427 1993 
Q 3322 1805 3139 1664 
Q 2957 1523 2704 1446 
Q 2451 1370 2157 1370 
Q 1856 1370 1606 1446 
Q 1357 1523 1171 1664 
Q 986 1805 883 1997 
Q 781 2189 781 2413 
Q 781 2643 883 2835 
Q 986 3027 1171 3161 
Q 1357 3296 1606 3373 
Q 1856 3450 2157 3450 
Q 2451 3450 2704 3373 
Q 2957 3296 3139 3158 
Q 3322 3021 3427 2829 
Q 3533 2637 3533 2413 
z
M 4550 45 
Q 4550 192 4435 307 
Q 4320 422 4125 502 
Q 3930 582 3674 624 
Q 3418 666 3142 666 
Q 2835 666 2579 624 
Q 2323 582 2140 502 
Q 1958 422 1856 307 
Q 1754 192 1754 45 
Q 1754 -96 1856 -208 
Q 1958 -320 2140 -397 
Q 2323 -474 2579 -512 
Q 2835 -550 3142 -550 
Q 3418 -550 3674 -512 
Q 3930 -474 4125 -397 
Q 4320 -320 4435 -208 
Q 4550 -96 4550 45 
z
M 4928 1254 
Q 4928 1165 4838 1165 
L 4576 1165 
Q 4486 1165 4486 1254 
L 4486 4915 
Q 4486 5005 4576 5005 
L 4838 5005 
Q 4928 5005 4928 4915 
L 4928 3776 
L 5811 3776 
Q 5850 3776 5878 3753 
Q 5907 3731 5907 3693 
L 5907 3482 
Q 5907 3450 5878 3424 
Q 5850 3398 5811 3398 
L 4928 3398 
L 4928 2630 
L 5811 2630 
Q 5850 2630 5878 2608 
Q 5907 2586 5907 2547 
L 5907 2336 
Q 5907 2304 5878 2278 
Q 5850 2253 5811 2253 
L 4928 2253 
L 4928 1254 
z
M 3104 2413 
Q 3104 2566 3033 2691 
Q 2963 2816 2835 2902 
Q 2707 2989 2534 3037 
Q 2362 3085 2157 3085 
Q 1952 3085 1779 3037 
Q 1606 2989 1478 2902 
Q 1350 2816 1276 2691 
Q 1203 2566 1203 2413 
Q 1203 2259 1276 2134 
Q 1350 2010 1478 1920 
Q 1606 1830 1779 1782 
Q 1952 1734 2157 1734 
Q 2362 1734 2534 1782 
Q 2707 1830 2835 1920 
Q 2963 2010 3033 2134 
Q 3104 2259 3104 2413 
z
M 4026 3827 
Q 4026 3744 3930 3744 
L 397 3744 
Q 365 3744 336 3769 
Q 307 3795 307 3834 
L 307 4038 
Q 307 4077 336 4102 
Q 365 4128 397 4128 
L 3930 4128 
Q 4026 4128 4026 4045 
L 4026 3827 
z
M 3091 4608 
Q 3091 4518 2995 4518 
L 1242 4518 
Q 1210 4518 1181 4540 
Q 1152 4563 1152 4602 
L 1152 4819 
Q 1152 4858 1177 4883 
Q 1203 4909 1235 4909 
L 2995 4909 
Q 3091 4909 3091 4819 
L 3091 4608 
z
" transform="scale(0.015625)"/>
      <path id="NanumGothic-bca1" d="M 998 1984 
Q 845 1984 752 2003 
Q 659 2022 608 2076 
Q 557 2131 537 2217 
Q 518 2304 518 2438 
L 518 4704 
Q 518 4736 544 4758 
Q 570 4781 602 4781 
L 877 4781 
Q 909 4781 931 4755 
Q 954 4730 954 4704 
L 954 3725 
L 2477 3725 
L 2477 4698 
Q 2477 4730 2499 4755 
Q 2522 4781 2554 4781 
L 2829 4781 
Q 2861 4781 2886 4758 
Q 2912 4736 2912 4704 
L 2912 3469 
L 3808 3469 
L 3808 4806 
Q 3808 4896 3898 4896 
L 4141 4896 
Q 4230 4896 4230 4806 
L 4230 1734 
Q 4230 1645 4141 1645 
L 3898 1645 
Q 3808 1645 3808 1734 
L 3808 3085 
L 2912 3085 
L 2912 2394 
Q 2912 2150 2809 2067 
Q 2707 1984 2426 1984 
L 998 1984 
z
M 1440 1114 
Q 1440 1152 1472 1171 
Q 1504 1190 1536 1190 
L 4877 1190 
Q 5178 1190 5270 1078 
Q 5363 966 5363 704 
L 5363 -832 
Q 5363 -922 5274 -922 
L 5011 -922 
Q 4922 -922 4922 -832 
L 4922 672 
Q 4922 762 4893 784 
Q 4864 806 4774 806 
L 1536 806 
Q 1504 806 1472 828 
Q 1440 851 1440 883 
L 1440 1114 
z
M 954 3347 
L 954 2515 
Q 954 2419 986 2390 
Q 1018 2362 1107 2362 
L 2323 2362 
Q 2413 2362 2445 2390 
Q 2477 2419 2477 2515 
L 2477 3347 
L 954 3347 
z
M 5363 1638 
Q 5363 1549 5274 1549 
L 5030 1549 
Q 4941 1549 4941 1638 
L 4941 4915 
Q 4941 5005 5030 5005 
L 5274 5005 
Q 5363 5005 5363 4915 
L 5363 1638 
z
" transform="scale(0.015625)"/>
      <path id="NanumGothic-d130" d="M 2982 2464 
Q 2797 2451 2582 2441 
Q 2368 2432 2150 2425 
Q 1933 2419 1728 2419 
Q 1523 2419 1357 2426 
L 1088 2426 
L 1088 1229 
Q 1088 1133 1120 1097 
Q 1152 1062 1242 1062 
Q 1779 1050 2406 1098 
Q 3034 1146 3590 1254 
Q 3699 1274 3718 1184 
L 3750 998 
Q 3763 941 3744 918 
Q 3725 896 3667 883 
Q 3398 826 3078 784 
Q 2758 742 2425 713 
Q 2093 685 1763 672 
Q 1434 659 1146 666 
Q 858 672 752 800 
Q 646 928 646 1197 
L 646 4077 
Q 646 4346 748 4435 
Q 851 4525 1133 4525 
L 3142 4525 
Q 3226 4525 3226 4448 
L 3226 4218 
Q 3226 4141 3142 4141 
L 1216 4141 
Q 1126 4141 1107 4118 
Q 1088 4096 1088 4000 
L 1088 2797 
L 1357 2797 
Q 1517 2797 1718 2797 
Q 1920 2797 2137 2803 
Q 2355 2810 2572 2816 
Q 2790 2822 2982 2835 
Q 3021 2842 3043 2816 
Q 3066 2790 3066 2758 
L 3066 2541 
Q 3066 2477 2982 2464 
z
M 5152 -806 
Q 5152 -896 5062 -896 
L 4800 -896 
Q 4710 -896 4710 -806 
L 4710 2470 
L 3622 2470 
Q 3539 2470 3539 2547 
L 3539 2778 
Q 3539 2854 3622 2854 
L 4710 2854 
L 4710 4915 
Q 4710 5005 4800 5005 
L 5062 5005 
Q 5152 5005 5152 4915 
L 5152 -806 
z
" transform="scale(0.015625)"/>
      <path id="NanumGothic-d7" d="M 3162 3533 
Q 3200 3571 3213 3571 
Q 3226 3571 3264 3526 
L 3437 3366 
Q 3482 3315 3482 3302 
Q 3482 3290 3437 3245 
L 2170 1971 
L 3386 755 
Q 3430 717 3430 704 
Q 3430 691 3386 640 
L 3226 480 
Q 3181 435 3168 435 
Q 3155 435 3110 480 
L 1888 1702 
L 627 442 
Q 582 397 569 397 
Q 557 397 512 442 
L 352 608 
Q 314 646 314 659 
Q 314 672 358 723 
L 1613 1984 
Q 1478 2118 1321 2272 
Q 1165 2426 1008 2586 
Q 851 2746 694 2902 
Q 538 3059 397 3194 
Q 371 3226 364 3248 
Q 358 3270 397 3309 
L 557 3469 
Q 602 3514 614 3514 
Q 627 3514 672 3469 
L 1882 2259 
L 3162 3526 
L 3162 3533 
z
" transform="scale(0.015625)"/>
      <path id="NanumGothic-70" d="M 2989 1504 
Q 2989 1766 2937 2012 
Q 2886 2259 2764 2451 
Q 2643 2643 2451 2761 
Q 2259 2880 1971 2880 
Q 1709 2880 1517 2771 
Q 1325 2662 1200 2473 
Q 1075 2285 1011 2035 
Q 947 1786 947 1504 
Q 947 762 1225 381 
Q 1504 0 1971 0 
Q 2214 0 2403 105 
Q 2592 211 2723 409 
Q 2854 608 2921 883 
Q 2989 1158 2989 1504 
z
M 518 3098 
Q 518 3187 608 3187 
L 851 3187 
Q 941 3187 941 3098 
L 909 2618 
Q 1037 2899 1341 3072 
Q 1645 3245 2048 3245 
Q 2426 3245 2691 3110 
Q 2957 2976 3126 2742 
Q 3296 2509 3376 2189 
Q 3456 1869 3456 1504 
Q 3456 1107 3363 768 
Q 3270 429 3094 179 
Q 2918 -70 2656 -214 
Q 2394 -358 2048 -358 
Q 1658 -358 1376 -208 
Q 1094 -58 947 211 
L 947 -1165 
Q 947 -1254 858 -1254 
L 614 -1254 
Q 576 -1254 547 -1228 
Q 518 -1203 518 -1165 
L 518 3098 
z
" transform="scale(0.015625)"/>
      <path id="NanumGothic-64" d="M 877 1459 
Q 877 1158 925 912 
Q 973 666 1075 480 
Q 1216 250 1417 128 
Q 1619 6 1901 6 
Q 2157 6 2352 140 
Q 2547 275 2678 483 
Q 2810 691 2874 950 
Q 2938 1210 2938 1459 
Q 2938 1766 2870 2028 
Q 2803 2291 2672 2483 
Q 2541 2675 2349 2784 
Q 2157 2893 1901 2893 
Q 1357 2893 1075 2426 
Q 973 2240 925 1993 
Q 877 1747 877 1459 
z
M 3366 -186 
Q 3366 -275 3277 -275 
L 3027 -275 
Q 2938 -275 2938 -186 
L 2938 294 
Q 2592 -358 1824 -358 
Q 1139 -358 755 166 
Q 403 653 403 1459 
Q 403 3258 1824 3258 
Q 2208 3258 2505 3104 
Q 2803 2950 2938 2707 
L 2938 4723 
Q 2938 4813 3027 4813 
L 3277 4813 
Q 3366 4813 3366 4723 
L 3366 -186 
z
" transform="scale(0.015625)"/>
     </defs>
     <use xlink:href="#NanumGothic-62"/>
     <use xlink:href="#NanumGothic-75" transform="translate(60.599991 0)"/>
     <use xlink:href="#NanumGothic-6c" transform="translate(121.199982 0)"/>
     <use xlink:href="#NanumGothic-6c" transform="translate(145.399979 0)"/>
     <use xlink:href="#NanumGothic-65" transform="translate(169.599976 0)"/>
     <use xlink:href="#NanumGothic-74" transform="translate(224.09996 0)"/>
     <use xlink:href="#NanumGothic-56" transform="translate(260.399948 0)"/>
     <use xlink:href="#NanumGothic-65" transform="translate(322.374939 0)"/>
     <use xlink:href="#NanumGothic-6c" transform="translate(376.874924 0)"/>
     <use xlink:href="#NanumGothic-6f" transform="translate(401.074921 0)"/>
     <use xlink:href="#NanumGothic-63" transform="translate(461.674911 0)"/>
     <use xlink:href="#NanumGothic-69" transform="translate(510.074905 0)"/>
     <use xlink:href="#NanumGothic-74" transform="translate(534.274902 0)"/>
     <use xlink:href="#NanumGothic-79" transform="translate(570.57489 0)"/>
     <use xlink:href="#NanumGothic-20" transform="translate(616.974884 0)"/>
     <use xlink:href="#NanumGothic-3d" transform="translate(644.974869 0)"/>
     <use xlink:href="#NanumGothic-20" transform="translate(710.374863 0)"/>
     <use xlink:href="#NanumGothic-bc29" transform="translate(738.374847 0)"/>
     <use xlink:href="#NanumGothic-d5a5" transform="translate(832.374832 0)"/>
     <use xlink:href="#NanumGothic-20" transform="translate(926.374817 0)"/>
     <use xlink:href="#NanumGothic-bca1" transform="translate(954.374802 0)"/>
     <use xlink:href="#NanumGothic-d130" transform="translate(1048.374786 0)"/>
     <use xlink:href="#NanumGothic-20" transform="translate(1142.374771 0)"/>
     <use xlink:href="#NanumGothic-d7" transform="translate(1170.374756 0)"/>
     <use xlink:href="#NanumGothic-20" transform="translate(1229.574753 0)"/>
     <use xlink:href="#NanumGothic-73" transform="translate(1257.574738 0)"/>
     <use xlink:href="#NanumGothic-70" transform="translate(1299.974731 0)"/>
     <use xlink:href="#NanumGothic-65" transform="translate(1360.574722 0)"/>
     <use xlink:href="#NanumGothic-65" transform="translate(1415.074707 0)"/>
     <use xlink:href="#NanumGothic-64" transform="translate(1469.574692 0)"/>
    </g>
   </g>
  </g>
 </g>
 <defs>
  <clipPath id="pe0ef0485b3">
   <rect x="8.64" y="28.608731" width="368.28" height="165.726"/>
  </clipPath>
 </defs>
</svg>
