<svg xmlns="http://www.w3.org/2000/svg" viewBox="0 0 900 280"><rect width="900" height="280" rx="16" fill="#f8fafc"/><text x="450" y="28" text-anchor="middle" font-family="-apple-system, BlinkMacSystemFont, 'Segoe UI', Roboto, 'Apple SD Gothic Neo', 'Malgun Gothic', 'Nanum Gothic', 'Noto Sans KR', sans-serif" font-size="18" font-weight="700">감쇠비에 따른 목표 수렴</text><g stroke="#cbd5e1"><path d="M50 150H850"/><path d="M50 60V235"/></g><path d="M50 150C100 35 150 245 210 110C270 55 310 205 370 135C430 105 470 175 535 145C600 132 650 158 720 148C770 145 810 151 850 150" fill="none" stroke="#ef4444" stroke-width="3"/><path d="M50 220C150 220 180 120 260 85C350 48 470 130 600 147C700 151 790 150 850 150" fill="none" stroke="#16a34a" stroke-width="4"/><path d="M50 220C220 218 360 195 480 172C620 153 740 150 850 150" fill="none" stroke="#2563eb" stroke-width="3"/><g font-family="-apple-system, BlinkMacSystemFont, 'Segoe UI', Roboto, 'Apple SD Gothic Neo', 'Malgun Gothic', 'Nanum Gothic', 'Noto Sans KR', sans-serif" font-size="12"><text x="675" y="95" fill="#ef4444">ζ &lt; 1 부족 감쇠</text><text x="675" y="122" fill="#16a34a">ζ = 1 임계 감쇠</text><text x="675" y="200" fill="#2563eb">ζ &gt; 1 과감쇠</text><text x="810" y="142">target</text></g></svg>
