<?xml version="1.0" encoding="utf-8" standalone="no"?>
<!DOCTYPE svg PUBLIC "-//W3C//DTD SVG 1.1//EN"
  "http://www.w3.org/Graphics/SVG/1.1/DTD/svg11.dtd">
<svg xmlns:xlink="http://www.w3.org/1999/xlink" width="361.944pt" height="195.5808pt" viewBox="0 0 361.944 195.5808" xmlns="http://www.w3.org/2000/svg" version="1.1">
 <metadata>
  <rdf:RDF xmlns:dc="http://purl.org/dc/elements/1.1/" xmlns:cc="http://creativecommons.org/ns#" xmlns:rdf="http://www.w3.org/1999/02/22-rdf-syntax-ns#">
   <cc:Work>
    <dc:type rdf:resource="http://purl.org/dc/dcmitype/StillImage"/>
    <dc:date>2026-07-08T05:12:54.238210</dc:date>
    <dc:format>image/svg+xml</dc:format>
    <dc:creator>
     <cc:Agent>
      <dc:title>Matplotlib v3.10.8, https://matplotlib.org/</dc:title>
     </cc:Agent>
    </dc:creator>
   </cc:Work>
  </rdf:RDF>
 </metadata>
 <defs>
  <style type="text/css">*{stroke-linejoin: round; stroke-linecap: butt}</style>
 </defs>
 <g id="figure_1">
  <g id="patch_1">
   <path d="M 0 195.5808 
L 361.944 195.5808 
L 361.944 0 
L 0 0 
z
" style="fill: #ffffff"/>
  </g>
  <g id="axes_1">
   <g id="patch_2">
    <path d="M 5.76 189.8208 
L 356.184 189.8208 
L 356.184 5.76 
L 5.76 5.76 
z
" clip-path="url(#pfba9b1a7cd)" style="fill: #ffffff; stroke: #e5e7eb; stroke-linejoin: miter"/>
   </g>
   <g id="text_1">
    <!-- ●  = 점, 위치, 물체 중심 -->
    <g style="fill: #111827" transform="translate(19.77696 36.44964) scale(0.11 -0.11)">
     <defs>
      <path id="NanumGothicCoding-25cf" d="M 5587 1920 
Q 5587 1434 5398 995 
Q 5210 557 4890 237 
Q 4570 -83 4128 -272 
Q 3686 -461 3200 -461 
Q 2707 -461 2268 -272 
Q 1830 -83 1510 237 
Q 1190 557 998 995 
Q 806 1434 806 1920 
Q 806 2413 998 2851 
Q 1190 3290 1510 3606 
Q 1830 3923 2268 4118 
Q 2707 4314 3200 4314 
Q 3686 4314 4128 4118 
Q 4570 3923 4890 3606 
Q 5210 3290 5398 2851 
Q 5587 2413 5587 1920 
z
" transform="scale(0.015625)"/>
      <path id="NanumGothicCoding-20" transform="scale(0.015625)"/>
      <path id="NanumGothicCoding-3d" d="M 3142 2810 
L 3142 2528 
Q 3142 2458 3132 2448 
Q 3123 2438 3053 2438 
L 147 2438 
Q 77 2438 67 2448 
Q 58 2458 58 2528 
L 58 2810 
Q 58 2880 67 2889 
Q 77 2899 147 2899 
L 3053 2899 
Q 3123 2899 3132 2889 
Q 3142 2880 3142 2810 
z
M 3142 1446 
L 3142 1165 
Q 3142 1094 3132 1084 
Q 3123 1075 3053 1075 
L 147 1075 
Q 77 1075 67 1084 
Q 58 1094 58 1165 
L 58 1446 
Q 58 1517 67 1526 
Q 77 1536 147 1536 
L 3053 1536 
Q 3123 1536 3132 1526 
Q 3142 1517 3142 1446 
z
" transform="scale(0.015625)"/>
      <path id="NanumGothicCoding-c810" d="M 1690 819 
Q 1690 1088 1792 1181 
Q 1894 1274 2176 1274 
L 4858 1274 
Q 5011 1274 5104 1254 
Q 5197 1235 5251 1184 
Q 5306 1133 5325 1043 
Q 5344 954 5344 819 
L 5344 -390 
Q 5344 -659 5241 -752 
Q 5139 -845 4858 -845 
L 2176 -845 
Q 2022 -845 1929 -825 
Q 1837 -806 1782 -752 
Q 1728 -698 1709 -611 
Q 1690 -525 1690 -390 
L 1690 819 
z
M 2285 890 
Q 2195 890 2163 854 
Q 2131 819 2131 723 
L 2131 -294 
Q 2131 -390 2163 -425 
Q 2195 -461 2285 -461 
L 4749 -461 
Q 4838 -461 4870 -425 
Q 4902 -390 4902 -294 
L 4902 723 
Q 4902 819 4870 854 
Q 4838 890 4749 890 
L 2285 890 
z
M 3501 4205 
Q 3411 3942 3248 3686 
Q 3085 3430 2861 3181 
Q 3078 2950 3398 2742 
Q 3718 2534 4096 2374 
Q 4147 2355 4153 2320 
Q 4160 2285 4141 2253 
L 4013 2022 
Q 3994 1990 3955 1987 
Q 3917 1984 3885 1997 
Q 3744 2061 3581 2150 
Q 3418 2240 3245 2355 
Q 3072 2470 2902 2604 
Q 2733 2739 2586 2886 
Q 2221 2528 1782 2233 
Q 1344 1939 896 1741 
Q 864 1728 832 1721 
Q 800 1715 781 1747 
L 653 1971 
Q 634 2003 650 2038 
Q 666 2074 698 2086 
Q 1523 2483 2105 2995 
Q 2688 3507 3014 4179 
Q 3059 4269 3027 4307 
Q 2995 4346 2906 4346 
L 1030 4346 
Q 954 4346 954 4429 
L 954 4653 
Q 954 4730 1030 4730 
L 3078 4730 
Q 3411 4730 3507 4611 
Q 3603 4493 3501 4205 
z
M 4902 3520 
L 4902 4915 
Q 4902 5005 4992 5005 
L 5254 5005 
Q 5344 5005 5344 4915 
L 5344 1728 
Q 5344 1638 5254 1638 
L 4992 1638 
Q 4902 1638 4902 1728 
L 4902 3136 
L 3718 3136 
Q 3635 3136 3635 3213 
L 3635 3443 
Q 3635 3520 3718 3520 
L 4902 3520 
z
" transform="scale(0.015625)"/>
      <path id="NanumGothicCoding-2c" d="M 2157 179 
Q 2227 179 2240 147 
Q 2253 115 2221 77 
L 1318 -1184 
Q 1280 -1242 1254 -1258 
Q 1229 -1274 1178 -1274 
L 864 -1274 
Q 774 -1274 826 -1178 
L 1536 64 
Q 1562 102 1590 140 
Q 1619 179 1696 179 
L 2157 179 
z
" transform="scale(0.015625)"/>
      <path id="NanumGothicCoding-c704" d="M 3942 3494 
Q 3942 3245 3827 3024 
Q 3712 2803 3507 2636 
Q 3302 2470 3020 2371 
Q 2739 2272 2406 2272 
Q 2080 2272 1805 2368 
Q 1530 2464 1328 2633 
Q 1126 2803 1011 3024 
Q 896 3245 896 3494 
Q 896 3770 1011 3997 
Q 1126 4224 1328 4387 
Q 1530 4550 1805 4636 
Q 2080 4723 2406 4723 
Q 2714 4723 2992 4633 
Q 3270 4544 3481 4384 
Q 3693 4224 3817 3997 
Q 3942 3770 3942 3494 
z
M 3494 3501 
Q 3494 3699 3408 3852 
Q 3322 4006 3171 4112 
Q 3021 4218 2822 4272 
Q 2624 4326 2406 4326 
Q 2176 4326 1984 4268 
Q 1792 4211 1648 4105 
Q 1504 4000 1424 3846 
Q 1344 3693 1344 3501 
Q 1344 3315 1421 3161 
Q 1498 3008 1638 2896 
Q 1779 2784 1974 2723 
Q 2170 2662 2406 2662 
Q 2624 2662 2822 2726 
Q 3021 2790 3171 2902 
Q 3322 3014 3408 3168 
Q 3494 3322 3494 3501 
z
M 5344 -806 
Q 5344 -896 5254 -896 
L 4992 -896 
Q 4902 -896 4902 -806 
L 4902 4915 
Q 4902 5005 4992 5005 
L 5254 5005 
Q 5344 5005 5344 4915 
L 5344 -806 
z
M 4429 1773 
Q 4461 1779 4489 1763 
Q 4518 1747 4525 1722 
L 4557 1504 
Q 4563 1414 4480 1408 
Q 4064 1344 3603 1296 
Q 3142 1248 2682 1216 
L 2682 -691 
Q 2682 -730 2659 -758 
Q 2637 -787 2598 -787 
L 2323 -787 
Q 2291 -787 2265 -758 
Q 2240 -730 2240 -691 
L 2240 1197 
Q 2035 1184 1798 1177 
Q 1562 1171 1334 1164 
Q 1107 1158 902 1155 
Q 698 1152 563 1158 
Q 525 1158 496 1184 
Q 467 1210 467 1242 
L 467 1459 
Q 467 1498 496 1520 
Q 525 1542 563 1542 
Q 749 1542 1008 1545 
Q 1267 1549 1539 1555 
Q 1811 1562 2064 1571 
Q 2317 1581 2490 1587 
Q 2675 1594 2921 1613 
Q 3168 1632 3433 1657 
Q 3699 1683 3958 1712 
Q 4218 1741 4429 1773 
z
" transform="scale(0.015625)"/>
      <path id="NanumGothicCoding-ce58" d="M 3475 3213 
Q 3366 2925 3209 2656 
Q 3053 2387 2848 2131 
Q 2970 1978 3130 1818 
Q 3290 1658 3456 1517 
Q 3622 1376 3792 1261 
Q 3962 1146 4115 1069 
Q 4186 1030 4141 954 
L 4019 742 
Q 3974 666 3891 717 
Q 3738 806 3565 931 
Q 3392 1056 3222 1203 
Q 3053 1350 2889 1510 
Q 2726 1670 2586 1830 
Q 2234 1453 1798 1139 
Q 1363 826 870 589 
Q 781 544 749 608 
L 627 819 
Q 608 851 624 886 
Q 640 922 672 934 
Q 1446 1306 2032 1862 
Q 2618 2419 2989 3187 
Q 3034 3277 3002 3315 
Q 2970 3354 2880 3354 
L 941 3354 
Q 864 3354 864 3437 
L 864 3661 
Q 864 3738 954 3738 
L 3053 3738 
Q 3386 3738 3485 3619 
Q 3584 3501 3475 3213 
z
M 5344 -806 
Q 5344 -896 5254 -896 
L 4992 -896 
Q 4902 -896 4902 -806 
L 4902 4915 
Q 4902 5005 4992 5005 
L 5254 5005 
Q 5344 5005 5344 4915 
L 5344 -806 
z
M 3046 4710 
Q 3142 4710 3142 4621 
L 3142 4416 
Q 3142 4320 3046 4320 
L 1466 4320 
Q 1370 4320 1370 4416 
L 1370 4621 
Q 1370 4710 1466 4710 
L 3046 4710 
z
" transform="scale(0.015625)"/>
      <path id="NanumGothicCoding-bb3c" d="M 1299 4538 
Q 1299 4806 1401 4899 
Q 1504 4992 1786 4992 
L 4614 4992 
Q 4768 4992 4861 4973 
Q 4954 4954 5008 4902 
Q 5062 4851 5081 4761 
Q 5101 4672 5101 4538 
L 5101 3475 
Q 5101 3206 4998 3113 
Q 4896 3021 4614 3021 
L 1786 3021 
Q 1632 3021 1539 3040 
Q 1446 3059 1392 3113 
Q 1338 3168 1318 3254 
Q 1299 3341 1299 3475 
L 1299 4538 
z
M 5248 -781 
Q 5248 -813 5219 -835 
Q 5190 -858 5165 -858 
L 1760 -858 
Q 1459 -858 1366 -746 
Q 1274 -634 1274 -365 
L 1274 45 
Q 1274 314 1386 406 
Q 1498 499 1786 499 
L 4538 499 
Q 4627 499 4652 524 
Q 4678 550 4678 646 
L 4678 954 
Q 4678 1050 4656 1075 
Q 4634 1101 4544 1101 
L 1350 1101 
Q 1318 1101 1289 1120 
Q 1261 1139 1261 1171 
L 1261 1395 
Q 1261 1427 1289 1446 
Q 1318 1466 1350 1466 
L 2970 1466 
L 2970 2093 
L 480 2093 
Q 442 2093 413 2118 
Q 384 2144 384 2176 
L 384 2394 
Q 384 2432 413 2454 
Q 442 2477 480 2477 
L 5920 2477 
Q 5952 2477 5984 2454 
Q 6016 2432 6016 2394 
L 6016 2176 
Q 6016 2144 5984 2118 
Q 5952 2093 5920 2093 
L 3411 2093 
L 3411 1466 
L 4608 1466 
Q 4762 1466 4858 1443 
Q 4954 1421 5011 1369 
Q 5069 1318 5091 1225 
Q 5114 1133 5114 998 
L 5114 589 
Q 5114 320 5002 227 
Q 4890 134 4602 134 
L 1843 134 
Q 1754 134 1731 108 
Q 1709 83 1709 -13 
L 1709 -339 
Q 1709 -429 1734 -457 
Q 1760 -486 1850 -486 
L 5158 -486 
Q 5190 -486 5219 -505 
Q 5248 -525 5248 -557 
L 5248 -781 
z
M 1894 4608 
Q 1805 4608 1773 4573 
Q 1741 4538 1741 4442 
L 1741 3571 
Q 1741 3475 1773 3440 
Q 1805 3405 1894 3405 
L 4506 3405 
Q 4595 3405 4627 3440 
Q 4659 3475 4659 3571 
L 4659 4442 
Q 4659 4538 4627 4573 
Q 4595 4608 4506 4608 
L 1894 4608 
z
" transform="scale(0.015625)"/>
      <path id="NanumGothicCoding-ccb4" d="M 3027 3213 
Q 2918 2925 2774 2653 
Q 2630 2381 2451 2125 
Q 2701 1798 2992 1520 
Q 3283 1242 3571 1056 
Q 3642 1005 3578 934 
L 3418 730 
Q 3386 691 3360 691 
Q 3334 691 3283 730 
Q 3155 826 3014 947 
Q 2874 1069 2733 1209 
Q 2592 1350 2454 1500 
Q 2317 1651 2195 1798 
Q 1907 1453 1568 1158 
Q 1229 864 858 634 
Q 832 614 797 614 
Q 762 614 749 627 
L 589 832 
Q 570 864 582 899 
Q 595 934 621 954 
Q 966 1171 1270 1443 
Q 1574 1715 1824 2006 
Q 2074 2298 2256 2598 
Q 2438 2899 2541 3187 
Q 2605 3354 2432 3354 
L 877 3354 
Q 800 3354 800 3437 
L 800 3661 
Q 800 3738 890 3738 
L 2605 3738 
Q 2938 3738 3037 3619 
Q 3136 3501 3027 3213 
z
M 4000 2502 
L 4000 4806 
Q 4000 4896 4090 4896 
L 4333 4896 
Q 4422 4896 4422 4806 
L 4422 -563 
Q 4422 -653 4333 -653 
L 4090 -653 
Q 4000 -653 4000 -563 
L 4000 2118 
L 3213 2118 
Q 3174 2118 3145 2144 
Q 3117 2170 3117 2202 
L 3117 2419 
Q 3117 2458 3145 2480 
Q 3174 2502 3213 2502 
L 4000 2502 
z
M 5555 -806 
Q 5555 -896 5466 -896 
L 5222 -896 
Q 5133 -896 5133 -806 
L 5133 4915 
Q 5133 5005 5222 5005 
L 5466 5005 
Q 5555 5005 5555 4915 
L 5555 -806 
z
M 2573 4659 
Q 2669 4659 2669 4570 
L 2669 4365 
Q 2669 4269 2573 4269 
L 1376 4269 
Q 1280 4269 1280 4365 
L 1280 4570 
Q 1280 4659 1376 4659 
L 2573 4659 
z
" transform="scale(0.015625)"/>
      <path id="NanumGothicCoding-c911" d="M 5920 2310 
Q 5952 2310 5984 2288 
Q 6016 2266 6016 2227 
L 6016 2010 
Q 6016 1978 5984 1952 
Q 5952 1926 5920 1926 
L 3411 1926 
L 3411 1146 
Q 3699 1133 4009 1078 
Q 4320 1024 4582 905 
Q 4845 787 5014 595 
Q 5184 403 5184 109 
Q 5184 -218 4979 -422 
Q 4774 -627 4473 -742 
Q 4173 -858 3824 -899 
Q 3475 -941 3187 -941 
Q 2995 -941 2774 -921 
Q 2554 -902 2333 -860 
Q 2112 -819 1907 -742 
Q 1702 -666 1545 -547 
Q 1389 -429 1293 -269 
Q 1197 -109 1197 109 
Q 1197 397 1366 592 
Q 1536 787 1798 905 
Q 2061 1024 2374 1078 
Q 2688 1133 2970 1146 
L 2970 1926 
L 480 1926 
Q 442 1926 413 1952 
Q 384 1978 384 2010 
L 384 2227 
Q 384 2266 413 2288 
Q 442 2310 480 2310 
L 5920 2310 
z
M 4685 4218 
Q 4352 3904 3782 3610 
Q 3962 3558 4182 3500 
Q 4403 3443 4633 3385 
Q 4864 3328 5094 3277 
Q 5325 3226 5523 3187 
Q 5606 3168 5581 3098 
L 5491 2886 
Q 5459 2816 5376 2835 
Q 5158 2874 4889 2938 
Q 4621 3002 4342 3075 
Q 4064 3149 3792 3225 
Q 3520 3302 3290 3379 
Q 2784 3168 2205 3005 
Q 1626 2842 1024 2739 
Q 966 2726 944 2748 
Q 922 2771 909 2810 
L 851 3002 
Q 826 3098 902 3104 
Q 1344 3174 1830 3308 
Q 2317 3443 2768 3609 
Q 3219 3776 3596 3958 
Q 3974 4141 4198 4307 
Q 4301 4384 4278 4429 
Q 4256 4474 4166 4474 
L 1402 4474 
Q 1318 4474 1318 4557 
L 1318 4781 
Q 1318 4858 1402 4858 
L 4326 4858 
Q 4819 4858 4908 4688 
Q 4998 4518 4685 4218 
z
M 4717 102 
Q 4717 314 4544 438 
Q 4371 563 4128 633 
Q 3885 704 3625 726 
Q 3366 749 3187 749 
Q 3002 749 2742 726 
Q 2483 704 2243 633 
Q 2003 563 1833 438 
Q 1664 314 1664 102 
Q 1664 -102 1833 -230 
Q 2003 -358 2243 -425 
Q 2483 -493 2742 -515 
Q 3002 -538 3187 -538 
Q 3366 -538 3628 -515 
Q 3891 -493 4131 -425 
Q 4371 -358 4544 -230 
Q 4717 -102 4717 102 
z
" transform="scale(0.015625)"/>
      <path id="NanumGothicCoding-c2ec" d="M 1690 819 
Q 1690 1088 1792 1181 
Q 1894 1274 2176 1274 
L 4858 1274 
Q 5011 1274 5104 1254 
Q 5197 1235 5251 1184 
Q 5306 1133 5325 1043 
Q 5344 954 5344 819 
L 5344 -390 
Q 5344 -659 5241 -752 
Q 5139 -845 4858 -845 
L 2176 -845 
Q 2022 -845 1929 -825 
Q 1837 -806 1782 -752 
Q 1728 -698 1709 -611 
Q 1690 -525 1690 -390 
L 1690 819 
z
M 2285 890 
Q 2195 890 2163 854 
Q 2131 819 2131 723 
L 2131 -294 
Q 2131 -390 2163 -425 
Q 2195 -461 2285 -461 
L 4749 -461 
Q 4838 -461 4870 -425 
Q 4902 -390 4902 -294 
L 4902 723 
Q 4902 819 4870 854 
Q 4838 890 4749 890 
L 2285 890 
z
M 2534 4774 
Q 2534 4307 2438 3904 
Q 2515 3635 2652 3392 
Q 2790 3149 2976 2937 
Q 3162 2726 3382 2556 
Q 3603 2387 3846 2272 
Q 3885 2253 3881 2217 
Q 3878 2182 3866 2157 
L 3731 1946 
Q 3712 1914 3686 1901 
Q 3661 1888 3603 1920 
Q 3456 1997 3267 2128 
Q 3078 2259 2886 2438 
Q 2694 2618 2521 2832 
Q 2349 3046 2234 3277 
Q 2022 2790 1664 2393 
Q 1306 1997 826 1683 
Q 794 1664 755 1657 
Q 717 1651 691 1683 
L 531 1894 
Q 518 1920 528 1958 
Q 538 1997 570 2016 
Q 1331 2483 1715 3193 
Q 2099 3904 2086 4781 
Q 2086 4883 2163 4883 
L 2464 4864 
Q 2534 4864 2534 4774 
z
M 5344 1728 
Q 5344 1638 5254 1638 
L 4992 1638 
Q 4902 1638 4902 1728 
L 4902 4915 
Q 4902 5005 4992 5005 
L 5254 5005 
Q 5344 5005 5344 4915 
L 5344 1728 
z
" transform="scale(0.015625)"/>
     </defs>
     <use xlink:href="#NanumGothicCoding-25cf"/>
     <use xlink:href="#NanumGothicCoding-20" transform="translate(99.999985 0)"/>
     <use xlink:href="#NanumGothicCoding-20" transform="translate(149.999969 0)"/>
     <use xlink:href="#NanumGothicCoding-3d" transform="translate(199.999954 0)"/>
     <use xlink:href="#NanumGothicCoding-20" transform="translate(249.999939 0)"/>
     <use xlink:href="#NanumGothicCoding-c810" transform="translate(299.999924 0)"/>
     <use xlink:href="#NanumGothicCoding-2c" transform="translate(399.999908 0)"/>
     <use xlink:href="#NanumGothicCoding-20" transform="translate(449.999893 0)"/>
     <use xlink:href="#NanumGothicCoding-c704" transform="translate(499.999878 0)"/>
     <use xlink:href="#NanumGothicCoding-ce58" transform="translate(599.999863 0)"/>
     <use xlink:href="#NanumGothicCoding-2c" transform="translate(699.999847 0)"/>
     <use xlink:href="#NanumGothicCoding-20" transform="translate(749.999832 0)"/>
     <use xlink:href="#NanumGothicCoding-bb3c" transform="translate(799.999817 0)"/>
     <use xlink:href="#NanumGothicCoding-ccb4" transform="translate(899.999802 0)"/>
     <use xlink:href="#NanumGothicCoding-20" transform="translate(999.999786 0)"/>
     <use xlink:href="#NanumGothicCoding-c911" transform="translate(1049.999771 0)"/>
     <use xlink:href="#NanumGothicCoding-c2ec" transform="translate(1149.999756 0)"/>
    </g>
   </g>
   <g id="text_2">
    <!-- →  = 방향이 있는 벡터 -->
    <g style="fill: #111827" transform="translate(19.77696 56.125703) scale(0.11 -0.11)">
     <defs>
      <path id="NanumGothicCoding-2192" d="M 6080 1920 
L 4922 877 
L 5389 1843 
L 320 1843 
L 320 1997 
L 5389 1997 
L 4922 2963 
L 6080 1920 
z
" transform="scale(0.015625)"/>
      <path id="NanumGothicCoding-bc29" d="M 5197 250 
Q 5197 -26 5049 -243 
Q 4902 -461 4649 -611 
Q 4397 -762 4061 -842 
Q 3725 -922 3341 -922 
Q 2925 -922 2585 -842 
Q 2246 -762 2003 -611 
Q 1760 -461 1625 -243 
Q 1491 -26 1491 250 
Q 1491 518 1625 732 
Q 1760 947 2003 1097 
Q 2246 1248 2585 1328 
Q 2925 1408 3341 1408 
Q 3725 1408 4061 1328 
Q 4397 1248 4649 1101 
Q 4902 954 5049 739 
Q 5197 525 5197 250 
z
M 1350 1971 
Q 1197 1971 1104 1990 
Q 1011 2010 960 2064 
Q 909 2118 889 2204 
Q 870 2291 870 2426 
L 870 4730 
Q 870 4762 896 4784 
Q 922 4806 954 4806 
L 1229 4806 
Q 1261 4806 1283 4780 
Q 1306 4755 1306 4730 
L 1306 3731 
L 3174 3731 
L 3174 4723 
Q 3174 4755 3196 4780 
Q 3219 4806 3251 4806 
L 3526 4806 
Q 3558 4806 3584 4784 
Q 3610 4762 3610 4730 
L 3610 2381 
Q 3610 2138 3507 2054 
Q 3405 1971 3123 1971 
L 1350 1971 
z
M 4742 230 
Q 4742 422 4627 569 
Q 4512 717 4317 816 
Q 4122 915 3866 969 
Q 3610 1024 3334 1024 
Q 3027 1024 2771 969 
Q 2515 915 2332 816 
Q 2150 717 2048 569 
Q 1946 422 1946 230 
Q 1946 45 2048 -99 
Q 2150 -243 2332 -339 
Q 2515 -435 2771 -486 
Q 3027 -538 3334 -538 
Q 3610 -538 3866 -486 
Q 4122 -435 4317 -339 
Q 4512 -243 4627 -99 
Q 4742 45 4742 230 
z
M 5120 1530 
Q 5120 1440 5030 1440 
L 4768 1440 
Q 4678 1440 4678 1530 
L 4678 4915 
Q 4678 5005 4768 5005 
L 5030 5005 
Q 5120 5005 5120 4915 
L 5120 3373 
L 6003 3373 
Q 6042 3373 6070 3347 
Q 6099 3322 6099 3283 
L 6099 3072 
Q 6099 3040 6070 3014 
Q 6042 2989 6003 2989 
L 5120 2989 
L 5120 1530 
z
M 1306 3354 
L 1306 2502 
Q 1306 2406 1338 2377 
Q 1370 2349 1459 2349 
L 3021 2349 
Q 3110 2349 3142 2377 
Q 3174 2406 3174 2502 
L 3174 3354 
L 1306 3354 
z
" transform="scale(0.015625)"/>
      <path id="NanumGothicCoding-d5a5" d="M 5197 64 
Q 5197 -160 5049 -339 
Q 4902 -518 4649 -646 
Q 4397 -774 4061 -844 
Q 3725 -915 3341 -915 
Q 2925 -915 2585 -844 
Q 2246 -774 2003 -646 
Q 1760 -518 1625 -339 
Q 1491 -160 1491 64 
Q 1491 282 1625 458 
Q 1760 634 2003 762 
Q 2246 890 2585 960 
Q 2925 1030 3341 1030 
Q 3725 1030 4061 963 
Q 4397 896 4649 768 
Q 4902 640 5049 461 
Q 5197 282 5197 64 
z
M 3725 2413 
Q 3725 2182 3619 1993 
Q 3514 1805 3331 1664 
Q 3149 1523 2896 1446 
Q 2643 1370 2349 1370 
Q 2048 1370 1798 1446 
Q 1549 1523 1363 1664 
Q 1178 1805 1075 1997 
Q 973 2189 973 2413 
Q 973 2643 1075 2835 
Q 1178 3027 1363 3161 
Q 1549 3296 1798 3373 
Q 2048 3450 2349 3450 
Q 2643 3450 2896 3373 
Q 3149 3296 3331 3158 
Q 3514 3021 3619 2829 
Q 3725 2637 3725 2413 
z
M 4742 45 
Q 4742 192 4627 307 
Q 4512 422 4317 502 
Q 4122 582 3866 624 
Q 3610 666 3334 666 
Q 3027 666 2771 624 
Q 2515 582 2332 502 
Q 2150 422 2048 307 
Q 1946 192 1946 45 
Q 1946 -96 2048 -208 
Q 2150 -320 2332 -397 
Q 2515 -474 2771 -512 
Q 3027 -550 3334 -550 
Q 3610 -550 3866 -512 
Q 4122 -474 4317 -397 
Q 4512 -320 4627 -208 
Q 4742 -96 4742 45 
z
M 5120 1254 
Q 5120 1165 5030 1165 
L 4768 1165 
Q 4678 1165 4678 1254 
L 4678 4915 
Q 4678 5005 4768 5005 
L 5030 5005 
Q 5120 5005 5120 4915 
L 5120 3776 
L 6003 3776 
Q 6042 3776 6070 3753 
Q 6099 3731 6099 3693 
L 6099 3482 
Q 6099 3450 6070 3424 
Q 6042 3398 6003 3398 
L 5120 3398 
L 5120 2630 
L 6003 2630 
Q 6042 2630 6070 2608 
Q 6099 2586 6099 2547 
L 6099 2336 
Q 6099 2304 6070 2278 
Q 6042 2253 6003 2253 
L 5120 2253 
L 5120 1254 
z
M 3296 2413 
Q 3296 2566 3225 2691 
Q 3155 2816 3027 2902 
Q 2899 2989 2726 3037 
Q 2554 3085 2349 3085 
Q 2144 3085 1971 3037 
Q 1798 2989 1670 2902 
Q 1542 2816 1468 2691 
Q 1395 2566 1395 2413 
Q 1395 2259 1468 2134 
Q 1542 2010 1670 1920 
Q 1798 1830 1971 1782 
Q 2144 1734 2349 1734 
Q 2554 1734 2726 1782 
Q 2899 1830 3027 1920 
Q 3155 2010 3225 2134 
Q 3296 2259 3296 2413 
z
M 4218 3827 
Q 4218 3744 4122 3744 
L 589 3744 
Q 557 3744 528 3769 
Q 499 3795 499 3834 
L 499 4038 
Q 499 4077 528 4102 
Q 557 4128 589 4128 
L 4122 4128 
Q 4218 4128 4218 4045 
L 4218 3827 
z
M 3283 4608 
Q 3283 4518 3187 4518 
L 1434 4518 
Q 1402 4518 1373 4540 
Q 1344 4563 1344 4602 
L 1344 4819 
Q 1344 4858 1369 4883 
Q 1395 4909 1427 4909 
L 3187 4909 
Q 3283 4909 3283 4819 
L 3283 4608 
z
" transform="scale(0.015625)"/>
      <path id="NanumGothicCoding-c774" d="M 3846 2566 
Q 3846 2208 3760 1843 
Q 3674 1478 3488 1184 
Q 3302 890 3011 701 
Q 2720 512 2310 512 
Q 1888 512 1597 697 
Q 1306 883 1130 1180 
Q 954 1478 877 1843 
Q 800 2208 800 2566 
Q 800 2944 877 3312 
Q 954 3680 1130 3974 
Q 1306 4269 1597 4448 
Q 1888 4627 2310 4627 
Q 2720 4627 3011 4448 
Q 3302 4269 3488 3977 
Q 3674 3686 3760 3318 
Q 3846 2950 3846 2566 
z
M 3392 2573 
Q 3392 2867 3331 3168 
Q 3270 3469 3142 3709 
Q 3014 3949 2809 4099 
Q 2605 4250 2310 4250 
Q 2003 4250 1801 4099 
Q 1600 3949 1478 3709 
Q 1357 3469 1305 3168 
Q 1254 2867 1254 2573 
Q 1254 2291 1302 1993 
Q 1350 1696 1472 1449 
Q 1594 1203 1798 1046 
Q 2003 890 2310 890 
Q 2605 890 2809 1046 
Q 3014 1203 3142 1449 
Q 3270 1696 3331 1993 
Q 3392 2291 3392 2573 
z
M 5344 -806 
Q 5344 -896 5254 -896 
L 4992 -896 
Q 4902 -896 4902 -806 
L 4902 4915 
Q 4902 5005 4992 5005 
L 5254 5005 
Q 5344 5005 5344 4915 
L 5344 -806 
z
" transform="scale(0.015625)"/>
      <path id="NanumGothicCoding-c788" d="M 3776 3328 
Q 3776 3008 3661 2742 
Q 3546 2477 3341 2285 
Q 3136 2093 2857 1984 
Q 2579 1875 2253 1875 
Q 1939 1875 1664 1980 
Q 1389 2086 1187 2278 
Q 986 2470 870 2739 
Q 755 3008 755 3328 
Q 755 3667 870 3939 
Q 986 4211 1187 4400 
Q 1389 4589 1664 4688 
Q 1939 4787 2253 4787 
Q 2547 4787 2822 4688 
Q 3098 4589 3309 4403 
Q 3520 4218 3648 3946 
Q 3776 3674 3776 3328 
z
M 3328 3334 
Q 3328 3590 3241 3785 
Q 3155 3981 3008 4112 
Q 2861 4243 2665 4310 
Q 2470 4378 2253 4378 
Q 2029 4378 1840 4310 
Q 1651 4243 1507 4112 
Q 1363 3981 1283 3785 
Q 1203 3590 1203 3334 
Q 1203 3091 1280 2899 
Q 1357 2707 1497 2566 
Q 1638 2426 1830 2352 
Q 2022 2278 2253 2278 
Q 2470 2278 2665 2352 
Q 2861 2426 3008 2566 
Q 3155 2707 3241 2899 
Q 3328 3091 3328 3334 
z
M 5888 -838 
Q 5862 -870 5840 -883 
Q 5818 -896 5773 -870 
Q 5370 -659 5085 -368 
Q 4800 -77 4646 262 
Q 4480 -83 4233 -368 
Q 3987 -653 3674 -845 
Q 3584 -896 3482 -838 
Q 3168 -659 2918 -387 
Q 2669 -115 2522 211 
Q 2355 -122 2070 -390 
Q 1786 -659 1370 -883 
Q 1338 -896 1299 -909 
Q 1261 -922 1242 -896 
L 1088 -666 
Q 1075 -640 1084 -605 
Q 1094 -570 1133 -550 
Q 1760 -243 2051 208 
Q 2342 659 2304 1306 
Q 2304 1389 2368 1389 
L 2675 1382 
Q 2746 1382 2746 1306 
Q 2746 1114 2726 934 
Q 2733 742 2803 537 
Q 2874 333 2982 150 
Q 3091 -32 3235 -182 
Q 3379 -333 3539 -416 
Q 3597 -448 3642 -416 
Q 3814 -307 3961 -121 
Q 4109 64 4221 294 
Q 4333 525 4393 787 
Q 4454 1050 4448 1312 
Q 4448 1344 4464 1373 
Q 4480 1402 4518 1402 
L 4819 1395 
Q 4890 1395 4890 1318 
Q 4883 1248 4880 1181 
Q 4877 1114 4870 1043 
Q 4870 531 5158 124 
Q 5446 -282 5990 -531 
Q 6067 -576 6016 -653 
L 5888 -838 
z
M 5344 1760 
Q 5344 1670 5254 1670 
L 4992 1670 
Q 4902 1670 4902 1760 
L 4902 4915 
Q 4902 5005 4992 5005 
L 5254 5005 
Q 5344 5005 5344 4915 
L 5344 1760 
z
" transform="scale(0.015625)"/>
      <path id="NanumGothicCoding-b294" d="M 5229 2893 
Q 5229 2854 5197 2835 
Q 5165 2816 5133 2816 
L 1811 2816 
Q 1510 2816 1417 2941 
Q 1325 3066 1325 3328 
L 1325 4806 
Q 1325 4896 1414 4896 
L 1677 4896 
Q 1766 4896 1766 4806 
L 1766 3341 
Q 1766 3251 1795 3225 
Q 1824 3200 1914 3200 
L 5133 3200 
Q 5165 3200 5197 3177 
Q 5229 3155 5229 3123 
L 5229 2893 
z
M 5325 -704 
Q 5325 -742 5293 -761 
Q 5261 -781 5229 -781 
L 1754 -781 
Q 1453 -781 1360 -656 
Q 1267 -531 1267 -269 
L 1267 979 
Q 1267 1069 1357 1069 
L 1619 1069 
Q 1709 1069 1709 979 
L 1709 -262 
Q 1709 -352 1737 -374 
Q 1766 -397 1856 -397 
L 5229 -397 
Q 5261 -397 5293 -419 
Q 5325 -442 5325 -474 
L 5325 -704 
z
M 5920 1958 
Q 5952 1958 5984 1936 
Q 6016 1914 6016 1875 
L 6016 1658 
Q 6016 1626 5984 1600 
Q 5952 1574 5920 1574 
L 480 1574 
Q 442 1574 413 1600 
Q 384 1626 384 1658 
L 384 1875 
Q 384 1914 413 1936 
Q 442 1958 480 1958 
L 5920 1958 
z
" transform="scale(0.015625)"/>
      <path id="NanumGothicCoding-bca1" d="M 1190 1984 
Q 1037 1984 944 2003 
Q 851 2022 800 2076 
Q 749 2131 729 2217 
Q 710 2304 710 2438 
L 710 4704 
Q 710 4736 736 4758 
Q 762 4781 794 4781 
L 1069 4781 
Q 1101 4781 1123 4755 
Q 1146 4730 1146 4704 
L 1146 3725 
L 2669 3725 
L 2669 4698 
Q 2669 4730 2691 4755 
Q 2714 4781 2746 4781 
L 3021 4781 
Q 3053 4781 3078 4758 
Q 3104 4736 3104 4704 
L 3104 3469 
L 4000 3469 
L 4000 4806 
Q 4000 4896 4090 4896 
L 4333 4896 
Q 4422 4896 4422 4806 
L 4422 1734 
Q 4422 1645 4333 1645 
L 4090 1645 
Q 4000 1645 4000 1734 
L 4000 3085 
L 3104 3085 
L 3104 2394 
Q 3104 2150 3001 2067 
Q 2899 1984 2618 1984 
L 1190 1984 
z
M 1632 1114 
Q 1632 1152 1664 1171 
Q 1696 1190 1728 1190 
L 5069 1190 
Q 5370 1190 5462 1078 
Q 5555 966 5555 704 
L 5555 -832 
Q 5555 -922 5466 -922 
L 5203 -922 
Q 5114 -922 5114 -832 
L 5114 672 
Q 5114 762 5085 784 
Q 5056 806 4966 806 
L 1728 806 
Q 1696 806 1664 828 
Q 1632 851 1632 883 
L 1632 1114 
z
M 1146 3347 
L 1146 2515 
Q 1146 2419 1178 2390 
Q 1210 2362 1299 2362 
L 2515 2362 
Q 2605 2362 2637 2390 
Q 2669 2419 2669 2515 
L 2669 3347 
L 1146 3347 
z
M 5555 1638 
Q 5555 1549 5466 1549 
L 5222 1549 
Q 5133 1549 5133 1638 
L 5133 4915 
Q 5133 5005 5222 5005 
L 5466 5005 
Q 5555 5005 5555 4915 
L 5555 1638 
z
" transform="scale(0.015625)"/>
      <path id="NanumGothicCoding-d130" d="M 3174 2464 
Q 2989 2451 2774 2441 
Q 2560 2432 2342 2425 
Q 2125 2419 1920 2419 
Q 1715 2419 1549 2426 
L 1280 2426 
L 1280 1229 
Q 1280 1133 1312 1097 
Q 1344 1062 1434 1062 
Q 1971 1050 2598 1098 
Q 3226 1146 3782 1254 
Q 3891 1274 3910 1184 
L 3942 998 
Q 3955 941 3936 918 
Q 3917 896 3859 883 
Q 3590 826 3270 784 
Q 2950 742 2617 713 
Q 2285 685 1955 672 
Q 1626 659 1338 666 
Q 1050 672 944 800 
Q 838 928 838 1197 
L 838 4077 
Q 838 4346 940 4435 
Q 1043 4525 1325 4525 
L 3334 4525 
Q 3418 4525 3418 4448 
L 3418 4218 
Q 3418 4141 3334 4141 
L 1408 4141 
Q 1318 4141 1299 4118 
Q 1280 4096 1280 4000 
L 1280 2797 
L 1549 2797 
Q 1709 2797 1910 2797 
Q 2112 2797 2329 2803 
Q 2547 2810 2764 2816 
Q 2982 2822 3174 2835 
Q 3213 2842 3235 2816 
Q 3258 2790 3258 2758 
L 3258 2541 
Q 3258 2477 3174 2464 
z
M 5344 -806 
Q 5344 -896 5254 -896 
L 4992 -896 
Q 4902 -896 4902 -806 
L 4902 2470 
L 3814 2470 
Q 3731 2470 3731 2547 
L 3731 2778 
Q 3731 2854 3814 2854 
L 4902 2854 
L 4902 4915 
Q 4902 5005 4992 5005 
L 5254 5005 
Q 5344 5005 5344 4915 
L 5344 -806 
z
" transform="scale(0.015625)"/>
     </defs>
     <use xlink:href="#NanumGothicCoding-2192"/>
     <use xlink:href="#NanumGothicCoding-20" transform="translate(99.999985 0)"/>
     <use xlink:href="#NanumGothicCoding-20" transform="translate(149.999969 0)"/>
     <use xlink:href="#NanumGothicCoding-3d" transform="translate(199.999954 0)"/>
     <use xlink:href="#NanumGothicCoding-20" transform="translate(249.999939 0)"/>
     <use xlink:href="#NanumGothicCoding-bc29" transform="translate(299.999924 0)"/>
     <use xlink:href="#NanumGothicCoding-d5a5" transform="translate(399.999908 0)"/>
     <use xlink:href="#NanumGothicCoding-c774" transform="translate(499.999893 0)"/>
     <use xlink:href="#NanumGothicCoding-20" transform="translate(599.999878 0)"/>
     <use xlink:href="#NanumGothicCoding-c788" transform="translate(649.999863 0)"/>
     <use xlink:href="#NanumGothicCoding-b294" transform="translate(749.999847 0)"/>
     <use xlink:href="#NanumGothicCoding-20" transform="translate(849.999832 0)"/>
     <use xlink:href="#NanumGothicCoding-bca1" transform="translate(899.999817 0)"/>
     <use xlink:href="#NanumGothicCoding-d130" transform="translate(999.999802 0)"/>
    </g>
   </g>
   <g id="text_3">
    <!-- ── = 기준선, 축, 표면 -->
    <g style="fill: #111827" transform="translate(19.77696 76.943016) scale(0.11 -0.11)">
     <defs>
      <path id="NanumGothicCoding-2500" d="M 6400 1830 
L 0 1830 
L 0 2016 
L 6400 2016 
L 6400 1830 
z
" transform="scale(0.015625)"/>
      <path id="NanumGothicCoding-ae30" d="M 5344 -806 
Q 5344 -896 5254 -896 
L 4992 -896 
Q 4902 -896 4902 -806 
L 4902 4915 
Q 4902 5005 4992 5005 
L 5254 5005 
Q 5344 5005 5344 4915 
L 5344 -806 
z
M 3629 4064 
Q 3597 3514 3411 2982 
Q 3226 2451 2896 1968 
Q 2566 1485 2102 1072 
Q 1638 659 1050 346 
Q 966 301 928 365 
L 787 589 
Q 742 666 813 698 
Q 1357 979 1776 1340 
Q 2195 1702 2492 2124 
Q 2790 2547 2963 3014 
Q 3136 3482 3181 3974 
Q 3194 4070 3155 4105 
Q 3117 4141 3027 4141 
L 992 4141 
Q 915 4141 915 4224 
L 915 4448 
Q 915 4525 992 4525 
L 3149 4525 
Q 3450 4525 3546 4413 
Q 3642 4301 3629 4064 
z
" transform="scale(0.015625)"/>
      <path id="NanumGothicCoding-c900" d="M 4685 4179 
Q 4499 4013 4268 3859 
Q 4038 3706 3770 3558 
Q 4192 3424 4653 3299 
Q 5114 3174 5523 3091 
Q 5606 3072 5581 3002 
L 5491 2790 
Q 5459 2720 5376 2739 
Q 5165 2778 4899 2842 
Q 4634 2906 4355 2982 
Q 4077 3059 3795 3145 
Q 3514 3232 3277 3315 
Q 2368 2906 1062 2598 
Q 1005 2586 979 2605 
Q 954 2624 941 2662 
L 883 2848 
Q 858 2938 928 2957 
Q 1453 3078 1933 3228 
Q 2413 3379 2832 3548 
Q 3251 3718 3600 3904 
Q 3949 4090 4198 4275 
Q 4301 4352 4278 4393 
Q 4256 4435 4166 4435 
L 1402 4435 
Q 1318 4435 1318 4518 
L 1318 4742 
Q 1318 4819 1402 4819 
L 4326 4819 
Q 4819 4819 4915 4643 
Q 5011 4467 4685 4179 
z
M 3104 339 
Q 3072 339 3046 368 
Q 3021 397 3021 435 
L 3021 1728 
L 480 1728 
Q 442 1728 413 1753 
Q 384 1779 384 1811 
L 384 2029 
Q 384 2067 413 2089 
Q 442 2112 480 2112 
L 5920 2112 
Q 5952 2112 5984 2089 
Q 6016 2067 6016 2029 
L 6016 1811 
Q 6016 1779 5984 1753 
Q 5952 1728 5920 1728 
L 3462 1728 
L 3462 435 
Q 3462 397 3440 368 
Q 3418 339 3379 339 
L 3104 339 
z
M 5325 -704 
Q 5325 -742 5293 -761 
Q 5261 -781 5229 -781 
L 1702 -781 
Q 1402 -781 1309 -656 
Q 1216 -531 1216 -269 
L 1216 1005 
Q 1216 1094 1306 1094 
L 1568 1094 
Q 1658 1094 1658 1005 
L 1658 -262 
Q 1658 -352 1686 -374 
Q 1715 -397 1805 -397 
L 5229 -397 
Q 5261 -397 5293 -419 
Q 5325 -442 5325 -474 
L 5325 -704 
z
" transform="scale(0.015625)"/>
      <path id="NanumGothicCoding-c120" d="M 2573 4710 
Q 2573 4461 2544 4224 
Q 2515 3987 2464 3763 
Q 2541 3501 2685 3241 
Q 2829 2982 3024 2748 
Q 3219 2515 3449 2326 
Q 3680 2138 3923 2022 
Q 3962 2003 3958 1971 
Q 3955 1939 3942 1907 
L 3814 1696 
Q 3795 1664 3769 1651 
Q 3744 1638 3686 1670 
Q 3501 1760 3299 1926 
Q 3098 2093 2902 2294 
Q 2707 2496 2540 2723 
Q 2374 2950 2266 3162 
Q 2048 2643 1693 2217 
Q 1338 1792 858 1478 
Q 826 1459 787 1452 
Q 749 1446 723 1478 
L 563 1690 
Q 544 1715 557 1753 
Q 570 1792 602 1811 
Q 947 2022 1232 2336 
Q 1517 2650 1718 3027 
Q 1920 3405 2025 3837 
Q 2131 4269 2125 4717 
Q 2125 4819 2202 4819 
L 2502 4800 
Q 2573 4800 2573 4710 
z
M 4902 3475 
L 4902 4915 
Q 4902 5005 4992 5005 
L 5254 5005 
Q 5344 5005 5344 4915 
L 5344 832 
Q 5344 742 5254 742 
L 4992 742 
Q 4902 742 4902 832 
L 4902 3091 
L 3584 3091 
Q 3501 3091 3501 3168 
L 3501 3398 
Q 3501 3475 3584 3475 
L 4902 3475 
z
M 5536 -704 
Q 5536 -742 5504 -761 
Q 5472 -781 5440 -781 
L 2234 -781 
Q 1933 -781 1840 -669 
Q 1747 -557 1747 -294 
L 1747 960 
Q 1747 1050 1837 1050 
L 2099 1050 
Q 2189 1050 2189 960 
L 2189 -262 
Q 2189 -352 2217 -374 
Q 2246 -397 2336 -397 
L 5440 -397 
Q 5472 -397 5504 -419 
Q 5536 -442 5536 -474 
L 5536 -704 
z
" transform="scale(0.015625)"/>
      <path id="NanumGothicCoding-cd95" d="M 1139 806 
Q 1139 845 1171 864 
Q 1203 883 1235 883 
L 2970 883 
L 2970 1587 
L 480 1587 
Q 442 1587 413 1612 
Q 384 1638 384 1670 
L 384 1888 
Q 384 1926 413 1948 
Q 442 1971 480 1971 
L 5920 1971 
Q 5952 1971 5984 1948 
Q 6016 1926 6016 1888 
L 6016 1670 
Q 6016 1638 5984 1612 
Q 5952 1587 5920 1587 
L 3411 1587 
L 3411 883 
L 4634 883 
Q 4934 883 5027 771 
Q 5120 659 5120 397 
L 5120 -870 
Q 5120 -960 5030 -960 
L 4768 -960 
Q 4678 -960 4678 -870 
L 4678 365 
Q 4678 454 4649 476 
Q 4621 499 4531 499 
L 1235 499 
Q 1203 499 1171 521 
Q 1139 544 1139 576 
L 1139 806 
z
M 4595 3610 
Q 4429 3482 4221 3366 
Q 4013 3251 3770 3142 
Q 4128 3040 4544 2953 
Q 4960 2867 5338 2816 
Q 5389 2803 5398 2784 
Q 5408 2765 5395 2720 
L 5338 2502 
Q 5318 2432 5235 2451 
Q 5030 2483 4777 2531 
Q 4525 2579 4256 2643 
Q 3987 2707 3718 2774 
Q 3450 2842 3206 2912 
Q 2765 2746 2256 2614 
Q 1747 2483 1190 2387 
Q 1094 2368 1069 2432 
L 992 2650 
Q 979 2682 998 2710 
Q 1018 2739 1056 2752 
Q 1523 2842 1926 2944 
Q 2330 3046 2691 3161 
Q 3053 3277 3379 3408 
Q 3706 3539 4026 3693 
Q 4134 3744 4124 3789 
Q 4115 3834 4013 3834 
L 1466 3834 
Q 1382 3834 1382 3917 
L 1382 4141 
Q 1382 4218 1466 4218 
L 4230 4218 
Q 4730 4218 4838 4042 
Q 4947 3866 4595 3610 
z
M 4006 5005 
Q 4102 5005 4102 4915 
L 4102 4710 
Q 4102 4614 4006 4614 
L 2323 4614 
Q 2227 4614 2227 4710 
L 2227 4915 
Q 2227 5005 2323 5005 
L 4006 5005 
z
" transform="scale(0.015625)"/>
      <path id="NanumGothicCoding-d45c" d="M 5357 2016 
Q 5357 1933 5261 1933 
L 4390 1933 
L 4390 499 
L 5920 499 
Q 5952 499 5984 476 
Q 6016 454 6016 416 
L 6016 198 
Q 6016 166 5984 140 
Q 5952 115 5920 115 
L 480 115 
Q 442 115 413 140 
Q 384 166 384 198 
L 384 416 
Q 384 454 413 476 
Q 442 499 480 499 
L 1958 499 
L 1958 1933 
L 1062 1933 
Q 1030 1933 1001 1958 
Q 973 1984 973 2022 
L 973 2221 
Q 973 2259 1001 2284 
Q 1030 2310 1062 2310 
L 1875 2310 
L 1875 4211 
L 1190 4211 
Q 1158 4211 1129 4236 
Q 1101 4262 1101 4301 
L 1101 4499 
Q 1101 4538 1129 4563 
Q 1158 4589 1190 4589 
L 5133 4589 
Q 5229 4589 5229 4506 
L 5229 4294 
Q 5229 4211 5133 4211 
L 4480 4211 
L 4480 2310 
L 5261 2310 
Q 5357 2310 5357 2227 
L 5357 2016 
z
M 2310 2310 
L 4045 2310 
L 4045 4211 
L 2310 4211 
L 2310 2310 
z
M 2394 499 
L 3955 499 
L 3955 1933 
L 2394 1933 
L 2394 499 
z
" transform="scale(0.015625)"/>
      <path id="NanumGothicCoding-ba74" d="M 5344 877 
Q 5344 787 5254 787 
L 4992 787 
Q 4902 787 4902 877 
L 4902 2381 
L 3635 2381 
L 3635 2227 
Q 3635 1958 3532 1865 
Q 3430 1773 3149 1773 
L 1389 1773 
Q 1235 1773 1142 1792 
Q 1050 1811 995 1865 
Q 941 1920 921 2006 
Q 902 2093 902 2227 
L 902 4205 
Q 902 4474 1004 4566 
Q 1107 4659 1389 4659 
L 3149 4659 
Q 3302 4659 3395 4640 
Q 3488 4621 3542 4569 
Q 3597 4518 3616 4428 
Q 3635 4339 3635 4205 
L 3635 3974 
L 4902 3974 
L 4902 4915 
Q 4902 5005 4992 5005 
L 5254 5005 
Q 5344 5005 5344 4915 
L 5344 877 
z
M 1498 4275 
Q 1408 4275 1376 4240 
Q 1344 4205 1344 4109 
L 1344 2323 
Q 1344 2227 1376 2192 
Q 1408 2157 1498 2157 
L 3040 2157 
Q 3130 2157 3162 2192 
Q 3194 2227 3194 2323 
L 3194 4109 
Q 3194 4205 3162 4240 
Q 3130 4275 3040 4275 
L 1498 4275 
z
M 5542 -704 
Q 5542 -742 5510 -761 
Q 5478 -781 5446 -781 
L 2240 -781 
Q 1939 -781 1846 -669 
Q 1754 -557 1754 -294 
L 1754 1005 
Q 1754 1094 1843 1094 
L 2106 1094 
Q 2195 1094 2195 1005 
L 2195 -262 
Q 2195 -352 2224 -374 
Q 2253 -397 2342 -397 
L 5446 -397 
Q 5478 -397 5510 -419 
Q 5542 -442 5542 -474 
L 5542 -704 
z
M 3635 2758 
L 4902 2758 
L 4902 3597 
L 3635 3597 
L 3635 2758 
z
" transform="scale(0.015625)"/>
     </defs>
     <use xlink:href="#NanumGothicCoding-2500"/>
     <use xlink:href="#NanumGothicCoding-2500" transform="translate(99.999985 0)"/>
     <use xlink:href="#NanumGothicCoding-20" transform="translate(199.999969 0)"/>
     <use xlink:href="#NanumGothicCoding-3d" transform="translate(249.999954 0)"/>
     <use xlink:href="#NanumGothicCoding-20" transform="translate(299.999939 0)"/>
     <use xlink:href="#NanumGothicCoding-ae30" transform="translate(349.999924 0)"/>
     <use xlink:href="#NanumGothicCoding-c900" transform="translate(449.999908 0)"/>
     <use xlink:href="#NanumGothicCoding-c120" transform="translate(549.999893 0)"/>
     <use xlink:href="#NanumGothicCoding-2c" transform="translate(649.999878 0)"/>
     <use xlink:href="#NanumGothicCoding-20" transform="translate(699.999863 0)"/>
     <use xlink:href="#NanumGothicCoding-cd95" transform="translate(749.999847 0)"/>
     <use xlink:href="#NanumGothicCoding-2c" transform="translate(849.999832 0)"/>
     <use xlink:href="#NanumGothicCoding-20" transform="translate(899.999817 0)"/>
     <use xlink:href="#NanumGothicCoding-d45c" transform="translate(949.999802 0)"/>
     <use xlink:href="#NanumGothicCoding-ba74" transform="translate(1049.999786 0)"/>
    </g>
   </g>
   <g id="text_4">
    <!-- [ ] = 어떤 축 위에 떨어진 그림자 구간 -->
    <g style="fill: #111827" transform="translate(19.77696 96.969704) scale(0.11 -0.11)">
     <defs>
      <path id="NanumGothicCoding-5b" d="M 1158 -1126 
Q 1069 -1126 1053 -1113 
Q 1037 -1101 1037 -1011 
L 1037 4877 
Q 1037 4966 1053 4982 
Q 1069 4998 1158 4998 
L 2029 4998 
Q 2125 4998 2141 4985 
Q 2157 4973 2157 4883 
L 2157 4800 
Q 2157 4704 2141 4688 
Q 2125 4672 2022 4672 
L 1562 4672 
Q 1491 4672 1478 4659 
Q 1466 4646 1466 4570 
L 1466 -704 
Q 1466 -774 1475 -787 
Q 1485 -800 1555 -800 
L 2022 -800 
Q 2125 -800 2141 -816 
Q 2157 -832 2157 -928 
L 2157 -1005 
Q 2157 -1094 2141 -1110 
Q 2125 -1126 2022 -1126 
L 1158 -1126 
z
" transform="scale(0.015625)"/>
      <path id="NanumGothicCoding-5d" d="M 2035 4998 
Q 2125 4998 2141 4985 
Q 2157 4973 2157 4883 
L 2157 -1005 
Q 2157 -1094 2141 -1110 
Q 2125 -1126 2035 -1126 
L 1165 -1126 
Q 1069 -1126 1053 -1113 
Q 1037 -1101 1037 -1011 
L 1037 -928 
Q 1037 -832 1053 -816 
Q 1069 -800 1171 -800 
L 1632 -800 
Q 1702 -800 1715 -787 
Q 1728 -774 1728 -698 
L 1728 4576 
Q 1728 4646 1718 4659 
Q 1709 4672 1638 4672 
L 1171 4672 
Q 1069 4672 1053 4688 
Q 1037 4704 1037 4800 
L 1037 4877 
Q 1037 4966 1053 4982 
Q 1069 4998 1171 4998 
L 2035 4998 
z
" transform="scale(0.015625)"/>
      <path id="NanumGothicCoding-c5b4" d="M 5344 -806 
Q 5344 -896 5254 -896 
L 4992 -896 
Q 4902 -896 4902 -806 
L 4902 2381 
L 3757 2381 
Q 3738 2042 3638 1709 
Q 3539 1376 3353 1110 
Q 3168 845 2889 678 
Q 2611 512 2227 512 
Q 1805 512 1513 697 
Q 1222 883 1046 1180 
Q 870 1478 793 1843 
Q 717 2208 717 2566 
Q 717 2944 793 3312 
Q 870 3680 1046 3974 
Q 1222 4269 1513 4448 
Q 1805 4627 2227 4627 
Q 2611 4627 2889 4470 
Q 3168 4314 3353 4051 
Q 3539 3789 3638 3453 
Q 3738 3117 3757 2765 
L 4902 2765 
L 4902 4915 
Q 4902 5005 4992 5005 
L 5254 5005 
Q 5344 5005 5344 4915 
L 5344 -806 
z
M 3309 2573 
Q 3309 2861 3248 3155 
Q 3187 3450 3059 3686 
Q 2931 3923 2726 4070 
Q 2522 4218 2227 4218 
Q 1920 4218 1718 4070 
Q 1517 3923 1395 3686 
Q 1274 3450 1222 3155 
Q 1171 2861 1171 2573 
Q 1171 2298 1219 2003 
Q 1267 1709 1388 1469 
Q 1510 1229 1715 1075 
Q 1920 922 2227 922 
Q 2522 922 2726 1075 
Q 2931 1229 3059 1469 
Q 3187 1709 3248 2003 
Q 3309 2298 3309 2573 
z
" transform="scale(0.015625)"/>
      <path id="NanumGothicCoding-b5a4" d="M 4902 3469 
L 4902 4915 
Q 4902 5005 4992 5005 
L 5254 5005 
Q 5344 5005 5344 4915 
L 5344 787 
Q 5344 698 5254 698 
L 4992 698 
Q 4902 698 4902 787 
L 4902 3085 
L 3757 3085 
Q 3674 3085 3674 3162 
L 3674 3392 
Q 3674 3469 3757 3469 
L 4902 3469 
z
M 4435 2048 
Q 4454 1952 4371 1939 
Q 4051 1869 3692 1830 
Q 3334 1792 2931 1792 
Q 2669 1792 2569 1920 
Q 2470 2048 2470 2259 
L 2470 4186 
Q 2470 4454 2572 4544 
Q 2675 4634 2957 4634 
L 3962 4634 
Q 4045 4634 4045 4557 
L 4045 4346 
Q 4045 4269 3962 4269 
L 3021 4269 
Q 2931 4269 2912 4246 
Q 2893 4224 2893 4128 
L 2893 2272 
Q 2893 2170 3008 2170 
Q 3354 2170 3683 2202 
Q 4013 2234 4282 2298 
Q 4333 2310 4358 2297 
Q 4384 2285 4397 2227 
L 4435 2048 
z
M 5542 -704 
Q 5542 -742 5510 -761 
Q 5478 -781 5446 -781 
L 2208 -781 
Q 1907 -781 1814 -669 
Q 1722 -557 1722 -294 
L 1722 915 
Q 1722 1005 1811 1005 
L 2074 1005 
Q 2163 1005 2163 915 
L 2163 -262 
Q 2163 -352 2192 -374 
Q 2221 -397 2310 -397 
L 5446 -397 
Q 5478 -397 5510 -419 
Q 5542 -442 5542 -474 
L 5542 -704 
z
M 2349 1933 
Q 2355 1888 2336 1865 
Q 2317 1843 2253 1830 
Q 2010 1792 1760 1782 
Q 1510 1773 1286 1792 
Q 1005 1818 896 1936 
Q 787 2054 787 2323 
L 787 4186 
Q 787 4454 889 4544 
Q 992 4634 1274 4634 
L 2221 4634 
Q 2304 4634 2304 4557 
L 2304 4346 
Q 2304 4269 2221 4269 
L 1338 4269 
Q 1248 4269 1229 4246 
Q 1210 4224 1210 4128 
L 1210 2336 
Q 1210 2240 1242 2208 
Q 1274 2176 1363 2170 
Q 1574 2157 1798 2160 
Q 2022 2163 2208 2189 
Q 2304 2208 2323 2106 
L 2349 1933 
z
" transform="scale(0.015625)"/>
      <path id="NanumGothicCoding-c5d0" d="M 4422 -563 
Q 4422 -653 4333 -653 
L 4090 -653 
Q 4000 -653 4000 -563 
L 4000 2419 
L 3277 2419 
Q 3251 1978 3136 1648 
Q 3021 1318 2835 1097 
Q 2650 877 2410 768 
Q 2170 659 1901 659 
Q 1613 659 1369 784 
Q 1126 909 947 1155 
Q 768 1402 665 1773 
Q 563 2144 563 2643 
Q 563 3142 665 3510 
Q 768 3878 950 4124 
Q 1133 4371 1376 4489 
Q 1619 4608 1907 4608 
Q 2182 4608 2422 4499 
Q 2662 4390 2848 4166 
Q 3034 3942 3146 3603 
Q 3258 3264 3277 2803 
L 4000 2803 
L 4000 4806 
Q 4000 4896 4090 4896 
L 4333 4896 
Q 4422 4896 4422 4806 
L 4422 -563 
z
M 2835 2643 
Q 2835 2938 2777 3219 
Q 2720 3501 2605 3725 
Q 2490 3949 2314 4086 
Q 2138 4224 1901 4224 
Q 1651 4224 1481 4083 
Q 1312 3942 1206 3715 
Q 1101 3488 1056 3206 
Q 1011 2925 1011 2643 
Q 1011 2362 1062 2077 
Q 1114 1792 1219 1561 
Q 1325 1331 1494 1187 
Q 1664 1043 1901 1043 
Q 2138 1043 2314 1184 
Q 2490 1325 2605 1552 
Q 2720 1779 2777 2067 
Q 2835 2355 2835 2643 
z
M 5555 -806 
Q 5555 -896 5466 -896 
L 5222 -896 
Q 5133 -896 5133 -806 
L 5133 4915 
Q 5133 5005 5222 5005 
L 5466 5005 
Q 5555 5005 5555 4915 
L 5555 -806 
z
" transform="scale(0.015625)"/>
      <path id="NanumGothicCoding-b5a8" d="M 5478 -838 
Q 5478 -870 5449 -892 
Q 5421 -915 5395 -915 
L 2170 -915 
Q 1869 -915 1776 -803 
Q 1683 -691 1683 -422 
L 1683 58 
Q 1683 326 1795 419 
Q 1907 512 2195 512 
L 4762 512 
Q 4851 512 4876 537 
Q 4902 563 4902 659 
L 4902 1024 
Q 4902 1120 4880 1145 
Q 4858 1171 4768 1171 
L 1760 1171 
Q 1728 1171 1699 1190 
Q 1670 1210 1670 1242 
L 1670 1472 
Q 1670 1504 1699 1523 
Q 1728 1542 1760 1542 
L 4838 1542 
Q 4992 1542 5088 1520 
Q 5184 1498 5241 1446 
Q 5299 1395 5321 1302 
Q 5344 1210 5344 1075 
L 5344 595 
Q 5344 326 5232 233 
Q 5120 141 4832 141 
L 2266 141 
Q 2176 141 2153 115 
Q 2131 90 2131 -6 
L 2131 -397 
Q 2131 -486 2156 -515 
Q 2182 -544 2272 -544 
L 5389 -544 
Q 5421 -544 5449 -563 
Q 5478 -582 5478 -614 
L 5478 -838 
z
M 4435 2438 
Q 4454 2342 4371 2330 
Q 4051 2259 3692 2220 
Q 3334 2182 2931 2182 
Q 2669 2182 2569 2310 
Q 2470 2438 2470 2650 
L 2470 4307 
Q 2470 4576 2572 4665 
Q 2675 4755 2957 4755 
L 3962 4755 
Q 4045 4755 4045 4678 
L 4045 4467 
Q 4045 4390 3962 4390 
L 3021 4390 
Q 2931 4390 2912 4368 
Q 2893 4346 2893 4250 
L 2893 2662 
Q 2893 2560 3008 2560 
Q 3354 2560 3683 2592 
Q 4013 2624 4282 2688 
Q 4333 2701 4358 2688 
Q 4384 2675 4397 2618 
L 4435 2438 
z
M 4902 3699 
L 4902 4915 
Q 4902 5005 4992 5005 
L 5254 5005 
Q 5344 5005 5344 4915 
L 5344 1978 
Q 5344 1888 5254 1888 
L 4992 1888 
Q 4902 1888 4902 1978 
L 4902 3315 
L 3757 3315 
Q 3674 3315 3674 3392 
L 3674 3622 
Q 3674 3699 3757 3699 
L 4902 3699 
z
M 2349 2323 
Q 2355 2278 2336 2256 
Q 2317 2234 2253 2221 
Q 2010 2182 1760 2172 
Q 1510 2163 1286 2182 
Q 1005 2208 896 2326 
Q 787 2445 787 2714 
L 787 4307 
Q 787 4576 889 4665 
Q 992 4755 1274 4755 
L 2221 4755 
Q 2304 4755 2304 4678 
L 2304 4467 
Q 2304 4390 2221 4390 
L 1338 4390 
Q 1248 4390 1229 4368 
Q 1210 4346 1210 4250 
L 1210 2726 
Q 1210 2630 1242 2598 
Q 1274 2566 1363 2560 
Q 1574 2547 1798 2550 
Q 2022 2554 2208 2579 
Q 2304 2598 2323 2496 
L 2349 2323 
z
" transform="scale(0.015625)"/>
      <path id="NanumGothicCoding-c9c4" d="M 3520 4038 
Q 3430 3776 3270 3510 
Q 3110 3245 2899 2982 
Q 3162 2682 3498 2416 
Q 3834 2150 4160 1978 
Q 4243 1939 4198 1856 
L 4051 1638 
Q 4032 1606 3993 1603 
Q 3955 1600 3923 1619 
Q 3597 1798 3261 2080 
Q 2925 2362 2637 2675 
Q 2266 2285 1824 1952 
Q 1382 1619 928 1414 
Q 896 1402 864 1392 
Q 832 1382 813 1414 
L 685 1638 
Q 666 1670 678 1705 
Q 691 1741 723 1754 
Q 1478 2138 2076 2707 
Q 2675 3277 3034 4013 
Q 3078 4102 3046 4140 
Q 3014 4179 2925 4179 
L 1050 4179 
Q 973 4179 973 4262 
L 973 4486 
Q 973 4563 1050 4563 
L 3098 4563 
Q 3430 4563 3526 4444 
Q 3622 4326 3520 4038 
z
M 5536 -704 
Q 5536 -742 5504 -761 
Q 5472 -781 5440 -781 
L 2234 -781 
Q 1933 -781 1840 -669 
Q 1747 -557 1747 -294 
L 1747 896 
Q 1747 986 1837 986 
L 2099 986 
Q 2189 986 2189 896 
L 2189 -262 
Q 2189 -352 2217 -374 
Q 2246 -397 2336 -397 
L 5440 -397 
Q 5472 -397 5504 -419 
Q 5536 -442 5536 -474 
L 5536 -704 
z
M 5344 806 
Q 5344 717 5254 717 
L 4992 717 
Q 4902 717 4902 806 
L 4902 4915 
Q 4902 5005 4992 5005 
L 5254 5005 
Q 5344 5005 5344 4915 
L 5344 806 
z
" transform="scale(0.015625)"/>
      <path id="NanumGothicCoding-adf8" d="M 1171 4435 
Q 1171 4474 1203 4493 
Q 1235 4512 1267 4512 
L 4698 4512 
Q 4851 4512 4944 4480 
Q 5037 4448 5088 4387 
Q 5139 4326 5158 4230 
Q 5178 4134 5184 4000 
Q 5190 3827 5180 3561 
Q 5171 3296 5152 2979 
Q 5133 2662 5104 2320 
Q 5075 1978 5040 1648 
Q 5005 1318 4966 1020 
Q 4928 723 4890 499 
L 5920 499 
Q 5952 499 5984 476 
Q 6016 454 6016 416 
L 6016 198 
Q 6016 166 5984 140 
Q 5952 115 5920 115 
L 480 115 
Q 442 115 413 140 
Q 384 166 384 198 
L 384 416 
Q 384 454 413 476 
Q 442 499 480 499 
L 4454 499 
Q 4493 666 4534 941 
Q 4576 1216 4614 1542 
Q 4653 1869 4681 2227 
Q 4710 2586 4729 2918 
Q 4749 3251 4755 3532 
Q 4762 3814 4749 3994 
Q 4742 4083 4716 4105 
Q 4691 4128 4602 4128 
L 1267 4128 
Q 1235 4128 1203 4150 
Q 1171 4173 1171 4205 
L 1171 4435 
z
" transform="scale(0.015625)"/>
      <path id="NanumGothicCoding-b9bc" d="M 5344 1574 
Q 5344 1485 5254 1485 
L 4992 1485 
Q 4902 1485 4902 1574 
L 4902 4915 
Q 4902 5005 4992 5005 
L 5254 5005 
Q 5344 5005 5344 4915 
L 5344 1574 
z
M 1690 672 
Q 1690 941 1792 1033 
Q 1894 1126 2176 1126 
L 4858 1126 
Q 5011 1126 5104 1107 
Q 5197 1088 5251 1037 
Q 5306 986 5325 896 
Q 5344 806 5344 672 
L 5344 -390 
Q 5344 -659 5241 -752 
Q 5139 -845 4858 -845 
L 2176 -845 
Q 2022 -845 1929 -825 
Q 1837 -806 1782 -752 
Q 1728 -698 1709 -611 
Q 1690 -525 1690 -390 
L 1690 672 
z
M 2285 742 
Q 2195 742 2163 707 
Q 2131 672 2131 576 
L 2131 -294 
Q 2131 -390 2163 -425 
Q 2195 -461 2285 -461 
L 4749 -461 
Q 4838 -461 4870 -425 
Q 4902 -390 4902 -294 
L 4902 576 
Q 4902 672 4870 707 
Q 4838 742 4749 742 
L 2285 742 
z
M 1389 1805 
Q 1101 1805 1001 1917 
Q 902 2029 902 2298 
L 902 3053 
Q 902 3322 1014 3414 
Q 1126 3507 1414 3507 
L 2957 3507 
Q 3046 3507 3072 3532 
Q 3098 3558 3098 3654 
L 3098 4230 
Q 3098 4326 3075 4352 
Q 3053 4378 2963 4378 
L 1005 4378 
Q 928 4378 928 4461 
L 928 4685 
Q 928 4762 1005 4762 
L 3034 4762 
Q 3187 4762 3283 4739 
Q 3379 4717 3436 4665 
Q 3494 4614 3516 4521 
Q 3539 4429 3539 4294 
L 3539 3578 
Q 3539 3309 3427 3216 
Q 3315 3123 3027 3123 
L 1478 3123 
Q 1389 3123 1366 3097 
Q 1344 3072 1344 2976 
L 1344 2330 
Q 1344 2182 1485 2182 
Q 1862 2182 2208 2195 
Q 2554 2208 2883 2237 
Q 3213 2266 3533 2307 
Q 3853 2349 4186 2406 
Q 4250 2419 4272 2406 
Q 4294 2394 4307 2342 
L 4346 2138 
Q 4358 2080 4336 2061 
Q 4314 2042 4256 2029 
Q 3654 1920 2912 1859 
Q 2170 1798 1389 1805 
z
" transform="scale(0.015625)"/>
      <path id="NanumGothicCoding-c790" d="M 3866 858 
Q 3846 826 3817 819 
Q 3789 813 3738 851 
Q 3584 966 3411 1116 
Q 3238 1267 3072 1436 
Q 2906 1606 2746 1788 
Q 2586 1971 2451 2150 
Q 2131 1747 1721 1379 
Q 1312 1011 787 646 
Q 755 627 723 617 
Q 691 608 672 634 
L 518 832 
Q 493 864 499 899 
Q 506 934 531 954 
Q 1555 1677 2128 2419 
Q 2701 3162 2925 3968 
Q 2950 4058 2928 4099 
Q 2906 4141 2816 4141 
L 877 4141 
Q 800 4141 800 4224 
L 800 4448 
Q 800 4525 890 4525 
L 2989 4525 
Q 3322 4525 3411 4409 
Q 3501 4294 3411 4000 
Q 3162 3181 2707 2496 
Q 2854 2291 3020 2092 
Q 3187 1894 3353 1718 
Q 3520 1542 3686 1398 
Q 3853 1254 4000 1158 
Q 4032 1133 4032 1101 
Q 4032 1069 4013 1043 
L 3866 858 
z
M 5120 -806 
Q 5120 -896 5030 -896 
L 4768 -896 
Q 4678 -896 4678 -806 
L 4678 4915 
Q 4678 5005 4768 5005 
L 5030 5005 
Q 5120 5005 5120 4915 
L 5120 2586 
L 6003 2586 
Q 6042 2586 6070 2563 
Q 6099 2541 6099 2502 
L 6099 2285 
Q 6099 2253 6070 2227 
Q 6042 2202 6003 2202 
L 5120 2202 
L 5120 -806 
z
" transform="scale(0.015625)"/>
      <path id="NanumGothicCoding-ad6c" d="M 1158 4749 
Q 1158 4787 1190 4806 
Q 1222 4826 1254 4826 
L 4640 4826 
Q 4794 4826 4886 4794 
Q 4979 4762 5030 4701 
Q 5082 4640 5104 4544 
Q 5126 4448 5126 4314 
Q 5139 3814 5065 3296 
Q 4992 2778 4864 2176 
L 5920 2176 
Q 5952 2176 5984 2153 
Q 6016 2131 6016 2093 
L 6016 1875 
Q 6016 1843 5984 1817 
Q 5952 1792 5920 1792 
L 3405 1792 
L 3405 -762 
Q 3405 -800 3382 -829 
Q 3360 -858 3322 -858 
L 3046 -858 
Q 3014 -858 2988 -829 
Q 2963 -800 2963 -762 
L 2963 1792 
L 480 1792 
Q 442 1792 413 1817 
Q 384 1843 384 1875 
L 384 2093 
Q 384 2131 413 2153 
Q 442 2176 480 2176 
L 4429 2176 
Q 4493 2426 4550 2720 
Q 4608 3014 4643 3308 
Q 4678 3603 4691 3865 
Q 4704 4128 4691 4307 
Q 4678 4397 4656 4419 
Q 4634 4442 4544 4442 
L 1254 4442 
Q 1222 4442 1190 4464 
Q 1158 4486 1158 4518 
L 1158 4749 
z
" transform="scale(0.015625)"/>
      <path id="NanumGothicCoding-ac04" d="M 3482 4198 
Q 3322 3264 2672 2531 
Q 2022 1798 890 1325 
Q 851 1312 809 1312 
Q 768 1312 749 1363 
L 653 1574 
Q 627 1626 649 1658 
Q 672 1690 704 1702 
Q 1171 1894 1564 2156 
Q 1958 2419 2256 2726 
Q 2554 3034 2746 3379 
Q 2938 3725 3002 4090 
Q 3040 4269 2848 4269 
L 877 4269 
Q 800 4269 800 4352 
L 800 4576 
Q 800 4653 877 4653 
L 2995 4653 
Q 3302 4653 3411 4544 
Q 3520 4435 3482 4198 
z
M 5120 806 
Q 5120 717 5030 717 
L 4768 717 
Q 4678 717 4678 806 
L 4678 4915 
Q 4678 5005 4768 5005 
L 5030 5005 
Q 5120 5005 5120 4915 
L 5120 3066 
L 6003 3066 
Q 6042 3066 6070 3043 
Q 6099 3021 6099 2982 
L 6099 2765 
Q 6099 2733 6070 2707 
Q 6042 2682 6003 2682 
L 5120 2682 
L 5120 806 
z
M 5408 -704 
Q 5408 -742 5376 -761 
Q 5344 -781 5312 -781 
L 2054 -781 
Q 1754 -781 1661 -669 
Q 1568 -557 1568 -294 
L 1568 934 
Q 1568 1024 1658 1024 
L 1920 1024 
Q 2010 1024 2010 934 
L 2010 -262 
Q 2010 -352 2038 -374 
Q 2067 -397 2157 -397 
L 5312 -397 
Q 5344 -397 5376 -419 
Q 5408 -442 5408 -474 
L 5408 -704 
z
" transform="scale(0.015625)"/>
     </defs>
     <use xlink:href="#NanumGothicCoding-5b"/>
     <use xlink:href="#NanumGothicCoding-20" transform="translate(49.999985 0)"/>
     <use xlink:href="#NanumGothicCoding-5d" transform="translate(99.999969 0)"/>
     <use xlink:href="#NanumGothicCoding-20" transform="translate(149.999954 0)"/>
     <use xlink:href="#NanumGothicCoding-3d" transform="translate(199.999939 0)"/>
     <use xlink:href="#NanumGothicCoding-20" transform="translate(249.999924 0)"/>
     <use xlink:href="#NanumGothicCoding-c5b4" transform="translate(299.999908 0)"/>
     <use xlink:href="#NanumGothicCoding-b5a4" transform="translate(399.999893 0)"/>
     <use xlink:href="#NanumGothicCoding-20" transform="translate(499.999878 0)"/>
     <use xlink:href="#NanumGothicCoding-cd95" transform="translate(549.999863 0)"/>
     <use xlink:href="#NanumGothicCoding-20" transform="translate(649.999847 0)"/>
     <use xlink:href="#NanumGothicCoding-c704" transform="translate(699.999832 0)"/>
     <use xlink:href="#NanumGothicCoding-c5d0" transform="translate(799.999817 0)"/>
     <use xlink:href="#NanumGothicCoding-20" transform="translate(899.999802 0)"/>
     <use xlink:href="#NanumGothicCoding-b5a8" transform="translate(949.999786 0)"/>
     <use xlink:href="#NanumGothicCoding-c5b4" transform="translate(1049.999771 0)"/>
     <use xlink:href="#NanumGothicCoding-c9c4" transform="translate(1149.999756 0)"/>
     <use xlink:href="#NanumGothicCoding-20" transform="translate(1249.999741 0)"/>
     <use xlink:href="#NanumGothicCoding-adf8" transform="translate(1299.999725 0)"/>
     <use xlink:href="#NanumGothicCoding-b9bc" transform="translate(1399.99971 0)"/>
     <use xlink:href="#NanumGothicCoding-c790" transform="translate(1499.999695 0)"/>
     <use xlink:href="#NanumGothicCoding-20" transform="translate(1599.99968 0)"/>
     <use xlink:href="#NanumGothicCoding-ad6c" transform="translate(1649.999664 0)"/>
     <use xlink:href="#NanumGothicCoding-ac04" transform="translate(1749.999649 0)"/>
    </g>
   </g>
   <g id="text_5">
    <!-- n  = 보통 normal 또는 기준 방향 -->
    <g style="fill: #111827" transform="translate(19.77696 116.898423) scale(0.11 -0.11)">
     <defs>
      <path id="NanumGothicCoding-6e" d="M 2797 -186 
Q 2797 -275 2707 -275 
L 2451 -275 
Q 2362 -275 2362 -186 
L 2362 1574 
Q 2362 2163 2202 2409 
Q 2042 2656 1658 2656 
Q 1318 2656 1088 2384 
Q 858 2112 858 1562 
L 858 -186 
Q 858 -275 768 -275 
L 512 -275 
Q 422 -275 422 -186 
L 422 2118 
Q 422 2394 419 2547 
Q 416 2701 403 2842 
Q 397 2886 425 2908 
Q 454 2931 493 2931 
L 723 2931 
Q 813 2931 813 2842 
L 813 2483 
Q 966 2758 1187 2889 
Q 1408 3021 1696 3021 
Q 2259 3021 2528 2669 
Q 2797 2317 2797 1677 
L 2797 -186 
z
" transform="scale(0.015625)"/>
      <path id="NanumGothicCoding-bcf4" d="M 3405 1818 
L 3405 499 
L 5920 499 
Q 5952 499 5984 476 
Q 6016 454 6016 416 
L 6016 198 
Q 6016 166 5984 140 
Q 5952 115 5920 115 
L 480 115 
Q 442 115 413 140 
Q 384 166 384 198 
L 384 416 
Q 384 454 413 476 
Q 442 499 480 499 
L 2963 499 
L 2963 1818 
L 1690 1818 
Q 1536 1818 1443 1837 
Q 1350 1856 1299 1910 
Q 1248 1965 1229 2051 
Q 1210 2138 1210 2272 
L 1210 4672 
Q 1210 4704 1235 4726 
Q 1261 4749 1293 4749 
L 1568 4749 
Q 1600 4749 1622 4723 
Q 1645 4698 1645 4672 
L 1645 3654 
L 4723 3654 
L 4723 4666 
Q 4723 4698 4745 4723 
Q 4768 4749 4800 4749 
L 5075 4749 
Q 5107 4749 5132 4726 
Q 5158 4704 5158 4672 
L 5158 2227 
Q 5158 1984 5056 1901 
Q 4954 1818 4672 1818 
L 3405 1818 
z
M 1645 3277 
L 1645 2349 
Q 1645 2253 1677 2224 
Q 1709 2195 1798 2195 
L 4570 2195 
Q 4659 2195 4691 2224 
Q 4723 2253 4723 2349 
L 4723 3277 
L 1645 3277 
z
" transform="scale(0.015625)"/>
      <path id="NanumGothicCoding-d1b5" d="M 5030 3629 
Q 5030 3546 4947 3546 
L 1715 3546 
L 1715 3091 
Q 1715 3002 1747 2963 
Q 1779 2925 1869 2925 
L 5075 2925 
Q 5158 2925 5158 2842 
L 5158 2650 
Q 5158 2560 5075 2560 
L 3411 2560 
L 3411 1862 
L 5920 1862 
Q 5952 1862 5984 1840 
Q 6016 1818 6016 1779 
L 6016 1562 
Q 6016 1530 5984 1504 
Q 5952 1478 5920 1478 
L 480 1478 
Q 442 1478 413 1504 
Q 384 1530 384 1562 
L 384 1779 
Q 384 1818 413 1840 
Q 442 1862 480 1862 
L 2970 1862 
L 2970 2560 
L 1760 2560 
Q 1478 2560 1376 2653 
Q 1274 2746 1274 3014 
L 1274 4435 
Q 1274 4704 1376 4797 
Q 1478 4890 1760 4890 
L 5030 4890 
Q 5114 4890 5114 4806 
L 5114 4608 
Q 5114 4518 5030 4518 
L 1869 4518 
Q 1779 4518 1747 4483 
Q 1715 4448 1715 4352 
L 1715 3910 
L 4941 3910 
Q 5030 3910 5030 3840 
L 5030 3629 
z
M 5184 32 
Q 5184 -269 4979 -457 
Q 4774 -646 4470 -752 
Q 4166 -858 3820 -899 
Q 3475 -941 3187 -941 
Q 2906 -941 2560 -896 
Q 2214 -851 1910 -742 
Q 1606 -634 1401 -445 
Q 1197 -256 1197 32 
Q 1197 326 1401 512 
Q 1606 698 1910 806 
Q 2214 915 2560 956 
Q 2906 998 3187 998 
Q 3475 998 3824 956 
Q 4173 915 4473 809 
Q 4774 704 4979 515 
Q 5184 326 5184 32 
z
M 4691 26 
Q 4691 218 4524 330 
Q 4358 442 4121 502 
Q 3885 563 3625 579 
Q 3366 595 3187 595 
Q 3002 595 2742 579 
Q 2483 563 2249 502 
Q 2016 442 1853 330 
Q 1690 218 1690 26 
Q 1690 -160 1853 -272 
Q 2016 -384 2249 -441 
Q 2483 -499 2742 -518 
Q 3002 -538 3187 -538 
Q 3366 -538 3625 -518 
Q 3885 -499 4121 -441 
Q 4358 -384 4524 -272 
Q 4691 -160 4691 26 
z
" transform="scale(0.015625)"/>
      <path id="NanumGothicCoding-6f" d="M 2490 1331 
Q 2490 1581 2432 1824 
Q 2374 2067 2253 2266 
Q 2010 2650 1594 2650 
Q 1158 2650 934 2266 
Q 813 2067 758 1824 
Q 704 1581 704 1331 
Q 704 1056 755 813 
Q 806 570 934 397 
Q 1216 6 1594 6 
Q 2035 6 2253 397 
Q 2381 570 2435 813 
Q 2490 1056 2490 1331 
z
M 2931 1331 
Q 2931 979 2851 668 
Q 2771 358 2605 147 
Q 2413 -102 2163 -240 
Q 1914 -378 1594 -378 
Q 1274 -378 1024 -240 
Q 774 -102 582 147 
Q 429 378 349 678 
Q 269 979 269 1331 
Q 269 2054 582 2515 
Q 947 3034 1594 3034 
Q 1920 3034 2166 2909 
Q 2413 2784 2605 2515 
Q 2931 2048 2931 1331 
z
" transform="scale(0.015625)"/>
      <path id="NanumGothicCoding-72" d="M 1946 122 
Q 2035 122 2035 32 
L 2035 -186 
Q 2035 -275 1946 -275 
L 506 -275 
Q 416 -275 416 -186 
L 416 32 
Q 416 122 506 122 
L 883 122 
L 883 2534 
L 390 2534 
Q 301 2534 301 2624 
L 301 2842 
Q 301 2931 390 2931 
L 1165 2931 
Q 1254 2931 1254 2842 
L 1254 2214 
Q 1645 3021 2381 3021 
Q 2758 3021 3059 2874 
Q 3123 2848 3129 2809 
Q 3136 2771 3117 2726 
L 3040 2496 
Q 3021 2451 2992 2454 
Q 2963 2458 2918 2483 
Q 2637 2618 2317 2618 
Q 1792 2592 1485 2048 
Q 1312 1715 1312 1178 
L 1312 122 
L 1946 122 
z
" transform="scale(0.015625)"/>
      <path id="NanumGothicCoding-6d" d="M 269 2118 
Q 269 2387 262 2544 
Q 256 2701 243 2842 
Q 243 2931 333 2931 
L 570 2931 
Q 659 2931 659 2842 
L 653 2566 
Q 698 2771 832 2889 
Q 966 3008 1101 3008 
Q 1338 3008 1482 2816 
Q 1626 2624 1664 2362 
Q 1683 2573 1804 2777 
Q 1926 2982 2202 3008 
Q 2445 3008 2585 2921 
Q 2726 2835 2809 2675 
Q 2893 2515 2925 2304 
Q 2957 2093 2957 1856 
L 2957 -186 
Q 2957 -275 2867 -275 
L 2624 -275 
Q 2534 -275 2534 -192 
L 2534 1766 
Q 2534 2611 2195 2611 
Q 2067 2611 1990 2508 
Q 1914 2406 1878 2252 
Q 1843 2099 1827 1868 
Q 1811 1638 1818 1382 
L 1818 -186 
Q 1818 -275 1728 -275 
L 1498 -275 
Q 1408 -275 1408 -186 
L 1408 1766 
Q 1389 2611 1050 2611 
Q 870 2611 777 2355 
Q 685 2099 691 1619 
L 691 -186 
Q 691 -275 602 -275 
L 358 -275 
Q 269 -275 269 -186 
L 269 2118 
z
" transform="scale(0.015625)"/>
      <path id="NanumGothicCoding-61" d="M 2368 1402 
L 2246 1402 
Q 1888 1414 1645 1376 
Q 1402 1338 1229 1254 
Q 1018 1165 902 976 
Q 787 787 787 589 
Q 787 474 838 342 
Q 890 211 998 141 
Q 1184 -13 1414 -13 
Q 1638 -13 1785 73 
Q 1933 160 2073 342 
Q 2214 525 2291 755 
Q 2368 986 2368 1203 
L 2368 1402 
z
M 723 2400 
Q 691 2381 662 2390 
Q 634 2400 634 2432 
L 634 2682 
Q 634 2765 723 2803 
Q 941 2931 1168 2982 
Q 1395 3034 1658 3034 
Q 2214 3046 2508 2713 
Q 2803 2381 2803 1888 
L 2803 397 
Q 2803 218 2809 77 
Q 2816 -64 2829 -192 
Q 2829 -275 2739 -275 
L 2509 -275 
Q 2419 -275 2419 -192 
L 2419 262 
Q 2285 -38 2009 -208 
Q 1734 -378 1363 -378 
Q 813 -378 512 -19 
Q 410 96 358 256 
Q 307 416 307 570 
Q 307 902 489 1180 
Q 672 1459 1050 1600 
Q 1414 1766 2285 1766 
L 2368 1766 
L 2368 1914 
Q 2368 2240 2185 2454 
Q 2003 2669 1658 2669 
Q 1382 2669 1168 2608 
Q 954 2547 723 2400 
z
" transform="scale(0.015625)"/>
      <path id="NanumGothicCoding-6c" d="M 2605 122 
Q 2694 122 2694 32 
L 2694 -186 
Q 2694 -275 2605 -275 
L 531 -275 
Q 442 -275 442 -186 
L 442 32 
Q 442 122 531 122 
L 1389 122 
L 1389 4032 
L 710 4032 
Q 621 4032 621 4122 
L 621 4339 
Q 621 4429 710 4429 
L 1760 4429 
Q 1850 4429 1850 4339 
L 1850 122 
L 2605 122 
z
" transform="scale(0.015625)"/>
      <path id="NanumGothicCoding-b610" d="M 3322 1779 
Q 3354 1779 3379 1750 
Q 3405 1722 3405 1683 
L 3405 499 
L 5920 499 
Q 5952 499 5984 476 
Q 6016 454 6016 416 
L 6016 198 
Q 6016 166 5984 140 
Q 5952 115 5920 115 
L 480 115 
Q 442 115 413 140 
Q 384 166 384 198 
L 384 416 
Q 384 454 413 476 
Q 442 499 480 499 
L 2963 499 
L 2963 1683 
Q 2963 1722 2985 1750 
Q 3008 1779 3046 1779 
L 3322 1779 
z
M 5402 2016 
Q 5402 1926 5318 1926 
L 3706 1926 
Q 3424 1926 3321 2019 
Q 3219 2112 3219 2381 
L 3219 4134 
Q 3219 4403 3321 4496 
Q 3424 4589 3706 4589 
L 5274 4589 
Q 5357 4589 5357 4506 
L 5357 4314 
Q 5357 4224 5274 4224 
L 3795 4224 
Q 3706 4224 3674 4189 
Q 3642 4154 3642 4058 
L 3642 2458 
Q 3642 2368 3674 2329 
Q 3706 2291 3795 2291 
L 5318 2291 
Q 5402 2291 5402 2208 
L 5402 2016 
z
M 3091 2157 
Q 3110 2061 3034 2042 
Q 2688 1978 2294 1952 
Q 1901 1926 1523 1939 
Q 1235 1952 1129 2077 
Q 1024 2202 1024 2470 
L 1024 4141 
Q 1024 4410 1126 4499 
Q 1229 4589 1510 4589 
L 2906 4589 
Q 2989 4589 2989 4512 
L 2989 4301 
Q 2989 4224 2906 4224 
L 1574 4224 
Q 1485 4224 1465 4201 
Q 1446 4179 1446 4083 
L 1446 2483 
Q 1446 2387 1478 2355 
Q 1510 2323 1600 2317 
Q 1933 2304 2291 2323 
Q 2650 2342 2931 2394 
Q 2976 2406 3011 2400 
Q 3046 2394 3059 2330 
L 3091 2157 
z
" transform="scale(0.015625)"/>
     </defs>
     <use xlink:href="#NanumGothicCoding-6e"/>
     <use xlink:href="#NanumGothicCoding-20" transform="translate(49.999985 0)"/>
     <use xlink:href="#NanumGothicCoding-20" transform="translate(99.999969 0)"/>
     <use xlink:href="#NanumGothicCoding-3d" transform="translate(149.999954 0)"/>
     <use xlink:href="#NanumGothicCoding-20" transform="translate(199.999939 0)"/>
     <use xlink:href="#NanumGothicCoding-bcf4" transform="translate(249.999924 0)"/>
     <use xlink:href="#NanumGothicCoding-d1b5" transform="translate(349.999908 0)"/>
     <use xlink:href="#NanumGothicCoding-20" transform="translate(449.999893 0)"/>
     <use xlink:href="#NanumGothicCoding-6e" transform="translate(499.999878 0)"/>
     <use xlink:href="#NanumGothicCoding-6f" transform="translate(549.999863 0)"/>
     <use xlink:href="#NanumGothicCoding-72" transform="translate(599.999847 0)"/>
     <use xlink:href="#NanumGothicCoding-6d" transform="translate(649.999832 0)"/>
     <use xlink:href="#NanumGothicCoding-61" transform="translate(699.999817 0)"/>
     <use xlink:href="#NanumGothicCoding-6c" transform="translate(749.999802 0)"/>
     <use xlink:href="#NanumGothicCoding-20" transform="translate(799.999786 0)"/>
     <use xlink:href="#NanumGothicCoding-b610" transform="translate(849.999771 0)"/>
     <use xlink:href="#NanumGothicCoding-b294" transform="translate(949.999756 0)"/>
     <use xlink:href="#NanumGothicCoding-20" transform="translate(1049.999741 0)"/>
     <use xlink:href="#NanumGothicCoding-ae30" transform="translate(1099.999725 0)"/>
     <use xlink:href="#NanumGothicCoding-c900" transform="translate(1199.99971 0)"/>
     <use xlink:href="#NanumGothicCoding-20" transform="translate(1299.999695 0)"/>
     <use xlink:href="#NanumGothicCoding-bc29" transform="translate(1349.99968 0)"/>
     <use xlink:href="#NanumGothicCoding-d5a5" transform="translate(1449.999664 0)"/>
    </g>
   </g>
   <g id="text_6">
    <!-- v  = 보통 velocity 또는 임의의 벡터 -->
    <g style="fill: #111827" transform="translate(19.77696 137.68308) scale(0.11 -0.11)">
     <defs>
      <path id="NanumGothicCoding-76" d="M 1856 -192 
Q 1824 -275 1728 -275 
L 1414 -275 
Q 1318 -275 1293 -192 
L 282 2842 
Q 269 2874 288 2902 
Q 307 2931 346 2931 
L 627 2931 
Q 704 2931 742 2842 
L 1581 166 
L 2458 2842 
Q 2470 2880 2502 2905 
Q 2534 2931 2573 2931 
L 2854 2931 
Q 2893 2931 2912 2902 
Q 2931 2874 2918 2842 
L 1856 -192 
z
" transform="scale(0.015625)"/>
      <path id="NanumGothicCoding-65" d="M 2458 1536 
Q 2458 1734 2410 1939 
Q 2362 2144 2266 2298 
Q 2042 2669 1626 2669 
Q 1210 2669 973 2291 
Q 864 2106 806 1907 
Q 749 1709 742 1536 
L 2458 1536 
z
M 736 1171 
Q 730 966 810 726 
Q 890 486 1030 336 
Q 1171 186 1350 96 
Q 1530 6 1786 6 
Q 2010 6 2202 51 
Q 2394 96 2586 198 
Q 2662 230 2669 154 
L 2669 -141 
Q 2669 -192 2598 -224 
Q 2400 -301 2211 -339 
Q 2022 -378 1754 -378 
Q 1069 -378 665 80 
Q 262 538 262 1312 
Q 262 2016 659 2541 
Q 1075 3034 1632 3034 
Q 1978 3034 2205 2912 
Q 2432 2790 2611 2541 
Q 2931 2112 2931 1376 
Q 2931 1299 2928 1257 
Q 2925 1216 2905 1197 
Q 2886 1178 2838 1174 
Q 2790 1171 2701 1171 
L 736 1171 
z
" transform="scale(0.015625)"/>
      <path id="NanumGothicCoding-63" d="M 2624 -288 
Q 2451 -333 2310 -349 
Q 2170 -365 1952 -365 
Q 1581 -365 1289 -233 
Q 998 -102 780 128 
Q 563 358 454 668 
Q 346 979 346 1338 
Q 346 1702 461 2009 
Q 576 2317 787 2541 
Q 998 2765 1289 2896 
Q 1581 3027 1952 3027 
Q 2150 3027 2297 3011 
Q 2445 2995 2630 2950 
Q 2714 2931 2707 2842 
L 2688 2624 
Q 2675 2547 2598 2566 
Q 2445 2618 2307 2640 
Q 2170 2662 2010 2662 
Q 1741 2662 1507 2556 
Q 1274 2451 1126 2272 
Q 979 2093 899 1853 
Q 819 1613 819 1338 
Q 819 1088 902 848 
Q 986 608 1130 419 
Q 1274 230 1507 115 
Q 1741 0 2010 0 
Q 2170 0 2298 19 
Q 2426 38 2592 96 
Q 2662 115 2688 51 
L 2707 -179 
Q 2714 -269 2624 -288 
z
" transform="scale(0.015625)"/>
      <path id="NanumGothicCoding-69" d="M 2656 122 
Q 2746 122 2746 32 
L 2746 -186 
Q 2746 -275 2656 -275 
L 614 -275 
Q 525 -275 525 -186 
L 525 32 
Q 525 122 614 122 
L 1434 122 
L 1434 2534 
L 685 2534 
Q 595 2534 595 2624 
L 595 2842 
Q 595 2931 685 2931 
L 1805 2931 
Q 1894 2931 1894 2842 
L 1894 122 
L 2656 122 
z
M 1235 3968 
Q 1235 4115 1340 4220 
Q 1446 4326 1594 4326 
Q 1741 4326 1846 4220 
Q 1952 4115 1952 3968 
Q 1952 3821 1846 3715 
Q 1741 3610 1594 3610 
Q 1446 3610 1340 3715 
Q 1235 3821 1235 3968 
z
" transform="scale(0.015625)"/>
      <path id="NanumGothicCoding-74" d="M 2733 -269 
Q 2464 -378 2106 -378 
Q 1523 -378 1357 -38 
Q 1248 192 1248 774 
L 1248 2413 
L 416 2413 
Q 326 2413 326 2502 
L 326 2694 
Q 326 2784 416 2784 
L 1248 2784 
L 1248 3686 
Q 1248 3782 1331 3782 
L 1600 3782 
Q 1683 3782 1683 3686 
L 1683 2784 
L 2714 2784 
Q 2803 2784 2803 2694 
L 2803 2502 
Q 2803 2413 2714 2413 
L 1683 2413 
L 1683 486 
Q 1683 6 2208 6 
Q 2470 6 2707 115 
Q 2739 128 2768 115 
Q 2797 102 2797 64 
L 2810 -141 
Q 2822 -230 2733 -269 
z
" transform="scale(0.015625)"/>
      <path id="NanumGothicCoding-79" d="M 365 -1222 
Q 288 -1203 301 -1126 
L 320 -890 
Q 320 -813 397 -845 
Q 506 -883 634 -883 
Q 768 -883 880 -851 
Q 992 -819 1050 -749 
Q 1120 -659 1206 -454 
Q 1293 -250 1376 13 
Q 1088 794 326 2842 
Q 314 2874 326 2902 
Q 339 2931 378 2931 
L 653 2931 
Q 742 2931 781 2842 
L 1587 589 
L 2419 2842 
Q 2451 2931 2547 2931 
L 2822 2931 
Q 2861 2931 2873 2902 
Q 2886 2874 2874 2842 
L 1606 -474 
Q 1536 -659 1449 -806 
Q 1363 -954 1274 -1043 
Q 1158 -1152 1017 -1206 
Q 877 -1261 723 -1261 
Q 627 -1261 547 -1254 
Q 467 -1248 365 -1222 
z
" transform="scale(0.015625)"/>
      <path id="NanumGothicCoding-c784" d="M 5344 1722 
Q 5344 1632 5254 1632 
L 4992 1632 
Q 4902 1632 4902 1722 
L 4902 4915 
Q 4902 5005 4992 5005 
L 5254 5005 
Q 5344 5005 5344 4915 
L 5344 1722 
z
M 1690 819 
Q 1690 1088 1792 1181 
Q 1894 1274 2176 1274 
L 4858 1274 
Q 5011 1274 5104 1254 
Q 5197 1235 5251 1184 
Q 5306 1133 5325 1043 
Q 5344 954 5344 819 
L 5344 -390 
Q 5344 -659 5241 -752 
Q 5139 -845 4858 -845 
L 2176 -845 
Q 2022 -845 1929 -825 
Q 1837 -806 1782 -752 
Q 1728 -698 1709 -611 
Q 1690 -525 1690 -390 
L 1690 819 
z
M 2285 890 
Q 2195 890 2163 854 
Q 2131 819 2131 723 
L 2131 -294 
Q 2131 -390 2163 -425 
Q 2195 -461 2285 -461 
L 4749 -461 
Q 4838 -461 4870 -425 
Q 4902 -390 4902 -294 
L 4902 723 
Q 4902 819 4870 854 
Q 4838 890 4749 890 
L 2285 890 
z
M 3776 3328 
Q 3776 3008 3661 2742 
Q 3546 2477 3341 2285 
Q 3136 2093 2857 1984 
Q 2579 1875 2253 1875 
Q 1939 1875 1664 1980 
Q 1389 2086 1187 2278 
Q 986 2470 870 2739 
Q 755 3008 755 3328 
Q 755 3667 870 3939 
Q 986 4211 1187 4400 
Q 1389 4589 1664 4688 
Q 1939 4787 2253 4787 
Q 2547 4787 2822 4688 
Q 3098 4589 3309 4403 
Q 3520 4218 3648 3946 
Q 3776 3674 3776 3328 
z
M 3328 3334 
Q 3328 3590 3241 3785 
Q 3155 3981 3008 4112 
Q 2861 4243 2665 4310 
Q 2470 4378 2253 4378 
Q 2029 4378 1840 4310 
Q 1651 4243 1507 4112 
Q 1363 3981 1283 3785 
Q 1203 3590 1203 3334 
Q 1203 3091 1280 2899 
Q 1357 2707 1497 2566 
Q 1638 2426 1830 2352 
Q 2022 2278 2253 2278 
Q 2470 2278 2665 2352 
Q 2861 2426 3008 2566 
Q 3155 2707 3241 2899 
Q 3328 3091 3328 3334 
z
" transform="scale(0.015625)"/>
      <path id="NanumGothicCoding-c758" d="M 5344 -806 
Q 5344 -896 5254 -896 
L 4992 -896 
Q 4902 -896 4902 -806 
L 4902 4915 
Q 4902 5005 4992 5005 
L 5254 5005 
Q 5344 5005 5344 4915 
L 5344 -806 
z
M 3885 3187 
Q 3885 2867 3769 2601 
Q 3654 2336 3449 2144 
Q 3245 1952 2963 1846 
Q 2682 1741 2349 1741 
Q 2022 1741 1747 1846 
Q 1472 1952 1270 2144 
Q 1069 2336 953 2601 
Q 838 2867 838 3187 
Q 838 3526 953 3795 
Q 1069 4064 1270 4253 
Q 1472 4442 1747 4541 
Q 2022 4640 2349 4640 
Q 2656 4640 2934 4541 
Q 3213 4442 3424 4253 
Q 3635 4064 3760 3795 
Q 3885 3526 3885 3187 
z
M 3437 3194 
Q 3437 3456 3350 3654 
Q 3264 3853 3113 3984 
Q 2963 4115 2764 4179 
Q 2566 4243 2349 4243 
Q 2118 4243 1926 4176 
Q 1734 4109 1590 3977 
Q 1446 3846 1366 3651 
Q 1286 3456 1286 3194 
Q 1286 2701 1577 2416 
Q 1869 2131 2349 2131 
Q 2566 2131 2764 2204 
Q 2963 2278 3113 2412 
Q 3264 2547 3350 2745 
Q 3437 2944 3437 3194 
z
M 4486 1069 
Q 4518 1075 4547 1059 
Q 4576 1043 4582 1018 
L 4614 800 
Q 4621 723 4538 704 
Q 4326 666 4076 630 
Q 3827 595 3561 563 
Q 3296 531 3027 505 
Q 2758 480 2502 461 
Q 2304 448 2038 435 
Q 1773 422 1497 412 
Q 1222 403 972 400 
Q 723 397 563 403 
Q 525 403 496 428 
Q 467 454 467 486 
L 467 704 
Q 467 742 496 764 
Q 525 787 563 787 
Q 749 787 1008 790 
Q 1267 794 1539 800 
Q 1811 806 2064 816 
Q 2317 826 2490 838 
Q 2714 851 2992 876 
Q 3270 902 3545 934 
Q 3821 966 4070 1001 
Q 4320 1037 4486 1069 
z
" transform="scale(0.015625)"/>
     </defs>
     <use xlink:href="#NanumGothicCoding-76"/>
     <use xlink:href="#NanumGothicCoding-20" transform="translate(49.999985 0)"/>
     <use xlink:href="#NanumGothicCoding-20" transform="translate(99.999969 0)"/>
     <use xlink:href="#NanumGothicCoding-3d" transform="translate(149.999954 0)"/>
     <use xlink:href="#NanumGothicCoding-20" transform="translate(199.999939 0)"/>
     <use xlink:href="#NanumGothicCoding-bcf4" transform="translate(249.999924 0)"/>
     <use xlink:href="#NanumGothicCoding-d1b5" transform="translate(349.999908 0)"/>
     <use xlink:href="#NanumGothicCoding-20" transform="translate(449.999893 0)"/>
     <use xlink:href="#NanumGothicCoding-76" transform="translate(499.999878 0)"/>
     <use xlink:href="#NanumGothicCoding-65" transform="translate(549.999863 0)"/>
     <use xlink:href="#NanumGothicCoding-6c" transform="translate(599.999847 0)"/>
     <use xlink:href="#NanumGothicCoding-6f" transform="translate(649.999832 0)"/>
     <use xlink:href="#NanumGothicCoding-63" transform="translate(699.999817 0)"/>
     <use xlink:href="#NanumGothicCoding-69" transform="translate(749.999802 0)"/>
     <use xlink:href="#NanumGothicCoding-74" transform="translate(799.999786 0)"/>
     <use xlink:href="#NanumGothicCoding-79" transform="translate(849.999771 0)"/>
     <use xlink:href="#NanumGothicCoding-20" transform="translate(899.999756 0)"/>
     <use xlink:href="#NanumGothicCoding-b610" transform="translate(949.999741 0)"/>
     <use xlink:href="#NanumGothicCoding-b294" transform="translate(1049.999725 0)"/>
     <use xlink:href="#NanumGothicCoding-20" transform="translate(1149.99971 0)"/>
     <use xlink:href="#NanumGothicCoding-c784" transform="translate(1199.999695 0)"/>
     <use xlink:href="#NanumGothicCoding-c758" transform="translate(1299.99968 0)"/>
     <use xlink:href="#NanumGothicCoding-c758" transform="translate(1399.999664 0)"/>
     <use xlink:href="#NanumGothicCoding-20" transform="translate(1499.999649 0)"/>
     <use xlink:href="#NanumGothicCoding-bca1" transform="translate(1549.999634 0)"/>
     <use xlink:href="#NanumGothicCoding-d130" transform="translate(1649.999619 0)"/>
    </g>
   </g>
  </g>
 </g>
 <defs>
  <clipPath id="pfba9b1a7cd">
   <rect x="5.76" y="5.76" width="350.424" height="184.0608"/>
  </clipPath>
 </defs>
</svg>
