<?xml version="1.0" encoding="utf-8" standalone="no"?>
<!DOCTYPE svg PUBLIC "-//W3C//DTD SVG 1.1//EN"
  "http://www.w3.org/Graphics/SVG/1.1/DTD/svg11.dtd">
<svg xmlns:xlink="http://www.w3.org/1999/xlink" width="275.169438pt" height="229.439767pt" viewBox="0 0 275.169438 229.439767" xmlns="http://www.w3.org/2000/svg" version="1.1">
 <metadata>
  <rdf:RDF xmlns:dc="http://purl.org/dc/elements/1.1/" xmlns:cc="http://creativecommons.org/ns#" xmlns:rdf="http://www.w3.org/1999/02/22-rdf-syntax-ns#">
   <cc:Work>
    <dc:type rdf:resource="http://purl.org/dc/dcmitype/StillImage"/>
    <dc:date>2026-07-08T05:12:55.551302</dc:date>
    <dc:format>image/svg+xml</dc:format>
    <dc:creator>
     <cc:Agent>
      <dc:title>Matplotlib v3.10.8, https://matplotlib.org/</dc:title>
     </cc:Agent>
    </dc:creator>
   </cc:Work>
  </rdf:RDF>
 </metadata>
 <defs>
  <style type="text/css">*{stroke-linejoin: round; stroke-linecap: butt}</style>
 </defs>
 <g id="figure_1">
  <g id="patch_1">
   <path d="M 0 229.439767 
L 275.169438 229.439767 
L 275.169438 0 
L 0 0 
z
" style="fill: #ffffff"/>
  </g>
  <g id="axes_1">
   <g id="text_1">
    <!-- 가속도 → 속도 → 위치 -->
    <g style="fill: #111827" transform="translate(8.64 20.054062) scale(0.15 -0.15)">
     <defs>
      <path id="NanumGothicBold-ac00" d="M 3379 4102 
Q 3334 3520 3142 2979 
Q 2950 2438 2614 1958 
Q 2278 1478 1804 1062 
Q 1331 646 736 320 
Q 685 294 630 297 
Q 576 301 544 352 
L 288 710 
Q 256 762 269 813 
Q 282 864 326 896 
Q 1280 1402 1869 2144 
Q 2458 2886 2586 3757 
Q 2605 3885 2569 3926 
Q 2534 3968 2419 3968 
L 614 3968 
Q 531 3968 531 4058 
L 531 4506 
Q 531 4582 614 4582 
L 2925 4582 
Q 3213 4582 3305 4464 
Q 3398 4346 3379 4102 
z
M 5971 2202 
Q 5971 2163 5942 2137 
Q 5914 2112 5875 2112 
L 5011 2112 
L 5011 -928 
Q 5011 -1011 4928 -1011 
L 4358 -1011 
Q 4275 -1011 4275 -928 
L 4275 4979 
Q 4275 5062 4358 5062 
L 4928 5062 
Q 5011 5062 5011 4979 
L 5011 2726 
L 5875 2726 
Q 5914 2726 5942 2704 
Q 5971 2682 5971 2650 
L 5971 2202 
z
" transform="scale(0.015625)"/>
      <path id="NanumGothicBold-c18d" d="M 5875 1677 
Q 5875 1645 5843 1613 
Q 5811 1581 5779 1581 
L 211 1581 
Q 173 1581 147 1609 
Q 122 1638 122 1677 
L 122 2099 
Q 122 2138 147 2166 
Q 173 2195 211 2195 
L 2630 2195 
L 2630 2976 
Q 2630 3066 2720 3066 
L 3245 3066 
Q 3283 3066 3312 3040 
Q 3341 3014 3341 2976 
L 3341 2195 
L 5779 2195 
Q 5811 2195 5843 2163 
Q 5875 2131 5875 2099 
L 5875 1677 
z
M 986 2726 
Q 845 2694 813 2765 
L 640 3174 
Q 627 3206 640 3244 
Q 653 3283 698 3296 
Q 1152 3418 1497 3571 
Q 1843 3725 2083 3923 
Q 2323 4122 2457 4378 
Q 2592 4634 2624 4960 
Q 2637 5062 2746 5062 
L 3251 5043 
Q 3341 5043 3341 4954 
Q 3334 4890 3331 4832 
Q 3328 4774 3315 4710 
Q 3418 4467 3626 4249 
Q 3834 4032 4102 3856 
Q 4371 3680 4684 3549 
Q 4998 3418 5312 3341 
Q 5350 3328 5366 3293 
Q 5382 3258 5370 3226 
L 5178 2835 
Q 5146 2746 5030 2765 
Q 4768 2810 4480 2922 
Q 4192 3034 3920 3194 
Q 3648 3354 3414 3552 
Q 3181 3750 3027 3974 
Q 2726 3526 2198 3209 
Q 1670 2893 986 2726 
z
M 5018 -954 
Q 5018 -986 4989 -1014 
Q 4960 -1043 4928 -1043 
L 4371 -1043 
Q 4333 -1043 4304 -1014 
Q 4275 -986 4275 -954 
L 4275 333 
Q 4275 397 4249 416 
Q 4224 435 4160 435 
L 986 435 
Q 954 435 925 457 
Q 896 480 896 512 
L 896 966 
Q 896 1005 925 1024 
Q 954 1043 986 1043 
L 4595 1043 
Q 4858 1043 4938 953 
Q 5018 864 5018 589 
L 5018 -954 
z
" transform="scale(0.015625)"/>
      <path id="NanumGothicBold-b3c4" d="M 5069 1971 
Q 5069 1920 5046 1897 
Q 5024 1875 4992 1875 
L 3373 1875 
L 3373 640 
L 5786 640 
Q 5818 640 5850 608 
Q 5882 576 5882 544 
L 5882 122 
Q 5882 90 5850 58 
Q 5818 26 5786 26 
L 211 26 
Q 173 26 147 58 
Q 122 90 122 122 
L 122 544 
Q 122 582 147 611 
Q 173 640 211 640 
L 2637 640 
L 2637 1875 
L 1446 1875 
Q 1190 1875 1075 2003 
Q 960 2131 960 2355 
L 960 4224 
Q 960 4467 1069 4553 
Q 1178 4640 1421 4640 
L 4934 4640 
Q 5024 4640 5024 4557 
L 5024 4109 
Q 5024 4026 4934 4026 
L 1811 4026 
Q 1696 4026 1696 3917 
L 1696 2598 
Q 1696 2541 1718 2512 
Q 1741 2483 1811 2483 
L 4966 2483 
Q 5018 2483 5043 2470 
Q 5069 2458 5069 2406 
L 5069 1971 
z
" transform="scale(0.015625)"/>
      <path id="NanumGothicBold-20" transform="scale(0.015625)"/>
      <path id="NanumGothicBold-2192" d="M 5882 1920 
L 4672 838 
L 4928 1722 
L 134 1722 
L 134 2118 
L 4928 2118 
L 4672 3002 
L 5882 1920 
z
" transform="scale(0.015625)"/>
      <path id="NanumGothicBold-c704" d="M 2157 4768 
Q 2496 4768 2781 4675 
Q 3066 4582 3270 4416 
Q 3475 4250 3590 4022 
Q 3706 3795 3706 3520 
Q 3706 3238 3590 3008 
Q 3475 2778 3270 2611 
Q 3066 2445 2781 2352 
Q 2496 2259 2157 2259 
Q 1818 2259 1536 2352 
Q 1254 2445 1046 2611 
Q 838 2778 723 3008 
Q 608 3238 608 3520 
Q 608 3795 723 4022 
Q 838 4250 1046 4416 
Q 1254 4582 1536 4675 
Q 1818 4768 2157 4768 
z
M 5280 -928 
Q 5280 -1011 5190 -1011 
L 4627 -1011 
Q 4595 -1011 4566 -988 
Q 4538 -966 4538 -928 
L 4538 4979 
Q 4538 5011 4566 5036 
Q 4595 5062 4627 5062 
L 5190 5062 
Q 5280 5062 5280 4979 
L 5280 -928 
z
M 211 1632 
Q 211 1722 307 1722 
Q 762 1709 1267 1712 
Q 1773 1715 2275 1734 
Q 2778 1754 3251 1789 
Q 3725 1824 4122 1882 
Q 4154 1888 4195 1875 
Q 4237 1862 4243 1811 
L 4282 1402 
Q 4288 1350 4259 1324 
Q 4230 1299 4198 1293 
Q 3872 1242 3456 1203 
Q 3040 1165 2573 1139 
L 2573 -710 
Q 2573 -755 2544 -784 
Q 2515 -813 2477 -813 
L 1952 -813 
Q 1850 -813 1850 -710 
L 1850 1114 
Q 1446 1101 1049 1094 
Q 653 1088 307 1094 
Q 262 1094 236 1123 
Q 211 1152 211 1190 
L 211 1632 
z
M 2157 4166 
Q 1997 4166 1846 4118 
Q 1696 4070 1581 3984 
Q 1466 3898 1395 3776 
Q 1325 3654 1325 3507 
Q 1325 3354 1395 3232 
Q 1466 3110 1581 3020 
Q 1696 2931 1846 2883 
Q 1997 2835 2157 2835 
Q 2330 2835 2483 2883 
Q 2637 2931 2752 3020 
Q 2867 3110 2934 3232 
Q 3002 3354 3002 3507 
Q 3002 3654 2934 3776 
Q 2867 3898 2752 3984 
Q 2637 4070 2483 4118 
Q 2330 4166 2157 4166 
z
" transform="scale(0.015625)"/>
      <path id="NanumGothicBold-ce58" d="M 710 378 
Q 659 352 604 355 
Q 550 358 518 403 
L 320 710 
Q 275 781 297 841 
Q 320 902 365 922 
Q 717 1114 1043 1344 
Q 1370 1574 1645 1836 
Q 1920 2099 2128 2384 
Q 2336 2669 2458 2970 
Q 2496 3059 2502 3100 
Q 2509 3142 2355 3142 
L 710 3142 
Q 672 3142 646 3174 
Q 621 3206 621 3245 
L 621 3667 
Q 621 3706 649 3731 
Q 678 3757 717 3757 
L 2874 3757 
Q 3149 3757 3257 3654 
Q 3366 3552 3366 3437 
Q 3366 3283 3309 3110 
Q 3200 2842 3069 2592 
Q 2938 2342 2771 2106 
Q 2893 1971 3037 1833 
Q 3181 1696 3334 1568 
Q 3488 1440 3641 1325 
Q 3795 1210 3930 1120 
Q 3981 1088 3974 1040 
Q 3968 992 3936 941 
L 3693 602 
Q 3667 563 3616 556 
Q 3565 550 3501 595 
Q 3386 666 3235 781 
Q 3085 896 2931 1033 
Q 2778 1171 2627 1318 
Q 2477 1466 2362 1600 
Q 1702 890 710 378 
z
M 5280 -928 
Q 5280 -1011 5190 -1011 
L 4627 -1011 
Q 4595 -1011 4566 -988 
Q 4538 -966 4538 -928 
L 4538 4979 
Q 4538 5011 4566 5036 
Q 4595 5062 4627 5062 
L 5190 5062 
Q 5280 5062 5280 4979 
L 5280 -928 
z
M 2970 4294 
Q 2970 4256 2938 4224 
Q 2906 4192 2861 4192 
L 1197 4192 
Q 1171 4192 1136 4217 
Q 1101 4243 1101 4288 
L 1101 4678 
Q 1101 4723 1136 4748 
Q 1171 4774 1197 4774 
L 2861 4774 
Q 2899 4774 2934 4742 
Q 2970 4710 2970 4672 
L 2970 4294 
z
" transform="scale(0.015625)"/>
     </defs>
     <use xlink:href="#NanumGothicBold-ac00"/>
     <use xlink:href="#NanumGothicBold-c18d" transform="translate(93.999985 0)"/>
     <use xlink:href="#NanumGothicBold-b3c4" transform="translate(187.999969 0)"/>
     <use xlink:href="#NanumGothicBold-20" transform="translate(281.999954 0)"/>
     <use xlink:href="#NanumGothicBold-2192" transform="translate(309.999939 0)"/>
     <use xlink:href="#NanumGothicBold-20" transform="translate(403.999924 0)"/>
     <use xlink:href="#NanumGothicBold-c18d" transform="translate(431.999908 0)"/>
     <use xlink:href="#NanumGothicBold-b3c4" transform="translate(525.999893 0)"/>
     <use xlink:href="#NanumGothicBold-20" transform="translate(619.999878 0)"/>
     <use xlink:href="#NanumGothicBold-2192" transform="translate(647.999863 0)"/>
     <use xlink:href="#NanumGothicBold-20" transform="translate(741.999847 0)"/>
     <use xlink:href="#NanumGothicBold-c704" transform="translate(769.999832 0)"/>
     <use xlink:href="#NanumGothicBold-ce58" transform="translate(863.999817 0)"/>
    </g>
   </g>
   <g id="text_2">
    <!-- acceleration -->
    <g style="fill: #111827" transform="translate(106.949719 58.394695) scale(0.11 -0.11)">
     <defs>
      <path id="NanumGothicBold-61" d="M 2464 -314 
Q 2419 -314 2406 -304 
Q 2394 -294 2394 -256 
L 2394 32 
Q 2234 -192 1987 -304 
Q 1741 -416 1491 -416 
Q 1229 -416 1008 -345 
Q 787 -275 630 -134 
Q 474 6 384 214 
Q 294 422 294 698 
Q 294 1024 409 1270 
Q 525 1517 771 1680 
Q 1018 1843 1402 1923 
Q 1786 2003 2330 2003 
Q 2330 2125 2304 2246 
Q 2278 2368 2217 2464 
Q 2157 2560 2048 2621 
Q 1939 2682 1773 2682 
Q 1485 2682 1251 2605 
Q 1018 2528 813 2400 
Q 710 2336 675 2342 
Q 640 2349 640 2413 
L 640 2899 
Q 640 2925 637 2953 
Q 634 2982 646 3002 
Q 666 3027 742 3072 
Q 960 3181 1187 3251 
Q 1414 3322 1760 3322 
Q 2406 3322 2716 3008 
Q 3027 2694 3027 2022 
L 3027 506 
Q 3027 326 3030 131 
Q 3034 -64 3053 -211 
Q 3066 -314 2982 -314 
L 2464 -314 
z
M 2349 1395 
Q 1638 1395 1331 1222 
Q 1024 1050 1024 704 
Q 1024 461 1165 339 
Q 1306 218 1542 218 
Q 1907 218 2128 486 
Q 2349 755 2349 1325 
L 2349 1395 
z
" transform="scale(0.015625)"/>
      <path id="NanumGothicBold-63" d="M 2867 -307 
Q 2797 -333 2694 -352 
Q 2592 -371 2473 -384 
Q 2355 -397 2224 -400 
Q 2093 -403 1971 -397 
Q 1568 -371 1257 -220 
Q 947 -70 736 173 
Q 525 416 419 745 
Q 314 1075 314 1459 
Q 314 1862 442 2201 
Q 570 2541 803 2787 
Q 1037 3034 1363 3168 
Q 1690 3302 2093 3302 
Q 2291 3302 2492 3280 
Q 2694 3258 2886 3194 
Q 2912 3187 2925 3168 
Q 2938 3149 2931 3091 
L 2874 2650 
Q 2867 2605 2844 2585 
Q 2822 2566 2765 2579 
Q 2624 2630 2435 2649 
Q 2246 2669 2080 2669 
Q 1562 2669 1293 2336 
Q 1024 2003 1024 1459 
Q 1024 934 1277 614 
Q 1530 294 2010 237 
Q 2451 186 2797 294 
Q 2861 320 2877 301 
Q 2893 282 2899 243 
L 2931 -198 
Q 2938 -250 2928 -272 
Q 2918 -294 2867 -307 
z
" transform="scale(0.015625)"/>
      <path id="NanumGothicBold-65" d="M 3232 1293 
Q 3232 1242 3203 1216 
Q 3174 1190 3142 1190 
L 1037 1190 
Q 1069 762 1305 490 
Q 1542 218 1952 218 
Q 2163 218 2432 272 
Q 2701 326 2925 461 
Q 2970 486 2982 454 
Q 2995 422 2995 371 
L 2995 -70 
Q 2995 -128 2976 -160 
Q 2957 -192 2899 -224 
Q 2707 -326 2448 -371 
Q 2189 -416 1920 -416 
Q 1126 -416 720 61 
Q 314 538 314 1459 
Q 314 1805 403 2137 
Q 493 2470 675 2732 
Q 858 2995 1139 3155 
Q 1421 3315 1805 3315 
Q 2195 3315 2467 3168 
Q 2739 3021 2912 2771 
Q 3085 2522 3161 2189 
Q 3238 1856 3238 1478 
Q 3238 1434 3235 1376 
Q 3232 1318 3232 1293 
z
M 1830 2701 
Q 1658 2701 1523 2624 
Q 1389 2547 1293 2425 
Q 1197 2304 1136 2144 
Q 1075 1984 1050 1824 
L 2515 1824 
Q 2515 1952 2473 2105 
Q 2432 2259 2349 2390 
Q 2266 2522 2138 2611 
Q 2010 2701 1830 2701 
z
" transform="scale(0.015625)"/>
      <path id="NanumGothicBold-6c" d="M 544 -326 
Q 474 -326 474 -250 
L 474 4794 
Q 474 4826 496 4848 
Q 518 4870 550 4870 
L 1088 4870 
Q 1120 4870 1142 4848 
Q 1165 4826 1165 4794 
L 1165 -250 
Q 1165 -282 1142 -304 
Q 1120 -326 1088 -326 
L 544 -326 
z
" transform="scale(0.015625)"/>
      <path id="NanumGothicBold-72" d="M 2240 2579 
Q 2112 2611 2016 2620 
Q 1920 2630 1850 2618 
Q 1658 2579 1539 2454 
Q 1421 2330 1360 2163 
Q 1299 1997 1280 1805 
Q 1261 1613 1261 1440 
L 1261 -224 
Q 1261 -314 1184 -314 
L 653 -314 
Q 582 -314 582 -218 
L 582 2362 
Q 582 2566 576 2771 
Q 570 2976 570 3130 
Q 570 3187 589 3203 
Q 608 3219 653 3219 
L 1184 3219 
Q 1229 3219 1235 3206 
Q 1242 3194 1242 3162 
L 1242 2880 
Q 1286 2957 1360 3033 
Q 1434 3110 1520 3171 
Q 1606 3232 1696 3267 
Q 1786 3302 1862 3302 
Q 1984 3302 2083 3299 
Q 2182 3296 2291 3232 
Q 2323 3219 2329 3190 
Q 2336 3162 2336 3136 
L 2336 2656 
Q 2336 2630 2317 2598 
Q 2298 2566 2240 2579 
z
" transform="scale(0.015625)"/>
      <path id="NanumGothicBold-74" d="M 2278 -262 
Q 2189 -320 1993 -368 
Q 1798 -416 1574 -416 
Q 1306 -416 1146 -304 
Q 986 -192 909 -45 
Q 819 122 800 346 
Q 781 570 781 954 
L 781 2560 
L 250 2560 
Q 218 2560 195 2582 
Q 173 2605 173 2637 
L 173 3142 
Q 173 3174 195 3196 
Q 218 3219 250 3219 
L 781 3219 
L 781 4115 
Q 781 4147 806 4169 
Q 832 4192 864 4192 
L 1382 4192 
Q 1421 4192 1443 4169 
Q 1466 4147 1466 4115 
L 1466 3219 
L 2080 3219 
Q 2112 3219 2134 3196 
Q 2157 3174 2157 3142 
L 2157 2637 
Q 2157 2605 2134 2582 
Q 2112 2560 2080 2560 
L 1466 2560 
L 1466 909 
Q 1466 474 1485 358 
Q 1510 243 1606 217 
Q 1702 192 1824 205 
Q 1907 218 2009 240 
Q 2112 262 2189 294 
Q 2221 307 2233 297 
Q 2246 288 2259 237 
L 2310 -186 
Q 2317 -230 2278 -262 
z
" transform="scale(0.015625)"/>
      <path id="NanumGothicBold-69" d="M 813 3898 
Q 627 3898 502 4022 
Q 378 4147 378 4326 
Q 378 4512 502 4640 
Q 627 4768 813 4768 
Q 998 4768 1126 4640 
Q 1254 4512 1254 4326 
Q 1254 4147 1126 4022 
Q 998 3898 813 3898 
z
M 538 -326 
Q 506 -326 483 -304 
Q 461 -282 461 -250 
L 461 3123 
Q 461 3155 483 3177 
Q 506 3200 538 3200 
L 1075 3200 
Q 1107 3200 1129 3177 
Q 1152 3155 1152 3123 
L 1152 -250 
Q 1152 -282 1129 -304 
Q 1107 -326 1075 -326 
L 538 -326 
z
" transform="scale(0.015625)"/>
      <path id="NanumGothicBold-6f" d="M 3238 173 
Q 3008 -115 2688 -265 
Q 2368 -416 1965 -416 
Q 1555 -416 1241 -269 
Q 928 -122 717 134 
Q 506 390 400 729 
Q 294 1069 294 1453 
Q 294 1837 400 2176 
Q 506 2515 717 2768 
Q 928 3021 1238 3168 
Q 1549 3315 1965 3315 
Q 2374 3315 2688 3168 
Q 3002 3021 3213 2768 
Q 3424 2515 3529 2176 
Q 3635 1837 3635 1453 
Q 3635 1075 3532 745 
Q 3430 416 3238 173 
z
M 1965 2688 
Q 1715 2688 1532 2579 
Q 1350 2470 1235 2294 
Q 1120 2118 1062 1897 
Q 1005 1677 1005 1453 
Q 1005 1229 1062 1008 
Q 1120 787 1235 608 
Q 1350 429 1532 320 
Q 1715 211 1965 211 
Q 2214 211 2396 320 
Q 2579 429 2694 608 
Q 2810 787 2867 1008 
Q 2925 1229 2925 1453 
Q 2925 1670 2867 1891 
Q 2810 2112 2694 2288 
Q 2579 2464 2396 2576 
Q 2214 2688 1965 2688 
z
" transform="scale(0.015625)"/>
      <path id="NanumGothicBold-6e" d="M 2752 -314 
Q 2720 -314 2697 -285 
Q 2675 -256 2675 -224 
L 2675 1811 
Q 2675 2272 2531 2477 
Q 2387 2682 2080 2682 
Q 1658 2682 1456 2448 
Q 1254 2214 1254 1773 
L 1254 -230 
Q 1254 -314 1178 -314 
L 646 -314 
Q 614 -314 592 -285 
Q 570 -256 570 -224 
L 570 2323 
Q 570 2566 566 2790 
Q 563 3014 550 3142 
Q 538 3226 640 3226 
L 1146 3226 
Q 1216 3226 1203 3174 
L 1197 2944 
Q 1357 3098 1581 3206 
Q 1805 3315 2099 3315 
Q 2714 3315 3037 2953 
Q 3360 2592 3360 1907 
L 3360 -230 
Q 3360 -314 3283 -314 
L 2752 -314 
z
" transform="scale(0.015625)"/>
     </defs>
     <use xlink:href="#NanumGothicBold-61"/>
     <use xlink:href="#NanumGothicBold-63" transform="translate(54.499985 0)"/>
     <use xlink:href="#NanumGothicBold-63" transform="translate(102.899979 0)"/>
     <use xlink:href="#NanumGothicBold-65" transform="translate(151.299973 0)"/>
     <use xlink:href="#NanumGothicBold-6c" transform="translate(205.799957 0)"/>
     <use xlink:href="#NanumGothicBold-65" transform="translate(229.999954 0)"/>
     <use xlink:href="#NanumGothicBold-72" transform="translate(284.499939 0)"/>
     <use xlink:href="#NanumGothicBold-61" transform="translate(320.799927 0)"/>
     <use xlink:href="#NanumGothicBold-74" transform="translate(375.299911 0)"/>
     <use xlink:href="#NanumGothicBold-69" transform="translate(411.599899 0)"/>
     <use xlink:href="#NanumGothicBold-6f" transform="translate(435.799896 0)"/>
     <use xlink:href="#NanumGothicBold-6e" transform="translate(496.399887 0)"/>
    </g>
   </g>
   <g id="patch_2">
    <path d="M 137.584719 63.771113 
Q 137.584719 77.459209 137.584719 89.134845 
" clip-path="url(#p23488f3a3c)" style="fill: none; stroke: #6b7280; stroke-width: 1.8; stroke-linecap: round"/>
    <path d="M 140.384719 83.534845 
L 137.584719 89.134845 
L 134.784719 83.534845 
z
" clip-path="url(#p23488f3a3c)" style="fill: #6b7280; stroke: #6b7280; stroke-width: 1.8; stroke-linecap: round"/>
   </g>
   <g id="text_3">
    <!-- velocity -->
    <g style="fill: #111827" transform="translate(118.71886 116.408647) scale(0.11 -0.11)">
     <defs>
      <path id="NanumGothicBold-76" d="M 1920 -250 
Q 1907 -288 1894 -297 
Q 1882 -307 1843 -307 
L 1293 -307 
Q 1254 -307 1238 -297 
Q 1222 -288 1210 -250 
L 45 3149 
Q 32 3181 45 3200 
Q 58 3219 128 3219 
L 685 3219 
Q 717 3219 736 3209 
Q 755 3200 768 3168 
L 1568 755 
L 2362 3168 
Q 2374 3200 2396 3209 
Q 2419 3219 2451 3219 
L 3014 3219 
Q 3085 3219 3097 3200 
Q 3110 3181 3098 3149 
L 1920 -250 
z
" transform="scale(0.015625)"/>
      <path id="NanumGothicBold-79" d="M 1670 -454 
Q 1504 -922 1280 -1114 
Q 1056 -1306 704 -1306 
Q 576 -1306 461 -1293 
Q 346 -1280 269 -1242 
Q 237 -1229 217 -1206 
Q 198 -1184 205 -1146 
L 243 -723 
Q 243 -640 314 -666 
Q 410 -691 493 -700 
Q 576 -710 646 -710 
Q 755 -710 819 -678 
Q 883 -646 922 -595 
Q 941 -557 976 -486 
Q 1011 -416 1049 -329 
Q 1088 -243 1123 -144 
Q 1158 -45 1184 51 
L 90 3155 
Q 58 3232 141 3232 
L 736 3232 
Q 800 3232 813 3200 
L 1523 1082 
L 2246 3200 
Q 2259 3232 2323 3232 
L 2918 3232 
Q 3002 3232 2970 3155 
L 1670 -454 
z
" transform="scale(0.015625)"/>
     </defs>
     <use xlink:href="#NanumGothicBold-76"/>
     <use xlink:href="#NanumGothicBold-65" transform="translate(48.399994 0)"/>
     <use xlink:href="#NanumGothicBold-6c" transform="translate(102.899979 0)"/>
     <use xlink:href="#NanumGothicBold-6f" transform="translate(127.099976 0)"/>
     <use xlink:href="#NanumGothicBold-63" transform="translate(187.699966 0)"/>
     <use xlink:href="#NanumGothicBold-69" transform="translate(236.09996 0)"/>
     <use xlink:href="#NanumGothicBold-74" transform="translate(260.299957 0)"/>
     <use xlink:href="#NanumGothicBold-79" transform="translate(296.599945 0)"/>
    </g>
   </g>
   <g id="patch_3">
    <path d="M 137.584719 121.796236 
Q 137.584719 135.484333 137.584719 147.159968 
" clip-path="url(#p23488f3a3c)" style="fill: none; stroke: #6b7280; stroke-width: 1.8; stroke-linecap: round"/>
    <path d="M 140.384719 141.559968 
L 137.584719 147.159968 
L 134.784719 141.559968 
z
" clip-path="url(#p23488f3a3c)" style="fill: #6b7280; stroke: #6b7280; stroke-width: 1.8; stroke-linecap: round"/>
   </g>
   <g id="text_4">
    <!-- position -->
    <g style="fill: #111827" transform="translate(117.263078 174.444943) scale(0.11 -0.11)">
     <defs>
      <path id="NanumGothicBold-70" d="M 2061 -474 
Q 1805 -474 1568 -365 
Q 1331 -256 1171 -70 
L 1171 -1210 
Q 1171 -1261 1158 -1277 
Q 1146 -1293 1101 -1293 
L 570 -1293 
Q 531 -1293 512 -1277 
Q 493 -1261 493 -1210 
L 493 3130 
Q 493 3232 589 3232 
L 1082 3232 
Q 1171 3232 1171 3130 
L 1171 2899 
Q 1350 3085 1574 3187 
Q 1798 3290 2061 3290 
Q 2406 3290 2678 3158 
Q 2950 3027 3139 2784 
Q 3328 2541 3427 2189 
Q 3526 1837 3526 1395 
Q 3526 966 3424 620 
Q 3322 275 3133 32 
Q 2944 -211 2672 -342 
Q 2400 -474 2061 -474 
z
M 1990 2637 
Q 1824 2637 1677 2557 
Q 1530 2477 1418 2320 
Q 1306 2163 1238 1932 
Q 1171 1702 1171 1402 
Q 1171 774 1395 473 
Q 1619 173 1990 173 
Q 2387 173 2598 493 
Q 2810 813 2810 1402 
Q 2810 2022 2592 2329 
Q 2374 2637 1990 2637 
z
" transform="scale(0.015625)"/>
      <path id="NanumGothicBold-73" d="M 2099 -186 
Q 1754 -416 1280 -416 
Q 1152 -416 1011 -403 
Q 870 -390 739 -371 
Q 608 -352 505 -326 
Q 403 -301 346 -275 
Q 320 -262 291 -240 
Q 262 -218 269 -166 
L 307 250 
Q 314 314 326 326 
Q 339 339 410 320 
Q 621 256 848 227 
Q 1075 198 1254 198 
Q 1536 198 1673 339 
Q 1811 480 1811 666 
Q 1811 768 1740 873 
Q 1670 979 1504 1088 
Q 1331 1190 1145 1296 
Q 960 1402 781 1504 
Q 576 1626 438 1827 
Q 301 2029 301 2272 
Q 301 2541 397 2736 
Q 493 2931 653 3062 
Q 813 3194 1021 3254 
Q 1229 3315 1459 3315 
Q 1581 3315 1712 3302 
Q 1843 3290 1968 3267 
Q 2093 3245 2192 3216 
Q 2291 3187 2342 3155 
Q 2374 3136 2377 3120 
Q 2381 3104 2374 3072 
L 2336 2662 
Q 2330 2592 2304 2582 
Q 2278 2573 2208 2586 
Q 2086 2630 1933 2669 
Q 1843 2682 1744 2694 
Q 1645 2707 1498 2707 
Q 1235 2707 1126 2585 
Q 1018 2464 1018 2291 
Q 1018 2189 1139 2073 
Q 1261 1958 1446 1862 
Q 1645 1766 1814 1664 
Q 1984 1562 2067 1498 
Q 2298 1331 2413 1136 
Q 2528 941 2528 666 
Q 2528 128 2099 -186 
z
" transform="scale(0.015625)"/>
     </defs>
     <use xlink:href="#NanumGothicBold-70"/>
     <use xlink:href="#NanumGothicBold-6f" transform="translate(60.599991 0)"/>
     <use xlink:href="#NanumGothicBold-73" transform="translate(121.199982 0)"/>
     <use xlink:href="#NanumGothicBold-69" transform="translate(163.599976 0)"/>
     <use xlink:href="#NanumGothicBold-74" transform="translate(187.799973 0)"/>
     <use xlink:href="#NanumGothicBold-69" transform="translate(224.09996 0)"/>
     <use xlink:href="#NanumGothicBold-6f" transform="translate(248.299957 0)"/>
     <use xlink:href="#NanumGothicBold-6e" transform="translate(308.899948 0)"/>
    </g>
   </g>
  </g>
 </g>
 <defs>
  <clipPath id="p23488f3a3c">
   <rect x="8.64" y="29.531767" width="257.889438" height="191.268"/>
  </clipPath>
 </defs>
</svg>
