<?xml version="1.0" encoding="utf-8" standalone="no"?>
<!DOCTYPE svg PUBLIC "-//W3C//DTD SVG 1.1//EN"
  "http://www.w3.org/Graphics/SVG/1.1/DTD/svg11.dtd">
<svg xmlns:xlink="http://www.w3.org/1999/xlink" width="419.04pt" height="210.507731pt" viewBox="0 0 419.04 210.507731" xmlns="http://www.w3.org/2000/svg" version="1.1">
 <metadata>
  <rdf:RDF xmlns:dc="http://purl.org/dc/elements/1.1/" xmlns:cc="http://creativecommons.org/ns#" xmlns:rdf="http://www.w3.org/1999/02/22-rdf-syntax-ns#">
   <cc:Work>
    <dc:type rdf:resource="http://purl.org/dc/dcmitype/StillImage"/>
    <dc:date>2026-07-08T05:12:55.053183</dc:date>
    <dc:format>image/svg+xml</dc:format>
    <dc:creator>
     <cc:Agent>
      <dc:title>Matplotlib v3.10.8, https://matplotlib.org/</dc:title>
     </cc:Agent>
    </dc:creator>
   </cc:Work>
  </rdf:RDF>
 </metadata>
 <defs>
  <style type="text/css">*{stroke-linejoin: round; stroke-linecap: butt}</style>
 </defs>
 <g id="figure_1">
  <g id="patch_1">
   <path d="M 0 210.507731 
L 419.04 210.507731 
L 419.04 0 
L 0 0 
z
" style="fill: #ffffff"/>
  </g>
  <g id="axes_1">
   <g id="line2d_1">
    <defs>
     <path id="mb08fcb3bdf" d="M 0 4 
C 1.060812 4 2.078319 3.578535 2.828427 2.828427 
C 3.578535 2.078319 4 1.060812 4 0 
C 4 -1.060812 3.578535 -2.078319 2.828427 -2.828427 
C 2.078319 -3.578535 1.060812 -4 0 -4 
C -1.060812 -4 -2.078319 -3.578535 -2.828427 -2.828427 
C -3.578535 -2.078319 -4 -1.060812 -4 0 
C -4 1.060812 -3.578535 2.078319 -2.828427 2.828427 
C -2.078319 3.578535 -1.060812 4 0 4 
z
" style="stroke: #2563eb"/>
    </defs>
    <g clip-path="url(#pba5004e5f4)">
     <use xlink:href="#mb08fcb3bdf" x="88.992" y="129.550931" style="fill: #2563eb; stroke: #2563eb"/>
    </g>
   </g>
   <g id="line2d_2">
    <defs>
     <path id="m6da3a1c4b7" d="M 0 4 
C 1.060812 4 2.078319 3.578535 2.828427 2.828427 
C 3.578535 2.078319 4 1.060812 4 0 
C 4 -1.060812 3.578535 -2.078319 2.828427 -2.828427 
C 2.078319 -3.578535 1.060812 -4 0 -4 
C -1.060812 -4 -2.078319 -3.578535 -2.828427 -2.828427 
C -3.578535 -2.078319 -4 -1.060812 -4 0 
C -4 1.060812 -3.578535 2.078319 -2.828427 2.828427 
C -2.078319 3.578535 -1.060812 4 0 4 
z
" style="stroke: #f59e0b"/>
    </defs>
    <g clip-path="url(#pba5004e5f4)">
     <use xlink:href="#m6da3a1c4b7" x="330.048" y="89.374931" style="fill: #f59e0b; stroke: #f59e0b"/>
    </g>
   </g>
   <g id="text_1">
    <!-- atan2: 이 방향 벡터의 각도를 구하기 -->
    <g style="fill: #111827" transform="translate(8.64 20.054063) scale(0.15 -0.15)">
     <defs>
      <path id="NanumGothicBold-61" d="M 2464 -314 
Q 2419 -314 2406 -304 
Q 2394 -294 2394 -256 
L 2394 32 
Q 2234 -192 1987 -304 
Q 1741 -416 1491 -416 
Q 1229 -416 1008 -345 
Q 787 -275 630 -134 
Q 474 6 384 214 
Q 294 422 294 698 
Q 294 1024 409 1270 
Q 525 1517 771 1680 
Q 1018 1843 1402 1923 
Q 1786 2003 2330 2003 
Q 2330 2125 2304 2246 
Q 2278 2368 2217 2464 
Q 2157 2560 2048 2621 
Q 1939 2682 1773 2682 
Q 1485 2682 1251 2605 
Q 1018 2528 813 2400 
Q 710 2336 675 2342 
Q 640 2349 640 2413 
L 640 2899 
Q 640 2925 637 2953 
Q 634 2982 646 3002 
Q 666 3027 742 3072 
Q 960 3181 1187 3251 
Q 1414 3322 1760 3322 
Q 2406 3322 2716 3008 
Q 3027 2694 3027 2022 
L 3027 506 
Q 3027 326 3030 131 
Q 3034 -64 3053 -211 
Q 3066 -314 2982 -314 
L 2464 -314 
z
M 2349 1395 
Q 1638 1395 1331 1222 
Q 1024 1050 1024 704 
Q 1024 461 1165 339 
Q 1306 218 1542 218 
Q 1907 218 2128 486 
Q 2349 755 2349 1325 
L 2349 1395 
z
" transform="scale(0.015625)"/>
      <path id="NanumGothicBold-74" d="M 2278 -262 
Q 2189 -320 1993 -368 
Q 1798 -416 1574 -416 
Q 1306 -416 1146 -304 
Q 986 -192 909 -45 
Q 819 122 800 346 
Q 781 570 781 954 
L 781 2560 
L 250 2560 
Q 218 2560 195 2582 
Q 173 2605 173 2637 
L 173 3142 
Q 173 3174 195 3196 
Q 218 3219 250 3219 
L 781 3219 
L 781 4115 
Q 781 4147 806 4169 
Q 832 4192 864 4192 
L 1382 4192 
Q 1421 4192 1443 4169 
Q 1466 4147 1466 4115 
L 1466 3219 
L 2080 3219 
Q 2112 3219 2134 3196 
Q 2157 3174 2157 3142 
L 2157 2637 
Q 2157 2605 2134 2582 
Q 2112 2560 2080 2560 
L 1466 2560 
L 1466 909 
Q 1466 474 1485 358 
Q 1510 243 1606 217 
Q 1702 192 1824 205 
Q 1907 218 2009 240 
Q 2112 262 2189 294 
Q 2221 307 2233 297 
Q 2246 288 2259 237 
L 2310 -186 
Q 2317 -230 2278 -262 
z
" transform="scale(0.015625)"/>
      <path id="NanumGothicBold-6e" d="M 2752 -314 
Q 2720 -314 2697 -285 
Q 2675 -256 2675 -224 
L 2675 1811 
Q 2675 2272 2531 2477 
Q 2387 2682 2080 2682 
Q 1658 2682 1456 2448 
Q 1254 2214 1254 1773 
L 1254 -230 
Q 1254 -314 1178 -314 
L 646 -314 
Q 614 -314 592 -285 
Q 570 -256 570 -224 
L 570 2323 
Q 570 2566 566 2790 
Q 563 3014 550 3142 
Q 538 3226 640 3226 
L 1146 3226 
Q 1216 3226 1203 3174 
L 1197 2944 
Q 1357 3098 1581 3206 
Q 1805 3315 2099 3315 
Q 2714 3315 3037 2953 
Q 3360 2592 3360 1907 
L 3360 -230 
Q 3360 -314 3283 -314 
L 2752 -314 
z
" transform="scale(0.015625)"/>
      <path id="NanumGothicBold-32" d="M 486 -352 
Q 365 -352 365 -269 
L 365 96 
Q 365 147 393 198 
Q 422 250 461 301 
L 1434 1453 
Q 1965 2086 2221 2508 
Q 2477 2931 2477 3200 
Q 2477 3507 2288 3705 
Q 2099 3904 1824 3904 
Q 1562 3904 1315 3830 
Q 1069 3757 781 3590 
Q 730 3558 678 3561 
Q 627 3565 614 3622 
L 525 4109 
Q 512 4141 531 4173 
Q 550 4205 614 4243 
Q 858 4371 1171 4473 
Q 1485 4576 1786 4576 
Q 2093 4576 2352 4489 
Q 2611 4403 2800 4233 
Q 2989 4064 3097 3808 
Q 3206 3552 3206 3219 
Q 3206 2931 3078 2633 
Q 2950 2336 2758 2051 
Q 2566 1766 2348 1507 
Q 2131 1248 1952 1037 
Q 1811 864 1654 675 
Q 1498 486 1338 307 
L 3213 307 
Q 3302 307 3302 205 
L 3302 -243 
Q 3302 -352 3213 -352 
L 486 -352 
z
" transform="scale(0.015625)"/>
      <path id="NanumGothicBold-3a" d="M 1011 3053 
Q 806 3053 662 3197 
Q 518 3341 518 3533 
Q 518 3731 662 3875 
Q 806 4019 1011 4019 
Q 1216 4019 1357 3875 
Q 1498 3731 1498 3533 
Q 1498 3341 1357 3197 
Q 1216 3053 1011 3053 
z
M 1011 141 
Q 806 141 662 285 
Q 518 429 518 627 
Q 518 819 662 963 
Q 806 1107 1011 1107 
Q 1216 1107 1357 963 
Q 1498 819 1498 627 
Q 1498 429 1357 285 
Q 1216 141 1011 141 
z
" transform="scale(0.015625)"/>
      <path id="NanumGothicBold-20" transform="scale(0.015625)"/>
      <path id="NanumGothicBold-c774" d="M 5274 -928 
Q 5274 -1011 5190 -1011 
L 4621 -1011 
Q 4538 -1011 4538 -928 
L 4538 4979 
Q 4538 5062 4621 5062 
L 5190 5062 
Q 5274 5062 5274 4979 
L 5274 -928 
z
M 2963 2573 
Q 2963 2867 2905 3132 
Q 2848 3398 2739 3596 
Q 2630 3795 2473 3910 
Q 2317 4026 2112 4026 
Q 1907 4026 1750 3910 
Q 1594 3795 1485 3596 
Q 1376 3398 1318 3132 
Q 1261 2867 1261 2573 
Q 1261 2285 1318 2019 
Q 1376 1754 1485 1552 
Q 1594 1350 1750 1232 
Q 1907 1114 2112 1114 
Q 2317 1114 2473 1232 
Q 2630 1350 2739 1552 
Q 2848 1754 2905 2019 
Q 2963 2285 2963 2573 
z
M 2112 461 
Q 1747 461 1452 614 
Q 1158 768 956 1046 
Q 755 1325 646 1715 
Q 538 2106 538 2573 
Q 538 3053 646 3443 
Q 755 3834 956 4106 
Q 1158 4378 1452 4528 
Q 1747 4678 2112 4678 
Q 2483 4678 2774 4528 
Q 3066 4378 3267 4106 
Q 3469 3834 3577 3443 
Q 3686 3053 3686 2573 
Q 3686 2093 3577 1702 
Q 3469 1312 3267 1037 
Q 3066 762 2774 611 
Q 2483 461 2112 461 
z
" transform="scale(0.015625)"/>
      <path id="NanumGothicBold-bc29" d="M 4307 186 
Q 4307 346 4214 464 
Q 4122 582 3965 665 
Q 3808 749 3600 790 
Q 3392 832 3155 832 
Q 2643 832 2329 669 
Q 2016 506 2016 186 
Q 2016 -115 2336 -272 
Q 2656 -429 3155 -429 
Q 3392 -429 3600 -390 
Q 3808 -352 3965 -275 
Q 4122 -198 4214 -83 
Q 4307 32 4307 186 
z
M 5062 205 
Q 5062 -64 4918 -288 
Q 4774 -512 4521 -672 
Q 4269 -832 3917 -921 
Q 3565 -1011 3155 -1011 
Q 2714 -1011 2365 -924 
Q 2016 -838 1769 -678 
Q 1523 -518 1392 -294 
Q 1261 -70 1261 205 
Q 1261 474 1392 698 
Q 1523 922 1769 1078 
Q 2016 1235 2365 1324 
Q 2714 1414 3155 1414 
Q 3565 1414 3917 1328 
Q 4269 1242 4521 1082 
Q 4774 922 4918 701 
Q 5062 480 5062 205 
z
M 5965 2963 
Q 5965 2931 5936 2905 
Q 5907 2880 5875 2880 
L 5005 2880 
L 5005 1594 
Q 5005 1562 4979 1533 
Q 4954 1504 4922 1504 
L 4352 1504 
Q 4320 1504 4294 1533 
Q 4269 1562 4269 1600 
L 4269 4979 
Q 4269 5062 4352 5062 
L 4922 5062 
Q 5005 5062 5005 4979 
L 5005 3488 
L 5875 3488 
Q 5907 3488 5936 3465 
Q 5965 3443 5965 3411 
L 5965 2963 
z
M 2688 3309 
L 1331 3309 
L 1331 2662 
Q 1331 2554 1446 2554 
L 2573 2554 
Q 2688 2554 2688 2662 
L 2688 3309 
z
M 3418 2381 
Q 3418 2163 3315 2057 
Q 3213 1952 2938 1952 
L 1088 1952 
Q 806 1952 704 2048 
Q 602 2144 602 2400 
L 602 4774 
Q 602 4858 685 4858 
L 1242 4858 
Q 1274 4858 1302 4832 
Q 1331 4806 1331 4774 
L 1331 3904 
L 2688 3904 
L 2688 4781 
Q 2688 4819 2713 4844 
Q 2739 4870 2771 4870 
L 3334 4870 
Q 3366 4870 3392 4844 
Q 3418 4819 3418 4781 
L 3418 2381 
z
" transform="scale(0.015625)"/>
      <path id="NanumGothicBold-d5a5" d="M 5069 77 
Q 5069 -160 4925 -358 
Q 4781 -557 4528 -697 
Q 4275 -838 3923 -915 
Q 3571 -992 3155 -992 
Q 2720 -992 2368 -915 
Q 2016 -838 1769 -697 
Q 1523 -557 1392 -358 
Q 1261 -160 1261 77 
Q 1261 314 1392 506 
Q 1523 698 1769 838 
Q 2016 979 2368 1056 
Q 2720 1133 3155 1133 
Q 3571 1133 3923 1056 
Q 4275 979 4528 838 
Q 4781 698 4925 506 
Q 5069 314 5069 77 
z
M 2118 3456 
Q 2413 3456 2665 3379 
Q 2918 3302 3104 3164 
Q 3290 3027 3395 2828 
Q 3501 2630 3501 2394 
Q 3501 2150 3395 1952 
Q 3290 1754 3101 1616 
Q 2912 1478 2659 1401 
Q 2406 1325 2112 1325 
Q 1824 1325 1574 1401 
Q 1325 1478 1139 1616 
Q 954 1754 848 1952 
Q 742 2150 742 2394 
Q 742 2630 848 2828 
Q 954 3027 1139 3164 
Q 1325 3302 1577 3379 
Q 1830 3456 2118 3456 
z
M 5875 2650 
Q 5914 2650 5942 2627 
Q 5971 2605 5971 2573 
L 5971 2118 
Q 5971 2086 5942 2060 
Q 5914 2035 5875 2035 
L 5011 2035 
L 5011 1318 
Q 5011 1235 4928 1235 
L 4358 1235 
Q 4275 1235 4275 1325 
L 4275 4979 
Q 4275 5062 4358 5062 
L 4928 5062 
Q 5011 5062 5011 4979 
L 5011 3821 
L 5875 3821 
Q 5914 3821 5942 3798 
Q 5971 3776 5971 3744 
L 5971 3296 
Q 5971 3264 5942 3238 
Q 5914 3213 5875 3213 
L 5011 3213 
L 5011 2650 
L 5875 2650 
z
M 3878 3738 
Q 3878 3699 3849 3670 
Q 3821 3642 3782 3642 
L 352 3642 
Q 314 3642 282 3674 
Q 250 3706 250 3744 
L 250 4102 
Q 250 4134 285 4169 
Q 320 4205 358 4205 
L 3782 4205 
Q 3821 4205 3849 4173 
Q 3878 4141 3878 4102 
L 3878 3738 
z
M 4314 58 
Q 4314 186 4221 285 
Q 4128 384 3968 451 
Q 3808 518 3600 550 
Q 3392 582 3155 582 
Q 2643 582 2332 451 
Q 2022 320 2022 58 
Q 2022 -192 2339 -313 
Q 2656 -435 3155 -435 
Q 3392 -435 3600 -406 
Q 3808 -378 3968 -314 
Q 4128 -250 4221 -160 
Q 4314 -70 4314 58 
z
M 2118 2899 
Q 1830 2899 1632 2761 
Q 1434 2624 1434 2394 
Q 1434 2157 1632 2019 
Q 1830 1882 2118 1882 
Q 2413 1882 2608 2019 
Q 2803 2157 2803 2394 
Q 2803 2624 2608 2761 
Q 2413 2899 2118 2899 
z
M 3046 4544 
Q 3046 4506 3017 4470 
Q 2989 4435 2938 4435 
L 1229 4435 
Q 1203 4435 1168 4460 
Q 1133 4486 1133 4538 
L 1133 4902 
Q 1133 4947 1168 4972 
Q 1203 4998 1229 4998 
L 2938 4998 
Q 2982 4998 3014 4966 
Q 3046 4934 3046 4896 
L 3046 4544 
z
" transform="scale(0.015625)"/>
      <path id="NanumGothicBold-bca1" d="M 2970 2362 
Q 2970 2144 2867 2038 
Q 2765 1933 2483 1933 
L 934 1933 
Q 646 1933 544 2029 
Q 442 2125 442 2381 
L 442 4691 
Q 442 4723 467 4745 
Q 493 4768 525 4768 
L 1062 4768 
Q 1094 4768 1123 4745 
Q 1152 4723 1152 4691 
L 1152 3846 
L 2259 3846 
L 2259 4698 
Q 2259 4730 2284 4755 
Q 2310 4781 2342 4781 
L 2886 4781 
Q 2918 4781 2944 4755 
Q 2970 4730 2970 4698 
L 2970 3616 
L 3616 3616 
L 3616 4877 
Q 3616 4960 3706 4960 
L 4230 4960 
Q 4314 4960 4314 4877 
L 4314 1670 
Q 4314 1587 4230 1587 
L 3706 1587 
Q 3616 1587 3616 1670 
L 3616 3002 
L 2970 3002 
L 2970 2362 
z
M 5549 -909 
Q 5549 -941 5520 -969 
Q 5491 -998 5459 -998 
L 4909 -998 
Q 4870 -998 4841 -969 
Q 4813 -941 4813 -909 
L 4813 499 
Q 4813 570 4784 589 
Q 4755 608 4691 608 
L 1504 608 
Q 1472 608 1443 630 
Q 1414 653 1414 685 
L 1414 1139 
Q 1414 1178 1443 1200 
Q 1472 1222 1504 1222 
L 5126 1222 
Q 5370 1222 5459 1120 
Q 5549 1018 5549 774 
L 5549 -909 
z
M 4826 4979 
Q 4826 5062 4915 5062 
L 5466 5062 
Q 5549 5062 5549 4979 
L 5549 1626 
Q 5549 1594 5523 1565 
Q 5498 1536 5466 1536 
L 4909 1536 
Q 4877 1536 4851 1565 
Q 4826 1594 4826 1626 
L 4826 4979 
z
M 2259 3258 
L 1152 3258 
L 1152 2637 
Q 1152 2528 1274 2528 
L 2138 2528 
Q 2259 2528 2259 2637 
L 2259 3258 
z
" transform="scale(0.015625)"/>
      <path id="NanumGothicBold-d130" d="M 3776 922 
Q 3789 851 3760 825 
Q 3731 800 3699 787 
Q 3488 723 3149 672 
Q 2810 621 2432 592 
Q 2054 563 1686 556 
Q 1318 550 1050 576 
Q 589 614 589 1037 
L 589 4179 
Q 589 4403 681 4492 
Q 774 4582 1018 4582 
L 3136 4582 
Q 3232 4582 3232 4499 
L 3232 4051 
Q 3232 3968 3136 3968 
L 1440 3968 
Q 1325 3968 1325 3859 
L 1325 2957 
Q 1530 2957 1750 2957 
Q 1971 2957 2188 2960 
Q 2406 2963 2608 2969 
Q 2810 2976 2976 2989 
Q 3002 2989 3027 2976 
Q 3053 2963 3053 2931 
L 3059 2490 
Q 3059 2438 3040 2409 
Q 3021 2381 3002 2381 
Q 2822 2368 2611 2358 
Q 2400 2349 2179 2342 
Q 1958 2336 1740 2336 
Q 1523 2336 1325 2336 
L 1325 1357 
Q 1325 1254 1360 1219 
Q 1395 1184 1510 1178 
Q 1709 1165 1955 1168 
Q 2202 1171 2470 1193 
Q 2739 1216 3027 1251 
Q 3315 1286 3597 1344 
Q 3693 1363 3712 1274 
L 3776 922 
z
M 4640 4979 
Q 4640 5062 4723 5062 
L 5293 5062 
Q 5376 5062 5376 4979 
L 5376 -928 
Q 5376 -1011 5293 -1011 
L 4723 -1011 
Q 4640 -1011 4640 -928 
L 4640 2426 
L 3654 2426 
Q 3629 2426 3593 2451 
Q 3558 2477 3558 2528 
L 3558 2944 
Q 3558 2989 3593 3014 
Q 3629 3040 3654 3040 
L 4640 3040 
L 4640 4979 
z
" transform="scale(0.015625)"/>
      <path id="NanumGothicBold-c758" d="M 5280 -928 
Q 5280 -1011 5190 -1011 
L 4627 -1011 
Q 4595 -1011 4566 -988 
Q 4538 -966 4538 -928 
L 4538 4979 
Q 4538 5011 4566 5036 
Q 4595 5062 4627 5062 
L 5190 5062 
Q 5280 5062 5280 4979 
L 5280 -928 
z
M 2144 4083 
Q 1779 4083 1542 3846 
Q 1306 3610 1306 3206 
Q 1306 2797 1542 2560 
Q 1779 2323 2144 2323 
Q 2522 2323 2758 2560 
Q 2995 2797 2995 3206 
Q 2995 3610 2758 3846 
Q 2522 4083 2144 4083 
z
M 2144 4691 
Q 2470 4691 2755 4585 
Q 3040 4480 3251 4285 
Q 3462 4090 3584 3814 
Q 3706 3539 3706 3206 
Q 3706 2867 3584 2595 
Q 3462 2323 3251 2134 
Q 3040 1946 2755 1843 
Q 2470 1741 2138 1741 
Q 1811 1741 1529 1843 
Q 1248 1946 1040 2134 
Q 832 2323 710 2595 
Q 589 2867 589 3206 
Q 589 3539 710 3814 
Q 832 4090 1040 4285 
Q 1248 4480 1533 4585 
Q 1818 4691 2144 4691 
z
M 211 819 
Q 211 858 236 886 
Q 262 915 307 915 
Q 762 902 1267 915 
Q 1773 928 2275 953 
Q 2778 979 3251 1020 
Q 3725 1062 4122 1114 
Q 4154 1120 4195 1110 
Q 4237 1101 4243 1050 
L 4282 634 
Q 4288 582 4259 553 
Q 4230 525 4198 518 
Q 3840 467 3360 422 
Q 2880 378 2352 346 
Q 1824 314 1293 298 
Q 762 282 307 288 
Q 262 288 236 317 
Q 211 346 211 384 
L 211 819 
z
" transform="scale(0.015625)"/>
      <path id="NanumGothicBold-ac01" d="M 5005 -909 
Q 5005 -941 4976 -969 
Q 4947 -998 4909 -998 
L 4365 -998 
Q 4326 -998 4294 -969 
Q 4262 -941 4262 -909 
L 4262 544 
Q 4262 614 4236 633 
Q 4211 653 4147 653 
L 1254 653 
Q 1222 653 1193 675 
Q 1165 698 1165 730 
L 1165 1184 
Q 1165 1229 1193 1248 
Q 1222 1267 1254 1267 
L 4576 1267 
Q 4819 1267 4912 1164 
Q 5005 1062 5005 819 
L 5005 -909 
z
M 5971 2995 
Q 5971 2963 5942 2937 
Q 5914 2912 5875 2912 
L 5011 2912 
L 5011 1670 
Q 5011 1587 4922 1587 
L 4358 1587 
Q 4326 1587 4297 1612 
Q 4269 1638 4269 1677 
L 4269 4979 
Q 4269 5011 4297 5036 
Q 4326 5062 4358 5062 
L 4922 5062 
Q 5011 5062 5011 4979 
L 5011 3526 
L 5875 3526 
Q 5914 3526 5942 3500 
Q 5971 3475 5971 3443 
L 5971 2995 
z
M 723 1523 
Q 570 1459 518 1581 
L 352 1914 
Q 326 1965 336 2016 
Q 346 2067 416 2099 
Q 1203 2438 1740 2918 
Q 2278 3398 2458 3981 
Q 2490 4083 2486 4124 
Q 2483 4166 2368 4166 
L 627 4166 
Q 589 4166 566 4195 
Q 544 4224 544 4262 
L 544 4685 
Q 544 4774 634 4774 
L 2803 4774 
Q 3085 4774 3200 4684 
Q 3315 4595 3315 4390 
Q 3315 4365 3305 4317 
Q 3296 4269 3286 4217 
Q 3277 4166 3267 4124 
Q 3258 4083 3251 4064 
Q 3008 3187 2371 2563 
Q 1734 1939 723 1523 
z
" transform="scale(0.015625)"/>
      <path id="NanumGothicBold-b3c4" d="M 5069 1971 
Q 5069 1920 5046 1897 
Q 5024 1875 4992 1875 
L 3373 1875 
L 3373 640 
L 5786 640 
Q 5818 640 5850 608 
Q 5882 576 5882 544 
L 5882 122 
Q 5882 90 5850 58 
Q 5818 26 5786 26 
L 211 26 
Q 173 26 147 58 
Q 122 90 122 122 
L 122 544 
Q 122 582 147 611 
Q 173 640 211 640 
L 2637 640 
L 2637 1875 
L 1446 1875 
Q 1190 1875 1075 2003 
Q 960 2131 960 2355 
L 960 4224 
Q 960 4467 1069 4553 
Q 1178 4640 1421 4640 
L 4934 4640 
Q 5024 4640 5024 4557 
L 5024 4109 
Q 5024 4026 4934 4026 
L 1811 4026 
Q 1696 4026 1696 3917 
L 1696 2598 
Q 1696 2541 1718 2512 
Q 1741 2483 1811 2483 
L 4966 2483 
Q 5018 2483 5043 2470 
Q 5069 2458 5069 2406 
L 5069 1971 
z
" transform="scale(0.015625)"/>
      <path id="NanumGothicBold-b97c" d="M 5088 -870 
Q 5088 -902 5059 -931 
Q 5030 -960 5005 -960 
L 1478 -960 
Q 1229 -960 1139 -870 
Q 1050 -781 1050 -576 
L 1050 109 
Q 1050 314 1136 403 
Q 1222 493 1472 493 
L 4160 493 
Q 4211 493 4224 502 
Q 4237 512 4237 570 
L 4237 749 
Q 4237 819 4224 832 
Q 4211 845 4154 845 
L 1126 845 
Q 1094 845 1065 867 
Q 1037 890 1037 922 
L 1037 1331 
Q 1037 1363 1065 1388 
Q 1094 1414 1126 1414 
L 4518 1414 
Q 4781 1414 4867 1334 
Q 4954 1254 4954 1037 
L 4954 346 
Q 4954 122 4867 45 
Q 4781 -32 4518 -32 
L 1850 -32 
Q 1798 -32 1785 -48 
Q 1773 -64 1773 -122 
L 1773 -314 
Q 1773 -378 1785 -387 
Q 1798 -397 1862 -397 
L 4998 -397 
Q 5030 -397 5059 -419 
Q 5088 -442 5088 -480 
L 5088 -870 
z
M 5050 2829 
Q 5050 2797 5021 2768 
Q 4992 2739 4966 2739 
L 1498 2739 
Q 1248 2739 1158 2828 
Q 1069 2918 1069 3123 
L 1069 3782 
Q 1069 3987 1155 4076 
Q 1242 4166 1491 4166 
L 4154 4166 
Q 4205 4166 4217 4182 
Q 4230 4198 4230 4262 
L 4230 4454 
Q 4230 4512 4217 4521 
Q 4205 4531 4147 4531 
L 1184 4531 
Q 1152 4531 1123 4553 
Q 1094 4576 1094 4608 
L 1094 5011 
Q 1094 5043 1123 5068 
Q 1152 5094 1184 5094 
L 4512 5094 
Q 4774 5094 4860 5014 
Q 4947 4934 4947 4717 
L 4947 4019 
Q 4947 3795 4860 3718 
Q 4774 3642 4512 3642 
L 1875 3642 
Q 1818 3642 1805 3626 
Q 1792 3610 1792 3558 
L 1792 3386 
Q 1792 3328 1805 3318 
Q 1818 3309 1882 3309 
L 4960 3309 
Q 4992 3309 5021 3286 
Q 5050 3264 5050 3226 
L 5050 2829 
z
M 5875 1882 
Q 5875 1850 5843 1818 
Q 5811 1786 5779 1786 
L 211 1786 
Q 173 1786 147 1814 
Q 122 1843 122 1882 
L 122 2272 
Q 122 2362 211 2362 
L 5779 2362 
Q 5811 2362 5843 2333 
Q 5875 2304 5875 2272 
L 5875 1882 
z
" transform="scale(0.015625)"/>
      <path id="NanumGothicBold-ad6c" d="M 5018 4422 
Q 5018 3802 4954 3264 
Q 4890 2726 4774 2234 
L 5786 2234 
Q 5818 2234 5850 2202 
Q 5882 2170 5882 2138 
L 5882 1715 
Q 5882 1683 5850 1651 
Q 5818 1619 5786 1619 
L 3315 1619 
L 3315 -877 
Q 3315 -966 3226 -966 
L 2669 -966 
Q 2579 -966 2579 -877 
L 2579 1619 
L 211 1619 
Q 173 1619 147 1651 
Q 122 1683 122 1715 
L 122 2138 
Q 122 2176 147 2205 
Q 173 2234 211 2234 
L 4070 2234 
Q 4160 2624 4224 3126 
Q 4288 3629 4288 4128 
Q 4288 4218 4243 4240 
Q 4198 4262 4109 4262 
L 1024 4262 
Q 992 4262 960 4284 
Q 928 4307 928 4339 
L 928 4800 
Q 928 4838 960 4857 
Q 992 4877 1024 4877 
L 4595 4877 
Q 4800 4877 4909 4768 
Q 5018 4659 5018 4422 
z
" transform="scale(0.015625)"/>
      <path id="NanumGothicBold-d558" d="M 3917 3251 
Q 3917 3213 3888 3181 
Q 3859 3149 3821 3149 
L 352 3149 
Q 314 3149 278 3184 
Q 243 3219 243 3258 
L 243 3648 
Q 243 3680 278 3712 
Q 314 3744 352 3744 
L 3821 3744 
Q 3859 3744 3888 3715 
Q 3917 3686 3917 3648 
L 3917 3251 
z
M 3098 4275 
Q 3098 4237 3069 4205 
Q 3040 4173 2995 4173 
L 1197 4173 
Q 1171 4173 1136 4198 
Q 1101 4224 1101 4269 
L 1101 4691 
Q 1101 4736 1136 4761 
Q 1171 4787 1197 4787 
L 2995 4787 
Q 3034 4787 3066 4755 
Q 3098 4723 3098 4685 
L 3098 4275 
z
M 2131 2253 
Q 1805 2253 1609 2051 
Q 1414 1850 1414 1530 
Q 1414 1216 1609 1011 
Q 1805 806 2131 806 
Q 2470 806 2662 1011 
Q 2854 1216 2854 1530 
Q 2854 1850 2662 2051 
Q 2470 2253 2131 2253 
z
M 2131 2835 
Q 2445 2835 2707 2742 
Q 2970 2650 3155 2480 
Q 3341 2310 3446 2073 
Q 3552 1837 3552 1549 
Q 3552 1261 3446 1017 
Q 3341 774 3152 598 
Q 2963 422 2700 320 
Q 2438 218 2125 218 
Q 1811 218 1552 317 
Q 1293 416 1107 595 
Q 922 774 819 1017 
Q 717 1261 717 1549 
Q 717 1830 819 2067 
Q 922 2304 1110 2473 
Q 1299 2643 1558 2739 
Q 1818 2835 2131 2835 
z
M 5971 2118 
Q 5971 2086 5942 2060 
Q 5914 2035 5875 2035 
L 5011 2035 
L 5011 -928 
Q 5011 -1011 4928 -1011 
L 4358 -1011 
Q 4275 -1011 4275 -928 
L 4275 4979 
Q 4275 5062 4358 5062 
L 4928 5062 
Q 5011 5062 5011 4979 
L 5011 2650 
L 5875 2650 
Q 5914 2650 5942 2627 
Q 5971 2605 5971 2573 
L 5971 2118 
z
" transform="scale(0.015625)"/>
      <path id="NanumGothicBold-ae30" d="M 5274 -928 
Q 5274 -1011 5190 -1011 
L 4621 -1011 
Q 4538 -1011 4538 -928 
L 4538 4979 
Q 4538 5062 4621 5062 
L 5190 5062 
Q 5274 5062 5274 4979 
L 5274 -928 
z
M 3546 4102 
Q 3494 3482 3286 2931 
Q 3078 2381 2736 1907 
Q 2394 1434 1926 1030 
Q 1459 627 896 294 
Q 845 262 784 272 
Q 723 282 691 333 
L 474 672 
Q 442 723 454 771 
Q 467 819 512 845 
Q 1466 1408 2038 2144 
Q 2611 2880 2784 3757 
Q 2810 3885 2771 3926 
Q 2733 3968 2611 3968 
L 806 3968 
Q 717 3968 717 4058 
L 717 4506 
Q 717 4582 806 4582 
L 3098 4582 
Q 3386 4582 3475 4464 
Q 3565 4346 3546 4102 
z
" transform="scale(0.015625)"/>
     </defs>
     <use xlink:href="#NanumGothicBold-61"/>
     <use xlink:href="#NanumGothicBold-74" transform="translate(54.499985 0)"/>
     <use xlink:href="#NanumGothicBold-61" transform="translate(90.799973 0)"/>
     <use xlink:href="#NanumGothicBold-6e" transform="translate(145.299957 0)"/>
     <use xlink:href="#NanumGothicBold-32" transform="translate(205.899948 0)"/>
     <use xlink:href="#NanumGothicBold-3a" transform="translate(266.499939 0)"/>
     <use xlink:href="#NanumGothicBold-20" transform="translate(296.799927 0)"/>
     <use xlink:href="#NanumGothicBold-c774" transform="translate(324.799911 0)"/>
     <use xlink:href="#NanumGothicBold-20" transform="translate(418.799896 0)"/>
     <use xlink:href="#NanumGothicBold-bc29" transform="translate(446.799881 0)"/>
     <use xlink:href="#NanumGothicBold-d5a5" transform="translate(540.799866 0)"/>
     <use xlink:href="#NanumGothicBold-20" transform="translate(634.79985 0)"/>
     <use xlink:href="#NanumGothicBold-bca1" transform="translate(662.799835 0)"/>
     <use xlink:href="#NanumGothicBold-d130" transform="translate(756.79982 0)"/>
     <use xlink:href="#NanumGothicBold-c758" transform="translate(850.799805 0)"/>
     <use xlink:href="#NanumGothicBold-20" transform="translate(944.799789 0)"/>
     <use xlink:href="#NanumGothicBold-ac01" transform="translate(972.799774 0)"/>
     <use xlink:href="#NanumGothicBold-b3c4" transform="translate(1066.799759 0)"/>
     <use xlink:href="#NanumGothicBold-b97c" transform="translate(1160.799744 0)"/>
     <use xlink:href="#NanumGothicBold-20" transform="translate(1254.799728 0)"/>
     <use xlink:href="#NanumGothicBold-ad6c" transform="translate(1282.799713 0)"/>
     <use xlink:href="#NanumGothicBold-d558" transform="translate(1376.799698 0)"/>
     <use xlink:href="#NanumGothicBold-ae30" transform="translate(1470.799683 0)"/>
    </g>
   </g>
   <g id="patch_2">
    <path d="M 90.967206 129.22173 
Q 209.520796 109.462799 324.986485 90.218517 
" clip-path="url(#pba5004e5f4)" style="fill: none; stroke: #10b981; stroke-width: 2.8; stroke-linecap: round"/>
    <path d="M 319.002362 88.377248 
L 324.986485 90.218517 
L 319.922997 93.901054 
z
" clip-path="url(#pba5004e5f4)" style="fill: #10b981; stroke: #10b981; stroke-width: 2.8; stroke-linecap: round"/>
   </g>
   <g id="text_2">
    <!-- player -->
    <g style="fill: #2563eb" transform="translate(73.7845 148.673831) scale(0.11 -0.11)">
     <defs>
      <path id="NanumGothic-70" d="M 2989 1504 
Q 2989 1766 2937 2012 
Q 2886 2259 2764 2451 
Q 2643 2643 2451 2761 
Q 2259 2880 1971 2880 
Q 1709 2880 1517 2771 
Q 1325 2662 1200 2473 
Q 1075 2285 1011 2035 
Q 947 1786 947 1504 
Q 947 762 1225 381 
Q 1504 0 1971 0 
Q 2214 0 2403 105 
Q 2592 211 2723 409 
Q 2854 608 2921 883 
Q 2989 1158 2989 1504 
z
M 518 3098 
Q 518 3187 608 3187 
L 851 3187 
Q 941 3187 941 3098 
L 909 2618 
Q 1037 2899 1341 3072 
Q 1645 3245 2048 3245 
Q 2426 3245 2691 3110 
Q 2957 2976 3126 2742 
Q 3296 2509 3376 2189 
Q 3456 1869 3456 1504 
Q 3456 1107 3363 768 
Q 3270 429 3094 179 
Q 2918 -70 2656 -214 
Q 2394 -358 2048 -358 
Q 1658 -358 1376 -208 
Q 1094 -58 947 211 
L 947 -1165 
Q 947 -1254 858 -1254 
L 614 -1254 
Q 576 -1254 547 -1228 
Q 518 -1203 518 -1165 
L 518 3098 
z
" transform="scale(0.015625)"/>
      <path id="NanumGothic-6c" d="M 1056 -186 
Q 1056 -275 966 -275 
L 685 -275 
Q 595 -275 595 -186 
L 595 4723 
Q 595 4813 685 4813 
L 966 4813 
Q 1056 4813 1056 4723 
L 1056 -186 
z
" transform="scale(0.015625)"/>
      <path id="NanumGothic-61" d="M 2566 1530 
L 2445 1530 
Q 2086 1542 1808 1500 
Q 1530 1459 1344 1389 
Q 1075 1293 940 1104 
Q 806 915 806 653 
Q 806 493 857 355 
Q 909 218 1018 141 
Q 1210 -13 1530 -13 
Q 1754 -13 1942 76 
Q 2131 166 2272 332 
Q 2413 499 2489 745 
Q 2566 992 2566 1312 
L 2566 1530 
z
M 742 2650 
Q 710 2630 681 2640 
Q 653 2650 653 2682 
L 653 2925 
Q 653 3014 742 3059 
Q 966 3181 1219 3229 
Q 1472 3277 1773 3277 
Q 2413 3277 2707 2973 
Q 3002 2669 3002 2054 
L 3002 448 
Q 3002 256 3008 105 
Q 3014 -45 3027 -186 
Q 3027 -275 2938 -275 
L 2707 -275 
Q 2618 -275 2618 -186 
L 2618 307 
Q 2483 -19 2166 -198 
Q 1850 -378 1478 -378 
Q 832 -378 531 0 
Q 429 128 377 297 
Q 326 467 326 634 
Q 326 1024 508 1305 
Q 691 1587 1069 1728 
Q 1530 1894 2483 1894 
L 2566 1894 
L 2566 2086 
Q 2566 2490 2384 2701 
Q 2202 2912 1773 2912 
Q 1485 2912 1229 2851 
Q 973 2790 742 2650 
z
" transform="scale(0.015625)"/>
      <path id="NanumGothic-79" d="M 301 -1222 
Q 224 -1203 237 -1126 
L 256 -909 
Q 256 -832 333 -864 
Q 435 -902 570 -902 
Q 704 -902 816 -860 
Q 928 -819 986 -749 
Q 1056 -659 1142 -454 
Q 1229 -250 1312 13 
Q 1024 794 742 1555 
Q 461 2317 173 3098 
Q 160 3130 173 3158 
Q 186 3187 224 3187 
L 525 3187 
Q 614 3187 653 3098 
L 1517 614 
Q 1754 1267 1968 1859 
Q 2182 2451 2419 3098 
Q 2451 3187 2547 3187 
L 2822 3187 
Q 2861 3187 2873 3158 
Q 2886 3130 2874 3098 
L 1542 -474 
Q 1472 -659 1385 -806 
Q 1299 -954 1210 -1043 
Q 1094 -1152 953 -1206 
Q 813 -1261 659 -1261 
Q 563 -1261 486 -1254 
Q 410 -1248 301 -1222 
z
" transform="scale(0.015625)"/>
      <path id="NanumGothic-65" d="M 2733 1696 
Q 2733 1958 2681 2163 
Q 2630 2368 2522 2534 
Q 2285 2912 1837 2912 
Q 1376 2912 1088 2528 
Q 973 2355 896 2131 
Q 819 1907 813 1696 
L 2733 1696 
z
M 813 1331 
Q 806 1011 886 764 
Q 966 518 1120 352 
Q 1274 186 1488 96 
Q 1702 6 1965 6 
Q 2221 6 2445 54 
Q 2669 102 2861 211 
Q 2944 250 2944 166 
L 2944 -122 
Q 2944 -179 2874 -211 
Q 2662 -294 2432 -336 
Q 2202 -378 1933 -378 
Q 1146 -378 742 80 
Q 339 538 339 1459 
Q 339 2272 742 2771 
Q 1165 3277 1811 3277 
Q 2170 3277 2432 3149 
Q 2694 3021 2880 2765 
Q 3206 2310 3206 1549 
Q 3206 1466 3203 1421 
Q 3200 1376 3181 1357 
Q 3162 1338 3114 1334 
Q 3066 1331 2976 1331 
L 813 1331 
z
" transform="scale(0.015625)"/>
      <path id="NanumGothic-72" d="M 2221 2797 
Q 2106 2835 1914 2835 
Q 1440 2835 1210 2368 
Q 1030 2003 1030 1434 
L 1030 -186 
Q 1030 -275 941 -275 
L 691 -275 
Q 602 -275 602 -186 
L 602 2413 
Q 602 2643 598 2787 
Q 595 2931 589 3098 
Q 589 3187 678 3187 
L 915 3187 
Q 1005 3187 1005 3098 
L 1005 2470 
Q 1318 3277 1926 3277 
Q 2074 3277 2221 3238 
Q 2259 3226 2288 3197 
Q 2317 3168 2317 3117 
L 2317 2848 
Q 2317 2810 2285 2797 
Q 2253 2784 2221 2797 
z
" transform="scale(0.015625)"/>
     </defs>
     <use xlink:href="#NanumGothic-70"/>
     <use xlink:href="#NanumGothic-6c" transform="translate(60.599991 0)"/>
     <use xlink:href="#NanumGothic-61" transform="translate(84.799988 0)"/>
     <use xlink:href="#NanumGothic-79" transform="translate(139.299973 0)"/>
     <use xlink:href="#NanumGothic-65" transform="translate(185.699966 0)"/>
     <use xlink:href="#NanumGothic-72" transform="translate(240.199951 0)"/>
    </g>
   </g>
   <g id="text_3">
    <!-- mouse -->
    <g style="fill: #f59e0b" transform="translate(313.059016 108.503847) scale(0.11 -0.11)">
     <defs>
      <path id="NanumGothic-6d" d="M 602 2374 
Q 602 2643 595 2800 
Q 589 2957 576 3098 
Q 576 3187 666 3187 
L 902 3187 
Q 992 3187 992 3098 
L 992 2752 
Q 1139 2989 1388 3126 
Q 1638 3264 2003 3264 
Q 2387 3264 2675 3075 
Q 2963 2886 3027 2522 
Q 3162 2886 3459 3075 
Q 3757 3264 4147 3264 
Q 4397 3264 4598 3174 
Q 4800 3085 4944 2928 
Q 5088 2771 5165 2560 
Q 5242 2349 5242 2112 
L 5242 -186 
Q 5242 -275 5152 -275 
L 4909 -275 
Q 4819 -275 4819 -192 
L 4819 2022 
Q 4819 2899 4083 2899 
Q 3859 2899 3683 2800 
Q 3507 2701 3382 2528 
Q 3258 2355 3197 2124 
Q 3136 1894 3142 1638 
L 3142 -186 
Q 3142 -275 3053 -275 
L 2797 -275 
Q 2707 -275 2707 -186 
L 2707 2022 
Q 2707 2899 1965 2899 
Q 1530 2899 1280 2617 
Q 1030 2336 1030 1875 
L 1030 -186 
Q 1030 -275 941 -275 
L 691 -275 
Q 602 -275 602 -186 
L 602 2374 
z
" transform="scale(0.015625)"/>
      <path id="NanumGothic-6f" d="M 3130 1453 
Q 3130 1754 3050 2016 
Q 2970 2278 2829 2483 
Q 2496 2893 1965 2893 
Q 1696 2893 1481 2787 
Q 1267 2682 1101 2483 
Q 954 2278 874 2016 
Q 794 1754 794 1453 
Q 794 1146 874 883 
Q 954 621 1101 422 
Q 1440 6 1965 6 
Q 2234 6 2448 115 
Q 2662 224 2829 422 
Q 2970 621 3050 883 
Q 3130 1146 3130 1453 
z
M 3603 1453 
Q 3603 1075 3494 752 
Q 3386 429 3206 186 
Q 2982 -83 2672 -230 
Q 2362 -378 1965 -378 
Q 1568 -378 1254 -230 
Q 941 -83 717 186 
Q 538 429 432 752 
Q 326 1075 326 1453 
Q 326 2227 717 2720 
Q 1165 3277 1965 3277 
Q 2368 3277 2675 3139 
Q 2982 3002 3206 2720 
Q 3603 2214 3603 1453 
z
" transform="scale(0.015625)"/>
      <path id="NanumGothic-75" d="M 3347 -186 
Q 3347 -275 3258 -275 
L 3027 -275 
Q 2938 -275 2938 -186 
L 2938 346 
Q 2771 -38 2492 -208 
Q 2214 -378 1792 -378 
Q 595 -378 595 960 
L 595 3098 
Q 595 3187 685 3187 
L 941 3187 
Q 1030 3187 1030 3098 
L 1030 1075 
Q 1030 -13 1862 -13 
Q 2106 -13 2301 92 
Q 2496 198 2630 380 
Q 2765 563 2835 806 
Q 2906 1050 2899 1318 
L 2899 3098 
Q 2899 3187 2989 3187 
L 3245 3187 
Q 3334 3187 3334 3098 
L 3334 525 
Q 3334 314 3337 147 
Q 3341 -19 3347 -186 
z
" transform="scale(0.015625)"/>
      <path id="NanumGothic-73" d="M 422 147 
Q 813 -13 1229 -13 
Q 1574 -13 1798 156 
Q 2022 326 2022 614 
Q 2022 781 1897 937 
Q 1773 1094 1594 1197 
Q 1395 1306 1187 1405 
Q 979 1504 787 1613 
Q 557 1741 448 1929 
Q 339 2118 339 2323 
Q 339 2560 428 2739 
Q 518 2918 672 3040 
Q 826 3162 1030 3219 
Q 1235 3277 1466 3277 
Q 1709 3277 1888 3251 
Q 2067 3226 2246 3174 
Q 2285 3162 2313 3136 
Q 2342 3110 2336 3066 
L 2317 2874 
Q 2310 2822 2278 2809 
Q 2246 2797 2214 2810 
Q 2054 2867 1894 2889 
Q 1734 2912 1510 2912 
Q 768 2912 768 2323 
Q 768 2195 867 2080 
Q 966 1965 1203 1850 
Q 1408 1747 1606 1654 
Q 1805 1562 2035 1434 
Q 2234 1325 2365 1101 
Q 2496 877 2496 614 
Q 2496 358 2393 172 
Q 2291 -13 2118 -134 
Q 1946 -256 1722 -317 
Q 1498 -378 1261 -378 
Q 1120 -378 1008 -371 
Q 896 -365 797 -352 
Q 698 -339 595 -320 
Q 493 -301 378 -269 
Q 288 -237 294 -154 
L 320 83 
Q 333 186 422 147 
z
" transform="scale(0.015625)"/>
     </defs>
     <use xlink:href="#NanumGothic-6d"/>
     <use xlink:href="#NanumGothic-6f" transform="translate(90.799988 0)"/>
     <use xlink:href="#NanumGothic-75" transform="translate(151.399979 0)"/>
     <use xlink:href="#NanumGothic-73" transform="translate(211.999969 0)"/>
     <use xlink:href="#NanumGothic-65" transform="translate(254.399963 0)"/>
    </g>
   </g>
   <g id="text_4">
    <!-- toMouse = mouse - player -->
    <g style="fill: #10b981" transform="translate(142.915859 98.453831) scale(0.11 -0.11)">
     <defs>
      <path id="NanumGothic-74" d="M 2208 -282 
Q 1939 -378 1677 -378 
Q 1158 -378 992 -38 
Q 883 192 883 774 
L 883 2816 
L 282 2816 
Q 192 2816 192 2906 
L 192 3098 
Q 192 3187 282 3187 
L 883 3187 
L 883 4051 
Q 883 4147 966 4147 
L 1235 4147 
Q 1318 4147 1318 4051 
L 1318 3187 
L 2029 3187 
Q 2118 3187 2118 3098 
L 2118 2906 
Q 2118 2816 2029 2816 
L 1318 2816 
L 1318 557 
Q 1318 -13 1779 -13 
Q 1958 -13 2182 64 
Q 2214 77 2243 64 
Q 2272 51 2272 13 
L 2285 -154 
Q 2298 -243 2208 -282 
z
" transform="scale(0.015625)"/>
      <path id="NanumGothic-4d" d="M 5523 -186 
Q 5523 -275 5434 -275 
L 5146 -275 
Q 5056 -275 5056 -186 
L 5056 4058 
Q 4582 2880 4205 1952 
Q 4045 1555 3891 1174 
Q 3738 794 3616 496 
Q 3494 198 3417 12 
Q 3341 -173 3341 -179 
Q 3309 -243 3245 -243 
L 2957 -243 
Q 2912 -243 2893 -227 
Q 2874 -211 2861 -179 
L 1094 4058 
L 1094 -186 
Q 1094 -275 1005 -275 
L 717 -275 
Q 627 -275 627 -186 
L 627 4294 
Q 627 4429 649 4451 
Q 672 4474 806 4474 
L 1286 4474 
Q 1338 4474 1360 4461 
Q 1382 4448 1402 4397 
L 3104 256 
L 4755 4403 
Q 4781 4474 4858 4474 
L 5344 4474 
Q 5478 4474 5500 4451 
Q 5523 4429 5523 4294 
L 5523 -186 
z
" transform="scale(0.015625)"/>
      <path id="NanumGothic-20" transform="scale(0.015625)"/>
      <path id="NanumGothic-3d" d="M 3757 2995 
Q 3827 2995 3836 2985 
Q 3846 2976 3846 2906 
L 3846 2618 
Q 3846 2547 3836 2537 
Q 3827 2528 3757 2528 
L 467 2528 
Q 397 2528 387 2537 
Q 378 2547 378 2618 
L 378 2906 
Q 378 2976 387 2985 
Q 397 2995 467 2995 
L 3757 2995 
z
M 3757 1626 
Q 3827 1626 3836 1616 
Q 3846 1606 3846 1536 
L 3846 1261 
Q 3846 1190 3836 1180 
Q 3827 1171 3757 1171 
L 467 1171 
Q 397 1171 387 1180 
Q 378 1190 378 1261 
L 378 1536 
Q 378 1606 387 1616 
Q 397 1626 467 1626 
L 3757 1626 
z
" transform="scale(0.015625)"/>
      <path id="NanumGothic-2d" d="M 1946 2419 
Q 2016 2419 2025 2409 
Q 2035 2400 2035 2330 
L 2035 2048 
Q 2035 1978 2025 1968 
Q 2016 1958 1946 1958 
L 448 1958 
Q 378 1958 368 1968 
Q 358 1978 358 2048 
L 358 2330 
Q 358 2400 368 2409 
Q 378 2419 448 2419 
L 1946 2419 
z
" transform="scale(0.015625)"/>
     </defs>
     <use xlink:href="#NanumGothic-74"/>
     <use xlink:href="#NanumGothic-6f" transform="translate(36.299988 0)"/>
     <use xlink:href="#NanumGothic-4d" transform="translate(96.899979 0)"/>
     <use xlink:href="#NanumGothic-6f" transform="translate(193.799973 0)"/>
     <use xlink:href="#NanumGothic-75" transform="translate(254.399963 0)"/>
     <use xlink:href="#NanumGothic-73" transform="translate(314.999954 0)"/>
     <use xlink:href="#NanumGothic-65" transform="translate(357.399948 0)"/>
     <use xlink:href="#NanumGothic-20" transform="translate(411.899933 0)"/>
     <use xlink:href="#NanumGothic-3d" transform="translate(439.899918 0)"/>
     <use xlink:href="#NanumGothic-20" transform="translate(505.299911 0)"/>
     <use xlink:href="#NanumGothic-6d" transform="translate(533.299896 0)"/>
     <use xlink:href="#NanumGothic-6f" transform="translate(624.099884 0)"/>
     <use xlink:href="#NanumGothic-75" transform="translate(684.699875 0)"/>
     <use xlink:href="#NanumGothic-73" transform="translate(745.299866 0)"/>
     <use xlink:href="#NanumGothic-65" transform="translate(787.69986 0)"/>
     <use xlink:href="#NanumGothic-20" transform="translate(842.199844 0)"/>
     <use xlink:href="#NanumGothic-2d" transform="translate(870.199829 0)"/>
     <use xlink:href="#NanumGothic-20" transform="translate(906.499817 0)"/>
     <use xlink:href="#NanumGothic-70" transform="translate(934.499802 0)"/>
     <use xlink:href="#NanumGothic-6c" transform="translate(995.099792 0)"/>
     <use xlink:href="#NanumGothic-61" transform="translate(1019.299789 0)"/>
     <use xlink:href="#NanumGothic-79" transform="translate(1073.799774 0)"/>
     <use xlink:href="#NanumGothic-65" transform="translate(1120.199768 0)"/>
     <use xlink:href="#NanumGothic-72" transform="translate(1174.699753 0)"/>
    </g>
   </g>
   <g id="text_5">
    <!-- dx = mouse.x - player.x -->
    <g style="fill: #111827" transform="translate(97.0272 170.953228) scale(0.105 -0.105)">
     <defs>
      <path id="NanumGothic-64" d="M 877 1459 
Q 877 1158 925 912 
Q 973 666 1075 480 
Q 1216 250 1417 128 
Q 1619 6 1901 6 
Q 2157 6 2352 140 
Q 2547 275 2678 483 
Q 2810 691 2874 950 
Q 2938 1210 2938 1459 
Q 2938 1766 2870 2028 
Q 2803 2291 2672 2483 
Q 2541 2675 2349 2784 
Q 2157 2893 1901 2893 
Q 1357 2893 1075 2426 
Q 973 2240 925 1993 
Q 877 1747 877 1459 
z
M 3366 -186 
Q 3366 -275 3277 -275 
L 3027 -275 
Q 2938 -275 2938 -186 
L 2938 294 
Q 2592 -358 1824 -358 
Q 1139 -358 755 166 
Q 403 653 403 1459 
Q 403 3258 1824 3258 
Q 2208 3258 2505 3104 
Q 2803 2950 2938 2707 
L 2938 4723 
Q 2938 4813 3027 4813 
L 3277 4813 
Q 3366 4813 3366 4723 
L 3366 -186 
z
" transform="scale(0.015625)"/>
      <path id="NanumGothic-78" d="M 3046 -186 
Q 3066 -218 3050 -246 
Q 3034 -275 2995 -275 
L 2637 -275 
Q 2560 -275 2509 -186 
L 1645 1222 
L 717 -186 
Q 659 -275 589 -275 
L 269 -275 
Q 230 -275 214 -246 
Q 198 -218 218 -186 
L 1389 1562 
L 339 3098 
Q 320 3130 336 3158 
Q 352 3187 390 3187 
L 742 3187 
Q 819 3187 870 3098 
L 1645 1894 
L 2432 3098 
Q 2490 3187 2560 3187 
L 2874 3187 
Q 2912 3187 2928 3158 
Q 2944 3130 2925 3098 
L 1901 1562 
L 3046 -186 
z
" transform="scale(0.015625)"/>
      <path id="NanumGothic-2e" d="M 691 -256 
Q 691 -122 784 -29 
Q 877 64 1011 64 
Q 1146 64 1238 -29 
Q 1331 -122 1331 -256 
Q 1331 -390 1238 -483 
Q 1146 -576 1011 -576 
Q 877 -576 784 -483 
Q 691 -390 691 -256 
z
" transform="scale(0.015625)"/>
     </defs>
     <use xlink:href="#NanumGothic-64"/>
     <use xlink:href="#NanumGothic-78" transform="translate(60.599991 0)"/>
     <use xlink:href="#NanumGothic-20" transform="translate(111.599976 0)"/>
     <use xlink:href="#NanumGothic-3d" transform="translate(139.59996 0)"/>
     <use xlink:href="#NanumGothic-20" transform="translate(204.999954 0)"/>
     <use xlink:href="#NanumGothic-6d" transform="translate(232.999939 0)"/>
     <use xlink:href="#NanumGothic-6f" transform="translate(323.799927 0)"/>
     <use xlink:href="#NanumGothic-75" transform="translate(384.399918 0)"/>
     <use xlink:href="#NanumGothic-73" transform="translate(444.999908 0)"/>
     <use xlink:href="#NanumGothic-65" transform="translate(487.399902 0)"/>
     <use xlink:href="#NanumGothic-2e" transform="translate(541.899887 0)"/>
     <use xlink:href="#NanumGothic-78" transform="translate(572.199875 0)"/>
     <use xlink:href="#NanumGothic-20" transform="translate(623.19986 0)"/>
     <use xlink:href="#NanumGothic-2d" transform="translate(651.199844 0)"/>
     <use xlink:href="#NanumGothic-20" transform="translate(687.499832 0)"/>
     <use xlink:href="#NanumGothic-70" transform="translate(715.499817 0)"/>
     <use xlink:href="#NanumGothic-6c" transform="translate(776.099808 0)"/>
     <use xlink:href="#NanumGothic-61" transform="translate(800.299805 0)"/>
     <use xlink:href="#NanumGothic-79" transform="translate(854.799789 0)"/>
     <use xlink:href="#NanumGothic-65" transform="translate(901.199783 0)"/>
     <use xlink:href="#NanumGothic-72" transform="translate(955.699768 0)"/>
     <use xlink:href="#NanumGothic-2e" transform="translate(991.999756 0)"/>
     <use xlink:href="#NanumGothic-78" transform="translate(1022.299744 0)"/>
    </g>
    <!-- dy = mouse.y - player.y -->
    <g style="fill: #111827" transform="translate(97.0272 182.49765) scale(0.105 -0.105)">
     <use xlink:href="#NanumGothic-64"/>
     <use xlink:href="#NanumGothic-79" transform="translate(60.599991 0)"/>
     <use xlink:href="#NanumGothic-20" transform="translate(106.999985 0)"/>
     <use xlink:href="#NanumGothic-3d" transform="translate(134.999969 0)"/>
     <use xlink:href="#NanumGothic-20" transform="translate(200.399963 0)"/>
     <use xlink:href="#NanumGothic-6d" transform="translate(228.399948 0)"/>
     <use xlink:href="#NanumGothic-6f" transform="translate(319.199936 0)"/>
     <use xlink:href="#NanumGothic-75" transform="translate(379.799927 0)"/>
     <use xlink:href="#NanumGothic-73" transform="translate(440.399918 0)"/>
     <use xlink:href="#NanumGothic-65" transform="translate(482.799911 0)"/>
     <use xlink:href="#NanumGothic-2e" transform="translate(537.299896 0)"/>
     <use xlink:href="#NanumGothic-79" transform="translate(567.599884 0)"/>
     <use xlink:href="#NanumGothic-20" transform="translate(613.999878 0)"/>
     <use xlink:href="#NanumGothic-2d" transform="translate(641.999863 0)"/>
     <use xlink:href="#NanumGothic-20" transform="translate(678.29985 0)"/>
     <use xlink:href="#NanumGothic-70" transform="translate(706.299835 0)"/>
     <use xlink:href="#NanumGothic-6c" transform="translate(766.899826 0)"/>
     <use xlink:href="#NanumGothic-61" transform="translate(791.099823 0)"/>
     <use xlink:href="#NanumGothic-79" transform="translate(845.599808 0)"/>
     <use xlink:href="#NanumGothic-65" transform="translate(891.999802 0)"/>
     <use xlink:href="#NanumGothic-72" transform="translate(946.499786 0)"/>
     <use xlink:href="#NanumGothic-2e" transform="translate(982.799774 0)"/>
     <use xlink:href="#NanumGothic-79" transform="translate(1013.099762 0)"/>
    </g>
    <!-- angle = atan2(dy, dx) -->
    <g style="fill: #111827" transform="translate(97.0272 194.406291) scale(0.105 -0.105)">
     <defs>
      <path id="NanumGothic-6e" d="M 3334 -186 
Q 3334 -275 3245 -275 
L 2989 -275 
Q 2899 -275 2899 -186 
L 2899 1830 
Q 2899 2419 2688 2665 
Q 2477 2912 2093 2912 
Q 1574 2912 1302 2624 
Q 1030 2336 1030 1818 
L 1030 -186 
Q 1030 -275 941 -275 
L 685 -275 
Q 595 -275 595 -186 
L 595 2374 
Q 595 2650 592 2803 
Q 589 2957 576 3098 
Q 570 3142 598 3164 
Q 627 3187 666 3187 
L 896 3187 
Q 986 3187 986 3098 
L 986 2746 
Q 1165 3021 1417 3149 
Q 1670 3277 2112 3277 
Q 2720 3277 3027 2925 
Q 3334 2573 3334 1933 
L 3334 -186 
z
" transform="scale(0.015625)"/>
      <path id="NanumGothic-67" d="M 2950 1472 
Q 2950 2157 2668 2528 
Q 2387 2899 1907 2899 
Q 1389 2899 1126 2553 
Q 864 2208 864 1459 
Q 864 1184 941 953 
Q 1018 723 1152 560 
Q 1286 397 1472 304 
Q 1658 211 1875 211 
Q 2099 211 2297 304 
Q 2496 397 2640 566 
Q 2784 736 2867 966 
Q 2950 1197 2950 1472 
z
M 749 -1114 
Q 672 -1094 685 -1018 
L 704 -736 
Q 704 -653 787 -698 
Q 1030 -806 1254 -854 
Q 1478 -902 1741 -902 
Q 2323 -902 2614 -547 
Q 2906 -192 2944 422 
Q 2797 134 2509 -13 
Q 2221 -160 1869 -160 
Q 1555 -160 1286 -45 
Q 1018 70 819 281 
Q 621 493 505 793 
Q 390 1094 390 1459 
Q 390 1888 470 2224 
Q 550 2560 723 2790 
Q 896 3021 1171 3142 
Q 1446 3264 1837 3264 
Q 2176 3264 2435 3152 
Q 2694 3040 2963 2752 
L 2950 3098 
Q 2950 3187 3040 3187 
L 3283 3187 
Q 3373 3187 3373 3098 
L 3373 538 
Q 3373 122 3267 -214 
Q 3162 -550 2954 -784 
Q 2746 -1018 2438 -1142 
Q 2131 -1267 1734 -1267 
Q 1446 -1267 1228 -1232 
Q 1011 -1197 749 -1114 
z
" transform="scale(0.015625)"/>
      <path id="NanumGothic-32" d="M 576 -301 
Q 506 -301 470 -297 
Q 435 -294 419 -278 
Q 403 -262 400 -227 
Q 397 -192 397 -122 
L 403 19 
Q 403 102 454 154 
L 1510 1318 
Q 2688 2592 2688 3251 
Q 2688 3635 2432 3891 
Q 2182 4141 1811 4141 
Q 1293 4141 730 3853 
Q 640 3808 627 3891 
L 589 4102 
Q 570 4211 653 4237 
Q 979 4384 1241 4454 
Q 1504 4525 1779 4525 
Q 2394 4525 2758 4218 
Q 3168 3885 3168 3270 
Q 3168 3034 3053 2752 
Q 2938 2470 2733 2163 
Q 2605 1984 2371 1696 
Q 2138 1408 1837 1082 
Q 1613 838 1392 588 
Q 1171 339 947 96 
L 3187 96 
Q 3277 96 3277 6 
L 3277 -211 
Q 3277 -301 3187 -301 
L 576 -301 
z
" transform="scale(0.015625)"/>
      <path id="NanumGothic-28" d="M 1984 -1133 
Q 1939 -1133 1929 -1129 
Q 1920 -1126 1894 -1094 
Q 1312 -365 1030 384 
Q 749 1133 749 1933 
Q 749 2726 1030 3475 
Q 1312 4224 1894 4960 
Q 1920 4992 1929 4995 
Q 1939 4998 1971 4998 
L 2150 4998 
Q 2189 4998 2189 4992 
Q 2189 4986 2170 4954 
Q 1165 3379 1165 1933 
Q 1165 1197 1421 448 
Q 1677 -301 2176 -1088 
Q 2208 -1133 2144 -1133 
L 1984 -1133 
z
" transform="scale(0.015625)"/>
      <path id="NanumGothic-2c" d="M 1299 115 
Q 1382 115 1382 86 
Q 1382 58 1370 19 
L 947 -1126 
Q 922 -1178 899 -1194 
Q 877 -1210 832 -1210 
L 563 -1210 
Q 480 -1210 499 -1120 
L 800 6 
Q 813 45 838 80 
Q 864 115 934 115 
L 1299 115 
z
" transform="scale(0.015625)"/>
      <path id="NanumGothic-29" d="M 301 -1133 
Q 243 -1133 275 -1088 
Q 774 -301 1027 448 
Q 1280 1197 1280 1933 
Q 1280 2662 1030 3414 
Q 781 4166 282 4954 
Q 262 4986 262 4992 
Q 262 4998 294 4998 
L 474 4998 
Q 506 4998 515 4995 
Q 525 4992 557 4960 
Q 1139 4224 1417 3475 
Q 1696 2726 1696 1933 
Q 1696 1133 1417 384 
Q 1139 -365 557 -1094 
Q 525 -1126 515 -1129 
Q 506 -1133 461 -1133 
L 301 -1133 
z
" transform="scale(0.015625)"/>
     </defs>
     <use xlink:href="#NanumGothic-61"/>
     <use xlink:href="#NanumGothic-6e" transform="translate(54.499985 0)"/>
     <use xlink:href="#NanumGothic-67" transform="translate(115.099976 0)"/>
     <use xlink:href="#NanumGothic-6c" transform="translate(175.699966 0)"/>
     <use xlink:href="#NanumGothic-65" transform="translate(199.899963 0)"/>
     <use xlink:href="#NanumGothic-20" transform="translate(254.399948 0)"/>
     <use xlink:href="#NanumGothic-3d" transform="translate(282.399933 0)"/>
     <use xlink:href="#NanumGothic-20" transform="translate(347.799927 0)"/>
     <use xlink:href="#NanumGothic-61" transform="translate(375.799911 0)"/>
     <use xlink:href="#NanumGothic-74" transform="translate(430.299896 0)"/>
     <use xlink:href="#NanumGothic-61" transform="translate(466.599884 0)"/>
     <use xlink:href="#NanumGothic-6e" transform="translate(521.099869 0)"/>
     <use xlink:href="#NanumGothic-32" transform="translate(581.69986 0)"/>
     <use xlink:href="#NanumGothic-28" transform="translate(642.29985 0)"/>
     <use xlink:href="#NanumGothic-64" transform="translate(678.599838 0)"/>
     <use xlink:href="#NanumGothic-79" transform="translate(739.199829 0)"/>
     <use xlink:href="#NanumGothic-2c" transform="translate(785.599823 0)"/>
     <use xlink:href="#NanumGothic-20" transform="translate(815.899811 0)"/>
     <use xlink:href="#NanumGothic-64" transform="translate(843.899796 0)"/>
     <use xlink:href="#NanumGothic-78" transform="translate(904.499786 0)"/>
     <use xlink:href="#NanumGothic-29" transform="translate(955.499771 0)"/>
    </g>
   </g>
  </g>
 </g>
 <defs>
  <clipPath id="pba5004e5f4">
   <rect x="8.64" y="29.110931" width="401.76" height="172.7568"/>
  </clipPath>
 </defs>
</svg>
