<svg xmlns="http://www.w3.org/2000/svg" viewBox="0 0 900 260"><rect width="900" height="260" rx="16" fill="#f8fafc"/><defs><marker id="a" markerWidth="8" markerHeight="8" refX="7" refY="4" orient="auto"><path d="M0 0L8 4L0 8Z" fill="#ef4444"/></marker></defs><text x="450" y="28" text-anchor="middle" font-family="sans-serif" font-size="18" font-weight="700">Ray 교차: P(t) = O + tD</text><g font-family="sans-serif" text-anchor="middle"><text x="150" y="55">Plane</text><text x="450" y="55">AABB Slab</text><text x="750" y="55">Triangle</text></g><g stroke="#ef4444" stroke-width="3" marker-end="url(#a)"><path d="M40 190L235 90"/><path d="M330 195L565 85"/><path d="M635 195L850 80"/></g><path d="M50 150L250 150" stroke="#334155" stroke-width="5"/><path d="M395 85V210M520 85V210" stroke="#334155" stroke-width="4"/><path d="M680 190L790 65L840 190Z" fill="#dbeafe" stroke="#2563eb" stroke-width="3"/><g fill="#0f172a"><circle cx="128" cy="145" r="6"/><circle cx="425" cy="150" r="6"/><circle cx="747" cy="135" r="6"/></g><g font-family="sans-serif" font-size="11"><text x="132" y="140">hit</text><text x="405" y="228">tEnter</text><text x="510" y="228">tExit</text><text x="750" y="125">u,v,w</text></g></svg>
