<?xml version="1.0" encoding="utf-8" standalone="no"?>
<!DOCTYPE svg PUBLIC "-//W3C//DTD SVG 1.1//EN"
  "http://www.w3.org/Graphics/SVG/1.1/DTD/svg11.dtd">
<svg xmlns:xlink="http://www.w3.org/1999/xlink" width="482.472pt" height="172.296pt" viewBox="0 0 482.472 172.296" xmlns="http://www.w3.org/2000/svg" version="1.1">
 <metadata>
  <rdf:RDF xmlns:dc="http://purl.org/dc/elements/1.1/" xmlns:cc="http://creativecommons.org/ns#" xmlns:rdf="http://www.w3.org/1999/02/22-rdf-syntax-ns#">
   <cc:Work>
    <dc:type rdf:resource="http://purl.org/dc/dcmitype/StillImage"/>
    <dc:date>2026-07-08T05:12:56.733091</dc:date>
    <dc:format>image/svg+xml</dc:format>
    <dc:creator>
     <cc:Agent>
      <dc:title>Matplotlib v3.10.8, https://matplotlib.org/</dc:title>
     </cc:Agent>
    </dc:creator>
   </cc:Work>
  </rdf:RDF>
 </metadata>
 <defs>
  <style type="text/css">*{stroke-linejoin: round; stroke-linecap: butt}</style>
 </defs>
 <g id="figure_1">
  <g id="patch_1">
   <path d="M 0 172.296 
L 482.472 172.296 
L 482.472 0 
L 0 0 
z
" style="fill: #ffffff"/>
  </g>
  <g id="axes_1">
   <g id="patch_2">
    <path d="M 5.76 166.536 
L 476.712 166.536 
L 476.712 5.76 
L 5.76 5.76 
z
" clip-path="url(#p4f1122b965)" style="fill: #ffffff; stroke: #e5e7eb; stroke-linejoin: miter"/>
   </g>
   <g id="text_1">
    <!-- 1. 큐브 하나를 회전시키기 -->
    <g style="fill: #111827" transform="translate(24.59808 33.072808) scale(0.11 -0.11)">
     <defs>
      <path id="NanumGothicCoding-31" d="M 2022 -211 
Q 2022 -301 1933 -301 
L 1670 -301 
Q 1581 -301 1581 -211 
L 1581 3565 
Q 1382 3398 1209 3251 
Q 1037 3104 845 2938 
Q 774 2880 717 2950 
L 589 3104 
Q 570 3136 570 3171 
Q 570 3206 602 3232 
L 1594 4064 
Q 1619 4090 1670 4090 
L 1843 4090 
Q 1978 4090 2000 4067 
Q 2022 4045 2022 3910 
L 2022 -211 
z
" transform="scale(0.015625)"/>
      <path id="NanumGothicCoding-2e" d="M 1210 -256 
Q 1210 -96 1325 19 
Q 1440 134 1600 134 
Q 1760 134 1872 19 
Q 1984 -96 1984 -256 
Q 1984 -416 1872 -531 
Q 1760 -646 1600 -646 
Q 1440 -646 1325 -531 
Q 1210 -416 1210 -256 
z
" transform="scale(0.015625)"/>
      <path id="NanumGothicCoding-20" transform="scale(0.015625)"/>
      <path id="NanumGothicCoding-d050" d="M 1158 4749 
Q 1158 4787 1190 4806 
Q 1222 4826 1254 4826 
L 4640 4826 
Q 4794 4826 4886 4794 
Q 4979 4762 5030 4701 
Q 5082 4640 5104 4544 
Q 5126 4448 5126 4314 
Q 5139 3814 5065 3222 
Q 4992 2630 4864 2029 
L 5920 2029 
Q 5952 2029 5984 2006 
Q 6016 1984 6016 1946 
L 6016 1728 
Q 6016 1696 5984 1670 
Q 5952 1645 5920 1645 
L 4384 1645 
L 4384 -762 
Q 4384 -800 4361 -829 
Q 4339 -858 4301 -858 
L 4026 -858 
Q 3994 -858 3968 -829 
Q 3942 -800 3942 -762 
L 3942 1645 
L 2400 1645 
L 2400 -762 
Q 2400 -800 2377 -829 
Q 2355 -858 2317 -858 
L 2042 -858 
Q 2010 -858 1984 -829 
Q 1958 -800 1958 -762 
L 1958 1645 
L 480 1645 
Q 442 1645 413 1670 
Q 384 1696 384 1728 
L 384 1946 
Q 384 1984 413 2006 
Q 442 2029 480 2029 
L 4429 2029 
Q 4486 2253 4537 2528 
Q 4589 2803 4627 3091 
Q 4518 3078 4368 3072 
Q 4218 3066 4074 3059 
Q 3930 3053 3814 3049 
Q 3699 3046 3654 3046 
Q 3552 3040 3366 3040 
Q 3181 3040 2953 3037 
Q 2726 3034 2476 3030 
Q 2227 3027 2000 3024 
Q 1773 3021 1581 3021 
Q 1389 3021 1274 3021 
Q 1190 3021 1190 3098 
L 1190 3315 
Q 1190 3392 1274 3392 
Q 1402 3392 1603 3392 
Q 1805 3392 2038 3395 
Q 2272 3398 2518 3401 
Q 2765 3405 2982 3408 
Q 3200 3411 3369 3411 
Q 3539 3411 3616 3418 
Q 3654 3418 3779 3424 
Q 3904 3430 4064 3433 
Q 4224 3437 4390 3443 
Q 4557 3450 4666 3462 
Q 4685 3718 4694 3939 
Q 4704 4160 4691 4307 
Q 4678 4397 4656 4419 
Q 4634 4442 4544 4442 
L 1254 4442 
Q 1222 4442 1190 4464 
Q 1158 4486 1158 4518 
L 1158 4749 
z
" transform="scale(0.015625)"/>
      <path id="NanumGothicCoding-be0c" d="M 5920 499 
Q 5952 499 5984 476 
Q 6016 454 6016 416 
L 6016 198 
Q 6016 166 5984 140 
Q 5952 115 5920 115 
L 480 115 
Q 442 115 413 140 
Q 384 166 384 198 
L 384 416 
Q 384 454 413 476 
Q 442 499 480 499 
L 5920 499 
z
M 1690 1754 
Q 1536 1754 1443 1773 
Q 1350 1792 1299 1846 
Q 1248 1901 1229 1987 
Q 1210 2074 1210 2208 
L 1210 4672 
Q 1210 4704 1235 4726 
Q 1261 4749 1293 4749 
L 1568 4749 
Q 1600 4749 1622 4723 
Q 1645 4698 1645 4672 
L 1645 3622 
L 4723 3622 
L 4723 4666 
Q 4723 4698 4745 4723 
Q 4768 4749 4800 4749 
L 5075 4749 
Q 5107 4749 5132 4726 
Q 5158 4704 5158 4672 
L 5158 2163 
Q 5158 1920 5056 1837 
Q 4954 1754 4672 1754 
L 1690 1754 
z
M 1645 3245 
L 1645 2285 
Q 1645 2189 1677 2160 
Q 1709 2131 1798 2131 
L 4570 2131 
Q 4659 2131 4691 2160 
Q 4723 2189 4723 2285 
L 4723 3245 
L 1645 3245 
z
" transform="scale(0.015625)"/>
      <path id="NanumGothicCoding-d558" d="M 3738 1542 
Q 3738 1280 3632 1056 
Q 3526 832 3340 662 
Q 3155 493 2899 397 
Q 2643 301 2349 301 
Q 2048 301 1795 397 
Q 1542 493 1356 659 
Q 1171 826 1065 1053 
Q 960 1280 960 1542 
Q 960 1811 1065 2038 
Q 1171 2266 1356 2432 
Q 1542 2598 1795 2694 
Q 2048 2790 2349 2790 
Q 2643 2790 2899 2691 
Q 3155 2592 3340 2425 
Q 3526 2259 3632 2028 
Q 3738 1798 3738 1542 
z
M 5120 -806 
Q 5120 -896 5030 -896 
L 4768 -896 
Q 4678 -896 4678 -806 
L 4678 4915 
Q 4678 5005 4768 5005 
L 5030 5005 
Q 5120 5005 5120 4915 
L 5120 2554 
L 6003 2554 
Q 6042 2554 6070 2531 
Q 6099 2509 6099 2470 
L 6099 2253 
Q 6099 2221 6070 2195 
Q 6042 2170 6003 2170 
L 5120 2170 
L 5120 -806 
z
M 3302 1542 
Q 3302 1728 3232 1888 
Q 3162 2048 3034 2166 
Q 2906 2285 2730 2352 
Q 2554 2419 2349 2419 
Q 2144 2419 1968 2352 
Q 1792 2285 1664 2166 
Q 1536 2048 1462 1888 
Q 1389 1728 1389 1542 
Q 1389 1357 1462 1200 
Q 1536 1043 1664 924 
Q 1792 806 1968 739 
Q 2144 672 2349 672 
Q 2554 672 2730 739 
Q 2906 806 3034 921 
Q 3162 1037 3232 1197 
Q 3302 1357 3302 1542 
z
M 4218 3328 
Q 4218 3245 4122 3245 
L 589 3245 
Q 557 3245 528 3270 
Q 499 3296 499 3334 
L 499 3539 
Q 499 3578 528 3603 
Q 557 3629 589 3629 
L 4122 3629 
Q 4218 3629 4218 3546 
L 4218 3328 
z
M 3283 4416 
Q 3283 4326 3187 4326 
L 1434 4326 
Q 1402 4326 1373 4348 
Q 1344 4371 1344 4410 
L 1344 4627 
Q 1344 4666 1369 4691 
Q 1395 4717 1427 4717 
L 3187 4717 
Q 3283 4717 3283 4627 
L 3283 4416 
z
" transform="scale(0.015625)"/>
      <path id="NanumGothicCoding-b098" d="M 5120 -806 
Q 5120 -896 5030 -896 
L 4768 -896 
Q 4678 -896 4678 -806 
L 4678 4915 
Q 4678 5005 4768 5005 
L 5030 5005 
Q 5120 5005 5120 4915 
L 5120 2586 
L 6003 2586 
Q 6042 2586 6070 2563 
Q 6099 2541 6099 2502 
L 6099 2285 
Q 6099 2253 6070 2227 
Q 6042 2202 6003 2202 
L 5120 2202 
L 5120 -806 
z
M 1350 1440 
Q 1350 1344 1382 1312 
Q 1414 1280 1504 1274 
Q 2118 1254 2784 1328 
Q 3450 1402 4051 1517 
Q 4160 1542 4179 1440 
L 4211 1261 
Q 4230 1171 4128 1146 
Q 3891 1088 3548 1037 
Q 3206 986 2828 947 
Q 2451 909 2076 889 
Q 1702 870 1414 877 
Q 1126 883 1017 1011 
Q 909 1139 909 1408 
L 909 4557 
Q 909 4646 998 4646 
L 1261 4646 
Q 1350 4646 1350 4557 
L 1350 1440 
z
" transform="scale(0.015625)"/>
      <path id="NanumGothicCoding-b97c" d="M 5920 2278 
Q 5952 2278 5984 2256 
Q 6016 2234 6016 2195 
L 6016 1978 
Q 6016 1946 5984 1920 
Q 5952 1894 5920 1894 
L 480 1894 
Q 442 1894 413 1920 
Q 384 1946 384 1978 
L 384 2195 
Q 384 2234 413 2256 
Q 442 2278 480 2278 
L 5920 2278 
z
M 5254 -781 
Q 5254 -813 5225 -835 
Q 5197 -858 5171 -858 
L 1760 -858 
Q 1459 -858 1366 -746 
Q 1274 -634 1274 -365 
L 1274 13 
Q 1274 282 1386 374 
Q 1498 467 1786 467 
L 4544 467 
Q 4634 467 4656 492 
Q 4678 518 4678 614 
L 4678 858 
Q 4678 954 4656 979 
Q 4634 1005 4544 1005 
L 1350 1005 
Q 1318 1005 1289 1024 
Q 1261 1043 1261 1075 
L 1261 1299 
Q 1261 1331 1289 1350 
Q 1318 1370 1350 1370 
L 4608 1370 
Q 4762 1370 4858 1347 
Q 4954 1325 5011 1273 
Q 5069 1222 5091 1129 
Q 5114 1037 5114 902 
L 5114 557 
Q 5114 288 5002 195 
Q 4890 102 4602 102 
L 1843 102 
Q 1754 102 1731 76 
Q 1709 51 1709 -45 
L 1709 -339 
Q 1709 -429 1734 -457 
Q 1760 -486 1850 -486 
L 5165 -486 
Q 5197 -486 5225 -505 
Q 5254 -525 5254 -557 
L 5254 -781 
z
M 5203 2880 
Q 5203 2848 5174 2825 
Q 5146 2803 5120 2803 
L 1786 2803 
Q 1485 2803 1392 2915 
Q 1299 3027 1299 3296 
L 1299 3642 
Q 1299 3910 1411 4003 
Q 1523 4096 1811 4096 
L 4525 4096 
Q 4614 4096 4636 4118 
Q 4659 4141 4659 4243 
L 4659 4506 
Q 4659 4602 4636 4627 
Q 4614 4653 4525 4653 
L 1389 4653 
Q 1357 4653 1328 4672 
Q 1299 4691 1299 4723 
L 1299 4954 
Q 1299 4986 1328 5005 
Q 1357 5024 1389 5024 
L 4595 5024 
Q 4749 5024 4845 5001 
Q 4941 4979 4998 4928 
Q 5056 4877 5078 4784 
Q 5101 4691 5101 4557 
L 5101 4186 
Q 5101 3910 4989 3820 
Q 4877 3731 4589 3731 
L 1869 3731 
Q 1779 3731 1756 3705 
Q 1734 3680 1734 3584 
L 1734 3315 
Q 1734 3226 1760 3197 
Q 1786 3168 1875 3168 
L 5114 3168 
Q 5146 3168 5174 3149 
Q 5203 3130 5203 3098 
L 5203 2880 
z
" transform="scale(0.015625)"/>
      <path id="NanumGothicCoding-d68c" d="M 4474 826 
Q 4576 845 4582 781 
L 4621 538 
Q 4634 467 4538 448 
Q 4307 410 4051 371 
Q 3795 333 3532 301 
Q 3270 269 3004 246 
Q 2739 224 2502 218 
Q 2317 211 2057 204 
Q 1798 198 1526 195 
Q 1254 192 998 189 
Q 742 186 563 192 
Q 525 192 496 217 
Q 467 243 467 275 
L 467 493 
Q 467 531 496 553 
Q 525 576 563 576 
Q 704 570 912 566 
Q 1120 563 1350 566 
Q 1581 570 1817 573 
Q 2054 576 2259 582 
L 2259 1261 
Q 1997 1286 1782 1372 
Q 1568 1459 1414 1596 
Q 1261 1734 1174 1916 
Q 1088 2099 1088 2310 
Q 1088 2547 1193 2742 
Q 1299 2938 1484 3075 
Q 1670 3213 1923 3286 
Q 2176 3360 2477 3360 
Q 2771 3360 3027 3283 
Q 3283 3206 3468 3068 
Q 3654 2931 3760 2739 
Q 3866 2547 3866 2310 
Q 3866 2093 3779 1913 
Q 3693 1734 3539 1600 
Q 3386 1466 3171 1379 
Q 2957 1293 2701 1267 
L 2701 602 
Q 2899 614 3136 640 
Q 3373 666 3609 694 
Q 3846 723 4070 758 
Q 4294 794 4474 826 
z
M 5344 -806 
Q 5344 -896 5254 -896 
L 4992 -896 
Q 4902 -896 4902 -806 
L 4902 4915 
Q 4902 5005 4992 5005 
L 5254 5005 
Q 5344 5005 5344 4915 
L 5344 -806 
z
M 3430 2310 
Q 3430 2637 3161 2809 
Q 2893 2982 2477 2982 
Q 2272 2982 2096 2937 
Q 1920 2893 1792 2809 
Q 1664 2726 1590 2598 
Q 1517 2470 1517 2310 
Q 1517 2150 1590 2025 
Q 1664 1901 1792 1814 
Q 1920 1728 2096 1680 
Q 2272 1632 2477 1632 
Q 2893 1632 3161 1811 
Q 3430 1990 3430 2310 
z
M 4275 3776 
Q 4275 3693 4179 3693 
L 774 3693 
Q 742 3693 713 3718 
Q 685 3744 685 3782 
L 685 3994 
Q 685 4032 713 4057 
Q 742 4083 774 4083 
L 4179 4083 
Q 4275 4083 4275 4000 
L 4275 3776 
z
M 3373 4582 
Q 3373 4493 3277 4493 
L 1587 4493 
Q 1555 4493 1526 4515 
Q 1498 4538 1498 4576 
L 1498 4794 
Q 1498 4832 1523 4857 
Q 1549 4883 1581 4883 
L 3277 4883 
Q 3373 4883 3373 4794 
L 3373 4582 
z
" transform="scale(0.015625)"/>
      <path id="NanumGothicCoding-c804" d="M 3501 4038 
Q 3411 3770 3244 3494 
Q 3078 3219 2854 2950 
Q 3110 2650 3446 2384 
Q 3782 2118 4109 1946 
Q 4192 1907 4147 1824 
L 4000 1606 
Q 3981 1574 3942 1571 
Q 3904 1568 3872 1587 
Q 3546 1766 3210 2048 
Q 2874 2330 2586 2643 
Q 2221 2259 1785 1939 
Q 1350 1619 909 1414 
Q 877 1402 845 1392 
Q 813 1382 794 1414 
L 666 1638 
Q 646 1670 659 1705 
Q 672 1741 704 1754 
Q 1459 2138 2057 2707 
Q 2656 3277 3014 4013 
Q 3059 4102 3027 4140 
Q 2995 4179 2906 4179 
L 1030 4179 
Q 954 4179 954 4262 
L 954 4486 
Q 954 4563 1030 4563 
L 3078 4563 
Q 3411 4563 3507 4444 
Q 3603 4326 3501 4038 
z
M 4902 3296 
L 4902 4915 
Q 4902 5005 4992 5005 
L 5254 5005 
Q 5344 5005 5344 4915 
L 5344 781 
Q 5344 691 5254 691 
L 4992 691 
Q 4902 691 4902 781 
L 4902 2925 
L 3693 2925 
Q 3610 2925 3610 3002 
L 3610 3219 
Q 3610 3296 3693 3296 
L 4902 3296 
z
M 5542 -704 
Q 5542 -742 5510 -761 
Q 5478 -781 5446 -781 
L 2208 -781 
Q 1907 -781 1814 -669 
Q 1722 -557 1722 -294 
L 1722 922 
Q 1722 1011 1811 1011 
L 2074 1011 
Q 2163 1011 2163 922 
L 2163 -262 
Q 2163 -352 2192 -374 
Q 2221 -397 2310 -397 
L 5446 -397 
Q 5478 -397 5510 -419 
Q 5542 -442 5542 -474 
L 5542 -704 
z
" transform="scale(0.015625)"/>
      <path id="NanumGothicCoding-c2dc" d="M 2598 4589 
Q 2598 4166 2563 3779 
Q 2528 3392 2451 3034 
Q 2515 2778 2649 2493 
Q 2784 2208 2966 1926 
Q 3149 1645 3376 1379 
Q 3603 1114 3859 902 
Q 3891 877 3894 838 
Q 3898 800 3878 774 
L 3718 576 
Q 3661 506 3584 576 
Q 3405 730 3216 944 
Q 3027 1158 2851 1395 
Q 2675 1632 2521 1881 
Q 2368 2131 2259 2362 
Q 2054 1779 1721 1289 
Q 1389 800 928 378 
Q 864 326 819 371 
L 627 570 
Q 608 589 611 621 
Q 614 653 646 685 
Q 1037 1056 1325 1465 
Q 1613 1875 1795 2348 
Q 1978 2822 2064 3379 
Q 2150 3936 2150 4602 
Q 2150 4646 2172 4668 
Q 2195 4691 2227 4691 
L 2528 4678 
Q 2598 4678 2598 4589 
z
M 5344 -806 
Q 5344 -896 5254 -896 
L 4992 -896 
Q 4902 -896 4902 -806 
L 4902 4915 
Q 4902 5005 4992 5005 
L 5254 5005 
Q 5344 5005 5344 4915 
L 5344 -806 
z
" transform="scale(0.015625)"/>
      <path id="NanumGothicCoding-d0a4" d="M 832 2944 
Q 1024 2944 1229 2950 
Q 1434 2957 1629 2963 
Q 1824 2970 1997 2976 
Q 2170 2982 2285 2989 
Q 2323 2989 2396 2995 
Q 2470 3002 2560 3005 
Q 2650 3008 2739 3014 
Q 2829 3021 2899 3034 
Q 3078 3482 3130 3974 
Q 3142 4070 3104 4105 
Q 3066 4141 2976 4141 
L 928 4141 
Q 851 4141 851 4224 
L 851 4448 
Q 851 4525 928 4525 
L 3098 4525 
Q 3398 4525 3494 4413 
Q 3590 4301 3578 4064 
Q 3546 3514 3347 2992 
Q 3149 2470 2800 2000 
Q 2451 1530 1971 1126 
Q 1491 723 902 410 
Q 819 365 781 429 
L 640 653 
Q 595 730 666 762 
Q 1363 1126 1881 1600 
Q 2400 2074 2714 2637 
Q 2605 2624 2496 2621 
Q 2387 2618 2323 2618 
Q 2170 2611 1981 2604 
Q 1792 2598 1593 2592 
Q 1395 2586 1200 2579 
Q 1005 2573 832 2573 
Q 749 2573 749 2650 
L 749 2867 
Q 749 2944 832 2944 
z
M 5344 -806 
Q 5344 -896 5254 -896 
L 4992 -896 
Q 4902 -896 4902 -806 
L 4902 4915 
Q 4902 5005 4992 5005 
L 5254 5005 
Q 5344 5005 5344 4915 
L 5344 -806 
z
" transform="scale(0.015625)"/>
      <path id="NanumGothicCoding-ae30" d="M 5344 -806 
Q 5344 -896 5254 -896 
L 4992 -896 
Q 4902 -896 4902 -806 
L 4902 4915 
Q 4902 5005 4992 5005 
L 5254 5005 
Q 5344 5005 5344 4915 
L 5344 -806 
z
M 3629 4064 
Q 3597 3514 3411 2982 
Q 3226 2451 2896 1968 
Q 2566 1485 2102 1072 
Q 1638 659 1050 346 
Q 966 301 928 365 
L 787 589 
Q 742 666 813 698 
Q 1357 979 1776 1340 
Q 2195 1702 2492 2124 
Q 2790 2547 2963 3014 
Q 3136 3482 3181 3974 
Q 3194 4070 3155 4105 
Q 3117 4141 3027 4141 
L 992 4141 
Q 915 4141 915 4224 
L 915 4448 
Q 915 4525 992 4525 
L 3149 4525 
Q 3450 4525 3546 4413 
Q 3642 4301 3629 4064 
z
" transform="scale(0.015625)"/>
     </defs>
     <use xlink:href="#NanumGothicCoding-31"/>
     <use xlink:href="#NanumGothicCoding-2e" transform="translate(49.999985 0)"/>
     <use xlink:href="#NanumGothicCoding-20" transform="translate(99.999969 0)"/>
     <use xlink:href="#NanumGothicCoding-d050" transform="translate(149.999954 0)"/>
     <use xlink:href="#NanumGothicCoding-be0c" transform="translate(249.999939 0)"/>
     <use xlink:href="#NanumGothicCoding-20" transform="translate(349.999924 0)"/>
     <use xlink:href="#NanumGothicCoding-d558" transform="translate(399.999908 0)"/>
     <use xlink:href="#NanumGothicCoding-b098" transform="translate(499.999893 0)"/>
     <use xlink:href="#NanumGothicCoding-b97c" transform="translate(599.999878 0)"/>
     <use xlink:href="#NanumGothicCoding-20" transform="translate(699.999863 0)"/>
     <use xlink:href="#NanumGothicCoding-d68c" transform="translate(749.999847 0)"/>
     <use xlink:href="#NanumGothicCoding-c804" transform="translate(849.999832 0)"/>
     <use xlink:href="#NanumGothicCoding-c2dc" transform="translate(949.999817 0)"/>
     <use xlink:href="#NanumGothicCoding-d0a4" transform="translate(1049.999802 0)"/>
     <use xlink:href="#NanumGothicCoding-ae30" transform="translate(1149.999786 0)"/>
    </g>
   </g>
   <g id="text_2">
    <!-- 2. 카메라를 WASD로 움직이기 -->
    <g style="fill: #111827" transform="translate(24.59808 50.802855) scale(0.11 -0.11)">
     <defs>
      <path id="NanumGothicCoding-32" d="M 442 -301 
Q 378 -301 342 -297 
Q 307 -294 291 -278 
Q 275 -262 272 -227 
Q 269 -192 269 -122 
L 269 19 
Q 269 102 320 147 
L 1286 1146 
Q 2317 2246 2310 2854 
Q 2317 3277 2125 3501 
Q 1907 3744 1523 3757 
Q 1069 3757 602 3469 
Q 518 3424 499 3507 
L 461 3718 
Q 442 3827 525 3859 
Q 781 4000 1017 4070 
Q 1254 4141 1510 4141 
Q 2022 4141 2387 3834 
Q 2790 3501 2790 2886 
Q 2790 2650 2681 2365 
Q 2573 2080 2336 1760 
Q 2112 1478 1971 1308 
Q 1830 1139 1600 890 
Q 1350 627 1206 480 
Q 1062 333 826 96 
L 2803 96 
Q 2899 90 2893 6 
L 2893 -218 
Q 2893 -301 2810 -301 
L 442 -301 
z
" transform="scale(0.015625)"/>
      <path id="NanumGothicCoding-ce74" d="M 806 2944 
Q 998 2944 1203 2950 
Q 1408 2957 1603 2963 
Q 1798 2970 1968 2976 
Q 2138 2982 2253 2989 
Q 2291 2989 2358 2995 
Q 2426 3002 2502 3005 
Q 2579 3008 2659 3014 
Q 2739 3021 2797 3034 
Q 2957 3482 3008 3974 
Q 3021 4070 2982 4105 
Q 2944 4141 2854 4141 
L 902 4141 
Q 826 4141 826 4224 
L 826 4448 
Q 826 4525 902 4525 
L 2976 4525 
Q 3277 4525 3373 4413 
Q 3469 4301 3456 4064 
Q 3424 3514 3238 2992 
Q 3053 2470 2723 2000 
Q 2394 1530 1930 1126 
Q 1466 723 877 410 
Q 794 365 755 429 
L 614 653 
Q 570 730 640 762 
Q 1338 1126 1834 1600 
Q 2330 2074 2618 2637 
Q 2528 2624 2438 2621 
Q 2349 2618 2291 2618 
Q 2138 2611 1949 2604 
Q 1760 2598 1565 2592 
Q 1370 2586 1174 2579 
Q 979 2573 806 2573 
Q 723 2573 723 2650 
L 723 2867 
Q 723 2944 806 2944 
z
M 5120 -806 
Q 5120 -896 5030 -896 
L 4768 -896 
Q 4678 -896 4678 -806 
L 4678 4915 
Q 4678 5005 4768 5005 
L 5030 5005 
Q 5120 5005 5120 4915 
L 5120 2656 
L 6003 2656 
Q 6042 2656 6070 2633 
Q 6099 2611 6099 2573 
L 6099 2355 
Q 6099 2323 6070 2297 
Q 6042 2272 6003 2272 
L 5120 2272 
L 5120 -806 
z
" transform="scale(0.015625)"/>
      <path id="NanumGothicCoding-ba54" d="M 678 4038 
Q 678 4307 780 4400 
Q 883 4493 1165 4493 
L 2694 4493 
Q 2848 4493 2941 4473 
Q 3034 4454 3088 4403 
Q 3142 4352 3161 4262 
Q 3181 4173 3181 4038 
L 3181 2803 
L 4000 2803 
L 4000 4806 
Q 4000 4896 4090 4896 
L 4333 4896 
Q 4422 4896 4422 4806 
L 4422 -563 
Q 4422 -653 4333 -653 
L 4090 -653 
Q 4000 -653 4000 -563 
L 4000 2419 
L 3181 2419 
L 3181 1267 
Q 3181 998 3078 905 
Q 2976 813 2694 813 
L 1165 813 
Q 1011 813 918 832 
Q 826 851 771 905 
Q 717 960 697 1046 
Q 678 1133 678 1267 
L 678 4038 
z
M 1274 4109 
Q 1184 4109 1152 4073 
Q 1120 4038 1120 3942 
L 1120 1363 
Q 1120 1267 1152 1232 
Q 1184 1197 1274 1197 
L 2586 1197 
Q 2675 1197 2707 1232 
Q 2739 1267 2739 1363 
L 2739 3942 
Q 2739 4038 2707 4073 
Q 2675 4109 2586 4109 
L 1274 4109 
z
M 5555 -806 
Q 5555 -896 5466 -896 
L 5222 -896 
Q 5133 -896 5133 -806 
L 5133 4915 
Q 5133 5005 5222 5005 
L 5466 5005 
Q 5555 5005 5555 4915 
L 5555 -806 
z
" transform="scale(0.015625)"/>
      <path id="NanumGothicCoding-b77c" d="M 1280 570 
Q 992 582 893 688 
Q 794 794 794 1062 
L 794 2330 
Q 794 2598 906 2691 
Q 1018 2784 1306 2784 
L 2918 2784 
Q 3008 2784 3033 2809 
Q 3059 2835 3059 2931 
L 3059 3994 
Q 3059 4090 3036 4115 
Q 3014 4141 2925 4141 
L 909 4141 
Q 877 4141 848 4160 
Q 819 4179 819 4211 
L 819 4454 
Q 819 4486 848 4505 
Q 877 4525 909 4525 
L 2995 4525 
Q 3149 4525 3245 4502 
Q 3341 4480 3398 4429 
Q 3456 4378 3478 4285 
Q 3501 4192 3501 4058 
L 3501 2854 
Q 3501 2586 3389 2493 
Q 3277 2400 2989 2400 
L 1370 2400 
Q 1280 2400 1257 2374 
Q 1235 2349 1235 2253 
L 1235 1094 
Q 1235 947 1376 947 
Q 2138 934 2838 1004 
Q 3539 1075 4198 1222 
Q 4288 1242 4307 1158 
L 4346 947 
Q 4358 864 4262 838 
Q 3923 762 3548 707 
Q 3174 653 2790 617 
Q 2406 582 2022 569 
Q 1638 557 1280 570 
z
M 5120 -806 
Q 5120 -896 5030 -896 
L 4768 -896 
Q 4678 -896 4678 -806 
L 4678 4915 
Q 4678 5005 4768 5005 
L 5030 5005 
Q 5120 5005 5120 4915 
L 5120 2586 
L 6003 2586 
Q 6042 2586 6070 2563 
Q 6099 2541 6099 2502 
L 6099 2285 
Q 6099 2253 6070 2227 
Q 6042 2202 6003 2202 
L 5120 2202 
L 5120 -806 
z
" transform="scale(0.015625)"/>
      <path id="NanumGothicCoding-57" d="M 2547 -211 
Q 2528 -275 2464 -275 
L 2016 -275 
Q 1946 -275 1933 -211 
L 1632 2925 
L 1594 3430 
L 1555 2925 
L 1222 -211 
Q 1203 -275 1139 -275 
L 691 -275 
Q 621 -275 608 -211 
L 109 4000 
Q 96 4032 121 4061 
Q 147 4090 186 4090 
L 442 4090 
Q 518 4090 544 4000 
L 864 851 
L 915 275 
L 973 851 
L 1280 3776 
Q 1293 3840 1328 3869 
Q 1363 3898 1421 3898 
L 1773 3898 
Q 1882 3898 1914 3776 
L 2189 851 
L 2246 275 
L 2304 851 
L 2656 4000 
Q 2669 4038 2694 4064 
Q 2720 4090 2758 4090 
L 3008 4090 
Q 3046 4090 3072 4061 
Q 3098 4032 3085 4000 
L 2547 -211 
z
" transform="scale(0.015625)"/>
      <path id="NanumGothicCoding-41" d="M 2170 1402 
L 1619 3603 
L 1056 1402 
L 2170 1402 
z
M 3046 -186 
Q 3078 -275 2989 -275 
L 2688 -275 
Q 2650 -275 2621 -262 
Q 2592 -250 2566 -186 
L 2259 992 
L 954 992 
L 627 -186 
Q 602 -250 573 -262 
Q 544 -275 506 -275 
L 205 -275 
Q 115 -275 147 -186 
L 1325 4013 
Q 1357 4090 1440 4090 
L 1830 4090 
Q 1914 4090 1946 4013 
L 3046 -186 
z
" transform="scale(0.015625)"/>
      <path id="NanumGothicCoding-53" d="M 512 -211 
Q 416 -179 435 -102 
L 461 192 
Q 474 237 499 256 
Q 525 275 563 250 
Q 768 134 953 83 
Q 1139 32 1408 32 
Q 1818 32 2077 259 
Q 2336 486 2336 838 
Q 2336 1043 2198 1216 
Q 2061 1389 1824 1542 
Q 1613 1683 1382 1817 
Q 1152 1952 941 2109 
Q 730 2266 573 2490 
Q 416 2714 416 3008 
Q 416 3296 521 3517 
Q 627 3738 809 3888 
Q 992 4038 1248 4105 
Q 1504 4173 1773 4173 
Q 1965 4173 2128 4147 
Q 2291 4122 2509 4038 
Q 2598 4013 2586 3936 
L 2534 3680 
Q 2515 3578 2432 3622 
Q 2266 3699 2106 3731 
Q 1946 3763 1766 3763 
Q 1568 3763 1395 3715 
Q 1222 3667 1116 3577 
Q 1011 3488 937 3353 
Q 864 3219 864 3027 
Q 864 2874 941 2739 
Q 1018 2605 1168 2483 
Q 1318 2362 1456 2278 
Q 1594 2195 1747 2099 
Q 1952 1971 2134 1849 
Q 2317 1728 2467 1584 
Q 2618 1440 2701 1257 
Q 2784 1075 2784 845 
Q 2784 550 2665 323 
Q 2547 96 2371 -54 
Q 2195 -205 1929 -291 
Q 1664 -378 1382 -378 
Q 1120 -378 925 -339 
Q 730 -301 512 -211 
z
" transform="scale(0.015625)"/>
      <path id="NanumGothicCoding-44" d="M 2496 1952 
Q 2496 2758 2112 3264 
Q 1766 3693 1267 3693 
L 826 3693 
L 826 128 
L 1210 128 
Q 2483 237 2496 1952 
z
M 2950 1926 
Q 2950 1344 2822 953 
Q 2694 563 2419 256 
Q 2157 -13 1849 -144 
Q 1542 -275 1197 -275 
L 512 -275 
Q 397 -275 377 -252 
Q 358 -230 358 -96 
L 358 3910 
Q 358 4045 377 4067 
Q 397 4090 512 4090 
L 1293 4090 
Q 2099 4090 2528 3430 
Q 2950 2822 2950 1926 
z
" transform="scale(0.015625)"/>
      <path id="NanumGothicCoding-b85c" d="M 2963 499 
L 2963 1613 
L 1683 1613 
Q 1382 1613 1289 1725 
Q 1197 1837 1197 2106 
L 1197 2906 
Q 1197 3181 1309 3270 
Q 1421 3360 1709 3360 
L 4595 3360 
Q 4685 3360 4707 3385 
Q 4730 3411 4730 3507 
L 4730 4173 
Q 4730 4269 4707 4294 
Q 4685 4320 4595 4320 
L 1286 4320 
Q 1254 4320 1225 4339 
Q 1197 4358 1197 4390 
L 1197 4634 
Q 1197 4666 1225 4685 
Q 1254 4704 1286 4704 
L 4666 4704 
Q 4819 4704 4915 4681 
Q 5011 4659 5068 4608 
Q 5126 4557 5148 4464 
Q 5171 4371 5171 4237 
L 5171 3437 
Q 5171 3162 5059 3072 
Q 4947 2982 4659 2982 
L 1773 2982 
Q 1683 2982 1660 2956 
Q 1638 2931 1638 2835 
L 1638 2144 
Q 1638 2054 1664 2025 
Q 1690 1997 1779 1997 
L 5216 1997 
Q 5248 1997 5277 1977 
Q 5306 1958 5306 1926 
L 5306 1690 
Q 5306 1658 5277 1635 
Q 5248 1613 5222 1613 
L 3405 1613 
L 3405 499 
L 5920 499 
Q 5952 499 5984 476 
Q 6016 454 6016 416 
L 6016 198 
Q 6016 166 5984 140 
Q 5952 115 5920 115 
L 480 115 
Q 442 115 413 140 
Q 384 166 384 198 
L 384 416 
Q 384 454 413 476 
Q 442 499 480 499 
L 2963 499 
z
" transform="scale(0.015625)"/>
      <path id="NanumGothicCoding-c6c0" d="M 1267 614 
Q 1267 883 1369 976 
Q 1472 1069 1754 1069 
L 2970 1069 
L 2970 1850 
L 480 1850 
Q 442 1850 413 1875 
Q 384 1901 384 1933 
L 384 2150 
Q 384 2189 413 2211 
Q 442 2234 480 2234 
L 5920 2234 
Q 5952 2234 5984 2211 
Q 6016 2189 6016 2150 
L 6016 1933 
Q 6016 1901 5984 1875 
Q 5952 1850 5920 1850 
L 3411 1850 
L 3411 1069 
L 4634 1069 
Q 4787 1069 4880 1049 
Q 4973 1030 5027 979 
Q 5082 928 5101 838 
Q 5120 749 5120 614 
L 5120 -390 
Q 5120 -659 5017 -752 
Q 4915 -845 4634 -845 
L 1754 -845 
Q 1600 -845 1507 -825 
Q 1414 -806 1360 -752 
Q 1306 -698 1286 -611 
Q 1267 -525 1267 -390 
L 1267 614 
z
M 3200 2790 
Q 2893 2790 2544 2835 
Q 2195 2880 1897 3001 
Q 1600 3123 1405 3334 
Q 1210 3546 1210 3878 
Q 1210 4205 1405 4416 
Q 1600 4627 1897 4745 
Q 2195 4864 2544 4912 
Q 2893 4960 3200 4960 
Q 3514 4960 3866 4905 
Q 4218 4851 4512 4723 
Q 4806 4595 4998 4390 
Q 5190 4186 5190 3878 
Q 5190 3571 4995 3363 
Q 4800 3155 4505 3027 
Q 4211 2899 3862 2844 
Q 3514 2790 3200 2790 
z
M 3200 4557 
Q 2989 4557 2723 4531 
Q 2458 4506 2227 4435 
Q 1997 4365 1837 4230 
Q 1677 4096 1677 3878 
Q 1677 3661 1837 3526 
Q 1997 3392 2227 3318 
Q 2458 3245 2723 3219 
Q 2989 3194 3200 3194 
Q 3411 3194 3673 3219 
Q 3936 3245 4169 3318 
Q 4403 3392 4563 3526 
Q 4723 3661 4723 3878 
Q 4723 4096 4563 4230 
Q 4403 4365 4169 4435 
Q 3936 4506 3670 4531 
Q 3405 4557 3200 4557 
z
M 1862 685 
Q 1773 685 1741 649 
Q 1709 614 1709 518 
L 1709 -294 
Q 1709 -390 1741 -425 
Q 1773 -461 1862 -461 
L 4525 -461 
Q 4614 -461 4646 -425 
Q 4678 -390 4678 -294 
L 4678 518 
Q 4678 614 4646 649 
Q 4614 685 4525 685 
L 1862 685 
z
" transform="scale(0.015625)"/>
      <path id="NanumGothicCoding-c9c1" d="M 3520 4166 
Q 3430 3917 3276 3667 
Q 3123 3418 2912 3174 
Q 3130 2950 3450 2739 
Q 3770 2528 4147 2368 
Q 4198 2349 4204 2313 
Q 4211 2278 4192 2246 
L 4064 2016 
Q 4045 1984 4006 1981 
Q 3968 1978 3936 1990 
Q 3795 2054 3632 2144 
Q 3469 2234 3296 2349 
Q 3123 2464 2953 2598 
Q 2784 2733 2637 2880 
Q 2266 2515 1821 2211 
Q 1376 1907 915 1702 
Q 883 1690 851 1683 
Q 819 1677 800 1709 
L 672 1933 
Q 653 1965 669 2000 
Q 685 2035 717 2048 
Q 1542 2445 2124 2957 
Q 2707 3469 3034 4141 
Q 3078 4230 3046 4268 
Q 3014 4307 2925 4307 
L 1050 4307 
Q 973 4307 973 4390 
L 973 4614 
Q 973 4691 1050 4691 
L 3098 4691 
Q 3430 4691 3526 4572 
Q 3622 4454 3520 4166 
z
M 1613 1133 
Q 1613 1171 1645 1190 
Q 1677 1210 1709 1210 
L 4858 1210 
Q 5158 1210 5251 1098 
Q 5344 986 5344 723 
L 5344 -832 
Q 5344 -922 5254 -922 
L 4992 -922 
Q 4902 -922 4902 -832 
L 4902 691 
Q 4902 781 4873 803 
Q 4845 826 4755 826 
L 1709 826 
Q 1677 826 1645 848 
Q 1613 870 1613 902 
L 1613 1133 
z
M 5344 1658 
Q 5344 1568 5254 1568 
L 4992 1568 
Q 4902 1568 4902 1658 
L 4902 4915 
Q 4902 5005 4992 5005 
L 5254 5005 
Q 5344 5005 5344 4915 
L 5344 1658 
z
" transform="scale(0.015625)"/>
      <path id="NanumGothicCoding-c774" d="M 3846 2566 
Q 3846 2208 3760 1843 
Q 3674 1478 3488 1184 
Q 3302 890 3011 701 
Q 2720 512 2310 512 
Q 1888 512 1597 697 
Q 1306 883 1130 1180 
Q 954 1478 877 1843 
Q 800 2208 800 2566 
Q 800 2944 877 3312 
Q 954 3680 1130 3974 
Q 1306 4269 1597 4448 
Q 1888 4627 2310 4627 
Q 2720 4627 3011 4448 
Q 3302 4269 3488 3977 
Q 3674 3686 3760 3318 
Q 3846 2950 3846 2566 
z
M 3392 2573 
Q 3392 2867 3331 3168 
Q 3270 3469 3142 3709 
Q 3014 3949 2809 4099 
Q 2605 4250 2310 4250 
Q 2003 4250 1801 4099 
Q 1600 3949 1478 3709 
Q 1357 3469 1305 3168 
Q 1254 2867 1254 2573 
Q 1254 2291 1302 1993 
Q 1350 1696 1472 1449 
Q 1594 1203 1798 1046 
Q 2003 890 2310 890 
Q 2605 890 2809 1046 
Q 3014 1203 3142 1449 
Q 3270 1696 3331 1993 
Q 3392 2291 3392 2573 
z
M 5344 -806 
Q 5344 -896 5254 -896 
L 4992 -896 
Q 4902 -896 4902 -806 
L 4902 4915 
Q 4902 5005 4992 5005 
L 5254 5005 
Q 5344 5005 5344 4915 
L 5344 -806 
z
" transform="scale(0.015625)"/>
     </defs>
     <use xlink:href="#NanumGothicCoding-32"/>
     <use xlink:href="#NanumGothicCoding-2e" transform="translate(49.999985 0)"/>
     <use xlink:href="#NanumGothicCoding-20" transform="translate(99.999969 0)"/>
     <use xlink:href="#NanumGothicCoding-ce74" transform="translate(149.999954 0)"/>
     <use xlink:href="#NanumGothicCoding-ba54" transform="translate(249.999939 0)"/>
     <use xlink:href="#NanumGothicCoding-b77c" transform="translate(349.999924 0)"/>
     <use xlink:href="#NanumGothicCoding-b97c" transform="translate(449.999908 0)"/>
     <use xlink:href="#NanumGothicCoding-20" transform="translate(549.999893 0)"/>
     <use xlink:href="#NanumGothicCoding-57" transform="translate(599.999878 0)"/>
     <use xlink:href="#NanumGothicCoding-41" transform="translate(649.999863 0)"/>
     <use xlink:href="#NanumGothicCoding-53" transform="translate(699.999847 0)"/>
     <use xlink:href="#NanumGothicCoding-44" transform="translate(749.999832 0)"/>
     <use xlink:href="#NanumGothicCoding-b85c" transform="translate(799.999817 0)"/>
     <use xlink:href="#NanumGothicCoding-20" transform="translate(899.999802 0)"/>
     <use xlink:href="#NanumGothicCoding-c6c0" transform="translate(949.999786 0)"/>
     <use xlink:href="#NanumGothicCoding-c9c1" transform="translate(1049.999771 0)"/>
     <use xlink:href="#NanumGothicCoding-c774" transform="translate(1149.999756 0)"/>
     <use xlink:href="#NanumGothicCoding-ae30" transform="translate(1249.999741 0)"/>
    </g>
   </g>
   <g id="text_3">
    <!-- 3. 여러 오브젝트에 각자 modelMatrix 적용하기 -->
    <g style="fill: #111827" transform="translate(24.59808 68.488215) scale(0.11 -0.11)">
     <defs>
      <path id="NanumGothicCoding-33" d="M 461 -186 
Q 365 -160 378 -38 
L 403 192 
Q 416 269 506 230 
Q 704 147 928 96 
Q 1152 45 1382 45 
Q 1837 45 2125 262 
Q 2515 538 2515 973 
Q 2509 1798 1222 1798 
L 1088 1798 
Q 1005 1798 1005 1869 
L 1005 2106 
Q 1005 2189 1088 2189 
L 1120 2189 
Q 1536 2189 1914 2330 
Q 2483 2560 2483 3046 
Q 2483 3219 2396 3360 
Q 2310 3501 2125 3597 
Q 2003 3667 1833 3708 
Q 1664 3750 1453 3750 
Q 1254 3750 1056 3692 
Q 858 3635 678 3539 
Q 602 3507 589 3590 
L 563 3821 
Q 550 3910 640 3949 
Q 851 4045 1068 4093 
Q 1286 4141 1498 4141 
Q 2061 4141 2483 3872 
Q 2931 3552 2931 3046 
Q 2931 2643 2650 2368 
Q 2374 2112 1978 2010 
Q 2144 1990 2345 1894 
Q 2547 1798 2669 1664 
Q 2816 1504 2889 1321 
Q 2963 1139 2963 947 
Q 2963 666 2848 432 
Q 2733 198 2496 13 
Q 2259 -173 1987 -259 
Q 1715 -346 1395 -346 
Q 1184 -346 944 -310 
Q 704 -275 461 -186 
z
" transform="scale(0.015625)"/>
      <path id="NanumGothicCoding-c5ec" d="M 5344 -806 
Q 5344 -896 5254 -896 
L 4992 -896 
Q 4902 -896 4902 -806 
L 4902 1446 
L 3546 1446 
Q 3456 1248 3334 1075 
Q 3213 902 3049 777 
Q 2886 653 2681 582 
Q 2477 512 2227 512 
Q 1805 512 1513 697 
Q 1222 883 1046 1180 
Q 870 1478 793 1843 
Q 717 2208 717 2566 
Q 717 2944 793 3312 
Q 870 3680 1046 3974 
Q 1222 4269 1513 4448 
Q 1805 4627 2227 4627 
Q 2477 4627 2678 4560 
Q 2880 4493 3043 4371 
Q 3206 4250 3328 4083 
Q 3450 3917 3539 3718 
L 4902 3718 
L 4902 4915 
Q 4902 5005 4992 5005 
L 5254 5005 
Q 5344 5005 5344 4915 
L 5344 -806 
z
M 3309 2573 
Q 3309 2861 3248 3155 
Q 3187 3450 3059 3686 
Q 2931 3923 2726 4070 
Q 2522 4218 2227 4218 
Q 1920 4218 1718 4070 
Q 1517 3923 1395 3686 
Q 1274 3450 1222 3155 
Q 1171 2861 1171 2573 
Q 1171 2298 1219 2003 
Q 1267 1709 1388 1469 
Q 1510 1229 1715 1075 
Q 1920 922 2227 922 
Q 2522 922 2726 1075 
Q 2931 1229 3059 1469 
Q 3187 1709 3248 2003 
Q 3309 2298 3309 2573 
z
M 3763 2566 
Q 3763 2189 3667 1824 
L 4902 1824 
L 4902 3341 
L 3667 3341 
Q 3763 2963 3763 2566 
z
" transform="scale(0.015625)"/>
      <path id="NanumGothicCoding-b7ec" d="M 1344 550 
Q 1056 563 957 668 
Q 858 774 858 1043 
L 858 2317 
Q 858 2586 970 2678 
Q 1082 2771 1370 2771 
L 2752 2771 
Q 2842 2771 2867 2796 
Q 2893 2822 2893 2918 
L 2893 3994 
Q 2893 4090 2870 4115 
Q 2848 4141 2758 4141 
L 973 4141 
Q 941 4141 912 4160 
Q 883 4179 883 4211 
L 883 4454 
Q 883 4486 912 4505 
Q 941 4525 973 4525 
L 2829 4525 
Q 2982 4525 3078 4502 
Q 3174 4480 3232 4429 
Q 3290 4378 3312 4285 
Q 3334 4192 3334 4058 
L 3334 2842 
Q 3334 2573 3222 2480 
Q 3110 2387 2822 2387 
L 1434 2387 
Q 1344 2387 1321 2361 
Q 1299 2336 1299 2240 
L 1299 1075 
Q 1299 928 1440 928 
Q 2061 915 2633 963 
Q 3206 1011 3814 1139 
Q 3904 1158 3923 1075 
L 3962 864 
Q 3974 774 3878 755 
Q 3302 634 2643 576 
Q 1984 518 1344 550 
z
M 4902 2746 
L 4902 4915 
Q 4902 5005 4992 5005 
L 5254 5005 
Q 5344 5005 5344 4915 
L 5344 -806 
Q 5344 -896 5254 -896 
L 4992 -896 
Q 4902 -896 4902 -806 
L 4902 2362 
L 3725 2362 
Q 3642 2362 3642 2438 
L 3642 2669 
Q 3642 2746 3725 2746 
L 4902 2746 
z
" transform="scale(0.015625)"/>
      <path id="NanumGothicCoding-c624" d="M 5920 499 
Q 5952 499 5984 476 
Q 6016 454 6016 416 
L 6016 198 
Q 6016 166 5984 140 
Q 5952 115 5920 115 
L 480 115 
Q 442 115 413 140 
Q 384 166 384 198 
L 384 416 
Q 384 454 413 476 
Q 442 499 480 499 
L 2963 499 
L 2963 1830 
Q 2650 1856 2326 1945 
Q 2003 2035 1737 2208 
Q 1472 2381 1305 2637 
Q 1139 2893 1139 3251 
Q 1139 3642 1334 3914 
Q 1530 4186 1834 4352 
Q 2138 4518 2499 4595 
Q 2861 4672 3187 4672 
Q 3520 4672 3885 4595 
Q 4250 4518 4547 4352 
Q 4845 4186 5040 3914 
Q 5235 3642 5235 3251 
Q 5235 2893 5068 2633 
Q 4902 2374 4640 2204 
Q 4378 2035 4051 1942 
Q 3725 1850 3405 1830 
L 3405 499 
L 5920 499 
z
M 3187 4269 
Q 2963 4269 2691 4224 
Q 2419 4179 2179 4064 
Q 1939 3949 1776 3750 
Q 1613 3552 1613 3245 
Q 1613 2938 1776 2739 
Q 1939 2541 2179 2429 
Q 2419 2317 2691 2272 
Q 2963 2227 3187 2227 
Q 3405 2227 3677 2272 
Q 3949 2317 4189 2429 
Q 4429 2541 4595 2739 
Q 4762 2938 4762 3245 
Q 4762 3552 4595 3750 
Q 4429 3949 4189 4064 
Q 3949 4179 3677 4224 
Q 3405 4269 3187 4269 
z
" transform="scale(0.015625)"/>
      <path id="NanumGothicCoding-c81d" d="M 2989 4141 
Q 2867 3846 2732 3596 
Q 2598 3347 2432 3123 
Q 2656 2842 2902 2634 
Q 3149 2426 3469 2227 
Q 3558 2170 3507 2099 
L 3347 1894 
Q 3296 1824 3213 1882 
Q 2880 2106 2640 2320 
Q 2400 2534 2176 2803 
Q 1926 2528 1606 2265 
Q 1286 2003 858 1715 
Q 781 1658 736 1709 
L 582 1901 
Q 531 1978 602 2022 
Q 986 2278 1270 2512 
Q 1555 2746 1779 2992 
Q 2003 3238 2176 3507 
Q 2349 3776 2509 4115 
Q 2554 4205 2522 4243 
Q 2490 4282 2400 4282 
L 890 4282 
Q 813 4282 813 4365 
L 813 4589 
Q 813 4666 890 4666 
L 2573 4666 
Q 2906 4666 3005 4547 
Q 3104 4429 2989 4141 
z
M 1632 1114 
Q 1632 1152 1664 1171 
Q 1696 1190 1728 1190 
L 5069 1190 
Q 5370 1190 5462 1078 
Q 5555 966 5555 704 
L 5555 -832 
Q 5555 -922 5466 -922 
L 5203 -922 
Q 5114 -922 5114 -832 
L 5114 672 
Q 5114 762 5085 784 
Q 5056 806 4966 806 
L 1728 806 
Q 1696 806 1664 828 
Q 1632 851 1632 883 
L 1632 1114 
z
M 4000 3507 
L 4000 4806 
Q 4000 4896 4090 4896 
L 4333 4896 
Q 4422 4896 4422 4806 
L 4422 1715 
Q 4422 1626 4333 1626 
L 4090 1626 
Q 4000 1626 4000 1715 
L 4000 3123 
L 3104 3123 
Q 3021 3123 3021 3200 
L 3021 3430 
Q 3021 3507 3104 3507 
L 4000 3507 
z
M 5555 1619 
Q 5555 1530 5466 1530 
L 5222 1530 
Q 5133 1530 5133 1619 
L 5133 4915 
Q 5133 5005 5222 5005 
L 5466 5005 
Q 5555 5005 5555 4915 
L 5555 1619 
z
" transform="scale(0.015625)"/>
      <path id="NanumGothicCoding-d2b8" d="M 5222 1766 
Q 5222 1677 5139 1677 
L 1683 1677 
Q 1402 1677 1299 1769 
Q 1197 1862 1197 2131 
L 1197 4211 
Q 1197 4480 1299 4573 
Q 1402 4666 1683 4666 
L 5094 4666 
Q 5178 4666 5178 4582 
L 5178 4371 
Q 5178 4282 5094 4282 
L 1792 4282 
Q 1702 4282 1670 4246 
Q 1638 4211 1638 4115 
L 1638 3360 
L 5005 3360 
Q 5094 3360 5094 3290 
L 5094 3072 
Q 5094 2989 5011 2989 
L 1638 2989 
L 1638 2227 
Q 1638 2138 1670 2099 
Q 1702 2061 1792 2061 
L 5139 2061 
Q 5222 2061 5222 1978 
L 5222 1766 
z
M 5920 499 
Q 5952 499 5984 476 
Q 6016 454 6016 416 
L 6016 198 
Q 6016 166 5984 140 
Q 5952 115 5920 115 
L 480 115 
Q 442 115 413 140 
Q 384 166 384 198 
L 384 416 
Q 384 454 413 476 
Q 442 499 480 499 
L 5920 499 
z
" transform="scale(0.015625)"/>
      <path id="NanumGothicCoding-c5d0" d="M 4422 -563 
Q 4422 -653 4333 -653 
L 4090 -653 
Q 4000 -653 4000 -563 
L 4000 2419 
L 3277 2419 
Q 3251 1978 3136 1648 
Q 3021 1318 2835 1097 
Q 2650 877 2410 768 
Q 2170 659 1901 659 
Q 1613 659 1369 784 
Q 1126 909 947 1155 
Q 768 1402 665 1773 
Q 563 2144 563 2643 
Q 563 3142 665 3510 
Q 768 3878 950 4124 
Q 1133 4371 1376 4489 
Q 1619 4608 1907 4608 
Q 2182 4608 2422 4499 
Q 2662 4390 2848 4166 
Q 3034 3942 3146 3603 
Q 3258 3264 3277 2803 
L 4000 2803 
L 4000 4806 
Q 4000 4896 4090 4896 
L 4333 4896 
Q 4422 4896 4422 4806 
L 4422 -563 
z
M 2835 2643 
Q 2835 2938 2777 3219 
Q 2720 3501 2605 3725 
Q 2490 3949 2314 4086 
Q 2138 4224 1901 4224 
Q 1651 4224 1481 4083 
Q 1312 3942 1206 3715 
Q 1101 3488 1056 3206 
Q 1011 2925 1011 2643 
Q 1011 2362 1062 2077 
Q 1114 1792 1219 1561 
Q 1325 1331 1494 1187 
Q 1664 1043 1901 1043 
Q 2138 1043 2314 1184 
Q 2490 1325 2605 1552 
Q 2720 1779 2777 2067 
Q 2835 2355 2835 2643 
z
M 5555 -806 
Q 5555 -896 5466 -896 
L 5222 -896 
Q 5133 -896 5133 -806 
L 5133 4915 
Q 5133 5005 5222 5005 
L 5466 5005 
Q 5555 5005 5555 4915 
L 5555 -806 
z
" transform="scale(0.015625)"/>
      <path id="NanumGothicCoding-ac01" d="M 3482 4243 
Q 3334 3354 2707 2675 
Q 2080 1997 890 1498 
Q 787 1453 749 1536 
L 653 1747 
Q 627 1798 649 1830 
Q 672 1862 704 1875 
Q 1722 2298 2301 2880 
Q 2880 3462 3002 4134 
Q 3040 4314 2848 4314 
L 877 4314 
Q 800 4314 800 4397 
L 800 4621 
Q 800 4698 877 4698 
L 2995 4698 
Q 3302 4698 3411 4589 
Q 3520 4480 3482 4243 
z
M 1389 1165 
Q 1389 1203 1421 1222 
Q 1453 1242 1485 1242 
L 4634 1242 
Q 4934 1242 5027 1130 
Q 5120 1018 5120 755 
L 5120 -832 
Q 5120 -922 5030 -922 
L 4768 -922 
Q 4678 -922 4678 -832 
L 4678 723 
Q 4678 813 4649 835 
Q 4621 858 4531 858 
L 1485 858 
Q 1453 858 1421 880 
Q 1389 902 1389 934 
L 1389 1165 
z
M 5120 1664 
Q 5120 1574 5030 1574 
L 4768 1574 
Q 4678 1574 4678 1664 
L 4678 4915 
Q 4678 5005 4768 5005 
L 5030 5005 
Q 5120 5005 5120 4915 
L 5120 3366 
L 6003 3366 
Q 6042 3366 6070 3344 
Q 6099 3322 6099 3283 
L 6099 3066 
Q 6099 3034 6070 3008 
Q 6042 2982 6003 2982 
L 5120 2982 
L 5120 1664 
z
" transform="scale(0.015625)"/>
      <path id="NanumGothicCoding-c790" d="M 3866 858 
Q 3846 826 3817 819 
Q 3789 813 3738 851 
Q 3584 966 3411 1116 
Q 3238 1267 3072 1436 
Q 2906 1606 2746 1788 
Q 2586 1971 2451 2150 
Q 2131 1747 1721 1379 
Q 1312 1011 787 646 
Q 755 627 723 617 
Q 691 608 672 634 
L 518 832 
Q 493 864 499 899 
Q 506 934 531 954 
Q 1555 1677 2128 2419 
Q 2701 3162 2925 3968 
Q 2950 4058 2928 4099 
Q 2906 4141 2816 4141 
L 877 4141 
Q 800 4141 800 4224 
L 800 4448 
Q 800 4525 890 4525 
L 2989 4525 
Q 3322 4525 3411 4409 
Q 3501 4294 3411 4000 
Q 3162 3181 2707 2496 
Q 2854 2291 3020 2092 
Q 3187 1894 3353 1718 
Q 3520 1542 3686 1398 
Q 3853 1254 4000 1158 
Q 4032 1133 4032 1101 
Q 4032 1069 4013 1043 
L 3866 858 
z
M 5120 -806 
Q 5120 -896 5030 -896 
L 4768 -896 
Q 4678 -896 4678 -806 
L 4678 4915 
Q 4678 5005 4768 5005 
L 5030 5005 
Q 5120 5005 5120 4915 
L 5120 2586 
L 6003 2586 
Q 6042 2586 6070 2563 
Q 6099 2541 6099 2502 
L 6099 2285 
Q 6099 2253 6070 2227 
Q 6042 2202 6003 2202 
L 5120 2202 
L 5120 -806 
z
" transform="scale(0.015625)"/>
      <path id="NanumGothicCoding-6d" d="M 269 2118 
Q 269 2387 262 2544 
Q 256 2701 243 2842 
Q 243 2931 333 2931 
L 570 2931 
Q 659 2931 659 2842 
L 653 2566 
Q 698 2771 832 2889 
Q 966 3008 1101 3008 
Q 1338 3008 1482 2816 
Q 1626 2624 1664 2362 
Q 1683 2573 1804 2777 
Q 1926 2982 2202 3008 
Q 2445 3008 2585 2921 
Q 2726 2835 2809 2675 
Q 2893 2515 2925 2304 
Q 2957 2093 2957 1856 
L 2957 -186 
Q 2957 -275 2867 -275 
L 2624 -275 
Q 2534 -275 2534 -192 
L 2534 1766 
Q 2534 2611 2195 2611 
Q 2067 2611 1990 2508 
Q 1914 2406 1878 2252 
Q 1843 2099 1827 1868 
Q 1811 1638 1818 1382 
L 1818 -186 
Q 1818 -275 1728 -275 
L 1498 -275 
Q 1408 -275 1408 -186 
L 1408 1766 
Q 1389 2611 1050 2611 
Q 870 2611 777 2355 
Q 685 2099 691 1619 
L 691 -186 
Q 691 -275 602 -275 
L 358 -275 
Q 269 -275 269 -186 
L 269 2118 
z
" transform="scale(0.015625)"/>
      <path id="NanumGothicCoding-6f" d="M 2490 1331 
Q 2490 1581 2432 1824 
Q 2374 2067 2253 2266 
Q 2010 2650 1594 2650 
Q 1158 2650 934 2266 
Q 813 2067 758 1824 
Q 704 1581 704 1331 
Q 704 1056 755 813 
Q 806 570 934 397 
Q 1216 6 1594 6 
Q 2035 6 2253 397 
Q 2381 570 2435 813 
Q 2490 1056 2490 1331 
z
M 2931 1331 
Q 2931 979 2851 668 
Q 2771 358 2605 147 
Q 2413 -102 2163 -240 
Q 1914 -378 1594 -378 
Q 1274 -378 1024 -240 
Q 774 -102 582 147 
Q 429 378 349 678 
Q 269 979 269 1331 
Q 269 2054 582 2515 
Q 947 3034 1594 3034 
Q 1920 3034 2166 2909 
Q 2413 2784 2605 2515 
Q 2931 2048 2931 1331 
z
" transform="scale(0.015625)"/>
      <path id="NanumGothicCoding-64" d="M 2816 -192 
Q 2816 -275 2726 -275 
L 2477 -275 
Q 2387 -275 2387 -192 
L 2387 275 
Q 2125 -339 1491 -339 
Q 1197 -339 957 -198 
Q 717 -58 544 208 
Q 371 474 297 781 
Q 224 1088 224 1427 
Q 224 2029 557 2531 
Q 890 3034 1491 3034 
Q 1811 3034 2038 2874 
Q 2266 2714 2387 2464 
L 2387 4371 
Q 2387 4454 2477 4454 
L 2726 4454 
Q 2816 4454 2816 4371 
L 2816 -192 
z
M 678 1357 
Q 672 1158 717 924 
Q 762 691 867 483 
Q 973 275 1133 153 
Q 1293 32 1530 32 
Q 1766 32 1926 153 
Q 2086 275 2192 483 
Q 2298 691 2336 924 
Q 2374 1158 2374 1357 
Q 2374 1542 2336 1782 
Q 2298 2022 2192 2227 
Q 2086 2432 1926 2553 
Q 1766 2675 1530 2675 
Q 1293 2675 1133 2553 
Q 973 2432 864 2227 
Q 755 2022 713 1782 
Q 672 1542 678 1357 
z
" transform="scale(0.015625)"/>
      <path id="NanumGothicCoding-65" d="M 2458 1536 
Q 2458 1734 2410 1939 
Q 2362 2144 2266 2298 
Q 2042 2669 1626 2669 
Q 1210 2669 973 2291 
Q 864 2106 806 1907 
Q 749 1709 742 1536 
L 2458 1536 
z
M 736 1171 
Q 730 966 810 726 
Q 890 486 1030 336 
Q 1171 186 1350 96 
Q 1530 6 1786 6 
Q 2010 6 2202 51 
Q 2394 96 2586 198 
Q 2662 230 2669 154 
L 2669 -141 
Q 2669 -192 2598 -224 
Q 2400 -301 2211 -339 
Q 2022 -378 1754 -378 
Q 1069 -378 665 80 
Q 262 538 262 1312 
Q 262 2016 659 2541 
Q 1075 3034 1632 3034 
Q 1978 3034 2205 2912 
Q 2432 2790 2611 2541 
Q 2931 2112 2931 1376 
Q 2931 1299 2928 1257 
Q 2925 1216 2905 1197 
Q 2886 1178 2838 1174 
Q 2790 1171 2701 1171 
L 736 1171 
z
" transform="scale(0.015625)"/>
      <path id="NanumGothicCoding-6c" d="M 2605 122 
Q 2694 122 2694 32 
L 2694 -186 
Q 2694 -275 2605 -275 
L 531 -275 
Q 442 -275 442 -186 
L 442 32 
Q 442 122 531 122 
L 1389 122 
L 1389 4032 
L 710 4032 
Q 621 4032 621 4122 
L 621 4339 
Q 621 4429 710 4429 
L 1760 4429 
Q 1850 4429 1850 4339 
L 1850 122 
L 2605 122 
z
" transform="scale(0.015625)"/>
      <path id="NanumGothicCoding-4d" d="M 2867 -186 
Q 2867 -275 2778 -275 
L 2534 -275 
Q 2445 -275 2445 -186 
L 2445 3674 
L 2362 3187 
Q 1869 19 1869 13 
Q 1837 -51 1773 -51 
L 1421 -51 
Q 1376 -51 1357 -35 
Q 1338 -19 1325 13 
L 832 3187 
Q 819 3283 793 3414 
Q 768 3546 749 3674 
L 749 -186 
Q 749 -275 659 -275 
L 416 -275 
Q 326 -275 326 -186 
L 326 3910 
Q 326 4045 348 4067 
Q 371 4090 506 4090 
L 986 4090 
Q 1037 4090 1059 4077 
Q 1082 4064 1101 4013 
L 1536 966 
L 1600 480 
L 1664 966 
L 2099 4019 
Q 2125 4090 2202 4090 
L 2688 4090 
Q 2822 4090 2844 4067 
Q 2867 4045 2867 3910 
L 2867 -186 
z
" transform="scale(0.015625)"/>
      <path id="NanumGothicCoding-61" d="M 2368 1402 
L 2246 1402 
Q 1888 1414 1645 1376 
Q 1402 1338 1229 1254 
Q 1018 1165 902 976 
Q 787 787 787 589 
Q 787 474 838 342 
Q 890 211 998 141 
Q 1184 -13 1414 -13 
Q 1638 -13 1785 73 
Q 1933 160 2073 342 
Q 2214 525 2291 755 
Q 2368 986 2368 1203 
L 2368 1402 
z
M 723 2400 
Q 691 2381 662 2390 
Q 634 2400 634 2432 
L 634 2682 
Q 634 2765 723 2803 
Q 941 2931 1168 2982 
Q 1395 3034 1658 3034 
Q 2214 3046 2508 2713 
Q 2803 2381 2803 1888 
L 2803 397 
Q 2803 218 2809 77 
Q 2816 -64 2829 -192 
Q 2829 -275 2739 -275 
L 2509 -275 
Q 2419 -275 2419 -192 
L 2419 262 
Q 2285 -38 2009 -208 
Q 1734 -378 1363 -378 
Q 813 -378 512 -19 
Q 410 96 358 256 
Q 307 416 307 570 
Q 307 902 489 1180 
Q 672 1459 1050 1600 
Q 1414 1766 2285 1766 
L 2368 1766 
L 2368 1914 
Q 2368 2240 2185 2454 
Q 2003 2669 1658 2669 
Q 1382 2669 1168 2608 
Q 954 2547 723 2400 
z
" transform="scale(0.015625)"/>
      <path id="NanumGothicCoding-74" d="M 2733 -269 
Q 2464 -378 2106 -378 
Q 1523 -378 1357 -38 
Q 1248 192 1248 774 
L 1248 2413 
L 416 2413 
Q 326 2413 326 2502 
L 326 2694 
Q 326 2784 416 2784 
L 1248 2784 
L 1248 3686 
Q 1248 3782 1331 3782 
L 1600 3782 
Q 1683 3782 1683 3686 
L 1683 2784 
L 2714 2784 
Q 2803 2784 2803 2694 
L 2803 2502 
Q 2803 2413 2714 2413 
L 1683 2413 
L 1683 486 
Q 1683 6 2208 6 
Q 2470 6 2707 115 
Q 2739 128 2768 115 
Q 2797 102 2797 64 
L 2810 -141 
Q 2822 -230 2733 -269 
z
" transform="scale(0.015625)"/>
      <path id="NanumGothicCoding-72" d="M 1946 122 
Q 2035 122 2035 32 
L 2035 -186 
Q 2035 -275 1946 -275 
L 506 -275 
Q 416 -275 416 -186 
L 416 32 
Q 416 122 506 122 
L 883 122 
L 883 2534 
L 390 2534 
Q 301 2534 301 2624 
L 301 2842 
Q 301 2931 390 2931 
L 1165 2931 
Q 1254 2931 1254 2842 
L 1254 2214 
Q 1645 3021 2381 3021 
Q 2758 3021 3059 2874 
Q 3123 2848 3129 2809 
Q 3136 2771 3117 2726 
L 3040 2496 
Q 3021 2451 2992 2454 
Q 2963 2458 2918 2483 
Q 2637 2618 2317 2618 
Q 1792 2592 1485 2048 
Q 1312 1715 1312 1178 
L 1312 122 
L 1946 122 
z
" transform="scale(0.015625)"/>
      <path id="NanumGothicCoding-69" d="M 2656 122 
Q 2746 122 2746 32 
L 2746 -186 
Q 2746 -275 2656 -275 
L 614 -275 
Q 525 -275 525 -186 
L 525 32 
Q 525 122 614 122 
L 1434 122 
L 1434 2534 
L 685 2534 
Q 595 2534 595 2624 
L 595 2842 
Q 595 2931 685 2931 
L 1805 2931 
Q 1894 2931 1894 2842 
L 1894 122 
L 2656 122 
z
M 1235 3968 
Q 1235 4115 1340 4220 
Q 1446 4326 1594 4326 
Q 1741 4326 1846 4220 
Q 1952 4115 1952 3968 
Q 1952 3821 1846 3715 
Q 1741 3610 1594 3610 
Q 1446 3610 1340 3715 
Q 1235 3821 1235 3968 
z
" transform="scale(0.015625)"/>
      <path id="NanumGothicCoding-78" d="M 2950 -186 
Q 2970 -218 2954 -246 
Q 2938 -275 2899 -275 
L 2579 -275 
Q 2502 -275 2451 -186 
L 1600 1082 
L 749 -186 
Q 691 -275 621 -275 
L 301 -275 
Q 262 -275 246 -246 
Q 230 -218 250 -186 
L 1357 1434 
L 378 2842 
Q 358 2874 374 2902 
Q 390 2931 429 2931 
L 749 2931 
Q 826 2931 877 2842 
L 1600 1786 
L 2323 2842 
Q 2381 2931 2451 2931 
L 2771 2931 
Q 2810 2931 2826 2902 
Q 2842 2874 2822 2842 
L 1843 1434 
L 2950 -186 
z
" transform="scale(0.015625)"/>
      <path id="NanumGothicCoding-c801" d="M 3501 4166 
Q 3411 3904 3248 3648 
Q 3085 3392 2861 3142 
Q 3078 2912 3398 2704 
Q 3718 2496 4096 2336 
Q 4147 2317 4153 2281 
Q 4160 2246 4141 2214 
L 4013 1984 
Q 3994 1952 3955 1949 
Q 3917 1946 3885 1958 
Q 3744 2022 3581 2112 
Q 3418 2202 3245 2317 
Q 3072 2432 2902 2566 
Q 2733 2701 2586 2848 
Q 2221 2490 1782 2195 
Q 1344 1901 896 1702 
Q 864 1690 832 1683 
Q 800 1677 781 1709 
L 653 1933 
Q 634 1965 650 2000 
Q 666 2035 698 2048 
Q 1523 2445 2105 2957 
Q 2688 3469 3014 4141 
Q 3059 4230 3027 4268 
Q 2995 4307 2906 4307 
L 1030 4307 
Q 954 4307 954 4390 
L 954 4614 
Q 954 4691 1030 4691 
L 3078 4691 
Q 3411 4691 3507 4572 
Q 3603 4454 3501 4166 
z
M 1613 1133 
Q 1613 1171 1645 1190 
Q 1677 1210 1709 1210 
L 4858 1210 
Q 5158 1210 5251 1098 
Q 5344 986 5344 723 
L 5344 -832 
Q 5344 -922 5254 -922 
L 4992 -922 
Q 4902 -922 4902 -832 
L 4902 691 
Q 4902 781 4873 803 
Q 4845 826 4755 826 
L 1709 826 
Q 1677 826 1645 848 
Q 1613 870 1613 902 
L 1613 1133 
z
M 4902 3462 
L 4902 4915 
Q 4902 5005 4992 5005 
L 5254 5005 
Q 5344 5005 5344 4915 
L 5344 1651 
Q 5344 1562 5254 1562 
L 4992 1562 
Q 4902 1562 4902 1651 
L 4902 3078 
L 3693 3078 
Q 3610 3078 3610 3155 
L 3610 3386 
Q 3610 3462 3693 3462 
L 4902 3462 
z
" transform="scale(0.015625)"/>
      <path id="NanumGothicCoding-c6a9" d="M 5920 1978 
Q 5952 1978 5984 1955 
Q 6016 1933 6016 1894 
L 6016 1677 
Q 6016 1645 5984 1619 
Q 5952 1594 5920 1594 
L 480 1594 
Q 442 1594 413 1619 
Q 384 1645 384 1677 
L 384 1894 
Q 384 1933 413 1955 
Q 442 1978 480 1978 
L 1933 1978 
L 1933 3008 
Q 1626 3136 1418 3347 
Q 1210 3558 1210 3885 
Q 1210 4198 1411 4409 
Q 1613 4621 1910 4742 
Q 2208 4864 2557 4915 
Q 2906 4966 3200 4966 
Q 3501 4966 3849 4908 
Q 4198 4851 4496 4723 
Q 4794 4595 4992 4387 
Q 5190 4179 5190 3885 
Q 5190 3571 4982 3360 
Q 4774 3149 4461 3021 
L 4461 1978 
L 5920 1978 
z
M 5184 109 
Q 5184 -218 4979 -422 
Q 4774 -627 4473 -742 
Q 4173 -858 3824 -899 
Q 3475 -941 3187 -941 
Q 2995 -941 2774 -921 
Q 2554 -902 2333 -860 
Q 2112 -819 1907 -742 
Q 1702 -666 1545 -547 
Q 1389 -429 1293 -269 
Q 1197 -109 1197 109 
Q 1197 429 1401 630 
Q 1606 832 1907 947 
Q 2208 1062 2557 1107 
Q 2906 1152 3187 1152 
Q 3475 1152 3824 1110 
Q 4173 1069 4477 953 
Q 4781 838 4982 633 
Q 5184 429 5184 109 
z
M 3200 4563 
Q 2995 4563 2732 4537 
Q 2470 4512 2236 4435 
Q 2003 4358 1840 4224 
Q 1677 4090 1677 3878 
Q 1677 3667 1840 3532 
Q 2003 3398 2236 3321 
Q 2470 3245 2732 3219 
Q 2995 3194 3200 3194 
Q 3398 3194 3660 3219 
Q 3923 3245 4160 3321 
Q 4397 3398 4560 3532 
Q 4723 3667 4723 3878 
Q 4723 4090 4560 4224 
Q 4397 4358 4160 4435 
Q 3923 4512 3660 4537 
Q 3398 4563 3200 4563 
z
M 4717 102 
Q 4717 314 4544 438 
Q 4371 563 4128 633 
Q 3885 704 3625 726 
Q 3366 749 3187 749 
Q 3002 749 2742 726 
Q 2483 704 2243 633 
Q 2003 563 1833 438 
Q 1664 314 1664 102 
Q 1664 -102 1833 -230 
Q 2003 -358 2243 -425 
Q 2483 -493 2742 -515 
Q 3002 -538 3187 -538 
Q 3366 -538 3628 -515 
Q 3891 -493 4131 -425 
Q 4371 -358 4544 -230 
Q 4717 -102 4717 102 
z
M 3200 2797 
Q 3014 2797 2800 2813 
Q 2586 2829 2374 2880 
L 2374 1978 
L 4019 1978 
L 4019 2886 
Q 3808 2835 3597 2816 
Q 3386 2797 3200 2797 
z
" transform="scale(0.015625)"/>
     </defs>
     <use xlink:href="#NanumGothicCoding-33"/>
     <use xlink:href="#NanumGothicCoding-2e" transform="translate(49.999985 0)"/>
     <use xlink:href="#NanumGothicCoding-20" transform="translate(99.999969 0)"/>
     <use xlink:href="#NanumGothicCoding-c5ec" transform="translate(149.999954 0)"/>
     <use xlink:href="#NanumGothicCoding-b7ec" transform="translate(249.999939 0)"/>
     <use xlink:href="#NanumGothicCoding-20" transform="translate(349.999924 0)"/>
     <use xlink:href="#NanumGothicCoding-c624" transform="translate(399.999908 0)"/>
     <use xlink:href="#NanumGothicCoding-be0c" transform="translate(499.999893 0)"/>
     <use xlink:href="#NanumGothicCoding-c81d" transform="translate(599.999878 0)"/>
     <use xlink:href="#NanumGothicCoding-d2b8" transform="translate(699.999863 0)"/>
     <use xlink:href="#NanumGothicCoding-c5d0" transform="translate(799.999847 0)"/>
     <use xlink:href="#NanumGothicCoding-20" transform="translate(899.999832 0)"/>
     <use xlink:href="#NanumGothicCoding-ac01" transform="translate(949.999817 0)"/>
     <use xlink:href="#NanumGothicCoding-c790" transform="translate(1049.999802 0)"/>
     <use xlink:href="#NanumGothicCoding-20" transform="translate(1149.999786 0)"/>
     <use xlink:href="#NanumGothicCoding-6d" transform="translate(1199.999771 0)"/>
     <use xlink:href="#NanumGothicCoding-6f" transform="translate(1249.999756 0)"/>
     <use xlink:href="#NanumGothicCoding-64" transform="translate(1299.999741 0)"/>
     <use xlink:href="#NanumGothicCoding-65" transform="translate(1349.999725 0)"/>
     <use xlink:href="#NanumGothicCoding-6c" transform="translate(1399.99971 0)"/>
     <use xlink:href="#NanumGothicCoding-4d" transform="translate(1449.999695 0)"/>
     <use xlink:href="#NanumGothicCoding-61" transform="translate(1499.99968 0)"/>
     <use xlink:href="#NanumGothicCoding-74" transform="translate(1549.999664 0)"/>
     <use xlink:href="#NanumGothicCoding-72" transform="translate(1599.999649 0)"/>
     <use xlink:href="#NanumGothicCoding-69" transform="translate(1649.999634 0)"/>
     <use xlink:href="#NanumGothicCoding-78" transform="translate(1699.999619 0)"/>
     <use xlink:href="#NanumGothicCoding-20" transform="translate(1749.999603 0)"/>
     <use xlink:href="#NanumGothicCoding-c801" transform="translate(1799.999588 0)"/>
     <use xlink:href="#NanumGothicCoding-c6a9" transform="translate(1899.999573 0)"/>
     <use xlink:href="#NanumGothicCoding-d558" transform="translate(1999.999557 0)"/>
     <use xlink:href="#NanumGothicCoding-ae30" transform="translate(2099.999542 0)"/>
    </g>
   </g>
   <g id="text_4">
    <!-- 4. 마우스로 오브젝트 선택하기 -->
    <g style="fill: #111827" transform="translate(24.59808 86.140919) scale(0.11 -0.11)">
     <defs>
      <path id="NanumGothicCoding-34" d="M 1907 1216 
L 1907 3622 
L 570 1216 
L 1907 1216 
z
M 2342 -211 
Q 2342 -301 2253 -301 
L 1997 -301 
Q 1907 -301 1907 -211 
L 1907 826 
L 346 826 
Q 211 826 188 848 
Q 166 870 166 1005 
L 166 1203 
Q 166 1261 172 1280 
Q 179 1299 211 1350 
L 1702 4013 
Q 1741 4070 1757 4080 
Q 1773 4090 1843 4090 
L 2163 4090 
Q 2298 4090 2320 4067 
Q 2342 4045 2342 3910 
L 2342 1216 
L 3040 1216 
Q 3130 1216 3130 1126 
L 3130 915 
Q 3130 826 3040 826 
L 2342 826 
L 2342 -211 
z
" transform="scale(0.015625)"/>
      <path id="NanumGothicCoding-b9c8" d="M 800 4070 
Q 800 4339 902 4432 
Q 1005 4525 1286 4525 
L 3168 4525 
Q 3322 4525 3414 4505 
Q 3507 4486 3561 4435 
Q 3616 4384 3635 4294 
Q 3654 4205 3654 4070 
L 3654 1235 
Q 3654 966 3552 873 
Q 3450 781 3168 781 
L 1286 781 
Q 1133 781 1040 800 
Q 947 819 892 873 
Q 838 928 819 1014 
Q 800 1101 800 1235 
L 800 4070 
z
M 1395 4141 
Q 1306 4141 1274 4105 
Q 1242 4070 1242 3974 
L 1242 1331 
Q 1242 1235 1274 1200 
Q 1306 1165 1395 1165 
L 3059 1165 
Q 3149 1165 3181 1200 
Q 3213 1235 3213 1331 
L 3213 3974 
Q 3213 4070 3181 4105 
Q 3149 4141 3059 4141 
L 1395 4141 
z
M 5120 -806 
Q 5120 -896 5030 -896 
L 4768 -896 
Q 4678 -896 4678 -806 
L 4678 4915 
Q 4678 5005 4768 5005 
L 5030 5005 
Q 5120 5005 5120 4915 
L 5120 2586 
L 6003 2586 
Q 6042 2586 6070 2563 
Q 6099 2541 6099 2502 
L 6099 2285 
Q 6099 2253 6070 2227 
Q 6042 2202 6003 2202 
L 5120 2202 
L 5120 -806 
z
" transform="scale(0.015625)"/>
      <path id="NanumGothicCoding-c6b0" d="M 3187 2387 
Q 2861 2387 2499 2457 
Q 2138 2528 1834 2678 
Q 1530 2829 1334 3072 
Q 1139 3315 1139 3661 
Q 1139 4006 1334 4249 
Q 1530 4493 1834 4643 
Q 2138 4794 2499 4861 
Q 2861 4928 3187 4928 
Q 3520 4928 3885 4861 
Q 4250 4794 4547 4643 
Q 4845 4493 5040 4249 
Q 5235 4006 5235 3661 
Q 5235 3315 5040 3072 
Q 4845 2829 4547 2678 
Q 4250 2528 3885 2457 
Q 3520 2387 3187 2387 
z
M 3187 4525 
Q 2963 4525 2691 4489 
Q 2419 4454 2179 4358 
Q 1939 4262 1776 4092 
Q 1613 3923 1613 3654 
Q 1613 3386 1776 3219 
Q 1939 3053 2179 2957 
Q 2419 2861 2691 2825 
Q 2963 2790 3187 2790 
Q 3405 2790 3677 2825 
Q 3949 2861 4189 2957 
Q 4429 3053 4595 3219 
Q 4762 3386 4762 3654 
Q 4762 3923 4595 4092 
Q 4429 4262 4189 4358 
Q 3949 4454 3677 4489 
Q 3405 4525 3187 4525 
z
M 3046 -858 
Q 3014 -858 2988 -829 
Q 2963 -800 2963 -762 
L 2963 1331 
L 480 1331 
Q 442 1331 413 1356 
Q 384 1382 384 1414 
L 384 1632 
Q 384 1670 413 1692 
Q 442 1715 480 1715 
L 5920 1715 
Q 5952 1715 5984 1692 
Q 6016 1670 6016 1632 
L 6016 1414 
Q 6016 1382 5984 1356 
Q 5952 1331 5920 1331 
L 3405 1331 
L 3405 -762 
Q 3405 -800 3382 -829 
Q 3360 -858 3322 -858 
L 3046 -858 
z
" transform="scale(0.015625)"/>
      <path id="NanumGothicCoding-c2a4" d="M 3424 4608 
Q 3405 4429 3360 4269 
Q 3373 4198 3392 4137 
Q 3411 4077 3437 4032 
Q 3597 3718 3824 3436 
Q 4051 3155 4320 2924 
Q 4589 2694 4893 2524 
Q 5197 2355 5517 2266 
Q 5555 2253 5568 2214 
Q 5581 2176 5568 2144 
L 5466 1933 
Q 5446 1901 5424 1881 
Q 5402 1862 5338 1888 
Q 4986 2010 4662 2195 
Q 4339 2381 4060 2614 
Q 3782 2848 3552 3126 
Q 3322 3405 3155 3706 
Q 3008 3398 2790 3110 
Q 2573 2822 2304 2576 
Q 2035 2330 1721 2131 
Q 1408 1933 1062 1805 
Q 960 1766 934 1830 
L 819 2054 
Q 806 2086 816 2121 
Q 826 2157 864 2176 
Q 1293 2336 1657 2595 
Q 2022 2854 2300 3177 
Q 2579 3501 2755 3878 
Q 2931 4256 2982 4653 
Q 2989 4730 3066 4730 
L 3354 4698 
Q 3430 4685 3424 4608 
z
M 5920 499 
Q 5952 499 5984 476 
Q 6016 454 6016 416 
L 6016 198 
Q 6016 166 5984 140 
Q 5952 115 5920 115 
L 480 115 
Q 442 115 413 140 
Q 384 166 384 198 
L 384 416 
Q 384 454 413 476 
Q 442 499 480 499 
L 5920 499 
z
" transform="scale(0.015625)"/>
      <path id="NanumGothicCoding-c120" d="M 2573 4710 
Q 2573 4461 2544 4224 
Q 2515 3987 2464 3763 
Q 2541 3501 2685 3241 
Q 2829 2982 3024 2748 
Q 3219 2515 3449 2326 
Q 3680 2138 3923 2022 
Q 3962 2003 3958 1971 
Q 3955 1939 3942 1907 
L 3814 1696 
Q 3795 1664 3769 1651 
Q 3744 1638 3686 1670 
Q 3501 1760 3299 1926 
Q 3098 2093 2902 2294 
Q 2707 2496 2540 2723 
Q 2374 2950 2266 3162 
Q 2048 2643 1693 2217 
Q 1338 1792 858 1478 
Q 826 1459 787 1452 
Q 749 1446 723 1478 
L 563 1690 
Q 544 1715 557 1753 
Q 570 1792 602 1811 
Q 947 2022 1232 2336 
Q 1517 2650 1718 3027 
Q 1920 3405 2025 3837 
Q 2131 4269 2125 4717 
Q 2125 4819 2202 4819 
L 2502 4800 
Q 2573 4800 2573 4710 
z
M 4902 3475 
L 4902 4915 
Q 4902 5005 4992 5005 
L 5254 5005 
Q 5344 5005 5344 4915 
L 5344 832 
Q 5344 742 5254 742 
L 4992 742 
Q 4902 742 4902 832 
L 4902 3091 
L 3584 3091 
Q 3501 3091 3501 3168 
L 3501 3398 
Q 3501 3475 3584 3475 
L 4902 3475 
z
M 5536 -704 
Q 5536 -742 5504 -761 
Q 5472 -781 5440 -781 
L 2234 -781 
Q 1933 -781 1840 -669 
Q 1747 -557 1747 -294 
L 1747 960 
Q 1747 1050 1837 1050 
L 2099 1050 
Q 2189 1050 2189 960 
L 2189 -262 
Q 2189 -352 2217 -374 
Q 2246 -397 2336 -397 
L 5440 -397 
Q 5472 -397 5504 -419 
Q 5536 -442 5536 -474 
L 5536 -704 
z
" transform="scale(0.015625)"/>
      <path id="NanumGothicCoding-d0dd" d="M 2912 3034 
Q 2566 3008 2224 2995 
Q 1882 2982 1517 2995 
L 1152 2995 
L 1152 2221 
Q 1152 2125 1184 2089 
Q 1216 2054 1306 2054 
Q 1581 2048 1833 2054 
Q 2086 2061 2329 2086 
Q 2573 2112 2819 2147 
Q 3066 2182 3328 2234 
Q 3437 2253 3456 2163 
L 3488 1978 
Q 3501 1920 3481 1897 
Q 3462 1875 3405 1862 
Q 2893 1760 2355 1705 
Q 1818 1651 1210 1664 
Q 922 1670 816 1795 
Q 710 1920 710 2189 
L 710 4186 
Q 710 4454 812 4544 
Q 915 4634 1197 4634 
L 2925 4634 
Q 3008 4634 3008 4557 
L 3008 4326 
Q 3008 4250 2925 4250 
L 1280 4250 
Q 1190 4250 1171 4227 
Q 1152 4205 1152 4109 
L 1152 3366 
L 1517 3366 
Q 1882 3366 2230 3372 
Q 2579 3379 2906 3405 
Q 2944 3411 2966 3385 
Q 2989 3360 2989 3328 
L 2995 3110 
Q 2995 3046 2912 3034 
z
M 4320 3328 
L 5133 3328 
L 5133 4915 
Q 5133 5005 5222 5005 
L 5466 5005 
Q 5555 5005 5555 4915 
L 5555 1498 
Q 5555 1408 5466 1408 
L 5222 1408 
Q 5133 1408 5133 1498 
L 5133 2944 
L 4320 2944 
L 4320 1581 
Q 4320 1491 4230 1491 
L 3987 1491 
Q 3898 1491 3898 1581 
L 3898 4806 
Q 3898 4896 3987 4896 
L 4230 4896 
Q 4320 4896 4320 4806 
L 4320 3328 
z
M 1632 986 
Q 1632 1024 1664 1043 
Q 1696 1062 1728 1062 
L 5069 1062 
Q 5370 1062 5462 950 
Q 5555 838 5555 576 
L 5555 -832 
Q 5555 -922 5466 -922 
L 5203 -922 
Q 5114 -922 5114 -832 
L 5114 544 
Q 5114 634 5085 656 
Q 5056 678 4966 678 
L 1728 678 
Q 1696 678 1664 700 
Q 1632 723 1632 755 
L 1632 986 
z
" transform="scale(0.015625)"/>
     </defs>
     <use xlink:href="#NanumGothicCoding-34"/>
     <use xlink:href="#NanumGothicCoding-2e" transform="translate(49.999985 0)"/>
     <use xlink:href="#NanumGothicCoding-20" transform="translate(99.999969 0)"/>
     <use xlink:href="#NanumGothicCoding-b9c8" transform="translate(149.999954 0)"/>
     <use xlink:href="#NanumGothicCoding-c6b0" transform="translate(249.999939 0)"/>
     <use xlink:href="#NanumGothicCoding-c2a4" transform="translate(349.999924 0)"/>
     <use xlink:href="#NanumGothicCoding-b85c" transform="translate(449.999908 0)"/>
     <use xlink:href="#NanumGothicCoding-20" transform="translate(549.999893 0)"/>
     <use xlink:href="#NanumGothicCoding-c624" transform="translate(599.999878 0)"/>
     <use xlink:href="#NanumGothicCoding-be0c" transform="translate(699.999863 0)"/>
     <use xlink:href="#NanumGothicCoding-c81d" transform="translate(799.999847 0)"/>
     <use xlink:href="#NanumGothicCoding-d2b8" transform="translate(899.999832 0)"/>
     <use xlink:href="#NanumGothicCoding-20" transform="translate(999.999817 0)"/>
     <use xlink:href="#NanumGothicCoding-c120" transform="translate(1049.999802 0)"/>
     <use xlink:href="#NanumGothicCoding-d0dd" transform="translate(1149.999786 0)"/>
     <use xlink:href="#NanumGothicCoding-d558" transform="translate(1249.999771 0)"/>
     <use xlink:href="#NanumGothicCoding-ae30" transform="translate(1349.999756 0)"/>
    </g>
   </g>
   <g id="text_5">
    <!-- 5. 부모-자식 transform이 있는 scene graph 만들기 -->
    <g style="fill: #111827" transform="translate(24.59808 104.396904) scale(0.11 -0.11)">
     <defs>
      <path id="NanumGothicCoding-35" d="M 576 -205 
Q 493 -173 493 -90 
L 493 179 
Q 493 288 576 243 
Q 800 134 979 89 
Q 1158 45 1350 45 
Q 1773 45 2112 320 
Q 2464 621 2470 1062 
Q 2470 2042 1414 2042 
Q 1267 2042 1100 2013 
Q 934 1984 704 1907 
Q 634 1888 589 1923 
Q 544 1958 544 2029 
L 582 3910 
Q 582 4045 604 4067 
Q 627 4090 755 4090 
L 2611 4090 
Q 2694 4090 2694 4000 
L 2694 3789 
Q 2694 3699 2611 3699 
L 1005 3699 
Q 998 3296 988 2998 
Q 979 2701 973 2317 
Q 1254 2419 1581 2419 
Q 2099 2419 2496 2074 
Q 2899 1702 2899 1152 
Q 2899 486 2445 51 
Q 1965 -346 1350 -346 
Q 1184 -346 989 -317 
Q 794 -288 576 -205 
z
" transform="scale(0.015625)"/>
      <path id="NanumGothicCoding-bd80" d="M 1690 2419 
Q 1536 2419 1443 2438 
Q 1350 2458 1299 2512 
Q 1248 2566 1229 2652 
Q 1210 2739 1210 2874 
L 1210 4909 
Q 1210 4941 1235 4963 
Q 1261 4986 1293 4986 
L 1568 4986 
Q 1600 4986 1622 4960 
Q 1645 4934 1645 4909 
L 1645 4058 
L 4723 4058 
L 4723 4902 
Q 4723 4934 4745 4960 
Q 4768 4986 4800 4986 
L 5075 4986 
Q 5107 4986 5132 4963 
Q 5158 4941 5158 4909 
L 5158 2829 
Q 5158 2586 5056 2502 
Q 4954 2419 4672 2419 
L 1690 2419 
z
M 3046 -858 
Q 3014 -858 2988 -829 
Q 2963 -800 2963 -762 
L 2963 1242 
L 480 1242 
Q 442 1242 413 1267 
Q 384 1293 384 1325 
L 384 1542 
Q 384 1581 413 1603 
Q 442 1626 480 1626 
L 5920 1626 
Q 5952 1626 5984 1603 
Q 6016 1581 6016 1542 
L 6016 1325 
Q 6016 1293 5984 1267 
Q 5952 1242 5920 1242 
L 3405 1242 
L 3405 -762 
Q 3405 -800 3382 -829 
Q 3360 -858 3322 -858 
L 3046 -858 
z
M 1645 3680 
L 1645 2950 
Q 1645 2854 1677 2825 
Q 1709 2797 1798 2797 
L 4570 2797 
Q 4659 2797 4691 2825 
Q 4723 2854 4723 2950 
L 4723 3680 
L 1645 3680 
z
" transform="scale(0.015625)"/>
      <path id="NanumGothicCoding-baa8" d="M 1197 4134 
Q 1197 4403 1299 4496 
Q 1402 4589 1683 4589 
L 4685 4589 
Q 4838 4589 4931 4569 
Q 5024 4550 5078 4499 
Q 5133 4448 5152 4358 
Q 5171 4269 5171 4134 
L 5171 2349 
Q 5171 2080 5068 1987 
Q 4966 1894 4685 1894 
L 3405 1894 
L 3405 499 
L 5920 499 
Q 5952 499 5984 476 
Q 6016 454 6016 416 
L 6016 198 
Q 6016 166 5984 140 
Q 5952 115 5920 115 
L 480 115 
Q 442 115 413 140 
Q 384 166 384 198 
L 384 416 
Q 384 454 413 476 
Q 442 499 480 499 
L 2963 499 
L 2963 1894 
L 1683 1894 
Q 1530 1894 1437 1913 
Q 1344 1933 1289 1987 
Q 1235 2042 1216 2128 
Q 1197 2214 1197 2349 
L 1197 4134 
z
M 1792 4205 
Q 1702 4205 1670 4169 
Q 1638 4134 1638 4038 
L 1638 2445 
Q 1638 2349 1670 2313 
Q 1702 2278 1792 2278 
L 4576 2278 
Q 4666 2278 4698 2313 
Q 4730 2349 4730 2445 
L 4730 4038 
Q 4730 4134 4698 4169 
Q 4666 4205 4576 4205 
L 1792 4205 
z
" transform="scale(0.015625)"/>
      <path id="NanumGothicCoding-2d" d="M 2938 2131 
L 2938 1850 
Q 2938 1779 2928 1769 
Q 2918 1760 2848 1760 
L 352 1760 
Q 282 1760 272 1769 
Q 262 1779 262 1850 
L 262 2131 
Q 262 2202 272 2211 
Q 282 2221 352 2221 
L 2848 2221 
Q 2918 2221 2928 2211 
Q 2938 2202 2938 2131 
z
" transform="scale(0.015625)"/>
      <path id="NanumGothicCoding-c2dd" d="M 2534 4742 
Q 2534 4275 2438 3872 
Q 2515 3603 2652 3360 
Q 2790 3117 2976 2905 
Q 3162 2694 3382 2524 
Q 3603 2355 3846 2240 
Q 3885 2221 3881 2185 
Q 3878 2150 3866 2125 
L 3731 1914 
Q 3712 1882 3686 1869 
Q 3661 1856 3603 1888 
Q 3456 1965 3267 2096 
Q 3078 2227 2886 2406 
Q 2694 2586 2521 2800 
Q 2349 3014 2234 3245 
Q 2022 2758 1664 2361 
Q 1306 1965 826 1651 
Q 794 1632 755 1625 
Q 717 1619 691 1651 
L 531 1862 
Q 518 1888 528 1926 
Q 538 1965 570 1984 
Q 1331 2451 1715 3161 
Q 2099 3872 2086 4749 
Q 2086 4851 2163 4851 
L 2464 4832 
Q 2534 4832 2534 4742 
z
M 1613 1165 
Q 1613 1203 1645 1222 
Q 1677 1242 1709 1242 
L 4858 1242 
Q 5158 1242 5251 1130 
Q 5344 1018 5344 755 
L 5344 -832 
Q 5344 -922 5254 -922 
L 4992 -922 
Q 4902 -922 4902 -832 
L 4902 723 
Q 4902 813 4873 835 
Q 4845 858 4755 858 
L 1709 858 
Q 1677 858 1645 880 
Q 1613 902 1613 934 
L 1613 1165 
z
M 5344 1683 
Q 5344 1594 5254 1594 
L 4992 1594 
Q 4902 1594 4902 1683 
L 4902 4915 
Q 4902 5005 4992 5005 
L 5254 5005 
Q 5344 5005 5344 4915 
L 5344 1683 
z
" transform="scale(0.015625)"/>
      <path id="NanumGothicCoding-6e" d="M 2797 -186 
Q 2797 -275 2707 -275 
L 2451 -275 
Q 2362 -275 2362 -186 
L 2362 1574 
Q 2362 2163 2202 2409 
Q 2042 2656 1658 2656 
Q 1318 2656 1088 2384 
Q 858 2112 858 1562 
L 858 -186 
Q 858 -275 768 -275 
L 512 -275 
Q 422 -275 422 -186 
L 422 2118 
Q 422 2394 419 2547 
Q 416 2701 403 2842 
Q 397 2886 425 2908 
Q 454 2931 493 2931 
L 723 2931 
Q 813 2931 813 2842 
L 813 2483 
Q 966 2758 1187 2889 
Q 1408 3021 1696 3021 
Q 2259 3021 2528 2669 
Q 2797 2317 2797 1677 
L 2797 -186 
z
" transform="scale(0.015625)"/>
      <path id="NanumGothicCoding-73" d="M 582 147 
Q 992 -13 1427 -13 
Q 1792 -13 2045 169 
Q 2298 352 2298 538 
Q 2298 710 2157 838 
Q 2016 966 1811 1069 
Q 1594 1184 1386 1289 
Q 1178 1395 966 1504 
Q 723 1626 611 1802 
Q 499 1978 499 2144 
Q 499 2349 588 2509 
Q 678 2669 832 2790 
Q 986 2912 1206 2973 
Q 1427 3034 1677 3034 
Q 1907 3034 2099 3008 
Q 2291 2982 2496 2918 
Q 2541 2906 2569 2880 
Q 2598 2854 2592 2816 
L 2573 2611 
Q 2566 2560 2531 2547 
Q 2496 2534 2464 2547 
Q 2278 2618 2105 2643 
Q 1933 2669 1722 2669 
Q 947 2669 947 2144 
Q 947 2048 1049 1942 
Q 1152 1837 1402 1728 
Q 1645 1613 1840 1520 
Q 2035 1427 2272 1299 
Q 2554 1133 2659 953 
Q 2765 774 2765 544 
Q 2765 358 2656 166 
Q 2547 -26 2364 -141 
Q 2182 -256 1945 -317 
Q 1709 -378 1466 -378 
Q 1312 -378 1193 -371 
Q 1075 -365 969 -352 
Q 864 -339 758 -320 
Q 653 -301 538 -269 
Q 435 -237 442 -160 
L 474 90 
Q 493 186 582 147 
z
" transform="scale(0.015625)"/>
      <path id="NanumGothicCoding-66" d="M 2694 4422 
Q 2765 4390 2758 4333 
L 2720 4109 
Q 2714 4070 2688 4060 
Q 2662 4051 2637 4064 
Q 2534 4109 2416 4134 
Q 2298 4160 2176 4160 
Q 1798 4160 1690 3782 
Q 1645 3629 1645 3110 
L 1645 2784 
L 2765 2784 
Q 2854 2784 2854 2694 
L 2854 2502 
Q 2854 2413 2765 2413 
L 1645 2413 
L 1645 -186 
Q 1645 -275 1555 -275 
L 1306 -275 
Q 1216 -275 1216 -186 
L 1216 2413 
L 442 2413 
Q 352 2413 352 2502 
L 352 2694 
Q 352 2784 442 2784 
L 1216 2784 
L 1216 3066 
Q 1216 3763 1344 4070 
Q 1542 4531 2138 4531 
Q 2438 4531 2694 4422 
z
" transform="scale(0.015625)"/>
      <path id="NanumGothicCoding-c788" d="M 3776 3328 
Q 3776 3008 3661 2742 
Q 3546 2477 3341 2285 
Q 3136 2093 2857 1984 
Q 2579 1875 2253 1875 
Q 1939 1875 1664 1980 
Q 1389 2086 1187 2278 
Q 986 2470 870 2739 
Q 755 3008 755 3328 
Q 755 3667 870 3939 
Q 986 4211 1187 4400 
Q 1389 4589 1664 4688 
Q 1939 4787 2253 4787 
Q 2547 4787 2822 4688 
Q 3098 4589 3309 4403 
Q 3520 4218 3648 3946 
Q 3776 3674 3776 3328 
z
M 3328 3334 
Q 3328 3590 3241 3785 
Q 3155 3981 3008 4112 
Q 2861 4243 2665 4310 
Q 2470 4378 2253 4378 
Q 2029 4378 1840 4310 
Q 1651 4243 1507 4112 
Q 1363 3981 1283 3785 
Q 1203 3590 1203 3334 
Q 1203 3091 1280 2899 
Q 1357 2707 1497 2566 
Q 1638 2426 1830 2352 
Q 2022 2278 2253 2278 
Q 2470 2278 2665 2352 
Q 2861 2426 3008 2566 
Q 3155 2707 3241 2899 
Q 3328 3091 3328 3334 
z
M 5888 -838 
Q 5862 -870 5840 -883 
Q 5818 -896 5773 -870 
Q 5370 -659 5085 -368 
Q 4800 -77 4646 262 
Q 4480 -83 4233 -368 
Q 3987 -653 3674 -845 
Q 3584 -896 3482 -838 
Q 3168 -659 2918 -387 
Q 2669 -115 2522 211 
Q 2355 -122 2070 -390 
Q 1786 -659 1370 -883 
Q 1338 -896 1299 -909 
Q 1261 -922 1242 -896 
L 1088 -666 
Q 1075 -640 1084 -605 
Q 1094 -570 1133 -550 
Q 1760 -243 2051 208 
Q 2342 659 2304 1306 
Q 2304 1389 2368 1389 
L 2675 1382 
Q 2746 1382 2746 1306 
Q 2746 1114 2726 934 
Q 2733 742 2803 537 
Q 2874 333 2982 150 
Q 3091 -32 3235 -182 
Q 3379 -333 3539 -416 
Q 3597 -448 3642 -416 
Q 3814 -307 3961 -121 
Q 4109 64 4221 294 
Q 4333 525 4393 787 
Q 4454 1050 4448 1312 
Q 4448 1344 4464 1373 
Q 4480 1402 4518 1402 
L 4819 1395 
Q 4890 1395 4890 1318 
Q 4883 1248 4880 1181 
Q 4877 1114 4870 1043 
Q 4870 531 5158 124 
Q 5446 -282 5990 -531 
Q 6067 -576 6016 -653 
L 5888 -838 
z
M 5344 1760 
Q 5344 1670 5254 1670 
L 4992 1670 
Q 4902 1670 4902 1760 
L 4902 4915 
Q 4902 5005 4992 5005 
L 5254 5005 
Q 5344 5005 5344 4915 
L 5344 1760 
z
" transform="scale(0.015625)"/>
      <path id="NanumGothicCoding-b294" d="M 5229 2893 
Q 5229 2854 5197 2835 
Q 5165 2816 5133 2816 
L 1811 2816 
Q 1510 2816 1417 2941 
Q 1325 3066 1325 3328 
L 1325 4806 
Q 1325 4896 1414 4896 
L 1677 4896 
Q 1766 4896 1766 4806 
L 1766 3341 
Q 1766 3251 1795 3225 
Q 1824 3200 1914 3200 
L 5133 3200 
Q 5165 3200 5197 3177 
Q 5229 3155 5229 3123 
L 5229 2893 
z
M 5325 -704 
Q 5325 -742 5293 -761 
Q 5261 -781 5229 -781 
L 1754 -781 
Q 1453 -781 1360 -656 
Q 1267 -531 1267 -269 
L 1267 979 
Q 1267 1069 1357 1069 
L 1619 1069 
Q 1709 1069 1709 979 
L 1709 -262 
Q 1709 -352 1737 -374 
Q 1766 -397 1856 -397 
L 5229 -397 
Q 5261 -397 5293 -419 
Q 5325 -442 5325 -474 
L 5325 -704 
z
M 5920 1958 
Q 5952 1958 5984 1936 
Q 6016 1914 6016 1875 
L 6016 1658 
Q 6016 1626 5984 1600 
Q 5952 1574 5920 1574 
L 480 1574 
Q 442 1574 413 1600 
Q 384 1626 384 1658 
L 384 1875 
Q 384 1914 413 1936 
Q 442 1958 480 1958 
L 5920 1958 
z
" transform="scale(0.015625)"/>
      <path id="NanumGothicCoding-63" d="M 2624 -288 
Q 2451 -333 2310 -349 
Q 2170 -365 1952 -365 
Q 1581 -365 1289 -233 
Q 998 -102 780 128 
Q 563 358 454 668 
Q 346 979 346 1338 
Q 346 1702 461 2009 
Q 576 2317 787 2541 
Q 998 2765 1289 2896 
Q 1581 3027 1952 3027 
Q 2150 3027 2297 3011 
Q 2445 2995 2630 2950 
Q 2714 2931 2707 2842 
L 2688 2624 
Q 2675 2547 2598 2566 
Q 2445 2618 2307 2640 
Q 2170 2662 2010 2662 
Q 1741 2662 1507 2556 
Q 1274 2451 1126 2272 
Q 979 2093 899 1853 
Q 819 1613 819 1338 
Q 819 1088 902 848 
Q 986 608 1130 419 
Q 1274 230 1507 115 
Q 1741 0 2010 0 
Q 2170 0 2298 19 
Q 2426 38 2592 96 
Q 2662 115 2688 51 
L 2707 -179 
Q 2714 -269 2624 -288 
z
" transform="scale(0.015625)"/>
      <path id="NanumGothicCoding-67" d="M 550 -1114 
Q 480 -1094 493 -1024 
L 506 -736 
Q 506 -653 589 -698 
Q 826 -806 1030 -854 
Q 1235 -902 1402 -902 
Q 1837 -902 2099 -572 
Q 2362 -243 2387 390 
Q 2246 115 2016 -22 
Q 1786 -160 1498 -160 
Q 1222 -160 995 -54 
Q 768 51 605 249 
Q 442 448 355 742 
Q 269 1037 269 1376 
Q 269 1728 355 2029 
Q 442 2330 605 2554 
Q 768 2778 995 2893 
Q 1222 3008 1498 3008 
Q 1786 3008 2038 2851 
Q 2291 2694 2406 2458 
L 2394 2848 
Q 2394 2931 2483 2931 
L 2720 2931 
Q 2810 2931 2810 2848 
L 2810 493 
Q 2810 122 2710 -230 
Q 2611 -582 2416 -809 
Q 2221 -1037 1977 -1152 
Q 1734 -1267 1395 -1267 
Q 1203 -1267 992 -1232 
Q 781 -1197 550 -1114 
z
M 730 1427 
Q 730 1242 765 1027 
Q 800 813 905 608 
Q 1011 403 1171 307 
Q 1331 211 1555 211 
Q 1779 211 1936 323 
Q 2093 435 2198 624 
Q 2304 813 2336 1027 
Q 2368 1242 2368 1427 
Q 2368 1600 2336 1821 
Q 2304 2042 2198 2227 
Q 2093 2413 1936 2525 
Q 1779 2637 1555 2637 
Q 1331 2637 1174 2525 
Q 1018 2413 909 2227 
Q 800 2042 765 1821 
Q 730 1600 730 1427 
z
" transform="scale(0.015625)"/>
      <path id="NanumGothicCoding-70" d="M 397 2848 
Q 397 2931 486 2931 
L 736 2931 
Q 826 2931 826 2848 
L 826 2381 
Q 1088 2995 1722 2995 
Q 2016 2995 2256 2854 
Q 2496 2714 2669 2448 
Q 2842 2182 2915 1875 
Q 2989 1568 2989 1229 
Q 2989 627 2656 124 
Q 2323 -378 1722 -378 
Q 1402 -378 1174 -218 
Q 947 -58 826 173 
L 826 -1171 
Q 826 -1254 736 -1254 
L 486 -1254 
Q 397 -1254 397 -1171 
L 397 2848 
z
M 2534 1299 
Q 2541 1498 2496 1731 
Q 2451 1965 2345 2173 
Q 2240 2381 2080 2502 
Q 1920 2624 1683 2624 
Q 1446 2624 1286 2502 
Q 1126 2381 1020 2173 
Q 915 1965 876 1731 
Q 838 1498 838 1299 
Q 838 1114 876 874 
Q 915 634 1020 429 
Q 1126 224 1286 102 
Q 1446 -19 1683 -19 
Q 1920 -19 2080 102 
Q 2240 224 2349 429 
Q 2458 634 2499 874 
Q 2541 1114 2534 1299 
z
" transform="scale(0.015625)"/>
      <path id="NanumGothicCoding-68" d="M 2835 -186 
Q 2835 -275 2746 -275 
L 2490 -275 
Q 2400 -275 2400 -186 
L 2400 1549 
Q 2400 1856 2349 2070 
Q 2298 2285 2192 2416 
Q 2086 2547 1952 2604 
Q 1818 2662 1619 2662 
Q 1267 2662 1043 2412 
Q 819 2163 819 1722 
L 819 -186 
Q 819 -275 730 -275 
L 474 -275 
Q 384 -275 384 -186 
L 384 4346 
Q 384 4435 474 4435 
L 730 4435 
Q 819 4435 819 4346 
L 819 2598 
Q 998 2835 1206 2931 
Q 1414 3027 1664 3027 
Q 2234 3027 2534 2662 
Q 2835 2298 2835 1555 
L 2835 -186 
z
" transform="scale(0.015625)"/>
      <path id="NanumGothicCoding-b9cc" d="M 870 4192 
Q 870 4461 972 4553 
Q 1075 4646 1357 4646 
L 3117 4646 
Q 3270 4646 3363 4627 
Q 3456 4608 3510 4557 
Q 3565 4506 3584 4416 
Q 3603 4326 3603 4192 
L 3603 2214 
Q 3603 1946 3500 1853 
Q 3398 1760 3117 1760 
L 1357 1760 
Q 1203 1760 1110 1779 
Q 1018 1798 963 1852 
Q 909 1907 889 1993 
Q 870 2080 870 2214 
L 870 4192 
z
M 1466 4262 
Q 1376 4262 1344 4227 
Q 1312 4192 1312 4096 
L 1312 2310 
Q 1312 2214 1344 2179 
Q 1376 2144 1466 2144 
L 3008 2144 
Q 3098 2144 3130 2179 
Q 3162 2214 3162 2310 
L 3162 4096 
Q 3162 4192 3130 4227 
Q 3098 4262 3008 4262 
L 1466 4262 
z
M 5120 845 
Q 5120 755 5030 755 
L 4768 755 
Q 4678 755 4678 845 
L 4678 4915 
Q 4678 5005 4768 5005 
L 5030 5005 
Q 5120 5005 5120 4915 
L 5120 3085 
L 6003 3085 
Q 6042 3085 6070 3062 
Q 6099 3040 6099 3002 
L 6099 2784 
Q 6099 2752 6070 2726 
Q 6042 2701 6003 2701 
L 5120 2701 
L 5120 845 
z
M 5408 -704 
Q 5408 -742 5376 -761 
Q 5344 -781 5312 -781 
L 2054 -781 
Q 1754 -781 1661 -665 
Q 1568 -550 1568 -288 
L 1568 960 
Q 1568 1050 1658 1050 
L 1920 1050 
Q 2010 1050 2010 960 
L 2010 -262 
Q 2010 -352 2038 -374 
Q 2067 -397 2157 -397 
L 5312 -397 
Q 5344 -397 5376 -419 
Q 5408 -442 5408 -474 
L 5408 -704 
z
" transform="scale(0.015625)"/>
      <path id="NanumGothicCoding-b4e4" d="M 5920 2515 
Q 5952 2515 5984 2492 
Q 6016 2470 6016 2432 
L 6016 2214 
Q 6016 2182 5984 2156 
Q 5952 2131 5920 2131 
L 480 2131 
Q 442 2131 413 2156 
Q 384 2182 384 2214 
L 384 2432 
Q 384 2470 413 2492 
Q 442 2515 480 2515 
L 5920 2515 
z
M 5178 3181 
Q 5178 3091 5094 3091 
L 1779 3091 
Q 1498 3091 1395 3184 
Q 1293 3277 1293 3546 
L 1293 4544 
Q 1293 4813 1395 4905 
Q 1498 4998 1779 4998 
L 5050 4998 
Q 5133 4998 5133 4915 
L 5133 4704 
Q 5133 4614 5050 4614 
L 1888 4614 
Q 1798 4614 1766 4579 
Q 1734 4544 1734 4448 
L 1734 3642 
Q 1734 3552 1766 3513 
Q 1798 3475 1888 3475 
L 5094 3475 
Q 5178 3475 5178 3392 
L 5178 3181 
z
M 5248 -781 
Q 5248 -813 5219 -835 
Q 5190 -858 5165 -858 
L 1760 -858 
Q 1459 -858 1366 -746 
Q 1274 -634 1274 -365 
L 1274 96 
Q 1274 365 1386 457 
Q 1498 550 1786 550 
L 4538 550 
Q 4627 550 4652 576 
Q 4678 602 4678 698 
L 4678 1056 
Q 4678 1152 4656 1177 
Q 4634 1203 4544 1203 
L 1350 1203 
Q 1318 1203 1289 1222 
Q 1261 1242 1261 1274 
L 1261 1498 
Q 1261 1530 1289 1549 
Q 1318 1568 1350 1568 
L 4608 1568 
Q 4762 1568 4858 1545 
Q 4954 1523 5011 1472 
Q 5069 1421 5091 1328 
Q 5114 1235 5114 1101 
L 5114 640 
Q 5114 371 5002 278 
Q 4890 186 4602 186 
L 1843 186 
Q 1754 186 1731 160 
Q 1709 134 1709 38 
L 1709 -339 
Q 1709 -429 1734 -457 
Q 1760 -486 1850 -486 
L 5158 -486 
Q 5190 -486 5219 -505 
Q 5248 -525 5248 -557 
L 5248 -781 
z
" transform="scale(0.015625)"/>
     </defs>
     <use xlink:href="#NanumGothicCoding-35"/>
     <use xlink:href="#NanumGothicCoding-2e" transform="translate(49.999985 0)"/>
     <use xlink:href="#NanumGothicCoding-20" transform="translate(99.999969 0)"/>
     <use xlink:href="#NanumGothicCoding-bd80" transform="translate(149.999954 0)"/>
     <use xlink:href="#NanumGothicCoding-baa8" transform="translate(249.999939 0)"/>
     <use xlink:href="#NanumGothicCoding-2d" transform="translate(349.999924 0)"/>
     <use xlink:href="#NanumGothicCoding-c790" transform="translate(399.999908 0)"/>
     <use xlink:href="#NanumGothicCoding-c2dd" transform="translate(499.999893 0)"/>
     <use xlink:href="#NanumGothicCoding-20" transform="translate(599.999878 0)"/>
     <use xlink:href="#NanumGothicCoding-74" transform="translate(649.999863 0)"/>
     <use xlink:href="#NanumGothicCoding-72" transform="translate(699.999847 0)"/>
     <use xlink:href="#NanumGothicCoding-61" transform="translate(749.999832 0)"/>
     <use xlink:href="#NanumGothicCoding-6e" transform="translate(799.999817 0)"/>
     <use xlink:href="#NanumGothicCoding-73" transform="translate(849.999802 0)"/>
     <use xlink:href="#NanumGothicCoding-66" transform="translate(899.999786 0)"/>
     <use xlink:href="#NanumGothicCoding-6f" transform="translate(949.999771 0)"/>
     <use xlink:href="#NanumGothicCoding-72" transform="translate(999.999756 0)"/>
     <use xlink:href="#NanumGothicCoding-6d" transform="translate(1049.999741 0)"/>
     <use xlink:href="#NanumGothicCoding-c774" transform="translate(1099.999725 0)"/>
     <use xlink:href="#NanumGothicCoding-20" transform="translate(1199.99971 0)"/>
     <use xlink:href="#NanumGothicCoding-c788" transform="translate(1249.999695 0)"/>
     <use xlink:href="#NanumGothicCoding-b294" transform="translate(1349.99968 0)"/>
     <use xlink:href="#NanumGothicCoding-20" transform="translate(1449.999664 0)"/>
     <use xlink:href="#NanumGothicCoding-73" transform="translate(1499.999649 0)"/>
     <use xlink:href="#NanumGothicCoding-63" transform="translate(1549.999634 0)"/>
     <use xlink:href="#NanumGothicCoding-65" transform="translate(1599.999619 0)"/>
     <use xlink:href="#NanumGothicCoding-6e" transform="translate(1649.999603 0)"/>
     <use xlink:href="#NanumGothicCoding-65" transform="translate(1699.999588 0)"/>
     <use xlink:href="#NanumGothicCoding-20" transform="translate(1749.999573 0)"/>
     <use xlink:href="#NanumGothicCoding-67" transform="translate(1799.999557 0)"/>
     <use xlink:href="#NanumGothicCoding-72" transform="translate(1849.999542 0)"/>
     <use xlink:href="#NanumGothicCoding-61" transform="translate(1899.999527 0)"/>
     <use xlink:href="#NanumGothicCoding-70" transform="translate(1949.999512 0)"/>
     <use xlink:href="#NanumGothicCoding-68" transform="translate(1999.999496 0)"/>
     <use xlink:href="#NanumGothicCoding-20" transform="translate(2049.999481 0)"/>
     <use xlink:href="#NanumGothicCoding-b9cc" transform="translate(2099.999466 0)"/>
     <use xlink:href="#NanumGothicCoding-b4e4" transform="translate(2199.999451 0)"/>
     <use xlink:href="#NanumGothicCoding-ae30" transform="translate(2299.999435 0)"/>
    </g>
   </g>
  </g>
 </g>
 <defs>
  <clipPath id="p4f1122b965">
   <rect x="5.76" y="5.76" width="470.952" height="160.776"/>
  </clipPath>
 </defs>
</svg>
