<?xml version="1.0" encoding="utf-8" standalone="no"?>
<!DOCTYPE svg PUBLIC "-//W3C//DTD SVG 1.1//EN"
  "http://www.w3.org/Graphics/SVG/1.1/DTD/svg11.dtd">
<svg xmlns:xlink="http://www.w3.org/1999/xlink" width="279.36pt" height="125.7264pt" viewBox="0 0 279.36 125.7264" xmlns="http://www.w3.org/2000/svg" version="1.1">
 <metadata>
  <rdf:RDF xmlns:dc="http://purl.org/dc/elements/1.1/" xmlns:cc="http://creativecommons.org/ns#" xmlns:rdf="http://www.w3.org/1999/02/22-rdf-syntax-ns#">
   <cc:Work>
    <dc:type rdf:resource="http://purl.org/dc/dcmitype/StillImage"/>
    <dc:date>2026-07-08T05:12:55.964487</dc:date>
    <dc:format>image/svg+xml</dc:format>
    <dc:creator>
     <cc:Agent>
      <dc:title>Matplotlib v3.10.8, https://matplotlib.org/</dc:title>
     </cc:Agent>
    </dc:creator>
   </cc:Work>
  </rdf:RDF>
 </metadata>
 <defs>
  <style type="text/css">*{stroke-linejoin: round; stroke-linecap: butt}</style>
 </defs>
 <g id="figure_1">
  <g id="patch_1">
   <path d="M 0 125.7264 
L 279.36 125.7264 
L 279.36 0 
L 0 0 
z
" style="fill: #ffffff"/>
  </g>
  <g id="axes_1">
   <g id="patch_2">
    <path d="M 5.76 119.9664 
L 273.6 119.9664 
L 273.6 5.76 
L 5.76 5.76 
z
" clip-path="url(#peb1b561363)" style="fill: #ffffff; stroke: #e5e7eb; stroke-linejoin: miter"/>
   </g>
   <g id="text_1">
    <!-- 양수: 왼쪽 / 반시계 -->
    <g style="fill: #111827" transform="translate(16.4736 27.561799) scale(0.11 -0.11)">
     <defs>
      <path id="NanumGothicCoding-c591" d="M 3744 3328 
Q 3744 3008 3629 2742 
Q 3514 2477 3312 2285 
Q 3110 2093 2832 1984 
Q 2554 1875 2221 1875 
Q 1901 1875 1625 1980 
Q 1350 2086 1148 2278 
Q 947 2470 835 2739 
Q 723 3008 723 3328 
Q 723 3667 835 3939 
Q 947 4211 1148 4400 
Q 1350 4589 1625 4688 
Q 1901 4787 2221 4787 
Q 2528 4787 2803 4688 
Q 3078 4589 3286 4403 
Q 3494 4218 3619 3946 
Q 3744 3674 3744 3328 
z
M 5197 250 
Q 5197 -26 5049 -243 
Q 4902 -461 4649 -611 
Q 4397 -762 4061 -842 
Q 3725 -922 3341 -922 
Q 2925 -922 2585 -842 
Q 2246 -762 2003 -611 
Q 1760 -461 1625 -243 
Q 1491 -26 1491 250 
Q 1491 518 1625 732 
Q 1760 947 2003 1097 
Q 2246 1248 2585 1328 
Q 2925 1408 3341 1408 
Q 3725 1408 4061 1328 
Q 4397 1248 4649 1101 
Q 4902 954 5049 739 
Q 5197 525 5197 250 
z
M 3296 3334 
Q 3296 3590 3209 3785 
Q 3123 3981 2976 4112 
Q 2829 4243 2633 4310 
Q 2438 4378 2221 4378 
Q 1997 4378 1805 4310 
Q 1613 4243 1472 4112 
Q 1331 3981 1251 3785 
Q 1171 3590 1171 3334 
Q 1171 3091 1248 2899 
Q 1325 2707 1462 2566 
Q 1600 2426 1792 2352 
Q 1984 2278 2221 2278 
Q 2438 2278 2633 2352 
Q 2829 2426 2976 2566 
Q 3123 2707 3209 2899 
Q 3296 3091 3296 3334 
z
M 4742 230 
Q 4742 422 4627 569 
Q 4512 717 4317 816 
Q 4122 915 3866 969 
Q 3610 1024 3334 1024 
Q 3027 1024 2771 969 
Q 2515 915 2332 816 
Q 2150 717 2048 569 
Q 1946 422 1946 230 
Q 1946 45 2048 -99 
Q 2150 -243 2332 -339 
Q 2515 -435 2771 -486 
Q 3027 -538 3334 -538 
Q 3610 -538 3866 -486 
Q 4122 -435 4317 -339 
Q 4512 -243 4627 -99 
Q 4742 45 4742 230 
z
M 5120 1574 
Q 5120 1485 5030 1485 
L 4768 1485 
Q 4678 1485 4678 1574 
L 4678 4915 
Q 4678 5005 4768 5005 
L 5030 5005 
Q 5120 5005 5120 4915 
L 5120 3878 
L 6003 3878 
Q 6042 3878 6070 3856 
Q 6099 3834 6099 3795 
L 6099 3584 
Q 6099 3552 6070 3526 
Q 6042 3501 6003 3501 
L 5120 3501 
L 5120 2733 
L 6003 2733 
Q 6042 2733 6070 2710 
Q 6099 2688 6099 2650 
L 6099 2438 
Q 6099 2406 6070 2380 
Q 6042 2355 6003 2355 
L 5120 2355 
L 5120 1574 
z
" transform="scale(0.015625)"/>
      <path id="NanumGothicCoding-c218" d="M 3046 -858 
Q 3014 -858 2988 -829 
Q 2963 -800 2963 -762 
L 2963 1325 
L 480 1325 
Q 442 1325 413 1350 
Q 384 1376 384 1408 
L 384 1626 
Q 384 1664 413 1686 
Q 442 1709 480 1709 
L 5920 1709 
Q 5952 1709 5984 1686 
Q 6016 1664 6016 1626 
L 6016 1408 
Q 6016 1376 5984 1350 
Q 5952 1325 5920 1325 
L 3405 1325 
L 3405 -762 
Q 3405 -800 3382 -829 
Q 3360 -858 3322 -858 
L 3046 -858 
z
M 3424 4864 
Q 3411 4781 3392 4704 
Q 3373 4627 3354 4557 
Q 3373 4486 3398 4425 
Q 3424 4365 3456 4307 
Q 3565 4096 3776 3881 
Q 3987 3667 4262 3478 
Q 4538 3290 4858 3142 
Q 5178 2995 5517 2912 
Q 5555 2899 5568 2860 
Q 5581 2822 5568 2790 
L 5466 2573 
Q 5446 2541 5424 2528 
Q 5402 2515 5338 2528 
Q 4998 2618 4665 2774 
Q 4333 2931 4045 3136 
Q 3757 3341 3523 3577 
Q 3290 3814 3142 4058 
Q 2867 3558 2355 3158 
Q 1843 2758 1069 2451 
Q 966 2413 941 2477 
L 819 2701 
Q 806 2733 816 2771 
Q 826 2810 864 2822 
Q 1280 2963 1657 3196 
Q 2035 3430 2323 3712 
Q 2611 3994 2787 4301 
Q 2963 4608 2982 4909 
Q 2989 4986 3066 4986 
L 3354 4954 
Q 3386 4947 3411 4928 
Q 3437 4909 3424 4864 
z
" transform="scale(0.015625)"/>
      <path id="NanumGothicCoding-3a" d="M 1158 3149 
Q 1158 3322 1289 3453 
Q 1421 3584 1600 3584 
Q 1773 3584 1907 3453 
Q 2042 3322 2042 3149 
Q 2042 2963 1907 2835 
Q 1773 2707 1600 2707 
Q 1421 2707 1289 2835 
Q 1158 2963 1158 3149 
z
M 1158 640 
Q 1158 826 1289 954 
Q 1421 1082 1600 1082 
Q 1773 1082 1907 954 
Q 2042 826 2042 640 
Q 2042 467 1907 336 
Q 1773 205 1600 205 
Q 1421 205 1289 336 
Q 1158 467 1158 640 
z
" transform="scale(0.015625)"/>
      <path id="NanumGothicCoding-20" transform="scale(0.015625)"/>
      <path id="NanumGothicCoding-c67c" d="M 3917 3578 
Q 3917 3360 3833 3168 
Q 3750 2976 3590 2822 
Q 3430 2669 3200 2566 
Q 2970 2464 2682 2438 
L 2682 1741 
Q 3174 1754 3628 1782 
Q 4083 1811 4448 1856 
Q 4506 1862 4522 1846 
Q 4538 1830 4544 1798 
L 4570 1581 
Q 4576 1542 4560 1520 
Q 4544 1498 4486 1491 
Q 3923 1427 3251 1385 
Q 2579 1344 1920 1344 
L 589 1344 
Q 550 1344 521 1369 
Q 493 1395 493 1427 
L 493 1651 
Q 493 1690 521 1709 
Q 550 1728 589 1728 
L 1696 1728 
L 2240 1728 
L 2240 2438 
Q 1958 2464 1734 2566 
Q 1510 2669 1350 2819 
Q 1190 2970 1107 3165 
Q 1024 3360 1024 3578 
Q 1024 3840 1123 4054 
Q 1222 4269 1411 4419 
Q 1600 4570 1865 4653 
Q 2131 4736 2458 4736 
Q 2771 4736 3036 4653 
Q 3302 4570 3497 4419 
Q 3693 4269 3805 4054 
Q 3917 3840 3917 3578 
z
M 3482 3584 
Q 3482 3770 3398 3907 
Q 3315 4045 3174 4137 
Q 3034 4230 2848 4275 
Q 2662 4320 2458 4320 
Q 2246 4320 2064 4275 
Q 1882 4230 1747 4137 
Q 1613 4045 1536 3907 
Q 1459 3770 1459 3584 
Q 1459 3411 1532 3270 
Q 1606 3130 1740 3034 
Q 1875 2938 2057 2886 
Q 2240 2835 2458 2835 
Q 2662 2835 2848 2889 
Q 3034 2944 3174 3043 
Q 3315 3142 3398 3280 
Q 3482 3418 3482 3584 
z
M 5542 -704 
Q 5542 -742 5510 -761 
Q 5478 -781 5446 -781 
L 2086 -781 
Q 1786 -781 1693 -665 
Q 1600 -550 1600 -288 
L 1600 762 
Q 1600 851 1690 851 
L 1952 851 
Q 2042 851 2042 762 
L 2042 -262 
Q 2042 -352 2070 -374 
Q 2099 -397 2189 -397 
L 5446 -397 
Q 5478 -397 5510 -419 
Q 5542 -442 5542 -474 
L 5542 -704 
z
M 5344 627 
Q 5344 538 5254 538 
L 4992 538 
Q 4902 538 4902 627 
L 4902 4915 
Q 4902 5005 4992 5005 
L 5254 5005 
Q 5344 5005 5344 4915 
L 5344 627 
z
" transform="scale(0.015625)"/>
      <path id="NanumGothicCoding-cabd" d="M 2867 4243 
Q 2810 4166 2749 4089 
Q 2688 4013 2618 3942 
Q 2797 3763 3014 3622 
Q 3232 3482 3456 3373 
Q 3814 3590 4051 3820 
Q 4288 4051 4461 4339 
Q 4493 4390 4480 4432 
Q 4467 4474 4397 4474 
L 3296 4474 
Q 3219 4474 3219 4563 
L 3219 4768 
Q 3219 4845 3309 4845 
L 4557 4845 
Q 4915 4845 4995 4704 
Q 5075 4563 4934 4320 
Q 4851 4179 4764 4051 
Q 4678 3923 4576 3808 
Q 4685 3725 4829 3645 
Q 4973 3565 5117 3491 
Q 5261 3418 5398 3363 
Q 5536 3309 5638 3277 
Q 5683 3264 5692 3225 
Q 5702 3187 5677 3142 
L 5568 2957 
Q 5530 2886 5421 2938 
Q 5306 2982 5162 3049 
Q 5018 3117 4870 3200 
Q 4723 3283 4579 3369 
Q 4435 3456 4320 3546 
Q 4096 3341 3805 3158 
Q 3514 2976 3110 2778 
Q 3027 2733 2970 2810 
L 2867 2950 
Q 2835 2989 2851 3027 
Q 2867 3066 2906 3085 
Q 2950 3104 2988 3123 
Q 3027 3142 3066 3162 
Q 2880 3270 2694 3411 
Q 2509 3552 2355 3699 
Q 1773 3219 941 2906 
Q 890 2886 861 2883 
Q 832 2880 806 2925 
L 710 3110 
Q 685 3155 701 3184 
Q 717 3213 749 3226 
Q 998 3309 1251 3440 
Q 1504 3571 1728 3721 
Q 1952 3872 2131 4032 
Q 2310 4192 2406 4346 
Q 2438 4390 2428 4432 
Q 2419 4474 2349 4474 
L 1197 4474 
Q 1114 4474 1114 4563 
L 1114 4768 
Q 1114 4806 1142 4825 
Q 1171 4845 1210 4845 
L 2522 4845 
Q 3296 4845 2867 4243 
z
M 6016 1728 
Q 6016 1696 5984 1670 
Q 5952 1645 5920 1645 
L 480 1645 
Q 442 1645 413 1670 
Q 384 1696 384 1728 
L 384 1952 
Q 384 1990 413 2009 
Q 442 2029 480 2029 
L 3034 2029 
L 3034 2566 
Q 3034 2656 3123 2656 
L 3386 2656 
Q 3475 2656 3475 2566 
L 3475 2029 
L 5920 2029 
Q 5952 2029 5984 2006 
Q 6016 1984 6016 1946 
L 6016 1728 
z
M 5120 -870 
Q 5120 -960 5030 -960 
L 4768 -960 
Q 4678 -960 4678 -870 
L 4678 467 
Q 4678 557 4649 579 
Q 4621 602 4531 602 
L 1235 602 
Q 1203 602 1171 624 
Q 1139 646 1139 678 
L 1139 909 
Q 1139 947 1171 966 
Q 1203 986 1235 986 
L 4634 986 
Q 4934 986 5027 874 
Q 5120 762 5120 499 
L 5120 -870 
z
" transform="scale(0.015625)"/>
      <path id="NanumGothicCoding-2f" d="M 2650 4410 
Q 2726 4410 2736 4397 
Q 2746 4384 2720 4314 
L 934 -486 
Q 909 -544 896 -553 
Q 883 -563 813 -563 
L 544 -563 
Q 467 -563 457 -550 
Q 448 -538 474 -474 
L 2259 4320 
Q 2285 4384 2301 4397 
Q 2317 4410 2400 4410 
L 2650 4410 
z
" transform="scale(0.015625)"/>
      <path id="NanumGothicCoding-bc18" d="M 1350 1715 
Q 1197 1715 1104 1734 
Q 1011 1754 960 1808 
Q 909 1862 889 1948 
Q 870 2035 870 2170 
L 870 4691 
Q 870 4723 896 4745 
Q 922 4768 954 4768 
L 1229 4768 
Q 1261 4768 1283 4742 
Q 1306 4717 1306 4691 
L 1306 3584 
L 3168 3584 
L 3168 4685 
Q 3168 4717 3190 4742 
Q 3213 4768 3245 4768 
L 3520 4768 
Q 3552 4768 3577 4745 
Q 3603 4723 3603 4691 
L 3603 2125 
Q 3603 1882 3500 1798 
Q 3398 1715 3117 1715 
L 1350 1715 
z
M 5120 832 
Q 5120 742 5030 742 
L 4768 742 
Q 4678 742 4678 832 
L 4678 4915 
Q 4678 5005 4768 5005 
L 5030 5005 
Q 5120 5005 5120 4915 
L 5120 3130 
L 6003 3130 
Q 6042 3130 6070 3107 
Q 6099 3085 6099 3046 
L 6099 2829 
Q 6099 2797 6070 2771 
Q 6042 2746 6003 2746 
L 5120 2746 
L 5120 832 
z
M 5408 -704 
Q 5408 -742 5376 -761 
Q 5344 -781 5312 -781 
L 2054 -781 
Q 1754 -781 1661 -669 
Q 1568 -557 1568 -294 
L 1568 960 
Q 1568 1050 1658 1050 
L 1920 1050 
Q 2010 1050 2010 960 
L 2010 -262 
Q 2010 -352 2038 -374 
Q 2067 -397 2157 -397 
L 5312 -397 
Q 5344 -397 5376 -419 
Q 5408 -442 5408 -474 
L 5408 -704 
z
M 1306 3206 
L 1306 2246 
Q 1306 2150 1338 2121 
Q 1370 2093 1459 2093 
L 3014 2093 
Q 3104 2093 3136 2121 
Q 3168 2150 3168 2246 
L 3168 3206 
L 1306 3206 
z
" transform="scale(0.015625)"/>
      <path id="NanumGothicCoding-c2dc" d="M 2598 4589 
Q 2598 4166 2563 3779 
Q 2528 3392 2451 3034 
Q 2515 2778 2649 2493 
Q 2784 2208 2966 1926 
Q 3149 1645 3376 1379 
Q 3603 1114 3859 902 
Q 3891 877 3894 838 
Q 3898 800 3878 774 
L 3718 576 
Q 3661 506 3584 576 
Q 3405 730 3216 944 
Q 3027 1158 2851 1395 
Q 2675 1632 2521 1881 
Q 2368 2131 2259 2362 
Q 2054 1779 1721 1289 
Q 1389 800 928 378 
Q 864 326 819 371 
L 627 570 
Q 608 589 611 621 
Q 614 653 646 685 
Q 1037 1056 1325 1465 
Q 1613 1875 1795 2348 
Q 1978 2822 2064 3379 
Q 2150 3936 2150 4602 
Q 2150 4646 2172 4668 
Q 2195 4691 2227 4691 
L 2528 4678 
Q 2598 4678 2598 4589 
z
M 5344 -806 
Q 5344 -896 5254 -896 
L 4992 -896 
Q 4902 -896 4902 -806 
L 4902 4915 
Q 4902 5005 4992 5005 
L 5254 5005 
Q 5344 5005 5344 4915 
L 5344 -806 
z
" transform="scale(0.015625)"/>
      <path id="NanumGothicCoding-acc4" d="M 3130 4000 
Q 3117 3846 3094 3702 
Q 3072 3558 3040 3411 
L 4000 3411 
L 4000 4806 
Q 4000 4896 4090 4896 
L 4333 4896 
Q 4422 4896 4422 4806 
L 4422 -563 
Q 4422 -653 4333 -653 
L 4090 -653 
Q 4000 -653 4000 -563 
L 4000 1568 
L 2778 1568 
Q 2694 1568 2694 1645 
L 2694 1869 
Q 2694 1946 2778 1946 
L 4000 1946 
L 4000 3034 
L 2931 3034 
Q 2464 1594 922 570 
Q 838 512 794 576 
L 653 774 
Q 621 813 633 851 
Q 646 890 678 909 
Q 1107 1178 1456 1507 
Q 1805 1837 2061 2211 
Q 2317 2586 2470 2998 
Q 2624 3411 2662 3846 
Q 2675 4006 2636 4054 
Q 2598 4102 2470 4102 
L 915 4102 
Q 838 4102 838 4179 
L 838 4410 
Q 838 4442 864 4464 
Q 890 4486 922 4486 
L 2624 4486 
Q 2912 4486 3030 4364 
Q 3149 4243 3130 4000 
z
M 5555 -806 
Q 5555 -896 5466 -896 
L 5222 -896 
Q 5133 -896 5133 -806 
L 5133 4915 
Q 5133 5005 5222 5005 
L 5466 5005 
Q 5555 5005 5555 4915 
L 5555 -806 
z
" transform="scale(0.015625)"/>
     </defs>
     <use xlink:href="#NanumGothicCoding-c591"/>
     <use xlink:href="#NanumGothicCoding-c218" transform="translate(99.999985 0)"/>
     <use xlink:href="#NanumGothicCoding-3a" transform="translate(199.999969 0)"/>
     <use xlink:href="#NanumGothicCoding-20" transform="translate(249.999954 0)"/>
     <use xlink:href="#NanumGothicCoding-c67c" transform="translate(299.999939 0)"/>
     <use xlink:href="#NanumGothicCoding-cabd" transform="translate(399.999924 0)"/>
     <use xlink:href="#NanumGothicCoding-20" transform="translate(499.999908 0)"/>
     <use xlink:href="#NanumGothicCoding-2f" transform="translate(549.999893 0)"/>
     <use xlink:href="#NanumGothicCoding-20" transform="translate(599.999878 0)"/>
     <use xlink:href="#NanumGothicCoding-bc18" transform="translate(649.999863 0)"/>
     <use xlink:href="#NanumGothicCoding-c2dc" transform="translate(749.999847 0)"/>
     <use xlink:href="#NanumGothicCoding-acc4" transform="translate(849.999832 0)"/>
    </g>
   </g>
   <g id="text_2">
    <!-- 음수: 오른쪽 / 시계 -->
    <g style="fill: #111827" transform="translate(16.4736 40.124503) scale(0.11 -0.11)">
     <defs>
      <path id="NanumGothicCoding-c74c" d="M 1267 672 
Q 1267 941 1369 1033 
Q 1472 1126 1754 1126 
L 4634 1126 
Q 4787 1126 4880 1107 
Q 4973 1088 5027 1037 
Q 5082 986 5101 896 
Q 5120 806 5120 672 
L 5120 -390 
Q 5120 -659 5017 -752 
Q 4915 -845 4634 -845 
L 1754 -845 
Q 1600 -845 1507 -825 
Q 1414 -806 1360 -752 
Q 1306 -698 1286 -611 
Q 1267 -525 1267 -390 
L 1267 672 
z
M 1862 742 
Q 1773 742 1741 707 
Q 1709 672 1709 576 
L 1709 -294 
Q 1709 -390 1741 -425 
Q 1773 -461 1862 -461 
L 4525 -461 
Q 4614 -461 4646 -425 
Q 4678 -390 4678 -294 
L 4678 576 
Q 4678 672 4646 707 
Q 4614 742 4525 742 
L 1862 742 
z
M 5920 2144 
Q 5952 2144 5984 2121 
Q 6016 2099 6016 2061 
L 6016 1843 
Q 6016 1811 5984 1785 
Q 5952 1760 5920 1760 
L 480 1760 
Q 442 1760 413 1785 
Q 384 1811 384 1843 
L 384 2061 
Q 384 2099 413 2121 
Q 442 2144 480 2144 
L 5920 2144 
z
M 3187 2669 
Q 2867 2669 2515 2723 
Q 2163 2778 1872 2906 
Q 1581 3034 1389 3254 
Q 1197 3475 1197 3802 
Q 1197 4128 1389 4342 
Q 1581 4557 1872 4688 
Q 2163 4819 2515 4873 
Q 2867 4928 3187 4928 
Q 3514 4928 3866 4864 
Q 4218 4800 4509 4665 
Q 4800 4531 4989 4316 
Q 5178 4102 5178 3802 
Q 5178 3494 4989 3280 
Q 4800 3066 4505 2931 
Q 4211 2797 3862 2733 
Q 3514 2669 3187 2669 
z
M 3187 4531 
Q 2963 4531 2697 4496 
Q 2432 4461 2201 4374 
Q 1971 4288 1817 4147 
Q 1664 4006 1664 3795 
Q 1664 3590 1817 3449 
Q 1971 3309 2201 3222 
Q 2432 3136 2697 3101 
Q 2963 3066 3187 3066 
Q 3405 3066 3670 3101 
Q 3936 3136 4166 3222 
Q 4397 3309 4553 3449 
Q 4710 3590 4710 3795 
Q 4710 4006 4553 4147 
Q 4397 4288 4166 4374 
Q 3936 4461 3670 4496 
Q 3405 4531 3187 4531 
z
" transform="scale(0.015625)"/>
      <path id="NanumGothicCoding-c624" d="M 5920 499 
Q 5952 499 5984 476 
Q 6016 454 6016 416 
L 6016 198 
Q 6016 166 5984 140 
Q 5952 115 5920 115 
L 480 115 
Q 442 115 413 140 
Q 384 166 384 198 
L 384 416 
Q 384 454 413 476 
Q 442 499 480 499 
L 2963 499 
L 2963 1830 
Q 2650 1856 2326 1945 
Q 2003 2035 1737 2208 
Q 1472 2381 1305 2637 
Q 1139 2893 1139 3251 
Q 1139 3642 1334 3914 
Q 1530 4186 1834 4352 
Q 2138 4518 2499 4595 
Q 2861 4672 3187 4672 
Q 3520 4672 3885 4595 
Q 4250 4518 4547 4352 
Q 4845 4186 5040 3914 
Q 5235 3642 5235 3251 
Q 5235 2893 5068 2633 
Q 4902 2374 4640 2204 
Q 4378 2035 4051 1942 
Q 3725 1850 3405 1830 
L 3405 499 
L 5920 499 
z
M 3187 4269 
Q 2963 4269 2691 4224 
Q 2419 4179 2179 4064 
Q 1939 3949 1776 3750 
Q 1613 3552 1613 3245 
Q 1613 2938 1776 2739 
Q 1939 2541 2179 2429 
Q 2419 2317 2691 2272 
Q 2963 2227 3187 2227 
Q 3405 2227 3677 2272 
Q 3949 2317 4189 2429 
Q 4429 2541 4595 2739 
Q 4762 2938 4762 3245 
Q 4762 3552 4595 3750 
Q 4429 3949 4189 4064 
Q 3949 4179 3677 4224 
Q 3405 4269 3187 4269 
z
" transform="scale(0.015625)"/>
      <path id="NanumGothicCoding-b978" d="M 5920 1734 
Q 5952 1734 5984 1712 
Q 6016 1690 6016 1651 
L 6016 1434 
Q 6016 1402 5984 1376 
Q 5952 1350 5920 1350 
L 480 1350 
Q 442 1350 413 1376 
Q 384 1402 384 1434 
L 384 1651 
Q 384 1690 413 1712 
Q 442 1734 480 1734 
L 5920 1734 
z
M 5274 -704 
Q 5274 -742 5242 -761 
Q 5210 -781 5178 -781 
L 1754 -781 
Q 1453 -781 1360 -656 
Q 1267 -531 1267 -269 
L 1267 749 
Q 1267 838 1357 838 
L 1619 838 
Q 1709 838 1709 749 
L 1709 -262 
Q 1709 -352 1737 -374 
Q 1766 -397 1856 -397 
L 5178 -397 
Q 5210 -397 5242 -419 
Q 5274 -442 5274 -474 
L 5274 -704 
z
M 5235 2406 
Q 5235 2374 5206 2352 
Q 5178 2330 5152 2330 
L 1779 2330 
Q 1478 2330 1385 2442 
Q 1293 2554 1293 2822 
L 1293 3328 
Q 1293 3603 1405 3692 
Q 1517 3782 1805 3782 
L 4525 3782 
Q 4614 3782 4636 3808 
Q 4659 3834 4659 3930 
L 4659 4352 
Q 4659 4448 4636 4473 
Q 4614 4499 4525 4499 
L 1382 4499 
Q 1350 4499 1321 4518 
Q 1293 4538 1293 4570 
L 1293 4800 
Q 1293 4832 1321 4851 
Q 1350 4870 1382 4870 
L 4595 4870 
Q 4749 4870 4845 4848 
Q 4941 4826 4998 4774 
Q 5056 4723 5078 4630 
Q 5101 4538 5101 4403 
L 5101 3878 
Q 5101 3603 4989 3513 
Q 4877 3424 4589 3424 
L 1862 3424 
Q 1773 3424 1750 3398 
Q 1728 3373 1728 3277 
L 1728 2842 
Q 1728 2752 1753 2723 
Q 1779 2694 1869 2694 
L 5146 2694 
Q 5178 2694 5206 2675 
Q 5235 2656 5235 2624 
L 5235 2406 
z
" transform="scale(0.015625)"/>
     </defs>
     <use xlink:href="#NanumGothicCoding-c74c"/>
     <use xlink:href="#NanumGothicCoding-c218" transform="translate(99.999985 0)"/>
     <use xlink:href="#NanumGothicCoding-3a" transform="translate(199.999969 0)"/>
     <use xlink:href="#NanumGothicCoding-20" transform="translate(249.999954 0)"/>
     <use xlink:href="#NanumGothicCoding-c624" transform="translate(299.999939 0)"/>
     <use xlink:href="#NanumGothicCoding-b978" transform="translate(399.999924 0)"/>
     <use xlink:href="#NanumGothicCoding-cabd" transform="translate(499.999908 0)"/>
     <use xlink:href="#NanumGothicCoding-20" transform="translate(599.999893 0)"/>
     <use xlink:href="#NanumGothicCoding-2f" transform="translate(649.999878 0)"/>
     <use xlink:href="#NanumGothicCoding-20" transform="translate(699.999863 0)"/>
     <use xlink:href="#NanumGothicCoding-c2dc" transform="translate(749.999847 0)"/>
     <use xlink:href="#NanumGothicCoding-acc4" transform="translate(849.999832 0)"/>
    </g>
   </g>
   <g id="text_3">
    <!-- 0: 같은 선 -->
    <g style="fill: #111827" transform="translate(16.4736 52.609863) scale(0.11 -0.11)">
     <defs>
      <path id="NanumGothicCoding-30" d="M 1747 1242 
L 1453 1242 
Q 1376 1242 1376 1331 
L 1376 2355 
Q 1376 2445 1453 2445 
L 1747 2445 
Q 1824 2445 1824 2355 
L 1824 1331 
Q 1824 1242 1747 1242 
z
M 2470 1907 
Q 2483 3731 1600 3731 
Q 717 3731 730 1907 
Q 717 77 1600 77 
Q 2483 77 2470 1907 
z
M 2906 1907 
Q 2906 -326 1606 -326 
Q 294 -326 294 1907 
Q 294 2726 544 3354 
Q 909 4141 1606 4141 
Q 2285 4141 2662 3354 
Q 2790 3040 2848 2637 
Q 2906 2234 2906 1907 
z
" transform="scale(0.015625)"/>
      <path id="NanumGothicCoding-ac19" d="M 5120 218 
Q 5120 134 5037 134 
L 1978 134 
L 1978 -378 
Q 1978 -467 2010 -505 
Q 2042 -544 2131 -544 
L 5178 -544 
Q 5261 -544 5261 -627 
L 5261 -826 
Q 5261 -915 5178 -915 
L 2016 -915 
Q 1734 -915 1632 -822 
Q 1530 -730 1530 -461 
L 1530 1088 
Q 1530 1357 1632 1449 
Q 1734 1542 2016 1542 
L 5069 1542 
Q 5152 1542 5152 1459 
L 5152 1261 
Q 5152 1171 5069 1171 
L 2131 1171 
Q 2042 1171 2010 1136 
Q 1978 1101 1978 1005 
L 1978 499 
L 5030 499 
Q 5120 499 5120 429 
L 5120 218 
z
M 3482 4326 
Q 3405 3904 3225 3545 
Q 3046 3187 2736 2867 
Q 2426 2547 1971 2262 
Q 1517 1978 890 1709 
Q 787 1664 749 1747 
L 653 1958 
Q 627 2010 649 2042 
Q 672 2074 704 2086 
Q 2771 2938 3002 4211 
Q 3040 4397 2848 4397 
L 877 4397 
Q 800 4397 800 4480 
L 800 4704 
Q 800 4781 877 4781 
L 2995 4781 
Q 3302 4781 3414 4672 
Q 3526 4563 3482 4326 
z
M 5120 1952 
Q 5120 1862 5030 1862 
L 4768 1862 
Q 4678 1862 4678 1952 
L 4678 4915 
Q 4678 5005 4768 5005 
L 5030 5005 
Q 5120 5005 5120 4915 
L 5120 3616 
L 6003 3616 
Q 6042 3616 6070 3593 
Q 6099 3571 6099 3533 
L 6099 3315 
Q 6099 3283 6070 3257 
Q 6042 3232 6003 3232 
L 5120 3232 
L 5120 1952 
z
" transform="scale(0.015625)"/>
      <path id="NanumGothicCoding-c740" d="M 5920 2022 
Q 5952 2022 5984 2000 
Q 6016 1978 6016 1939 
L 6016 1722 
Q 6016 1690 5984 1664 
Q 5952 1638 5920 1638 
L 480 1638 
Q 442 1638 413 1664 
Q 384 1690 384 1722 
L 384 1939 
Q 384 1978 413 2000 
Q 442 2022 480 2022 
L 5920 2022 
z
M 3200 2624 
Q 2893 2624 2544 2681 
Q 2195 2739 1897 2873 
Q 1600 3008 1405 3229 
Q 1210 3450 1210 3776 
Q 1210 4122 1405 4342 
Q 1600 4563 1897 4691 
Q 2195 4819 2544 4867 
Q 2893 4915 3200 4915 
Q 3514 4915 3866 4857 
Q 4218 4800 4512 4669 
Q 4806 4538 4998 4320 
Q 5190 4102 5190 3776 
Q 5190 3450 4998 3229 
Q 4806 3008 4512 2873 
Q 4218 2739 3866 2681 
Q 3514 2624 3200 2624 
z
M 3200 4518 
Q 2995 4518 2732 4489 
Q 2470 4461 2240 4381 
Q 2010 4301 1850 4153 
Q 1690 4006 1690 3770 
Q 1690 3533 1850 3385 
Q 2010 3238 2240 3158 
Q 2470 3078 2732 3049 
Q 2995 3021 3200 3021 
Q 3405 3021 3667 3049 
Q 3930 3078 4160 3158 
Q 4390 3238 4550 3385 
Q 4710 3533 4710 3770 
Q 4710 4006 4550 4153 
Q 4390 4301 4160 4381 
Q 3930 4461 3667 4489 
Q 3405 4518 3200 4518 
z
M 5325 -704 
Q 5325 -742 5293 -761 
Q 5261 -781 5229 -781 
L 1754 -781 
Q 1453 -781 1360 -656 
Q 1267 -531 1267 -269 
L 1267 1037 
Q 1267 1126 1357 1126 
L 1619 1126 
Q 1709 1126 1709 1037 
L 1709 -262 
Q 1709 -352 1737 -374 
Q 1766 -397 1856 -397 
L 5229 -397 
Q 5261 -397 5293 -419 
Q 5325 -442 5325 -474 
L 5325 -704 
z
" transform="scale(0.015625)"/>
      <path id="NanumGothicCoding-c120" d="M 2573 4710 
Q 2573 4461 2544 4224 
Q 2515 3987 2464 3763 
Q 2541 3501 2685 3241 
Q 2829 2982 3024 2748 
Q 3219 2515 3449 2326 
Q 3680 2138 3923 2022 
Q 3962 2003 3958 1971 
Q 3955 1939 3942 1907 
L 3814 1696 
Q 3795 1664 3769 1651 
Q 3744 1638 3686 1670 
Q 3501 1760 3299 1926 
Q 3098 2093 2902 2294 
Q 2707 2496 2540 2723 
Q 2374 2950 2266 3162 
Q 2048 2643 1693 2217 
Q 1338 1792 858 1478 
Q 826 1459 787 1452 
Q 749 1446 723 1478 
L 563 1690 
Q 544 1715 557 1753 
Q 570 1792 602 1811 
Q 947 2022 1232 2336 
Q 1517 2650 1718 3027 
Q 1920 3405 2025 3837 
Q 2131 4269 2125 4717 
Q 2125 4819 2202 4819 
L 2502 4800 
Q 2573 4800 2573 4710 
z
M 4902 3475 
L 4902 4915 
Q 4902 5005 4992 5005 
L 5254 5005 
Q 5344 5005 5344 4915 
L 5344 832 
Q 5344 742 5254 742 
L 4992 742 
Q 4902 742 4902 832 
L 4902 3091 
L 3584 3091 
Q 3501 3091 3501 3168 
L 3501 3398 
Q 3501 3475 3584 3475 
L 4902 3475 
z
M 5536 -704 
Q 5536 -742 5504 -761 
Q 5472 -781 5440 -781 
L 2234 -781 
Q 1933 -781 1840 -669 
Q 1747 -557 1747 -294 
L 1747 960 
Q 1747 1050 1837 1050 
L 2099 1050 
Q 2189 1050 2189 960 
L 2189 -262 
Q 2189 -352 2217 -374 
Q 2246 -397 2336 -397 
L 5440 -397 
Q 5472 -397 5504 -419 
Q 5536 -442 5536 -474 
L 5536 -704 
z
" transform="scale(0.015625)"/>
     </defs>
     <use xlink:href="#NanumGothicCoding-30"/>
     <use xlink:href="#NanumGothicCoding-3a" transform="translate(49.999985 0)"/>
     <use xlink:href="#NanumGothicCoding-20" transform="translate(99.999969 0)"/>
     <use xlink:href="#NanumGothicCoding-ac19" transform="translate(149.999954 0)"/>
     <use xlink:href="#NanumGothicCoding-c740" transform="translate(249.999939 0)"/>
     <use xlink:href="#NanumGothicCoding-20" transform="translate(349.999924 0)"/>
     <use xlink:href="#NanumGothicCoding-c120" transform="translate(399.999908 0)"/>
    </g>
   </g>
  </g>
 </g>
 <defs>
  <clipPath id="peb1b561363">
   <rect x="5.76" y="5.76" width="267.84" height="114.2064"/>
  </clipPath>
 </defs>
</svg>
