<svg xmlns="http://www.w3.org/2000/svg" viewBox="0 0 900 270"><rect width="900" height="270" rx="16" fill="#f8fafc"/><text x="450" y="28" text-anchor="middle" font-family="sans-serif" font-size="18" font-weight="700">텍스처 샘플링</text><g font-family="sans-serif" text-anchor="middle"><text x="145" y="55">UV / Texel</text><text x="430" y="55">Nearest vs Bilinear</text><text x="730" y="55">Mipmap</text></g><g transform="translate(55 75)"><rect width="180" height="150" fill="#fff" stroke="#334155"/><g stroke="#94a3b8"><path d="M45 0V150M90 0V150M135 0V150M0 37.5H180M0 75H180M0 112.5H180"/></g><circle cx="110" cy="58" r="6" fill="#ef4444"/><text x="118" y="52" font-family="sans-serif" font-size="11">(u,v)</text></g><g transform="translate(325 85)"><rect width="90" height="120" fill="#60a5fa"/><rect x="90" width="90" height="120" fill="url(#g)"/><text x="45" y="145" text-anchor="middle" font-family="sans-serif" font-size="11">Nearest</text><text x="135" y="145" text-anchor="middle" font-family="sans-serif" font-size="11">Bilinear</text></g><defs><linearGradient id="g"><stop stop-color="#60a5fa"/><stop offset="1" stop-color="#f97316"/></linearGradient></defs><g transform="translate(650 75)"><rect width="150" height="90" fill="#a78bfa"/><rect x="30" y="105" width="90" height="54" fill="#a78bfa"/><rect x="55" y="174" width="40" height="24" fill="#a78bfa"/><text x="75" y="220" text-anchor="middle" font-family="sans-serif" font-size="11">크기별 축소본</text></g></svg>
