<?xml version="1.0" encoding="utf-8" standalone="no"?>
<!DOCTYPE svg PUBLIC "-//W3C//DTD SVG 1.1//EN"
  "http://www.w3.org/Graphics/SVG/1.1/DTD/svg11.dtd">
<svg xmlns:xlink="http://www.w3.org/1999/xlink" width="631.08pt" height="150.933622pt" viewBox="0 0 631.08 150.933622" xmlns="http://www.w3.org/2000/svg" version="1.1">
 <metadata>
  <rdf:RDF xmlns:dc="http://purl.org/dc/elements/1.1/" xmlns:cc="http://creativecommons.org/ns#" xmlns:rdf="http://www.w3.org/1999/02/22-rdf-syntax-ns#">
   <cc:Work>
    <dc:type rdf:resource="http://purl.org/dc/dcmitype/StillImage"/>
    <dc:date>2026-07-08T05:12:55.211123</dc:date>
    <dc:format>image/svg+xml</dc:format>
    <dc:creator>
     <cc:Agent>
      <dc:title>Matplotlib v3.10.8, https://matplotlib.org/</dc:title>
     </cc:Agent>
    </dc:creator>
   </cc:Work>
  </rdf:RDF>
 </metadata>
 <defs>
  <style type="text/css">*{stroke-linejoin: round; stroke-linecap: butt}</style>
 </defs>
 <g id="figure_1">
  <g id="patch_1">
   <path d="M 0 150.933622 
L 631.08 150.933622 
L 631.08 0 
L 0 0 
z
" style="fill: #ffffff"/>
  </g>
  <g id="axes_1">
   <g id="text_1">
    <!-- 변환 흐름 -->
    <g style="fill: #111827" transform="translate(8.64 20.054063) scale(0.15 -0.15)">
     <defs>
      <path id="NanumGothicBold-bcc0" d="M 3456 2067 
Q 3456 1850 3353 1744 
Q 3251 1638 2976 1638 
L 1126 1638 
Q 845 1638 742 1734 
Q 640 1830 640 2086 
L 640 4698 
Q 640 4730 665 4752 
Q 691 4774 723 4774 
L 1280 4774 
Q 1312 4774 1341 4752 
Q 1370 4730 1370 4698 
L 1370 3699 
L 2726 3699 
L 2726 4704 
Q 2726 4736 2752 4761 
Q 2778 4787 2810 4787 
L 3373 4787 
Q 3405 4787 3430 4761 
Q 3456 4736 3456 4704 
L 3456 4090 
L 4544 4090 
L 4544 4979 
Q 4544 5062 4627 5062 
L 5197 5062 
Q 5280 5062 5280 4979 
L 5280 787 
Q 5280 704 5197 704 
L 4627 704 
Q 4544 704 4544 787 
L 4544 2221 
L 3456 2221 
L 3456 2067 
z
M 5466 -826 
Q 5466 -864 5437 -883 
Q 5408 -902 5376 -902 
L 2048 -902 
Q 1760 -902 1657 -800 
Q 1555 -698 1555 -448 
L 1555 870 
Q 1555 902 1587 934 
Q 1619 966 1651 966 
L 2195 966 
Q 2240 966 2269 934 
Q 2298 902 2298 870 
L 2298 -186 
Q 2298 -250 2323 -269 
Q 2349 -288 2413 -288 
L 5376 -288 
Q 5408 -288 5437 -313 
Q 5466 -339 5466 -371 
L 5466 -826 
z
M 2726 3104 
L 1370 3104 
L 1370 2368 
Q 1370 2259 1485 2259 
L 2611 2259 
Q 2726 2259 2726 2368 
L 2726 3104 
z
M 4544 2797 
L 4544 3514 
L 3456 3514 
L 3456 2797 
L 4544 2797 
z
" transform="scale(0.015625)"/>
      <path id="NanumGothicBold-d658" d="M 224 1267 
Q 224 1357 314 1357 
Q 672 1344 1049 1341 
Q 1427 1338 1824 1350 
L 1824 1779 
Q 1613 1818 1427 1891 
Q 1242 1965 1104 2077 
Q 966 2189 889 2336 
Q 813 2483 813 2656 
Q 813 2867 925 3036 
Q 1037 3206 1229 3321 
Q 1421 3437 1673 3501 
Q 1926 3565 2202 3565 
Q 2483 3565 2736 3501 
Q 2989 3437 3181 3321 
Q 3373 3206 3485 3036 
Q 3597 2867 3597 2656 
Q 3597 2477 3517 2326 
Q 3437 2176 3293 2064 
Q 3149 1952 2957 1878 
Q 2765 1805 2547 1773 
L 2547 1370 
Q 2918 1389 3270 1414 
Q 3622 1440 3949 1478 
Q 3981 1485 4016 1472 
Q 4051 1459 4058 1414 
L 4090 1056 
Q 4096 1011 4070 982 
Q 4045 954 4013 947 
Q 3571 896 3081 861 
Q 2592 826 2109 806 
Q 1626 787 1165 780 
Q 704 774 314 787 
Q 275 787 249 816 
Q 224 845 224 883 
L 224 1267 
z
M 5971 2157 
Q 5971 2125 5942 2099 
Q 5914 2074 5882 2074 
L 5043 2074 
L 5043 403 
Q 5043 320 4960 320 
L 4390 320 
Q 4307 320 4307 403 
L 4307 4979 
Q 4307 5062 4390 5062 
L 4960 5062 
Q 5043 5062 5043 4979 
L 5043 2688 
L 5882 2688 
Q 5914 2688 5942 2665 
Q 5971 2643 5971 2611 
L 5971 2157 
z
M 5338 -870 
Q 5338 -909 5309 -928 
Q 5280 -947 5248 -947 
L 1677 -947 
Q 1382 -947 1283 -844 
Q 1184 -742 1184 -493 
L 1184 429 
Q 1184 461 1213 489 
Q 1242 518 1274 518 
L 1830 518 
Q 1875 518 1900 489 
Q 1926 461 1926 429 
L 1926 -230 
Q 1926 -294 1955 -313 
Q 1984 -333 2048 -333 
L 5248 -333 
Q 5280 -333 5309 -358 
Q 5338 -384 5338 -416 
L 5338 -870 
z
M 3840 3834 
Q 3840 3795 3811 3766 
Q 3782 3738 3744 3738 
L 538 3738 
Q 506 3738 474 3770 
Q 442 3802 442 3840 
L 442 4173 
Q 442 4211 477 4243 
Q 512 4275 544 4275 
L 3744 4275 
Q 3782 4275 3811 4246 
Q 3840 4218 3840 4173 
L 3840 3834 
z
M 3040 4602 
Q 3040 4563 3011 4528 
Q 2982 4493 2931 4493 
L 1357 4493 
Q 1331 4493 1292 4521 
Q 1254 4550 1254 4595 
L 1254 4941 
Q 1254 4986 1292 5011 
Q 1331 5037 1357 5037 
L 2931 5037 
Q 2976 5037 3008 5005 
Q 3040 4973 3040 4934 
L 3040 4602 
z
M 2202 3046 
Q 1914 3046 1725 2937 
Q 1536 2829 1536 2656 
Q 1536 2483 1725 2374 
Q 1914 2266 2202 2266 
Q 2496 2266 2681 2374 
Q 2867 2483 2867 2656 
Q 2867 2829 2681 2937 
Q 2496 3046 2202 3046 
z
" transform="scale(0.015625)"/>
      <path id="NanumGothicBold-20" transform="scale(0.015625)"/>
      <path id="NanumGothicBold-d750" d="M 5786 666 
Q 5818 666 5850 634 
Q 5882 602 5882 570 
L 5882 166 
Q 5882 134 5850 99 
Q 5818 64 5786 64 
L 211 64 
Q 173 64 147 99 
Q 122 134 122 166 
L 122 570 
Q 122 608 147 637 
Q 173 666 211 666 
L 5786 666 
z
M 2995 1082 
Q 2611 1082 2291 1165 
Q 1971 1248 1740 1395 
Q 1510 1542 1382 1747 
Q 1254 1952 1254 2195 
Q 1254 2438 1385 2643 
Q 1517 2848 1747 2995 
Q 1978 3142 2298 3225 
Q 2618 3309 2995 3309 
Q 3379 3309 3699 3225 
Q 4019 3142 4252 2995 
Q 4486 2848 4614 2643 
Q 4742 2438 4742 2195 
Q 4742 1952 4614 1747 
Q 4486 1542 4252 1395 
Q 4019 1248 3699 1165 
Q 3379 1082 2995 1082 
z
M 2995 2771 
Q 2784 2771 2595 2729 
Q 2406 2688 2268 2611 
Q 2131 2534 2051 2428 
Q 1971 2323 1971 2195 
Q 1971 2067 2051 1961 
Q 2131 1856 2268 1779 
Q 2406 1702 2595 1660 
Q 2784 1619 2995 1619 
Q 3206 1619 3395 1660 
Q 3584 1702 3721 1779 
Q 3859 1856 3942 1961 
Q 4026 2067 4026 2195 
Q 4026 2323 3942 2428 
Q 3859 2534 3721 2611 
Q 3584 2688 3395 2729 
Q 3206 2771 2995 2771 
z
M 5370 3642 
Q 5370 3603 5341 3574 
Q 5312 3546 5274 3546 
L 723 3546 
Q 691 3546 659 3578 
Q 627 3610 627 3648 
L 627 4026 
Q 627 4058 662 4090 
Q 698 4122 730 4122 
L 5274 4122 
Q 5312 4122 5341 4093 
Q 5370 4064 5370 4026 
L 5370 3642 
z
M 4064 4499 
Q 4064 4461 4035 4429 
Q 4006 4397 3962 4397 
L 2035 4397 
Q 2010 4397 1974 4422 
Q 1939 4448 1939 4493 
L 1939 4890 
Q 1939 4934 1974 4963 
Q 2010 4992 2035 4992 
L 3962 4992 
Q 4000 4992 4032 4957 
Q 4064 4922 4064 4883 
L 4064 4499 
z
" transform="scale(0.015625)"/>
      <path id="NanumGothicBold-b984" d="M 5875 1542 
Q 5875 1510 5843 1478 
Q 5811 1446 5779 1446 
L 211 1446 
Q 173 1446 147 1475 
Q 122 1504 122 1542 
L 122 1958 
Q 122 2048 211 2048 
L 5779 2048 
Q 5811 2048 5843 2019 
Q 5875 1990 5875 1958 
L 5875 1542 
z
M 5075 2592 
Q 5075 2560 5046 2528 
Q 5018 2496 4992 2496 
L 1485 2496 
Q 1235 2496 1145 2589 
Q 1056 2682 1056 2886 
L 1056 3667 
Q 1056 3872 1142 3961 
Q 1229 4051 1478 4051 
L 4160 4051 
Q 4211 4051 4224 4067 
Q 4237 4083 4237 4141 
L 4237 4397 
Q 4237 4448 4224 4457 
Q 4211 4467 4154 4467 
L 1178 4467 
Q 1146 4467 1117 4492 
Q 1088 4518 1088 4550 
L 1088 4960 
Q 1088 4992 1117 5017 
Q 1146 5043 1178 5043 
L 4518 5043 
Q 4781 5043 4867 4963 
Q 4954 4883 4954 4666 
L 4954 3898 
Q 4954 3674 4867 3594 
Q 4781 3514 4518 3514 
L 1862 3514 
Q 1805 3514 1792 3498 
Q 1779 3482 1779 3430 
L 1779 3149 
Q 1779 3091 1792 3081 
Q 1805 3072 1869 3072 
L 4986 3072 
Q 5018 3072 5046 3049 
Q 5075 3027 5075 2989 
L 5075 2592 
z
M 4966 -499 
Q 4966 -742 4844 -844 
Q 4723 -947 4480 -947 
L 1510 -947 
Q 1222 -947 1123 -848 
Q 1024 -749 1024 -499 
L 1024 570 
Q 1024 813 1145 918 
Q 1267 1024 1510 1024 
L 4480 1024 
Q 4768 1024 4867 928 
Q 4966 832 4966 570 
L 4966 -499 
z
M 4230 339 
Q 4230 390 4214 406 
Q 4198 422 4147 422 
L 1843 422 
Q 1792 422 1776 409 
Q 1760 397 1760 346 
L 1760 -262 
Q 1760 -320 1776 -333 
Q 1792 -346 1843 -346 
L 4147 -346 
Q 4198 -346 4214 -333 
Q 4230 -320 4230 -262 
L 4230 339 
z
" transform="scale(0.015625)"/>
     </defs>
     <use xlink:href="#NanumGothicBold-bcc0"/>
     <use xlink:href="#NanumGothicBold-d658" transform="translate(93.999985 0)"/>
     <use xlink:href="#NanumGothicBold-20" transform="translate(187.999969 0)"/>
     <use xlink:href="#NanumGothicBold-d750" transform="translate(215.999954 0)"/>
     <use xlink:href="#NanumGothicBold-b984" transform="translate(309.999939 0)"/>
    </g>
   </g>
   <g id="text_2">
    <!-- 로컬 좌표 -->
    <g style="fill: #111827" transform="translate(37.147273 89.567607) scale(0.11 -0.11)">
     <defs>
      <path id="NanumGothicBold-b85c" d="M 5882 122 
Q 5882 90 5850 58 
Q 5818 26 5786 26 
L 211 26 
Q 173 26 147 58 
Q 122 90 122 122 
L 122 525 
Q 122 563 147 595 
Q 173 627 211 627 
L 2637 627 
L 2637 1581 
L 1491 1581 
Q 1350 1581 1260 1600 
Q 1171 1619 1120 1670 
Q 1069 1722 1049 1802 
Q 1030 1882 1030 2010 
L 1030 3040 
Q 1030 3168 1049 3248 
Q 1069 3328 1120 3376 
Q 1171 3424 1260 3440 
Q 1350 3456 1491 3456 
L 4154 3456 
Q 4218 3456 4234 3472 
Q 4250 3488 4250 3558 
L 4250 4058 
Q 4250 4128 4234 4137 
Q 4218 4147 4154 4147 
L 1139 4147 
Q 1107 4147 1081 4176 
Q 1056 4205 1056 4237 
L 1056 4666 
Q 1056 4698 1081 4723 
Q 1107 4749 1139 4749 
L 4506 4749 
Q 4774 4749 4870 4662 
Q 4966 4576 4966 4326 
L 4966 3290 
Q 4966 3040 4870 2953 
Q 4774 2867 4506 2867 
L 1837 2867 
Q 1773 2867 1760 2854 
Q 1747 2842 1747 2778 
L 1747 2272 
Q 1747 2202 1763 2186 
Q 1779 2170 1843 2170 
L 5018 2170 
Q 5050 2170 5075 2147 
Q 5101 2125 5101 2093 
L 5101 1664 
Q 5101 1632 5072 1606 
Q 5043 1581 5018 1581 
L 3373 1581 
L 3373 627 
L 5786 627 
Q 5818 627 5850 592 
Q 5882 557 5882 525 
L 5882 122 
z
" transform="scale(0.015625)"/>
      <path id="NanumGothicBold-ceec" d="M 5434 -909 
Q 5434 -941 5402 -969 
Q 5370 -998 5344 -998 
L 1907 -998 
Q 1658 -998 1568 -902 
Q 1478 -806 1478 -602 
L 1478 173 
Q 1478 378 1564 467 
Q 1651 557 1901 557 
L 4474 557 
Q 4525 557 4537 576 
Q 4550 595 4550 653 
L 4550 877 
Q 4550 947 4537 963 
Q 4525 979 4467 979 
L 1555 979 
Q 1523 979 1491 1001 
Q 1459 1024 1459 1056 
L 1459 1478 
Q 1459 1510 1491 1539 
Q 1523 1568 1555 1568 
L 4832 1568 
Q 5094 1568 5180 1478 
Q 5267 1389 5267 1171 
L 5267 403 
Q 5267 179 5180 96 
Q 5094 13 4832 13 
L 2278 13 
Q 2227 13 2214 -3 
Q 2202 -19 2202 -70 
L 2202 -333 
Q 2202 -390 2214 -400 
Q 2227 -410 2285 -410 
L 5338 -410 
Q 5370 -410 5402 -435 
Q 5434 -461 5434 -499 
L 5434 -909 
z
M 858 1677 
Q 787 1645 736 1654 
Q 685 1664 653 1728 
L 480 2048 
Q 448 2099 461 2153 
Q 474 2208 544 2240 
Q 1466 2630 2022 3149 
Q 1696 3123 1366 3110 
Q 1037 3098 749 3098 
Q 723 3098 691 3123 
Q 659 3149 659 3200 
L 659 3597 
Q 659 3635 691 3660 
Q 723 3686 742 3686 
Q 1165 3693 1641 3705 
Q 2118 3718 2515 3750 
Q 2611 3936 2669 4122 
Q 2701 4230 2697 4268 
Q 2694 4307 2579 4307 
L 800 4307 
Q 762 4307 739 4336 
Q 717 4365 717 4403 
L 717 4794 
Q 717 4890 806 4890 
L 2976 4890 
Q 3258 4890 3373 4800 
Q 3488 4710 3488 4506 
Q 3488 4474 3481 4426 
Q 3475 4378 3465 4330 
Q 3456 4282 3443 4240 
Q 3430 4198 3424 4179 
Q 3315 3757 3091 3389 
Q 2867 3021 2537 2710 
Q 2208 2400 1782 2141 
Q 1357 1882 858 1677 
z
M 3334 3046 
L 3334 3507 
Q 3334 3539 3363 3561 
Q 3392 3584 3424 3584 
L 4544 3584 
L 4544 4979 
Q 4544 5062 4627 5062 
L 5197 5062 
Q 5280 5062 5280 4979 
L 5280 1939 
Q 5280 1907 5254 1878 
Q 5229 1850 5197 1850 
L 4627 1850 
Q 4595 1850 4569 1878 
Q 4544 1907 4544 1939 
L 4544 2970 
L 3424 2970 
Q 3392 2970 3363 2992 
Q 3334 3014 3334 3046 
z
" transform="scale(0.015625)"/>
      <path id="NanumGothicBold-c88c" d="M 5971 2016 
Q 5971 1984 5942 1958 
Q 5914 1933 5882 1933 
L 5043 1933 
L 5043 -928 
Q 5043 -1011 4960 -1011 
L 4390 -1011 
Q 4307 -1011 4307 -928 
L 4307 4979 
Q 4307 5062 4390 5062 
L 4960 5062 
Q 5043 5062 5043 4979 
L 5043 2547 
L 5882 2547 
Q 5914 2547 5942 2521 
Q 5971 2496 5971 2464 
L 5971 2016 
z
M 550 1888 
Q 506 1875 458 1897 
Q 410 1920 397 1952 
L 243 2285 
Q 224 2330 253 2378 
Q 282 2426 326 2438 
Q 1050 2701 1613 3053 
Q 2176 3405 2490 3750 
Q 2560 3834 2560 3862 
Q 2560 3891 2458 3891 
L 691 3891 
Q 659 3891 630 3913 
Q 602 3936 602 3974 
L 602 4410 
Q 602 4493 691 4493 
L 2944 4493 
Q 3046 4493 3142 4467 
Q 3238 4442 3315 4397 
Q 3392 4352 3437 4294 
Q 3482 4237 3482 4179 
Q 3482 4090 3456 3984 
Q 3430 3878 3341 3750 
Q 3226 3584 3072 3414 
Q 2918 3245 2733 3078 
Q 2854 3014 2998 2947 
Q 3142 2880 3296 2816 
Q 3450 2752 3600 2697 
Q 3750 2643 3885 2605 
Q 3994 2573 3942 2464 
L 3770 2106 
Q 3757 2074 3709 2061 
Q 3661 2048 3610 2061 
Q 3258 2170 2890 2339 
Q 2522 2509 2202 2682 
Q 1830 2426 1408 2218 
Q 986 2010 550 1888 
z
M 1773 1933 
Q 1773 2022 1862 2022 
L 2406 2022 
Q 2496 2022 2496 1933 
L 2496 832 
Q 3200 877 3904 986 
Q 3936 992 3974 982 
Q 4013 973 4019 922 
L 4058 512 
Q 4064 461 4038 435 
Q 4013 410 3981 403 
Q 3085 256 2125 211 
Q 1165 166 243 179 
Q 154 179 154 282 
L 154 704 
Q 154 794 243 794 
Q 627 781 1008 784 
Q 1389 787 1773 800 
L 1773 1933 
z
" transform="scale(0.015625)"/>
      <path id="NanumGothicBold-d45c" d="M 5235 1856 
Q 5235 1811 5206 1782 
Q 5178 1754 5139 1754 
L 4346 1754 
L 4346 640 
L 5786 640 
Q 5818 640 5850 608 
Q 5882 576 5882 544 
L 5882 122 
Q 5882 90 5850 58 
Q 5818 26 5786 26 
L 211 26 
Q 173 26 147 58 
Q 122 90 122 122 
L 122 544 
Q 122 582 147 611 
Q 173 640 211 640 
L 1651 640 
L 1651 1754 
L 858 1754 
Q 826 1754 790 1786 
Q 755 1818 755 1862 
L 755 2246 
Q 755 2278 790 2310 
Q 826 2342 858 2342 
L 1587 2342 
L 1587 4045 
L 979 4045 
Q 947 4045 908 4077 
Q 870 4109 870 4154 
L 870 4538 
Q 870 4570 908 4602 
Q 947 4634 979 4634 
L 5018 4634 
Q 5056 4634 5085 4605 
Q 5114 4576 5114 4538 
L 5114 4147 
Q 5114 4102 5085 4073 
Q 5056 4045 5018 4045 
L 4410 4045 
L 4410 2342 
L 5139 2342 
Q 5178 2342 5206 2313 
Q 5235 2285 5235 2246 
L 5235 1856 
z
M 2304 4045 
L 2304 2342 
L 3693 2342 
L 3693 4045 
L 2304 4045 
z
M 3610 640 
L 3610 1754 
L 2387 1754 
L 2387 640 
L 3610 640 
z
" transform="scale(0.015625)"/>
     </defs>
     <use xlink:href="#NanumGothicBold-b85c"/>
     <use xlink:href="#NanumGothicBold-ceec" transform="translate(93.999985 0)"/>
     <use xlink:href="#NanumGothicBold-20" transform="translate(187.999969 0)"/>
     <use xlink:href="#NanumGothicBold-c88c" transform="translate(215.999954 0)"/>
     <use xlink:href="#NanumGothicBold-d45c" transform="translate(309.999939 0)"/>
    </g>
   </g>
   <g id="patch_2">
    <path d="M 91.80158 86.493622 
Q 112.629328 86.493622 131.444615 86.493622 
" clip-path="url(#p26f58ac9b2)" style="fill: none; stroke: #6b7280; stroke-width: 1.8; stroke-linecap: round"/>
    <path d="M 125.844615 83.693622 
L 131.444615 86.493622 
L 125.844615 89.293622 
z
" clip-path="url(#p26f58ac9b2)" style="fill: #6b7280; stroke: #6b7280; stroke-width: 1.8; stroke-linecap: round"/>
   </g>
   <g id="text_3">
    <!-- 스케일 -->
    <g style="fill: #111827" transform="translate(160.53 89.567607) scale(0.11 -0.11)">
     <defs>
      <path id="NanumGothicBold-c2a4" d="M 902 1760 
Q 870 1747 828 1756 
Q 787 1766 755 1818 
L 525 2214 
Q 499 2266 521 2307 
Q 544 2349 589 2362 
Q 1069 2541 1430 2749 
Q 1792 2957 2045 3225 
Q 2298 3494 2442 3840 
Q 2586 4186 2630 4640 
Q 2637 4685 2659 4729 
Q 2682 4774 2733 4768 
L 3290 4742 
Q 3398 4736 3392 4602 
Q 3386 4435 3354 4288 
Q 3430 3981 3622 3699 
Q 3814 3418 4092 3184 
Q 4371 2950 4710 2771 
Q 5050 2592 5414 2490 
Q 5459 2477 5468 2435 
Q 5478 2394 5466 2362 
L 5248 1952 
Q 5197 1856 5094 1882 
Q 4800 1958 4502 2099 
Q 4205 2240 3929 2429 
Q 3654 2618 3424 2851 
Q 3194 3085 3034 3354 
Q 2714 2790 2166 2393 
Q 1619 1997 902 1760 
z
M 5786 685 
Q 5818 685 5850 653 
Q 5882 621 5882 582 
L 5882 166 
Q 5882 134 5850 102 
Q 5818 70 5786 70 
L 211 70 
Q 173 70 147 102 
Q 122 134 122 166 
L 122 582 
Q 122 685 211 685 
L 5786 685 
z
" transform="scale(0.015625)"/>
      <path id="NanumGothicBold-cf00" d="M 474 2957 
Q 474 2995 506 3020 
Q 538 3046 557 3046 
Q 979 3053 1388 3065 
Q 1798 3078 2163 3110 
Q 2214 3277 2246 3430 
Q 2278 3584 2285 3731 
Q 2291 3866 2259 3914 
Q 2227 3962 2099 3962 
L 717 3962 
Q 627 3962 627 4045 
L 627 4480 
Q 627 4512 656 4537 
Q 685 4563 717 4563 
L 2547 4563 
Q 2822 4563 2924 4457 
Q 3027 4352 3021 4102 
Q 3014 3776 2956 3469 
Q 2899 3162 2797 2867 
L 3610 2867 
L 3610 4870 
Q 3610 4954 3699 4954 
L 4224 4954 
Q 4307 4954 4307 4870 
L 4307 -717 
Q 4307 -806 4224 -806 
L 3699 -806 
Q 3610 -806 3610 -717 
L 3610 2253 
L 2515 2253 
Q 2214 1709 1769 1251 
Q 1325 794 755 429 
Q 704 397 653 390 
Q 602 384 570 429 
L 307 781 
Q 269 832 291 883 
Q 314 934 346 960 
Q 845 1267 1232 1673 
Q 1619 2080 1875 2515 
Q 1555 2483 1222 2464 
Q 890 2445 563 2445 
Q 538 2445 506 2470 
Q 474 2496 474 2547 
L 474 2957 
z
M 5549 -941 
Q 5549 -1024 5466 -1024 
L 4909 -1024 
Q 4826 -1024 4826 -941 
L 4826 4979 
Q 4826 5062 4915 5062 
L 5466 5062 
Q 5549 5062 5549 4979 
L 5549 -941 
z
" transform="scale(0.015625)"/>
      <path id="NanumGothicBold-c77c" d="M 3558 3494 
Q 3558 3194 3449 2941 
Q 3341 2688 3139 2502 
Q 2938 2317 2653 2211 
Q 2368 2106 2022 2106 
Q 1664 2106 1382 2211 
Q 1101 2317 905 2502 
Q 710 2688 608 2941 
Q 506 3194 506 3494 
Q 506 3795 608 4057 
Q 710 4320 905 4512 
Q 1101 4704 1382 4813 
Q 1664 4922 2022 4922 
Q 2368 4922 2653 4813 
Q 2938 4704 3139 4512 
Q 3341 4320 3449 4057 
Q 3558 3795 3558 3494 
z
M 2906 3488 
Q 2906 3859 2666 4096 
Q 2426 4333 2022 4333 
Q 1632 4333 1395 4096 
Q 1158 3859 1158 3488 
Q 1158 3136 1395 2902 
Q 1632 2669 2022 2669 
Q 2221 2669 2384 2729 
Q 2547 2790 2662 2902 
Q 2778 3014 2842 3164 
Q 2906 3315 2906 3488 
z
M 5376 -909 
Q 5376 -941 5347 -969 
Q 5318 -998 5293 -998 
L 1901 -998 
Q 1651 -998 1558 -902 
Q 1466 -806 1466 -602 
L 1466 179 
Q 1466 384 1555 477 
Q 1645 570 1894 570 
L 4422 570 
Q 4474 570 4486 586 
Q 4499 602 4499 659 
L 4499 896 
Q 4499 966 4486 979 
Q 4474 992 4416 992 
L 1549 992 
Q 1517 992 1485 1014 
Q 1453 1037 1453 1069 
L 1453 1491 
Q 1453 1523 1485 1552 
Q 1517 1581 1549 1581 
L 4781 1581 
Q 5043 1581 5129 1491 
Q 5216 1402 5216 1184 
L 5216 410 
Q 5216 186 5129 102 
Q 5043 19 4781 19 
L 2272 19 
Q 2221 19 2208 3 
Q 2195 -13 2195 -64 
L 2195 -333 
Q 2195 -390 2208 -400 
Q 2221 -410 2278 -410 
L 5286 -410 
Q 5318 -410 5347 -435 
Q 5376 -461 5376 -499 
L 5376 -909 
z
M 5216 1958 
Q 5216 1875 5133 1875 
L 4563 1875 
Q 4480 1875 4480 1965 
L 4480 4979 
Q 4480 5062 4563 5062 
L 5133 5062 
Q 5216 5062 5216 4979 
L 5216 1958 
z
" transform="scale(0.015625)"/>
     </defs>
     <use xlink:href="#NanumGothicBold-c2a4"/>
     <use xlink:href="#NanumGothicBold-cf00" transform="translate(93.999985 0)"/>
     <use xlink:href="#NanumGothicBold-c77c" transform="translate(187.999969 0)"/>
    </g>
   </g>
   <g id="patch_3">
    <path d="M 208.474307 86.493622 
Q 229.302056 86.493622 248.117343 86.493622 
" clip-path="url(#p26f58ac9b2)" style="fill: none; stroke: #6b7280; stroke-width: 1.8; stroke-linecap: round"/>
    <path d="M 242.517343 83.693622 
L 248.117343 86.493622 
L 242.517343 89.293622 
z
" clip-path="url(#p26f58ac9b2)" style="fill: #6b7280; stroke: #6b7280; stroke-width: 1.8; stroke-linecap: round"/>
   </g>
   <g id="text_4">
    <!-- 회전 -->
    <g style="fill: #111827" transform="translate(282.372727 89.567607) scale(0.11 -0.11)">
     <defs>
      <path id="NanumGothicBold-d68c" d="M 211 544 
Q 211 640 307 640 
Q 672 627 1072 633 
Q 1472 640 1875 653 
L 1875 1203 
Q 1651 1248 1462 1341 
Q 1274 1434 1136 1571 
Q 998 1709 921 1881 
Q 845 2054 845 2259 
Q 845 2496 957 2697 
Q 1069 2899 1261 3040 
Q 1453 3181 1709 3261 
Q 1965 3341 2253 3341 
Q 2547 3341 2806 3261 
Q 3066 3181 3258 3040 
Q 3450 2899 3558 2697 
Q 3667 2496 3667 2259 
Q 3667 2054 3584 1881 
Q 3501 1709 3357 1574 
Q 3213 1440 3017 1347 
Q 2822 1254 2592 1216 
L 2592 685 
Q 3014 710 3414 742 
Q 3814 774 4154 826 
Q 4186 832 4227 822 
Q 4269 813 4275 762 
L 4314 358 
Q 4320 307 4294 281 
Q 4269 256 4237 250 
Q 3878 192 3392 147 
Q 2906 102 2371 73 
Q 1837 45 1299 32 
Q 762 19 307 26 
Q 262 26 236 54 
Q 211 83 211 122 
L 211 544 
z
M 5280 -928 
Q 5280 -1011 5190 -1011 
L 4627 -1011 
Q 4595 -1011 4566 -988 
Q 4538 -966 4538 -928 
L 4538 4979 
Q 4538 5011 4566 5036 
Q 4595 5062 4627 5062 
L 5190 5062 
Q 5280 5062 5280 4979 
L 5280 -928 
z
M 4000 3661 
Q 4000 3622 3971 3593 
Q 3942 3565 3904 3565 
L 518 3565 
Q 486 3565 454 3597 
Q 422 3629 422 3667 
L 422 4026 
Q 422 4058 457 4090 
Q 493 4122 525 4122 
L 3904 4122 
Q 3942 4122 3971 4093 
Q 4000 4064 4000 4026 
L 4000 3661 
z
M 2253 2771 
Q 1946 2771 1741 2627 
Q 1536 2483 1536 2259 
Q 1536 2035 1737 1888 
Q 1939 1741 2253 1741 
Q 2573 1741 2774 1888 
Q 2976 2035 2976 2259 
Q 2976 2483 2774 2627 
Q 2573 2771 2253 2771 
z
M 3174 4493 
Q 3174 4448 3145 4416 
Q 3117 4384 3072 4384 
L 1376 4384 
Q 1350 4384 1312 4409 
Q 1274 4435 1274 4486 
L 1274 4858 
Q 1274 4902 1312 4928 
Q 1350 4954 1376 4954 
L 3072 4954 
Q 3110 4954 3142 4922 
Q 3174 4890 3174 4851 
L 3174 4493 
z
" transform="scale(0.015625)"/>
      <path id="NanumGothicBold-c804" d="M 755 1325 
Q 717 1306 656 1306 
Q 595 1306 557 1376 
L 365 1690 
Q 333 1741 349 1795 
Q 365 1850 422 1882 
Q 774 2054 1100 2291 
Q 1427 2528 1692 2797 
Q 1958 3066 2153 3347 
Q 2349 3629 2445 3891 
Q 2470 3955 2467 3996 
Q 2464 4038 2355 4038 
L 781 4038 
Q 736 4038 713 4067 
Q 691 4096 691 4134 
L 691 4563 
Q 691 4653 787 4653 
L 2816 4653 
Q 3098 4653 3232 4547 
Q 3366 4442 3334 4237 
Q 3322 4166 3302 4096 
Q 3283 4026 3264 3968 
Q 3194 3725 3059 3472 
Q 2925 3219 2746 2970 
Q 2861 2842 3008 2714 
Q 3155 2586 3312 2467 
Q 3469 2349 3622 2246 
Q 3776 2144 3904 2074 
Q 4032 2010 3955 1882 
L 3744 1555 
Q 3674 1453 3546 1517 
Q 3430 1574 3273 1680 
Q 3117 1786 2947 1917 
Q 2778 2048 2614 2195 
Q 2451 2342 2323 2477 
Q 1997 2131 1600 1836 
Q 1203 1542 755 1325 
z
M 3437 2918 
L 3437 3360 
Q 3437 3392 3465 3414 
Q 3494 3437 3526 3437 
L 4544 3437 
L 4544 4979 
Q 4544 5062 4627 5062 
L 5197 5062 
Q 5280 5062 5280 4979 
L 5280 826 
Q 5280 742 5197 742 
L 4627 742 
Q 4544 742 4544 826 
L 4544 2835 
L 3526 2835 
Q 3494 2835 3465 2860 
Q 3437 2886 3437 2918 
z
M 5466 -826 
Q 5466 -864 5437 -883 
Q 5408 -902 5376 -902 
L 2042 -902 
Q 1754 -902 1654 -800 
Q 1555 -698 1555 -448 
L 1555 947 
Q 1555 979 1584 1008 
Q 1613 1037 1645 1037 
L 2195 1037 
Q 2234 1037 2262 1008 
Q 2291 979 2291 947 
L 2291 -186 
Q 2291 -250 2316 -269 
Q 2342 -288 2413 -288 
L 5376 -288 
Q 5408 -288 5437 -313 
Q 5466 -339 5466 -371 
L 5466 -826 
z
" transform="scale(0.015625)"/>
     </defs>
     <use xlink:href="#NanumGothicBold-d68c"/>
     <use xlink:href="#NanumGothicBold-c804" transform="translate(93.999985 0)"/>
    </g>
   </g>
   <g id="patch_4">
    <path d="M 325.147035 86.493622 
Q 345.974783 86.493622 364.79007 86.493622 
" clip-path="url(#p26f58ac9b2)" style="fill: none; stroke: #6b7280; stroke-width: 1.8; stroke-linecap: round"/>
    <path d="M 359.19007 83.693622 
L 364.79007 86.493622 
L 359.19007 89.293622 
z
" clip-path="url(#p26f58ac9b2)" style="fill: #6b7280; stroke: #6b7280; stroke-width: 1.8; stroke-linecap: round"/>
   </g>
   <g id="text_5">
    <!-- 이동 -->
    <g style="fill: #111827" transform="translate(399.045455 89.567607) scale(0.11 -0.11)">
     <defs>
      <path id="NanumGothicBold-c774" d="M 5274 -928 
Q 5274 -1011 5190 -1011 
L 4621 -1011 
Q 4538 -1011 4538 -928 
L 4538 4979 
Q 4538 5062 4621 5062 
L 5190 5062 
Q 5274 5062 5274 4979 
L 5274 -928 
z
M 2963 2573 
Q 2963 2867 2905 3132 
Q 2848 3398 2739 3596 
Q 2630 3795 2473 3910 
Q 2317 4026 2112 4026 
Q 1907 4026 1750 3910 
Q 1594 3795 1485 3596 
Q 1376 3398 1318 3132 
Q 1261 2867 1261 2573 
Q 1261 2285 1318 2019 
Q 1376 1754 1485 1552 
Q 1594 1350 1750 1232 
Q 1907 1114 2112 1114 
Q 2317 1114 2473 1232 
Q 2630 1350 2739 1552 
Q 2848 1754 2905 2019 
Q 2963 2285 2963 2573 
z
M 2112 461 
Q 1747 461 1452 614 
Q 1158 768 956 1046 
Q 755 1325 646 1715 
Q 538 2106 538 2573 
Q 538 3053 646 3443 
Q 755 3834 956 4106 
Q 1158 4378 1452 4528 
Q 1747 4678 2112 4678 
Q 2483 4678 2774 4528 
Q 3066 4378 3267 4106 
Q 3469 3834 3577 3443 
Q 3686 3053 3686 2573 
Q 3686 2093 3577 1702 
Q 3469 1312 3267 1037 
Q 3066 762 2774 611 
Q 2483 461 2112 461 
z
" transform="scale(0.015625)"/>
      <path id="NanumGothicBold-b3d9" d="M 5011 2925 
Q 5011 2874 4988 2851 
Q 4966 2829 4934 2829 
L 3366 2829 
L 3366 2170 
L 5779 2170 
Q 5811 2170 5843 2138 
Q 5875 2106 5875 2074 
L 5875 1651 
Q 5875 1619 5843 1587 
Q 5811 1555 5779 1555 
L 211 1555 
Q 173 1555 147 1584 
Q 122 1613 122 1651 
L 122 2074 
Q 122 2112 147 2141 
Q 173 2170 211 2170 
L 2630 2170 
L 2630 2829 
L 1510 2829 
Q 1254 2829 1152 2944 
Q 1050 3059 1050 3283 
L 1050 4538 
Q 1050 4781 1158 4867 
Q 1267 4954 1510 4954 
L 4877 4954 
Q 4966 4954 4966 4870 
L 4966 4435 
Q 4966 4346 4877 4346 
L 1914 4346 
Q 1792 4346 1792 4237 
L 1792 3546 
Q 1792 3494 1817 3462 
Q 1843 3430 1914 3430 
L 4909 3430 
Q 4960 3430 4985 3417 
Q 5011 3405 5011 3354 
L 5011 2925 
z
M 5011 83 
Q 5011 -442 4489 -730 
Q 3968 -1018 2995 -1018 
Q 2022 -1018 1500 -730 
Q 979 -442 979 83 
Q 979 602 1500 893 
Q 2022 1184 2995 1184 
Q 3968 1184 4489 893 
Q 5011 602 5011 83 
z
M 2995 621 
Q 2355 621 2032 464 
Q 1709 307 1709 77 
Q 1709 -147 2032 -304 
Q 2355 -461 2995 -461 
Q 3635 -461 3958 -304 
Q 4282 -147 4282 77 
Q 4282 307 3958 464 
Q 3635 621 2995 621 
z
" transform="scale(0.015625)"/>
     </defs>
     <use xlink:href="#NanumGothicBold-c774"/>
     <use xlink:href="#NanumGothicBold-b3d9" transform="translate(93.999985 0)"/>
    </g>
   </g>
   <g id="patch_5">
    <path d="M 441.819762 86.493622 
Q 462.64751 86.493622 481.462797 86.493622 
" clip-path="url(#p26f58ac9b2)" style="fill: none; stroke: #6b7280; stroke-width: 1.8; stroke-linecap: round"/>
    <path d="M 475.862797 83.693622 
L 481.462797 86.493622 
L 475.862797 89.293622 
z
" clip-path="url(#p26f58ac9b2)" style="fill: #6b7280; stroke: #6b7280; stroke-width: 1.8; stroke-linecap: round"/>
   </g>
   <g id="text_6">
    <!-- 월드 좌표 -->
    <g style="fill: #111827" transform="translate(503.838182 89.567607) scale(0.11 -0.11)">
     <defs>
      <path id="NanumGothicBold-c6d4" d="M 5427 -947 
Q 5427 -979 5398 -1008 
Q 5370 -1037 5344 -1037 
L 1779 -1037 
Q 1530 -1037 1437 -947 
Q 1344 -858 1344 -653 
L 1344 -45 
Q 1344 160 1433 249 
Q 1523 339 1773 339 
L 4474 339 
Q 4525 339 4537 355 
Q 4550 371 4550 429 
L 4550 531 
Q 4550 602 4537 618 
Q 4525 634 4467 634 
L 1427 634 
Q 1395 634 1363 656 
Q 1331 678 1331 710 
L 1331 1094 
Q 1331 1126 1363 1152 
Q 1395 1178 1427 1178 
L 4838 1178 
Q 5101 1178 5187 1098 
Q 5274 1018 5274 800 
L 5274 186 
Q 5274 -38 5187 -115 
Q 5101 -192 4838 -192 
L 2150 -192 
Q 2099 -192 2086 -208 
Q 2074 -224 2074 -275 
L 2074 -403 
Q 2074 -467 2086 -476 
Q 2099 -486 2157 -486 
L 5338 -486 
Q 5370 -486 5398 -508 
Q 5427 -531 5427 -570 
L 5427 -947 
z
M 5274 1459 
Q 5274 1376 5190 1376 
L 4621 1376 
Q 4538 1376 4538 1459 
L 4538 1574 
L 3443 1574 
Q 3411 1574 3382 1600 
Q 3354 1626 3354 1658 
L 3354 2022 
Q 3354 2054 3382 2076 
Q 3411 2099 3443 2099 
L 4538 2099 
L 4538 4986 
Q 4538 5069 4621 5069 
L 5190 5069 
Q 5274 5069 5274 4986 
L 5274 1459 
z
M 4320 2528 
Q 4326 2490 4297 2451 
Q 4269 2413 4237 2406 
Q 4051 2374 3820 2352 
Q 3590 2330 3353 2310 
Q 3117 2291 2893 2278 
Q 2669 2266 2509 2259 
L 2509 1523 
Q 2509 1485 2480 1456 
Q 2451 1427 2413 1427 
L 1882 1427 
Q 1843 1427 1814 1456 
Q 1786 1485 1786 1523 
L 1786 2208 
Q 1594 2202 1392 2198 
Q 1190 2195 998 2192 
Q 806 2189 633 2189 
Q 461 2189 333 2195 
Q 294 2195 268 2227 
Q 243 2259 243 2298 
L 243 2675 
Q 243 2765 333 2765 
Q 1632 2752 2569 2800 
Q 3507 2848 4166 2938 
Q 4198 2944 4233 2921 
Q 4269 2899 4275 2867 
L 4320 2528 
z
M 2182 4531 
Q 1843 4531 1628 4390 
Q 1414 4250 1414 4038 
Q 1414 3821 1628 3683 
Q 1843 3546 2182 3546 
Q 2528 3546 2742 3683 
Q 2957 3821 2957 4038 
Q 2957 4250 2742 4390 
Q 2528 4531 2182 4531 
z
M 2182 5050 
Q 2515 5050 2784 4970 
Q 3053 4890 3245 4752 
Q 3437 4614 3542 4432 
Q 3648 4250 3648 4038 
Q 3648 3827 3542 3641 
Q 3437 3456 3245 3318 
Q 3053 3181 2784 3101 
Q 2515 3021 2182 3021 
Q 1856 3021 1587 3101 
Q 1318 3181 1126 3318 
Q 934 3456 828 3641 
Q 723 3827 723 4038 
Q 723 4250 828 4432 
Q 934 4614 1126 4752 
Q 1318 4890 1587 4970 
Q 1856 5050 2182 5050 
z
" transform="scale(0.015625)"/>
      <path id="NanumGothicBold-b4dc" d="M 5786 685 
Q 5818 685 5850 653 
Q 5882 621 5882 589 
L 5882 166 
Q 5882 134 5850 102 
Q 5818 70 5786 70 
L 211 70 
Q 173 70 147 102 
Q 122 134 122 166 
L 122 589 
Q 122 627 147 656 
Q 173 685 211 685 
L 5786 685 
z
M 5069 1978 
Q 5069 1926 5046 1904 
Q 5024 1882 4992 1882 
L 1446 1882 
Q 1190 1882 1075 2010 
Q 960 2138 960 2362 
L 960 4218 
Q 960 4461 1069 4547 
Q 1178 4634 1421 4634 
L 4934 4634 
Q 5024 4634 5024 4550 
L 5024 4102 
Q 5024 4019 4934 4019 
L 1811 4019 
Q 1696 4019 1696 3910 
L 1696 2605 
Q 1696 2547 1718 2518 
Q 1741 2490 1811 2490 
L 4966 2490 
Q 5018 2490 5043 2477 
Q 5069 2464 5069 2413 
L 5069 1978 
z
" transform="scale(0.015625)"/>
     </defs>
     <use xlink:href="#NanumGothicBold-c6d4"/>
     <use xlink:href="#NanumGothicBold-b4dc" transform="translate(93.999985 0)"/>
     <use xlink:href="#NanumGothicBold-20" transform="translate(187.999969 0)"/>
     <use xlink:href="#NanumGothicBold-c88c" transform="translate(215.999954 0)"/>
     <use xlink:href="#NanumGothicBold-d45c" transform="translate(309.999939 0)"/>
    </g>
   </g>
  </g>
 </g>
 <defs>
  <clipPath id="p26f58ac9b2">
   <rect x="8.64" y="30.693622" width="613.8" height="111.6"/>
  </clipPath>
 </defs>
</svg>
