<?xml version="1.0" encoding="utf-8" standalone="no"?>
<!DOCTYPE svg PUBLIC "-//W3C//DTD SVG 1.1//EN"
  "http://www.w3.org/Graphics/SVG/1.1/DTD/svg11.dtd">
<svg xmlns:xlink="http://www.w3.org/1999/xlink" width="392.076pt" height="111.312pt" viewBox="0 0 392.076 111.312" xmlns="http://www.w3.org/2000/svg" version="1.1">
 <metadata>
  <rdf:RDF xmlns:dc="http://purl.org/dc/elements/1.1/" xmlns:cc="http://creativecommons.org/ns#" xmlns:rdf="http://www.w3.org/1999/02/22-rdf-syntax-ns#">
   <cc:Work>
    <dc:type rdf:resource="http://purl.org/dc/dcmitype/StillImage"/>
    <dc:date>2026-07-08T05:12:56.274965</dc:date>
    <dc:format>image/svg+xml</dc:format>
    <dc:creator>
     <cc:Agent>
      <dc:title>Matplotlib v3.10.8, https://matplotlib.org/</dc:title>
     </cc:Agent>
    </dc:creator>
   </cc:Work>
  </rdf:RDF>
 </metadata>
 <defs>
  <style type="text/css">*{stroke-linejoin: round; stroke-linecap: butt}</style>
 </defs>
 <g id="figure_1">
  <g id="patch_1">
   <path d="M 0 111.312 
L 392.076 111.312 
L 392.076 0 
L 0 0 
z
" style="fill: #ffffff"/>
  </g>
  <g id="axes_1">
   <g id="patch_2">
    <path d="M 5.76 105.552 
L 386.316 105.552 
L 386.316 5.76 
L 5.76 5.76 
z
" clip-path="url(#pea6f38ea35)" style="fill: #ffffff; stroke: #e5e7eb; stroke-linejoin: miter"/>
   </g>
   <g id="text_1">
    <!-- normal = A 중심에서 B 중심으로 향하는 방향 -->
    <g style="fill: #111827" transform="translate(20.98224 25.799415) scale(0.11 -0.11)">
     <defs>
      <path id="NanumGothicCoding-6e" d="M 2797 -186 
Q 2797 -275 2707 -275 
L 2451 -275 
Q 2362 -275 2362 -186 
L 2362 1574 
Q 2362 2163 2202 2409 
Q 2042 2656 1658 2656 
Q 1318 2656 1088 2384 
Q 858 2112 858 1562 
L 858 -186 
Q 858 -275 768 -275 
L 512 -275 
Q 422 -275 422 -186 
L 422 2118 
Q 422 2394 419 2547 
Q 416 2701 403 2842 
Q 397 2886 425 2908 
Q 454 2931 493 2931 
L 723 2931 
Q 813 2931 813 2842 
L 813 2483 
Q 966 2758 1187 2889 
Q 1408 3021 1696 3021 
Q 2259 3021 2528 2669 
Q 2797 2317 2797 1677 
L 2797 -186 
z
" transform="scale(0.015625)"/>
      <path id="NanumGothicCoding-6f" d="M 2490 1331 
Q 2490 1581 2432 1824 
Q 2374 2067 2253 2266 
Q 2010 2650 1594 2650 
Q 1158 2650 934 2266 
Q 813 2067 758 1824 
Q 704 1581 704 1331 
Q 704 1056 755 813 
Q 806 570 934 397 
Q 1216 6 1594 6 
Q 2035 6 2253 397 
Q 2381 570 2435 813 
Q 2490 1056 2490 1331 
z
M 2931 1331 
Q 2931 979 2851 668 
Q 2771 358 2605 147 
Q 2413 -102 2163 -240 
Q 1914 -378 1594 -378 
Q 1274 -378 1024 -240 
Q 774 -102 582 147 
Q 429 378 349 678 
Q 269 979 269 1331 
Q 269 2054 582 2515 
Q 947 3034 1594 3034 
Q 1920 3034 2166 2909 
Q 2413 2784 2605 2515 
Q 2931 2048 2931 1331 
z
" transform="scale(0.015625)"/>
      <path id="NanumGothicCoding-72" d="M 1946 122 
Q 2035 122 2035 32 
L 2035 -186 
Q 2035 -275 1946 -275 
L 506 -275 
Q 416 -275 416 -186 
L 416 32 
Q 416 122 506 122 
L 883 122 
L 883 2534 
L 390 2534 
Q 301 2534 301 2624 
L 301 2842 
Q 301 2931 390 2931 
L 1165 2931 
Q 1254 2931 1254 2842 
L 1254 2214 
Q 1645 3021 2381 3021 
Q 2758 3021 3059 2874 
Q 3123 2848 3129 2809 
Q 3136 2771 3117 2726 
L 3040 2496 
Q 3021 2451 2992 2454 
Q 2963 2458 2918 2483 
Q 2637 2618 2317 2618 
Q 1792 2592 1485 2048 
Q 1312 1715 1312 1178 
L 1312 122 
L 1946 122 
z
" transform="scale(0.015625)"/>
      <path id="NanumGothicCoding-6d" d="M 269 2118 
Q 269 2387 262 2544 
Q 256 2701 243 2842 
Q 243 2931 333 2931 
L 570 2931 
Q 659 2931 659 2842 
L 653 2566 
Q 698 2771 832 2889 
Q 966 3008 1101 3008 
Q 1338 3008 1482 2816 
Q 1626 2624 1664 2362 
Q 1683 2573 1804 2777 
Q 1926 2982 2202 3008 
Q 2445 3008 2585 2921 
Q 2726 2835 2809 2675 
Q 2893 2515 2925 2304 
Q 2957 2093 2957 1856 
L 2957 -186 
Q 2957 -275 2867 -275 
L 2624 -275 
Q 2534 -275 2534 -192 
L 2534 1766 
Q 2534 2611 2195 2611 
Q 2067 2611 1990 2508 
Q 1914 2406 1878 2252 
Q 1843 2099 1827 1868 
Q 1811 1638 1818 1382 
L 1818 -186 
Q 1818 -275 1728 -275 
L 1498 -275 
Q 1408 -275 1408 -186 
L 1408 1766 
Q 1389 2611 1050 2611 
Q 870 2611 777 2355 
Q 685 2099 691 1619 
L 691 -186 
Q 691 -275 602 -275 
L 358 -275 
Q 269 -275 269 -186 
L 269 2118 
z
" transform="scale(0.015625)"/>
      <path id="NanumGothicCoding-61" d="M 2368 1402 
L 2246 1402 
Q 1888 1414 1645 1376 
Q 1402 1338 1229 1254 
Q 1018 1165 902 976 
Q 787 787 787 589 
Q 787 474 838 342 
Q 890 211 998 141 
Q 1184 -13 1414 -13 
Q 1638 -13 1785 73 
Q 1933 160 2073 342 
Q 2214 525 2291 755 
Q 2368 986 2368 1203 
L 2368 1402 
z
M 723 2400 
Q 691 2381 662 2390 
Q 634 2400 634 2432 
L 634 2682 
Q 634 2765 723 2803 
Q 941 2931 1168 2982 
Q 1395 3034 1658 3034 
Q 2214 3046 2508 2713 
Q 2803 2381 2803 1888 
L 2803 397 
Q 2803 218 2809 77 
Q 2816 -64 2829 -192 
Q 2829 -275 2739 -275 
L 2509 -275 
Q 2419 -275 2419 -192 
L 2419 262 
Q 2285 -38 2009 -208 
Q 1734 -378 1363 -378 
Q 813 -378 512 -19 
Q 410 96 358 256 
Q 307 416 307 570 
Q 307 902 489 1180 
Q 672 1459 1050 1600 
Q 1414 1766 2285 1766 
L 2368 1766 
L 2368 1914 
Q 2368 2240 2185 2454 
Q 2003 2669 1658 2669 
Q 1382 2669 1168 2608 
Q 954 2547 723 2400 
z
" transform="scale(0.015625)"/>
      <path id="NanumGothicCoding-6c" d="M 2605 122 
Q 2694 122 2694 32 
L 2694 -186 
Q 2694 -275 2605 -275 
L 531 -275 
Q 442 -275 442 -186 
L 442 32 
Q 442 122 531 122 
L 1389 122 
L 1389 4032 
L 710 4032 
Q 621 4032 621 4122 
L 621 4339 
Q 621 4429 710 4429 
L 1760 4429 
Q 1850 4429 1850 4339 
L 1850 122 
L 2605 122 
z
" transform="scale(0.015625)"/>
      <path id="NanumGothicCoding-20" transform="scale(0.015625)"/>
      <path id="NanumGothicCoding-3d" d="M 3142 2810 
L 3142 2528 
Q 3142 2458 3132 2448 
Q 3123 2438 3053 2438 
L 147 2438 
Q 77 2438 67 2448 
Q 58 2458 58 2528 
L 58 2810 
Q 58 2880 67 2889 
Q 77 2899 147 2899 
L 3053 2899 
Q 3123 2899 3132 2889 
Q 3142 2880 3142 2810 
z
M 3142 1446 
L 3142 1165 
Q 3142 1094 3132 1084 
Q 3123 1075 3053 1075 
L 147 1075 
Q 77 1075 67 1084 
Q 58 1094 58 1165 
L 58 1446 
Q 58 1517 67 1526 
Q 77 1536 147 1536 
L 3053 1536 
Q 3123 1536 3132 1526 
Q 3142 1517 3142 1446 
z
" transform="scale(0.015625)"/>
      <path id="NanumGothicCoding-41" d="M 2170 1402 
L 1619 3603 
L 1056 1402 
L 2170 1402 
z
M 3046 -186 
Q 3078 -275 2989 -275 
L 2688 -275 
Q 2650 -275 2621 -262 
Q 2592 -250 2566 -186 
L 2259 992 
L 954 992 
L 627 -186 
Q 602 -250 573 -262 
Q 544 -275 506 -275 
L 205 -275 
Q 115 -275 147 -186 
L 1325 4013 
Q 1357 4090 1440 4090 
L 1830 4090 
Q 1914 4090 1946 4013 
L 3046 -186 
z
" transform="scale(0.015625)"/>
      <path id="NanumGothicCoding-c911" d="M 5920 2310 
Q 5952 2310 5984 2288 
Q 6016 2266 6016 2227 
L 6016 2010 
Q 6016 1978 5984 1952 
Q 5952 1926 5920 1926 
L 3411 1926 
L 3411 1146 
Q 3699 1133 4009 1078 
Q 4320 1024 4582 905 
Q 4845 787 5014 595 
Q 5184 403 5184 109 
Q 5184 -218 4979 -422 
Q 4774 -627 4473 -742 
Q 4173 -858 3824 -899 
Q 3475 -941 3187 -941 
Q 2995 -941 2774 -921 
Q 2554 -902 2333 -860 
Q 2112 -819 1907 -742 
Q 1702 -666 1545 -547 
Q 1389 -429 1293 -269 
Q 1197 -109 1197 109 
Q 1197 397 1366 592 
Q 1536 787 1798 905 
Q 2061 1024 2374 1078 
Q 2688 1133 2970 1146 
L 2970 1926 
L 480 1926 
Q 442 1926 413 1952 
Q 384 1978 384 2010 
L 384 2227 
Q 384 2266 413 2288 
Q 442 2310 480 2310 
L 5920 2310 
z
M 4685 4218 
Q 4352 3904 3782 3610 
Q 3962 3558 4182 3500 
Q 4403 3443 4633 3385 
Q 4864 3328 5094 3277 
Q 5325 3226 5523 3187 
Q 5606 3168 5581 3098 
L 5491 2886 
Q 5459 2816 5376 2835 
Q 5158 2874 4889 2938 
Q 4621 3002 4342 3075 
Q 4064 3149 3792 3225 
Q 3520 3302 3290 3379 
Q 2784 3168 2205 3005 
Q 1626 2842 1024 2739 
Q 966 2726 944 2748 
Q 922 2771 909 2810 
L 851 3002 
Q 826 3098 902 3104 
Q 1344 3174 1830 3308 
Q 2317 3443 2768 3609 
Q 3219 3776 3596 3958 
Q 3974 4141 4198 4307 
Q 4301 4384 4278 4429 
Q 4256 4474 4166 4474 
L 1402 4474 
Q 1318 4474 1318 4557 
L 1318 4781 
Q 1318 4858 1402 4858 
L 4326 4858 
Q 4819 4858 4908 4688 
Q 4998 4518 4685 4218 
z
M 4717 102 
Q 4717 314 4544 438 
Q 4371 563 4128 633 
Q 3885 704 3625 726 
Q 3366 749 3187 749 
Q 3002 749 2742 726 
Q 2483 704 2243 633 
Q 2003 563 1833 438 
Q 1664 314 1664 102 
Q 1664 -102 1833 -230 
Q 2003 -358 2243 -425 
Q 2483 -493 2742 -515 
Q 3002 -538 3187 -538 
Q 3366 -538 3628 -515 
Q 3891 -493 4131 -425 
Q 4371 -358 4544 -230 
Q 4717 -102 4717 102 
z
" transform="scale(0.015625)"/>
      <path id="NanumGothicCoding-c2ec" d="M 1690 819 
Q 1690 1088 1792 1181 
Q 1894 1274 2176 1274 
L 4858 1274 
Q 5011 1274 5104 1254 
Q 5197 1235 5251 1184 
Q 5306 1133 5325 1043 
Q 5344 954 5344 819 
L 5344 -390 
Q 5344 -659 5241 -752 
Q 5139 -845 4858 -845 
L 2176 -845 
Q 2022 -845 1929 -825 
Q 1837 -806 1782 -752 
Q 1728 -698 1709 -611 
Q 1690 -525 1690 -390 
L 1690 819 
z
M 2285 890 
Q 2195 890 2163 854 
Q 2131 819 2131 723 
L 2131 -294 
Q 2131 -390 2163 -425 
Q 2195 -461 2285 -461 
L 4749 -461 
Q 4838 -461 4870 -425 
Q 4902 -390 4902 -294 
L 4902 723 
Q 4902 819 4870 854 
Q 4838 890 4749 890 
L 2285 890 
z
M 2534 4774 
Q 2534 4307 2438 3904 
Q 2515 3635 2652 3392 
Q 2790 3149 2976 2937 
Q 3162 2726 3382 2556 
Q 3603 2387 3846 2272 
Q 3885 2253 3881 2217 
Q 3878 2182 3866 2157 
L 3731 1946 
Q 3712 1914 3686 1901 
Q 3661 1888 3603 1920 
Q 3456 1997 3267 2128 
Q 3078 2259 2886 2438 
Q 2694 2618 2521 2832 
Q 2349 3046 2234 3277 
Q 2022 2790 1664 2393 
Q 1306 1997 826 1683 
Q 794 1664 755 1657 
Q 717 1651 691 1683 
L 531 1894 
Q 518 1920 528 1958 
Q 538 1997 570 2016 
Q 1331 2483 1715 3193 
Q 2099 3904 2086 4781 
Q 2086 4883 2163 4883 
L 2464 4864 
Q 2534 4864 2534 4774 
z
M 5344 1728 
Q 5344 1638 5254 1638 
L 4992 1638 
Q 4902 1638 4902 1728 
L 4902 4915 
Q 4902 5005 4992 5005 
L 5254 5005 
Q 5344 5005 5344 4915 
L 5344 1728 
z
" transform="scale(0.015625)"/>
      <path id="NanumGothicCoding-c5d0" d="M 4422 -563 
Q 4422 -653 4333 -653 
L 4090 -653 
Q 4000 -653 4000 -563 
L 4000 2419 
L 3277 2419 
Q 3251 1978 3136 1648 
Q 3021 1318 2835 1097 
Q 2650 877 2410 768 
Q 2170 659 1901 659 
Q 1613 659 1369 784 
Q 1126 909 947 1155 
Q 768 1402 665 1773 
Q 563 2144 563 2643 
Q 563 3142 665 3510 
Q 768 3878 950 4124 
Q 1133 4371 1376 4489 
Q 1619 4608 1907 4608 
Q 2182 4608 2422 4499 
Q 2662 4390 2848 4166 
Q 3034 3942 3146 3603 
Q 3258 3264 3277 2803 
L 4000 2803 
L 4000 4806 
Q 4000 4896 4090 4896 
L 4333 4896 
Q 4422 4896 4422 4806 
L 4422 -563 
z
M 2835 2643 
Q 2835 2938 2777 3219 
Q 2720 3501 2605 3725 
Q 2490 3949 2314 4086 
Q 2138 4224 1901 4224 
Q 1651 4224 1481 4083 
Q 1312 3942 1206 3715 
Q 1101 3488 1056 3206 
Q 1011 2925 1011 2643 
Q 1011 2362 1062 2077 
Q 1114 1792 1219 1561 
Q 1325 1331 1494 1187 
Q 1664 1043 1901 1043 
Q 2138 1043 2314 1184 
Q 2490 1325 2605 1552 
Q 2720 1779 2777 2067 
Q 2835 2355 2835 2643 
z
M 5555 -806 
Q 5555 -896 5466 -896 
L 5222 -896 
Q 5133 -896 5133 -806 
L 5133 4915 
Q 5133 5005 5222 5005 
L 5466 5005 
Q 5555 5005 5555 4915 
L 5555 -806 
z
" transform="scale(0.015625)"/>
      <path id="NanumGothicCoding-c11c" d="M 5344 -806 
Q 5344 -896 5254 -896 
L 4992 -896 
Q 4902 -896 4902 -806 
L 4902 2534 
L 3501 2534 
Q 3418 2534 3418 2611 
L 3418 2842 
Q 3418 2918 3501 2918 
L 4902 2918 
L 4902 4915 
Q 4902 5005 4992 5005 
L 5254 5005 
Q 5344 5005 5344 4915 
L 5344 -806 
z
M 2515 4589 
Q 2515 4166 2480 3779 
Q 2445 3392 2368 3034 
Q 2432 2778 2566 2493 
Q 2701 2208 2883 1926 
Q 3066 1645 3293 1379 
Q 3520 1114 3776 902 
Q 3808 877 3811 838 
Q 3814 800 3795 774 
L 3635 576 
Q 3578 506 3501 576 
Q 3322 730 3133 944 
Q 2944 1158 2768 1395 
Q 2592 1632 2438 1881 
Q 2285 2131 2176 2362 
Q 1971 1779 1638 1289 
Q 1306 800 845 378 
Q 781 326 736 371 
L 544 570 
Q 525 589 528 621 
Q 531 653 563 685 
Q 954 1056 1242 1465 
Q 1530 1875 1712 2348 
Q 1894 2822 1980 3379 
Q 2067 3936 2067 4602 
Q 2067 4646 2089 4668 
Q 2112 4691 2144 4691 
L 2445 4678 
Q 2515 4678 2515 4589 
z
" transform="scale(0.015625)"/>
      <path id="NanumGothicCoding-42" d="M 2278 3034 
Q 2278 3686 1299 3693 
L 883 3693 
L 883 2266 
L 1242 2266 
Q 1696 2266 1987 2470 
Q 2278 2675 2278 3034 
z
M 2426 1043 
Q 2426 1414 2080 1635 
Q 1734 1856 1114 1856 
L 883 1856 
L 883 134 
L 1190 134 
Q 2426 134 2426 1043 
z
M 2899 1069 
Q 2899 -275 1178 -275 
L 602 -275 
Q 467 -275 444 -252 
Q 422 -230 422 -96 
L 422 3930 
Q 422 4051 444 4070 
Q 467 4090 602 4090 
L 1299 4090 
Q 2752 4090 2752 3046 
Q 2752 2253 1907 2086 
Q 2394 1958 2646 1676 
Q 2899 1395 2899 1069 
z
" transform="scale(0.015625)"/>
      <path id="NanumGothicCoding-c73c" d="M 3187 1741 
Q 2848 1741 2486 1824 
Q 2125 1907 1824 2083 
Q 1523 2259 1331 2531 
Q 1139 2803 1139 3187 
Q 1139 3571 1331 3843 
Q 1523 4115 1824 4291 
Q 2125 4467 2486 4547 
Q 2848 4627 3187 4627 
Q 3533 4627 3894 4547 
Q 4256 4467 4553 4291 
Q 4851 4115 5043 3843 
Q 5235 3571 5235 3187 
Q 5235 2803 5043 2531 
Q 4851 2259 4553 2083 
Q 4256 1907 3894 1824 
Q 3533 1741 3187 1741 
z
M 3187 4218 
Q 2957 4218 2681 4170 
Q 2406 4122 2169 4003 
Q 1933 3885 1773 3683 
Q 1613 3482 1613 3181 
Q 1613 2880 1773 2681 
Q 1933 2483 2169 2364 
Q 2406 2246 2681 2198 
Q 2957 2150 3187 2150 
Q 3411 2150 3683 2198 
Q 3955 2246 4195 2364 
Q 4435 2483 4598 2681 
Q 4762 2880 4762 3181 
Q 4762 3482 4598 3683 
Q 4435 3885 4195 4003 
Q 3955 4122 3683 4170 
Q 3411 4218 3187 4218 
z
M 5920 499 
Q 5952 499 5984 476 
Q 6016 454 6016 416 
L 6016 198 
Q 6016 166 5984 140 
Q 5952 115 5920 115 
L 480 115 
Q 442 115 413 140 
Q 384 166 384 198 
L 384 416 
Q 384 454 413 476 
Q 442 499 480 499 
L 5920 499 
z
" transform="scale(0.015625)"/>
      <path id="NanumGothicCoding-b85c" d="M 2963 499 
L 2963 1613 
L 1683 1613 
Q 1382 1613 1289 1725 
Q 1197 1837 1197 2106 
L 1197 2906 
Q 1197 3181 1309 3270 
Q 1421 3360 1709 3360 
L 4595 3360 
Q 4685 3360 4707 3385 
Q 4730 3411 4730 3507 
L 4730 4173 
Q 4730 4269 4707 4294 
Q 4685 4320 4595 4320 
L 1286 4320 
Q 1254 4320 1225 4339 
Q 1197 4358 1197 4390 
L 1197 4634 
Q 1197 4666 1225 4685 
Q 1254 4704 1286 4704 
L 4666 4704 
Q 4819 4704 4915 4681 
Q 5011 4659 5068 4608 
Q 5126 4557 5148 4464 
Q 5171 4371 5171 4237 
L 5171 3437 
Q 5171 3162 5059 3072 
Q 4947 2982 4659 2982 
L 1773 2982 
Q 1683 2982 1660 2956 
Q 1638 2931 1638 2835 
L 1638 2144 
Q 1638 2054 1664 2025 
Q 1690 1997 1779 1997 
L 5216 1997 
Q 5248 1997 5277 1977 
Q 5306 1958 5306 1926 
L 5306 1690 
Q 5306 1658 5277 1635 
Q 5248 1613 5222 1613 
L 3405 1613 
L 3405 499 
L 5920 499 
Q 5952 499 5984 476 
Q 6016 454 6016 416 
L 6016 198 
Q 6016 166 5984 140 
Q 5952 115 5920 115 
L 480 115 
Q 442 115 413 140 
Q 384 166 384 198 
L 384 416 
Q 384 454 413 476 
Q 442 499 480 499 
L 2963 499 
z
" transform="scale(0.015625)"/>
      <path id="NanumGothicCoding-d5a5" d="M 5197 64 
Q 5197 -160 5049 -339 
Q 4902 -518 4649 -646 
Q 4397 -774 4061 -844 
Q 3725 -915 3341 -915 
Q 2925 -915 2585 -844 
Q 2246 -774 2003 -646 
Q 1760 -518 1625 -339 
Q 1491 -160 1491 64 
Q 1491 282 1625 458 
Q 1760 634 2003 762 
Q 2246 890 2585 960 
Q 2925 1030 3341 1030 
Q 3725 1030 4061 963 
Q 4397 896 4649 768 
Q 4902 640 5049 461 
Q 5197 282 5197 64 
z
M 3725 2413 
Q 3725 2182 3619 1993 
Q 3514 1805 3331 1664 
Q 3149 1523 2896 1446 
Q 2643 1370 2349 1370 
Q 2048 1370 1798 1446 
Q 1549 1523 1363 1664 
Q 1178 1805 1075 1997 
Q 973 2189 973 2413 
Q 973 2643 1075 2835 
Q 1178 3027 1363 3161 
Q 1549 3296 1798 3373 
Q 2048 3450 2349 3450 
Q 2643 3450 2896 3373 
Q 3149 3296 3331 3158 
Q 3514 3021 3619 2829 
Q 3725 2637 3725 2413 
z
M 4742 45 
Q 4742 192 4627 307 
Q 4512 422 4317 502 
Q 4122 582 3866 624 
Q 3610 666 3334 666 
Q 3027 666 2771 624 
Q 2515 582 2332 502 
Q 2150 422 2048 307 
Q 1946 192 1946 45 
Q 1946 -96 2048 -208 
Q 2150 -320 2332 -397 
Q 2515 -474 2771 -512 
Q 3027 -550 3334 -550 
Q 3610 -550 3866 -512 
Q 4122 -474 4317 -397 
Q 4512 -320 4627 -208 
Q 4742 -96 4742 45 
z
M 5120 1254 
Q 5120 1165 5030 1165 
L 4768 1165 
Q 4678 1165 4678 1254 
L 4678 4915 
Q 4678 5005 4768 5005 
L 5030 5005 
Q 5120 5005 5120 4915 
L 5120 3776 
L 6003 3776 
Q 6042 3776 6070 3753 
Q 6099 3731 6099 3693 
L 6099 3482 
Q 6099 3450 6070 3424 
Q 6042 3398 6003 3398 
L 5120 3398 
L 5120 2630 
L 6003 2630 
Q 6042 2630 6070 2608 
Q 6099 2586 6099 2547 
L 6099 2336 
Q 6099 2304 6070 2278 
Q 6042 2253 6003 2253 
L 5120 2253 
L 5120 1254 
z
M 3296 2413 
Q 3296 2566 3225 2691 
Q 3155 2816 3027 2902 
Q 2899 2989 2726 3037 
Q 2554 3085 2349 3085 
Q 2144 3085 1971 3037 
Q 1798 2989 1670 2902 
Q 1542 2816 1468 2691 
Q 1395 2566 1395 2413 
Q 1395 2259 1468 2134 
Q 1542 2010 1670 1920 
Q 1798 1830 1971 1782 
Q 2144 1734 2349 1734 
Q 2554 1734 2726 1782 
Q 2899 1830 3027 1920 
Q 3155 2010 3225 2134 
Q 3296 2259 3296 2413 
z
M 4218 3827 
Q 4218 3744 4122 3744 
L 589 3744 
Q 557 3744 528 3769 
Q 499 3795 499 3834 
L 499 4038 
Q 499 4077 528 4102 
Q 557 4128 589 4128 
L 4122 4128 
Q 4218 4128 4218 4045 
L 4218 3827 
z
M 3283 4608 
Q 3283 4518 3187 4518 
L 1434 4518 
Q 1402 4518 1373 4540 
Q 1344 4563 1344 4602 
L 1344 4819 
Q 1344 4858 1369 4883 
Q 1395 4909 1427 4909 
L 3187 4909 
Q 3283 4909 3283 4819 
L 3283 4608 
z
" transform="scale(0.015625)"/>
      <path id="NanumGothicCoding-d558" d="M 3738 1542 
Q 3738 1280 3632 1056 
Q 3526 832 3340 662 
Q 3155 493 2899 397 
Q 2643 301 2349 301 
Q 2048 301 1795 397 
Q 1542 493 1356 659 
Q 1171 826 1065 1053 
Q 960 1280 960 1542 
Q 960 1811 1065 2038 
Q 1171 2266 1356 2432 
Q 1542 2598 1795 2694 
Q 2048 2790 2349 2790 
Q 2643 2790 2899 2691 
Q 3155 2592 3340 2425 
Q 3526 2259 3632 2028 
Q 3738 1798 3738 1542 
z
M 5120 -806 
Q 5120 -896 5030 -896 
L 4768 -896 
Q 4678 -896 4678 -806 
L 4678 4915 
Q 4678 5005 4768 5005 
L 5030 5005 
Q 5120 5005 5120 4915 
L 5120 2554 
L 6003 2554 
Q 6042 2554 6070 2531 
Q 6099 2509 6099 2470 
L 6099 2253 
Q 6099 2221 6070 2195 
Q 6042 2170 6003 2170 
L 5120 2170 
L 5120 -806 
z
M 3302 1542 
Q 3302 1728 3232 1888 
Q 3162 2048 3034 2166 
Q 2906 2285 2730 2352 
Q 2554 2419 2349 2419 
Q 2144 2419 1968 2352 
Q 1792 2285 1664 2166 
Q 1536 2048 1462 1888 
Q 1389 1728 1389 1542 
Q 1389 1357 1462 1200 
Q 1536 1043 1664 924 
Q 1792 806 1968 739 
Q 2144 672 2349 672 
Q 2554 672 2730 739 
Q 2906 806 3034 921 
Q 3162 1037 3232 1197 
Q 3302 1357 3302 1542 
z
M 4218 3328 
Q 4218 3245 4122 3245 
L 589 3245 
Q 557 3245 528 3270 
Q 499 3296 499 3334 
L 499 3539 
Q 499 3578 528 3603 
Q 557 3629 589 3629 
L 4122 3629 
Q 4218 3629 4218 3546 
L 4218 3328 
z
M 3283 4416 
Q 3283 4326 3187 4326 
L 1434 4326 
Q 1402 4326 1373 4348 
Q 1344 4371 1344 4410 
L 1344 4627 
Q 1344 4666 1369 4691 
Q 1395 4717 1427 4717 
L 3187 4717 
Q 3283 4717 3283 4627 
L 3283 4416 
z
" transform="scale(0.015625)"/>
      <path id="NanumGothicCoding-b294" d="M 5229 2893 
Q 5229 2854 5197 2835 
Q 5165 2816 5133 2816 
L 1811 2816 
Q 1510 2816 1417 2941 
Q 1325 3066 1325 3328 
L 1325 4806 
Q 1325 4896 1414 4896 
L 1677 4896 
Q 1766 4896 1766 4806 
L 1766 3341 
Q 1766 3251 1795 3225 
Q 1824 3200 1914 3200 
L 5133 3200 
Q 5165 3200 5197 3177 
Q 5229 3155 5229 3123 
L 5229 2893 
z
M 5325 -704 
Q 5325 -742 5293 -761 
Q 5261 -781 5229 -781 
L 1754 -781 
Q 1453 -781 1360 -656 
Q 1267 -531 1267 -269 
L 1267 979 
Q 1267 1069 1357 1069 
L 1619 1069 
Q 1709 1069 1709 979 
L 1709 -262 
Q 1709 -352 1737 -374 
Q 1766 -397 1856 -397 
L 5229 -397 
Q 5261 -397 5293 -419 
Q 5325 -442 5325 -474 
L 5325 -704 
z
M 5920 1958 
Q 5952 1958 5984 1936 
Q 6016 1914 6016 1875 
L 6016 1658 
Q 6016 1626 5984 1600 
Q 5952 1574 5920 1574 
L 480 1574 
Q 442 1574 413 1600 
Q 384 1626 384 1658 
L 384 1875 
Q 384 1914 413 1936 
Q 442 1958 480 1958 
L 5920 1958 
z
" transform="scale(0.015625)"/>
      <path id="NanumGothicCoding-bc29" d="M 5197 250 
Q 5197 -26 5049 -243 
Q 4902 -461 4649 -611 
Q 4397 -762 4061 -842 
Q 3725 -922 3341 -922 
Q 2925 -922 2585 -842 
Q 2246 -762 2003 -611 
Q 1760 -461 1625 -243 
Q 1491 -26 1491 250 
Q 1491 518 1625 732 
Q 1760 947 2003 1097 
Q 2246 1248 2585 1328 
Q 2925 1408 3341 1408 
Q 3725 1408 4061 1328 
Q 4397 1248 4649 1101 
Q 4902 954 5049 739 
Q 5197 525 5197 250 
z
M 1350 1971 
Q 1197 1971 1104 1990 
Q 1011 2010 960 2064 
Q 909 2118 889 2204 
Q 870 2291 870 2426 
L 870 4730 
Q 870 4762 896 4784 
Q 922 4806 954 4806 
L 1229 4806 
Q 1261 4806 1283 4780 
Q 1306 4755 1306 4730 
L 1306 3731 
L 3174 3731 
L 3174 4723 
Q 3174 4755 3196 4780 
Q 3219 4806 3251 4806 
L 3526 4806 
Q 3558 4806 3584 4784 
Q 3610 4762 3610 4730 
L 3610 2381 
Q 3610 2138 3507 2054 
Q 3405 1971 3123 1971 
L 1350 1971 
z
M 4742 230 
Q 4742 422 4627 569 
Q 4512 717 4317 816 
Q 4122 915 3866 969 
Q 3610 1024 3334 1024 
Q 3027 1024 2771 969 
Q 2515 915 2332 816 
Q 2150 717 2048 569 
Q 1946 422 1946 230 
Q 1946 45 2048 -99 
Q 2150 -243 2332 -339 
Q 2515 -435 2771 -486 
Q 3027 -538 3334 -538 
Q 3610 -538 3866 -486 
Q 4122 -435 4317 -339 
Q 4512 -243 4627 -99 
Q 4742 45 4742 230 
z
M 5120 1530 
Q 5120 1440 5030 1440 
L 4768 1440 
Q 4678 1440 4678 1530 
L 4678 4915 
Q 4678 5005 4768 5005 
L 5030 5005 
Q 5120 5005 5120 4915 
L 5120 3373 
L 6003 3373 
Q 6042 3373 6070 3347 
Q 6099 3322 6099 3283 
L 6099 3072 
Q 6099 3040 6070 3014 
Q 6042 2989 6003 2989 
L 5120 2989 
L 5120 1530 
z
M 1306 3354 
L 1306 2502 
Q 1306 2406 1338 2377 
Q 1370 2349 1459 2349 
L 3021 2349 
Q 3110 2349 3142 2377 
Q 3174 2406 3174 2502 
L 3174 3354 
L 1306 3354 
z
" transform="scale(0.015625)"/>
     </defs>
     <use xlink:href="#NanumGothicCoding-6e"/>
     <use xlink:href="#NanumGothicCoding-6f" transform="translate(49.999985 0)"/>
     <use xlink:href="#NanumGothicCoding-72" transform="translate(99.999969 0)"/>
     <use xlink:href="#NanumGothicCoding-6d" transform="translate(149.999954 0)"/>
     <use xlink:href="#NanumGothicCoding-61" transform="translate(199.999939 0)"/>
     <use xlink:href="#NanumGothicCoding-6c" transform="translate(249.999924 0)"/>
     <use xlink:href="#NanumGothicCoding-20" transform="translate(299.999908 0)"/>
     <use xlink:href="#NanumGothicCoding-3d" transform="translate(349.999893 0)"/>
     <use xlink:href="#NanumGothicCoding-20" transform="translate(399.999878 0)"/>
     <use xlink:href="#NanumGothicCoding-41" transform="translate(449.999863 0)"/>
     <use xlink:href="#NanumGothicCoding-20" transform="translate(499.999847 0)"/>
     <use xlink:href="#NanumGothicCoding-c911" transform="translate(549.999832 0)"/>
     <use xlink:href="#NanumGothicCoding-c2ec" transform="translate(649.999817 0)"/>
     <use xlink:href="#NanumGothicCoding-c5d0" transform="translate(749.999802 0)"/>
     <use xlink:href="#NanumGothicCoding-c11c" transform="translate(849.999786 0)"/>
     <use xlink:href="#NanumGothicCoding-20" transform="translate(949.999771 0)"/>
     <use xlink:href="#NanumGothicCoding-42" transform="translate(999.999756 0)"/>
     <use xlink:href="#NanumGothicCoding-20" transform="translate(1049.999741 0)"/>
     <use xlink:href="#NanumGothicCoding-c911" transform="translate(1099.999725 0)"/>
     <use xlink:href="#NanumGothicCoding-c2ec" transform="translate(1199.99971 0)"/>
     <use xlink:href="#NanumGothicCoding-c73c" transform="translate(1299.999695 0)"/>
     <use xlink:href="#NanumGothicCoding-b85c" transform="translate(1399.99968 0)"/>
     <use xlink:href="#NanumGothicCoding-20" transform="translate(1499.999664 0)"/>
     <use xlink:href="#NanumGothicCoding-d5a5" transform="translate(1549.999649 0)"/>
     <use xlink:href="#NanumGothicCoding-d558" transform="translate(1649.999634 0)"/>
     <use xlink:href="#NanumGothicCoding-b294" transform="translate(1749.999619 0)"/>
     <use xlink:href="#NanumGothicCoding-20" transform="translate(1849.999603 0)"/>
     <use xlink:href="#NanumGothicCoding-bc29" transform="translate(1899.999588 0)"/>
     <use xlink:href="#NanumGothicCoding-d5a5" transform="translate(1999.999573 0)"/>
    </g>
   </g>
   <g id="text_2">
    <!-- penetration = 반지름합 - 중심거리 -->
    <g style="fill: #111827" transform="translate(20.98224 37.314504) scale(0.11 -0.11)">
     <defs>
      <path id="NanumGothicCoding-70" d="M 397 2848 
Q 397 2931 486 2931 
L 736 2931 
Q 826 2931 826 2848 
L 826 2381 
Q 1088 2995 1722 2995 
Q 2016 2995 2256 2854 
Q 2496 2714 2669 2448 
Q 2842 2182 2915 1875 
Q 2989 1568 2989 1229 
Q 2989 627 2656 124 
Q 2323 -378 1722 -378 
Q 1402 -378 1174 -218 
Q 947 -58 826 173 
L 826 -1171 
Q 826 -1254 736 -1254 
L 486 -1254 
Q 397 -1254 397 -1171 
L 397 2848 
z
M 2534 1299 
Q 2541 1498 2496 1731 
Q 2451 1965 2345 2173 
Q 2240 2381 2080 2502 
Q 1920 2624 1683 2624 
Q 1446 2624 1286 2502 
Q 1126 2381 1020 2173 
Q 915 1965 876 1731 
Q 838 1498 838 1299 
Q 838 1114 876 874 
Q 915 634 1020 429 
Q 1126 224 1286 102 
Q 1446 -19 1683 -19 
Q 1920 -19 2080 102 
Q 2240 224 2349 429 
Q 2458 634 2499 874 
Q 2541 1114 2534 1299 
z
" transform="scale(0.015625)"/>
      <path id="NanumGothicCoding-65" d="M 2458 1536 
Q 2458 1734 2410 1939 
Q 2362 2144 2266 2298 
Q 2042 2669 1626 2669 
Q 1210 2669 973 2291 
Q 864 2106 806 1907 
Q 749 1709 742 1536 
L 2458 1536 
z
M 736 1171 
Q 730 966 810 726 
Q 890 486 1030 336 
Q 1171 186 1350 96 
Q 1530 6 1786 6 
Q 2010 6 2202 51 
Q 2394 96 2586 198 
Q 2662 230 2669 154 
L 2669 -141 
Q 2669 -192 2598 -224 
Q 2400 -301 2211 -339 
Q 2022 -378 1754 -378 
Q 1069 -378 665 80 
Q 262 538 262 1312 
Q 262 2016 659 2541 
Q 1075 3034 1632 3034 
Q 1978 3034 2205 2912 
Q 2432 2790 2611 2541 
Q 2931 2112 2931 1376 
Q 2931 1299 2928 1257 
Q 2925 1216 2905 1197 
Q 2886 1178 2838 1174 
Q 2790 1171 2701 1171 
L 736 1171 
z
" transform="scale(0.015625)"/>
      <path id="NanumGothicCoding-74" d="M 2733 -269 
Q 2464 -378 2106 -378 
Q 1523 -378 1357 -38 
Q 1248 192 1248 774 
L 1248 2413 
L 416 2413 
Q 326 2413 326 2502 
L 326 2694 
Q 326 2784 416 2784 
L 1248 2784 
L 1248 3686 
Q 1248 3782 1331 3782 
L 1600 3782 
Q 1683 3782 1683 3686 
L 1683 2784 
L 2714 2784 
Q 2803 2784 2803 2694 
L 2803 2502 
Q 2803 2413 2714 2413 
L 1683 2413 
L 1683 486 
Q 1683 6 2208 6 
Q 2470 6 2707 115 
Q 2739 128 2768 115 
Q 2797 102 2797 64 
L 2810 -141 
Q 2822 -230 2733 -269 
z
" transform="scale(0.015625)"/>
      <path id="NanumGothicCoding-69" d="M 2656 122 
Q 2746 122 2746 32 
L 2746 -186 
Q 2746 -275 2656 -275 
L 614 -275 
Q 525 -275 525 -186 
L 525 32 
Q 525 122 614 122 
L 1434 122 
L 1434 2534 
L 685 2534 
Q 595 2534 595 2624 
L 595 2842 
Q 595 2931 685 2931 
L 1805 2931 
Q 1894 2931 1894 2842 
L 1894 122 
L 2656 122 
z
M 1235 3968 
Q 1235 4115 1340 4220 
Q 1446 4326 1594 4326 
Q 1741 4326 1846 4220 
Q 1952 4115 1952 3968 
Q 1952 3821 1846 3715 
Q 1741 3610 1594 3610 
Q 1446 3610 1340 3715 
Q 1235 3821 1235 3968 
z
" transform="scale(0.015625)"/>
      <path id="NanumGothicCoding-bc18" d="M 1350 1715 
Q 1197 1715 1104 1734 
Q 1011 1754 960 1808 
Q 909 1862 889 1948 
Q 870 2035 870 2170 
L 870 4691 
Q 870 4723 896 4745 
Q 922 4768 954 4768 
L 1229 4768 
Q 1261 4768 1283 4742 
Q 1306 4717 1306 4691 
L 1306 3584 
L 3168 3584 
L 3168 4685 
Q 3168 4717 3190 4742 
Q 3213 4768 3245 4768 
L 3520 4768 
Q 3552 4768 3577 4745 
Q 3603 4723 3603 4691 
L 3603 2125 
Q 3603 1882 3500 1798 
Q 3398 1715 3117 1715 
L 1350 1715 
z
M 5120 832 
Q 5120 742 5030 742 
L 4768 742 
Q 4678 742 4678 832 
L 4678 4915 
Q 4678 5005 4768 5005 
L 5030 5005 
Q 5120 5005 5120 4915 
L 5120 3130 
L 6003 3130 
Q 6042 3130 6070 3107 
Q 6099 3085 6099 3046 
L 6099 2829 
Q 6099 2797 6070 2771 
Q 6042 2746 6003 2746 
L 5120 2746 
L 5120 832 
z
M 5408 -704 
Q 5408 -742 5376 -761 
Q 5344 -781 5312 -781 
L 2054 -781 
Q 1754 -781 1661 -669 
Q 1568 -557 1568 -294 
L 1568 960 
Q 1568 1050 1658 1050 
L 1920 1050 
Q 2010 1050 2010 960 
L 2010 -262 
Q 2010 -352 2038 -374 
Q 2067 -397 2157 -397 
L 5312 -397 
Q 5344 -397 5376 -419 
Q 5408 -442 5408 -474 
L 5408 -704 
z
M 1306 3206 
L 1306 2246 
Q 1306 2150 1338 2121 
Q 1370 2093 1459 2093 
L 3014 2093 
Q 3104 2093 3136 2121 
Q 3168 2150 3168 2246 
L 3168 3206 
L 1306 3206 
z
" transform="scale(0.015625)"/>
      <path id="NanumGothicCoding-c9c0" d="M 4019 858 
Q 4000 826 3971 819 
Q 3942 813 3891 851 
Q 3738 966 3565 1116 
Q 3392 1267 3225 1436 
Q 3059 1606 2899 1788 
Q 2739 1971 2605 2150 
Q 2285 1747 1875 1379 
Q 1466 1011 941 646 
Q 909 627 877 617 
Q 845 608 826 634 
L 672 832 
Q 646 864 652 899 
Q 659 934 685 954 
Q 1709 1677 2281 2419 
Q 2854 3162 3078 3968 
Q 3104 4058 3081 4099 
Q 3059 4141 2970 4141 
L 1030 4141 
Q 954 4141 954 4224 
L 954 4448 
Q 954 4525 1043 4525 
L 3142 4525 
Q 3475 4525 3564 4409 
Q 3654 4294 3565 4000 
Q 3315 3181 2861 2496 
Q 3008 2291 3174 2092 
Q 3341 1894 3507 1718 
Q 3674 1542 3840 1398 
Q 4006 1254 4154 1158 
Q 4186 1133 4186 1101 
Q 4186 1069 4166 1043 
L 4019 858 
z
M 5344 -806 
Q 5344 -896 5254 -896 
L 4992 -896 
Q 4902 -896 4902 -806 
L 4902 4915 
Q 4902 5005 4992 5005 
L 5254 5005 
Q 5344 5005 5344 4915 
L 5344 -806 
z
" transform="scale(0.015625)"/>
      <path id="NanumGothicCoding-b984" d="M 1267 589 
Q 1267 858 1369 950 
Q 1472 1043 1754 1043 
L 4634 1043 
Q 4787 1043 4880 1024 
Q 4973 1005 5027 953 
Q 5082 902 5101 812 
Q 5120 723 5120 589 
L 5120 -390 
Q 5120 -659 5017 -752 
Q 4915 -845 4634 -845 
L 1754 -845 
Q 1600 -845 1507 -825 
Q 1414 -806 1360 -752 
Q 1306 -698 1286 -611 
Q 1267 -525 1267 -390 
L 1267 589 
z
M 1862 672 
Q 1773 672 1741 637 
Q 1709 602 1709 506 
L 1709 -294 
Q 1709 -390 1741 -425 
Q 1773 -461 1862 -461 
L 4525 -461 
Q 4614 -461 4646 -425 
Q 4678 -390 4678 -294 
L 4678 506 
Q 4678 602 4646 637 
Q 4614 672 4525 672 
L 1862 672 
z
M 5920 1952 
Q 5952 1952 5984 1929 
Q 6016 1907 6016 1869 
L 6016 1651 
Q 6016 1619 5984 1593 
Q 5952 1568 5920 1568 
L 480 1568 
Q 442 1568 413 1593 
Q 384 1619 384 1651 
L 384 1869 
Q 384 1907 413 1929 
Q 442 1952 480 1952 
L 5920 1952 
z
M 5203 2573 
Q 5203 2541 5174 2518 
Q 5146 2496 5120 2496 
L 1786 2496 
Q 1485 2496 1392 2608 
Q 1299 2720 1299 2989 
L 1299 3437 
Q 1299 3706 1411 3798 
Q 1523 3891 1811 3891 
L 4525 3891 
Q 4614 3891 4636 3913 
Q 4659 3936 4659 4038 
L 4659 4390 
Q 4659 4486 4636 4512 
Q 4614 4538 4525 4538 
L 1389 4538 
Q 1357 4538 1328 4557 
Q 1299 4576 1299 4608 
L 1299 4838 
Q 1299 4870 1328 4889 
Q 1357 4909 1389 4909 
L 4595 4909 
Q 4749 4909 4845 4886 
Q 4941 4864 4998 4813 
Q 5056 4762 5078 4669 
Q 5101 4576 5101 4442 
L 5101 3974 
Q 5101 3706 4989 3613 
Q 4877 3520 4589 3520 
L 1869 3520 
Q 1779 3520 1756 3497 
Q 1734 3475 1734 3373 
L 1734 3008 
Q 1734 2918 1760 2889 
Q 1786 2861 1875 2861 
L 5114 2861 
Q 5146 2861 5174 2841 
Q 5203 2822 5203 2790 
L 5203 2573 
z
" transform="scale(0.015625)"/>
      <path id="NanumGothicCoding-d569" d="M 1946 -845 
Q 1792 -845 1699 -825 
Q 1606 -806 1555 -752 
Q 1504 -698 1485 -611 
Q 1466 -525 1466 -390 
L 1466 1254 
Q 1466 1286 1491 1305 
Q 1517 1325 1549 1325 
L 1830 1325 
Q 1862 1325 1884 1302 
Q 1907 1280 1907 1254 
L 1907 666 
L 4678 666 
L 4678 1242 
Q 4678 1274 4700 1299 
Q 4723 1325 4755 1325 
L 5037 1325 
Q 5069 1325 5094 1302 
Q 5120 1280 5120 1248 
L 5120 -435 
Q 5120 -678 5017 -761 
Q 4915 -845 4634 -845 
L 1946 -845 
z
M 3725 2573 
Q 3725 2355 3619 2169 
Q 3514 1984 3331 1849 
Q 3149 1715 2896 1641 
Q 2643 1568 2349 1568 
Q 2048 1568 1798 1641 
Q 1549 1715 1363 1849 
Q 1178 1984 1075 2169 
Q 973 2355 973 2573 
Q 973 2790 1075 2976 
Q 1178 3162 1363 3293 
Q 1549 3424 1798 3497 
Q 2048 3571 2349 3571 
Q 2643 3571 2896 3497 
Q 3149 3424 3331 3289 
Q 3514 3155 3619 2972 
Q 3725 2790 3725 2573 
z
M 1907 282 
L 1907 -307 
Q 1907 -403 1939 -432 
Q 1971 -461 2061 -461 
L 4525 -461 
Q 4614 -461 4646 -432 
Q 4678 -403 4678 -307 
L 4678 282 
L 1907 282 
z
M 3296 2573 
Q 3296 2874 3027 3037 
Q 2758 3200 2349 3200 
Q 2144 3200 1971 3158 
Q 1798 3117 1670 3037 
Q 1542 2957 1468 2841 
Q 1395 2726 1395 2573 
Q 1395 2426 1468 2307 
Q 1542 2189 1670 2109 
Q 1798 2029 1971 1984 
Q 2144 1939 2349 1939 
Q 2758 1939 3027 2108 
Q 3296 2278 3296 2573 
z
M 5120 1760 
Q 5120 1670 5030 1670 
L 4768 1670 
Q 4678 1670 4678 1760 
L 4678 4915 
Q 4678 5005 4768 5005 
L 5030 5005 
Q 5120 5005 5120 4915 
L 5120 3437 
L 6003 3437 
Q 6042 3437 6070 3414 
Q 6099 3392 6099 3354 
L 6099 3136 
Q 6099 3104 6070 3078 
Q 6042 3053 6003 3053 
L 5120 3053 
L 5120 1760 
z
M 4218 3917 
Q 4218 3834 4122 3834 
L 589 3834 
Q 557 3834 528 3859 
Q 499 3885 499 3923 
L 499 4128 
Q 499 4166 528 4192 
Q 557 4218 589 4218 
L 4122 4218 
Q 4218 4218 4218 4134 
L 4218 3917 
z
M 3283 4653 
Q 3283 4563 3187 4563 
L 1434 4563 
Q 1402 4563 1373 4585 
Q 1344 4608 1344 4646 
L 1344 4864 
Q 1344 4902 1369 4928 
Q 1395 4954 1427 4954 
L 3187 4954 
Q 3283 4954 3283 4864 
L 3283 4653 
z
" transform="scale(0.015625)"/>
      <path id="NanumGothicCoding-2d" d="M 2938 2131 
L 2938 1850 
Q 2938 1779 2928 1769 
Q 2918 1760 2848 1760 
L 352 1760 
Q 282 1760 272 1769 
Q 262 1779 262 1850 
L 262 2131 
Q 262 2202 272 2211 
Q 282 2221 352 2221 
L 2848 2221 
Q 2918 2221 2928 2211 
Q 2938 2202 2938 2131 
z
" transform="scale(0.015625)"/>
      <path id="NanumGothicCoding-ac70" d="M 4902 2701 
L 4902 4915 
Q 4902 5005 4992 5005 
L 5254 5005 
Q 5344 5005 5344 4915 
L 5344 -806 
Q 5344 -896 5254 -896 
L 4992 -896 
Q 4902 -896 4902 -806 
L 4902 2317 
L 3590 2317 
Q 3507 2317 3507 2394 
L 3507 2624 
Q 3507 2701 3590 2701 
L 4902 2701 
z
M 3584 4064 
Q 3552 3514 3366 2982 
Q 3181 2451 2851 1968 
Q 2522 1485 2058 1072 
Q 1594 659 1005 346 
Q 922 301 883 365 
L 742 589 
Q 698 666 768 698 
Q 1312 979 1731 1340 
Q 2150 1702 2448 2124 
Q 2746 2547 2918 3014 
Q 3091 3482 3136 3974 
Q 3149 4070 3110 4105 
Q 3072 4141 2982 4141 
L 947 4141 
Q 870 4141 870 4224 
L 870 4448 
Q 870 4525 947 4525 
L 3104 4525 
Q 3405 4525 3501 4413 
Q 3597 4301 3584 4064 
z
" transform="scale(0.015625)"/>
      <path id="NanumGothicCoding-b9ac" d="M 5344 -806 
Q 5344 -896 5254 -896 
L 4992 -896 
Q 4902 -896 4902 -806 
L 4902 4915 
Q 4902 5005 4992 5005 
L 5254 5005 
Q 5344 5005 5344 4915 
L 5344 -806 
z
M 1402 550 
Q 1114 563 1014 668 
Q 915 774 915 1043 
L 915 2317 
Q 915 2586 1027 2678 
Q 1139 2771 1427 2771 
L 3040 2771 
Q 3130 2771 3155 2796 
Q 3181 2822 3181 2918 
L 3181 3994 
Q 3181 4090 3158 4115 
Q 3136 4141 3046 4141 
L 1030 4141 
Q 998 4141 969 4160 
Q 941 4179 941 4211 
L 941 4454 
Q 941 4486 969 4505 
Q 998 4525 1030 4525 
L 3117 4525 
Q 3270 4525 3366 4502 
Q 3462 4480 3520 4429 
Q 3578 4378 3600 4285 
Q 3622 4192 3622 4058 
L 3622 2842 
Q 3622 2573 3510 2480 
Q 3398 2387 3110 2387 
L 1491 2387 
Q 1402 2387 1379 2361 
Q 1357 2336 1357 2240 
L 1357 1075 
Q 1357 928 1498 928 
Q 2259 915 2960 985 
Q 3661 1056 4320 1203 
Q 4410 1222 4429 1139 
L 4467 928 
Q 4486 845 4384 819 
Q 4045 742 3670 688 
Q 3296 634 2909 598 
Q 2522 563 2138 550 
Q 1754 538 1402 550 
z
" transform="scale(0.015625)"/>
     </defs>
     <use xlink:href="#NanumGothicCoding-70"/>
     <use xlink:href="#NanumGothicCoding-65" transform="translate(49.999985 0)"/>
     <use xlink:href="#NanumGothicCoding-6e" transform="translate(99.999969 0)"/>
     <use xlink:href="#NanumGothicCoding-65" transform="translate(149.999954 0)"/>
     <use xlink:href="#NanumGothicCoding-74" transform="translate(199.999939 0)"/>
     <use xlink:href="#NanumGothicCoding-72" transform="translate(249.999924 0)"/>
     <use xlink:href="#NanumGothicCoding-61" transform="translate(299.999908 0)"/>
     <use xlink:href="#NanumGothicCoding-74" transform="translate(349.999893 0)"/>
     <use xlink:href="#NanumGothicCoding-69" transform="translate(399.999878 0)"/>
     <use xlink:href="#NanumGothicCoding-6f" transform="translate(449.999863 0)"/>
     <use xlink:href="#NanumGothicCoding-6e" transform="translate(499.999847 0)"/>
     <use xlink:href="#NanumGothicCoding-20" transform="translate(549.999832 0)"/>
     <use xlink:href="#NanumGothicCoding-3d" transform="translate(599.999817 0)"/>
     <use xlink:href="#NanumGothicCoding-20" transform="translate(649.999802 0)"/>
     <use xlink:href="#NanumGothicCoding-bc18" transform="translate(699.999786 0)"/>
     <use xlink:href="#NanumGothicCoding-c9c0" transform="translate(799.999771 0)"/>
     <use xlink:href="#NanumGothicCoding-b984" transform="translate(899.999756 0)"/>
     <use xlink:href="#NanumGothicCoding-d569" transform="translate(999.999741 0)"/>
     <use xlink:href="#NanumGothicCoding-20" transform="translate(1099.999725 0)"/>
     <use xlink:href="#NanumGothicCoding-2d" transform="translate(1149.99971 0)"/>
     <use xlink:href="#NanumGothicCoding-20" transform="translate(1199.999695 0)"/>
     <use xlink:href="#NanumGothicCoding-c911" transform="translate(1249.99968 0)"/>
     <use xlink:href="#NanumGothicCoding-c2ec" transform="translate(1349.999664 0)"/>
     <use xlink:href="#NanumGothicCoding-ac70" transform="translate(1449.999649 0)"/>
     <use xlink:href="#NanumGothicCoding-b9ac" transform="translate(1549.999634 0)"/>
    </g>
   </g>
  </g>
 </g>
 <defs>
  <clipPath id="pea6f38ea35">
   <rect x="5.76" y="5.76" width="380.556" height="99.792"/>
  </clipPath>
 </defs>
</svg>
