<?xml version="1.0" encoding="utf-8" standalone="no"?>
<!DOCTYPE svg PUBLIC "-//W3C//DTD SVG 1.1//EN"
  "http://www.w3.org/Graphics/SVG/1.1/DTD/svg11.dtd">
<svg xmlns:xlink="http://www.w3.org/1999/xlink" width="407.413333pt" height="248.248531pt" viewBox="0 0 407.413333 248.248531" xmlns="http://www.w3.org/2000/svg" version="1.1">
 <metadata>
  <rdf:RDF xmlns:dc="http://purl.org/dc/elements/1.1/" xmlns:cc="http://creativecommons.org/ns#" xmlns:rdf="http://www.w3.org/1999/02/22-rdf-syntax-ns#">
   <cc:Work>
    <dc:type rdf:resource="http://purl.org/dc/dcmitype/StillImage"/>
    <dc:date>2026-07-08T05:12:54.848910</dc:date>
    <dc:format>image/svg+xml</dc:format>
    <dc:creator>
     <cc:Agent>
      <dc:title>Matplotlib v3.10.8, https://matplotlib.org/</dc:title>
     </cc:Agent>
    </dc:creator>
   </cc:Work>
  </rdf:RDF>
 </metadata>
 <defs>
  <style type="text/css">*{stroke-linejoin: round; stroke-linecap: butt}</style>
 </defs>
 <g id="figure_1">
  <g id="patch_1">
   <path d="M 0 248.248531 
L 407.413333 248.248531 
L 407.413333 0 
L 0 0 
z
" style="fill: #ffffff"/>
  </g>
  <g id="axes_1">
   <g id="line2d_1">
    <defs>
     <path id="mf2cb78d190" d="M 0 4 
C 1.060812 4 2.078319 3.578535 2.828427 2.828427 
C 3.578535 2.078319 4 1.060812 4 0 
C 4 -1.060812 3.578535 -2.078319 2.828427 -2.828427 
C 2.078319 -3.578535 1.060812 -4 0 -4 
C -1.060812 -4 -2.078319 -3.578535 -2.828427 -2.828427 
C -3.578535 -2.078319 -4 -1.060812 -4 0 
C -4 1.060812 -3.578535 2.078319 -2.828427 2.828427 
C -2.078319 3.578535 -1.060812 4 0 4 
z
" style="stroke: #2563eb"/>
    </defs>
    <g clip-path="url(#pf22f891a3a)">
     <use xlink:href="#mf2cb78d190" x="86.666667" y="161.581865" style="fill: #2563eb; stroke: #2563eb"/>
    </g>
   </g>
   <g id="text_1">
    <!-- 외적의 부호: 적이 왼쪽에 있는지 오른쪽에 있는지 -->
    <g style="fill: #111827" transform="translate(8.64 20.054062) scale(0.15 -0.15)">
     <defs>
      <path id="NanumGothicBold-c678" d="M 2182 4659 
Q 2509 4659 2793 4550 
Q 3078 4442 3289 4250 
Q 3501 4058 3622 3789 
Q 3744 3520 3744 3206 
Q 3744 2931 3654 2700 
Q 3565 2470 3408 2288 
Q 3251 2106 3030 1984 
Q 2810 1862 2547 1805 
L 2547 832 
Q 2976 858 3376 896 
Q 3776 934 4122 986 
Q 4154 992 4195 982 
Q 4237 973 4243 922 
L 4282 499 
Q 4288 448 4259 422 
Q 4230 397 4198 390 
Q 3840 339 3360 291 
Q 2880 243 2352 211 
Q 1824 179 1293 163 
Q 762 147 307 154 
Q 211 154 211 256 
L 211 691 
Q 211 781 307 781 
Q 666 768 1053 774 
Q 1440 781 1837 794 
L 1837 1805 
Q 1574 1856 1353 1977 
Q 1133 2099 973 2278 
Q 813 2458 723 2691 
Q 634 2925 634 3206 
Q 634 3520 755 3789 
Q 877 4058 1085 4250 
Q 1293 4442 1574 4550 
Q 1856 4659 2182 4659 
z
M 5280 -928 
Q 5280 -1011 5190 -1011 
L 4627 -1011 
Q 4595 -1011 4566 -988 
Q 4538 -966 4538 -928 
L 4538 4979 
Q 4538 5011 4566 5036 
Q 4595 5062 4627 5062 
L 5190 5062 
Q 5280 5062 5280 4979 
L 5280 -928 
z
M 2182 4051 
Q 2010 4051 1856 3990 
Q 1702 3930 1587 3821 
Q 1472 3712 1408 3555 
Q 1344 3398 1344 3206 
Q 1344 3014 1408 2854 
Q 1472 2694 1587 2585 
Q 1702 2477 1856 2416 
Q 2010 2355 2182 2355 
Q 2362 2355 2518 2416 
Q 2675 2477 2790 2585 
Q 2906 2694 2970 2854 
Q 3034 3014 3034 3206 
Q 3034 3398 2970 3555 
Q 2906 3712 2790 3821 
Q 2675 3930 2518 3990 
Q 2362 4051 2182 4051 
z
" transform="scale(0.015625)"/>
      <path id="NanumGothicBold-c801" d="M 781 1568 
Q 742 1542 678 1545 
Q 614 1549 576 1619 
L 390 1933 
Q 358 1984 371 2041 
Q 384 2099 448 2125 
Q 806 2285 1126 2493 
Q 1446 2701 1705 2937 
Q 1965 3174 2157 3433 
Q 2349 3693 2451 3955 
Q 2477 4013 2473 4057 
Q 2470 4102 2368 4102 
L 781 4102 
Q 691 4102 691 4205 
L 691 4627 
Q 691 4666 720 4691 
Q 749 4717 787 4717 
L 2810 4717 
Q 3091 4717 3228 4614 
Q 3366 4512 3334 4301 
Q 3322 4230 3299 4153 
Q 3277 4077 3258 4019 
Q 3091 3546 2778 3123 
Q 2893 3008 3033 2889 
Q 3174 2771 3324 2665 
Q 3475 2560 3625 2470 
Q 3776 2381 3904 2323 
Q 4032 2259 3968 2138 
L 3757 1792 
Q 3725 1741 3680 1728 
Q 3635 1715 3565 1747 
Q 3450 1805 3296 1901 
Q 3142 1997 2976 2118 
Q 2810 2240 2650 2374 
Q 2490 2509 2355 2643 
Q 2029 2323 1635 2051 
Q 1242 1779 781 1568 
z
M 5286 -909 
Q 5286 -941 5254 -969 
Q 5222 -998 5190 -998 
L 4646 -998 
Q 4602 -998 4573 -969 
Q 4544 -941 4544 -909 
L 4544 480 
Q 4544 550 4518 569 
Q 4493 589 4429 589 
L 1466 589 
Q 1434 589 1405 611 
Q 1376 634 1376 666 
L 1376 1120 
Q 1376 1158 1405 1177 
Q 1434 1197 1466 1197 
L 4858 1197 
Q 5101 1197 5193 1097 
Q 5286 998 5286 755 
L 5286 -909 
z
M 3450 3059 
L 3450 3507 
Q 3450 3539 3478 3561 
Q 3507 3584 3539 3584 
L 4544 3584 
L 4544 4979 
Q 4544 5062 4634 5062 
L 5197 5062 
Q 5229 5062 5257 5036 
Q 5286 5011 5286 4979 
L 5286 1606 
Q 5286 1574 5257 1545 
Q 5229 1517 5197 1517 
L 4634 1517 
Q 4595 1517 4569 1545 
Q 4544 1574 4544 1606 
L 4544 2982 
L 3539 2982 
Q 3507 2982 3478 3004 
Q 3450 3027 3450 3059 
z
" transform="scale(0.015625)"/>
      <path id="NanumGothicBold-c758" d="M 5280 -928 
Q 5280 -1011 5190 -1011 
L 4627 -1011 
Q 4595 -1011 4566 -988 
Q 4538 -966 4538 -928 
L 4538 4979 
Q 4538 5011 4566 5036 
Q 4595 5062 4627 5062 
L 5190 5062 
Q 5280 5062 5280 4979 
L 5280 -928 
z
M 2144 4083 
Q 1779 4083 1542 3846 
Q 1306 3610 1306 3206 
Q 1306 2797 1542 2560 
Q 1779 2323 2144 2323 
Q 2522 2323 2758 2560 
Q 2995 2797 2995 3206 
Q 2995 3610 2758 3846 
Q 2522 4083 2144 4083 
z
M 2144 4691 
Q 2470 4691 2755 4585 
Q 3040 4480 3251 4285 
Q 3462 4090 3584 3814 
Q 3706 3539 3706 3206 
Q 3706 2867 3584 2595 
Q 3462 2323 3251 2134 
Q 3040 1946 2755 1843 
Q 2470 1741 2138 1741 
Q 1811 1741 1529 1843 
Q 1248 1946 1040 2134 
Q 832 2323 710 2595 
Q 589 2867 589 3206 
Q 589 3539 710 3814 
Q 832 4090 1040 4285 
Q 1248 4480 1533 4585 
Q 1818 4691 2144 4691 
z
M 211 819 
Q 211 858 236 886 
Q 262 915 307 915 
Q 762 902 1267 915 
Q 1773 928 2275 953 
Q 2778 979 3251 1020 
Q 3725 1062 4122 1114 
Q 4154 1120 4195 1110 
Q 4237 1101 4243 1050 
L 4282 634 
Q 4288 582 4259 553 
Q 4230 525 4198 518 
Q 3840 467 3360 422 
Q 2880 378 2352 346 
Q 1824 314 1293 298 
Q 762 282 307 288 
Q 262 288 236 317 
Q 211 346 211 384 
L 211 819 
z
" transform="scale(0.015625)"/>
      <path id="NanumGothicBold-20" transform="scale(0.015625)"/>
      <path id="NanumGothicBold-bd80" d="M 4275 3635 
L 1715 3635 
L 1715 3117 
Q 1715 3053 1737 3037 
Q 1760 3021 1818 3021 
L 4173 3021 
Q 4230 3021 4252 3037 
Q 4275 3053 4275 3117 
L 4275 3635 
z
M 5011 2835 
Q 5011 2624 4908 2515 
Q 4806 2406 4531 2406 
L 1466 2406 
Q 1184 2406 1081 2502 
Q 979 2598 979 2861 
L 979 4966 
Q 979 4998 1004 5020 
Q 1030 5043 1062 5043 
L 1626 5043 
Q 1658 5043 1686 5020 
Q 1715 4998 1715 4966 
L 1715 4243 
L 4275 4243 
L 4275 4960 
Q 4275 4992 4300 5017 
Q 4326 5043 4358 5043 
L 4928 5043 
Q 4960 5043 4985 5017 
Q 5011 4992 5011 4960 
L 5011 2835 
z
M 5882 1171 
Q 5882 1139 5850 1107 
Q 5818 1075 5786 1075 
L 3366 1075 
L 3366 -877 
Q 3366 -966 3277 -966 
L 2720 -966 
Q 2630 -966 2630 -877 
L 2630 1075 
L 211 1075 
Q 173 1075 147 1107 
Q 122 1139 122 1171 
L 122 1594 
Q 122 1632 147 1661 
Q 173 1690 211 1690 
L 5786 1690 
Q 5818 1690 5850 1658 
Q 5882 1626 5882 1594 
L 5882 1171 
z
" transform="scale(0.015625)"/>
      <path id="NanumGothicBold-d638" d="M 5882 64 
Q 5882 32 5850 -3 
Q 5818 -38 5786 -38 
L 211 -38 
Q 173 -38 147 -6 
Q 122 26 122 64 
L 122 467 
Q 122 506 147 534 
Q 173 563 211 563 
L 2630 563 
L 2630 1126 
Q 2317 1165 2064 1257 
Q 1811 1350 1632 1494 
Q 1453 1638 1353 1820 
Q 1254 2003 1254 2221 
Q 1254 2464 1385 2669 
Q 1517 2874 1747 3024 
Q 1978 3174 2298 3257 
Q 2618 3341 2995 3341 
Q 3379 3341 3699 3257 
Q 4019 3174 4252 3024 
Q 4486 2874 4614 2669 
Q 4742 2464 4742 2221 
Q 4742 2003 4643 1820 
Q 4544 1638 4365 1494 
Q 4186 1350 3930 1257 
Q 3674 1165 3366 1126 
L 3366 563 
L 5786 563 
Q 5818 563 5850 531 
Q 5882 499 5882 467 
L 5882 64 
z
M 5370 3648 
Q 5370 3603 5341 3574 
Q 5312 3546 5274 3546 
L 723 3546 
Q 691 3546 659 3578 
Q 627 3610 627 3654 
L 627 4026 
Q 627 4058 662 4090 
Q 698 4122 730 4122 
L 5274 4122 
Q 5312 4122 5341 4093 
Q 5370 4064 5370 4026 
L 5370 3648 
z
M 2995 2797 
Q 2784 2797 2595 2755 
Q 2406 2714 2268 2637 
Q 2131 2560 2051 2454 
Q 1971 2349 1971 2221 
Q 1971 2093 2051 1987 
Q 2131 1882 2268 1805 
Q 2406 1728 2595 1686 
Q 2784 1645 2995 1645 
Q 3206 1645 3395 1686 
Q 3584 1728 3721 1805 
Q 3859 1882 3942 1987 
Q 4026 2093 4026 2221 
Q 4026 2349 3942 2454 
Q 3859 2560 3721 2637 
Q 3584 2714 3395 2755 
Q 3206 2797 2995 2797 
z
M 4064 4474 
Q 4064 4435 4035 4403 
Q 4006 4371 3962 4371 
L 2035 4371 
Q 2010 4371 1974 4396 
Q 1939 4422 1939 4467 
L 1939 4864 
Q 1939 4915 1974 4940 
Q 2010 4966 2035 4966 
L 3962 4966 
Q 4000 4966 4032 4931 
Q 4064 4896 4064 4858 
L 4064 4474 
z
" transform="scale(0.015625)"/>
      <path id="NanumGothicBold-3a" d="M 1011 3053 
Q 806 3053 662 3197 
Q 518 3341 518 3533 
Q 518 3731 662 3875 
Q 806 4019 1011 4019 
Q 1216 4019 1357 3875 
Q 1498 3731 1498 3533 
Q 1498 3341 1357 3197 
Q 1216 3053 1011 3053 
z
M 1011 141 
Q 806 141 662 285 
Q 518 429 518 627 
Q 518 819 662 963 
Q 806 1107 1011 1107 
Q 1216 1107 1357 963 
Q 1498 819 1498 627 
Q 1498 429 1357 285 
Q 1216 141 1011 141 
z
" transform="scale(0.015625)"/>
      <path id="NanumGothicBold-c774" d="M 5274 -928 
Q 5274 -1011 5190 -1011 
L 4621 -1011 
Q 4538 -1011 4538 -928 
L 4538 4979 
Q 4538 5062 4621 5062 
L 5190 5062 
Q 5274 5062 5274 4979 
L 5274 -928 
z
M 2963 2573 
Q 2963 2867 2905 3132 
Q 2848 3398 2739 3596 
Q 2630 3795 2473 3910 
Q 2317 4026 2112 4026 
Q 1907 4026 1750 3910 
Q 1594 3795 1485 3596 
Q 1376 3398 1318 3132 
Q 1261 2867 1261 2573 
Q 1261 2285 1318 2019 
Q 1376 1754 1485 1552 
Q 1594 1350 1750 1232 
Q 1907 1114 2112 1114 
Q 2317 1114 2473 1232 
Q 2630 1350 2739 1552 
Q 2848 1754 2905 2019 
Q 2963 2285 2963 2573 
z
M 2112 461 
Q 1747 461 1452 614 
Q 1158 768 956 1046 
Q 755 1325 646 1715 
Q 538 2106 538 2573 
Q 538 3053 646 3443 
Q 755 3834 956 4106 
Q 1158 4378 1452 4528 
Q 1747 4678 2112 4678 
Q 2483 4678 2774 4528 
Q 3066 4378 3267 4106 
Q 3469 3834 3577 3443 
Q 3686 3053 3686 2573 
Q 3686 2093 3577 1702 
Q 3469 1312 3267 1037 
Q 3066 762 2774 611 
Q 2483 461 2112 461 
z
" transform="scale(0.015625)"/>
      <path id="NanumGothicBold-c67c" d="M 2234 4819 
Q 2547 4819 2828 4729 
Q 3110 4640 3315 4483 
Q 3520 4326 3641 4105 
Q 3763 3885 3763 3622 
Q 3763 3386 3676 3187 
Q 3590 2989 3436 2832 
Q 3283 2675 3072 2569 
Q 2861 2464 2611 2419 
L 2611 1869 
Q 3014 1882 3398 1910 
Q 3782 1939 4141 1978 
Q 4173 1984 4211 1971 
Q 4250 1958 4256 1907 
L 4294 1498 
Q 4307 1446 4278 1420 
Q 4250 1395 4218 1389 
Q 3763 1331 3264 1299 
Q 2765 1267 2262 1251 
Q 1760 1235 1264 1232 
Q 768 1229 320 1235 
Q 282 1235 256 1267 
Q 230 1299 230 1338 
L 230 1773 
Q 230 1862 320 1862 
Q 704 1850 1097 1846 
Q 1491 1843 1901 1850 
L 1901 2413 
Q 1645 2451 1427 2556 
Q 1210 2662 1053 2819 
Q 896 2976 806 3177 
Q 717 3379 717 3622 
Q 717 3885 835 4105 
Q 954 4326 1162 4483 
Q 1370 4640 1645 4729 
Q 1920 4819 2234 4819 
z
M 5427 -838 
Q 5427 -877 5398 -896 
Q 5370 -915 5338 -915 
L 1882 -915 
Q 1594 -915 1494 -812 
Q 1395 -710 1395 -461 
L 1395 730 
Q 1395 762 1424 790 
Q 1453 819 1485 819 
L 2035 819 
Q 2074 819 2102 790 
Q 2131 762 2131 730 
L 2131 -198 
Q 2131 -262 2156 -281 
Q 2182 -301 2246 -301 
L 5338 -301 
Q 5370 -301 5398 -326 
Q 5427 -352 5427 -384 
L 5427 -838 
z
M 5274 742 
Q 5274 659 5190 659 
L 4621 659 
Q 4538 659 4538 742 
L 4538 4979 
Q 4538 5062 4621 5062 
L 5190 5062 
Q 5274 5062 5274 4979 
L 5274 742 
z
M 2234 4262 
Q 2074 4262 1926 4214 
Q 1779 4166 1664 4080 
Q 1549 3994 1481 3872 
Q 1414 3750 1414 3610 
Q 1414 3456 1481 3334 
Q 1549 3213 1664 3126 
Q 1779 3040 1926 2995 
Q 2074 2950 2234 2950 
Q 2394 2950 2544 2998 
Q 2694 3046 2809 3132 
Q 2925 3219 2995 3340 
Q 3066 3462 3066 3610 
Q 3066 3750 2995 3872 
Q 2925 3994 2809 4080 
Q 2694 4166 2544 4214 
Q 2394 4262 2234 4262 
z
" transform="scale(0.015625)"/>
      <path id="NanumGothicBold-cabd" d="M 4858 4403 
Q 4813 4288 4745 4176 
Q 4678 4064 4589 3942 
Q 4685 3872 4813 3795 
Q 4941 3718 5081 3651 
Q 5222 3584 5363 3526 
Q 5504 3469 5613 3437 
Q 5677 3392 5651 3328 
L 5478 2963 
Q 5446 2899 5325 2931 
Q 5210 2957 5059 3021 
Q 4909 3085 4755 3165 
Q 4602 3245 4454 3341 
Q 4307 3437 4198 3533 
Q 3942 3302 3625 3100 
Q 3309 2899 2963 2752 
Q 2912 2733 2861 2726 
Q 2810 2720 2778 2758 
L 2566 3059 
Q 2509 3155 2605 3206 
Q 2643 3226 2684 3242 
Q 2726 3258 2765 3277 
Q 2618 3360 2470 3459 
Q 2323 3558 2202 3667 
Q 1914 3424 1558 3216 
Q 1203 3008 813 2861 
Q 762 2842 717 2842 
Q 672 2842 640 2886 
L 442 3219 
Q 416 3258 445 3293 
Q 474 3328 512 3341 
Q 730 3430 954 3542 
Q 1178 3654 1370 3779 
Q 1562 3904 1712 4029 
Q 1862 4154 1939 4269 
Q 1971 4320 1964 4342 
Q 1958 4365 1882 4365 
L 966 4365 
Q 928 4365 899 4393 
Q 870 4422 870 4454 
L 870 4826 
Q 870 4864 902 4886 
Q 934 4909 973 4909 
L 2342 4909 
Q 2586 4909 2701 4832 
Q 2816 4755 2816 4627 
Q 2816 4570 2800 4512 
Q 2784 4454 2765 4403 
Q 2714 4250 2592 4083 
Q 2739 3955 2953 3824 
Q 3168 3693 3341 3610 
Q 3584 3776 3766 3952 
Q 3949 4128 4026 4282 
Q 4058 4339 4048 4352 
Q 4038 4365 3987 4365 
L 3117 4365 
Q 3078 4365 3052 4393 
Q 3027 4422 3027 4454 
L 3027 4826 
Q 3027 4864 3056 4886 
Q 3085 4909 3123 4909 
L 4435 4909 
Q 4678 4909 4796 4832 
Q 4915 4755 4915 4627 
Q 4915 4570 4896 4512 
Q 4877 4454 4858 4403 
z
M 5875 1549 
Q 5875 1517 5843 1481 
Q 5811 1446 5779 1446 
L 211 1446 
Q 173 1446 147 1481 
Q 122 1517 122 1549 
L 122 1952 
Q 122 1990 147 2019 
Q 173 2048 211 2048 
L 2630 2048 
L 2630 2522 
Q 2630 2611 2720 2611 
L 3270 2611 
Q 3360 2611 3360 2522 
L 3360 2048 
L 5779 2048 
Q 5811 2048 5843 2016 
Q 5875 1984 5875 1952 
L 5875 1549 
z
M 4992 -928 
Q 4992 -960 4963 -989 
Q 4934 -1018 4902 -1018 
L 4352 -1018 
Q 4314 -1018 4285 -989 
Q 4256 -960 4256 -928 
L 4256 269 
Q 4256 333 4230 352 
Q 4205 371 4134 371 
L 966 371 
Q 934 371 902 393 
Q 870 416 870 448 
L 870 909 
Q 870 947 902 966 
Q 934 986 966 986 
L 4570 986 
Q 4813 986 4902 886 
Q 4992 787 4992 544 
L 4992 -928 
z
" transform="scale(0.015625)"/>
      <path id="NanumGothicBold-c5d0" d="M 2342 2630 
Q 2342 2874 2304 3117 
Q 2266 3360 2182 3558 
Q 2099 3757 1968 3878 
Q 1837 4000 1658 4000 
Q 1491 4000 1369 3875 
Q 1248 3750 1171 3552 
Q 1094 3354 1056 3110 
Q 1018 2867 1018 2630 
Q 1018 2400 1056 2157 
Q 1094 1914 1171 1712 
Q 1248 1510 1369 1382 
Q 1491 1254 1658 1254 
Q 1837 1254 1965 1382 
Q 2093 1510 2176 1708 
Q 2259 1907 2300 2150 
Q 2342 2394 2342 2630 
z
M 4314 -717 
Q 4314 -806 4230 -806 
L 3706 -806 
Q 3616 -806 3616 -717 
L 3616 2291 
L 3034 2291 
Q 3002 1901 2883 1593 
Q 2765 1286 2582 1072 
Q 2400 858 2163 746 
Q 1926 634 1651 634 
Q 1344 634 1094 771 
Q 845 909 669 1168 
Q 493 1427 397 1798 
Q 301 2170 301 2637 
Q 301 3142 403 3520 
Q 506 3898 685 4147 
Q 864 4397 1110 4518 
Q 1357 4640 1651 4640 
Q 1933 4640 2176 4534 
Q 2419 4429 2604 4214 
Q 2790 4000 2905 3673 
Q 3021 3347 3046 2906 
L 3616 2906 
L 3616 4870 
Q 3616 4954 3706 4954 
L 4230 4954 
Q 4314 4954 4314 4870 
L 4314 -717 
z
M 5549 -934 
Q 5549 -1018 5466 -1018 
L 4909 -1018 
Q 4826 -1018 4826 -934 
L 4826 4979 
Q 4826 5062 4915 5062 
L 5466 5062 
Q 5549 5062 5549 4979 
L 5549 -934 
z
" transform="scale(0.015625)"/>
      <path id="NanumGothicBold-c788" d="M 3558 3366 
Q 3558 3046 3446 2777 
Q 3334 2509 3126 2317 
Q 2918 2125 2633 2016 
Q 2349 1907 2003 1907 
Q 1664 1907 1382 2016 
Q 1101 2125 899 2317 
Q 698 2509 589 2777 
Q 480 3046 480 3366 
Q 480 3674 589 3942 
Q 698 4211 899 4409 
Q 1101 4608 1382 4723 
Q 1664 4838 2003 4838 
Q 2349 4838 2633 4723 
Q 2918 4608 3126 4409 
Q 3334 4211 3446 3942 
Q 3558 3674 3558 3366 
z
M 1248 -1005 
Q 1197 -1037 1149 -1046 
Q 1101 -1056 1056 -998 
L 813 -653 
Q 781 -614 784 -576 
Q 787 -538 858 -499 
Q 1421 -192 1677 269 
Q 1933 730 1933 1293 
Q 1933 1389 2016 1389 
L 2522 1382 
Q 2611 1382 2611 1312 
Q 2611 1203 2604 1100 
Q 2598 998 2586 902 
Q 2611 717 2684 547 
Q 2758 378 2851 230 
Q 2944 83 3053 -32 
Q 3162 -147 3270 -218 
Q 3322 -250 3360 -259 
Q 3398 -269 3456 -218 
Q 3802 45 3968 432 
Q 4134 819 4134 1293 
Q 4134 1389 4218 1389 
L 4723 1382 
Q 4762 1382 4790 1366 
Q 4819 1350 4819 1312 
Q 4819 1197 4809 1094 
Q 4800 992 4787 890 
Q 4832 666 4937 461 
Q 5043 256 5187 83 
Q 5331 -90 5500 -224 
Q 5670 -358 5850 -448 
Q 5901 -480 5907 -521 
Q 5914 -563 5888 -595 
L 5632 -960 
Q 5594 -1018 5485 -973 
Q 5357 -922 5216 -826 
Q 5075 -730 4940 -605 
Q 4806 -480 4684 -333 
Q 4563 -186 4480 -32 
Q 4301 -333 4048 -560 
Q 3795 -787 3488 -954 
Q 3366 -1018 3232 -954 
Q 2963 -838 2694 -592 
Q 2426 -346 2272 -38 
Q 2093 -346 1833 -595 
Q 1574 -845 1248 -1005 
z
M 5210 1754 
Q 5210 1670 5126 1670 
L 4557 1670 
Q 4474 1670 4474 1760 
L 4474 4979 
Q 4474 5062 4557 5062 
L 5126 5062 
Q 5210 5062 5210 4979 
L 5210 1754 
z
M 2829 3354 
Q 2829 3738 2605 3958 
Q 2381 4179 2003 4179 
Q 1638 4179 1414 3958 
Q 1190 3738 1190 3354 
Q 1190 2970 1414 2749 
Q 1638 2528 2003 2528 
Q 2381 2528 2605 2749 
Q 2829 2970 2829 3354 
z
" transform="scale(0.015625)"/>
      <path id="NanumGothicBold-b294" d="M 5158 -787 
Q 5158 -826 5126 -845 
Q 5094 -864 5062 -864 
L 1542 -864 
Q 1248 -864 1149 -761 
Q 1050 -659 1050 -410 
L 1050 979 
Q 1050 1011 1078 1040 
Q 1107 1069 1139 1069 
L 1690 1069 
Q 1728 1069 1757 1040 
Q 1786 1011 1786 979 
L 1786 -147 
Q 1786 -211 1811 -230 
Q 1837 -250 1907 -250 
L 5062 -250 
Q 5094 -250 5126 -272 
Q 5158 -294 5158 -326 
L 5158 -787 
z
M 5082 2874 
Q 5082 2829 5053 2809 
Q 5024 2790 4992 2790 
L 1562 2790 
Q 1267 2790 1168 2896 
Q 1069 3002 1069 3251 
L 1069 4858 
Q 1069 4890 1097 4918 
Q 1126 4947 1158 4947 
L 1715 4947 
Q 1754 4947 1782 4918 
Q 1811 4890 1811 4858 
L 1811 3507 
Q 1811 3443 1836 3424 
Q 1862 3405 1933 3405 
L 4992 3405 
Q 5024 3405 5053 3382 
Q 5082 3360 5082 3328 
L 5082 2874 
z
M 5875 1619 
Q 5875 1587 5843 1552 
Q 5811 1517 5779 1517 
L 211 1517 
Q 173 1517 147 1549 
Q 122 1581 122 1619 
L 122 2042 
Q 122 2131 211 2131 
L 5779 2131 
Q 5811 2131 5843 2102 
Q 5875 2074 5875 2042 
L 5875 1619 
z
" transform="scale(0.015625)"/>
      <path id="NanumGothicBold-c9c0" d="M 717 531 
Q 666 499 608 505 
Q 550 512 518 563 
L 269 896 
Q 224 954 253 1005 
Q 282 1056 326 1082 
Q 730 1331 1094 1657 
Q 1459 1984 1750 2342 
Q 2042 2701 2246 3075 
Q 2451 3450 2541 3795 
Q 2566 3904 2547 3936 
Q 2528 3968 2419 3968 
L 768 3968 
Q 730 3968 707 3997 
Q 685 4026 685 4064 
L 685 4493 
Q 685 4582 774 4582 
L 2861 4582 
Q 3110 4582 3251 4486 
Q 3392 4390 3392 4237 
Q 3392 4154 3379 4067 
Q 3366 3981 3347 3910 
Q 3258 3571 3107 3228 
Q 2957 2886 2739 2541 
Q 2861 2374 3021 2192 
Q 3181 2010 3353 1837 
Q 3526 1664 3692 1513 
Q 3859 1363 3994 1267 
Q 4038 1235 4054 1184 
Q 4070 1133 4032 1082 
L 3757 768 
Q 3674 678 3546 755 
Q 3430 832 3273 969 
Q 3117 1107 2950 1273 
Q 2784 1440 2624 1625 
Q 2464 1811 2336 1978 
Q 2010 1574 1606 1206 
Q 1203 838 717 531 
z
M 5280 -928 
Q 5280 -1011 5190 -1011 
L 4627 -1011 
Q 4595 -1011 4566 -988 
Q 4538 -966 4538 -928 
L 4538 4979 
Q 4538 5011 4566 5036 
Q 4595 5062 4627 5062 
L 5190 5062 
Q 5280 5062 5280 4979 
L 5280 -928 
z
" transform="scale(0.015625)"/>
      <path id="NanumGothicBold-c624" d="M 5882 122 
Q 5882 90 5850 58 
Q 5818 26 5786 26 
L 211 26 
Q 173 26 147 58 
Q 122 90 122 122 
L 122 538 
Q 122 640 211 640 
L 2630 640 
L 2630 1824 
Q 2253 1862 1936 1980 
Q 1619 2099 1388 2284 
Q 1158 2470 1030 2716 
Q 902 2963 902 3264 
Q 902 3597 1062 3865 
Q 1222 4134 1504 4326 
Q 1786 4518 2170 4620 
Q 2554 4723 3002 4723 
Q 3450 4723 3834 4620 
Q 4218 4518 4499 4326 
Q 4781 4134 4937 3865 
Q 5094 3597 5094 3264 
Q 5094 2963 4966 2716 
Q 4838 2470 4608 2284 
Q 4378 2099 4061 1980 
Q 3744 1862 3366 1824 
L 3366 640 
L 5786 640 
Q 5818 640 5850 608 
Q 5882 576 5882 538 
L 5882 122 
z
M 3002 4115 
Q 2733 4115 2489 4054 
Q 2246 3994 2064 3882 
Q 1882 3770 1773 3613 
Q 1664 3456 1664 3264 
Q 1664 3072 1773 2912 
Q 1882 2752 2064 2640 
Q 2246 2528 2489 2467 
Q 2733 2406 3002 2406 
Q 3270 2406 3513 2467 
Q 3757 2528 3939 2640 
Q 4122 2752 4227 2912 
Q 4333 3072 4333 3264 
Q 4333 3456 4227 3613 
Q 4122 3770 3939 3882 
Q 3757 3994 3513 4054 
Q 3270 4115 3002 4115 
z
" transform="scale(0.015625)"/>
      <path id="NanumGothicBold-b978" d="M 5139 -787 
Q 5139 -826 5107 -845 
Q 5075 -864 5043 -864 
L 1536 -864 
Q 1242 -864 1142 -761 
Q 1043 -659 1043 -410 
L 1043 755 
Q 1043 787 1072 816 
Q 1101 845 1133 845 
L 1683 845 
Q 1722 845 1750 816 
Q 1779 787 1779 755 
L 1779 -147 
Q 1779 -211 1804 -230 
Q 1830 -250 1901 -250 
L 5043 -250 
Q 5075 -250 5107 -272 
Q 5139 -294 5139 -326 
L 5139 -787 
z
M 5875 1344 
Q 5875 1312 5843 1277 
Q 5811 1242 5779 1242 
L 211 1242 
Q 173 1242 147 1274 
Q 122 1306 122 1344 
L 122 1754 
Q 122 1843 211 1843 
L 5779 1843 
Q 5811 1843 5843 1814 
Q 5875 1786 5875 1754 
L 5875 1344 
z
M 5088 2438 
Q 5088 2406 5059 2377 
Q 5030 2349 5005 2349 
L 1485 2349 
Q 1235 2349 1145 2438 
Q 1056 2528 1056 2733 
L 1056 3584 
Q 1056 3789 1142 3878 
Q 1229 3968 1478 3968 
L 4160 3968 
Q 4211 3968 4224 3984 
Q 4237 4000 4237 4058 
L 4237 4371 
Q 4237 4422 4224 4432 
Q 4211 4442 4154 4442 
L 1178 4442 
Q 1146 4442 1117 4464 
Q 1088 4486 1088 4518 
L 1088 4941 
Q 1088 4973 1117 4998 
Q 1146 5024 1178 5024 
L 4518 5024 
Q 4781 5024 4867 4944 
Q 4954 4864 4954 4646 
L 4954 3802 
Q 4954 3578 4867 3501 
Q 4781 3424 4518 3424 
L 1862 3424 
Q 1805 3424 1792 3408 
Q 1779 3392 1779 3341 
L 1779 3008 
Q 1779 2950 1792 2940 
Q 1805 2931 1869 2931 
L 4998 2931 
Q 5030 2931 5059 2905 
Q 5088 2880 5088 2842 
L 5088 2438 
z
" transform="scale(0.015625)"/>
     </defs>
     <use xlink:href="#NanumGothicBold-c678"/>
     <use xlink:href="#NanumGothicBold-c801" transform="translate(93.999985 0)"/>
     <use xlink:href="#NanumGothicBold-c758" transform="translate(187.999969 0)"/>
     <use xlink:href="#NanumGothicBold-20" transform="translate(281.999954 0)"/>
     <use xlink:href="#NanumGothicBold-bd80" transform="translate(309.999939 0)"/>
     <use xlink:href="#NanumGothicBold-d638" transform="translate(403.999924 0)"/>
     <use xlink:href="#NanumGothicBold-3a" transform="translate(497.999908 0)"/>
     <use xlink:href="#NanumGothicBold-20" transform="translate(528.299896 0)"/>
     <use xlink:href="#NanumGothicBold-c801" transform="translate(556.299881 0)"/>
     <use xlink:href="#NanumGothicBold-c774" transform="translate(650.299866 0)"/>
     <use xlink:href="#NanumGothicBold-20" transform="translate(744.29985 0)"/>
     <use xlink:href="#NanumGothicBold-c67c" transform="translate(772.299835 0)"/>
     <use xlink:href="#NanumGothicBold-cabd" transform="translate(866.29982 0)"/>
     <use xlink:href="#NanumGothicBold-c5d0" transform="translate(960.299805 0)"/>
     <use xlink:href="#NanumGothicBold-20" transform="translate(1054.299789 0)"/>
     <use xlink:href="#NanumGothicBold-c788" transform="translate(1082.299774 0)"/>
     <use xlink:href="#NanumGothicBold-b294" transform="translate(1176.299759 0)"/>
     <use xlink:href="#NanumGothicBold-c9c0" transform="translate(1270.299744 0)"/>
     <use xlink:href="#NanumGothicBold-20" transform="translate(1364.299728 0)"/>
     <use xlink:href="#NanumGothicBold-c624" transform="translate(1392.299713 0)"/>
     <use xlink:href="#NanumGothicBold-b978" transform="translate(1486.299698 0)"/>
     <use xlink:href="#NanumGothicBold-cabd" transform="translate(1580.299683 0)"/>
     <use xlink:href="#NanumGothicBold-c5d0" transform="translate(1674.299667 0)"/>
     <use xlink:href="#NanumGothicBold-20" transform="translate(1768.299652 0)"/>
     <use xlink:href="#NanumGothicBold-c788" transform="translate(1796.299637 0)"/>
     <use xlink:href="#NanumGothicBold-b294" transform="translate(1890.299622 0)"/>
     <use xlink:href="#NanumGothicBold-c9c0" transform="translate(1984.299606 0)"/>
    </g>
   </g>
   <g id="patch_2">
    <path d="M 88.66329 161.581865 
Q 145.186143 161.581865 198.578501 161.581865 
" clip-path="url(#pf22f891a3a)" style="fill: none; stroke: #10b981; stroke-width: 2.8; stroke-linecap: round"/>
    <path d="M 192.978501 158.781865 
L 198.578501 161.581865 
L 192.978501 164.381865 
z
" clip-path="url(#pf22f891a3a)" style="fill: #10b981; stroke: #10b981; stroke-width: 2.8; stroke-linecap: round"/>
   </g>
   <g id="patch_3">
    <path d="M 88.455651 160.687372 
Q 172.494954 118.667721 253.734257 78.048069 
" clip-path="url(#pf22f891a3a)" style="fill: none; stroke: #f59e0b; stroke-width: 2.8; stroke-linecap: round"/>
    <path d="M 247.473267 78.048069 
L 253.734257 78.048069 
L 249.977663 83.056861 
z
" clip-path="url(#pf22f891a3a)" style="fill: #f59e0b; stroke: #f59e0b; stroke-width: 2.8; stroke-linecap: round"/>
   </g>
   <g id="text_2">
    <!-- player -->
    <g style="fill: #2563eb" transform="translate(78.864 182.190365) scale(0.11 -0.11)">
     <defs>
      <path id="NanumGothic-70" d="M 2989 1504 
Q 2989 1766 2937 2012 
Q 2886 2259 2764 2451 
Q 2643 2643 2451 2761 
Q 2259 2880 1971 2880 
Q 1709 2880 1517 2771 
Q 1325 2662 1200 2473 
Q 1075 2285 1011 2035 
Q 947 1786 947 1504 
Q 947 762 1225 381 
Q 1504 0 1971 0 
Q 2214 0 2403 105 
Q 2592 211 2723 409 
Q 2854 608 2921 883 
Q 2989 1158 2989 1504 
z
M 518 3098 
Q 518 3187 608 3187 
L 851 3187 
Q 941 3187 941 3098 
L 909 2618 
Q 1037 2899 1341 3072 
Q 1645 3245 2048 3245 
Q 2426 3245 2691 3110 
Q 2957 2976 3126 2742 
Q 3296 2509 3376 2189 
Q 3456 1869 3456 1504 
Q 3456 1107 3363 768 
Q 3270 429 3094 179 
Q 2918 -70 2656 -214 
Q 2394 -358 2048 -358 
Q 1658 -358 1376 -208 
Q 1094 -58 947 211 
L 947 -1165 
Q 947 -1254 858 -1254 
L 614 -1254 
Q 576 -1254 547 -1228 
Q 518 -1203 518 -1165 
L 518 3098 
z
" transform="scale(0.015625)"/>
      <path id="NanumGothic-6c" d="M 1056 -186 
Q 1056 -275 966 -275 
L 685 -275 
Q 595 -275 595 -186 
L 595 4723 
Q 595 4813 685 4813 
L 966 4813 
Q 1056 4813 1056 4723 
L 1056 -186 
z
" transform="scale(0.015625)"/>
      <path id="NanumGothic-61" d="M 2566 1530 
L 2445 1530 
Q 2086 1542 1808 1500 
Q 1530 1459 1344 1389 
Q 1075 1293 940 1104 
Q 806 915 806 653 
Q 806 493 857 355 
Q 909 218 1018 141 
Q 1210 -13 1530 -13 
Q 1754 -13 1942 76 
Q 2131 166 2272 332 
Q 2413 499 2489 745 
Q 2566 992 2566 1312 
L 2566 1530 
z
M 742 2650 
Q 710 2630 681 2640 
Q 653 2650 653 2682 
L 653 2925 
Q 653 3014 742 3059 
Q 966 3181 1219 3229 
Q 1472 3277 1773 3277 
Q 2413 3277 2707 2973 
Q 3002 2669 3002 2054 
L 3002 448 
Q 3002 256 3008 105 
Q 3014 -45 3027 -186 
Q 3027 -275 2938 -275 
L 2707 -275 
Q 2618 -275 2618 -186 
L 2618 307 
Q 2483 -19 2166 -198 
Q 1850 -378 1478 -378 
Q 832 -378 531 0 
Q 429 128 377 297 
Q 326 467 326 634 
Q 326 1024 508 1305 
Q 691 1587 1069 1728 
Q 1530 1894 2483 1894 
L 2566 1894 
L 2566 2086 
Q 2566 2490 2384 2701 
Q 2202 2912 1773 2912 
Q 1485 2912 1229 2851 
Q 973 2790 742 2650 
z
" transform="scale(0.015625)"/>
      <path id="NanumGothic-79" d="M 301 -1222 
Q 224 -1203 237 -1126 
L 256 -909 
Q 256 -832 333 -864 
Q 435 -902 570 -902 
Q 704 -902 816 -860 
Q 928 -819 986 -749 
Q 1056 -659 1142 -454 
Q 1229 -250 1312 13 
Q 1024 794 742 1555 
Q 461 2317 173 3098 
Q 160 3130 173 3158 
Q 186 3187 224 3187 
L 525 3187 
Q 614 3187 653 3098 
L 1517 614 
Q 1754 1267 1968 1859 
Q 2182 2451 2419 3098 
Q 2451 3187 2547 3187 
L 2822 3187 
Q 2861 3187 2873 3158 
Q 2886 3130 2874 3098 
L 1542 -474 
Q 1472 -659 1385 -806 
Q 1299 -954 1210 -1043 
Q 1094 -1152 953 -1206 
Q 813 -1261 659 -1261 
Q 563 -1261 486 -1254 
Q 410 -1248 301 -1222 
z
" transform="scale(0.015625)"/>
      <path id="NanumGothic-65" d="M 2733 1696 
Q 2733 1958 2681 2163 
Q 2630 2368 2522 2534 
Q 2285 2912 1837 2912 
Q 1376 2912 1088 2528 
Q 973 2355 896 2131 
Q 819 1907 813 1696 
L 2733 1696 
z
M 813 1331 
Q 806 1011 886 764 
Q 966 518 1120 352 
Q 1274 186 1488 96 
Q 1702 6 1965 6 
Q 2221 6 2445 54 
Q 2669 102 2861 211 
Q 2944 250 2944 166 
L 2944 -122 
Q 2944 -179 2874 -211 
Q 2662 -294 2432 -336 
Q 2202 -378 1933 -378 
Q 1146 -378 742 80 
Q 339 538 339 1459 
Q 339 2272 742 2771 
Q 1165 3277 1811 3277 
Q 2170 3277 2432 3149 
Q 2694 3021 2880 2765 
Q 3206 2310 3206 1549 
Q 3206 1466 3203 1421 
Q 3200 1376 3181 1357 
Q 3162 1338 3114 1334 
Q 3066 1331 2976 1331 
L 813 1331 
z
" transform="scale(0.015625)"/>
      <path id="NanumGothic-72" d="M 2221 2797 
Q 2106 2835 1914 2835 
Q 1440 2835 1210 2368 
Q 1030 2003 1030 1434 
L 1030 -186 
Q 1030 -275 941 -275 
L 691 -275 
Q 602 -275 602 -186 
L 602 2413 
Q 602 2643 598 2787 
Q 595 2931 589 3098 
Q 589 3187 678 3187 
L 915 3187 
Q 1005 3187 1005 3098 
L 1005 2470 
Q 1318 3277 1926 3277 
Q 2074 3277 2221 3238 
Q 2259 3226 2288 3197 
Q 2317 3168 2317 3117 
L 2317 2848 
Q 2317 2810 2285 2797 
Q 2253 2784 2221 2797 
z
" transform="scale(0.015625)"/>
     </defs>
     <use xlink:href="#NanumGothic-70"/>
     <use xlink:href="#NanumGothic-6c" transform="translate(60.599991 0)"/>
     <use xlink:href="#NanumGothic-61" transform="translate(84.799988 0)"/>
     <use xlink:href="#NanumGothic-79" transform="translate(139.299973 0)"/>
     <use xlink:href="#NanumGothic-65" transform="translate(185.699966 0)"/>
     <use xlink:href="#NanumGothic-72" transform="translate(240.199951 0)"/>
    </g>
   </g>
   <g id="text_3">
    <!-- forward -->
    <g style="fill: #10b981" transform="translate(141.285333 150.985714) scale(0.11 -0.11)">
     <defs>
      <path id="NanumGothic-66" d="M 2144 4870 
Q 2227 4845 2221 4736 
L 2208 4550 
Q 2202 4512 2176 4502 
Q 2150 4493 2118 4506 
Q 2048 4531 1990 4540 
Q 1933 4550 1856 4550 
Q 1478 4550 1370 4173 
Q 1325 4019 1325 3494 
L 1325 3187 
L 2029 3187 
Q 2118 3187 2118 3098 
L 2118 2906 
Q 2118 2816 2029 2816 
L 1325 2816 
L 1325 -186 
Q 1325 -275 1235 -275 
L 986 -275 
Q 896 -275 896 -186 
L 896 2816 
L 275 2816 
Q 186 2816 186 2906 
L 186 3098 
Q 186 3187 275 3187 
L 896 3187 
L 896 3450 
Q 896 4147 1024 4454 
Q 1222 4915 1818 4915 
Q 2003 4915 2144 4870 
z
" transform="scale(0.015625)"/>
      <path id="NanumGothic-6f" d="M 3130 1453 
Q 3130 1754 3050 2016 
Q 2970 2278 2829 2483 
Q 2496 2893 1965 2893 
Q 1696 2893 1481 2787 
Q 1267 2682 1101 2483 
Q 954 2278 874 2016 
Q 794 1754 794 1453 
Q 794 1146 874 883 
Q 954 621 1101 422 
Q 1440 6 1965 6 
Q 2234 6 2448 115 
Q 2662 224 2829 422 
Q 2970 621 3050 883 
Q 3130 1146 3130 1453 
z
M 3603 1453 
Q 3603 1075 3494 752 
Q 3386 429 3206 186 
Q 2982 -83 2672 -230 
Q 2362 -378 1965 -378 
Q 1568 -378 1254 -230 
Q 941 -83 717 186 
Q 538 429 432 752 
Q 326 1075 326 1453 
Q 326 2227 717 2720 
Q 1165 3277 1965 3277 
Q 2368 3277 2675 3139 
Q 2982 3002 3206 2720 
Q 3603 2214 3603 1453 
z
" transform="scale(0.015625)"/>
      <path id="NanumGothic-77" d="M 4218 -205 
Q 4198 -275 4115 -275 
L 3738 -275 
Q 3661 -275 3635 -205 
L 2726 2739 
Q 2490 1997 2253 1267 
Q 2016 538 1779 -198 
Q 1760 -275 1664 -275 
L 1312 -275 
Q 1267 -275 1238 -262 
Q 1210 -250 1197 -198 
L 128 3098 
Q 115 3130 134 3158 
Q 154 3187 192 3187 
L 486 3187 
Q 563 3187 602 3098 
L 1510 179 
Q 1747 915 1974 1622 
Q 2202 2330 2438 3066 
Q 2470 3187 2586 3187 
L 2886 3187 
Q 3008 3187 3040 3066 
L 3930 179 
Q 4173 934 4400 1638 
Q 4627 2342 4870 3098 
Q 4883 3136 4915 3161 
Q 4947 3187 4986 3187 
L 5242 3187 
Q 5280 3187 5299 3158 
Q 5318 3130 5306 3098 
L 4218 -205 
z
" transform="scale(0.015625)"/>
      <path id="NanumGothic-64" d="M 877 1459 
Q 877 1158 925 912 
Q 973 666 1075 480 
Q 1216 250 1417 128 
Q 1619 6 1901 6 
Q 2157 6 2352 140 
Q 2547 275 2678 483 
Q 2810 691 2874 950 
Q 2938 1210 2938 1459 
Q 2938 1766 2870 2028 
Q 2803 2291 2672 2483 
Q 2541 2675 2349 2784 
Q 2157 2893 1901 2893 
Q 1357 2893 1075 2426 
Q 973 2240 925 1993 
Q 877 1747 877 1459 
z
M 3366 -186 
Q 3366 -275 3277 -275 
L 3027 -275 
Q 2938 -275 2938 -186 
L 2938 294 
Q 2592 -358 1824 -358 
Q 1139 -358 755 166 
Q 403 653 403 1459 
Q 403 3258 1824 3258 
Q 2208 3258 2505 3104 
Q 2803 2950 2938 2707 
L 2938 4723 
Q 2938 4813 3027 4813 
L 3277 4813 
Q 3366 4813 3366 4723 
L 3366 -186 
z
" transform="scale(0.015625)"/>
     </defs>
     <use xlink:href="#NanumGothic-66"/>
     <use xlink:href="#NanumGothic-6f" transform="translate(36.299988 0)"/>
     <use xlink:href="#NanumGothic-72" transform="translate(96.899979 0)"/>
     <use xlink:href="#NanumGothic-77" transform="translate(133.199966 0)"/>
     <use xlink:href="#NanumGothic-61" transform="translate(217.999954 0)"/>
     <use xlink:href="#NanumGothic-72" transform="translate(272.499939 0)"/>
     <use xlink:href="#NanumGothic-64" transform="translate(308.799927 0)"/>
    </g>
   </g>
   <g id="text_4">
    <!-- toEnemy -->
    <g style="fill: #f59e0b" transform="translate(182.249333 111.960349) scale(0.11 -0.11)">
     <defs>
      <path id="NanumGothic-74" d="M 2208 -282 
Q 1939 -378 1677 -378 
Q 1158 -378 992 -38 
Q 883 192 883 774 
L 883 2816 
L 282 2816 
Q 192 2816 192 2906 
L 192 3098 
Q 192 3187 282 3187 
L 883 3187 
L 883 4051 
Q 883 4147 966 4147 
L 1235 4147 
Q 1318 4147 1318 4051 
L 1318 3187 
L 2029 3187 
Q 2118 3187 2118 3098 
L 2118 2906 
Q 2118 2816 2029 2816 
L 1318 2816 
L 1318 557 
Q 1318 -13 1779 -13 
Q 1958 -13 2182 64 
Q 2214 77 2243 64 
Q 2272 51 2272 13 
L 2285 -154 
Q 2298 -243 2208 -282 
z
" transform="scale(0.015625)"/>
      <path id="NanumGothic-45" d="M 826 -282 
Q 691 -282 668 -259 
Q 646 -237 646 -102 
L 646 4307 
Q 646 4429 668 4451 
Q 691 4474 813 4474 
L 3034 4474 
Q 3123 4474 3123 4384 
L 3123 4160 
Q 3123 4070 3034 4070 
L 1114 4070 
L 1114 2381 
L 2938 2381 
Q 3027 2381 3027 2291 
L 3027 2061 
Q 3027 1971 2938 1971 
L 1114 1971 
L 1114 128 
L 3110 128 
Q 3200 128 3200 38 
L 3200 -192 
Q 3200 -282 3110 -282 
L 826 -282 
z
" transform="scale(0.015625)"/>
      <path id="NanumGothic-6e" d="M 3334 -186 
Q 3334 -275 3245 -275 
L 2989 -275 
Q 2899 -275 2899 -186 
L 2899 1830 
Q 2899 2419 2688 2665 
Q 2477 2912 2093 2912 
Q 1574 2912 1302 2624 
Q 1030 2336 1030 1818 
L 1030 -186 
Q 1030 -275 941 -275 
L 685 -275 
Q 595 -275 595 -186 
L 595 2374 
Q 595 2650 592 2803 
Q 589 2957 576 3098 
Q 570 3142 598 3164 
Q 627 3187 666 3187 
L 896 3187 
Q 986 3187 986 3098 
L 986 2746 
Q 1165 3021 1417 3149 
Q 1670 3277 2112 3277 
Q 2720 3277 3027 2925 
Q 3334 2573 3334 1933 
L 3334 -186 
z
" transform="scale(0.015625)"/>
      <path id="NanumGothic-6d" d="M 602 2374 
Q 602 2643 595 2800 
Q 589 2957 576 3098 
Q 576 3187 666 3187 
L 902 3187 
Q 992 3187 992 3098 
L 992 2752 
Q 1139 2989 1388 3126 
Q 1638 3264 2003 3264 
Q 2387 3264 2675 3075 
Q 2963 2886 3027 2522 
Q 3162 2886 3459 3075 
Q 3757 3264 4147 3264 
Q 4397 3264 4598 3174 
Q 4800 3085 4944 2928 
Q 5088 2771 5165 2560 
Q 5242 2349 5242 2112 
L 5242 -186 
Q 5242 -275 5152 -275 
L 4909 -275 
Q 4819 -275 4819 -192 
L 4819 2022 
Q 4819 2899 4083 2899 
Q 3859 2899 3683 2800 
Q 3507 2701 3382 2528 
Q 3258 2355 3197 2124 
Q 3136 1894 3142 1638 
L 3142 -186 
Q 3142 -275 3053 -275 
L 2797 -275 
Q 2707 -275 2707 -186 
L 2707 2022 
Q 2707 2899 1965 2899 
Q 1530 2899 1280 2617 
Q 1030 2336 1030 1875 
L 1030 -186 
Q 1030 -275 941 -275 
L 691 -275 
Q 602 -275 602 -186 
L 602 2374 
z
" transform="scale(0.015625)"/>
     </defs>
     <use xlink:href="#NanumGothic-74"/>
     <use xlink:href="#NanumGothic-6f" transform="translate(36.299988 0)"/>
     <use xlink:href="#NanumGothic-45" transform="translate(96.899979 0)"/>
     <use xlink:href="#NanumGothic-6e" transform="translate(154.499969 0)"/>
     <use xlink:href="#NanumGothic-65" transform="translate(215.09996 0)"/>
     <use xlink:href="#NanumGothic-6d" transform="translate(269.599945 0)"/>
     <use xlink:href="#NanumGothic-79" transform="translate(360.399933 0)"/>
    </g>
   </g>
   <g id="text_5">
    <!-- cross2D(forward, toEnemy) &gt; 0 이면 -->
    <g style="fill: #111827" transform="translate(47.653333 221.213479) scale(0.105 -0.105)">
     <defs>
      <path id="NanumGothic-63" d="M 2816 -301 
Q 2624 -333 2445 -345 
Q 2266 -358 2016 -358 
Q 1619 -358 1308 -217 
Q 998 -77 784 166 
Q 570 410 454 742 
Q 339 1075 339 1459 
Q 339 1850 460 2179 
Q 582 2509 809 2749 
Q 1037 2989 1353 3126 
Q 1670 3264 2067 3264 
Q 2278 3264 2451 3248 
Q 2624 3232 2822 3187 
Q 2912 3162 2906 3066 
L 2886 2861 
Q 2874 2784 2790 2803 
Q 2624 2854 2470 2876 
Q 2317 2899 2131 2899 
Q 1805 2899 1558 2793 
Q 1312 2688 1145 2496 
Q 979 2304 896 2038 
Q 813 1773 813 1459 
Q 813 1171 899 908 
Q 986 646 1149 444 
Q 1312 243 1545 124 
Q 1779 6 2080 6 
Q 2304 6 2451 25 
Q 2598 45 2784 96 
Q 2880 122 2886 51 
L 2906 -186 
Q 2912 -282 2816 -301 
z
" transform="scale(0.015625)"/>
      <path id="NanumGothic-73" d="M 422 147 
Q 813 -13 1229 -13 
Q 1574 -13 1798 156 
Q 2022 326 2022 614 
Q 2022 781 1897 937 
Q 1773 1094 1594 1197 
Q 1395 1306 1187 1405 
Q 979 1504 787 1613 
Q 557 1741 448 1929 
Q 339 2118 339 2323 
Q 339 2560 428 2739 
Q 518 2918 672 3040 
Q 826 3162 1030 3219 
Q 1235 3277 1466 3277 
Q 1709 3277 1888 3251 
Q 2067 3226 2246 3174 
Q 2285 3162 2313 3136 
Q 2342 3110 2336 3066 
L 2317 2874 
Q 2310 2822 2278 2809 
Q 2246 2797 2214 2810 
Q 2054 2867 1894 2889 
Q 1734 2912 1510 2912 
Q 768 2912 768 2323 
Q 768 2195 867 2080 
Q 966 1965 1203 1850 
Q 1408 1747 1606 1654 
Q 1805 1562 2035 1434 
Q 2234 1325 2365 1101 
Q 2496 877 2496 614 
Q 2496 358 2393 172 
Q 2291 -13 2118 -134 
Q 1946 -256 1722 -317 
Q 1498 -378 1261 -378 
Q 1120 -378 1008 -371 
Q 896 -365 797 -352 
Q 698 -339 595 -320 
Q 493 -301 378 -269 
Q 288 -237 294 -154 
L 320 83 
Q 333 186 422 147 
z
" transform="scale(0.015625)"/>
      <path id="NanumGothic-32" d="M 576 -301 
Q 506 -301 470 -297 
Q 435 -294 419 -278 
Q 403 -262 400 -227 
Q 397 -192 397 -122 
L 403 19 
Q 403 102 454 154 
L 1510 1318 
Q 2688 2592 2688 3251 
Q 2688 3635 2432 3891 
Q 2182 4141 1811 4141 
Q 1293 4141 730 3853 
Q 640 3808 627 3891 
L 589 4102 
Q 570 4211 653 4237 
Q 979 4384 1241 4454 
Q 1504 4525 1779 4525 
Q 2394 4525 2758 4218 
Q 3168 3885 3168 3270 
Q 3168 3034 3053 2752 
Q 2938 2470 2733 2163 
Q 2605 1984 2371 1696 
Q 2138 1408 1837 1082 
Q 1613 838 1392 588 
Q 1171 339 947 96 
L 3187 96 
Q 3277 96 3277 6 
L 3277 -211 
Q 3277 -301 3187 -301 
L 576 -301 
z
" transform="scale(0.015625)"/>
      <path id="NanumGothic-44" d="M 3706 2131 
Q 3706 3149 3142 3635 
Q 2643 4064 1773 4064 
L 1082 4064 
L 1082 128 
L 1472 128 
Q 3706 128 3706 2131 
z
M 4173 2106 
Q 4173 1510 3968 1043 
Q 3763 576 3398 269 
Q 3053 6 2560 -134 
Q 2067 -275 1446 -275 
L 787 -275 
Q 653 -275 630 -252 
Q 608 -230 608 -96 
L 608 4282 
Q 608 4416 630 4438 
Q 653 4461 787 4461 
L 1792 4461 
Q 3008 4461 3622 3802 
Q 4173 3194 4173 2106 
z
" transform="scale(0.015625)"/>
      <path id="NanumGothic-28" d="M 1984 -1133 
Q 1939 -1133 1929 -1129 
Q 1920 -1126 1894 -1094 
Q 1312 -365 1030 384 
Q 749 1133 749 1933 
Q 749 2726 1030 3475 
Q 1312 4224 1894 4960 
Q 1920 4992 1929 4995 
Q 1939 4998 1971 4998 
L 2150 4998 
Q 2189 4998 2189 4992 
Q 2189 4986 2170 4954 
Q 1165 3379 1165 1933 
Q 1165 1197 1421 448 
Q 1677 -301 2176 -1088 
Q 2208 -1133 2144 -1133 
L 1984 -1133 
z
" transform="scale(0.015625)"/>
      <path id="NanumGothic-2c" d="M 1299 115 
Q 1382 115 1382 86 
Q 1382 58 1370 19 
L 947 -1126 
Q 922 -1178 899 -1194 
Q 877 -1210 832 -1210 
L 563 -1210 
Q 480 -1210 499 -1120 
L 800 6 
Q 813 45 838 80 
Q 864 115 934 115 
L 1299 115 
z
" transform="scale(0.015625)"/>
      <path id="NanumGothic-20" transform="scale(0.015625)"/>
      <path id="NanumGothic-29" d="M 301 -1133 
Q 243 -1133 275 -1088 
Q 774 -301 1027 448 
Q 1280 1197 1280 1933 
Q 1280 2662 1030 3414 
Q 781 4166 282 4954 
Q 262 4986 262 4992 
Q 262 4998 294 4998 
L 474 4998 
Q 506 4998 515 4995 
Q 525 4992 557 4960 
Q 1139 4224 1417 3475 
Q 1696 2726 1696 1933 
Q 1696 1133 1417 384 
Q 1139 -365 557 -1094 
Q 525 -1126 515 -1129 
Q 506 -1133 461 -1133 
L 301 -1133 
z
" transform="scale(0.015625)"/>
      <path id="NanumGothic-3e" d="M 352 -576 
Q 352 -518 352 -486 
Q 352 -454 361 -428 
Q 371 -403 393 -377 
Q 416 -352 454 -314 
Q 704 -64 976 211 
Q 1248 486 1523 764 
Q 1798 1043 2070 1318 
Q 2342 1594 2592 1843 
Q 2650 1907 2650 1929 
Q 2650 1952 2579 2022 
L 467 4160 
Q 422 4205 400 4230 
Q 378 4256 368 4281 
Q 358 4307 355 4345 
Q 352 4384 352 4448 
L 352 4698 
Q 352 4845 368 4851 
Q 384 4858 480 4755 
L 2944 2259 
Q 2982 2221 3004 2195 
Q 3027 2170 3036 2147 
Q 3046 2125 3049 2093 
Q 3053 2061 3053 2010 
L 3053 1843 
Q 3053 1792 3049 1760 
Q 3046 1728 3036 1705 
Q 3027 1683 3004 1657 
Q 2982 1632 2944 1594 
L 461 -902 
Q 378 -986 365 -979 
Q 352 -973 352 -851 
L 352 -576 
z
" transform="scale(0.015625)"/>
      <path id="NanumGothic-30" d="M 3066 2093 
Q 3066 4102 1965 4102 
Q 864 4102 864 2093 
Q 864 77 1965 77 
Q 3066 77 3066 2093 
z
M 3526 2093 
Q 3526 -326 1965 -326 
Q 390 -326 390 2093 
Q 390 3098 698 3725 
Q 1088 4512 1965 4512 
Q 2829 4512 3226 3725 
Q 3373 3411 3449 3008 
Q 3526 2605 3526 2093 
z
" transform="scale(0.015625)"/>
      <path id="NanumGothic-c774" d="M 3654 2566 
Q 3654 2208 3568 1843 
Q 3482 1478 3296 1184 
Q 3110 890 2819 701 
Q 2528 512 2118 512 
Q 1696 512 1405 697 
Q 1114 883 938 1180 
Q 762 1478 685 1843 
Q 608 2208 608 2566 
Q 608 2944 685 3312 
Q 762 3680 938 3974 
Q 1114 4269 1405 4448 
Q 1696 4627 2118 4627 
Q 2528 4627 2819 4448 
Q 3110 4269 3296 3977 
Q 3482 3686 3568 3318 
Q 3654 2950 3654 2566 
z
M 3200 2573 
Q 3200 2867 3139 3168 
Q 3078 3469 2950 3709 
Q 2822 3949 2617 4099 
Q 2413 4250 2118 4250 
Q 1811 4250 1609 4099 
Q 1408 3949 1286 3709 
Q 1165 3469 1113 3168 
Q 1062 2867 1062 2573 
Q 1062 2291 1110 1993 
Q 1158 1696 1280 1449 
Q 1402 1203 1606 1046 
Q 1811 890 2118 890 
Q 2413 890 2617 1046 
Q 2822 1203 2950 1449 
Q 3078 1696 3139 1993 
Q 3200 2291 3200 2573 
z
M 5152 -806 
Q 5152 -896 5062 -896 
L 4800 -896 
Q 4710 -896 4710 -806 
L 4710 4915 
Q 4710 5005 4800 5005 
L 5062 5005 
Q 5152 5005 5152 4915 
L 5152 -806 
z
" transform="scale(0.015625)"/>
      <path id="NanumGothic-ba74" d="M 5152 877 
Q 5152 787 5062 787 
L 4800 787 
Q 4710 787 4710 877 
L 4710 2381 
L 3443 2381 
L 3443 2227 
Q 3443 1958 3340 1865 
Q 3238 1773 2957 1773 
L 1197 1773 
Q 1043 1773 950 1792 
Q 858 1811 803 1865 
Q 749 1920 729 2006 
Q 710 2093 710 2227 
L 710 4205 
Q 710 4474 812 4566 
Q 915 4659 1197 4659 
L 2957 4659 
Q 3110 4659 3203 4640 
Q 3296 4621 3350 4569 
Q 3405 4518 3424 4428 
Q 3443 4339 3443 4205 
L 3443 3974 
L 4710 3974 
L 4710 4915 
Q 4710 5005 4800 5005 
L 5062 5005 
Q 5152 5005 5152 4915 
L 5152 877 
z
M 1306 4275 
Q 1216 4275 1184 4240 
Q 1152 4205 1152 4109 
L 1152 2323 
Q 1152 2227 1184 2192 
Q 1216 2157 1306 2157 
L 2848 2157 
Q 2938 2157 2970 2192 
Q 3002 2227 3002 2323 
L 3002 4109 
Q 3002 4205 2970 4240 
Q 2938 4275 2848 4275 
L 1306 4275 
z
M 5350 -704 
Q 5350 -742 5318 -761 
Q 5286 -781 5254 -781 
L 2048 -781 
Q 1747 -781 1654 -669 
Q 1562 -557 1562 -294 
L 1562 1005 
Q 1562 1094 1651 1094 
L 1914 1094 
Q 2003 1094 2003 1005 
L 2003 -262 
Q 2003 -352 2032 -374 
Q 2061 -397 2150 -397 
L 5254 -397 
Q 5286 -397 5318 -419 
Q 5350 -442 5350 -474 
L 5350 -704 
z
M 3443 2758 
L 4710 2758 
L 4710 3597 
L 3443 3597 
L 3443 2758 
z
" transform="scale(0.015625)"/>
     </defs>
     <use xlink:href="#NanumGothic-63"/>
     <use xlink:href="#NanumGothic-72" transform="translate(48.399994 0)"/>
     <use xlink:href="#NanumGothic-6f" transform="translate(84.699982 0)"/>
     <use xlink:href="#NanumGothic-73" transform="translate(145.299973 0)"/>
     <use xlink:href="#NanumGothic-73" transform="translate(187.699966 0)"/>
     <use xlink:href="#NanumGothic-32" transform="translate(230.09996 0)"/>
     <use xlink:href="#NanumGothic-44" transform="translate(290.699951 0)"/>
     <use xlink:href="#NanumGothic-28" transform="translate(363.399933 0)"/>
     <use xlink:href="#NanumGothic-66" transform="translate(399.699921 0)"/>
     <use xlink:href="#NanumGothic-6f" transform="translate(435.999908 0)"/>
     <use xlink:href="#NanumGothic-72" transform="translate(496.599899 0)"/>
     <use xlink:href="#NanumGothic-77" transform="translate(532.899887 0)"/>
     <use xlink:href="#NanumGothic-61" transform="translate(617.699875 0)"/>
     <use xlink:href="#NanumGothic-72" transform="translate(672.19986 0)"/>
     <use xlink:href="#NanumGothic-64" transform="translate(708.499847 0)"/>
     <use xlink:href="#NanumGothic-2c" transform="translate(769.099838 0)"/>
     <use xlink:href="#NanumGothic-20" transform="translate(799.399826 0)"/>
     <use xlink:href="#NanumGothic-74" transform="translate(827.399811 0)"/>
     <use xlink:href="#NanumGothic-6f" transform="translate(863.699799 0)"/>
     <use xlink:href="#NanumGothic-45" transform="translate(924.299789 0)"/>
     <use xlink:href="#NanumGothic-6e" transform="translate(981.89978 0)"/>
     <use xlink:href="#NanumGothic-65" transform="translate(1042.499771 0)"/>
     <use xlink:href="#NanumGothic-6d" transform="translate(1096.999756 0)"/>
     <use xlink:href="#NanumGothic-79" transform="translate(1187.799744 0)"/>
     <use xlink:href="#NanumGothic-29" transform="translate(1234.199738 0)"/>
     <use xlink:href="#NanumGothic-20" transform="translate(1270.499725 0)"/>
     <use xlink:href="#NanumGothic-3e" transform="translate(1298.49971 0)"/>
     <use xlink:href="#NanumGothic-20" transform="translate(1353.199707 0)"/>
     <use xlink:href="#NanumGothic-30" transform="translate(1381.199692 0)"/>
     <use xlink:href="#NanumGothic-20" transform="translate(1441.799683 0)"/>
     <use xlink:href="#NanumGothic-c774" transform="translate(1469.799667 0)"/>
     <use xlink:href="#NanumGothic-ba74" transform="translate(1563.799652 0)"/>
    </g>
    <!-- 적이 왼쪽(반시계 방향)에 있다고 볼 수 있습니다. -->
    <g style="fill: #111827" transform="translate(47.653333 232.946901) scale(0.105 -0.105)">
     <defs>
      <path id="NanumGothic-c801" d="M 3309 4166 
Q 3219 3904 3056 3648 
Q 2893 3392 2669 3142 
Q 2886 2912 3206 2704 
Q 3526 2496 3904 2336 
Q 3955 2317 3961 2281 
Q 3968 2246 3949 2214 
L 3821 1984 
Q 3802 1952 3763 1949 
Q 3725 1946 3693 1958 
Q 3552 2022 3389 2112 
Q 3226 2202 3053 2317 
Q 2880 2432 2710 2566 
Q 2541 2701 2394 2848 
Q 2029 2490 1590 2195 
Q 1152 1901 704 1702 
Q 672 1690 640 1683 
Q 608 1677 589 1709 
L 461 1933 
Q 442 1965 458 2000 
Q 474 2035 506 2048 
Q 1331 2445 1913 2957 
Q 2496 3469 2822 4141 
Q 2867 4230 2835 4268 
Q 2803 4307 2714 4307 
L 838 4307 
Q 762 4307 762 4390 
L 762 4614 
Q 762 4691 838 4691 
L 2886 4691 
Q 3219 4691 3315 4572 
Q 3411 4454 3309 4166 
z
M 1421 1133 
Q 1421 1171 1453 1190 
Q 1485 1210 1517 1210 
L 4666 1210 
Q 4966 1210 5059 1098 
Q 5152 986 5152 723 
L 5152 -832 
Q 5152 -922 5062 -922 
L 4800 -922 
Q 4710 -922 4710 -832 
L 4710 691 
Q 4710 781 4681 803 
Q 4653 826 4563 826 
L 1517 826 
Q 1485 826 1453 848 
Q 1421 870 1421 902 
L 1421 1133 
z
M 4710 3462 
L 4710 4915 
Q 4710 5005 4800 5005 
L 5062 5005 
Q 5152 5005 5152 4915 
L 5152 1651 
Q 5152 1562 5062 1562 
L 4800 1562 
Q 4710 1562 4710 1651 
L 4710 3078 
L 3501 3078 
Q 3418 3078 3418 3155 
L 3418 3386 
Q 3418 3462 3501 3462 
L 4710 3462 
z
" transform="scale(0.015625)"/>
      <path id="NanumGothic-c67c" d="M 3725 3578 
Q 3725 3360 3641 3168 
Q 3558 2976 3398 2822 
Q 3238 2669 3008 2566 
Q 2778 2464 2490 2438 
L 2490 1741 
Q 2982 1754 3436 1782 
Q 3891 1811 4256 1856 
Q 4314 1862 4330 1846 
Q 4346 1830 4352 1798 
L 4378 1581 
Q 4384 1542 4368 1520 
Q 4352 1498 4294 1491 
Q 3731 1427 3059 1385 
Q 2387 1344 1728 1344 
L 397 1344 
Q 358 1344 329 1369 
Q 301 1395 301 1427 
L 301 1651 
Q 301 1690 329 1709 
Q 358 1728 397 1728 
L 1504 1728 
L 2048 1728 
L 2048 2438 
Q 1766 2464 1542 2566 
Q 1318 2669 1158 2819 
Q 998 2970 915 3165 
Q 832 3360 832 3578 
Q 832 3840 931 4054 
Q 1030 4269 1219 4419 
Q 1408 4570 1673 4653 
Q 1939 4736 2266 4736 
Q 2579 4736 2844 4653 
Q 3110 4570 3305 4419 
Q 3501 4269 3613 4054 
Q 3725 3840 3725 3578 
z
M 3290 3584 
Q 3290 3770 3206 3907 
Q 3123 4045 2982 4137 
Q 2842 4230 2656 4275 
Q 2470 4320 2266 4320 
Q 2054 4320 1872 4275 
Q 1690 4230 1555 4137 
Q 1421 4045 1344 3907 
Q 1267 3770 1267 3584 
Q 1267 3411 1340 3270 
Q 1414 3130 1548 3034 
Q 1683 2938 1865 2886 
Q 2048 2835 2266 2835 
Q 2470 2835 2656 2889 
Q 2842 2944 2982 3043 
Q 3123 3142 3206 3280 
Q 3290 3418 3290 3584 
z
M 5350 -704 
Q 5350 -742 5318 -761 
Q 5286 -781 5254 -781 
L 1894 -781 
Q 1594 -781 1501 -665 
Q 1408 -550 1408 -288 
L 1408 762 
Q 1408 851 1498 851 
L 1760 851 
Q 1850 851 1850 762 
L 1850 -262 
Q 1850 -352 1878 -374 
Q 1907 -397 1997 -397 
L 5254 -397 
Q 5286 -397 5318 -419 
Q 5350 -442 5350 -474 
L 5350 -704 
z
M 5152 627 
Q 5152 538 5062 538 
L 4800 538 
Q 4710 538 4710 627 
L 4710 4915 
Q 4710 5005 4800 5005 
L 5062 5005 
Q 5152 5005 5152 4915 
L 5152 627 
z
" transform="scale(0.015625)"/>
      <path id="NanumGothic-cabd" d="M 2675 4243 
Q 2618 4166 2557 4089 
Q 2496 4013 2426 3942 
Q 2605 3763 2822 3622 
Q 3040 3482 3264 3373 
Q 3622 3590 3859 3820 
Q 4096 4051 4269 4339 
Q 4301 4390 4288 4432 
Q 4275 4474 4205 4474 
L 3104 4474 
Q 3027 4474 3027 4563 
L 3027 4768 
Q 3027 4845 3117 4845 
L 4365 4845 
Q 4723 4845 4803 4704 
Q 4883 4563 4742 4320 
Q 4659 4179 4572 4051 
Q 4486 3923 4384 3808 
Q 4493 3725 4637 3645 
Q 4781 3565 4925 3491 
Q 5069 3418 5206 3363 
Q 5344 3309 5446 3277 
Q 5491 3264 5500 3225 
Q 5510 3187 5485 3142 
L 5376 2957 
Q 5338 2886 5229 2938 
Q 5114 2982 4970 3049 
Q 4826 3117 4678 3200 
Q 4531 3283 4387 3369 
Q 4243 3456 4128 3546 
Q 3904 3341 3613 3158 
Q 3322 2976 2918 2778 
Q 2835 2733 2778 2810 
L 2675 2950 
Q 2643 2989 2659 3027 
Q 2675 3066 2714 3085 
Q 2758 3104 2796 3123 
Q 2835 3142 2874 3162 
Q 2688 3270 2502 3411 
Q 2317 3552 2163 3699 
Q 1581 3219 749 2906 
Q 698 2886 669 2883 
Q 640 2880 614 2925 
L 518 3110 
Q 493 3155 509 3184 
Q 525 3213 557 3226 
Q 806 3309 1059 3440 
Q 1312 3571 1536 3721 
Q 1760 3872 1939 4032 
Q 2118 4192 2214 4346 
Q 2246 4390 2236 4432 
Q 2227 4474 2157 4474 
L 1005 4474 
Q 922 4474 922 4563 
L 922 4768 
Q 922 4806 950 4825 
Q 979 4845 1018 4845 
L 2330 4845 
Q 3104 4845 2675 4243 
z
M 5824 1728 
Q 5824 1696 5792 1670 
Q 5760 1645 5728 1645 
L 288 1645 
Q 250 1645 221 1670 
Q 192 1696 192 1728 
L 192 1952 
Q 192 1990 221 2009 
Q 250 2029 288 2029 
L 2842 2029 
L 2842 2566 
Q 2842 2656 2931 2656 
L 3194 2656 
Q 3283 2656 3283 2566 
L 3283 2029 
L 5728 2029 
Q 5760 2029 5792 2006 
Q 5824 1984 5824 1946 
L 5824 1728 
z
M 4928 -870 
Q 4928 -960 4838 -960 
L 4576 -960 
Q 4486 -960 4486 -870 
L 4486 467 
Q 4486 557 4457 579 
Q 4429 602 4339 602 
L 1043 602 
Q 1011 602 979 624 
Q 947 646 947 678 
L 947 909 
Q 947 947 979 966 
Q 1011 986 1043 986 
L 4442 986 
Q 4742 986 4835 874 
Q 4928 762 4928 499 
L 4928 -870 
z
" transform="scale(0.015625)"/>
      <path id="NanumGothic-bc18" d="M 1158 1715 
Q 1005 1715 912 1734 
Q 819 1754 768 1808 
Q 717 1862 697 1948 
Q 678 2035 678 2170 
L 678 4691 
Q 678 4723 704 4745 
Q 730 4768 762 4768 
L 1037 4768 
Q 1069 4768 1091 4742 
Q 1114 4717 1114 4691 
L 1114 3584 
L 2976 3584 
L 2976 4685 
Q 2976 4717 2998 4742 
Q 3021 4768 3053 4768 
L 3328 4768 
Q 3360 4768 3385 4745 
Q 3411 4723 3411 4691 
L 3411 2125 
Q 3411 1882 3308 1798 
Q 3206 1715 2925 1715 
L 1158 1715 
z
M 4928 832 
Q 4928 742 4838 742 
L 4576 742 
Q 4486 742 4486 832 
L 4486 4915 
Q 4486 5005 4576 5005 
L 4838 5005 
Q 4928 5005 4928 4915 
L 4928 3130 
L 5811 3130 
Q 5850 3130 5878 3107 
Q 5907 3085 5907 3046 
L 5907 2829 
Q 5907 2797 5878 2771 
Q 5850 2746 5811 2746 
L 4928 2746 
L 4928 832 
z
M 5216 -704 
Q 5216 -742 5184 -761 
Q 5152 -781 5120 -781 
L 1862 -781 
Q 1562 -781 1469 -669 
Q 1376 -557 1376 -294 
L 1376 960 
Q 1376 1050 1466 1050 
L 1728 1050 
Q 1818 1050 1818 960 
L 1818 -262 
Q 1818 -352 1846 -374 
Q 1875 -397 1965 -397 
L 5120 -397 
Q 5152 -397 5184 -419 
Q 5216 -442 5216 -474 
L 5216 -704 
z
M 1114 3206 
L 1114 2246 
Q 1114 2150 1146 2121 
Q 1178 2093 1267 2093 
L 2822 2093 
Q 2912 2093 2944 2121 
Q 2976 2150 2976 2246 
L 2976 3206 
L 1114 3206 
z
" transform="scale(0.015625)"/>
      <path id="NanumGothic-c2dc" d="M 2406 4589 
Q 2406 4166 2371 3779 
Q 2336 3392 2259 3034 
Q 2323 2778 2457 2493 
Q 2592 2208 2774 1926 
Q 2957 1645 3184 1379 
Q 3411 1114 3667 902 
Q 3699 877 3702 838 
Q 3706 800 3686 774 
L 3526 576 
Q 3469 506 3392 576 
Q 3213 730 3024 944 
Q 2835 1158 2659 1395 
Q 2483 1632 2329 1881 
Q 2176 2131 2067 2362 
Q 1862 1779 1529 1289 
Q 1197 800 736 378 
Q 672 326 627 371 
L 435 570 
Q 416 589 419 621 
Q 422 653 454 685 
Q 845 1056 1133 1465 
Q 1421 1875 1603 2348 
Q 1786 2822 1872 3379 
Q 1958 3936 1958 4602 
Q 1958 4646 1980 4668 
Q 2003 4691 2035 4691 
L 2336 4678 
Q 2406 4678 2406 4589 
z
M 5152 -806 
Q 5152 -896 5062 -896 
L 4800 -896 
Q 4710 -896 4710 -806 
L 4710 4915 
Q 4710 5005 4800 5005 
L 5062 5005 
Q 5152 5005 5152 4915 
L 5152 -806 
z
" transform="scale(0.015625)"/>
      <path id="NanumGothic-acc4" d="M 2938 4000 
Q 2925 3846 2902 3702 
Q 2880 3558 2848 3411 
L 3808 3411 
L 3808 4806 
Q 3808 4896 3898 4896 
L 4141 4896 
Q 4230 4896 4230 4806 
L 4230 -563 
Q 4230 -653 4141 -653 
L 3898 -653 
Q 3808 -653 3808 -563 
L 3808 1568 
L 2586 1568 
Q 2502 1568 2502 1645 
L 2502 1869 
Q 2502 1946 2586 1946 
L 3808 1946 
L 3808 3034 
L 2739 3034 
Q 2272 1594 730 570 
Q 646 512 602 576 
L 461 774 
Q 429 813 441 851 
Q 454 890 486 909 
Q 915 1178 1264 1507 
Q 1613 1837 1869 2211 
Q 2125 2586 2278 2998 
Q 2432 3411 2470 3846 
Q 2483 4006 2444 4054 
Q 2406 4102 2278 4102 
L 723 4102 
Q 646 4102 646 4179 
L 646 4410 
Q 646 4442 672 4464 
Q 698 4486 730 4486 
L 2432 4486 
Q 2720 4486 2838 4364 
Q 2957 4243 2938 4000 
z
M 5363 -806 
Q 5363 -896 5274 -896 
L 5030 -896 
Q 4941 -896 4941 -806 
L 4941 4915 
Q 4941 5005 5030 5005 
L 5274 5005 
Q 5363 5005 5363 4915 
L 5363 -806 
z
" transform="scale(0.015625)"/>
      <path id="NanumGothic-bc29" d="M 5005 250 
Q 5005 -26 4857 -243 
Q 4710 -461 4457 -611 
Q 4205 -762 3869 -842 
Q 3533 -922 3149 -922 
Q 2733 -922 2393 -842 
Q 2054 -762 1811 -611 
Q 1568 -461 1433 -243 
Q 1299 -26 1299 250 
Q 1299 518 1433 732 
Q 1568 947 1811 1097 
Q 2054 1248 2393 1328 
Q 2733 1408 3149 1408 
Q 3533 1408 3869 1328 
Q 4205 1248 4457 1101 
Q 4710 954 4857 739 
Q 5005 525 5005 250 
z
M 1158 1971 
Q 1005 1971 912 1990 
Q 819 2010 768 2064 
Q 717 2118 697 2204 
Q 678 2291 678 2426 
L 678 4730 
Q 678 4762 704 4784 
Q 730 4806 762 4806 
L 1037 4806 
Q 1069 4806 1091 4780 
Q 1114 4755 1114 4730 
L 1114 3731 
L 2982 3731 
L 2982 4723 
Q 2982 4755 3004 4780 
Q 3027 4806 3059 4806 
L 3334 4806 
Q 3366 4806 3392 4784 
Q 3418 4762 3418 4730 
L 3418 2381 
Q 3418 2138 3315 2054 
Q 3213 1971 2931 1971 
L 1158 1971 
z
M 4550 230 
Q 4550 422 4435 569 
Q 4320 717 4125 816 
Q 3930 915 3674 969 
Q 3418 1024 3142 1024 
Q 2835 1024 2579 969 
Q 2323 915 2140 816 
Q 1958 717 1856 569 
Q 1754 422 1754 230 
Q 1754 45 1856 -99 
Q 1958 -243 2140 -339 
Q 2323 -435 2579 -486 
Q 2835 -538 3142 -538 
Q 3418 -538 3674 -486 
Q 3930 -435 4125 -339 
Q 4320 -243 4435 -99 
Q 4550 45 4550 230 
z
M 4928 1530 
Q 4928 1440 4838 1440 
L 4576 1440 
Q 4486 1440 4486 1530 
L 4486 4915 
Q 4486 5005 4576 5005 
L 4838 5005 
Q 4928 5005 4928 4915 
L 4928 3373 
L 5811 3373 
Q 5850 3373 5878 3347 
Q 5907 3322 5907 3283 
L 5907 3072 
Q 5907 3040 5878 3014 
Q 5850 2989 5811 2989 
L 4928 2989 
L 4928 1530 
z
M 1114 3354 
L 1114 2502 
Q 1114 2406 1146 2377 
Q 1178 2349 1267 2349 
L 2829 2349 
Q 2918 2349 2950 2377 
Q 2982 2406 2982 2502 
L 2982 3354 
L 1114 3354 
z
" transform="scale(0.015625)"/>
      <path id="NanumGothic-d5a5" d="M 5005 64 
Q 5005 -160 4857 -339 
Q 4710 -518 4457 -646 
Q 4205 -774 3869 -844 
Q 3533 -915 3149 -915 
Q 2733 -915 2393 -844 
Q 2054 -774 1811 -646 
Q 1568 -518 1433 -339 
Q 1299 -160 1299 64 
Q 1299 282 1433 458 
Q 1568 634 1811 762 
Q 2054 890 2393 960 
Q 2733 1030 3149 1030 
Q 3533 1030 3869 963 
Q 4205 896 4457 768 
Q 4710 640 4857 461 
Q 5005 282 5005 64 
z
M 3533 2413 
Q 3533 2182 3427 1993 
Q 3322 1805 3139 1664 
Q 2957 1523 2704 1446 
Q 2451 1370 2157 1370 
Q 1856 1370 1606 1446 
Q 1357 1523 1171 1664 
Q 986 1805 883 1997 
Q 781 2189 781 2413 
Q 781 2643 883 2835 
Q 986 3027 1171 3161 
Q 1357 3296 1606 3373 
Q 1856 3450 2157 3450 
Q 2451 3450 2704 3373 
Q 2957 3296 3139 3158 
Q 3322 3021 3427 2829 
Q 3533 2637 3533 2413 
z
M 4550 45 
Q 4550 192 4435 307 
Q 4320 422 4125 502 
Q 3930 582 3674 624 
Q 3418 666 3142 666 
Q 2835 666 2579 624 
Q 2323 582 2140 502 
Q 1958 422 1856 307 
Q 1754 192 1754 45 
Q 1754 -96 1856 -208 
Q 1958 -320 2140 -397 
Q 2323 -474 2579 -512 
Q 2835 -550 3142 -550 
Q 3418 -550 3674 -512 
Q 3930 -474 4125 -397 
Q 4320 -320 4435 -208 
Q 4550 -96 4550 45 
z
M 4928 1254 
Q 4928 1165 4838 1165 
L 4576 1165 
Q 4486 1165 4486 1254 
L 4486 4915 
Q 4486 5005 4576 5005 
L 4838 5005 
Q 4928 5005 4928 4915 
L 4928 3776 
L 5811 3776 
Q 5850 3776 5878 3753 
Q 5907 3731 5907 3693 
L 5907 3482 
Q 5907 3450 5878 3424 
Q 5850 3398 5811 3398 
L 4928 3398 
L 4928 2630 
L 5811 2630 
Q 5850 2630 5878 2608 
Q 5907 2586 5907 2547 
L 5907 2336 
Q 5907 2304 5878 2278 
Q 5850 2253 5811 2253 
L 4928 2253 
L 4928 1254 
z
M 3104 2413 
Q 3104 2566 3033 2691 
Q 2963 2816 2835 2902 
Q 2707 2989 2534 3037 
Q 2362 3085 2157 3085 
Q 1952 3085 1779 3037 
Q 1606 2989 1478 2902 
Q 1350 2816 1276 2691 
Q 1203 2566 1203 2413 
Q 1203 2259 1276 2134 
Q 1350 2010 1478 1920 
Q 1606 1830 1779 1782 
Q 1952 1734 2157 1734 
Q 2362 1734 2534 1782 
Q 2707 1830 2835 1920 
Q 2963 2010 3033 2134 
Q 3104 2259 3104 2413 
z
M 4026 3827 
Q 4026 3744 3930 3744 
L 397 3744 
Q 365 3744 336 3769 
Q 307 3795 307 3834 
L 307 4038 
Q 307 4077 336 4102 
Q 365 4128 397 4128 
L 3930 4128 
Q 4026 4128 4026 4045 
L 4026 3827 
z
M 3091 4608 
Q 3091 4518 2995 4518 
L 1242 4518 
Q 1210 4518 1181 4540 
Q 1152 4563 1152 4602 
L 1152 4819 
Q 1152 4858 1177 4883 
Q 1203 4909 1235 4909 
L 2995 4909 
Q 3091 4909 3091 4819 
L 3091 4608 
z
" transform="scale(0.015625)"/>
      <path id="NanumGothic-c5d0" d="M 4230 -563 
Q 4230 -653 4141 -653 
L 3898 -653 
Q 3808 -653 3808 -563 
L 3808 2419 
L 3085 2419 
Q 3059 1978 2944 1648 
Q 2829 1318 2643 1097 
Q 2458 877 2218 768 
Q 1978 659 1709 659 
Q 1421 659 1177 784 
Q 934 909 755 1155 
Q 576 1402 473 1773 
Q 371 2144 371 2643 
Q 371 3142 473 3510 
Q 576 3878 758 4124 
Q 941 4371 1184 4489 
Q 1427 4608 1715 4608 
Q 1990 4608 2230 4499 
Q 2470 4390 2656 4166 
Q 2842 3942 2954 3603 
Q 3066 3264 3085 2803 
L 3808 2803 
L 3808 4806 
Q 3808 4896 3898 4896 
L 4141 4896 
Q 4230 4896 4230 4806 
L 4230 -563 
z
M 2643 2643 
Q 2643 2938 2585 3219 
Q 2528 3501 2413 3725 
Q 2298 3949 2122 4086 
Q 1946 4224 1709 4224 
Q 1459 4224 1289 4083 
Q 1120 3942 1014 3715 
Q 909 3488 864 3206 
Q 819 2925 819 2643 
Q 819 2362 870 2077 
Q 922 1792 1027 1561 
Q 1133 1331 1302 1187 
Q 1472 1043 1709 1043 
Q 1946 1043 2122 1184 
Q 2298 1325 2413 1552 
Q 2528 1779 2585 2067 
Q 2643 2355 2643 2643 
z
M 5363 -806 
Q 5363 -896 5274 -896 
L 5030 -896 
Q 4941 -896 4941 -806 
L 4941 4915 
Q 4941 5005 5030 5005 
L 5274 5005 
Q 5363 5005 5363 4915 
L 5363 -806 
z
" transform="scale(0.015625)"/>
      <path id="NanumGothic-c788" d="M 3584 3328 
Q 3584 3008 3469 2742 
Q 3354 2477 3149 2285 
Q 2944 2093 2665 1984 
Q 2387 1875 2061 1875 
Q 1747 1875 1472 1980 
Q 1197 2086 995 2278 
Q 794 2470 678 2739 
Q 563 3008 563 3328 
Q 563 3667 678 3939 
Q 794 4211 995 4400 
Q 1197 4589 1472 4688 
Q 1747 4787 2061 4787 
Q 2355 4787 2630 4688 
Q 2906 4589 3117 4403 
Q 3328 4218 3456 3946 
Q 3584 3674 3584 3328 
z
M 3136 3334 
Q 3136 3590 3049 3785 
Q 2963 3981 2816 4112 
Q 2669 4243 2473 4310 
Q 2278 4378 2061 4378 
Q 1837 4378 1648 4310 
Q 1459 4243 1315 4112 
Q 1171 3981 1091 3785 
Q 1011 3590 1011 3334 
Q 1011 3091 1088 2899 
Q 1165 2707 1305 2566 
Q 1446 2426 1638 2352 
Q 1830 2278 2061 2278 
Q 2278 2278 2473 2352 
Q 2669 2426 2816 2566 
Q 2963 2707 3049 2899 
Q 3136 3091 3136 3334 
z
M 5696 -838 
Q 5670 -870 5648 -883 
Q 5626 -896 5581 -870 
Q 5178 -659 4893 -368 
Q 4608 -77 4454 262 
Q 4288 -83 4041 -368 
Q 3795 -653 3482 -845 
Q 3392 -896 3290 -838 
Q 2976 -659 2726 -387 
Q 2477 -115 2330 211 
Q 2163 -122 1878 -390 
Q 1594 -659 1178 -883 
Q 1146 -896 1107 -909 
Q 1069 -922 1050 -896 
L 896 -666 
Q 883 -640 892 -605 
Q 902 -570 941 -550 
Q 1568 -243 1859 208 
Q 2150 659 2112 1306 
Q 2112 1389 2176 1389 
L 2483 1382 
Q 2554 1382 2554 1306 
Q 2554 1114 2534 934 
Q 2541 742 2611 537 
Q 2682 333 2790 150 
Q 2899 -32 3043 -182 
Q 3187 -333 3347 -416 
Q 3405 -448 3450 -416 
Q 3622 -307 3769 -121 
Q 3917 64 4029 294 
Q 4141 525 4201 787 
Q 4262 1050 4256 1312 
Q 4256 1344 4272 1373 
Q 4288 1402 4326 1402 
L 4627 1395 
Q 4698 1395 4698 1318 
Q 4691 1248 4688 1181 
Q 4685 1114 4678 1043 
Q 4678 531 4966 124 
Q 5254 -282 5798 -531 
Q 5875 -576 5824 -653 
L 5696 -838 
z
M 5152 1760 
Q 5152 1670 5062 1670 
L 4800 1670 
Q 4710 1670 4710 1760 
L 4710 4915 
Q 4710 5005 4800 5005 
L 5062 5005 
Q 5152 5005 5152 4915 
L 5152 1760 
z
" transform="scale(0.015625)"/>
      <path id="NanumGothic-b2e4" d="M 4019 1171 
Q 4032 1082 3936 1062 
Q 3699 1005 3337 953 
Q 2976 902 2576 864 
Q 2176 826 1785 806 
Q 1395 787 1107 794 
Q 819 800 713 928 
Q 608 1056 608 1325 
L 608 4077 
Q 608 4346 710 4435 
Q 813 4525 1094 4525 
L 3296 4525 
Q 3379 4525 3379 4448 
L 3379 4218 
Q 3379 4141 3296 4141 
L 1178 4141 
Q 1088 4141 1069 4118 
Q 1050 4096 1050 4000 
L 1050 1357 
Q 1050 1261 1082 1229 
Q 1114 1197 1203 1190 
Q 1510 1178 1852 1194 
Q 2195 1210 2544 1245 
Q 2893 1280 3229 1328 
Q 3565 1376 3866 1434 
Q 3968 1453 3987 1363 
L 4019 1171 
z
M 4928 -806 
Q 4928 -896 4838 -896 
L 4576 -896 
Q 4486 -896 4486 -806 
L 4486 4915 
Q 4486 5005 4576 5005 
L 4838 5005 
Q 4928 5005 4928 4915 
L 4928 2586 
L 5811 2586 
Q 5850 2586 5878 2563 
Q 5907 2541 5907 2502 
L 5907 2285 
Q 5907 2253 5878 2227 
Q 5850 2202 5811 2202 
L 4928 2202 
L 4928 -806 
z
" transform="scale(0.015625)"/>
      <path id="NanumGothic-ace0" d="M 5728 499 
Q 5760 499 5792 476 
Q 5824 454 5824 416 
L 5824 198 
Q 5824 166 5792 140 
Q 5760 115 5728 115 
L 288 115 
Q 250 115 221 140 
Q 192 166 192 198 
L 192 416 
Q 192 454 221 476 
Q 250 499 288 499 
L 2566 499 
L 2566 2464 
Q 2566 2502 2588 2531 
Q 2611 2560 2650 2560 
L 2925 2560 
Q 2957 2560 2982 2531 
Q 3008 2502 3008 2464 
L 3008 499 
L 5728 499 
z
M 998 4486 
Q 998 4525 1030 4544 
Q 1062 4563 1094 4563 
L 4506 4563 
Q 4659 4563 4752 4531 
Q 4845 4499 4896 4438 
Q 4947 4378 4966 4282 
Q 4986 4186 4992 4051 
Q 4998 3789 4992 3462 
Q 4986 3136 4960 2784 
Q 4934 2432 4889 2073 
Q 4845 1715 4781 1389 
Q 4774 1350 4748 1318 
Q 4723 1286 4685 1293 
L 4429 1312 
Q 4320 1318 4352 1427 
Q 4410 1677 4454 2038 
Q 4499 2400 4528 2774 
Q 4557 3149 4566 3491 
Q 4576 3834 4557 4045 
Q 4544 4134 4521 4156 
Q 4499 4179 4410 4179 
L 1094 4179 
Q 1062 4179 1030 4201 
Q 998 4224 998 4256 
L 998 4486 
z
" transform="scale(0.015625)"/>
      <path id="NanumGothic-bcfc" d="M 3226 2944 
L 3226 2381 
L 5728 2381 
Q 5760 2381 5792 2358 
Q 5824 2336 5824 2298 
L 5824 2080 
Q 5824 2048 5792 2022 
Q 5760 1997 5728 1997 
L 288 1997 
Q 250 1997 221 2022 
Q 192 2048 192 2080 
L 192 2298 
Q 192 2336 221 2358 
Q 250 2381 288 2381 
L 2784 2381 
L 2784 2944 
L 1600 2944 
Q 1446 2944 1353 2963 
Q 1261 2982 1209 3036 
Q 1158 3091 1139 3177 
Q 1120 3264 1120 3398 
L 1120 4954 
Q 1120 4986 1145 5008 
Q 1171 5030 1203 5030 
L 1478 5030 
Q 1510 5030 1532 5004 
Q 1555 4979 1555 4954 
L 1555 4358 
L 4461 4358 
L 4461 4947 
Q 4461 4979 4483 5004 
Q 4506 5030 4538 5030 
L 4813 5030 
Q 4845 5030 4870 5008 
Q 4896 4986 4896 4954 
L 4896 3354 
Q 4896 3110 4793 3027 
Q 4691 2944 4410 2944 
L 3226 2944 
z
M 5056 -781 
Q 5056 -813 5027 -835 
Q 4998 -858 4973 -858 
L 1568 -858 
Q 1267 -858 1174 -746 
Q 1082 -634 1082 -365 
L 1082 70 
Q 1082 339 1194 432 
Q 1306 525 1594 525 
L 4346 525 
Q 4435 525 4460 550 
Q 4486 576 4486 672 
L 4486 1005 
Q 4486 1101 4464 1126 
Q 4442 1152 4352 1152 
L 1158 1152 
Q 1126 1152 1097 1171 
Q 1069 1190 1069 1222 
L 1069 1446 
Q 1069 1478 1097 1497 
Q 1126 1517 1158 1517 
L 4416 1517 
Q 4570 1517 4666 1494 
Q 4762 1472 4819 1421 
Q 4877 1370 4899 1277 
Q 4922 1184 4922 1050 
L 4922 614 
Q 4922 346 4810 253 
Q 4698 160 4410 160 
L 1651 160 
Q 1562 160 1539 134 
Q 1517 109 1517 13 
L 1517 -339 
Q 1517 -429 1542 -457 
Q 1568 -486 1658 -486 
L 4966 -486 
Q 4998 -486 5027 -505 
Q 5056 -525 5056 -557 
L 5056 -781 
z
M 1555 3981 
L 1555 3475 
Q 1555 3379 1587 3350 
Q 1619 3322 1709 3322 
L 4307 3322 
Q 4397 3322 4429 3350 
Q 4461 3379 4461 3475 
L 4461 3981 
L 1555 3981 
z
" transform="scale(0.015625)"/>
      <path id="NanumGothic-c218" d="M 2854 -858 
Q 2822 -858 2796 -829 
Q 2771 -800 2771 -762 
L 2771 1325 
L 288 1325 
Q 250 1325 221 1350 
Q 192 1376 192 1408 
L 192 1626 
Q 192 1664 221 1686 
Q 250 1709 288 1709 
L 5728 1709 
Q 5760 1709 5792 1686 
Q 5824 1664 5824 1626 
L 5824 1408 
Q 5824 1376 5792 1350 
Q 5760 1325 5728 1325 
L 3213 1325 
L 3213 -762 
Q 3213 -800 3190 -829 
Q 3168 -858 3130 -858 
L 2854 -858 
z
M 3232 4864 
Q 3219 4781 3200 4704 
Q 3181 4627 3162 4557 
Q 3181 4486 3206 4425 
Q 3232 4365 3264 4307 
Q 3373 4096 3584 3881 
Q 3795 3667 4070 3478 
Q 4346 3290 4666 3142 
Q 4986 2995 5325 2912 
Q 5363 2899 5376 2860 
Q 5389 2822 5376 2790 
L 5274 2573 
Q 5254 2541 5232 2528 
Q 5210 2515 5146 2528 
Q 4806 2618 4473 2774 
Q 4141 2931 3853 3136 
Q 3565 3341 3331 3577 
Q 3098 3814 2950 4058 
Q 2675 3558 2163 3158 
Q 1651 2758 877 2451 
Q 774 2413 749 2477 
L 627 2701 
Q 614 2733 624 2771 
Q 634 2810 672 2822 
Q 1088 2963 1465 3196 
Q 1843 3430 2131 3712 
Q 2419 3994 2595 4301 
Q 2771 4608 2790 4909 
Q 2797 4986 2874 4986 
L 3162 4954 
Q 3194 4947 3219 4928 
Q 3245 4909 3232 4864 
z
" transform="scale(0.015625)"/>
      <path id="NanumGothic-c2b5" d="M 1555 -858 
Q 1402 -858 1309 -838 
Q 1216 -819 1165 -764 
Q 1114 -710 1094 -624 
Q 1075 -538 1075 -403 
L 1075 1408 
Q 1075 1440 1100 1462 
Q 1126 1485 1158 1485 
L 1440 1485 
Q 1472 1485 1494 1459 
Q 1517 1434 1517 1408 
L 1517 717 
L 4486 717 
L 4486 1402 
Q 4486 1434 4508 1459 
Q 4531 1485 4563 1485 
L 4845 1485 
Q 4877 1485 4902 1462 
Q 4928 1440 4928 1408 
L 4928 -448 
Q 4928 -691 4825 -774 
Q 4723 -858 4442 -858 
L 1555 -858 
z
M 1517 333 
L 1517 -320 
Q 1517 -416 1549 -445 
Q 1581 -474 1670 -474 
L 4333 -474 
Q 4422 -474 4454 -445 
Q 4486 -416 4486 -320 
L 4486 333 
L 1517 333 
z
M 3232 4890 
Q 3219 4851 3216 4816 
Q 3213 4781 3200 4749 
Q 3219 4666 3254 4589 
Q 3290 4512 3334 4448 
Q 3469 4237 3680 4048 
Q 3891 3859 4144 3708 
Q 4397 3558 4681 3449 
Q 4966 3341 5254 3283 
Q 5293 3270 5299 3238 
Q 5306 3206 5293 3174 
L 5184 2957 
Q 5171 2925 5148 2909 
Q 5126 2893 5062 2906 
Q 4736 2982 4419 3120 
Q 4102 3258 3827 3440 
Q 3552 3622 3334 3833 
Q 3117 4045 2989 4256 
Q 2733 3814 2240 3481 
Q 1747 3149 947 2880 
Q 845 2848 819 2912 
L 710 3142 
Q 698 3174 707 3212 
Q 717 3251 762 3264 
Q 1229 3405 1584 3571 
Q 1939 3738 2188 3936 
Q 2438 4134 2588 4380 
Q 2739 4627 2790 4934 
Q 2810 5018 2874 5011 
L 3162 4979 
Q 3194 4979 3219 4956 
Q 3245 4934 3232 4890 
z
M 5728 2387 
Q 5760 2387 5792 2364 
Q 5824 2342 5824 2304 
L 5824 2086 
Q 5824 2054 5792 2028 
Q 5760 2003 5728 2003 
L 288 2003 
Q 250 2003 221 2028 
Q 192 2054 192 2086 
L 192 2310 
Q 192 2349 221 2368 
Q 250 2387 288 2387 
L 5728 2387 
z
" transform="scale(0.015625)"/>
      <path id="NanumGothic-b2c8" d="M 5152 -806 
Q 5152 -896 5062 -896 
L 4800 -896 
Q 4710 -896 4710 -806 
L 4710 4915 
Q 4710 5005 4800 5005 
L 5062 5005 
Q 5152 5005 5152 4915 
L 5152 -806 
z
M 1267 1440 
Q 1267 1344 1299 1312 
Q 1331 1280 1421 1274 
Q 1734 1261 2089 1270 
Q 2445 1280 2803 1309 
Q 3162 1338 3504 1382 
Q 3846 1427 4141 1485 
Q 4250 1510 4269 1408 
L 4301 1229 
Q 4320 1139 4218 1114 
Q 4000 1062 3657 1017 
Q 3315 973 2918 937 
Q 2522 902 2106 886 
Q 1690 870 1331 877 
Q 1043 883 934 1011 
Q 826 1139 826 1408 
L 826 4557 
Q 826 4646 915 4646 
L 1178 4646 
Q 1267 4646 1267 4557 
L 1267 1440 
z
" transform="scale(0.015625)"/>
      <path id="NanumGothic-2e" d="M 691 -256 
Q 691 -122 784 -29 
Q 877 64 1011 64 
Q 1146 64 1238 -29 
Q 1331 -122 1331 -256 
Q 1331 -390 1238 -483 
Q 1146 -576 1011 -576 
Q 877 -576 784 -483 
Q 691 -390 691 -256 
z
" transform="scale(0.015625)"/>
     </defs>
     <use xlink:href="#NanumGothic-c801"/>
     <use xlink:href="#NanumGothic-c774" transform="translate(93.999985 0)"/>
     <use xlink:href="#NanumGothic-20" transform="translate(187.999969 0)"/>
     <use xlink:href="#NanumGothic-c67c" transform="translate(215.999954 0)"/>
     <use xlink:href="#NanumGothic-cabd" transform="translate(309.999939 0)"/>
     <use xlink:href="#NanumGothic-28" transform="translate(403.999924 0)"/>
     <use xlink:href="#NanumGothic-bc18" transform="translate(440.299911 0)"/>
     <use xlink:href="#NanumGothic-c2dc" transform="translate(534.299896 0)"/>
     <use xlink:href="#NanumGothic-acc4" transform="translate(628.299881 0)"/>
     <use xlink:href="#NanumGothic-20" transform="translate(722.299866 0)"/>
     <use xlink:href="#NanumGothic-bc29" transform="translate(750.29985 0)"/>
     <use xlink:href="#NanumGothic-d5a5" transform="translate(844.299835 0)"/>
     <use xlink:href="#NanumGothic-29" transform="translate(938.29982 0)"/>
     <use xlink:href="#NanumGothic-c5d0" transform="translate(974.599808 0)"/>
     <use xlink:href="#NanumGothic-20" transform="translate(1068.599792 0)"/>
     <use xlink:href="#NanumGothic-c788" transform="translate(1096.599777 0)"/>
     <use xlink:href="#NanumGothic-b2e4" transform="translate(1190.599762 0)"/>
     <use xlink:href="#NanumGothic-ace0" transform="translate(1284.599747 0)"/>
     <use xlink:href="#NanumGothic-20" transform="translate(1378.599731 0)"/>
     <use xlink:href="#NanumGothic-bcfc" transform="translate(1406.599716 0)"/>
     <use xlink:href="#NanumGothic-20" transform="translate(1500.599701 0)"/>
     <use xlink:href="#NanumGothic-c218" transform="translate(1528.599686 0)"/>
     <use xlink:href="#NanumGothic-20" transform="translate(1622.59967 0)"/>
     <use xlink:href="#NanumGothic-c788" transform="translate(1650.599655 0)"/>
     <use xlink:href="#NanumGothic-c2b5" transform="translate(1744.59964 0)"/>
     <use xlink:href="#NanumGothic-b2c8" transform="translate(1838.599625 0)"/>
     <use xlink:href="#NanumGothic-b2e4" transform="translate(1932.599609 0)"/>
     <use xlink:href="#NanumGothic-2e" transform="translate(2026.599594 0)"/>
    </g>
   </g>
  </g>
 </g>
 <defs>
  <clipPath id="pf22f891a3a">
   <rect x="8.64" y="28.936531" width="390.133333" height="210.672"/>
  </clipPath>
 </defs>
</svg>
