<?xml version="1.0" encoding="utf-8" standalone="no"?>
<!DOCTYPE svg PUBLIC "-//W3C//DTD SVG 1.1//EN"
  "http://www.w3.org/Graphics/SVG/1.1/DTD/svg11.dtd">
<svg xmlns:xlink="http://www.w3.org/1999/xlink" width="301.68pt" height="218.8656pt" viewBox="0 0 301.68 218.8656" xmlns="http://www.w3.org/2000/svg" version="1.1">
 <metadata>
  <rdf:RDF xmlns:dc="http://purl.org/dc/elements/1.1/" xmlns:cc="http://creativecommons.org/ns#" xmlns:rdf="http://www.w3.org/1999/02/22-rdf-syntax-ns#">
   <cc:Work>
    <dc:type rdf:resource="http://purl.org/dc/dcmitype/StillImage"/>
    <dc:date>2026-07-08T05:12:56.774128</dc:date>
    <dc:format>image/svg+xml</dc:format>
    <dc:creator>
     <cc:Agent>
      <dc:title>Matplotlib v3.10.8, https://matplotlib.org/</dc:title>
     </cc:Agent>
    </dc:creator>
   </cc:Work>
  </rdf:RDF>
 </metadata>
 <defs>
  <style type="text/css">*{stroke-linejoin: round; stroke-linecap: butt}</style>
 </defs>
 <g id="figure_1">
  <g id="patch_1">
   <path d="M 0 218.8656 
L 301.68 218.8656 
L 301.68 -0 
L 0 -0 
z
" style="fill: #ffffff"/>
  </g>
  <g id="axes_1">
   <g id="patch_2">
    <path d="M 5.76 213.1056 
L 295.92 213.1056 
L 295.92 5.76 
L 5.76 5.76 
z
" clip-path="url(#p2203707bcd)" style="fill: #ffffff; stroke: #e5e7eb; stroke-linejoin: miter"/>
   </g>
   <g id="text_1">
    <!-- Steering behavior -->
    <g style="fill: #111827" transform="translate(17.3664 38.296784) scale(0.11 -0.11)">
     <defs>
      <path id="NanumGothicCoding-53" d="M 512 -211 
Q 416 -179 435 -102 
L 461 192 
Q 474 237 499 256 
Q 525 275 563 250 
Q 768 134 953 83 
Q 1139 32 1408 32 
Q 1818 32 2077 259 
Q 2336 486 2336 838 
Q 2336 1043 2198 1216 
Q 2061 1389 1824 1542 
Q 1613 1683 1382 1817 
Q 1152 1952 941 2109 
Q 730 2266 573 2490 
Q 416 2714 416 3008 
Q 416 3296 521 3517 
Q 627 3738 809 3888 
Q 992 4038 1248 4105 
Q 1504 4173 1773 4173 
Q 1965 4173 2128 4147 
Q 2291 4122 2509 4038 
Q 2598 4013 2586 3936 
L 2534 3680 
Q 2515 3578 2432 3622 
Q 2266 3699 2106 3731 
Q 1946 3763 1766 3763 
Q 1568 3763 1395 3715 
Q 1222 3667 1116 3577 
Q 1011 3488 937 3353 
Q 864 3219 864 3027 
Q 864 2874 941 2739 
Q 1018 2605 1168 2483 
Q 1318 2362 1456 2278 
Q 1594 2195 1747 2099 
Q 1952 1971 2134 1849 
Q 2317 1728 2467 1584 
Q 2618 1440 2701 1257 
Q 2784 1075 2784 845 
Q 2784 550 2665 323 
Q 2547 96 2371 -54 
Q 2195 -205 1929 -291 
Q 1664 -378 1382 -378 
Q 1120 -378 925 -339 
Q 730 -301 512 -211 
z
" transform="scale(0.015625)"/>
      <path id="NanumGothicCoding-74" d="M 2733 -269 
Q 2464 -378 2106 -378 
Q 1523 -378 1357 -38 
Q 1248 192 1248 774 
L 1248 2413 
L 416 2413 
Q 326 2413 326 2502 
L 326 2694 
Q 326 2784 416 2784 
L 1248 2784 
L 1248 3686 
Q 1248 3782 1331 3782 
L 1600 3782 
Q 1683 3782 1683 3686 
L 1683 2784 
L 2714 2784 
Q 2803 2784 2803 2694 
L 2803 2502 
Q 2803 2413 2714 2413 
L 1683 2413 
L 1683 486 
Q 1683 6 2208 6 
Q 2470 6 2707 115 
Q 2739 128 2768 115 
Q 2797 102 2797 64 
L 2810 -141 
Q 2822 -230 2733 -269 
z
" transform="scale(0.015625)"/>
      <path id="NanumGothicCoding-65" d="M 2458 1536 
Q 2458 1734 2410 1939 
Q 2362 2144 2266 2298 
Q 2042 2669 1626 2669 
Q 1210 2669 973 2291 
Q 864 2106 806 1907 
Q 749 1709 742 1536 
L 2458 1536 
z
M 736 1171 
Q 730 966 810 726 
Q 890 486 1030 336 
Q 1171 186 1350 96 
Q 1530 6 1786 6 
Q 2010 6 2202 51 
Q 2394 96 2586 198 
Q 2662 230 2669 154 
L 2669 -141 
Q 2669 -192 2598 -224 
Q 2400 -301 2211 -339 
Q 2022 -378 1754 -378 
Q 1069 -378 665 80 
Q 262 538 262 1312 
Q 262 2016 659 2541 
Q 1075 3034 1632 3034 
Q 1978 3034 2205 2912 
Q 2432 2790 2611 2541 
Q 2931 2112 2931 1376 
Q 2931 1299 2928 1257 
Q 2925 1216 2905 1197 
Q 2886 1178 2838 1174 
Q 2790 1171 2701 1171 
L 736 1171 
z
" transform="scale(0.015625)"/>
      <path id="NanumGothicCoding-72" d="M 1946 122 
Q 2035 122 2035 32 
L 2035 -186 
Q 2035 -275 1946 -275 
L 506 -275 
Q 416 -275 416 -186 
L 416 32 
Q 416 122 506 122 
L 883 122 
L 883 2534 
L 390 2534 
Q 301 2534 301 2624 
L 301 2842 
Q 301 2931 390 2931 
L 1165 2931 
Q 1254 2931 1254 2842 
L 1254 2214 
Q 1645 3021 2381 3021 
Q 2758 3021 3059 2874 
Q 3123 2848 3129 2809 
Q 3136 2771 3117 2726 
L 3040 2496 
Q 3021 2451 2992 2454 
Q 2963 2458 2918 2483 
Q 2637 2618 2317 2618 
Q 1792 2592 1485 2048 
Q 1312 1715 1312 1178 
L 1312 122 
L 1946 122 
z
" transform="scale(0.015625)"/>
      <path id="NanumGothicCoding-69" d="M 2656 122 
Q 2746 122 2746 32 
L 2746 -186 
Q 2746 -275 2656 -275 
L 614 -275 
Q 525 -275 525 -186 
L 525 32 
Q 525 122 614 122 
L 1434 122 
L 1434 2534 
L 685 2534 
Q 595 2534 595 2624 
L 595 2842 
Q 595 2931 685 2931 
L 1805 2931 
Q 1894 2931 1894 2842 
L 1894 122 
L 2656 122 
z
M 1235 3968 
Q 1235 4115 1340 4220 
Q 1446 4326 1594 4326 
Q 1741 4326 1846 4220 
Q 1952 4115 1952 3968 
Q 1952 3821 1846 3715 
Q 1741 3610 1594 3610 
Q 1446 3610 1340 3715 
Q 1235 3821 1235 3968 
z
" transform="scale(0.015625)"/>
      <path id="NanumGothicCoding-6e" d="M 2797 -186 
Q 2797 -275 2707 -275 
L 2451 -275 
Q 2362 -275 2362 -186 
L 2362 1574 
Q 2362 2163 2202 2409 
Q 2042 2656 1658 2656 
Q 1318 2656 1088 2384 
Q 858 2112 858 1562 
L 858 -186 
Q 858 -275 768 -275 
L 512 -275 
Q 422 -275 422 -186 
L 422 2118 
Q 422 2394 419 2547 
Q 416 2701 403 2842 
Q 397 2886 425 2908 
Q 454 2931 493 2931 
L 723 2931 
Q 813 2931 813 2842 
L 813 2483 
Q 966 2758 1187 2889 
Q 1408 3021 1696 3021 
Q 2259 3021 2528 2669 
Q 2797 2317 2797 1677 
L 2797 -186 
z
" transform="scale(0.015625)"/>
      <path id="NanumGothicCoding-67" d="M 550 -1114 
Q 480 -1094 493 -1024 
L 506 -736 
Q 506 -653 589 -698 
Q 826 -806 1030 -854 
Q 1235 -902 1402 -902 
Q 1837 -902 2099 -572 
Q 2362 -243 2387 390 
Q 2246 115 2016 -22 
Q 1786 -160 1498 -160 
Q 1222 -160 995 -54 
Q 768 51 605 249 
Q 442 448 355 742 
Q 269 1037 269 1376 
Q 269 1728 355 2029 
Q 442 2330 605 2554 
Q 768 2778 995 2893 
Q 1222 3008 1498 3008 
Q 1786 3008 2038 2851 
Q 2291 2694 2406 2458 
L 2394 2848 
Q 2394 2931 2483 2931 
L 2720 2931 
Q 2810 2931 2810 2848 
L 2810 493 
Q 2810 122 2710 -230 
Q 2611 -582 2416 -809 
Q 2221 -1037 1977 -1152 
Q 1734 -1267 1395 -1267 
Q 1203 -1267 992 -1232 
Q 781 -1197 550 -1114 
z
M 730 1427 
Q 730 1242 765 1027 
Q 800 813 905 608 
Q 1011 403 1171 307 
Q 1331 211 1555 211 
Q 1779 211 1936 323 
Q 2093 435 2198 624 
Q 2304 813 2336 1027 
Q 2368 1242 2368 1427 
Q 2368 1600 2336 1821 
Q 2304 2042 2198 2227 
Q 2093 2413 1936 2525 
Q 1779 2637 1555 2637 
Q 1331 2637 1174 2525 
Q 1018 2413 909 2227 
Q 800 2042 765 1821 
Q 730 1600 730 1427 
z
" transform="scale(0.015625)"/>
      <path id="NanumGothicCoding-20" transform="scale(0.015625)"/>
      <path id="NanumGothicCoding-62" d="M 397 4371 
Q 397 4454 486 4454 
L 736 4454 
Q 826 4454 826 4371 
L 826 2464 
Q 947 2714 1174 2874 
Q 1402 3034 1722 3034 
Q 2323 3034 2656 2531 
Q 2989 2029 2989 1427 
Q 2989 1088 2915 781 
Q 2842 474 2669 208 
Q 2496 -58 2256 -198 
Q 2016 -339 1722 -339 
Q 1088 -339 826 275 
L 826 -192 
Q 826 -275 736 -275 
L 486 -275 
Q 397 -275 397 -192 
L 397 4371 
z
M 2534 1357 
Q 2541 1542 2499 1782 
Q 2458 2022 2349 2227 
Q 2240 2432 2080 2553 
Q 1920 2675 1683 2675 
Q 1446 2675 1286 2553 
Q 1126 2432 1020 2227 
Q 915 2022 876 1782 
Q 838 1542 838 1357 
Q 838 1158 876 924 
Q 915 691 1020 483 
Q 1126 275 1286 153 
Q 1446 32 1683 32 
Q 1920 32 2080 153 
Q 2240 275 2345 483 
Q 2451 691 2496 924 
Q 2541 1158 2534 1357 
z
" transform="scale(0.015625)"/>
      <path id="NanumGothicCoding-68" d="M 2835 -186 
Q 2835 -275 2746 -275 
L 2490 -275 
Q 2400 -275 2400 -186 
L 2400 1549 
Q 2400 1856 2349 2070 
Q 2298 2285 2192 2416 
Q 2086 2547 1952 2604 
Q 1818 2662 1619 2662 
Q 1267 2662 1043 2412 
Q 819 2163 819 1722 
L 819 -186 
Q 819 -275 730 -275 
L 474 -275 
Q 384 -275 384 -186 
L 384 4346 
Q 384 4435 474 4435 
L 730 4435 
Q 819 4435 819 4346 
L 819 2598 
Q 998 2835 1206 2931 
Q 1414 3027 1664 3027 
Q 2234 3027 2534 2662 
Q 2835 2298 2835 1555 
L 2835 -186 
z
" transform="scale(0.015625)"/>
      <path id="NanumGothicCoding-61" d="M 2368 1402 
L 2246 1402 
Q 1888 1414 1645 1376 
Q 1402 1338 1229 1254 
Q 1018 1165 902 976 
Q 787 787 787 589 
Q 787 474 838 342 
Q 890 211 998 141 
Q 1184 -13 1414 -13 
Q 1638 -13 1785 73 
Q 1933 160 2073 342 
Q 2214 525 2291 755 
Q 2368 986 2368 1203 
L 2368 1402 
z
M 723 2400 
Q 691 2381 662 2390 
Q 634 2400 634 2432 
L 634 2682 
Q 634 2765 723 2803 
Q 941 2931 1168 2982 
Q 1395 3034 1658 3034 
Q 2214 3046 2508 2713 
Q 2803 2381 2803 1888 
L 2803 397 
Q 2803 218 2809 77 
Q 2816 -64 2829 -192 
Q 2829 -275 2739 -275 
L 2509 -275 
Q 2419 -275 2419 -192 
L 2419 262 
Q 2285 -38 2009 -208 
Q 1734 -378 1363 -378 
Q 813 -378 512 -19 
Q 410 96 358 256 
Q 307 416 307 570 
Q 307 902 489 1180 
Q 672 1459 1050 1600 
Q 1414 1766 2285 1766 
L 2368 1766 
L 2368 1914 
Q 2368 2240 2185 2454 
Q 2003 2669 1658 2669 
Q 1382 2669 1168 2608 
Q 954 2547 723 2400 
z
" transform="scale(0.015625)"/>
      <path id="NanumGothicCoding-76" d="M 1856 -192 
Q 1824 -275 1728 -275 
L 1414 -275 
Q 1318 -275 1293 -192 
L 282 2842 
Q 269 2874 288 2902 
Q 307 2931 346 2931 
L 627 2931 
Q 704 2931 742 2842 
L 1581 166 
L 2458 2842 
Q 2470 2880 2502 2905 
Q 2534 2931 2573 2931 
L 2854 2931 
Q 2893 2931 2912 2902 
Q 2931 2874 2918 2842 
L 1856 -192 
z
" transform="scale(0.015625)"/>
      <path id="NanumGothicCoding-6f" d="M 2490 1331 
Q 2490 1581 2432 1824 
Q 2374 2067 2253 2266 
Q 2010 2650 1594 2650 
Q 1158 2650 934 2266 
Q 813 2067 758 1824 
Q 704 1581 704 1331 
Q 704 1056 755 813 
Q 806 570 934 397 
Q 1216 6 1594 6 
Q 2035 6 2253 397 
Q 2381 570 2435 813 
Q 2490 1056 2490 1331 
z
M 2931 1331 
Q 2931 979 2851 668 
Q 2771 358 2605 147 
Q 2413 -102 2163 -240 
Q 1914 -378 1594 -378 
Q 1274 -378 1024 -240 
Q 774 -102 582 147 
Q 429 378 349 678 
Q 269 979 269 1331 
Q 269 2054 582 2515 
Q 947 3034 1594 3034 
Q 1920 3034 2166 2909 
Q 2413 2784 2605 2515 
Q 2931 2048 2931 1331 
z
" transform="scale(0.015625)"/>
     </defs>
     <use xlink:href="#NanumGothicCoding-53"/>
     <use xlink:href="#NanumGothicCoding-74" transform="translate(49.999985 0)"/>
     <use xlink:href="#NanumGothicCoding-65" transform="translate(99.999969 0)"/>
     <use xlink:href="#NanumGothicCoding-65" transform="translate(149.999954 0)"/>
     <use xlink:href="#NanumGothicCoding-72" transform="translate(199.999939 0)"/>
     <use xlink:href="#NanumGothicCoding-69" transform="translate(249.999924 0)"/>
     <use xlink:href="#NanumGothicCoding-6e" transform="translate(299.999908 0)"/>
     <use xlink:href="#NanumGothicCoding-67" transform="translate(349.999893 0)"/>
     <use xlink:href="#NanumGothicCoding-20" transform="translate(399.999878 0)"/>
     <use xlink:href="#NanumGothicCoding-62" transform="translate(449.999863 0)"/>
     <use xlink:href="#NanumGothicCoding-65" transform="translate(499.999847 0)"/>
     <use xlink:href="#NanumGothicCoding-68" transform="translate(549.999832 0)"/>
     <use xlink:href="#NanumGothicCoding-61" transform="translate(599.999817 0)"/>
     <use xlink:href="#NanumGothicCoding-76" transform="translate(649.999802 0)"/>
     <use xlink:href="#NanumGothicCoding-69" transform="translate(699.999786 0)"/>
     <use xlink:href="#NanumGothicCoding-6f" transform="translate(749.999771 0)"/>
     <use xlink:href="#NanumGothicCoding-72" transform="translate(799.999756 0)"/>
    </g>
   </g>
   <g id="text_2">
    <!-- Seek / flee / arrive -->
    <g style="fill: #111827" transform="translate(17.3664 61.061832) scale(0.11 -0.11)">
     <defs>
      <path id="NanumGothicCoding-6b" d="M 1702 1510 
L 2957 -186 
Q 2976 -218 2969 -246 
Q 2963 -275 2925 -275 
L 2643 -275 
Q 2579 -275 2528 -256 
Q 2477 -237 2445 -186 
L 1434 1190 
L 998 672 
L 998 -186 
Q 998 -275 909 -275 
L 653 -275 
Q 563 -275 563 -186 
L 563 4346 
Q 563 4435 653 4435 
L 909 4435 
Q 998 4435 998 4346 
L 998 1261 
L 1165 1472 
L 2381 2944 
Q 2432 2989 2515 2989 
L 2842 2989 
Q 2880 2989 2893 2960 
Q 2906 2931 2874 2899 
L 1702 1510 
z
" transform="scale(0.015625)"/>
      <path id="NanumGothicCoding-2f" d="M 2650 4410 
Q 2726 4410 2736 4397 
Q 2746 4384 2720 4314 
L 934 -486 
Q 909 -544 896 -553 
Q 883 -563 813 -563 
L 544 -563 
Q 467 -563 457 -550 
Q 448 -538 474 -474 
L 2259 4320 
Q 2285 4384 2301 4397 
Q 2317 4410 2400 4410 
L 2650 4410 
z
" transform="scale(0.015625)"/>
      <path id="NanumGothicCoding-66" d="M 2694 4422 
Q 2765 4390 2758 4333 
L 2720 4109 
Q 2714 4070 2688 4060 
Q 2662 4051 2637 4064 
Q 2534 4109 2416 4134 
Q 2298 4160 2176 4160 
Q 1798 4160 1690 3782 
Q 1645 3629 1645 3110 
L 1645 2784 
L 2765 2784 
Q 2854 2784 2854 2694 
L 2854 2502 
Q 2854 2413 2765 2413 
L 1645 2413 
L 1645 -186 
Q 1645 -275 1555 -275 
L 1306 -275 
Q 1216 -275 1216 -186 
L 1216 2413 
L 442 2413 
Q 352 2413 352 2502 
L 352 2694 
Q 352 2784 442 2784 
L 1216 2784 
L 1216 3066 
Q 1216 3763 1344 4070 
Q 1542 4531 2138 4531 
Q 2438 4531 2694 4422 
z
" transform="scale(0.015625)"/>
      <path id="NanumGothicCoding-6c" d="M 2605 122 
Q 2694 122 2694 32 
L 2694 -186 
Q 2694 -275 2605 -275 
L 531 -275 
Q 442 -275 442 -186 
L 442 32 
Q 442 122 531 122 
L 1389 122 
L 1389 4032 
L 710 4032 
Q 621 4032 621 4122 
L 621 4339 
Q 621 4429 710 4429 
L 1760 4429 
Q 1850 4429 1850 4339 
L 1850 122 
L 2605 122 
z
" transform="scale(0.015625)"/>
     </defs>
     <use xlink:href="#NanumGothicCoding-53"/>
     <use xlink:href="#NanumGothicCoding-65" transform="translate(49.999985 0)"/>
     <use xlink:href="#NanumGothicCoding-65" transform="translate(99.999969 0)"/>
     <use xlink:href="#NanumGothicCoding-6b" transform="translate(149.999954 0)"/>
     <use xlink:href="#NanumGothicCoding-20" transform="translate(199.999939 0)"/>
     <use xlink:href="#NanumGothicCoding-2f" transform="translate(249.999924 0)"/>
     <use xlink:href="#NanumGothicCoding-20" transform="translate(299.999908 0)"/>
     <use xlink:href="#NanumGothicCoding-66" transform="translate(349.999893 0)"/>
     <use xlink:href="#NanumGothicCoding-6c" transform="translate(399.999878 0)"/>
     <use xlink:href="#NanumGothicCoding-65" transform="translate(449.999863 0)"/>
     <use xlink:href="#NanumGothicCoding-65" transform="translate(499.999847 0)"/>
     <use xlink:href="#NanumGothicCoding-20" transform="translate(549.999832 0)"/>
     <use xlink:href="#NanumGothicCoding-2f" transform="translate(599.999817 0)"/>
     <use xlink:href="#NanumGothicCoding-20" transform="translate(649.999802 0)"/>
     <use xlink:href="#NanumGothicCoding-61" transform="translate(699.999786 0)"/>
     <use xlink:href="#NanumGothicCoding-72" transform="translate(749.999771 0)"/>
     <use xlink:href="#NanumGothicCoding-72" transform="translate(799.999756 0)"/>
     <use xlink:href="#NanumGothicCoding-69" transform="translate(849.999741 0)"/>
     <use xlink:href="#NanumGothicCoding-76" transform="translate(899.999725 0)"/>
     <use xlink:href="#NanumGothicCoding-65" transform="translate(949.99971 0)"/>
    </g>
   </g>
   <g id="text_3">
    <!-- Path following -->
    <g style="fill: #111827" transform="translate(17.3664 84.04516) scale(0.11 -0.11)">
     <defs>
      <path id="NanumGothicCoding-50" d="M 2547 2835 
Q 2547 3194 2307 3440 
Q 2067 3686 1613 3686 
L 845 3686 
L 845 1965 
L 1171 1965 
Q 1542 1965 1756 1997 
Q 1971 2029 2147 2125 
Q 2323 2221 2425 2368 
Q 2528 2515 2547 2835 
z
M 845 -186 
Q 845 -275 755 -275 
L 474 -275 
Q 384 -275 384 -186 
L 384 3898 
Q 384 4038 413 4064 
Q 442 4090 576 4090 
L 1517 4090 
Q 2221 4090 2618 3750 
Q 3027 3398 3027 2835 
Q 3027 2502 2908 2284 
Q 2790 2067 2576 1897 
Q 2362 1728 2074 1645 
Q 1786 1562 1466 1562 
L 845 1562 
L 845 -186 
z
" transform="scale(0.015625)"/>
      <path id="NanumGothicCoding-77" d="M 2451 -205 
Q 2432 -275 2349 -275 
L 1971 -275 
Q 1894 -275 1869 -205 
L 1587 1894 
L 1542 2272 
L 1498 1894 
L 1222 -198 
Q 1203 -275 1107 -275 
L 755 -275 
Q 710 -275 681 -262 
Q 653 -250 640 -198 
L 154 2842 
Q 141 2874 160 2902 
Q 179 2931 218 2931 
L 474 2931 
Q 550 2931 589 2842 
L 883 653 
L 941 211 
L 998 672 
L 1242 2618 
Q 1274 2739 1389 2739 
L 1690 2739 
Q 1811 2739 1843 2618 
L 2093 672 
L 2150 211 
L 2214 653 
L 2502 2842 
Q 2515 2880 2547 2905 
Q 2579 2931 2618 2931 
L 2874 2931 
Q 2912 2931 2931 2902 
Q 2950 2874 2938 2842 
L 2451 -205 
z
" transform="scale(0.015625)"/>
     </defs>
     <use xlink:href="#NanumGothicCoding-50"/>
     <use xlink:href="#NanumGothicCoding-61" transform="translate(49.999985 0)"/>
     <use xlink:href="#NanumGothicCoding-74" transform="translate(99.999969 0)"/>
     <use xlink:href="#NanumGothicCoding-68" transform="translate(149.999954 0)"/>
     <use xlink:href="#NanumGothicCoding-20" transform="translate(199.999939 0)"/>
     <use xlink:href="#NanumGothicCoding-66" transform="translate(249.999924 0)"/>
     <use xlink:href="#NanumGothicCoding-6f" transform="translate(299.999908 0)"/>
     <use xlink:href="#NanumGothicCoding-6c" transform="translate(349.999893 0)"/>
     <use xlink:href="#NanumGothicCoding-6c" transform="translate(399.999878 0)"/>
     <use xlink:href="#NanumGothicCoding-6f" transform="translate(449.999863 0)"/>
     <use xlink:href="#NanumGothicCoding-77" transform="translate(499.999847 0)"/>
     <use xlink:href="#NanumGothicCoding-69" transform="translate(549.999832 0)"/>
     <use xlink:href="#NanumGothicCoding-6e" transform="translate(599.999817 0)"/>
     <use xlink:href="#NanumGothicCoding-67" transform="translate(649.999802 0)"/>
    </g>
   </g>
   <g id="text_4">
    <!-- Raycast -->
    <g style="fill: #111827" transform="translate(17.3664 106.665832) scale(0.11 -0.11)">
     <defs>
      <path id="NanumGothicCoding-52" d="M 2349 2842 
Q 2349 3091 2288 3232 
Q 2227 3373 2089 3481 
Q 1952 3590 1760 3641 
Q 1568 3693 1184 3693 
L 826 3693 
L 826 1965 
L 1197 1965 
Q 1459 1965 1660 2016 
Q 1862 2067 2022 2176 
Q 2182 2285 2265 2457 
Q 2349 2630 2349 2842 
z
M 3110 -186 
Q 3123 -218 3110 -246 
Q 3098 -275 3059 -275 
L 2726 -275 
Q 2630 -275 2586 -186 
Q 2272 384 2128 643 
Q 1984 902 1818 1210 
Q 1715 1395 1606 1606 
Q 1453 1581 1305 1571 
Q 1158 1562 1011 1562 
L 826 1562 
L 826 -186 
Q 826 -275 736 -275 
L 448 -275 
Q 358 -275 358 -186 
L 358 3898 
Q 358 3968 361 4006 
Q 365 4045 384 4064 
Q 403 4083 441 4086 
Q 480 4090 550 4090 
L 1408 4090 
Q 1773 4090 2038 3990 
Q 2304 3891 2480 3721 
Q 2656 3552 2742 3341 
Q 2829 3130 2829 2842 
Q 2829 2650 2787 2486 
Q 2746 2323 2627 2163 
Q 2509 2003 2358 1897 
Q 2208 1792 2003 1734 
L 3110 -186 
z
" transform="scale(0.015625)"/>
      <path id="NanumGothicCoding-79" d="M 365 -1222 
Q 288 -1203 301 -1126 
L 320 -890 
Q 320 -813 397 -845 
Q 506 -883 634 -883 
Q 768 -883 880 -851 
Q 992 -819 1050 -749 
Q 1120 -659 1206 -454 
Q 1293 -250 1376 13 
Q 1088 794 326 2842 
Q 314 2874 326 2902 
Q 339 2931 378 2931 
L 653 2931 
Q 742 2931 781 2842 
L 1587 589 
L 2419 2842 
Q 2451 2931 2547 2931 
L 2822 2931 
Q 2861 2931 2873 2902 
Q 2886 2874 2874 2842 
L 1606 -474 
Q 1536 -659 1449 -806 
Q 1363 -954 1274 -1043 
Q 1158 -1152 1017 -1206 
Q 877 -1261 723 -1261 
Q 627 -1261 547 -1254 
Q 467 -1248 365 -1222 
z
" transform="scale(0.015625)"/>
      <path id="NanumGothicCoding-63" d="M 2624 -288 
Q 2451 -333 2310 -349 
Q 2170 -365 1952 -365 
Q 1581 -365 1289 -233 
Q 998 -102 780 128 
Q 563 358 454 668 
Q 346 979 346 1338 
Q 346 1702 461 2009 
Q 576 2317 787 2541 
Q 998 2765 1289 2896 
Q 1581 3027 1952 3027 
Q 2150 3027 2297 3011 
Q 2445 2995 2630 2950 
Q 2714 2931 2707 2842 
L 2688 2624 
Q 2675 2547 2598 2566 
Q 2445 2618 2307 2640 
Q 2170 2662 2010 2662 
Q 1741 2662 1507 2556 
Q 1274 2451 1126 2272 
Q 979 2093 899 1853 
Q 819 1613 819 1338 
Q 819 1088 902 848 
Q 986 608 1130 419 
Q 1274 230 1507 115 
Q 1741 0 2010 0 
Q 2170 0 2298 19 
Q 2426 38 2592 96 
Q 2662 115 2688 51 
L 2707 -179 
Q 2714 -269 2624 -288 
z
" transform="scale(0.015625)"/>
      <path id="NanumGothicCoding-73" d="M 582 147 
Q 992 -13 1427 -13 
Q 1792 -13 2045 169 
Q 2298 352 2298 538 
Q 2298 710 2157 838 
Q 2016 966 1811 1069 
Q 1594 1184 1386 1289 
Q 1178 1395 966 1504 
Q 723 1626 611 1802 
Q 499 1978 499 2144 
Q 499 2349 588 2509 
Q 678 2669 832 2790 
Q 986 2912 1206 2973 
Q 1427 3034 1677 3034 
Q 1907 3034 2099 3008 
Q 2291 2982 2496 2918 
Q 2541 2906 2569 2880 
Q 2598 2854 2592 2816 
L 2573 2611 
Q 2566 2560 2531 2547 
Q 2496 2534 2464 2547 
Q 2278 2618 2105 2643 
Q 1933 2669 1722 2669 
Q 947 2669 947 2144 
Q 947 2048 1049 1942 
Q 1152 1837 1402 1728 
Q 1645 1613 1840 1520 
Q 2035 1427 2272 1299 
Q 2554 1133 2659 953 
Q 2765 774 2765 544 
Q 2765 358 2656 166 
Q 2547 -26 2364 -141 
Q 2182 -256 1945 -317 
Q 1709 -378 1466 -378 
Q 1312 -378 1193 -371 
Q 1075 -365 969 -352 
Q 864 -339 758 -320 
Q 653 -301 538 -269 
Q 435 -237 442 -160 
L 474 90 
Q 493 186 582 147 
z
" transform="scale(0.015625)"/>
     </defs>
     <use xlink:href="#NanumGothicCoding-52"/>
     <use xlink:href="#NanumGothicCoding-61" transform="translate(49.999985 0)"/>
     <use xlink:href="#NanumGothicCoding-79" transform="translate(99.999969 0)"/>
     <use xlink:href="#NanumGothicCoding-63" transform="translate(149.999954 0)"/>
     <use xlink:href="#NanumGothicCoding-61" transform="translate(199.999939 0)"/>
     <use xlink:href="#NanumGothicCoding-73" transform="translate(249.999924 0)"/>
     <use xlink:href="#NanumGothicCoding-74" transform="translate(299.999908 0)"/>
    </g>
   </g>
   <g id="text_5">
    <!-- Hit test -->
    <g style="fill: #111827" transform="translate(17.3664 129.48588) scale(0.11 -0.11)">
     <defs>
      <path id="NanumGothicCoding-48" d="M 2829 -186 
Q 2829 -275 2739 -275 
L 2451 -275 
Q 2362 -275 2362 -186 
L 2362 1786 
L 832 1786 
L 832 -186 
Q 832 -275 742 -275 
L 454 -275 
Q 365 -275 365 -186 
L 365 4000 
Q 365 4090 454 4090 
L 742 4090 
Q 832 4090 832 4000 
L 832 2189 
L 2362 2189 
L 2362 4000 
Q 2362 4090 2451 4090 
L 2739 4090 
Q 2829 4090 2829 4000 
L 2829 -186 
z
" transform="scale(0.015625)"/>
     </defs>
     <use xlink:href="#NanumGothicCoding-48"/>
     <use xlink:href="#NanumGothicCoding-69" transform="translate(49.999985 0)"/>
     <use xlink:href="#NanumGothicCoding-74" transform="translate(99.999969 0)"/>
     <use xlink:href="#NanumGothicCoding-20" transform="translate(149.999954 0)"/>
     <use xlink:href="#NanumGothicCoding-74" transform="translate(199.999939 0)"/>
     <use xlink:href="#NanumGothicCoding-65" transform="translate(249.999924 0)"/>
     <use xlink:href="#NanumGothicCoding-73" transform="translate(299.999908 0)"/>
     <use xlink:href="#NanumGothicCoding-74" transform="translate(349.999893 0)"/>
    </g>
   </g>
   <g id="text_6">
    <!-- Animation blending -->
    <g style="fill: #111827" transform="translate(17.3664 152.336864) scale(0.11 -0.11)">
     <defs>
      <path id="NanumGothicCoding-41" d="M 2170 1402 
L 1619 3603 
L 1056 1402 
L 2170 1402 
z
M 3046 -186 
Q 3078 -275 2989 -275 
L 2688 -275 
Q 2650 -275 2621 -262 
Q 2592 -250 2566 -186 
L 2259 992 
L 954 992 
L 627 -186 
Q 602 -250 573 -262 
Q 544 -275 506 -275 
L 205 -275 
Q 115 -275 147 -186 
L 1325 4013 
Q 1357 4090 1440 4090 
L 1830 4090 
Q 1914 4090 1946 4013 
L 3046 -186 
z
" transform="scale(0.015625)"/>
      <path id="NanumGothicCoding-6d" d="M 269 2118 
Q 269 2387 262 2544 
Q 256 2701 243 2842 
Q 243 2931 333 2931 
L 570 2931 
Q 659 2931 659 2842 
L 653 2566 
Q 698 2771 832 2889 
Q 966 3008 1101 3008 
Q 1338 3008 1482 2816 
Q 1626 2624 1664 2362 
Q 1683 2573 1804 2777 
Q 1926 2982 2202 3008 
Q 2445 3008 2585 2921 
Q 2726 2835 2809 2675 
Q 2893 2515 2925 2304 
Q 2957 2093 2957 1856 
L 2957 -186 
Q 2957 -275 2867 -275 
L 2624 -275 
Q 2534 -275 2534 -192 
L 2534 1766 
Q 2534 2611 2195 2611 
Q 2067 2611 1990 2508 
Q 1914 2406 1878 2252 
Q 1843 2099 1827 1868 
Q 1811 1638 1818 1382 
L 1818 -186 
Q 1818 -275 1728 -275 
L 1498 -275 
Q 1408 -275 1408 -186 
L 1408 1766 
Q 1389 2611 1050 2611 
Q 870 2611 777 2355 
Q 685 2099 691 1619 
L 691 -186 
Q 691 -275 602 -275 
L 358 -275 
Q 269 -275 269 -186 
L 269 2118 
z
" transform="scale(0.015625)"/>
      <path id="NanumGothicCoding-64" d="M 2816 -192 
Q 2816 -275 2726 -275 
L 2477 -275 
Q 2387 -275 2387 -192 
L 2387 275 
Q 2125 -339 1491 -339 
Q 1197 -339 957 -198 
Q 717 -58 544 208 
Q 371 474 297 781 
Q 224 1088 224 1427 
Q 224 2029 557 2531 
Q 890 3034 1491 3034 
Q 1811 3034 2038 2874 
Q 2266 2714 2387 2464 
L 2387 4371 
Q 2387 4454 2477 4454 
L 2726 4454 
Q 2816 4454 2816 4371 
L 2816 -192 
z
M 678 1357 
Q 672 1158 717 924 
Q 762 691 867 483 
Q 973 275 1133 153 
Q 1293 32 1530 32 
Q 1766 32 1926 153 
Q 2086 275 2192 483 
Q 2298 691 2336 924 
Q 2374 1158 2374 1357 
Q 2374 1542 2336 1782 
Q 2298 2022 2192 2227 
Q 2086 2432 1926 2553 
Q 1766 2675 1530 2675 
Q 1293 2675 1133 2553 
Q 973 2432 864 2227 
Q 755 2022 713 1782 
Q 672 1542 678 1357 
z
" transform="scale(0.015625)"/>
     </defs>
     <use xlink:href="#NanumGothicCoding-41"/>
     <use xlink:href="#NanumGothicCoding-6e" transform="translate(49.999985 0)"/>
     <use xlink:href="#NanumGothicCoding-69" transform="translate(99.999969 0)"/>
     <use xlink:href="#NanumGothicCoding-6d" transform="translate(149.999954 0)"/>
     <use xlink:href="#NanumGothicCoding-61" transform="translate(199.999939 0)"/>
     <use xlink:href="#NanumGothicCoding-74" transform="translate(249.999924 0)"/>
     <use xlink:href="#NanumGothicCoding-69" transform="translate(299.999908 0)"/>
     <use xlink:href="#NanumGothicCoding-6f" transform="translate(349.999893 0)"/>
     <use xlink:href="#NanumGothicCoding-6e" transform="translate(399.999878 0)"/>
     <use xlink:href="#NanumGothicCoding-20" transform="translate(449.999863 0)"/>
     <use xlink:href="#NanumGothicCoding-62" transform="translate(499.999847 0)"/>
     <use xlink:href="#NanumGothicCoding-6c" transform="translate(549.999832 0)"/>
     <use xlink:href="#NanumGothicCoding-65" transform="translate(599.999817 0)"/>
     <use xlink:href="#NanumGothicCoding-6e" transform="translate(649.999802 0)"/>
     <use xlink:href="#NanumGothicCoding-64" transform="translate(699.999786 0)"/>
     <use xlink:href="#NanumGothicCoding-69" transform="translate(749.999771 0)"/>
     <use xlink:href="#NanumGothicCoding-6e" transform="translate(799.999756 0)"/>
     <use xlink:href="#NanumGothicCoding-67" transform="translate(849.999741 0)"/>
    </g>
   </g>
   <g id="text_7">
    <!-- Camera follow -->
    <g style="fill: #111827" transform="translate(17.3664 175.101912) scale(0.11 -0.11)">
     <defs>
      <path id="NanumGothicCoding-43" d="M 2682 205 
Q 2714 218 2736 208 
Q 2758 198 2758 160 
L 2771 -90 
Q 2778 -173 2701 -205 
Q 2541 -275 2374 -307 
Q 2208 -339 2035 -339 
Q 1261 -339 774 339 
Q 557 672 451 1085 
Q 346 1498 346 1920 
Q 346 2304 451 2717 
Q 557 3130 774 3462 
Q 1261 4141 2035 4141 
Q 2208 4141 2374 4109 
Q 2541 4077 2701 4006 
Q 2778 3974 2771 3891 
L 2758 3642 
Q 2758 3603 2736 3593 
Q 2714 3584 2682 3597 
Q 2534 3661 2384 3699 
Q 2234 3738 2035 3738 
Q 1485 3738 1120 3168 
Q 954 2893 874 2550 
Q 794 2208 794 1920 
Q 794 1594 874 1251 
Q 954 909 1120 634 
Q 1485 64 2035 64 
Q 2253 64 2393 102 
Q 2534 141 2682 205 
z
" transform="scale(0.015625)"/>
     </defs>
     <use xlink:href="#NanumGothicCoding-43"/>
     <use xlink:href="#NanumGothicCoding-61" transform="translate(49.999985 0)"/>
     <use xlink:href="#NanumGothicCoding-6d" transform="translate(99.999969 0)"/>
     <use xlink:href="#NanumGothicCoding-65" transform="translate(149.999954 0)"/>
     <use xlink:href="#NanumGothicCoding-72" transform="translate(199.999939 0)"/>
     <use xlink:href="#NanumGothicCoding-61" transform="translate(249.999924 0)"/>
     <use xlink:href="#NanumGothicCoding-20" transform="translate(299.999908 0)"/>
     <use xlink:href="#NanumGothicCoding-66" transform="translate(349.999893 0)"/>
     <use xlink:href="#NanumGothicCoding-6f" transform="translate(399.999878 0)"/>
     <use xlink:href="#NanumGothicCoding-6c" transform="translate(449.999863 0)"/>
     <use xlink:href="#NanumGothicCoding-6c" transform="translate(499.999847 0)"/>
     <use xlink:href="#NanumGothicCoding-6f" transform="translate(549.999832 0)"/>
     <use xlink:href="#NanumGothicCoding-77" transform="translate(599.999817 0)"/>
    </g>
   </g>
  </g>
 </g>
 <defs>
  <clipPath id="p2203707bcd">
   <rect x="5.76" y="5.76" width="290.16" height="207.3456"/>
  </clipPath>
 </defs>
</svg>
