<?xml version="1.0" encoding="utf-8" standalone="no"?>
<!DOCTYPE svg PUBLIC "-//W3C//DTD SVG 1.1//EN"
  "http://www.w3.org/Graphics/SVG/1.1/DTD/svg11.dtd">
<svg xmlns:xlink="http://www.w3.org/1999/xlink" width="463.68pt" height="242.188125pt" viewBox="0 0 463.68 242.188125" xmlns="http://www.w3.org/2000/svg" version="1.1">
 <metadata>
  <rdf:RDF xmlns:dc="http://purl.org/dc/elements/1.1/" xmlns:cc="http://creativecommons.org/ns#" xmlns:rdf="http://www.w3.org/1999/02/22-rdf-syntax-ns#">
   <cc:Work>
    <dc:type rdf:resource="http://purl.org/dc/dcmitype/StillImage"/>
    <dc:date>2026-07-08T05:12:56.438262</dc:date>
    <dc:format>image/svg+xml</dc:format>
    <dc:creator>
     <cc:Agent>
      <dc:title>Matplotlib v3.10.8, https://matplotlib.org/</dc:title>
     </cc:Agent>
    </dc:creator>
   </cc:Work>
  </rdf:RDF>
 </metadata>
 <defs>
  <style type="text/css">*{stroke-linejoin: round; stroke-linecap: butt}</style>
 </defs>
 <g id="figure_1">
  <g id="patch_1">
   <path d="M 0 242.188125 
L 463.68 242.188125 
L 463.68 0 
L 0 0 
z
" style="fill: #ffffff"/>
  </g>
  <g id="axes_1">
   <g id="patch_2">
    <path d="M 75.6 110.788125 
L 120.24 73.588125 
L 161.16 107.068125 
L 127.68 136.828125 
L 75.6 110.788125 
z
" clip-path="url(#pd04f675374)" style="fill: none; stroke: #2563eb; stroke-width: 2.2; stroke-linejoin: miter"/>
   </g>
   <g id="patch_3">
    <path d="M 187.2 95.908125 
L 235.56 69.868125 
L 265.32 114.508125 
L 213.24 136.828125 
L 187.2 95.908125 
z
" clip-path="url(#pd04f675374)" style="fill: none; stroke: #10b981; stroke-width: 2.2; stroke-linejoin: miter"/>
   </g>
   <g id="line2d_1">
    <path d="M 45.84 188.908125 
L 410.4 188.908125 
" clip-path="url(#pd04f675374)" style="fill: none; stroke: #111827; stroke-width: 1.8; stroke-linecap: square"/>
   </g>
   <g id="line2d_2">
    <path d="M 97.92 206.764125 
L 216.96 206.764125 
" clip-path="url(#pd04f675374)" style="fill: none; stroke: #2563eb; stroke-width: 8"/>
   </g>
   <g id="line2d_3">
    <path d="M 176.04 206.764125 
L 269.04 206.764125 
" clip-path="url(#pd04f675374)" style="fill: none; stroke: #10b981; stroke-width: 8"/>
   </g>
   <g id="line2d_4">
    <path d="M 176.04 206.764125 
L 216.96 206.764125 
" clip-path="url(#pd04f675374)" style="fill: none; stroke: #ef4444; stroke-width: 10"/>
   </g>
   <g id="text_1">
    <!-- SAT: 이 축에서는 겹침, 다른 축도 확인해야 한다 -->
    <g style="fill: #111827" transform="translate(8.64 20.337656) scale(0.15 -0.15)">
     <defs>
      <path id="NanumGothicBold-53" d="M 2784 26 
Q 2618 -154 2358 -278 
Q 2099 -403 1811 -429 
Q 1658 -442 1469 -429 
Q 1280 -416 1104 -387 
Q 928 -358 784 -323 
Q 640 -288 576 -256 
Q 480 -211 461 -188 
Q 442 -166 454 -96 
L 499 378 
Q 506 429 531 441 
Q 557 454 627 422 
Q 704 390 845 348 
Q 986 307 1158 278 
Q 1331 250 1507 243 
Q 1683 237 1824 269 
Q 2010 314 2125 387 
Q 2240 461 2307 560 
Q 2374 659 2400 777 
Q 2426 896 2426 1024 
Q 2426 1146 2269 1357 
Q 2112 1568 1818 1741 
Q 1459 1952 1196 2134 
Q 934 2317 764 2496 
Q 595 2675 512 2867 
Q 429 3059 429 3290 
Q 429 3552 541 3792 
Q 653 4032 848 4211 
Q 1043 4390 1315 4496 
Q 1587 4602 1914 4602 
Q 2246 4602 2460 4560 
Q 2675 4518 2829 4461 
Q 2899 4435 2915 4406 
Q 2931 4378 2918 4333 
L 2835 3923 
Q 2822 3853 2793 3827 
Q 2765 3802 2694 3827 
Q 2598 3859 2483 3888 
Q 2368 3917 2246 3936 
Q 2125 3955 2013 3961 
Q 1901 3968 1811 3955 
Q 1453 3898 1309 3722 
Q 1165 3546 1165 3277 
Q 1165 3117 1331 2921 
Q 1498 2726 1818 2534 
Q 2221 2291 2480 2099 
Q 2739 1907 2889 1731 
Q 3040 1555 3101 1376 
Q 3162 1197 3162 986 
Q 3162 422 2784 26 
z
" transform="scale(0.015625)"/>
      <path id="NanumGothicBold-41" d="M 3949 -320 
Q 3904 -320 3885 -310 
Q 3866 -301 3846 -256 
L 3386 896 
L 1299 896 
L 838 -256 
Q 826 -301 806 -310 
Q 787 -320 742 -320 
L 154 -320 
Q 38 -320 77 -230 
L 1946 4435 
Q 1965 4486 1974 4496 
Q 1984 4506 2048 4506 
L 2643 4506 
Q 2701 4506 2713 4496 
Q 2726 4486 2746 4435 
L 4614 -230 
Q 4646 -320 4538 -320 
L 3949 -320 
z
M 1562 1568 
L 3117 1568 
L 2342 3539 
L 1562 1568 
z
" transform="scale(0.015625)"/>
      <path id="NanumGothicBold-54" d="M 2138 3834 
L 2138 -243 
Q 2138 -320 2061 -320 
L 1491 -320 
Q 1414 -320 1414 -243 
L 1414 3834 
L 173 3834 
Q 141 3834 118 3856 
Q 96 3878 96 3917 
L 96 4429 
Q 96 4461 118 4483 
Q 141 4506 173 4506 
L 3386 4506 
Q 3418 4506 3440 4483 
Q 3462 4461 3462 4429 
L 3462 3917 
Q 3462 3834 3386 3834 
L 2138 3834 
z
" transform="scale(0.015625)"/>
      <path id="NanumGothicBold-3a" d="M 1011 3053 
Q 806 3053 662 3197 
Q 518 3341 518 3533 
Q 518 3731 662 3875 
Q 806 4019 1011 4019 
Q 1216 4019 1357 3875 
Q 1498 3731 1498 3533 
Q 1498 3341 1357 3197 
Q 1216 3053 1011 3053 
z
M 1011 141 
Q 806 141 662 285 
Q 518 429 518 627 
Q 518 819 662 963 
Q 806 1107 1011 1107 
Q 1216 1107 1357 963 
Q 1498 819 1498 627 
Q 1498 429 1357 285 
Q 1216 141 1011 141 
z
" transform="scale(0.015625)"/>
      <path id="NanumGothicBold-20" transform="scale(0.015625)"/>
      <path id="NanumGothicBold-c774" d="M 5274 -928 
Q 5274 -1011 5190 -1011 
L 4621 -1011 
Q 4538 -1011 4538 -928 
L 4538 4979 
Q 4538 5062 4621 5062 
L 5190 5062 
Q 5274 5062 5274 4979 
L 5274 -928 
z
M 2963 2573 
Q 2963 2867 2905 3132 
Q 2848 3398 2739 3596 
Q 2630 3795 2473 3910 
Q 2317 4026 2112 4026 
Q 1907 4026 1750 3910 
Q 1594 3795 1485 3596 
Q 1376 3398 1318 3132 
Q 1261 2867 1261 2573 
Q 1261 2285 1318 2019 
Q 1376 1754 1485 1552 
Q 1594 1350 1750 1232 
Q 1907 1114 2112 1114 
Q 2317 1114 2473 1232 
Q 2630 1350 2739 1552 
Q 2848 1754 2905 2019 
Q 2963 2285 2963 2573 
z
M 2112 461 
Q 1747 461 1452 614 
Q 1158 768 956 1046 
Q 755 1325 646 1715 
Q 538 2106 538 2573 
Q 538 3053 646 3443 
Q 755 3834 956 4106 
Q 1158 4378 1452 4528 
Q 1747 4678 2112 4678 
Q 2483 4678 2774 4528 
Q 3066 4378 3267 4106 
Q 3469 3834 3577 3443 
Q 3686 3053 3686 2573 
Q 3686 2093 3577 1702 
Q 3469 1312 3267 1037 
Q 3066 762 2774 611 
Q 2483 461 2112 461 
z
" transform="scale(0.015625)"/>
      <path id="NanumGothicBold-cd95" d="M 4960 -928 
Q 4960 -960 4931 -989 
Q 4902 -1018 4870 -1018 
L 4320 -1018 
Q 4282 -1018 4253 -989 
Q 4224 -960 4224 -928 
L 4224 147 
Q 4224 218 4198 237 
Q 4173 256 4102 256 
L 998 256 
Q 966 256 937 278 
Q 909 301 909 333 
L 909 774 
Q 909 813 937 835 
Q 966 858 998 858 
L 2630 858 
L 2630 1357 
L 211 1357 
Q 122 1357 122 1446 
L 122 1850 
Q 122 1888 147 1917 
Q 173 1946 211 1946 
L 5779 1946 
Q 5811 1946 5843 1914 
Q 5875 1882 5875 1850 
L 5875 1446 
Q 5875 1414 5843 1385 
Q 5811 1357 5779 1357 
L 3366 1357 
L 3366 858 
L 4538 858 
Q 4781 858 4870 755 
Q 4960 653 4960 410 
L 4960 -928 
z
M 979 2240 
Q 934 2227 883 2243 
Q 832 2259 819 2298 
L 710 2669 
Q 698 2707 723 2745 
Q 749 2784 794 2797 
Q 1562 2944 2224 3133 
Q 2886 3322 3424 3571 
Q 3482 3597 3498 3613 
Q 3514 3629 3504 3638 
Q 3494 3648 3468 3651 
Q 3443 3654 3424 3654 
L 1216 3654 
Q 1126 3654 1126 3738 
L 1126 4128 
Q 1126 4205 1216 4205 
L 4122 4205 
Q 4403 4205 4537 4112 
Q 4672 4019 4672 3904 
Q 4672 3795 4605 3692 
Q 4538 3590 4442 3507 
Q 4230 3302 3840 3110 
Q 4160 3040 4518 2976 
Q 4877 2912 5222 2861 
Q 5274 2848 5293 2806 
Q 5312 2765 5299 2726 
L 5203 2394 
Q 5190 2362 5148 2333 
Q 5107 2304 5050 2317 
Q 4589 2387 4051 2505 
Q 3514 2624 3021 2771 
Q 2554 2605 2026 2467 
Q 1498 2330 979 2240 
z
M 3859 4563 
Q 3859 4525 3827 4493 
Q 3795 4461 3750 4461 
L 2112 4461 
Q 2086 4461 2051 4486 
Q 2016 4512 2016 4557 
L 2016 4909 
Q 2016 4954 2051 4979 
Q 2086 5005 2112 5005 
L 3750 5005 
Q 3789 5005 3824 4973 
Q 3859 4941 3859 4902 
L 3859 4563 
z
" transform="scale(0.015625)"/>
      <path id="NanumGothicBold-c5d0" d="M 2342 2630 
Q 2342 2874 2304 3117 
Q 2266 3360 2182 3558 
Q 2099 3757 1968 3878 
Q 1837 4000 1658 4000 
Q 1491 4000 1369 3875 
Q 1248 3750 1171 3552 
Q 1094 3354 1056 3110 
Q 1018 2867 1018 2630 
Q 1018 2400 1056 2157 
Q 1094 1914 1171 1712 
Q 1248 1510 1369 1382 
Q 1491 1254 1658 1254 
Q 1837 1254 1965 1382 
Q 2093 1510 2176 1708 
Q 2259 1907 2300 2150 
Q 2342 2394 2342 2630 
z
M 4314 -717 
Q 4314 -806 4230 -806 
L 3706 -806 
Q 3616 -806 3616 -717 
L 3616 2291 
L 3034 2291 
Q 3002 1901 2883 1593 
Q 2765 1286 2582 1072 
Q 2400 858 2163 746 
Q 1926 634 1651 634 
Q 1344 634 1094 771 
Q 845 909 669 1168 
Q 493 1427 397 1798 
Q 301 2170 301 2637 
Q 301 3142 403 3520 
Q 506 3898 685 4147 
Q 864 4397 1110 4518 
Q 1357 4640 1651 4640 
Q 1933 4640 2176 4534 
Q 2419 4429 2604 4214 
Q 2790 4000 2905 3673 
Q 3021 3347 3046 2906 
L 3616 2906 
L 3616 4870 
Q 3616 4954 3706 4954 
L 4230 4954 
Q 4314 4954 4314 4870 
L 4314 -717 
z
M 5549 -934 
Q 5549 -1018 5466 -1018 
L 4909 -1018 
Q 4826 -1018 4826 -934 
L 4826 4979 
Q 4826 5062 4915 5062 
L 5466 5062 
Q 5549 5062 5549 4979 
L 5549 -934 
z
" transform="scale(0.015625)"/>
      <path id="NanumGothicBold-c11c" d="M 5382 -928 
Q 5382 -1011 5299 -1011 
L 4730 -1011 
Q 4646 -1011 4646 -928 
L 4646 2458 
L 3328 2458 
Q 3296 2458 3267 2483 
Q 3238 2509 3238 2541 
L 3238 2995 
Q 3238 3027 3267 3049 
Q 3296 3072 3328 3072 
L 4646 3072 
L 4646 4979 
Q 4646 5062 4730 5062 
L 5299 5062 
Q 5382 5062 5382 4979 
L 5382 -928 
z
M 800 339 
Q 678 243 576 346 
L 275 627 
Q 186 717 294 819 
Q 710 1203 1004 1664 
Q 1299 2125 1478 2650 
Q 1638 3117 1699 3600 
Q 1760 4083 1747 4653 
Q 1747 4691 1776 4720 
Q 1805 4749 1837 4749 
L 2406 4730 
Q 2438 4730 2464 4701 
Q 2490 4672 2490 4634 
Q 2490 3846 2374 3187 
Q 2432 2880 2566 2569 
Q 2701 2259 2883 1974 
Q 3066 1690 3277 1446 
Q 3488 1203 3699 1037 
Q 3802 960 3712 832 
L 3443 506 
Q 3411 461 3356 454 
Q 3302 448 3238 493 
Q 3078 614 2902 800 
Q 2726 986 2566 1200 
Q 2406 1414 2272 1641 
Q 2138 1869 2061 2080 
Q 1946 1811 1798 1561 
Q 1651 1312 1488 1085 
Q 1325 858 1149 669 
Q 973 480 800 339 
z
" transform="scale(0.015625)"/>
      <path id="NanumGothicBold-b294" d="M 5158 -787 
Q 5158 -826 5126 -845 
Q 5094 -864 5062 -864 
L 1542 -864 
Q 1248 -864 1149 -761 
Q 1050 -659 1050 -410 
L 1050 979 
Q 1050 1011 1078 1040 
Q 1107 1069 1139 1069 
L 1690 1069 
Q 1728 1069 1757 1040 
Q 1786 1011 1786 979 
L 1786 -147 
Q 1786 -211 1811 -230 
Q 1837 -250 1907 -250 
L 5062 -250 
Q 5094 -250 5126 -272 
Q 5158 -294 5158 -326 
L 5158 -787 
z
M 5082 2874 
Q 5082 2829 5053 2809 
Q 5024 2790 4992 2790 
L 1562 2790 
Q 1267 2790 1168 2896 
Q 1069 3002 1069 3251 
L 1069 4858 
Q 1069 4890 1097 4918 
Q 1126 4947 1158 4947 
L 1715 4947 
Q 1754 4947 1782 4918 
Q 1811 4890 1811 4858 
L 1811 3507 
Q 1811 3443 1836 3424 
Q 1862 3405 1933 3405 
L 4992 3405 
Q 5024 3405 5053 3382 
Q 5082 3360 5082 3328 
L 5082 2874 
z
M 5875 1619 
Q 5875 1587 5843 1552 
Q 5811 1517 5779 1517 
L 211 1517 
Q 173 1517 147 1549 
Q 122 1581 122 1619 
L 122 2042 
Q 122 2131 211 2131 
L 5779 2131 
Q 5811 2131 5843 2102 
Q 5875 2074 5875 2042 
L 5875 1619 
z
" transform="scale(0.015625)"/>
      <path id="NanumGothicBold-acb9" d="M 3462 4454 
Q 3462 4403 3446 4313 
Q 3430 4224 3411 4154 
L 4544 4154 
L 4544 4979 
Q 4544 5062 4627 5062 
L 5197 5062 
Q 5280 5062 5280 4979 
L 5280 1894 
Q 5280 1805 5197 1805 
L 4627 1805 
Q 4544 1805 4544 1888 
L 4544 2349 
L 3168 2349 
Q 3136 2349 3107 2374 
Q 3078 2400 3078 2432 
L 3078 2854 
Q 3078 2893 3107 2915 
Q 3136 2938 3168 2938 
L 4544 2938 
L 4544 3571 
L 3187 3571 
Q 2880 2944 2307 2483 
Q 1734 2022 877 1677 
Q 730 1613 672 1734 
L 512 2048 
Q 486 2099 496 2156 
Q 506 2214 570 2246 
Q 973 2419 1315 2627 
Q 1658 2835 1926 3068 
Q 2195 3302 2371 3552 
Q 2547 3802 2618 4064 
Q 2643 4173 2643 4211 
Q 2643 4250 2534 4250 
L 787 4250 
Q 742 4250 720 4278 
Q 698 4307 698 4346 
L 698 4749 
Q 698 4838 794 4838 
L 2938 4838 
Q 3219 4838 3340 4748 
Q 3462 4659 3462 4454 
z
M 5280 -486 
Q 5280 -704 5177 -809 
Q 5075 -915 4800 -915 
L 1971 -915 
Q 1690 -915 1587 -819 
Q 1485 -723 1485 -467 
L 1485 1395 
Q 1485 1427 1510 1449 
Q 1536 1472 1568 1472 
L 2131 1472 
Q 2163 1472 2192 1449 
Q 2221 1427 2221 1395 
L 2221 819 
L 4544 819 
L 4544 1421 
Q 4544 1453 4569 1478 
Q 4595 1504 4627 1504 
L 5197 1504 
Q 5229 1504 5254 1478 
Q 5280 1453 5280 1421 
L 5280 -486 
z
M 4544 224 
L 2221 224 
L 2221 -205 
Q 2221 -314 2336 -314 
L 4429 -314 
Q 4544 -314 4544 -205 
L 4544 224 
z
" transform="scale(0.015625)"/>
      <path id="NanumGothicBold-ce68" d="M 5216 -454 
Q 5216 -698 5110 -800 
Q 5005 -902 4762 -902 
L 1971 -902 
Q 1683 -902 1584 -800 
Q 1485 -698 1485 -448 
L 1485 608 
Q 1485 851 1590 960 
Q 1696 1069 1939 1069 
L 4730 1069 
Q 5018 1069 5117 966 
Q 5216 864 5216 602 
L 5216 -454 
z
M 813 1338 
Q 781 1325 720 1331 
Q 659 1338 627 1395 
L 454 1728 
Q 422 1779 448 1824 
Q 474 1869 518 1888 
Q 870 2042 1193 2230 
Q 1517 2419 1782 2620 
Q 2048 2822 2243 3024 
Q 2438 3226 2528 3398 
Q 2554 3443 2557 3468 
Q 2560 3494 2458 3494 
L 813 3494 
Q 730 3494 730 3597 
L 730 4013 
Q 730 4090 819 4090 
L 2963 4090 
Q 3219 4090 3356 4016 
Q 3494 3942 3494 3770 
Q 3494 3706 3462 3610 
Q 3430 3514 3398 3443 
Q 3238 3117 2893 2739 
Q 3002 2643 3133 2550 
Q 3264 2458 3401 2374 
Q 3539 2291 3670 2224 
Q 3802 2157 3917 2118 
Q 3987 2093 4000 2045 
Q 4013 1997 3981 1939 
L 3795 1632 
Q 3738 1517 3597 1574 
Q 3482 1619 3334 1702 
Q 3187 1786 3030 1885 
Q 2874 1984 2720 2096 
Q 2566 2208 2445 2317 
Q 2099 2029 1689 1776 
Q 1280 1523 813 1338 
z
M 5216 1472 
Q 5216 1389 5133 1389 
L 4563 1389 
Q 4480 1389 4480 1478 
L 4480 4979 
Q 4480 5062 4563 5062 
L 5133 5062 
Q 5216 5062 5216 4979 
L 5216 1472 
z
M 4486 397 
Q 4486 448 4470 464 
Q 4454 480 4403 480 
L 2298 480 
Q 2246 480 2230 467 
Q 2214 454 2214 403 
L 2214 -230 
Q 2214 -288 2230 -301 
Q 2246 -314 2298 -314 
L 4403 -314 
Q 4454 -314 4470 -301 
Q 4486 -288 4486 -230 
L 4486 397 
z
M 2950 4538 
Q 2950 4493 2921 4461 
Q 2893 4429 2848 4429 
L 1357 4429 
Q 1325 4429 1289 4454 
Q 1254 4480 1254 4525 
L 1254 4896 
Q 1254 4941 1289 4966 
Q 1325 4992 1357 4992 
L 2848 4992 
Q 2886 4992 2918 4960 
Q 2950 4928 2950 4890 
L 2950 4538 
z
" transform="scale(0.015625)"/>
      <path id="NanumGothicBold-2c" d="M 1069 -1139 
Q 1050 -1190 1011 -1206 
Q 973 -1222 928 -1222 
L 416 -1222 
Q 384 -1222 365 -1200 
Q 346 -1178 358 -1139 
L 672 26 
Q 685 58 710 93 
Q 736 128 806 128 
L 1427 128 
Q 1510 128 1516 86 
Q 1523 45 1510 6 
L 1069 -1139 
z
" transform="scale(0.015625)"/>
      <path id="NanumGothicBold-b2e4" d="M 5965 2195 
Q 5965 2157 5936 2131 
Q 5907 2106 5875 2106 
L 5005 2106 
L 5005 -928 
Q 5005 -1011 4922 -1011 
L 4352 -1011 
Q 4269 -1011 4269 -928 
L 4269 4979 
Q 4269 5062 4352 5062 
L 4922 5062 
Q 5005 5062 5005 4979 
L 5005 2720 
L 5875 2720 
Q 5907 2720 5936 2697 
Q 5965 2675 5965 2643 
L 5965 2195 
z
M 3949 1114 
Q 3962 1043 3933 1020 
Q 3904 998 3872 986 
Q 3616 909 3235 851 
Q 2854 794 2448 758 
Q 2042 723 1654 710 
Q 1267 698 1005 717 
Q 768 730 656 822 
Q 544 915 544 1146 
L 544 4179 
Q 544 4403 637 4492 
Q 730 4582 973 4582 
L 3296 4582 
Q 3386 4582 3386 4499 
L 3386 4051 
Q 3386 3968 3296 3968 
L 1395 3968 
Q 1280 3968 1280 3859 
L 1280 1530 
Q 1280 1427 1315 1398 
Q 1350 1370 1472 1357 
Q 1670 1338 1945 1350 
Q 2221 1363 2528 1392 
Q 2835 1421 3155 1465 
Q 3475 1510 3763 1562 
Q 3859 1581 3878 1485 
L 3949 1114 
z
" transform="scale(0.015625)"/>
      <path id="NanumGothicBold-b978" d="M 5139 -787 
Q 5139 -826 5107 -845 
Q 5075 -864 5043 -864 
L 1536 -864 
Q 1242 -864 1142 -761 
Q 1043 -659 1043 -410 
L 1043 755 
Q 1043 787 1072 816 
Q 1101 845 1133 845 
L 1683 845 
Q 1722 845 1750 816 
Q 1779 787 1779 755 
L 1779 -147 
Q 1779 -211 1804 -230 
Q 1830 -250 1901 -250 
L 5043 -250 
Q 5075 -250 5107 -272 
Q 5139 -294 5139 -326 
L 5139 -787 
z
M 5875 1344 
Q 5875 1312 5843 1277 
Q 5811 1242 5779 1242 
L 211 1242 
Q 173 1242 147 1274 
Q 122 1306 122 1344 
L 122 1754 
Q 122 1843 211 1843 
L 5779 1843 
Q 5811 1843 5843 1814 
Q 5875 1786 5875 1754 
L 5875 1344 
z
M 5088 2438 
Q 5088 2406 5059 2377 
Q 5030 2349 5005 2349 
L 1485 2349 
Q 1235 2349 1145 2438 
Q 1056 2528 1056 2733 
L 1056 3584 
Q 1056 3789 1142 3878 
Q 1229 3968 1478 3968 
L 4160 3968 
Q 4211 3968 4224 3984 
Q 4237 4000 4237 4058 
L 4237 4371 
Q 4237 4422 4224 4432 
Q 4211 4442 4154 4442 
L 1178 4442 
Q 1146 4442 1117 4464 
Q 1088 4486 1088 4518 
L 1088 4941 
Q 1088 4973 1117 4998 
Q 1146 5024 1178 5024 
L 4518 5024 
Q 4781 5024 4867 4944 
Q 4954 4864 4954 4646 
L 4954 3802 
Q 4954 3578 4867 3501 
Q 4781 3424 4518 3424 
L 1862 3424 
Q 1805 3424 1792 3408 
Q 1779 3392 1779 3341 
L 1779 3008 
Q 1779 2950 1792 2940 
Q 1805 2931 1869 2931 
L 4998 2931 
Q 5030 2931 5059 2905 
Q 5088 2880 5088 2842 
L 5088 2438 
z
" transform="scale(0.015625)"/>
      <path id="NanumGothicBold-b3c4" d="M 5069 1971 
Q 5069 1920 5046 1897 
Q 5024 1875 4992 1875 
L 3373 1875 
L 3373 640 
L 5786 640 
Q 5818 640 5850 608 
Q 5882 576 5882 544 
L 5882 122 
Q 5882 90 5850 58 
Q 5818 26 5786 26 
L 211 26 
Q 173 26 147 58 
Q 122 90 122 122 
L 122 544 
Q 122 582 147 611 
Q 173 640 211 640 
L 2637 640 
L 2637 1875 
L 1446 1875 
Q 1190 1875 1075 2003 
Q 960 2131 960 2355 
L 960 4224 
Q 960 4467 1069 4553 
Q 1178 4640 1421 4640 
L 4934 4640 
Q 5024 4640 5024 4557 
L 5024 4109 
Q 5024 4026 4934 4026 
L 1811 4026 
Q 1696 4026 1696 3917 
L 1696 2598 
Q 1696 2541 1718 2512 
Q 1741 2483 1811 2483 
L 4966 2483 
Q 5018 2483 5043 2470 
Q 5069 2458 5069 2406 
L 5069 1971 
z
" transform="scale(0.015625)"/>
      <path id="NanumGothicBold-d655" d="M 224 1542 
Q 224 1632 314 1632 
Q 678 1619 1068 1616 
Q 1459 1613 1856 1626 
L 1856 1946 
Q 1370 2010 1091 2230 
Q 813 2451 813 2758 
Q 813 2938 912 3091 
Q 1011 3245 1193 3360 
Q 1376 3475 1629 3539 
Q 1882 3603 2195 3603 
Q 2509 3603 2765 3539 
Q 3021 3475 3200 3360 
Q 3379 3245 3478 3091 
Q 3578 2938 3578 2758 
Q 3578 2464 3309 2243 
Q 3040 2022 2579 1952 
L 2579 1651 
Q 2944 1664 3286 1689 
Q 3629 1715 3949 1754 
Q 3981 1760 4016 1747 
Q 4051 1734 4058 1690 
L 4090 1331 
Q 4096 1286 4070 1257 
Q 4045 1229 4013 1222 
Q 3571 1171 3081 1136 
Q 2592 1101 2109 1081 
Q 1626 1062 1165 1056 
Q 704 1050 314 1062 
Q 275 1062 249 1091 
Q 224 1120 224 1158 
L 224 1542 
z
M 5971 2509 
Q 5971 2477 5942 2451 
Q 5914 2426 5882 2426 
L 5043 2426 
L 5043 1120 
Q 5043 1037 4960 1037 
L 4390 1037 
Q 4307 1037 4307 1120 
L 4307 4979 
Q 4307 5062 4390 5062 
L 4960 5062 
Q 5043 5062 5043 4979 
L 5043 3040 
L 5882 3040 
Q 5914 3040 5942 3017 
Q 5971 2995 5971 2963 
L 5971 2509 
z
M 5050 -928 
Q 5050 -960 5021 -989 
Q 4992 -1018 4960 -1018 
L 4410 -1018 
Q 4371 -1018 4342 -989 
Q 4314 -960 4314 -928 
L 4314 51 
Q 4314 115 4288 134 
Q 4262 154 4192 154 
L 1088 154 
Q 1056 154 1027 179 
Q 998 205 998 237 
L 998 666 
Q 998 704 1027 723 
Q 1056 742 1088 742 
L 4627 742 
Q 4870 742 4960 643 
Q 5050 544 5050 301 
L 5050 -928 
z
M 3834 3878 
Q 3834 3840 3805 3808 
Q 3776 3776 3738 3776 
L 544 3776 
Q 512 3776 480 3811 
Q 448 3846 448 3885 
L 448 4198 
Q 448 4230 483 4262 
Q 518 4294 550 4294 
L 3738 4294 
Q 3776 4294 3805 4265 
Q 3834 4237 3834 4198 
L 3834 3878 
z
M 3040 4621 
Q 3040 4582 3011 4550 
Q 2982 4518 2931 4518 
L 1357 4518 
Q 1331 4518 1292 4544 
Q 1254 4570 1254 4614 
L 1254 4941 
Q 1254 4986 1292 5011 
Q 1331 5037 1357 5037 
L 2931 5037 
Q 2976 5037 3008 5005 
Q 3040 4973 3040 4934 
L 3040 4621 
z
M 2195 3104 
Q 1888 3104 1712 3001 
Q 1536 2899 1536 2758 
Q 1536 2624 1712 2518 
Q 1888 2413 2195 2413 
Q 2502 2413 2678 2518 
Q 2854 2624 2854 2758 
Q 2854 2899 2678 3001 
Q 2502 3104 2195 3104 
z
" transform="scale(0.015625)"/>
      <path id="NanumGothicBold-c778" d="M 5414 -813 
Q 5414 -851 5382 -870 
Q 5350 -890 5318 -890 
L 2003 -890 
Q 1715 -890 1616 -787 
Q 1517 -685 1517 -435 
L 1517 1011 
Q 1517 1043 1545 1072 
Q 1574 1101 1606 1101 
L 2163 1101 
Q 2202 1101 2230 1072 
Q 2259 1043 2259 1011 
L 2259 -173 
Q 2259 -237 2284 -256 
Q 2310 -275 2374 -275 
L 5318 -275 
Q 5350 -275 5382 -297 
Q 5414 -320 5414 -352 
L 5414 -813 
z
M 5216 832 
Q 5216 749 5133 749 
L 4563 749 
Q 4480 749 4480 838 
L 4480 4979 
Q 4480 5062 4563 5062 
L 5133 5062 
Q 5216 5062 5216 4979 
L 5216 832 
z
M 3571 3258 
Q 3571 2938 3456 2656 
Q 3341 2374 3133 2166 
Q 2925 1958 2637 1836 
Q 2349 1715 2003 1715 
Q 1658 1715 1376 1836 
Q 1094 1958 889 2166 
Q 685 2374 573 2656 
Q 461 2938 461 3258 
Q 461 3565 573 3843 
Q 685 4122 889 4336 
Q 1094 4550 1376 4675 
Q 1658 4800 2003 4800 
Q 2349 4800 2637 4675 
Q 2925 4550 3133 4336 
Q 3341 4122 3456 3843 
Q 3571 3565 3571 3258 
z
M 2842 3245 
Q 2842 3430 2781 3593 
Q 2720 3757 2608 3878 
Q 2496 4000 2342 4070 
Q 2189 4141 2003 4141 
Q 1818 4141 1667 4070 
Q 1517 4000 1408 3878 
Q 1299 3757 1238 3593 
Q 1178 3430 1178 3245 
Q 1178 3053 1238 2886 
Q 1299 2720 1408 2598 
Q 1517 2477 1667 2406 
Q 1818 2336 2003 2336 
Q 2189 2336 2342 2406 
Q 2496 2477 2608 2598 
Q 2720 2720 2781 2886 
Q 2842 3053 2842 3245 
z
" transform="scale(0.015625)"/>
      <path id="NanumGothicBold-d574" d="M 1837 2278 
Q 1690 2278 1568 2220 
Q 1446 2163 1363 2064 
Q 1280 1965 1235 1833 
Q 1190 1702 1190 1562 
Q 1190 1414 1235 1283 
Q 1280 1152 1363 1049 
Q 1446 947 1568 889 
Q 1690 832 1837 832 
Q 1990 832 2112 889 
Q 2234 947 2317 1049 
Q 2400 1152 2445 1283 
Q 2490 1414 2490 1562 
Q 2490 1702 2445 1833 
Q 2400 1965 2317 2064 
Q 2234 2163 2112 2220 
Q 1990 2278 1837 2278 
z
M 1837 2848 
Q 2125 2848 2365 2745 
Q 2605 2643 2777 2470 
Q 2950 2298 3043 2064 
Q 3136 1830 3136 1562 
Q 3136 1293 3043 1056 
Q 2950 819 2777 643 
Q 2605 467 2365 368 
Q 2125 269 1837 269 
Q 1549 269 1309 368 
Q 1069 467 899 643 
Q 730 819 637 1056 
Q 544 1293 544 1562 
Q 544 1830 637 2064 
Q 730 2298 899 2470 
Q 1069 2643 1309 2745 
Q 1549 2848 1837 2848 
z
M 3290 3270 
Q 3290 3232 3261 3203 
Q 3232 3174 3194 3174 
L 333 3174 
Q 301 3174 265 3206 
Q 230 3238 230 3277 
L 230 3667 
Q 230 3699 265 3731 
Q 301 3763 333 3763 
L 3194 3763 
Q 3232 3763 3261 3734 
Q 3290 3706 3290 3667 
L 3290 3270 
z
M 4826 4979 
Q 4826 5062 4915 5062 
L 5466 5062 
Q 5549 5062 5549 4979 
L 5549 -928 
Q 5549 -1011 5466 -1011 
L 4909 -1011 
Q 4826 -1011 4826 -928 
L 4826 2093 
L 4282 2093 
L 4282 -685 
Q 4282 -774 4198 -774 
L 3674 -774 
Q 3584 -774 3584 -685 
L 3584 4864 
Q 3584 4947 3674 4947 
L 4198 4947 
Q 4282 4947 4282 4864 
L 4282 2707 
L 4826 2707 
L 4826 4979 
z
M 2656 4237 
Q 2656 4198 2627 4163 
Q 2598 4128 2554 4128 
L 1018 4128 
Q 992 4128 957 4157 
Q 922 4186 922 4230 
L 922 4621 
Q 922 4666 957 4691 
Q 992 4717 1018 4717 
L 2554 4717 
Q 2592 4717 2624 4685 
Q 2656 4653 2656 4614 
L 2656 4237 
z
" transform="scale(0.015625)"/>
      <path id="NanumGothicBold-c57c" d="M 1990 486 
Q 1626 486 1331 640 
Q 1037 794 835 1069 
Q 634 1344 525 1731 
Q 416 2118 416 2586 
Q 416 3066 525 3453 
Q 634 3840 835 4112 
Q 1037 4384 1331 4531 
Q 1626 4678 1990 4678 
Q 2362 4678 2653 4531 
Q 2944 4384 3149 4112 
Q 3354 3840 3462 3453 
Q 3571 3066 3571 2586 
Q 3571 2106 3462 1718 
Q 3354 1331 3149 1056 
Q 2944 781 2653 633 
Q 2362 486 1990 486 
z
M 5875 1760 
Q 5907 1760 5936 1737 
Q 5965 1715 5965 1683 
L 5965 1235 
Q 5965 1197 5936 1171 
Q 5907 1146 5875 1146 
L 5011 1146 
L 5011 -928 
Q 5011 -966 4982 -988 
Q 4954 -1011 4922 -1011 
L 4358 -1011 
Q 4269 -1011 4269 -928 
L 4269 4979 
Q 4269 5062 4358 5062 
L 4922 5062 
Q 4954 5062 4982 5036 
Q 5011 5011 5011 4979 
L 5011 3552 
L 5875 3552 
Q 5907 3552 5936 3529 
Q 5965 3507 5965 3469 
L 5965 3021 
Q 5965 2989 5936 2963 
Q 5907 2938 5875 2938 
L 5011 2938 
L 5011 1760 
L 5875 1760 
z
M 2848 2586 
Q 2848 2880 2790 3142 
Q 2733 3405 2624 3600 
Q 2515 3795 2355 3910 
Q 2195 4026 1990 4026 
Q 1792 4026 1635 3910 
Q 1478 3795 1369 3600 
Q 1261 3405 1203 3142 
Q 1146 2880 1146 2586 
Q 1146 2298 1203 2035 
Q 1261 1773 1369 1574 
Q 1478 1376 1635 1257 
Q 1792 1139 1990 1139 
Q 2195 1139 2355 1257 
Q 2515 1376 2624 1574 
Q 2733 1773 2790 2035 
Q 2848 2298 2848 2586 
z
" transform="scale(0.015625)"/>
      <path id="NanumGothicBold-d55c" d="M 2118 2694 
Q 1818 2694 1619 2528 
Q 1421 2362 1421 2125 
Q 1421 1882 1619 1709 
Q 1818 1536 2118 1536 
Q 2426 1536 2621 1709 
Q 2816 1882 2816 2125 
Q 2816 2362 2621 2528 
Q 2426 2694 2118 2694 
z
M 2118 3264 
Q 2406 3264 2662 3174 
Q 2918 3085 3107 2931 
Q 3296 2778 3405 2570 
Q 3514 2362 3514 2125 
Q 3514 1882 3405 1674 
Q 3296 1466 3107 1312 
Q 2918 1158 2662 1068 
Q 2406 979 2112 979 
Q 1824 979 1574 1068 
Q 1325 1158 1136 1312 
Q 947 1466 838 1674 
Q 730 1882 730 2125 
Q 730 2362 838 2570 
Q 947 2778 1136 2931 
Q 1325 3085 1577 3174 
Q 1830 3264 2118 3264 
z
M 3859 3590 
Q 3859 3546 3830 3517 
Q 3802 3488 3763 3488 
L 371 3488 
Q 333 3488 301 3520 
Q 269 3552 269 3597 
L 269 3974 
Q 269 4006 304 4038 
Q 339 4070 378 4070 
L 3763 4070 
Q 3802 4070 3830 4041 
Q 3859 4013 3859 3974 
L 3859 3590 
z
M 3034 4448 
Q 3034 4410 3005 4378 
Q 2976 4346 2925 4346 
L 1254 4346 
Q 1229 4346 1193 4371 
Q 1158 4397 1158 4442 
L 1158 4819 
Q 1158 4870 1193 4896 
Q 1229 4922 1254 4922 
L 2925 4922 
Q 2970 4922 3002 4890 
Q 3034 4858 3034 4813 
L 3034 4448 
z
M 5261 -838 
Q 5261 -877 5229 -896 
Q 5197 -915 5165 -915 
L 1786 -915 
Q 1498 -915 1395 -812 
Q 1293 -710 1293 -461 
L 1293 531 
Q 1293 563 1325 595 
Q 1357 627 1389 627 
L 1933 627 
Q 1978 627 2006 595 
Q 2035 563 2035 531 
L 2035 -198 
Q 2035 -262 2060 -281 
Q 2086 -301 2150 -301 
L 5165 -301 
Q 5197 -301 5229 -326 
Q 5261 -352 5261 -384 
L 5261 -838 
z
M 5971 2381 
Q 5971 2349 5942 2326 
Q 5914 2304 5875 2304 
L 5011 2304 
L 5011 461 
Q 5011 378 4928 378 
L 4358 378 
Q 4275 378 4275 461 
L 4275 4979 
Q 4275 5062 4358 5062 
L 4928 5062 
Q 5011 5062 5011 4979 
L 5011 2918 
L 5875 2918 
Q 5914 2918 5942 2892 
Q 5971 2867 5971 2835 
L 5971 2381 
z
" transform="scale(0.015625)"/>
     </defs>
     <use xlink:href="#NanumGothicBold-53"/>
     <use xlink:href="#NanumGothicBold-41" transform="translate(54.499985 0)"/>
     <use xlink:href="#NanumGothicBold-54" transform="translate(121.574966 0)"/>
     <use xlink:href="#NanumGothicBold-3a" transform="translate(176.074951 0)"/>
     <use xlink:href="#NanumGothicBold-20" transform="translate(206.374939 0)"/>
     <use xlink:href="#NanumGothicBold-c774" transform="translate(234.374924 0)"/>
     <use xlink:href="#NanumGothicBold-20" transform="translate(328.374908 0)"/>
     <use xlink:href="#NanumGothicBold-cd95" transform="translate(356.374893 0)"/>
     <use xlink:href="#NanumGothicBold-c5d0" transform="translate(450.374878 0)"/>
     <use xlink:href="#NanumGothicBold-c11c" transform="translate(544.374863 0)"/>
     <use xlink:href="#NanumGothicBold-b294" transform="translate(638.374847 0)"/>
     <use xlink:href="#NanumGothicBold-20" transform="translate(732.374832 0)"/>
     <use xlink:href="#NanumGothicBold-acb9" transform="translate(760.374817 0)"/>
     <use xlink:href="#NanumGothicBold-ce68" transform="translate(854.374802 0)"/>
     <use xlink:href="#NanumGothicBold-2c" transform="translate(948.374786 0)"/>
     <use xlink:href="#NanumGothicBold-20" transform="translate(978.674774 0)"/>
     <use xlink:href="#NanumGothicBold-b2e4" transform="translate(1006.674759 0)"/>
     <use xlink:href="#NanumGothicBold-b978" transform="translate(1100.674744 0)"/>
     <use xlink:href="#NanumGothicBold-20" transform="translate(1194.674728 0)"/>
     <use xlink:href="#NanumGothicBold-cd95" transform="translate(1222.674713 0)"/>
     <use xlink:href="#NanumGothicBold-b3c4" transform="translate(1316.674698 0)"/>
     <use xlink:href="#NanumGothicBold-20" transform="translate(1410.674683 0)"/>
     <use xlink:href="#NanumGothicBold-d655" transform="translate(1438.674667 0)"/>
     <use xlink:href="#NanumGothicBold-c778" transform="translate(1532.674652 0)"/>
     <use xlink:href="#NanumGothicBold-d574" transform="translate(1626.674637 0)"/>
     <use xlink:href="#NanumGothicBold-c57c" transform="translate(1720.674622 0)"/>
     <use xlink:href="#NanumGothicBold-20" transform="translate(1814.674606 0)"/>
     <use xlink:href="#NanumGothicBold-d55c" transform="translate(1842.674591 0)"/>
     <use xlink:href="#NanumGothicBold-b2e4" transform="translate(1936.674576 0)"/>
    </g>
   </g>
   <g id="patch_4">
    <path d="M 386.36168 188.908125 
Q 399.239548 188.908125 410.104955 188.908125 
" clip-path="url(#pd04f675374)" style="fill: none; stroke: #111827; stroke-width: 1.8; stroke-linecap: round"/>
    <path d="M 405.304955 186.508125 
L 410.104955 188.908125 
L 405.304955 191.308125 
z
" clip-path="url(#pd04f675374)" style="fill: #111827; stroke: #111827; stroke-width: 1.8; stroke-linecap: round"/>
   </g>
   <g id="text_2">
    <!-- axis -->
    <g style="fill: #111827" transform="translate(397.047969 182.666641) scale(0.11 -0.11)">
     <defs>
      <path id="NanumGothic-61" d="M 2566 1530 
L 2445 1530 
Q 2086 1542 1808 1500 
Q 1530 1459 1344 1389 
Q 1075 1293 940 1104 
Q 806 915 806 653 
Q 806 493 857 355 
Q 909 218 1018 141 
Q 1210 -13 1530 -13 
Q 1754 -13 1942 76 
Q 2131 166 2272 332 
Q 2413 499 2489 745 
Q 2566 992 2566 1312 
L 2566 1530 
z
M 742 2650 
Q 710 2630 681 2640 
Q 653 2650 653 2682 
L 653 2925 
Q 653 3014 742 3059 
Q 966 3181 1219 3229 
Q 1472 3277 1773 3277 
Q 2413 3277 2707 2973 
Q 3002 2669 3002 2054 
L 3002 448 
Q 3002 256 3008 105 
Q 3014 -45 3027 -186 
Q 3027 -275 2938 -275 
L 2707 -275 
Q 2618 -275 2618 -186 
L 2618 307 
Q 2483 -19 2166 -198 
Q 1850 -378 1478 -378 
Q 832 -378 531 0 
Q 429 128 377 297 
Q 326 467 326 634 
Q 326 1024 508 1305 
Q 691 1587 1069 1728 
Q 1530 1894 2483 1894 
L 2566 1894 
L 2566 2086 
Q 2566 2490 2384 2701 
Q 2202 2912 1773 2912 
Q 1485 2912 1229 2851 
Q 973 2790 742 2650 
z
" transform="scale(0.015625)"/>
      <path id="NanumGothic-78" d="M 3046 -186 
Q 3066 -218 3050 -246 
Q 3034 -275 2995 -275 
L 2637 -275 
Q 2560 -275 2509 -186 
L 1645 1222 
L 717 -186 
Q 659 -275 589 -275 
L 269 -275 
Q 230 -275 214 -246 
Q 198 -218 218 -186 
L 1389 1562 
L 339 3098 
Q 320 3130 336 3158 
Q 352 3187 390 3187 
L 742 3187 
Q 819 3187 870 3098 
L 1645 1894 
L 2432 3098 
Q 2490 3187 2560 3187 
L 2874 3187 
Q 2912 3187 2928 3158 
Q 2944 3130 2925 3098 
L 1901 1562 
L 3046 -186 
z
" transform="scale(0.015625)"/>
      <path id="NanumGothic-69" d="M 1050 -186 
Q 1050 -275 960 -275 
L 678 -275 
Q 589 -275 589 -186 
L 589 3098 
Q 589 3187 678 3187 
L 960 3187 
Q 1050 3187 1050 3098 
L 1050 -186 
z
M 506 4397 
Q 506 4525 595 4617 
Q 685 4710 813 4710 
Q 941 4710 1033 4617 
Q 1126 4525 1126 4397 
Q 1126 4269 1033 4179 
Q 941 4090 813 4090 
Q 685 4090 595 4179 
Q 506 4269 506 4397 
z
" transform="scale(0.015625)"/>
      <path id="NanumGothic-73" d="M 422 147 
Q 813 -13 1229 -13 
Q 1574 -13 1798 156 
Q 2022 326 2022 614 
Q 2022 781 1897 937 
Q 1773 1094 1594 1197 
Q 1395 1306 1187 1405 
Q 979 1504 787 1613 
Q 557 1741 448 1929 
Q 339 2118 339 2323 
Q 339 2560 428 2739 
Q 518 2918 672 3040 
Q 826 3162 1030 3219 
Q 1235 3277 1466 3277 
Q 1709 3277 1888 3251 
Q 2067 3226 2246 3174 
Q 2285 3162 2313 3136 
Q 2342 3110 2336 3066 
L 2317 2874 
Q 2310 2822 2278 2809 
Q 2246 2797 2214 2810 
Q 2054 2867 1894 2889 
Q 1734 2912 1510 2912 
Q 768 2912 768 2323 
Q 768 2195 867 2080 
Q 966 1965 1203 1850 
Q 1408 1747 1606 1654 
Q 1805 1562 2035 1434 
Q 2234 1325 2365 1101 
Q 2496 877 2496 614 
Q 2496 358 2393 172 
Q 2291 -13 2118 -134 
Q 1946 -256 1722 -317 
Q 1498 -378 1261 -378 
Q 1120 -378 1008 -371 
Q 896 -365 797 -352 
Q 698 -339 595 -320 
Q 493 -301 378 -269 
Q 288 -237 294 -154 
L 320 83 
Q 333 186 422 147 
z
" transform="scale(0.015625)"/>
     </defs>
     <use xlink:href="#NanumGothic-61"/>
     <use xlink:href="#NanumGothic-78" transform="translate(54.499985 0)"/>
     <use xlink:href="#NanumGothic-69" transform="translate(105.499969 0)"/>
     <use xlink:href="#NanumGothic-73" transform="translate(129.699966 0)"/>
    </g>
   </g>
   <g id="text_3">
    <!-- 겹친 구간 -->
    <g style="fill: #ef4444" transform="translate(176.3 224.424594) scale(0.1 -0.1)">
     <defs>
      <path id="NanumGothic-acb9" d="M 1971 -845 
Q 1818 -845 1725 -825 
Q 1632 -806 1581 -752 
Q 1530 -698 1510 -611 
Q 1491 -525 1491 -390 
L 1491 1446 
Q 1491 1478 1516 1497 
Q 1542 1517 1574 1517 
L 1856 1517 
Q 1888 1517 1910 1494 
Q 1933 1472 1933 1446 
L 1933 768 
L 4710 768 
L 4710 1434 
Q 4710 1466 4732 1491 
Q 4755 1517 4787 1517 
L 5069 1517 
Q 5101 1517 5126 1494 
Q 5152 1472 5152 1440 
L 5152 -435 
Q 5152 -678 5049 -761 
Q 4947 -845 4666 -845 
L 1971 -845 
z
M 3424 4320 
Q 3405 4218 3385 4118 
Q 3366 4019 3334 3930 
L 4710 3930 
L 4710 4915 
Q 4710 5005 4800 5005 
L 5062 5005 
Q 5152 5005 5152 4915 
L 5152 1939 
Q 5152 1850 5062 1850 
L 4800 1850 
Q 4710 1850 4710 1939 
L 4710 2419 
L 3078 2419 
Q 2995 2419 2995 2496 
L 2995 2720 
Q 2995 2797 3078 2797 
L 4710 2797 
L 4710 3552 
L 3187 3552 
Q 2925 2982 2368 2518 
Q 1811 2054 870 1664 
Q 762 1619 730 1702 
L 634 1914 
Q 608 1965 630 1997 
Q 653 2029 685 2042 
Q 1741 2477 2285 3024 
Q 2829 3571 2944 4205 
Q 2982 4390 2790 4390 
L 858 4390 
Q 781 4390 781 4474 
L 781 4698 
Q 781 4774 858 4774 
L 2938 4774 
Q 3245 4774 3353 4665 
Q 3462 4557 3424 4320 
z
M 1933 384 
L 1933 -307 
Q 1933 -403 1965 -432 
Q 1997 -461 2086 -461 
L 4557 -461 
Q 4646 -461 4678 -432 
Q 4710 -403 4710 -307 
L 4710 384 
L 1933 384 
z
" transform="scale(0.015625)"/>
      <path id="NanumGothic-ce5c" d="M 3821 1440 
Q 3802 1395 3773 1382 
Q 3744 1370 3686 1395 
Q 3354 1549 3024 1760 
Q 2694 1971 2394 2240 
Q 1722 1626 794 1216 
Q 762 1203 730 1200 
Q 698 1197 678 1229 
L 563 1459 
Q 544 1491 560 1523 
Q 576 1555 608 1568 
Q 1338 1914 1917 2381 
Q 2496 2848 2893 3456 
Q 2944 3539 2909 3580 
Q 2874 3622 2784 3622 
L 845 3622 
Q 768 3622 768 3706 
L 768 3930 
Q 768 4006 845 4006 
L 2957 4006 
Q 3290 4006 3408 3878 
Q 3526 3750 3379 3482 
Q 3085 2963 2682 2528 
Q 2957 2272 3267 2077 
Q 3578 1882 3878 1760 
Q 3917 1747 3929 1712 
Q 3942 1677 3930 1645 
L 3821 1440 
z
M 5350 -704 
Q 5350 -742 5318 -761 
Q 5286 -781 5254 -781 
L 2016 -781 
Q 1715 -781 1622 -669 
Q 1530 -557 1530 -294 
L 1530 749 
Q 1530 838 1619 838 
L 1882 838 
Q 1971 838 1971 749 
L 1971 -262 
Q 1971 -352 2000 -374 
Q 2029 -397 2118 -397 
L 5254 -397 
Q 5286 -397 5318 -419 
Q 5350 -442 5350 -474 
L 5350 -704 
z
M 5152 723 
Q 5152 634 5062 634 
L 4800 634 
Q 4710 634 4710 723 
L 4710 4915 
Q 4710 5005 4800 5005 
L 5062 5005 
Q 5152 5005 5152 4915 
L 5152 723 
z
M 2835 4845 
Q 2931 4845 2931 4755 
L 2931 4550 
Q 2931 4454 2835 4454 
L 1389 4454 
Q 1293 4454 1293 4550 
L 1293 4755 
Q 1293 4845 1389 4845 
L 2835 4845 
z
" transform="scale(0.015625)"/>
      <path id="NanumGothic-20" transform="scale(0.015625)"/>
      <path id="NanumGothic-ad6c" d="M 966 4749 
Q 966 4787 998 4806 
Q 1030 4826 1062 4826 
L 4448 4826 
Q 4602 4826 4694 4794 
Q 4787 4762 4838 4701 
Q 4890 4640 4912 4544 
Q 4934 4448 4934 4314 
Q 4947 3814 4873 3296 
Q 4800 2778 4672 2176 
L 5728 2176 
Q 5760 2176 5792 2153 
Q 5824 2131 5824 2093 
L 5824 1875 
Q 5824 1843 5792 1817 
Q 5760 1792 5728 1792 
L 3213 1792 
L 3213 -762 
Q 3213 -800 3190 -829 
Q 3168 -858 3130 -858 
L 2854 -858 
Q 2822 -858 2796 -829 
Q 2771 -800 2771 -762 
L 2771 1792 
L 288 1792 
Q 250 1792 221 1817 
Q 192 1843 192 1875 
L 192 2093 
Q 192 2131 221 2153 
Q 250 2176 288 2176 
L 4237 2176 
Q 4301 2426 4358 2720 
Q 4416 3014 4451 3308 
Q 4486 3603 4499 3865 
Q 4512 4128 4499 4307 
Q 4486 4397 4464 4419 
Q 4442 4442 4352 4442 
L 1062 4442 
Q 1030 4442 998 4464 
Q 966 4486 966 4518 
L 966 4749 
z
" transform="scale(0.015625)"/>
      <path id="NanumGothic-ac04" d="M 3290 4198 
Q 3130 3264 2480 2531 
Q 1830 1798 698 1325 
Q 659 1312 617 1312 
Q 576 1312 557 1363 
L 461 1574 
Q 435 1626 457 1658 
Q 480 1690 512 1702 
Q 979 1894 1372 2156 
Q 1766 2419 2064 2726 
Q 2362 3034 2554 3379 
Q 2746 3725 2810 4090 
Q 2848 4269 2656 4269 
L 685 4269 
Q 608 4269 608 4352 
L 608 4576 
Q 608 4653 685 4653 
L 2803 4653 
Q 3110 4653 3219 4544 
Q 3328 4435 3290 4198 
z
M 4928 806 
Q 4928 717 4838 717 
L 4576 717 
Q 4486 717 4486 806 
L 4486 4915 
Q 4486 5005 4576 5005 
L 4838 5005 
Q 4928 5005 4928 4915 
L 4928 3066 
L 5811 3066 
Q 5850 3066 5878 3043 
Q 5907 3021 5907 2982 
L 5907 2765 
Q 5907 2733 5878 2707 
Q 5850 2682 5811 2682 
L 4928 2682 
L 4928 806 
z
M 5216 -704 
Q 5216 -742 5184 -761 
Q 5152 -781 5120 -781 
L 1862 -781 
Q 1562 -781 1469 -669 
Q 1376 -557 1376 -294 
L 1376 934 
Q 1376 1024 1466 1024 
L 1728 1024 
Q 1818 1024 1818 934 
L 1818 -262 
Q 1818 -352 1846 -374 
Q 1875 -397 1965 -397 
L 5120 -397 
Q 5152 -397 5184 -419 
Q 5216 -442 5216 -474 
L 5216 -704 
z
" transform="scale(0.015625)"/>
     </defs>
     <use xlink:href="#NanumGothic-acb9"/>
     <use xlink:href="#NanumGothic-ce5c" transform="translate(93.999985 0)"/>
     <use xlink:href="#NanumGothic-20" transform="translate(187.999969 0)"/>
     <use xlink:href="#NanumGothic-ad6c" transform="translate(215.999954 0)"/>
     <use xlink:href="#NanumGothic-ac04" transform="translate(309.999939 0)"/>
    </g>
   </g>
  </g>
 </g>
 <defs>
  <clipPath id="pd04f675374">
   <rect x="8.64" y="28.948125" width="446.4" height="204.6"/>
  </clipPath>
 </defs>
</svg>
