<?xml version="1.0" encoding="utf-8" standalone="no"?>
<!DOCTYPE svg PUBLIC "-//W3C//DTD SVG 1.1//EN"
  "http://www.w3.org/Graphics/SVG/1.1/DTD/svg11.dtd">
<svg xmlns:xlink="http://www.w3.org/1999/xlink" width="399.624828pt" height="259.219704pt" viewBox="0 0 399.624828 259.219704" xmlns="http://www.w3.org/2000/svg" version="1.1">
 <metadata>
  <rdf:RDF xmlns:dc="http://purl.org/dc/elements/1.1/" xmlns:cc="http://creativecommons.org/ns#" xmlns:rdf="http://www.w3.org/1999/02/22-rdf-syntax-ns#">
   <cc:Work>
    <dc:type rdf:resource="http://purl.org/dc/dcmitype/StillImage"/>
    <dc:date>2026-07-08T05:12:55.640176</dc:date>
    <dc:format>image/svg+xml</dc:format>
    <dc:creator>
     <cc:Agent>
      <dc:title>Matplotlib v3.10.8, https://matplotlib.org/</dc:title>
     </cc:Agent>
    </dc:creator>
   </cc:Work>
  </rdf:RDF>
 </metadata>
 <defs>
  <style type="text/css">*{stroke-linejoin: round; stroke-linecap: butt}</style>
 </defs>
 <g id="figure_1">
  <g id="patch_1">
   <path d="M 0 259.219704 
L 399.624828 259.219704 
L 399.624828 0 
L 0 0 
z
" style="fill: #ffffff"/>
  </g>
  <g id="axes_1">
   <g id="line2d_1">
    <path d="M 46.874483 204.698324 
L 352.750345 204.698324 
" clip-path="url(#p5ec2961aa6)" style="fill: none; stroke: #111827; stroke-width: 2.3; stroke-linecap: square"/>
   </g>
   <g id="text_1">
    <!-- 반사: 법선 방향 성분을 뒤집기 -->
    <g style="fill: #111827" transform="translate(8.64 20.054062) scale(0.15 -0.15)">
     <defs>
      <path id="NanumGothicBold-bc18" d="M 2688 3142 
L 1331 3142 
L 1331 2406 
Q 1331 2298 1446 2298 
L 2573 2298 
Q 2688 2298 2688 2406 
L 2688 3142 
z
M 3418 2125 
Q 3418 1907 3315 1801 
Q 3213 1696 2938 1696 
L 1088 1696 
Q 806 1696 704 1792 
Q 602 1888 602 2144 
L 602 4717 
Q 602 4749 627 4771 
Q 653 4794 685 4794 
L 1242 4794 
Q 1274 4794 1302 4771 
Q 1331 4749 1331 4717 
L 1331 3738 
L 2688 3738 
L 2688 4723 
Q 2688 4755 2713 4780 
Q 2739 4806 2771 4806 
L 3334 4806 
Q 3366 4806 3392 4780 
Q 3418 4755 3418 4723 
L 3418 2125 
z
M 5254 -826 
Q 5254 -864 5225 -883 
Q 5197 -902 5165 -902 
L 1779 -902 
Q 1491 -902 1392 -800 
Q 1293 -698 1293 -448 
L 1293 902 
Q 1293 934 1321 966 
Q 1350 998 1382 998 
L 1933 998 
Q 1971 998 2000 969 
Q 2029 941 2029 902 
L 2029 -186 
Q 2029 -250 2054 -269 
Q 2080 -288 2150 -288 
L 5165 -288 
Q 5197 -288 5225 -313 
Q 5254 -339 5254 -371 
L 5254 -826 
z
M 5965 2522 
Q 5965 2490 5936 2467 
Q 5907 2445 5875 2445 
L 5005 2445 
L 5005 832 
Q 5005 749 4922 749 
L 4352 749 
Q 4269 749 4269 832 
L 4269 4979 
Q 4269 5062 4352 5062 
L 4922 5062 
Q 5005 5062 5005 4979 
L 5005 3059 
L 5875 3059 
Q 5907 3059 5936 3036 
Q 5965 3014 5965 2982 
L 5965 2522 
z
" transform="scale(0.015625)"/>
      <path id="NanumGothicBold-c0ac" d="M 5971 2202 
Q 5971 2163 5942 2137 
Q 5914 2112 5882 2112 
L 5011 2112 
L 5011 -928 
Q 5011 -1011 4928 -1011 
L 4358 -1011 
Q 4275 -1011 4275 -928 
L 4275 4979 
Q 4275 5062 4358 5062 
L 4928 5062 
Q 5011 5062 5011 4979 
L 5011 2726 
L 5882 2726 
Q 5914 2726 5942 2704 
Q 5971 2682 5971 2650 
L 5971 2202 
z
M 730 403 
Q 608 307 506 410 
L 205 691 
Q 115 781 224 890 
Q 640 1267 934 1728 
Q 1229 2189 1408 2714 
Q 1485 2944 1539 3171 
Q 1594 3398 1626 3632 
Q 1658 3866 1670 4118 
Q 1683 4371 1677 4653 
Q 1677 4691 1705 4720 
Q 1734 4749 1766 4749 
L 2336 4730 
Q 2368 4730 2393 4701 
Q 2419 4672 2419 4634 
Q 2419 4243 2393 3907 
Q 2368 3571 2310 3258 
Q 2374 2957 2508 2656 
Q 2643 2355 2822 2076 
Q 3002 1798 3210 1564 
Q 3418 1331 3622 1165 
Q 3725 1088 3635 966 
L 3366 640 
Q 3334 595 3280 588 
Q 3226 582 3162 627 
Q 3008 749 2835 928 
Q 2662 1107 2505 1315 
Q 2349 1523 2214 1744 
Q 2080 1965 1997 2170 
Q 1882 1901 1734 1645 
Q 1587 1389 1420 1161 
Q 1254 934 1078 739 
Q 902 544 730 403 
z
" transform="scale(0.015625)"/>
      <path id="NanumGothicBold-3a" d="M 1011 3053 
Q 806 3053 662 3197 
Q 518 3341 518 3533 
Q 518 3731 662 3875 
Q 806 4019 1011 4019 
Q 1216 4019 1357 3875 
Q 1498 3731 1498 3533 
Q 1498 3341 1357 3197 
Q 1216 3053 1011 3053 
z
M 1011 141 
Q 806 141 662 285 
Q 518 429 518 627 
Q 518 819 662 963 
Q 806 1107 1011 1107 
Q 1216 1107 1357 963 
Q 1498 819 1498 627 
Q 1498 429 1357 285 
Q 1216 141 1011 141 
z
" transform="scale(0.015625)"/>
      <path id="NanumGothicBold-20" transform="scale(0.015625)"/>
      <path id="NanumGothicBold-bc95" d="M 3469 2458 
Q 3469 2240 3363 2134 
Q 3258 2029 2982 2029 
L 1133 2029 
Q 851 2029 748 2125 
Q 646 2221 646 2477 
L 646 4813 
Q 646 4896 730 4896 
L 1286 4896 
Q 1318 4896 1347 4870 
Q 1376 4845 1376 4813 
L 1376 3987 
L 2733 3987 
L 2733 4819 
Q 2733 4858 2761 4883 
Q 2790 4909 2822 4909 
L 3379 4909 
Q 3411 4909 3440 4883 
Q 3469 4858 3469 4819 
L 3469 3750 
L 4544 3750 
L 4544 4979 
Q 4544 5011 4576 5036 
Q 4608 5062 4640 5062 
L 5210 5062 
Q 5280 5062 5280 4979 
L 5280 1926 
Q 5280 1830 5197 1830 
L 4627 1830 
Q 4544 1830 4544 1920 
L 4544 3136 
L 3469 3136 
L 3469 2458 
z
M 5280 -486 
Q 5280 -704 5177 -809 
Q 5075 -915 4800 -915 
L 1971 -915 
Q 1683 -915 1580 -819 
Q 1478 -723 1478 -467 
L 1478 1427 
Q 1478 1459 1507 1481 
Q 1536 1504 1568 1504 
L 2125 1504 
Q 2163 1504 2192 1481 
Q 2221 1459 2221 1427 
L 2221 838 
L 4544 838 
L 4544 1453 
Q 4544 1485 4569 1510 
Q 4595 1536 4627 1536 
L 5197 1536 
Q 5229 1536 5254 1510 
Q 5280 1485 5280 1453 
L 5280 -486 
z
M 4544 243 
L 2221 243 
L 2221 -205 
Q 2221 -314 2336 -314 
L 4422 -314 
Q 4544 -314 4544 -205 
L 4544 243 
z
M 2733 3392 
L 1376 3392 
L 1376 2739 
Q 1376 2630 1491 2630 
L 2618 2630 
Q 2733 2630 2733 2739 
L 2733 3392 
z
" transform="scale(0.015625)"/>
      <path id="NanumGothicBold-c120" d="M 832 1389 
Q 749 1338 704 1350 
Q 659 1363 621 1408 
L 358 1709 
Q 294 1779 310 1824 
Q 326 1869 384 1907 
Q 742 2150 1011 2435 
Q 1280 2720 1456 3065 
Q 1632 3411 1721 3827 
Q 1811 4243 1811 4755 
Q 1811 4800 1843 4835 
Q 1875 4870 1907 4870 
L 2470 4838 
Q 2554 4838 2554 4742 
Q 2554 4442 2525 4173 
Q 2496 3904 2445 3661 
Q 2522 3398 2675 3155 
Q 2829 2912 3017 2707 
Q 3206 2502 3408 2345 
Q 3610 2189 3795 2093 
Q 3891 2042 3821 1939 
L 3578 1594 
Q 3514 1491 3411 1549 
Q 3014 1754 2684 2077 
Q 2355 2400 2138 2790 
Q 1920 2368 1590 2029 
Q 1261 1690 832 1389 
z
M 3283 3162 
L 3283 3622 
Q 3283 3654 3312 3676 
Q 3341 3699 3379 3699 
L 4544 3699 
L 4544 4979 
Q 4544 5062 4627 5062 
L 5197 5062 
Q 5280 5062 5280 4979 
L 5280 826 
Q 5280 742 5197 742 
L 4627 742 
Q 4544 742 4544 826 
L 4544 3085 
L 3379 3085 
Q 3341 3085 3312 3107 
Q 3283 3130 3283 3162 
z
M 5472 -838 
Q 5472 -877 5443 -896 
Q 5414 -915 5382 -915 
L 2048 -915 
Q 1760 -915 1661 -812 
Q 1562 -710 1562 -461 
L 1562 941 
Q 1562 973 1590 1001 
Q 1619 1030 1651 1030 
L 2202 1030 
Q 2240 1030 2269 1001 
Q 2298 973 2298 941 
L 2298 -198 
Q 2298 -262 2323 -281 
Q 2349 -301 2419 -301 
L 5382 -301 
Q 5414 -301 5443 -326 
Q 5472 -352 5472 -384 
L 5472 -838 
z
" transform="scale(0.015625)"/>
      <path id="NanumGothicBold-bc29" d="M 4307 186 
Q 4307 346 4214 464 
Q 4122 582 3965 665 
Q 3808 749 3600 790 
Q 3392 832 3155 832 
Q 2643 832 2329 669 
Q 2016 506 2016 186 
Q 2016 -115 2336 -272 
Q 2656 -429 3155 -429 
Q 3392 -429 3600 -390 
Q 3808 -352 3965 -275 
Q 4122 -198 4214 -83 
Q 4307 32 4307 186 
z
M 5062 205 
Q 5062 -64 4918 -288 
Q 4774 -512 4521 -672 
Q 4269 -832 3917 -921 
Q 3565 -1011 3155 -1011 
Q 2714 -1011 2365 -924 
Q 2016 -838 1769 -678 
Q 1523 -518 1392 -294 
Q 1261 -70 1261 205 
Q 1261 474 1392 698 
Q 1523 922 1769 1078 
Q 2016 1235 2365 1324 
Q 2714 1414 3155 1414 
Q 3565 1414 3917 1328 
Q 4269 1242 4521 1082 
Q 4774 922 4918 701 
Q 5062 480 5062 205 
z
M 5965 2963 
Q 5965 2931 5936 2905 
Q 5907 2880 5875 2880 
L 5005 2880 
L 5005 1594 
Q 5005 1562 4979 1533 
Q 4954 1504 4922 1504 
L 4352 1504 
Q 4320 1504 4294 1533 
Q 4269 1562 4269 1600 
L 4269 4979 
Q 4269 5062 4352 5062 
L 4922 5062 
Q 5005 5062 5005 4979 
L 5005 3488 
L 5875 3488 
Q 5907 3488 5936 3465 
Q 5965 3443 5965 3411 
L 5965 2963 
z
M 2688 3309 
L 1331 3309 
L 1331 2662 
Q 1331 2554 1446 2554 
L 2573 2554 
Q 2688 2554 2688 2662 
L 2688 3309 
z
M 3418 2381 
Q 3418 2163 3315 2057 
Q 3213 1952 2938 1952 
L 1088 1952 
Q 806 1952 704 2048 
Q 602 2144 602 2400 
L 602 4774 
Q 602 4858 685 4858 
L 1242 4858 
Q 1274 4858 1302 4832 
Q 1331 4806 1331 4774 
L 1331 3904 
L 2688 3904 
L 2688 4781 
Q 2688 4819 2713 4844 
Q 2739 4870 2771 4870 
L 3334 4870 
Q 3366 4870 3392 4844 
Q 3418 4819 3418 4781 
L 3418 2381 
z
" transform="scale(0.015625)"/>
      <path id="NanumGothicBold-d5a5" d="M 5069 77 
Q 5069 -160 4925 -358 
Q 4781 -557 4528 -697 
Q 4275 -838 3923 -915 
Q 3571 -992 3155 -992 
Q 2720 -992 2368 -915 
Q 2016 -838 1769 -697 
Q 1523 -557 1392 -358 
Q 1261 -160 1261 77 
Q 1261 314 1392 506 
Q 1523 698 1769 838 
Q 2016 979 2368 1056 
Q 2720 1133 3155 1133 
Q 3571 1133 3923 1056 
Q 4275 979 4528 838 
Q 4781 698 4925 506 
Q 5069 314 5069 77 
z
M 2118 3456 
Q 2413 3456 2665 3379 
Q 2918 3302 3104 3164 
Q 3290 3027 3395 2828 
Q 3501 2630 3501 2394 
Q 3501 2150 3395 1952 
Q 3290 1754 3101 1616 
Q 2912 1478 2659 1401 
Q 2406 1325 2112 1325 
Q 1824 1325 1574 1401 
Q 1325 1478 1139 1616 
Q 954 1754 848 1952 
Q 742 2150 742 2394 
Q 742 2630 848 2828 
Q 954 3027 1139 3164 
Q 1325 3302 1577 3379 
Q 1830 3456 2118 3456 
z
M 5875 2650 
Q 5914 2650 5942 2627 
Q 5971 2605 5971 2573 
L 5971 2118 
Q 5971 2086 5942 2060 
Q 5914 2035 5875 2035 
L 5011 2035 
L 5011 1318 
Q 5011 1235 4928 1235 
L 4358 1235 
Q 4275 1235 4275 1325 
L 4275 4979 
Q 4275 5062 4358 5062 
L 4928 5062 
Q 5011 5062 5011 4979 
L 5011 3821 
L 5875 3821 
Q 5914 3821 5942 3798 
Q 5971 3776 5971 3744 
L 5971 3296 
Q 5971 3264 5942 3238 
Q 5914 3213 5875 3213 
L 5011 3213 
L 5011 2650 
L 5875 2650 
z
M 3878 3738 
Q 3878 3699 3849 3670 
Q 3821 3642 3782 3642 
L 352 3642 
Q 314 3642 282 3674 
Q 250 3706 250 3744 
L 250 4102 
Q 250 4134 285 4169 
Q 320 4205 358 4205 
L 3782 4205 
Q 3821 4205 3849 4173 
Q 3878 4141 3878 4102 
L 3878 3738 
z
M 4314 58 
Q 4314 186 4221 285 
Q 4128 384 3968 451 
Q 3808 518 3600 550 
Q 3392 582 3155 582 
Q 2643 582 2332 451 
Q 2022 320 2022 58 
Q 2022 -192 2339 -313 
Q 2656 -435 3155 -435 
Q 3392 -435 3600 -406 
Q 3808 -378 3968 -314 
Q 4128 -250 4221 -160 
Q 4314 -70 4314 58 
z
M 2118 2899 
Q 1830 2899 1632 2761 
Q 1434 2624 1434 2394 
Q 1434 2157 1632 2019 
Q 1830 1882 2118 1882 
Q 2413 1882 2608 2019 
Q 2803 2157 2803 2394 
Q 2803 2624 2608 2761 
Q 2413 2899 2118 2899 
z
M 3046 4544 
Q 3046 4506 3017 4470 
Q 2989 4435 2938 4435 
L 1229 4435 
Q 1203 4435 1168 4460 
Q 1133 4486 1133 4538 
L 1133 4902 
Q 1133 4947 1168 4972 
Q 1203 4998 1229 4998 
L 2938 4998 
Q 2982 4998 3014 4966 
Q 3046 4934 3046 4896 
L 3046 4544 
z
" transform="scale(0.015625)"/>
      <path id="NanumGothicBold-c131" d="M 5331 198 
Q 5331 -70 5187 -294 
Q 5043 -518 4784 -678 
Q 4525 -838 4173 -924 
Q 3821 -1011 3411 -1011 
Q 2970 -1011 2618 -924 
Q 2266 -838 2019 -681 
Q 1773 -525 1641 -301 
Q 1510 -77 1510 198 
Q 1510 467 1641 688 
Q 1773 909 2019 1069 
Q 2266 1229 2618 1315 
Q 2970 1402 3411 1402 
Q 3821 1402 4173 1315 
Q 4525 1229 4784 1072 
Q 5043 915 5187 694 
Q 5331 474 5331 198 
z
M 832 1555 
Q 755 1498 707 1510 
Q 659 1523 621 1574 
L 365 1875 
Q 294 1946 310 1990 
Q 326 2035 390 2074 
Q 749 2317 1014 2585 
Q 1280 2854 1459 3180 
Q 1638 3507 1724 3910 
Q 1811 4314 1811 4826 
Q 1811 4870 1843 4902 
Q 1875 4934 1907 4934 
L 2470 4909 
Q 2554 4909 2554 4813 
Q 2554 4506 2525 4243 
Q 2496 3981 2445 3738 
Q 2547 3494 2710 3280 
Q 2874 3066 3059 2890 
Q 3245 2714 3440 2576 
Q 3635 2438 3808 2362 
Q 3917 2317 3846 2208 
L 3629 1850 
Q 3558 1754 3450 1798 
Q 3059 1978 2723 2272 
Q 2387 2566 2150 2938 
Q 1933 2528 1603 2195 
Q 1274 1862 832 1555 
z
M 3328 3270 
L 3328 3725 
Q 3328 3757 3357 3779 
Q 3386 3802 3418 3802 
L 4544 3802 
L 4544 4979 
Q 4544 5062 4634 5062 
L 5197 5062 
Q 5229 5062 5257 5036 
Q 5286 5011 5286 4979 
L 5286 1581 
Q 5286 1542 5257 1516 
Q 5229 1491 5197 1491 
L 4634 1491 
Q 4544 1491 4544 1581 
L 4544 3194 
L 3418 3194 
Q 3386 3194 3357 3216 
Q 3328 3238 3328 3270 
z
M 4570 179 
Q 4570 339 4477 457 
Q 4384 576 4224 656 
Q 4064 736 3856 777 
Q 3648 819 3411 819 
Q 2899 819 2582 659 
Q 2266 499 2266 179 
Q 2266 26 2352 -86 
Q 2438 -198 2588 -275 
Q 2739 -352 2950 -390 
Q 3162 -429 3411 -429 
Q 3648 -429 3856 -390 
Q 4064 -352 4224 -275 
Q 4384 -198 4477 -86 
Q 4570 26 4570 179 
z
" transform="scale(0.015625)"/>
      <path id="NanumGothicBold-bd84" d="M 5882 1523 
Q 5882 1491 5850 1459 
Q 5818 1427 5786 1427 
L 3418 1427 
L 3418 352 
Q 3418 262 3328 262 
L 2771 262 
Q 2682 262 2682 352 
L 2682 1427 
L 211 1427 
Q 173 1427 147 1459 
Q 122 1491 122 1523 
L 122 1946 
Q 122 1984 147 2013 
Q 173 2042 211 2042 
L 5786 2042 
Q 5818 2042 5850 2010 
Q 5882 1978 5882 1946 
L 5882 1523 
z
M 5158 -787 
Q 5158 -826 5126 -845 
Q 5094 -864 5062 -864 
L 1491 -864 
Q 1203 -864 1104 -761 
Q 1005 -659 1005 -403 
L 1005 877 
Q 1005 909 1033 941 
Q 1062 973 1094 973 
L 1645 973 
Q 1683 973 1712 944 
Q 1741 915 1741 877 
L 1741 -147 
Q 1741 -211 1766 -230 
Q 1792 -250 1856 -250 
L 5062 -250 
Q 5094 -250 5126 -272 
Q 5158 -294 5158 -326 
L 5158 -787 
z
M 4198 3712 
L 1792 3712 
L 1792 3277 
Q 1792 3162 1914 3162 
L 4077 3162 
Q 4198 3162 4198 3277 
L 4198 3712 
z
M 4934 3008 
Q 4934 2790 4832 2684 
Q 4730 2579 4448 2579 
L 1549 2579 
Q 1261 2579 1158 2675 
Q 1056 2771 1056 3027 
L 1056 4845 
Q 1056 4877 1081 4899 
Q 1107 4922 1139 4922 
L 1702 4922 
Q 1734 4922 1763 4899 
Q 1792 4877 1792 4845 
L 1792 4294 
L 4198 4294 
L 4198 4851 
Q 4198 4883 4224 4908 
Q 4250 4934 4282 4934 
L 4851 4934 
Q 4883 4934 4908 4908 
Q 4934 4883 4934 4851 
L 4934 3008 
z
" transform="scale(0.015625)"/>
      <path id="NanumGothicBold-c744" d="M 3008 4570 
Q 2726 4570 2496 4528 
Q 2266 4486 2096 4409 
Q 1926 4333 1833 4230 
Q 1741 4128 1741 4013 
Q 1741 3898 1833 3802 
Q 1926 3706 2096 3632 
Q 2266 3558 2496 3520 
Q 2726 3482 3008 3482 
Q 3283 3482 3516 3520 
Q 3750 3558 3920 3632 
Q 4090 3706 4182 3805 
Q 4275 3904 4275 4019 
Q 4275 4134 4182 4233 
Q 4090 4333 3920 4409 
Q 3750 4486 3516 4528 
Q 3283 4570 3008 4570 
z
M 5018 4019 
Q 5018 3789 4886 3587 
Q 4755 3386 4499 3242 
Q 4243 3098 3868 3014 
Q 3494 2931 3008 2931 
Q 2522 2931 2147 3014 
Q 1773 3098 1517 3242 
Q 1261 3386 1129 3587 
Q 998 3789 998 4019 
Q 998 4250 1129 4454 
Q 1261 4659 1517 4806 
Q 1773 4954 2147 5040 
Q 2522 5126 3008 5126 
Q 3494 5126 3868 5040 
Q 4243 4954 4499 4806 
Q 4755 4659 4886 4454 
Q 5018 4250 5018 4019 
z
M 5114 -845 
Q 5114 -877 5085 -905 
Q 5056 -934 5030 -934 
L 1459 -934 
Q 1210 -934 1120 -844 
Q 1030 -755 1030 -550 
L 1030 198 
Q 1030 403 1116 492 
Q 1203 582 1453 582 
L 4166 582 
Q 4218 582 4230 592 
Q 4243 602 4243 666 
L 4243 858 
Q 4243 928 4230 944 
Q 4218 960 4160 960 
L 1107 960 
Q 1075 960 1046 982 
Q 1018 1005 1018 1037 
L 1018 1466 
Q 1018 1498 1046 1523 
Q 1075 1549 1107 1549 
L 4531 1549 
Q 4794 1549 4880 1469 
Q 4966 1389 4966 1171 
L 4966 422 
Q 4966 198 4880 121 
Q 4794 45 4531 45 
L 1830 45 
Q 1779 45 1766 29 
Q 1754 13 1754 -45 
L 1754 -262 
Q 1754 -320 1766 -329 
Q 1779 -339 1837 -339 
L 5024 -339 
Q 5056 -339 5085 -364 
Q 5114 -390 5114 -429 
L 5114 -845 
z
M 211 1958 
Q 122 1958 122 2048 
L 122 2458 
Q 122 2496 147 2525 
Q 173 2554 211 2554 
L 5786 2554 
Q 5818 2554 5850 2522 
Q 5882 2490 5882 2458 
L 5882 2048 
Q 5882 2016 5850 1987 
Q 5818 1958 5786 1958 
L 211 1958 
z
" transform="scale(0.015625)"/>
      <path id="NanumGothicBold-b4a4" d="M 5280 -928 
Q 5280 -1011 5190 -1011 
L 4627 -1011 
Q 4595 -1011 4566 -988 
Q 4538 -966 4538 -928 
L 4538 4979 
Q 4538 5011 4566 5036 
Q 4595 5062 4627 5062 
L 5190 5062 
Q 5280 5062 5280 4979 
L 5280 -928 
z
M 3629 2368 
Q 3629 2272 3546 2272 
L 1146 2272 
Q 890 2272 787 2387 
Q 685 2502 685 2726 
L 685 4224 
Q 685 4467 793 4553 
Q 902 4640 1146 4640 
L 3482 4640 
Q 3520 4640 3549 4614 
Q 3578 4589 3578 4557 
L 3578 4115 
Q 3578 4083 3549 4057 
Q 3520 4032 3482 4032 
L 1542 4032 
Q 1427 4032 1427 3923 
L 1427 2989 
Q 1427 2938 1449 2909 
Q 1472 2880 1542 2880 
L 3520 2880 
Q 3571 2880 3600 2864 
Q 3629 2848 3629 2797 
L 3629 2368 
z
M 211 1600 
Q 211 1690 307 1690 
Q 762 1677 1267 1680 
Q 1773 1683 2275 1702 
Q 2778 1722 3251 1757 
Q 3725 1792 4122 1843 
Q 4154 1850 4195 1840 
Q 4237 1830 4243 1779 
L 4282 1370 
Q 4288 1318 4259 1292 
Q 4230 1267 4198 1261 
Q 3885 1210 3475 1174 
Q 3066 1139 2618 1114 
L 2618 -710 
Q 2618 -755 2586 -784 
Q 2554 -813 2515 -813 
L 1990 -813 
Q 1952 -813 1920 -784 
Q 1888 -755 1888 -710 
L 1888 1082 
Q 1472 1069 1069 1062 
Q 666 1056 307 1062 
Q 262 1062 236 1091 
Q 211 1120 211 1158 
L 211 1600 
z
" transform="scale(0.015625)"/>
      <path id="NanumGothicBold-c9d1" d="M 5216 -486 
Q 5216 -704 5113 -809 
Q 5011 -915 4736 -915 
L 1965 -915 
Q 1683 -915 1580 -819 
Q 1478 -723 1478 -467 
L 1478 1427 
Q 1478 1459 1504 1481 
Q 1530 1504 1562 1504 
L 2125 1504 
Q 2157 1504 2185 1481 
Q 2214 1459 2214 1427 
L 2214 838 
L 4480 838 
L 4480 1453 
Q 4480 1485 4505 1510 
Q 4531 1536 4563 1536 
L 5133 1536 
Q 5165 1536 5190 1510 
Q 5216 1485 5216 1453 
L 5216 -486 
z
M 806 1792 
Q 768 1773 704 1773 
Q 640 1773 602 1843 
L 416 2150 
Q 384 2202 400 2259 
Q 416 2317 474 2349 
Q 806 2515 1113 2710 
Q 1421 2906 1677 3123 
Q 1933 3341 2134 3571 
Q 2336 3802 2458 4045 
Q 2490 4102 2483 4147 
Q 2477 4192 2374 4192 
L 794 4192 
Q 755 4192 732 4224 
Q 710 4256 710 4294 
L 710 4717 
Q 710 4794 800 4794 
L 2854 4794 
Q 3136 4794 3273 4691 
Q 3411 4589 3379 4378 
Q 3366 4307 3347 4230 
Q 3328 4154 3302 4096 
Q 3219 3898 3100 3709 
Q 2982 3520 2835 3334 
Q 2950 3226 3088 3117 
Q 3226 3008 3370 2912 
Q 3514 2816 3654 2733 
Q 3795 2650 3917 2592 
Q 4051 2522 3981 2406 
L 3763 2061 
Q 3731 2016 3689 2006 
Q 3648 1997 3578 2029 
Q 3469 2080 3321 2169 
Q 3174 2259 3014 2371 
Q 2854 2483 2694 2611 
Q 2534 2739 2400 2867 
Q 2054 2541 1644 2265 
Q 1235 1990 806 1792 
z
M 5216 1920 
Q 5216 1830 5133 1830 
L 4563 1830 
Q 4480 1830 4480 1926 
L 4480 4979 
Q 4480 5062 4563 5062 
L 5133 5062 
Q 5216 5062 5216 4979 
L 5216 1920 
z
M 4480 243 
L 2214 243 
L 2214 -205 
Q 2214 -314 2336 -314 
L 4365 -314 
Q 4480 -314 4480 -205 
L 4480 243 
z
" transform="scale(0.015625)"/>
      <path id="NanumGothicBold-ae30" d="M 5274 -928 
Q 5274 -1011 5190 -1011 
L 4621 -1011 
Q 4538 -1011 4538 -928 
L 4538 4979 
Q 4538 5062 4621 5062 
L 5190 5062 
Q 5274 5062 5274 4979 
L 5274 -928 
z
M 3546 4102 
Q 3494 3482 3286 2931 
Q 3078 2381 2736 1907 
Q 2394 1434 1926 1030 
Q 1459 627 896 294 
Q 845 262 784 272 
Q 723 282 691 333 
L 474 672 
Q 442 723 454 771 
Q 467 819 512 845 
Q 1466 1408 2038 2144 
Q 2611 2880 2784 3757 
Q 2810 3885 2771 3926 
Q 2733 3968 2611 3968 
L 806 3968 
Q 717 3968 717 4058 
L 717 4506 
Q 717 4582 806 4582 
L 3098 4582 
Q 3386 4582 3475 4464 
Q 3565 4346 3546 4102 
z
" transform="scale(0.015625)"/>
     </defs>
     <use xlink:href="#NanumGothicBold-bc18"/>
     <use xlink:href="#NanumGothicBold-c0ac" transform="translate(93.999985 0)"/>
     <use xlink:href="#NanumGothicBold-3a" transform="translate(187.999969 0)"/>
     <use xlink:href="#NanumGothicBold-20" transform="translate(218.299957 0)"/>
     <use xlink:href="#NanumGothicBold-bc95" transform="translate(246.299942 0)"/>
     <use xlink:href="#NanumGothicBold-c120" transform="translate(340.299927 0)"/>
     <use xlink:href="#NanumGothicBold-20" transform="translate(434.299911 0)"/>
     <use xlink:href="#NanumGothicBold-bc29" transform="translate(462.299896 0)"/>
     <use xlink:href="#NanumGothicBold-d5a5" transform="translate(556.299881 0)"/>
     <use xlink:href="#NanumGothicBold-20" transform="translate(650.299866 0)"/>
     <use xlink:href="#NanumGothicBold-c131" transform="translate(678.29985 0)"/>
     <use xlink:href="#NanumGothicBold-bd84" transform="translate(772.299835 0)"/>
     <use xlink:href="#NanumGothicBold-c744" transform="translate(866.29982 0)"/>
     <use xlink:href="#NanumGothicBold-20" transform="translate(960.299805 0)"/>
     <use xlink:href="#NanumGothicBold-b4a4" transform="translate(988.299789 0)"/>
     <use xlink:href="#NanumGothicBold-c9d1" transform="translate(1082.299774 0)"/>
     <use xlink:href="#NanumGothicBold-ae30" transform="translate(1176.299759 0)"/>
    </g>
   </g>
   <g id="patch_2">
    <path d="M 86.4759 83.806043 
Q 142.460188 143.522617 196.456335 201.118507 
" clip-path="url(#p5ec2961aa6)" style="fill: none; stroke: #2563eb; stroke-width: 2.6; stroke-linecap: round"/>
    <path d="M 194.668969 195.118064 
L 196.456335 201.118507 
L 190.583561 198.948134 
z
" clip-path="url(#p5ec2961aa6)" style="fill: #2563eb; stroke: #2563eb; stroke-width: 2.6; stroke-linecap: round"/>
   </g>
   <g id="patch_3">
    <path d="M 201.179348 203.240261 
Q 257.163636 143.523687 311.159784 85.927797 
" clip-path="url(#p5ec2961aa6)" style="fill: none; stroke: #10b981; stroke-width: 2.6; stroke-linecap: round"/>
    <path d="M 305.287009 88.09817 
L 311.159784 85.927797 
L 309.372417 91.92824 
z
" clip-path="url(#p5ec2961aa6)" style="fill: #10b981; stroke: #10b981; stroke-width: 2.6; stroke-linecap: round"/>
   </g>
   <g id="patch_4">
    <path d="M 199.812414 202.698622 
Q 199.812414 132.052164 199.812414 63.865382 
" clip-path="url(#p5ec2961aa6)" style="fill: none; stroke: #ef4444; stroke-width: 2.2; stroke-linecap: round"/>
    <path d="M 197.012414 69.465382 
L 199.812414 63.865382 
L 202.612414 69.465382 
z
" clip-path="url(#p5ec2961aa6)" style="fill: #ef4444; stroke: #ef4444; stroke-width: 2.2; stroke-linecap: round"/>
   </g>
   <g id="text_2">
    <!-- 벽 / 표면 -->
    <g style="fill: #111827" transform="translate(309.533621 206.99215) scale(0.11 -0.11)">
     <defs>
      <path id="NanumGothic-bcbd" d="M 1190 1920 
Q 1037 1920 944 1939 
Q 851 1958 800 2012 
Q 749 2067 729 2153 
Q 710 2240 710 2374 
L 710 4698 
Q 710 4730 736 4752 
Q 762 4774 794 4774 
L 1069 4774 
Q 1101 4774 1123 4748 
Q 1146 4723 1146 4698 
L 1146 3661 
L 3014 3661 
L 3014 4691 
Q 3014 4723 3036 4748 
Q 3059 4774 3091 4774 
L 3366 4774 
Q 3398 4774 3424 4752 
Q 3450 4730 3450 4698 
L 3450 3981 
L 4710 3981 
L 4710 4915 
Q 4710 5005 4800 5005 
L 5062 5005 
Q 5152 5005 5152 4915 
L 5152 1690 
Q 5152 1600 5062 1600 
L 4800 1600 
Q 4710 1600 4710 1690 
L 4710 2477 
L 3450 2477 
L 3450 2330 
Q 3450 2086 3347 2003 
Q 3245 1920 2963 1920 
L 1190 1920 
z
M 1421 1165 
Q 1421 1203 1453 1222 
Q 1485 1242 1517 1242 
L 4666 1242 
Q 4966 1242 5059 1130 
Q 5152 1018 5152 755 
L 5152 -832 
Q 5152 -922 5062 -922 
L 4800 -922 
Q 4710 -922 4710 -832 
L 4710 723 
Q 4710 813 4681 835 
Q 4653 858 4563 858 
L 1517 858 
Q 1485 858 1453 880 
Q 1421 902 1421 934 
L 1421 1165 
z
M 1146 3283 
L 1146 2451 
Q 1146 2355 1178 2326 
Q 1210 2298 1299 2298 
L 2861 2298 
Q 2950 2298 2982 2326 
Q 3014 2355 3014 2451 
L 3014 3283 
L 1146 3283 
z
M 3450 2854 
L 4710 2854 
L 4710 3603 
L 3450 3603 
L 3450 2854 
z
" transform="scale(0.015625)"/>
      <path id="NanumGothic-20" transform="scale(0.015625)"/>
      <path id="NanumGothic-2f" d="M 2304 4595 
Q 2381 4595 2390 4582 
Q 2400 4570 2374 4493 
L 589 -666 
Q 563 -730 550 -739 
Q 538 -749 467 -749 
L 198 -749 
Q 122 -749 112 -736 
Q 102 -723 128 -653 
L 1914 4499 
Q 1939 4570 1955 4582 
Q 1971 4595 2054 4595 
L 2304 4595 
z
" transform="scale(0.015625)"/>
      <path id="NanumGothic-d45c" d="M 5165 2016 
Q 5165 1933 5069 1933 
L 4198 1933 
L 4198 499 
L 5728 499 
Q 5760 499 5792 476 
Q 5824 454 5824 416 
L 5824 198 
Q 5824 166 5792 140 
Q 5760 115 5728 115 
L 288 115 
Q 250 115 221 140 
Q 192 166 192 198 
L 192 416 
Q 192 454 221 476 
Q 250 499 288 499 
L 1766 499 
L 1766 1933 
L 870 1933 
Q 838 1933 809 1958 
Q 781 1984 781 2022 
L 781 2221 
Q 781 2259 809 2284 
Q 838 2310 870 2310 
L 1683 2310 
L 1683 4211 
L 998 4211 
Q 966 4211 937 4236 
Q 909 4262 909 4301 
L 909 4499 
Q 909 4538 937 4563 
Q 966 4589 998 4589 
L 4941 4589 
Q 5037 4589 5037 4506 
L 5037 4294 
Q 5037 4211 4941 4211 
L 4288 4211 
L 4288 2310 
L 5069 2310 
Q 5165 2310 5165 2227 
L 5165 2016 
z
M 2118 2310 
L 3853 2310 
L 3853 4211 
L 2118 4211 
L 2118 2310 
z
M 2202 499 
L 3763 499 
L 3763 1933 
L 2202 1933 
L 2202 499 
z
" transform="scale(0.015625)"/>
      <path id="NanumGothic-ba74" d="M 5152 877 
Q 5152 787 5062 787 
L 4800 787 
Q 4710 787 4710 877 
L 4710 2381 
L 3443 2381 
L 3443 2227 
Q 3443 1958 3340 1865 
Q 3238 1773 2957 1773 
L 1197 1773 
Q 1043 1773 950 1792 
Q 858 1811 803 1865 
Q 749 1920 729 2006 
Q 710 2093 710 2227 
L 710 4205 
Q 710 4474 812 4566 
Q 915 4659 1197 4659 
L 2957 4659 
Q 3110 4659 3203 4640 
Q 3296 4621 3350 4569 
Q 3405 4518 3424 4428 
Q 3443 4339 3443 4205 
L 3443 3974 
L 4710 3974 
L 4710 4915 
Q 4710 5005 4800 5005 
L 5062 5005 
Q 5152 5005 5152 4915 
L 5152 877 
z
M 1306 4275 
Q 1216 4275 1184 4240 
Q 1152 4205 1152 4109 
L 1152 2323 
Q 1152 2227 1184 2192 
Q 1216 2157 1306 2157 
L 2848 2157 
Q 2938 2157 2970 2192 
Q 3002 2227 3002 2323 
L 3002 4109 
Q 3002 4205 2970 4240 
Q 2938 4275 2848 4275 
L 1306 4275 
z
M 5350 -704 
Q 5350 -742 5318 -761 
Q 5286 -781 5254 -781 
L 2048 -781 
Q 1747 -781 1654 -669 
Q 1562 -557 1562 -294 
L 1562 1005 
Q 1562 1094 1651 1094 
L 1914 1094 
Q 2003 1094 2003 1005 
L 2003 -262 
Q 2003 -352 2032 -374 
Q 2061 -397 2150 -397 
L 5254 -397 
Q 5286 -397 5318 -419 
Q 5350 -442 5350 -474 
L 5350 -704 
z
M 3443 2758 
L 4710 2758 
L 4710 3597 
L 3443 3597 
L 3443 2758 
z
" transform="scale(0.015625)"/>
     </defs>
     <use xlink:href="#NanumGothic-bcbd"/>
     <use xlink:href="#NanumGothic-20" transform="translate(93.999985 0)"/>
     <use xlink:href="#NanumGothic-2f" transform="translate(121.999969 0)"/>
     <use xlink:href="#NanumGothic-20" transform="translate(159.499954 0)"/>
     <use xlink:href="#NanumGothic-d45c" transform="translate(187.499939 0)"/>
     <use xlink:href="#NanumGothic-ba74" transform="translate(281.499924 0)"/>
    </g>
   </g>
   <g id="text_3">
    <!-- 입사 속도 v -->
    <g style="fill: #2563eb" transform="translate(123.343448 135.111323) scale(0.11 -0.11)">
     <defs>
      <path id="NanumGothic-c785" d="M 5152 1965 
Q 5152 1875 5062 1875 
L 4800 1875 
Q 4710 1875 4710 1965 
L 4710 4915 
Q 4710 5005 4800 5005 
L 5062 5005 
Q 5152 5005 5152 4915 
L 5152 1965 
z
M 3590 3411 
Q 3590 3104 3468 2841 
Q 3347 2579 3142 2387 
Q 2938 2195 2659 2086 
Q 2381 1978 2067 1978 
Q 1760 1978 1488 2083 
Q 1216 2189 1011 2377 
Q 806 2566 688 2828 
Q 570 3091 570 3411 
Q 570 3750 688 4016 
Q 806 4282 1011 4467 
Q 1216 4653 1488 4752 
Q 1760 4851 2067 4851 
Q 2355 4851 2630 4752 
Q 2906 4653 3120 4467 
Q 3334 4282 3462 4016 
Q 3590 3750 3590 3411 
z
M 3142 3418 
Q 3142 3667 3052 3859 
Q 2963 4051 2812 4182 
Q 2662 4314 2470 4381 
Q 2278 4448 2067 4448 
Q 1856 4448 1664 4381 
Q 1472 4314 1328 4186 
Q 1184 4058 1101 3862 
Q 1018 3667 1018 3418 
Q 1018 3181 1098 2989 
Q 1178 2797 1318 2659 
Q 1459 2522 1651 2448 
Q 1843 2374 2067 2374 
Q 2278 2374 2470 2448 
Q 2662 2522 2812 2656 
Q 2963 2790 3052 2982 
Q 3142 3174 3142 3418 
z
M 1978 -845 
Q 1824 -845 1731 -825 
Q 1638 -806 1587 -752 
Q 1536 -698 1517 -611 
Q 1498 -525 1498 -390 
L 1498 1446 
Q 1498 1478 1523 1497 
Q 1549 1517 1581 1517 
L 1862 1517 
Q 1894 1517 1916 1494 
Q 1939 1472 1939 1446 
L 1939 768 
L 4710 768 
L 4710 1434 
Q 4710 1466 4732 1491 
Q 4755 1517 4787 1517 
L 5069 1517 
Q 5101 1517 5126 1494 
Q 5152 1472 5152 1440 
L 5152 -435 
Q 5152 -678 5049 -761 
Q 4947 -845 4666 -845 
L 1978 -845 
z
M 1939 384 
L 1939 -307 
Q 1939 -403 1971 -432 
Q 2003 -461 2093 -461 
L 4557 -461 
Q 4646 -461 4678 -432 
Q 4710 -403 4710 -307 
L 4710 384 
L 1939 384 
z
" transform="scale(0.015625)"/>
      <path id="NanumGothic-c0ac" d="M 2285 4589 
Q 2285 4166 2249 3779 
Q 2214 3392 2138 3034 
Q 2202 2778 2336 2493 
Q 2470 2208 2652 1926 
Q 2835 1645 3062 1379 
Q 3290 1114 3546 902 
Q 3578 877 3581 838 
Q 3584 800 3565 774 
L 3405 576 
Q 3347 506 3270 576 
Q 3091 730 2902 944 
Q 2714 1158 2538 1395 
Q 2362 1632 2208 1881 
Q 2054 2131 1946 2362 
Q 1741 1779 1408 1289 
Q 1075 800 614 378 
Q 550 326 506 371 
L 314 570 
Q 294 589 297 621 
Q 301 653 333 685 
Q 723 1056 1011 1465 
Q 1299 1875 1481 2348 
Q 1664 2822 1750 3379 
Q 1837 3936 1837 4602 
Q 1837 4646 1859 4668 
Q 1882 4691 1914 4691 
L 2214 4678 
Q 2285 4678 2285 4589 
z
M 4928 -806 
Q 4928 -896 4838 -896 
L 4576 -896 
Q 4486 -896 4486 -806 
L 4486 4915 
Q 4486 5005 4576 5005 
L 4838 5005 
Q 4928 5005 4928 4915 
L 4928 2586 
L 5811 2586 
Q 5850 2586 5878 2563 
Q 5907 2541 5907 2502 
L 5907 2285 
Q 5907 2253 5878 2227 
Q 5850 2202 5811 2202 
L 4928 2202 
L 4928 -806 
z
" transform="scale(0.015625)"/>
      <path id="NanumGothic-c18d" d="M 5728 2080 
Q 5760 2080 5792 2057 
Q 5824 2035 5824 1997 
L 5824 1779 
Q 5824 1747 5792 1721 
Q 5760 1696 5728 1696 
L 288 1696 
Q 250 1696 221 1721 
Q 192 1747 192 1779 
L 192 2003 
Q 192 2042 221 2061 
Q 250 2080 288 2080 
L 2765 2080 
L 2765 2957 
Q 2765 3046 2854 3046 
L 3117 3046 
Q 3206 3046 3206 2957 
L 3206 2080 
L 5728 2080 
z
M 3232 4870 
Q 3219 4819 3209 4764 
Q 3200 4710 3187 4659 
Q 3219 4563 3264 4493 
Q 3379 4288 3577 4089 
Q 3776 3891 4035 3721 
Q 4294 3552 4604 3421 
Q 4915 3290 5254 3213 
Q 5293 3200 5299 3168 
Q 5306 3136 5293 3104 
L 5184 2886 
Q 5171 2854 5148 2838 
Q 5126 2822 5062 2835 
Q 4723 2918 4409 3059 
Q 4096 3200 3827 3379 
Q 3558 3558 3337 3769 
Q 3117 3981 2976 4205 
Q 2694 3744 2166 3366 
Q 1638 2989 934 2784 
Q 832 2758 806 2816 
L 710 3046 
Q 698 3078 707 3116 
Q 717 3155 762 3168 
Q 1190 3283 1548 3472 
Q 1907 3661 2172 3894 
Q 2438 4128 2598 4390 
Q 2758 4653 2790 4915 
Q 2803 5005 2874 4992 
L 3162 4960 
Q 3238 4947 3232 4870 
z
M 947 909 
Q 947 947 979 966 
Q 1011 986 1043 986 
L 4442 986 
Q 4742 986 4835 874 
Q 4928 762 4928 499 
L 4928 -870 
Q 4928 -960 4838 -960 
L 4576 -960 
Q 4486 -960 4486 -870 
L 4486 467 
Q 4486 557 4457 579 
Q 4429 602 4339 602 
L 1043 602 
Q 1011 602 979 624 
Q 947 646 947 678 
L 947 909 
z
" transform="scale(0.015625)"/>
      <path id="NanumGothic-b3c4" d="M 5030 1984 
Q 5030 1894 4947 1894 
L 3213 1894 
L 3213 499 
L 5728 499 
Q 5760 499 5792 476 
Q 5824 454 5824 416 
L 5824 198 
Q 5824 166 5792 140 
Q 5760 115 5728 115 
L 288 115 
Q 250 115 221 140 
Q 192 166 192 198 
L 192 416 
Q 192 454 221 476 
Q 250 499 288 499 
L 2771 499 
L 2771 1894 
L 1491 1894 
Q 1210 1894 1107 1987 
Q 1005 2080 1005 2349 
L 1005 4134 
Q 1005 4403 1107 4496 
Q 1210 4589 1491 4589 
L 4902 4589 
Q 4986 4589 4986 4506 
L 4986 4294 
Q 4986 4205 4902 4205 
L 1600 4205 
Q 1510 4205 1478 4166 
Q 1446 4128 1446 4032 
L 1446 2445 
Q 1446 2355 1478 2316 
Q 1510 2278 1600 2278 
L 4947 2278 
Q 5030 2278 5030 2195 
L 5030 1984 
z
" transform="scale(0.015625)"/>
      <path id="NanumGothic-76" d="M 1843 -192 
Q 1811 -275 1715 -275 
L 1402 -275 
Q 1306 -275 1280 -192 
L 154 3098 
Q 141 3130 160 3158 
Q 179 3187 218 3187 
L 506 3187 
Q 582 3187 621 3098 
L 1568 166 
L 2554 3098 
Q 2566 3136 2598 3161 
Q 2630 3187 2669 3187 
L 2950 3187 
Q 2989 3187 3008 3158 
Q 3027 3130 3014 3098 
L 1843 -192 
z
" transform="scale(0.015625)"/>
     </defs>
     <use xlink:href="#NanumGothic-c785"/>
     <use xlink:href="#NanumGothic-c0ac" transform="translate(93.999985 0)"/>
     <use xlink:href="#NanumGothic-20" transform="translate(187.999969 0)"/>
     <use xlink:href="#NanumGothic-c18d" transform="translate(215.999954 0)"/>
     <use xlink:href="#NanumGothic-b3c4" transform="translate(309.999939 0)"/>
     <use xlink:href="#NanumGothic-20" transform="translate(403.999924 0)"/>
     <use xlink:href="#NanumGothic-76" transform="translate(431.999908 0)"/>
    </g>
   </g>
   <g id="text_4">
    <!-- 반사 속도 r -->
    <g style="fill: #10b981" transform="translate(264.811034 135.111323) scale(0.11 -0.11)">
     <defs>
      <path id="NanumGothic-bc18" d="M 1158 1715 
Q 1005 1715 912 1734 
Q 819 1754 768 1808 
Q 717 1862 697 1948 
Q 678 2035 678 2170 
L 678 4691 
Q 678 4723 704 4745 
Q 730 4768 762 4768 
L 1037 4768 
Q 1069 4768 1091 4742 
Q 1114 4717 1114 4691 
L 1114 3584 
L 2976 3584 
L 2976 4685 
Q 2976 4717 2998 4742 
Q 3021 4768 3053 4768 
L 3328 4768 
Q 3360 4768 3385 4745 
Q 3411 4723 3411 4691 
L 3411 2125 
Q 3411 1882 3308 1798 
Q 3206 1715 2925 1715 
L 1158 1715 
z
M 4928 832 
Q 4928 742 4838 742 
L 4576 742 
Q 4486 742 4486 832 
L 4486 4915 
Q 4486 5005 4576 5005 
L 4838 5005 
Q 4928 5005 4928 4915 
L 4928 3130 
L 5811 3130 
Q 5850 3130 5878 3107 
Q 5907 3085 5907 3046 
L 5907 2829 
Q 5907 2797 5878 2771 
Q 5850 2746 5811 2746 
L 4928 2746 
L 4928 832 
z
M 5216 -704 
Q 5216 -742 5184 -761 
Q 5152 -781 5120 -781 
L 1862 -781 
Q 1562 -781 1469 -669 
Q 1376 -557 1376 -294 
L 1376 960 
Q 1376 1050 1466 1050 
L 1728 1050 
Q 1818 1050 1818 960 
L 1818 -262 
Q 1818 -352 1846 -374 
Q 1875 -397 1965 -397 
L 5120 -397 
Q 5152 -397 5184 -419 
Q 5216 -442 5216 -474 
L 5216 -704 
z
M 1114 3206 
L 1114 2246 
Q 1114 2150 1146 2121 
Q 1178 2093 1267 2093 
L 2822 2093 
Q 2912 2093 2944 2121 
Q 2976 2150 2976 2246 
L 2976 3206 
L 1114 3206 
z
" transform="scale(0.015625)"/>
      <path id="NanumGothic-72" d="M 2221 2797 
Q 2106 2835 1914 2835 
Q 1440 2835 1210 2368 
Q 1030 2003 1030 1434 
L 1030 -186 
Q 1030 -275 941 -275 
L 691 -275 
Q 602 -275 602 -186 
L 602 2413 
Q 602 2643 598 2787 
Q 595 2931 589 3098 
Q 589 3187 678 3187 
L 915 3187 
Q 1005 3187 1005 3098 
L 1005 2470 
Q 1318 3277 1926 3277 
Q 2074 3277 2221 3238 
Q 2259 3226 2288 3197 
Q 2317 3168 2317 3117 
L 2317 2848 
Q 2317 2810 2285 2797 
Q 2253 2784 2221 2797 
z
" transform="scale(0.015625)"/>
     </defs>
     <use xlink:href="#NanumGothic-bc18"/>
     <use xlink:href="#NanumGothic-c0ac" transform="translate(93.999985 0)"/>
     <use xlink:href="#NanumGothic-20" transform="translate(187.999969 0)"/>
     <use xlink:href="#NanumGothic-c18d" transform="translate(215.999954 0)"/>
     <use xlink:href="#NanumGothic-b3c4" transform="translate(309.999939 0)"/>
     <use xlink:href="#NanumGothic-20" transform="translate(403.999924 0)"/>
     <use xlink:href="#NanumGothic-72" transform="translate(431.999908 0)"/>
    </g>
   </g>
   <g id="text_5">
    <!-- 법선 n -->
    <g style="fill: #ef4444" transform="translate(207.45931 125.552702) scale(0.11 -0.11)">
     <defs>
      <path id="NanumGothic-bc95" d="M 1190 2099 
Q 1037 2099 944 2118 
Q 851 2138 800 2192 
Q 749 2246 729 2332 
Q 710 2419 710 2554 
L 710 4781 
Q 710 4813 736 4835 
Q 762 4858 794 4858 
L 1069 4858 
Q 1101 4858 1123 4832 
Q 1146 4806 1146 4781 
L 1146 3821 
L 3008 3821 
L 3008 4774 
Q 3008 4806 3030 4832 
Q 3053 4858 3085 4858 
L 3360 4858 
Q 3392 4858 3417 4835 
Q 3443 4813 3443 4781 
L 3443 3616 
L 4710 3616 
L 4710 4915 
Q 4710 5005 4800 5005 
L 5062 5005 
Q 5152 5005 5152 4915 
L 5152 1971 
Q 5152 1882 5062 1882 
L 4800 1882 
Q 4710 1882 4710 1971 
L 4710 3232 
L 3443 3232 
L 3443 2509 
Q 3443 2266 3340 2182 
Q 3238 2099 2957 2099 
L 1190 2099 
z
M 1978 -845 
Q 1824 -845 1731 -825 
Q 1638 -806 1587 -752 
Q 1536 -698 1517 -611 
Q 1498 -525 1498 -390 
L 1498 1446 
Q 1498 1478 1523 1497 
Q 1549 1517 1581 1517 
L 1862 1517 
Q 1894 1517 1916 1494 
Q 1939 1472 1939 1446 
L 1939 768 
L 4710 768 
L 4710 1434 
Q 4710 1466 4732 1491 
Q 4755 1517 4787 1517 
L 5069 1517 
Q 5101 1517 5126 1494 
Q 5152 1472 5152 1440 
L 5152 -435 
Q 5152 -678 5049 -761 
Q 4947 -845 4666 -845 
L 1978 -845 
z
M 1939 384 
L 1939 -307 
Q 1939 -403 1971 -432 
Q 2003 -461 2093 -461 
L 4557 -461 
Q 4646 -461 4678 -432 
Q 4710 -403 4710 -307 
L 4710 384 
L 1939 384 
z
M 1146 3443 
L 1146 2630 
Q 1146 2534 1178 2505 
Q 1210 2477 1299 2477 
L 2854 2477 
Q 2944 2477 2976 2505 
Q 3008 2534 3008 2630 
L 3008 3443 
L 1146 3443 
z
" transform="scale(0.015625)"/>
      <path id="NanumGothic-c120" d="M 2381 4710 
Q 2381 4461 2352 4224 
Q 2323 3987 2272 3763 
Q 2349 3501 2493 3241 
Q 2637 2982 2832 2748 
Q 3027 2515 3257 2326 
Q 3488 2138 3731 2022 
Q 3770 2003 3766 1971 
Q 3763 1939 3750 1907 
L 3622 1696 
Q 3603 1664 3577 1651 
Q 3552 1638 3494 1670 
Q 3309 1760 3107 1926 
Q 2906 2093 2710 2294 
Q 2515 2496 2348 2723 
Q 2182 2950 2074 3162 
Q 1856 2643 1501 2217 
Q 1146 1792 666 1478 
Q 634 1459 595 1452 
Q 557 1446 531 1478 
L 371 1690 
Q 352 1715 365 1753 
Q 378 1792 410 1811 
Q 755 2022 1040 2336 
Q 1325 2650 1526 3027 
Q 1728 3405 1833 3837 
Q 1939 4269 1933 4717 
Q 1933 4819 2010 4819 
L 2310 4800 
Q 2381 4800 2381 4710 
z
M 4710 3475 
L 4710 4915 
Q 4710 5005 4800 5005 
L 5062 5005 
Q 5152 5005 5152 4915 
L 5152 832 
Q 5152 742 5062 742 
L 4800 742 
Q 4710 742 4710 832 
L 4710 3091 
L 3392 3091 
Q 3309 3091 3309 3168 
L 3309 3398 
Q 3309 3475 3392 3475 
L 4710 3475 
z
M 5344 -704 
Q 5344 -742 5312 -761 
Q 5280 -781 5248 -781 
L 2042 -781 
Q 1741 -781 1648 -669 
Q 1555 -557 1555 -294 
L 1555 960 
Q 1555 1050 1645 1050 
L 1907 1050 
Q 1997 1050 1997 960 
L 1997 -262 
Q 1997 -352 2025 -374 
Q 2054 -397 2144 -397 
L 5248 -397 
Q 5280 -397 5312 -419 
Q 5344 -442 5344 -474 
L 5344 -704 
z
" transform="scale(0.015625)"/>
      <path id="NanumGothic-6e" d="M 3334 -186 
Q 3334 -275 3245 -275 
L 2989 -275 
Q 2899 -275 2899 -186 
L 2899 1830 
Q 2899 2419 2688 2665 
Q 2477 2912 2093 2912 
Q 1574 2912 1302 2624 
Q 1030 2336 1030 1818 
L 1030 -186 
Q 1030 -275 941 -275 
L 685 -275 
Q 595 -275 595 -186 
L 595 2374 
Q 595 2650 592 2803 
Q 589 2957 576 3098 
Q 570 3142 598 3164 
Q 627 3187 666 3187 
L 896 3187 
Q 986 3187 986 3098 
L 986 2746 
Q 1165 3021 1417 3149 
Q 1670 3277 2112 3277 
Q 2720 3277 3027 2925 
Q 3334 2573 3334 1933 
L 3334 -186 
z
" transform="scale(0.015625)"/>
     </defs>
     <use xlink:href="#NanumGothic-bc95"/>
     <use xlink:href="#NanumGothic-c120" transform="translate(93.999985 0)"/>
     <use xlink:href="#NanumGothic-20" transform="translate(187.999969 0)"/>
     <use xlink:href="#NanumGothic-6e" transform="translate(215.999954 0)"/>
    </g>
   </g>
  </g>
 </g>
 <defs>
  <clipPath id="p5ec2961aa6">
   <rect x="8.64" y="28.819704" width="382.344828" height="221.76"/>
  </clipPath>
 </defs>
</svg>
