<?xml version="1.0" encoding="utf-8" standalone="no"?>
<!DOCTYPE svg PUBLIC "-//W3C//DTD SVG 1.1//EN"
  "http://www.w3.org/Graphics/SVG/1.1/DTD/svg11.dtd">
<svg xmlns:xlink="http://www.w3.org/1999/xlink" width="631.08pt" height="150.933622pt" viewBox="0 0 631.08 150.933622" xmlns="http://www.w3.org/2000/svg" version="1.1">
 <metadata>
  <rdf:RDF xmlns:dc="http://purl.org/dc/elements/1.1/" xmlns:cc="http://creativecommons.org/ns#" xmlns:rdf="http://www.w3.org/1999/02/22-rdf-syntax-ns#">
   <cc:Work>
    <dc:type rdf:resource="http://purl.org/dc/dcmitype/StillImage"/>
    <dc:date>2026-07-08T05:12:55.996430</dc:date>
    <dc:format>image/svg+xml</dc:format>
    <dc:creator>
     <cc:Agent>
      <dc:title>Matplotlib v3.10.8, https://matplotlib.org/</dc:title>
     </cc:Agent>
    </dc:creator>
   </cc:Work>
  </rdf:RDF>
 </metadata>
 <defs>
  <style type="text/css">*{stroke-linejoin: round; stroke-linecap: butt}</style>
 </defs>
 <g id="figure_1">
  <g id="patch_1">
   <path d="M 0 150.933622 
L 631.08 150.933622 
L 631.08 0 
L 0 0 
z
" style="fill: #ffffff"/>
  </g>
  <g id="axes_1">
   <g id="text_1">
    <!-- 오브젝트 변환 -->
    <g style="fill: #111827" transform="translate(8.64 20.054063) scale(0.15 -0.15)">
     <defs>
      <path id="NanumGothicBold-c624" d="M 5882 122 
Q 5882 90 5850 58 
Q 5818 26 5786 26 
L 211 26 
Q 173 26 147 58 
Q 122 90 122 122 
L 122 538 
Q 122 640 211 640 
L 2630 640 
L 2630 1824 
Q 2253 1862 1936 1980 
Q 1619 2099 1388 2284 
Q 1158 2470 1030 2716 
Q 902 2963 902 3264 
Q 902 3597 1062 3865 
Q 1222 4134 1504 4326 
Q 1786 4518 2170 4620 
Q 2554 4723 3002 4723 
Q 3450 4723 3834 4620 
Q 4218 4518 4499 4326 
Q 4781 4134 4937 3865 
Q 5094 3597 5094 3264 
Q 5094 2963 4966 2716 
Q 4838 2470 4608 2284 
Q 4378 2099 4061 1980 
Q 3744 1862 3366 1824 
L 3366 640 
L 5786 640 
Q 5818 640 5850 608 
Q 5882 576 5882 538 
L 5882 122 
z
M 3002 4115 
Q 2733 4115 2489 4054 
Q 2246 3994 2064 3882 
Q 1882 3770 1773 3613 
Q 1664 3456 1664 3264 
Q 1664 3072 1773 2912 
Q 1882 2752 2064 2640 
Q 2246 2528 2489 2467 
Q 2733 2406 3002 2406 
Q 3270 2406 3513 2467 
Q 3757 2528 3939 2640 
Q 4122 2752 4227 2912 
Q 4333 3072 4333 3264 
Q 4333 3456 4227 3613 
Q 4122 3770 3939 3882 
Q 3757 3994 3513 4054 
Q 3270 4115 3002 4115 
z
" transform="scale(0.015625)"/>
      <path id="NanumGothicBold-be0c" d="M 5882 166 
Q 5882 134 5850 102 
Q 5818 70 5786 70 
L 218 70 
Q 179 70 153 102 
Q 128 134 128 166 
L 128 582 
Q 128 621 153 653 
Q 179 685 218 685 
L 5786 685 
Q 5818 685 5850 649 
Q 5882 614 5882 582 
L 5882 166 
z
M 4282 3213 
L 1709 3213 
L 1709 2522 
Q 1709 2413 1824 2413 
L 4166 2413 
Q 4282 2413 4282 2522 
L 4282 3213 
z
M 5018 2240 
Q 5018 2029 4915 1920 
Q 4813 1811 4538 1811 
L 1459 1811 
Q 1178 1811 1075 1907 
Q 973 2003 973 2259 
L 973 4710 
Q 973 4742 998 4764 
Q 1024 4787 1056 4787 
L 1619 4787 
Q 1651 4787 1680 4764 
Q 1709 4742 1709 4710 
L 1709 3808 
L 4282 3808 
L 4282 4717 
Q 4282 4749 4307 4774 
Q 4333 4800 4365 4800 
L 4934 4800 
Q 4966 4800 4992 4774 
Q 5018 4749 5018 4717 
L 5018 2240 
z
" transform="scale(0.015625)"/>
      <path id="NanumGothicBold-c81d" d="M 691 1600 
Q 646 1574 592 1571 
Q 538 1568 499 1613 
L 269 1894 
Q 237 1933 243 1987 
Q 250 2042 301 2074 
Q 979 2496 1427 3008 
Q 1875 3520 2035 4045 
Q 2061 4134 2041 4160 
Q 2022 4186 1946 4186 
L 659 4186 
Q 627 4186 608 4214 
Q 589 4243 589 4282 
L 589 4678 
Q 589 4768 666 4768 
L 2298 4768 
Q 2829 4768 2829 4422 
Q 2829 4371 2813 4297 
Q 2797 4224 2784 4166 
Q 2714 3917 2598 3654 
Q 2483 3392 2317 3136 
Q 2496 2893 2752 2659 
Q 3008 2426 3232 2304 
Q 3366 2227 3270 2112 
L 3072 1837 
Q 2976 1728 2854 1805 
Q 2758 1862 2640 1955 
Q 2522 2048 2397 2160 
Q 2272 2272 2157 2393 
Q 2042 2515 1946 2637 
Q 1683 2336 1369 2067 
Q 1056 1798 691 1600 
z
M 5549 -909 
Q 5549 -941 5520 -969 
Q 5491 -998 5459 -998 
L 4909 -998 
Q 4870 -998 4841 -969 
Q 4813 -941 4813 -909 
L 4813 480 
Q 4813 550 4787 569 
Q 4762 589 4698 589 
L 1510 589 
Q 1478 589 1446 611 
Q 1414 634 1414 666 
L 1414 1120 
Q 1414 1158 1446 1177 
Q 1478 1197 1510 1197 
L 5126 1197 
Q 5370 1197 5459 1097 
Q 5549 998 5549 755 
L 5549 -909 
z
M 3674 4877 
Q 3674 4909 3702 4934 
Q 3731 4960 3770 4960 
L 4288 4960 
Q 4320 4960 4349 4934 
Q 4378 4909 4378 4877 
L 4378 1626 
Q 4378 1587 4349 1561 
Q 4320 1536 4288 1536 
L 3770 1536 
Q 3731 1536 3702 1561 
Q 3674 1587 3674 1626 
L 3674 2989 
L 2950 2989 
Q 2918 2989 2889 3011 
Q 2861 3034 2861 3066 
L 2861 3494 
Q 2861 3533 2889 3555 
Q 2918 3578 2950 3578 
L 3674 3578 
L 3674 4877 
z
M 4826 4979 
Q 4826 5062 4915 5062 
L 5466 5062 
Q 5549 5062 5549 4979 
L 5549 1581 
Q 5549 1491 5466 1491 
L 4909 1491 
Q 4826 1491 4826 1581 
L 4826 4979 
z
" transform="scale(0.015625)"/>
      <path id="NanumGothicBold-d2b8" d="M 5069 1715 
Q 5069 1664 5046 1641 
Q 5024 1619 4992 1619 
L 1421 1619 
Q 1165 1619 1062 1734 
Q 960 1850 960 2074 
L 960 4288 
Q 960 4531 1069 4617 
Q 1178 4704 1421 4704 
L 4934 4704 
Q 5024 4704 5024 4621 
L 5024 4192 
Q 5024 4102 4934 4102 
L 1811 4102 
Q 1696 4102 1696 3994 
L 1696 3462 
L 4851 3462 
Q 4883 3462 4912 3436 
Q 4941 3411 4941 3379 
L 4941 2963 
Q 4941 2925 4912 2899 
Q 4883 2874 4851 2874 
L 1696 2874 
L 1696 2330 
Q 1696 2259 1718 2236 
Q 1741 2214 1811 2214 
L 4966 2214 
Q 5018 2214 5043 2201 
Q 5069 2189 5069 2138 
L 5069 1715 
z
M 5786 672 
Q 5818 672 5850 640 
Q 5882 608 5882 570 
L 5882 166 
Q 5882 134 5850 102 
Q 5818 70 5786 70 
L 211 70 
Q 173 70 147 102 
Q 122 134 122 166 
L 122 570 
Q 122 672 211 672 
L 5786 672 
z
" transform="scale(0.015625)"/>
      <path id="NanumGothicBold-20" transform="scale(0.015625)"/>
      <path id="NanumGothicBold-bcc0" d="M 3456 2067 
Q 3456 1850 3353 1744 
Q 3251 1638 2976 1638 
L 1126 1638 
Q 845 1638 742 1734 
Q 640 1830 640 2086 
L 640 4698 
Q 640 4730 665 4752 
Q 691 4774 723 4774 
L 1280 4774 
Q 1312 4774 1341 4752 
Q 1370 4730 1370 4698 
L 1370 3699 
L 2726 3699 
L 2726 4704 
Q 2726 4736 2752 4761 
Q 2778 4787 2810 4787 
L 3373 4787 
Q 3405 4787 3430 4761 
Q 3456 4736 3456 4704 
L 3456 4090 
L 4544 4090 
L 4544 4979 
Q 4544 5062 4627 5062 
L 5197 5062 
Q 5280 5062 5280 4979 
L 5280 787 
Q 5280 704 5197 704 
L 4627 704 
Q 4544 704 4544 787 
L 4544 2221 
L 3456 2221 
L 3456 2067 
z
M 5466 -826 
Q 5466 -864 5437 -883 
Q 5408 -902 5376 -902 
L 2048 -902 
Q 1760 -902 1657 -800 
Q 1555 -698 1555 -448 
L 1555 870 
Q 1555 902 1587 934 
Q 1619 966 1651 966 
L 2195 966 
Q 2240 966 2269 934 
Q 2298 902 2298 870 
L 2298 -186 
Q 2298 -250 2323 -269 
Q 2349 -288 2413 -288 
L 5376 -288 
Q 5408 -288 5437 -313 
Q 5466 -339 5466 -371 
L 5466 -826 
z
M 2726 3104 
L 1370 3104 
L 1370 2368 
Q 1370 2259 1485 2259 
L 2611 2259 
Q 2726 2259 2726 2368 
L 2726 3104 
z
M 4544 2797 
L 4544 3514 
L 3456 3514 
L 3456 2797 
L 4544 2797 
z
" transform="scale(0.015625)"/>
      <path id="NanumGothicBold-d658" d="M 224 1267 
Q 224 1357 314 1357 
Q 672 1344 1049 1341 
Q 1427 1338 1824 1350 
L 1824 1779 
Q 1613 1818 1427 1891 
Q 1242 1965 1104 2077 
Q 966 2189 889 2336 
Q 813 2483 813 2656 
Q 813 2867 925 3036 
Q 1037 3206 1229 3321 
Q 1421 3437 1673 3501 
Q 1926 3565 2202 3565 
Q 2483 3565 2736 3501 
Q 2989 3437 3181 3321 
Q 3373 3206 3485 3036 
Q 3597 2867 3597 2656 
Q 3597 2477 3517 2326 
Q 3437 2176 3293 2064 
Q 3149 1952 2957 1878 
Q 2765 1805 2547 1773 
L 2547 1370 
Q 2918 1389 3270 1414 
Q 3622 1440 3949 1478 
Q 3981 1485 4016 1472 
Q 4051 1459 4058 1414 
L 4090 1056 
Q 4096 1011 4070 982 
Q 4045 954 4013 947 
Q 3571 896 3081 861 
Q 2592 826 2109 806 
Q 1626 787 1165 780 
Q 704 774 314 787 
Q 275 787 249 816 
Q 224 845 224 883 
L 224 1267 
z
M 5971 2157 
Q 5971 2125 5942 2099 
Q 5914 2074 5882 2074 
L 5043 2074 
L 5043 403 
Q 5043 320 4960 320 
L 4390 320 
Q 4307 320 4307 403 
L 4307 4979 
Q 4307 5062 4390 5062 
L 4960 5062 
Q 5043 5062 5043 4979 
L 5043 2688 
L 5882 2688 
Q 5914 2688 5942 2665 
Q 5971 2643 5971 2611 
L 5971 2157 
z
M 5338 -870 
Q 5338 -909 5309 -928 
Q 5280 -947 5248 -947 
L 1677 -947 
Q 1382 -947 1283 -844 
Q 1184 -742 1184 -493 
L 1184 429 
Q 1184 461 1213 489 
Q 1242 518 1274 518 
L 1830 518 
Q 1875 518 1900 489 
Q 1926 461 1926 429 
L 1926 -230 
Q 1926 -294 1955 -313 
Q 1984 -333 2048 -333 
L 5248 -333 
Q 5280 -333 5309 -358 
Q 5338 -384 5338 -416 
L 5338 -870 
z
M 3840 3834 
Q 3840 3795 3811 3766 
Q 3782 3738 3744 3738 
L 538 3738 
Q 506 3738 474 3770 
Q 442 3802 442 3840 
L 442 4173 
Q 442 4211 477 4243 
Q 512 4275 544 4275 
L 3744 4275 
Q 3782 4275 3811 4246 
Q 3840 4218 3840 4173 
L 3840 3834 
z
M 3040 4602 
Q 3040 4563 3011 4528 
Q 2982 4493 2931 4493 
L 1357 4493 
Q 1331 4493 1292 4521 
Q 1254 4550 1254 4595 
L 1254 4941 
Q 1254 4986 1292 5011 
Q 1331 5037 1357 5037 
L 2931 5037 
Q 2976 5037 3008 5005 
Q 3040 4973 3040 4934 
L 3040 4602 
z
M 2202 3046 
Q 1914 3046 1725 2937 
Q 1536 2829 1536 2656 
Q 1536 2483 1725 2374 
Q 1914 2266 2202 2266 
Q 2496 2266 2681 2374 
Q 2867 2483 2867 2656 
Q 2867 2829 2681 2937 
Q 2496 3046 2202 3046 
z
" transform="scale(0.015625)"/>
     </defs>
     <use xlink:href="#NanumGothicBold-c624"/>
     <use xlink:href="#NanumGothicBold-be0c" transform="translate(93.999985 0)"/>
     <use xlink:href="#NanumGothicBold-c81d" transform="translate(187.999969 0)"/>
     <use xlink:href="#NanumGothicBold-d2b8" transform="translate(281.999954 0)"/>
     <use xlink:href="#NanumGothicBold-20" transform="translate(375.999939 0)"/>
     <use xlink:href="#NanumGothicBold-bcc0" transform="translate(403.999924 0)"/>
     <use xlink:href="#NanumGothicBold-d658" transform="translate(497.999908 0)"/>
    </g>
   </g>
   <g id="text_2">
    <!-- local -->
    <g style="fill: #111827" transform="translate(47.712429 89.567607) scale(0.11 -0.11)">
     <defs>
      <path id="NanumGothicBold-6c" d="M 544 -326 
Q 474 -326 474 -250 
L 474 4794 
Q 474 4826 496 4848 
Q 518 4870 550 4870 
L 1088 4870 
Q 1120 4870 1142 4848 
Q 1165 4826 1165 4794 
L 1165 -250 
Q 1165 -282 1142 -304 
Q 1120 -326 1088 -326 
L 544 -326 
z
" transform="scale(0.015625)"/>
      <path id="NanumGothicBold-6f" d="M 3238 173 
Q 3008 -115 2688 -265 
Q 2368 -416 1965 -416 
Q 1555 -416 1241 -269 
Q 928 -122 717 134 
Q 506 390 400 729 
Q 294 1069 294 1453 
Q 294 1837 400 2176 
Q 506 2515 717 2768 
Q 928 3021 1238 3168 
Q 1549 3315 1965 3315 
Q 2374 3315 2688 3168 
Q 3002 3021 3213 2768 
Q 3424 2515 3529 2176 
Q 3635 1837 3635 1453 
Q 3635 1075 3532 745 
Q 3430 416 3238 173 
z
M 1965 2688 
Q 1715 2688 1532 2579 
Q 1350 2470 1235 2294 
Q 1120 2118 1062 1897 
Q 1005 1677 1005 1453 
Q 1005 1229 1062 1008 
Q 1120 787 1235 608 
Q 1350 429 1532 320 
Q 1715 211 1965 211 
Q 2214 211 2396 320 
Q 2579 429 2694 608 
Q 2810 787 2867 1008 
Q 2925 1229 2925 1453 
Q 2925 1670 2867 1891 
Q 2810 2112 2694 2288 
Q 2579 2464 2396 2576 
Q 2214 2688 1965 2688 
z
" transform="scale(0.015625)"/>
      <path id="NanumGothicBold-63" d="M 2867 -307 
Q 2797 -333 2694 -352 
Q 2592 -371 2473 -384 
Q 2355 -397 2224 -400 
Q 2093 -403 1971 -397 
Q 1568 -371 1257 -220 
Q 947 -70 736 173 
Q 525 416 419 745 
Q 314 1075 314 1459 
Q 314 1862 442 2201 
Q 570 2541 803 2787 
Q 1037 3034 1363 3168 
Q 1690 3302 2093 3302 
Q 2291 3302 2492 3280 
Q 2694 3258 2886 3194 
Q 2912 3187 2925 3168 
Q 2938 3149 2931 3091 
L 2874 2650 
Q 2867 2605 2844 2585 
Q 2822 2566 2765 2579 
Q 2624 2630 2435 2649 
Q 2246 2669 2080 2669 
Q 1562 2669 1293 2336 
Q 1024 2003 1024 1459 
Q 1024 934 1277 614 
Q 1530 294 2010 237 
Q 2451 186 2797 294 
Q 2861 320 2877 301 
Q 2893 282 2899 243 
L 2931 -198 
Q 2938 -250 2928 -272 
Q 2918 -294 2867 -307 
z
" transform="scale(0.015625)"/>
      <path id="NanumGothicBold-61" d="M 2464 -314 
Q 2419 -314 2406 -304 
Q 2394 -294 2394 -256 
L 2394 32 
Q 2234 -192 1987 -304 
Q 1741 -416 1491 -416 
Q 1229 -416 1008 -345 
Q 787 -275 630 -134 
Q 474 6 384 214 
Q 294 422 294 698 
Q 294 1024 409 1270 
Q 525 1517 771 1680 
Q 1018 1843 1402 1923 
Q 1786 2003 2330 2003 
Q 2330 2125 2304 2246 
Q 2278 2368 2217 2464 
Q 2157 2560 2048 2621 
Q 1939 2682 1773 2682 
Q 1485 2682 1251 2605 
Q 1018 2528 813 2400 
Q 710 2336 675 2342 
Q 640 2349 640 2413 
L 640 2899 
Q 640 2925 637 2953 
Q 634 2982 646 3002 
Q 666 3027 742 3072 
Q 960 3181 1187 3251 
Q 1414 3322 1760 3322 
Q 2406 3322 2716 3008 
Q 3027 2694 3027 2022 
L 3027 506 
Q 3027 326 3030 131 
Q 3034 -64 3053 -211 
Q 3066 -314 2982 -314 
L 2464 -314 
z
M 2349 1395 
Q 1638 1395 1331 1222 
Q 1024 1050 1024 704 
Q 1024 461 1165 339 
Q 1306 218 1542 218 
Q 1907 218 2128 486 
Q 2349 755 2349 1325 
L 2349 1395 
z
" transform="scale(0.015625)"/>
     </defs>
     <use xlink:href="#NanumGothicBold-6c"/>
     <use xlink:href="#NanumGothicBold-6f" transform="translate(24.199997 0)"/>
     <use xlink:href="#NanumGothicBold-63" transform="translate(84.799988 0)"/>
     <use xlink:href="#NanumGothicBold-61" transform="translate(133.199982 0)"/>
     <use xlink:href="#NanumGothicBold-6c" transform="translate(187.699966 0)"/>
    </g>
   </g>
   <g id="patch_2">
    <path d="M 91.80158 86.493622 
Q 112.629328 86.493622 131.444615 86.493622 
" clip-path="url(#pde87ac5b01)" style="fill: none; stroke: #6b7280; stroke-width: 1.8; stroke-linecap: round"/>
    <path d="M 125.844615 83.693622 
L 131.444615 86.493622 
L 125.844615 89.293622 
z
" clip-path="url(#pde87ac5b01)" style="fill: #6b7280; stroke: #6b7280; stroke-width: 1.8; stroke-linecap: round"/>
   </g>
   <g id="text_3">
    <!-- scale -->
    <g style="fill: #111827" transform="translate(163.719141 89.567607) scale(0.11 -0.11)">
     <defs>
      <path id="NanumGothicBold-73" d="M 2099 -186 
Q 1754 -416 1280 -416 
Q 1152 -416 1011 -403 
Q 870 -390 739 -371 
Q 608 -352 505 -326 
Q 403 -301 346 -275 
Q 320 -262 291 -240 
Q 262 -218 269 -166 
L 307 250 
Q 314 314 326 326 
Q 339 339 410 320 
Q 621 256 848 227 
Q 1075 198 1254 198 
Q 1536 198 1673 339 
Q 1811 480 1811 666 
Q 1811 768 1740 873 
Q 1670 979 1504 1088 
Q 1331 1190 1145 1296 
Q 960 1402 781 1504 
Q 576 1626 438 1827 
Q 301 2029 301 2272 
Q 301 2541 397 2736 
Q 493 2931 653 3062 
Q 813 3194 1021 3254 
Q 1229 3315 1459 3315 
Q 1581 3315 1712 3302 
Q 1843 3290 1968 3267 
Q 2093 3245 2192 3216 
Q 2291 3187 2342 3155 
Q 2374 3136 2377 3120 
Q 2381 3104 2374 3072 
L 2336 2662 
Q 2330 2592 2304 2582 
Q 2278 2573 2208 2586 
Q 2086 2630 1933 2669 
Q 1843 2682 1744 2694 
Q 1645 2707 1498 2707 
Q 1235 2707 1126 2585 
Q 1018 2464 1018 2291 
Q 1018 2189 1139 2073 
Q 1261 1958 1446 1862 
Q 1645 1766 1814 1664 
Q 1984 1562 2067 1498 
Q 2298 1331 2413 1136 
Q 2528 941 2528 666 
Q 2528 128 2099 -186 
z
" transform="scale(0.015625)"/>
      <path id="NanumGothicBold-65" d="M 3232 1293 
Q 3232 1242 3203 1216 
Q 3174 1190 3142 1190 
L 1037 1190 
Q 1069 762 1305 490 
Q 1542 218 1952 218 
Q 2163 218 2432 272 
Q 2701 326 2925 461 
Q 2970 486 2982 454 
Q 2995 422 2995 371 
L 2995 -70 
Q 2995 -128 2976 -160 
Q 2957 -192 2899 -224 
Q 2707 -326 2448 -371 
Q 2189 -416 1920 -416 
Q 1126 -416 720 61 
Q 314 538 314 1459 
Q 314 1805 403 2137 
Q 493 2470 675 2732 
Q 858 2995 1139 3155 
Q 1421 3315 1805 3315 
Q 2195 3315 2467 3168 
Q 2739 3021 2912 2771 
Q 3085 2522 3161 2189 
Q 3238 1856 3238 1478 
Q 3238 1434 3235 1376 
Q 3232 1318 3232 1293 
z
M 1830 2701 
Q 1658 2701 1523 2624 
Q 1389 2547 1293 2425 
Q 1197 2304 1136 2144 
Q 1075 1984 1050 1824 
L 2515 1824 
Q 2515 1952 2473 2105 
Q 2432 2259 2349 2390 
Q 2266 2522 2138 2611 
Q 2010 2701 1830 2701 
z
" transform="scale(0.015625)"/>
     </defs>
     <use xlink:href="#NanumGothicBold-73"/>
     <use xlink:href="#NanumGothicBold-63" transform="translate(42.399994 0)"/>
     <use xlink:href="#NanumGothicBold-61" transform="translate(90.799988 0)"/>
     <use xlink:href="#NanumGothicBold-6c" transform="translate(145.299973 0)"/>
     <use xlink:href="#NanumGothicBold-65" transform="translate(169.499969 0)"/>
    </g>
   </g>
   <g id="patch_3">
    <path d="M 208.474307 86.493622 
Q 229.302056 86.493622 248.117343 86.493622 
" clip-path="url(#pde87ac5b01)" style="fill: none; stroke: #6b7280; stroke-width: 1.8; stroke-linecap: round"/>
    <path d="M 242.517343 83.693622 
L 248.117343 86.493622 
L 242.517343 89.293622 
z
" clip-path="url(#pde87ac5b01)" style="fill: #6b7280; stroke: #6b7280; stroke-width: 1.8; stroke-linecap: round"/>
   </g>
   <g id="text_4">
    <!-- rotate -->
    <g style="fill: #111827" transform="translate(277.396087 89.567607) scale(0.11 -0.11)">
     <defs>
      <path id="NanumGothicBold-72" d="M 2240 2579 
Q 2112 2611 2016 2620 
Q 1920 2630 1850 2618 
Q 1658 2579 1539 2454 
Q 1421 2330 1360 2163 
Q 1299 1997 1280 1805 
Q 1261 1613 1261 1440 
L 1261 -224 
Q 1261 -314 1184 -314 
L 653 -314 
Q 582 -314 582 -218 
L 582 2362 
Q 582 2566 576 2771 
Q 570 2976 570 3130 
Q 570 3187 589 3203 
Q 608 3219 653 3219 
L 1184 3219 
Q 1229 3219 1235 3206 
Q 1242 3194 1242 3162 
L 1242 2880 
Q 1286 2957 1360 3033 
Q 1434 3110 1520 3171 
Q 1606 3232 1696 3267 
Q 1786 3302 1862 3302 
Q 1984 3302 2083 3299 
Q 2182 3296 2291 3232 
Q 2323 3219 2329 3190 
Q 2336 3162 2336 3136 
L 2336 2656 
Q 2336 2630 2317 2598 
Q 2298 2566 2240 2579 
z
" transform="scale(0.015625)"/>
      <path id="NanumGothicBold-74" d="M 2278 -262 
Q 2189 -320 1993 -368 
Q 1798 -416 1574 -416 
Q 1306 -416 1146 -304 
Q 986 -192 909 -45 
Q 819 122 800 346 
Q 781 570 781 954 
L 781 2560 
L 250 2560 
Q 218 2560 195 2582 
Q 173 2605 173 2637 
L 173 3142 
Q 173 3174 195 3196 
Q 218 3219 250 3219 
L 781 3219 
L 781 4115 
Q 781 4147 806 4169 
Q 832 4192 864 4192 
L 1382 4192 
Q 1421 4192 1443 4169 
Q 1466 4147 1466 4115 
L 1466 3219 
L 2080 3219 
Q 2112 3219 2134 3196 
Q 2157 3174 2157 3142 
L 2157 2637 
Q 2157 2605 2134 2582 
Q 2112 2560 2080 2560 
L 1466 2560 
L 1466 909 
Q 1466 474 1485 358 
Q 1510 243 1606 217 
Q 1702 192 1824 205 
Q 1907 218 2009 240 
Q 2112 262 2189 294 
Q 2221 307 2233 297 
Q 2246 288 2259 237 
L 2310 -186 
Q 2317 -230 2278 -262 
z
" transform="scale(0.015625)"/>
     </defs>
     <use xlink:href="#NanumGothicBold-72"/>
     <use xlink:href="#NanumGothicBold-6f" transform="translate(36.299988 0)"/>
     <use xlink:href="#NanumGothicBold-74" transform="translate(96.899979 0)"/>
     <use xlink:href="#NanumGothicBold-61" transform="translate(133.199966 0)"/>
     <use xlink:href="#NanumGothicBold-74" transform="translate(187.699951 0)"/>
     <use xlink:href="#NanumGothicBold-65" transform="translate(223.999939 0)"/>
    </g>
   </g>
   <g id="patch_4">
    <path d="M 325.147035 86.493622 
Q 345.974783 86.493622 364.79007 86.493622 
" clip-path="url(#pde87ac5b01)" style="fill: none; stroke: #6b7280; stroke-width: 1.8; stroke-linecap: round"/>
    <path d="M 359.19007 83.693622 
L 364.79007 86.493622 
L 359.19007 89.293622 
z
" clip-path="url(#pde87ac5b01)" style="fill: #6b7280; stroke: #6b7280; stroke-width: 1.8; stroke-linecap: round"/>
   </g>
   <g id="text_5">
    <!-- translate -->
    <g style="fill: #111827" transform="translate(387.407798 89.567607) scale(0.11 -0.11)">
     <defs>
      <path id="NanumGothicBold-6e" d="M 2752 -314 
Q 2720 -314 2697 -285 
Q 2675 -256 2675 -224 
L 2675 1811 
Q 2675 2272 2531 2477 
Q 2387 2682 2080 2682 
Q 1658 2682 1456 2448 
Q 1254 2214 1254 1773 
L 1254 -230 
Q 1254 -314 1178 -314 
L 646 -314 
Q 614 -314 592 -285 
Q 570 -256 570 -224 
L 570 2323 
Q 570 2566 566 2790 
Q 563 3014 550 3142 
Q 538 3226 640 3226 
L 1146 3226 
Q 1216 3226 1203 3174 
L 1197 2944 
Q 1357 3098 1581 3206 
Q 1805 3315 2099 3315 
Q 2714 3315 3037 2953 
Q 3360 2592 3360 1907 
L 3360 -230 
Q 3360 -314 3283 -314 
L 2752 -314 
z
" transform="scale(0.015625)"/>
     </defs>
     <use xlink:href="#NanumGothicBold-74"/>
     <use xlink:href="#NanumGothicBold-72" transform="translate(36.299988 0)"/>
     <use xlink:href="#NanumGothicBold-61" transform="translate(72.599976 0)"/>
     <use xlink:href="#NanumGothicBold-6e" transform="translate(127.09996 0)"/>
     <use xlink:href="#NanumGothicBold-73" transform="translate(187.699951 0)"/>
     <use xlink:href="#NanumGothicBold-6c" transform="translate(230.099945 0)"/>
     <use xlink:href="#NanumGothicBold-61" transform="translate(254.299942 0)"/>
     <use xlink:href="#NanumGothicBold-74" transform="translate(308.799927 0)"/>
     <use xlink:href="#NanumGothicBold-65" transform="translate(345.099915 0)"/>
    </g>
   </g>
   <g id="patch_5">
    <path d="M 441.819762 86.493622 
Q 462.64751 86.493622 481.462797 86.493622 
" clip-path="url(#pde87ac5b01)" style="fill: none; stroke: #6b7280; stroke-width: 1.8; stroke-linecap: round"/>
    <path d="M 475.862797 83.693622 
L 481.462797 86.493622 
L 475.862797 89.293622 
z
" clip-path="url(#pde87ac5b01)" style="fill: #6b7280; stroke: #6b7280; stroke-width: 1.8; stroke-linecap: round"/>
   </g>
   <g id="text_6">
    <!-- world -->
    <g style="fill: #111827" transform="translate(511.401541 89.567607) scale(0.11 -0.11)">
     <defs>
      <path id="NanumGothicBold-77" d="M 4269 -250 
Q 4256 -288 4240 -297 
Q 4224 -307 4192 -307 
L 3597 -307 
Q 3565 -307 3549 -297 
Q 3533 -288 3514 -250 
L 2720 2157 
L 1920 -250 
Q 1901 -288 1881 -297 
Q 1862 -307 1830 -307 
L 1242 -307 
Q 1216 -307 1197 -297 
Q 1178 -288 1165 -250 
L 26 3149 
Q 13 3181 22 3200 
Q 32 3219 102 3219 
L 659 3219 
Q 698 3219 714 3209 
Q 730 3200 742 3168 
L 1536 666 
L 2342 3168 
Q 2355 3219 2419 3219 
L 3014 3219 
Q 3078 3219 3091 3168 
L 3898 666 
L 4691 3168 
Q 4704 3219 4768 3219 
L 5338 3219 
Q 5402 3219 5414 3200 
Q 5427 3181 5414 3149 
L 4269 -250 
z
" transform="scale(0.015625)"/>
      <path id="NanumGothicBold-64" d="M 2810 -333 
Q 2714 -333 2714 -230 
L 2714 13 
Q 2586 -166 2336 -288 
Q 2086 -410 1830 -410 
Q 1485 -410 1213 -278 
Q 941 -147 752 99 
Q 563 346 464 698 
Q 365 1050 365 1491 
Q 365 1920 467 2269 
Q 570 2618 758 2861 
Q 947 3104 1219 3238 
Q 1491 3373 1830 3373 
Q 2086 3373 2313 3270 
Q 2541 3168 2714 2982 
L 2714 4806 
Q 2714 4858 2730 4874 
Q 2746 4890 2790 4890 
L 3315 4890 
Q 3398 4890 3398 4806 
L 3398 -230 
Q 3398 -282 3366 -307 
Q 3334 -333 3296 -333 
L 2810 -333 
z
M 1901 2720 
Q 1504 2720 1293 2397 
Q 1082 2074 1082 1491 
Q 1082 864 1299 550 
Q 1517 237 1901 237 
Q 2067 237 2214 320 
Q 2362 403 2474 563 
Q 2586 723 2650 956 
Q 2714 1190 2714 1491 
Q 2714 2112 2499 2416 
Q 2285 2720 1901 2720 
z
" transform="scale(0.015625)"/>
     </defs>
     <use xlink:href="#NanumGothicBold-77"/>
     <use xlink:href="#NanumGothicBold-6f" transform="translate(84.799988 0)"/>
     <use xlink:href="#NanumGothicBold-72" transform="translate(145.399979 0)"/>
     <use xlink:href="#NanumGothicBold-6c" transform="translate(181.699966 0)"/>
     <use xlink:href="#NanumGothicBold-64" transform="translate(205.899963 0)"/>
    </g>
   </g>
  </g>
 </g>
 <defs>
  <clipPath id="pde87ac5b01">
   <rect x="8.64" y="30.693622" width="613.8" height="111.6"/>
  </clipPath>
 </defs>
</svg>
