<?xml version="1.0" encoding="utf-8" standalone="no"?>
<!DOCTYPE svg PUBLIC "-//W3C//DTD SVG 1.1//EN"
  "http://www.w3.org/Graphics/SVG/1.1/DTD/svg11.dtd">
<svg xmlns:xlink="http://www.w3.org/1999/xlink" width="441.36pt" height="249.54744pt" viewBox="0 0 441.36 249.54744" xmlns="http://www.w3.org/2000/svg" version="1.1">
 <metadata>
  <rdf:RDF xmlns:dc="http://purl.org/dc/elements/1.1/" xmlns:cc="http://creativecommons.org/ns#" xmlns:rdf="http://www.w3.org/1999/02/22-rdf-syntax-ns#">
   <cc:Work>
    <dc:type rdf:resource="http://purl.org/dc/dcmitype/StillImage"/>
    <dc:date>2026-07-08T05:12:56.357236</dc:date>
    <dc:format>image/svg+xml</dc:format>
    <dc:creator>
     <cc:Agent>
      <dc:title>Matplotlib v3.10.8, https://matplotlib.org/</dc:title>
     </cc:Agent>
    </dc:creator>
   </cc:Work>
  </rdf:RDF>
 </metadata>
 <defs>
  <style type="text/css">*{stroke-linejoin: round; stroke-linecap: butt}</style>
 </defs>
 <g id="figure_1">
  <g id="patch_1">
   <path d="M 0 249.54744 
L 441.36 249.54744 
L 441.36 0 
L 0 0 
z
" style="fill: #ffffff"/>
  </g>
  <g id="axes_1">
   <g id="patch_2">
    <path d="M 47.192727 183.078349 
L 162.850909 183.078349 
L 162.850909 105.972895 
L 47.192727 105.972895 
L 47.192727 183.078349 
z
" clip-path="url(#p17de43726e)" style="fill: none; stroke: #2563eb; stroke-width: 2.2; stroke-linejoin: miter"/>
   </g>
   <g id="patch_3">
    <path d="M 278.509091 186.933622 
L 363.325091 156.09144 
L 332.482909 78.985986 
L 247.666909 109.828168 
L 278.509091 186.933622 
z
" clip-path="url(#p17de43726e)" style="fill: none; stroke: #10b981; stroke-width: 2.2; stroke-linejoin: miter"/>
   </g>
   <g id="line2d_1">
    <defs>
     <path id="mc082d399e9" d="M 0 2 
C 0.530406 2 1.03916 1.789267 1.414214 1.414214 
C 1.789267 1.03916 2 0.530406 2 0 
C 2 -0.530406 1.789267 -1.03916 1.414214 -1.414214 
C 1.03916 -1.789267 0.530406 -2 0 -2 
C -0.530406 -2 -1.03916 -1.789267 -1.414214 -1.414214 
C -1.789267 -1.03916 -2 -0.530406 -2 0 
C -2 0.530406 -1.789267 1.03916 -1.414214 1.414214 
C -1.03916 1.789267 -0.530406 2 0 2 
z
" style="stroke: #111827"/>
    </defs>
    <g clip-path="url(#p17de43726e)">
     <use xlink:href="#mc082d399e9" x="305.496" y="132.959804" style="fill: #111827; stroke: #111827"/>
    </g>
   </g>
   <g id="text_1">
    <!-- AABB와 OBB의 차이 -->
    <g style="fill: #111827" transform="translate(8.64 20.054062) scale(0.15 -0.15)">
     <defs>
      <path id="NanumGothicBold-41" d="M 3949 -320 
Q 3904 -320 3885 -310 
Q 3866 -301 3846 -256 
L 3386 896 
L 1299 896 
L 838 -256 
Q 826 -301 806 -310 
Q 787 -320 742 -320 
L 154 -320 
Q 38 -320 77 -230 
L 1946 4435 
Q 1965 4486 1974 4496 
Q 1984 4506 2048 4506 
L 2643 4506 
Q 2701 4506 2713 4496 
Q 2726 4486 2746 4435 
L 4614 -230 
Q 4646 -320 4538 -320 
L 3949 -320 
z
M 1562 1568 
L 3117 1568 
L 2342 3539 
L 1562 1568 
z
" transform="scale(0.015625)"/>
      <path id="NanumGothicBold-42" d="M 653 -320 
Q 576 -320 576 -256 
L 576 4416 
Q 576 4506 653 4506 
L 1760 4506 
Q 2490 4506 2896 4205 
Q 3302 3904 3302 3283 
Q 3302 2899 3145 2627 
Q 2989 2355 2701 2202 
Q 2886 2131 3024 2016 
Q 3162 1901 3254 1753 
Q 3347 1606 3392 1443 
Q 3437 1280 3437 1120 
Q 3437 397 2963 38 
Q 2490 -320 1594 -320 
L 653 -320 
z
M 1306 3827 
L 1306 2528 
L 1651 2528 
Q 2157 2528 2368 2723 
Q 2579 2918 2579 3226 
Q 2579 3494 2393 3660 
Q 2208 3827 1760 3827 
L 1306 3827 
z
M 1293 1837 
L 1293 365 
L 1606 365 
Q 2221 365 2467 560 
Q 2714 755 2714 1094 
Q 2714 1440 2445 1638 
Q 2176 1837 1536 1837 
L 1293 1837 
z
" transform="scale(0.015625)"/>
      <path id="NanumGothicBold-c640" d="M 154 704 
Q 154 794 243 794 
Q 960 774 1683 794 
L 1683 1798 
Q 1414 1843 1190 1964 
Q 966 2086 800 2268 
Q 634 2451 541 2688 
Q 448 2925 448 3206 
Q 448 3520 569 3789 
Q 691 4058 899 4250 
Q 1107 4442 1392 4550 
Q 1677 4659 2003 4659 
Q 2330 4659 2614 4550 
Q 2899 4442 3110 4250 
Q 3322 4058 3443 3789 
Q 3565 3520 3565 3206 
Q 3565 2938 3478 2707 
Q 3392 2477 3235 2297 
Q 3078 2118 2864 1993 
Q 2650 1869 2394 1811 
L 2394 826 
Q 2778 845 3152 886 
Q 3526 928 3904 986 
Q 3936 992 3974 982 
Q 4013 973 4019 922 
L 4058 512 
Q 4064 461 4038 435 
Q 4013 410 3981 403 
Q 3085 256 2125 211 
Q 1165 166 243 179 
Q 154 179 154 282 
L 154 704 
z
M 5971 2016 
Q 5971 1984 5942 1958 
Q 5914 1933 5882 1933 
L 5043 1933 
L 5043 -928 
Q 5043 -1011 4960 -1011 
L 4390 -1011 
Q 4307 -1011 4307 -928 
L 4307 4979 
Q 4307 5062 4390 5062 
L 4960 5062 
Q 5043 5062 5043 4979 
L 5043 2547 
L 5882 2547 
Q 5914 2547 5942 2521 
Q 5971 2496 5971 2464 
L 5971 2016 
z
M 2003 4051 
Q 1824 4051 1670 3990 
Q 1517 3930 1401 3821 
Q 1286 3712 1222 3555 
Q 1158 3398 1158 3206 
Q 1158 3014 1222 2854 
Q 1286 2694 1401 2585 
Q 1517 2477 1670 2416 
Q 1824 2355 2003 2355 
Q 2182 2355 2336 2416 
Q 2490 2477 2605 2585 
Q 2720 2694 2784 2854 
Q 2848 3014 2848 3206 
Q 2848 3398 2784 3555 
Q 2720 3712 2605 3821 
Q 2490 3930 2336 3990 
Q 2182 4051 2003 4051 
z
" transform="scale(0.015625)"/>
      <path id="NanumGothicBold-20" transform="scale(0.015625)"/>
      <path id="NanumGothicBold-4f" d="M 4141 288 
Q 3853 -77 3446 -253 
Q 3040 -429 2534 -429 
Q 1971 -429 1564 -227 
Q 1158 -26 899 320 
Q 640 666 515 1123 
Q 390 1581 390 2093 
Q 390 2592 518 3049 
Q 646 3507 908 3852 
Q 1171 4198 1574 4403 
Q 1978 4608 2534 4608 
Q 3078 4608 3481 4400 
Q 3885 4192 4150 3846 
Q 4416 3501 4547 3046 
Q 4678 2592 4672 2093 
Q 4666 1530 4538 1078 
Q 4410 627 4141 288 
z
M 2534 3923 
Q 2163 3923 1897 3760 
Q 1632 3597 1462 3337 
Q 1293 3078 1213 2748 
Q 1133 2419 1133 2093 
Q 1133 1766 1213 1436 
Q 1293 1107 1462 844 
Q 1632 582 1897 419 
Q 2163 256 2534 256 
Q 2906 256 3171 419 
Q 3437 582 3603 844 
Q 3770 1107 3850 1436 
Q 3930 1766 3930 2093 
Q 3930 2413 3853 2739 
Q 3776 3066 3606 3328 
Q 3437 3590 3171 3756 
Q 2906 3923 2534 3923 
z
" transform="scale(0.015625)"/>
      <path id="NanumGothicBold-c758" d="M 5280 -928 
Q 5280 -1011 5190 -1011 
L 4627 -1011 
Q 4595 -1011 4566 -988 
Q 4538 -966 4538 -928 
L 4538 4979 
Q 4538 5011 4566 5036 
Q 4595 5062 4627 5062 
L 5190 5062 
Q 5280 5062 5280 4979 
L 5280 -928 
z
M 2144 4083 
Q 1779 4083 1542 3846 
Q 1306 3610 1306 3206 
Q 1306 2797 1542 2560 
Q 1779 2323 2144 2323 
Q 2522 2323 2758 2560 
Q 2995 2797 2995 3206 
Q 2995 3610 2758 3846 
Q 2522 4083 2144 4083 
z
M 2144 4691 
Q 2470 4691 2755 4585 
Q 3040 4480 3251 4285 
Q 3462 4090 3584 3814 
Q 3706 3539 3706 3206 
Q 3706 2867 3584 2595 
Q 3462 2323 3251 2134 
Q 3040 1946 2755 1843 
Q 2470 1741 2138 1741 
Q 1811 1741 1529 1843 
Q 1248 1946 1040 2134 
Q 832 2323 710 2595 
Q 589 2867 589 3206 
Q 589 3539 710 3814 
Q 832 4090 1040 4285 
Q 1248 4480 1533 4585 
Q 1818 4691 2144 4691 
z
M 211 819 
Q 211 858 236 886 
Q 262 915 307 915 
Q 762 902 1267 915 
Q 1773 928 2275 953 
Q 2778 979 3251 1020 
Q 3725 1062 4122 1114 
Q 4154 1120 4195 1110 
Q 4237 1101 4243 1050 
L 4282 634 
Q 4288 582 4259 553 
Q 4230 525 4198 518 
Q 3840 467 3360 422 
Q 2880 378 2352 346 
Q 1824 314 1293 298 
Q 762 282 307 288 
Q 262 288 236 317 
Q 211 346 211 384 
L 211 819 
z
" transform="scale(0.015625)"/>
      <path id="NanumGothicBold-cc28" d="M 640 378 
Q 589 352 534 355 
Q 480 358 448 403 
L 250 710 
Q 205 781 227 841 
Q 250 902 288 922 
Q 640 1114 969 1344 
Q 1299 1574 1571 1836 
Q 1843 2099 2054 2384 
Q 2266 2669 2387 2970 
Q 2426 3059 2432 3100 
Q 2438 3142 2285 3142 
L 640 3142 
Q 595 3142 572 3174 
Q 550 3206 550 3245 
L 550 3667 
Q 550 3757 646 3757 
L 2803 3757 
Q 3078 3757 3187 3654 
Q 3296 3552 3296 3437 
Q 3296 3277 3232 3110 
Q 3014 2541 2675 2067 
Q 2797 1939 2941 1804 
Q 3085 1670 3238 1545 
Q 3392 1421 3542 1309 
Q 3693 1197 3827 1114 
Q 3878 1082 3872 1034 
Q 3866 986 3834 934 
L 3603 595 
Q 3571 557 3523 547 
Q 3475 538 3411 582 
Q 3296 653 3145 765 
Q 2995 877 2838 1008 
Q 2682 1139 2528 1283 
Q 2374 1427 2253 1562 
Q 1926 1216 1520 918 
Q 1114 621 640 378 
z
M 5971 2195 
Q 5971 2157 5942 2131 
Q 5914 2106 5882 2106 
L 5011 2106 
L 5011 -928 
Q 5011 -1011 4928 -1011 
L 4358 -1011 
Q 4275 -1011 4275 -928 
L 4275 4979 
Q 4275 5062 4358 5062 
L 4928 5062 
Q 5011 5062 5011 4979 
L 5011 2720 
L 5882 2720 
Q 5914 2720 5942 2697 
Q 5971 2675 5971 2643 
L 5971 2195 
z
M 2893 4294 
Q 2893 4256 2864 4224 
Q 2835 4192 2790 4192 
L 1126 4192 
Q 1101 4192 1065 4217 
Q 1030 4243 1030 4288 
L 1030 4678 
Q 1030 4723 1065 4748 
Q 1101 4774 1126 4774 
L 2790 4774 
Q 2829 4774 2861 4742 
Q 2893 4710 2893 4672 
L 2893 4294 
z
" transform="scale(0.015625)"/>
      <path id="NanumGothicBold-c774" d="M 5274 -928 
Q 5274 -1011 5190 -1011 
L 4621 -1011 
Q 4538 -1011 4538 -928 
L 4538 4979 
Q 4538 5062 4621 5062 
L 5190 5062 
Q 5274 5062 5274 4979 
L 5274 -928 
z
M 2963 2573 
Q 2963 2867 2905 3132 
Q 2848 3398 2739 3596 
Q 2630 3795 2473 3910 
Q 2317 4026 2112 4026 
Q 1907 4026 1750 3910 
Q 1594 3795 1485 3596 
Q 1376 3398 1318 3132 
Q 1261 2867 1261 2573 
Q 1261 2285 1318 2019 
Q 1376 1754 1485 1552 
Q 1594 1350 1750 1232 
Q 1907 1114 2112 1114 
Q 2317 1114 2473 1232 
Q 2630 1350 2739 1552 
Q 2848 1754 2905 2019 
Q 2963 2285 2963 2573 
z
M 2112 461 
Q 1747 461 1452 614 
Q 1158 768 956 1046 
Q 755 1325 646 1715 
Q 538 2106 538 2573 
Q 538 3053 646 3443 
Q 755 3834 956 4106 
Q 1158 4378 1452 4528 
Q 1747 4678 2112 4678 
Q 2483 4678 2774 4528 
Q 3066 4378 3267 4106 
Q 3469 3834 3577 3443 
Q 3686 3053 3686 2573 
Q 3686 2093 3577 1702 
Q 3469 1312 3267 1037 
Q 3066 762 2774 611 
Q 2483 461 2112 461 
z
" transform="scale(0.015625)"/>
     </defs>
     <use xlink:href="#NanumGothicBold-41"/>
     <use xlink:href="#NanumGothicBold-41" transform="translate(72.699982 0)"/>
     <use xlink:href="#NanumGothicBold-42" transform="translate(145.399963 0)"/>
     <use xlink:href="#NanumGothicBold-42" transform="translate(205.999954 0)"/>
     <use xlink:href="#NanumGothicBold-c640" transform="translate(266.599945 0)"/>
     <use xlink:href="#NanumGothicBold-20" transform="translate(360.59993 0)"/>
     <use xlink:href="#NanumGothicBold-4f" transform="translate(388.599915 0)"/>
     <use xlink:href="#NanumGothicBold-42" transform="translate(467.299896 0)"/>
     <use xlink:href="#NanumGothicBold-42" transform="translate(527.899887 0)"/>
     <use xlink:href="#NanumGothicBold-c758" transform="translate(588.499878 0)"/>
     <use xlink:href="#NanumGothicBold-20" transform="translate(682.499863 0)"/>
     <use xlink:href="#NanumGothicBold-cc28" transform="translate(710.499847 0)"/>
     <use xlink:href="#NanumGothicBold-c774" transform="translate(804.499832 0)"/>
    </g>
   </g>
   <g id="text_2">
    <!-- AABB -->
    <g style="fill: #2563eb" transform="translate(90.359162 89.770516) scale(0.11 -0.11)">
     <use xlink:href="#NanumGothicBold-41"/>
     <use xlink:href="#NanumGothicBold-41" transform="translate(72.699982 0)"/>
     <use xlink:href="#NanumGothicBold-42" transform="translate(145.399963 0)"/>
     <use xlink:href="#NanumGothicBold-42" transform="translate(205.999954 0)"/>
    </g>
   </g>
   <g id="patch_4">
    <path d="M 307.337514 132.170584 
Q 332.485687 121.392795 355.784116 111.407754 
" clip-path="url(#p17de43726e)" style="fill: none; stroke: #6b7280; stroke-width: 1.8; stroke-linecap: round"/>
    <path d="M 349.53393 111.040096 
L 355.784116 111.407754 
L 351.739878 116.187308 
z
" clip-path="url(#p17de43726e)" style="fill: #6b7280; stroke: #6b7280; stroke-width: 1.8; stroke-linecap: round"/>
   </g>
   <g id="patch_5">
    <path d="M 304.447471 131.255945 
Q 290.07527 107.901119 276.757795 86.260222 
" clip-path="url(#p17de43726e)" style="fill: none; stroke: #6b7280; stroke-width: 1.8; stroke-linecap: round"/>
    <path d="M 277.308098 92.496981 
L 276.757795 86.260222 
L 282.077384 89.562035 
z
" clip-path="url(#p17de43726e)" style="fill: #6b7280; stroke: #6b7280; stroke-width: 1.8; stroke-linecap: round"/>
   </g>
   <g id="text_3">
    <!-- OBB -->
    <g style="fill: #10b981" transform="translate(294.502016 66.638879) scale(0.11 -0.11)">
     <use xlink:href="#NanumGothicBold-4f"/>
     <use xlink:href="#NanumGothicBold-42" transform="translate(78.699982 0)"/>
     <use xlink:href="#NanumGothicBold-42" transform="translate(139.299973 0)"/>
    </g>
   </g>
   <g id="text_4">
    <!-- xAxis -->
    <g style="fill: #6b7280" transform="translate(353.686909 106.825727) scale(0.1 -0.1)">
     <defs>
      <path id="NanumGothic-78" d="M 3046 -186 
Q 3066 -218 3050 -246 
Q 3034 -275 2995 -275 
L 2637 -275 
Q 2560 -275 2509 -186 
L 1645 1222 
L 717 -186 
Q 659 -275 589 -275 
L 269 -275 
Q 230 -275 214 -246 
Q 198 -218 218 -186 
L 1389 1562 
L 339 3098 
Q 320 3130 336 3158 
Q 352 3187 390 3187 
L 742 3187 
Q 819 3187 870 3098 
L 1645 1894 
L 2432 3098 
Q 2490 3187 2560 3187 
L 2874 3187 
Q 2912 3187 2928 3158 
Q 2944 3130 2925 3098 
L 1901 1562 
L 3046 -186 
z
" transform="scale(0.015625)"/>
      <path id="NanumGothic-41" d="M 3386 1402 
Q 3117 2067 2870 2716 
Q 2624 3366 2355 4032 
Q 2086 3366 1827 2716 
Q 1568 2067 1299 1402 
L 3386 1402 
z
M 4499 -186 
Q 4531 -275 4442 -275 
L 4134 -275 
Q 4096 -275 4067 -262 
Q 4038 -250 4013 -186 
L 3539 992 
L 1133 992 
Q 1011 691 896 403 
Q 781 115 666 -186 
Q 640 -250 611 -262 
Q 582 -275 544 -275 
L 243 -275 
Q 154 -275 186 -186 
L 2067 4397 
Q 2099 4474 2182 4474 
L 2573 4474 
Q 2656 4474 2688 4397 
L 4499 -186 
z
" transform="scale(0.015625)"/>
      <path id="NanumGothic-69" d="M 1050 -186 
Q 1050 -275 960 -275 
L 678 -275 
Q 589 -275 589 -186 
L 589 3098 
Q 589 3187 678 3187 
L 960 3187 
Q 1050 3187 1050 3098 
L 1050 -186 
z
M 506 4397 
Q 506 4525 595 4617 
Q 685 4710 813 4710 
Q 941 4710 1033 4617 
Q 1126 4525 1126 4397 
Q 1126 4269 1033 4179 
Q 941 4090 813 4090 
Q 685 4090 595 4179 
Q 506 4269 506 4397 
z
" transform="scale(0.015625)"/>
      <path id="NanumGothic-73" d="M 422 147 
Q 813 -13 1229 -13 
Q 1574 -13 1798 156 
Q 2022 326 2022 614 
Q 2022 781 1897 937 
Q 1773 1094 1594 1197 
Q 1395 1306 1187 1405 
Q 979 1504 787 1613 
Q 557 1741 448 1929 
Q 339 2118 339 2323 
Q 339 2560 428 2739 
Q 518 2918 672 3040 
Q 826 3162 1030 3219 
Q 1235 3277 1466 3277 
Q 1709 3277 1888 3251 
Q 2067 3226 2246 3174 
Q 2285 3162 2313 3136 
Q 2342 3110 2336 3066 
L 2317 2874 
Q 2310 2822 2278 2809 
Q 2246 2797 2214 2810 
Q 2054 2867 1894 2889 
Q 1734 2912 1510 2912 
Q 768 2912 768 2323 
Q 768 2195 867 2080 
Q 966 1965 1203 1850 
Q 1408 1747 1606 1654 
Q 1805 1562 2035 1434 
Q 2234 1325 2365 1101 
Q 2496 877 2496 614 
Q 2496 358 2393 172 
Q 2291 -13 2118 -134 
Q 1946 -256 1722 -317 
Q 1498 -378 1261 -378 
Q 1120 -378 1008 -371 
Q 896 -365 797 -352 
Q 698 -339 595 -320 
Q 493 -301 378 -269 
Q 288 -237 294 -154 
L 320 83 
Q 333 186 422 147 
z
" transform="scale(0.015625)"/>
     </defs>
     <use xlink:href="#NanumGothic-78"/>
     <use xlink:href="#NanumGothic-41" transform="translate(50.999985 0)"/>
     <use xlink:href="#NanumGothic-78" transform="translate(123.699966 0)"/>
     <use xlink:href="#NanumGothic-69" transform="translate(174.699951 0)"/>
     <use xlink:href="#NanumGothic-73" transform="translate(198.899948 0)"/>
    </g>
   </g>
   <g id="text_5">
    <!-- yAxis -->
    <g style="fill: #6b7280" transform="translate(266.943273 82.526572) scale(0.1 -0.1)">
     <defs>
      <path id="NanumGothic-79" d="M 301 -1222 
Q 224 -1203 237 -1126 
L 256 -909 
Q 256 -832 333 -864 
Q 435 -902 570 -902 
Q 704 -902 816 -860 
Q 928 -819 986 -749 
Q 1056 -659 1142 -454 
Q 1229 -250 1312 13 
Q 1024 794 742 1555 
Q 461 2317 173 3098 
Q 160 3130 173 3158 
Q 186 3187 224 3187 
L 525 3187 
Q 614 3187 653 3098 
L 1517 614 
Q 1754 1267 1968 1859 
Q 2182 2451 2419 3098 
Q 2451 3187 2547 3187 
L 2822 3187 
Q 2861 3187 2873 3158 
Q 2886 3130 2874 3098 
L 1542 -474 
Q 1472 -659 1385 -806 
Q 1299 -954 1210 -1043 
Q 1094 -1152 953 -1206 
Q 813 -1261 659 -1261 
Q 563 -1261 486 -1254 
Q 410 -1248 301 -1222 
z
" transform="scale(0.015625)"/>
     </defs>
     <use xlink:href="#NanumGothic-79"/>
     <use xlink:href="#NanumGothic-41" transform="translate(46.399994 0)"/>
     <use xlink:href="#NanumGothic-78" transform="translate(119.099976 0)"/>
     <use xlink:href="#NanumGothic-69" transform="translate(170.09996 0)"/>
     <use xlink:href="#NanumGothic-73" transform="translate(194.299957 0)"/>
    </g>
   </g>
  </g>
 </g>
 <defs>
  <clipPath id="p17de43726e">
   <rect x="8.64" y="28.86744" width="424.08" height="212.04"/>
  </clipPath>
 </defs>
</svg>
