<?xml version="1.0" encoding="utf-8" standalone="no"?>
<!DOCTYPE svg PUBLIC "-//W3C//DTD SVG 1.1//EN"
  "http://www.w3.org/Graphics/SVG/1.1/DTD/svg11.dtd">
<svg xmlns:xlink="http://www.w3.org/1999/xlink" width="419.04pt" height="230.595731pt" viewBox="0 0 419.04 230.595731" xmlns="http://www.w3.org/2000/svg" version="1.1">
 <metadata>
  <rdf:RDF xmlns:dc="http://purl.org/dc/elements/1.1/" xmlns:cc="http://creativecommons.org/ns#" xmlns:rdf="http://www.w3.org/1999/02/22-rdf-syntax-ns#">
   <cc:Work>
    <dc:type rdf:resource="http://purl.org/dc/dcmitype/StillImage"/>
    <dc:date>2026-07-08T05:12:56.247975</dc:date>
    <dc:format>image/svg+xml</dc:format>
    <dc:creator>
     <cc:Agent>
      <dc:title>Matplotlib v3.10.8, https://matplotlib.org/</dc:title>
     </cc:Agent>
    </dc:creator>
   </cc:Work>
  </rdf:RDF>
 </metadata>
 <defs>
  <style type="text/css">*{stroke-linejoin: round; stroke-linecap: butt}</style>
 </defs>
 <g id="figure_1">
  <g id="patch_1">
   <path d="M 0 230.595731 
L 419.04 230.595731 
L 419.04 0 
L 0 0 
z
" style="fill: #ffffff"/>
  </g>
  <g id="axes_1">
   <g id="patch_2">
    <path d="M 129.168 165.709331 
C 139.8228 165.709331 150.042641 161.476134 157.576722 153.942053 
C 165.110803 146.407972 169.344 136.188131 169.344 125.533331 
C 169.344 114.878532 165.110803 104.65869 157.576722 97.124609 
C 150.042641 89.590528 139.8228 85.357331 129.168 85.357331 
C 118.5132 85.357331 108.293359 89.590528 100.759278 97.124609 
C 93.225197 104.65869 88.992 114.878532 88.992 125.533331 
C 88.992 136.188131 93.225197 146.407972 100.759278 153.942053 
C 108.293359 161.476134 118.5132 165.709331 129.168 165.709331 
L 129.168 165.709331 
z
" clip-path="url(#pef7451b4a2)" style="fill: none; stroke: #2563eb; stroke-width: 2.2; stroke-linejoin: miter"/>
   </g>
   <g id="patch_3">
    <path d="M 265.7664 181.779731 
C 280.68312 181.779731 294.990897 175.853256 305.538611 165.305542 
C 316.086324 154.757828 322.0128 140.450051 322.0128 125.533331 
C 322.0128 110.616612 316.086324 96.308834 305.538611 85.76112 
C 294.990897 75.213407 280.68312 69.286931 265.7664 69.286931 
C 250.84968 69.286931 236.541903 75.213407 225.994189 85.76112 
C 215.446476 96.308834 209.52 110.616612 209.52 125.533331 
C 209.52 140.450051 215.446476 154.757828 225.994189 165.305542 
C 236.541903 175.853256 250.84968 181.779731 265.7664 181.779731 
L 265.7664 181.779731 
z
" clip-path="url(#pef7451b4a2)" style="fill: none; stroke: #10b981; stroke-width: 2.2; stroke-linejoin: miter"/>
   </g>
   <g id="line2d_1">
    <defs>
     <path id="m761cf4170d" d="M 0 2.5 
C 0.663008 2.5 1.29895 2.236584 1.767767 1.767767 
C 2.236584 1.29895 2.5 0.663008 2.5 0 
C 2.5 -0.663008 2.236584 -1.29895 1.767767 -1.767767 
C 1.29895 -2.236584 0.663008 -2.5 0 -2.5 
C -0.663008 -2.5 -1.29895 -2.236584 -1.767767 -1.767767 
C -2.236584 -1.29895 -2.5 -0.663008 -2.5 0 
C -2.5 0.663008 -2.236584 1.29895 -1.767767 1.767767 
C -1.29895 2.236584 -0.663008 2.5 0 2.5 
z
" style="stroke: #2563eb"/>
    </defs>
    <g clip-path="url(#pef7451b4a2)">
     <use xlink:href="#m761cf4170d" x="129.168" y="125.533331" style="fill: #2563eb; stroke: #2563eb"/>
    </g>
   </g>
   <g id="line2d_2">
    <defs>
     <path id="mccbb5e9ad7" d="M 0 2.5 
C 0.663008 2.5 1.29895 2.236584 1.767767 1.767767 
C 2.236584 1.29895 2.5 0.663008 2.5 0 
C 2.5 -0.663008 2.236584 -1.29895 1.767767 -1.767767 
C 1.29895 -2.236584 0.663008 -2.5 0 -2.5 
C -0.663008 -2.5 -1.29895 -2.236584 -1.767767 -1.767767 
C -2.236584 -1.29895 -2.5 -0.663008 -2.5 0 
C -2.5 0.663008 -2.236584 1.29895 -1.767767 1.767767 
C -1.29895 2.236584 -0.663008 2.5 0 2.5 
z
" style="stroke: #10b981"/>
    </defs>
    <g clip-path="url(#pef7451b4a2)">
     <use xlink:href="#mccbb5e9ad7" x="265.7664" y="125.533331" style="fill: #10b981; stroke: #10b981"/>
    </g>
   </g>
   <g id="text_1">
    <!-- 원 충돌: 중심 거리와 반지름 -->
    <g style="fill: #111827" transform="translate(8.64 20.054063) scale(0.15 -0.15)">
     <defs>
      <path id="NanumGothicBold-c6d0" d="M 2182 4410 
Q 2029 4410 1888 4362 
Q 1747 4314 1644 4234 
Q 1542 4154 1481 4042 
Q 1421 3930 1421 3802 
Q 1421 3667 1481 3555 
Q 1542 3443 1644 3363 
Q 1747 3283 1888 3235 
Q 2029 3187 2182 3187 
Q 2342 3187 2480 3235 
Q 2618 3283 2723 3363 
Q 2829 3443 2889 3555 
Q 2950 3667 2950 3802 
Q 2950 3930 2889 4042 
Q 2829 4154 2723 4234 
Q 2618 4314 2480 4362 
Q 2342 4410 2182 4410 
z
M 2182 4973 
Q 2509 4973 2781 4880 
Q 3053 4787 3248 4630 
Q 3443 4474 3552 4262 
Q 3661 4051 3661 3814 
Q 3661 3565 3552 3347 
Q 3443 3130 3248 2973 
Q 3053 2816 2781 2723 
Q 2509 2630 2182 2630 
Q 1856 2630 1587 2723 
Q 1318 2816 1123 2973 
Q 928 3130 822 3347 
Q 717 3565 717 3814 
Q 717 4051 822 4262 
Q 928 4474 1123 4630 
Q 1318 4787 1587 4880 
Q 1856 4973 2182 4973 
z
M 5274 371 
Q 5274 282 5190 282 
L 4621 282 
Q 4538 282 4538 371 
L 4538 954 
L 3443 954 
Q 3411 954 3382 979 
Q 3354 1005 3354 1037 
L 3354 1440 
Q 3354 1472 3382 1494 
Q 3411 1517 3443 1517 
L 4538 1517 
L 4538 4979 
Q 4538 5062 4621 5062 
L 5190 5062 
Q 5274 5062 5274 4979 
L 5274 371 
z
M 4320 2035 
Q 4326 1984 4297 1955 
Q 4269 1926 4237 1914 
Q 4058 1882 3840 1859 
Q 3622 1837 3392 1817 
Q 3162 1798 2934 1782 
Q 2707 1766 2509 1760 
L 2509 838 
Q 2509 800 2480 771 
Q 2451 742 2413 742 
L 1882 742 
Q 1843 742 1814 771 
Q 1786 800 1786 838 
L 1786 1709 
Q 1594 1702 1392 1699 
Q 1190 1696 998 1689 
Q 806 1683 633 1683 
Q 461 1683 333 1690 
Q 294 1690 268 1722 
Q 243 1754 243 1792 
L 243 2189 
Q 243 2227 268 2256 
Q 294 2285 333 2285 
Q 774 2285 1296 2294 
Q 1818 2304 2336 2326 
Q 2854 2349 3334 2384 
Q 3814 2419 4166 2470 
Q 4198 2477 4233 2457 
Q 4269 2438 4275 2400 
L 4320 2035 
z
M 5414 -826 
Q 5414 -864 5385 -883 
Q 5357 -902 5325 -902 
L 1696 -902 
Q 1402 -902 1302 -800 
Q 1203 -698 1203 -448 
L 1203 467 
Q 1203 499 1232 528 
Q 1261 557 1293 557 
L 1843 557 
Q 1882 557 1910 528 
Q 1939 499 1939 467 
L 1939 -186 
Q 1939 -250 1964 -269 
Q 1990 -288 2061 -288 
L 5325 -288 
Q 5357 -288 5385 -313 
Q 5414 -339 5414 -371 
L 5414 -826 
z
" transform="scale(0.015625)"/>
      <path id="NanumGothicBold-20" transform="scale(0.015625)"/>
      <path id="NanumGothicBold-cda9" d="M 5030 -13 
Q 5030 -237 4892 -429 
Q 4755 -621 4496 -758 
Q 4237 -896 3856 -976 
Q 3475 -1056 2995 -1056 
Q 2515 -1056 2134 -976 
Q 1754 -896 1494 -758 
Q 1235 -621 1097 -429 
Q 960 -237 960 -13 
Q 960 378 1395 662 
Q 1830 947 2630 1005 
L 2630 1427 
L 211 1427 
Q 122 1427 122 1523 
L 122 1933 
Q 122 1971 147 2000 
Q 173 2029 211 2029 
L 5779 2029 
Q 5811 2029 5843 1997 
Q 5875 1965 5875 1933 
L 5875 1523 
Q 5875 1485 5843 1456 
Q 5811 1427 5779 1427 
L 3366 1427 
L 3366 1005 
Q 4160 947 4595 662 
Q 5030 378 5030 -13 
z
M 4672 3936 
Q 4672 3827 4605 3724 
Q 4538 3622 4442 3539 
Q 4339 3437 4185 3341 
Q 4032 3245 3846 3155 
Q 4154 3072 4525 3001 
Q 4896 2931 5229 2886 
Q 5280 2874 5299 2832 
Q 5318 2790 5306 2752 
L 5203 2419 
Q 5190 2387 5148 2358 
Q 5107 2330 5050 2342 
Q 4582 2413 4041 2531 
Q 3501 2650 3002 2797 
Q 2534 2637 2016 2502 
Q 1498 2368 979 2278 
Q 934 2266 883 2282 
Q 832 2298 819 2336 
L 698 2701 
Q 685 2739 710 2780 
Q 736 2822 781 2835 
Q 1549 2976 2217 3165 
Q 2886 3354 3424 3603 
Q 3482 3629 3498 3645 
Q 3514 3661 3504 3670 
Q 3494 3680 3468 3683 
Q 3443 3686 3424 3686 
L 1216 3686 
Q 1126 3686 1126 3770 
L 1126 4160 
Q 1126 4237 1216 4237 
L 4122 4237 
Q 4403 4237 4537 4144 
Q 4672 4051 4672 3936 
z
M 2995 474 
Q 2355 474 2022 323 
Q 1690 173 1690 -19 
Q 1690 -211 2022 -364 
Q 2355 -518 2995 -518 
Q 3635 -518 3968 -364 
Q 4301 -211 4301 -19 
Q 4301 173 3968 323 
Q 3635 474 2995 474 
z
M 3859 4595 
Q 3859 4557 3827 4525 
Q 3795 4493 3750 4493 
L 2112 4493 
Q 2086 4493 2051 4518 
Q 2016 4544 2016 4589 
L 2016 4941 
Q 2016 4986 2051 5011 
Q 2086 5037 2112 5037 
L 3750 5037 
Q 3789 5037 3824 5005 
Q 3859 4973 3859 4934 
L 3859 4595 
z
" transform="scale(0.015625)"/>
      <path id="NanumGothicBold-b3cc" d="M 5011 3219 
Q 5011 3162 4988 3139 
Q 4966 3117 4934 3117 
L 3366 3117 
L 3366 2547 
L 5779 2547 
Q 5811 2547 5843 2515 
Q 5875 2483 5875 2451 
L 5875 2042 
Q 5875 2010 5843 1978 
Q 5811 1946 5779 1946 
L 211 1946 
Q 173 1946 147 1974 
Q 122 2003 122 2042 
L 122 2451 
Q 122 2490 147 2518 
Q 173 2547 211 2547 
L 2630 2547 
L 2630 3117 
L 1510 3117 
Q 1254 3117 1152 3235 
Q 1050 3354 1050 3578 
L 1050 4602 
Q 1050 4845 1158 4931 
Q 1267 5018 1510 5018 
L 4877 5018 
Q 4966 5018 4966 4934 
L 4966 4512 
Q 4966 4422 4877 4422 
L 1914 4422 
Q 1792 4422 1792 4314 
L 1792 3821 
Q 1792 3770 1817 3741 
Q 1843 3712 1914 3712 
L 4909 3712 
Q 4960 3712 4985 3699 
Q 5011 3686 5011 3635 
L 5011 3219 
z
M 5114 -845 
Q 5114 -877 5085 -905 
Q 5056 -934 5030 -934 
L 1459 -934 
Q 1210 -934 1120 -844 
Q 1030 -755 1030 -550 
L 1030 198 
Q 1030 403 1116 496 
Q 1203 589 1453 589 
L 4166 589 
Q 4218 589 4230 598 
Q 4243 608 4243 666 
L 4243 858 
Q 4243 928 4230 944 
Q 4218 960 4160 960 
L 1107 960 
Q 1075 960 1046 982 
Q 1018 1005 1018 1037 
L 1018 1466 
Q 1018 1498 1046 1523 
Q 1075 1549 1107 1549 
L 4531 1549 
Q 4794 1549 4880 1469 
Q 4966 1389 4966 1171 
L 4966 422 
Q 4966 198 4880 121 
Q 4794 45 4531 45 
L 1830 45 
Q 1779 45 1766 29 
Q 1754 13 1754 -38 
L 1754 -262 
Q 1754 -320 1766 -329 
Q 1779 -339 1837 -339 
L 5024 -339 
Q 5056 -339 5085 -361 
Q 5114 -384 5114 -429 
L 5114 -845 
z
" transform="scale(0.015625)"/>
      <path id="NanumGothicBold-3a" d="M 1011 3053 
Q 806 3053 662 3197 
Q 518 3341 518 3533 
Q 518 3731 662 3875 
Q 806 4019 1011 4019 
Q 1216 4019 1357 3875 
Q 1498 3731 1498 3533 
Q 1498 3341 1357 3197 
Q 1216 3053 1011 3053 
z
M 1011 141 
Q 806 141 662 285 
Q 518 429 518 627 
Q 518 819 662 963 
Q 806 1107 1011 1107 
Q 1216 1107 1357 963 
Q 1498 819 1498 627 
Q 1498 429 1357 285 
Q 1216 141 1011 141 
z
" transform="scale(0.015625)"/>
      <path id="NanumGothicBold-c911" d="M 5018 83 
Q 5018 -442 4493 -730 
Q 3968 -1018 2995 -1018 
Q 2022 -1018 1497 -730 
Q 973 -442 973 83 
Q 973 550 1398 828 
Q 1824 1107 2618 1171 
L 2618 1773 
L 211 1773 
Q 173 1773 147 1805 
Q 122 1837 122 1875 
L 122 2278 
Q 122 2310 147 2342 
Q 173 2374 211 2374 
L 5779 2374 
Q 5811 2374 5843 2342 
Q 5875 2310 5875 2278 
L 5875 1875 
Q 5875 1843 5830 1808 
Q 5786 1773 5754 1773 
L 3354 1773 
L 3354 1171 
Q 4154 1114 4586 832 
Q 5018 550 5018 83 
z
M 4768 4640 
Q 4768 4448 4525 4186 
Q 4403 4058 4227 3933 
Q 4051 3808 3840 3680 
Q 4000 3635 4195 3587 
Q 4390 3539 4598 3491 
Q 4806 3443 5011 3401 
Q 5216 3360 5389 3334 
Q 5440 3328 5469 3296 
Q 5498 3264 5472 3206 
L 5325 2854 
Q 5312 2816 5273 2790 
Q 5235 2765 5184 2778 
Q 4954 2803 4685 2857 
Q 4416 2912 4131 2982 
Q 3846 3053 3568 3136 
Q 3290 3219 3053 3302 
Q 2547 3098 1974 2934 
Q 1402 2771 832 2675 
Q 781 2662 745 2688 
Q 710 2714 698 2746 
L 589 3130 
Q 576 3168 598 3203 
Q 621 3238 653 3245 
Q 1139 3347 1555 3456 
Q 1971 3565 2320 3686 
Q 2669 3808 2963 3942 
Q 3258 4077 3501 4224 
Q 3539 4250 3571 4269 
Q 3603 4288 3609 4301 
Q 3616 4314 3590 4323 
Q 3565 4333 3494 4333 
L 1158 4333 
Q 1075 4333 1075 4422 
L 1075 4851 
Q 1075 4928 1158 4928 
L 4250 4928 
Q 4755 4928 4768 4640 
z
M 4288 77 
Q 4288 307 3961 464 
Q 3635 621 2995 621 
Q 2355 621 2028 464 
Q 1702 307 1702 77 
Q 1702 -147 2028 -304 
Q 2355 -461 2995 -461 
Q 3635 -461 3961 -304 
Q 4288 -147 4288 77 
z
" transform="scale(0.015625)"/>
      <path id="NanumGothicBold-c2ec" d="M 5216 -467 
Q 5216 -710 5107 -812 
Q 4998 -915 4755 -915 
L 2035 -915 
Q 1747 -915 1612 -812 
Q 1478 -710 1478 -461 
L 1478 858 
Q 1478 1101 1587 1209 
Q 1696 1318 1939 1318 
L 4723 1318 
Q 5011 1318 5113 1212 
Q 5216 1107 5216 851 
L 5216 -467 
z
M 781 1619 
Q 704 1562 659 1574 
Q 614 1587 570 1638 
L 314 1939 
Q 243 2010 259 2054 
Q 275 2099 339 2138 
Q 698 2381 966 2640 
Q 1235 2899 1417 3212 
Q 1600 3526 1689 3916 
Q 1779 4307 1779 4819 
Q 1779 4870 1811 4902 
Q 1843 4934 1875 4934 
L 2438 4909 
Q 2522 4909 2522 4806 
Q 2522 4205 2406 3738 
Q 2515 3507 2675 3302 
Q 2835 3098 3017 2928 
Q 3200 2758 3389 2630 
Q 3578 2502 3744 2426 
Q 3853 2381 3782 2272 
L 3565 1920 
Q 3501 1818 3386 1862 
Q 3002 2035 2675 2320 
Q 2349 2605 2112 2970 
Q 1888 2566 1555 2246 
Q 1222 1926 781 1619 
z
M 5222 1722 
Q 5222 1638 5133 1638 
L 4570 1638 
Q 4538 1638 4509 1664 
Q 4480 1690 4480 1728 
L 4480 4979 
Q 4480 5011 4509 5036 
Q 4538 5062 4570 5062 
L 5133 5062 
Q 5222 5062 5222 4979 
L 5222 1722 
z
M 4480 646 
Q 4480 698 4464 714 
Q 4448 730 4397 730 
L 2298 730 
Q 2240 730 2224 717 
Q 2208 704 2208 653 
L 2208 -243 
Q 2208 -301 2224 -313 
Q 2240 -326 2298 -326 
L 4397 -326 
Q 4448 -326 4464 -313 
Q 4480 -301 4480 -243 
L 4480 646 
z
" transform="scale(0.015625)"/>
      <path id="NanumGothicBold-ac70" d="M 5318 -928 
Q 5318 -1011 5229 -1011 
L 4666 -1011 
Q 4576 -1011 4576 -928 
L 4576 2227 
L 3398 2227 
Q 3366 2227 3337 2249 
Q 3309 2272 3309 2304 
L 3309 2758 
Q 3309 2790 3337 2812 
Q 3366 2835 3398 2835 
L 4576 2835 
L 4576 4979 
Q 4576 5062 4666 5062 
L 5229 5062 
Q 5318 5062 5318 4979 
L 5318 -928 
z
M 3386 4102 
Q 3277 2854 2605 1907 
Q 1933 960 800 294 
Q 749 262 688 272 
Q 627 282 595 333 
L 371 672 
Q 339 723 352 771 
Q 365 819 416 845 
Q 1370 1408 1917 2144 
Q 2464 2880 2630 3757 
Q 2662 3885 2620 3926 
Q 2579 3968 2464 3968 
L 685 3968 
Q 602 3968 602 4058 
L 602 4506 
Q 602 4582 685 4582 
L 2931 4582 
Q 3219 4582 3312 4464 
Q 3405 4346 3386 4102 
z
" transform="scale(0.015625)"/>
      <path id="NanumGothicBold-b9ac" d="M 5274 -928 
Q 5274 -1011 5190 -1011 
L 4621 -1011 
Q 4538 -1011 4538 -928 
L 4538 4979 
Q 4538 5062 4621 5062 
L 5190 5062 
Q 5274 5062 5274 4979 
L 5274 -928 
z
M 4109 806 
Q 4122 755 4083 726 
Q 4045 698 3994 685 
Q 3808 640 3568 605 
Q 3328 570 3059 544 
Q 2790 518 2515 499 
Q 2240 480 1984 473 
Q 1728 467 1513 467 
Q 1299 467 1158 480 
Q 877 506 771 602 
Q 666 698 666 941 
L 666 2477 
Q 666 2707 778 2809 
Q 890 2912 1114 2912 
L 2637 2912 
Q 2688 2912 2707 2928 
Q 2726 2944 2726 3008 
L 2726 3904 
Q 2726 3955 2713 3974 
Q 2701 3994 2637 3994 
L 794 3994 
Q 762 3994 733 4019 
Q 704 4045 704 4077 
L 704 4518 
Q 704 4550 733 4572 
Q 762 4595 794 4595 
L 3021 4595 
Q 3296 4595 3376 4492 
Q 3456 4390 3456 4160 
L 3456 2739 
Q 3456 2496 3357 2406 
Q 3258 2317 3008 2317 
L 1491 2317 
Q 1402 2317 1402 2227 
L 1402 1216 
Q 1402 1146 1427 1123 
Q 1453 1101 1523 1101 
Q 1805 1088 2115 1097 
Q 2426 1107 2739 1129 
Q 3053 1152 3350 1190 
Q 3648 1229 3910 1280 
Q 3955 1293 3996 1270 
Q 4038 1248 4051 1190 
L 4109 806 
z
" transform="scale(0.015625)"/>
      <path id="NanumGothicBold-c640" d="M 154 704 
Q 154 794 243 794 
Q 960 774 1683 794 
L 1683 1798 
Q 1414 1843 1190 1964 
Q 966 2086 800 2268 
Q 634 2451 541 2688 
Q 448 2925 448 3206 
Q 448 3520 569 3789 
Q 691 4058 899 4250 
Q 1107 4442 1392 4550 
Q 1677 4659 2003 4659 
Q 2330 4659 2614 4550 
Q 2899 4442 3110 4250 
Q 3322 4058 3443 3789 
Q 3565 3520 3565 3206 
Q 3565 2938 3478 2707 
Q 3392 2477 3235 2297 
Q 3078 2118 2864 1993 
Q 2650 1869 2394 1811 
L 2394 826 
Q 2778 845 3152 886 
Q 3526 928 3904 986 
Q 3936 992 3974 982 
Q 4013 973 4019 922 
L 4058 512 
Q 4064 461 4038 435 
Q 4013 410 3981 403 
Q 3085 256 2125 211 
Q 1165 166 243 179 
Q 154 179 154 282 
L 154 704 
z
M 5971 2016 
Q 5971 1984 5942 1958 
Q 5914 1933 5882 1933 
L 5043 1933 
L 5043 -928 
Q 5043 -1011 4960 -1011 
L 4390 -1011 
Q 4307 -1011 4307 -928 
L 4307 4979 
Q 4307 5062 4390 5062 
L 4960 5062 
Q 5043 5062 5043 4979 
L 5043 2547 
L 5882 2547 
Q 5914 2547 5942 2521 
Q 5971 2496 5971 2464 
L 5971 2016 
z
M 2003 4051 
Q 1824 4051 1670 3990 
Q 1517 3930 1401 3821 
Q 1286 3712 1222 3555 
Q 1158 3398 1158 3206 
Q 1158 3014 1222 2854 
Q 1286 2694 1401 2585 
Q 1517 2477 1670 2416 
Q 1824 2355 2003 2355 
Q 2182 2355 2336 2416 
Q 2490 2477 2605 2585 
Q 2720 2694 2784 2854 
Q 2848 3014 2848 3206 
Q 2848 3398 2784 3555 
Q 2720 3712 2605 3821 
Q 2490 3930 2336 3990 
Q 2182 4051 2003 4051 
z
" transform="scale(0.015625)"/>
      <path id="NanumGothicBold-bc18" d="M 2688 3142 
L 1331 3142 
L 1331 2406 
Q 1331 2298 1446 2298 
L 2573 2298 
Q 2688 2298 2688 2406 
L 2688 3142 
z
M 3418 2125 
Q 3418 1907 3315 1801 
Q 3213 1696 2938 1696 
L 1088 1696 
Q 806 1696 704 1792 
Q 602 1888 602 2144 
L 602 4717 
Q 602 4749 627 4771 
Q 653 4794 685 4794 
L 1242 4794 
Q 1274 4794 1302 4771 
Q 1331 4749 1331 4717 
L 1331 3738 
L 2688 3738 
L 2688 4723 
Q 2688 4755 2713 4780 
Q 2739 4806 2771 4806 
L 3334 4806 
Q 3366 4806 3392 4780 
Q 3418 4755 3418 4723 
L 3418 2125 
z
M 5254 -826 
Q 5254 -864 5225 -883 
Q 5197 -902 5165 -902 
L 1779 -902 
Q 1491 -902 1392 -800 
Q 1293 -698 1293 -448 
L 1293 902 
Q 1293 934 1321 966 
Q 1350 998 1382 998 
L 1933 998 
Q 1971 998 2000 969 
Q 2029 941 2029 902 
L 2029 -186 
Q 2029 -250 2054 -269 
Q 2080 -288 2150 -288 
L 5165 -288 
Q 5197 -288 5225 -313 
Q 5254 -339 5254 -371 
L 5254 -826 
z
M 5965 2522 
Q 5965 2490 5936 2467 
Q 5907 2445 5875 2445 
L 5005 2445 
L 5005 832 
Q 5005 749 4922 749 
L 4352 749 
Q 4269 749 4269 832 
L 4269 4979 
Q 4269 5062 4352 5062 
L 4922 5062 
Q 5005 5062 5005 4979 
L 5005 3059 
L 5875 3059 
Q 5907 3059 5936 3036 
Q 5965 3014 5965 2982 
L 5965 2522 
z
" transform="scale(0.015625)"/>
      <path id="NanumGothicBold-c9c0" d="M 717 531 
Q 666 499 608 505 
Q 550 512 518 563 
L 269 896 
Q 224 954 253 1005 
Q 282 1056 326 1082 
Q 730 1331 1094 1657 
Q 1459 1984 1750 2342 
Q 2042 2701 2246 3075 
Q 2451 3450 2541 3795 
Q 2566 3904 2547 3936 
Q 2528 3968 2419 3968 
L 768 3968 
Q 730 3968 707 3997 
Q 685 4026 685 4064 
L 685 4493 
Q 685 4582 774 4582 
L 2861 4582 
Q 3110 4582 3251 4486 
Q 3392 4390 3392 4237 
Q 3392 4154 3379 4067 
Q 3366 3981 3347 3910 
Q 3258 3571 3107 3228 
Q 2957 2886 2739 2541 
Q 2861 2374 3021 2192 
Q 3181 2010 3353 1837 
Q 3526 1664 3692 1513 
Q 3859 1363 3994 1267 
Q 4038 1235 4054 1184 
Q 4070 1133 4032 1082 
L 3757 768 
Q 3674 678 3546 755 
Q 3430 832 3273 969 
Q 3117 1107 2950 1273 
Q 2784 1440 2624 1625 
Q 2464 1811 2336 1978 
Q 2010 1574 1606 1206 
Q 1203 838 717 531 
z
M 5280 -928 
Q 5280 -1011 5190 -1011 
L 4627 -1011 
Q 4595 -1011 4566 -988 
Q 4538 -966 4538 -928 
L 4538 4979 
Q 4538 5011 4566 5036 
Q 4595 5062 4627 5062 
L 5190 5062 
Q 5280 5062 5280 4979 
L 5280 -928 
z
" transform="scale(0.015625)"/>
      <path id="NanumGothicBold-b984" d="M 5875 1542 
Q 5875 1510 5843 1478 
Q 5811 1446 5779 1446 
L 211 1446 
Q 173 1446 147 1475 
Q 122 1504 122 1542 
L 122 1958 
Q 122 2048 211 2048 
L 5779 2048 
Q 5811 2048 5843 2019 
Q 5875 1990 5875 1958 
L 5875 1542 
z
M 5075 2592 
Q 5075 2560 5046 2528 
Q 5018 2496 4992 2496 
L 1485 2496 
Q 1235 2496 1145 2589 
Q 1056 2682 1056 2886 
L 1056 3667 
Q 1056 3872 1142 3961 
Q 1229 4051 1478 4051 
L 4160 4051 
Q 4211 4051 4224 4067 
Q 4237 4083 4237 4141 
L 4237 4397 
Q 4237 4448 4224 4457 
Q 4211 4467 4154 4467 
L 1178 4467 
Q 1146 4467 1117 4492 
Q 1088 4518 1088 4550 
L 1088 4960 
Q 1088 4992 1117 5017 
Q 1146 5043 1178 5043 
L 4518 5043 
Q 4781 5043 4867 4963 
Q 4954 4883 4954 4666 
L 4954 3898 
Q 4954 3674 4867 3594 
Q 4781 3514 4518 3514 
L 1862 3514 
Q 1805 3514 1792 3498 
Q 1779 3482 1779 3430 
L 1779 3149 
Q 1779 3091 1792 3081 
Q 1805 3072 1869 3072 
L 4986 3072 
Q 5018 3072 5046 3049 
Q 5075 3027 5075 2989 
L 5075 2592 
z
M 4966 -499 
Q 4966 -742 4844 -844 
Q 4723 -947 4480 -947 
L 1510 -947 
Q 1222 -947 1123 -848 
Q 1024 -749 1024 -499 
L 1024 570 
Q 1024 813 1145 918 
Q 1267 1024 1510 1024 
L 4480 1024 
Q 4768 1024 4867 928 
Q 4966 832 4966 570 
L 4966 -499 
z
M 4230 339 
Q 4230 390 4214 406 
Q 4198 422 4147 422 
L 1843 422 
Q 1792 422 1776 409 
Q 1760 397 1760 346 
L 1760 -262 
Q 1760 -320 1776 -333 
Q 1792 -346 1843 -346 
L 4147 -346 
Q 4198 -346 4214 -333 
Q 4230 -320 4230 -262 
L 4230 339 
z
" transform="scale(0.015625)"/>
     </defs>
     <use xlink:href="#NanumGothicBold-c6d0"/>
     <use xlink:href="#NanumGothicBold-20" transform="translate(93.999985 0)"/>
     <use xlink:href="#NanumGothicBold-cda9" transform="translate(121.999969 0)"/>
     <use xlink:href="#NanumGothicBold-b3cc" transform="translate(215.999954 0)"/>
     <use xlink:href="#NanumGothicBold-3a" transform="translate(309.999939 0)"/>
     <use xlink:href="#NanumGothicBold-20" transform="translate(340.299927 0)"/>
     <use xlink:href="#NanumGothicBold-c911" transform="translate(368.299911 0)"/>
     <use xlink:href="#NanumGothicBold-c2ec" transform="translate(462.299896 0)"/>
     <use xlink:href="#NanumGothicBold-20" transform="translate(556.299881 0)"/>
     <use xlink:href="#NanumGothicBold-ac70" transform="translate(584.299866 0)"/>
     <use xlink:href="#NanumGothicBold-b9ac" transform="translate(678.29985 0)"/>
     <use xlink:href="#NanumGothicBold-c640" transform="translate(772.299835 0)"/>
     <use xlink:href="#NanumGothicBold-20" transform="translate(866.29982 0)"/>
     <use xlink:href="#NanumGothicBold-bc18" transform="translate(894.299805 0)"/>
     <use xlink:href="#NanumGothicBold-c9c0" transform="translate(988.299789 0)"/>
     <use xlink:href="#NanumGothicBold-b984" transform="translate(1082.299774 0)"/>
    </g>
   </g>
   <g id="patch_4">
    <path d="M 133.624459 125.533331 
Q 197.465364 125.533331 261.306268 125.533331 
" clip-path="url(#pef7451b4a2)" style="fill: none; stroke: #ef4444; stroke-width: 2.2; stroke-linecap: round"/>
    <path d="M 139.224459 128.333331 
L 133.624459 125.533331 
L 139.224459 122.733331 
" clip-path="url(#pef7451b4a2)" style="fill: none; stroke: #ef4444; stroke-width: 2.2; stroke-linecap: round"/>
    <path d="M 255.706268 122.733331 
L 261.306268 125.533331 
L 255.706268 128.333331 
" clip-path="url(#pef7451b4a2)" style="fill: none; stroke: #ef4444; stroke-width: 2.2; stroke-linecap: round"/>
   </g>
   <g id="text_2">
    <!-- 중심 거리 d -->
    <g style="fill: #ef4444" transform="translate(170.374544 112.521447) scale(0.11 -0.11)">
     <defs>
      <path id="NanumGothic-c911" d="M 5728 2310 
Q 5760 2310 5792 2288 
Q 5824 2266 5824 2227 
L 5824 2010 
Q 5824 1978 5792 1952 
Q 5760 1926 5728 1926 
L 3219 1926 
L 3219 1146 
Q 3507 1133 3817 1078 
Q 4128 1024 4390 905 
Q 4653 787 4822 595 
Q 4992 403 4992 109 
Q 4992 -218 4787 -422 
Q 4582 -627 4281 -742 
Q 3981 -858 3632 -899 
Q 3283 -941 2995 -941 
Q 2803 -941 2582 -921 
Q 2362 -902 2141 -860 
Q 1920 -819 1715 -742 
Q 1510 -666 1353 -547 
Q 1197 -429 1101 -269 
Q 1005 -109 1005 109 
Q 1005 397 1174 592 
Q 1344 787 1606 905 
Q 1869 1024 2182 1078 
Q 2496 1133 2778 1146 
L 2778 1926 
L 288 1926 
Q 250 1926 221 1952 
Q 192 1978 192 2010 
L 192 2227 
Q 192 2266 221 2288 
Q 250 2310 288 2310 
L 5728 2310 
z
M 4493 4218 
Q 4160 3904 3590 3610 
Q 3770 3558 3990 3500 
Q 4211 3443 4441 3385 
Q 4672 3328 4902 3277 
Q 5133 3226 5331 3187 
Q 5414 3168 5389 3098 
L 5299 2886 
Q 5267 2816 5184 2835 
Q 4966 2874 4697 2938 
Q 4429 3002 4150 3075 
Q 3872 3149 3600 3225 
Q 3328 3302 3098 3379 
Q 2592 3168 2013 3005 
Q 1434 2842 832 2739 
Q 774 2726 752 2748 
Q 730 2771 717 2810 
L 659 3002 
Q 634 3098 710 3104 
Q 1152 3174 1638 3308 
Q 2125 3443 2576 3609 
Q 3027 3776 3404 3958 
Q 3782 4141 4006 4307 
Q 4109 4384 4086 4429 
Q 4064 4474 3974 4474 
L 1210 4474 
Q 1126 4474 1126 4557 
L 1126 4781 
Q 1126 4858 1210 4858 
L 4134 4858 
Q 4627 4858 4716 4688 
Q 4806 4518 4493 4218 
z
M 4525 102 
Q 4525 314 4352 438 
Q 4179 563 3936 633 
Q 3693 704 3433 726 
Q 3174 749 2995 749 
Q 2810 749 2550 726 
Q 2291 704 2051 633 
Q 1811 563 1641 438 
Q 1472 314 1472 102 
Q 1472 -102 1641 -230 
Q 1811 -358 2051 -425 
Q 2291 -493 2550 -515 
Q 2810 -538 2995 -538 
Q 3174 -538 3436 -515 
Q 3699 -493 3939 -425 
Q 4179 -358 4352 -230 
Q 4525 -102 4525 102 
z
" transform="scale(0.015625)"/>
      <path id="NanumGothic-c2ec" d="M 1498 819 
Q 1498 1088 1600 1181 
Q 1702 1274 1984 1274 
L 4666 1274 
Q 4819 1274 4912 1254 
Q 5005 1235 5059 1184 
Q 5114 1133 5133 1043 
Q 5152 954 5152 819 
L 5152 -390 
Q 5152 -659 5049 -752 
Q 4947 -845 4666 -845 
L 1984 -845 
Q 1830 -845 1737 -825 
Q 1645 -806 1590 -752 
Q 1536 -698 1517 -611 
Q 1498 -525 1498 -390 
L 1498 819 
z
M 2093 890 
Q 2003 890 1971 854 
Q 1939 819 1939 723 
L 1939 -294 
Q 1939 -390 1971 -425 
Q 2003 -461 2093 -461 
L 4557 -461 
Q 4646 -461 4678 -425 
Q 4710 -390 4710 -294 
L 4710 723 
Q 4710 819 4678 854 
Q 4646 890 4557 890 
L 2093 890 
z
M 2342 4774 
Q 2342 4307 2246 3904 
Q 2323 3635 2460 3392 
Q 2598 3149 2784 2937 
Q 2970 2726 3190 2556 
Q 3411 2387 3654 2272 
Q 3693 2253 3689 2217 
Q 3686 2182 3674 2157 
L 3539 1946 
Q 3520 1914 3494 1901 
Q 3469 1888 3411 1920 
Q 3264 1997 3075 2128 
Q 2886 2259 2694 2438 
Q 2502 2618 2329 2832 
Q 2157 3046 2042 3277 
Q 1830 2790 1472 2393 
Q 1114 1997 634 1683 
Q 602 1664 563 1657 
Q 525 1651 499 1683 
L 339 1894 
Q 326 1920 336 1958 
Q 346 1997 378 2016 
Q 1139 2483 1523 3193 
Q 1907 3904 1894 4781 
Q 1894 4883 1971 4883 
L 2272 4864 
Q 2342 4864 2342 4774 
z
M 5152 1728 
Q 5152 1638 5062 1638 
L 4800 1638 
Q 4710 1638 4710 1728 
L 4710 4915 
Q 4710 5005 4800 5005 
L 5062 5005 
Q 5152 5005 5152 4915 
L 5152 1728 
z
" transform="scale(0.015625)"/>
      <path id="NanumGothic-20" transform="scale(0.015625)"/>
      <path id="NanumGothic-ac70" d="M 4710 2701 
L 4710 4915 
Q 4710 5005 4800 5005 
L 5062 5005 
Q 5152 5005 5152 4915 
L 5152 -806 
Q 5152 -896 5062 -896 
L 4800 -896 
Q 4710 -896 4710 -806 
L 4710 2317 
L 3398 2317 
Q 3315 2317 3315 2394 
L 3315 2624 
Q 3315 2701 3398 2701 
L 4710 2701 
z
M 3392 4064 
Q 3360 3514 3174 2982 
Q 2989 2451 2659 1968 
Q 2330 1485 1866 1072 
Q 1402 659 813 346 
Q 730 301 691 365 
L 550 589 
Q 506 666 576 698 
Q 1120 979 1539 1340 
Q 1958 1702 2256 2124 
Q 2554 2547 2726 3014 
Q 2899 3482 2944 3974 
Q 2957 4070 2918 4105 
Q 2880 4141 2790 4141 
L 755 4141 
Q 678 4141 678 4224 
L 678 4448 
Q 678 4525 755 4525 
L 2912 4525 
Q 3213 4525 3309 4413 
Q 3405 4301 3392 4064 
z
" transform="scale(0.015625)"/>
      <path id="NanumGothic-b9ac" d="M 5152 -806 
Q 5152 -896 5062 -896 
L 4800 -896 
Q 4710 -896 4710 -806 
L 4710 4915 
Q 4710 5005 4800 5005 
L 5062 5005 
Q 5152 5005 5152 4915 
L 5152 -806 
z
M 1210 550 
Q 922 563 822 668 
Q 723 774 723 1043 
L 723 2317 
Q 723 2586 835 2678 
Q 947 2771 1235 2771 
L 2848 2771 
Q 2938 2771 2963 2796 
Q 2989 2822 2989 2918 
L 2989 3994 
Q 2989 4090 2966 4115 
Q 2944 4141 2854 4141 
L 838 4141 
Q 806 4141 777 4160 
Q 749 4179 749 4211 
L 749 4454 
Q 749 4486 777 4505 
Q 806 4525 838 4525 
L 2925 4525 
Q 3078 4525 3174 4502 
Q 3270 4480 3328 4429 
Q 3386 4378 3408 4285 
Q 3430 4192 3430 4058 
L 3430 2842 
Q 3430 2573 3318 2480 
Q 3206 2387 2918 2387 
L 1299 2387 
Q 1210 2387 1187 2361 
Q 1165 2336 1165 2240 
L 1165 1075 
Q 1165 928 1306 928 
Q 2067 915 2768 985 
Q 3469 1056 4128 1203 
Q 4218 1222 4237 1139 
L 4275 928 
Q 4294 845 4192 819 
Q 3853 742 3478 688 
Q 3104 634 2717 598 
Q 2330 563 1946 550 
Q 1562 538 1210 550 
z
" transform="scale(0.015625)"/>
      <path id="NanumGothic-64" d="M 877 1459 
Q 877 1158 925 912 
Q 973 666 1075 480 
Q 1216 250 1417 128 
Q 1619 6 1901 6 
Q 2157 6 2352 140 
Q 2547 275 2678 483 
Q 2810 691 2874 950 
Q 2938 1210 2938 1459 
Q 2938 1766 2870 2028 
Q 2803 2291 2672 2483 
Q 2541 2675 2349 2784 
Q 2157 2893 1901 2893 
Q 1357 2893 1075 2426 
Q 973 2240 925 1993 
Q 877 1747 877 1459 
z
M 3366 -186 
Q 3366 -275 3277 -275 
L 3027 -275 
Q 2938 -275 2938 -186 
L 2938 294 
Q 2592 -358 1824 -358 
Q 1139 -358 755 166 
Q 403 653 403 1459 
Q 403 3258 1824 3258 
Q 2208 3258 2505 3104 
Q 2803 2950 2938 2707 
L 2938 4723 
Q 2938 4813 3027 4813 
L 3277 4813 
Q 3366 4813 3366 4723 
L 3366 -186 
z
" transform="scale(0.015625)"/>
     </defs>
     <use xlink:href="#NanumGothic-c911"/>
     <use xlink:href="#NanumGothic-c2ec" transform="translate(93.999985 0)"/>
     <use xlink:href="#NanumGothic-20" transform="translate(187.999969 0)"/>
     <use xlink:href="#NanumGothic-ac70" transform="translate(215.999954 0)"/>
     <use xlink:href="#NanumGothic-b9ac" transform="translate(309.999939 0)"/>
     <use xlink:href="#NanumGothic-20" transform="translate(403.999924 0)"/>
     <use xlink:href="#NanumGothic-64" transform="translate(431.999908 0)"/>
    </g>
   </g>
   <g id="text_3">
    <!-- rA -->
    <g style="fill: #2563eb" transform="translate(123.173 194.882247) scale(0.11 -0.11)">
     <defs>
      <path id="NanumGothic-72" d="M 2221 2797 
Q 2106 2835 1914 2835 
Q 1440 2835 1210 2368 
Q 1030 2003 1030 1434 
L 1030 -186 
Q 1030 -275 941 -275 
L 691 -275 
Q 602 -275 602 -186 
L 602 2413 
Q 602 2643 598 2787 
Q 595 2931 589 3098 
Q 589 3187 678 3187 
L 915 3187 
Q 1005 3187 1005 3098 
L 1005 2470 
Q 1318 3277 1926 3277 
Q 2074 3277 2221 3238 
Q 2259 3226 2288 3197 
Q 2317 3168 2317 3117 
L 2317 2848 
Q 2317 2810 2285 2797 
Q 2253 2784 2221 2797 
z
" transform="scale(0.015625)"/>
      <path id="NanumGothic-41" d="M 3386 1402 
Q 3117 2067 2870 2716 
Q 2624 3366 2355 4032 
Q 2086 3366 1827 2716 
Q 1568 2067 1299 1402 
L 3386 1402 
z
M 4499 -186 
Q 4531 -275 4442 -275 
L 4134 -275 
Q 4096 -275 4067 -262 
Q 4038 -250 4013 -186 
L 3539 992 
L 1133 992 
Q 1011 691 896 403 
Q 781 115 666 -186 
Q 640 -250 611 -262 
Q 582 -275 544 -275 
L 243 -275 
Q 154 -275 186 -186 
L 2067 4397 
Q 2099 4474 2182 4474 
L 2573 4474 
Q 2656 4474 2688 4397 
L 4499 -186 
z
" transform="scale(0.015625)"/>
     </defs>
     <use xlink:href="#NanumGothic-72"/>
     <use xlink:href="#NanumGothic-41" transform="translate(36.299988 0)"/>
    </g>
   </g>
   <g id="text_4">
    <!-- rB -->
    <g style="fill: #10b981" transform="translate(260.437416 202.917447) scale(0.11 -0.11)">
     <defs>
      <path id="NanumGothic-42" d="M 2784 3277 
Q 2784 4064 1741 4064 
L 1088 4064 
L 1088 2394 
L 1619 2394 
Q 2202 2394 2493 2624 
Q 2784 2854 2784 3277 
z
M 2931 1050 
Q 2931 1523 2585 1753 
Q 2240 1984 1491 1984 
L 1075 1984 
L 1075 128 
L 1568 128 
Q 2931 128 2931 1050 
z
M 3405 1075 
Q 3405 -275 1555 -275 
L 781 -275 
Q 646 -275 624 -252 
Q 602 -230 602 -96 
L 602 4282 
Q 602 4416 624 4438 
Q 646 4461 781 4461 
L 1741 4461 
Q 3258 4461 3258 3296 
Q 3258 2406 2413 2214 
Q 2899 2074 3152 1789 
Q 3405 1504 3405 1075 
z
" transform="scale(0.015625)"/>
     </defs>
     <use xlink:href="#NanumGothic-72"/>
     <use xlink:href="#NanumGothic-42" transform="translate(36.299988 0)"/>
    </g>
   </g>
   <g id="text_5">
    <!-- d ≤ rA + rB 이면 충돌 -->
    <g style="fill: #111827" transform="translate(48.816 50.264116) scale(0.11 -0.11)">
     <defs>
      <path id="NanumGothicBold-64" d="M 2810 -333 
Q 2714 -333 2714 -230 
L 2714 13 
Q 2586 -166 2336 -288 
Q 2086 -410 1830 -410 
Q 1485 -410 1213 -278 
Q 941 -147 752 99 
Q 563 346 464 698 
Q 365 1050 365 1491 
Q 365 1920 467 2269 
Q 570 2618 758 2861 
Q 947 3104 1219 3238 
Q 1491 3373 1830 3373 
Q 2086 3373 2313 3270 
Q 2541 3168 2714 2982 
L 2714 4806 
Q 2714 4858 2730 4874 
Q 2746 4890 2790 4890 
L 3315 4890 
Q 3398 4890 3398 4806 
L 3398 -230 
Q 3398 -282 3366 -307 
Q 3334 -333 3296 -333 
L 2810 -333 
z
M 1901 2720 
Q 1504 2720 1293 2397 
Q 1082 2074 1082 1491 
Q 1082 864 1299 550 
Q 1517 237 1901 237 
Q 2067 237 2214 320 
Q 2362 403 2474 563 
Q 2586 723 2650 956 
Q 2714 1190 2714 1491 
Q 2714 2112 2499 2416 
Q 2285 2720 1901 2720 
z
" transform="scale(0.015625)"/>
      <path id="NanumGothicBold-2264" d="M 4122 -339 
L 179 -339 
L 179 141 
L 4122 141 
L 4122 -339 
z
M 4115 723 
L 3885 288 
L 250 2189 
L 250 2515 
L 3885 4307 
L 4115 3891 
L 973 2349 
L 4115 723 
z
" transform="scale(0.015625)"/>
      <path id="NanumGothicBold-72" d="M 2240 2579 
Q 2112 2611 2016 2620 
Q 1920 2630 1850 2618 
Q 1658 2579 1539 2454 
Q 1421 2330 1360 2163 
Q 1299 1997 1280 1805 
Q 1261 1613 1261 1440 
L 1261 -224 
Q 1261 -314 1184 -314 
L 653 -314 
Q 582 -314 582 -218 
L 582 2362 
Q 582 2566 576 2771 
Q 570 2976 570 3130 
Q 570 3187 589 3203 
Q 608 3219 653 3219 
L 1184 3219 
Q 1229 3219 1235 3206 
Q 1242 3194 1242 3162 
L 1242 2880 
Q 1286 2957 1360 3033 
Q 1434 3110 1520 3171 
Q 1606 3232 1696 3267 
Q 1786 3302 1862 3302 
Q 1984 3302 2083 3299 
Q 2182 3296 2291 3232 
Q 2323 3219 2329 3190 
Q 2336 3162 2336 3136 
L 2336 2656 
Q 2336 2630 2317 2598 
Q 2298 2566 2240 2579 
z
" transform="scale(0.015625)"/>
      <path id="NanumGothicBold-41" d="M 3949 -320 
Q 3904 -320 3885 -310 
Q 3866 -301 3846 -256 
L 3386 896 
L 1299 896 
L 838 -256 
Q 826 -301 806 -310 
Q 787 -320 742 -320 
L 154 -320 
Q 38 -320 77 -230 
L 1946 4435 
Q 1965 4486 1974 4496 
Q 1984 4506 2048 4506 
L 2643 4506 
Q 2701 4506 2713 4496 
Q 2726 4486 2746 4435 
L 4614 -230 
Q 4646 -320 4538 -320 
L 3949 -320 
z
M 1562 1568 
L 3117 1568 
L 2342 3539 
L 1562 1568 
z
" transform="scale(0.015625)"/>
      <path id="NanumGothicBold-2b" d="M 2445 1760 
L 2445 410 
Q 2445 333 2368 333 
L 1843 333 
Q 1766 333 1766 410 
L 1766 1760 
L 410 1760 
Q 378 1760 355 1782 
Q 333 1805 333 1837 
L 333 2336 
Q 333 2368 355 2390 
Q 378 2413 410 2413 
L 1766 2413 
L 1766 3757 
Q 1766 3789 1788 3811 
Q 1811 3834 1843 3834 
L 2368 3834 
Q 2400 3834 2422 3811 
Q 2445 3789 2445 3757 
L 2445 2413 
L 3795 2413 
Q 3872 2413 3872 2336 
L 3872 1837 
Q 3872 1760 3795 1760 
L 2445 1760 
z
" transform="scale(0.015625)"/>
      <path id="NanumGothicBold-42" d="M 653 -320 
Q 576 -320 576 -256 
L 576 4416 
Q 576 4506 653 4506 
L 1760 4506 
Q 2490 4506 2896 4205 
Q 3302 3904 3302 3283 
Q 3302 2899 3145 2627 
Q 2989 2355 2701 2202 
Q 2886 2131 3024 2016 
Q 3162 1901 3254 1753 
Q 3347 1606 3392 1443 
Q 3437 1280 3437 1120 
Q 3437 397 2963 38 
Q 2490 -320 1594 -320 
L 653 -320 
z
M 1306 3827 
L 1306 2528 
L 1651 2528 
Q 2157 2528 2368 2723 
Q 2579 2918 2579 3226 
Q 2579 3494 2393 3660 
Q 2208 3827 1760 3827 
L 1306 3827 
z
M 1293 1837 
L 1293 365 
L 1606 365 
Q 2221 365 2467 560 
Q 2714 755 2714 1094 
Q 2714 1440 2445 1638 
Q 2176 1837 1536 1837 
L 1293 1837 
z
" transform="scale(0.015625)"/>
      <path id="NanumGothicBold-c774" d="M 5274 -928 
Q 5274 -1011 5190 -1011 
L 4621 -1011 
Q 4538 -1011 4538 -928 
L 4538 4979 
Q 4538 5062 4621 5062 
L 5190 5062 
Q 5274 5062 5274 4979 
L 5274 -928 
z
M 2963 2573 
Q 2963 2867 2905 3132 
Q 2848 3398 2739 3596 
Q 2630 3795 2473 3910 
Q 2317 4026 2112 4026 
Q 1907 4026 1750 3910 
Q 1594 3795 1485 3596 
Q 1376 3398 1318 3132 
Q 1261 2867 1261 2573 
Q 1261 2285 1318 2019 
Q 1376 1754 1485 1552 
Q 1594 1350 1750 1232 
Q 1907 1114 2112 1114 
Q 2317 1114 2473 1232 
Q 2630 1350 2739 1552 
Q 2848 1754 2905 2019 
Q 2963 2285 2963 2573 
z
M 2112 461 
Q 1747 461 1452 614 
Q 1158 768 956 1046 
Q 755 1325 646 1715 
Q 538 2106 538 2573 
Q 538 3053 646 3443 
Q 755 3834 956 4106 
Q 1158 4378 1452 4528 
Q 1747 4678 2112 4678 
Q 2483 4678 2774 4528 
Q 3066 4378 3267 4106 
Q 3469 3834 3577 3443 
Q 3686 3053 3686 2573 
Q 3686 2093 3577 1702 
Q 3469 1312 3267 1037 
Q 3066 762 2774 611 
Q 2483 461 2112 461 
z
" transform="scale(0.015625)"/>
      <path id="NanumGothicBold-ba74" d="M 3456 2080 
Q 3456 1830 3357 1734 
Q 3258 1638 3014 1638 
L 1114 1638 
Q 845 1638 742 1734 
Q 640 1830 640 2080 
L 640 4288 
Q 640 4531 739 4624 
Q 838 4717 1082 4717 
L 3014 4717 
Q 3258 4717 3357 4630 
Q 3456 4544 3456 4288 
L 3456 4045 
L 4544 4045 
L 4544 4979 
Q 4544 5062 4627 5062 
L 5197 5062 
Q 5280 5062 5280 4979 
L 5280 768 
Q 5280 685 5197 685 
L 4627 685 
Q 4544 685 4544 768 
L 4544 2202 
L 3456 2202 
L 3456 2080 
z
M 5466 -826 
Q 5466 -864 5437 -883 
Q 5408 -902 5376 -902 
L 2048 -902 
Q 1760 -902 1657 -800 
Q 1555 -698 1555 -448 
L 1555 870 
Q 1555 902 1587 934 
Q 1619 966 1651 966 
L 2195 966 
Q 2240 966 2269 934 
Q 2298 902 2298 870 
L 2298 -186 
Q 2298 -250 2323 -269 
Q 2349 -288 2413 -288 
L 5376 -288 
Q 5408 -288 5437 -313 
Q 5466 -339 5466 -371 
L 5466 -826 
z
M 2733 4045 
Q 2733 4096 2717 4112 
Q 2701 4128 2650 4128 
L 1446 4128 
Q 1395 4128 1379 4115 
Q 1363 4102 1363 4051 
L 1363 2310 
Q 1363 2246 1379 2233 
Q 1395 2221 1446 2221 
L 2650 2221 
Q 2701 2221 2717 2233 
Q 2733 2246 2733 2310 
L 2733 4045 
z
M 4544 2790 
L 4544 3456 
L 3456 3456 
L 3456 2790 
L 4544 2790 
z
" transform="scale(0.015625)"/>
     </defs>
     <use xlink:href="#NanumGothicBold-64"/>
     <use xlink:href="#NanumGothicBold-20" transform="translate(60.599991 0)"/>
     <use xlink:href="#NanumGothicBold-2264" transform="translate(88.599976 0)"/>
     <use xlink:href="#NanumGothicBold-20" transform="translate(155.799973 0)"/>
     <use xlink:href="#NanumGothicBold-72" transform="translate(183.799957 0)"/>
     <use xlink:href="#NanumGothicBold-41" transform="translate(220.099945 0)"/>
     <use xlink:href="#NanumGothicBold-20" transform="translate(292.799927 0)"/>
     <use xlink:href="#NanumGothicBold-2b" transform="translate(320.799911 0)"/>
     <use xlink:href="#NanumGothicBold-20" transform="translate(386.199905 0)"/>
     <use xlink:href="#NanumGothicBold-72" transform="translate(414.19989 0)"/>
     <use xlink:href="#NanumGothicBold-42" transform="translate(450.499878 0)"/>
     <use xlink:href="#NanumGothicBold-20" transform="translate(511.099869 0)"/>
     <use xlink:href="#NanumGothicBold-c774" transform="translate(539.099854 0)"/>
     <use xlink:href="#NanumGothicBold-ba74" transform="translate(633.099838 0)"/>
     <use xlink:href="#NanumGothicBold-20" transform="translate(727.099823 0)"/>
     <use xlink:href="#NanumGothicBold-cda9" transform="translate(755.099808 0)"/>
     <use xlink:href="#NanumGothicBold-b3cc" transform="translate(849.099792 0)"/>
    </g>
   </g>
  </g>
 </g>
 <defs>
  <clipPath id="pef7451b4a2">
   <rect x="8.64" y="29.110931" width="401.76" height="192.8448"/>
  </clipPath>
 </defs>
</svg>
