<?xml version="1.0" encoding="utf-8" standalone="no"?>
<!DOCTYPE svg PUBLIC "-//W3C//DTD SVG 1.1//EN"
  "http://www.w3.org/Graphics/SVG/1.1/DTD/svg11.dtd">
<svg xmlns:xlink="http://www.w3.org/1999/xlink" width="462.384pt" height="149.0112pt" viewBox="0 0 462.384 149.0112" xmlns="http://www.w3.org/2000/svg" version="1.1">
 <metadata>
  <rdf:RDF xmlns:dc="http://purl.org/dc/elements/1.1/" xmlns:cc="http://creativecommons.org/ns#" xmlns:rdf="http://www.w3.org/1999/02/22-rdf-syntax-ns#">
   <cc:Work>
    <dc:type rdf:resource="http://purl.org/dc/dcmitype/StillImage"/>
    <dc:date>2026-07-08T05:12:54.520406</dc:date>
    <dc:format>image/svg+xml</dc:format>
    <dc:creator>
     <cc:Agent>
      <dc:title>Matplotlib v3.10.8, https://matplotlib.org/</dc:title>
     </cc:Agent>
    </dc:creator>
   </cc:Work>
  </rdf:RDF>
 </metadata>
 <defs>
  <style type="text/css">*{stroke-linejoin: round; stroke-linecap: butt}</style>
 </defs>
 <g id="figure_1">
  <g id="patch_1">
   <path d="M 0 149.0112 
L 462.384 149.0112 
L 462.384 0 
L 0 0 
z
" style="fill: #ffffff"/>
  </g>
  <g id="axes_1">
   <g id="patch_2">
    <path d="M 5.76 143.2512 
L 456.624 143.2512 
L 456.624 5.76 
L 5.76 5.76 
z
" clip-path="url(#p0a65ef4f05)" style="fill: #ffffff; stroke: #e5e7eb; stroke-linejoin: miter"/>
   </g>
   <g id="text_1">
    <!-- dx &gt; 0  → 마우스가 플레이어보다 오른쪽 -->
    <g style="fill: #111827" transform="translate(23.79456 30.400663) scale(0.11 -0.11)">
     <defs>
      <path id="NanumGothicCoding-64" d="M 2816 -192 
Q 2816 -275 2726 -275 
L 2477 -275 
Q 2387 -275 2387 -192 
L 2387 275 
Q 2125 -339 1491 -339 
Q 1197 -339 957 -198 
Q 717 -58 544 208 
Q 371 474 297 781 
Q 224 1088 224 1427 
Q 224 2029 557 2531 
Q 890 3034 1491 3034 
Q 1811 3034 2038 2874 
Q 2266 2714 2387 2464 
L 2387 4371 
Q 2387 4454 2477 4454 
L 2726 4454 
Q 2816 4454 2816 4371 
L 2816 -192 
z
M 678 1357 
Q 672 1158 717 924 
Q 762 691 867 483 
Q 973 275 1133 153 
Q 1293 32 1530 32 
Q 1766 32 1926 153 
Q 2086 275 2192 483 
Q 2298 691 2336 924 
Q 2374 1158 2374 1357 
Q 2374 1542 2336 1782 
Q 2298 2022 2192 2227 
Q 2086 2432 1926 2553 
Q 1766 2675 1530 2675 
Q 1293 2675 1133 2553 
Q 973 2432 864 2227 
Q 755 2022 713 1782 
Q 672 1542 678 1357 
z
" transform="scale(0.015625)"/>
      <path id="NanumGothicCoding-78" d="M 2950 -186 
Q 2970 -218 2954 -246 
Q 2938 -275 2899 -275 
L 2579 -275 
Q 2502 -275 2451 -186 
L 1600 1082 
L 749 -186 
Q 691 -275 621 -275 
L 301 -275 
Q 262 -275 246 -246 
Q 230 -218 250 -186 
L 1357 1434 
L 378 2842 
Q 358 2874 374 2902 
Q 390 2931 429 2931 
L 749 2931 
Q 826 2931 877 2842 
L 1600 1786 
L 2323 2842 
Q 2381 2931 2451 2931 
L 2771 2931 
Q 2810 2931 2826 2902 
Q 2842 2874 2822 2842 
L 1843 1434 
L 2950 -186 
z
" transform="scale(0.015625)"/>
      <path id="NanumGothicCoding-20" transform="scale(0.015625)"/>
      <path id="NanumGothicCoding-3e" d="M 250 -576 
Q 250 -518 250 -486 
Q 250 -454 259 -428 
Q 269 -403 291 -377 
Q 314 -352 352 -314 
Q 602 -64 874 211 
Q 1146 486 1421 764 
Q 1696 1043 1968 1318 
Q 2240 1594 2490 1843 
Q 2547 1907 2547 1929 
Q 2547 1952 2477 2022 
L 365 4160 
Q 320 4205 297 4230 
Q 275 4256 265 4281 
Q 256 4307 253 4345 
Q 250 4384 250 4448 
L 250 4698 
Q 250 4845 266 4851 
Q 282 4858 378 4755 
L 2842 2259 
Q 2880 2221 2902 2195 
Q 2925 2170 2934 2147 
Q 2944 2125 2947 2093 
Q 2950 2061 2950 2010 
L 2950 1843 
Q 2950 1792 2947 1760 
Q 2944 1728 2934 1705 
Q 2925 1683 2902 1657 
Q 2880 1632 2842 1594 
L 358 -902 
Q 275 -986 262 -979 
Q 250 -973 250 -851 
L 250 -576 
z
" transform="scale(0.015625)"/>
      <path id="NanumGothicCoding-30" d="M 1747 1242 
L 1453 1242 
Q 1376 1242 1376 1331 
L 1376 2355 
Q 1376 2445 1453 2445 
L 1747 2445 
Q 1824 2445 1824 2355 
L 1824 1331 
Q 1824 1242 1747 1242 
z
M 2470 1907 
Q 2483 3731 1600 3731 
Q 717 3731 730 1907 
Q 717 77 1600 77 
Q 2483 77 2470 1907 
z
M 2906 1907 
Q 2906 -326 1606 -326 
Q 294 -326 294 1907 
Q 294 2726 544 3354 
Q 909 4141 1606 4141 
Q 2285 4141 2662 3354 
Q 2790 3040 2848 2637 
Q 2906 2234 2906 1907 
z
" transform="scale(0.015625)"/>
      <path id="NanumGothicCoding-2192" d="M 6080 1920 
L 4922 877 
L 5389 1843 
L 320 1843 
L 320 1997 
L 5389 1997 
L 4922 2963 
L 6080 1920 
z
" transform="scale(0.015625)"/>
      <path id="NanumGothicCoding-b9c8" d="M 800 4070 
Q 800 4339 902 4432 
Q 1005 4525 1286 4525 
L 3168 4525 
Q 3322 4525 3414 4505 
Q 3507 4486 3561 4435 
Q 3616 4384 3635 4294 
Q 3654 4205 3654 4070 
L 3654 1235 
Q 3654 966 3552 873 
Q 3450 781 3168 781 
L 1286 781 
Q 1133 781 1040 800 
Q 947 819 892 873 
Q 838 928 819 1014 
Q 800 1101 800 1235 
L 800 4070 
z
M 1395 4141 
Q 1306 4141 1274 4105 
Q 1242 4070 1242 3974 
L 1242 1331 
Q 1242 1235 1274 1200 
Q 1306 1165 1395 1165 
L 3059 1165 
Q 3149 1165 3181 1200 
Q 3213 1235 3213 1331 
L 3213 3974 
Q 3213 4070 3181 4105 
Q 3149 4141 3059 4141 
L 1395 4141 
z
M 5120 -806 
Q 5120 -896 5030 -896 
L 4768 -896 
Q 4678 -896 4678 -806 
L 4678 4915 
Q 4678 5005 4768 5005 
L 5030 5005 
Q 5120 5005 5120 4915 
L 5120 2586 
L 6003 2586 
Q 6042 2586 6070 2563 
Q 6099 2541 6099 2502 
L 6099 2285 
Q 6099 2253 6070 2227 
Q 6042 2202 6003 2202 
L 5120 2202 
L 5120 -806 
z
" transform="scale(0.015625)"/>
      <path id="NanumGothicCoding-c6b0" d="M 3187 2387 
Q 2861 2387 2499 2457 
Q 2138 2528 1834 2678 
Q 1530 2829 1334 3072 
Q 1139 3315 1139 3661 
Q 1139 4006 1334 4249 
Q 1530 4493 1834 4643 
Q 2138 4794 2499 4861 
Q 2861 4928 3187 4928 
Q 3520 4928 3885 4861 
Q 4250 4794 4547 4643 
Q 4845 4493 5040 4249 
Q 5235 4006 5235 3661 
Q 5235 3315 5040 3072 
Q 4845 2829 4547 2678 
Q 4250 2528 3885 2457 
Q 3520 2387 3187 2387 
z
M 3187 4525 
Q 2963 4525 2691 4489 
Q 2419 4454 2179 4358 
Q 1939 4262 1776 4092 
Q 1613 3923 1613 3654 
Q 1613 3386 1776 3219 
Q 1939 3053 2179 2957 
Q 2419 2861 2691 2825 
Q 2963 2790 3187 2790 
Q 3405 2790 3677 2825 
Q 3949 2861 4189 2957 
Q 4429 3053 4595 3219 
Q 4762 3386 4762 3654 
Q 4762 3923 4595 4092 
Q 4429 4262 4189 4358 
Q 3949 4454 3677 4489 
Q 3405 4525 3187 4525 
z
M 3046 -858 
Q 3014 -858 2988 -829 
Q 2963 -800 2963 -762 
L 2963 1331 
L 480 1331 
Q 442 1331 413 1356 
Q 384 1382 384 1414 
L 384 1632 
Q 384 1670 413 1692 
Q 442 1715 480 1715 
L 5920 1715 
Q 5952 1715 5984 1692 
Q 6016 1670 6016 1632 
L 6016 1414 
Q 6016 1382 5984 1356 
Q 5952 1331 5920 1331 
L 3405 1331 
L 3405 -762 
Q 3405 -800 3382 -829 
Q 3360 -858 3322 -858 
L 3046 -858 
z
" transform="scale(0.015625)"/>
      <path id="NanumGothicCoding-c2a4" d="M 3424 4608 
Q 3405 4429 3360 4269 
Q 3373 4198 3392 4137 
Q 3411 4077 3437 4032 
Q 3597 3718 3824 3436 
Q 4051 3155 4320 2924 
Q 4589 2694 4893 2524 
Q 5197 2355 5517 2266 
Q 5555 2253 5568 2214 
Q 5581 2176 5568 2144 
L 5466 1933 
Q 5446 1901 5424 1881 
Q 5402 1862 5338 1888 
Q 4986 2010 4662 2195 
Q 4339 2381 4060 2614 
Q 3782 2848 3552 3126 
Q 3322 3405 3155 3706 
Q 3008 3398 2790 3110 
Q 2573 2822 2304 2576 
Q 2035 2330 1721 2131 
Q 1408 1933 1062 1805 
Q 960 1766 934 1830 
L 819 2054 
Q 806 2086 816 2121 
Q 826 2157 864 2176 
Q 1293 2336 1657 2595 
Q 2022 2854 2300 3177 
Q 2579 3501 2755 3878 
Q 2931 4256 2982 4653 
Q 2989 4730 3066 4730 
L 3354 4698 
Q 3430 4685 3424 4608 
z
M 5920 499 
Q 5952 499 5984 476 
Q 6016 454 6016 416 
L 6016 198 
Q 6016 166 5984 140 
Q 5952 115 5920 115 
L 480 115 
Q 442 115 413 140 
Q 384 166 384 198 
L 384 416 
Q 384 454 413 476 
Q 442 499 480 499 
L 5920 499 
z
" transform="scale(0.015625)"/>
      <path id="NanumGothicCoding-ac00" d="M 3437 4064 
Q 3405 3514 3219 2982 
Q 3034 2451 2704 1968 
Q 2374 1485 1910 1072 
Q 1446 659 858 346 
Q 774 301 736 365 
L 595 589 
Q 550 666 621 698 
Q 1165 979 1584 1340 
Q 2003 1702 2300 2124 
Q 2598 2547 2771 3014 
Q 2944 3482 2989 3974 
Q 3002 4070 2963 4105 
Q 2925 4141 2835 4141 
L 851 4141 
Q 774 4141 774 4224 
L 774 4448 
Q 774 4525 851 4525 
L 2957 4525 
Q 3258 4525 3354 4413 
Q 3450 4301 3437 4064 
z
M 5120 -806 
Q 5120 -896 5030 -896 
L 4768 -896 
Q 4678 -896 4678 -806 
L 4678 4915 
Q 4678 5005 4768 5005 
L 5030 5005 
Q 5120 5005 5120 4915 
L 5120 2650 
L 6003 2650 
Q 6042 2650 6070 2627 
Q 6099 2605 6099 2566 
L 6099 2349 
Q 6099 2317 6070 2291 
Q 6042 2266 6003 2266 
L 5120 2266 
L 5120 -806 
z
" transform="scale(0.015625)"/>
      <path id="NanumGothicCoding-d50c" d="M 5229 3072 
Q 5229 2989 5133 2989 
L 1190 2989 
Q 1158 2989 1129 3014 
Q 1101 3040 1101 3078 
L 1101 3277 
Q 1101 3315 1129 3340 
Q 1158 3366 1190 3366 
L 1978 3366 
L 1978 4614 
L 1318 4614 
Q 1286 4614 1257 4640 
Q 1229 4666 1229 4704 
L 1229 4902 
Q 1229 4941 1257 4966 
Q 1286 4992 1318 4992 
L 5005 4992 
Q 5101 4992 5101 4909 
L 5101 4698 
Q 5101 4614 5005 4614 
L 4378 4614 
L 4378 3366 
L 5133 3366 
Q 5229 3366 5229 3283 
L 5229 3072 
z
M 5248 -781 
Q 5248 -813 5219 -835 
Q 5190 -858 5165 -858 
L 1760 -858 
Q 1459 -858 1366 -746 
Q 1274 -634 1274 -365 
L 1274 70 
Q 1274 339 1386 432 
Q 1498 525 1786 525 
L 4538 525 
Q 4627 525 4652 550 
Q 4678 576 4678 672 
L 4678 1005 
Q 4678 1101 4656 1126 
Q 4634 1152 4544 1152 
L 1350 1152 
Q 1318 1152 1289 1171 
Q 1261 1190 1261 1222 
L 1261 1446 
Q 1261 1478 1289 1497 
Q 1318 1517 1350 1517 
L 4608 1517 
Q 4762 1517 4858 1494 
Q 4954 1472 5011 1421 
Q 5069 1370 5091 1277 
Q 5114 1184 5114 1050 
L 5114 614 
Q 5114 346 5002 253 
Q 4890 160 4602 160 
L 1843 160 
Q 1754 160 1731 134 
Q 1709 109 1709 13 
L 1709 -339 
Q 1709 -429 1734 -457 
Q 1760 -486 1850 -486 
L 5158 -486 
Q 5190 -486 5219 -505 
Q 5248 -525 5248 -557 
L 5248 -781 
z
M 5920 2419 
Q 5952 2419 5984 2396 
Q 6016 2374 6016 2336 
L 6016 2118 
Q 6016 2086 5984 2060 
Q 5952 2035 5920 2035 
L 480 2035 
Q 442 2035 413 2060 
Q 384 2086 384 2118 
L 384 2336 
Q 384 2374 413 2396 
Q 442 2419 480 2419 
L 5920 2419 
z
M 2413 3366 
L 3942 3366 
L 3942 4614 
L 2413 4614 
L 2413 3366 
z
" transform="scale(0.015625)"/>
      <path id="NanumGothicCoding-b808" d="M 1165 608 
Q 877 621 777 726 
Q 678 832 678 1101 
L 678 2323 
Q 678 2592 790 2685 
Q 902 2778 1190 2778 
L 2253 2778 
Q 2342 2778 2368 2803 
Q 2394 2829 2394 2925 
L 2394 3949 
Q 2394 4045 2371 4070 
Q 2349 4096 2259 4096 
L 794 4096 
Q 762 4096 733 4115 
Q 704 4134 704 4166 
L 704 4410 
Q 704 4442 733 4461 
Q 762 4480 794 4480 
L 2330 4480 
Q 2483 4480 2579 4457 
Q 2675 4435 2732 4384 
Q 2790 4333 2812 4240 
Q 2835 4147 2835 4013 
L 2835 2848 
Q 2835 2579 2723 2486 
Q 2611 2394 2323 2394 
L 1254 2394 
Q 1165 2394 1142 2368 
Q 1120 2342 1120 2246 
L 1120 1133 
Q 1120 986 1261 986 
Q 1779 986 2291 1050 
Q 2803 1114 3283 1222 
Q 3373 1242 3392 1158 
L 3430 941 
Q 3443 858 3347 832 
Q 2803 704 2252 646 
Q 1702 589 1165 608 
z
M 4000 2739 
L 4000 4806 
Q 4000 4896 4090 4896 
L 4333 4896 
Q 4422 4896 4422 4806 
L 4422 -563 
Q 4422 -653 4333 -653 
L 4090 -653 
Q 4000 -653 4000 -563 
L 4000 2355 
L 3168 2355 
Q 3085 2355 3085 2432 
L 3085 2662 
Q 3085 2739 3168 2739 
L 4000 2739 
z
M 5555 -806 
Q 5555 -896 5466 -896 
L 5222 -896 
Q 5133 -896 5133 -806 
L 5133 4915 
Q 5133 5005 5222 5005 
L 5466 5005 
Q 5555 5005 5555 4915 
L 5555 -806 
z
" transform="scale(0.015625)"/>
      <path id="NanumGothicCoding-c774" d="M 3846 2566 
Q 3846 2208 3760 1843 
Q 3674 1478 3488 1184 
Q 3302 890 3011 701 
Q 2720 512 2310 512 
Q 1888 512 1597 697 
Q 1306 883 1130 1180 
Q 954 1478 877 1843 
Q 800 2208 800 2566 
Q 800 2944 877 3312 
Q 954 3680 1130 3974 
Q 1306 4269 1597 4448 
Q 1888 4627 2310 4627 
Q 2720 4627 3011 4448 
Q 3302 4269 3488 3977 
Q 3674 3686 3760 3318 
Q 3846 2950 3846 2566 
z
M 3392 2573 
Q 3392 2867 3331 3168 
Q 3270 3469 3142 3709 
Q 3014 3949 2809 4099 
Q 2605 4250 2310 4250 
Q 2003 4250 1801 4099 
Q 1600 3949 1478 3709 
Q 1357 3469 1305 3168 
Q 1254 2867 1254 2573 
Q 1254 2291 1302 1993 
Q 1350 1696 1472 1449 
Q 1594 1203 1798 1046 
Q 2003 890 2310 890 
Q 2605 890 2809 1046 
Q 3014 1203 3142 1449 
Q 3270 1696 3331 1993 
Q 3392 2291 3392 2573 
z
M 5344 -806 
Q 5344 -896 5254 -896 
L 4992 -896 
Q 4902 -896 4902 -806 
L 4902 4915 
Q 4902 5005 4992 5005 
L 5254 5005 
Q 5344 5005 5344 4915 
L 5344 -806 
z
" transform="scale(0.015625)"/>
      <path id="NanumGothicCoding-c5b4" d="M 5344 -806 
Q 5344 -896 5254 -896 
L 4992 -896 
Q 4902 -896 4902 -806 
L 4902 2381 
L 3757 2381 
Q 3738 2042 3638 1709 
Q 3539 1376 3353 1110 
Q 3168 845 2889 678 
Q 2611 512 2227 512 
Q 1805 512 1513 697 
Q 1222 883 1046 1180 
Q 870 1478 793 1843 
Q 717 2208 717 2566 
Q 717 2944 793 3312 
Q 870 3680 1046 3974 
Q 1222 4269 1513 4448 
Q 1805 4627 2227 4627 
Q 2611 4627 2889 4470 
Q 3168 4314 3353 4051 
Q 3539 3789 3638 3453 
Q 3738 3117 3757 2765 
L 4902 2765 
L 4902 4915 
Q 4902 5005 4992 5005 
L 5254 5005 
Q 5344 5005 5344 4915 
L 5344 -806 
z
M 3309 2573 
Q 3309 2861 3248 3155 
Q 3187 3450 3059 3686 
Q 2931 3923 2726 4070 
Q 2522 4218 2227 4218 
Q 1920 4218 1718 4070 
Q 1517 3923 1395 3686 
Q 1274 3450 1222 3155 
Q 1171 2861 1171 2573 
Q 1171 2298 1219 2003 
Q 1267 1709 1388 1469 
Q 1510 1229 1715 1075 
Q 1920 922 2227 922 
Q 2522 922 2726 1075 
Q 2931 1229 3059 1469 
Q 3187 1709 3248 2003 
Q 3309 2298 3309 2573 
z
" transform="scale(0.015625)"/>
      <path id="NanumGothicCoding-bcf4" d="M 3405 1818 
L 3405 499 
L 5920 499 
Q 5952 499 5984 476 
Q 6016 454 6016 416 
L 6016 198 
Q 6016 166 5984 140 
Q 5952 115 5920 115 
L 480 115 
Q 442 115 413 140 
Q 384 166 384 198 
L 384 416 
Q 384 454 413 476 
Q 442 499 480 499 
L 2963 499 
L 2963 1818 
L 1690 1818 
Q 1536 1818 1443 1837 
Q 1350 1856 1299 1910 
Q 1248 1965 1229 2051 
Q 1210 2138 1210 2272 
L 1210 4672 
Q 1210 4704 1235 4726 
Q 1261 4749 1293 4749 
L 1568 4749 
Q 1600 4749 1622 4723 
Q 1645 4698 1645 4672 
L 1645 3654 
L 4723 3654 
L 4723 4666 
Q 4723 4698 4745 4723 
Q 4768 4749 4800 4749 
L 5075 4749 
Q 5107 4749 5132 4726 
Q 5158 4704 5158 4672 
L 5158 2227 
Q 5158 1984 5056 1901 
Q 4954 1818 4672 1818 
L 3405 1818 
z
M 1645 3277 
L 1645 2349 
Q 1645 2253 1677 2224 
Q 1709 2195 1798 2195 
L 4570 2195 
Q 4659 2195 4691 2224 
Q 4723 2253 4723 2349 
L 4723 3277 
L 1645 3277 
z
" transform="scale(0.015625)"/>
      <path id="NanumGothicCoding-b2e4" d="M 4211 1171 
Q 4224 1082 4128 1062 
Q 3891 1005 3529 953 
Q 3168 902 2768 864 
Q 2368 826 1977 806 
Q 1587 787 1299 794 
Q 1011 800 905 928 
Q 800 1056 800 1325 
L 800 4077 
Q 800 4346 902 4435 
Q 1005 4525 1286 4525 
L 3488 4525 
Q 3571 4525 3571 4448 
L 3571 4218 
Q 3571 4141 3488 4141 
L 1370 4141 
Q 1280 4141 1261 4118 
Q 1242 4096 1242 4000 
L 1242 1357 
Q 1242 1261 1274 1229 
Q 1306 1197 1395 1190 
Q 1702 1178 2044 1194 
Q 2387 1210 2736 1245 
Q 3085 1280 3421 1328 
Q 3757 1376 4058 1434 
Q 4160 1453 4179 1363 
L 4211 1171 
z
M 5120 -806 
Q 5120 -896 5030 -896 
L 4768 -896 
Q 4678 -896 4678 -806 
L 4678 4915 
Q 4678 5005 4768 5005 
L 5030 5005 
Q 5120 5005 5120 4915 
L 5120 2586 
L 6003 2586 
Q 6042 2586 6070 2563 
Q 6099 2541 6099 2502 
L 6099 2285 
Q 6099 2253 6070 2227 
Q 6042 2202 6003 2202 
L 5120 2202 
L 5120 -806 
z
" transform="scale(0.015625)"/>
      <path id="NanumGothicCoding-c624" d="M 5920 499 
Q 5952 499 5984 476 
Q 6016 454 6016 416 
L 6016 198 
Q 6016 166 5984 140 
Q 5952 115 5920 115 
L 480 115 
Q 442 115 413 140 
Q 384 166 384 198 
L 384 416 
Q 384 454 413 476 
Q 442 499 480 499 
L 2963 499 
L 2963 1830 
Q 2650 1856 2326 1945 
Q 2003 2035 1737 2208 
Q 1472 2381 1305 2637 
Q 1139 2893 1139 3251 
Q 1139 3642 1334 3914 
Q 1530 4186 1834 4352 
Q 2138 4518 2499 4595 
Q 2861 4672 3187 4672 
Q 3520 4672 3885 4595 
Q 4250 4518 4547 4352 
Q 4845 4186 5040 3914 
Q 5235 3642 5235 3251 
Q 5235 2893 5068 2633 
Q 4902 2374 4640 2204 
Q 4378 2035 4051 1942 
Q 3725 1850 3405 1830 
L 3405 499 
L 5920 499 
z
M 3187 4269 
Q 2963 4269 2691 4224 
Q 2419 4179 2179 4064 
Q 1939 3949 1776 3750 
Q 1613 3552 1613 3245 
Q 1613 2938 1776 2739 
Q 1939 2541 2179 2429 
Q 2419 2317 2691 2272 
Q 2963 2227 3187 2227 
Q 3405 2227 3677 2272 
Q 3949 2317 4189 2429 
Q 4429 2541 4595 2739 
Q 4762 2938 4762 3245 
Q 4762 3552 4595 3750 
Q 4429 3949 4189 4064 
Q 3949 4179 3677 4224 
Q 3405 4269 3187 4269 
z
" transform="scale(0.015625)"/>
      <path id="NanumGothicCoding-b978" d="M 5920 1734 
Q 5952 1734 5984 1712 
Q 6016 1690 6016 1651 
L 6016 1434 
Q 6016 1402 5984 1376 
Q 5952 1350 5920 1350 
L 480 1350 
Q 442 1350 413 1376 
Q 384 1402 384 1434 
L 384 1651 
Q 384 1690 413 1712 
Q 442 1734 480 1734 
L 5920 1734 
z
M 5274 -704 
Q 5274 -742 5242 -761 
Q 5210 -781 5178 -781 
L 1754 -781 
Q 1453 -781 1360 -656 
Q 1267 -531 1267 -269 
L 1267 749 
Q 1267 838 1357 838 
L 1619 838 
Q 1709 838 1709 749 
L 1709 -262 
Q 1709 -352 1737 -374 
Q 1766 -397 1856 -397 
L 5178 -397 
Q 5210 -397 5242 -419 
Q 5274 -442 5274 -474 
L 5274 -704 
z
M 5235 2406 
Q 5235 2374 5206 2352 
Q 5178 2330 5152 2330 
L 1779 2330 
Q 1478 2330 1385 2442 
Q 1293 2554 1293 2822 
L 1293 3328 
Q 1293 3603 1405 3692 
Q 1517 3782 1805 3782 
L 4525 3782 
Q 4614 3782 4636 3808 
Q 4659 3834 4659 3930 
L 4659 4352 
Q 4659 4448 4636 4473 
Q 4614 4499 4525 4499 
L 1382 4499 
Q 1350 4499 1321 4518 
Q 1293 4538 1293 4570 
L 1293 4800 
Q 1293 4832 1321 4851 
Q 1350 4870 1382 4870 
L 4595 4870 
Q 4749 4870 4845 4848 
Q 4941 4826 4998 4774 
Q 5056 4723 5078 4630 
Q 5101 4538 5101 4403 
L 5101 3878 
Q 5101 3603 4989 3513 
Q 4877 3424 4589 3424 
L 1862 3424 
Q 1773 3424 1750 3398 
Q 1728 3373 1728 3277 
L 1728 2842 
Q 1728 2752 1753 2723 
Q 1779 2694 1869 2694 
L 5146 2694 
Q 5178 2694 5206 2675 
Q 5235 2656 5235 2624 
L 5235 2406 
z
" transform="scale(0.015625)"/>
      <path id="NanumGothicCoding-cabd" d="M 2867 4243 
Q 2810 4166 2749 4089 
Q 2688 4013 2618 3942 
Q 2797 3763 3014 3622 
Q 3232 3482 3456 3373 
Q 3814 3590 4051 3820 
Q 4288 4051 4461 4339 
Q 4493 4390 4480 4432 
Q 4467 4474 4397 4474 
L 3296 4474 
Q 3219 4474 3219 4563 
L 3219 4768 
Q 3219 4845 3309 4845 
L 4557 4845 
Q 4915 4845 4995 4704 
Q 5075 4563 4934 4320 
Q 4851 4179 4764 4051 
Q 4678 3923 4576 3808 
Q 4685 3725 4829 3645 
Q 4973 3565 5117 3491 
Q 5261 3418 5398 3363 
Q 5536 3309 5638 3277 
Q 5683 3264 5692 3225 
Q 5702 3187 5677 3142 
L 5568 2957 
Q 5530 2886 5421 2938 
Q 5306 2982 5162 3049 
Q 5018 3117 4870 3200 
Q 4723 3283 4579 3369 
Q 4435 3456 4320 3546 
Q 4096 3341 3805 3158 
Q 3514 2976 3110 2778 
Q 3027 2733 2970 2810 
L 2867 2950 
Q 2835 2989 2851 3027 
Q 2867 3066 2906 3085 
Q 2950 3104 2988 3123 
Q 3027 3142 3066 3162 
Q 2880 3270 2694 3411 
Q 2509 3552 2355 3699 
Q 1773 3219 941 2906 
Q 890 2886 861 2883 
Q 832 2880 806 2925 
L 710 3110 
Q 685 3155 701 3184 
Q 717 3213 749 3226 
Q 998 3309 1251 3440 
Q 1504 3571 1728 3721 
Q 1952 3872 2131 4032 
Q 2310 4192 2406 4346 
Q 2438 4390 2428 4432 
Q 2419 4474 2349 4474 
L 1197 4474 
Q 1114 4474 1114 4563 
L 1114 4768 
Q 1114 4806 1142 4825 
Q 1171 4845 1210 4845 
L 2522 4845 
Q 3296 4845 2867 4243 
z
M 6016 1728 
Q 6016 1696 5984 1670 
Q 5952 1645 5920 1645 
L 480 1645 
Q 442 1645 413 1670 
Q 384 1696 384 1728 
L 384 1952 
Q 384 1990 413 2009 
Q 442 2029 480 2029 
L 3034 2029 
L 3034 2566 
Q 3034 2656 3123 2656 
L 3386 2656 
Q 3475 2656 3475 2566 
L 3475 2029 
L 5920 2029 
Q 5952 2029 5984 2006 
Q 6016 1984 6016 1946 
L 6016 1728 
z
M 5120 -870 
Q 5120 -960 5030 -960 
L 4768 -960 
Q 4678 -960 4678 -870 
L 4678 467 
Q 4678 557 4649 579 
Q 4621 602 4531 602 
L 1235 602 
Q 1203 602 1171 624 
Q 1139 646 1139 678 
L 1139 909 
Q 1139 947 1171 966 
Q 1203 986 1235 986 
L 4634 986 
Q 4934 986 5027 874 
Q 5120 762 5120 499 
L 5120 -870 
z
" transform="scale(0.015625)"/>
     </defs>
     <use xlink:href="#NanumGothicCoding-64"/>
     <use xlink:href="#NanumGothicCoding-78" transform="translate(49.999985 0)"/>
     <use xlink:href="#NanumGothicCoding-20" transform="translate(99.999969 0)"/>
     <use xlink:href="#NanumGothicCoding-3e" transform="translate(149.999954 0)"/>
     <use xlink:href="#NanumGothicCoding-20" transform="translate(199.999939 0)"/>
     <use xlink:href="#NanumGothicCoding-30" transform="translate(249.999924 0)"/>
     <use xlink:href="#NanumGothicCoding-20" transform="translate(299.999908 0)"/>
     <use xlink:href="#NanumGothicCoding-20" transform="translate(349.999893 0)"/>
     <use xlink:href="#NanumGothicCoding-2192" transform="translate(399.999878 0)"/>
     <use xlink:href="#NanumGothicCoding-20" transform="translate(499.999863 0)"/>
     <use xlink:href="#NanumGothicCoding-b9c8" transform="translate(549.999847 0)"/>
     <use xlink:href="#NanumGothicCoding-c6b0" transform="translate(649.999832 0)"/>
     <use xlink:href="#NanumGothicCoding-c2a4" transform="translate(749.999817 0)"/>
     <use xlink:href="#NanumGothicCoding-ac00" transform="translate(849.999802 0)"/>
     <use xlink:href="#NanumGothicCoding-20" transform="translate(949.999786 0)"/>
     <use xlink:href="#NanumGothicCoding-d50c" transform="translate(999.999771 0)"/>
     <use xlink:href="#NanumGothicCoding-b808" transform="translate(1099.999756 0)"/>
     <use xlink:href="#NanumGothicCoding-c774" transform="translate(1199.999741 0)"/>
     <use xlink:href="#NanumGothicCoding-c5b4" transform="translate(1299.999725 0)"/>
     <use xlink:href="#NanumGothicCoding-bcf4" transform="translate(1399.99971 0)"/>
     <use xlink:href="#NanumGothicCoding-b2e4" transform="translate(1499.999695 0)"/>
     <use xlink:href="#NanumGothicCoding-20" transform="translate(1599.99968 0)"/>
     <use xlink:href="#NanumGothicCoding-c624" transform="translate(1649.999664 0)"/>
     <use xlink:href="#NanumGothicCoding-b978" transform="translate(1749.999649 0)"/>
     <use xlink:href="#NanumGothicCoding-cabd" transform="translate(1849.999634 0)"/>
    </g>
   </g>
   <g id="text_2">
    <!-- dx &lt; 0  → 마우스가 플레이어보다 왼쪽 -->
    <g style="fill: #111827" transform="translate(23.79456 45.502351) scale(0.11 -0.11)">
     <defs>
      <path id="NanumGothicCoding-3c" d="M 2944 -838 
Q 2944 -960 2931 -966 
Q 2918 -973 2835 -890 
L 365 1594 
Q 326 1632 304 1657 
Q 282 1683 272 1705 
Q 262 1728 259 1760 
Q 256 1792 256 1843 
L 256 2010 
Q 256 2061 259 2093 
Q 262 2125 272 2147 
Q 282 2170 304 2195 
Q 326 2221 365 2259 
L 2810 4742 
Q 2912 4845 2928 4838 
Q 2944 4832 2944 4685 
L 2944 4442 
Q 2944 4378 2941 4339 
Q 2938 4301 2928 4275 
Q 2918 4250 2896 4224 
Q 2874 4198 2829 4154 
L 730 2022 
Q 659 1952 656 1929 
Q 653 1907 717 1843 
Q 966 1594 1235 1322 
Q 1504 1050 1779 771 
Q 2054 493 2326 217 
Q 2598 -58 2848 -307 
Q 2918 -384 2931 -416 
Q 2944 -448 2944 -563 
L 2944 -838 
z
" transform="scale(0.015625)"/>
      <path id="NanumGothicCoding-c67c" d="M 3917 3578 
Q 3917 3360 3833 3168 
Q 3750 2976 3590 2822 
Q 3430 2669 3200 2566 
Q 2970 2464 2682 2438 
L 2682 1741 
Q 3174 1754 3628 1782 
Q 4083 1811 4448 1856 
Q 4506 1862 4522 1846 
Q 4538 1830 4544 1798 
L 4570 1581 
Q 4576 1542 4560 1520 
Q 4544 1498 4486 1491 
Q 3923 1427 3251 1385 
Q 2579 1344 1920 1344 
L 589 1344 
Q 550 1344 521 1369 
Q 493 1395 493 1427 
L 493 1651 
Q 493 1690 521 1709 
Q 550 1728 589 1728 
L 1696 1728 
L 2240 1728 
L 2240 2438 
Q 1958 2464 1734 2566 
Q 1510 2669 1350 2819 
Q 1190 2970 1107 3165 
Q 1024 3360 1024 3578 
Q 1024 3840 1123 4054 
Q 1222 4269 1411 4419 
Q 1600 4570 1865 4653 
Q 2131 4736 2458 4736 
Q 2771 4736 3036 4653 
Q 3302 4570 3497 4419 
Q 3693 4269 3805 4054 
Q 3917 3840 3917 3578 
z
M 3482 3584 
Q 3482 3770 3398 3907 
Q 3315 4045 3174 4137 
Q 3034 4230 2848 4275 
Q 2662 4320 2458 4320 
Q 2246 4320 2064 4275 
Q 1882 4230 1747 4137 
Q 1613 4045 1536 3907 
Q 1459 3770 1459 3584 
Q 1459 3411 1532 3270 
Q 1606 3130 1740 3034 
Q 1875 2938 2057 2886 
Q 2240 2835 2458 2835 
Q 2662 2835 2848 2889 
Q 3034 2944 3174 3043 
Q 3315 3142 3398 3280 
Q 3482 3418 3482 3584 
z
M 5542 -704 
Q 5542 -742 5510 -761 
Q 5478 -781 5446 -781 
L 2086 -781 
Q 1786 -781 1693 -665 
Q 1600 -550 1600 -288 
L 1600 762 
Q 1600 851 1690 851 
L 1952 851 
Q 2042 851 2042 762 
L 2042 -262 
Q 2042 -352 2070 -374 
Q 2099 -397 2189 -397 
L 5446 -397 
Q 5478 -397 5510 -419 
Q 5542 -442 5542 -474 
L 5542 -704 
z
M 5344 627 
Q 5344 538 5254 538 
L 4992 538 
Q 4902 538 4902 627 
L 4902 4915 
Q 4902 5005 4992 5005 
L 5254 5005 
Q 5344 5005 5344 4915 
L 5344 627 
z
" transform="scale(0.015625)"/>
     </defs>
     <use xlink:href="#NanumGothicCoding-64"/>
     <use xlink:href="#NanumGothicCoding-78" transform="translate(49.999985 0)"/>
     <use xlink:href="#NanumGothicCoding-20" transform="translate(99.999969 0)"/>
     <use xlink:href="#NanumGothicCoding-3c" transform="translate(149.999954 0)"/>
     <use xlink:href="#NanumGothicCoding-20" transform="translate(199.999939 0)"/>
     <use xlink:href="#NanumGothicCoding-30" transform="translate(249.999924 0)"/>
     <use xlink:href="#NanumGothicCoding-20" transform="translate(299.999908 0)"/>
     <use xlink:href="#NanumGothicCoding-20" transform="translate(349.999893 0)"/>
     <use xlink:href="#NanumGothicCoding-2192" transform="translate(399.999878 0)"/>
     <use xlink:href="#NanumGothicCoding-20" transform="translate(499.999863 0)"/>
     <use xlink:href="#NanumGothicCoding-b9c8" transform="translate(549.999847 0)"/>
     <use xlink:href="#NanumGothicCoding-c6b0" transform="translate(649.999832 0)"/>
     <use xlink:href="#NanumGothicCoding-c2a4" transform="translate(749.999817 0)"/>
     <use xlink:href="#NanumGothicCoding-ac00" transform="translate(849.999802 0)"/>
     <use xlink:href="#NanumGothicCoding-20" transform="translate(949.999786 0)"/>
     <use xlink:href="#NanumGothicCoding-d50c" transform="translate(999.999771 0)"/>
     <use xlink:href="#NanumGothicCoding-b808" transform="translate(1099.999756 0)"/>
     <use xlink:href="#NanumGothicCoding-c774" transform="translate(1199.999741 0)"/>
     <use xlink:href="#NanumGothicCoding-c5b4" transform="translate(1299.999725 0)"/>
     <use xlink:href="#NanumGothicCoding-bcf4" transform="translate(1399.99971 0)"/>
     <use xlink:href="#NanumGothicCoding-b2e4" transform="translate(1499.999695 0)"/>
     <use xlink:href="#NanumGothicCoding-20" transform="translate(1599.99968 0)"/>
     <use xlink:href="#NanumGothicCoding-c67c" transform="translate(1649.999664 0)"/>
     <use xlink:href="#NanumGothicCoding-cabd" transform="translate(1749.999649 0)"/>
    </g>
   </g>
   <g id="text_3">
    <!-- dy &gt; 0  → 마우스가 플레이어보다 아래쪽, 화면 좌표계 기준 -->
    <g style="fill: #111827" transform="translate(23.79456 61.109352) scale(0.11 -0.11)">
     <defs>
      <path id="NanumGothicCoding-79" d="M 365 -1222 
Q 288 -1203 301 -1126 
L 320 -890 
Q 320 -813 397 -845 
Q 506 -883 634 -883 
Q 768 -883 880 -851 
Q 992 -819 1050 -749 
Q 1120 -659 1206 -454 
Q 1293 -250 1376 13 
Q 1088 794 326 2842 
Q 314 2874 326 2902 
Q 339 2931 378 2931 
L 653 2931 
Q 742 2931 781 2842 
L 1587 589 
L 2419 2842 
Q 2451 2931 2547 2931 
L 2822 2931 
Q 2861 2931 2873 2902 
Q 2886 2874 2874 2842 
L 1606 -474 
Q 1536 -659 1449 -806 
Q 1363 -954 1274 -1043 
Q 1158 -1152 1017 -1206 
Q 877 -1261 723 -1261 
Q 627 -1261 547 -1254 
Q 467 -1248 365 -1222 
z
" transform="scale(0.015625)"/>
      <path id="NanumGothicCoding-c544" d="M 3725 2566 
Q 3725 2208 3638 1843 
Q 3552 1478 3366 1184 
Q 3181 890 2889 701 
Q 2598 512 2189 512 
Q 1766 512 1475 697 
Q 1184 883 1008 1180 
Q 832 1478 755 1843 
Q 678 2208 678 2566 
Q 678 2944 755 3312 
Q 832 3680 1008 3974 
Q 1184 4269 1475 4448 
Q 1766 4627 2189 4627 
Q 2598 4627 2889 4448 
Q 3181 4269 3366 3977 
Q 3552 3686 3638 3318 
Q 3725 2950 3725 2566 
z
M 3270 2573 
Q 3270 2861 3209 3155 
Q 3149 3450 3021 3686 
Q 2893 3923 2688 4070 
Q 2483 4218 2189 4218 
Q 1882 4218 1680 4070 
Q 1478 3923 1356 3686 
Q 1235 3450 1184 3155 
Q 1133 2861 1133 2573 
Q 1133 2298 1181 2003 
Q 1229 1709 1350 1469 
Q 1472 1229 1677 1075 
Q 1882 922 2189 922 
Q 2483 922 2688 1075 
Q 2893 1229 3021 1469 
Q 3149 1709 3209 2003 
Q 3270 2298 3270 2573 
z
M 5120 -806 
Q 5120 -896 5030 -896 
L 4768 -896 
Q 4678 -896 4678 -806 
L 4678 4915 
Q 4678 5005 4768 5005 
L 5030 5005 
Q 5120 5005 5120 4915 
L 5120 2586 
L 6003 2586 
Q 6042 2586 6070 2563 
Q 6099 2541 6099 2502 
L 6099 2285 
Q 6099 2253 6070 2227 
Q 6042 2202 6003 2202 
L 5120 2202 
L 5120 -806 
z
" transform="scale(0.015625)"/>
      <path id="NanumGothicCoding-b798" d="M 4320 2586 
L 5133 2586 
L 5133 4915 
Q 5133 5005 5222 5005 
L 5466 5005 
Q 5555 5005 5555 4915 
L 5555 -806 
Q 5555 -896 5466 -896 
L 5222 -896 
Q 5133 -896 5133 -806 
L 5133 2202 
L 4320 2202 
L 4320 -563 
Q 4320 -653 4230 -653 
L 3987 -653 
Q 3898 -653 3898 -563 
L 3898 4806 
Q 3898 4896 3987 4896 
L 4230 4896 
Q 4320 4896 4320 4806 
L 4320 2586 
z
M 1165 608 
Q 877 621 777 726 
Q 678 832 678 1101 
L 678 2323 
Q 678 2592 790 2685 
Q 902 2778 1190 2778 
L 2419 2778 
Q 2509 2778 2534 2803 
Q 2560 2829 2560 2925 
L 2560 3949 
Q 2560 4045 2537 4070 
Q 2515 4096 2426 4096 
L 794 4096 
Q 762 4096 733 4115 
Q 704 4134 704 4166 
L 704 4410 
Q 704 4442 733 4461 
Q 762 4480 794 4480 
L 2496 4480 
Q 2650 4480 2746 4457 
Q 2842 4435 2899 4384 
Q 2957 4333 2979 4240 
Q 3002 4147 3002 4013 
L 3002 2848 
Q 3002 2579 2890 2486 
Q 2778 2394 2490 2394 
L 1254 2394 
Q 1165 2394 1142 2368 
Q 1120 2342 1120 2246 
L 1120 1133 
Q 1120 986 1261 986 
Q 1766 973 2316 1033 
Q 2867 1094 3424 1222 
Q 3514 1242 3533 1158 
L 3571 947 
Q 3584 864 3488 838 
Q 2938 710 2352 649 
Q 1766 589 1165 608 
z
" transform="scale(0.015625)"/>
      <path id="NanumGothicCoding-2c" d="M 2157 179 
Q 2227 179 2240 147 
Q 2253 115 2221 77 
L 1318 -1184 
Q 1280 -1242 1254 -1258 
Q 1229 -1274 1178 -1274 
L 864 -1274 
Q 774 -1274 826 -1178 
L 1536 64 
Q 1562 102 1590 140 
Q 1619 179 1696 179 
L 2157 179 
z
" transform="scale(0.015625)"/>
      <path id="NanumGothicCoding-d654" d="M 3706 2310 
Q 3706 2093 3619 1913 
Q 3533 1734 3379 1600 
Q 3226 1466 3011 1379 
Q 2797 1293 2541 1267 
L 2541 602 
Q 2758 614 2995 636 
Q 3232 659 3459 688 
Q 3686 717 3897 749 
Q 4109 781 4282 813 
Q 4384 832 4390 768 
L 4429 525 
Q 4442 448 4346 435 
Q 3917 365 3405 307 
Q 2893 250 2374 218 
Q 2189 205 1939 198 
Q 1690 192 1430 189 
Q 1171 186 924 186 
Q 678 186 499 192 
Q 461 192 432 217 
Q 403 243 403 275 
L 403 493 
Q 403 531 432 553 
Q 461 576 499 576 
Q 640 570 835 566 
Q 1030 563 1244 566 
Q 1459 570 1680 573 
Q 1901 576 2099 582 
L 2099 1261 
Q 1837 1286 1622 1372 
Q 1408 1459 1254 1596 
Q 1101 1734 1014 1916 
Q 928 2099 928 2310 
Q 928 2547 1033 2742 
Q 1139 2938 1324 3075 
Q 1510 3213 1763 3286 
Q 2016 3360 2317 3360 
Q 2611 3360 2867 3283 
Q 3123 3206 3308 3068 
Q 3494 2931 3600 2739 
Q 3706 2547 3706 2310 
z
M 5120 -806 
Q 5120 -896 5030 -896 
L 4768 -896 
Q 4678 -896 4678 -806 
L 4678 4915 
Q 4678 5005 4768 5005 
L 5030 5005 
Q 5120 5005 5120 4915 
L 5120 2413 
L 6003 2413 
Q 6042 2413 6070 2390 
Q 6099 2368 6099 2330 
L 6099 2112 
Q 6099 2080 6070 2054 
Q 6042 2029 6003 2029 
L 5120 2029 
L 5120 -806 
z
M 3270 2310 
Q 3270 2637 3001 2809 
Q 2733 2982 2317 2982 
Q 2112 2982 1936 2937 
Q 1760 2893 1632 2809 
Q 1504 2726 1430 2598 
Q 1357 2470 1357 2310 
Q 1357 2150 1430 2025 
Q 1504 1901 1632 1814 
Q 1760 1728 1936 1680 
Q 2112 1632 2317 1632 
Q 2733 1632 3001 1811 
Q 3270 1990 3270 2310 
z
M 4115 3776 
Q 4115 3693 4019 3693 
L 614 3693 
Q 582 3693 553 3718 
Q 525 3744 525 3782 
L 525 3994 
Q 525 4032 553 4057 
Q 582 4083 614 4083 
L 4019 4083 
Q 4115 4083 4115 4000 
L 4115 3776 
z
M 3213 4582 
Q 3213 4493 3117 4493 
L 1427 4493 
Q 1395 4493 1366 4515 
Q 1338 4538 1338 4576 
L 1338 4794 
Q 1338 4832 1363 4857 
Q 1389 4883 1421 4883 
L 3117 4883 
Q 3213 4883 3213 4794 
L 3213 4582 
z
" transform="scale(0.015625)"/>
      <path id="NanumGothicCoding-ba74" d="M 5344 877 
Q 5344 787 5254 787 
L 4992 787 
Q 4902 787 4902 877 
L 4902 2381 
L 3635 2381 
L 3635 2227 
Q 3635 1958 3532 1865 
Q 3430 1773 3149 1773 
L 1389 1773 
Q 1235 1773 1142 1792 
Q 1050 1811 995 1865 
Q 941 1920 921 2006 
Q 902 2093 902 2227 
L 902 4205 
Q 902 4474 1004 4566 
Q 1107 4659 1389 4659 
L 3149 4659 
Q 3302 4659 3395 4640 
Q 3488 4621 3542 4569 
Q 3597 4518 3616 4428 
Q 3635 4339 3635 4205 
L 3635 3974 
L 4902 3974 
L 4902 4915 
Q 4902 5005 4992 5005 
L 5254 5005 
Q 5344 5005 5344 4915 
L 5344 877 
z
M 1498 4275 
Q 1408 4275 1376 4240 
Q 1344 4205 1344 4109 
L 1344 2323 
Q 1344 2227 1376 2192 
Q 1408 2157 1498 2157 
L 3040 2157 
Q 3130 2157 3162 2192 
Q 3194 2227 3194 2323 
L 3194 4109 
Q 3194 4205 3162 4240 
Q 3130 4275 3040 4275 
L 1498 4275 
z
M 5542 -704 
Q 5542 -742 5510 -761 
Q 5478 -781 5446 -781 
L 2240 -781 
Q 1939 -781 1846 -669 
Q 1754 -557 1754 -294 
L 1754 1005 
Q 1754 1094 1843 1094 
L 2106 1094 
Q 2195 1094 2195 1005 
L 2195 -262 
Q 2195 -352 2224 -374 
Q 2253 -397 2342 -397 
L 5446 -397 
Q 5478 -397 5510 -419 
Q 5542 -442 5542 -474 
L 5542 -704 
z
M 3635 2758 
L 4902 2758 
L 4902 3597 
L 3635 3597 
L 3635 2758 
z
" transform="scale(0.015625)"/>
      <path id="NanumGothicCoding-c88c" d="M 3546 3808 
Q 3366 3610 3155 3421 
Q 2944 3232 2707 3053 
Q 3014 2886 3382 2726 
Q 3750 2566 4096 2458 
Q 4179 2432 4141 2349 
L 4045 2144 
Q 4013 2080 3930 2106 
Q 3565 2214 3158 2400 
Q 2752 2586 2362 2803 
Q 1978 2534 1568 2313 
Q 1158 2093 755 1939 
Q 672 1907 640 1971 
L 544 2176 
Q 525 2214 541 2243 
Q 557 2272 582 2285 
Q 1370 2618 2019 3040 
Q 2669 3462 3085 3904 
Q 3117 3936 3110 3987 
Q 3104 4038 3027 4038 
L 954 4038 
Q 870 4038 870 4122 
L 870 4346 
Q 870 4422 954 4422 
L 3219 4422 
Q 3392 4422 3504 4371 
Q 3616 4320 3664 4237 
Q 3712 4154 3686 4042 
Q 3661 3930 3546 3808 
z
M 5120 -806 
Q 5120 -896 5030 -896 
L 4768 -896 
Q 4678 -896 4678 -806 
L 4678 4915 
Q 4678 5005 4768 5005 
L 5030 5005 
Q 5120 5005 5120 4915 
L 5120 2413 
L 6003 2413 
Q 6042 2413 6070 2390 
Q 6099 2368 6099 2330 
L 6099 2112 
Q 6099 2080 6070 2054 
Q 6042 2029 6003 2029 
L 5120 2029 
L 5120 -806 
z
M 4282 890 
Q 4384 909 4390 845 
L 4429 621 
Q 4442 544 4346 531 
Q 4128 493 3878 461 
Q 3629 429 3373 400 
Q 3117 371 2861 348 
Q 2605 326 2374 314 
Q 2195 301 1952 294 
Q 1709 288 1446 285 
Q 1184 282 934 282 
Q 685 282 499 288 
Q 461 288 432 313 
Q 403 339 403 371 
L 403 589 
Q 403 627 432 649 
Q 461 672 499 672 
Q 634 666 826 662 
Q 1018 659 1235 659 
Q 1453 659 1673 665 
Q 1894 672 2099 678 
L 2099 1952 
Q 2099 1990 2121 2019 
Q 2144 2048 2182 2048 
L 2458 2048 
Q 2490 2048 2515 2019 
Q 2541 1990 2541 1952 
L 2541 698 
Q 2752 710 2982 729 
Q 3213 749 3440 771 
Q 3667 794 3881 826 
Q 4096 858 4282 890 
z
" transform="scale(0.015625)"/>
      <path id="NanumGothicCoding-d45c" d="M 5357 2016 
Q 5357 1933 5261 1933 
L 4390 1933 
L 4390 499 
L 5920 499 
Q 5952 499 5984 476 
Q 6016 454 6016 416 
L 6016 198 
Q 6016 166 5984 140 
Q 5952 115 5920 115 
L 480 115 
Q 442 115 413 140 
Q 384 166 384 198 
L 384 416 
Q 384 454 413 476 
Q 442 499 480 499 
L 1958 499 
L 1958 1933 
L 1062 1933 
Q 1030 1933 1001 1958 
Q 973 1984 973 2022 
L 973 2221 
Q 973 2259 1001 2284 
Q 1030 2310 1062 2310 
L 1875 2310 
L 1875 4211 
L 1190 4211 
Q 1158 4211 1129 4236 
Q 1101 4262 1101 4301 
L 1101 4499 
Q 1101 4538 1129 4563 
Q 1158 4589 1190 4589 
L 5133 4589 
Q 5229 4589 5229 4506 
L 5229 4294 
Q 5229 4211 5133 4211 
L 4480 4211 
L 4480 2310 
L 5261 2310 
Q 5357 2310 5357 2227 
L 5357 2016 
z
M 2310 2310 
L 4045 2310 
L 4045 4211 
L 2310 4211 
L 2310 2310 
z
M 2394 499 
L 3955 499 
L 3955 1933 
L 2394 1933 
L 2394 499 
z
" transform="scale(0.015625)"/>
      <path id="NanumGothicCoding-acc4" d="M 3130 4000 
Q 3117 3846 3094 3702 
Q 3072 3558 3040 3411 
L 4000 3411 
L 4000 4806 
Q 4000 4896 4090 4896 
L 4333 4896 
Q 4422 4896 4422 4806 
L 4422 -563 
Q 4422 -653 4333 -653 
L 4090 -653 
Q 4000 -653 4000 -563 
L 4000 1568 
L 2778 1568 
Q 2694 1568 2694 1645 
L 2694 1869 
Q 2694 1946 2778 1946 
L 4000 1946 
L 4000 3034 
L 2931 3034 
Q 2464 1594 922 570 
Q 838 512 794 576 
L 653 774 
Q 621 813 633 851 
Q 646 890 678 909 
Q 1107 1178 1456 1507 
Q 1805 1837 2061 2211 
Q 2317 2586 2470 2998 
Q 2624 3411 2662 3846 
Q 2675 4006 2636 4054 
Q 2598 4102 2470 4102 
L 915 4102 
Q 838 4102 838 4179 
L 838 4410 
Q 838 4442 864 4464 
Q 890 4486 922 4486 
L 2624 4486 
Q 2912 4486 3030 4364 
Q 3149 4243 3130 4000 
z
M 5555 -806 
Q 5555 -896 5466 -896 
L 5222 -896 
Q 5133 -896 5133 -806 
L 5133 4915 
Q 5133 5005 5222 5005 
L 5466 5005 
Q 5555 5005 5555 4915 
L 5555 -806 
z
" transform="scale(0.015625)"/>
      <path id="NanumGothicCoding-ae30" d="M 5344 -806 
Q 5344 -896 5254 -896 
L 4992 -896 
Q 4902 -896 4902 -806 
L 4902 4915 
Q 4902 5005 4992 5005 
L 5254 5005 
Q 5344 5005 5344 4915 
L 5344 -806 
z
M 3629 4064 
Q 3597 3514 3411 2982 
Q 3226 2451 2896 1968 
Q 2566 1485 2102 1072 
Q 1638 659 1050 346 
Q 966 301 928 365 
L 787 589 
Q 742 666 813 698 
Q 1357 979 1776 1340 
Q 2195 1702 2492 2124 
Q 2790 2547 2963 3014 
Q 3136 3482 3181 3974 
Q 3194 4070 3155 4105 
Q 3117 4141 3027 4141 
L 992 4141 
Q 915 4141 915 4224 
L 915 4448 
Q 915 4525 992 4525 
L 3149 4525 
Q 3450 4525 3546 4413 
Q 3642 4301 3629 4064 
z
" transform="scale(0.015625)"/>
      <path id="NanumGothicCoding-c900" d="M 4685 4179 
Q 4499 4013 4268 3859 
Q 4038 3706 3770 3558 
Q 4192 3424 4653 3299 
Q 5114 3174 5523 3091 
Q 5606 3072 5581 3002 
L 5491 2790 
Q 5459 2720 5376 2739 
Q 5165 2778 4899 2842 
Q 4634 2906 4355 2982 
Q 4077 3059 3795 3145 
Q 3514 3232 3277 3315 
Q 2368 2906 1062 2598 
Q 1005 2586 979 2605 
Q 954 2624 941 2662 
L 883 2848 
Q 858 2938 928 2957 
Q 1453 3078 1933 3228 
Q 2413 3379 2832 3548 
Q 3251 3718 3600 3904 
Q 3949 4090 4198 4275 
Q 4301 4352 4278 4393 
Q 4256 4435 4166 4435 
L 1402 4435 
Q 1318 4435 1318 4518 
L 1318 4742 
Q 1318 4819 1402 4819 
L 4326 4819 
Q 4819 4819 4915 4643 
Q 5011 4467 4685 4179 
z
M 3104 339 
Q 3072 339 3046 368 
Q 3021 397 3021 435 
L 3021 1728 
L 480 1728 
Q 442 1728 413 1753 
Q 384 1779 384 1811 
L 384 2029 
Q 384 2067 413 2089 
Q 442 2112 480 2112 
L 5920 2112 
Q 5952 2112 5984 2089 
Q 6016 2067 6016 2029 
L 6016 1811 
Q 6016 1779 5984 1753 
Q 5952 1728 5920 1728 
L 3462 1728 
L 3462 435 
Q 3462 397 3440 368 
Q 3418 339 3379 339 
L 3104 339 
z
M 5325 -704 
Q 5325 -742 5293 -761 
Q 5261 -781 5229 -781 
L 1702 -781 
Q 1402 -781 1309 -656 
Q 1216 -531 1216 -269 
L 1216 1005 
Q 1216 1094 1306 1094 
L 1568 1094 
Q 1658 1094 1658 1005 
L 1658 -262 
Q 1658 -352 1686 -374 
Q 1715 -397 1805 -397 
L 5229 -397 
Q 5261 -397 5293 -419 
Q 5325 -442 5325 -474 
L 5325 -704 
z
" transform="scale(0.015625)"/>
     </defs>
     <use xlink:href="#NanumGothicCoding-64"/>
     <use xlink:href="#NanumGothicCoding-79" transform="translate(49.999985 0)"/>
     <use xlink:href="#NanumGothicCoding-20" transform="translate(99.999969 0)"/>
     <use xlink:href="#NanumGothicCoding-3e" transform="translate(149.999954 0)"/>
     <use xlink:href="#NanumGothicCoding-20" transform="translate(199.999939 0)"/>
     <use xlink:href="#NanumGothicCoding-30" transform="translate(249.999924 0)"/>
     <use xlink:href="#NanumGothicCoding-20" transform="translate(299.999908 0)"/>
     <use xlink:href="#NanumGothicCoding-20" transform="translate(349.999893 0)"/>
     <use xlink:href="#NanumGothicCoding-2192" transform="translate(399.999878 0)"/>
     <use xlink:href="#NanumGothicCoding-20" transform="translate(499.999863 0)"/>
     <use xlink:href="#NanumGothicCoding-b9c8" transform="translate(549.999847 0)"/>
     <use xlink:href="#NanumGothicCoding-c6b0" transform="translate(649.999832 0)"/>
     <use xlink:href="#NanumGothicCoding-c2a4" transform="translate(749.999817 0)"/>
     <use xlink:href="#NanumGothicCoding-ac00" transform="translate(849.999802 0)"/>
     <use xlink:href="#NanumGothicCoding-20" transform="translate(949.999786 0)"/>
     <use xlink:href="#NanumGothicCoding-d50c" transform="translate(999.999771 0)"/>
     <use xlink:href="#NanumGothicCoding-b808" transform="translate(1099.999756 0)"/>
     <use xlink:href="#NanumGothicCoding-c774" transform="translate(1199.999741 0)"/>
     <use xlink:href="#NanumGothicCoding-c5b4" transform="translate(1299.999725 0)"/>
     <use xlink:href="#NanumGothicCoding-bcf4" transform="translate(1399.99971 0)"/>
     <use xlink:href="#NanumGothicCoding-b2e4" transform="translate(1499.999695 0)"/>
     <use xlink:href="#NanumGothicCoding-20" transform="translate(1599.99968 0)"/>
     <use xlink:href="#NanumGothicCoding-c544" transform="translate(1649.999664 0)"/>
     <use xlink:href="#NanumGothicCoding-b798" transform="translate(1749.999649 0)"/>
     <use xlink:href="#NanumGothicCoding-cabd" transform="translate(1849.999634 0)"/>
     <use xlink:href="#NanumGothicCoding-2c" transform="translate(1949.999619 0)"/>
     <use xlink:href="#NanumGothicCoding-20" transform="translate(1999.999603 0)"/>
     <use xlink:href="#NanumGothicCoding-d654" transform="translate(2049.999588 0)"/>
     <use xlink:href="#NanumGothicCoding-ba74" transform="translate(2149.999573 0)"/>
     <use xlink:href="#NanumGothicCoding-20" transform="translate(2249.999557 0)"/>
     <use xlink:href="#NanumGothicCoding-c88c" transform="translate(2299.999542 0)"/>
     <use xlink:href="#NanumGothicCoding-d45c" transform="translate(2399.999527 0)"/>
     <use xlink:href="#NanumGothicCoding-acc4" transform="translate(2499.999512 0)"/>
     <use xlink:href="#NanumGothicCoding-20" transform="translate(2599.999496 0)"/>
     <use xlink:href="#NanumGothicCoding-ae30" transform="translate(2649.999481 0)"/>
     <use xlink:href="#NanumGothicCoding-c900" transform="translate(2749.999466 0)"/>
    </g>
   </g>
   <g id="text_4">
    <!-- dy &lt; 0  → 마우스가 플레이어보다 위쪽, 화면 좌표계 기준 -->
    <g style="fill: #111827" transform="translate(23.79456 76.233384) scale(0.11 -0.11)">
     <defs>
      <path id="NanumGothicCoding-c704" d="M 3942 3494 
Q 3942 3245 3827 3024 
Q 3712 2803 3507 2636 
Q 3302 2470 3020 2371 
Q 2739 2272 2406 2272 
Q 2080 2272 1805 2368 
Q 1530 2464 1328 2633 
Q 1126 2803 1011 3024 
Q 896 3245 896 3494 
Q 896 3770 1011 3997 
Q 1126 4224 1328 4387 
Q 1530 4550 1805 4636 
Q 2080 4723 2406 4723 
Q 2714 4723 2992 4633 
Q 3270 4544 3481 4384 
Q 3693 4224 3817 3997 
Q 3942 3770 3942 3494 
z
M 3494 3501 
Q 3494 3699 3408 3852 
Q 3322 4006 3171 4112 
Q 3021 4218 2822 4272 
Q 2624 4326 2406 4326 
Q 2176 4326 1984 4268 
Q 1792 4211 1648 4105 
Q 1504 4000 1424 3846 
Q 1344 3693 1344 3501 
Q 1344 3315 1421 3161 
Q 1498 3008 1638 2896 
Q 1779 2784 1974 2723 
Q 2170 2662 2406 2662 
Q 2624 2662 2822 2726 
Q 3021 2790 3171 2902 
Q 3322 3014 3408 3168 
Q 3494 3322 3494 3501 
z
M 5344 -806 
Q 5344 -896 5254 -896 
L 4992 -896 
Q 4902 -896 4902 -806 
L 4902 4915 
Q 4902 5005 4992 5005 
L 5254 5005 
Q 5344 5005 5344 4915 
L 5344 -806 
z
M 4429 1773 
Q 4461 1779 4489 1763 
Q 4518 1747 4525 1722 
L 4557 1504 
Q 4563 1414 4480 1408 
Q 4064 1344 3603 1296 
Q 3142 1248 2682 1216 
L 2682 -691 
Q 2682 -730 2659 -758 
Q 2637 -787 2598 -787 
L 2323 -787 
Q 2291 -787 2265 -758 
Q 2240 -730 2240 -691 
L 2240 1197 
Q 2035 1184 1798 1177 
Q 1562 1171 1334 1164 
Q 1107 1158 902 1155 
Q 698 1152 563 1158 
Q 525 1158 496 1184 
Q 467 1210 467 1242 
L 467 1459 
Q 467 1498 496 1520 
Q 525 1542 563 1542 
Q 749 1542 1008 1545 
Q 1267 1549 1539 1555 
Q 1811 1562 2064 1571 
Q 2317 1581 2490 1587 
Q 2675 1594 2921 1613 
Q 3168 1632 3433 1657 
Q 3699 1683 3958 1712 
Q 4218 1741 4429 1773 
z
" transform="scale(0.015625)"/>
     </defs>
     <use xlink:href="#NanumGothicCoding-64"/>
     <use xlink:href="#NanumGothicCoding-79" transform="translate(49.999985 0)"/>
     <use xlink:href="#NanumGothicCoding-20" transform="translate(99.999969 0)"/>
     <use xlink:href="#NanumGothicCoding-3c" transform="translate(149.999954 0)"/>
     <use xlink:href="#NanumGothicCoding-20" transform="translate(199.999939 0)"/>
     <use xlink:href="#NanumGothicCoding-30" transform="translate(249.999924 0)"/>
     <use xlink:href="#NanumGothicCoding-20" transform="translate(299.999908 0)"/>
     <use xlink:href="#NanumGothicCoding-20" transform="translate(349.999893 0)"/>
     <use xlink:href="#NanumGothicCoding-2192" transform="translate(399.999878 0)"/>
     <use xlink:href="#NanumGothicCoding-20" transform="translate(499.999863 0)"/>
     <use xlink:href="#NanumGothicCoding-b9c8" transform="translate(549.999847 0)"/>
     <use xlink:href="#NanumGothicCoding-c6b0" transform="translate(649.999832 0)"/>
     <use xlink:href="#NanumGothicCoding-c2a4" transform="translate(749.999817 0)"/>
     <use xlink:href="#NanumGothicCoding-ac00" transform="translate(849.999802 0)"/>
     <use xlink:href="#NanumGothicCoding-20" transform="translate(949.999786 0)"/>
     <use xlink:href="#NanumGothicCoding-d50c" transform="translate(999.999771 0)"/>
     <use xlink:href="#NanumGothicCoding-b808" transform="translate(1099.999756 0)"/>
     <use xlink:href="#NanumGothicCoding-c774" transform="translate(1199.999741 0)"/>
     <use xlink:href="#NanumGothicCoding-c5b4" transform="translate(1299.999725 0)"/>
     <use xlink:href="#NanumGothicCoding-bcf4" transform="translate(1399.99971 0)"/>
     <use xlink:href="#NanumGothicCoding-b2e4" transform="translate(1499.999695 0)"/>
     <use xlink:href="#NanumGothicCoding-20" transform="translate(1599.99968 0)"/>
     <use xlink:href="#NanumGothicCoding-c704" transform="translate(1649.999664 0)"/>
     <use xlink:href="#NanumGothicCoding-cabd" transform="translate(1749.999649 0)"/>
     <use xlink:href="#NanumGothicCoding-2c" transform="translate(1849.999634 0)"/>
     <use xlink:href="#NanumGothicCoding-20" transform="translate(1899.999619 0)"/>
     <use xlink:href="#NanumGothicCoding-d654" transform="translate(1949.999603 0)"/>
     <use xlink:href="#NanumGothicCoding-ba74" transform="translate(2049.999588 0)"/>
     <use xlink:href="#NanumGothicCoding-20" transform="translate(2149.999573 0)"/>
     <use xlink:href="#NanumGothicCoding-c88c" transform="translate(2199.999557 0)"/>
     <use xlink:href="#NanumGothicCoding-d45c" transform="translate(2299.999542 0)"/>
     <use xlink:href="#NanumGothicCoding-acc4" transform="translate(2399.999527 0)"/>
     <use xlink:href="#NanumGothicCoding-20" transform="translate(2499.999512 0)"/>
     <use xlink:href="#NanumGothicCoding-ae30" transform="translate(2549.999496 0)"/>
     <use xlink:href="#NanumGothicCoding-c900" transform="translate(2649.999481 0)"/>
    </g>
   </g>
  </g>
 </g>
 <defs>
  <clipPath id="p0a65ef4f05">
   <rect x="5.76" y="5.76" width="450.864" height="137.4912"/>
  </clipPath>
 </defs>
</svg>
