<svg xmlns="http://www.w3.org/2000/svg" viewBox="0 0 700 360"><rect width="700" height="360" rx="16" fill="#f8fafc"/><text x="350" y="28" text-anchor="middle" font-family="sans-serif" font-size="18" font-weight="700">A*: f = g + h</text><g transform="translate(110 55)" stroke="#94a3b8"><g fill="#fff"><rect width="480" height="240"/></g><g stroke-width="1"><path d="M60 0V240M120 0V240M180 0V240M240 0V240M300 0V240M360 0V240M420 0V240"/><path d="M0 60H480M0 120H480M0 180H480"/></g><g fill="#334155"><rect x="120" y="0" width="60" height="180"/><rect x="300" y="60" width="60" height="180"/></g><g fill="#dcfce7"><rect x="0" y="180" width="60" height="60"/><rect x="420" y="0" width="60" height="60"/></g><path d="M30 210L90 210L90 150L210 150L210 90L270 90L270 30L450 30" fill="none" stroke="#ef4444" stroke-width="8"/><g font-family="sans-serif" text-anchor="middle" fill="#0f172a" stroke="none"><text x="30" y="215">S</text><text x="450" y="35">G</text><text x="240" y="78">g=6</text><text x="240" y="98">h=4</text><text x="240" y="118">f=10</text></g></g><text x="350" y="330" text-anchor="middle" font-family="sans-serif" font-size="12">parent를 역추적하면 빨간 경로가 된다</text></svg>
