<?xml version="1.0" encoding="utf-8" standalone="no"?>
<!DOCTYPE svg PUBLIC "-//W3C//DTD SVG 1.1//EN"
  "http://www.w3.org/Graphics/SVG/1.1/DTD/svg11.dtd">
<svg xmlns:xlink="http://www.w3.org/1999/xlink" width="289.132995pt" height="484.812856pt" viewBox="0 0 289.132995 484.812856" xmlns="http://www.w3.org/2000/svg" version="1.1">
 <metadata>
  <rdf:RDF xmlns:dc="http://purl.org/dc/elements/1.1/" xmlns:cc="http://creativecommons.org/ns#" xmlns:rdf="http://www.w3.org/1999/02/22-rdf-syntax-ns#">
   <cc:Work>
    <dc:type rdf:resource="http://purl.org/dc/dcmitype/StillImage"/>
    <dc:date>2026-07-08T05:12:56.042673</dc:date>
    <dc:format>image/svg+xml</dc:format>
    <dc:creator>
     <cc:Agent>
      <dc:title>Matplotlib v3.10.8, https://matplotlib.org/</dc:title>
     </cc:Agent>
    </dc:creator>
   </cc:Work>
  </rdf:RDF>
 </metadata>
 <defs>
  <style type="text/css">*{stroke-linejoin: round; stroke-linecap: butt}</style>
 </defs>
 <g id="figure_1">
  <g id="patch_1">
   <path d="M 0 484.812856 
L 289.132995 484.812856 
L 289.132995 0 
L 0 0 
z
" style="fill: #ffffff"/>
  </g>
  <g id="axes_1">
   <g id="text_1">
    <!-- 물리 업데이트 순서 -->
    <g style="fill: #111827" transform="translate(8.64 20.054062) scale(0.15 -0.15)">
     <defs>
      <path id="NanumGothicBold-bb3c" d="M 5882 2080 
Q 5882 2048 5850 2019 
Q 5818 1990 5786 1990 
L 3366 1990 
L 3366 1510 
L 4550 1510 
Q 4813 1510 4899 1430 
Q 4986 1350 4986 1133 
L 4986 403 
Q 4986 179 4899 102 
Q 4813 26 4550 26 
L 1843 26 
Q 1792 26 1779 10 
Q 1766 -6 1766 -58 
L 1766 -262 
Q 1766 -320 1779 -329 
Q 1792 -339 1850 -339 
L 5043 -339 
Q 5075 -339 5107 -361 
Q 5139 -384 5139 -429 
L 5139 -845 
Q 5139 -877 5107 -905 
Q 5075 -934 5050 -934 
L 1472 -934 
Q 1222 -934 1132 -844 
Q 1043 -755 1043 -550 
L 1043 179 
Q 1043 384 1129 473 
Q 1216 563 1466 563 
L 4192 563 
Q 4243 563 4256 572 
Q 4269 582 4269 646 
L 4269 819 
Q 4269 890 4256 906 
Q 4243 922 4186 922 
L 1120 922 
Q 1088 922 1059 944 
Q 1030 966 1030 998 
L 1030 1427 
Q 1030 1459 1059 1484 
Q 1088 1510 1120 1510 
L 2630 1510 
L 2630 1990 
L 211 1990 
Q 122 1990 122 2080 
L 122 2477 
Q 122 2515 147 2547 
Q 173 2579 211 2579 
L 5786 2579 
Q 5818 2579 5850 2544 
Q 5882 2509 5882 2477 
L 5882 2080 
z
M 4941 3488 
Q 4941 3245 4816 3142 
Q 4691 3040 4448 3040 
L 1542 3040 
Q 1248 3040 1149 3139 
Q 1050 3238 1050 3488 
L 1050 4602 
Q 1050 4845 1174 4947 
Q 1299 5050 1542 5050 
L 4448 5050 
Q 4742 5050 4841 4954 
Q 4941 4858 4941 4602 
L 4941 3488 
z
M 4211 4378 
Q 4211 4429 4192 4445 
Q 4173 4461 4122 4461 
L 1869 4461 
Q 1811 4461 1795 4448 
Q 1779 4435 1779 4384 
L 1779 3712 
Q 1779 3654 1795 3641 
Q 1811 3629 1869 3629 
L 4122 3629 
Q 4179 3629 4195 3641 
Q 4211 3654 4211 3712 
L 4211 4378 
z
" transform="scale(0.015625)"/>
      <path id="NanumGothicBold-b9ac" d="M 5274 -928 
Q 5274 -1011 5190 -1011 
L 4621 -1011 
Q 4538 -1011 4538 -928 
L 4538 4979 
Q 4538 5062 4621 5062 
L 5190 5062 
Q 5274 5062 5274 4979 
L 5274 -928 
z
M 4109 806 
Q 4122 755 4083 726 
Q 4045 698 3994 685 
Q 3808 640 3568 605 
Q 3328 570 3059 544 
Q 2790 518 2515 499 
Q 2240 480 1984 473 
Q 1728 467 1513 467 
Q 1299 467 1158 480 
Q 877 506 771 602 
Q 666 698 666 941 
L 666 2477 
Q 666 2707 778 2809 
Q 890 2912 1114 2912 
L 2637 2912 
Q 2688 2912 2707 2928 
Q 2726 2944 2726 3008 
L 2726 3904 
Q 2726 3955 2713 3974 
Q 2701 3994 2637 3994 
L 794 3994 
Q 762 3994 733 4019 
Q 704 4045 704 4077 
L 704 4518 
Q 704 4550 733 4572 
Q 762 4595 794 4595 
L 3021 4595 
Q 3296 4595 3376 4492 
Q 3456 4390 3456 4160 
L 3456 2739 
Q 3456 2496 3357 2406 
Q 3258 2317 3008 2317 
L 1491 2317 
Q 1402 2317 1402 2227 
L 1402 1216 
Q 1402 1146 1427 1123 
Q 1453 1101 1523 1101 
Q 1805 1088 2115 1097 
Q 2426 1107 2739 1129 
Q 3053 1152 3350 1190 
Q 3648 1229 3910 1280 
Q 3955 1293 3996 1270 
Q 4038 1248 4051 1190 
L 4109 806 
z
" transform="scale(0.015625)"/>
      <path id="NanumGothicBold-20" transform="scale(0.015625)"/>
      <path id="NanumGothicBold-c5c5" d="M 5280 1920 
Q 5280 1830 5197 1830 
L 4627 1830 
Q 4544 1830 4544 1920 
L 4544 3110 
L 3539 3110 
Q 3482 2880 3354 2678 
Q 3226 2477 3034 2329 
Q 2842 2182 2592 2096 
Q 2342 2010 2048 2010 
Q 1702 2010 1420 2128 
Q 1139 2246 940 2444 
Q 742 2643 633 2902 
Q 525 3162 525 3443 
Q 525 3731 633 3993 
Q 742 4256 940 4454 
Q 1139 4653 1420 4771 
Q 1702 4890 2048 4890 
Q 2355 4890 2608 4797 
Q 2861 4704 3056 4547 
Q 3251 4390 3376 4176 
Q 3501 3962 3552 3725 
L 4544 3725 
L 4544 4979 
Q 4544 5062 4627 5062 
L 5197 5062 
Q 5280 5062 5280 4979 
L 5280 1920 
z
M 5280 -486 
Q 5280 -704 5177 -809 
Q 5075 -915 4800 -915 
L 1971 -915 
Q 1690 -915 1587 -819 
Q 1485 -723 1485 -467 
L 1485 1427 
Q 1485 1459 1510 1481 
Q 1536 1504 1568 1504 
L 2131 1504 
Q 2163 1504 2192 1481 
Q 2221 1459 2221 1427 
L 2221 838 
L 4544 838 
L 4544 1453 
Q 4544 1485 4569 1510 
Q 4595 1536 4627 1536 
L 5197 1536 
Q 5229 1536 5254 1510 
Q 5280 1485 5280 1453 
L 5280 -486 
z
M 2874 3443 
Q 2874 3610 2816 3763 
Q 2758 3917 2649 4032 
Q 2541 4147 2387 4217 
Q 2234 4288 2048 4288 
Q 1862 4288 1712 4217 
Q 1562 4147 1453 4032 
Q 1344 3917 1286 3763 
Q 1229 3610 1229 3443 
Q 1229 3277 1286 3126 
Q 1344 2976 1453 2861 
Q 1562 2746 1712 2678 
Q 1862 2611 2048 2611 
Q 2234 2611 2387 2678 
Q 2541 2746 2649 2861 
Q 2758 2976 2816 3126 
Q 2874 3277 2874 3443 
z
M 4544 243 
L 2221 243 
L 2221 -205 
Q 2221 -314 2336 -314 
L 4429 -314 
Q 4544 -314 4544 -205 
L 4544 243 
z
" transform="scale(0.015625)"/>
      <path id="NanumGothicBold-b370" d="M 3302 979 
Q 3315 922 3276 890 
Q 3238 858 3206 851 
Q 2963 794 2668 749 
Q 2374 704 2067 681 
Q 1760 659 1456 656 
Q 1152 653 890 672 
Q 659 691 540 784 
Q 422 877 422 1101 
L 422 4109 
Q 422 4333 515 4438 
Q 608 4544 851 4544 
L 2752 4544 
Q 2790 4544 2819 4518 
Q 2848 4493 2848 4454 
L 2848 4013 
Q 2848 3981 2819 3955 
Q 2790 3930 2752 3930 
L 1280 3930 
Q 1158 3930 1158 3821 
L 1158 1472 
Q 1158 1370 1196 1341 
Q 1235 1312 1350 1299 
Q 1485 1280 1705 1286 
Q 1926 1293 2176 1312 
Q 2426 1331 2669 1363 
Q 2912 1395 3091 1434 
Q 3142 1446 3177 1433 
Q 3213 1421 3226 1370 
L 3302 979 
z
M 3610 4870 
Q 3610 4954 3699 4954 
L 4224 4954 
Q 4307 4954 4307 4870 
L 4307 -717 
Q 4307 -806 4224 -806 
L 3699 -806 
Q 3610 -806 3610 -717 
L 3610 2349 
L 2515 2349 
Q 2477 2349 2448 2374 
Q 2419 2400 2419 2432 
L 2419 2874 
Q 2419 2906 2448 2928 
Q 2477 2950 2515 2950 
L 3610 2950 
L 3610 4870 
z
M 5549 -941 
Q 5549 -1024 5466 -1024 
L 4909 -1024 
Q 4826 -1024 4826 -941 
L 4826 4979 
Q 4826 5062 4915 5062 
L 5466 5062 
Q 5549 5062 5549 4979 
L 5549 -941 
z
" transform="scale(0.015625)"/>
      <path id="NanumGothicBold-c774" d="M 5274 -928 
Q 5274 -1011 5190 -1011 
L 4621 -1011 
Q 4538 -1011 4538 -928 
L 4538 4979 
Q 4538 5062 4621 5062 
L 5190 5062 
Q 5274 5062 5274 4979 
L 5274 -928 
z
M 2963 2573 
Q 2963 2867 2905 3132 
Q 2848 3398 2739 3596 
Q 2630 3795 2473 3910 
Q 2317 4026 2112 4026 
Q 1907 4026 1750 3910 
Q 1594 3795 1485 3596 
Q 1376 3398 1318 3132 
Q 1261 2867 1261 2573 
Q 1261 2285 1318 2019 
Q 1376 1754 1485 1552 
Q 1594 1350 1750 1232 
Q 1907 1114 2112 1114 
Q 2317 1114 2473 1232 
Q 2630 1350 2739 1552 
Q 2848 1754 2905 2019 
Q 2963 2285 2963 2573 
z
M 2112 461 
Q 1747 461 1452 614 
Q 1158 768 956 1046 
Q 755 1325 646 1715 
Q 538 2106 538 2573 
Q 538 3053 646 3443 
Q 755 3834 956 4106 
Q 1158 4378 1452 4528 
Q 1747 4678 2112 4678 
Q 2483 4678 2774 4528 
Q 3066 4378 3267 4106 
Q 3469 3834 3577 3443 
Q 3686 3053 3686 2573 
Q 3686 2093 3577 1702 
Q 3469 1312 3267 1037 
Q 3066 762 2774 611 
Q 2483 461 2112 461 
z
" transform="scale(0.015625)"/>
      <path id="NanumGothicBold-d2b8" d="M 5069 1715 
Q 5069 1664 5046 1641 
Q 5024 1619 4992 1619 
L 1421 1619 
Q 1165 1619 1062 1734 
Q 960 1850 960 2074 
L 960 4288 
Q 960 4531 1069 4617 
Q 1178 4704 1421 4704 
L 4934 4704 
Q 5024 4704 5024 4621 
L 5024 4192 
Q 5024 4102 4934 4102 
L 1811 4102 
Q 1696 4102 1696 3994 
L 1696 3462 
L 4851 3462 
Q 4883 3462 4912 3436 
Q 4941 3411 4941 3379 
L 4941 2963 
Q 4941 2925 4912 2899 
Q 4883 2874 4851 2874 
L 1696 2874 
L 1696 2330 
Q 1696 2259 1718 2236 
Q 1741 2214 1811 2214 
L 4966 2214 
Q 5018 2214 5043 2201 
Q 5069 2189 5069 2138 
L 5069 1715 
z
M 5786 672 
Q 5818 672 5850 640 
Q 5882 608 5882 570 
L 5882 166 
Q 5882 134 5850 102 
Q 5818 70 5786 70 
L 211 70 
Q 173 70 147 102 
Q 122 134 122 166 
L 122 570 
Q 122 672 211 672 
L 5786 672 
z
" transform="scale(0.015625)"/>
      <path id="NanumGothicBold-c21c" d="M 5882 1658 
Q 5882 1626 5850 1590 
Q 5818 1555 5786 1555 
L 3418 1555 
L 3418 371 
Q 3418 282 3328 282 
L 2771 282 
Q 2682 282 2682 371 
L 2682 1555 
L 211 1555 
Q 173 1555 147 1590 
Q 122 1626 122 1658 
L 122 2074 
Q 122 2112 147 2141 
Q 173 2170 211 2170 
L 5786 2170 
Q 5818 2170 5850 2138 
Q 5882 2106 5882 2074 
L 5882 1658 
z
M 986 2566 
Q 845 2522 813 2605 
L 640 3008 
Q 627 3040 640 3078 
Q 653 3117 698 3130 
Q 1613 3373 2083 3805 
Q 2554 4237 2624 4896 
Q 2637 4998 2746 4998 
L 3251 4979 
Q 3341 4979 3341 4890 
Q 3334 4819 3331 4758 
Q 3328 4698 3315 4640 
Q 3411 4390 3619 4160 
Q 3827 3930 4096 3738 
Q 4365 3546 4678 3402 
Q 4992 3258 5312 3181 
Q 5350 3168 5366 3133 
Q 5382 3098 5370 3066 
L 5178 2675 
Q 5146 2592 5030 2611 
Q 4768 2656 4480 2774 
Q 4192 2893 3920 3065 
Q 3648 3238 3414 3449 
Q 3181 3661 3027 3891 
Q 2726 3418 2198 3072 
Q 1670 2726 986 2566 
z
M 5184 -781 
Q 5184 -819 5155 -838 
Q 5126 -858 5088 -858 
L 1466 -858 
Q 1178 -858 1078 -755 
Q 979 -653 979 -403 
L 979 960 
Q 979 992 1008 1021 
Q 1037 1050 1069 1050 
L 1619 1050 
Q 1658 1050 1686 1021 
Q 1715 992 1715 960 
L 1715 -141 
Q 1715 -205 1740 -224 
Q 1766 -243 1830 -243 
L 5088 -243 
Q 5120 -243 5152 -265 
Q 5184 -288 5184 -320 
L 5184 -781 
z
" transform="scale(0.015625)"/>
      <path id="NanumGothicBold-c11c" d="M 5382 -928 
Q 5382 -1011 5299 -1011 
L 4730 -1011 
Q 4646 -1011 4646 -928 
L 4646 2458 
L 3328 2458 
Q 3296 2458 3267 2483 
Q 3238 2509 3238 2541 
L 3238 2995 
Q 3238 3027 3267 3049 
Q 3296 3072 3328 3072 
L 4646 3072 
L 4646 4979 
Q 4646 5062 4730 5062 
L 5299 5062 
Q 5382 5062 5382 4979 
L 5382 -928 
z
M 800 339 
Q 678 243 576 346 
L 275 627 
Q 186 717 294 819 
Q 710 1203 1004 1664 
Q 1299 2125 1478 2650 
Q 1638 3117 1699 3600 
Q 1760 4083 1747 4653 
Q 1747 4691 1776 4720 
Q 1805 4749 1837 4749 
L 2406 4730 
Q 2438 4730 2464 4701 
Q 2490 4672 2490 4634 
Q 2490 3846 2374 3187 
Q 2432 2880 2566 2569 
Q 2701 2259 2883 1974 
Q 3066 1690 3277 1446 
Q 3488 1203 3699 1037 
Q 3802 960 3712 832 
L 3443 506 
Q 3411 461 3356 454 
Q 3302 448 3238 493 
Q 3078 614 2902 800 
Q 2726 986 2566 1200 
Q 2406 1414 2272 1641 
Q 2138 1869 2061 2080 
Q 1946 1811 1798 1561 
Q 1651 1312 1488 1085 
Q 1325 858 1149 669 
Q 973 480 800 339 
z
" transform="scale(0.015625)"/>
     </defs>
     <use xlink:href="#NanumGothicBold-bb3c"/>
     <use xlink:href="#NanumGothicBold-b9ac" transform="translate(93.999985 0)"/>
     <use xlink:href="#NanumGothicBold-20" transform="translate(187.999969 0)"/>
     <use xlink:href="#NanumGothicBold-c5c5" transform="translate(215.999954 0)"/>
     <use xlink:href="#NanumGothicBold-b370" transform="translate(309.999939 0)"/>
     <use xlink:href="#NanumGothicBold-c774" transform="translate(403.999924 0)"/>
     <use xlink:href="#NanumGothicBold-d2b8" transform="translate(497.999908 0)"/>
     <use xlink:href="#NanumGothicBold-20" transform="translate(591.999893 0)"/>
     <use xlink:href="#NanumGothicBold-c21c" transform="translate(619.999878 0)"/>
     <use xlink:href="#NanumGothicBold-c11c" transform="translate(713.999863 0)"/>
    </g>
   </g>
   <g id="text_2">
    <!-- 힘 누적 -->
    <g style="fill: #111827" transform="translate(127.516497 60.14014) scale(0.11 -0.11)">
     <defs>
      <path id="NanumGothicBold-d798" d="M 5216 1286 
Q 5216 1197 5133 1197 
L 4563 1197 
Q 4480 1197 4480 1293 
L 4480 4979 
Q 4480 5062 4563 5062 
L 5133 5062 
Q 5216 5062 5216 4979 
L 5216 1286 
z
M 3987 3738 
Q 3987 3699 3958 3670 
Q 3930 3642 3885 3642 
L 454 3642 
Q 422 3642 390 3674 
Q 358 3706 358 3744 
L 358 4102 
Q 358 4134 393 4169 
Q 429 4205 461 4205 
L 3885 4205 
Q 3930 4205 3958 4173 
Q 3987 4141 3987 4102 
L 3987 3738 
z
M 3155 4557 
Q 3155 4512 3126 4480 
Q 3098 4448 3053 4448 
L 1344 4448 
Q 1312 4448 1277 4473 
Q 1242 4499 1242 4550 
L 1242 4915 
Q 1242 4960 1277 4985 
Q 1312 5011 1344 5011 
L 3053 5011 
Q 3091 5011 3123 4979 
Q 3155 4947 3155 4909 
L 3155 4557 
z
M 2221 2874 
Q 1920 2874 1725 2736 
Q 1530 2598 1530 2374 
Q 1530 2150 1725 2000 
Q 1920 1850 2221 1850 
Q 2528 1850 2720 2000 
Q 2912 2150 2912 2374 
Q 2912 2598 2720 2736 
Q 2528 2874 2221 2874 
z
M 2221 3437 
Q 2515 3437 2768 3360 
Q 3021 3283 3209 3142 
Q 3398 3002 3507 2806 
Q 3616 2611 3616 2374 
Q 3616 2138 3507 1939 
Q 3398 1741 3209 1600 
Q 3021 1459 2765 1379 
Q 2509 1299 2214 1299 
Q 1926 1299 1676 1379 
Q 1427 1459 1241 1600 
Q 1056 1741 947 1939 
Q 838 2138 838 2374 
Q 838 2611 947 2806 
Q 1056 3002 1241 3142 
Q 1427 3283 1680 3360 
Q 1933 3437 2221 3437 
z
M 4486 262 
Q 4486 320 4470 336 
Q 4454 352 4403 352 
L 2240 352 
Q 2189 352 2173 339 
Q 2157 326 2157 269 
L 2157 -243 
Q 2157 -301 2173 -313 
Q 2189 -326 2240 -326 
L 4403 -326 
Q 4454 -326 4470 -313 
Q 4486 -301 4486 -243 
L 4486 262 
z
M 5216 -467 
Q 5216 -710 5110 -812 
Q 5005 -915 4762 -915 
L 1914 -915 
Q 1626 -915 1526 -812 
Q 1427 -710 1427 -461 
L 1427 480 
Q 1427 723 1532 832 
Q 1638 941 1882 941 
L 4730 941 
Q 5018 941 5117 835 
Q 5216 730 5216 474 
L 5216 -467 
z
" transform="scale(0.015625)"/>
      <path id="NanumGothicBold-b204" d="M 5882 1261 
Q 5882 1229 5850 1193 
Q 5818 1158 5786 1158 
L 3366 1158 
L 3366 -877 
Q 3366 -966 3277 -966 
L 2720 -966 
Q 2630 -966 2630 -877 
L 2630 1158 
L 211 1158 
Q 173 1158 147 1193 
Q 122 1229 122 1261 
L 122 1677 
Q 122 1715 147 1744 
Q 173 1773 211 1773 
L 5786 1773 
Q 5818 1773 5850 1741 
Q 5882 1709 5882 1677 
L 5882 1261 
z
M 5178 2534 
Q 5178 2490 5149 2470 
Q 5120 2451 5082 2451 
L 1581 2451 
Q 1274 2451 1146 2572 
Q 1018 2694 1018 2982 
L 1018 4896 
Q 1018 4928 1046 4957 
Q 1075 4986 1107 4986 
L 1664 4986 
Q 1702 4986 1731 4957 
Q 1760 4928 1760 4896 
L 1760 3232 
Q 1760 3130 1805 3098 
Q 1850 3066 1939 3066 
L 5082 3066 
Q 5114 3066 5146 3043 
Q 5178 3021 5178 2989 
L 5178 2534 
z
" transform="scale(0.015625)"/>
      <path id="NanumGothicBold-c801" d="M 781 1568 
Q 742 1542 678 1545 
Q 614 1549 576 1619 
L 390 1933 
Q 358 1984 371 2041 
Q 384 2099 448 2125 
Q 806 2285 1126 2493 
Q 1446 2701 1705 2937 
Q 1965 3174 2157 3433 
Q 2349 3693 2451 3955 
Q 2477 4013 2473 4057 
Q 2470 4102 2368 4102 
L 781 4102 
Q 691 4102 691 4205 
L 691 4627 
Q 691 4666 720 4691 
Q 749 4717 787 4717 
L 2810 4717 
Q 3091 4717 3228 4614 
Q 3366 4512 3334 4301 
Q 3322 4230 3299 4153 
Q 3277 4077 3258 4019 
Q 3091 3546 2778 3123 
Q 2893 3008 3033 2889 
Q 3174 2771 3324 2665 
Q 3475 2560 3625 2470 
Q 3776 2381 3904 2323 
Q 4032 2259 3968 2138 
L 3757 1792 
Q 3725 1741 3680 1728 
Q 3635 1715 3565 1747 
Q 3450 1805 3296 1901 
Q 3142 1997 2976 2118 
Q 2810 2240 2650 2374 
Q 2490 2509 2355 2643 
Q 2029 2323 1635 2051 
Q 1242 1779 781 1568 
z
M 5286 -909 
Q 5286 -941 5254 -969 
Q 5222 -998 5190 -998 
L 4646 -998 
Q 4602 -998 4573 -969 
Q 4544 -941 4544 -909 
L 4544 480 
Q 4544 550 4518 569 
Q 4493 589 4429 589 
L 1466 589 
Q 1434 589 1405 611 
Q 1376 634 1376 666 
L 1376 1120 
Q 1376 1158 1405 1177 
Q 1434 1197 1466 1197 
L 4858 1197 
Q 5101 1197 5193 1097 
Q 5286 998 5286 755 
L 5286 -909 
z
M 3450 3059 
L 3450 3507 
Q 3450 3539 3478 3561 
Q 3507 3584 3539 3584 
L 4544 3584 
L 4544 4979 
Q 4544 5062 4634 5062 
L 5197 5062 
Q 5229 5062 5257 5036 
Q 5286 5011 5286 4979 
L 5286 1606 
Q 5286 1574 5257 1545 
Q 5229 1517 5197 1517 
L 4634 1517 
Q 4595 1517 4569 1545 
Q 4544 1574 4544 1606 
L 4544 2982 
L 3539 2982 
Q 3507 2982 3478 3004 
Q 3450 3027 3450 3059 
z
" transform="scale(0.015625)"/>
     </defs>
     <use xlink:href="#NanumGothicBold-d798"/>
     <use xlink:href="#NanumGothicBold-20" transform="translate(93.999985 0)"/>
     <use xlink:href="#NanumGothicBold-b204" transform="translate(121.999969 0)"/>
     <use xlink:href="#NanumGothicBold-c801" transform="translate(215.999954 0)"/>
    </g>
   </g>
   <g id="patch_2">
    <path d="M 144.566497 65.861058 
Q 144.566497 80.399889 144.566497 92.926259 
" clip-path="url(#pf8bf3c77d8)" style="fill: none; stroke: #6b7280; stroke-width: 1.8; stroke-linecap: round"/>
    <path d="M 147.366497 87.326259 
L 144.566497 92.926259 
L 141.766497 87.326259 
z
" clip-path="url(#pf8bf3c77d8)" style="fill: #6b7280; stroke: #6b7280; stroke-width: 1.8; stroke-linecap: round"/>
   </g>
   <g id="text_3">
    <!-- 가속도 계산 -->
    <g style="fill: #111827" transform="translate(117.176497 121.307064) scale(0.11 -0.11)">
     <defs>
      <path id="NanumGothicBold-ac00" d="M 3379 4102 
Q 3334 3520 3142 2979 
Q 2950 2438 2614 1958 
Q 2278 1478 1804 1062 
Q 1331 646 736 320 
Q 685 294 630 297 
Q 576 301 544 352 
L 288 710 
Q 256 762 269 813 
Q 282 864 326 896 
Q 1280 1402 1869 2144 
Q 2458 2886 2586 3757 
Q 2605 3885 2569 3926 
Q 2534 3968 2419 3968 
L 614 3968 
Q 531 3968 531 4058 
L 531 4506 
Q 531 4582 614 4582 
L 2925 4582 
Q 3213 4582 3305 4464 
Q 3398 4346 3379 4102 
z
M 5971 2202 
Q 5971 2163 5942 2137 
Q 5914 2112 5875 2112 
L 5011 2112 
L 5011 -928 
Q 5011 -1011 4928 -1011 
L 4358 -1011 
Q 4275 -1011 4275 -928 
L 4275 4979 
Q 4275 5062 4358 5062 
L 4928 5062 
Q 5011 5062 5011 4979 
L 5011 2726 
L 5875 2726 
Q 5914 2726 5942 2704 
Q 5971 2682 5971 2650 
L 5971 2202 
z
" transform="scale(0.015625)"/>
      <path id="NanumGothicBold-c18d" d="M 5875 1677 
Q 5875 1645 5843 1613 
Q 5811 1581 5779 1581 
L 211 1581 
Q 173 1581 147 1609 
Q 122 1638 122 1677 
L 122 2099 
Q 122 2138 147 2166 
Q 173 2195 211 2195 
L 2630 2195 
L 2630 2976 
Q 2630 3066 2720 3066 
L 3245 3066 
Q 3283 3066 3312 3040 
Q 3341 3014 3341 2976 
L 3341 2195 
L 5779 2195 
Q 5811 2195 5843 2163 
Q 5875 2131 5875 2099 
L 5875 1677 
z
M 986 2726 
Q 845 2694 813 2765 
L 640 3174 
Q 627 3206 640 3244 
Q 653 3283 698 3296 
Q 1152 3418 1497 3571 
Q 1843 3725 2083 3923 
Q 2323 4122 2457 4378 
Q 2592 4634 2624 4960 
Q 2637 5062 2746 5062 
L 3251 5043 
Q 3341 5043 3341 4954 
Q 3334 4890 3331 4832 
Q 3328 4774 3315 4710 
Q 3418 4467 3626 4249 
Q 3834 4032 4102 3856 
Q 4371 3680 4684 3549 
Q 4998 3418 5312 3341 
Q 5350 3328 5366 3293 
Q 5382 3258 5370 3226 
L 5178 2835 
Q 5146 2746 5030 2765 
Q 4768 2810 4480 2922 
Q 4192 3034 3920 3194 
Q 3648 3354 3414 3552 
Q 3181 3750 3027 3974 
Q 2726 3526 2198 3209 
Q 1670 2893 986 2726 
z
M 5018 -954 
Q 5018 -986 4989 -1014 
Q 4960 -1043 4928 -1043 
L 4371 -1043 
Q 4333 -1043 4304 -1014 
Q 4275 -986 4275 -954 
L 4275 333 
Q 4275 397 4249 416 
Q 4224 435 4160 435 
L 986 435 
Q 954 435 925 457 
Q 896 480 896 512 
L 896 966 
Q 896 1005 925 1024 
Q 954 1043 986 1043 
L 4595 1043 
Q 4858 1043 4938 953 
Q 5018 864 5018 589 
L 5018 -954 
z
" transform="scale(0.015625)"/>
      <path id="NanumGothicBold-b3c4" d="M 5069 1971 
Q 5069 1920 5046 1897 
Q 5024 1875 4992 1875 
L 3373 1875 
L 3373 640 
L 5786 640 
Q 5818 640 5850 608 
Q 5882 576 5882 544 
L 5882 122 
Q 5882 90 5850 58 
Q 5818 26 5786 26 
L 211 26 
Q 173 26 147 58 
Q 122 90 122 122 
L 122 544 
Q 122 582 147 611 
Q 173 640 211 640 
L 2637 640 
L 2637 1875 
L 1446 1875 
Q 1190 1875 1075 2003 
Q 960 2131 960 2355 
L 960 4224 
Q 960 4467 1069 4553 
Q 1178 4640 1421 4640 
L 4934 4640 
Q 5024 4640 5024 4557 
L 5024 4109 
Q 5024 4026 4934 4026 
L 1811 4026 
Q 1696 4026 1696 3917 
L 1696 2598 
Q 1696 2541 1718 2512 
Q 1741 2483 1811 2483 
L 4966 2483 
Q 5018 2483 5043 2470 
Q 5069 2458 5069 2406 
L 5069 1971 
z
" transform="scale(0.015625)"/>
      <path id="NanumGothicBold-acc4" d="M 755 461 
Q 704 429 653 422 
Q 602 416 570 461 
L 314 813 
Q 275 870 297 918 
Q 320 966 352 992 
Q 787 1261 1136 1603 
Q 1485 1946 1731 2314 
Q 1978 2682 2112 3053 
Q 2246 3424 2259 3744 
Q 2266 3878 2234 3926 
Q 2202 3974 2067 3974 
L 653 3974 
Q 563 3974 563 4058 
L 563 4493 
Q 563 4525 592 4550 
Q 621 4576 653 4576 
L 2515 4576 
Q 2790 4576 2892 4470 
Q 2995 4365 2989 4115 
Q 2982 3987 2972 3859 
Q 2963 3731 2944 3610 
L 3629 3610 
L 3629 4870 
Q 3629 4954 3718 4954 
L 4243 4954 
Q 4326 4954 4326 4870 
L 4326 -717 
Q 4326 -806 4243 -806 
L 3718 -806 
Q 3629 -806 3629 -717 
L 3629 1594 
L 2714 1594 
Q 2682 1594 2653 1619 
Q 2624 1645 2624 1677 
L 2624 2099 
Q 2624 2131 2653 2153 
Q 2682 2176 2714 2176 
L 3629 2176 
L 3629 3021 
L 2816 3021 
Q 2573 2246 2041 1593 
Q 1510 941 755 461 
z
M 5549 -941 
Q 5549 -1024 5466 -1024 
L 4909 -1024 
Q 4826 -1024 4826 -941 
L 4826 4979 
Q 4826 5062 4915 5062 
L 5466 5062 
Q 5549 5062 5549 4979 
L 5549 -941 
z
" transform="scale(0.015625)"/>
      <path id="NanumGothicBold-c0b0" d="M 698 1453 
Q 614 1402 569 1414 
Q 525 1427 486 1472 
L 224 1773 
Q 160 1843 176 1891 
Q 192 1939 250 1978 
Q 608 2221 877 2493 
Q 1146 2765 1322 3097 
Q 1498 3430 1587 3836 
Q 1677 4243 1677 4755 
Q 1677 4800 1709 4835 
Q 1741 4870 1773 4870 
L 2336 4838 
Q 2419 4838 2419 4742 
Q 2419 4467 2396 4224 
Q 2374 3981 2330 3757 
Q 2406 3488 2560 3241 
Q 2714 2995 2902 2790 
Q 3091 2586 3296 2426 
Q 3501 2266 3686 2170 
Q 3782 2118 3712 2016 
L 3469 1670 
Q 3437 1626 3395 1613 
Q 3354 1600 3302 1632 
Q 2906 1830 2573 2153 
Q 2240 2477 2022 2867 
Q 1805 2445 1475 2102 
Q 1146 1760 698 1453 
z
M 5971 2605 
Q 5971 2573 5942 2547 
Q 5914 2522 5882 2522 
L 5011 2522 
L 5011 832 
Q 5011 749 4928 749 
L 4358 749 
Q 4275 749 4275 832 
L 4275 4979 
Q 4275 5062 4358 5062 
L 4928 5062 
Q 5011 5062 5011 4979 
L 5011 3136 
L 5882 3136 
Q 5914 3136 5942 3113 
Q 5971 3091 5971 3059 
L 5971 2605 
z
M 5261 -826 
Q 5261 -864 5232 -883 
Q 5203 -902 5165 -902 
L 1786 -902 
Q 1498 -902 1398 -800 
Q 1299 -698 1299 -448 
L 1299 954 
Q 1299 986 1328 1014 
Q 1357 1043 1389 1043 
L 1939 1043 
Q 1978 1043 2006 1014 
Q 2035 986 2035 954 
L 2035 -186 
Q 2035 -250 2060 -269 
Q 2086 -288 2150 -288 
L 5165 -288 
Q 5197 -288 5229 -313 
Q 5261 -339 5261 -371 
L 5261 -826 
z
" transform="scale(0.015625)"/>
     </defs>
     <use xlink:href="#NanumGothicBold-ac00"/>
     <use xlink:href="#NanumGothicBold-c18d" transform="translate(93.999985 0)"/>
     <use xlink:href="#NanumGothicBold-b3c4" transform="translate(187.999969 0)"/>
     <use xlink:href="#NanumGothicBold-20" transform="translate(281.999954 0)"/>
     <use xlink:href="#NanumGothicBold-acc4" transform="translate(309.999939 0)"/>
     <use xlink:href="#NanumGothicBold-c0b0" transform="translate(403.999924 0)"/>
    </g>
   </g>
   <g id="patch_3">
    <path d="M 144.566497 127.027982 
Q 144.566497 141.566813 144.566497 154.093183 
" clip-path="url(#pf8bf3c77d8)" style="fill: none; stroke: #6b7280; stroke-width: 1.8; stroke-linecap: round"/>
    <path d="M 147.366497 148.493183 
L 144.566497 154.093183 
L 141.766497 148.493183 
z
" clip-path="url(#pf8bf3c77d8)" style="fill: #6b7280; stroke: #6b7280; stroke-width: 1.8; stroke-linecap: round"/>
   </g>
   <g id="text_4">
    <!-- 속도 갱신 -->
    <g style="fill: #111827" transform="translate(122.346497 182.473988) scale(0.11 -0.11)">
     <defs>
      <path id="NanumGothicBold-ac31" d="M 4826 4979 
Q 4826 5062 4915 5062 
L 5466 5062 
Q 5549 5062 5549 4979 
L 5549 1574 
Q 5549 1485 5466 1485 
L 4909 1485 
Q 4826 1485 4826 1574 
L 4826 2938 
L 4250 2938 
L 4250 1766 
Q 4250 1683 4166 1683 
L 3642 1683 
Q 3552 1683 3552 1766 
L 3552 4877 
Q 3552 4960 3642 4960 
L 4166 4960 
Q 4250 4960 4250 4877 
L 4250 3552 
L 4826 3552 
L 4826 4979 
z
M 4845 179 
Q 4845 339 4726 457 
Q 4608 576 4419 656 
Q 4230 736 3993 777 
Q 3757 819 3520 819 
Q 3264 819 3030 777 
Q 2797 736 2614 656 
Q 2432 576 2323 457 
Q 2214 339 2214 179 
Q 2214 26 2323 -86 
Q 2432 -198 2614 -275 
Q 2797 -352 3033 -390 
Q 3270 -429 3520 -429 
Q 3757 -429 3993 -390 
Q 4230 -352 4419 -275 
Q 4608 -198 4726 -86 
Q 4845 26 4845 179 
z
M 5600 198 
Q 5600 -70 5430 -294 
Q 5261 -518 4973 -678 
Q 4685 -838 4307 -924 
Q 3930 -1011 3520 -1011 
Q 3078 -1011 2700 -924 
Q 2323 -838 2044 -681 
Q 1766 -525 1609 -301 
Q 1453 -77 1453 198 
Q 1453 467 1609 688 
Q 1766 909 2044 1069 
Q 2323 1229 2700 1315 
Q 3078 1402 3520 1402 
Q 3930 1402 4307 1315 
Q 4685 1229 4973 1072 
Q 5261 915 5430 694 
Q 5600 474 5600 198 
z
M 704 1472 
Q 634 1440 589 1446 
Q 544 1453 512 1517 
L 326 1843 
Q 294 1901 307 1952 
Q 320 2003 384 2035 
Q 1178 2400 1651 2883 
Q 2125 3366 2246 3949 
Q 2266 4058 2259 4093 
Q 2253 4128 2157 4128 
L 685 4128 
Q 646 4128 624 4160 
Q 602 4192 602 4230 
L 602 4646 
Q 602 4736 691 4736 
L 2528 4736 
Q 3046 4736 3046 4333 
Q 3046 4282 3033 4176 
Q 3021 4070 3008 4038 
Q 2816 3200 2262 2566 
Q 1709 1933 704 1472 
z
" transform="scale(0.015625)"/>
      <path id="NanumGothicBold-c2e0" d="M 762 1453 
Q 678 1402 633 1414 
Q 589 1427 550 1472 
L 288 1773 
Q 224 1843 240 1891 
Q 256 1939 314 1978 
Q 672 2221 941 2493 
Q 1210 2765 1392 3097 
Q 1574 3430 1667 3836 
Q 1760 4243 1760 4755 
Q 1760 4800 1792 4835 
Q 1824 4870 1856 4870 
L 2419 4838 
Q 2502 4838 2502 4742 
Q 2502 4474 2480 4227 
Q 2458 3981 2413 3757 
Q 2490 3488 2643 3241 
Q 2797 2995 2985 2790 
Q 3174 2586 3379 2426 
Q 3584 2266 3770 2170 
Q 3866 2118 3795 2016 
L 3552 1670 
Q 3488 1574 3386 1632 
Q 2982 1830 2652 2156 
Q 2323 2483 2106 2880 
Q 1882 2458 1549 2109 
Q 1216 1760 762 1453 
z
M 5414 -838 
Q 5414 -877 5385 -896 
Q 5357 -915 5325 -915 
L 1971 -915 
Q 1683 -915 1584 -812 
Q 1485 -710 1485 -461 
L 1485 998 
Q 1485 1030 1513 1059 
Q 1542 1088 1574 1088 
L 2131 1088 
Q 2170 1088 2198 1059 
Q 2227 1030 2227 998 
L 2227 -198 
Q 2227 -262 2252 -281 
Q 2278 -301 2349 -301 
L 5325 -301 
Q 5357 -301 5385 -326 
Q 5414 -352 5414 -384 
L 5414 -838 
z
M 5216 826 
Q 5216 742 5133 742 
L 4563 742 
Q 4480 742 4480 832 
L 4480 4979 
Q 4480 5062 4563 5062 
L 5133 5062 
Q 5216 5062 5216 4979 
L 5216 826 
z
" transform="scale(0.015625)"/>
     </defs>
     <use xlink:href="#NanumGothicBold-c18d"/>
     <use xlink:href="#NanumGothicBold-b3c4" transform="translate(93.999985 0)"/>
     <use xlink:href="#NanumGothicBold-20" transform="translate(187.999969 0)"/>
     <use xlink:href="#NanumGothicBold-ac31" transform="translate(215.999954 0)"/>
     <use xlink:href="#NanumGothicBold-c2e0" transform="translate(309.999939 0)"/>
    </g>
   </g>
   <g id="patch_4">
    <path d="M 144.566497 188.194906 
Q 144.566497 202.733737 144.566497 215.260107 
" clip-path="url(#pf8bf3c77d8)" style="fill: none; stroke: #6b7280; stroke-width: 1.8; stroke-linecap: round"/>
    <path d="M 147.366497 209.660107 
L 144.566497 215.260107 
L 141.766497 209.660107 
z
" clip-path="url(#pf8bf3c77d8)" style="fill: #6b7280; stroke: #6b7280; stroke-width: 1.8; stroke-linecap: round"/>
   </g>
   <g id="text_5">
    <!-- 위치 갱신 -->
    <g style="fill: #111827" transform="translate(122.346497 243.640912) scale(0.11 -0.11)">
     <defs>
      <path id="NanumGothicBold-c704" d="M 2157 4768 
Q 2496 4768 2781 4675 
Q 3066 4582 3270 4416 
Q 3475 4250 3590 4022 
Q 3706 3795 3706 3520 
Q 3706 3238 3590 3008 
Q 3475 2778 3270 2611 
Q 3066 2445 2781 2352 
Q 2496 2259 2157 2259 
Q 1818 2259 1536 2352 
Q 1254 2445 1046 2611 
Q 838 2778 723 3008 
Q 608 3238 608 3520 
Q 608 3795 723 4022 
Q 838 4250 1046 4416 
Q 1254 4582 1536 4675 
Q 1818 4768 2157 4768 
z
M 5280 -928 
Q 5280 -1011 5190 -1011 
L 4627 -1011 
Q 4595 -1011 4566 -988 
Q 4538 -966 4538 -928 
L 4538 4979 
Q 4538 5011 4566 5036 
Q 4595 5062 4627 5062 
L 5190 5062 
Q 5280 5062 5280 4979 
L 5280 -928 
z
M 211 1632 
Q 211 1722 307 1722 
Q 762 1709 1267 1712 
Q 1773 1715 2275 1734 
Q 2778 1754 3251 1789 
Q 3725 1824 4122 1882 
Q 4154 1888 4195 1875 
Q 4237 1862 4243 1811 
L 4282 1402 
Q 4288 1350 4259 1324 
Q 4230 1299 4198 1293 
Q 3872 1242 3456 1203 
Q 3040 1165 2573 1139 
L 2573 -710 
Q 2573 -755 2544 -784 
Q 2515 -813 2477 -813 
L 1952 -813 
Q 1850 -813 1850 -710 
L 1850 1114 
Q 1446 1101 1049 1094 
Q 653 1088 307 1094 
Q 262 1094 236 1123 
Q 211 1152 211 1190 
L 211 1632 
z
M 2157 4166 
Q 1997 4166 1846 4118 
Q 1696 4070 1581 3984 
Q 1466 3898 1395 3776 
Q 1325 3654 1325 3507 
Q 1325 3354 1395 3232 
Q 1466 3110 1581 3020 
Q 1696 2931 1846 2883 
Q 1997 2835 2157 2835 
Q 2330 2835 2483 2883 
Q 2637 2931 2752 3020 
Q 2867 3110 2934 3232 
Q 3002 3354 3002 3507 
Q 3002 3654 2934 3776 
Q 2867 3898 2752 3984 
Q 2637 4070 2483 4118 
Q 2330 4166 2157 4166 
z
" transform="scale(0.015625)"/>
      <path id="NanumGothicBold-ce58" d="M 710 378 
Q 659 352 604 355 
Q 550 358 518 403 
L 320 710 
Q 275 781 297 841 
Q 320 902 365 922 
Q 717 1114 1043 1344 
Q 1370 1574 1645 1836 
Q 1920 2099 2128 2384 
Q 2336 2669 2458 2970 
Q 2496 3059 2502 3100 
Q 2509 3142 2355 3142 
L 710 3142 
Q 672 3142 646 3174 
Q 621 3206 621 3245 
L 621 3667 
Q 621 3706 649 3731 
Q 678 3757 717 3757 
L 2874 3757 
Q 3149 3757 3257 3654 
Q 3366 3552 3366 3437 
Q 3366 3283 3309 3110 
Q 3200 2842 3069 2592 
Q 2938 2342 2771 2106 
Q 2893 1971 3037 1833 
Q 3181 1696 3334 1568 
Q 3488 1440 3641 1325 
Q 3795 1210 3930 1120 
Q 3981 1088 3974 1040 
Q 3968 992 3936 941 
L 3693 602 
Q 3667 563 3616 556 
Q 3565 550 3501 595 
Q 3386 666 3235 781 
Q 3085 896 2931 1033 
Q 2778 1171 2627 1318 
Q 2477 1466 2362 1600 
Q 1702 890 710 378 
z
M 5280 -928 
Q 5280 -1011 5190 -1011 
L 4627 -1011 
Q 4595 -1011 4566 -988 
Q 4538 -966 4538 -928 
L 4538 4979 
Q 4538 5011 4566 5036 
Q 4595 5062 4627 5062 
L 5190 5062 
Q 5280 5062 5280 4979 
L 5280 -928 
z
M 2970 4294 
Q 2970 4256 2938 4224 
Q 2906 4192 2861 4192 
L 1197 4192 
Q 1171 4192 1136 4217 
Q 1101 4243 1101 4288 
L 1101 4678 
Q 1101 4723 1136 4748 
Q 1171 4774 1197 4774 
L 2861 4774 
Q 2899 4774 2934 4742 
Q 2970 4710 2970 4672 
L 2970 4294 
z
" transform="scale(0.015625)"/>
     </defs>
     <use xlink:href="#NanumGothicBold-c704"/>
     <use xlink:href="#NanumGothicBold-ce58" transform="translate(93.999985 0)"/>
     <use xlink:href="#NanumGothicBold-20" transform="translate(187.999969 0)"/>
     <use xlink:href="#NanumGothicBold-ac31" transform="translate(215.999954 0)"/>
     <use xlink:href="#NanumGothicBold-c2e0" transform="translate(309.999939 0)"/>
    </g>
   </g>
   <g id="patch_5">
    <path d="M 144.566497 249.36183 
Q 144.566497 263.900661 144.566497 276.427031 
" clip-path="url(#pf8bf3c77d8)" style="fill: none; stroke: #6b7280; stroke-width: 1.8; stroke-linecap: round"/>
    <path d="M 147.366497 270.827031 
L 144.566497 276.427031 
L 141.766497 270.827031 
z
" clip-path="url(#pf8bf3c77d8)" style="fill: #6b7280; stroke: #6b7280; stroke-width: 1.8; stroke-linecap: round"/>
   </g>
   <g id="text_6">
    <!-- 충돌 검사 -->
    <g style="fill: #111827" transform="translate(122.346497 304.807835) scale(0.11 -0.11)">
     <defs>
      <path id="NanumGothicBold-cda9" d="M 5030 -13 
Q 5030 -237 4892 -429 
Q 4755 -621 4496 -758 
Q 4237 -896 3856 -976 
Q 3475 -1056 2995 -1056 
Q 2515 -1056 2134 -976 
Q 1754 -896 1494 -758 
Q 1235 -621 1097 -429 
Q 960 -237 960 -13 
Q 960 378 1395 662 
Q 1830 947 2630 1005 
L 2630 1427 
L 211 1427 
Q 122 1427 122 1523 
L 122 1933 
Q 122 1971 147 2000 
Q 173 2029 211 2029 
L 5779 2029 
Q 5811 2029 5843 1997 
Q 5875 1965 5875 1933 
L 5875 1523 
Q 5875 1485 5843 1456 
Q 5811 1427 5779 1427 
L 3366 1427 
L 3366 1005 
Q 4160 947 4595 662 
Q 5030 378 5030 -13 
z
M 4672 3936 
Q 4672 3827 4605 3724 
Q 4538 3622 4442 3539 
Q 4339 3437 4185 3341 
Q 4032 3245 3846 3155 
Q 4154 3072 4525 3001 
Q 4896 2931 5229 2886 
Q 5280 2874 5299 2832 
Q 5318 2790 5306 2752 
L 5203 2419 
Q 5190 2387 5148 2358 
Q 5107 2330 5050 2342 
Q 4582 2413 4041 2531 
Q 3501 2650 3002 2797 
Q 2534 2637 2016 2502 
Q 1498 2368 979 2278 
Q 934 2266 883 2282 
Q 832 2298 819 2336 
L 698 2701 
Q 685 2739 710 2780 
Q 736 2822 781 2835 
Q 1549 2976 2217 3165 
Q 2886 3354 3424 3603 
Q 3482 3629 3498 3645 
Q 3514 3661 3504 3670 
Q 3494 3680 3468 3683 
Q 3443 3686 3424 3686 
L 1216 3686 
Q 1126 3686 1126 3770 
L 1126 4160 
Q 1126 4237 1216 4237 
L 4122 4237 
Q 4403 4237 4537 4144 
Q 4672 4051 4672 3936 
z
M 2995 474 
Q 2355 474 2022 323 
Q 1690 173 1690 -19 
Q 1690 -211 2022 -364 
Q 2355 -518 2995 -518 
Q 3635 -518 3968 -364 
Q 4301 -211 4301 -19 
Q 4301 173 3968 323 
Q 3635 474 2995 474 
z
M 3859 4595 
Q 3859 4557 3827 4525 
Q 3795 4493 3750 4493 
L 2112 4493 
Q 2086 4493 2051 4518 
Q 2016 4544 2016 4589 
L 2016 4941 
Q 2016 4986 2051 5011 
Q 2086 5037 2112 5037 
L 3750 5037 
Q 3789 5037 3824 5005 
Q 3859 4973 3859 4934 
L 3859 4595 
z
" transform="scale(0.015625)"/>
      <path id="NanumGothicBold-b3cc" d="M 5011 3219 
Q 5011 3162 4988 3139 
Q 4966 3117 4934 3117 
L 3366 3117 
L 3366 2547 
L 5779 2547 
Q 5811 2547 5843 2515 
Q 5875 2483 5875 2451 
L 5875 2042 
Q 5875 2010 5843 1978 
Q 5811 1946 5779 1946 
L 211 1946 
Q 173 1946 147 1974 
Q 122 2003 122 2042 
L 122 2451 
Q 122 2490 147 2518 
Q 173 2547 211 2547 
L 2630 2547 
L 2630 3117 
L 1510 3117 
Q 1254 3117 1152 3235 
Q 1050 3354 1050 3578 
L 1050 4602 
Q 1050 4845 1158 4931 
Q 1267 5018 1510 5018 
L 4877 5018 
Q 4966 5018 4966 4934 
L 4966 4512 
Q 4966 4422 4877 4422 
L 1914 4422 
Q 1792 4422 1792 4314 
L 1792 3821 
Q 1792 3770 1817 3741 
Q 1843 3712 1914 3712 
L 4909 3712 
Q 4960 3712 4985 3699 
Q 5011 3686 5011 3635 
L 5011 3219 
z
M 5114 -845 
Q 5114 -877 5085 -905 
Q 5056 -934 5030 -934 
L 1459 -934 
Q 1210 -934 1120 -844 
Q 1030 -755 1030 -550 
L 1030 198 
Q 1030 403 1116 496 
Q 1203 589 1453 589 
L 4166 589 
Q 4218 589 4230 598 
Q 4243 608 4243 666 
L 4243 858 
Q 4243 928 4230 944 
Q 4218 960 4160 960 
L 1107 960 
Q 1075 960 1046 982 
Q 1018 1005 1018 1037 
L 1018 1466 
Q 1018 1498 1046 1523 
Q 1075 1549 1107 1549 
L 4531 1549 
Q 4794 1549 4880 1469 
Q 4966 1389 4966 1171 
L 4966 422 
Q 4966 198 4880 121 
Q 4794 45 4531 45 
L 1830 45 
Q 1779 45 1766 29 
Q 1754 13 1754 -38 
L 1754 -262 
Q 1754 -320 1766 -329 
Q 1779 -339 1837 -339 
L 5024 -339 
Q 5056 -339 5085 -361 
Q 5114 -384 5114 -429 
L 5114 -845 
z
" transform="scale(0.015625)"/>
      <path id="NanumGothicBold-ac80" d="M 5274 -467 
Q 5274 -710 5168 -812 
Q 5062 -915 4819 -915 
L 1965 -915 
Q 1677 -915 1577 -812 
Q 1478 -710 1478 -461 
L 1478 877 
Q 1478 1120 1584 1229 
Q 1690 1338 1933 1338 
L 4787 1338 
Q 5075 1338 5174 1232 
Q 5274 1126 5274 870 
L 5274 -467 
z
M 4544 666 
Q 4544 717 4528 733 
Q 4512 749 4461 749 
L 2291 749 
Q 2240 749 2224 736 
Q 2208 723 2208 672 
L 2208 -243 
Q 2208 -301 2224 -313 
Q 2240 -326 2291 -326 
L 4461 -326 
Q 4512 -326 4528 -313 
Q 4544 -301 4544 -243 
L 4544 666 
z
M 858 1530 
Q 787 1498 736 1507 
Q 685 1517 653 1581 
L 493 1920 
Q 467 1971 476 2022 
Q 486 2074 550 2106 
Q 1338 2438 1862 2928 
Q 2387 3418 2566 4000 
Q 2598 4102 2585 4140 
Q 2573 4179 2477 4179 
L 755 4179 
Q 710 4179 688 4211 
Q 666 4243 666 4282 
L 666 4704 
Q 666 4794 762 4794 
L 2912 4794 
Q 3194 4794 3309 4704 
Q 3424 4614 3424 4410 
Q 3424 4384 3417 4336 
Q 3411 4288 3401 4237 
Q 3392 4186 3382 4144 
Q 3373 4102 3366 4083 
Q 3123 3206 2496 2576 
Q 1869 1946 858 1530 
z
M 3302 2989 
L 3302 3443 
Q 3302 3475 3331 3497 
Q 3360 3520 3398 3520 
L 4544 3520 
L 4544 4979 
Q 4544 5062 4627 5062 
L 5197 5062 
Q 5280 5062 5280 4979 
L 5280 1741 
Q 5280 1658 5197 1658 
L 4627 1658 
Q 4544 1658 4544 1741 
L 4544 2912 
L 3398 2912 
Q 3360 2912 3331 2934 
Q 3302 2957 3302 2989 
z
" transform="scale(0.015625)"/>
      <path id="NanumGothicBold-c0ac" d="M 5971 2202 
Q 5971 2163 5942 2137 
Q 5914 2112 5882 2112 
L 5011 2112 
L 5011 -928 
Q 5011 -1011 4928 -1011 
L 4358 -1011 
Q 4275 -1011 4275 -928 
L 4275 4979 
Q 4275 5062 4358 5062 
L 4928 5062 
Q 5011 5062 5011 4979 
L 5011 2726 
L 5882 2726 
Q 5914 2726 5942 2704 
Q 5971 2682 5971 2650 
L 5971 2202 
z
M 730 403 
Q 608 307 506 410 
L 205 691 
Q 115 781 224 890 
Q 640 1267 934 1728 
Q 1229 2189 1408 2714 
Q 1485 2944 1539 3171 
Q 1594 3398 1626 3632 
Q 1658 3866 1670 4118 
Q 1683 4371 1677 4653 
Q 1677 4691 1705 4720 
Q 1734 4749 1766 4749 
L 2336 4730 
Q 2368 4730 2393 4701 
Q 2419 4672 2419 4634 
Q 2419 4243 2393 3907 
Q 2368 3571 2310 3258 
Q 2374 2957 2508 2656 
Q 2643 2355 2822 2076 
Q 3002 1798 3210 1564 
Q 3418 1331 3622 1165 
Q 3725 1088 3635 966 
L 3366 640 
Q 3334 595 3280 588 
Q 3226 582 3162 627 
Q 3008 749 2835 928 
Q 2662 1107 2505 1315 
Q 2349 1523 2214 1744 
Q 2080 1965 1997 2170 
Q 1882 1901 1734 1645 
Q 1587 1389 1420 1161 
Q 1254 934 1078 739 
Q 902 544 730 403 
z
" transform="scale(0.015625)"/>
     </defs>
     <use xlink:href="#NanumGothicBold-cda9"/>
     <use xlink:href="#NanumGothicBold-b3cc" transform="translate(93.999985 0)"/>
     <use xlink:href="#NanumGothicBold-20" transform="translate(187.999969 0)"/>
     <use xlink:href="#NanumGothicBold-ac80" transform="translate(215.999954 0)"/>
     <use xlink:href="#NanumGothicBold-c0ac" transform="translate(309.999939 0)"/>
    </g>
   </g>
   <g id="patch_6">
    <path d="M 144.566497 310.528753 
Q 144.566497 325.067585 144.566497 337.593955 
" clip-path="url(#pf8bf3c77d8)" style="fill: none; stroke: #6b7280; stroke-width: 1.8; stroke-linecap: round"/>
    <path d="M 147.366497 331.993955 
L 144.566497 337.593955 
L 141.766497 331.993955 
z
" clip-path="url(#pf8bf3c77d8)" style="fill: #6b7280; stroke: #6b7280; stroke-width: 1.8; stroke-linecap: round"/>
   </g>
   <g id="text_7">
    <!-- 밀어내기 -->
    <g style="fill: #111827" transform="translate(123.886497 365.974759) scale(0.11 -0.11)">
     <defs>
      <path id="NanumGothicBold-bc00" d="M 3456 2566 
Q 3456 2323 3357 2224 
Q 3258 2125 3014 2125 
L 1082 2125 
Q 858 2125 749 2224 
Q 640 2323 640 2566 
L 640 4422 
Q 640 4666 739 4762 
Q 838 4858 1082 4858 
L 3014 4858 
Q 3258 4858 3357 4758 
Q 3456 4659 3456 4416 
L 3456 2566 
z
M 2739 4186 
Q 2739 4237 2723 4253 
Q 2707 4269 2656 4269 
L 1440 4269 
Q 1389 4269 1373 4256 
Q 1357 4243 1357 4192 
L 1357 2797 
Q 1357 2739 1373 2726 
Q 1389 2714 1440 2714 
L 2656 2714 
Q 2707 2714 2723 2726 
Q 2739 2739 2739 2797 
L 2739 4186 
z
M 5216 1946 
Q 5216 1856 5126 1856 
L 4563 1856 
Q 4531 1856 4502 1881 
Q 4474 1907 4474 1946 
L 4474 4979 
Q 4474 5011 4502 5036 
Q 4531 5062 4563 5062 
L 5126 5062 
Q 5216 5062 5216 4979 
L 5216 1946 
z
M 5376 -909 
Q 5376 -941 5347 -969 
Q 5318 -998 5293 -998 
L 1894 -998 
Q 1645 -998 1552 -902 
Q 1459 -806 1459 -602 
L 1459 173 
Q 1459 378 1548 467 
Q 1638 557 1888 557 
L 4416 557 
Q 4474 557 4486 576 
Q 4499 595 4499 653 
L 4499 877 
Q 4499 947 4486 963 
Q 4474 979 4410 979 
L 1536 979 
Q 1504 979 1475 1001 
Q 1446 1024 1446 1056 
L 1446 1478 
Q 1446 1510 1475 1539 
Q 1504 1568 1536 1568 
L 4774 1568 
Q 5037 1568 5126 1478 
Q 5216 1389 5216 1171 
L 5216 403 
Q 5216 179 5126 96 
Q 5037 13 4774 13 
L 2266 13 
Q 2208 13 2195 -3 
Q 2182 -19 2182 -70 
L 2182 -333 
Q 2182 -390 2195 -400 
Q 2208 -410 2272 -410 
L 5286 -410 
Q 5318 -410 5347 -435 
Q 5376 -461 5376 -499 
L 5376 -909 
z
" transform="scale(0.015625)"/>
      <path id="NanumGothicBold-c5b4" d="M 2061 454 
Q 1696 454 1405 611 
Q 1114 768 912 1046 
Q 710 1325 601 1715 
Q 493 2106 493 2573 
Q 493 3053 601 3443 
Q 710 3834 912 4109 
Q 1114 4384 1405 4534 
Q 1696 4685 2061 4685 
Q 2400 4685 2675 4557 
Q 2950 4429 3152 4195 
Q 3354 3962 3475 3629 
Q 3597 3296 3629 2886 
L 4582 2886 
L 4582 4979 
Q 4582 5062 4666 5062 
L 5235 5062 
Q 5318 5062 5318 4979 
L 5318 -928 
Q 5318 -1011 5235 -1011 
L 4666 -1011 
Q 4582 -1011 4582 -928 
L 4582 2272 
L 3629 2272 
Q 3597 1856 3475 1520 
Q 3354 1184 3152 947 
Q 2950 710 2675 582 
Q 2400 454 2061 454 
z
M 2918 2573 
Q 2918 2867 2860 3132 
Q 2803 3398 2694 3596 
Q 2586 3795 2426 3913 
Q 2266 4032 2061 4032 
Q 1862 4032 1705 3913 
Q 1549 3795 1440 3596 
Q 1331 3398 1273 3132 
Q 1216 2867 1216 2573 
Q 1216 2285 1273 2019 
Q 1331 1754 1440 1552 
Q 1549 1350 1705 1228 
Q 1862 1107 2061 1107 
Q 2266 1107 2426 1228 
Q 2586 1350 2694 1552 
Q 2803 1754 2860 2019 
Q 2918 2285 2918 2573 
z
" transform="scale(0.015625)"/>
      <path id="NanumGothicBold-b0b4" d="M 4819 4979 
Q 4819 5011 4848 5036 
Q 4877 5062 4915 5062 
L 5459 5062 
Q 5549 5062 5549 4979 
L 5549 -928 
Q 5549 -1011 5459 -1011 
L 4909 -1011 
Q 4877 -1011 4848 -985 
Q 4819 -960 4819 -928 
L 4819 2099 
L 4211 2099 
L 4211 -685 
Q 4211 -723 4182 -748 
Q 4154 -774 4122 -774 
L 3603 -774 
Q 3565 -774 3536 -748 
Q 3507 -723 3507 -685 
L 3507 4864 
Q 3507 4896 3536 4921 
Q 3565 4947 3603 4947 
L 4122 4947 
Q 4154 4947 4182 4921 
Q 4211 4896 4211 4864 
L 4211 2714 
L 4819 2714 
L 4819 4979 
z
M 3296 1082 
Q 3302 1037 3270 1014 
Q 3238 992 3194 979 
Q 2970 915 2698 867 
Q 2426 819 2134 793 
Q 1843 768 1558 758 
Q 1274 749 1024 762 
Q 794 774 672 899 
Q 550 1024 550 1242 
L 550 4538 
Q 550 4570 579 4598 
Q 608 4627 646 4627 
L 1178 4627 
Q 1216 4627 1248 4598 
Q 1280 4570 1280 4538 
L 1280 1485 
Q 1280 1389 1395 1382 
Q 1555 1363 1763 1369 
Q 1971 1376 2198 1401 
Q 2426 1427 2659 1465 
Q 2893 1504 3104 1555 
Q 3136 1562 3181 1549 
Q 3226 1536 3232 1485 
L 3296 1082 
z
" transform="scale(0.015625)"/>
      <path id="NanumGothicBold-ae30" d="M 5274 -928 
Q 5274 -1011 5190 -1011 
L 4621 -1011 
Q 4538 -1011 4538 -928 
L 4538 4979 
Q 4538 5062 4621 5062 
L 5190 5062 
Q 5274 5062 5274 4979 
L 5274 -928 
z
M 3546 4102 
Q 3494 3482 3286 2931 
Q 3078 2381 2736 1907 
Q 2394 1434 1926 1030 
Q 1459 627 896 294 
Q 845 262 784 272 
Q 723 282 691 333 
L 474 672 
Q 442 723 454 771 
Q 467 819 512 845 
Q 1466 1408 2038 2144 
Q 2611 2880 2784 3757 
Q 2810 3885 2771 3926 
Q 2733 3968 2611 3968 
L 806 3968 
Q 717 3968 717 4058 
L 717 4506 
Q 717 4582 806 4582 
L 3098 4582 
Q 3386 4582 3475 4464 
Q 3565 4346 3546 4102 
z
" transform="scale(0.015625)"/>
     </defs>
     <use xlink:href="#NanumGothicBold-bc00"/>
     <use xlink:href="#NanumGothicBold-c5b4" transform="translate(93.999985 0)"/>
     <use xlink:href="#NanumGothicBold-b0b4" transform="translate(187.999969 0)"/>
     <use xlink:href="#NanumGothicBold-ae30" transform="translate(281.999954 0)"/>
    </g>
   </g>
   <g id="patch_7">
    <path d="M 144.566497 371.695677 
Q 144.566497 386.234508 144.566497 398.760878 
" clip-path="url(#pf8bf3c77d8)" style="fill: none; stroke: #6b7280; stroke-width: 1.8; stroke-linecap: round"/>
    <path d="M 147.366497 393.160878 
L 144.566497 398.760878 
L 141.766497 393.160878 
z
" clip-path="url(#pf8bf3c77d8)" style="fill: #6b7280; stroke: #6b7280; stroke-width: 1.8; stroke-linecap: round"/>
   </g>
   <g id="text_8">
    <!-- 속도 보정 -->
    <g style="fill: #111827" transform="translate(122.346497 427.141683) scale(0.11 -0.11)">
     <defs>
      <path id="NanumGothicBold-bcf4" d="M 5882 122 
Q 5882 90 5850 58 
Q 5818 26 5786 26 
L 211 26 
Q 173 26 147 58 
Q 122 90 122 122 
L 122 538 
Q 122 576 147 608 
Q 173 640 211 640 
L 2630 640 
L 2630 1811 
L 1459 1811 
Q 1178 1811 1075 1907 
Q 973 2003 973 2266 
L 973 4710 
Q 973 4742 998 4764 
Q 1024 4787 1056 4787 
L 1619 4787 
Q 1651 4787 1680 4764 
Q 1709 4742 1709 4710 
L 1709 3808 
L 4282 3808 
L 4282 4717 
Q 4282 4749 4307 4774 
Q 4333 4800 4365 4800 
L 4934 4800 
Q 4966 4800 4992 4774 
Q 5018 4749 5018 4717 
L 5018 2240 
Q 5018 2029 4915 1920 
Q 4813 1811 4538 1811 
L 3366 1811 
L 3366 640 
L 5786 640 
Q 5818 640 5850 605 
Q 5882 570 5882 538 
L 5882 122 
z
M 4282 3213 
L 1709 3213 
L 1709 2522 
Q 1709 2413 1824 2413 
L 4166 2413 
Q 4282 2413 4282 2522 
L 4282 3213 
z
" transform="scale(0.015625)"/>
      <path id="NanumGothicBold-c815" d="M 5325 198 
Q 5325 -70 5181 -294 
Q 5037 -518 4777 -678 
Q 4518 -838 4166 -924 
Q 3814 -1011 3405 -1011 
Q 2963 -1011 2611 -924 
Q 2259 -838 2012 -681 
Q 1766 -525 1635 -301 
Q 1504 -77 1504 198 
Q 1504 467 1635 688 
Q 1766 909 2012 1069 
Q 2259 1229 2611 1315 
Q 2963 1402 3405 1402 
Q 3814 1402 4166 1315 
Q 4518 1229 4777 1072 
Q 5037 915 5181 694 
Q 5325 474 5325 198 
z
M 781 1530 
Q 742 1510 678 1513 
Q 614 1517 576 1587 
L 384 1901 
Q 352 1952 368 2009 
Q 384 2067 448 2093 
Q 806 2253 1126 2467 
Q 1446 2682 1705 2925 
Q 1965 3168 2157 3430 
Q 2349 3693 2451 3955 
Q 2477 4013 2473 4057 
Q 2470 4102 2368 4102 
L 781 4102 
Q 742 4102 716 4134 
Q 691 4166 691 4205 
L 691 4627 
Q 691 4666 720 4691 
Q 749 4717 787 4717 
L 2810 4717 
Q 3091 4717 3228 4614 
Q 3366 4512 3334 4301 
Q 3322 4230 3299 4153 
Q 3277 4077 3258 4019 
Q 3174 3789 3056 3568 
Q 2938 3347 2790 3136 
Q 2906 3021 3046 2905 
Q 3187 2790 3334 2684 
Q 3482 2579 3629 2492 
Q 3776 2406 3904 2349 
Q 4032 2285 3962 2170 
L 3763 1824 
Q 3693 1715 3565 1779 
Q 3443 1837 3296 1933 
Q 3149 2029 2992 2144 
Q 2835 2259 2678 2390 
Q 2522 2522 2387 2662 
Q 2054 2330 1651 2042 
Q 1248 1754 781 1530 
z
M 3450 3098 
L 3450 3546 
Q 3450 3578 3478 3600 
Q 3507 3622 3539 3622 
L 4544 3622 
L 4544 4979 
Q 4544 5062 4627 5062 
L 5197 5062 
Q 5280 5062 5280 4979 
L 5280 1581 
Q 5280 1491 5197 1491 
L 4627 1491 
Q 4544 1491 4544 1581 
L 4544 3021 
L 3539 3021 
Q 3507 3021 3478 3043 
Q 3450 3066 3450 3098 
z
M 4563 179 
Q 4563 339 4470 457 
Q 4378 576 4218 656 
Q 4058 736 3850 777 
Q 3642 819 3405 819 
Q 2893 819 2576 659 
Q 2259 499 2259 179 
Q 2259 26 2345 -86 
Q 2432 -198 2582 -275 
Q 2733 -352 2944 -390 
Q 3155 -429 3405 -429 
Q 3642 -429 3850 -390 
Q 4058 -352 4218 -275 
Q 4378 -198 4470 -86 
Q 4563 26 4563 179 
z
" transform="scale(0.015625)"/>
     </defs>
     <use xlink:href="#NanumGothicBold-c18d"/>
     <use xlink:href="#NanumGothicBold-b3c4" transform="translate(93.999985 0)"/>
     <use xlink:href="#NanumGothicBold-20" transform="translate(187.999969 0)"/>
     <use xlink:href="#NanumGothicBold-bcf4" transform="translate(215.999954 0)"/>
     <use xlink:href="#NanumGothicBold-c815" transform="translate(309.999939 0)"/>
    </g>
   </g>
  </g>
 </g>
 <defs>
  <clipPath id="pf8bf3c77d8">
   <rect x="8.64" y="29.880856" width="271.852995" height="446.292"/>
  </clipPath>
 </defs>
</svg>
