<?xml version="1.0" encoding="utf-8" standalone="no"?>
<!DOCTYPE svg PUBLIC "-//W3C//DTD SVG 1.1//EN"
  "http://www.w3.org/Graphics/SVG/1.1/DTD/svg11.dtd">
<svg xmlns:xlink="http://www.w3.org/1999/xlink" width="279.36pt" height="1043.909751pt" viewBox="0 0 279.36 1043.909751" xmlns="http://www.w3.org/2000/svg" version="1.1">
 <metadata>
  <rdf:RDF xmlns:dc="http://purl.org/dc/elements/1.1/" xmlns:cc="http://creativecommons.org/ns#" xmlns:rdf="http://www.w3.org/1999/02/22-rdf-syntax-ns#">
   <cc:Work>
    <dc:type rdf:resource="http://purl.org/dc/dcmitype/StillImage"/>
    <dc:date>2026-07-08T05:12:54.300607</dc:date>
    <dc:format>image/svg+xml</dc:format>
    <dc:creator>
     <cc:Agent>
      <dc:title>Matplotlib v3.10.8, https://matplotlib.org/</dc:title>
     </cc:Agent>
    </dc:creator>
   </cc:Work>
  </rdf:RDF>
 </metadata>
 <defs>
  <style type="text/css">*{stroke-linejoin: round; stroke-linecap: butt}</style>
 </defs>
 <g id="figure_1">
  <g id="patch_1">
   <path d="M 0 1043.909751 
L 279.36 1043.909751 
L 279.36 0 
L 0 0 
z
" style="fill: #ffffff"/>
  </g>
  <g id="axes_1">
   <g id="patch_2">
    <path d="M 5.76 492.5232 
L 273.6 492.5232 
L 273.6 5.76 
L 5.76 5.76 
z
" clip-path="url(#pff33a81b98)" style="fill: #ffffff; stroke: #e5e7eb; stroke-linejoin: miter"/>
   </g>
   <g id="text_1">
    <!-- 좌표 -->
    <g style="fill: #111827" transform="translate(16.4736 72.158615) scale(0.11 -0.11)">
     <defs>
      <path id="NanumGothicCoding-c88c" d="M 3546 3808 
Q 3366 3610 3155 3421 
Q 2944 3232 2707 3053 
Q 3014 2886 3382 2726 
Q 3750 2566 4096 2458 
Q 4179 2432 4141 2349 
L 4045 2144 
Q 4013 2080 3930 2106 
Q 3565 2214 3158 2400 
Q 2752 2586 2362 2803 
Q 1978 2534 1568 2313 
Q 1158 2093 755 1939 
Q 672 1907 640 1971 
L 544 2176 
Q 525 2214 541 2243 
Q 557 2272 582 2285 
Q 1370 2618 2019 3040 
Q 2669 3462 3085 3904 
Q 3117 3936 3110 3987 
Q 3104 4038 3027 4038 
L 954 4038 
Q 870 4038 870 4122 
L 870 4346 
Q 870 4422 954 4422 
L 3219 4422 
Q 3392 4422 3504 4371 
Q 3616 4320 3664 4237 
Q 3712 4154 3686 4042 
Q 3661 3930 3546 3808 
z
M 5120 -806 
Q 5120 -896 5030 -896 
L 4768 -896 
Q 4678 -896 4678 -806 
L 4678 4915 
Q 4678 5005 4768 5005 
L 5030 5005 
Q 5120 5005 5120 4915 
L 5120 2413 
L 6003 2413 
Q 6042 2413 6070 2390 
Q 6099 2368 6099 2330 
L 6099 2112 
Q 6099 2080 6070 2054 
Q 6042 2029 6003 2029 
L 5120 2029 
L 5120 -806 
z
M 4282 890 
Q 4384 909 4390 845 
L 4429 621 
Q 4442 544 4346 531 
Q 4128 493 3878 461 
Q 3629 429 3373 400 
Q 3117 371 2861 348 
Q 2605 326 2374 314 
Q 2195 301 1952 294 
Q 1709 288 1446 285 
Q 1184 282 934 282 
Q 685 282 499 288 
Q 461 288 432 313 
Q 403 339 403 371 
L 403 589 
Q 403 627 432 649 
Q 461 672 499 672 
Q 634 666 826 662 
Q 1018 659 1235 659 
Q 1453 659 1673 665 
Q 1894 672 2099 678 
L 2099 1952 
Q 2099 1990 2121 2019 
Q 2144 2048 2182 2048 
L 2458 2048 
Q 2490 2048 2515 2019 
Q 2541 1990 2541 1952 
L 2541 698 
Q 2752 710 2982 729 
Q 3213 749 3440 771 
Q 3667 794 3881 826 
Q 4096 858 4282 890 
z
" transform="scale(0.015625)"/>
      <path id="NanumGothicCoding-d45c" d="M 5357 2016 
Q 5357 1933 5261 1933 
L 4390 1933 
L 4390 499 
L 5920 499 
Q 5952 499 5984 476 
Q 6016 454 6016 416 
L 6016 198 
Q 6016 166 5984 140 
Q 5952 115 5920 115 
L 480 115 
Q 442 115 413 140 
Q 384 166 384 198 
L 384 416 
Q 384 454 413 476 
Q 442 499 480 499 
L 1958 499 
L 1958 1933 
L 1062 1933 
Q 1030 1933 1001 1958 
Q 973 1984 973 2022 
L 973 2221 
Q 973 2259 1001 2284 
Q 1030 2310 1062 2310 
L 1875 2310 
L 1875 4211 
L 1190 4211 
Q 1158 4211 1129 4236 
Q 1101 4262 1101 4301 
L 1101 4499 
Q 1101 4538 1129 4563 
Q 1158 4589 1190 4589 
L 5133 4589 
Q 5229 4589 5229 4506 
L 5229 4294 
Q 5229 4211 5133 4211 
L 4480 4211 
L 4480 2310 
L 5261 2310 
Q 5357 2310 5357 2227 
L 5357 2016 
z
M 2310 2310 
L 4045 2310 
L 4045 4211 
L 2310 4211 
L 2310 2310 
z
M 2394 499 
L 3955 499 
L 3955 1933 
L 2394 1933 
L 2394 499 
z
" transform="scale(0.015625)"/>
     </defs>
     <use xlink:href="#NanumGothicCoding-c88c"/>
     <use xlink:href="#NanumGothicCoding-d45c" transform="translate(99.999985 0)"/>
    </g>
   </g>
   <g id="text_2">
    <!--  ↓ -->
    <g style="fill: #111827" transform="translate(16.4736 126.515536) scale(0.11 -0.11)">
     <defs>
      <path id="NanumGothicCoding-20" transform="scale(0.015625)"/>
      <path id="NanumGothicCoding-2193" d="M 4243 -115 
L 3200 -1274 
L 2157 -115 
L 3123 -582 
L 3123 5120 
L 3277 5120 
L 3277 -582 
L 4243 -115 
z
" transform="scale(0.015625)"/>
     </defs>
     <use xlink:href="#NanumGothicCoding-20"/>
     <use xlink:href="#NanumGothicCoding-2193" transform="translate(49.999985 0)"/>
    </g>
   </g>
   <g id="text_3">
    <!-- 벡터 -->
    <g style="fill: #111827" transform="translate(16.4736 179.291207) scale(0.11 -0.11)">
     <defs>
      <path id="NanumGothicCoding-bca1" d="M 1190 1984 
Q 1037 1984 944 2003 
Q 851 2022 800 2076 
Q 749 2131 729 2217 
Q 710 2304 710 2438 
L 710 4704 
Q 710 4736 736 4758 
Q 762 4781 794 4781 
L 1069 4781 
Q 1101 4781 1123 4755 
Q 1146 4730 1146 4704 
L 1146 3725 
L 2669 3725 
L 2669 4698 
Q 2669 4730 2691 4755 
Q 2714 4781 2746 4781 
L 3021 4781 
Q 3053 4781 3078 4758 
Q 3104 4736 3104 4704 
L 3104 3469 
L 4000 3469 
L 4000 4806 
Q 4000 4896 4090 4896 
L 4333 4896 
Q 4422 4896 4422 4806 
L 4422 1734 
Q 4422 1645 4333 1645 
L 4090 1645 
Q 4000 1645 4000 1734 
L 4000 3085 
L 3104 3085 
L 3104 2394 
Q 3104 2150 3001 2067 
Q 2899 1984 2618 1984 
L 1190 1984 
z
M 1632 1114 
Q 1632 1152 1664 1171 
Q 1696 1190 1728 1190 
L 5069 1190 
Q 5370 1190 5462 1078 
Q 5555 966 5555 704 
L 5555 -832 
Q 5555 -922 5466 -922 
L 5203 -922 
Q 5114 -922 5114 -832 
L 5114 672 
Q 5114 762 5085 784 
Q 5056 806 4966 806 
L 1728 806 
Q 1696 806 1664 828 
Q 1632 851 1632 883 
L 1632 1114 
z
M 1146 3347 
L 1146 2515 
Q 1146 2419 1178 2390 
Q 1210 2362 1299 2362 
L 2515 2362 
Q 2605 2362 2637 2390 
Q 2669 2419 2669 2515 
L 2669 3347 
L 1146 3347 
z
M 5555 1638 
Q 5555 1549 5466 1549 
L 5222 1549 
Q 5133 1549 5133 1638 
L 5133 4915 
Q 5133 5005 5222 5005 
L 5466 5005 
Q 5555 5005 5555 4915 
L 5555 1638 
z
" transform="scale(0.015625)"/>
      <path id="NanumGothicCoding-d130" d="M 3174 2464 
Q 2989 2451 2774 2441 
Q 2560 2432 2342 2425 
Q 2125 2419 1920 2419 
Q 1715 2419 1549 2426 
L 1280 2426 
L 1280 1229 
Q 1280 1133 1312 1097 
Q 1344 1062 1434 1062 
Q 1971 1050 2598 1098 
Q 3226 1146 3782 1254 
Q 3891 1274 3910 1184 
L 3942 998 
Q 3955 941 3936 918 
Q 3917 896 3859 883 
Q 3590 826 3270 784 
Q 2950 742 2617 713 
Q 2285 685 1955 672 
Q 1626 659 1338 666 
Q 1050 672 944 800 
Q 838 928 838 1197 
L 838 4077 
Q 838 4346 940 4435 
Q 1043 4525 1325 4525 
L 3334 4525 
Q 3418 4525 3418 4448 
L 3418 4218 
Q 3418 4141 3334 4141 
L 1408 4141 
Q 1318 4141 1299 4118 
Q 1280 4096 1280 4000 
L 1280 2797 
L 1549 2797 
Q 1709 2797 1910 2797 
Q 2112 2797 2329 2803 
Q 2547 2810 2764 2816 
Q 2982 2822 3174 2835 
Q 3213 2842 3235 2816 
Q 3258 2790 3258 2758 
L 3258 2541 
Q 3258 2477 3174 2464 
z
M 5344 -806 
Q 5344 -896 5254 -896 
L 4992 -896 
Q 4902 -896 4902 -806 
L 4902 2470 
L 3814 2470 
Q 3731 2470 3731 2547 
L 3731 2778 
Q 3731 2854 3814 2854 
L 4902 2854 
L 4902 4915 
Q 4902 5005 4992 5005 
L 5254 5005 
Q 5344 5005 5344 4915 
L 5344 -806 
z
" transform="scale(0.015625)"/>
     </defs>
     <use xlink:href="#NanumGothicCoding-bca1"/>
     <use xlink:href="#NanumGothicCoding-d130" transform="translate(99.999985 0)"/>
    </g>
   </g>
   <g id="text_4">
    <!--  ↓ -->
    <g style="fill: #111827" transform="translate(16.4736 233.60344) scale(0.11 -0.11)">
     <use xlink:href="#NanumGothicCoding-20"/>
     <use xlink:href="#NanumGothicCoding-2193" transform="translate(49.999985 0)"/>
    </g>
   </g>
   <g id="text_5">
    <!-- 길이 / 방향 -->
    <g style="fill: #111827" transform="translate(16.4736 286.379111) scale(0.11 -0.11)">
     <defs>
      <path id="NanumGothicCoding-ae38" d="M 5344 1952 
Q 5344 1862 5254 1862 
L 4992 1862 
Q 4902 1862 4902 1952 
L 4902 4915 
Q 4902 5005 4992 5005 
L 5254 5005 
Q 5344 5005 5344 4915 
L 5344 1952 
z
M 3622 4326 
Q 3546 3904 3366 3545 
Q 3187 3187 2876 2867 
Q 2566 2547 2112 2262 
Q 1658 1978 1030 1709 
Q 928 1664 890 1747 
L 794 1958 
Q 768 2010 781 2038 
Q 794 2067 845 2086 
Q 2912 2938 3142 4218 
Q 3181 4397 2989 4397 
L 1018 4397 
Q 941 4397 941 4480 
L 941 4704 
Q 941 4781 1018 4781 
L 3136 4781 
Q 3443 4781 3555 4672 
Q 3667 4563 3622 4326 
z
M 5478 -838 
Q 5478 -870 5449 -892 
Q 5421 -915 5395 -915 
L 2176 -915 
Q 1875 -915 1782 -803 
Q 1690 -691 1690 -422 
L 1690 58 
Q 1690 326 1802 419 
Q 1914 512 2202 512 
L 4762 512 
Q 4851 512 4876 537 
Q 4902 563 4902 659 
L 4902 1024 
Q 4902 1120 4880 1145 
Q 4858 1171 4768 1171 
L 1766 1171 
Q 1734 1171 1705 1190 
Q 1677 1210 1677 1242 
L 1677 1472 
Q 1677 1504 1705 1523 
Q 1734 1542 1766 1542 
L 4838 1542 
Q 4992 1542 5088 1520 
Q 5184 1498 5241 1446 
Q 5299 1395 5321 1302 
Q 5344 1210 5344 1075 
L 5344 595 
Q 5344 326 5232 233 
Q 5120 141 4832 141 
L 2266 141 
Q 2176 141 2153 115 
Q 2131 90 2131 -6 
L 2131 -397 
Q 2131 -486 2156 -515 
Q 2182 -544 2272 -544 
L 5389 -544 
Q 5421 -544 5449 -563 
Q 5478 -582 5478 -614 
L 5478 -838 
z
" transform="scale(0.015625)"/>
      <path id="NanumGothicCoding-c774" d="M 3846 2566 
Q 3846 2208 3760 1843 
Q 3674 1478 3488 1184 
Q 3302 890 3011 701 
Q 2720 512 2310 512 
Q 1888 512 1597 697 
Q 1306 883 1130 1180 
Q 954 1478 877 1843 
Q 800 2208 800 2566 
Q 800 2944 877 3312 
Q 954 3680 1130 3974 
Q 1306 4269 1597 4448 
Q 1888 4627 2310 4627 
Q 2720 4627 3011 4448 
Q 3302 4269 3488 3977 
Q 3674 3686 3760 3318 
Q 3846 2950 3846 2566 
z
M 3392 2573 
Q 3392 2867 3331 3168 
Q 3270 3469 3142 3709 
Q 3014 3949 2809 4099 
Q 2605 4250 2310 4250 
Q 2003 4250 1801 4099 
Q 1600 3949 1478 3709 
Q 1357 3469 1305 3168 
Q 1254 2867 1254 2573 
Q 1254 2291 1302 1993 
Q 1350 1696 1472 1449 
Q 1594 1203 1798 1046 
Q 2003 890 2310 890 
Q 2605 890 2809 1046 
Q 3014 1203 3142 1449 
Q 3270 1696 3331 1993 
Q 3392 2291 3392 2573 
z
M 5344 -806 
Q 5344 -896 5254 -896 
L 4992 -896 
Q 4902 -896 4902 -806 
L 4902 4915 
Q 4902 5005 4992 5005 
L 5254 5005 
Q 5344 5005 5344 4915 
L 5344 -806 
z
" transform="scale(0.015625)"/>
      <path id="NanumGothicCoding-2f" d="M 2650 4410 
Q 2726 4410 2736 4397 
Q 2746 4384 2720 4314 
L 934 -486 
Q 909 -544 896 -553 
Q 883 -563 813 -563 
L 544 -563 
Q 467 -563 457 -550 
Q 448 -538 474 -474 
L 2259 4320 
Q 2285 4384 2301 4397 
Q 2317 4410 2400 4410 
L 2650 4410 
z
" transform="scale(0.015625)"/>
      <path id="NanumGothicCoding-bc29" d="M 5197 250 
Q 5197 -26 5049 -243 
Q 4902 -461 4649 -611 
Q 4397 -762 4061 -842 
Q 3725 -922 3341 -922 
Q 2925 -922 2585 -842 
Q 2246 -762 2003 -611 
Q 1760 -461 1625 -243 
Q 1491 -26 1491 250 
Q 1491 518 1625 732 
Q 1760 947 2003 1097 
Q 2246 1248 2585 1328 
Q 2925 1408 3341 1408 
Q 3725 1408 4061 1328 
Q 4397 1248 4649 1101 
Q 4902 954 5049 739 
Q 5197 525 5197 250 
z
M 1350 1971 
Q 1197 1971 1104 1990 
Q 1011 2010 960 2064 
Q 909 2118 889 2204 
Q 870 2291 870 2426 
L 870 4730 
Q 870 4762 896 4784 
Q 922 4806 954 4806 
L 1229 4806 
Q 1261 4806 1283 4780 
Q 1306 4755 1306 4730 
L 1306 3731 
L 3174 3731 
L 3174 4723 
Q 3174 4755 3196 4780 
Q 3219 4806 3251 4806 
L 3526 4806 
Q 3558 4806 3584 4784 
Q 3610 4762 3610 4730 
L 3610 2381 
Q 3610 2138 3507 2054 
Q 3405 1971 3123 1971 
L 1350 1971 
z
M 4742 230 
Q 4742 422 4627 569 
Q 4512 717 4317 816 
Q 4122 915 3866 969 
Q 3610 1024 3334 1024 
Q 3027 1024 2771 969 
Q 2515 915 2332 816 
Q 2150 717 2048 569 
Q 1946 422 1946 230 
Q 1946 45 2048 -99 
Q 2150 -243 2332 -339 
Q 2515 -435 2771 -486 
Q 3027 -538 3334 -538 
Q 3610 -538 3866 -486 
Q 4122 -435 4317 -339 
Q 4512 -243 4627 -99 
Q 4742 45 4742 230 
z
M 5120 1530 
Q 5120 1440 5030 1440 
L 4768 1440 
Q 4678 1440 4678 1530 
L 4678 4915 
Q 4678 5005 4768 5005 
L 5030 5005 
Q 5120 5005 5120 4915 
L 5120 3373 
L 6003 3373 
Q 6042 3373 6070 3347 
Q 6099 3322 6099 3283 
L 6099 3072 
Q 6099 3040 6070 3014 
Q 6042 2989 6003 2989 
L 5120 2989 
L 5120 1530 
z
M 1306 3354 
L 1306 2502 
Q 1306 2406 1338 2377 
Q 1370 2349 1459 2349 
L 3021 2349 
Q 3110 2349 3142 2377 
Q 3174 2406 3174 2502 
L 3174 3354 
L 1306 3354 
z
" transform="scale(0.015625)"/>
      <path id="NanumGothicCoding-d5a5" d="M 5197 64 
Q 5197 -160 5049 -339 
Q 4902 -518 4649 -646 
Q 4397 -774 4061 -844 
Q 3725 -915 3341 -915 
Q 2925 -915 2585 -844 
Q 2246 -774 2003 -646 
Q 1760 -518 1625 -339 
Q 1491 -160 1491 64 
Q 1491 282 1625 458 
Q 1760 634 2003 762 
Q 2246 890 2585 960 
Q 2925 1030 3341 1030 
Q 3725 1030 4061 963 
Q 4397 896 4649 768 
Q 4902 640 5049 461 
Q 5197 282 5197 64 
z
M 3725 2413 
Q 3725 2182 3619 1993 
Q 3514 1805 3331 1664 
Q 3149 1523 2896 1446 
Q 2643 1370 2349 1370 
Q 2048 1370 1798 1446 
Q 1549 1523 1363 1664 
Q 1178 1805 1075 1997 
Q 973 2189 973 2413 
Q 973 2643 1075 2835 
Q 1178 3027 1363 3161 
Q 1549 3296 1798 3373 
Q 2048 3450 2349 3450 
Q 2643 3450 2896 3373 
Q 3149 3296 3331 3158 
Q 3514 3021 3619 2829 
Q 3725 2637 3725 2413 
z
M 4742 45 
Q 4742 192 4627 307 
Q 4512 422 4317 502 
Q 4122 582 3866 624 
Q 3610 666 3334 666 
Q 3027 666 2771 624 
Q 2515 582 2332 502 
Q 2150 422 2048 307 
Q 1946 192 1946 45 
Q 1946 -96 2048 -208 
Q 2150 -320 2332 -397 
Q 2515 -474 2771 -512 
Q 3027 -550 3334 -550 
Q 3610 -550 3866 -512 
Q 4122 -474 4317 -397 
Q 4512 -320 4627 -208 
Q 4742 -96 4742 45 
z
M 5120 1254 
Q 5120 1165 5030 1165 
L 4768 1165 
Q 4678 1165 4678 1254 
L 4678 4915 
Q 4678 5005 4768 5005 
L 5030 5005 
Q 5120 5005 5120 4915 
L 5120 3776 
L 6003 3776 
Q 6042 3776 6070 3753 
Q 6099 3731 6099 3693 
L 6099 3482 
Q 6099 3450 6070 3424 
Q 6042 3398 6003 3398 
L 5120 3398 
L 5120 2630 
L 6003 2630 
Q 6042 2630 6070 2608 
Q 6099 2586 6099 2547 
L 6099 2336 
Q 6099 2304 6070 2278 
Q 6042 2253 6003 2253 
L 5120 2253 
L 5120 1254 
z
M 3296 2413 
Q 3296 2566 3225 2691 
Q 3155 2816 3027 2902 
Q 2899 2989 2726 3037 
Q 2554 3085 2349 3085 
Q 2144 3085 1971 3037 
Q 1798 2989 1670 2902 
Q 1542 2816 1468 2691 
Q 1395 2566 1395 2413 
Q 1395 2259 1468 2134 
Q 1542 2010 1670 1920 
Q 1798 1830 1971 1782 
Q 2144 1734 2349 1734 
Q 2554 1734 2726 1782 
Q 2899 1830 3027 1920 
Q 3155 2010 3225 2134 
Q 3296 2259 3296 2413 
z
M 4218 3827 
Q 4218 3744 4122 3744 
L 589 3744 
Q 557 3744 528 3769 
Q 499 3795 499 3834 
L 499 4038 
Q 499 4077 528 4102 
Q 557 4128 589 4128 
L 4122 4128 
Q 4218 4128 4218 4045 
L 4218 3827 
z
M 3283 4608 
Q 3283 4518 3187 4518 
L 1434 4518 
Q 1402 4518 1373 4540 
Q 1344 4563 1344 4602 
L 1344 4819 
Q 1344 4858 1369 4883 
Q 1395 4909 1427 4909 
L 3187 4909 
Q 3283 4909 3283 4819 
L 3283 4608 
z
" transform="scale(0.015625)"/>
     </defs>
     <use xlink:href="#NanumGothicCoding-ae38"/>
     <use xlink:href="#NanumGothicCoding-c774" transform="translate(99.999985 0)"/>
     <use xlink:href="#NanumGothicCoding-20" transform="translate(199.999969 0)"/>
     <use xlink:href="#NanumGothicCoding-2f" transform="translate(249.999954 0)"/>
     <use xlink:href="#NanumGothicCoding-20" transform="translate(299.999939 0)"/>
     <use xlink:href="#NanumGothicCoding-bc29" transform="translate(349.999924 0)"/>
     <use xlink:href="#NanumGothicCoding-d5a5" transform="translate(449.999908 0)"/>
    </g>
   </g>
   <g id="text_6">
    <!--  ↓ -->
    <g style="fill: #111827" transform="translate(16.4736 340.691344) scale(0.11 -0.11)">
     <use xlink:href="#NanumGothicCoding-20"/>
     <use xlink:href="#NanumGothicCoding-2193" transform="translate(49.999985 0)"/>
    </g>
   </g>
   <g id="text_7">
    <!-- 내적 / 외적 -->
    <g style="fill: #111827" transform="translate(16.4736 393.467015) scale(0.11 -0.11)">
     <defs>
      <path id="NanumGothicCoding-b0b4" d="M 4320 2586 
L 5133 2586 
L 5133 4915 
Q 5133 5005 5222 5005 
L 5466 5005 
Q 5555 5005 5555 4915 
L 5555 -806 
Q 5555 -896 5466 -896 
L 5222 -896 
Q 5133 -896 5133 -806 
L 5133 2202 
L 4320 2202 
L 4320 -563 
Q 4320 -653 4230 -653 
L 3987 -653 
Q 3898 -653 3898 -563 
L 3898 4806 
Q 3898 4896 3987 4896 
L 4230 4896 
Q 4320 4896 4320 4806 
L 4320 2586 
z
M 1350 1446 
Q 1350 1350 1382 1318 
Q 1414 1286 1504 1280 
Q 2048 1261 2502 1312 
Q 2957 1363 3405 1466 
Q 3514 1491 3533 1389 
L 3565 1210 
Q 3584 1120 3482 1094 
Q 3078 986 2531 925 
Q 1984 864 1414 883 
Q 1126 896 1017 1021 
Q 909 1146 909 1414 
L 909 4461 
Q 909 4550 998 4550 
L 1261 4550 
Q 1350 4550 1350 4461 
L 1350 1446 
z
" transform="scale(0.015625)"/>
      <path id="NanumGothicCoding-c801" d="M 3501 4166 
Q 3411 3904 3248 3648 
Q 3085 3392 2861 3142 
Q 3078 2912 3398 2704 
Q 3718 2496 4096 2336 
Q 4147 2317 4153 2281 
Q 4160 2246 4141 2214 
L 4013 1984 
Q 3994 1952 3955 1949 
Q 3917 1946 3885 1958 
Q 3744 2022 3581 2112 
Q 3418 2202 3245 2317 
Q 3072 2432 2902 2566 
Q 2733 2701 2586 2848 
Q 2221 2490 1782 2195 
Q 1344 1901 896 1702 
Q 864 1690 832 1683 
Q 800 1677 781 1709 
L 653 1933 
Q 634 1965 650 2000 
Q 666 2035 698 2048 
Q 1523 2445 2105 2957 
Q 2688 3469 3014 4141 
Q 3059 4230 3027 4268 
Q 2995 4307 2906 4307 
L 1030 4307 
Q 954 4307 954 4390 
L 954 4614 
Q 954 4691 1030 4691 
L 3078 4691 
Q 3411 4691 3507 4572 
Q 3603 4454 3501 4166 
z
M 1613 1133 
Q 1613 1171 1645 1190 
Q 1677 1210 1709 1210 
L 4858 1210 
Q 5158 1210 5251 1098 
Q 5344 986 5344 723 
L 5344 -832 
Q 5344 -922 5254 -922 
L 4992 -922 
Q 4902 -922 4902 -832 
L 4902 691 
Q 4902 781 4873 803 
Q 4845 826 4755 826 
L 1709 826 
Q 1677 826 1645 848 
Q 1613 870 1613 902 
L 1613 1133 
z
M 4902 3462 
L 4902 4915 
Q 4902 5005 4992 5005 
L 5254 5005 
Q 5344 5005 5344 4915 
L 5344 1651 
Q 5344 1562 5254 1562 
L 4992 1562 
Q 4902 1562 4902 1651 
L 4902 3078 
L 3693 3078 
Q 3610 3078 3610 3155 
L 3610 3386 
Q 3610 3462 3693 3462 
L 4902 3462 
z
" transform="scale(0.015625)"/>
      <path id="NanumGothicCoding-c678" d="M 3872 3187 
Q 3872 2918 3776 2681 
Q 3680 2445 3507 2262 
Q 3334 2080 3097 1958 
Q 2861 1837 2579 1798 
L 2579 691 
Q 2803 704 3056 726 
Q 3309 749 3561 774 
Q 3814 800 4051 832 
Q 4288 864 4474 902 
Q 4576 922 4582 858 
L 4621 634 
Q 4634 557 4538 544 
Q 4326 506 4076 470 
Q 3827 435 3561 406 
Q 3296 378 3027 352 
Q 2758 326 2502 314 
Q 2317 301 2057 294 
Q 1798 288 1526 285 
Q 1254 282 998 282 
Q 742 282 563 288 
Q 525 288 496 313 
Q 467 339 467 371 
L 467 589 
Q 467 627 496 649 
Q 525 672 563 672 
Q 698 666 886 662 
Q 1075 659 1286 659 
Q 1498 659 1718 665 
Q 1939 672 2138 678 
L 2138 1792 
Q 1850 1824 1610 1945 
Q 1370 2067 1197 2249 
Q 1024 2432 925 2672 
Q 826 2912 826 3187 
Q 826 3520 941 3782 
Q 1056 4045 1257 4224 
Q 1459 4403 1737 4499 
Q 2016 4595 2336 4595 
Q 2643 4595 2921 4499 
Q 3200 4403 3411 4220 
Q 3622 4038 3747 3776 
Q 3872 3514 3872 3187 
z
M 3424 3194 
Q 3424 3437 3334 3619 
Q 3245 3802 3094 3926 
Q 2944 4051 2745 4115 
Q 2547 4179 2336 4179 
Q 2112 4179 1920 4115 
Q 1728 4051 1584 3926 
Q 1440 3802 1357 3616 
Q 1274 3430 1274 3194 
Q 1274 2963 1354 2780 
Q 1434 2598 1574 2467 
Q 1715 2336 1910 2265 
Q 2106 2195 2336 2195 
Q 2547 2195 2745 2268 
Q 2944 2342 3094 2476 
Q 3245 2611 3334 2793 
Q 3424 2976 3424 3194 
z
M 5344 -806 
Q 5344 -896 5254 -896 
L 4992 -896 
Q 4902 -896 4902 -806 
L 4902 4915 
Q 4902 5005 4992 5005 
L 5254 5005 
Q 5344 5005 5344 4915 
L 5344 -806 
z
" transform="scale(0.015625)"/>
     </defs>
     <use xlink:href="#NanumGothicCoding-b0b4"/>
     <use xlink:href="#NanumGothicCoding-c801" transform="translate(99.999985 0)"/>
     <use xlink:href="#NanumGothicCoding-20" transform="translate(199.999969 0)"/>
     <use xlink:href="#NanumGothicCoding-2f" transform="translate(249.999954 0)"/>
     <use xlink:href="#NanumGothicCoding-20" transform="translate(299.999939 0)"/>
     <use xlink:href="#NanumGothicCoding-c678" transform="translate(349.999924 0)"/>
     <use xlink:href="#NanumGothicCoding-c801" transform="translate(449.999908 0)"/>
    </g>
   </g>
   <g id="text_8">
    <!--  ↓ -->
    <g style="fill: #111827" transform="translate(16.4736 447.779248) scale(0.11 -0.11)">
     <use xlink:href="#NanumGothicCoding-20"/>
     <use xlink:href="#NanumGothicCoding-2193" transform="translate(49.999985 0)"/>
    </g>
   </g>
   <g id="text_9">
    <!-- 삼각함수 -->
    <g style="fill: #111827" transform="translate(16.4736 500.554919) scale(0.11 -0.11)">
     <defs>
      <path id="NanumGothicCoding-c0bc" d="M 1472 819 
Q 1472 1088 1574 1181 
Q 1677 1274 1958 1274 
L 4640 1274 
Q 4794 1274 4886 1254 
Q 4979 1235 5033 1184 
Q 5088 1133 5107 1043 
Q 5126 954 5126 819 
L 5126 -390 
Q 5126 -659 5024 -752 
Q 4922 -845 4640 -845 
L 1958 -845 
Q 1805 -845 1712 -825 
Q 1619 -806 1564 -752 
Q 1510 -698 1491 -611 
Q 1472 -525 1472 -390 
L 1472 819 
z
M 2067 890 
Q 1978 890 1946 854 
Q 1914 819 1914 723 
L 1914 -294 
Q 1914 -390 1946 -425 
Q 1978 -461 2067 -461 
L 4531 -461 
Q 4621 -461 4653 -425 
Q 4685 -390 4685 -294 
L 4685 723 
Q 4685 819 4653 854 
Q 4621 890 4531 890 
L 2067 890 
z
M 2534 4774 
Q 2534 4307 2438 3904 
Q 2515 3635 2652 3392 
Q 2790 3149 2976 2937 
Q 3162 2726 3382 2556 
Q 3603 2387 3846 2272 
Q 3885 2253 3881 2217 
Q 3878 2182 3866 2157 
L 3731 1946 
Q 3712 1914 3686 1901 
Q 3661 1888 3603 1920 
Q 3456 1997 3267 2128 
Q 3078 2259 2886 2438 
Q 2694 2618 2521 2832 
Q 2349 3046 2234 3277 
Q 2022 2790 1664 2393 
Q 1306 1997 826 1683 
Q 794 1664 755 1657 
Q 717 1651 691 1683 
L 531 1894 
Q 512 1920 525 1958 
Q 538 1997 570 2016 
Q 1331 2483 1715 3193 
Q 2099 3904 2086 4781 
Q 2086 4883 2163 4883 
L 2464 4864 
Q 2534 4864 2534 4774 
z
M 5120 1709 
Q 5120 1619 5030 1619 
L 4768 1619 
Q 4678 1619 4678 1709 
L 4678 4915 
Q 4678 5005 4768 5005 
L 5030 5005 
Q 5120 5005 5120 4915 
L 5120 3373 
L 6003 3373 
Q 6042 3373 6070 3350 
Q 6099 3328 6099 3290 
L 6099 3072 
Q 6099 3040 6070 3014 
Q 6042 2989 6003 2989 
L 5120 2989 
L 5120 1709 
z
" transform="scale(0.015625)"/>
      <path id="NanumGothicCoding-ac01" d="M 3482 4243 
Q 3334 3354 2707 2675 
Q 2080 1997 890 1498 
Q 787 1453 749 1536 
L 653 1747 
Q 627 1798 649 1830 
Q 672 1862 704 1875 
Q 1722 2298 2301 2880 
Q 2880 3462 3002 4134 
Q 3040 4314 2848 4314 
L 877 4314 
Q 800 4314 800 4397 
L 800 4621 
Q 800 4698 877 4698 
L 2995 4698 
Q 3302 4698 3411 4589 
Q 3520 4480 3482 4243 
z
M 1389 1165 
Q 1389 1203 1421 1222 
Q 1453 1242 1485 1242 
L 4634 1242 
Q 4934 1242 5027 1130 
Q 5120 1018 5120 755 
L 5120 -832 
Q 5120 -922 5030 -922 
L 4768 -922 
Q 4678 -922 4678 -832 
L 4678 723 
Q 4678 813 4649 835 
Q 4621 858 4531 858 
L 1485 858 
Q 1453 858 1421 880 
Q 1389 902 1389 934 
L 1389 1165 
z
M 5120 1664 
Q 5120 1574 5030 1574 
L 4768 1574 
Q 4678 1574 4678 1664 
L 4678 4915 
Q 4678 5005 4768 5005 
L 5030 5005 
Q 5120 5005 5120 4915 
L 5120 3366 
L 6003 3366 
Q 6042 3366 6070 3344 
Q 6099 3322 6099 3283 
L 6099 3066 
Q 6099 3034 6070 3008 
Q 6042 2982 6003 2982 
L 5120 2982 
L 5120 1664 
z
" transform="scale(0.015625)"/>
      <path id="NanumGothicCoding-d568" d="M 1472 499 
Q 1472 768 1574 861 
Q 1677 954 1958 954 
L 4640 954 
Q 4794 954 4886 934 
Q 4979 915 5033 864 
Q 5088 813 5107 723 
Q 5126 634 5126 499 
L 5126 -390 
Q 5126 -659 5024 -752 
Q 4922 -845 4640 -845 
L 1958 -845 
Q 1805 -845 1712 -825 
Q 1619 -806 1564 -752 
Q 1510 -698 1491 -611 
Q 1472 -525 1472 -390 
L 1472 499 
z
M 3725 2413 
Q 3725 2182 3619 1993 
Q 3514 1805 3331 1664 
Q 3149 1523 2896 1446 
Q 2643 1370 2349 1370 
Q 2048 1370 1798 1446 
Q 1549 1523 1363 1664 
Q 1178 1805 1075 1997 
Q 973 2189 973 2413 
Q 973 2643 1075 2835 
Q 1178 3027 1363 3161 
Q 1549 3296 1798 3373 
Q 2048 3450 2349 3450 
Q 2643 3450 2896 3373 
Q 3149 3296 3331 3158 
Q 3514 3021 3619 2829 
Q 3725 2637 3725 2413 
z
M 2067 570 
Q 1978 570 1946 534 
Q 1914 499 1914 403 
L 1914 -294 
Q 1914 -390 1946 -425 
Q 1978 -461 2067 -461 
L 4531 -461 
Q 4621 -461 4653 -425 
Q 4685 -390 4685 -294 
L 4685 403 
Q 4685 499 4653 534 
Q 4621 570 4531 570 
L 2067 570 
z
M 3296 2413 
Q 3296 2566 3225 2691 
Q 3155 2816 3027 2902 
Q 2899 2989 2726 3037 
Q 2554 3085 2349 3085 
Q 2144 3085 1971 3037 
Q 1798 2989 1670 2902 
Q 1542 2816 1468 2691 
Q 1395 2566 1395 2413 
Q 1395 2259 1468 2134 
Q 1542 2010 1670 1920 
Q 1798 1830 1971 1782 
Q 2144 1734 2349 1734 
Q 2554 1734 2726 1782 
Q 2899 1830 3027 1920 
Q 3155 2010 3225 2134 
Q 3296 2259 3296 2413 
z
M 5120 1376 
Q 5120 1286 5030 1286 
L 4768 1286 
Q 4678 1286 4678 1376 
L 4678 4915 
Q 4678 5005 4768 5005 
L 5030 5005 
Q 5120 5005 5120 4915 
L 5120 3181 
L 6003 3181 
Q 6042 3181 6070 3158 
Q 6099 3136 6099 3098 
L 6099 2880 
Q 6099 2848 6070 2822 
Q 6042 2797 6003 2797 
L 5120 2797 
L 5120 1376 
z
M 4218 3821 
Q 4218 3738 4122 3738 
L 589 3738 
Q 557 3738 528 3763 
Q 499 3789 499 3827 
L 499 4032 
Q 499 4070 528 4096 
Q 557 4122 589 4122 
L 4122 4122 
Q 4218 4122 4218 4038 
L 4218 3821 
z
M 3283 4608 
Q 3283 4518 3187 4518 
L 1434 4518 
Q 1402 4518 1373 4540 
Q 1344 4563 1344 4602 
L 1344 4819 
Q 1344 4858 1369 4883 
Q 1395 4909 1427 4909 
L 3187 4909 
Q 3283 4909 3283 4819 
L 3283 4608 
z
" transform="scale(0.015625)"/>
      <path id="NanumGothicCoding-c218" d="M 3046 -858 
Q 3014 -858 2988 -829 
Q 2963 -800 2963 -762 
L 2963 1325 
L 480 1325 
Q 442 1325 413 1350 
Q 384 1376 384 1408 
L 384 1626 
Q 384 1664 413 1686 
Q 442 1709 480 1709 
L 5920 1709 
Q 5952 1709 5984 1686 
Q 6016 1664 6016 1626 
L 6016 1408 
Q 6016 1376 5984 1350 
Q 5952 1325 5920 1325 
L 3405 1325 
L 3405 -762 
Q 3405 -800 3382 -829 
Q 3360 -858 3322 -858 
L 3046 -858 
z
M 3424 4864 
Q 3411 4781 3392 4704 
Q 3373 4627 3354 4557 
Q 3373 4486 3398 4425 
Q 3424 4365 3456 4307 
Q 3565 4096 3776 3881 
Q 3987 3667 4262 3478 
Q 4538 3290 4858 3142 
Q 5178 2995 5517 2912 
Q 5555 2899 5568 2860 
Q 5581 2822 5568 2790 
L 5466 2573 
Q 5446 2541 5424 2528 
Q 5402 2515 5338 2528 
Q 4998 2618 4665 2774 
Q 4333 2931 4045 3136 
Q 3757 3341 3523 3577 
Q 3290 3814 3142 4058 
Q 2867 3558 2355 3158 
Q 1843 2758 1069 2451 
Q 966 2413 941 2477 
L 819 2701 
Q 806 2733 816 2771 
Q 826 2810 864 2822 
Q 1280 2963 1657 3196 
Q 2035 3430 2323 3712 
Q 2611 3994 2787 4301 
Q 2963 4608 2982 4909 
Q 2989 4986 3066 4986 
L 3354 4954 
Q 3386 4947 3411 4928 
Q 3437 4909 3424 4864 
z
" transform="scale(0.015625)"/>
     </defs>
     <use xlink:href="#NanumGothicCoding-c0bc"/>
     <use xlink:href="#NanumGothicCoding-ac01" transform="translate(99.999985 0)"/>
     <use xlink:href="#NanumGothicCoding-d568" transform="translate(199.999969 0)"/>
     <use xlink:href="#NanumGothicCoding-c218" transform="translate(299.999954 0)"/>
    </g>
   </g>
   <g id="text_10">
    <!--  ↓ -->
    <g style="fill: #111827" transform="translate(16.4736 554.867152) scale(0.11 -0.11)">
     <use xlink:href="#NanumGothicCoding-20"/>
     <use xlink:href="#NanumGothicCoding-2193" transform="translate(49.999985 0)"/>
    </g>
   </g>
   <g id="text_11">
    <!-- 회전 -->
    <g style="fill: #111827" transform="translate(16.4736 607.598135) scale(0.11 -0.11)">
     <defs>
      <path id="NanumGothicCoding-d68c" d="M 4474 826 
Q 4576 845 4582 781 
L 4621 538 
Q 4634 467 4538 448 
Q 4307 410 4051 371 
Q 3795 333 3532 301 
Q 3270 269 3004 246 
Q 2739 224 2502 218 
Q 2317 211 2057 204 
Q 1798 198 1526 195 
Q 1254 192 998 189 
Q 742 186 563 192 
Q 525 192 496 217 
Q 467 243 467 275 
L 467 493 
Q 467 531 496 553 
Q 525 576 563 576 
Q 704 570 912 566 
Q 1120 563 1350 566 
Q 1581 570 1817 573 
Q 2054 576 2259 582 
L 2259 1261 
Q 1997 1286 1782 1372 
Q 1568 1459 1414 1596 
Q 1261 1734 1174 1916 
Q 1088 2099 1088 2310 
Q 1088 2547 1193 2742 
Q 1299 2938 1484 3075 
Q 1670 3213 1923 3286 
Q 2176 3360 2477 3360 
Q 2771 3360 3027 3283 
Q 3283 3206 3468 3068 
Q 3654 2931 3760 2739 
Q 3866 2547 3866 2310 
Q 3866 2093 3779 1913 
Q 3693 1734 3539 1600 
Q 3386 1466 3171 1379 
Q 2957 1293 2701 1267 
L 2701 602 
Q 2899 614 3136 640 
Q 3373 666 3609 694 
Q 3846 723 4070 758 
Q 4294 794 4474 826 
z
M 5344 -806 
Q 5344 -896 5254 -896 
L 4992 -896 
Q 4902 -896 4902 -806 
L 4902 4915 
Q 4902 5005 4992 5005 
L 5254 5005 
Q 5344 5005 5344 4915 
L 5344 -806 
z
M 3430 2310 
Q 3430 2637 3161 2809 
Q 2893 2982 2477 2982 
Q 2272 2982 2096 2937 
Q 1920 2893 1792 2809 
Q 1664 2726 1590 2598 
Q 1517 2470 1517 2310 
Q 1517 2150 1590 2025 
Q 1664 1901 1792 1814 
Q 1920 1728 2096 1680 
Q 2272 1632 2477 1632 
Q 2893 1632 3161 1811 
Q 3430 1990 3430 2310 
z
M 4275 3776 
Q 4275 3693 4179 3693 
L 774 3693 
Q 742 3693 713 3718 
Q 685 3744 685 3782 
L 685 3994 
Q 685 4032 713 4057 
Q 742 4083 774 4083 
L 4179 4083 
Q 4275 4083 4275 4000 
L 4275 3776 
z
M 3373 4582 
Q 3373 4493 3277 4493 
L 1587 4493 
Q 1555 4493 1526 4515 
Q 1498 4538 1498 4576 
L 1498 4794 
Q 1498 4832 1523 4857 
Q 1549 4883 1581 4883 
L 3277 4883 
Q 3373 4883 3373 4794 
L 3373 4582 
z
" transform="scale(0.015625)"/>
      <path id="NanumGothicCoding-c804" d="M 3501 4038 
Q 3411 3770 3244 3494 
Q 3078 3219 2854 2950 
Q 3110 2650 3446 2384 
Q 3782 2118 4109 1946 
Q 4192 1907 4147 1824 
L 4000 1606 
Q 3981 1574 3942 1571 
Q 3904 1568 3872 1587 
Q 3546 1766 3210 2048 
Q 2874 2330 2586 2643 
Q 2221 2259 1785 1939 
Q 1350 1619 909 1414 
Q 877 1402 845 1392 
Q 813 1382 794 1414 
L 666 1638 
Q 646 1670 659 1705 
Q 672 1741 704 1754 
Q 1459 2138 2057 2707 
Q 2656 3277 3014 4013 
Q 3059 4102 3027 4140 
Q 2995 4179 2906 4179 
L 1030 4179 
Q 954 4179 954 4262 
L 954 4486 
Q 954 4563 1030 4563 
L 3078 4563 
Q 3411 4563 3507 4444 
Q 3603 4326 3501 4038 
z
M 4902 3296 
L 4902 4915 
Q 4902 5005 4992 5005 
L 5254 5005 
Q 5344 5005 5344 4915 
L 5344 781 
Q 5344 691 5254 691 
L 4992 691 
Q 4902 691 4902 781 
L 4902 2925 
L 3693 2925 
Q 3610 2925 3610 3002 
L 3610 3219 
Q 3610 3296 3693 3296 
L 4902 3296 
z
M 5542 -704 
Q 5542 -742 5510 -761 
Q 5478 -781 5446 -781 
L 2208 -781 
Q 1907 -781 1814 -669 
Q 1722 -557 1722 -294 
L 1722 922 
Q 1722 1011 1811 1011 
L 2074 1011 
Q 2163 1011 2163 922 
L 2163 -262 
Q 2163 -352 2192 -374 
Q 2221 -397 2310 -397 
L 5446 -397 
Q 5478 -397 5510 -419 
Q 5542 -442 5542 -474 
L 5542 -704 
z
" transform="scale(0.015625)"/>
     </defs>
     <use xlink:href="#NanumGothicCoding-d68c"/>
     <use xlink:href="#NanumGothicCoding-c804" transform="translate(99.999985 0)"/>
    </g>
   </g>
   <g id="text_12">
    <!--  ↓ -->
    <g style="fill: #111827" transform="translate(16.4736 661.955056) scale(0.11 -0.11)">
     <use xlink:href="#NanumGothicCoding-20"/>
     <use xlink:href="#NanumGothicCoding-2193" transform="translate(49.999985 0)"/>
    </g>
   </g>
   <g id="text_13">
    <!-- 행렬 변환 -->
    <g style="fill: #111827" transform="translate(16.4736 714.718695) scale(0.11 -0.11)">
     <defs>
      <path id="NanumGothicCoding-d589" d="M 5574 64 
Q 5574 -173 5411 -355 
Q 5248 -538 4979 -662 
Q 4710 -787 4358 -851 
Q 4006 -915 3622 -915 
Q 3206 -915 2851 -851 
Q 2496 -787 2233 -662 
Q 1971 -538 1824 -355 
Q 1677 -173 1677 64 
Q 1677 294 1824 473 
Q 1971 653 2233 777 
Q 2496 902 2851 966 
Q 3206 1030 3622 1030 
Q 4006 1030 4358 966 
Q 4710 902 4979 780 
Q 5248 659 5411 476 
Q 5574 294 5574 64 
z
M 3245 2426 
Q 3245 2234 3165 2051 
Q 3085 1869 2928 1728 
Q 2771 1587 2544 1500 
Q 2317 1414 2029 1414 
Q 1734 1414 1507 1500 
Q 1280 1587 1126 1728 
Q 973 1869 893 2051 
Q 813 2234 813 2426 
Q 813 2624 893 2803 
Q 973 2982 1126 3123 
Q 1280 3264 1507 3347 
Q 1734 3430 2029 3430 
Q 2317 3430 2544 3344 
Q 2771 3258 2928 3120 
Q 3085 2982 3165 2800 
Q 3245 2618 3245 2426 
z
M 4320 3302 
L 5133 3302 
L 5133 4915 
Q 5133 5005 5222 5005 
L 5466 5005 
Q 5555 5005 5555 4915 
L 5555 1306 
Q 5555 1216 5466 1216 
L 5222 1216 
Q 5133 1216 5133 1306 
L 5133 2918 
L 4320 2918 
L 4320 1504 
Q 4320 1414 4230 1414 
L 3987 1414 
Q 3898 1414 3898 1504 
L 3898 4806 
Q 3898 4896 3987 4896 
L 4230 4896 
Q 4320 4896 4320 4806 
L 4320 3302 
z
M 5126 45 
Q 5126 205 4992 323 
Q 4858 442 4643 518 
Q 4429 595 4160 633 
Q 3891 672 3616 672 
Q 3315 672 3043 633 
Q 2771 595 2566 518 
Q 2362 442 2243 323 
Q 2125 205 2125 45 
Q 2125 -109 2243 -221 
Q 2362 -333 2566 -409 
Q 2771 -486 3043 -521 
Q 3315 -557 3616 -557 
Q 3891 -557 4160 -521 
Q 4429 -486 4643 -409 
Q 4858 -333 4992 -221 
Q 5126 -109 5126 45 
z
M 2835 2426 
Q 2835 2688 2633 2877 
Q 2432 3066 2029 3066 
Q 1626 3066 1424 2880 
Q 1222 2694 1222 2426 
Q 1222 2170 1424 1974 
Q 1626 1779 2029 1779 
Q 2432 1779 2633 1974 
Q 2835 2170 2835 2426 
z
M 3443 3802 
Q 3443 3718 3347 3718 
L 666 3718 
Q 634 3718 605 3744 
Q 576 3770 576 3808 
L 576 4013 
Q 576 4051 605 4076 
Q 634 4102 666 4102 
L 3347 4102 
Q 3443 4102 3443 4019 
L 3443 3802 
z
M 2803 4570 
Q 2803 4480 2707 4480 
L 1344 4480 
Q 1312 4480 1283 4502 
Q 1254 4525 1254 4563 
L 1254 4781 
Q 1254 4819 1280 4844 
Q 1306 4870 1338 4870 
L 2707 4870 
Q 2803 4870 2803 4781 
L 2803 4570 
z
" transform="scale(0.015625)"/>
      <path id="NanumGothicCoding-b82c" d="M 5478 -838 
Q 5478 -870 5449 -892 
Q 5421 -915 5395 -915 
L 2176 -915 
Q 1875 -915 1782 -803 
Q 1690 -691 1690 -422 
L 1690 13 
Q 1690 282 1802 374 
Q 1914 467 2202 467 
L 4762 467 
Q 4851 467 4876 492 
Q 4902 518 4902 614 
L 4902 934 
Q 4902 1030 4880 1056 
Q 4858 1082 4768 1082 
L 1766 1082 
Q 1734 1082 1705 1101 
Q 1677 1120 1677 1152 
L 1677 1382 
Q 1677 1414 1705 1433 
Q 1734 1453 1766 1453 
L 4838 1453 
Q 4992 1453 5088 1430 
Q 5184 1408 5241 1357 
Q 5299 1306 5321 1213 
Q 5344 1120 5344 986 
L 5344 550 
Q 5344 282 5232 189 
Q 5120 96 4832 96 
L 2266 96 
Q 2176 96 2153 70 
Q 2131 45 2131 -51 
L 2131 -397 
Q 2131 -486 2156 -515 
Q 2182 -544 2272 -544 
L 5389 -544 
Q 5421 -544 5449 -563 
Q 5478 -582 5478 -614 
L 5478 -838 
z
M 1389 2003 
Q 1101 2010 1001 2118 
Q 902 2227 902 2496 
L 902 3174 
Q 902 3443 1014 3536 
Q 1126 3629 1414 3629 
L 2675 3629 
Q 2765 3629 2790 3654 
Q 2816 3680 2816 3776 
L 2816 4275 
Q 2816 4371 2793 4396 
Q 2771 4422 2682 4422 
L 1005 4422 
Q 928 4422 928 4506 
L 928 4730 
Q 928 4806 1005 4806 
L 2752 4806 
Q 2906 4806 3002 4784 
Q 3098 4762 3155 4710 
Q 3213 4659 3235 4566 
Q 3258 4474 3258 4339 
L 3258 3699 
Q 3258 3430 3146 3337 
Q 3034 3245 2746 3245 
L 1478 3245 
Q 1389 3245 1366 3219 
Q 1344 3194 1344 3098 
L 1344 2528 
Q 1344 2381 1485 2381 
Q 1779 2381 2048 2387 
Q 2317 2394 2576 2416 
Q 2835 2438 3100 2473 
Q 3366 2509 3648 2560 
Q 3712 2573 3734 2560 
Q 3757 2547 3770 2496 
L 3808 2291 
Q 3821 2234 3798 2214 
Q 3776 2195 3718 2182 
Q 3411 2125 3132 2086 
Q 2854 2048 2579 2029 
Q 2304 2010 2013 2003 
Q 1722 1997 1389 2003 
z
M 4902 4230 
L 4902 4915 
Q 4902 5005 4992 5005 
L 5254 5005 
Q 5344 5005 5344 4915 
L 5344 1862 
Q 5344 1773 5254 1773 
L 4992 1773 
Q 4902 1773 4902 1862 
L 4902 2829 
L 3782 2829 
Q 3699 2829 3699 2906 
L 3699 3130 
Q 3699 3206 3782 3206 
L 4902 3206 
L 4902 3853 
L 3782 3853 
Q 3699 3853 3699 3930 
L 3699 4154 
Q 3699 4230 3782 4230 
L 4902 4230 
z
" transform="scale(0.015625)"/>
      <path id="NanumGothicCoding-bcc0" d="M 1382 1677 
Q 1229 1677 1136 1696 
Q 1043 1715 992 1769 
Q 941 1824 921 1910 
Q 902 1997 902 2131 
L 902 4691 
Q 902 4723 928 4745 
Q 954 4768 986 4768 
L 1261 4768 
Q 1293 4768 1315 4742 
Q 1338 4717 1338 4691 
L 1338 3565 
L 3206 3565 
L 3206 4685 
Q 3206 4717 3228 4742 
Q 3251 4768 3283 4768 
L 3558 4768 
Q 3590 4768 3616 4745 
Q 3642 4723 3642 4691 
L 3642 3930 
L 4902 3930 
L 4902 4915 
Q 4902 5005 4992 5005 
L 5254 5005 
Q 5344 5005 5344 4915 
L 5344 832 
Q 5344 742 5254 742 
L 4992 742 
Q 4902 742 4902 832 
L 4902 2336 
L 3642 2336 
L 3642 2086 
Q 3642 1843 3539 1760 
Q 3437 1677 3155 1677 
L 1382 1677 
z
M 1338 3187 
L 1338 2208 
Q 1338 2112 1370 2083 
Q 1402 2054 1491 2054 
L 3053 2054 
Q 3142 2054 3174 2083 
Q 3206 2112 3206 2208 
L 3206 3187 
L 1338 3187 
z
M 5632 -704 
Q 5632 -742 5600 -761 
Q 5568 -781 5536 -781 
L 2246 -781 
Q 1946 -781 1853 -669 
Q 1760 -557 1760 -294 
L 1760 960 
Q 1760 1050 1850 1050 
L 2112 1050 
Q 2202 1050 2202 960 
L 2202 -262 
Q 2202 -352 2230 -374 
Q 2259 -397 2349 -397 
L 5536 -397 
Q 5568 -397 5600 -419 
Q 5632 -442 5632 -474 
L 5632 -704 
z
M 3642 2714 
L 4902 2714 
L 4902 3552 
L 3642 3552 
L 3642 2714 
z
" transform="scale(0.015625)"/>
      <path id="NanumGothicCoding-d658" d="M 4288 1453 
Q 4346 1459 4362 1443 
Q 4378 1427 4384 1395 
L 4410 1190 
Q 4416 1152 4400 1133 
Q 4384 1114 4326 1101 
Q 3808 1030 3171 985 
Q 2534 941 1894 941 
L 563 941 
Q 525 941 496 966 
Q 467 992 467 1024 
L 467 1216 
Q 467 1254 496 1273 
Q 525 1293 563 1293 
L 1670 1293 
Q 1798 1293 1932 1293 
Q 2067 1293 2214 1299 
L 2214 1824 
Q 1946 1850 1728 1926 
Q 1510 2003 1356 2118 
Q 1203 2234 1120 2384 
Q 1037 2534 1037 2707 
Q 1037 2899 1136 3062 
Q 1235 3226 1417 3341 
Q 1600 3456 1856 3523 
Q 2112 3590 2426 3590 
Q 2733 3590 2989 3523 
Q 3245 3456 3427 3337 
Q 3610 3219 3712 3056 
Q 3814 2893 3814 2707 
Q 3814 2534 3731 2384 
Q 3648 2234 3497 2118 
Q 3347 2003 3132 1926 
Q 2918 1850 2656 1824 
L 2656 1318 
Q 3091 1344 3516 1379 
Q 3942 1414 4288 1453 
z
M 5120 518 
Q 5120 429 5030 429 
L 4768 429 
Q 4678 429 4678 518 
L 4678 4915 
Q 4678 5005 4768 5005 
L 5030 5005 
Q 5120 5005 5120 4915 
L 5120 2771 
L 6003 2771 
Q 6042 2771 6070 2748 
Q 6099 2726 6099 2688 
L 6099 2470 
Q 6099 2438 6070 2412 
Q 6042 2387 6003 2387 
L 5120 2387 
L 5120 518 
z
M 5376 -723 
Q 5376 -762 5344 -781 
Q 5312 -800 5280 -800 
L 1920 -800 
Q 1619 -800 1526 -688 
Q 1434 -576 1434 -314 
L 1434 480 
Q 1434 570 1523 570 
L 1786 570 
Q 1875 570 1875 480 
L 1875 -282 
Q 1875 -371 1904 -393 
Q 1933 -416 2022 -416 
L 5280 -416 
Q 5312 -416 5344 -438 
Q 5376 -461 5376 -493 
L 5376 -723 
z
M 3379 2707 
Q 3379 2944 3116 3081 
Q 2854 3219 2426 3219 
Q 1997 3219 1731 3084 
Q 1466 2950 1466 2707 
Q 1466 2477 1731 2333 
Q 1997 2189 2426 2189 
Q 2854 2189 3116 2333 
Q 3379 2477 3379 2707 
z
M 4173 3930 
Q 4173 3846 4077 3846 
L 800 3846 
Q 768 3846 739 3872 
Q 710 3898 710 3936 
L 710 4122 
Q 710 4160 739 4185 
Q 768 4211 800 4211 
L 4077 4211 
Q 4173 4211 4173 4128 
L 4173 3930 
z
M 3238 4627 
Q 3238 4538 3142 4538 
L 1645 4538 
Q 1613 4538 1584 4560 
Q 1555 4582 1555 4621 
L 1555 4813 
Q 1555 4851 1580 4876 
Q 1606 4902 1638 4902 
L 3142 4902 
Q 3238 4902 3238 4813 
L 3238 4627 
z
" transform="scale(0.015625)"/>
     </defs>
     <use xlink:href="#NanumGothicCoding-d589"/>
     <use xlink:href="#NanumGothicCoding-b82c" transform="translate(99.999985 0)"/>
     <use xlink:href="#NanumGothicCoding-20" transform="translate(199.999969 0)"/>
     <use xlink:href="#NanumGothicCoding-bcc0" transform="translate(249.999954 0)"/>
     <use xlink:href="#NanumGothicCoding-d658" transform="translate(349.999939 0)"/>
    </g>
   </g>
   <g id="text_14">
    <!--  ↓ -->
    <g style="fill: #111827" transform="translate(16.4736 769.04296) scale(0.11 -0.11)">
     <use xlink:href="#NanumGothicCoding-20"/>
     <use xlink:href="#NanumGothicCoding-2193" transform="translate(49.999985 0)"/>
    </g>
   </g>
   <g id="text_15">
    <!-- 속도 / 가속도 -->
    <g style="fill: #111827" transform="translate(16.4736 821.883943) scale(0.11 -0.11)">
     <defs>
      <path id="NanumGothicCoding-c18d" d="M 5920 2080 
Q 5952 2080 5984 2057 
Q 6016 2035 6016 1997 
L 6016 1779 
Q 6016 1747 5984 1721 
Q 5952 1696 5920 1696 
L 480 1696 
Q 442 1696 413 1721 
Q 384 1747 384 1779 
L 384 2003 
Q 384 2042 413 2061 
Q 442 2080 480 2080 
L 2957 2080 
L 2957 2957 
Q 2957 3046 3046 3046 
L 3309 3046 
Q 3398 3046 3398 2957 
L 3398 2080 
L 5920 2080 
z
M 3424 4870 
Q 3411 4819 3401 4764 
Q 3392 4710 3379 4659 
Q 3411 4563 3456 4493 
Q 3571 4288 3769 4089 
Q 3968 3891 4227 3721 
Q 4486 3552 4796 3421 
Q 5107 3290 5446 3213 
Q 5485 3200 5491 3168 
Q 5498 3136 5485 3104 
L 5376 2886 
Q 5363 2854 5340 2838 
Q 5318 2822 5254 2835 
Q 4915 2918 4601 3059 
Q 4288 3200 4019 3379 
Q 3750 3558 3529 3769 
Q 3309 3981 3168 4205 
Q 2886 3744 2358 3366 
Q 1830 2989 1126 2784 
Q 1024 2758 998 2816 
L 902 3046 
Q 890 3078 899 3116 
Q 909 3155 954 3168 
Q 1382 3283 1740 3472 
Q 2099 3661 2364 3894 
Q 2630 4128 2790 4390 
Q 2950 4653 2982 4915 
Q 2995 5005 3066 4992 
L 3354 4960 
Q 3430 4947 3424 4870 
z
M 1139 909 
Q 1139 947 1171 966 
Q 1203 986 1235 986 
L 4634 986 
Q 4934 986 5027 874 
Q 5120 762 5120 499 
L 5120 -870 
Q 5120 -960 5030 -960 
L 4768 -960 
Q 4678 -960 4678 -870 
L 4678 467 
Q 4678 557 4649 579 
Q 4621 602 4531 602 
L 1235 602 
Q 1203 602 1171 624 
Q 1139 646 1139 678 
L 1139 909 
z
" transform="scale(0.015625)"/>
      <path id="NanumGothicCoding-b3c4" d="M 5222 1984 
Q 5222 1894 5139 1894 
L 3405 1894 
L 3405 499 
L 5920 499 
Q 5952 499 5984 476 
Q 6016 454 6016 416 
L 6016 198 
Q 6016 166 5984 140 
Q 5952 115 5920 115 
L 480 115 
Q 442 115 413 140 
Q 384 166 384 198 
L 384 416 
Q 384 454 413 476 
Q 442 499 480 499 
L 2963 499 
L 2963 1894 
L 1683 1894 
Q 1402 1894 1299 1987 
Q 1197 2080 1197 2349 
L 1197 4134 
Q 1197 4403 1299 4496 
Q 1402 4589 1683 4589 
L 5094 4589 
Q 5178 4589 5178 4506 
L 5178 4294 
Q 5178 4205 5094 4205 
L 1792 4205 
Q 1702 4205 1670 4166 
Q 1638 4128 1638 4032 
L 1638 2445 
Q 1638 2355 1670 2316 
Q 1702 2278 1792 2278 
L 5139 2278 
Q 5222 2278 5222 2195 
L 5222 1984 
z
" transform="scale(0.015625)"/>
      <path id="NanumGothicCoding-ac00" d="M 3437 4064 
Q 3405 3514 3219 2982 
Q 3034 2451 2704 1968 
Q 2374 1485 1910 1072 
Q 1446 659 858 346 
Q 774 301 736 365 
L 595 589 
Q 550 666 621 698 
Q 1165 979 1584 1340 
Q 2003 1702 2300 2124 
Q 2598 2547 2771 3014 
Q 2944 3482 2989 3974 
Q 3002 4070 2963 4105 
Q 2925 4141 2835 4141 
L 851 4141 
Q 774 4141 774 4224 
L 774 4448 
Q 774 4525 851 4525 
L 2957 4525 
Q 3258 4525 3354 4413 
Q 3450 4301 3437 4064 
z
M 5120 -806 
Q 5120 -896 5030 -896 
L 4768 -896 
Q 4678 -896 4678 -806 
L 4678 4915 
Q 4678 5005 4768 5005 
L 5030 5005 
Q 5120 5005 5120 4915 
L 5120 2650 
L 6003 2650 
Q 6042 2650 6070 2627 
Q 6099 2605 6099 2566 
L 6099 2349 
Q 6099 2317 6070 2291 
Q 6042 2266 6003 2266 
L 5120 2266 
L 5120 -806 
z
" transform="scale(0.015625)"/>
     </defs>
     <use xlink:href="#NanumGothicCoding-c18d"/>
     <use xlink:href="#NanumGothicCoding-b3c4" transform="translate(99.999985 0)"/>
     <use xlink:href="#NanumGothicCoding-20" transform="translate(199.999969 0)"/>
     <use xlink:href="#NanumGothicCoding-2f" transform="translate(249.999954 0)"/>
     <use xlink:href="#NanumGothicCoding-20" transform="translate(299.999939 0)"/>
     <use xlink:href="#NanumGothicCoding-ac00" transform="translate(349.999924 0)"/>
     <use xlink:href="#NanumGothicCoding-c18d" transform="translate(449.999908 0)"/>
     <use xlink:href="#NanumGothicCoding-b3c4" transform="translate(549.999893 0)"/>
    </g>
   </g>
   <g id="text_16">
    <!--  ↓ -->
    <g style="fill: #111827" transform="translate(16.4736 876.130864) scale(0.11 -0.11)">
     <use xlink:href="#NanumGothicCoding-20"/>
     <use xlink:href="#NanumGothicCoding-2193" transform="translate(49.999985 0)"/>
    </g>
   </g>
   <g id="text_17">
    <!-- 힘 / 충돌 / 반사 -->
    <g style="fill: #111827" transform="translate(16.4736 928.949503) scale(0.11 -0.11)">
     <defs>
      <path id="NanumGothicCoding-d798" d="M 5344 1414 
Q 5344 1325 5254 1325 
L 4992 1325 
Q 4902 1325 4902 1414 
L 4902 4915 
Q 4902 5005 4992 5005 
L 5254 5005 
Q 5344 5005 5344 4915 
L 5344 1414 
z
M 3341 4608 
Q 3341 4518 3245 4518 
L 1555 4518 
Q 1523 4518 1494 4540 
Q 1466 4563 1466 4602 
L 1466 4819 
Q 1466 4858 1491 4883 
Q 1517 4909 1549 4909 
L 3245 4909 
Q 3341 4909 3341 4819 
L 3341 4608 
z
M 4243 3821 
Q 4243 3738 4147 3738 
L 742 3738 
Q 710 3738 681 3763 
Q 653 3789 653 3827 
L 653 4032 
Q 653 4070 681 4096 
Q 710 4122 742 4122 
L 4147 4122 
Q 4243 4122 4243 4038 
L 4243 3821 
z
M 3814 2413 
Q 3814 2182 3708 1993 
Q 3603 1805 3420 1664 
Q 3238 1523 2985 1446 
Q 2733 1370 2438 1370 
Q 2138 1370 1888 1446 
Q 1638 1523 1452 1664 
Q 1267 1805 1164 1997 
Q 1062 2189 1062 2413 
Q 1062 2643 1164 2835 
Q 1267 3027 1452 3161 
Q 1638 3296 1888 3373 
Q 2138 3450 2438 3450 
Q 2733 3450 2985 3373 
Q 3238 3296 3420 3158 
Q 3603 3021 3708 2829 
Q 3814 2637 3814 2413 
z
M 3386 2413 
Q 3386 2566 3315 2691 
Q 3245 2816 3117 2902 
Q 2989 2989 2816 3037 
Q 2643 3085 2438 3085 
Q 2234 3085 2061 3037 
Q 1888 2989 1760 2902 
Q 1632 2816 1558 2691 
Q 1485 2566 1485 2413 
Q 1485 2259 1558 2134 
Q 1632 2010 1760 1920 
Q 1888 1830 2061 1782 
Q 2234 1734 2438 1734 
Q 2643 1734 2816 1782 
Q 2989 1830 3117 1920 
Q 3245 2010 3315 2134 
Q 3386 2259 3386 2413 
z
M 1690 499 
Q 1690 768 1792 861 
Q 1894 954 2176 954 
L 4858 954 
Q 5011 954 5104 934 
Q 5197 915 5251 864 
Q 5306 813 5325 723 
Q 5344 634 5344 499 
L 5344 -390 
Q 5344 -659 5241 -752 
Q 5139 -845 4858 -845 
L 2176 -845 
Q 2022 -845 1929 -825 
Q 1837 -806 1782 -752 
Q 1728 -698 1709 -611 
Q 1690 -525 1690 -390 
L 1690 499 
z
M 2285 570 
Q 2195 570 2163 534 
Q 2131 499 2131 403 
L 2131 -294 
Q 2131 -390 2163 -425 
Q 2195 -461 2285 -461 
L 4749 -461 
Q 4838 -461 4870 -425 
Q 4902 -390 4902 -294 
L 4902 403 
Q 4902 499 4870 534 
Q 4838 570 4749 570 
L 2285 570 
z
" transform="scale(0.015625)"/>
      <path id="NanumGothicCoding-cda9" d="M 5920 1997 
Q 5952 1997 5984 1974 
Q 6016 1952 6016 1914 
L 6016 1696 
Q 6016 1664 5984 1638 
Q 5952 1613 5920 1613 
L 3411 1613 
L 3411 1037 
Q 3693 1024 4006 969 
Q 4320 915 4582 803 
Q 4845 691 5014 508 
Q 5184 326 5184 51 
Q 5184 -256 4979 -448 
Q 4774 -640 4470 -752 
Q 4166 -864 3817 -905 
Q 3469 -947 3187 -947 
Q 3002 -947 2781 -931 
Q 2560 -915 2339 -870 
Q 2118 -826 1913 -752 
Q 1709 -678 1549 -569 
Q 1389 -461 1293 -307 
Q 1197 -154 1197 51 
Q 1197 320 1369 502 
Q 1542 685 1804 800 
Q 2067 915 2377 969 
Q 2688 1024 2970 1037 
L 2970 1613 
L 480 1613 
Q 442 1613 413 1638 
Q 384 1664 384 1696 
L 384 1914 
Q 384 1952 413 1974 
Q 442 1997 480 1997 
L 5920 1997 
z
M 4595 3610 
Q 4250 3366 3770 3142 
Q 4122 3040 4538 2953 
Q 4954 2867 5338 2816 
Q 5389 2810 5398 2787 
Q 5408 2765 5395 2720 
L 5338 2502 
Q 5325 2432 5235 2451 
Q 5030 2483 4777 2531 
Q 4525 2579 4256 2640 
Q 3987 2701 3718 2768 
Q 3450 2835 3200 2906 
Q 2765 2746 2262 2614 
Q 1760 2483 1190 2387 
Q 1094 2368 1069 2432 
L 992 2650 
Q 979 2682 998 2714 
Q 1018 2746 1056 2752 
Q 1510 2835 1907 2934 
Q 2304 3034 2662 3149 
Q 3021 3264 3357 3398 
Q 3693 3533 4026 3693 
Q 4134 3744 4124 3789 
Q 4115 3834 4013 3834 
L 1466 3834 
Q 1382 3834 1382 3917 
L 1382 4141 
Q 1382 4218 1466 4218 
L 4230 4218 
Q 4730 4218 4838 4042 
Q 4947 3866 4595 3610 
z
M 4717 45 
Q 4717 237 4544 355 
Q 4371 474 4124 538 
Q 3878 602 3619 621 
Q 3360 640 3187 640 
Q 3008 640 2749 621 
Q 2490 602 2250 538 
Q 2010 474 1837 355 
Q 1664 237 1664 45 
Q 1664 -147 1837 -262 
Q 2010 -378 2250 -442 
Q 2490 -506 2749 -525 
Q 3008 -544 3187 -544 
Q 3360 -544 3619 -525 
Q 3878 -506 4124 -442 
Q 4371 -378 4544 -262 
Q 4717 -147 4717 45 
z
M 4006 5005 
Q 4102 5005 4102 4915 
L 4102 4710 
Q 4102 4614 4006 4614 
L 2323 4614 
Q 2227 4614 2227 4710 
L 2227 4915 
Q 2227 5005 2323 5005 
L 4006 5005 
z
" transform="scale(0.015625)"/>
      <path id="NanumGothicCoding-b3cc" d="M 5178 3219 
Q 5178 3130 5094 3130 
L 3418 3130 
L 3418 2528 
L 5920 2528 
Q 5952 2528 5984 2505 
Q 6016 2483 6016 2445 
L 6016 2227 
Q 6016 2195 5984 2169 
Q 5952 2144 5920 2144 
L 480 2144 
Q 442 2144 413 2169 
Q 384 2195 384 2227 
L 384 2445 
Q 384 2483 413 2505 
Q 442 2528 480 2528 
L 2976 2528 
L 2976 3130 
L 1779 3130 
Q 1498 3130 1395 3222 
Q 1293 3315 1293 3584 
L 1293 4544 
Q 1293 4813 1395 4905 
Q 1498 4998 1779 4998 
L 5050 4998 
Q 5133 4998 5133 4915 
L 5133 4704 
Q 5133 4614 5050 4614 
L 1888 4614 
Q 1798 4614 1766 4579 
Q 1734 4544 1734 4448 
L 1734 3680 
Q 1734 3590 1766 3552 
Q 1798 3514 1888 3514 
L 5094 3514 
Q 5178 3514 5178 3430 
L 5178 3219 
z
M 5248 -781 
Q 5248 -813 5219 -835 
Q 5190 -858 5165 -858 
L 1760 -858 
Q 1459 -858 1366 -746 
Q 1274 -634 1274 -365 
L 1274 141 
Q 1274 410 1386 502 
Q 1498 595 1786 595 
L 4538 595 
Q 4627 595 4652 620 
Q 4678 646 4678 742 
L 4678 1082 
Q 4678 1178 4656 1203 
Q 4634 1229 4544 1229 
L 1350 1229 
Q 1318 1229 1289 1248 
Q 1261 1267 1261 1299 
L 1261 1523 
Q 1261 1555 1289 1574 
Q 1318 1594 1350 1594 
L 4608 1594 
Q 4762 1594 4858 1571 
Q 4954 1549 5011 1497 
Q 5069 1446 5091 1353 
Q 5114 1261 5114 1126 
L 5114 685 
Q 5114 416 5002 323 
Q 4890 230 4602 230 
L 1843 230 
Q 1754 230 1731 204 
Q 1709 179 1709 83 
L 1709 -339 
Q 1709 -429 1734 -457 
Q 1760 -486 1850 -486 
L 5158 -486 
Q 5190 -486 5219 -505 
Q 5248 -525 5248 -557 
L 5248 -781 
z
" transform="scale(0.015625)"/>
      <path id="NanumGothicCoding-bc18" d="M 1350 1715 
Q 1197 1715 1104 1734 
Q 1011 1754 960 1808 
Q 909 1862 889 1948 
Q 870 2035 870 2170 
L 870 4691 
Q 870 4723 896 4745 
Q 922 4768 954 4768 
L 1229 4768 
Q 1261 4768 1283 4742 
Q 1306 4717 1306 4691 
L 1306 3584 
L 3168 3584 
L 3168 4685 
Q 3168 4717 3190 4742 
Q 3213 4768 3245 4768 
L 3520 4768 
Q 3552 4768 3577 4745 
Q 3603 4723 3603 4691 
L 3603 2125 
Q 3603 1882 3500 1798 
Q 3398 1715 3117 1715 
L 1350 1715 
z
M 5120 832 
Q 5120 742 5030 742 
L 4768 742 
Q 4678 742 4678 832 
L 4678 4915 
Q 4678 5005 4768 5005 
L 5030 5005 
Q 5120 5005 5120 4915 
L 5120 3130 
L 6003 3130 
Q 6042 3130 6070 3107 
Q 6099 3085 6099 3046 
L 6099 2829 
Q 6099 2797 6070 2771 
Q 6042 2746 6003 2746 
L 5120 2746 
L 5120 832 
z
M 5408 -704 
Q 5408 -742 5376 -761 
Q 5344 -781 5312 -781 
L 2054 -781 
Q 1754 -781 1661 -669 
Q 1568 -557 1568 -294 
L 1568 960 
Q 1568 1050 1658 1050 
L 1920 1050 
Q 2010 1050 2010 960 
L 2010 -262 
Q 2010 -352 2038 -374 
Q 2067 -397 2157 -397 
L 5312 -397 
Q 5344 -397 5376 -419 
Q 5408 -442 5408 -474 
L 5408 -704 
z
M 1306 3206 
L 1306 2246 
Q 1306 2150 1338 2121 
Q 1370 2093 1459 2093 
L 3014 2093 
Q 3104 2093 3136 2121 
Q 3168 2150 3168 2246 
L 3168 3206 
L 1306 3206 
z
" transform="scale(0.015625)"/>
      <path id="NanumGothicCoding-c0ac" d="M 2477 4589 
Q 2477 4166 2441 3779 
Q 2406 3392 2330 3034 
Q 2394 2778 2528 2493 
Q 2662 2208 2844 1926 
Q 3027 1645 3254 1379 
Q 3482 1114 3738 902 
Q 3770 877 3773 838 
Q 3776 800 3757 774 
L 3597 576 
Q 3539 506 3462 576 
Q 3283 730 3094 944 
Q 2906 1158 2730 1395 
Q 2554 1632 2400 1881 
Q 2246 2131 2138 2362 
Q 1933 1779 1600 1289 
Q 1267 800 806 378 
Q 742 326 698 371 
L 506 570 
Q 486 589 489 621 
Q 493 653 525 685 
Q 915 1056 1203 1465 
Q 1491 1875 1673 2348 
Q 1856 2822 1942 3379 
Q 2029 3936 2029 4602 
Q 2029 4646 2051 4668 
Q 2074 4691 2106 4691 
L 2406 4678 
Q 2477 4678 2477 4589 
z
M 5120 -806 
Q 5120 -896 5030 -896 
L 4768 -896 
Q 4678 -896 4678 -806 
L 4678 4915 
Q 4678 5005 4768 5005 
L 5030 5005 
Q 5120 5005 5120 4915 
L 5120 2586 
L 6003 2586 
Q 6042 2586 6070 2563 
Q 6099 2541 6099 2502 
L 6099 2285 
Q 6099 2253 6070 2227 
Q 6042 2202 6003 2202 
L 5120 2202 
L 5120 -806 
z
" transform="scale(0.015625)"/>
     </defs>
     <use xlink:href="#NanumGothicCoding-d798"/>
     <use xlink:href="#NanumGothicCoding-20" transform="translate(99.999985 0)"/>
     <use xlink:href="#NanumGothicCoding-2f" transform="translate(149.999969 0)"/>
     <use xlink:href="#NanumGothicCoding-20" transform="translate(199.999954 0)"/>
     <use xlink:href="#NanumGothicCoding-cda9" transform="translate(249.999939 0)"/>
     <use xlink:href="#NanumGothicCoding-b3cc" transform="translate(349.999924 0)"/>
     <use xlink:href="#NanumGothicCoding-20" transform="translate(449.999908 0)"/>
     <use xlink:href="#NanumGothicCoding-2f" transform="translate(499.999893 0)"/>
     <use xlink:href="#NanumGothicCoding-20" transform="translate(549.999878 0)"/>
     <use xlink:href="#NanumGothicCoding-bc18" transform="translate(599.999863 0)"/>
     <use xlink:href="#NanumGothicCoding-c0ac" transform="translate(699.999847 0)"/>
    </g>
   </g>
   <g id="text_18">
    <!--  ↓ -->
    <g style="fill: #111827" transform="translate(16.4736 983.218768) scale(0.11 -0.11)">
     <use xlink:href="#NanumGothicCoding-20"/>
     <use xlink:href="#NanumGothicCoding-2193" transform="translate(49.999985 0)"/>
    </g>
   </g>
   <g id="text_19">
    <!-- 물리엔진 감각 -->
    <g style="fill: #111827" transform="translate(16.4736 1035.994439) scale(0.11 -0.11)">
     <defs>
      <path id="NanumGothicCoding-bb3c" d="M 1299 4538 
Q 1299 4806 1401 4899 
Q 1504 4992 1786 4992 
L 4614 4992 
Q 4768 4992 4861 4973 
Q 4954 4954 5008 4902 
Q 5062 4851 5081 4761 
Q 5101 4672 5101 4538 
L 5101 3475 
Q 5101 3206 4998 3113 
Q 4896 3021 4614 3021 
L 1786 3021 
Q 1632 3021 1539 3040 
Q 1446 3059 1392 3113 
Q 1338 3168 1318 3254 
Q 1299 3341 1299 3475 
L 1299 4538 
z
M 5248 -781 
Q 5248 -813 5219 -835 
Q 5190 -858 5165 -858 
L 1760 -858 
Q 1459 -858 1366 -746 
Q 1274 -634 1274 -365 
L 1274 45 
Q 1274 314 1386 406 
Q 1498 499 1786 499 
L 4538 499 
Q 4627 499 4652 524 
Q 4678 550 4678 646 
L 4678 954 
Q 4678 1050 4656 1075 
Q 4634 1101 4544 1101 
L 1350 1101 
Q 1318 1101 1289 1120 
Q 1261 1139 1261 1171 
L 1261 1395 
Q 1261 1427 1289 1446 
Q 1318 1466 1350 1466 
L 2970 1466 
L 2970 2093 
L 480 2093 
Q 442 2093 413 2118 
Q 384 2144 384 2176 
L 384 2394 
Q 384 2432 413 2454 
Q 442 2477 480 2477 
L 5920 2477 
Q 5952 2477 5984 2454 
Q 6016 2432 6016 2394 
L 6016 2176 
Q 6016 2144 5984 2118 
Q 5952 2093 5920 2093 
L 3411 2093 
L 3411 1466 
L 4608 1466 
Q 4762 1466 4858 1443 
Q 4954 1421 5011 1369 
Q 5069 1318 5091 1225 
Q 5114 1133 5114 998 
L 5114 589 
Q 5114 320 5002 227 
Q 4890 134 4602 134 
L 1843 134 
Q 1754 134 1731 108 
Q 1709 83 1709 -13 
L 1709 -339 
Q 1709 -429 1734 -457 
Q 1760 -486 1850 -486 
L 5158 -486 
Q 5190 -486 5219 -505 
Q 5248 -525 5248 -557 
L 5248 -781 
z
M 1894 4608 
Q 1805 4608 1773 4573 
Q 1741 4538 1741 4442 
L 1741 3571 
Q 1741 3475 1773 3440 
Q 1805 3405 1894 3405 
L 4506 3405 
Q 4595 3405 4627 3440 
Q 4659 3475 4659 3571 
L 4659 4442 
Q 4659 4538 4627 4573 
Q 4595 4608 4506 4608 
L 1894 4608 
z
" transform="scale(0.015625)"/>
      <path id="NanumGothicCoding-b9ac" d="M 5344 -806 
Q 5344 -896 5254 -896 
L 4992 -896 
Q 4902 -896 4902 -806 
L 4902 4915 
Q 4902 5005 4992 5005 
L 5254 5005 
Q 5344 5005 5344 4915 
L 5344 -806 
z
M 1402 550 
Q 1114 563 1014 668 
Q 915 774 915 1043 
L 915 2317 
Q 915 2586 1027 2678 
Q 1139 2771 1427 2771 
L 3040 2771 
Q 3130 2771 3155 2796 
Q 3181 2822 3181 2918 
L 3181 3994 
Q 3181 4090 3158 4115 
Q 3136 4141 3046 4141 
L 1030 4141 
Q 998 4141 969 4160 
Q 941 4179 941 4211 
L 941 4454 
Q 941 4486 969 4505 
Q 998 4525 1030 4525 
L 3117 4525 
Q 3270 4525 3366 4502 
Q 3462 4480 3520 4429 
Q 3578 4378 3600 4285 
Q 3622 4192 3622 4058 
L 3622 2842 
Q 3622 2573 3510 2480 
Q 3398 2387 3110 2387 
L 1491 2387 
Q 1402 2387 1379 2361 
Q 1357 2336 1357 2240 
L 1357 1075 
Q 1357 928 1498 928 
Q 2259 915 2960 985 
Q 3661 1056 4320 1203 
Q 4410 1222 4429 1139 
L 4467 928 
Q 4486 845 4384 819 
Q 4045 742 3670 688 
Q 3296 634 2909 598 
Q 2522 563 2138 550 
Q 1754 538 1402 550 
z
" transform="scale(0.015625)"/>
      <path id="NanumGothicCoding-c5d4" d="M 1914 4704 
Q 2131 4704 2348 4624 
Q 2566 4544 2748 4374 
Q 2931 4205 3056 3939 
Q 3181 3674 3206 3302 
L 4000 3302 
L 4000 4806 
Q 4000 4896 4090 4896 
L 4333 4896 
Q 4422 4896 4422 4806 
L 4422 960 
Q 4422 870 4333 870 
L 4090 870 
Q 4000 870 4000 960 
L 4000 2918 
L 3200 2918 
Q 3162 2573 3037 2323 
Q 2912 2074 2729 1910 
Q 2547 1747 2332 1667 
Q 2118 1587 1907 1587 
Q 1677 1587 1453 1680 
Q 1229 1773 1049 1965 
Q 870 2157 758 2454 
Q 646 2752 646 3155 
Q 646 3565 758 3856 
Q 870 4147 1052 4336 
Q 1235 4525 1459 4614 
Q 1683 4704 1914 4704 
z
M 2771 3155 
Q 2771 3424 2704 3632 
Q 2637 3840 2521 3987 
Q 2406 4134 2246 4211 
Q 2086 4288 1907 4288 
Q 1523 4288 1305 3981 
Q 1088 3674 1088 3155 
Q 1088 2893 1149 2681 
Q 1210 2470 1318 2320 
Q 1427 2170 1577 2086 
Q 1728 2003 1907 2003 
Q 2086 2003 2246 2083 
Q 2406 2163 2521 2313 
Q 2637 2464 2704 2675 
Q 2771 2886 2771 3155 
z
M 5728 -704 
Q 5728 -742 5696 -761 
Q 5664 -781 5632 -781 
L 2246 -781 
Q 1946 -781 1853 -665 
Q 1760 -550 1760 -288 
L 1760 960 
Q 1760 1050 1850 1050 
L 2112 1050 
Q 2202 1050 2202 960 
L 2202 -262 
Q 2202 -352 2230 -374 
Q 2259 -397 2349 -397 
L 5632 -397 
Q 5664 -397 5696 -419 
Q 5728 -442 5728 -474 
L 5728 -704 
z
M 5555 762 
Q 5555 672 5466 672 
L 5222 672 
Q 5133 672 5133 762 
L 5133 4915 
Q 5133 5005 5222 5005 
L 5466 5005 
Q 5555 5005 5555 4915 
L 5555 762 
z
" transform="scale(0.015625)"/>
      <path id="NanumGothicCoding-c9c4" d="M 3520 4038 
Q 3430 3776 3270 3510 
Q 3110 3245 2899 2982 
Q 3162 2682 3498 2416 
Q 3834 2150 4160 1978 
Q 4243 1939 4198 1856 
L 4051 1638 
Q 4032 1606 3993 1603 
Q 3955 1600 3923 1619 
Q 3597 1798 3261 2080 
Q 2925 2362 2637 2675 
Q 2266 2285 1824 1952 
Q 1382 1619 928 1414 
Q 896 1402 864 1392 
Q 832 1382 813 1414 
L 685 1638 
Q 666 1670 678 1705 
Q 691 1741 723 1754 
Q 1478 2138 2076 2707 
Q 2675 3277 3034 4013 
Q 3078 4102 3046 4140 
Q 3014 4179 2925 4179 
L 1050 4179 
Q 973 4179 973 4262 
L 973 4486 
Q 973 4563 1050 4563 
L 3098 4563 
Q 3430 4563 3526 4444 
Q 3622 4326 3520 4038 
z
M 5536 -704 
Q 5536 -742 5504 -761 
Q 5472 -781 5440 -781 
L 2234 -781 
Q 1933 -781 1840 -669 
Q 1747 -557 1747 -294 
L 1747 896 
Q 1747 986 1837 986 
L 2099 986 
Q 2189 986 2189 896 
L 2189 -262 
Q 2189 -352 2217 -374 
Q 2246 -397 2336 -397 
L 5440 -397 
Q 5472 -397 5504 -419 
Q 5536 -442 5536 -474 
L 5536 -704 
z
M 5344 806 
Q 5344 717 5254 717 
L 4992 717 
Q 4902 717 4902 806 
L 4902 4915 
Q 4902 5005 4992 5005 
L 5254 5005 
Q 5344 5005 5344 4915 
L 5344 806 
z
" transform="scale(0.015625)"/>
      <path id="NanumGothicCoding-ac10" d="M 1466 819 
Q 1466 1088 1568 1181 
Q 1670 1274 1952 1274 
L 4634 1274 
Q 4787 1274 4880 1254 
Q 4973 1235 5027 1184 
Q 5082 1133 5101 1043 
Q 5120 954 5120 819 
L 5120 -390 
Q 5120 -659 5017 -752 
Q 4915 -845 4634 -845 
L 1952 -845 
Q 1798 -845 1705 -825 
Q 1613 -806 1558 -752 
Q 1504 -698 1485 -611 
Q 1466 -525 1466 -390 
L 1466 819 
z
M 2061 890 
Q 1971 890 1939 854 
Q 1907 819 1907 723 
L 1907 -294 
Q 1907 -390 1939 -425 
Q 1971 -461 2061 -461 
L 4525 -461 
Q 4614 -461 4646 -425 
Q 4678 -390 4678 -294 
L 4678 723 
Q 4678 819 4646 854 
Q 4614 890 4525 890 
L 2061 890 
z
M 3482 4275 
Q 3334 3386 2707 2707 
Q 2080 2029 890 1530 
Q 781 1485 749 1568 
L 653 1779 
Q 627 1830 649 1862 
Q 672 1894 704 1907 
Q 1722 2330 2301 2909 
Q 2880 3488 3002 4160 
Q 3040 4346 2848 4346 
L 877 4346 
Q 800 4346 800 4429 
L 800 4653 
Q 800 4730 877 4730 
L 2995 4730 
Q 3302 4730 3411 4621 
Q 3520 4512 3482 4275 
z
M 5120 1702 
Q 5120 1613 5030 1613 
L 4768 1613 
Q 4678 1613 4678 1702 
L 4678 4915 
Q 4678 5005 4768 5005 
L 5030 5005 
Q 5120 5005 5120 4915 
L 5120 3386 
L 6003 3386 
Q 6042 3386 6070 3363 
Q 6099 3341 6099 3302 
L 6099 3085 
Q 6099 3053 6070 3027 
Q 6042 3002 6003 3002 
L 5120 3002 
L 5120 1702 
z
" transform="scale(0.015625)"/>
     </defs>
     <use xlink:href="#NanumGothicCoding-bb3c"/>
     <use xlink:href="#NanumGothicCoding-b9ac" transform="translate(99.999985 0)"/>
     <use xlink:href="#NanumGothicCoding-c5d4" transform="translate(199.999969 0)"/>
     <use xlink:href="#NanumGothicCoding-c9c4" transform="translate(299.999954 0)"/>
     <use xlink:href="#NanumGothicCoding-20" transform="translate(399.999939 0)"/>
     <use xlink:href="#NanumGothicCoding-ac10" transform="translate(449.999924 0)"/>
     <use xlink:href="#NanumGothicCoding-ac01" transform="translate(549.999908 0)"/>
    </g>
   </g>
  </g>
 </g>
 <defs>
  <clipPath id="pff33a81b98">
   <rect x="5.76" y="5.76" width="267.84" height="486.7632"/>
  </clipPath>
 </defs>
</svg>
