<?xml version="1.0" encoding="utf-8" standalone="no"?>
<!DOCTYPE svg PUBLIC "-//W3C//DTD SVG 1.1//EN"
  "http://www.w3.org/Graphics/SVG/1.1/DTD/svg11.dtd">
<svg xmlns:xlink="http://www.w3.org/1999/xlink" width="251.36pt" height="248.248531pt" viewBox="0 0 251.36 248.248531" xmlns="http://www.w3.org/2000/svg" version="1.1">
 <metadata>
  <rdf:RDF xmlns:dc="http://purl.org/dc/elements/1.1/" xmlns:cc="http://creativecommons.org/ns#" xmlns:rdf="http://www.w3.org/1999/02/22-rdf-syntax-ns#">
   <cc:Work>
    <dc:type rdf:resource="http://purl.org/dc/dcmitype/StillImage"/>
    <dc:date>2026-07-08T05:12:54.557328</dc:date>
    <dc:format>image/svg+xml</dc:format>
    <dc:creator>
     <cc:Agent>
      <dc:title>Matplotlib v3.10.8, https://matplotlib.org/</dc:title>
     </cc:Agent>
    </dc:creator>
   </cc:Work>
  </rdf:RDF>
 </metadata>
 <defs>
  <style type="text/css">*{stroke-linejoin: round; stroke-linecap: butt}</style>
 </defs>
 <g id="figure_1">
  <g id="patch_1">
   <path d="M 0 248.248531 
L 251.36 248.248531 
L 251.36 0 
L 0 0 
z
" style="fill: #ffffff"/>
  </g>
  <g id="axes_1">
   <g id="patch_2">
    <path d="M 151.038667 200.595198 
L 164.693333 200.595198 
L 164.693333 186.940531 
L 151.038667 186.940531 
L 151.038667 200.595198 
z
" clip-path="url(#p0bdcb2178b)" style="fill: none; stroke: #6b7280; stroke-width: 1.5; stroke-linejoin: miter"/>
   </g>
   <g id="line2d_1">
    <path d="M 47.653333 200.595198 
L 164.693333 200.595198 
" clip-path="url(#p0bdcb2178b)" style="fill: none; stroke: #6b7280; stroke-width: 2; stroke-linecap: square"/>
   </g>
   <g id="line2d_2">
    <path d="M 164.693333 200.595198 
L 164.693333 44.541865 
" clip-path="url(#p0bdcb2178b)" style="fill: none; stroke: #6b7280; stroke-width: 2; stroke-linecap: square"/>
   </g>
   <g id="line2d_3">
    <path d="M 47.653333 200.595198 
L 164.693333 44.541865 
" clip-path="url(#p0bdcb2178b)" style="fill: none; stroke: #2563eb; stroke-width: 2.6; stroke-linecap: square"/>
   </g>
   <g id="text_1">
    <!-- 벡터 길이: 피타고라스 정리 -->
    <g style="fill: #111827" transform="translate(8.64 20.054062) scale(0.15 -0.15)">
     <defs>
      <path id="NanumGothicBold-bca1" d="M 2970 2362 
Q 2970 2144 2867 2038 
Q 2765 1933 2483 1933 
L 934 1933 
Q 646 1933 544 2029 
Q 442 2125 442 2381 
L 442 4691 
Q 442 4723 467 4745 
Q 493 4768 525 4768 
L 1062 4768 
Q 1094 4768 1123 4745 
Q 1152 4723 1152 4691 
L 1152 3846 
L 2259 3846 
L 2259 4698 
Q 2259 4730 2284 4755 
Q 2310 4781 2342 4781 
L 2886 4781 
Q 2918 4781 2944 4755 
Q 2970 4730 2970 4698 
L 2970 3616 
L 3616 3616 
L 3616 4877 
Q 3616 4960 3706 4960 
L 4230 4960 
Q 4314 4960 4314 4877 
L 4314 1670 
Q 4314 1587 4230 1587 
L 3706 1587 
Q 3616 1587 3616 1670 
L 3616 3002 
L 2970 3002 
L 2970 2362 
z
M 5549 -909 
Q 5549 -941 5520 -969 
Q 5491 -998 5459 -998 
L 4909 -998 
Q 4870 -998 4841 -969 
Q 4813 -941 4813 -909 
L 4813 499 
Q 4813 570 4784 589 
Q 4755 608 4691 608 
L 1504 608 
Q 1472 608 1443 630 
Q 1414 653 1414 685 
L 1414 1139 
Q 1414 1178 1443 1200 
Q 1472 1222 1504 1222 
L 5126 1222 
Q 5370 1222 5459 1120 
Q 5549 1018 5549 774 
L 5549 -909 
z
M 4826 4979 
Q 4826 5062 4915 5062 
L 5466 5062 
Q 5549 5062 5549 4979 
L 5549 1626 
Q 5549 1594 5523 1565 
Q 5498 1536 5466 1536 
L 4909 1536 
Q 4877 1536 4851 1565 
Q 4826 1594 4826 1626 
L 4826 4979 
z
M 2259 3258 
L 1152 3258 
L 1152 2637 
Q 1152 2528 1274 2528 
L 2138 2528 
Q 2259 2528 2259 2637 
L 2259 3258 
z
" transform="scale(0.015625)"/>
      <path id="NanumGothicBold-d130" d="M 3776 922 
Q 3789 851 3760 825 
Q 3731 800 3699 787 
Q 3488 723 3149 672 
Q 2810 621 2432 592 
Q 2054 563 1686 556 
Q 1318 550 1050 576 
Q 589 614 589 1037 
L 589 4179 
Q 589 4403 681 4492 
Q 774 4582 1018 4582 
L 3136 4582 
Q 3232 4582 3232 4499 
L 3232 4051 
Q 3232 3968 3136 3968 
L 1440 3968 
Q 1325 3968 1325 3859 
L 1325 2957 
Q 1530 2957 1750 2957 
Q 1971 2957 2188 2960 
Q 2406 2963 2608 2969 
Q 2810 2976 2976 2989 
Q 3002 2989 3027 2976 
Q 3053 2963 3053 2931 
L 3059 2490 
Q 3059 2438 3040 2409 
Q 3021 2381 3002 2381 
Q 2822 2368 2611 2358 
Q 2400 2349 2179 2342 
Q 1958 2336 1740 2336 
Q 1523 2336 1325 2336 
L 1325 1357 
Q 1325 1254 1360 1219 
Q 1395 1184 1510 1178 
Q 1709 1165 1955 1168 
Q 2202 1171 2470 1193 
Q 2739 1216 3027 1251 
Q 3315 1286 3597 1344 
Q 3693 1363 3712 1274 
L 3776 922 
z
M 4640 4979 
Q 4640 5062 4723 5062 
L 5293 5062 
Q 5376 5062 5376 4979 
L 5376 -928 
Q 5376 -1011 5293 -1011 
L 4723 -1011 
Q 4640 -1011 4640 -928 
L 4640 2426 
L 3654 2426 
Q 3629 2426 3593 2451 
Q 3558 2477 3558 2528 
L 3558 2944 
Q 3558 2989 3593 3014 
Q 3629 3040 3654 3040 
L 4640 3040 
L 4640 4979 
z
" transform="scale(0.015625)"/>
      <path id="NanumGothicBold-20" transform="scale(0.015625)"/>
      <path id="NanumGothicBold-ae38" d="M 5216 1939 
Q 5216 1907 5190 1878 
Q 5165 1850 5133 1850 
L 4563 1850 
Q 4531 1850 4505 1878 
Q 4480 1907 4480 1946 
L 4480 4979 
Q 4480 5062 4563 5062 
L 5133 5062 
Q 5216 5062 5216 4979 
L 5216 1939 
z
M 826 1747 
Q 678 1690 621 1805 
L 474 2118 
Q 442 2170 451 2227 
Q 461 2285 531 2317 
Q 934 2490 1276 2691 
Q 1619 2893 1884 3120 
Q 2150 3347 2326 3590 
Q 2502 3834 2573 4096 
Q 2598 4205 2598 4243 
Q 2598 4282 2490 4282 
L 730 4282 
Q 691 4282 668 4310 
Q 646 4339 646 4378 
L 646 4781 
Q 646 4877 736 4877 
L 2893 4877 
Q 3174 4877 3296 4787 
Q 3418 4698 3418 4493 
Q 3418 4454 3408 4400 
Q 3398 4346 3385 4288 
Q 3373 4230 3360 4182 
Q 3347 4134 3341 4109 
Q 3219 3699 3001 3356 
Q 2784 3014 2470 2726 
Q 2157 2438 1744 2195 
Q 1331 1952 826 1747 
z
M 5382 -909 
Q 5382 -941 5350 -969 
Q 5318 -998 5293 -998 
L 1901 -998 
Q 1651 -998 1561 -902 
Q 1472 -806 1472 -602 
L 1472 173 
Q 1472 378 1558 467 
Q 1645 557 1894 557 
L 4422 557 
Q 4474 557 4486 576 
Q 4499 595 4499 653 
L 4499 870 
Q 4499 941 4486 957 
Q 4474 973 4416 973 
L 1549 973 
Q 1517 973 1488 995 
Q 1459 1018 1459 1050 
L 1459 1472 
Q 1459 1504 1488 1533 
Q 1517 1562 1549 1562 
L 4781 1562 
Q 5043 1562 5129 1472 
Q 5216 1382 5216 1165 
L 5216 403 
Q 5216 179 5129 96 
Q 5043 13 4781 13 
L 2272 13 
Q 2221 13 2208 -3 
Q 2195 -19 2195 -70 
L 2195 -333 
Q 2195 -390 2208 -400 
Q 2221 -410 2278 -410 
L 5286 -410 
Q 5318 -410 5350 -435 
Q 5382 -461 5382 -499 
L 5382 -909 
z
" transform="scale(0.015625)"/>
      <path id="NanumGothicBold-c774" d="M 5274 -928 
Q 5274 -1011 5190 -1011 
L 4621 -1011 
Q 4538 -1011 4538 -928 
L 4538 4979 
Q 4538 5062 4621 5062 
L 5190 5062 
Q 5274 5062 5274 4979 
L 5274 -928 
z
M 2963 2573 
Q 2963 2867 2905 3132 
Q 2848 3398 2739 3596 
Q 2630 3795 2473 3910 
Q 2317 4026 2112 4026 
Q 1907 4026 1750 3910 
Q 1594 3795 1485 3596 
Q 1376 3398 1318 3132 
Q 1261 2867 1261 2573 
Q 1261 2285 1318 2019 
Q 1376 1754 1485 1552 
Q 1594 1350 1750 1232 
Q 1907 1114 2112 1114 
Q 2317 1114 2473 1232 
Q 2630 1350 2739 1552 
Q 2848 1754 2905 2019 
Q 2963 2285 2963 2573 
z
M 2112 461 
Q 1747 461 1452 614 
Q 1158 768 956 1046 
Q 755 1325 646 1715 
Q 538 2106 538 2573 
Q 538 3053 646 3443 
Q 755 3834 956 4106 
Q 1158 4378 1452 4528 
Q 1747 4678 2112 4678 
Q 2483 4678 2774 4528 
Q 3066 4378 3267 4106 
Q 3469 3834 3577 3443 
Q 3686 3053 3686 2573 
Q 3686 2093 3577 1702 
Q 3469 1312 3267 1037 
Q 3066 762 2774 611 
Q 2483 461 2112 461 
z
" transform="scale(0.015625)"/>
      <path id="NanumGothicBold-3a" d="M 1011 3053 
Q 806 3053 662 3197 
Q 518 3341 518 3533 
Q 518 3731 662 3875 
Q 806 4019 1011 4019 
Q 1216 4019 1357 3875 
Q 1498 3731 1498 3533 
Q 1498 3341 1357 3197 
Q 1216 3053 1011 3053 
z
M 1011 141 
Q 806 141 662 285 
Q 518 429 518 627 
Q 518 819 662 963 
Q 806 1107 1011 1107 
Q 1216 1107 1357 963 
Q 1498 819 1498 627 
Q 1498 429 1357 285 
Q 1216 141 1011 141 
z
" transform="scale(0.015625)"/>
      <path id="NanumGothicBold-d53c" d="M 3872 4064 
Q 3872 4026 3843 3997 
Q 3814 3968 3776 3968 
L 3315 3968 
L 3315 1440 
Q 3501 1459 3689 1475 
Q 3878 1491 4058 1517 
Q 4090 1523 4125 1507 
Q 4160 1491 4166 1459 
L 4224 1056 
Q 4237 1005 4208 979 
Q 4179 954 4147 947 
Q 3770 890 3309 851 
Q 2848 813 2349 787 
Q 1850 762 1338 755 
Q 826 749 346 762 
Q 301 762 275 790 
Q 250 819 250 858 
L 250 1267 
Q 250 1357 346 1357 
Q 493 1350 646 1350 
Q 800 1350 947 1350 
L 947 3968 
L 448 3968 
Q 416 3968 381 4000 
Q 346 4032 346 4070 
L 346 4467 
Q 346 4506 381 4538 
Q 416 4570 448 4570 
L 3776 4570 
Q 3814 4570 3843 4541 
Q 3872 4512 3872 4467 
L 3872 4064 
z
M 5280 -928 
Q 5280 -1011 5190 -1011 
L 4627 -1011 
Q 4595 -1011 4566 -988 
Q 4538 -966 4538 -928 
L 4538 4979 
Q 4538 5011 4566 5036 
Q 4595 5062 4627 5062 
L 5190 5062 
Q 5280 5062 5280 4979 
L 5280 -928 
z
M 1664 1357 
Q 2150 1370 2598 1395 
L 2598 3968 
L 1664 3968 
L 1664 1357 
z
" transform="scale(0.015625)"/>
      <path id="NanumGothicBold-d0c0" d="M 3885 934 
Q 3898 864 3869 838 
Q 3840 813 3808 800 
Q 3597 730 3235 678 
Q 2874 627 2464 595 
Q 2054 563 1664 553 
Q 1274 544 1005 570 
Q 768 589 656 691 
Q 544 794 544 998 
L 544 4179 
Q 544 4403 637 4492 
Q 730 4582 973 4582 
L 3296 4582 
Q 3386 4582 3386 4499 
L 3386 4051 
Q 3386 3968 3296 3968 
L 1395 3968 
Q 1280 3968 1280 3859 
L 1280 2880 
Q 1530 2880 1792 2880 
Q 2054 2880 2310 2883 
Q 2566 2886 2803 2892 
Q 3040 2899 3245 2912 
Q 3270 2912 3305 2899 
Q 3341 2886 3341 2854 
L 3341 2419 
Q 3341 2310 3270 2310 
Q 3059 2298 2809 2288 
Q 2560 2278 2301 2272 
Q 2042 2266 1779 2266 
Q 1517 2266 1280 2266 
L 1280 1376 
Q 1280 1274 1315 1238 
Q 1350 1203 1472 1197 
Q 1670 1184 1936 1190 
Q 2202 1197 2499 1219 
Q 2797 1242 3107 1280 
Q 3418 1318 3699 1370 
Q 3802 1389 3821 1299 
L 3885 934 
z
M 5965 2195 
Q 5965 2157 5936 2131 
Q 5907 2106 5875 2106 
L 5005 2106 
L 5005 -928 
Q 5005 -1011 4922 -1011 
L 4352 -1011 
Q 4269 -1011 4269 -928 
L 4269 4979 
Q 4269 5062 4352 5062 
L 4922 5062 
Q 5005 5062 5005 4979 
L 5005 2720 
L 5875 2720 
Q 5907 2720 5936 2697 
Q 5965 2675 5965 2643 
L 5965 2195 
z
" transform="scale(0.015625)"/>
      <path id="NanumGothicBold-ace0" d="M 5882 166 
Q 5882 134 5850 102 
Q 5818 70 5786 70 
L 211 70 
Q 173 70 147 102 
Q 122 134 122 166 
L 122 589 
Q 122 627 147 656 
Q 173 685 211 685 
L 2362 685 
L 2362 2464 
Q 2362 2560 2451 2560 
L 3008 2560 
Q 3098 2560 3098 2464 
L 3098 685 
L 5786 685 
Q 5818 685 5850 653 
Q 5882 621 5882 589 
L 5882 166 
z
M 5146 4166 
Q 5146 3302 5085 2585 
Q 5024 1869 4928 1395 
Q 4915 1344 4886 1305 
Q 4858 1267 4806 1274 
L 4301 1318 
Q 4250 1325 4230 1363 
Q 4211 1402 4224 1453 
Q 4269 1690 4304 2000 
Q 4339 2310 4361 2640 
Q 4384 2970 4397 3290 
Q 4410 3610 4410 3872 
Q 4410 3962 4368 3984 
Q 4326 4006 4237 4006 
L 1088 4006 
Q 1056 4006 1024 4028 
Q 992 4051 992 4083 
L 992 4544 
Q 992 4582 1024 4601 
Q 1056 4621 1088 4621 
L 4717 4621 
Q 4922 4621 5034 4512 
Q 5146 4403 5146 4166 
z
" transform="scale(0.015625)"/>
      <path id="NanumGothicBold-b77c" d="M 3923 806 
Q 3930 755 3894 726 
Q 3859 698 3808 685 
Q 3526 621 3132 573 
Q 2739 525 2339 499 
Q 1939 474 1577 467 
Q 1216 461 1005 480 
Q 723 506 617 602 
Q 512 698 512 941 
L 512 2477 
Q 512 2707 624 2809 
Q 736 2912 960 2912 
L 2483 2912 
Q 2534 2912 2553 2928 
Q 2573 2944 2573 3008 
L 2573 3904 
Q 2573 3955 2560 3974 
Q 2547 3994 2483 3994 
L 640 3994 
Q 608 3994 579 4019 
Q 550 4045 550 4077 
L 550 4518 
Q 550 4550 579 4572 
Q 608 4595 640 4595 
L 2867 4595 
Q 3142 4595 3222 4492 
Q 3302 4390 3302 4160 
L 3302 2739 
Q 3302 2496 3203 2406 
Q 3104 2317 2854 2317 
L 1338 2317 
Q 1248 2317 1248 2227 
L 1248 1216 
Q 1248 1146 1273 1123 
Q 1299 1101 1363 1101 
Q 1651 1088 1955 1097 
Q 2259 1107 2563 1129 
Q 2867 1152 3161 1190 
Q 3456 1229 3718 1280 
Q 3770 1293 3811 1270 
Q 3853 1248 3866 1190 
L 3923 806 
z
M 5965 2195 
Q 5965 2157 5936 2131 
Q 5907 2106 5875 2106 
L 5005 2106 
L 5005 -928 
Q 5005 -1011 4922 -1011 
L 4352 -1011 
Q 4269 -1011 4269 -928 
L 4269 4979 
Q 4269 5062 4352 5062 
L 4922 5062 
Q 5005 5062 5005 4979 
L 5005 2720 
L 5875 2720 
Q 5907 2720 5936 2697 
Q 5965 2675 5965 2643 
L 5965 2195 
z
" transform="scale(0.015625)"/>
      <path id="NanumGothicBold-c2a4" d="M 902 1760 
Q 870 1747 828 1756 
Q 787 1766 755 1818 
L 525 2214 
Q 499 2266 521 2307 
Q 544 2349 589 2362 
Q 1069 2541 1430 2749 
Q 1792 2957 2045 3225 
Q 2298 3494 2442 3840 
Q 2586 4186 2630 4640 
Q 2637 4685 2659 4729 
Q 2682 4774 2733 4768 
L 3290 4742 
Q 3398 4736 3392 4602 
Q 3386 4435 3354 4288 
Q 3430 3981 3622 3699 
Q 3814 3418 4092 3184 
Q 4371 2950 4710 2771 
Q 5050 2592 5414 2490 
Q 5459 2477 5468 2435 
Q 5478 2394 5466 2362 
L 5248 1952 
Q 5197 1856 5094 1882 
Q 4800 1958 4502 2099 
Q 4205 2240 3929 2429 
Q 3654 2618 3424 2851 
Q 3194 3085 3034 3354 
Q 2714 2790 2166 2393 
Q 1619 1997 902 1760 
z
M 5786 685 
Q 5818 685 5850 653 
Q 5882 621 5882 582 
L 5882 166 
Q 5882 134 5850 102 
Q 5818 70 5786 70 
L 211 70 
Q 173 70 147 102 
Q 122 134 122 166 
L 122 582 
Q 122 685 211 685 
L 5786 685 
z
" transform="scale(0.015625)"/>
      <path id="NanumGothicBold-c815" d="M 5325 198 
Q 5325 -70 5181 -294 
Q 5037 -518 4777 -678 
Q 4518 -838 4166 -924 
Q 3814 -1011 3405 -1011 
Q 2963 -1011 2611 -924 
Q 2259 -838 2012 -681 
Q 1766 -525 1635 -301 
Q 1504 -77 1504 198 
Q 1504 467 1635 688 
Q 1766 909 2012 1069 
Q 2259 1229 2611 1315 
Q 2963 1402 3405 1402 
Q 3814 1402 4166 1315 
Q 4518 1229 4777 1072 
Q 5037 915 5181 694 
Q 5325 474 5325 198 
z
M 781 1530 
Q 742 1510 678 1513 
Q 614 1517 576 1587 
L 384 1901 
Q 352 1952 368 2009 
Q 384 2067 448 2093 
Q 806 2253 1126 2467 
Q 1446 2682 1705 2925 
Q 1965 3168 2157 3430 
Q 2349 3693 2451 3955 
Q 2477 4013 2473 4057 
Q 2470 4102 2368 4102 
L 781 4102 
Q 742 4102 716 4134 
Q 691 4166 691 4205 
L 691 4627 
Q 691 4666 720 4691 
Q 749 4717 787 4717 
L 2810 4717 
Q 3091 4717 3228 4614 
Q 3366 4512 3334 4301 
Q 3322 4230 3299 4153 
Q 3277 4077 3258 4019 
Q 3174 3789 3056 3568 
Q 2938 3347 2790 3136 
Q 2906 3021 3046 2905 
Q 3187 2790 3334 2684 
Q 3482 2579 3629 2492 
Q 3776 2406 3904 2349 
Q 4032 2285 3962 2170 
L 3763 1824 
Q 3693 1715 3565 1779 
Q 3443 1837 3296 1933 
Q 3149 2029 2992 2144 
Q 2835 2259 2678 2390 
Q 2522 2522 2387 2662 
Q 2054 2330 1651 2042 
Q 1248 1754 781 1530 
z
M 3450 3098 
L 3450 3546 
Q 3450 3578 3478 3600 
Q 3507 3622 3539 3622 
L 4544 3622 
L 4544 4979 
Q 4544 5062 4627 5062 
L 5197 5062 
Q 5280 5062 5280 4979 
L 5280 1581 
Q 5280 1491 5197 1491 
L 4627 1491 
Q 4544 1491 4544 1581 
L 4544 3021 
L 3539 3021 
Q 3507 3021 3478 3043 
Q 3450 3066 3450 3098 
z
M 4563 179 
Q 4563 339 4470 457 
Q 4378 576 4218 656 
Q 4058 736 3850 777 
Q 3642 819 3405 819 
Q 2893 819 2576 659 
Q 2259 499 2259 179 
Q 2259 26 2345 -86 
Q 2432 -198 2582 -275 
Q 2733 -352 2944 -390 
Q 3155 -429 3405 -429 
Q 3642 -429 3850 -390 
Q 4058 -352 4218 -275 
Q 4378 -198 4470 -86 
Q 4563 26 4563 179 
z
" transform="scale(0.015625)"/>
      <path id="NanumGothicBold-b9ac" d="M 5274 -928 
Q 5274 -1011 5190 -1011 
L 4621 -1011 
Q 4538 -1011 4538 -928 
L 4538 4979 
Q 4538 5062 4621 5062 
L 5190 5062 
Q 5274 5062 5274 4979 
L 5274 -928 
z
M 4109 806 
Q 4122 755 4083 726 
Q 4045 698 3994 685 
Q 3808 640 3568 605 
Q 3328 570 3059 544 
Q 2790 518 2515 499 
Q 2240 480 1984 473 
Q 1728 467 1513 467 
Q 1299 467 1158 480 
Q 877 506 771 602 
Q 666 698 666 941 
L 666 2477 
Q 666 2707 778 2809 
Q 890 2912 1114 2912 
L 2637 2912 
Q 2688 2912 2707 2928 
Q 2726 2944 2726 3008 
L 2726 3904 
Q 2726 3955 2713 3974 
Q 2701 3994 2637 3994 
L 794 3994 
Q 762 3994 733 4019 
Q 704 4045 704 4077 
L 704 4518 
Q 704 4550 733 4572 
Q 762 4595 794 4595 
L 3021 4595 
Q 3296 4595 3376 4492 
Q 3456 4390 3456 4160 
L 3456 2739 
Q 3456 2496 3357 2406 
Q 3258 2317 3008 2317 
L 1491 2317 
Q 1402 2317 1402 2227 
L 1402 1216 
Q 1402 1146 1427 1123 
Q 1453 1101 1523 1101 
Q 1805 1088 2115 1097 
Q 2426 1107 2739 1129 
Q 3053 1152 3350 1190 
Q 3648 1229 3910 1280 
Q 3955 1293 3996 1270 
Q 4038 1248 4051 1190 
L 4109 806 
z
" transform="scale(0.015625)"/>
     </defs>
     <use xlink:href="#NanumGothicBold-bca1"/>
     <use xlink:href="#NanumGothicBold-d130" transform="translate(93.999985 0)"/>
     <use xlink:href="#NanumGothicBold-20" transform="translate(187.999969 0)"/>
     <use xlink:href="#NanumGothicBold-ae38" transform="translate(215.999954 0)"/>
     <use xlink:href="#NanumGothicBold-c774" transform="translate(309.999939 0)"/>
     <use xlink:href="#NanumGothicBold-3a" transform="translate(403.999924 0)"/>
     <use xlink:href="#NanumGothicBold-20" transform="translate(434.299911 0)"/>
     <use xlink:href="#NanumGothicBold-d53c" transform="translate(462.299896 0)"/>
     <use xlink:href="#NanumGothicBold-d0c0" transform="translate(556.299881 0)"/>
     <use xlink:href="#NanumGothicBold-ace0" transform="translate(650.299866 0)"/>
     <use xlink:href="#NanumGothicBold-b77c" transform="translate(744.29985 0)"/>
     <use xlink:href="#NanumGothicBold-c2a4" transform="translate(838.299835 0)"/>
     <use xlink:href="#NanumGothicBold-20" transform="translate(932.29982 0)"/>
     <use xlink:href="#NanumGothicBold-c815" transform="translate(960.299805 0)"/>
     <use xlink:href="#NanumGothicBold-b9ac" transform="translate(1054.299789 0)"/>
    </g>
   </g>
   <g id="text_2">
    <!-- 3 -->
    <g style="fill: #111827" transform="translate(102.840677 218.47878) scale(0.11 -0.11)">
     <defs>
      <path id="NanumGothic-33" d="M 493 -192 
Q 397 -166 410 -45 
L 435 205 
Q 448 282 538 243 
Q 806 134 1046 89 
Q 1286 45 1606 38 
Q 2112 32 2458 294 
Q 2861 563 2861 1082 
Q 2861 1990 1498 1990 
L 1165 1990 
Q 1082 1990 1082 2061 
L 1082 2298 
Q 1082 2381 1165 2381 
L 1197 2381 
Q 1882 2381 2266 2528 
Q 2848 2752 2848 3334 
Q 2848 3520 2749 3677 
Q 2650 3834 2483 3942 
Q 2330 4032 2138 4083 
Q 1946 4134 1734 4134 
Q 1517 4134 1254 4076 
Q 992 4019 749 3923 
Q 666 3891 653 3974 
L 627 4211 
Q 608 4301 710 4339 
Q 998 4435 1248 4480 
Q 1498 4525 1779 4525 
Q 2426 4525 2835 4250 
Q 3302 3936 3302 3334 
Q 3302 2906 2995 2592 
Q 2739 2317 2330 2189 
Q 2534 2163 2710 2080 
Q 2886 1997 3014 1850 
Q 3162 1690 3238 1488 
Q 3315 1286 3315 1043 
Q 3315 723 3184 464 
Q 3053 205 2810 19 
Q 2573 -154 2265 -253 
Q 1958 -352 1581 -346 
Q 1242 -339 995 -307 
Q 749 -275 493 -192 
z
" transform="scale(0.015625)"/>
     </defs>
     <use xlink:href="#NanumGothic-33"/>
    </g>
   </g>
   <g id="text_3">
    <!-- 4 -->
    <g style="fill: #111827" transform="translate(174.446667 125.627047) scale(0.11 -0.11)">
     <defs>
      <path id="NanumGothic-34" d="M 2509 1216 
L 2509 4070 
Q 2035 3354 1568 2643 
Q 1101 1933 621 1216 
L 2509 1216 
z
M 2944 -211 
Q 2944 -301 2854 -301 
L 2598 -301 
Q 2509 -301 2509 -211 
L 2509 826 
L 397 826 
Q 262 826 240 848 
Q 218 870 218 1005 
L 218 1203 
Q 218 1261 224 1280 
Q 230 1299 262 1350 
L 2304 4397 
Q 2342 4454 2358 4464 
Q 2374 4474 2445 4474 
L 2765 4474 
Q 2899 4474 2921 4451 
Q 2944 4429 2944 4294 
L 2944 1216 
L 3578 1216 
Q 3667 1216 3667 1126 
L 3667 915 
Q 3667 826 3578 826 
L 2944 826 
L 2944 -211 
z
" transform="scale(0.015625)"/>
     </defs>
     <use xlink:href="#NanumGothic-34"/>
    </g>
   </g>
   <g id="text_4">
    <!-- 5 -->
    <g style="fill: #2563eb" transform="translate(96.42 121.725714) scale(0.11 -0.11)">
     <defs>
      <path id="NanumGothic-35" d="M 736 -205 
Q 646 -173 646 -90 
L 646 179 
Q 646 288 736 243 
Q 966 134 1187 89 
Q 1408 45 1670 45 
Q 2234 45 2586 320 
Q 2970 614 2970 1165 
Q 2970 2246 1734 2246 
Q 1491 2246 1296 2220 
Q 1101 2195 864 2131 
Q 794 2112 749 2147 
Q 704 2182 704 2253 
L 742 4294 
Q 742 4429 764 4451 
Q 787 4474 922 4474 
L 3110 4474 
Q 3200 4474 3200 4384 
L 3200 4173 
Q 3200 4083 3110 4083 
L 1178 4083 
Q 1171 3680 1161 3296 
Q 1152 2912 1146 2509 
Q 1459 2630 1907 2630 
Q 2579 2630 2995 2266 
Q 3411 1888 3411 1254 
Q 3411 480 2931 58 
Q 2470 -346 1670 -346 
Q 1382 -346 1171 -314 
Q 960 -282 736 -205 
z
" transform="scale(0.015625)"/>
     </defs>
     <use xlink:href="#NanumGothic-35"/>
    </g>
   </g>
   <g id="text_5">
    <!-- length = √(x² + y²) -->
    <g style="fill: #111827" transform="translate(39.850667 231.745384) scale(0.105 -0.105)">
     <defs>
      <path id="NanumGothic-6c" d="M 1056 -186 
Q 1056 -275 966 -275 
L 685 -275 
Q 595 -275 595 -186 
L 595 4723 
Q 595 4813 685 4813 
L 966 4813 
Q 1056 4813 1056 4723 
L 1056 -186 
z
" transform="scale(0.015625)"/>
      <path id="NanumGothic-65" d="M 2733 1696 
Q 2733 1958 2681 2163 
Q 2630 2368 2522 2534 
Q 2285 2912 1837 2912 
Q 1376 2912 1088 2528 
Q 973 2355 896 2131 
Q 819 1907 813 1696 
L 2733 1696 
z
M 813 1331 
Q 806 1011 886 764 
Q 966 518 1120 352 
Q 1274 186 1488 96 
Q 1702 6 1965 6 
Q 2221 6 2445 54 
Q 2669 102 2861 211 
Q 2944 250 2944 166 
L 2944 -122 
Q 2944 -179 2874 -211 
Q 2662 -294 2432 -336 
Q 2202 -378 1933 -378 
Q 1146 -378 742 80 
Q 339 538 339 1459 
Q 339 2272 742 2771 
Q 1165 3277 1811 3277 
Q 2170 3277 2432 3149 
Q 2694 3021 2880 2765 
Q 3206 2310 3206 1549 
Q 3206 1466 3203 1421 
Q 3200 1376 3181 1357 
Q 3162 1338 3114 1334 
Q 3066 1331 2976 1331 
L 813 1331 
z
" transform="scale(0.015625)"/>
      <path id="NanumGothic-6e" d="M 3334 -186 
Q 3334 -275 3245 -275 
L 2989 -275 
Q 2899 -275 2899 -186 
L 2899 1830 
Q 2899 2419 2688 2665 
Q 2477 2912 2093 2912 
Q 1574 2912 1302 2624 
Q 1030 2336 1030 1818 
L 1030 -186 
Q 1030 -275 941 -275 
L 685 -275 
Q 595 -275 595 -186 
L 595 2374 
Q 595 2650 592 2803 
Q 589 2957 576 3098 
Q 570 3142 598 3164 
Q 627 3187 666 3187 
L 896 3187 
Q 986 3187 986 3098 
L 986 2746 
Q 1165 3021 1417 3149 
Q 1670 3277 2112 3277 
Q 2720 3277 3027 2925 
Q 3334 2573 3334 1933 
L 3334 -186 
z
" transform="scale(0.015625)"/>
      <path id="NanumGothic-67" d="M 2950 1472 
Q 2950 2157 2668 2528 
Q 2387 2899 1907 2899 
Q 1389 2899 1126 2553 
Q 864 2208 864 1459 
Q 864 1184 941 953 
Q 1018 723 1152 560 
Q 1286 397 1472 304 
Q 1658 211 1875 211 
Q 2099 211 2297 304 
Q 2496 397 2640 566 
Q 2784 736 2867 966 
Q 2950 1197 2950 1472 
z
M 749 -1114 
Q 672 -1094 685 -1018 
L 704 -736 
Q 704 -653 787 -698 
Q 1030 -806 1254 -854 
Q 1478 -902 1741 -902 
Q 2323 -902 2614 -547 
Q 2906 -192 2944 422 
Q 2797 134 2509 -13 
Q 2221 -160 1869 -160 
Q 1555 -160 1286 -45 
Q 1018 70 819 281 
Q 621 493 505 793 
Q 390 1094 390 1459 
Q 390 1888 470 2224 
Q 550 2560 723 2790 
Q 896 3021 1171 3142 
Q 1446 3264 1837 3264 
Q 2176 3264 2435 3152 
Q 2694 3040 2963 2752 
L 2950 3098 
Q 2950 3187 3040 3187 
L 3283 3187 
Q 3373 3187 3373 3098 
L 3373 538 
Q 3373 122 3267 -214 
Q 3162 -550 2954 -784 
Q 2746 -1018 2438 -1142 
Q 2131 -1267 1734 -1267 
Q 1446 -1267 1228 -1232 
Q 1011 -1197 749 -1114 
z
" transform="scale(0.015625)"/>
      <path id="NanumGothic-74" d="M 2208 -282 
Q 1939 -378 1677 -378 
Q 1158 -378 992 -38 
Q 883 192 883 774 
L 883 2816 
L 282 2816 
Q 192 2816 192 2906 
L 192 3098 
Q 192 3187 282 3187 
L 883 3187 
L 883 4051 
Q 883 4147 966 4147 
L 1235 4147 
Q 1318 4147 1318 4051 
L 1318 3187 
L 2029 3187 
Q 2118 3187 2118 3098 
L 2118 2906 
Q 2118 2816 2029 2816 
L 1318 2816 
L 1318 557 
Q 1318 -13 1779 -13 
Q 1958 -13 2182 64 
Q 2214 77 2243 64 
Q 2272 51 2272 13 
L 2285 -154 
Q 2298 -243 2208 -282 
z
" transform="scale(0.015625)"/>
      <path id="NanumGothic-68" d="M 3334 -186 
Q 3334 -275 3245 -275 
L 2989 -275 
Q 2899 -275 2899 -186 
L 2899 1786 
Q 2899 2093 2844 2307 
Q 2790 2522 2688 2653 
Q 2586 2784 2438 2841 
Q 2291 2899 2112 2899 
Q 1587 2899 1308 2649 
Q 1030 2400 1030 1958 
L 1030 -186 
Q 1030 -275 941 -275 
L 685 -275 
Q 595 -275 595 -186 
L 595 4730 
Q 595 4819 685 4819 
L 941 4819 
Q 1030 4819 1030 4730 
L 1030 2874 
Q 1210 3078 1475 3171 
Q 1741 3264 2138 3264 
Q 2758 3264 3046 2899 
Q 3334 2534 3334 1792 
L 3334 -186 
z
" transform="scale(0.015625)"/>
      <path id="NanumGothic-20" transform="scale(0.015625)"/>
      <path id="NanumGothic-3d" d="M 3757 2995 
Q 3827 2995 3836 2985 
Q 3846 2976 3846 2906 
L 3846 2618 
Q 3846 2547 3836 2537 
Q 3827 2528 3757 2528 
L 467 2528 
Q 397 2528 387 2537 
Q 378 2547 378 2618 
L 378 2906 
Q 378 2976 387 2985 
Q 397 2995 467 2995 
L 3757 2995 
z
M 3757 1626 
Q 3827 1626 3836 1616 
Q 3846 1606 3846 1536 
L 3846 1261 
Q 3846 1190 3836 1180 
Q 3827 1171 3757 1171 
L 467 1171 
Q 397 1171 387 1180 
Q 378 1190 378 1261 
L 378 1536 
Q 378 1606 387 1616 
Q 397 1626 467 1626 
L 3757 1626 
z
" transform="scale(0.015625)"/>
      <path id="NanumGothic-221a" d="M 5043 3667 
L 2554 3667 
L 1216 -403 
L 512 883 
L 205 678 
L 102 813 
L 595 1248 
L 1146 237 
L 2342 3917 
L 5043 3917 
L 5043 3667 
z
" transform="scale(0.015625)"/>
      <path id="NanumGothic-28" d="M 1984 -1133 
Q 1939 -1133 1929 -1129 
Q 1920 -1126 1894 -1094 
Q 1312 -365 1030 384 
Q 749 1133 749 1933 
Q 749 2726 1030 3475 
Q 1312 4224 1894 4960 
Q 1920 4992 1929 4995 
Q 1939 4998 1971 4998 
L 2150 4998 
Q 2189 4998 2189 4992 
Q 2189 4986 2170 4954 
Q 1165 3379 1165 1933 
Q 1165 1197 1421 448 
Q 1677 -301 2176 -1088 
Q 2208 -1133 2144 -1133 
L 1984 -1133 
z
" transform="scale(0.015625)"/>
      <path id="NanumGothic-78" d="M 3046 -186 
Q 3066 -218 3050 -246 
Q 3034 -275 2995 -275 
L 2637 -275 
Q 2560 -275 2509 -186 
L 1645 1222 
L 717 -186 
Q 659 -275 589 -275 
L 269 -275 
Q 230 -275 214 -246 
Q 198 -218 218 -186 
L 1389 1562 
L 339 3098 
Q 320 3130 336 3158 
Q 352 3187 390 3187 
L 742 3187 
Q 819 3187 870 3098 
L 1645 1894 
L 2432 3098 
Q 2490 3187 2560 3187 
L 2874 3187 
Q 2912 3187 2928 3158 
Q 2944 3130 2925 3098 
L 1901 1562 
L 3046 -186 
z
" transform="scale(0.015625)"/>
      <path id="NanumGothic-b2" d="M 1798 4269 
Q 1798 4077 1692 3952 
Q 1587 3827 1427 3718 
Q 1261 3603 1168 3523 
Q 1075 3443 1043 3341 
L 1779 3341 
L 1779 3162 
L 819 3162 
Q 851 3424 998 3574 
Q 1146 3725 1363 3872 
Q 1498 3962 1558 4051 
Q 1619 4141 1619 4269 
Q 1619 4531 1338 4531 
Q 1190 4531 1113 4425 
Q 1037 4320 1037 4160 
L 851 4160 
Q 851 4384 988 4537 
Q 1126 4691 1350 4691 
Q 1555 4691 1676 4579 
Q 1798 4467 1798 4269 
z
" transform="scale(0.015625)"/>
      <path id="NanumGothic-2b" d="M 3846 1971 
Q 3846 1882 3830 1869 
Q 3814 1856 3725 1856 
L 2342 1856 
L 2342 474 
Q 2342 390 2329 377 
Q 2317 365 2234 365 
L 1984 365 
Q 1901 365 1888 377 
Q 1875 390 1875 474 
L 1875 1856 
L 499 1856 
Q 410 1856 394 1869 
Q 378 1882 378 1971 
L 378 2202 
Q 378 2291 394 2304 
Q 410 2317 499 2317 
L 1875 2317 
L 1875 3686 
Q 1875 3776 1891 3789 
Q 1907 3802 1997 3802 
L 2221 3802 
Q 2310 3802 2326 3789 
Q 2342 3776 2342 3686 
L 2342 2317 
L 3725 2317 
Q 3814 2317 3830 2304 
Q 3846 2291 3846 2202 
L 3846 1971 
z
" transform="scale(0.015625)"/>
      <path id="NanumGothic-79" d="M 301 -1222 
Q 224 -1203 237 -1126 
L 256 -909 
Q 256 -832 333 -864 
Q 435 -902 570 -902 
Q 704 -902 816 -860 
Q 928 -819 986 -749 
Q 1056 -659 1142 -454 
Q 1229 -250 1312 13 
Q 1024 794 742 1555 
Q 461 2317 173 3098 
Q 160 3130 173 3158 
Q 186 3187 224 3187 
L 525 3187 
Q 614 3187 653 3098 
L 1517 614 
Q 1754 1267 1968 1859 
Q 2182 2451 2419 3098 
Q 2451 3187 2547 3187 
L 2822 3187 
Q 2861 3187 2873 3158 
Q 2886 3130 2874 3098 
L 1542 -474 
Q 1472 -659 1385 -806 
Q 1299 -954 1210 -1043 
Q 1094 -1152 953 -1206 
Q 813 -1261 659 -1261 
Q 563 -1261 486 -1254 
Q 410 -1248 301 -1222 
z
" transform="scale(0.015625)"/>
      <path id="NanumGothic-29" d="M 301 -1133 
Q 243 -1133 275 -1088 
Q 774 -301 1027 448 
Q 1280 1197 1280 1933 
Q 1280 2662 1030 3414 
Q 781 4166 282 4954 
Q 262 4986 262 4992 
Q 262 4998 294 4998 
L 474 4998 
Q 506 4998 515 4995 
Q 525 4992 557 4960 
Q 1139 4224 1417 3475 
Q 1696 2726 1696 1933 
Q 1696 1133 1417 384 
Q 1139 -365 557 -1094 
Q 525 -1126 515 -1129 
Q 506 -1133 461 -1133 
L 301 -1133 
z
" transform="scale(0.015625)"/>
     </defs>
     <use xlink:href="#NanumGothic-6c"/>
     <use xlink:href="#NanumGothic-65" transform="translate(24.199997 0)"/>
     <use xlink:href="#NanumGothic-6e" transform="translate(78.699982 0)"/>
     <use xlink:href="#NanumGothic-67" transform="translate(139.299973 0)"/>
     <use xlink:href="#NanumGothic-74" transform="translate(199.899963 0)"/>
     <use xlink:href="#NanumGothic-68" transform="translate(236.199951 0)"/>
     <use xlink:href="#NanumGothic-20" transform="translate(296.799942 0)"/>
     <use xlink:href="#NanumGothic-3d" transform="translate(324.799927 0)"/>
     <use xlink:href="#NanumGothic-20" transform="translate(390.199921 0)"/>
     <use xlink:href="#NanumGothic-221a" transform="translate(418.199905 0)"/>
     <use xlink:href="#NanumGothic-28" transform="translate(498.599899 0)"/>
     <use xlink:href="#NanumGothic-78" transform="translate(534.899887 0)"/>
     <use xlink:href="#NanumGothic-b2" transform="translate(585.899872 0)"/>
     <use xlink:href="#NanumGothic-20" transform="translate(626.899857 0)"/>
     <use xlink:href="#NanumGothic-2b" transform="translate(654.899841 0)"/>
     <use xlink:href="#NanumGothic-20" transform="translate(720.299835 0)"/>
     <use xlink:href="#NanumGothic-79" transform="translate(748.29982 0)"/>
     <use xlink:href="#NanumGothic-b2" transform="translate(794.699814 0)"/>
     <use xlink:href="#NanumGothic-29" transform="translate(835.699799 0)"/>
    </g>
   </g>
  </g>
 </g>
 <defs>
  <clipPath id="p0bdcb2178b">
   <rect x="8.64" y="28.936531" width="234.08" height="210.672"/>
  </clipPath>
 </defs>
</svg>
