<?xml version="1.0" encoding="utf-8" standalone="no"?>
<!DOCTYPE svg PUBLIC "-//W3C//DTD SVG 1.1//EN"
  "http://www.w3.org/Graphics/SVG/1.1/DTD/svg11.dtd">
<svg xmlns:xlink="http://www.w3.org/1999/xlink" width="248.681739pt" height="214.917575pt" viewBox="0 0 248.681739 214.917575" xmlns="http://www.w3.org/2000/svg" version="1.1">
 <metadata>
  <rdf:RDF xmlns:dc="http://purl.org/dc/elements/1.1/" xmlns:cc="http://creativecommons.org/ns#" xmlns:rdf="http://www.w3.org/1999/02/22-rdf-syntax-ns#">
   <cc:Work>
    <dc:type rdf:resource="http://purl.org/dc/dcmitype/StillImage"/>
    <dc:date>2026-07-08T05:12:55.693855</dc:date>
    <dc:format>image/svg+xml</dc:format>
    <dc:creator>
     <cc:Agent>
      <dc:title>Matplotlib v3.10.8, https://matplotlib.org/</dc:title>
     </cc:Agent>
    </dc:creator>
   </cc:Work>
  </rdf:RDF>
 </metadata>
 <defs>
  <style type="text/css">*{stroke-linejoin: round; stroke-linecap: butt}</style>
 </defs>
 <g id="figure_1">
  <g id="patch_1">
   <path d="M 0 214.917575 
L 248.681739 214.917575 
L 248.681739 -0 
L 0 -0 
z
" style="fill: #ffffff"/>
  </g>
  <g id="axes_1">
   <g id="patch_2">
    <path d="M 58.777043 159.997227 
L 189.904696 159.997227 
L 189.904696 82.863314 
L 58.777043 82.863314 
L 58.777043 159.997227 
z
" clip-path="url(#p35605c4187)" style="fill: none; stroke: #2563eb; stroke-width: 2.4; stroke-linejoin: miter"/>
   </g>
   <g id="text_1">
    <!-- AABB -->
    <g style="fill: #111827" transform="translate(8.64 20.054062) scale(0.15 -0.15)">
     <defs>
      <path id="NanumGothicBold-41" d="M 3949 -320 
Q 3904 -320 3885 -310 
Q 3866 -301 3846 -256 
L 3386 896 
L 1299 896 
L 838 -256 
Q 826 -301 806 -310 
Q 787 -320 742 -320 
L 154 -320 
Q 38 -320 77 -230 
L 1946 4435 
Q 1965 4486 1974 4496 
Q 1984 4506 2048 4506 
L 2643 4506 
Q 2701 4506 2713 4496 
Q 2726 4486 2746 4435 
L 4614 -230 
Q 4646 -320 4538 -320 
L 3949 -320 
z
M 1562 1568 
L 3117 1568 
L 2342 3539 
L 1562 1568 
z
" transform="scale(0.015625)"/>
      <path id="NanumGothicBold-42" d="M 653 -320 
Q 576 -320 576 -256 
L 576 4416 
Q 576 4506 653 4506 
L 1760 4506 
Q 2490 4506 2896 4205 
Q 3302 3904 3302 3283 
Q 3302 2899 3145 2627 
Q 2989 2355 2701 2202 
Q 2886 2131 3024 2016 
Q 3162 1901 3254 1753 
Q 3347 1606 3392 1443 
Q 3437 1280 3437 1120 
Q 3437 397 2963 38 
Q 2490 -320 1594 -320 
L 653 -320 
z
M 1306 3827 
L 1306 2528 
L 1651 2528 
Q 2157 2528 2368 2723 
Q 2579 2918 2579 3226 
Q 2579 3494 2393 3660 
Q 2208 3827 1760 3827 
L 1306 3827 
z
M 1293 1837 
L 1293 365 
L 1606 365 
Q 2221 365 2467 560 
Q 2714 755 2714 1094 
Q 2714 1440 2445 1638 
Q 2176 1837 1536 1837 
L 1293 1837 
z
" transform="scale(0.015625)"/>
     </defs>
     <use xlink:href="#NanumGothicBold-41"/>
     <use xlink:href="#NanumGothicBold-41" transform="translate(72.699982 0)"/>
     <use xlink:href="#NanumGothicBold-42" transform="translate(145.399963 0)"/>
     <use xlink:href="#NanumGothicBold-42" transform="translate(205.999954 0)"/>
    </g>
   </g>
   <g id="text_2">
    <!-- 축에 평행한 박스 -->
    <g style="fill: #6b7280" transform="translate(86.85587 189.913589) scale(0.105 -0.105)">
     <defs>
      <path id="NanumGothic-cd95" d="M 947 806 
Q 947 845 979 864 
Q 1011 883 1043 883 
L 2778 883 
L 2778 1587 
L 288 1587 
Q 250 1587 221 1612 
Q 192 1638 192 1670 
L 192 1888 
Q 192 1926 221 1948 
Q 250 1971 288 1971 
L 5728 1971 
Q 5760 1971 5792 1948 
Q 5824 1926 5824 1888 
L 5824 1670 
Q 5824 1638 5792 1612 
Q 5760 1587 5728 1587 
L 3219 1587 
L 3219 883 
L 4442 883 
Q 4742 883 4835 771 
Q 4928 659 4928 397 
L 4928 -870 
Q 4928 -960 4838 -960 
L 4576 -960 
Q 4486 -960 4486 -870 
L 4486 365 
Q 4486 454 4457 476 
Q 4429 499 4339 499 
L 1043 499 
Q 1011 499 979 521 
Q 947 544 947 576 
L 947 806 
z
M 4403 3610 
Q 4237 3482 4029 3366 
Q 3821 3251 3578 3142 
Q 3936 3040 4352 2953 
Q 4768 2867 5146 2816 
Q 5197 2803 5206 2784 
Q 5216 2765 5203 2720 
L 5146 2502 
Q 5126 2432 5043 2451 
Q 4838 2483 4585 2531 
Q 4333 2579 4064 2643 
Q 3795 2707 3526 2774 
Q 3258 2842 3014 2912 
Q 2573 2746 2064 2614 
Q 1555 2483 998 2387 
Q 902 2368 877 2432 
L 800 2650 
Q 787 2682 806 2710 
Q 826 2739 864 2752 
Q 1331 2842 1734 2944 
Q 2138 3046 2499 3161 
Q 2861 3277 3187 3408 
Q 3514 3539 3834 3693 
Q 3942 3744 3932 3789 
Q 3923 3834 3821 3834 
L 1274 3834 
Q 1190 3834 1190 3917 
L 1190 4141 
Q 1190 4218 1274 4218 
L 4038 4218 
Q 4538 4218 4646 4042 
Q 4755 3866 4403 3610 
z
M 3814 5005 
Q 3910 5005 3910 4915 
L 3910 4710 
Q 3910 4614 3814 4614 
L 2131 4614 
Q 2035 4614 2035 4710 
L 2035 4915 
Q 2035 5005 2131 5005 
L 3814 5005 
z
" transform="scale(0.015625)"/>
      <path id="NanumGothic-c5d0" d="M 4230 -563 
Q 4230 -653 4141 -653 
L 3898 -653 
Q 3808 -653 3808 -563 
L 3808 2419 
L 3085 2419 
Q 3059 1978 2944 1648 
Q 2829 1318 2643 1097 
Q 2458 877 2218 768 
Q 1978 659 1709 659 
Q 1421 659 1177 784 
Q 934 909 755 1155 
Q 576 1402 473 1773 
Q 371 2144 371 2643 
Q 371 3142 473 3510 
Q 576 3878 758 4124 
Q 941 4371 1184 4489 
Q 1427 4608 1715 4608 
Q 1990 4608 2230 4499 
Q 2470 4390 2656 4166 
Q 2842 3942 2954 3603 
Q 3066 3264 3085 2803 
L 3808 2803 
L 3808 4806 
Q 3808 4896 3898 4896 
L 4141 4896 
Q 4230 4896 4230 4806 
L 4230 -563 
z
M 2643 2643 
Q 2643 2938 2585 3219 
Q 2528 3501 2413 3725 
Q 2298 3949 2122 4086 
Q 1946 4224 1709 4224 
Q 1459 4224 1289 4083 
Q 1120 3942 1014 3715 
Q 909 3488 864 3206 
Q 819 2925 819 2643 
Q 819 2362 870 2077 
Q 922 1792 1027 1561 
Q 1133 1331 1302 1187 
Q 1472 1043 1709 1043 
Q 1946 1043 2122 1184 
Q 2298 1325 2413 1552 
Q 2528 1779 2585 2067 
Q 2643 2355 2643 2643 
z
M 5363 -806 
Q 5363 -896 5274 -896 
L 5030 -896 
Q 4941 -896 4941 -806 
L 4941 4915 
Q 4941 5005 5030 5005 
L 5274 5005 
Q 5363 5005 5363 4915 
L 5363 -806 
z
" transform="scale(0.015625)"/>
      <path id="NanumGothic-20" transform="scale(0.015625)"/>
      <path id="NanumGothic-d3c9" d="M 5203 250 
Q 5203 -26 5056 -243 
Q 4909 -461 4656 -611 
Q 4403 -762 4067 -842 
Q 3731 -922 3347 -922 
Q 2931 -922 2592 -842 
Q 2253 -762 2009 -611 
Q 1766 -461 1632 -243 
Q 1498 -26 1498 250 
Q 1498 518 1632 732 
Q 1766 947 2009 1097 
Q 2253 1248 2592 1328 
Q 2931 1408 3347 1408 
Q 3731 1408 4067 1328 
Q 4403 1248 4656 1101 
Q 4909 954 5056 739 
Q 5203 525 5203 250 
z
M 3725 4429 
Q 3725 4346 3629 4346 
L 3098 4346 
L 3098 2317 
Q 3302 2330 3500 2352 
Q 3699 2374 3885 2406 
Q 3942 2419 3961 2409 
Q 3981 2400 3994 2355 
L 4032 2144 
Q 4038 2106 4025 2086 
Q 4013 2067 3949 2054 
Q 3584 1990 3136 1961 
Q 2688 1933 2221 1907 
Q 2042 1894 1811 1891 
Q 1581 1888 1337 1885 
Q 1094 1882 857 1882 
Q 621 1882 435 1888 
Q 397 1888 368 1913 
Q 339 1939 339 1971 
L 339 2176 
Q 339 2214 368 2236 
Q 397 2259 435 2259 
L 1171 2259 
L 1171 4346 
L 480 4346 
Q 448 4346 419 4371 
Q 390 4397 390 4435 
L 390 4634 
Q 390 4672 419 4697 
Q 448 4723 480 4723 
L 3629 4723 
Q 3725 4723 3725 4640 
L 3725 4429 
z
M 4749 230 
Q 4749 422 4633 569 
Q 4518 717 4323 816 
Q 4128 915 3872 969 
Q 3616 1024 3341 1024 
Q 3034 1024 2778 969 
Q 2522 915 2339 816 
Q 2157 717 2054 569 
Q 1952 422 1952 230 
Q 1952 45 2054 -99 
Q 2157 -243 2339 -339 
Q 2522 -435 2778 -486 
Q 3034 -538 3341 -538 
Q 3616 -538 3872 -486 
Q 4128 -435 4323 -339 
Q 4518 -243 4633 -99 
Q 4749 45 4749 230 
z
M 4710 4096 
L 4710 4915 
Q 4710 5005 4800 5005 
L 5062 5005 
Q 5152 5005 5152 4915 
L 5152 1555 
Q 5152 1466 5062 1466 
L 4800 1466 
Q 4710 1466 4710 1555 
L 4710 2688 
L 3731 2688 
Q 3648 2688 3648 2765 
L 3648 2989 
Q 3648 3066 3731 3066 
L 4710 3066 
L 4710 3718 
L 3731 3718 
Q 3648 3718 3648 3795 
L 3648 4019 
Q 3648 4096 3731 4096 
L 4710 4096 
z
M 2208 2278 
Q 2323 2278 2438 2281 
Q 2554 2285 2662 2291 
L 2662 4346 
L 1606 4346 
L 1606 2266 
Q 1773 2272 1926 2272 
Q 2080 2272 2208 2278 
z
" transform="scale(0.015625)"/>
      <path id="NanumGothic-d589" d="M 5382 64 
Q 5382 -173 5219 -355 
Q 5056 -538 4787 -662 
Q 4518 -787 4166 -851 
Q 3814 -915 3430 -915 
Q 3014 -915 2659 -851 
Q 2304 -787 2041 -662 
Q 1779 -538 1632 -355 
Q 1485 -173 1485 64 
Q 1485 294 1632 473 
Q 1779 653 2041 777 
Q 2304 902 2659 966 
Q 3014 1030 3430 1030 
Q 3814 1030 4166 966 
Q 4518 902 4787 780 
Q 5056 659 5219 476 
Q 5382 294 5382 64 
z
M 3053 2426 
Q 3053 2234 2973 2051 
Q 2893 1869 2736 1728 
Q 2579 1587 2352 1500 
Q 2125 1414 1837 1414 
Q 1542 1414 1315 1500 
Q 1088 1587 934 1728 
Q 781 1869 701 2051 
Q 621 2234 621 2426 
Q 621 2624 701 2803 
Q 781 2982 934 3123 
Q 1088 3264 1315 3347 
Q 1542 3430 1837 3430 
Q 2125 3430 2352 3344 
Q 2579 3258 2736 3120 
Q 2893 2982 2973 2800 
Q 3053 2618 3053 2426 
z
M 4128 3302 
L 4941 3302 
L 4941 4915 
Q 4941 5005 5030 5005 
L 5274 5005 
Q 5363 5005 5363 4915 
L 5363 1306 
Q 5363 1216 5274 1216 
L 5030 1216 
Q 4941 1216 4941 1306 
L 4941 2918 
L 4128 2918 
L 4128 1504 
Q 4128 1414 4038 1414 
L 3795 1414 
Q 3706 1414 3706 1504 
L 3706 4806 
Q 3706 4896 3795 4896 
L 4038 4896 
Q 4128 4896 4128 4806 
L 4128 3302 
z
M 4934 45 
Q 4934 205 4800 323 
Q 4666 442 4451 518 
Q 4237 595 3968 633 
Q 3699 672 3424 672 
Q 3123 672 2851 633 
Q 2579 595 2374 518 
Q 2170 442 2051 323 
Q 1933 205 1933 45 
Q 1933 -109 2051 -221 
Q 2170 -333 2374 -409 
Q 2579 -486 2851 -521 
Q 3123 -557 3424 -557 
Q 3699 -557 3968 -521 
Q 4237 -486 4451 -409 
Q 4666 -333 4800 -221 
Q 4934 -109 4934 45 
z
M 2643 2426 
Q 2643 2688 2441 2877 
Q 2240 3066 1837 3066 
Q 1434 3066 1232 2880 
Q 1030 2694 1030 2426 
Q 1030 2170 1232 1974 
Q 1434 1779 1837 1779 
Q 2240 1779 2441 1974 
Q 2643 2170 2643 2426 
z
M 3251 3802 
Q 3251 3718 3155 3718 
L 474 3718 
Q 442 3718 413 3744 
Q 384 3770 384 3808 
L 384 4013 
Q 384 4051 413 4076 
Q 442 4102 474 4102 
L 3155 4102 
Q 3251 4102 3251 4019 
L 3251 3802 
z
M 2611 4570 
Q 2611 4480 2515 4480 
L 1152 4480 
Q 1120 4480 1091 4502 
Q 1062 4525 1062 4563 
L 1062 4781 
Q 1062 4819 1088 4844 
Q 1114 4870 1146 4870 
L 2515 4870 
Q 2611 4870 2611 4781 
L 2611 4570 
z
" transform="scale(0.015625)"/>
      <path id="NanumGothic-d55c" d="M 3488 2170 
Q 3488 1939 3385 1734 
Q 3283 1530 3107 1376 
Q 2931 1222 2688 1136 
Q 2445 1050 2163 1050 
Q 1882 1050 1638 1136 
Q 1395 1222 1219 1376 
Q 1043 1530 944 1734 
Q 845 1939 845 2170 
Q 845 2400 944 2601 
Q 1043 2803 1219 2953 
Q 1395 3104 1638 3190 
Q 1882 3277 2163 3277 
Q 2445 3277 2688 3190 
Q 2931 3104 3107 2953 
Q 3283 2803 3385 2601 
Q 3488 2400 3488 2170 
z
M 4928 544 
Q 4928 454 4838 454 
L 4576 454 
Q 4486 454 4486 544 
L 4486 4915 
Q 4486 5005 4576 5005 
L 4838 5005 
Q 4928 5005 4928 4915 
L 4928 2797 
L 5811 2797 
Q 5850 2797 5878 2774 
Q 5907 2752 5907 2714 
L 5907 2496 
Q 5907 2464 5878 2438 
Q 5850 2413 5811 2413 
L 4928 2413 
L 4928 544 
z
M 3053 2170 
Q 3053 2323 2985 2454 
Q 2918 2586 2800 2682 
Q 2682 2778 2518 2832 
Q 2355 2886 2163 2886 
Q 1971 2886 1811 2832 
Q 1651 2778 1529 2682 
Q 1408 2586 1341 2454 
Q 1274 2323 1274 2170 
Q 1274 2016 1341 1881 
Q 1408 1747 1529 1651 
Q 1651 1555 1811 1497 
Q 1971 1440 2163 1440 
Q 2355 1440 2518 1497 
Q 2682 1555 2800 1651 
Q 2918 1747 2985 1881 
Q 3053 2016 3053 2170 
z
M 5216 -723 
Q 5216 -762 5184 -781 
Q 5152 -800 5120 -800 
L 1818 -800 
Q 1517 -800 1424 -688 
Q 1331 -576 1331 -314 
L 1331 570 
Q 1331 659 1421 659 
L 1683 659 
Q 1773 659 1773 570 
L 1773 -288 
Q 1773 -378 1801 -397 
Q 1830 -416 1920 -416 
L 5120 -416 
Q 5152 -416 5184 -438 
Q 5216 -461 5216 -493 
L 5216 -723 
z
M 4026 3667 
Q 4026 3584 3930 3584 
L 397 3584 
Q 365 3584 336 3609 
Q 307 3635 307 3674 
L 307 3878 
Q 307 3917 336 3942 
Q 365 3968 397 3968 
L 3930 3968 
Q 4026 3968 4026 3885 
L 4026 3667 
z
M 3091 4538 
Q 3091 4454 2995 4454 
L 1242 4454 
Q 1210 4454 1181 4473 
Q 1152 4493 1152 4531 
L 1152 4755 
Q 1152 4794 1177 4819 
Q 1203 4845 1235 4845 
L 2995 4845 
Q 3091 4845 3091 4755 
L 3091 4538 
z
" transform="scale(0.015625)"/>
      <path id="NanumGothic-bc15" d="M 1158 1939 
Q 1005 1939 912 1958 
Q 819 1978 768 2032 
Q 717 2086 697 2172 
Q 678 2259 678 2394 
L 678 4698 
Q 678 4730 704 4752 
Q 730 4774 762 4774 
L 1037 4774 
Q 1069 4774 1091 4748 
Q 1114 4723 1114 4698 
L 1114 3699 
L 2976 3699 
L 2976 4691 
Q 2976 4723 2998 4748 
Q 3021 4774 3053 4774 
L 3328 4774 
Q 3360 4774 3385 4752 
Q 3411 4730 3411 4698 
L 3411 2349 
Q 3411 2106 3308 2022 
Q 3206 1939 2925 1939 
L 1158 1939 
z
M 1197 1165 
Q 1197 1203 1229 1222 
Q 1261 1242 1293 1242 
L 4442 1242 
Q 4742 1242 4835 1130 
Q 4928 1018 4928 755 
L 4928 -832 
Q 4928 -922 4838 -922 
L 4576 -922 
Q 4486 -922 4486 -832 
L 4486 723 
Q 4486 813 4457 835 
Q 4429 858 4339 858 
L 1293 858 
Q 1261 858 1229 880 
Q 1197 902 1197 934 
L 1197 1165 
z
M 4928 1690 
Q 4928 1600 4838 1600 
L 4576 1600 
Q 4486 1600 4486 1690 
L 4486 4915 
Q 4486 5005 4576 5005 
L 4838 5005 
Q 4928 5005 4928 4915 
L 4928 3328 
L 5811 3328 
Q 5850 3328 5878 3305 
Q 5907 3283 5907 3245 
L 5907 3027 
Q 5907 2995 5878 2969 
Q 5850 2944 5811 2944 
L 4928 2944 
L 4928 1690 
z
M 1114 3322 
L 1114 2470 
Q 1114 2374 1146 2345 
Q 1178 2317 1267 2317 
L 2822 2317 
Q 2912 2317 2944 2345 
Q 2976 2374 2976 2470 
L 2976 3322 
L 1114 3322 
z
" transform="scale(0.015625)"/>
      <path id="NanumGothic-c2a4" d="M 3232 4608 
Q 3213 4429 3168 4269 
Q 3181 4198 3200 4137 
Q 3219 4077 3245 4032 
Q 3405 3718 3632 3436 
Q 3859 3155 4128 2924 
Q 4397 2694 4701 2524 
Q 5005 2355 5325 2266 
Q 5363 2253 5376 2214 
Q 5389 2176 5376 2144 
L 5274 1933 
Q 5254 1901 5232 1881 
Q 5210 1862 5146 1888 
Q 4794 2010 4470 2195 
Q 4147 2381 3868 2614 
Q 3590 2848 3360 3126 
Q 3130 3405 2963 3706 
Q 2816 3398 2598 3110 
Q 2381 2822 2112 2576 
Q 1843 2330 1529 2131 
Q 1216 1933 870 1805 
Q 768 1766 742 1830 
L 627 2054 
Q 614 2086 624 2121 
Q 634 2157 672 2176 
Q 1101 2336 1465 2595 
Q 1830 2854 2108 3177 
Q 2387 3501 2563 3878 
Q 2739 4256 2790 4653 
Q 2797 4730 2874 4730 
L 3162 4698 
Q 3238 4685 3232 4608 
z
M 5728 499 
Q 5760 499 5792 476 
Q 5824 454 5824 416 
L 5824 198 
Q 5824 166 5792 140 
Q 5760 115 5728 115 
L 288 115 
Q 250 115 221 140 
Q 192 166 192 198 
L 192 416 
Q 192 454 221 476 
Q 250 499 288 499 
L 5728 499 
z
" transform="scale(0.015625)"/>
     </defs>
     <use xlink:href="#NanumGothic-cd95"/>
     <use xlink:href="#NanumGothic-c5d0" transform="translate(93.999985 0)"/>
     <use xlink:href="#NanumGothic-20" transform="translate(187.999969 0)"/>
     <use xlink:href="#NanumGothic-d3c9" transform="translate(215.999954 0)"/>
     <use xlink:href="#NanumGothic-d589" transform="translate(309.999939 0)"/>
     <use xlink:href="#NanumGothic-d55c" transform="translate(403.999924 0)"/>
     <use xlink:href="#NanumGothic-20" transform="translate(497.999908 0)"/>
     <use xlink:href="#NanumGothic-bc15" transform="translate(525.999893 0)"/>
     <use xlink:href="#NanumGothic-c2a4" transform="translate(619.999878 0)"/>
    </g>
   </g>
  </g>
 </g>
 <defs>
  <clipPath id="p35605c4187">
   <rect x="8.64" y="28.869575" width="231.401739" height="177.408"/>
  </clipPath>
 </defs>
</svg>
