<?xml version="1.0" encoding="utf-8" standalone="no"?>
<!DOCTYPE svg PUBLIC "-//W3C//DTD SVG 1.1//EN"
  "http://www.w3.org/Graphics/SVG/1.1/DTD/svg11.dtd">
<svg xmlns:xlink="http://www.w3.org/1999/xlink" width="441.36pt" height="249.065531pt" viewBox="0 0 441.36 249.065531" xmlns="http://www.w3.org/2000/svg" version="1.1">
 <metadata>
  <rdf:RDF xmlns:dc="http://purl.org/dc/elements/1.1/" xmlns:cc="http://creativecommons.org/ns#" xmlns:rdf="http://www.w3.org/1999/02/22-rdf-syntax-ns#">
   <cc:Work>
    <dc:type rdf:resource="http://purl.org/dc/dcmitype/StillImage"/>
    <dc:date>2026-07-08T05:12:55.134253</dc:date>
    <dc:format>image/svg+xml</dc:format>
    <dc:creator>
     <cc:Agent>
      <dc:title>Matplotlib v3.10.8, https://matplotlib.org/</dc:title>
     </cc:Agent>
    </dc:creator>
   </cc:Work>
  </rdf:RDF>
 </metadata>
 <defs>
  <style type="text/css">*{stroke-linejoin: round; stroke-linecap: butt}</style>
 </defs>
 <g id="figure_1">
  <g id="patch_1">
   <path d="M 0 249.065531 
L 441.36 249.065531 
L 441.36 0 
L 0 0 
z
" style="fill: #ffffff"/>
  </g>
  <g id="axes_1">
   <g id="text_1">
    <!-- 회전은 기준축을 새 방향으로 바꾸는 것 -->
    <g style="fill: #111827" transform="translate(8.64 20.054062) scale(0.15 -0.15)">
     <defs>
      <path id="NanumGothicBold-d68c" d="M 211 544 
Q 211 640 307 640 
Q 672 627 1072 633 
Q 1472 640 1875 653 
L 1875 1203 
Q 1651 1248 1462 1341 
Q 1274 1434 1136 1571 
Q 998 1709 921 1881 
Q 845 2054 845 2259 
Q 845 2496 957 2697 
Q 1069 2899 1261 3040 
Q 1453 3181 1709 3261 
Q 1965 3341 2253 3341 
Q 2547 3341 2806 3261 
Q 3066 3181 3258 3040 
Q 3450 2899 3558 2697 
Q 3667 2496 3667 2259 
Q 3667 2054 3584 1881 
Q 3501 1709 3357 1574 
Q 3213 1440 3017 1347 
Q 2822 1254 2592 1216 
L 2592 685 
Q 3014 710 3414 742 
Q 3814 774 4154 826 
Q 4186 832 4227 822 
Q 4269 813 4275 762 
L 4314 358 
Q 4320 307 4294 281 
Q 4269 256 4237 250 
Q 3878 192 3392 147 
Q 2906 102 2371 73 
Q 1837 45 1299 32 
Q 762 19 307 26 
Q 262 26 236 54 
Q 211 83 211 122 
L 211 544 
z
M 5280 -928 
Q 5280 -1011 5190 -1011 
L 4627 -1011 
Q 4595 -1011 4566 -988 
Q 4538 -966 4538 -928 
L 4538 4979 
Q 4538 5011 4566 5036 
Q 4595 5062 4627 5062 
L 5190 5062 
Q 5280 5062 5280 4979 
L 5280 -928 
z
M 4000 3661 
Q 4000 3622 3971 3593 
Q 3942 3565 3904 3565 
L 518 3565 
Q 486 3565 454 3597 
Q 422 3629 422 3667 
L 422 4026 
Q 422 4058 457 4090 
Q 493 4122 525 4122 
L 3904 4122 
Q 3942 4122 3971 4093 
Q 4000 4064 4000 4026 
L 4000 3661 
z
M 2253 2771 
Q 1946 2771 1741 2627 
Q 1536 2483 1536 2259 
Q 1536 2035 1737 1888 
Q 1939 1741 2253 1741 
Q 2573 1741 2774 1888 
Q 2976 2035 2976 2259 
Q 2976 2483 2774 2627 
Q 2573 2771 2253 2771 
z
M 3174 4493 
Q 3174 4448 3145 4416 
Q 3117 4384 3072 4384 
L 1376 4384 
Q 1350 4384 1312 4409 
Q 1274 4435 1274 4486 
L 1274 4858 
Q 1274 4902 1312 4928 
Q 1350 4954 1376 4954 
L 3072 4954 
Q 3110 4954 3142 4922 
Q 3174 4890 3174 4851 
L 3174 4493 
z
" transform="scale(0.015625)"/>
      <path id="NanumGothicBold-c804" d="M 755 1325 
Q 717 1306 656 1306 
Q 595 1306 557 1376 
L 365 1690 
Q 333 1741 349 1795 
Q 365 1850 422 1882 
Q 774 2054 1100 2291 
Q 1427 2528 1692 2797 
Q 1958 3066 2153 3347 
Q 2349 3629 2445 3891 
Q 2470 3955 2467 3996 
Q 2464 4038 2355 4038 
L 781 4038 
Q 736 4038 713 4067 
Q 691 4096 691 4134 
L 691 4563 
Q 691 4653 787 4653 
L 2816 4653 
Q 3098 4653 3232 4547 
Q 3366 4442 3334 4237 
Q 3322 4166 3302 4096 
Q 3283 4026 3264 3968 
Q 3194 3725 3059 3472 
Q 2925 3219 2746 2970 
Q 2861 2842 3008 2714 
Q 3155 2586 3312 2467 
Q 3469 2349 3622 2246 
Q 3776 2144 3904 2074 
Q 4032 2010 3955 1882 
L 3744 1555 
Q 3674 1453 3546 1517 
Q 3430 1574 3273 1680 
Q 3117 1786 2947 1917 
Q 2778 2048 2614 2195 
Q 2451 2342 2323 2477 
Q 1997 2131 1600 1836 
Q 1203 1542 755 1325 
z
M 3437 2918 
L 3437 3360 
Q 3437 3392 3465 3414 
Q 3494 3437 3526 3437 
L 4544 3437 
L 4544 4979 
Q 4544 5062 4627 5062 
L 5197 5062 
Q 5280 5062 5280 4979 
L 5280 826 
Q 5280 742 5197 742 
L 4627 742 
Q 4544 742 4544 826 
L 4544 2835 
L 3526 2835 
Q 3494 2835 3465 2860 
Q 3437 2886 3437 2918 
z
M 5466 -826 
Q 5466 -864 5437 -883 
Q 5408 -902 5376 -902 
L 2042 -902 
Q 1754 -902 1654 -800 
Q 1555 -698 1555 -448 
L 1555 947 
Q 1555 979 1584 1008 
Q 1613 1037 1645 1037 
L 2195 1037 
Q 2234 1037 2262 1008 
Q 2291 979 2291 947 
L 2291 -186 
Q 2291 -250 2316 -269 
Q 2342 -288 2413 -288 
L 5376 -288 
Q 5408 -288 5437 -313 
Q 5466 -339 5466 -371 
L 5466 -826 
z
" transform="scale(0.015625)"/>
      <path id="NanumGothicBold-c740" d="M 3014 2637 
Q 2566 2637 2192 2717 
Q 1818 2797 1549 2944 
Q 1280 3091 1129 3308 
Q 979 3526 979 3802 
Q 979 4077 1129 4297 
Q 1280 4518 1549 4665 
Q 1818 4813 2192 4893 
Q 2566 4973 3014 4973 
Q 3462 4973 3833 4893 
Q 4205 4813 4473 4665 
Q 4742 4518 4892 4297 
Q 5043 4077 5043 3802 
Q 5043 3526 4892 3308 
Q 4742 3091 4473 2944 
Q 4205 2797 3833 2717 
Q 3462 2637 3014 2637 
z
M 3014 4384 
Q 2733 4384 2502 4342 
Q 2272 4301 2102 4224 
Q 1933 4147 1840 4038 
Q 1747 3930 1747 3802 
Q 1747 3674 1840 3568 
Q 1933 3462 2102 3385 
Q 2272 3309 2502 3267 
Q 2733 3226 3014 3226 
Q 3290 3226 3520 3267 
Q 3750 3309 3920 3385 
Q 4090 3462 4182 3568 
Q 4275 3674 4275 3802 
Q 4275 3930 4182 4038 
Q 4090 4147 3920 4224 
Q 3750 4301 3520 4342 
Q 3290 4384 3014 4384 
z
M 211 1510 
Q 173 1510 147 1542 
Q 122 1574 122 1613 
L 122 2029 
Q 122 2067 147 2096 
Q 173 2125 211 2125 
L 5786 2125 
Q 5818 2125 5850 2093 
Q 5882 2061 5882 2029 
L 5882 1613 
Q 5882 1581 5850 1545 
Q 5818 1510 5786 1510 
L 211 1510 
z
M 5184 -755 
Q 5184 -794 5155 -813 
Q 5126 -832 5088 -832 
L 1523 -832 
Q 1235 -832 1136 -729 
Q 1037 -627 1037 -371 
L 1037 1018 
Q 1037 1050 1065 1078 
Q 1094 1107 1126 1107 
L 1677 1107 
Q 1715 1107 1744 1078 
Q 1773 1050 1773 1018 
L 1773 -115 
Q 1773 -179 1798 -198 
Q 1824 -218 1894 -218 
L 5088 -218 
Q 5120 -218 5152 -240 
Q 5184 -262 5184 -294 
L 5184 -755 
z
" transform="scale(0.015625)"/>
      <path id="NanumGothicBold-20" transform="scale(0.015625)"/>
      <path id="NanumGothicBold-ae30" d="M 5274 -928 
Q 5274 -1011 5190 -1011 
L 4621 -1011 
Q 4538 -1011 4538 -928 
L 4538 4979 
Q 4538 5062 4621 5062 
L 5190 5062 
Q 5274 5062 5274 4979 
L 5274 -928 
z
M 3546 4102 
Q 3494 3482 3286 2931 
Q 3078 2381 2736 1907 
Q 2394 1434 1926 1030 
Q 1459 627 896 294 
Q 845 262 784 272 
Q 723 282 691 333 
L 474 672 
Q 442 723 454 771 
Q 467 819 512 845 
Q 1466 1408 2038 2144 
Q 2611 2880 2784 3757 
Q 2810 3885 2771 3926 
Q 2733 3968 2611 3968 
L 806 3968 
Q 717 3968 717 4058 
L 717 4506 
Q 717 4582 806 4582 
L 3098 4582 
Q 3386 4582 3475 4464 
Q 3565 4346 3546 4102 
z
" transform="scale(0.015625)"/>
      <path id="NanumGothicBold-c900" d="M 858 2515 
Q 806 2502 764 2518 
Q 723 2534 710 2566 
L 589 2963 
Q 576 3002 605 3040 
Q 634 3078 666 3091 
Q 1075 3187 1481 3302 
Q 1888 3418 2262 3555 
Q 2637 3693 2960 3843 
Q 3283 3994 3533 4154 
Q 3571 4179 3603 4201 
Q 3635 4224 3644 4240 
Q 3654 4256 3628 4265 
Q 3603 4275 3533 4275 
L 1158 4275 
Q 1075 4275 1075 4358 
L 1075 4800 
Q 1075 4877 1158 4877 
L 4301 4877 
Q 4550 4877 4688 4797 
Q 4826 4717 4826 4582 
Q 4826 4397 4576 4128 
Q 4435 3981 4243 3840 
Q 4051 3699 3827 3571 
Q 4000 3520 4201 3465 
Q 4403 3411 4611 3360 
Q 4819 3309 5024 3267 
Q 5229 3226 5402 3194 
Q 5453 3181 5478 3142 
Q 5504 3104 5478 3053 
L 5325 2688 
Q 5312 2650 5267 2624 
Q 5222 2598 5178 2611 
Q 4928 2650 4653 2717 
Q 4378 2784 4099 2861 
Q 3821 2938 3552 3024 
Q 3283 3110 3053 3187 
Q 2771 3066 2476 2957 
Q 2182 2848 1897 2761 
Q 1613 2675 1347 2614 
Q 1082 2554 858 2515 
z
M 5882 1594 
Q 5882 1562 5850 1526 
Q 5818 1491 5786 1491 
L 3418 1491 
L 3418 371 
Q 3418 282 3328 282 
L 2771 282 
Q 2682 282 2682 371 
L 2682 1491 
L 211 1491 
Q 173 1491 147 1526 
Q 122 1562 122 1594 
L 122 2010 
Q 122 2048 147 2077 
Q 173 2106 211 2106 
L 5786 2106 
Q 5818 2106 5850 2074 
Q 5882 2042 5882 2010 
L 5882 1594 
z
M 5184 -781 
Q 5184 -819 5155 -838 
Q 5126 -858 5088 -858 
L 1466 -858 
Q 1178 -858 1078 -752 
Q 979 -646 979 -397 
L 979 896 
Q 979 928 1008 957 
Q 1037 986 1069 986 
L 1619 986 
Q 1658 986 1686 957 
Q 1715 928 1715 896 
L 1715 -141 
Q 1715 -205 1740 -224 
Q 1766 -243 1830 -243 
L 5088 -243 
Q 5120 -243 5152 -265 
Q 5184 -288 5184 -320 
L 5184 -781 
z
" transform="scale(0.015625)"/>
      <path id="NanumGothicBold-cd95" d="M 4960 -928 
Q 4960 -960 4931 -989 
Q 4902 -1018 4870 -1018 
L 4320 -1018 
Q 4282 -1018 4253 -989 
Q 4224 -960 4224 -928 
L 4224 147 
Q 4224 218 4198 237 
Q 4173 256 4102 256 
L 998 256 
Q 966 256 937 278 
Q 909 301 909 333 
L 909 774 
Q 909 813 937 835 
Q 966 858 998 858 
L 2630 858 
L 2630 1357 
L 211 1357 
Q 122 1357 122 1446 
L 122 1850 
Q 122 1888 147 1917 
Q 173 1946 211 1946 
L 5779 1946 
Q 5811 1946 5843 1914 
Q 5875 1882 5875 1850 
L 5875 1446 
Q 5875 1414 5843 1385 
Q 5811 1357 5779 1357 
L 3366 1357 
L 3366 858 
L 4538 858 
Q 4781 858 4870 755 
Q 4960 653 4960 410 
L 4960 -928 
z
M 979 2240 
Q 934 2227 883 2243 
Q 832 2259 819 2298 
L 710 2669 
Q 698 2707 723 2745 
Q 749 2784 794 2797 
Q 1562 2944 2224 3133 
Q 2886 3322 3424 3571 
Q 3482 3597 3498 3613 
Q 3514 3629 3504 3638 
Q 3494 3648 3468 3651 
Q 3443 3654 3424 3654 
L 1216 3654 
Q 1126 3654 1126 3738 
L 1126 4128 
Q 1126 4205 1216 4205 
L 4122 4205 
Q 4403 4205 4537 4112 
Q 4672 4019 4672 3904 
Q 4672 3795 4605 3692 
Q 4538 3590 4442 3507 
Q 4230 3302 3840 3110 
Q 4160 3040 4518 2976 
Q 4877 2912 5222 2861 
Q 5274 2848 5293 2806 
Q 5312 2765 5299 2726 
L 5203 2394 
Q 5190 2362 5148 2333 
Q 5107 2304 5050 2317 
Q 4589 2387 4051 2505 
Q 3514 2624 3021 2771 
Q 2554 2605 2026 2467 
Q 1498 2330 979 2240 
z
M 3859 4563 
Q 3859 4525 3827 4493 
Q 3795 4461 3750 4461 
L 2112 4461 
Q 2086 4461 2051 4486 
Q 2016 4512 2016 4557 
L 2016 4909 
Q 2016 4954 2051 4979 
Q 2086 5005 2112 5005 
L 3750 5005 
Q 3789 5005 3824 4973 
Q 3859 4941 3859 4902 
L 3859 4563 
z
" transform="scale(0.015625)"/>
      <path id="NanumGothicBold-c744" d="M 3008 4570 
Q 2726 4570 2496 4528 
Q 2266 4486 2096 4409 
Q 1926 4333 1833 4230 
Q 1741 4128 1741 4013 
Q 1741 3898 1833 3802 
Q 1926 3706 2096 3632 
Q 2266 3558 2496 3520 
Q 2726 3482 3008 3482 
Q 3283 3482 3516 3520 
Q 3750 3558 3920 3632 
Q 4090 3706 4182 3805 
Q 4275 3904 4275 4019 
Q 4275 4134 4182 4233 
Q 4090 4333 3920 4409 
Q 3750 4486 3516 4528 
Q 3283 4570 3008 4570 
z
M 5018 4019 
Q 5018 3789 4886 3587 
Q 4755 3386 4499 3242 
Q 4243 3098 3868 3014 
Q 3494 2931 3008 2931 
Q 2522 2931 2147 3014 
Q 1773 3098 1517 3242 
Q 1261 3386 1129 3587 
Q 998 3789 998 4019 
Q 998 4250 1129 4454 
Q 1261 4659 1517 4806 
Q 1773 4954 2147 5040 
Q 2522 5126 3008 5126 
Q 3494 5126 3868 5040 
Q 4243 4954 4499 4806 
Q 4755 4659 4886 4454 
Q 5018 4250 5018 4019 
z
M 5114 -845 
Q 5114 -877 5085 -905 
Q 5056 -934 5030 -934 
L 1459 -934 
Q 1210 -934 1120 -844 
Q 1030 -755 1030 -550 
L 1030 198 
Q 1030 403 1116 492 
Q 1203 582 1453 582 
L 4166 582 
Q 4218 582 4230 592 
Q 4243 602 4243 666 
L 4243 858 
Q 4243 928 4230 944 
Q 4218 960 4160 960 
L 1107 960 
Q 1075 960 1046 982 
Q 1018 1005 1018 1037 
L 1018 1466 
Q 1018 1498 1046 1523 
Q 1075 1549 1107 1549 
L 4531 1549 
Q 4794 1549 4880 1469 
Q 4966 1389 4966 1171 
L 4966 422 
Q 4966 198 4880 121 
Q 4794 45 4531 45 
L 1830 45 
Q 1779 45 1766 29 
Q 1754 13 1754 -45 
L 1754 -262 
Q 1754 -320 1766 -329 
Q 1779 -339 1837 -339 
L 5024 -339 
Q 5056 -339 5085 -364 
Q 5114 -390 5114 -429 
L 5114 -845 
z
M 211 1958 
Q 122 1958 122 2048 
L 122 2458 
Q 122 2496 147 2525 
Q 173 2554 211 2554 
L 5786 2554 
Q 5818 2554 5850 2522 
Q 5882 2490 5882 2458 
L 5882 2048 
Q 5882 2016 5850 1987 
Q 5818 1958 5786 1958 
L 211 1958 
z
" transform="scale(0.015625)"/>
      <path id="NanumGothicBold-c0c8" d="M 4826 4979 
Q 4826 5062 4915 5062 
L 5466 5062 
Q 5549 5062 5549 4979 
L 5549 -928 
Q 5549 -1011 5466 -1011 
L 4909 -1011 
Q 4826 -1011 4826 -928 
L 4826 2112 
L 4230 2112 
L 4230 -685 
Q 4230 -774 4147 -774 
L 3622 -774 
Q 3533 -774 3533 -685 
L 3533 4864 
Q 3533 4947 3622 4947 
L 4147 4947 
Q 4230 4947 4230 4864 
L 4230 2726 
L 4826 2726 
L 4826 4979 
z
M 723 442 
Q 621 339 518 442 
L 230 723 
Q 134 813 237 915 
Q 582 1242 812 1632 
Q 1043 2022 1184 2483 
Q 1325 2944 1385 3475 
Q 1446 4006 1446 4614 
Q 1446 4710 1530 4710 
L 2061 4691 
Q 2093 4691 2125 4662 
Q 2157 4634 2157 4595 
Q 2157 3757 2061 3098 
Q 2118 2797 2236 2509 
Q 2355 2221 2508 1958 
Q 2662 1696 2838 1478 
Q 3014 1261 3194 1107 
Q 3245 1062 3235 1014 
Q 3226 966 3187 928 
L 2912 653 
Q 2822 563 2726 646 
Q 2579 755 2438 905 
Q 2298 1056 2170 1229 
Q 2042 1402 1936 1590 
Q 1830 1779 1760 1965 
Q 1587 1530 1331 1162 
Q 1075 794 723 442 
z
" transform="scale(0.015625)"/>
      <path id="NanumGothicBold-bc29" d="M 4307 186 
Q 4307 346 4214 464 
Q 4122 582 3965 665 
Q 3808 749 3600 790 
Q 3392 832 3155 832 
Q 2643 832 2329 669 
Q 2016 506 2016 186 
Q 2016 -115 2336 -272 
Q 2656 -429 3155 -429 
Q 3392 -429 3600 -390 
Q 3808 -352 3965 -275 
Q 4122 -198 4214 -83 
Q 4307 32 4307 186 
z
M 5062 205 
Q 5062 -64 4918 -288 
Q 4774 -512 4521 -672 
Q 4269 -832 3917 -921 
Q 3565 -1011 3155 -1011 
Q 2714 -1011 2365 -924 
Q 2016 -838 1769 -678 
Q 1523 -518 1392 -294 
Q 1261 -70 1261 205 
Q 1261 474 1392 698 
Q 1523 922 1769 1078 
Q 2016 1235 2365 1324 
Q 2714 1414 3155 1414 
Q 3565 1414 3917 1328 
Q 4269 1242 4521 1082 
Q 4774 922 4918 701 
Q 5062 480 5062 205 
z
M 5965 2963 
Q 5965 2931 5936 2905 
Q 5907 2880 5875 2880 
L 5005 2880 
L 5005 1594 
Q 5005 1562 4979 1533 
Q 4954 1504 4922 1504 
L 4352 1504 
Q 4320 1504 4294 1533 
Q 4269 1562 4269 1600 
L 4269 4979 
Q 4269 5062 4352 5062 
L 4922 5062 
Q 5005 5062 5005 4979 
L 5005 3488 
L 5875 3488 
Q 5907 3488 5936 3465 
Q 5965 3443 5965 3411 
L 5965 2963 
z
M 2688 3309 
L 1331 3309 
L 1331 2662 
Q 1331 2554 1446 2554 
L 2573 2554 
Q 2688 2554 2688 2662 
L 2688 3309 
z
M 3418 2381 
Q 3418 2163 3315 2057 
Q 3213 1952 2938 1952 
L 1088 1952 
Q 806 1952 704 2048 
Q 602 2144 602 2400 
L 602 4774 
Q 602 4858 685 4858 
L 1242 4858 
Q 1274 4858 1302 4832 
Q 1331 4806 1331 4774 
L 1331 3904 
L 2688 3904 
L 2688 4781 
Q 2688 4819 2713 4844 
Q 2739 4870 2771 4870 
L 3334 4870 
Q 3366 4870 3392 4844 
Q 3418 4819 3418 4781 
L 3418 2381 
z
" transform="scale(0.015625)"/>
      <path id="NanumGothicBold-d5a5" d="M 5069 77 
Q 5069 -160 4925 -358 
Q 4781 -557 4528 -697 
Q 4275 -838 3923 -915 
Q 3571 -992 3155 -992 
Q 2720 -992 2368 -915 
Q 2016 -838 1769 -697 
Q 1523 -557 1392 -358 
Q 1261 -160 1261 77 
Q 1261 314 1392 506 
Q 1523 698 1769 838 
Q 2016 979 2368 1056 
Q 2720 1133 3155 1133 
Q 3571 1133 3923 1056 
Q 4275 979 4528 838 
Q 4781 698 4925 506 
Q 5069 314 5069 77 
z
M 2118 3456 
Q 2413 3456 2665 3379 
Q 2918 3302 3104 3164 
Q 3290 3027 3395 2828 
Q 3501 2630 3501 2394 
Q 3501 2150 3395 1952 
Q 3290 1754 3101 1616 
Q 2912 1478 2659 1401 
Q 2406 1325 2112 1325 
Q 1824 1325 1574 1401 
Q 1325 1478 1139 1616 
Q 954 1754 848 1952 
Q 742 2150 742 2394 
Q 742 2630 848 2828 
Q 954 3027 1139 3164 
Q 1325 3302 1577 3379 
Q 1830 3456 2118 3456 
z
M 5875 2650 
Q 5914 2650 5942 2627 
Q 5971 2605 5971 2573 
L 5971 2118 
Q 5971 2086 5942 2060 
Q 5914 2035 5875 2035 
L 5011 2035 
L 5011 1318 
Q 5011 1235 4928 1235 
L 4358 1235 
Q 4275 1235 4275 1325 
L 4275 4979 
Q 4275 5062 4358 5062 
L 4928 5062 
Q 5011 5062 5011 4979 
L 5011 3821 
L 5875 3821 
Q 5914 3821 5942 3798 
Q 5971 3776 5971 3744 
L 5971 3296 
Q 5971 3264 5942 3238 
Q 5914 3213 5875 3213 
L 5011 3213 
L 5011 2650 
L 5875 2650 
z
M 3878 3738 
Q 3878 3699 3849 3670 
Q 3821 3642 3782 3642 
L 352 3642 
Q 314 3642 282 3674 
Q 250 3706 250 3744 
L 250 4102 
Q 250 4134 285 4169 
Q 320 4205 358 4205 
L 3782 4205 
Q 3821 4205 3849 4173 
Q 3878 4141 3878 4102 
L 3878 3738 
z
M 4314 58 
Q 4314 186 4221 285 
Q 4128 384 3968 451 
Q 3808 518 3600 550 
Q 3392 582 3155 582 
Q 2643 582 2332 451 
Q 2022 320 2022 58 
Q 2022 -192 2339 -313 
Q 2656 -435 3155 -435 
Q 3392 -435 3600 -406 
Q 3808 -378 3968 -314 
Q 4128 -250 4221 -160 
Q 4314 -70 4314 58 
z
M 2118 2899 
Q 1830 2899 1632 2761 
Q 1434 2624 1434 2394 
Q 1434 2157 1632 2019 
Q 1830 1882 2118 1882 
Q 2413 1882 2608 2019 
Q 2803 2157 2803 2394 
Q 2803 2624 2608 2761 
Q 2413 2899 2118 2899 
z
M 3046 4544 
Q 3046 4506 3017 4470 
Q 2989 4435 2938 4435 
L 1229 4435 
Q 1203 4435 1168 4460 
Q 1133 4486 1133 4538 
L 1133 4902 
Q 1133 4947 1168 4972 
Q 1203 4998 1229 4998 
L 2938 4998 
Q 2982 4998 3014 4966 
Q 3046 4934 3046 4896 
L 3046 4544 
z
" transform="scale(0.015625)"/>
      <path id="NanumGothicBold-c73c" d="M 5882 166 
Q 5882 134 5850 102 
Q 5818 70 5786 70 
L 211 70 
Q 173 70 147 102 
Q 122 134 122 166 
L 122 589 
Q 122 627 147 656 
Q 173 685 211 685 
L 5786 685 
Q 5818 685 5850 653 
Q 5882 621 5882 589 
L 5882 166 
z
M 3002 1741 
Q 2554 1741 2170 1843 
Q 1786 1946 1504 2138 
Q 1222 2330 1062 2598 
Q 902 2867 902 3200 
Q 902 3533 1062 3801 
Q 1222 4070 1504 4262 
Q 1786 4454 2170 4556 
Q 2554 4659 3002 4659 
Q 3450 4659 3834 4556 
Q 4218 4454 4499 4262 
Q 4781 4070 4937 3801 
Q 5094 3533 5094 3200 
Q 5094 2867 4937 2598 
Q 4781 2330 4499 2138 
Q 4218 1946 3834 1843 
Q 3450 1741 3002 1741 
z
M 3002 4051 
Q 2733 4051 2489 3990 
Q 2246 3930 2064 3818 
Q 1882 3706 1773 3549 
Q 1664 3392 1664 3200 
Q 1664 3008 1773 2848 
Q 1882 2688 2064 2576 
Q 2246 2464 2489 2403 
Q 2733 2342 3002 2342 
Q 3270 2342 3513 2403 
Q 3757 2464 3939 2576 
Q 4122 2688 4227 2848 
Q 4333 3008 4333 3200 
Q 4333 3392 4227 3549 
Q 4122 3706 3939 3818 
Q 3757 3930 3513 3990 
Q 3270 4051 3002 4051 
z
" transform="scale(0.015625)"/>
      <path id="NanumGothicBold-b85c" d="M 5882 122 
Q 5882 90 5850 58 
Q 5818 26 5786 26 
L 211 26 
Q 173 26 147 58 
Q 122 90 122 122 
L 122 525 
Q 122 563 147 595 
Q 173 627 211 627 
L 2637 627 
L 2637 1581 
L 1491 1581 
Q 1350 1581 1260 1600 
Q 1171 1619 1120 1670 
Q 1069 1722 1049 1802 
Q 1030 1882 1030 2010 
L 1030 3040 
Q 1030 3168 1049 3248 
Q 1069 3328 1120 3376 
Q 1171 3424 1260 3440 
Q 1350 3456 1491 3456 
L 4154 3456 
Q 4218 3456 4234 3472 
Q 4250 3488 4250 3558 
L 4250 4058 
Q 4250 4128 4234 4137 
Q 4218 4147 4154 4147 
L 1139 4147 
Q 1107 4147 1081 4176 
Q 1056 4205 1056 4237 
L 1056 4666 
Q 1056 4698 1081 4723 
Q 1107 4749 1139 4749 
L 4506 4749 
Q 4774 4749 4870 4662 
Q 4966 4576 4966 4326 
L 4966 3290 
Q 4966 3040 4870 2953 
Q 4774 2867 4506 2867 
L 1837 2867 
Q 1773 2867 1760 2854 
Q 1747 2842 1747 2778 
L 1747 2272 
Q 1747 2202 1763 2186 
Q 1779 2170 1843 2170 
L 5018 2170 
Q 5050 2170 5075 2147 
Q 5101 2125 5101 2093 
L 5101 1664 
Q 5101 1632 5072 1606 
Q 5043 1581 5018 1581 
L 3373 1581 
L 3373 627 
L 5786 627 
Q 5818 627 5850 592 
Q 5882 557 5882 525 
L 5882 122 
z
" transform="scale(0.015625)"/>
      <path id="NanumGothicBold-bc14" d="M 2669 2656 
L 1293 2656 
L 1293 1459 
Q 1293 1350 1408 1350 
L 2554 1350 
Q 2669 1350 2669 1459 
L 2669 2656 
z
M 3405 1178 
Q 3405 966 3302 857 
Q 3200 749 2925 749 
L 1043 749 
Q 762 749 659 845 
Q 557 941 557 1197 
L 557 4653 
Q 557 4685 582 4707 
Q 608 4730 640 4730 
L 1203 4730 
Q 1235 4730 1264 4707 
Q 1293 4685 1293 4653 
L 1293 3251 
L 2669 3251 
L 2669 4659 
Q 2669 4691 2694 4716 
Q 2720 4742 2752 4742 
L 3322 4742 
Q 3354 4742 3379 4716 
Q 3405 4691 3405 4659 
L 3405 1178 
z
M 5965 2195 
Q 5965 2157 5936 2131 
Q 5907 2106 5875 2106 
L 5005 2106 
L 5005 -928 
Q 5005 -1011 4922 -1011 
L 4352 -1011 
Q 4269 -1011 4269 -928 
L 4269 4979 
Q 4269 5062 4352 5062 
L 4922 5062 
Q 5005 5062 5005 4979 
L 5005 2720 
L 5875 2720 
Q 5907 2720 5936 2697 
Q 5965 2675 5965 2643 
L 5965 2195 
z
" transform="scale(0.015625)"/>
      <path id="NanumGothicBold-afb8" d="M 5139 4429 
Q 5139 4038 5120 3728 
Q 5101 3418 5069 3155 
Q 5037 2893 4995 2669 
Q 4954 2445 4909 2234 
L 5786 2234 
Q 5818 2234 5850 2202 
Q 5882 2170 5882 2138 
L 5882 1715 
Q 5882 1683 5850 1651 
Q 5818 1619 5786 1619 
L 3373 1619 
L 3373 -877 
Q 3373 -966 3283 -966 
L 2726 -966 
Q 2637 -966 2637 -877 
L 2637 1619 
L 211 1619 
Q 173 1619 147 1651 
Q 122 1683 122 1715 
L 122 2138 
Q 122 2176 147 2205 
Q 173 2234 211 2234 
L 1888 2234 
Q 1978 2688 2064 3168 
Q 2150 3648 2150 4134 
Q 2150 4224 2108 4246 
Q 2067 4269 1978 4269 
L 755 4269 
Q 723 4269 691 4291 
Q 659 4314 659 4346 
L 659 4806 
Q 659 4845 691 4864 
Q 723 4883 755 4883 
L 2432 4883 
Q 2637 4883 2749 4774 
Q 2861 4666 2861 4429 
Q 2861 4038 2832 3728 
Q 2803 3418 2761 3155 
Q 2720 2893 2669 2669 
Q 2618 2445 2573 2234 
L 4224 2234 
Q 4307 2688 4368 3168 
Q 4429 3648 4429 4134 
Q 4429 4224 4387 4246 
Q 4346 4269 4256 4269 
L 3123 4269 
Q 3091 4269 3059 4291 
Q 3027 4314 3027 4346 
L 3027 4806 
Q 3027 4845 3059 4864 
Q 3091 4883 3123 4883 
L 4710 4883 
Q 4915 4883 5027 4774 
Q 5139 4666 5139 4429 
z
" transform="scale(0.015625)"/>
      <path id="NanumGothicBold-b294" d="M 5158 -787 
Q 5158 -826 5126 -845 
Q 5094 -864 5062 -864 
L 1542 -864 
Q 1248 -864 1149 -761 
Q 1050 -659 1050 -410 
L 1050 979 
Q 1050 1011 1078 1040 
Q 1107 1069 1139 1069 
L 1690 1069 
Q 1728 1069 1757 1040 
Q 1786 1011 1786 979 
L 1786 -147 
Q 1786 -211 1811 -230 
Q 1837 -250 1907 -250 
L 5062 -250 
Q 5094 -250 5126 -272 
Q 5158 -294 5158 -326 
L 5158 -787 
z
M 5082 2874 
Q 5082 2829 5053 2809 
Q 5024 2790 4992 2790 
L 1562 2790 
Q 1267 2790 1168 2896 
Q 1069 3002 1069 3251 
L 1069 4858 
Q 1069 4890 1097 4918 
Q 1126 4947 1158 4947 
L 1715 4947 
Q 1754 4947 1782 4918 
Q 1811 4890 1811 4858 
L 1811 3507 
Q 1811 3443 1836 3424 
Q 1862 3405 1933 3405 
L 4992 3405 
Q 5024 3405 5053 3382 
Q 5082 3360 5082 3328 
L 5082 2874 
z
M 5875 1619 
Q 5875 1587 5843 1552 
Q 5811 1517 5779 1517 
L 211 1517 
Q 173 1517 147 1549 
Q 122 1581 122 1619 
L 122 2042 
Q 122 2131 211 2131 
L 5779 2131 
Q 5811 2131 5843 2102 
Q 5875 2074 5875 2042 
L 5875 1619 
z
" transform="scale(0.015625)"/>
      <path id="NanumGothicBold-ac83" d="M 845 1331 
Q 698 1267 640 1389 
L 474 1715 
Q 448 1766 457 1820 
Q 467 1875 531 1907 
Q 1376 2291 1881 2793 
Q 2387 3296 2566 3917 
Q 2598 4019 2601 4057 
Q 2605 4096 2477 4096 
L 755 4096 
Q 717 4096 694 4128 
Q 672 4160 672 4198 
L 672 4621 
Q 672 4710 762 4710 
L 2912 4710 
Q 3194 4710 3306 4620 
Q 3418 4531 3418 4326 
Q 3418 4294 3411 4243 
Q 3405 4192 3395 4137 
Q 3386 4083 3376 4041 
Q 3366 4000 3360 3981 
Q 3098 3072 2483 2419 
Q 1869 1766 845 1331 
z
M 1350 -1011 
Q 1229 -1037 1184 -934 
L 1024 -563 
Q 1005 -518 1024 -480 
Q 1043 -442 1088 -422 
Q 2003 -147 2476 278 
Q 2950 704 3021 1325 
Q 3027 1370 3056 1408 
Q 3085 1446 3136 1440 
L 3642 1408 
Q 3725 1402 3737 1363 
Q 3750 1325 3744 1280 
Q 3731 1210 3718 1146 
Q 3706 1082 3693 1018 
Q 3776 787 3974 563 
Q 4173 339 4435 147 
Q 4698 -45 5002 -182 
Q 5306 -320 5594 -378 
Q 5632 -390 5661 -428 
Q 5690 -467 5670 -518 
L 5504 -896 
Q 5459 -992 5338 -973 
Q 5088 -928 4809 -809 
Q 4531 -691 4265 -521 
Q 4000 -352 3769 -141 
Q 3539 70 3379 307 
Q 3059 -173 2528 -509 
Q 1997 -845 1350 -1011 
z
M 3302 2720 
L 3302 3181 
Q 3302 3213 3331 3235 
Q 3360 3258 3392 3258 
L 4544 3258 
L 4544 4979 
Q 4544 5062 4627 5062 
L 5197 5062 
Q 5280 5062 5280 4979 
L 5280 1318 
Q 5280 1235 5197 1235 
L 4627 1235 
Q 4544 1235 4544 1318 
L 4544 2643 
L 3392 2643 
Q 3360 2643 3331 2665 
Q 3302 2688 3302 2720 
z
" transform="scale(0.015625)"/>
     </defs>
     <use xlink:href="#NanumGothicBold-d68c"/>
     <use xlink:href="#NanumGothicBold-c804" transform="translate(93.999985 0)"/>
     <use xlink:href="#NanumGothicBold-c740" transform="translate(187.999969 0)"/>
     <use xlink:href="#NanumGothicBold-20" transform="translate(281.999954 0)"/>
     <use xlink:href="#NanumGothicBold-ae30" transform="translate(309.999939 0)"/>
     <use xlink:href="#NanumGothicBold-c900" transform="translate(403.999924 0)"/>
     <use xlink:href="#NanumGothicBold-cd95" transform="translate(497.999908 0)"/>
     <use xlink:href="#NanumGothicBold-c744" transform="translate(591.999893 0)"/>
     <use xlink:href="#NanumGothicBold-20" transform="translate(685.999878 0)"/>
     <use xlink:href="#NanumGothicBold-c0c8" transform="translate(713.999863 0)"/>
     <use xlink:href="#NanumGothicBold-20" transform="translate(807.999847 0)"/>
     <use xlink:href="#NanumGothicBold-bc29" transform="translate(835.999832 0)"/>
     <use xlink:href="#NanumGothicBold-d5a5" transform="translate(929.999817 0)"/>
     <use xlink:href="#NanumGothicBold-c73c" transform="translate(1023.999802 0)"/>
     <use xlink:href="#NanumGothicBold-b85c" transform="translate(1117.999786 0)"/>
     <use xlink:href="#NanumGothicBold-20" transform="translate(1211.999771 0)"/>
     <use xlink:href="#NanumGothicBold-bc14" transform="translate(1239.999756 0)"/>
     <use xlink:href="#NanumGothicBold-afb8" transform="translate(1333.999741 0)"/>
     <use xlink:href="#NanumGothicBold-b294" transform="translate(1427.999725 0)"/>
     <use xlink:href="#NanumGothicBold-20" transform="translate(1521.99971 0)"/>
     <use xlink:href="#NanumGothicBold-ac83" transform="translate(1549.999695 0)"/>
    </g>
   </g>
   <g id="patch_2">
    <path d="M 88.385797 162.677531 
Q 125.259927 162.677531 159.897989 162.677531 
" clip-path="url(#pa1804ecd6a)" style="fill: none; stroke: #6b7280; stroke-width: 2; stroke-linecap: round"/>
    <path d="M 154.297989 159.877531 
L 159.897989 162.677531 
L 154.297989 165.477531 
z
" clip-path="url(#pa1804ecd6a)" style="fill: #6b7280; stroke: #6b7280; stroke-width: 2; stroke-linecap: round"/>
   </g>
   <g id="patch_3">
    <path d="M 86.388 160.679734 
Q 86.388 123.805604 86.388 89.167542 
" clip-path="url(#pa1804ecd6a)" style="fill: none; stroke: #6b7280; stroke-width: 2; stroke-linecap: round"/>
    <path d="M 83.588 94.767542 
L 86.388 89.167542 
L 89.188 94.767542 
z
" clip-path="url(#pa1804ecd6a)" style="fill: #6b7280; stroke: #6b7280; stroke-width: 2; stroke-linecap: round"/>
   </g>
   <g id="text_2">
    <!-- x -->
    <g style="fill: #6b7280" transform="translate(121.728 178.105047) scale(0.11 -0.11)">
     <defs>
      <path id="NanumGothic-78" d="M 3046 -186 
Q 3066 -218 3050 -246 
Q 3034 -275 2995 -275 
L 2637 -275 
Q 2560 -275 2509 -186 
L 1645 1222 
L 717 -186 
Q 659 -275 589 -275 
L 269 -275 
Q 230 -275 214 -246 
Q 198 -218 218 -186 
L 1389 1562 
L 339 3098 
Q 320 3130 336 3158 
Q 352 3187 390 3187 
L 742 3187 
Q 819 3187 870 3098 
L 1645 1894 
L 2432 3098 
Q 2490 3187 2560 3187 
L 2874 3187 
Q 2912 3187 2928 3158 
Q 2944 3130 2925 3098 
L 1901 1562 
L 3046 -186 
z
" transform="scale(0.015625)"/>
     </defs>
     <use xlink:href="#NanumGothic-78"/>
    </g>
   </g>
   <g id="text_3">
    <!-- y -->
    <g style="fill: #6b7280" transform="translate(79.32 82.675016) scale(0.11 -0.11)">
     <defs>
      <path id="NanumGothic-79" d="M 301 -1222 
Q 224 -1203 237 -1126 
L 256 -909 
Q 256 -832 333 -864 
Q 435 -902 570 -902 
Q 704 -902 816 -860 
Q 928 -819 986 -749 
Q 1056 -659 1142 -454 
Q 1229 -250 1312 13 
Q 1024 794 742 1555 
Q 461 2317 173 3098 
Q 160 3130 173 3158 
Q 186 3187 224 3187 
L 525 3187 
Q 614 3187 653 3098 
L 1517 614 
Q 1754 1267 1968 1859 
Q 2182 2451 2419 3098 
Q 2451 3187 2547 3187 
L 2822 3187 
Q 2861 3187 2873 3158 
Q 2886 3130 2874 3098 
L 1542 -474 
Q 1472 -659 1385 -806 
Q 1299 -954 1210 -1043 
Q 1094 -1152 953 -1206 
Q 813 -1261 659 -1261 
Q 563 -1261 486 -1254 
Q 410 -1248 301 -1222 
z
" transform="scale(0.015625)"/>
     </defs>
     <use xlink:href="#NanumGothic-79"/>
    </g>
   </g>
   <g id="text_4">
    <!-- 원래 기준축 -->
    <g style="fill: #111827" transform="translate(58.998 208.159516) scale(0.11 -0.11)">
     <defs>
      <path id="NanumGothicBold-c6d0" d="M 2182 4410 
Q 2029 4410 1888 4362 
Q 1747 4314 1644 4234 
Q 1542 4154 1481 4042 
Q 1421 3930 1421 3802 
Q 1421 3667 1481 3555 
Q 1542 3443 1644 3363 
Q 1747 3283 1888 3235 
Q 2029 3187 2182 3187 
Q 2342 3187 2480 3235 
Q 2618 3283 2723 3363 
Q 2829 3443 2889 3555 
Q 2950 3667 2950 3802 
Q 2950 3930 2889 4042 
Q 2829 4154 2723 4234 
Q 2618 4314 2480 4362 
Q 2342 4410 2182 4410 
z
M 2182 4973 
Q 2509 4973 2781 4880 
Q 3053 4787 3248 4630 
Q 3443 4474 3552 4262 
Q 3661 4051 3661 3814 
Q 3661 3565 3552 3347 
Q 3443 3130 3248 2973 
Q 3053 2816 2781 2723 
Q 2509 2630 2182 2630 
Q 1856 2630 1587 2723 
Q 1318 2816 1123 2973 
Q 928 3130 822 3347 
Q 717 3565 717 3814 
Q 717 4051 822 4262 
Q 928 4474 1123 4630 
Q 1318 4787 1587 4880 
Q 1856 4973 2182 4973 
z
M 5274 371 
Q 5274 282 5190 282 
L 4621 282 
Q 4538 282 4538 371 
L 4538 954 
L 3443 954 
Q 3411 954 3382 979 
Q 3354 1005 3354 1037 
L 3354 1440 
Q 3354 1472 3382 1494 
Q 3411 1517 3443 1517 
L 4538 1517 
L 4538 4979 
Q 4538 5062 4621 5062 
L 5190 5062 
Q 5274 5062 5274 4979 
L 5274 371 
z
M 4320 2035 
Q 4326 1984 4297 1955 
Q 4269 1926 4237 1914 
Q 4058 1882 3840 1859 
Q 3622 1837 3392 1817 
Q 3162 1798 2934 1782 
Q 2707 1766 2509 1760 
L 2509 838 
Q 2509 800 2480 771 
Q 2451 742 2413 742 
L 1882 742 
Q 1843 742 1814 771 
Q 1786 800 1786 838 
L 1786 1709 
Q 1594 1702 1392 1699 
Q 1190 1696 998 1689 
Q 806 1683 633 1683 
Q 461 1683 333 1690 
Q 294 1690 268 1722 
Q 243 1754 243 1792 
L 243 2189 
Q 243 2227 268 2256 
Q 294 2285 333 2285 
Q 774 2285 1296 2294 
Q 1818 2304 2336 2326 
Q 2854 2349 3334 2384 
Q 3814 2419 4166 2470 
Q 4198 2477 4233 2457 
Q 4269 2438 4275 2400 
L 4320 2035 
z
M 5414 -826 
Q 5414 -864 5385 -883 
Q 5357 -902 5325 -902 
L 1696 -902 
Q 1402 -902 1302 -800 
Q 1203 -698 1203 -448 
L 1203 467 
Q 1203 499 1232 528 
Q 1261 557 1293 557 
L 1843 557 
Q 1882 557 1910 528 
Q 1939 499 1939 467 
L 1939 -186 
Q 1939 -250 1964 -269 
Q 1990 -288 2061 -288 
L 5325 -288 
Q 5357 -288 5385 -313 
Q 5414 -339 5414 -371 
L 5414 -826 
z
" transform="scale(0.015625)"/>
      <path id="NanumGothicBold-b798" d="M 3334 870 
Q 3347 826 3318 797 
Q 3290 768 3238 755 
Q 3040 704 2742 659 
Q 2445 614 2121 579 
Q 1798 544 1478 531 
Q 1158 518 915 531 
Q 621 557 518 653 
Q 416 749 416 992 
L 416 2464 
Q 416 2694 531 2793 
Q 646 2893 870 2893 
L 2022 2893 
Q 2074 2893 2093 2909 
Q 2112 2925 2112 2989 
L 2112 3866 
Q 2112 3917 2099 3936 
Q 2086 3955 2022 3955 
L 531 3955 
Q 499 3955 470 3980 
Q 442 4006 442 4038 
L 442 4461 
Q 442 4493 470 4518 
Q 499 4544 531 4544 
L 2381 4544 
Q 2656 4544 2736 4441 
Q 2816 4339 2816 4102 
L 2816 2726 
Q 2816 2483 2717 2396 
Q 2618 2310 2368 2310 
L 1222 2310 
Q 1126 2310 1126 2221 
L 1126 1261 
Q 1126 1190 1152 1171 
Q 1178 1152 1248 1146 
Q 1478 1133 1702 1142 
Q 1926 1152 2156 1174 
Q 2387 1197 2633 1235 
Q 2880 1274 3155 1325 
Q 3245 1344 3264 1242 
L 3334 870 
z
M 4826 4979 
Q 4826 5062 4915 5062 
L 5466 5062 
Q 5549 5062 5549 4979 
L 5549 -928 
Q 5549 -1011 5466 -1011 
L 4909 -1011 
Q 4826 -1011 4826 -928 
L 4826 2099 
L 4275 2099 
L 4275 -685 
Q 4275 -774 4192 -774 
L 3667 -774 
Q 3578 -774 3578 -685 
L 3578 4864 
Q 3578 4947 3667 4947 
L 4192 4947 
Q 4275 4947 4275 4864 
L 4275 2714 
L 4826 2714 
L 4826 4979 
z
" transform="scale(0.015625)"/>
     </defs>
     <use xlink:href="#NanumGothicBold-c6d0"/>
     <use xlink:href="#NanumGothicBold-b798" transform="translate(93.999985 0)"/>
     <use xlink:href="#NanumGothicBold-20" transform="translate(187.999969 0)"/>
     <use xlink:href="#NanumGothicBold-ae30" transform="translate(215.999954 0)"/>
     <use xlink:href="#NanumGothicBold-c900" transform="translate(309.999939 0)"/>
     <use xlink:href="#NanumGothicBold-cd95" transform="translate(403.999924 0)"/>
    </g>
   </g>
   <g id="patch_4">
    <path d="M 300.064323 161.531766 
Q 328.824633 141.393579 355.386928 122.79446 
" clip-path="url(#pa1804ecd6a)" style="fill: none; stroke: #2563eb; stroke-width: 2.4; stroke-linecap: round"/>
    <path d="M 349.193663 123.712863 
L 355.386928 122.79446 
L 352.405691 128.300114 
z
" clip-path="url(#pa1804ecd6a)" style="fill: #2563eb; stroke: #2563eb; stroke-width: 2.4; stroke-linecap: round"/>
   </g>
   <g id="patch_5">
    <path d="M 297.279265 161.036968 
Q 283.225085 140.965518 270.709971 123.092084 
" clip-path="url(#pa1804ecd6a)" style="fill: none; stroke: #2563eb; stroke-width: 2.4; stroke-linecap: round"/>
    <path d="M 271.628374 129.285349 
L 270.709971 123.092084 
L 276.215625 126.073321 
z
" clip-path="url(#pa1804ecd6a)" style="fill: #2563eb; stroke: #2563eb; stroke-width: 2.4; stroke-linecap: round"/>
   </g>
   <g id="text_5">
    <!-- x' -->
    <g style="fill: #2563eb" transform="translate(354.972 125.095047) scale(0.11 -0.11)">
     <defs>
      <path id="NanumGothic-27" d="M 1229 3117 
Q 1229 3046 1219 3036 
Q 1210 3027 1139 3027 
L 890 3027 
Q 819 3027 809 3036 
Q 800 3046 800 3117 
L 800 4416 
Q 800 4486 809 4496 
Q 819 4506 890 4506 
L 1139 4506 
Q 1210 4506 1219 4496 
Q 1229 4486 1229 4416 
L 1229 3117 
z
" transform="scale(0.015625)"/>
     </defs>
     <use xlink:href="#NanumGothic-78"/>
     <use xlink:href="#NanumGothic-27" transform="translate(50.999985 0)"/>
    </g>
   </g>
   <g id="text_6">
    <!-- y' -->
    <g style="fill: #2563eb" transform="translate(257.787 118.015016) scale(0.11 -0.11)">
     <use xlink:href="#NanumGothic-79"/>
     <use xlink:href="#NanumGothic-27" transform="translate(46.399994 0)"/>
    </g>
   </g>
   <g id="text_7">
    <!-- 회전 후 기준축 -->
    <g style="fill: #111827" transform="translate(264.328 208.159516) scale(0.11 -0.11)">
     <defs>
      <path id="NanumGothicBold-d6c4" d="M 2995 1498 
Q 2611 1498 2294 1571 
Q 1978 1645 1750 1776 
Q 1523 1907 1395 2089 
Q 1267 2272 1267 2483 
Q 1267 2701 1395 2880 
Q 1523 3059 1753 3187 
Q 1984 3315 2301 3388 
Q 2618 3462 2995 3462 
Q 3379 3462 3696 3388 
Q 4013 3315 4243 3187 
Q 4474 3059 4598 2880 
Q 4723 2701 4723 2483 
Q 4723 2272 4598 2089 
Q 4474 1907 4243 1776 
Q 4013 1645 3696 1571 
Q 3379 1498 2995 1498 
z
M 2995 2938 
Q 2790 2938 2611 2902 
Q 2432 2867 2297 2806 
Q 2163 2746 2086 2662 
Q 2010 2579 2010 2483 
Q 2010 2387 2086 2304 
Q 2163 2221 2297 2163 
Q 2432 2106 2611 2070 
Q 2790 2035 2995 2035 
Q 3194 2035 3373 2070 
Q 3552 2106 3686 2163 
Q 3821 2221 3897 2304 
Q 3974 2387 3974 2483 
Q 3974 2579 3897 2662 
Q 3821 2746 3686 2806 
Q 3552 2867 3373 2902 
Q 3194 2938 2995 2938 
z
M 5350 3782 
Q 5350 3744 5321 3715 
Q 5293 3686 5254 3686 
L 736 3686 
Q 704 3686 672 3718 
Q 640 3750 640 3789 
L 640 4154 
Q 640 4186 675 4218 
Q 710 4250 742 4250 
L 5254 4250 
Q 5293 4250 5321 4221 
Q 5350 4192 5350 4154 
L 5350 3782 
z
M 4038 4602 
Q 4038 4563 4009 4531 
Q 3981 4499 3936 4499 
L 2054 4499 
Q 2029 4499 1993 4524 
Q 1958 4550 1958 4595 
L 1958 4973 
Q 1958 5018 1993 5043 
Q 2029 5069 2054 5069 
L 3936 5069 
Q 3974 5069 4006 5037 
Q 4038 5005 4038 4966 
L 4038 4602 
z
M 5882 742 
Q 5882 710 5850 678 
Q 5818 646 5786 646 
L 3366 646 
L 3366 -928 
Q 3366 -1018 3277 -1018 
L 2720 -1018 
Q 2630 -1018 2630 -928 
L 2630 646 
L 211 646 
Q 173 646 147 678 
Q 122 710 122 742 
L 122 1133 
Q 122 1171 147 1203 
Q 173 1235 211 1235 
L 5786 1235 
Q 5818 1235 5850 1200 
Q 5882 1165 5882 1133 
L 5882 742 
z
" transform="scale(0.015625)"/>
     </defs>
     <use xlink:href="#NanumGothicBold-d68c"/>
     <use xlink:href="#NanumGothicBold-c804" transform="translate(93.999985 0)"/>
     <use xlink:href="#NanumGothicBold-20" transform="translate(187.999969 0)"/>
     <use xlink:href="#NanumGothicBold-d6c4" transform="translate(215.999954 0)"/>
     <use xlink:href="#NanumGothicBold-20" transform="translate(309.999939 0)"/>
     <use xlink:href="#NanumGothicBold-ae30" transform="translate(337.999924 0)"/>
     <use xlink:href="#NanumGothicBold-c900" transform="translate(431.999908 0)"/>
     <use xlink:href="#NanumGothicBold-cd95" transform="translate(525.999893 0)"/>
    </g>
   </g>
  </g>
 </g>
 <defs>
  <clipPath id="pa1804ecd6a">
   <rect x="8.64" y="28.385531" width="424.08" height="212.04"/>
  </clipPath>
 </defs>
</svg>
