<?xml version="1.0" encoding="utf-8" standalone="no"?>
<!DOCTYPE svg PUBLIC "-//W3C//DTD SVG 1.1//EN"
  "http://www.w3.org/Graphics/SVG/1.1/DTD/svg11.dtd">
<svg xmlns:xlink="http://www.w3.org/1999/xlink" width="382.032pt" height="242.1504pt" viewBox="0 0 382.032 242.1504" xmlns="http://www.w3.org/2000/svg" version="1.1">
 <metadata>
  <rdf:RDF xmlns:dc="http://purl.org/dc/elements/1.1/" xmlns:cc="http://creativecommons.org/ns#" xmlns:rdf="http://www.w3.org/1999/02/22-rdf-syntax-ns#">
   <cc:Work>
    <dc:type rdf:resource="http://purl.org/dc/dcmitype/StillImage"/>
    <dc:date>2026-07-08T05:12:56.085917</dc:date>
    <dc:format>image/svg+xml</dc:format>
    <dc:creator>
     <cc:Agent>
      <dc:title>Matplotlib v3.10.8, https://matplotlib.org/</dc:title>
     </cc:Agent>
    </dc:creator>
   </cc:Work>
  </rdf:RDF>
 </metadata>
 <defs>
  <style type="text/css">*{stroke-linejoin: round; stroke-linecap: butt}</style>
 </defs>
 <g id="figure_1">
  <g id="patch_1">
   <path d="M 0 242.1504 
L 382.032 242.1504 
L 382.032 0 
L 0 0 
z
" style="fill: #ffffff"/>
  </g>
  <g id="axes_1">
   <g id="patch_2">
    <path d="M 5.76 236.3904 
L 376.272 236.3904 
L 376.272 5.76 
L 5.76 5.76 
z
" clip-path="url(#pac54134da6)" style="fill: #ffffff; stroke: #e5e7eb; stroke-linejoin: miter"/>
   </g>
   <g id="text_1">
    <!-- 1. OBB 충돌과 SAT 분리축 정리 -->
    <g style="fill: #111827" transform="translate(20.58048 41.532679) scale(0.11 -0.11)">
     <defs>
      <path id="NanumGothicCoding-31" d="M 2022 -211 
Q 2022 -301 1933 -301 
L 1670 -301 
Q 1581 -301 1581 -211 
L 1581 3565 
Q 1382 3398 1209 3251 
Q 1037 3104 845 2938 
Q 774 2880 717 2950 
L 589 3104 
Q 570 3136 570 3171 
Q 570 3206 602 3232 
L 1594 4064 
Q 1619 4090 1670 4090 
L 1843 4090 
Q 1978 4090 2000 4067 
Q 2022 4045 2022 3910 
L 2022 -211 
z
" transform="scale(0.015625)"/>
      <path id="NanumGothicCoding-2e" d="M 1210 -256 
Q 1210 -96 1325 19 
Q 1440 134 1600 134 
Q 1760 134 1872 19 
Q 1984 -96 1984 -256 
Q 1984 -416 1872 -531 
Q 1760 -646 1600 -646 
Q 1440 -646 1325 -531 
Q 1210 -416 1210 -256 
z
" transform="scale(0.015625)"/>
      <path id="NanumGothicCoding-20" transform="scale(0.015625)"/>
      <path id="NanumGothicCoding-4f" d="M 2950 1901 
Q 2963 -378 1600 -378 
Q 237 -378 237 1901 
Q 237 4179 1600 4179 
Q 2963 4179 2950 1901 
z
M 1594 26 
Q 2509 26 2502 1901 
Q 2509 3776 1594 3776 
Q 678 3776 685 1901 
Q 678 26 1594 26 
z
" transform="scale(0.015625)"/>
      <path id="NanumGothicCoding-42" d="M 2278 3034 
Q 2278 3686 1299 3693 
L 883 3693 
L 883 2266 
L 1242 2266 
Q 1696 2266 1987 2470 
Q 2278 2675 2278 3034 
z
M 2426 1043 
Q 2426 1414 2080 1635 
Q 1734 1856 1114 1856 
L 883 1856 
L 883 134 
L 1190 134 
Q 2426 134 2426 1043 
z
M 2899 1069 
Q 2899 -275 1178 -275 
L 602 -275 
Q 467 -275 444 -252 
Q 422 -230 422 -96 
L 422 3930 
Q 422 4051 444 4070 
Q 467 4090 602 4090 
L 1299 4090 
Q 2752 4090 2752 3046 
Q 2752 2253 1907 2086 
Q 2394 1958 2646 1676 
Q 2899 1395 2899 1069 
z
" transform="scale(0.015625)"/>
      <path id="NanumGothicCoding-cda9" d="M 5920 1997 
Q 5952 1997 5984 1974 
Q 6016 1952 6016 1914 
L 6016 1696 
Q 6016 1664 5984 1638 
Q 5952 1613 5920 1613 
L 3411 1613 
L 3411 1037 
Q 3693 1024 4006 969 
Q 4320 915 4582 803 
Q 4845 691 5014 508 
Q 5184 326 5184 51 
Q 5184 -256 4979 -448 
Q 4774 -640 4470 -752 
Q 4166 -864 3817 -905 
Q 3469 -947 3187 -947 
Q 3002 -947 2781 -931 
Q 2560 -915 2339 -870 
Q 2118 -826 1913 -752 
Q 1709 -678 1549 -569 
Q 1389 -461 1293 -307 
Q 1197 -154 1197 51 
Q 1197 320 1369 502 
Q 1542 685 1804 800 
Q 2067 915 2377 969 
Q 2688 1024 2970 1037 
L 2970 1613 
L 480 1613 
Q 442 1613 413 1638 
Q 384 1664 384 1696 
L 384 1914 
Q 384 1952 413 1974 
Q 442 1997 480 1997 
L 5920 1997 
z
M 4595 3610 
Q 4250 3366 3770 3142 
Q 4122 3040 4538 2953 
Q 4954 2867 5338 2816 
Q 5389 2810 5398 2787 
Q 5408 2765 5395 2720 
L 5338 2502 
Q 5325 2432 5235 2451 
Q 5030 2483 4777 2531 
Q 4525 2579 4256 2640 
Q 3987 2701 3718 2768 
Q 3450 2835 3200 2906 
Q 2765 2746 2262 2614 
Q 1760 2483 1190 2387 
Q 1094 2368 1069 2432 
L 992 2650 
Q 979 2682 998 2714 
Q 1018 2746 1056 2752 
Q 1510 2835 1907 2934 
Q 2304 3034 2662 3149 
Q 3021 3264 3357 3398 
Q 3693 3533 4026 3693 
Q 4134 3744 4124 3789 
Q 4115 3834 4013 3834 
L 1466 3834 
Q 1382 3834 1382 3917 
L 1382 4141 
Q 1382 4218 1466 4218 
L 4230 4218 
Q 4730 4218 4838 4042 
Q 4947 3866 4595 3610 
z
M 4717 45 
Q 4717 237 4544 355 
Q 4371 474 4124 538 
Q 3878 602 3619 621 
Q 3360 640 3187 640 
Q 3008 640 2749 621 
Q 2490 602 2250 538 
Q 2010 474 1837 355 
Q 1664 237 1664 45 
Q 1664 -147 1837 -262 
Q 2010 -378 2250 -442 
Q 2490 -506 2749 -525 
Q 3008 -544 3187 -544 
Q 3360 -544 3619 -525 
Q 3878 -506 4124 -442 
Q 4371 -378 4544 -262 
Q 4717 -147 4717 45 
z
M 4006 5005 
Q 4102 5005 4102 4915 
L 4102 4710 
Q 4102 4614 4006 4614 
L 2323 4614 
Q 2227 4614 2227 4710 
L 2227 4915 
Q 2227 5005 2323 5005 
L 4006 5005 
z
" transform="scale(0.015625)"/>
      <path id="NanumGothicCoding-b3cc" d="M 5178 3219 
Q 5178 3130 5094 3130 
L 3418 3130 
L 3418 2528 
L 5920 2528 
Q 5952 2528 5984 2505 
Q 6016 2483 6016 2445 
L 6016 2227 
Q 6016 2195 5984 2169 
Q 5952 2144 5920 2144 
L 480 2144 
Q 442 2144 413 2169 
Q 384 2195 384 2227 
L 384 2445 
Q 384 2483 413 2505 
Q 442 2528 480 2528 
L 2976 2528 
L 2976 3130 
L 1779 3130 
Q 1498 3130 1395 3222 
Q 1293 3315 1293 3584 
L 1293 4544 
Q 1293 4813 1395 4905 
Q 1498 4998 1779 4998 
L 5050 4998 
Q 5133 4998 5133 4915 
L 5133 4704 
Q 5133 4614 5050 4614 
L 1888 4614 
Q 1798 4614 1766 4579 
Q 1734 4544 1734 4448 
L 1734 3680 
Q 1734 3590 1766 3552 
Q 1798 3514 1888 3514 
L 5094 3514 
Q 5178 3514 5178 3430 
L 5178 3219 
z
M 5248 -781 
Q 5248 -813 5219 -835 
Q 5190 -858 5165 -858 
L 1760 -858 
Q 1459 -858 1366 -746 
Q 1274 -634 1274 -365 
L 1274 141 
Q 1274 410 1386 502 
Q 1498 595 1786 595 
L 4538 595 
Q 4627 595 4652 620 
Q 4678 646 4678 742 
L 4678 1082 
Q 4678 1178 4656 1203 
Q 4634 1229 4544 1229 
L 1350 1229 
Q 1318 1229 1289 1248 
Q 1261 1267 1261 1299 
L 1261 1523 
Q 1261 1555 1289 1574 
Q 1318 1594 1350 1594 
L 4608 1594 
Q 4762 1594 4858 1571 
Q 4954 1549 5011 1497 
Q 5069 1446 5091 1353 
Q 5114 1261 5114 1126 
L 5114 685 
Q 5114 416 5002 323 
Q 4890 230 4602 230 
L 1843 230 
Q 1754 230 1731 204 
Q 1709 179 1709 83 
L 1709 -339 
Q 1709 -429 1734 -457 
Q 1760 -486 1850 -486 
L 5158 -486 
Q 5190 -486 5219 -505 
Q 5248 -525 5248 -557 
L 5248 -781 
z
" transform="scale(0.015625)"/>
      <path id="NanumGothicCoding-acfc" d="M 5120 -806 
Q 5120 -896 5030 -896 
L 4768 -896 
Q 4678 -896 4678 -806 
L 4678 4915 
Q 4678 5005 4768 5005 
L 5030 5005 
Q 5120 5005 5120 4915 
L 5120 2413 
L 6003 2413 
Q 6042 2413 6070 2390 
Q 6099 2368 6099 2330 
L 6099 2112 
Q 6099 2080 6070 2054 
Q 6042 2029 6003 2029 
L 5120 2029 
L 5120 -806 
z
M 4282 973 
Q 4384 992 4390 928 
L 4429 704 
Q 4442 627 4346 614 
Q 3917 544 3405 486 
Q 2893 429 2374 397 
Q 2189 384 1939 377 
Q 1690 371 1430 368 
Q 1171 365 924 365 
Q 678 365 499 371 
Q 461 371 432 396 
Q 403 422 403 454 
L 403 672 
Q 403 710 432 732 
Q 461 755 499 755 
Q 621 755 781 752 
Q 941 749 1117 749 
Q 1293 749 1481 752 
Q 1670 755 1850 755 
L 1850 2522 
Q 1850 2560 1872 2589 
Q 1894 2618 1933 2618 
L 2208 2618 
Q 2240 2618 2265 2589 
Q 2291 2560 2291 2522 
L 2291 768 
Q 2304 768 2323 771 
Q 2342 774 2362 774 
Q 2586 787 2842 803 
Q 3098 819 3354 841 
Q 3610 864 3850 896 
Q 4090 928 4282 973 
z
M 800 4410 
Q 800 4448 832 4467 
Q 864 4486 896 4486 
L 3296 4486 
Q 3450 4486 3542 4454 
Q 3635 4422 3686 4361 
Q 3738 4301 3757 4205 
Q 3776 4109 3782 3974 
Q 3789 3712 3779 3437 
Q 3770 3162 3747 2883 
Q 3725 2605 3686 2336 
Q 3648 2067 3597 1830 
Q 3584 1792 3561 1760 
Q 3539 1728 3501 1734 
L 3245 1754 
Q 3136 1760 3168 1869 
Q 3226 2106 3267 2381 
Q 3309 2656 3331 2934 
Q 3354 3213 3360 3478 
Q 3366 3744 3347 3968 
Q 3334 4058 3312 4080 
Q 3290 4102 3200 4102 
L 896 4102 
Q 851 4102 825 4124 
Q 800 4147 800 4179 
L 800 4410 
z
" transform="scale(0.015625)"/>
      <path id="NanumGothicCoding-53" d="M 512 -211 
Q 416 -179 435 -102 
L 461 192 
Q 474 237 499 256 
Q 525 275 563 250 
Q 768 134 953 83 
Q 1139 32 1408 32 
Q 1818 32 2077 259 
Q 2336 486 2336 838 
Q 2336 1043 2198 1216 
Q 2061 1389 1824 1542 
Q 1613 1683 1382 1817 
Q 1152 1952 941 2109 
Q 730 2266 573 2490 
Q 416 2714 416 3008 
Q 416 3296 521 3517 
Q 627 3738 809 3888 
Q 992 4038 1248 4105 
Q 1504 4173 1773 4173 
Q 1965 4173 2128 4147 
Q 2291 4122 2509 4038 
Q 2598 4013 2586 3936 
L 2534 3680 
Q 2515 3578 2432 3622 
Q 2266 3699 2106 3731 
Q 1946 3763 1766 3763 
Q 1568 3763 1395 3715 
Q 1222 3667 1116 3577 
Q 1011 3488 937 3353 
Q 864 3219 864 3027 
Q 864 2874 941 2739 
Q 1018 2605 1168 2483 
Q 1318 2362 1456 2278 
Q 1594 2195 1747 2099 
Q 1952 1971 2134 1849 
Q 2317 1728 2467 1584 
Q 2618 1440 2701 1257 
Q 2784 1075 2784 845 
Q 2784 550 2665 323 
Q 2547 96 2371 -54 
Q 2195 -205 1929 -291 
Q 1664 -378 1382 -378 
Q 1120 -378 925 -339 
Q 730 -301 512 -211 
z
" transform="scale(0.015625)"/>
      <path id="NanumGothicCoding-41" d="M 2170 1402 
L 1619 3603 
L 1056 1402 
L 2170 1402 
z
M 3046 -186 
Q 3078 -275 2989 -275 
L 2688 -275 
Q 2650 -275 2621 -262 
Q 2592 -250 2566 -186 
L 2259 992 
L 954 992 
L 627 -186 
Q 602 -250 573 -262 
Q 544 -275 506 -275 
L 205 -275 
Q 115 -275 147 -186 
L 1325 4013 
Q 1357 4090 1440 4090 
L 1830 4090 
Q 1914 4090 1946 4013 
L 3046 -186 
z
" transform="scale(0.015625)"/>
      <path id="NanumGothicCoding-54" d="M 1830 3693 
L 1830 -186 
Q 1830 -275 1741 -275 
L 1446 -275 
Q 1357 -275 1357 -186 
L 1357 3693 
L 198 3693 
Q 109 3693 109 3782 
L 109 4000 
Q 109 4090 198 4090 
L 3002 4090 
Q 3091 4090 3091 4000 
L 3091 3782 
Q 3091 3693 3002 3693 
L 1830 3693 
z
" transform="scale(0.015625)"/>
      <path id="NanumGothicCoding-bd84" d="M 1792 2637 
Q 1638 2637 1545 2656 
Q 1453 2675 1401 2729 
Q 1350 2784 1331 2870 
Q 1312 2957 1312 3091 
L 1312 4838 
Q 1312 4870 1337 4892 
Q 1363 4915 1395 4915 
L 1670 4915 
Q 1702 4915 1724 4889 
Q 1747 4864 1747 4838 
L 1747 4179 
L 4653 4179 
L 4653 4832 
Q 4653 4864 4675 4889 
Q 4698 4915 4730 4915 
L 5005 4915 
Q 5037 4915 5062 4892 
Q 5088 4870 5088 4838 
L 5088 3046 
Q 5088 2803 4985 2720 
Q 4883 2637 4602 2637 
L 1792 2637 
z
M 3104 262 
Q 3072 262 3046 291 
Q 3021 320 3021 358 
L 3021 1626 
L 480 1626 
Q 442 1626 413 1651 
Q 384 1677 384 1709 
L 384 1926 
Q 384 1965 413 1987 
Q 442 2010 480 2010 
L 5920 2010 
Q 5952 2010 5984 1987 
Q 6016 1965 6016 1926 
L 6016 1709 
Q 6016 1677 5984 1651 
Q 5952 1626 5920 1626 
L 3462 1626 
L 3462 358 
Q 3462 320 3440 291 
Q 3418 262 3379 262 
L 3104 262 
z
M 1747 3802 
L 1747 3168 
Q 1747 3072 1779 3043 
Q 1811 3014 1901 3014 
L 4499 3014 
Q 4589 3014 4621 3043 
Q 4653 3072 4653 3168 
L 4653 3802 
L 1747 3802 
z
M 5325 -704 
Q 5325 -742 5293 -761 
Q 5261 -781 5229 -781 
L 1702 -781 
Q 1402 -781 1309 -656 
Q 1216 -531 1216 -269 
L 1216 915 
Q 1216 1005 1306 1005 
L 1568 1005 
Q 1658 1005 1658 915 
L 1658 -262 
Q 1658 -352 1686 -374 
Q 1715 -397 1805 -397 
L 5229 -397 
Q 5261 -397 5293 -419 
Q 5325 -442 5325 -474 
L 5325 -704 
z
" transform="scale(0.015625)"/>
      <path id="NanumGothicCoding-b9ac" d="M 5344 -806 
Q 5344 -896 5254 -896 
L 4992 -896 
Q 4902 -896 4902 -806 
L 4902 4915 
Q 4902 5005 4992 5005 
L 5254 5005 
Q 5344 5005 5344 4915 
L 5344 -806 
z
M 1402 550 
Q 1114 563 1014 668 
Q 915 774 915 1043 
L 915 2317 
Q 915 2586 1027 2678 
Q 1139 2771 1427 2771 
L 3040 2771 
Q 3130 2771 3155 2796 
Q 3181 2822 3181 2918 
L 3181 3994 
Q 3181 4090 3158 4115 
Q 3136 4141 3046 4141 
L 1030 4141 
Q 998 4141 969 4160 
Q 941 4179 941 4211 
L 941 4454 
Q 941 4486 969 4505 
Q 998 4525 1030 4525 
L 3117 4525 
Q 3270 4525 3366 4502 
Q 3462 4480 3520 4429 
Q 3578 4378 3600 4285 
Q 3622 4192 3622 4058 
L 3622 2842 
Q 3622 2573 3510 2480 
Q 3398 2387 3110 2387 
L 1491 2387 
Q 1402 2387 1379 2361 
Q 1357 2336 1357 2240 
L 1357 1075 
Q 1357 928 1498 928 
Q 2259 915 2960 985 
Q 3661 1056 4320 1203 
Q 4410 1222 4429 1139 
L 4467 928 
Q 4486 845 4384 819 
Q 4045 742 3670 688 
Q 3296 634 2909 598 
Q 2522 563 2138 550 
Q 1754 538 1402 550 
z
" transform="scale(0.015625)"/>
      <path id="NanumGothicCoding-cd95" d="M 1139 806 
Q 1139 845 1171 864 
Q 1203 883 1235 883 
L 2970 883 
L 2970 1587 
L 480 1587 
Q 442 1587 413 1612 
Q 384 1638 384 1670 
L 384 1888 
Q 384 1926 413 1948 
Q 442 1971 480 1971 
L 5920 1971 
Q 5952 1971 5984 1948 
Q 6016 1926 6016 1888 
L 6016 1670 
Q 6016 1638 5984 1612 
Q 5952 1587 5920 1587 
L 3411 1587 
L 3411 883 
L 4634 883 
Q 4934 883 5027 771 
Q 5120 659 5120 397 
L 5120 -870 
Q 5120 -960 5030 -960 
L 4768 -960 
Q 4678 -960 4678 -870 
L 4678 365 
Q 4678 454 4649 476 
Q 4621 499 4531 499 
L 1235 499 
Q 1203 499 1171 521 
Q 1139 544 1139 576 
L 1139 806 
z
M 4595 3610 
Q 4429 3482 4221 3366 
Q 4013 3251 3770 3142 
Q 4128 3040 4544 2953 
Q 4960 2867 5338 2816 
Q 5389 2803 5398 2784 
Q 5408 2765 5395 2720 
L 5338 2502 
Q 5318 2432 5235 2451 
Q 5030 2483 4777 2531 
Q 4525 2579 4256 2643 
Q 3987 2707 3718 2774 
Q 3450 2842 3206 2912 
Q 2765 2746 2256 2614 
Q 1747 2483 1190 2387 
Q 1094 2368 1069 2432 
L 992 2650 
Q 979 2682 998 2710 
Q 1018 2739 1056 2752 
Q 1523 2842 1926 2944 
Q 2330 3046 2691 3161 
Q 3053 3277 3379 3408 
Q 3706 3539 4026 3693 
Q 4134 3744 4124 3789 
Q 4115 3834 4013 3834 
L 1466 3834 
Q 1382 3834 1382 3917 
L 1382 4141 
Q 1382 4218 1466 4218 
L 4230 4218 
Q 4730 4218 4838 4042 
Q 4947 3866 4595 3610 
z
M 4006 5005 
Q 4102 5005 4102 4915 
L 4102 4710 
Q 4102 4614 4006 4614 
L 2323 4614 
Q 2227 4614 2227 4710 
L 2227 4915 
Q 2227 5005 2323 5005 
L 4006 5005 
z
" transform="scale(0.015625)"/>
      <path id="NanumGothicCoding-c815" d="M 5370 250 
Q 5370 -26 5222 -243 
Q 5075 -461 4822 -611 
Q 4570 -762 4234 -842 
Q 3898 -922 3514 -922 
Q 3098 -922 2758 -842 
Q 2419 -762 2176 -611 
Q 1933 -461 1798 -243 
Q 1664 -26 1664 250 
Q 1664 518 1798 732 
Q 1933 947 2176 1097 
Q 2419 1248 2758 1328 
Q 3098 1408 3514 1408 
Q 3898 1408 4234 1328 
Q 4570 1248 4822 1101 
Q 5075 954 5222 739 
Q 5370 525 5370 250 
z
M 4915 230 
Q 4915 422 4800 569 
Q 4685 717 4489 816 
Q 4294 915 4038 969 
Q 3782 1024 3507 1024 
Q 3200 1024 2944 969 
Q 2688 915 2505 816 
Q 2323 717 2220 569 
Q 2118 422 2118 230 
Q 2118 45 2220 -99 
Q 2323 -243 2505 -339 
Q 2688 -435 2944 -486 
Q 3200 -538 3507 -538 
Q 3782 -538 4038 -486 
Q 4294 -435 4489 -339 
Q 4685 -243 4800 -99 
Q 4915 45 4915 230 
z
M 3501 4166 
Q 3411 3904 3248 3648 
Q 3085 3392 2861 3142 
Q 3078 2912 3398 2704 
Q 3718 2496 4096 2336 
Q 4147 2317 4153 2281 
Q 4160 2246 4141 2214 
L 4013 1984 
Q 3994 1952 3955 1949 
Q 3917 1946 3885 1958 
Q 3744 2022 3581 2112 
Q 3418 2202 3245 2317 
Q 3072 2432 2902 2566 
Q 2733 2701 2586 2848 
Q 2221 2490 1782 2195 
Q 1344 1901 896 1702 
Q 864 1690 832 1683 
Q 800 1677 781 1709 
L 653 1933 
Q 634 1965 650 2000 
Q 666 2035 698 2048 
Q 1523 2445 2105 2957 
Q 2688 3469 3014 4141 
Q 3059 4230 3027 4268 
Q 2995 4307 2906 4307 
L 1030 4307 
Q 954 4307 954 4390 
L 954 4614 
Q 954 4691 1030 4691 
L 3078 4691 
Q 3411 4691 3507 4572 
Q 3603 4454 3501 4166 
z
M 4902 3520 
L 4902 4915 
Q 4902 5005 4992 5005 
L 5254 5005 
Q 5344 5005 5344 4915 
L 5344 1549 
Q 5344 1459 5254 1459 
L 4992 1459 
Q 4902 1459 4902 1549 
L 4902 3136 
L 3718 3136 
Q 3635 3136 3635 3213 
L 3635 3443 
Q 3635 3520 3718 3520 
L 4902 3520 
z
" transform="scale(0.015625)"/>
     </defs>
     <use xlink:href="#NanumGothicCoding-31"/>
     <use xlink:href="#NanumGothicCoding-2e" transform="translate(49.999985 0)"/>
     <use xlink:href="#NanumGothicCoding-20" transform="translate(99.999969 0)"/>
     <use xlink:href="#NanumGothicCoding-4f" transform="translate(149.999954 0)"/>
     <use xlink:href="#NanumGothicCoding-42" transform="translate(199.999939 0)"/>
     <use xlink:href="#NanumGothicCoding-42" transform="translate(249.999924 0)"/>
     <use xlink:href="#NanumGothicCoding-20" transform="translate(299.999908 0)"/>
     <use xlink:href="#NanumGothicCoding-cda9" transform="translate(349.999893 0)"/>
     <use xlink:href="#NanumGothicCoding-b3cc" transform="translate(449.999878 0)"/>
     <use xlink:href="#NanumGothicCoding-acfc" transform="translate(549.999863 0)"/>
     <use xlink:href="#NanumGothicCoding-20" transform="translate(649.999847 0)"/>
     <use xlink:href="#NanumGothicCoding-53" transform="translate(699.999832 0)"/>
     <use xlink:href="#NanumGothicCoding-41" transform="translate(749.999817 0)"/>
     <use xlink:href="#NanumGothicCoding-54" transform="translate(799.999802 0)"/>
     <use xlink:href="#NanumGothicCoding-20" transform="translate(849.999786 0)"/>
     <use xlink:href="#NanumGothicCoding-bd84" transform="translate(899.999771 0)"/>
     <use xlink:href="#NanumGothicCoding-b9ac" transform="translate(999.999756 0)"/>
     <use xlink:href="#NanumGothicCoding-cd95" transform="translate(1099.999741 0)"/>
     <use xlink:href="#NanumGothicCoding-20" transform="translate(1199.999725 0)"/>
     <use xlink:href="#NanumGothicCoding-c815" transform="translate(1249.99971 0)"/>
     <use xlink:href="#NanumGothicCoding-b9ac" transform="translate(1349.999695 0)"/>
    </g>
   </g>
   <g id="text_2">
    <!-- 2. 원-박스 충돌 -->
    <g style="fill: #111827" transform="translate(20.58048 66.87968) scale(0.11 -0.11)">
     <defs>
      <path id="NanumGothicCoding-32" d="M 442 -301 
Q 378 -301 342 -297 
Q 307 -294 291 -278 
Q 275 -262 272 -227 
Q 269 -192 269 -122 
L 269 19 
Q 269 102 320 147 
L 1286 1146 
Q 2317 2246 2310 2854 
Q 2317 3277 2125 3501 
Q 1907 3744 1523 3757 
Q 1069 3757 602 3469 
Q 518 3424 499 3507 
L 461 3718 
Q 442 3827 525 3859 
Q 781 4000 1017 4070 
Q 1254 4141 1510 4141 
Q 2022 4141 2387 3834 
Q 2790 3501 2790 2886 
Q 2790 2650 2681 2365 
Q 2573 2080 2336 1760 
Q 2112 1478 1971 1308 
Q 1830 1139 1600 890 
Q 1350 627 1206 480 
Q 1062 333 826 96 
L 2803 96 
Q 2899 90 2893 6 
L 2893 -218 
Q 2893 -301 2810 -301 
L 442 -301 
z
" transform="scale(0.015625)"/>
      <path id="NanumGothicCoding-c6d0" d="M 3834 3699 
Q 3834 3456 3725 3245 
Q 3616 3034 3421 2877 
Q 3226 2720 2957 2627 
Q 2688 2534 2374 2534 
Q 2067 2534 1804 2624 
Q 1542 2714 1350 2874 
Q 1158 3034 1049 3245 
Q 941 3456 941 3699 
Q 941 3968 1049 4185 
Q 1158 4403 1350 4556 
Q 1542 4710 1804 4790 
Q 2067 4870 2374 4870 
Q 2669 4870 2931 4787 
Q 3194 4704 3395 4553 
Q 3597 4403 3715 4185 
Q 3834 3968 3834 3699 
z
M 4902 1434 
L 4902 4915 
Q 4902 5005 4992 5005 
L 5254 5005 
Q 5344 5005 5344 4915 
L 5344 339 
Q 5344 250 5254 250 
L 4992 250 
Q 4902 250 4902 339 
L 4902 1050 
L 3622 1050 
Q 3539 1050 3539 1126 
L 3539 1357 
Q 3539 1434 3622 1434 
L 4902 1434 
z
M 3411 3706 
Q 3411 3898 3328 4045 
Q 3245 4192 3104 4291 
Q 2963 4390 2774 4441 
Q 2586 4493 2374 4493 
Q 2157 4493 1971 4441 
Q 1786 4390 1651 4288 
Q 1517 4186 1440 4042 
Q 1363 3898 1363 3706 
Q 1363 3341 1641 3123 
Q 1920 2906 2374 2906 
Q 2586 2906 2774 2966 
Q 2963 3027 3104 3132 
Q 3245 3238 3328 3385 
Q 3411 3533 3411 3706 
z
M 2246 582 
Q 2214 582 2188 611 
Q 2163 640 2163 678 
L 2163 1709 
Q 1965 1696 1741 1689 
Q 1517 1683 1302 1676 
Q 1088 1670 899 1667 
Q 710 1664 582 1670 
Q 544 1670 515 1696 
Q 486 1722 486 1754 
L 486 1971 
Q 486 2010 515 2032 
Q 544 2054 582 2054 
Q 768 2054 1024 2057 
Q 1280 2061 1549 2067 
Q 1818 2074 2067 2083 
Q 2317 2093 2490 2106 
Q 2714 2118 2989 2144 
Q 3264 2170 3539 2202 
Q 3814 2234 4060 2269 
Q 4307 2304 4474 2336 
Q 4506 2342 4534 2326 
Q 4563 2310 4570 2285 
L 4602 2067 
Q 4608 1990 4525 1971 
Q 4115 1901 3606 1833 
Q 3098 1766 2605 1734 
L 2605 678 
Q 2605 640 2582 611 
Q 2560 582 2522 582 
L 2246 582 
z
M 5498 -704 
Q 5498 -742 5466 -761 
Q 5434 -781 5402 -781 
L 1920 -781 
Q 1619 -781 1526 -669 
Q 1434 -557 1434 -294 
L 1434 512 
Q 1434 602 1523 602 
L 1786 602 
Q 1875 602 1875 512 
L 1875 -262 
Q 1875 -352 1904 -374 
Q 1933 -397 2022 -397 
L 5402 -397 
Q 5434 -397 5466 -419 
Q 5498 -442 5498 -474 
L 5498 -704 
z
" transform="scale(0.015625)"/>
      <path id="NanumGothicCoding-2d" d="M 2938 2131 
L 2938 1850 
Q 2938 1779 2928 1769 
Q 2918 1760 2848 1760 
L 352 1760 
Q 282 1760 272 1769 
Q 262 1779 262 1850 
L 262 2131 
Q 262 2202 272 2211 
Q 282 2221 352 2221 
L 2848 2221 
Q 2918 2221 2928 2211 
Q 2938 2202 2938 2131 
z
" transform="scale(0.015625)"/>
      <path id="NanumGothicCoding-bc15" d="M 1350 1939 
Q 1197 1939 1104 1958 
Q 1011 1978 960 2032 
Q 909 2086 889 2172 
Q 870 2259 870 2394 
L 870 4698 
Q 870 4730 896 4752 
Q 922 4774 954 4774 
L 1229 4774 
Q 1261 4774 1283 4748 
Q 1306 4723 1306 4698 
L 1306 3699 
L 3168 3699 
L 3168 4691 
Q 3168 4723 3190 4748 
Q 3213 4774 3245 4774 
L 3520 4774 
Q 3552 4774 3577 4752 
Q 3603 4730 3603 4698 
L 3603 2349 
Q 3603 2106 3500 2022 
Q 3398 1939 3117 1939 
L 1350 1939 
z
M 1389 1165 
Q 1389 1203 1421 1222 
Q 1453 1242 1485 1242 
L 4634 1242 
Q 4934 1242 5027 1130 
Q 5120 1018 5120 755 
L 5120 -832 
Q 5120 -922 5030 -922 
L 4768 -922 
Q 4678 -922 4678 -832 
L 4678 723 
Q 4678 813 4649 835 
Q 4621 858 4531 858 
L 1485 858 
Q 1453 858 1421 880 
Q 1389 902 1389 934 
L 1389 1165 
z
M 5120 1690 
Q 5120 1600 5030 1600 
L 4768 1600 
Q 4678 1600 4678 1690 
L 4678 4915 
Q 4678 5005 4768 5005 
L 5030 5005 
Q 5120 5005 5120 4915 
L 5120 3328 
L 6003 3328 
Q 6042 3328 6070 3305 
Q 6099 3283 6099 3245 
L 6099 3027 
Q 6099 2995 6070 2969 
Q 6042 2944 6003 2944 
L 5120 2944 
L 5120 1690 
z
M 1306 3322 
L 1306 2470 
Q 1306 2374 1338 2345 
Q 1370 2317 1459 2317 
L 3014 2317 
Q 3104 2317 3136 2345 
Q 3168 2374 3168 2470 
L 3168 3322 
L 1306 3322 
z
" transform="scale(0.015625)"/>
      <path id="NanumGothicCoding-c2a4" d="M 3424 4608 
Q 3405 4429 3360 4269 
Q 3373 4198 3392 4137 
Q 3411 4077 3437 4032 
Q 3597 3718 3824 3436 
Q 4051 3155 4320 2924 
Q 4589 2694 4893 2524 
Q 5197 2355 5517 2266 
Q 5555 2253 5568 2214 
Q 5581 2176 5568 2144 
L 5466 1933 
Q 5446 1901 5424 1881 
Q 5402 1862 5338 1888 
Q 4986 2010 4662 2195 
Q 4339 2381 4060 2614 
Q 3782 2848 3552 3126 
Q 3322 3405 3155 3706 
Q 3008 3398 2790 3110 
Q 2573 2822 2304 2576 
Q 2035 2330 1721 2131 
Q 1408 1933 1062 1805 
Q 960 1766 934 1830 
L 819 2054 
Q 806 2086 816 2121 
Q 826 2157 864 2176 
Q 1293 2336 1657 2595 
Q 2022 2854 2300 3177 
Q 2579 3501 2755 3878 
Q 2931 4256 2982 4653 
Q 2989 4730 3066 4730 
L 3354 4698 
Q 3430 4685 3424 4608 
z
M 5920 499 
Q 5952 499 5984 476 
Q 6016 454 6016 416 
L 6016 198 
Q 6016 166 5984 140 
Q 5952 115 5920 115 
L 480 115 
Q 442 115 413 140 
Q 384 166 384 198 
L 384 416 
Q 384 454 413 476 
Q 442 499 480 499 
L 5920 499 
z
" transform="scale(0.015625)"/>
     </defs>
     <use xlink:href="#NanumGothicCoding-32"/>
     <use xlink:href="#NanumGothicCoding-2e" transform="translate(49.999985 0)"/>
     <use xlink:href="#NanumGothicCoding-20" transform="translate(99.999969 0)"/>
     <use xlink:href="#NanumGothicCoding-c6d0" transform="translate(149.999954 0)"/>
     <use xlink:href="#NanumGothicCoding-2d" transform="translate(249.999939 0)"/>
     <use xlink:href="#NanumGothicCoding-bc15" transform="translate(299.999924 0)"/>
     <use xlink:href="#NanumGothicCoding-c2a4" transform="translate(399.999908 0)"/>
     <use xlink:href="#NanumGothicCoding-20" transform="translate(499.999893 0)"/>
     <use xlink:href="#NanumGothicCoding-cda9" transform="translate(549.999878 0)"/>
     <use xlink:href="#NanumGothicCoding-b3cc" transform="translate(649.999863 0)"/>
    </g>
   </g>
   <g id="text_3">
    <!-- 3. 충돌 임펄스 impulse -->
    <g style="fill: #111827" transform="translate(20.58048 92.77668) scale(0.11 -0.11)">
     <defs>
      <path id="NanumGothicCoding-33" d="M 461 -186 
Q 365 -160 378 -38 
L 403 192 
Q 416 269 506 230 
Q 704 147 928 96 
Q 1152 45 1382 45 
Q 1837 45 2125 262 
Q 2515 538 2515 973 
Q 2509 1798 1222 1798 
L 1088 1798 
Q 1005 1798 1005 1869 
L 1005 2106 
Q 1005 2189 1088 2189 
L 1120 2189 
Q 1536 2189 1914 2330 
Q 2483 2560 2483 3046 
Q 2483 3219 2396 3360 
Q 2310 3501 2125 3597 
Q 2003 3667 1833 3708 
Q 1664 3750 1453 3750 
Q 1254 3750 1056 3692 
Q 858 3635 678 3539 
Q 602 3507 589 3590 
L 563 3821 
Q 550 3910 640 3949 
Q 851 4045 1068 4093 
Q 1286 4141 1498 4141 
Q 2061 4141 2483 3872 
Q 2931 3552 2931 3046 
Q 2931 2643 2650 2368 
Q 2374 2112 1978 2010 
Q 2144 1990 2345 1894 
Q 2547 1798 2669 1664 
Q 2816 1504 2889 1321 
Q 2963 1139 2963 947 
Q 2963 666 2848 432 
Q 2733 198 2496 13 
Q 2259 -173 1987 -259 
Q 1715 -346 1395 -346 
Q 1184 -346 944 -310 
Q 704 -275 461 -186 
z
" transform="scale(0.015625)"/>
      <path id="NanumGothicCoding-c784" d="M 5344 1722 
Q 5344 1632 5254 1632 
L 4992 1632 
Q 4902 1632 4902 1722 
L 4902 4915 
Q 4902 5005 4992 5005 
L 5254 5005 
Q 5344 5005 5344 4915 
L 5344 1722 
z
M 1690 819 
Q 1690 1088 1792 1181 
Q 1894 1274 2176 1274 
L 4858 1274 
Q 5011 1274 5104 1254 
Q 5197 1235 5251 1184 
Q 5306 1133 5325 1043 
Q 5344 954 5344 819 
L 5344 -390 
Q 5344 -659 5241 -752 
Q 5139 -845 4858 -845 
L 2176 -845 
Q 2022 -845 1929 -825 
Q 1837 -806 1782 -752 
Q 1728 -698 1709 -611 
Q 1690 -525 1690 -390 
L 1690 819 
z
M 2285 890 
Q 2195 890 2163 854 
Q 2131 819 2131 723 
L 2131 -294 
Q 2131 -390 2163 -425 
Q 2195 -461 2285 -461 
L 4749 -461 
Q 4838 -461 4870 -425 
Q 4902 -390 4902 -294 
L 4902 723 
Q 4902 819 4870 854 
Q 4838 890 4749 890 
L 2285 890 
z
M 3776 3328 
Q 3776 3008 3661 2742 
Q 3546 2477 3341 2285 
Q 3136 2093 2857 1984 
Q 2579 1875 2253 1875 
Q 1939 1875 1664 1980 
Q 1389 2086 1187 2278 
Q 986 2470 870 2739 
Q 755 3008 755 3328 
Q 755 3667 870 3939 
Q 986 4211 1187 4400 
Q 1389 4589 1664 4688 
Q 1939 4787 2253 4787 
Q 2547 4787 2822 4688 
Q 3098 4589 3309 4403 
Q 3520 4218 3648 3946 
Q 3776 3674 3776 3328 
z
M 3328 3334 
Q 3328 3590 3241 3785 
Q 3155 3981 3008 4112 
Q 2861 4243 2665 4310 
Q 2470 4378 2253 4378 
Q 2029 4378 1840 4310 
Q 1651 4243 1507 4112 
Q 1363 3981 1283 3785 
Q 1203 3590 1203 3334 
Q 1203 3091 1280 2899 
Q 1357 2707 1497 2566 
Q 1638 2426 1830 2352 
Q 2022 2278 2253 2278 
Q 2470 2278 2665 2352 
Q 2861 2426 3008 2566 
Q 3155 2707 3241 2899 
Q 3328 3091 3328 3334 
z
" transform="scale(0.015625)"/>
      <path id="NanumGothicCoding-d384" d="M 4077 2707 
Q 4134 2720 4153 2710 
Q 4173 2701 4186 2656 
L 4224 2445 
Q 4230 2406 4217 2387 
Q 4205 2368 4141 2355 
Q 3776 2291 3328 2243 
Q 2880 2195 2413 2170 
Q 2234 2157 2003 2153 
Q 1773 2150 1529 2147 
Q 1286 2144 1049 2144 
Q 813 2144 627 2150 
Q 589 2150 560 2176 
Q 531 2202 531 2234 
L 531 2438 
Q 531 2477 560 2499 
Q 589 2522 627 2522 
L 1363 2522 
L 1363 4403 
L 672 4403 
Q 640 4403 611 4428 
Q 582 4454 582 4493 
L 582 4691 
Q 582 4730 611 4755 
Q 640 4781 672 4781 
L 3821 4781 
Q 3917 4781 3917 4698 
L 3917 4486 
Q 3917 4403 3821 4403 
L 3290 4403 
L 3290 2598 
Q 3494 2618 3692 2646 
Q 3891 2675 4077 2707 
z
M 5478 -838 
Q 5478 -870 5449 -892 
Q 5421 -915 5395 -915 
L 2170 -915 
Q 1869 -915 1776 -803 
Q 1683 -691 1683 -422 
L 1683 58 
Q 1683 326 1795 419 
Q 1907 512 2195 512 
L 4762 512 
Q 4851 512 4876 537 
Q 4902 563 4902 659 
L 4902 1024 
Q 4902 1120 4880 1145 
Q 4858 1171 4768 1171 
L 1760 1171 
Q 1728 1171 1699 1190 
Q 1670 1210 1670 1242 
L 1670 1472 
Q 1670 1504 1699 1523 
Q 1728 1542 1760 1542 
L 4838 1542 
Q 4992 1542 5088 1520 
Q 5184 1498 5241 1446 
Q 5299 1395 5321 1302 
Q 5344 1210 5344 1075 
L 5344 595 
Q 5344 326 5232 233 
Q 5120 141 4832 141 
L 2266 141 
Q 2176 141 2153 115 
Q 2131 90 2131 -6 
L 2131 -397 
Q 2131 -486 2156 -515 
Q 2182 -544 2272 -544 
L 5389 -544 
Q 5421 -544 5449 -563 
Q 5478 -582 5478 -614 
L 5478 -838 
z
M 2400 2541 
Q 2515 2547 2630 2550 
Q 2746 2554 2854 2566 
L 2854 4403 
L 1798 4403 
L 1798 2522 
Q 2150 2522 2400 2541 
z
M 4902 3770 
L 4902 4915 
Q 4902 5005 4992 5005 
L 5254 5005 
Q 5344 5005 5344 4915 
L 5344 1997 
Q 5344 1907 5254 1907 
L 4992 1907 
Q 4902 1907 4902 1997 
L 4902 3386 
L 3981 3386 
Q 3898 3386 3898 3462 
L 3898 3693 
Q 3898 3770 3981 3770 
L 4902 3770 
z
" transform="scale(0.015625)"/>
      <path id="NanumGothicCoding-69" d="M 2656 122 
Q 2746 122 2746 32 
L 2746 -186 
Q 2746 -275 2656 -275 
L 614 -275 
Q 525 -275 525 -186 
L 525 32 
Q 525 122 614 122 
L 1434 122 
L 1434 2534 
L 685 2534 
Q 595 2534 595 2624 
L 595 2842 
Q 595 2931 685 2931 
L 1805 2931 
Q 1894 2931 1894 2842 
L 1894 122 
L 2656 122 
z
M 1235 3968 
Q 1235 4115 1340 4220 
Q 1446 4326 1594 4326 
Q 1741 4326 1846 4220 
Q 1952 4115 1952 3968 
Q 1952 3821 1846 3715 
Q 1741 3610 1594 3610 
Q 1446 3610 1340 3715 
Q 1235 3821 1235 3968 
z
" transform="scale(0.015625)"/>
      <path id="NanumGothicCoding-6d" d="M 269 2118 
Q 269 2387 262 2544 
Q 256 2701 243 2842 
Q 243 2931 333 2931 
L 570 2931 
Q 659 2931 659 2842 
L 653 2566 
Q 698 2771 832 2889 
Q 966 3008 1101 3008 
Q 1338 3008 1482 2816 
Q 1626 2624 1664 2362 
Q 1683 2573 1804 2777 
Q 1926 2982 2202 3008 
Q 2445 3008 2585 2921 
Q 2726 2835 2809 2675 
Q 2893 2515 2925 2304 
Q 2957 2093 2957 1856 
L 2957 -186 
Q 2957 -275 2867 -275 
L 2624 -275 
Q 2534 -275 2534 -192 
L 2534 1766 
Q 2534 2611 2195 2611 
Q 2067 2611 1990 2508 
Q 1914 2406 1878 2252 
Q 1843 2099 1827 1868 
Q 1811 1638 1818 1382 
L 1818 -186 
Q 1818 -275 1728 -275 
L 1498 -275 
Q 1408 -275 1408 -186 
L 1408 1766 
Q 1389 2611 1050 2611 
Q 870 2611 777 2355 
Q 685 2099 691 1619 
L 691 -186 
Q 691 -275 602 -275 
L 358 -275 
Q 269 -275 269 -186 
L 269 2118 
z
" transform="scale(0.015625)"/>
      <path id="NanumGothicCoding-70" d="M 397 2848 
Q 397 2931 486 2931 
L 736 2931 
Q 826 2931 826 2848 
L 826 2381 
Q 1088 2995 1722 2995 
Q 2016 2995 2256 2854 
Q 2496 2714 2669 2448 
Q 2842 2182 2915 1875 
Q 2989 1568 2989 1229 
Q 2989 627 2656 124 
Q 2323 -378 1722 -378 
Q 1402 -378 1174 -218 
Q 947 -58 826 173 
L 826 -1171 
Q 826 -1254 736 -1254 
L 486 -1254 
Q 397 -1254 397 -1171 
L 397 2848 
z
M 2534 1299 
Q 2541 1498 2496 1731 
Q 2451 1965 2345 2173 
Q 2240 2381 2080 2502 
Q 1920 2624 1683 2624 
Q 1446 2624 1286 2502 
Q 1126 2381 1020 2173 
Q 915 1965 876 1731 
Q 838 1498 838 1299 
Q 838 1114 876 874 
Q 915 634 1020 429 
Q 1126 224 1286 102 
Q 1446 -19 1683 -19 
Q 1920 -19 2080 102 
Q 2240 224 2349 429 
Q 2458 634 2499 874 
Q 2541 1114 2534 1299 
z
" transform="scale(0.015625)"/>
      <path id="NanumGothicCoding-75" d="M 2816 -186 
Q 2816 -275 2726 -275 
L 2496 -275 
Q 2406 -275 2406 -186 
L 2406 346 
Q 2240 -38 1997 -208 
Q 1754 -378 1421 -378 
Q 384 -378 384 960 
L 384 2842 
Q 384 2931 474 2931 
L 730 2931 
Q 819 2931 819 2842 
L 819 1075 
Q 819 -13 1491 -13 
Q 1645 -13 1805 92 
Q 1965 198 2099 380 
Q 2234 563 2304 806 
Q 2374 1050 2368 1318 
L 2368 2842 
Q 2368 2931 2458 2931 
L 2714 2931 
Q 2803 2931 2803 2842 
L 2803 525 
Q 2803 314 2806 147 
Q 2810 -19 2816 -186 
z
" transform="scale(0.015625)"/>
      <path id="NanumGothicCoding-6c" d="M 2605 122 
Q 2694 122 2694 32 
L 2694 -186 
Q 2694 -275 2605 -275 
L 531 -275 
Q 442 -275 442 -186 
L 442 32 
Q 442 122 531 122 
L 1389 122 
L 1389 4032 
L 710 4032 
Q 621 4032 621 4122 
L 621 4339 
Q 621 4429 710 4429 
L 1760 4429 
Q 1850 4429 1850 4339 
L 1850 122 
L 2605 122 
z
" transform="scale(0.015625)"/>
      <path id="NanumGothicCoding-73" d="M 582 147 
Q 992 -13 1427 -13 
Q 1792 -13 2045 169 
Q 2298 352 2298 538 
Q 2298 710 2157 838 
Q 2016 966 1811 1069 
Q 1594 1184 1386 1289 
Q 1178 1395 966 1504 
Q 723 1626 611 1802 
Q 499 1978 499 2144 
Q 499 2349 588 2509 
Q 678 2669 832 2790 
Q 986 2912 1206 2973 
Q 1427 3034 1677 3034 
Q 1907 3034 2099 3008 
Q 2291 2982 2496 2918 
Q 2541 2906 2569 2880 
Q 2598 2854 2592 2816 
L 2573 2611 
Q 2566 2560 2531 2547 
Q 2496 2534 2464 2547 
Q 2278 2618 2105 2643 
Q 1933 2669 1722 2669 
Q 947 2669 947 2144 
Q 947 2048 1049 1942 
Q 1152 1837 1402 1728 
Q 1645 1613 1840 1520 
Q 2035 1427 2272 1299 
Q 2554 1133 2659 953 
Q 2765 774 2765 544 
Q 2765 358 2656 166 
Q 2547 -26 2364 -141 
Q 2182 -256 1945 -317 
Q 1709 -378 1466 -378 
Q 1312 -378 1193 -371 
Q 1075 -365 969 -352 
Q 864 -339 758 -320 
Q 653 -301 538 -269 
Q 435 -237 442 -160 
L 474 90 
Q 493 186 582 147 
z
" transform="scale(0.015625)"/>
      <path id="NanumGothicCoding-65" d="M 2458 1536 
Q 2458 1734 2410 1939 
Q 2362 2144 2266 2298 
Q 2042 2669 1626 2669 
Q 1210 2669 973 2291 
Q 864 2106 806 1907 
Q 749 1709 742 1536 
L 2458 1536 
z
M 736 1171 
Q 730 966 810 726 
Q 890 486 1030 336 
Q 1171 186 1350 96 
Q 1530 6 1786 6 
Q 2010 6 2202 51 
Q 2394 96 2586 198 
Q 2662 230 2669 154 
L 2669 -141 
Q 2669 -192 2598 -224 
Q 2400 -301 2211 -339 
Q 2022 -378 1754 -378 
Q 1069 -378 665 80 
Q 262 538 262 1312 
Q 262 2016 659 2541 
Q 1075 3034 1632 3034 
Q 1978 3034 2205 2912 
Q 2432 2790 2611 2541 
Q 2931 2112 2931 1376 
Q 2931 1299 2928 1257 
Q 2925 1216 2905 1197 
Q 2886 1178 2838 1174 
Q 2790 1171 2701 1171 
L 736 1171 
z
" transform="scale(0.015625)"/>
     </defs>
     <use xlink:href="#NanumGothicCoding-33"/>
     <use xlink:href="#NanumGothicCoding-2e" transform="translate(49.999985 0)"/>
     <use xlink:href="#NanumGothicCoding-20" transform="translate(99.999969 0)"/>
     <use xlink:href="#NanumGothicCoding-cda9" transform="translate(149.999954 0)"/>
     <use xlink:href="#NanumGothicCoding-b3cc" transform="translate(249.999939 0)"/>
     <use xlink:href="#NanumGothicCoding-20" transform="translate(349.999924 0)"/>
     <use xlink:href="#NanumGothicCoding-c784" transform="translate(399.999908 0)"/>
     <use xlink:href="#NanumGothicCoding-d384" transform="translate(499.999893 0)"/>
     <use xlink:href="#NanumGothicCoding-c2a4" transform="translate(599.999878 0)"/>
     <use xlink:href="#NanumGothicCoding-20" transform="translate(699.999863 0)"/>
     <use xlink:href="#NanumGothicCoding-69" transform="translate(749.999847 0)"/>
     <use xlink:href="#NanumGothicCoding-6d" transform="translate(799.999832 0)"/>
     <use xlink:href="#NanumGothicCoding-70" transform="translate(849.999817 0)"/>
     <use xlink:href="#NanumGothicCoding-75" transform="translate(899.999802 0)"/>
     <use xlink:href="#NanumGothicCoding-6c" transform="translate(949.999786 0)"/>
     <use xlink:href="#NanumGothicCoding-73" transform="translate(999.999771 0)"/>
     <use xlink:href="#NanumGothicCoding-65" transform="translate(1049.999756 0)"/>
    </g>
   </g>
   <g id="text_4">
    <!-- 4. 각속도와 토크 -->
    <g style="fill: #111827" transform="translate(20.58048 117.640711) scale(0.11 -0.11)">
     <defs>
      <path id="NanumGothicCoding-34" d="M 1907 1216 
L 1907 3622 
L 570 1216 
L 1907 1216 
z
M 2342 -211 
Q 2342 -301 2253 -301 
L 1997 -301 
Q 1907 -301 1907 -211 
L 1907 826 
L 346 826 
Q 211 826 188 848 
Q 166 870 166 1005 
L 166 1203 
Q 166 1261 172 1280 
Q 179 1299 211 1350 
L 1702 4013 
Q 1741 4070 1757 4080 
Q 1773 4090 1843 4090 
L 2163 4090 
Q 2298 4090 2320 4067 
Q 2342 4045 2342 3910 
L 2342 1216 
L 3040 1216 
Q 3130 1216 3130 1126 
L 3130 915 
Q 3130 826 3040 826 
L 2342 826 
L 2342 -211 
z
" transform="scale(0.015625)"/>
      <path id="NanumGothicCoding-ac01" d="M 3482 4243 
Q 3334 3354 2707 2675 
Q 2080 1997 890 1498 
Q 787 1453 749 1536 
L 653 1747 
Q 627 1798 649 1830 
Q 672 1862 704 1875 
Q 1722 2298 2301 2880 
Q 2880 3462 3002 4134 
Q 3040 4314 2848 4314 
L 877 4314 
Q 800 4314 800 4397 
L 800 4621 
Q 800 4698 877 4698 
L 2995 4698 
Q 3302 4698 3411 4589 
Q 3520 4480 3482 4243 
z
M 1389 1165 
Q 1389 1203 1421 1222 
Q 1453 1242 1485 1242 
L 4634 1242 
Q 4934 1242 5027 1130 
Q 5120 1018 5120 755 
L 5120 -832 
Q 5120 -922 5030 -922 
L 4768 -922 
Q 4678 -922 4678 -832 
L 4678 723 
Q 4678 813 4649 835 
Q 4621 858 4531 858 
L 1485 858 
Q 1453 858 1421 880 
Q 1389 902 1389 934 
L 1389 1165 
z
M 5120 1664 
Q 5120 1574 5030 1574 
L 4768 1574 
Q 4678 1574 4678 1664 
L 4678 4915 
Q 4678 5005 4768 5005 
L 5030 5005 
Q 5120 5005 5120 4915 
L 5120 3366 
L 6003 3366 
Q 6042 3366 6070 3344 
Q 6099 3322 6099 3283 
L 6099 3066 
Q 6099 3034 6070 3008 
Q 6042 2982 6003 2982 
L 5120 2982 
L 5120 1664 
z
" transform="scale(0.015625)"/>
      <path id="NanumGothicCoding-c18d" d="M 5920 2080 
Q 5952 2080 5984 2057 
Q 6016 2035 6016 1997 
L 6016 1779 
Q 6016 1747 5984 1721 
Q 5952 1696 5920 1696 
L 480 1696 
Q 442 1696 413 1721 
Q 384 1747 384 1779 
L 384 2003 
Q 384 2042 413 2061 
Q 442 2080 480 2080 
L 2957 2080 
L 2957 2957 
Q 2957 3046 3046 3046 
L 3309 3046 
Q 3398 3046 3398 2957 
L 3398 2080 
L 5920 2080 
z
M 3424 4870 
Q 3411 4819 3401 4764 
Q 3392 4710 3379 4659 
Q 3411 4563 3456 4493 
Q 3571 4288 3769 4089 
Q 3968 3891 4227 3721 
Q 4486 3552 4796 3421 
Q 5107 3290 5446 3213 
Q 5485 3200 5491 3168 
Q 5498 3136 5485 3104 
L 5376 2886 
Q 5363 2854 5340 2838 
Q 5318 2822 5254 2835 
Q 4915 2918 4601 3059 
Q 4288 3200 4019 3379 
Q 3750 3558 3529 3769 
Q 3309 3981 3168 4205 
Q 2886 3744 2358 3366 
Q 1830 2989 1126 2784 
Q 1024 2758 998 2816 
L 902 3046 
Q 890 3078 899 3116 
Q 909 3155 954 3168 
Q 1382 3283 1740 3472 
Q 2099 3661 2364 3894 
Q 2630 4128 2790 4390 
Q 2950 4653 2982 4915 
Q 2995 5005 3066 4992 
L 3354 4960 
Q 3430 4947 3424 4870 
z
M 1139 909 
Q 1139 947 1171 966 
Q 1203 986 1235 986 
L 4634 986 
Q 4934 986 5027 874 
Q 5120 762 5120 499 
L 5120 -870 
Q 5120 -960 5030 -960 
L 4768 -960 
Q 4678 -960 4678 -870 
L 4678 467 
Q 4678 557 4649 579 
Q 4621 602 4531 602 
L 1235 602 
Q 1203 602 1171 624 
Q 1139 646 1139 678 
L 1139 909 
z
" transform="scale(0.015625)"/>
      <path id="NanumGothicCoding-b3c4" d="M 5222 1984 
Q 5222 1894 5139 1894 
L 3405 1894 
L 3405 499 
L 5920 499 
Q 5952 499 5984 476 
Q 6016 454 6016 416 
L 6016 198 
Q 6016 166 5984 140 
Q 5952 115 5920 115 
L 480 115 
Q 442 115 413 140 
Q 384 166 384 198 
L 384 416 
Q 384 454 413 476 
Q 442 499 480 499 
L 2963 499 
L 2963 1894 
L 1683 1894 
Q 1402 1894 1299 1987 
Q 1197 2080 1197 2349 
L 1197 4134 
Q 1197 4403 1299 4496 
Q 1402 4589 1683 4589 
L 5094 4589 
Q 5178 4589 5178 4506 
L 5178 4294 
Q 5178 4205 5094 4205 
L 1792 4205 
Q 1702 4205 1670 4166 
Q 1638 4128 1638 4032 
L 1638 2445 
Q 1638 2355 1670 2316 
Q 1702 2278 1792 2278 
L 5139 2278 
Q 5222 2278 5222 2195 
L 5222 1984 
z
" transform="scale(0.015625)"/>
      <path id="NanumGothicCoding-c640" d="M 4282 890 
Q 4384 909 4390 845 
L 4429 621 
Q 4442 544 4346 531 
Q 4128 493 3878 461 
Q 3629 429 3373 400 
Q 3117 371 2861 348 
Q 2605 326 2374 314 
Q 2195 301 1952 294 
Q 1709 288 1446 285 
Q 1184 282 934 282 
Q 685 282 499 288 
Q 461 288 432 313 
Q 403 339 403 371 
L 403 589 
Q 403 627 432 649 
Q 461 672 499 672 
Q 634 666 822 662 
Q 1011 659 1222 659 
Q 1434 659 1654 665 
Q 1875 672 2074 678 
L 2074 1792 
Q 1786 1824 1546 1942 
Q 1306 2061 1130 2246 
Q 954 2432 854 2672 
Q 755 2912 755 3187 
Q 755 3520 870 3782 
Q 986 4045 1187 4224 
Q 1389 4403 1667 4499 
Q 1946 4595 2266 4595 
Q 2573 4595 2851 4499 
Q 3130 4403 3341 4220 
Q 3552 4038 3677 3776 
Q 3802 3514 3802 3187 
Q 3802 2918 3706 2684 
Q 3610 2451 3440 2268 
Q 3270 2086 3033 1964 
Q 2797 1843 2515 1805 
L 2515 698 
Q 2726 710 2960 729 
Q 3194 749 3424 771 
Q 3654 794 3875 826 
Q 4096 858 4282 890 
z
M 3354 3194 
Q 3354 3437 3264 3619 
Q 3174 3802 3024 3926 
Q 2874 4051 2675 4115 
Q 2477 4179 2266 4179 
Q 2042 4179 1850 4115 
Q 1658 4051 1514 3926 
Q 1370 3802 1286 3616 
Q 1203 3430 1203 3194 
Q 1203 2963 1283 2780 
Q 1363 2598 1504 2467 
Q 1645 2336 1840 2265 
Q 2035 2195 2266 2195 
Q 2477 2195 2675 2268 
Q 2874 2342 3024 2476 
Q 3174 2611 3264 2793 
Q 3354 2976 3354 3194 
z
M 5120 -806 
Q 5120 -896 5030 -896 
L 4768 -896 
Q 4678 -896 4678 -806 
L 4678 4915 
Q 4678 5005 4768 5005 
L 5030 5005 
Q 5120 5005 5120 4915 
L 5120 2413 
L 6003 2413 
Q 6042 2413 6070 2390 
Q 6099 2368 6099 2330 
L 6099 2112 
Q 6099 2080 6070 2054 
Q 6042 2029 6003 2029 
L 5120 2029 
L 5120 -806 
z
" transform="scale(0.015625)"/>
      <path id="NanumGothicCoding-d1a0" d="M 6016 198 
Q 6016 166 5984 140 
Q 5952 115 5920 115 
L 480 115 
Q 442 115 413 140 
Q 384 166 384 198 
L 384 416 
Q 384 454 413 476 
Q 442 499 480 499 
L 2963 499 
L 2963 1677 
L 1683 1677 
Q 1402 1677 1299 1769 
Q 1197 1862 1197 2131 
L 1197 4211 
Q 1197 4480 1299 4573 
Q 1402 4666 1683 4666 
L 5094 4666 
Q 5178 4666 5178 4582 
L 5178 4371 
Q 5178 4282 5094 4282 
L 1792 4282 
Q 1702 4282 1670 4246 
Q 1638 4211 1638 4115 
L 1638 3360 
L 5005 3360 
Q 5094 3360 5094 3290 
L 5094 3072 
Q 5094 2989 5011 2989 
L 1638 2989 
L 1638 2227 
Q 1638 2138 1670 2099 
Q 1702 2061 1792 2061 
L 5139 2061 
Q 5222 2061 5222 1978 
L 5222 1766 
Q 5222 1677 5139 1677 
L 3405 1677 
L 3405 499 
L 5920 499 
Q 5952 499 5984 476 
Q 6016 454 6016 416 
L 6016 198 
z
" transform="scale(0.015625)"/>
      <path id="NanumGothicCoding-d06c" d="M 1216 4506 
Q 1216 4544 1248 4563 
Q 1280 4582 1312 4582 
L 4698 4582 
Q 4851 4582 4944 4550 
Q 5037 4518 5088 4457 
Q 5139 4397 5158 4301 
Q 5178 4205 5184 4070 
Q 5190 3898 5180 3626 
Q 5171 3354 5152 3034 
Q 5133 2714 5104 2362 
Q 5075 2010 5040 1670 
Q 5005 1331 4966 1027 
Q 4928 723 4890 499 
L 5920 499 
Q 5952 499 5984 476 
Q 6016 454 6016 416 
L 6016 198 
Q 6016 166 5984 140 
Q 5952 115 5920 115 
L 480 115 
Q 442 115 413 140 
Q 384 166 384 198 
L 384 416 
Q 384 454 413 476 
Q 442 499 480 499 
L 4454 499 
Q 4486 634 4518 835 
Q 4550 1037 4579 1283 
Q 4608 1530 4637 1805 
Q 4666 2080 4685 2362 
Q 4589 2349 4438 2342 
Q 4288 2336 4131 2333 
Q 3974 2330 3846 2326 
Q 3718 2323 3674 2323 
Q 3520 2317 3203 2313 
Q 2886 2310 2531 2307 
Q 2176 2304 1853 2301 
Q 1530 2298 1357 2298 
Q 1274 2298 1274 2374 
L 1274 2592 
Q 1274 2669 1357 2669 
Q 1485 2669 1680 2669 
Q 1875 2669 2102 2672 
Q 2330 2675 2570 2678 
Q 2810 2682 3018 2685 
Q 3226 2688 3392 2688 
Q 3558 2688 3635 2694 
Q 3674 2694 3814 2700 
Q 3955 2707 4124 2710 
Q 4294 2714 4460 2720 
Q 4627 2726 4717 2739 
Q 4742 3149 4752 3501 
Q 4762 3853 4749 4064 
Q 4742 4154 4716 4176 
Q 4691 4198 4602 4198 
L 1312 4198 
Q 1280 4198 1248 4220 
Q 1216 4243 1216 4275 
L 1216 4506 
z
" transform="scale(0.015625)"/>
     </defs>
     <use xlink:href="#NanumGothicCoding-34"/>
     <use xlink:href="#NanumGothicCoding-2e" transform="translate(49.999985 0)"/>
     <use xlink:href="#NanumGothicCoding-20" transform="translate(99.999969 0)"/>
     <use xlink:href="#NanumGothicCoding-ac01" transform="translate(149.999954 0)"/>
     <use xlink:href="#NanumGothicCoding-c18d" transform="translate(249.999939 0)"/>
     <use xlink:href="#NanumGothicCoding-b3c4" transform="translate(349.999924 0)"/>
     <use xlink:href="#NanumGothicCoding-c640" transform="translate(449.999908 0)"/>
     <use xlink:href="#NanumGothicCoding-20" transform="translate(549.999893 0)"/>
     <use xlink:href="#NanumGothicCoding-d1a0" transform="translate(599.999878 0)"/>
     <use xlink:href="#NanumGothicCoding-d06c" transform="translate(699.999863 0)"/>
    </g>
   </g>
   <g id="text_5">
    <!-- 5. 관성 모멘트 -->
    <g style="fill: #111827" transform="translate(20.58048 142.944743) scale(0.11 -0.11)">
     <defs>
      <path id="NanumGothicCoding-35" d="M 576 -205 
Q 493 -173 493 -90 
L 493 179 
Q 493 288 576 243 
Q 800 134 979 89 
Q 1158 45 1350 45 
Q 1773 45 2112 320 
Q 2464 621 2470 1062 
Q 2470 2042 1414 2042 
Q 1267 2042 1100 2013 
Q 934 1984 704 1907 
Q 634 1888 589 1923 
Q 544 1958 544 2029 
L 582 3910 
Q 582 4045 604 4067 
Q 627 4090 755 4090 
L 2611 4090 
Q 2694 4090 2694 4000 
L 2694 3789 
Q 2694 3699 2611 3699 
L 1005 3699 
Q 998 3296 988 2998 
Q 979 2701 973 2317 
Q 1254 2419 1581 2419 
Q 2099 2419 2496 2074 
Q 2899 1702 2899 1152 
Q 2899 486 2445 51 
Q 1965 -346 1350 -346 
Q 1184 -346 989 -317 
Q 794 -288 576 -205 
z
" transform="scale(0.015625)"/>
      <path id="NanumGothicCoding-ad00" d="M 5120 666 
Q 5120 576 5030 576 
L 4768 576 
Q 4678 576 4678 666 
L 4678 4915 
Q 4678 5005 4768 5005 
L 5030 5005 
Q 5120 5005 5120 4915 
L 5120 2944 
L 6003 2944 
Q 6042 2944 6070 2921 
Q 6099 2899 6099 2861 
L 6099 2643 
Q 6099 2611 6070 2585 
Q 6042 2560 6003 2560 
L 5120 2560 
L 5120 666 
z
M 4358 1978 
Q 4416 1984 4432 1968 
Q 4448 1952 4454 1920 
L 4480 1702 
Q 4486 1664 4470 1641 
Q 4454 1619 4397 1613 
Q 3981 1562 3337 1523 
Q 2694 1485 1894 1485 
L 563 1485 
Q 525 1485 496 1510 
Q 467 1536 467 1568 
L 467 1792 
Q 467 1830 496 1849 
Q 525 1869 563 1869 
L 1670 1869 
L 1920 1869 
L 1920 3168 
Q 1920 3258 2010 3258 
L 2272 3258 
Q 2362 3258 2362 3168 
L 2362 1869 
Q 2931 1882 3443 1904 
Q 3955 1926 4358 1978 
z
M 5408 -704 
Q 5408 -742 5376 -761 
Q 5344 -781 5312 -781 
L 1952 -781 
Q 1651 -781 1558 -665 
Q 1466 -550 1466 -288 
L 1466 819 
Q 1466 909 1555 909 
L 1818 909 
Q 1907 909 1907 819 
L 1907 -262 
Q 1907 -352 1936 -374 
Q 1965 -397 2054 -397 
L 5312 -397 
Q 5344 -397 5376 -419 
Q 5408 -442 5408 -474 
L 5408 -704 
z
M 896 4525 
Q 896 4563 928 4582 
Q 960 4602 992 4602 
L 3328 4602 
Q 3482 4602 3574 4570 
Q 3667 4538 3718 4477 
Q 3770 4416 3789 4320 
Q 3808 4224 3814 4090 
Q 3827 3763 3782 3372 
Q 3738 2982 3635 2598 
Q 3622 2560 3600 2528 
Q 3578 2496 3539 2502 
L 3283 2522 
Q 3174 2528 3206 2637 
Q 3302 2957 3347 3321 
Q 3392 3686 3379 4083 
Q 3373 4173 3347 4195 
Q 3322 4218 3232 4218 
L 992 4218 
Q 960 4218 928 4240 
Q 896 4262 896 4294 
L 896 4525 
z
" transform="scale(0.015625)"/>
      <path id="NanumGothicCoding-c131" d="M 5395 250 
Q 5395 -26 5248 -243 
Q 5101 -461 4848 -611 
Q 4595 -762 4259 -842 
Q 3923 -922 3539 -922 
Q 3123 -922 2784 -842 
Q 2445 -762 2201 -611 
Q 1958 -461 1824 -243 
Q 1690 -26 1690 250 
Q 1690 518 1824 732 
Q 1958 947 2201 1097 
Q 2445 1248 2784 1328 
Q 3123 1408 3539 1408 
Q 3923 1408 4259 1328 
Q 4595 1248 4848 1101 
Q 5101 954 5248 739 
Q 5395 525 5395 250 
z
M 4941 230 
Q 4941 422 4825 569 
Q 4710 717 4515 816 
Q 4320 915 4064 969 
Q 3808 1024 3533 1024 
Q 3226 1024 2970 969 
Q 2714 915 2531 816 
Q 2349 717 2246 569 
Q 2144 422 2144 230 
Q 2144 45 2246 -99 
Q 2349 -243 2531 -339 
Q 2714 -435 2970 -486 
Q 3226 -538 3533 -538 
Q 3808 -538 4064 -486 
Q 4320 -435 4515 -339 
Q 4710 -243 4825 -99 
Q 4941 45 4941 230 
z
M 2579 4774 
Q 2579 4307 2483 3904 
Q 2560 3635 2697 3392 
Q 2835 3149 3020 2937 
Q 3206 2726 3427 2556 
Q 3648 2387 3891 2272 
Q 3930 2253 3926 2217 
Q 3923 2182 3910 2157 
L 3776 1946 
Q 3757 1914 3731 1901 
Q 3706 1888 3648 1920 
Q 3501 1997 3312 2128 
Q 3123 2259 2931 2438 
Q 2739 2618 2566 2832 
Q 2394 3046 2278 3277 
Q 2067 2790 1708 2393 
Q 1350 1997 870 1683 
Q 838 1664 800 1657 
Q 762 1651 736 1683 
L 576 1894 
Q 557 1920 569 1958 
Q 582 1997 614 2016 
Q 1376 2483 1760 3193 
Q 2144 3904 2131 4781 
Q 2131 4883 2208 4883 
L 2509 4864 
Q 2579 4864 2579 4774 
z
M 4902 3622 
L 4902 4915 
Q 4902 5005 4992 5005 
L 5254 5005 
Q 5344 5005 5344 4915 
L 5344 1536 
Q 5344 1446 5254 1446 
L 4992 1446 
Q 4902 1446 4902 1536 
L 4902 3238 
L 3590 3238 
Q 3507 3238 3507 3315 
L 3507 3546 
Q 3507 3622 3590 3622 
L 4902 3622 
z
" transform="scale(0.015625)"/>
      <path id="NanumGothicCoding-baa8" d="M 1197 4134 
Q 1197 4403 1299 4496 
Q 1402 4589 1683 4589 
L 4685 4589 
Q 4838 4589 4931 4569 
Q 5024 4550 5078 4499 
Q 5133 4448 5152 4358 
Q 5171 4269 5171 4134 
L 5171 2349 
Q 5171 2080 5068 1987 
Q 4966 1894 4685 1894 
L 3405 1894 
L 3405 499 
L 5920 499 
Q 5952 499 5984 476 
Q 6016 454 6016 416 
L 6016 198 
Q 6016 166 5984 140 
Q 5952 115 5920 115 
L 480 115 
Q 442 115 413 140 
Q 384 166 384 198 
L 384 416 
Q 384 454 413 476 
Q 442 499 480 499 
L 2963 499 
L 2963 1894 
L 1683 1894 
Q 1530 1894 1437 1913 
Q 1344 1933 1289 1987 
Q 1235 2042 1216 2128 
Q 1197 2214 1197 2349 
L 1197 4134 
z
M 1792 4205 
Q 1702 4205 1670 4169 
Q 1638 4134 1638 4038 
L 1638 2445 
Q 1638 2349 1670 2313 
Q 1702 2278 1792 2278 
L 4576 2278 
Q 4666 2278 4698 2313 
Q 4730 2349 4730 2445 
L 4730 4038 
Q 4730 4134 4698 4169 
Q 4666 4205 4576 4205 
L 1792 4205 
z
" transform="scale(0.015625)"/>
      <path id="NanumGothicCoding-ba58" d="M 4422 960 
Q 4422 870 4333 870 
L 4090 870 
Q 4000 870 4000 960 
L 4000 2970 
L 3162 2970 
L 3162 2240 
Q 3162 1971 3059 1878 
Q 2957 1786 2675 1786 
L 1197 1786 
Q 1043 1786 950 1805 
Q 858 1824 803 1878 
Q 749 1933 729 2019 
Q 710 2106 710 2240 
L 710 4166 
Q 710 4435 812 4528 
Q 915 4621 1197 4621 
L 2675 4621 
Q 2829 4621 2921 4601 
Q 3014 4582 3068 4531 
Q 3123 4480 3142 4390 
Q 3162 4301 3162 4166 
L 3162 3354 
L 4000 3354 
L 4000 4806 
Q 4000 4896 4090 4896 
L 4333 4896 
Q 4422 4896 4422 4806 
L 4422 960 
z
M 1306 4237 
Q 1216 4237 1184 4201 
Q 1152 4166 1152 4070 
L 1152 2336 
Q 1152 2240 1184 2205 
Q 1216 2170 1306 2170 
L 2566 2170 
Q 2656 2170 2688 2205 
Q 2720 2240 2720 2336 
L 2720 4070 
Q 2720 4166 2688 4201 
Q 2656 4237 2566 4237 
L 1306 4237 
z
M 5728 -704 
Q 5728 -742 5696 -761 
Q 5664 -781 5632 -781 
L 2246 -781 
Q 1946 -781 1853 -665 
Q 1760 -550 1760 -288 
L 1760 960 
Q 1760 1050 1850 1050 
L 2112 1050 
Q 2202 1050 2202 960 
L 2202 -262 
Q 2202 -352 2230 -374 
Q 2259 -397 2349 -397 
L 5632 -397 
Q 5664 -397 5696 -419 
Q 5728 -442 5728 -474 
L 5728 -704 
z
M 5555 762 
Q 5555 672 5466 672 
L 5222 672 
Q 5133 672 5133 762 
L 5133 4915 
Q 5133 5005 5222 5005 
L 5466 5005 
Q 5555 5005 5555 4915 
L 5555 762 
z
" transform="scale(0.015625)"/>
      <path id="NanumGothicCoding-d2b8" d="M 5222 1766 
Q 5222 1677 5139 1677 
L 1683 1677 
Q 1402 1677 1299 1769 
Q 1197 1862 1197 2131 
L 1197 4211 
Q 1197 4480 1299 4573 
Q 1402 4666 1683 4666 
L 5094 4666 
Q 5178 4666 5178 4582 
L 5178 4371 
Q 5178 4282 5094 4282 
L 1792 4282 
Q 1702 4282 1670 4246 
Q 1638 4211 1638 4115 
L 1638 3360 
L 5005 3360 
Q 5094 3360 5094 3290 
L 5094 3072 
Q 5094 2989 5011 2989 
L 1638 2989 
L 1638 2227 
Q 1638 2138 1670 2099 
Q 1702 2061 1792 2061 
L 5139 2061 
Q 5222 2061 5222 1978 
L 5222 1766 
z
M 5920 499 
Q 5952 499 5984 476 
Q 6016 454 6016 416 
L 6016 198 
Q 6016 166 5984 140 
Q 5952 115 5920 115 
L 480 115 
Q 442 115 413 140 
Q 384 166 384 198 
L 384 416 
Q 384 454 413 476 
Q 442 499 480 499 
L 5920 499 
z
" transform="scale(0.015625)"/>
     </defs>
     <use xlink:href="#NanumGothicCoding-35"/>
     <use xlink:href="#NanumGothicCoding-2e" transform="translate(49.999985 0)"/>
     <use xlink:href="#NanumGothicCoding-20" transform="translate(99.999969 0)"/>
     <use xlink:href="#NanumGothicCoding-ad00" transform="translate(149.999954 0)"/>
     <use xlink:href="#NanumGothicCoding-c131" transform="translate(249.999939 0)"/>
     <use xlink:href="#NanumGothicCoding-20" transform="translate(349.999924 0)"/>
     <use xlink:href="#NanumGothicCoding-baa8" transform="translate(399.999908 0)"/>
     <use xlink:href="#NanumGothicCoding-ba58" transform="translate(499.999893 0)"/>
     <use xlink:href="#NanumGothicCoding-d2b8" transform="translate(599.999878 0)"/>
    </g>
   </g>
   <g id="text_6">
    <!-- 6. 쿼터니언 기초 -->
    <g style="fill: #111827" transform="translate(20.58048 168.269399) scale(0.11 -0.11)">
     <defs>
      <path id="NanumGothicCoding-36" d="M 2643 3661 
Q 2502 3712 2358 3741 
Q 2214 3770 2080 3770 
Q 1446 3770 1056 3200 
Q 723 2694 704 1888 
Q 832 2131 1043 2298 
Q 1318 2515 1696 2515 
Q 2118 2515 2451 2227 
Q 2925 1818 2925 1120 
Q 2925 499 2547 77 
Q 2163 -346 1651 -346 
Q 1139 -346 749 70 
Q 275 595 269 1760 
Q 269 2816 736 3469 
Q 1280 4166 2067 4166 
Q 2189 4166 2355 4144 
Q 2522 4122 2669 4077 
Q 2765 4064 2752 3974 
L 2739 3718 
Q 2739 3680 2707 3664 
Q 2675 3648 2643 3661 
z
M 2483 1088 
Q 2490 1453 2310 1741 
Q 2054 2112 1651 2112 
Q 1498 2118 1328 2035 
Q 1158 1952 1040 1792 
Q 922 1632 867 1446 
Q 813 1261 813 1088 
Q 813 723 992 435 
Q 1248 45 1651 45 
Q 2054 45 2310 435 
Q 2477 723 2483 1088 
z
" transform="scale(0.015625)"/>
      <path id="NanumGothicCoding-cffc" d="M 4410 2195 
Q 4442 2202 4470 2186 
Q 4499 2170 4506 2144 
L 4538 1926 
Q 4544 1850 4461 1830 
Q 4051 1760 3574 1721 
Q 3098 1683 2618 1651 
L 2618 -493 
Q 2618 -531 2595 -560 
Q 2573 -589 2534 -589 
L 2259 -589 
Q 2227 -589 2201 -560 
Q 2176 -531 2176 -493 
L 2176 1626 
Q 1971 1613 1744 1606 
Q 1517 1600 1299 1593 
Q 1082 1587 890 1584 
Q 698 1581 563 1587 
Q 525 1587 496 1612 
Q 467 1638 467 1670 
L 467 1888 
Q 467 1926 496 1948 
Q 525 1971 563 1971 
Q 749 1971 1008 1974 
Q 1267 1978 1539 1984 
Q 1811 1990 2064 2000 
Q 2317 2010 2490 2022 
Q 2618 2035 2768 2041 
Q 2918 2048 3072 2061 
Q 3117 2246 3161 2489 
Q 3206 2733 3238 2995 
Q 3142 2982 3014 2972 
Q 2886 2963 2764 2953 
Q 2643 2944 2544 2941 
Q 2445 2938 2406 2938 
Q 2253 2931 2070 2924 
Q 1888 2918 1696 2915 
Q 1504 2912 1312 2909 
Q 1120 2906 947 2906 
Q 864 2906 864 2982 
L 864 3200 
Q 864 3277 947 3277 
Q 1082 3277 1264 3280 
Q 1446 3283 1641 3286 
Q 1837 3290 2029 3296 
Q 2221 3302 2368 3309 
Q 2432 3309 2544 3315 
Q 2656 3322 2787 3331 
Q 2918 3341 3049 3347 
Q 3181 3354 3277 3366 
Q 3290 3552 3299 3715 
Q 3309 3878 3302 4006 
Q 3296 4096 3270 4118 
Q 3245 4141 3155 4141 
L 992 4141 
Q 960 4141 928 4163 
Q 896 4186 896 4218 
L 896 4448 
Q 896 4486 928 4505 
Q 960 4525 992 4525 
L 3251 4525 
Q 3405 4525 3497 4493 
Q 3590 4461 3641 4400 
Q 3693 4339 3712 4243 
Q 3731 4147 3738 4013 
Q 3744 3840 3725 3577 
Q 3706 3315 3670 3043 
Q 3635 2771 3593 2515 
Q 3552 2259 3514 2093 
Q 3776 2112 4009 2137 
Q 4243 2163 4410 2195 
z
M 4902 1062 
L 4902 4915 
Q 4902 5005 4992 5005 
L 5254 5005 
Q 5344 5005 5344 4915 
L 5344 -806 
Q 5344 -896 5254 -896 
L 4992 -896 
Q 4902 -896 4902 -806 
L 4902 698 
L 3558 698 
Q 3475 698 3475 774 
L 3475 992 
Q 3475 1062 3558 1062 
L 4902 1062 
z
" transform="scale(0.015625)"/>
      <path id="NanumGothicCoding-d130" d="M 3174 2464 
Q 2989 2451 2774 2441 
Q 2560 2432 2342 2425 
Q 2125 2419 1920 2419 
Q 1715 2419 1549 2426 
L 1280 2426 
L 1280 1229 
Q 1280 1133 1312 1097 
Q 1344 1062 1434 1062 
Q 1971 1050 2598 1098 
Q 3226 1146 3782 1254 
Q 3891 1274 3910 1184 
L 3942 998 
Q 3955 941 3936 918 
Q 3917 896 3859 883 
Q 3590 826 3270 784 
Q 2950 742 2617 713 
Q 2285 685 1955 672 
Q 1626 659 1338 666 
Q 1050 672 944 800 
Q 838 928 838 1197 
L 838 4077 
Q 838 4346 940 4435 
Q 1043 4525 1325 4525 
L 3334 4525 
Q 3418 4525 3418 4448 
L 3418 4218 
Q 3418 4141 3334 4141 
L 1408 4141 
Q 1318 4141 1299 4118 
Q 1280 4096 1280 4000 
L 1280 2797 
L 1549 2797 
Q 1709 2797 1910 2797 
Q 2112 2797 2329 2803 
Q 2547 2810 2764 2816 
Q 2982 2822 3174 2835 
Q 3213 2842 3235 2816 
Q 3258 2790 3258 2758 
L 3258 2541 
Q 3258 2477 3174 2464 
z
M 5344 -806 
Q 5344 -896 5254 -896 
L 4992 -896 
Q 4902 -896 4902 -806 
L 4902 2470 
L 3814 2470 
Q 3731 2470 3731 2547 
L 3731 2778 
Q 3731 2854 3814 2854 
L 4902 2854 
L 4902 4915 
Q 4902 5005 4992 5005 
L 5254 5005 
Q 5344 5005 5344 4915 
L 5344 -806 
z
" transform="scale(0.015625)"/>
      <path id="NanumGothicCoding-b2c8" d="M 5344 -806 
Q 5344 -896 5254 -896 
L 4992 -896 
Q 4902 -896 4902 -806 
L 4902 4915 
Q 4902 5005 4992 5005 
L 5254 5005 
Q 5344 5005 5344 4915 
L 5344 -806 
z
M 1459 1440 
Q 1459 1344 1491 1312 
Q 1523 1280 1613 1274 
Q 1926 1261 2281 1270 
Q 2637 1280 2995 1309 
Q 3354 1338 3696 1382 
Q 4038 1427 4333 1485 
Q 4442 1510 4461 1408 
L 4493 1229 
Q 4512 1139 4410 1114 
Q 4192 1062 3849 1017 
Q 3507 973 3110 937 
Q 2714 902 2298 886 
Q 1882 870 1523 877 
Q 1235 883 1126 1011 
Q 1018 1139 1018 1408 
L 1018 4557 
Q 1018 4646 1107 4646 
L 1370 4646 
Q 1459 4646 1459 4557 
L 1459 1440 
z
" transform="scale(0.015625)"/>
      <path id="NanumGothicCoding-c5b8" d="M 5344 832 
Q 5344 742 5254 742 
L 4992 742 
Q 4902 742 4902 832 
L 4902 3014 
L 3763 3014 
Q 3731 2714 3603 2470 
Q 3475 2227 3276 2054 
Q 3078 1882 2816 1786 
Q 2554 1690 2253 1690 
Q 1939 1690 1664 1798 
Q 1389 1907 1187 2108 
Q 986 2310 870 2585 
Q 755 2861 755 3200 
Q 755 3552 870 3833 
Q 986 4115 1187 4313 
Q 1389 4512 1664 4614 
Q 1939 4717 2253 4717 
Q 2528 4717 2784 4627 
Q 3040 4538 3248 4371 
Q 3456 4205 3590 3958 
Q 3725 3712 3763 3398 
L 4902 3398 
L 4902 4915 
Q 4902 5005 4992 5005 
L 5254 5005 
Q 5344 5005 5344 4915 
L 5344 832 
z
M 3328 3206 
Q 3328 3475 3241 3683 
Q 3155 3891 3008 4028 
Q 2861 4166 2665 4236 
Q 2470 4307 2253 4307 
Q 2029 4307 1840 4236 
Q 1651 4166 1507 4028 
Q 1363 3891 1283 3683 
Q 1203 3475 1203 3206 
Q 1203 2950 1280 2745 
Q 1357 2541 1497 2397 
Q 1638 2253 1830 2173 
Q 2022 2093 2253 2093 
Q 2470 2093 2665 2173 
Q 2861 2253 3008 2397 
Q 3155 2541 3241 2745 
Q 3328 2950 3328 3206 
z
M 5536 -704 
Q 5536 -742 5504 -761 
Q 5472 -781 5440 -781 
L 2234 -781 
Q 1933 -781 1840 -669 
Q 1747 -557 1747 -294 
L 1747 960 
Q 1747 1050 1837 1050 
L 2099 1050 
Q 2189 1050 2189 960 
L 2189 -262 
Q 2189 -352 2217 -374 
Q 2246 -397 2336 -397 
L 5440 -397 
Q 5472 -397 5504 -419 
Q 5536 -442 5536 -474 
L 5536 -704 
z
" transform="scale(0.015625)"/>
      <path id="NanumGothicCoding-ae30" d="M 5344 -806 
Q 5344 -896 5254 -896 
L 4992 -896 
Q 4902 -896 4902 -806 
L 4902 4915 
Q 4902 5005 4992 5005 
L 5254 5005 
Q 5344 5005 5344 4915 
L 5344 -806 
z
M 3629 4064 
Q 3597 3514 3411 2982 
Q 3226 2451 2896 1968 
Q 2566 1485 2102 1072 
Q 1638 659 1050 346 
Q 966 301 928 365 
L 787 589 
Q 742 666 813 698 
Q 1357 979 1776 1340 
Q 2195 1702 2492 2124 
Q 2790 2547 2963 3014 
Q 3136 3482 3181 3974 
Q 3194 4070 3155 4105 
Q 3117 4141 3027 4141 
L 992 4141 
Q 915 4141 915 4224 
L 915 4448 
Q 915 4525 992 4525 
L 3149 4525 
Q 3450 4525 3546 4413 
Q 3642 4301 3629 4064 
z
" transform="scale(0.015625)"/>
      <path id="NanumGothicCoding-cd08" d="M 4704 3315 
Q 4538 3130 4272 2941 
Q 4006 2752 3667 2566 
Q 3872 2496 4115 2419 
Q 4358 2342 4601 2275 
Q 4845 2208 5072 2153 
Q 5299 2099 5478 2067 
Q 5530 2054 5539 2035 
Q 5549 2016 5536 1971 
L 5478 1754 
Q 5466 1683 5376 1702 
Q 5197 1734 4928 1801 
Q 4659 1869 4355 1955 
Q 4051 2042 3740 2134 
Q 3430 2227 3174 2317 
Q 2682 2093 2138 1913 
Q 1594 1734 1043 1626 
Q 947 1606 922 1670 
L 845 1888 
Q 832 1920 851 1949 
Q 870 1978 909 1990 
Q 1901 2202 2713 2557 
Q 3526 2912 4166 3392 
Q 4269 3469 4262 3523 
Q 4256 3578 4154 3578 
L 1382 3578 
Q 1299 3578 1299 3661 
L 1299 3885 
Q 1299 3962 1382 3962 
L 4339 3962 
Q 5293 3962 4704 3315 
z
M 3315 1664 
Q 3347 1664 3372 1635 
Q 3398 1606 3398 1568 
L 3398 499 
L 5920 499 
Q 5952 499 5984 476 
Q 6016 454 6016 416 
L 6016 198 
Q 6016 166 5984 140 
Q 5952 115 5920 115 
L 480 115 
Q 442 115 413 140 
Q 384 166 384 198 
L 384 416 
Q 384 454 413 476 
Q 442 499 480 499 
L 2957 499 
L 2957 1568 
Q 2957 1606 2979 1635 
Q 3002 1664 3040 1664 
L 3315 1664 
z
M 4006 4877 
Q 4102 4877 4102 4787 
L 4102 4582 
Q 4102 4486 4006 4486 
L 2285 4486 
Q 2189 4486 2189 4582 
L 2189 4787 
Q 2189 4877 2285 4877 
L 4006 4877 
z
" transform="scale(0.015625)"/>
     </defs>
     <use xlink:href="#NanumGothicCoding-36"/>
     <use xlink:href="#NanumGothicCoding-2e" transform="translate(49.999985 0)"/>
     <use xlink:href="#NanumGothicCoding-20" transform="translate(99.999969 0)"/>
     <use xlink:href="#NanumGothicCoding-cffc" transform="translate(149.999954 0)"/>
     <use xlink:href="#NanumGothicCoding-d130" transform="translate(249.999939 0)"/>
     <use xlink:href="#NanumGothicCoding-b2c8" transform="translate(349.999924 0)"/>
     <use xlink:href="#NanumGothicCoding-c5b8" transform="translate(449.999908 0)"/>
     <use xlink:href="#NanumGothicCoding-20" transform="translate(549.999893 0)"/>
     <use xlink:href="#NanumGothicCoding-ae30" transform="translate(599.999878 0)"/>
     <use xlink:href="#NanumGothicCoding-cd08" transform="translate(699.999863 0)"/>
    </g>
   </g>
   <g id="text_7">
    <!-- 7. 카메라 행렬과 projection matrix -->
    <g style="fill: #111827" transform="translate(20.58048 194.254056) scale(0.11 -0.11)">
     <defs>
      <path id="NanumGothicCoding-37" d="M 1325 -211 
Q 1280 -301 1197 -301 
L 877 -301 
Q 838 -301 822 -275 
Q 806 -250 826 -211 
L 2400 3693 
L 429 3693 
Q 339 3693 339 3782 
L 339 4000 
Q 339 4090 429 4090 
L 2682 4090 
Q 2816 4090 2838 4067 
Q 2861 4045 2861 3910 
L 2861 3750 
Q 2861 3699 2842 3661 
L 1325 -211 
z
" transform="scale(0.015625)"/>
      <path id="NanumGothicCoding-ce74" d="M 806 2944 
Q 998 2944 1203 2950 
Q 1408 2957 1603 2963 
Q 1798 2970 1968 2976 
Q 2138 2982 2253 2989 
Q 2291 2989 2358 2995 
Q 2426 3002 2502 3005 
Q 2579 3008 2659 3014 
Q 2739 3021 2797 3034 
Q 2957 3482 3008 3974 
Q 3021 4070 2982 4105 
Q 2944 4141 2854 4141 
L 902 4141 
Q 826 4141 826 4224 
L 826 4448 
Q 826 4525 902 4525 
L 2976 4525 
Q 3277 4525 3373 4413 
Q 3469 4301 3456 4064 
Q 3424 3514 3238 2992 
Q 3053 2470 2723 2000 
Q 2394 1530 1930 1126 
Q 1466 723 877 410 
Q 794 365 755 429 
L 614 653 
Q 570 730 640 762 
Q 1338 1126 1834 1600 
Q 2330 2074 2618 2637 
Q 2528 2624 2438 2621 
Q 2349 2618 2291 2618 
Q 2138 2611 1949 2604 
Q 1760 2598 1565 2592 
Q 1370 2586 1174 2579 
Q 979 2573 806 2573 
Q 723 2573 723 2650 
L 723 2867 
Q 723 2944 806 2944 
z
M 5120 -806 
Q 5120 -896 5030 -896 
L 4768 -896 
Q 4678 -896 4678 -806 
L 4678 4915 
Q 4678 5005 4768 5005 
L 5030 5005 
Q 5120 5005 5120 4915 
L 5120 2656 
L 6003 2656 
Q 6042 2656 6070 2633 
Q 6099 2611 6099 2573 
L 6099 2355 
Q 6099 2323 6070 2297 
Q 6042 2272 6003 2272 
L 5120 2272 
L 5120 -806 
z
" transform="scale(0.015625)"/>
      <path id="NanumGothicCoding-ba54" d="M 678 4038 
Q 678 4307 780 4400 
Q 883 4493 1165 4493 
L 2694 4493 
Q 2848 4493 2941 4473 
Q 3034 4454 3088 4403 
Q 3142 4352 3161 4262 
Q 3181 4173 3181 4038 
L 3181 2803 
L 4000 2803 
L 4000 4806 
Q 4000 4896 4090 4896 
L 4333 4896 
Q 4422 4896 4422 4806 
L 4422 -563 
Q 4422 -653 4333 -653 
L 4090 -653 
Q 4000 -653 4000 -563 
L 4000 2419 
L 3181 2419 
L 3181 1267 
Q 3181 998 3078 905 
Q 2976 813 2694 813 
L 1165 813 
Q 1011 813 918 832 
Q 826 851 771 905 
Q 717 960 697 1046 
Q 678 1133 678 1267 
L 678 4038 
z
M 1274 4109 
Q 1184 4109 1152 4073 
Q 1120 4038 1120 3942 
L 1120 1363 
Q 1120 1267 1152 1232 
Q 1184 1197 1274 1197 
L 2586 1197 
Q 2675 1197 2707 1232 
Q 2739 1267 2739 1363 
L 2739 3942 
Q 2739 4038 2707 4073 
Q 2675 4109 2586 4109 
L 1274 4109 
z
M 5555 -806 
Q 5555 -896 5466 -896 
L 5222 -896 
Q 5133 -896 5133 -806 
L 5133 4915 
Q 5133 5005 5222 5005 
L 5466 5005 
Q 5555 5005 5555 4915 
L 5555 -806 
z
" transform="scale(0.015625)"/>
      <path id="NanumGothicCoding-b77c" d="M 1280 570 
Q 992 582 893 688 
Q 794 794 794 1062 
L 794 2330 
Q 794 2598 906 2691 
Q 1018 2784 1306 2784 
L 2918 2784 
Q 3008 2784 3033 2809 
Q 3059 2835 3059 2931 
L 3059 3994 
Q 3059 4090 3036 4115 
Q 3014 4141 2925 4141 
L 909 4141 
Q 877 4141 848 4160 
Q 819 4179 819 4211 
L 819 4454 
Q 819 4486 848 4505 
Q 877 4525 909 4525 
L 2995 4525 
Q 3149 4525 3245 4502 
Q 3341 4480 3398 4429 
Q 3456 4378 3478 4285 
Q 3501 4192 3501 4058 
L 3501 2854 
Q 3501 2586 3389 2493 
Q 3277 2400 2989 2400 
L 1370 2400 
Q 1280 2400 1257 2374 
Q 1235 2349 1235 2253 
L 1235 1094 
Q 1235 947 1376 947 
Q 2138 934 2838 1004 
Q 3539 1075 4198 1222 
Q 4288 1242 4307 1158 
L 4346 947 
Q 4358 864 4262 838 
Q 3923 762 3548 707 
Q 3174 653 2790 617 
Q 2406 582 2022 569 
Q 1638 557 1280 570 
z
M 5120 -806 
Q 5120 -896 5030 -896 
L 4768 -896 
Q 4678 -896 4678 -806 
L 4678 4915 
Q 4678 5005 4768 5005 
L 5030 5005 
Q 5120 5005 5120 4915 
L 5120 2586 
L 6003 2586 
Q 6042 2586 6070 2563 
Q 6099 2541 6099 2502 
L 6099 2285 
Q 6099 2253 6070 2227 
Q 6042 2202 6003 2202 
L 5120 2202 
L 5120 -806 
z
" transform="scale(0.015625)"/>
      <path id="NanumGothicCoding-d589" d="M 5574 64 
Q 5574 -173 5411 -355 
Q 5248 -538 4979 -662 
Q 4710 -787 4358 -851 
Q 4006 -915 3622 -915 
Q 3206 -915 2851 -851 
Q 2496 -787 2233 -662 
Q 1971 -538 1824 -355 
Q 1677 -173 1677 64 
Q 1677 294 1824 473 
Q 1971 653 2233 777 
Q 2496 902 2851 966 
Q 3206 1030 3622 1030 
Q 4006 1030 4358 966 
Q 4710 902 4979 780 
Q 5248 659 5411 476 
Q 5574 294 5574 64 
z
M 3245 2426 
Q 3245 2234 3165 2051 
Q 3085 1869 2928 1728 
Q 2771 1587 2544 1500 
Q 2317 1414 2029 1414 
Q 1734 1414 1507 1500 
Q 1280 1587 1126 1728 
Q 973 1869 893 2051 
Q 813 2234 813 2426 
Q 813 2624 893 2803 
Q 973 2982 1126 3123 
Q 1280 3264 1507 3347 
Q 1734 3430 2029 3430 
Q 2317 3430 2544 3344 
Q 2771 3258 2928 3120 
Q 3085 2982 3165 2800 
Q 3245 2618 3245 2426 
z
M 4320 3302 
L 5133 3302 
L 5133 4915 
Q 5133 5005 5222 5005 
L 5466 5005 
Q 5555 5005 5555 4915 
L 5555 1306 
Q 5555 1216 5466 1216 
L 5222 1216 
Q 5133 1216 5133 1306 
L 5133 2918 
L 4320 2918 
L 4320 1504 
Q 4320 1414 4230 1414 
L 3987 1414 
Q 3898 1414 3898 1504 
L 3898 4806 
Q 3898 4896 3987 4896 
L 4230 4896 
Q 4320 4896 4320 4806 
L 4320 3302 
z
M 5126 45 
Q 5126 205 4992 323 
Q 4858 442 4643 518 
Q 4429 595 4160 633 
Q 3891 672 3616 672 
Q 3315 672 3043 633 
Q 2771 595 2566 518 
Q 2362 442 2243 323 
Q 2125 205 2125 45 
Q 2125 -109 2243 -221 
Q 2362 -333 2566 -409 
Q 2771 -486 3043 -521 
Q 3315 -557 3616 -557 
Q 3891 -557 4160 -521 
Q 4429 -486 4643 -409 
Q 4858 -333 4992 -221 
Q 5126 -109 5126 45 
z
M 2835 2426 
Q 2835 2688 2633 2877 
Q 2432 3066 2029 3066 
Q 1626 3066 1424 2880 
Q 1222 2694 1222 2426 
Q 1222 2170 1424 1974 
Q 1626 1779 2029 1779 
Q 2432 1779 2633 1974 
Q 2835 2170 2835 2426 
z
M 3443 3802 
Q 3443 3718 3347 3718 
L 666 3718 
Q 634 3718 605 3744 
Q 576 3770 576 3808 
L 576 4013 
Q 576 4051 605 4076 
Q 634 4102 666 4102 
L 3347 4102 
Q 3443 4102 3443 4019 
L 3443 3802 
z
M 2803 4570 
Q 2803 4480 2707 4480 
L 1344 4480 
Q 1312 4480 1283 4502 
Q 1254 4525 1254 4563 
L 1254 4781 
Q 1254 4819 1280 4844 
Q 1306 4870 1338 4870 
L 2707 4870 
Q 2803 4870 2803 4781 
L 2803 4570 
z
" transform="scale(0.015625)"/>
      <path id="NanumGothicCoding-b82c" d="M 5478 -838 
Q 5478 -870 5449 -892 
Q 5421 -915 5395 -915 
L 2176 -915 
Q 1875 -915 1782 -803 
Q 1690 -691 1690 -422 
L 1690 13 
Q 1690 282 1802 374 
Q 1914 467 2202 467 
L 4762 467 
Q 4851 467 4876 492 
Q 4902 518 4902 614 
L 4902 934 
Q 4902 1030 4880 1056 
Q 4858 1082 4768 1082 
L 1766 1082 
Q 1734 1082 1705 1101 
Q 1677 1120 1677 1152 
L 1677 1382 
Q 1677 1414 1705 1433 
Q 1734 1453 1766 1453 
L 4838 1453 
Q 4992 1453 5088 1430 
Q 5184 1408 5241 1357 
Q 5299 1306 5321 1213 
Q 5344 1120 5344 986 
L 5344 550 
Q 5344 282 5232 189 
Q 5120 96 4832 96 
L 2266 96 
Q 2176 96 2153 70 
Q 2131 45 2131 -51 
L 2131 -397 
Q 2131 -486 2156 -515 
Q 2182 -544 2272 -544 
L 5389 -544 
Q 5421 -544 5449 -563 
Q 5478 -582 5478 -614 
L 5478 -838 
z
M 1389 2003 
Q 1101 2010 1001 2118 
Q 902 2227 902 2496 
L 902 3174 
Q 902 3443 1014 3536 
Q 1126 3629 1414 3629 
L 2675 3629 
Q 2765 3629 2790 3654 
Q 2816 3680 2816 3776 
L 2816 4275 
Q 2816 4371 2793 4396 
Q 2771 4422 2682 4422 
L 1005 4422 
Q 928 4422 928 4506 
L 928 4730 
Q 928 4806 1005 4806 
L 2752 4806 
Q 2906 4806 3002 4784 
Q 3098 4762 3155 4710 
Q 3213 4659 3235 4566 
Q 3258 4474 3258 4339 
L 3258 3699 
Q 3258 3430 3146 3337 
Q 3034 3245 2746 3245 
L 1478 3245 
Q 1389 3245 1366 3219 
Q 1344 3194 1344 3098 
L 1344 2528 
Q 1344 2381 1485 2381 
Q 1779 2381 2048 2387 
Q 2317 2394 2576 2416 
Q 2835 2438 3100 2473 
Q 3366 2509 3648 2560 
Q 3712 2573 3734 2560 
Q 3757 2547 3770 2496 
L 3808 2291 
Q 3821 2234 3798 2214 
Q 3776 2195 3718 2182 
Q 3411 2125 3132 2086 
Q 2854 2048 2579 2029 
Q 2304 2010 2013 2003 
Q 1722 1997 1389 2003 
z
M 4902 4230 
L 4902 4915 
Q 4902 5005 4992 5005 
L 5254 5005 
Q 5344 5005 5344 4915 
L 5344 1862 
Q 5344 1773 5254 1773 
L 4992 1773 
Q 4902 1773 4902 1862 
L 4902 2829 
L 3782 2829 
Q 3699 2829 3699 2906 
L 3699 3130 
Q 3699 3206 3782 3206 
L 4902 3206 
L 4902 3853 
L 3782 3853 
Q 3699 3853 3699 3930 
L 3699 4154 
Q 3699 4230 3782 4230 
L 4902 4230 
z
" transform="scale(0.015625)"/>
      <path id="NanumGothicCoding-72" d="M 1946 122 
Q 2035 122 2035 32 
L 2035 -186 
Q 2035 -275 1946 -275 
L 506 -275 
Q 416 -275 416 -186 
L 416 32 
Q 416 122 506 122 
L 883 122 
L 883 2534 
L 390 2534 
Q 301 2534 301 2624 
L 301 2842 
Q 301 2931 390 2931 
L 1165 2931 
Q 1254 2931 1254 2842 
L 1254 2214 
Q 1645 3021 2381 3021 
Q 2758 3021 3059 2874 
Q 3123 2848 3129 2809 
Q 3136 2771 3117 2726 
L 3040 2496 
Q 3021 2451 2992 2454 
Q 2963 2458 2918 2483 
Q 2637 2618 2317 2618 
Q 1792 2592 1485 2048 
Q 1312 1715 1312 1178 
L 1312 122 
L 1946 122 
z
" transform="scale(0.015625)"/>
      <path id="NanumGothicCoding-6f" d="M 2490 1331 
Q 2490 1581 2432 1824 
Q 2374 2067 2253 2266 
Q 2010 2650 1594 2650 
Q 1158 2650 934 2266 
Q 813 2067 758 1824 
Q 704 1581 704 1331 
Q 704 1056 755 813 
Q 806 570 934 397 
Q 1216 6 1594 6 
Q 2035 6 2253 397 
Q 2381 570 2435 813 
Q 2490 1056 2490 1331 
z
M 2931 1331 
Q 2931 979 2851 668 
Q 2771 358 2605 147 
Q 2413 -102 2163 -240 
Q 1914 -378 1594 -378 
Q 1274 -378 1024 -240 
Q 774 -102 582 147 
Q 429 378 349 678 
Q 269 979 269 1331 
Q 269 2054 582 2515 
Q 947 3034 1594 3034 
Q 1920 3034 2166 2909 
Q 2413 2784 2605 2515 
Q 2931 2048 2931 1331 
z
" transform="scale(0.015625)"/>
      <path id="NanumGothicCoding-6a" d="M 1453 3968 
Q 1453 4115 1558 4220 
Q 1664 4326 1811 4326 
Q 1958 4326 2064 4220 
Q 2170 4115 2170 3968 
Q 2170 3821 2064 3715 
Q 1958 3610 1811 3610 
Q 1664 3610 1558 3715 
Q 1453 3821 1453 3968 
z
M 614 134 
Q 704 134 704 45 
L 704 -288 
Q 704 -582 774 -698 
Q 832 -787 934 -838 
Q 1037 -896 1184 -896 
Q 1331 -896 1434 -838 
Q 1536 -787 1594 -698 
Q 1664 -582 1664 -243 
L 1664 2534 
L 794 2534 
Q 704 2534 704 2624 
L 704 2842 
Q 704 2931 794 2931 
L 2010 2931 
Q 2099 2931 2099 2842 
L 2099 -288 
Q 2099 -1267 1229 -1267 
Q 262 -1267 262 -288 
L 269 45 
Q 269 134 358 134 
L 614 134 
z
" transform="scale(0.015625)"/>
      <path id="NanumGothicCoding-63" d="M 2624 -288 
Q 2451 -333 2310 -349 
Q 2170 -365 1952 -365 
Q 1581 -365 1289 -233 
Q 998 -102 780 128 
Q 563 358 454 668 
Q 346 979 346 1338 
Q 346 1702 461 2009 
Q 576 2317 787 2541 
Q 998 2765 1289 2896 
Q 1581 3027 1952 3027 
Q 2150 3027 2297 3011 
Q 2445 2995 2630 2950 
Q 2714 2931 2707 2842 
L 2688 2624 
Q 2675 2547 2598 2566 
Q 2445 2618 2307 2640 
Q 2170 2662 2010 2662 
Q 1741 2662 1507 2556 
Q 1274 2451 1126 2272 
Q 979 2093 899 1853 
Q 819 1613 819 1338 
Q 819 1088 902 848 
Q 986 608 1130 419 
Q 1274 230 1507 115 
Q 1741 0 2010 0 
Q 2170 0 2298 19 
Q 2426 38 2592 96 
Q 2662 115 2688 51 
L 2707 -179 
Q 2714 -269 2624 -288 
z
" transform="scale(0.015625)"/>
      <path id="NanumGothicCoding-74" d="M 2733 -269 
Q 2464 -378 2106 -378 
Q 1523 -378 1357 -38 
Q 1248 192 1248 774 
L 1248 2413 
L 416 2413 
Q 326 2413 326 2502 
L 326 2694 
Q 326 2784 416 2784 
L 1248 2784 
L 1248 3686 
Q 1248 3782 1331 3782 
L 1600 3782 
Q 1683 3782 1683 3686 
L 1683 2784 
L 2714 2784 
Q 2803 2784 2803 2694 
L 2803 2502 
Q 2803 2413 2714 2413 
L 1683 2413 
L 1683 486 
Q 1683 6 2208 6 
Q 2470 6 2707 115 
Q 2739 128 2768 115 
Q 2797 102 2797 64 
L 2810 -141 
Q 2822 -230 2733 -269 
z
" transform="scale(0.015625)"/>
      <path id="NanumGothicCoding-6e" d="M 2797 -186 
Q 2797 -275 2707 -275 
L 2451 -275 
Q 2362 -275 2362 -186 
L 2362 1574 
Q 2362 2163 2202 2409 
Q 2042 2656 1658 2656 
Q 1318 2656 1088 2384 
Q 858 2112 858 1562 
L 858 -186 
Q 858 -275 768 -275 
L 512 -275 
Q 422 -275 422 -186 
L 422 2118 
Q 422 2394 419 2547 
Q 416 2701 403 2842 
Q 397 2886 425 2908 
Q 454 2931 493 2931 
L 723 2931 
Q 813 2931 813 2842 
L 813 2483 
Q 966 2758 1187 2889 
Q 1408 3021 1696 3021 
Q 2259 3021 2528 2669 
Q 2797 2317 2797 1677 
L 2797 -186 
z
" transform="scale(0.015625)"/>
      <path id="NanumGothicCoding-61" d="M 2368 1402 
L 2246 1402 
Q 1888 1414 1645 1376 
Q 1402 1338 1229 1254 
Q 1018 1165 902 976 
Q 787 787 787 589 
Q 787 474 838 342 
Q 890 211 998 141 
Q 1184 -13 1414 -13 
Q 1638 -13 1785 73 
Q 1933 160 2073 342 
Q 2214 525 2291 755 
Q 2368 986 2368 1203 
L 2368 1402 
z
M 723 2400 
Q 691 2381 662 2390 
Q 634 2400 634 2432 
L 634 2682 
Q 634 2765 723 2803 
Q 941 2931 1168 2982 
Q 1395 3034 1658 3034 
Q 2214 3046 2508 2713 
Q 2803 2381 2803 1888 
L 2803 397 
Q 2803 218 2809 77 
Q 2816 -64 2829 -192 
Q 2829 -275 2739 -275 
L 2509 -275 
Q 2419 -275 2419 -192 
L 2419 262 
Q 2285 -38 2009 -208 
Q 1734 -378 1363 -378 
Q 813 -378 512 -19 
Q 410 96 358 256 
Q 307 416 307 570 
Q 307 902 489 1180 
Q 672 1459 1050 1600 
Q 1414 1766 2285 1766 
L 2368 1766 
L 2368 1914 
Q 2368 2240 2185 2454 
Q 2003 2669 1658 2669 
Q 1382 2669 1168 2608 
Q 954 2547 723 2400 
z
" transform="scale(0.015625)"/>
      <path id="NanumGothicCoding-78" d="M 2950 -186 
Q 2970 -218 2954 -246 
Q 2938 -275 2899 -275 
L 2579 -275 
Q 2502 -275 2451 -186 
L 1600 1082 
L 749 -186 
Q 691 -275 621 -275 
L 301 -275 
Q 262 -275 246 -246 
Q 230 -218 250 -186 
L 1357 1434 
L 378 2842 
Q 358 2874 374 2902 
Q 390 2931 429 2931 
L 749 2931 
Q 826 2931 877 2842 
L 1600 1786 
L 2323 2842 
Q 2381 2931 2451 2931 
L 2771 2931 
Q 2810 2931 2826 2902 
Q 2842 2874 2822 2842 
L 1843 1434 
L 2950 -186 
z
" transform="scale(0.015625)"/>
     </defs>
     <use xlink:href="#NanumGothicCoding-37"/>
     <use xlink:href="#NanumGothicCoding-2e" transform="translate(49.999985 0)"/>
     <use xlink:href="#NanumGothicCoding-20" transform="translate(99.999969 0)"/>
     <use xlink:href="#NanumGothicCoding-ce74" transform="translate(149.999954 0)"/>
     <use xlink:href="#NanumGothicCoding-ba54" transform="translate(249.999939 0)"/>
     <use xlink:href="#NanumGothicCoding-b77c" transform="translate(349.999924 0)"/>
     <use xlink:href="#NanumGothicCoding-20" transform="translate(449.999908 0)"/>
     <use xlink:href="#NanumGothicCoding-d589" transform="translate(499.999893 0)"/>
     <use xlink:href="#NanumGothicCoding-b82c" transform="translate(599.999878 0)"/>
     <use xlink:href="#NanumGothicCoding-acfc" transform="translate(699.999863 0)"/>
     <use xlink:href="#NanumGothicCoding-20" transform="translate(799.999847 0)"/>
     <use xlink:href="#NanumGothicCoding-70" transform="translate(849.999832 0)"/>
     <use xlink:href="#NanumGothicCoding-72" transform="translate(899.999817 0)"/>
     <use xlink:href="#NanumGothicCoding-6f" transform="translate(949.999802 0)"/>
     <use xlink:href="#NanumGothicCoding-6a" transform="translate(999.999786 0)"/>
     <use xlink:href="#NanumGothicCoding-65" transform="translate(1049.999771 0)"/>
     <use xlink:href="#NanumGothicCoding-63" transform="translate(1099.999756 0)"/>
     <use xlink:href="#NanumGothicCoding-74" transform="translate(1149.999741 0)"/>
     <use xlink:href="#NanumGothicCoding-69" transform="translate(1199.999725 0)"/>
     <use xlink:href="#NanumGothicCoding-6f" transform="translate(1249.99971 0)"/>
     <use xlink:href="#NanumGothicCoding-6e" transform="translate(1299.999695 0)"/>
     <use xlink:href="#NanumGothicCoding-20" transform="translate(1349.99968 0)"/>
     <use xlink:href="#NanumGothicCoding-6d" transform="translate(1399.999664 0)"/>
     <use xlink:href="#NanumGothicCoding-61" transform="translate(1449.999649 0)"/>
     <use xlink:href="#NanumGothicCoding-74" transform="translate(1499.999634 0)"/>
     <use xlink:href="#NanumGothicCoding-72" transform="translate(1549.999619 0)"/>
     <use xlink:href="#NanumGothicCoding-69" transform="translate(1599.999603 0)"/>
     <use xlink:href="#NanumGothicCoding-78" transform="translate(1649.999588 0)"/>
    </g>
   </g>
   <g id="text_8">
    <!-- 8. WebGL의 MVP 행렬 -->
    <g style="fill: #111827" transform="translate(20.58048 219.040743) scale(0.11 -0.11)">
     <defs>
      <path id="NanumGothicCoding-38" d="M 3008 832 
Q 3008 538 2893 307 
Q 2778 77 2554 -70 
Q 2362 -198 2122 -272 
Q 1882 -346 1594 -346 
Q 1306 -346 1072 -272 
Q 838 -198 634 -70 
Q 422 77 304 307 
Q 186 538 186 832 
Q 186 1286 480 1574 
Q 710 1811 1184 1990 
Q 314 2438 314 3110 
Q 314 3360 435 3552 
Q 557 3744 768 3891 
Q 954 4013 1139 4077 
Q 1325 4141 1600 4141 
Q 1875 4141 2067 4077 
Q 2259 4013 2432 3891 
Q 2874 3610 2874 3110 
Q 2874 2490 1990 1990 
Q 2214 1907 2403 1798 
Q 2592 1690 2701 1574 
Q 3008 1286 3008 832 
z
M 2445 3040 
Q 2445 3379 2202 3565 
Q 1965 3750 1600 3750 
Q 1235 3750 998 3565 
Q 742 3379 742 3040 
Q 742 2771 1005 2541 
Q 1094 2470 1222 2380 
Q 1350 2291 1517 2202 
Q 1568 2170 1597 2170 
Q 1626 2170 1683 2202 
Q 2035 2432 2240 2643 
Q 2445 2854 2445 3040 
z
M 2592 858 
Q 2592 1184 2310 1408 
Q 2221 1478 2064 1580 
Q 1907 1683 1670 1792 
Q 1587 1837 1504 1792 
Q 1286 1702 1120 1590 
Q 954 1478 864 1408 
Q 749 1306 678 1162 
Q 608 1018 608 858 
Q 608 467 928 237 
Q 1210 38 1600 38 
Q 2003 38 2272 237 
Q 2592 467 2592 858 
z
" transform="scale(0.015625)"/>
      <path id="NanumGothicCoding-57" d="M 2547 -211 
Q 2528 -275 2464 -275 
L 2016 -275 
Q 1946 -275 1933 -211 
L 1632 2925 
L 1594 3430 
L 1555 2925 
L 1222 -211 
Q 1203 -275 1139 -275 
L 691 -275 
Q 621 -275 608 -211 
L 109 4000 
Q 96 4032 121 4061 
Q 147 4090 186 4090 
L 442 4090 
Q 518 4090 544 4000 
L 864 851 
L 915 275 
L 973 851 
L 1280 3776 
Q 1293 3840 1328 3869 
Q 1363 3898 1421 3898 
L 1773 3898 
Q 1882 3898 1914 3776 
L 2189 851 
L 2246 275 
L 2304 851 
L 2656 4000 
Q 2669 4038 2694 4064 
Q 2720 4090 2758 4090 
L 3008 4090 
Q 3046 4090 3072 4061 
Q 3098 4032 3085 4000 
L 2547 -211 
z
" transform="scale(0.015625)"/>
      <path id="NanumGothicCoding-62" d="M 397 4371 
Q 397 4454 486 4454 
L 736 4454 
Q 826 4454 826 4371 
L 826 2464 
Q 947 2714 1174 2874 
Q 1402 3034 1722 3034 
Q 2323 3034 2656 2531 
Q 2989 2029 2989 1427 
Q 2989 1088 2915 781 
Q 2842 474 2669 208 
Q 2496 -58 2256 -198 
Q 2016 -339 1722 -339 
Q 1088 -339 826 275 
L 826 -192 
Q 826 -275 736 -275 
L 486 -275 
Q 397 -275 397 -192 
L 397 4371 
z
M 2534 1357 
Q 2541 1542 2499 1782 
Q 2458 2022 2349 2227 
Q 2240 2432 2080 2553 
Q 1920 2675 1683 2675 
Q 1446 2675 1286 2553 
Q 1126 2432 1020 2227 
Q 915 2022 876 1782 
Q 838 1542 838 1357 
Q 838 1158 876 924 
Q 915 691 1020 483 
Q 1126 275 1286 153 
Q 1446 32 1683 32 
Q 1920 32 2080 153 
Q 2240 275 2345 483 
Q 2451 691 2496 924 
Q 2541 1158 2534 1357 
z
" transform="scale(0.015625)"/>
      <path id="NanumGothicCoding-47" d="M 2720 2093 
Q 2810 2093 2826 2070 
Q 2842 2048 2842 1914 
L 2842 77 
Q 2842 6 2813 -45 
Q 2784 -96 2746 -122 
Q 2554 -243 2323 -300 
Q 2093 -358 1907 -358 
Q 1530 -358 1238 -192 
Q 947 -26 720 272 
Q 493 570 368 976 
Q 243 1382 237 1901 
Q 243 2374 358 2777 
Q 474 3181 694 3494 
Q 915 3808 1228 3984 
Q 1542 4160 1907 4160 
Q 2099 4160 2265 4125 
Q 2432 4090 2643 3987 
Q 2707 3962 2694 3859 
L 2675 3622 
Q 2669 3539 2605 3565 
Q 2406 3674 2236 3715 
Q 2067 3757 1907 3757 
Q 1638 3757 1430 3613 
Q 1222 3469 1052 3213 
Q 883 2957 796 2624 
Q 710 2291 704 1901 
Q 710 1478 796 1145 
Q 883 813 1052 566 
Q 1222 320 1452 182 
Q 1683 45 1939 45 
Q 2234 45 2374 166 
L 2374 1690 
L 1498 1690 
Q 1434 1690 1434 1779 
L 1434 2003 
Q 1434 2093 1498 2093 
L 2720 2093 
z
" transform="scale(0.015625)"/>
      <path id="NanumGothicCoding-4c" d="M 2861 128 
Q 2950 128 2950 38 
L 2950 -186 
Q 2950 -275 2861 -275 
L 883 -275 
Q 794 -275 746 -272 
Q 698 -269 675 -246 
Q 653 -224 649 -173 
Q 646 -122 646 -32 
L 646 4000 
Q 646 4090 736 4090 
L 1030 4090 
Q 1120 4090 1120 4000 
L 1120 128 
L 2861 128 
z
" transform="scale(0.015625)"/>
      <path id="NanumGothicCoding-c758" d="M 5344 -806 
Q 5344 -896 5254 -896 
L 4992 -896 
Q 4902 -896 4902 -806 
L 4902 4915 
Q 4902 5005 4992 5005 
L 5254 5005 
Q 5344 5005 5344 4915 
L 5344 -806 
z
M 3885 3187 
Q 3885 2867 3769 2601 
Q 3654 2336 3449 2144 
Q 3245 1952 2963 1846 
Q 2682 1741 2349 1741 
Q 2022 1741 1747 1846 
Q 1472 1952 1270 2144 
Q 1069 2336 953 2601 
Q 838 2867 838 3187 
Q 838 3526 953 3795 
Q 1069 4064 1270 4253 
Q 1472 4442 1747 4541 
Q 2022 4640 2349 4640 
Q 2656 4640 2934 4541 
Q 3213 4442 3424 4253 
Q 3635 4064 3760 3795 
Q 3885 3526 3885 3187 
z
M 3437 3194 
Q 3437 3456 3350 3654 
Q 3264 3853 3113 3984 
Q 2963 4115 2764 4179 
Q 2566 4243 2349 4243 
Q 2118 4243 1926 4176 
Q 1734 4109 1590 3977 
Q 1446 3846 1366 3651 
Q 1286 3456 1286 3194 
Q 1286 2701 1577 2416 
Q 1869 2131 2349 2131 
Q 2566 2131 2764 2204 
Q 2963 2278 3113 2412 
Q 3264 2547 3350 2745 
Q 3437 2944 3437 3194 
z
M 4486 1069 
Q 4518 1075 4547 1059 
Q 4576 1043 4582 1018 
L 4614 800 
Q 4621 723 4538 704 
Q 4326 666 4076 630 
Q 3827 595 3561 563 
Q 3296 531 3027 505 
Q 2758 480 2502 461 
Q 2304 448 2038 435 
Q 1773 422 1497 412 
Q 1222 403 972 400 
Q 723 397 563 403 
Q 525 403 496 428 
Q 467 454 467 486 
L 467 704 
Q 467 742 496 764 
Q 525 787 563 787 
Q 749 787 1008 790 
Q 1267 794 1539 800 
Q 1811 806 2064 816 
Q 2317 826 2490 838 
Q 2714 851 2992 876 
Q 3270 902 3545 934 
Q 3821 966 4070 1001 
Q 4320 1037 4486 1069 
z
" transform="scale(0.015625)"/>
      <path id="NanumGothicCoding-4d" d="M 2867 -186 
Q 2867 -275 2778 -275 
L 2534 -275 
Q 2445 -275 2445 -186 
L 2445 3674 
L 2362 3187 
Q 1869 19 1869 13 
Q 1837 -51 1773 -51 
L 1421 -51 
Q 1376 -51 1357 -35 
Q 1338 -19 1325 13 
L 832 3187 
Q 819 3283 793 3414 
Q 768 3546 749 3674 
L 749 -186 
Q 749 -275 659 -275 
L 416 -275 
Q 326 -275 326 -186 
L 326 3910 
Q 326 4045 348 4067 
Q 371 4090 506 4090 
L 986 4090 
Q 1037 4090 1059 4077 
Q 1082 4064 1101 4013 
L 1536 966 
L 1600 480 
L 1664 966 
L 2099 4019 
Q 2125 4090 2202 4090 
L 2688 4090 
Q 2822 4090 2844 4067 
Q 2867 4045 2867 3910 
L 2867 -186 
z
" transform="scale(0.015625)"/>
      <path id="NanumGothicCoding-56" d="M 2502 4000 
Q 2515 4038 2547 4064 
Q 2579 4090 2618 4090 
L 2912 4090 
Q 2950 4090 2969 4061 
Q 2989 4032 2976 4000 
L 1869 -192 
Q 1850 -243 1827 -259 
Q 1805 -275 1754 -275 
L 1402 -275 
Q 1350 -275 1328 -259 
Q 1306 -243 1286 -192 
L 218 4000 
Q 205 4032 224 4061 
Q 243 4090 282 4090 
L 576 4090 
Q 653 4090 691 4000 
L 1504 678 
Q 1517 608 1529 553 
Q 1542 499 1555 448 
Q 1568 390 1581 333 
Q 1594 390 1606 448 
Q 1619 499 1632 553 
Q 1645 608 1664 678 
L 2502 4000 
z
" transform="scale(0.015625)"/>
      <path id="NanumGothicCoding-50" d="M 2547 2835 
Q 2547 3194 2307 3440 
Q 2067 3686 1613 3686 
L 845 3686 
L 845 1965 
L 1171 1965 
Q 1542 1965 1756 1997 
Q 1971 2029 2147 2125 
Q 2323 2221 2425 2368 
Q 2528 2515 2547 2835 
z
M 845 -186 
Q 845 -275 755 -275 
L 474 -275 
Q 384 -275 384 -186 
L 384 3898 
Q 384 4038 413 4064 
Q 442 4090 576 4090 
L 1517 4090 
Q 2221 4090 2618 3750 
Q 3027 3398 3027 2835 
Q 3027 2502 2908 2284 
Q 2790 2067 2576 1897 
Q 2362 1728 2074 1645 
Q 1786 1562 1466 1562 
L 845 1562 
L 845 -186 
z
" transform="scale(0.015625)"/>
     </defs>
     <use xlink:href="#NanumGothicCoding-38"/>
     <use xlink:href="#NanumGothicCoding-2e" transform="translate(49.999985 0)"/>
     <use xlink:href="#NanumGothicCoding-20" transform="translate(99.999969 0)"/>
     <use xlink:href="#NanumGothicCoding-57" transform="translate(149.999954 0)"/>
     <use xlink:href="#NanumGothicCoding-65" transform="translate(199.999939 0)"/>
     <use xlink:href="#NanumGothicCoding-62" transform="translate(249.999924 0)"/>
     <use xlink:href="#NanumGothicCoding-47" transform="translate(299.999908 0)"/>
     <use xlink:href="#NanumGothicCoding-4c" transform="translate(349.999893 0)"/>
     <use xlink:href="#NanumGothicCoding-c758" transform="translate(399.999878 0)"/>
     <use xlink:href="#NanumGothicCoding-20" transform="translate(499.999863 0)"/>
     <use xlink:href="#NanumGothicCoding-4d" transform="translate(549.999847 0)"/>
     <use xlink:href="#NanumGothicCoding-56" transform="translate(599.999832 0)"/>
     <use xlink:href="#NanumGothicCoding-50" transform="translate(649.999817 0)"/>
     <use xlink:href="#NanumGothicCoding-20" transform="translate(699.999802 0)"/>
     <use xlink:href="#NanumGothicCoding-d589" transform="translate(749.999786 0)"/>
     <use xlink:href="#NanumGothicCoding-b82c" transform="translate(849.999771 0)"/>
    </g>
   </g>
  </g>
 </g>
 <defs>
  <clipPath id="pac54134da6">
   <rect x="5.76" y="5.76" width="370.512" height="230.6304"/>
  </clipPath>
 </defs>
</svg>
