<svg xmlns="http://www.w3.org/2000/svg" viewBox="0 0 900 240">
  <rect width="900" height="240" rx="16" fill="#f8fafc"/>
  <defs><marker id="a" markerWidth="8" markerHeight="8" refX="7" refY="4" orient="auto"><path d="M0 0L8 4L0 8Z" fill="#0ea5e9"/></marker></defs>
  <text x="450" y="30" text-anchor="middle" font-family="-apple-system, BlinkMacSystemFont, 'Segoe UI', Roboto, 'Apple SD Gothic Neo', 'Malgun Gothic', 'Nanum Gothic', 'Noto Sans KR', sans-serif" font-size="18" font-weight="700" fill="#0f172a">GPU 렌더링 파이프라인</text>
  <g font-family="-apple-system, BlinkMacSystemFont, 'Segoe UI', Roboto, 'Apple SD Gothic Neo', 'Malgun Gothic', 'Nanum Gothic', 'Noto Sans KR', sans-serif" text-anchor="middle" font-size="13">
    <g stroke="#0ea5e9" fill="#e0f2fe"><rect x="20" y="75" width="115" height="65" rx="10"/><rect x="165" y="75" width="105" height="65" rx="10"/><rect x="300" y="75" width="125" height="65" rx="10"/><rect x="455" y="75" width="115" height="65" rx="10"/><rect x="600" y="75" width="120" height="65" rx="10"/><rect x="750" y="75" width="130" height="65" rx="10"/></g>
    <g fill="#0f172a"><text x="77" y="104">Vertex</text><text x="77" y="122">Shader</text><text x="217" y="112">Clipping</text><text x="362" y="104">Perspective</text><text x="362" y="122">Divide</text><text x="512" y="112">Rasterize</text><text x="660" y="104">Fragment</text><text x="660" y="122">Shader</text><text x="815" y="104">Depth / Blend</text><text x="815" y="122">Framebuffer</text></g>
    <g stroke="#0ea5e9" stroke-width="3" marker-end="url(#a)"><path d="M136 108H160"/><path d="M271 108H295"/><path d="M426 108H450"/><path d="M571 108H595"/><path d="M721 108H745"/></g>
  </g>
  <text x="450" y="190" text-anchor="middle" font-family="-apple-system, BlinkMacSystemFont, 'Segoe UI', Roboto, 'Apple SD Gothic Neo', 'Malgun Gothic', 'Nanum Gothic', 'Noto Sans KR', sans-serif" font-size="13" fill="#475569">정점 단위 처리 → 삼각형 자르기 → 픽셀 후보 생성 → 픽셀 색과 가림 결정</text>
</svg>
