<?xml version="1.0" encoding="utf-8" standalone="no"?>
<!DOCTYPE svg PUBLIC "-//W3C//DTD SVG 1.1//EN"
  "http://www.w3.org/Graphics/SVG/1.1/DTD/svg11.dtd">
<svg xmlns:xlink="http://www.w3.org/1999/xlink" width="412.164pt" height="111.312pt" viewBox="0 0 412.164 111.312" xmlns="http://www.w3.org/2000/svg" version="1.1">
 <metadata>
  <rdf:RDF xmlns:dc="http://purl.org/dc/elements/1.1/" xmlns:cc="http://creativecommons.org/ns#" xmlns:rdf="http://www.w3.org/1999/02/22-rdf-syntax-ns#">
   <cc:Work>
    <dc:type rdf:resource="http://purl.org/dc/dcmitype/StillImage"/>
    <dc:date>2026-07-08T05:12:56.540909</dc:date>
    <dc:format>image/svg+xml</dc:format>
    <dc:creator>
     <cc:Agent>
      <dc:title>Matplotlib v3.10.8, https://matplotlib.org/</dc:title>
     </cc:Agent>
    </dc:creator>
   </cc:Work>
  </rdf:RDF>
 </metadata>
 <defs>
  <style type="text/css">*{stroke-linejoin: round; stroke-linecap: butt}</style>
 </defs>
 <g id="figure_1">
  <g id="patch_1">
   <path d="M 0 111.312 
L 412.164 111.312 
L 412.164 0 
L 0 0 
z
" style="fill: #ffffff"/>
  </g>
  <g id="axes_1">
   <g id="patch_2">
    <path d="M 5.76 105.552 
L 406.404 105.552 
L 406.404 5.76 
L 5.76 5.76 
z
" clip-path="url(#pf74f776578)" style="fill: #ffffff; stroke: #e5e7eb; stroke-linejoin: miter"/>
   </g>
   <g id="text_1">
    <!-- normalVelocity &lt; 0  → 서로 접근 중 -->
    <g style="fill: #111827" transform="translate(21.78576 26.337384) scale(0.11 -0.11)">
     <defs>
      <path id="NanumGothicCoding-6e" d="M 2797 -186 
Q 2797 -275 2707 -275 
L 2451 -275 
Q 2362 -275 2362 -186 
L 2362 1574 
Q 2362 2163 2202 2409 
Q 2042 2656 1658 2656 
Q 1318 2656 1088 2384 
Q 858 2112 858 1562 
L 858 -186 
Q 858 -275 768 -275 
L 512 -275 
Q 422 -275 422 -186 
L 422 2118 
Q 422 2394 419 2547 
Q 416 2701 403 2842 
Q 397 2886 425 2908 
Q 454 2931 493 2931 
L 723 2931 
Q 813 2931 813 2842 
L 813 2483 
Q 966 2758 1187 2889 
Q 1408 3021 1696 3021 
Q 2259 3021 2528 2669 
Q 2797 2317 2797 1677 
L 2797 -186 
z
" transform="scale(0.015625)"/>
      <path id="NanumGothicCoding-6f" d="M 2490 1331 
Q 2490 1581 2432 1824 
Q 2374 2067 2253 2266 
Q 2010 2650 1594 2650 
Q 1158 2650 934 2266 
Q 813 2067 758 1824 
Q 704 1581 704 1331 
Q 704 1056 755 813 
Q 806 570 934 397 
Q 1216 6 1594 6 
Q 2035 6 2253 397 
Q 2381 570 2435 813 
Q 2490 1056 2490 1331 
z
M 2931 1331 
Q 2931 979 2851 668 
Q 2771 358 2605 147 
Q 2413 -102 2163 -240 
Q 1914 -378 1594 -378 
Q 1274 -378 1024 -240 
Q 774 -102 582 147 
Q 429 378 349 678 
Q 269 979 269 1331 
Q 269 2054 582 2515 
Q 947 3034 1594 3034 
Q 1920 3034 2166 2909 
Q 2413 2784 2605 2515 
Q 2931 2048 2931 1331 
z
" transform="scale(0.015625)"/>
      <path id="NanumGothicCoding-72" d="M 1946 122 
Q 2035 122 2035 32 
L 2035 -186 
Q 2035 -275 1946 -275 
L 506 -275 
Q 416 -275 416 -186 
L 416 32 
Q 416 122 506 122 
L 883 122 
L 883 2534 
L 390 2534 
Q 301 2534 301 2624 
L 301 2842 
Q 301 2931 390 2931 
L 1165 2931 
Q 1254 2931 1254 2842 
L 1254 2214 
Q 1645 3021 2381 3021 
Q 2758 3021 3059 2874 
Q 3123 2848 3129 2809 
Q 3136 2771 3117 2726 
L 3040 2496 
Q 3021 2451 2992 2454 
Q 2963 2458 2918 2483 
Q 2637 2618 2317 2618 
Q 1792 2592 1485 2048 
Q 1312 1715 1312 1178 
L 1312 122 
L 1946 122 
z
" transform="scale(0.015625)"/>
      <path id="NanumGothicCoding-6d" d="M 269 2118 
Q 269 2387 262 2544 
Q 256 2701 243 2842 
Q 243 2931 333 2931 
L 570 2931 
Q 659 2931 659 2842 
L 653 2566 
Q 698 2771 832 2889 
Q 966 3008 1101 3008 
Q 1338 3008 1482 2816 
Q 1626 2624 1664 2362 
Q 1683 2573 1804 2777 
Q 1926 2982 2202 3008 
Q 2445 3008 2585 2921 
Q 2726 2835 2809 2675 
Q 2893 2515 2925 2304 
Q 2957 2093 2957 1856 
L 2957 -186 
Q 2957 -275 2867 -275 
L 2624 -275 
Q 2534 -275 2534 -192 
L 2534 1766 
Q 2534 2611 2195 2611 
Q 2067 2611 1990 2508 
Q 1914 2406 1878 2252 
Q 1843 2099 1827 1868 
Q 1811 1638 1818 1382 
L 1818 -186 
Q 1818 -275 1728 -275 
L 1498 -275 
Q 1408 -275 1408 -186 
L 1408 1766 
Q 1389 2611 1050 2611 
Q 870 2611 777 2355 
Q 685 2099 691 1619 
L 691 -186 
Q 691 -275 602 -275 
L 358 -275 
Q 269 -275 269 -186 
L 269 2118 
z
" transform="scale(0.015625)"/>
      <path id="NanumGothicCoding-61" d="M 2368 1402 
L 2246 1402 
Q 1888 1414 1645 1376 
Q 1402 1338 1229 1254 
Q 1018 1165 902 976 
Q 787 787 787 589 
Q 787 474 838 342 
Q 890 211 998 141 
Q 1184 -13 1414 -13 
Q 1638 -13 1785 73 
Q 1933 160 2073 342 
Q 2214 525 2291 755 
Q 2368 986 2368 1203 
L 2368 1402 
z
M 723 2400 
Q 691 2381 662 2390 
Q 634 2400 634 2432 
L 634 2682 
Q 634 2765 723 2803 
Q 941 2931 1168 2982 
Q 1395 3034 1658 3034 
Q 2214 3046 2508 2713 
Q 2803 2381 2803 1888 
L 2803 397 
Q 2803 218 2809 77 
Q 2816 -64 2829 -192 
Q 2829 -275 2739 -275 
L 2509 -275 
Q 2419 -275 2419 -192 
L 2419 262 
Q 2285 -38 2009 -208 
Q 1734 -378 1363 -378 
Q 813 -378 512 -19 
Q 410 96 358 256 
Q 307 416 307 570 
Q 307 902 489 1180 
Q 672 1459 1050 1600 
Q 1414 1766 2285 1766 
L 2368 1766 
L 2368 1914 
Q 2368 2240 2185 2454 
Q 2003 2669 1658 2669 
Q 1382 2669 1168 2608 
Q 954 2547 723 2400 
z
" transform="scale(0.015625)"/>
      <path id="NanumGothicCoding-6c" d="M 2605 122 
Q 2694 122 2694 32 
L 2694 -186 
Q 2694 -275 2605 -275 
L 531 -275 
Q 442 -275 442 -186 
L 442 32 
Q 442 122 531 122 
L 1389 122 
L 1389 4032 
L 710 4032 
Q 621 4032 621 4122 
L 621 4339 
Q 621 4429 710 4429 
L 1760 4429 
Q 1850 4429 1850 4339 
L 1850 122 
L 2605 122 
z
" transform="scale(0.015625)"/>
      <path id="NanumGothicCoding-56" d="M 2502 4000 
Q 2515 4038 2547 4064 
Q 2579 4090 2618 4090 
L 2912 4090 
Q 2950 4090 2969 4061 
Q 2989 4032 2976 4000 
L 1869 -192 
Q 1850 -243 1827 -259 
Q 1805 -275 1754 -275 
L 1402 -275 
Q 1350 -275 1328 -259 
Q 1306 -243 1286 -192 
L 218 4000 
Q 205 4032 224 4061 
Q 243 4090 282 4090 
L 576 4090 
Q 653 4090 691 4000 
L 1504 678 
Q 1517 608 1529 553 
Q 1542 499 1555 448 
Q 1568 390 1581 333 
Q 1594 390 1606 448 
Q 1619 499 1632 553 
Q 1645 608 1664 678 
L 2502 4000 
z
" transform="scale(0.015625)"/>
      <path id="NanumGothicCoding-65" d="M 2458 1536 
Q 2458 1734 2410 1939 
Q 2362 2144 2266 2298 
Q 2042 2669 1626 2669 
Q 1210 2669 973 2291 
Q 864 2106 806 1907 
Q 749 1709 742 1536 
L 2458 1536 
z
M 736 1171 
Q 730 966 810 726 
Q 890 486 1030 336 
Q 1171 186 1350 96 
Q 1530 6 1786 6 
Q 2010 6 2202 51 
Q 2394 96 2586 198 
Q 2662 230 2669 154 
L 2669 -141 
Q 2669 -192 2598 -224 
Q 2400 -301 2211 -339 
Q 2022 -378 1754 -378 
Q 1069 -378 665 80 
Q 262 538 262 1312 
Q 262 2016 659 2541 
Q 1075 3034 1632 3034 
Q 1978 3034 2205 2912 
Q 2432 2790 2611 2541 
Q 2931 2112 2931 1376 
Q 2931 1299 2928 1257 
Q 2925 1216 2905 1197 
Q 2886 1178 2838 1174 
Q 2790 1171 2701 1171 
L 736 1171 
z
" transform="scale(0.015625)"/>
      <path id="NanumGothicCoding-63" d="M 2624 -288 
Q 2451 -333 2310 -349 
Q 2170 -365 1952 -365 
Q 1581 -365 1289 -233 
Q 998 -102 780 128 
Q 563 358 454 668 
Q 346 979 346 1338 
Q 346 1702 461 2009 
Q 576 2317 787 2541 
Q 998 2765 1289 2896 
Q 1581 3027 1952 3027 
Q 2150 3027 2297 3011 
Q 2445 2995 2630 2950 
Q 2714 2931 2707 2842 
L 2688 2624 
Q 2675 2547 2598 2566 
Q 2445 2618 2307 2640 
Q 2170 2662 2010 2662 
Q 1741 2662 1507 2556 
Q 1274 2451 1126 2272 
Q 979 2093 899 1853 
Q 819 1613 819 1338 
Q 819 1088 902 848 
Q 986 608 1130 419 
Q 1274 230 1507 115 
Q 1741 0 2010 0 
Q 2170 0 2298 19 
Q 2426 38 2592 96 
Q 2662 115 2688 51 
L 2707 -179 
Q 2714 -269 2624 -288 
z
" transform="scale(0.015625)"/>
      <path id="NanumGothicCoding-69" d="M 2656 122 
Q 2746 122 2746 32 
L 2746 -186 
Q 2746 -275 2656 -275 
L 614 -275 
Q 525 -275 525 -186 
L 525 32 
Q 525 122 614 122 
L 1434 122 
L 1434 2534 
L 685 2534 
Q 595 2534 595 2624 
L 595 2842 
Q 595 2931 685 2931 
L 1805 2931 
Q 1894 2931 1894 2842 
L 1894 122 
L 2656 122 
z
M 1235 3968 
Q 1235 4115 1340 4220 
Q 1446 4326 1594 4326 
Q 1741 4326 1846 4220 
Q 1952 4115 1952 3968 
Q 1952 3821 1846 3715 
Q 1741 3610 1594 3610 
Q 1446 3610 1340 3715 
Q 1235 3821 1235 3968 
z
" transform="scale(0.015625)"/>
      <path id="NanumGothicCoding-74" d="M 2733 -269 
Q 2464 -378 2106 -378 
Q 1523 -378 1357 -38 
Q 1248 192 1248 774 
L 1248 2413 
L 416 2413 
Q 326 2413 326 2502 
L 326 2694 
Q 326 2784 416 2784 
L 1248 2784 
L 1248 3686 
Q 1248 3782 1331 3782 
L 1600 3782 
Q 1683 3782 1683 3686 
L 1683 2784 
L 2714 2784 
Q 2803 2784 2803 2694 
L 2803 2502 
Q 2803 2413 2714 2413 
L 1683 2413 
L 1683 486 
Q 1683 6 2208 6 
Q 2470 6 2707 115 
Q 2739 128 2768 115 
Q 2797 102 2797 64 
L 2810 -141 
Q 2822 -230 2733 -269 
z
" transform="scale(0.015625)"/>
      <path id="NanumGothicCoding-79" d="M 365 -1222 
Q 288 -1203 301 -1126 
L 320 -890 
Q 320 -813 397 -845 
Q 506 -883 634 -883 
Q 768 -883 880 -851 
Q 992 -819 1050 -749 
Q 1120 -659 1206 -454 
Q 1293 -250 1376 13 
Q 1088 794 326 2842 
Q 314 2874 326 2902 
Q 339 2931 378 2931 
L 653 2931 
Q 742 2931 781 2842 
L 1587 589 
L 2419 2842 
Q 2451 2931 2547 2931 
L 2822 2931 
Q 2861 2931 2873 2902 
Q 2886 2874 2874 2842 
L 1606 -474 
Q 1536 -659 1449 -806 
Q 1363 -954 1274 -1043 
Q 1158 -1152 1017 -1206 
Q 877 -1261 723 -1261 
Q 627 -1261 547 -1254 
Q 467 -1248 365 -1222 
z
" transform="scale(0.015625)"/>
      <path id="NanumGothicCoding-20" transform="scale(0.015625)"/>
      <path id="NanumGothicCoding-3c" d="M 2944 -838 
Q 2944 -960 2931 -966 
Q 2918 -973 2835 -890 
L 365 1594 
Q 326 1632 304 1657 
Q 282 1683 272 1705 
Q 262 1728 259 1760 
Q 256 1792 256 1843 
L 256 2010 
Q 256 2061 259 2093 
Q 262 2125 272 2147 
Q 282 2170 304 2195 
Q 326 2221 365 2259 
L 2810 4742 
Q 2912 4845 2928 4838 
Q 2944 4832 2944 4685 
L 2944 4442 
Q 2944 4378 2941 4339 
Q 2938 4301 2928 4275 
Q 2918 4250 2896 4224 
Q 2874 4198 2829 4154 
L 730 2022 
Q 659 1952 656 1929 
Q 653 1907 717 1843 
Q 966 1594 1235 1322 
Q 1504 1050 1779 771 
Q 2054 493 2326 217 
Q 2598 -58 2848 -307 
Q 2918 -384 2931 -416 
Q 2944 -448 2944 -563 
L 2944 -838 
z
" transform="scale(0.015625)"/>
      <path id="NanumGothicCoding-30" d="M 1747 1242 
L 1453 1242 
Q 1376 1242 1376 1331 
L 1376 2355 
Q 1376 2445 1453 2445 
L 1747 2445 
Q 1824 2445 1824 2355 
L 1824 1331 
Q 1824 1242 1747 1242 
z
M 2470 1907 
Q 2483 3731 1600 3731 
Q 717 3731 730 1907 
Q 717 77 1600 77 
Q 2483 77 2470 1907 
z
M 2906 1907 
Q 2906 -326 1606 -326 
Q 294 -326 294 1907 
Q 294 2726 544 3354 
Q 909 4141 1606 4141 
Q 2285 4141 2662 3354 
Q 2790 3040 2848 2637 
Q 2906 2234 2906 1907 
z
" transform="scale(0.015625)"/>
      <path id="NanumGothicCoding-2192" d="M 6080 1920 
L 4922 877 
L 5389 1843 
L 320 1843 
L 320 1997 
L 5389 1997 
L 4922 2963 
L 6080 1920 
z
" transform="scale(0.015625)"/>
      <path id="NanumGothicCoding-c11c" d="M 5344 -806 
Q 5344 -896 5254 -896 
L 4992 -896 
Q 4902 -896 4902 -806 
L 4902 2534 
L 3501 2534 
Q 3418 2534 3418 2611 
L 3418 2842 
Q 3418 2918 3501 2918 
L 4902 2918 
L 4902 4915 
Q 4902 5005 4992 5005 
L 5254 5005 
Q 5344 5005 5344 4915 
L 5344 -806 
z
M 2515 4589 
Q 2515 4166 2480 3779 
Q 2445 3392 2368 3034 
Q 2432 2778 2566 2493 
Q 2701 2208 2883 1926 
Q 3066 1645 3293 1379 
Q 3520 1114 3776 902 
Q 3808 877 3811 838 
Q 3814 800 3795 774 
L 3635 576 
Q 3578 506 3501 576 
Q 3322 730 3133 944 
Q 2944 1158 2768 1395 
Q 2592 1632 2438 1881 
Q 2285 2131 2176 2362 
Q 1971 1779 1638 1289 
Q 1306 800 845 378 
Q 781 326 736 371 
L 544 570 
Q 525 589 528 621 
Q 531 653 563 685 
Q 954 1056 1242 1465 
Q 1530 1875 1712 2348 
Q 1894 2822 1980 3379 
Q 2067 3936 2067 4602 
Q 2067 4646 2089 4668 
Q 2112 4691 2144 4691 
L 2445 4678 
Q 2515 4678 2515 4589 
z
" transform="scale(0.015625)"/>
      <path id="NanumGothicCoding-b85c" d="M 2963 499 
L 2963 1613 
L 1683 1613 
Q 1382 1613 1289 1725 
Q 1197 1837 1197 2106 
L 1197 2906 
Q 1197 3181 1309 3270 
Q 1421 3360 1709 3360 
L 4595 3360 
Q 4685 3360 4707 3385 
Q 4730 3411 4730 3507 
L 4730 4173 
Q 4730 4269 4707 4294 
Q 4685 4320 4595 4320 
L 1286 4320 
Q 1254 4320 1225 4339 
Q 1197 4358 1197 4390 
L 1197 4634 
Q 1197 4666 1225 4685 
Q 1254 4704 1286 4704 
L 4666 4704 
Q 4819 4704 4915 4681 
Q 5011 4659 5068 4608 
Q 5126 4557 5148 4464 
Q 5171 4371 5171 4237 
L 5171 3437 
Q 5171 3162 5059 3072 
Q 4947 2982 4659 2982 
L 1773 2982 
Q 1683 2982 1660 2956 
Q 1638 2931 1638 2835 
L 1638 2144 
Q 1638 2054 1664 2025 
Q 1690 1997 1779 1997 
L 5216 1997 
Q 5248 1997 5277 1977 
Q 5306 1958 5306 1926 
L 5306 1690 
Q 5306 1658 5277 1635 
Q 5248 1613 5222 1613 
L 3405 1613 
L 3405 499 
L 5920 499 
Q 5952 499 5984 476 
Q 6016 454 6016 416 
L 6016 198 
Q 6016 166 5984 140 
Q 5952 115 5920 115 
L 480 115 
Q 442 115 413 140 
Q 384 166 384 198 
L 384 416 
Q 384 454 413 476 
Q 442 499 480 499 
L 2963 499 
z
" transform="scale(0.015625)"/>
      <path id="NanumGothicCoding-c811" d="M 2163 -845 
Q 2010 -845 1917 -825 
Q 1824 -806 1773 -752 
Q 1722 -698 1702 -611 
Q 1683 -525 1683 -390 
L 1683 1446 
Q 1683 1478 1708 1497 
Q 1734 1517 1766 1517 
L 2048 1517 
Q 2080 1517 2102 1494 
Q 2125 1472 2125 1446 
L 2125 768 
L 4902 768 
L 4902 1434 
Q 4902 1466 4924 1491 
Q 4947 1517 4979 1517 
L 5261 1517 
Q 5293 1517 5318 1494 
Q 5344 1472 5344 1440 
L 5344 -435 
Q 5344 -678 5241 -761 
Q 5139 -845 4858 -845 
L 2163 -845 
z
M 3501 4250 
Q 3322 3757 2886 3270 
Q 3130 3021 3453 2806 
Q 3776 2592 4122 2464 
Q 4160 2451 4157 2416 
Q 4154 2381 4141 2349 
L 4013 2125 
Q 3994 2093 3968 2080 
Q 3942 2067 3885 2099 
Q 3533 2259 3197 2483 
Q 2861 2707 2598 2970 
Q 2246 2637 1811 2345 
Q 1376 2054 896 1843 
Q 864 1830 832 1824 
Q 800 1818 781 1850 
L 653 2074 
Q 634 2106 650 2141 
Q 666 2176 698 2189 
Q 1587 2611 2147 3107 
Q 2707 3603 3014 4224 
Q 3059 4314 3027 4352 
Q 2995 4390 2906 4390 
L 1030 4390 
Q 954 4390 954 4474 
L 954 4698 
Q 954 4774 1043 4774 
L 3078 4774 
Q 3411 4774 3507 4656 
Q 3603 4538 3501 4250 
z
M 2125 384 
L 2125 -307 
Q 2125 -403 2157 -432 
Q 2189 -461 2278 -461 
L 4749 -461 
Q 4838 -461 4870 -432 
Q 4902 -403 4902 -307 
L 4902 384 
L 2125 384 
z
M 4902 3686 
L 4902 4915 
Q 4902 5005 4992 5005 
L 5254 5005 
Q 5344 5005 5344 4915 
L 5344 1939 
Q 5344 1850 5254 1850 
L 4992 1850 
Q 4902 1850 4902 1939 
L 4902 3302 
L 3718 3302 
Q 3635 3302 3635 3379 
L 3635 3610 
Q 3635 3686 3718 3686 
L 4902 3686 
z
" transform="scale(0.015625)"/>
      <path id="NanumGothicCoding-adfc" d="M 4698 4218 
Q 4691 4314 4662 4349 
Q 4634 4384 4544 4384 
L 1331 4384 
Q 1248 4384 1248 4467 
L 1248 4685 
Q 1248 4768 1331 4768 
L 4640 4768 
Q 4941 4768 5037 4662 
Q 5133 4557 5133 4282 
Q 5133 4115 5117 3846 
Q 5101 3578 5072 3283 
Q 5043 2989 5004 2707 
Q 4966 2426 4928 2234 
L 5920 2234 
Q 5952 2234 5984 2211 
Q 6016 2189 6016 2150 
L 6016 1933 
Q 6016 1901 5984 1875 
Q 5952 1850 5920 1850 
L 480 1850 
Q 442 1850 413 1875 
Q 384 1901 384 1933 
L 384 2150 
Q 384 2189 413 2211 
Q 442 2234 480 2234 
L 4518 2234 
Q 4563 2451 4598 2726 
Q 4634 3002 4659 3280 
Q 4685 3558 4694 3808 
Q 4704 4058 4698 4218 
z
M 5299 -704 
Q 5299 -742 5267 -761 
Q 5235 -781 5203 -781 
L 1734 -781 
Q 1434 -781 1341 -656 
Q 1248 -531 1248 -269 
L 1248 1101 
Q 1248 1190 1338 1190 
L 1594 1190 
Q 1683 1190 1683 1101 
L 1683 -262 
Q 1683 -352 1712 -374 
Q 1741 -397 1830 -397 
L 5203 -397 
Q 5235 -397 5267 -419 
Q 5299 -442 5299 -474 
L 5299 -704 
z
" transform="scale(0.015625)"/>
      <path id="NanumGothicCoding-c911" d="M 5920 2310 
Q 5952 2310 5984 2288 
Q 6016 2266 6016 2227 
L 6016 2010 
Q 6016 1978 5984 1952 
Q 5952 1926 5920 1926 
L 3411 1926 
L 3411 1146 
Q 3699 1133 4009 1078 
Q 4320 1024 4582 905 
Q 4845 787 5014 595 
Q 5184 403 5184 109 
Q 5184 -218 4979 -422 
Q 4774 -627 4473 -742 
Q 4173 -858 3824 -899 
Q 3475 -941 3187 -941 
Q 2995 -941 2774 -921 
Q 2554 -902 2333 -860 
Q 2112 -819 1907 -742 
Q 1702 -666 1545 -547 
Q 1389 -429 1293 -269 
Q 1197 -109 1197 109 
Q 1197 397 1366 592 
Q 1536 787 1798 905 
Q 2061 1024 2374 1078 
Q 2688 1133 2970 1146 
L 2970 1926 
L 480 1926 
Q 442 1926 413 1952 
Q 384 1978 384 2010 
L 384 2227 
Q 384 2266 413 2288 
Q 442 2310 480 2310 
L 5920 2310 
z
M 4685 4218 
Q 4352 3904 3782 3610 
Q 3962 3558 4182 3500 
Q 4403 3443 4633 3385 
Q 4864 3328 5094 3277 
Q 5325 3226 5523 3187 
Q 5606 3168 5581 3098 
L 5491 2886 
Q 5459 2816 5376 2835 
Q 5158 2874 4889 2938 
Q 4621 3002 4342 3075 
Q 4064 3149 3792 3225 
Q 3520 3302 3290 3379 
Q 2784 3168 2205 3005 
Q 1626 2842 1024 2739 
Q 966 2726 944 2748 
Q 922 2771 909 2810 
L 851 3002 
Q 826 3098 902 3104 
Q 1344 3174 1830 3308 
Q 2317 3443 2768 3609 
Q 3219 3776 3596 3958 
Q 3974 4141 4198 4307 
Q 4301 4384 4278 4429 
Q 4256 4474 4166 4474 
L 1402 4474 
Q 1318 4474 1318 4557 
L 1318 4781 
Q 1318 4858 1402 4858 
L 4326 4858 
Q 4819 4858 4908 4688 
Q 4998 4518 4685 4218 
z
M 4717 102 
Q 4717 314 4544 438 
Q 4371 563 4128 633 
Q 3885 704 3625 726 
Q 3366 749 3187 749 
Q 3002 749 2742 726 
Q 2483 704 2243 633 
Q 2003 563 1833 438 
Q 1664 314 1664 102 
Q 1664 -102 1833 -230 
Q 2003 -358 2243 -425 
Q 2483 -493 2742 -515 
Q 3002 -538 3187 -538 
Q 3366 -538 3628 -515 
Q 3891 -493 4131 -425 
Q 4371 -358 4544 -230 
Q 4717 -102 4717 102 
z
" transform="scale(0.015625)"/>
     </defs>
     <use xlink:href="#NanumGothicCoding-6e"/>
     <use xlink:href="#NanumGothicCoding-6f" transform="translate(49.999985 0)"/>
     <use xlink:href="#NanumGothicCoding-72" transform="translate(99.999969 0)"/>
     <use xlink:href="#NanumGothicCoding-6d" transform="translate(149.999954 0)"/>
     <use xlink:href="#NanumGothicCoding-61" transform="translate(199.999939 0)"/>
     <use xlink:href="#NanumGothicCoding-6c" transform="translate(249.999924 0)"/>
     <use xlink:href="#NanumGothicCoding-56" transform="translate(299.999908 0)"/>
     <use xlink:href="#NanumGothicCoding-65" transform="translate(349.999893 0)"/>
     <use xlink:href="#NanumGothicCoding-6c" transform="translate(399.999878 0)"/>
     <use xlink:href="#NanumGothicCoding-6f" transform="translate(449.999863 0)"/>
     <use xlink:href="#NanumGothicCoding-63" transform="translate(499.999847 0)"/>
     <use xlink:href="#NanumGothicCoding-69" transform="translate(549.999832 0)"/>
     <use xlink:href="#NanumGothicCoding-74" transform="translate(599.999817 0)"/>
     <use xlink:href="#NanumGothicCoding-79" transform="translate(649.999802 0)"/>
     <use xlink:href="#NanumGothicCoding-20" transform="translate(699.999786 0)"/>
     <use xlink:href="#NanumGothicCoding-3c" transform="translate(749.999771 0)"/>
     <use xlink:href="#NanumGothicCoding-20" transform="translate(799.999756 0)"/>
     <use xlink:href="#NanumGothicCoding-30" transform="translate(849.999741 0)"/>
     <use xlink:href="#NanumGothicCoding-20" transform="translate(899.999725 0)"/>
     <use xlink:href="#NanumGothicCoding-20" transform="translate(949.99971 0)"/>
     <use xlink:href="#NanumGothicCoding-2192" transform="translate(999.999695 0)"/>
     <use xlink:href="#NanumGothicCoding-20" transform="translate(1099.99968 0)"/>
     <use xlink:href="#NanumGothicCoding-c11c" transform="translate(1149.999664 0)"/>
     <use xlink:href="#NanumGothicCoding-b85c" transform="translate(1249.999649 0)"/>
     <use xlink:href="#NanumGothicCoding-20" transform="translate(1349.999634 0)"/>
     <use xlink:href="#NanumGothicCoding-c811" transform="translate(1399.999619 0)"/>
     <use xlink:href="#NanumGothicCoding-adfc" transform="translate(1499.999603 0)"/>
     <use xlink:href="#NanumGothicCoding-20" transform="translate(1599.999588 0)"/>
     <use xlink:href="#NanumGothicCoding-c911" transform="translate(1649.999573 0)"/>
    </g>
   </g>
   <g id="text_2">
    <!-- normalVelocity &gt; 0  → 이미 멀어지는 중 -->
    <g style="fill: #111827" transform="translate(21.78576 37.314504) scale(0.11 -0.11)">
     <defs>
      <path id="NanumGothicCoding-3e" d="M 250 -576 
Q 250 -518 250 -486 
Q 250 -454 259 -428 
Q 269 -403 291 -377 
Q 314 -352 352 -314 
Q 602 -64 874 211 
Q 1146 486 1421 764 
Q 1696 1043 1968 1318 
Q 2240 1594 2490 1843 
Q 2547 1907 2547 1929 
Q 2547 1952 2477 2022 
L 365 4160 
Q 320 4205 297 4230 
Q 275 4256 265 4281 
Q 256 4307 253 4345 
Q 250 4384 250 4448 
L 250 4698 
Q 250 4845 266 4851 
Q 282 4858 378 4755 
L 2842 2259 
Q 2880 2221 2902 2195 
Q 2925 2170 2934 2147 
Q 2944 2125 2947 2093 
Q 2950 2061 2950 2010 
L 2950 1843 
Q 2950 1792 2947 1760 
Q 2944 1728 2934 1705 
Q 2925 1683 2902 1657 
Q 2880 1632 2842 1594 
L 358 -902 
Q 275 -986 262 -979 
Q 250 -973 250 -851 
L 250 -576 
z
" transform="scale(0.015625)"/>
      <path id="NanumGothicCoding-c774" d="M 3846 2566 
Q 3846 2208 3760 1843 
Q 3674 1478 3488 1184 
Q 3302 890 3011 701 
Q 2720 512 2310 512 
Q 1888 512 1597 697 
Q 1306 883 1130 1180 
Q 954 1478 877 1843 
Q 800 2208 800 2566 
Q 800 2944 877 3312 
Q 954 3680 1130 3974 
Q 1306 4269 1597 4448 
Q 1888 4627 2310 4627 
Q 2720 4627 3011 4448 
Q 3302 4269 3488 3977 
Q 3674 3686 3760 3318 
Q 3846 2950 3846 2566 
z
M 3392 2573 
Q 3392 2867 3331 3168 
Q 3270 3469 3142 3709 
Q 3014 3949 2809 4099 
Q 2605 4250 2310 4250 
Q 2003 4250 1801 4099 
Q 1600 3949 1478 3709 
Q 1357 3469 1305 3168 
Q 1254 2867 1254 2573 
Q 1254 2291 1302 1993 
Q 1350 1696 1472 1449 
Q 1594 1203 1798 1046 
Q 2003 890 2310 890 
Q 2605 890 2809 1046 
Q 3014 1203 3142 1449 
Q 3270 1696 3331 1993 
Q 3392 2291 3392 2573 
z
M 5344 -806 
Q 5344 -896 5254 -896 
L 4992 -896 
Q 4902 -896 4902 -806 
L 4902 4915 
Q 4902 5005 4992 5005 
L 5254 5005 
Q 5344 5005 5344 4915 
L 5344 -806 
z
" transform="scale(0.015625)"/>
      <path id="NanumGothicCoding-bbf8" d="M 5344 -806 
Q 5344 -896 5254 -896 
L 4992 -896 
Q 4902 -896 4902 -806 
L 4902 4915 
Q 4902 5005 4992 5005 
L 5254 5005 
Q 5344 5005 5344 4915 
L 5344 -806 
z
M 896 4070 
Q 896 4339 998 4432 
Q 1101 4525 1382 4525 
L 3264 4525 
Q 3418 4525 3510 4505 
Q 3603 4486 3657 4435 
Q 3712 4384 3731 4294 
Q 3750 4205 3750 4070 
L 3750 1235 
Q 3750 966 3648 873 
Q 3546 781 3264 781 
L 1382 781 
Q 1229 781 1136 800 
Q 1043 819 988 873 
Q 934 928 915 1014 
Q 896 1101 896 1235 
L 896 4070 
z
M 1491 4141 
Q 1402 4141 1370 4105 
Q 1338 4070 1338 3974 
L 1338 1331 
Q 1338 1235 1370 1200 
Q 1402 1165 1491 1165 
L 3155 1165 
Q 3245 1165 3277 1200 
Q 3309 1235 3309 1331 
L 3309 3974 
Q 3309 4070 3277 4105 
Q 3245 4141 3155 4141 
L 1491 4141 
z
" transform="scale(0.015625)"/>
      <path id="NanumGothicCoding-ba40" d="M 902 4326 
Q 902 4595 1004 4688 
Q 1107 4781 1389 4781 
L 3149 4781 
Q 3302 4781 3395 4761 
Q 3488 4742 3542 4691 
Q 3597 4640 3616 4550 
Q 3635 4461 3635 4326 
L 3635 3642 
L 4902 3642 
L 4902 4915 
Q 4902 5005 4992 5005 
L 5254 5005 
Q 5344 5005 5344 4915 
L 5344 1965 
Q 5344 1875 5254 1875 
L 4992 1875 
Q 4902 1875 4902 1965 
L 4902 3258 
L 3635 3258 
L 3635 2566 
Q 3635 2298 3532 2205 
Q 3430 2112 3149 2112 
L 1389 2112 
Q 1235 2112 1142 2131 
Q 1050 2150 995 2204 
Q 941 2259 921 2345 
Q 902 2432 902 2566 
L 902 4326 
z
M 5478 -838 
Q 5478 -870 5449 -892 
Q 5421 -915 5395 -915 
L 2170 -915 
Q 1869 -915 1776 -803 
Q 1683 -691 1683 -422 
L 1683 58 
Q 1683 326 1795 419 
Q 1907 512 2195 512 
L 4762 512 
Q 4851 512 4876 537 
Q 4902 563 4902 659 
L 4902 1024 
Q 4902 1120 4880 1145 
Q 4858 1171 4768 1171 
L 1760 1171 
Q 1728 1171 1699 1190 
Q 1670 1210 1670 1242 
L 1670 1472 
Q 1670 1504 1699 1523 
Q 1728 1542 1760 1542 
L 4838 1542 
Q 4992 1542 5088 1520 
Q 5184 1498 5241 1446 
Q 5299 1395 5321 1302 
Q 5344 1210 5344 1075 
L 5344 595 
Q 5344 326 5232 233 
Q 5120 141 4832 141 
L 2266 141 
Q 2176 141 2153 115 
Q 2131 90 2131 -6 
L 2131 -397 
Q 2131 -486 2156 -515 
Q 2182 -544 2272 -544 
L 5389 -544 
Q 5421 -544 5449 -563 
Q 5478 -582 5478 -614 
L 5478 -838 
z
M 1498 4397 
Q 1408 4397 1376 4361 
Q 1344 4326 1344 4230 
L 1344 2662 
Q 1344 2566 1376 2531 
Q 1408 2496 1498 2496 
L 3040 2496 
Q 3130 2496 3162 2531 
Q 3194 2566 3194 2662 
L 3194 4230 
Q 3194 4326 3162 4361 
Q 3130 4397 3040 4397 
L 1498 4397 
z
" transform="scale(0.015625)"/>
      <path id="NanumGothicCoding-c5b4" d="M 5344 -806 
Q 5344 -896 5254 -896 
L 4992 -896 
Q 4902 -896 4902 -806 
L 4902 2381 
L 3757 2381 
Q 3738 2042 3638 1709 
Q 3539 1376 3353 1110 
Q 3168 845 2889 678 
Q 2611 512 2227 512 
Q 1805 512 1513 697 
Q 1222 883 1046 1180 
Q 870 1478 793 1843 
Q 717 2208 717 2566 
Q 717 2944 793 3312 
Q 870 3680 1046 3974 
Q 1222 4269 1513 4448 
Q 1805 4627 2227 4627 
Q 2611 4627 2889 4470 
Q 3168 4314 3353 4051 
Q 3539 3789 3638 3453 
Q 3738 3117 3757 2765 
L 4902 2765 
L 4902 4915 
Q 4902 5005 4992 5005 
L 5254 5005 
Q 5344 5005 5344 4915 
L 5344 -806 
z
M 3309 2573 
Q 3309 2861 3248 3155 
Q 3187 3450 3059 3686 
Q 2931 3923 2726 4070 
Q 2522 4218 2227 4218 
Q 1920 4218 1718 4070 
Q 1517 3923 1395 3686 
Q 1274 3450 1222 3155 
Q 1171 2861 1171 2573 
Q 1171 2298 1219 2003 
Q 1267 1709 1388 1469 
Q 1510 1229 1715 1075 
Q 1920 922 2227 922 
Q 2522 922 2726 1075 
Q 2931 1229 3059 1469 
Q 3187 1709 3248 2003 
Q 3309 2298 3309 2573 
z
" transform="scale(0.015625)"/>
      <path id="NanumGothicCoding-c9c0" d="M 4019 858 
Q 4000 826 3971 819 
Q 3942 813 3891 851 
Q 3738 966 3565 1116 
Q 3392 1267 3225 1436 
Q 3059 1606 2899 1788 
Q 2739 1971 2605 2150 
Q 2285 1747 1875 1379 
Q 1466 1011 941 646 
Q 909 627 877 617 
Q 845 608 826 634 
L 672 832 
Q 646 864 652 899 
Q 659 934 685 954 
Q 1709 1677 2281 2419 
Q 2854 3162 3078 3968 
Q 3104 4058 3081 4099 
Q 3059 4141 2970 4141 
L 1030 4141 
Q 954 4141 954 4224 
L 954 4448 
Q 954 4525 1043 4525 
L 3142 4525 
Q 3475 4525 3564 4409 
Q 3654 4294 3565 4000 
Q 3315 3181 2861 2496 
Q 3008 2291 3174 2092 
Q 3341 1894 3507 1718 
Q 3674 1542 3840 1398 
Q 4006 1254 4154 1158 
Q 4186 1133 4186 1101 
Q 4186 1069 4166 1043 
L 4019 858 
z
M 5344 -806 
Q 5344 -896 5254 -896 
L 4992 -896 
Q 4902 -896 4902 -806 
L 4902 4915 
Q 4902 5005 4992 5005 
L 5254 5005 
Q 5344 5005 5344 4915 
L 5344 -806 
z
" transform="scale(0.015625)"/>
      <path id="NanumGothicCoding-b294" d="M 5229 2893 
Q 5229 2854 5197 2835 
Q 5165 2816 5133 2816 
L 1811 2816 
Q 1510 2816 1417 2941 
Q 1325 3066 1325 3328 
L 1325 4806 
Q 1325 4896 1414 4896 
L 1677 4896 
Q 1766 4896 1766 4806 
L 1766 3341 
Q 1766 3251 1795 3225 
Q 1824 3200 1914 3200 
L 5133 3200 
Q 5165 3200 5197 3177 
Q 5229 3155 5229 3123 
L 5229 2893 
z
M 5325 -704 
Q 5325 -742 5293 -761 
Q 5261 -781 5229 -781 
L 1754 -781 
Q 1453 -781 1360 -656 
Q 1267 -531 1267 -269 
L 1267 979 
Q 1267 1069 1357 1069 
L 1619 1069 
Q 1709 1069 1709 979 
L 1709 -262 
Q 1709 -352 1737 -374 
Q 1766 -397 1856 -397 
L 5229 -397 
Q 5261 -397 5293 -419 
Q 5325 -442 5325 -474 
L 5325 -704 
z
M 5920 1958 
Q 5952 1958 5984 1936 
Q 6016 1914 6016 1875 
L 6016 1658 
Q 6016 1626 5984 1600 
Q 5952 1574 5920 1574 
L 480 1574 
Q 442 1574 413 1600 
Q 384 1626 384 1658 
L 384 1875 
Q 384 1914 413 1936 
Q 442 1958 480 1958 
L 5920 1958 
z
" transform="scale(0.015625)"/>
     </defs>
     <use xlink:href="#NanumGothicCoding-6e"/>
     <use xlink:href="#NanumGothicCoding-6f" transform="translate(49.999985 0)"/>
     <use xlink:href="#NanumGothicCoding-72" transform="translate(99.999969 0)"/>
     <use xlink:href="#NanumGothicCoding-6d" transform="translate(149.999954 0)"/>
     <use xlink:href="#NanumGothicCoding-61" transform="translate(199.999939 0)"/>
     <use xlink:href="#NanumGothicCoding-6c" transform="translate(249.999924 0)"/>
     <use xlink:href="#NanumGothicCoding-56" transform="translate(299.999908 0)"/>
     <use xlink:href="#NanumGothicCoding-65" transform="translate(349.999893 0)"/>
     <use xlink:href="#NanumGothicCoding-6c" transform="translate(399.999878 0)"/>
     <use xlink:href="#NanumGothicCoding-6f" transform="translate(449.999863 0)"/>
     <use xlink:href="#NanumGothicCoding-63" transform="translate(499.999847 0)"/>
     <use xlink:href="#NanumGothicCoding-69" transform="translate(549.999832 0)"/>
     <use xlink:href="#NanumGothicCoding-74" transform="translate(599.999817 0)"/>
     <use xlink:href="#NanumGothicCoding-79" transform="translate(649.999802 0)"/>
     <use xlink:href="#NanumGothicCoding-20" transform="translate(699.999786 0)"/>
     <use xlink:href="#NanumGothicCoding-3e" transform="translate(749.999771 0)"/>
     <use xlink:href="#NanumGothicCoding-20" transform="translate(799.999756 0)"/>
     <use xlink:href="#NanumGothicCoding-30" transform="translate(849.999741 0)"/>
     <use xlink:href="#NanumGothicCoding-20" transform="translate(899.999725 0)"/>
     <use xlink:href="#NanumGothicCoding-20" transform="translate(949.99971 0)"/>
     <use xlink:href="#NanumGothicCoding-2192" transform="translate(999.999695 0)"/>
     <use xlink:href="#NanumGothicCoding-20" transform="translate(1099.99968 0)"/>
     <use xlink:href="#NanumGothicCoding-c774" transform="translate(1149.999664 0)"/>
     <use xlink:href="#NanumGothicCoding-bbf8" transform="translate(1249.999649 0)"/>
     <use xlink:href="#NanumGothicCoding-20" transform="translate(1349.999634 0)"/>
     <use xlink:href="#NanumGothicCoding-ba40" transform="translate(1399.999619 0)"/>
     <use xlink:href="#NanumGothicCoding-c5b4" transform="translate(1499.999603 0)"/>
     <use xlink:href="#NanumGothicCoding-c9c0" transform="translate(1599.999588 0)"/>
     <use xlink:href="#NanumGothicCoding-b294" transform="translate(1699.999573 0)"/>
     <use xlink:href="#NanumGothicCoding-20" transform="translate(1799.999557 0)"/>
     <use xlink:href="#NanumGothicCoding-c911" transform="translate(1849.999542 0)"/>
    </g>
   </g>
  </g>
 </g>
 <defs>
  <clipPath id="pf74f776578">
   <rect x="5.76" y="5.76" width="400.644" height="99.792"/>
  </clipPath>
 </defs>
</svg>
