<?xml version="1.0" encoding="utf-8" standalone="no"?>
<!DOCTYPE svg PUBLIC "-//W3C//DTD SVG 1.1//EN"
  "http://www.w3.org/Graphics/SVG/1.1/DTD/svg11.dtd">
<svg xmlns:xlink="http://www.w3.org/1999/xlink" width="407.88pt" height="202.085531pt" viewBox="0 0 407.88 202.085531" xmlns="http://www.w3.org/2000/svg" version="1.1">
 <metadata>
  <rdf:RDF xmlns:dc="http://purl.org/dc/elements/1.1/" xmlns:cc="http://creativecommons.org/ns#" xmlns:rdf="http://www.w3.org/1999/02/22-rdf-syntax-ns#">
   <cc:Work>
    <dc:type rdf:resource="http://purl.org/dc/dcmitype/StillImage"/>
    <dc:date>2026-07-08T05:12:56.214569</dc:date>
    <dc:format>image/svg+xml</dc:format>
    <dc:creator>
     <cc:Agent>
      <dc:title>Matplotlib v3.10.8, https://matplotlib.org/</dc:title>
     </cc:Agent>
    </dc:creator>
   </cc:Work>
  </rdf:RDF>
 </metadata>
 <defs>
  <style type="text/css">*{stroke-linejoin: round; stroke-linecap: butt}</style>
 </defs>
 <g id="figure_1">
  <g id="patch_1">
   <path d="M 0 202.085531 
L 407.88 202.085531 
L 407.88 0 
L 0 0 
z
" style="fill: #ffffff"/>
  </g>
  <g id="axes_1">
   <g id="patch_2">
    <path d="M 47.7 142.667531 
L 164.88 142.667531 
L 164.88 72.359531 
L 47.7 72.359531 
L 47.7 142.667531 
z
" clip-path="url(#p847ca08a91)" style="fill: none; stroke: #2563eb; stroke-width: 2.2; stroke-linejoin: miter"/>
   </g>
   <g id="patch_3">
    <path d="M 145.35 142.667531 
L 262.53 142.667531 
L 262.53 72.359531 
L 145.35 72.359531 
L 145.35 142.667531 
z
" clip-path="url(#p847ca08a91)" style="fill: none; stroke: #10b981; stroke-width: 2.2; stroke-linejoin: miter"/>
   </g>
   <g id="patch_4">
    <path d="M 145.35 142.667531 
L 164.88 142.667531 
L 164.88 72.359531 
L 145.35 72.359531 
z
" clip-path="url(#p847ca08a91)" style="fill: #ef4444; opacity: 0.25; stroke: #ef4444; stroke-linejoin: miter"/>
   </g>
   <g id="text_1">
    <!-- AABB 겹침: x축 overlapX -->
    <g style="fill: #111827" transform="translate(8.64 20.504062) scale(0.15 -0.15)">
     <defs>
      <path id="NanumGothicBold-41" d="M 3949 -320 
Q 3904 -320 3885 -310 
Q 3866 -301 3846 -256 
L 3386 896 
L 1299 896 
L 838 -256 
Q 826 -301 806 -310 
Q 787 -320 742 -320 
L 154 -320 
Q 38 -320 77 -230 
L 1946 4435 
Q 1965 4486 1974 4496 
Q 1984 4506 2048 4506 
L 2643 4506 
Q 2701 4506 2713 4496 
Q 2726 4486 2746 4435 
L 4614 -230 
Q 4646 -320 4538 -320 
L 3949 -320 
z
M 1562 1568 
L 3117 1568 
L 2342 3539 
L 1562 1568 
z
" transform="scale(0.015625)"/>
      <path id="NanumGothicBold-42" d="M 653 -320 
Q 576 -320 576 -256 
L 576 4416 
Q 576 4506 653 4506 
L 1760 4506 
Q 2490 4506 2896 4205 
Q 3302 3904 3302 3283 
Q 3302 2899 3145 2627 
Q 2989 2355 2701 2202 
Q 2886 2131 3024 2016 
Q 3162 1901 3254 1753 
Q 3347 1606 3392 1443 
Q 3437 1280 3437 1120 
Q 3437 397 2963 38 
Q 2490 -320 1594 -320 
L 653 -320 
z
M 1306 3827 
L 1306 2528 
L 1651 2528 
Q 2157 2528 2368 2723 
Q 2579 2918 2579 3226 
Q 2579 3494 2393 3660 
Q 2208 3827 1760 3827 
L 1306 3827 
z
M 1293 1837 
L 1293 365 
L 1606 365 
Q 2221 365 2467 560 
Q 2714 755 2714 1094 
Q 2714 1440 2445 1638 
Q 2176 1837 1536 1837 
L 1293 1837 
z
" transform="scale(0.015625)"/>
      <path id="NanumGothicBold-20" transform="scale(0.015625)"/>
      <path id="NanumGothicBold-acb9" d="M 3462 4454 
Q 3462 4403 3446 4313 
Q 3430 4224 3411 4154 
L 4544 4154 
L 4544 4979 
Q 4544 5062 4627 5062 
L 5197 5062 
Q 5280 5062 5280 4979 
L 5280 1894 
Q 5280 1805 5197 1805 
L 4627 1805 
Q 4544 1805 4544 1888 
L 4544 2349 
L 3168 2349 
Q 3136 2349 3107 2374 
Q 3078 2400 3078 2432 
L 3078 2854 
Q 3078 2893 3107 2915 
Q 3136 2938 3168 2938 
L 4544 2938 
L 4544 3571 
L 3187 3571 
Q 2880 2944 2307 2483 
Q 1734 2022 877 1677 
Q 730 1613 672 1734 
L 512 2048 
Q 486 2099 496 2156 
Q 506 2214 570 2246 
Q 973 2419 1315 2627 
Q 1658 2835 1926 3068 
Q 2195 3302 2371 3552 
Q 2547 3802 2618 4064 
Q 2643 4173 2643 4211 
Q 2643 4250 2534 4250 
L 787 4250 
Q 742 4250 720 4278 
Q 698 4307 698 4346 
L 698 4749 
Q 698 4838 794 4838 
L 2938 4838 
Q 3219 4838 3340 4748 
Q 3462 4659 3462 4454 
z
M 5280 -486 
Q 5280 -704 5177 -809 
Q 5075 -915 4800 -915 
L 1971 -915 
Q 1690 -915 1587 -819 
Q 1485 -723 1485 -467 
L 1485 1395 
Q 1485 1427 1510 1449 
Q 1536 1472 1568 1472 
L 2131 1472 
Q 2163 1472 2192 1449 
Q 2221 1427 2221 1395 
L 2221 819 
L 4544 819 
L 4544 1421 
Q 4544 1453 4569 1478 
Q 4595 1504 4627 1504 
L 5197 1504 
Q 5229 1504 5254 1478 
Q 5280 1453 5280 1421 
L 5280 -486 
z
M 4544 224 
L 2221 224 
L 2221 -205 
Q 2221 -314 2336 -314 
L 4429 -314 
Q 4544 -314 4544 -205 
L 4544 224 
z
" transform="scale(0.015625)"/>
      <path id="NanumGothicBold-ce68" d="M 5216 -454 
Q 5216 -698 5110 -800 
Q 5005 -902 4762 -902 
L 1971 -902 
Q 1683 -902 1584 -800 
Q 1485 -698 1485 -448 
L 1485 608 
Q 1485 851 1590 960 
Q 1696 1069 1939 1069 
L 4730 1069 
Q 5018 1069 5117 966 
Q 5216 864 5216 602 
L 5216 -454 
z
M 813 1338 
Q 781 1325 720 1331 
Q 659 1338 627 1395 
L 454 1728 
Q 422 1779 448 1824 
Q 474 1869 518 1888 
Q 870 2042 1193 2230 
Q 1517 2419 1782 2620 
Q 2048 2822 2243 3024 
Q 2438 3226 2528 3398 
Q 2554 3443 2557 3468 
Q 2560 3494 2458 3494 
L 813 3494 
Q 730 3494 730 3597 
L 730 4013 
Q 730 4090 819 4090 
L 2963 4090 
Q 3219 4090 3356 4016 
Q 3494 3942 3494 3770 
Q 3494 3706 3462 3610 
Q 3430 3514 3398 3443 
Q 3238 3117 2893 2739 
Q 3002 2643 3133 2550 
Q 3264 2458 3401 2374 
Q 3539 2291 3670 2224 
Q 3802 2157 3917 2118 
Q 3987 2093 4000 2045 
Q 4013 1997 3981 1939 
L 3795 1632 
Q 3738 1517 3597 1574 
Q 3482 1619 3334 1702 
Q 3187 1786 3030 1885 
Q 2874 1984 2720 2096 
Q 2566 2208 2445 2317 
Q 2099 2029 1689 1776 
Q 1280 1523 813 1338 
z
M 5216 1472 
Q 5216 1389 5133 1389 
L 4563 1389 
Q 4480 1389 4480 1478 
L 4480 4979 
Q 4480 5062 4563 5062 
L 5133 5062 
Q 5216 5062 5216 4979 
L 5216 1472 
z
M 4486 397 
Q 4486 448 4470 464 
Q 4454 480 4403 480 
L 2298 480 
Q 2246 480 2230 467 
Q 2214 454 2214 403 
L 2214 -230 
Q 2214 -288 2230 -301 
Q 2246 -314 2298 -314 
L 4403 -314 
Q 4454 -314 4470 -301 
Q 4486 -288 4486 -230 
L 4486 397 
z
M 2950 4538 
Q 2950 4493 2921 4461 
Q 2893 4429 2848 4429 
L 1357 4429 
Q 1325 4429 1289 4454 
Q 1254 4480 1254 4525 
L 1254 4896 
Q 1254 4941 1289 4966 
Q 1325 4992 1357 4992 
L 2848 4992 
Q 2886 4992 2918 4960 
Q 2950 4928 2950 4890 
L 2950 4538 
z
" transform="scale(0.015625)"/>
      <path id="NanumGothicBold-3a" d="M 1011 3053 
Q 806 3053 662 3197 
Q 518 3341 518 3533 
Q 518 3731 662 3875 
Q 806 4019 1011 4019 
Q 1216 4019 1357 3875 
Q 1498 3731 1498 3533 
Q 1498 3341 1357 3197 
Q 1216 3053 1011 3053 
z
M 1011 141 
Q 806 141 662 285 
Q 518 429 518 627 
Q 518 819 662 963 
Q 806 1107 1011 1107 
Q 1216 1107 1357 963 
Q 1498 819 1498 627 
Q 1498 429 1357 285 
Q 1216 141 1011 141 
z
" transform="scale(0.015625)"/>
      <path id="NanumGothicBold-78" d="M 2515 -301 
Q 2445 -301 2419 -262 
L 1632 954 
L 845 -262 
Q 813 -301 749 -301 
L 90 -301 
Q 13 -301 70 -224 
L 1235 1542 
L 186 3142 
Q 160 3174 173 3196 
Q 186 3219 237 3219 
L 877 3219 
Q 928 3219 954 3181 
L 1632 2131 
L 2310 3181 
Q 2336 3219 2387 3219 
L 3027 3219 
Q 3078 3219 3091 3196 
Q 3104 3174 3078 3142 
L 2029 1542 
L 3194 -224 
Q 3251 -301 3174 -301 
L 2515 -301 
z
" transform="scale(0.015625)"/>
      <path id="NanumGothicBold-cd95" d="M 4960 -928 
Q 4960 -960 4931 -989 
Q 4902 -1018 4870 -1018 
L 4320 -1018 
Q 4282 -1018 4253 -989 
Q 4224 -960 4224 -928 
L 4224 147 
Q 4224 218 4198 237 
Q 4173 256 4102 256 
L 998 256 
Q 966 256 937 278 
Q 909 301 909 333 
L 909 774 
Q 909 813 937 835 
Q 966 858 998 858 
L 2630 858 
L 2630 1357 
L 211 1357 
Q 122 1357 122 1446 
L 122 1850 
Q 122 1888 147 1917 
Q 173 1946 211 1946 
L 5779 1946 
Q 5811 1946 5843 1914 
Q 5875 1882 5875 1850 
L 5875 1446 
Q 5875 1414 5843 1385 
Q 5811 1357 5779 1357 
L 3366 1357 
L 3366 858 
L 4538 858 
Q 4781 858 4870 755 
Q 4960 653 4960 410 
L 4960 -928 
z
M 979 2240 
Q 934 2227 883 2243 
Q 832 2259 819 2298 
L 710 2669 
Q 698 2707 723 2745 
Q 749 2784 794 2797 
Q 1562 2944 2224 3133 
Q 2886 3322 3424 3571 
Q 3482 3597 3498 3613 
Q 3514 3629 3504 3638 
Q 3494 3648 3468 3651 
Q 3443 3654 3424 3654 
L 1216 3654 
Q 1126 3654 1126 3738 
L 1126 4128 
Q 1126 4205 1216 4205 
L 4122 4205 
Q 4403 4205 4537 4112 
Q 4672 4019 4672 3904 
Q 4672 3795 4605 3692 
Q 4538 3590 4442 3507 
Q 4230 3302 3840 3110 
Q 4160 3040 4518 2976 
Q 4877 2912 5222 2861 
Q 5274 2848 5293 2806 
Q 5312 2765 5299 2726 
L 5203 2394 
Q 5190 2362 5148 2333 
Q 5107 2304 5050 2317 
Q 4589 2387 4051 2505 
Q 3514 2624 3021 2771 
Q 2554 2605 2026 2467 
Q 1498 2330 979 2240 
z
M 3859 4563 
Q 3859 4525 3827 4493 
Q 3795 4461 3750 4461 
L 2112 4461 
Q 2086 4461 2051 4486 
Q 2016 4512 2016 4557 
L 2016 4909 
Q 2016 4954 2051 4979 
Q 2086 5005 2112 5005 
L 3750 5005 
Q 3789 5005 3824 4973 
Q 3859 4941 3859 4902 
L 3859 4563 
z
" transform="scale(0.015625)"/>
      <path id="NanumGothicBold-6f" d="M 3238 173 
Q 3008 -115 2688 -265 
Q 2368 -416 1965 -416 
Q 1555 -416 1241 -269 
Q 928 -122 717 134 
Q 506 390 400 729 
Q 294 1069 294 1453 
Q 294 1837 400 2176 
Q 506 2515 717 2768 
Q 928 3021 1238 3168 
Q 1549 3315 1965 3315 
Q 2374 3315 2688 3168 
Q 3002 3021 3213 2768 
Q 3424 2515 3529 2176 
Q 3635 1837 3635 1453 
Q 3635 1075 3532 745 
Q 3430 416 3238 173 
z
M 1965 2688 
Q 1715 2688 1532 2579 
Q 1350 2470 1235 2294 
Q 1120 2118 1062 1897 
Q 1005 1677 1005 1453 
Q 1005 1229 1062 1008 
Q 1120 787 1235 608 
Q 1350 429 1532 320 
Q 1715 211 1965 211 
Q 2214 211 2396 320 
Q 2579 429 2694 608 
Q 2810 787 2867 1008 
Q 2925 1229 2925 1453 
Q 2925 1670 2867 1891 
Q 2810 2112 2694 2288 
Q 2579 2464 2396 2576 
Q 2214 2688 1965 2688 
z
" transform="scale(0.015625)"/>
      <path id="NanumGothicBold-76" d="M 1920 -250 
Q 1907 -288 1894 -297 
Q 1882 -307 1843 -307 
L 1293 -307 
Q 1254 -307 1238 -297 
Q 1222 -288 1210 -250 
L 45 3149 
Q 32 3181 45 3200 
Q 58 3219 128 3219 
L 685 3219 
Q 717 3219 736 3209 
Q 755 3200 768 3168 
L 1568 755 
L 2362 3168 
Q 2374 3200 2396 3209 
Q 2419 3219 2451 3219 
L 3014 3219 
Q 3085 3219 3097 3200 
Q 3110 3181 3098 3149 
L 1920 -250 
z
" transform="scale(0.015625)"/>
      <path id="NanumGothicBold-65" d="M 3232 1293 
Q 3232 1242 3203 1216 
Q 3174 1190 3142 1190 
L 1037 1190 
Q 1069 762 1305 490 
Q 1542 218 1952 218 
Q 2163 218 2432 272 
Q 2701 326 2925 461 
Q 2970 486 2982 454 
Q 2995 422 2995 371 
L 2995 -70 
Q 2995 -128 2976 -160 
Q 2957 -192 2899 -224 
Q 2707 -326 2448 -371 
Q 2189 -416 1920 -416 
Q 1126 -416 720 61 
Q 314 538 314 1459 
Q 314 1805 403 2137 
Q 493 2470 675 2732 
Q 858 2995 1139 3155 
Q 1421 3315 1805 3315 
Q 2195 3315 2467 3168 
Q 2739 3021 2912 2771 
Q 3085 2522 3161 2189 
Q 3238 1856 3238 1478 
Q 3238 1434 3235 1376 
Q 3232 1318 3232 1293 
z
M 1830 2701 
Q 1658 2701 1523 2624 
Q 1389 2547 1293 2425 
Q 1197 2304 1136 2144 
Q 1075 1984 1050 1824 
L 2515 1824 
Q 2515 1952 2473 2105 
Q 2432 2259 2349 2390 
Q 2266 2522 2138 2611 
Q 2010 2701 1830 2701 
z
" transform="scale(0.015625)"/>
      <path id="NanumGothicBold-72" d="M 2240 2579 
Q 2112 2611 2016 2620 
Q 1920 2630 1850 2618 
Q 1658 2579 1539 2454 
Q 1421 2330 1360 2163 
Q 1299 1997 1280 1805 
Q 1261 1613 1261 1440 
L 1261 -224 
Q 1261 -314 1184 -314 
L 653 -314 
Q 582 -314 582 -218 
L 582 2362 
Q 582 2566 576 2771 
Q 570 2976 570 3130 
Q 570 3187 589 3203 
Q 608 3219 653 3219 
L 1184 3219 
Q 1229 3219 1235 3206 
Q 1242 3194 1242 3162 
L 1242 2880 
Q 1286 2957 1360 3033 
Q 1434 3110 1520 3171 
Q 1606 3232 1696 3267 
Q 1786 3302 1862 3302 
Q 1984 3302 2083 3299 
Q 2182 3296 2291 3232 
Q 2323 3219 2329 3190 
Q 2336 3162 2336 3136 
L 2336 2656 
Q 2336 2630 2317 2598 
Q 2298 2566 2240 2579 
z
" transform="scale(0.015625)"/>
      <path id="NanumGothicBold-6c" d="M 544 -326 
Q 474 -326 474 -250 
L 474 4794 
Q 474 4826 496 4848 
Q 518 4870 550 4870 
L 1088 4870 
Q 1120 4870 1142 4848 
Q 1165 4826 1165 4794 
L 1165 -250 
Q 1165 -282 1142 -304 
Q 1120 -326 1088 -326 
L 544 -326 
z
" transform="scale(0.015625)"/>
      <path id="NanumGothicBold-61" d="M 2464 -314 
Q 2419 -314 2406 -304 
Q 2394 -294 2394 -256 
L 2394 32 
Q 2234 -192 1987 -304 
Q 1741 -416 1491 -416 
Q 1229 -416 1008 -345 
Q 787 -275 630 -134 
Q 474 6 384 214 
Q 294 422 294 698 
Q 294 1024 409 1270 
Q 525 1517 771 1680 
Q 1018 1843 1402 1923 
Q 1786 2003 2330 2003 
Q 2330 2125 2304 2246 
Q 2278 2368 2217 2464 
Q 2157 2560 2048 2621 
Q 1939 2682 1773 2682 
Q 1485 2682 1251 2605 
Q 1018 2528 813 2400 
Q 710 2336 675 2342 
Q 640 2349 640 2413 
L 640 2899 
Q 640 2925 637 2953 
Q 634 2982 646 3002 
Q 666 3027 742 3072 
Q 960 3181 1187 3251 
Q 1414 3322 1760 3322 
Q 2406 3322 2716 3008 
Q 3027 2694 3027 2022 
L 3027 506 
Q 3027 326 3030 131 
Q 3034 -64 3053 -211 
Q 3066 -314 2982 -314 
L 2464 -314 
z
M 2349 1395 
Q 1638 1395 1331 1222 
Q 1024 1050 1024 704 
Q 1024 461 1165 339 
Q 1306 218 1542 218 
Q 1907 218 2128 486 
Q 2349 755 2349 1325 
L 2349 1395 
z
" transform="scale(0.015625)"/>
      <path id="NanumGothicBold-70" d="M 2061 -474 
Q 1805 -474 1568 -365 
Q 1331 -256 1171 -70 
L 1171 -1210 
Q 1171 -1261 1158 -1277 
Q 1146 -1293 1101 -1293 
L 570 -1293 
Q 531 -1293 512 -1277 
Q 493 -1261 493 -1210 
L 493 3130 
Q 493 3232 589 3232 
L 1082 3232 
Q 1171 3232 1171 3130 
L 1171 2899 
Q 1350 3085 1574 3187 
Q 1798 3290 2061 3290 
Q 2406 3290 2678 3158 
Q 2950 3027 3139 2784 
Q 3328 2541 3427 2189 
Q 3526 1837 3526 1395 
Q 3526 966 3424 620 
Q 3322 275 3133 32 
Q 2944 -211 2672 -342 
Q 2400 -474 2061 -474 
z
M 1990 2637 
Q 1824 2637 1677 2557 
Q 1530 2477 1418 2320 
Q 1306 2163 1238 1932 
Q 1171 1702 1171 1402 
Q 1171 774 1395 473 
Q 1619 173 1990 173 
Q 2387 173 2598 493 
Q 2810 813 2810 1402 
Q 2810 2022 2592 2329 
Q 2374 2637 1990 2637 
z
" transform="scale(0.015625)"/>
      <path id="NanumGothicBold-58" d="M 3482 -320 
Q 3411 -320 3386 -275 
L 2163 1562 
L 934 -275 
Q 909 -320 838 -320 
L 154 -320 
Q 77 -320 134 -237 
L 1747 2176 
L 250 4429 
Q 230 4461 243 4483 
Q 256 4506 307 4506 
L 954 4506 
Q 1024 4506 1043 4467 
L 2157 2797 
L 3277 4467 
Q 3296 4506 3366 4506 
L 4013 4506 
Q 4064 4506 4077 4483 
Q 4090 4461 4070 4429 
L 2573 2176 
L 4186 -237 
Q 4243 -320 4166 -320 
L 3482 -320 
z
" transform="scale(0.015625)"/>
     </defs>
     <use xlink:href="#NanumGothicBold-41"/>
     <use xlink:href="#NanumGothicBold-41" transform="translate(72.699982 0)"/>
     <use xlink:href="#NanumGothicBold-42" transform="translate(145.399963 0)"/>
     <use xlink:href="#NanumGothicBold-42" transform="translate(205.999954 0)"/>
     <use xlink:href="#NanumGothicBold-20" transform="translate(266.599945 0)"/>
     <use xlink:href="#NanumGothicBold-acb9" transform="translate(294.59993 0)"/>
     <use xlink:href="#NanumGothicBold-ce68" transform="translate(388.599915 0)"/>
     <use xlink:href="#NanumGothicBold-3a" transform="translate(482.599899 0)"/>
     <use xlink:href="#NanumGothicBold-20" transform="translate(512.899887 0)"/>
     <use xlink:href="#NanumGothicBold-78" transform="translate(540.899872 0)"/>
     <use xlink:href="#NanumGothicBold-cd95" transform="translate(591.899857 0)"/>
     <use xlink:href="#NanumGothicBold-20" transform="translate(685.899841 0)"/>
     <use xlink:href="#NanumGothicBold-6f" transform="translate(713.899826 0)"/>
     <use xlink:href="#NanumGothicBold-76" transform="translate(774.499817 0)"/>
     <use xlink:href="#NanumGothicBold-65" transform="translate(822.899811 0)"/>
     <use xlink:href="#NanumGothicBold-72" transform="translate(877.399796 0)"/>
     <use xlink:href="#NanumGothicBold-6c" transform="translate(913.699783 0)"/>
     <use xlink:href="#NanumGothicBold-61" transform="translate(937.89978 0)"/>
     <use xlink:href="#NanumGothicBold-70" transform="translate(992.399765 0)"/>
     <use xlink:href="#NanumGothicBold-58" transform="translate(1052.999756 0)"/>
    </g>
   </g>
   <g id="text_2">
    <!-- A -->
    <g style="fill: #2563eb" transform="translate(102.291328 61.747047) scale(0.11 -0.11)">
     <defs>
      <path id="NanumGothic-41" d="M 3386 1402 
Q 3117 2067 2870 2716 
Q 2624 3366 2355 4032 
Q 2086 3366 1827 2716 
Q 1568 2067 1299 1402 
L 3386 1402 
z
M 4499 -186 
Q 4531 -275 4442 -275 
L 4134 -275 
Q 4096 -275 4067 -262 
Q 4038 -250 4013 -186 
L 3539 992 
L 1133 992 
Q 1011 691 896 403 
Q 781 115 666 -186 
Q 640 -250 611 -262 
Q 582 -275 544 -275 
L 243 -275 
Q 154 -275 186 -186 
L 2067 4397 
Q 2099 4474 2182 4474 
L 2573 4474 
Q 2656 4474 2688 4397 
L 4499 -186 
z
" transform="scale(0.015625)"/>
     </defs>
     <use xlink:href="#NanumGothic-41"/>
    </g>
   </g>
   <g id="text_3">
    <!-- B -->
    <g style="fill: #10b981" transform="translate(200.607344 61.747047) scale(0.11 -0.11)">
     <defs>
      <path id="NanumGothic-42" d="M 2784 3277 
Q 2784 4064 1741 4064 
L 1088 4064 
L 1088 2394 
L 1619 2394 
Q 2202 2394 2493 2624 
Q 2784 2854 2784 3277 
z
M 2931 1050 
Q 2931 1523 2585 1753 
Q 2240 1984 1491 1984 
L 1075 1984 
L 1075 128 
L 1568 128 
Q 2931 128 2931 1050 
z
M 3405 1075 
Q 3405 -275 1555 -275 
L 781 -275 
Q 646 -275 624 -252 
Q 602 -230 602 -96 
L 602 4282 
Q 602 4416 624 4438 
Q 646 4461 781 4461 
L 1741 4461 
Q 3258 4461 3258 3296 
Q 3258 2406 2413 2214 
Q 2899 2074 3152 1789 
Q 3405 1504 3405 1075 
z
" transform="scale(0.015625)"/>
     </defs>
     <use xlink:href="#NanumGothic-42"/>
    </g>
   </g>
   <g id="text_4">
    <!-- 겹친 부분 = overlapX -->
    <g style="fill: #ef4444" transform="translate(106.232578 169.180523) scale(0.105 -0.105)">
     <defs>
      <path id="NanumGothic-acb9" d="M 1971 -845 
Q 1818 -845 1725 -825 
Q 1632 -806 1581 -752 
Q 1530 -698 1510 -611 
Q 1491 -525 1491 -390 
L 1491 1446 
Q 1491 1478 1516 1497 
Q 1542 1517 1574 1517 
L 1856 1517 
Q 1888 1517 1910 1494 
Q 1933 1472 1933 1446 
L 1933 768 
L 4710 768 
L 4710 1434 
Q 4710 1466 4732 1491 
Q 4755 1517 4787 1517 
L 5069 1517 
Q 5101 1517 5126 1494 
Q 5152 1472 5152 1440 
L 5152 -435 
Q 5152 -678 5049 -761 
Q 4947 -845 4666 -845 
L 1971 -845 
z
M 3424 4320 
Q 3405 4218 3385 4118 
Q 3366 4019 3334 3930 
L 4710 3930 
L 4710 4915 
Q 4710 5005 4800 5005 
L 5062 5005 
Q 5152 5005 5152 4915 
L 5152 1939 
Q 5152 1850 5062 1850 
L 4800 1850 
Q 4710 1850 4710 1939 
L 4710 2419 
L 3078 2419 
Q 2995 2419 2995 2496 
L 2995 2720 
Q 2995 2797 3078 2797 
L 4710 2797 
L 4710 3552 
L 3187 3552 
Q 2925 2982 2368 2518 
Q 1811 2054 870 1664 
Q 762 1619 730 1702 
L 634 1914 
Q 608 1965 630 1997 
Q 653 2029 685 2042 
Q 1741 2477 2285 3024 
Q 2829 3571 2944 4205 
Q 2982 4390 2790 4390 
L 858 4390 
Q 781 4390 781 4474 
L 781 4698 
Q 781 4774 858 4774 
L 2938 4774 
Q 3245 4774 3353 4665 
Q 3462 4557 3424 4320 
z
M 1933 384 
L 1933 -307 
Q 1933 -403 1965 -432 
Q 1997 -461 2086 -461 
L 4557 -461 
Q 4646 -461 4678 -432 
Q 4710 -403 4710 -307 
L 4710 384 
L 1933 384 
z
" transform="scale(0.015625)"/>
      <path id="NanumGothic-ce5c" d="M 3821 1440 
Q 3802 1395 3773 1382 
Q 3744 1370 3686 1395 
Q 3354 1549 3024 1760 
Q 2694 1971 2394 2240 
Q 1722 1626 794 1216 
Q 762 1203 730 1200 
Q 698 1197 678 1229 
L 563 1459 
Q 544 1491 560 1523 
Q 576 1555 608 1568 
Q 1338 1914 1917 2381 
Q 2496 2848 2893 3456 
Q 2944 3539 2909 3580 
Q 2874 3622 2784 3622 
L 845 3622 
Q 768 3622 768 3706 
L 768 3930 
Q 768 4006 845 4006 
L 2957 4006 
Q 3290 4006 3408 3878 
Q 3526 3750 3379 3482 
Q 3085 2963 2682 2528 
Q 2957 2272 3267 2077 
Q 3578 1882 3878 1760 
Q 3917 1747 3929 1712 
Q 3942 1677 3930 1645 
L 3821 1440 
z
M 5350 -704 
Q 5350 -742 5318 -761 
Q 5286 -781 5254 -781 
L 2016 -781 
Q 1715 -781 1622 -669 
Q 1530 -557 1530 -294 
L 1530 749 
Q 1530 838 1619 838 
L 1882 838 
Q 1971 838 1971 749 
L 1971 -262 
Q 1971 -352 2000 -374 
Q 2029 -397 2118 -397 
L 5254 -397 
Q 5286 -397 5318 -419 
Q 5350 -442 5350 -474 
L 5350 -704 
z
M 5152 723 
Q 5152 634 5062 634 
L 4800 634 
Q 4710 634 4710 723 
L 4710 4915 
Q 4710 5005 4800 5005 
L 5062 5005 
Q 5152 5005 5152 4915 
L 5152 723 
z
M 2835 4845 
Q 2931 4845 2931 4755 
L 2931 4550 
Q 2931 4454 2835 4454 
L 1389 4454 
Q 1293 4454 1293 4550 
L 1293 4755 
Q 1293 4845 1389 4845 
L 2835 4845 
z
" transform="scale(0.015625)"/>
      <path id="NanumGothic-20" transform="scale(0.015625)"/>
      <path id="NanumGothic-bd80" d="M 1498 2419 
Q 1344 2419 1251 2438 
Q 1158 2458 1107 2512 
Q 1056 2566 1037 2652 
Q 1018 2739 1018 2874 
L 1018 4909 
Q 1018 4941 1043 4963 
Q 1069 4986 1101 4986 
L 1376 4986 
Q 1408 4986 1430 4960 
Q 1453 4934 1453 4909 
L 1453 4058 
L 4531 4058 
L 4531 4902 
Q 4531 4934 4553 4960 
Q 4576 4986 4608 4986 
L 4883 4986 
Q 4915 4986 4940 4963 
Q 4966 4941 4966 4909 
L 4966 2829 
Q 4966 2586 4864 2502 
Q 4762 2419 4480 2419 
L 1498 2419 
z
M 2854 -858 
Q 2822 -858 2796 -829 
Q 2771 -800 2771 -762 
L 2771 1242 
L 288 1242 
Q 250 1242 221 1267 
Q 192 1293 192 1325 
L 192 1542 
Q 192 1581 221 1603 
Q 250 1626 288 1626 
L 5728 1626 
Q 5760 1626 5792 1603 
Q 5824 1581 5824 1542 
L 5824 1325 
Q 5824 1293 5792 1267 
Q 5760 1242 5728 1242 
L 3213 1242 
L 3213 -762 
Q 3213 -800 3190 -829 
Q 3168 -858 3130 -858 
L 2854 -858 
z
M 1453 3680 
L 1453 2950 
Q 1453 2854 1485 2825 
Q 1517 2797 1606 2797 
L 4378 2797 
Q 4467 2797 4499 2825 
Q 4531 2854 4531 2950 
L 4531 3680 
L 1453 3680 
z
" transform="scale(0.015625)"/>
      <path id="NanumGothic-bd84" d="M 1600 2637 
Q 1446 2637 1353 2656 
Q 1261 2675 1209 2729 
Q 1158 2784 1139 2870 
Q 1120 2957 1120 3091 
L 1120 4838 
Q 1120 4870 1145 4892 
Q 1171 4915 1203 4915 
L 1478 4915 
Q 1510 4915 1532 4889 
Q 1555 4864 1555 4838 
L 1555 4179 
L 4461 4179 
L 4461 4832 
Q 4461 4864 4483 4889 
Q 4506 4915 4538 4915 
L 4813 4915 
Q 4845 4915 4870 4892 
Q 4896 4870 4896 4838 
L 4896 3046 
Q 4896 2803 4793 2720 
Q 4691 2637 4410 2637 
L 1600 2637 
z
M 2912 262 
Q 2880 262 2854 291 
Q 2829 320 2829 358 
L 2829 1626 
L 288 1626 
Q 250 1626 221 1651 
Q 192 1677 192 1709 
L 192 1926 
Q 192 1965 221 1987 
Q 250 2010 288 2010 
L 5728 2010 
Q 5760 2010 5792 1987 
Q 5824 1965 5824 1926 
L 5824 1709 
Q 5824 1677 5792 1651 
Q 5760 1626 5728 1626 
L 3270 1626 
L 3270 358 
Q 3270 320 3248 291 
Q 3226 262 3187 262 
L 2912 262 
z
M 1555 3802 
L 1555 3168 
Q 1555 3072 1587 3043 
Q 1619 3014 1709 3014 
L 4307 3014 
Q 4397 3014 4429 3043 
Q 4461 3072 4461 3168 
L 4461 3802 
L 1555 3802 
z
M 5133 -704 
Q 5133 -742 5101 -761 
Q 5069 -781 5037 -781 
L 1510 -781 
Q 1210 -781 1117 -656 
Q 1024 -531 1024 -269 
L 1024 915 
Q 1024 1005 1114 1005 
L 1376 1005 
Q 1466 1005 1466 915 
L 1466 -262 
Q 1466 -352 1494 -374 
Q 1523 -397 1613 -397 
L 5037 -397 
Q 5069 -397 5101 -419 
Q 5133 -442 5133 -474 
L 5133 -704 
z
" transform="scale(0.015625)"/>
      <path id="NanumGothic-3d" d="M 3757 2995 
Q 3827 2995 3836 2985 
Q 3846 2976 3846 2906 
L 3846 2618 
Q 3846 2547 3836 2537 
Q 3827 2528 3757 2528 
L 467 2528 
Q 397 2528 387 2537 
Q 378 2547 378 2618 
L 378 2906 
Q 378 2976 387 2985 
Q 397 2995 467 2995 
L 3757 2995 
z
M 3757 1626 
Q 3827 1626 3836 1616 
Q 3846 1606 3846 1536 
L 3846 1261 
Q 3846 1190 3836 1180 
Q 3827 1171 3757 1171 
L 467 1171 
Q 397 1171 387 1180 
Q 378 1190 378 1261 
L 378 1536 
Q 378 1606 387 1616 
Q 397 1626 467 1626 
L 3757 1626 
z
" transform="scale(0.015625)"/>
      <path id="NanumGothic-6f" d="M 3130 1453 
Q 3130 1754 3050 2016 
Q 2970 2278 2829 2483 
Q 2496 2893 1965 2893 
Q 1696 2893 1481 2787 
Q 1267 2682 1101 2483 
Q 954 2278 874 2016 
Q 794 1754 794 1453 
Q 794 1146 874 883 
Q 954 621 1101 422 
Q 1440 6 1965 6 
Q 2234 6 2448 115 
Q 2662 224 2829 422 
Q 2970 621 3050 883 
Q 3130 1146 3130 1453 
z
M 3603 1453 
Q 3603 1075 3494 752 
Q 3386 429 3206 186 
Q 2982 -83 2672 -230 
Q 2362 -378 1965 -378 
Q 1568 -378 1254 -230 
Q 941 -83 717 186 
Q 538 429 432 752 
Q 326 1075 326 1453 
Q 326 2227 717 2720 
Q 1165 3277 1965 3277 
Q 2368 3277 2675 3139 
Q 2982 3002 3206 2720 
Q 3603 2214 3603 1453 
z
" transform="scale(0.015625)"/>
      <path id="NanumGothic-76" d="M 1843 -192 
Q 1811 -275 1715 -275 
L 1402 -275 
Q 1306 -275 1280 -192 
L 154 3098 
Q 141 3130 160 3158 
Q 179 3187 218 3187 
L 506 3187 
Q 582 3187 621 3098 
L 1568 166 
L 2554 3098 
Q 2566 3136 2598 3161 
Q 2630 3187 2669 3187 
L 2950 3187 
Q 2989 3187 3008 3158 
Q 3027 3130 3014 3098 
L 1843 -192 
z
" transform="scale(0.015625)"/>
      <path id="NanumGothic-65" d="M 2733 1696 
Q 2733 1958 2681 2163 
Q 2630 2368 2522 2534 
Q 2285 2912 1837 2912 
Q 1376 2912 1088 2528 
Q 973 2355 896 2131 
Q 819 1907 813 1696 
L 2733 1696 
z
M 813 1331 
Q 806 1011 886 764 
Q 966 518 1120 352 
Q 1274 186 1488 96 
Q 1702 6 1965 6 
Q 2221 6 2445 54 
Q 2669 102 2861 211 
Q 2944 250 2944 166 
L 2944 -122 
Q 2944 -179 2874 -211 
Q 2662 -294 2432 -336 
Q 2202 -378 1933 -378 
Q 1146 -378 742 80 
Q 339 538 339 1459 
Q 339 2272 742 2771 
Q 1165 3277 1811 3277 
Q 2170 3277 2432 3149 
Q 2694 3021 2880 2765 
Q 3206 2310 3206 1549 
Q 3206 1466 3203 1421 
Q 3200 1376 3181 1357 
Q 3162 1338 3114 1334 
Q 3066 1331 2976 1331 
L 813 1331 
z
" transform="scale(0.015625)"/>
      <path id="NanumGothic-72" d="M 2221 2797 
Q 2106 2835 1914 2835 
Q 1440 2835 1210 2368 
Q 1030 2003 1030 1434 
L 1030 -186 
Q 1030 -275 941 -275 
L 691 -275 
Q 602 -275 602 -186 
L 602 2413 
Q 602 2643 598 2787 
Q 595 2931 589 3098 
Q 589 3187 678 3187 
L 915 3187 
Q 1005 3187 1005 3098 
L 1005 2470 
Q 1318 3277 1926 3277 
Q 2074 3277 2221 3238 
Q 2259 3226 2288 3197 
Q 2317 3168 2317 3117 
L 2317 2848 
Q 2317 2810 2285 2797 
Q 2253 2784 2221 2797 
z
" transform="scale(0.015625)"/>
      <path id="NanumGothic-6c" d="M 1056 -186 
Q 1056 -275 966 -275 
L 685 -275 
Q 595 -275 595 -186 
L 595 4723 
Q 595 4813 685 4813 
L 966 4813 
Q 1056 4813 1056 4723 
L 1056 -186 
z
" transform="scale(0.015625)"/>
      <path id="NanumGothic-61" d="M 2566 1530 
L 2445 1530 
Q 2086 1542 1808 1500 
Q 1530 1459 1344 1389 
Q 1075 1293 940 1104 
Q 806 915 806 653 
Q 806 493 857 355 
Q 909 218 1018 141 
Q 1210 -13 1530 -13 
Q 1754 -13 1942 76 
Q 2131 166 2272 332 
Q 2413 499 2489 745 
Q 2566 992 2566 1312 
L 2566 1530 
z
M 742 2650 
Q 710 2630 681 2640 
Q 653 2650 653 2682 
L 653 2925 
Q 653 3014 742 3059 
Q 966 3181 1219 3229 
Q 1472 3277 1773 3277 
Q 2413 3277 2707 2973 
Q 3002 2669 3002 2054 
L 3002 448 
Q 3002 256 3008 105 
Q 3014 -45 3027 -186 
Q 3027 -275 2938 -275 
L 2707 -275 
Q 2618 -275 2618 -186 
L 2618 307 
Q 2483 -19 2166 -198 
Q 1850 -378 1478 -378 
Q 832 -378 531 0 
Q 429 128 377 297 
Q 326 467 326 634 
Q 326 1024 508 1305 
Q 691 1587 1069 1728 
Q 1530 1894 2483 1894 
L 2566 1894 
L 2566 2086 
Q 2566 2490 2384 2701 
Q 2202 2912 1773 2912 
Q 1485 2912 1229 2851 
Q 973 2790 742 2650 
z
" transform="scale(0.015625)"/>
      <path id="NanumGothic-70" d="M 2989 1504 
Q 2989 1766 2937 2012 
Q 2886 2259 2764 2451 
Q 2643 2643 2451 2761 
Q 2259 2880 1971 2880 
Q 1709 2880 1517 2771 
Q 1325 2662 1200 2473 
Q 1075 2285 1011 2035 
Q 947 1786 947 1504 
Q 947 762 1225 381 
Q 1504 0 1971 0 
Q 2214 0 2403 105 
Q 2592 211 2723 409 
Q 2854 608 2921 883 
Q 2989 1158 2989 1504 
z
M 518 3098 
Q 518 3187 608 3187 
L 851 3187 
Q 941 3187 941 3098 
L 909 2618 
Q 1037 2899 1341 3072 
Q 1645 3245 2048 3245 
Q 2426 3245 2691 3110 
Q 2957 2976 3126 2742 
Q 3296 2509 3376 2189 
Q 3456 1869 3456 1504 
Q 3456 1107 3363 768 
Q 3270 429 3094 179 
Q 2918 -70 2656 -214 
Q 2394 -358 2048 -358 
Q 1658 -358 1376 -208 
Q 1094 -58 947 211 
L 947 -1165 
Q 947 -1254 858 -1254 
L 614 -1254 
Q 576 -1254 547 -1228 
Q 518 -1203 518 -1165 
L 518 3098 
z
" transform="scale(0.015625)"/>
      <path id="NanumGothic-58" d="M 4122 -186 
Q 4147 -218 4128 -246 
Q 4109 -275 4070 -275 
L 3686 -275 
Q 3616 -275 3558 -186 
L 2163 1882 
L 710 -186 
Q 672 -237 643 -256 
Q 614 -275 582 -275 
L 230 -275 
Q 192 -275 173 -246 
Q 154 -218 179 -186 
L 1888 2221 
L 358 4371 
Q 333 4403 352 4432 
Q 371 4461 410 4461 
L 768 4461 
Q 813 4461 838 4441 
Q 864 4422 896 4371 
L 2182 2554 
L 3482 4371 
Q 3546 4461 3610 4461 
L 3942 4461 
Q 3981 4461 4000 4432 
Q 4019 4403 3994 4371 
L 2458 2221 
L 4122 -186 
z
" transform="scale(0.015625)"/>
     </defs>
     <use xlink:href="#NanumGothic-acb9"/>
     <use xlink:href="#NanumGothic-ce5c" transform="translate(93.999985 0)"/>
     <use xlink:href="#NanumGothic-20" transform="translate(187.999969 0)"/>
     <use xlink:href="#NanumGothic-bd80" transform="translate(215.999954 0)"/>
     <use xlink:href="#NanumGothic-bd84" transform="translate(309.999939 0)"/>
     <use xlink:href="#NanumGothic-20" transform="translate(403.999924 0)"/>
     <use xlink:href="#NanumGothic-3d" transform="translate(431.999908 0)"/>
     <use xlink:href="#NanumGothic-20" transform="translate(497.399902 0)"/>
     <use xlink:href="#NanumGothic-6f" transform="translate(525.399887 0)"/>
     <use xlink:href="#NanumGothic-76" transform="translate(585.999878 0)"/>
     <use xlink:href="#NanumGothic-65" transform="translate(634.399872 0)"/>
     <use xlink:href="#NanumGothic-72" transform="translate(688.899857 0)"/>
     <use xlink:href="#NanumGothic-6c" transform="translate(725.199844 0)"/>
     <use xlink:href="#NanumGothic-61" transform="translate(749.399841 0)"/>
     <use xlink:href="#NanumGothic-70" transform="translate(803.899826 0)"/>
     <use xlink:href="#NanumGothic-58" transform="translate(864.499817 0)"/>
    </g>
   </g>
  </g>
 </g>
 <defs>
  <clipPath id="p847ca08a91">
   <rect x="8.64" y="29.393531" width="390.6" height="164.052"/>
  </clipPath>
 </defs>
</svg>
