<?xml version="1.0" encoding="utf-8" standalone="no"?>
<!DOCTYPE svg PUBLIC "-//W3C//DTD SVG 1.1//EN"
  "http://www.w3.org/Graphics/SVG/1.1/DTD/svg11.dtd">
<svg xmlns:xlink="http://www.w3.org/1999/xlink" width="281.592pt" height="125.7264pt" viewBox="0 0 281.592 125.7264" xmlns="http://www.w3.org/2000/svg" version="1.1">
 <metadata>
  <rdf:RDF xmlns:dc="http://purl.org/dc/elements/1.1/" xmlns:cc="http://creativecommons.org/ns#" xmlns:rdf="http://www.w3.org/1999/02/22-rdf-syntax-ns#">
   <cc:Work>
    <dc:type rdf:resource="http://purl.org/dc/dcmitype/StillImage"/>
    <dc:date>2026-07-08T05:12:55.761907</dc:date>
    <dc:format>image/svg+xml</dc:format>
    <dc:creator>
     <cc:Agent>
      <dc:title>Matplotlib v3.10.8, https://matplotlib.org/</dc:title>
     </cc:Agent>
    </dc:creator>
   </cc:Work>
  </rdf:RDF>
 </metadata>
 <defs>
  <style type="text/css">*{stroke-linejoin: round; stroke-linecap: butt}</style>
 </defs>
 <g id="figure_1">
  <g id="patch_1">
   <path d="M 0 125.7264 
L 281.592 125.7264 
L 281.592 0 
L 0 0 
z
" style="fill: #ffffff"/>
  </g>
  <g id="axes_1">
   <g id="patch_2">
    <path d="M 5.76 119.9664 
L 275.832 119.9664 
L 275.832 5.76 
L 5.76 5.76 
z
" clip-path="url(#pbcc5326c0d)" style="fill: #ffffff; stroke: #e5e7eb; stroke-linejoin: miter"/>
   </g>
   <g id="text_1">
    <!-- [ cosθ  -sinθ  0 ] -->
    <g style="fill: #111827" transform="translate(16.56288 27.83508) scale(0.11 -0.11)">
     <defs>
      <path id="NanumGothicCoding-5b" d="M 1158 -1126 
Q 1069 -1126 1053 -1113 
Q 1037 -1101 1037 -1011 
L 1037 4877 
Q 1037 4966 1053 4982 
Q 1069 4998 1158 4998 
L 2029 4998 
Q 2125 4998 2141 4985 
Q 2157 4973 2157 4883 
L 2157 4800 
Q 2157 4704 2141 4688 
Q 2125 4672 2022 4672 
L 1562 4672 
Q 1491 4672 1478 4659 
Q 1466 4646 1466 4570 
L 1466 -704 
Q 1466 -774 1475 -787 
Q 1485 -800 1555 -800 
L 2022 -800 
Q 2125 -800 2141 -816 
Q 2157 -832 2157 -928 
L 2157 -1005 
Q 2157 -1094 2141 -1110 
Q 2125 -1126 2022 -1126 
L 1158 -1126 
z
" transform="scale(0.015625)"/>
      <path id="NanumGothicCoding-20" transform="scale(0.015625)"/>
      <path id="NanumGothicCoding-63" d="M 2624 -288 
Q 2451 -333 2310 -349 
Q 2170 -365 1952 -365 
Q 1581 -365 1289 -233 
Q 998 -102 780 128 
Q 563 358 454 668 
Q 346 979 346 1338 
Q 346 1702 461 2009 
Q 576 2317 787 2541 
Q 998 2765 1289 2896 
Q 1581 3027 1952 3027 
Q 2150 3027 2297 3011 
Q 2445 2995 2630 2950 
Q 2714 2931 2707 2842 
L 2688 2624 
Q 2675 2547 2598 2566 
Q 2445 2618 2307 2640 
Q 2170 2662 2010 2662 
Q 1741 2662 1507 2556 
Q 1274 2451 1126 2272 
Q 979 2093 899 1853 
Q 819 1613 819 1338 
Q 819 1088 902 848 
Q 986 608 1130 419 
Q 1274 230 1507 115 
Q 1741 0 2010 0 
Q 2170 0 2298 19 
Q 2426 38 2592 96 
Q 2662 115 2688 51 
L 2707 -179 
Q 2714 -269 2624 -288 
z
" transform="scale(0.015625)"/>
      <path id="NanumGothicCoding-6f" d="M 2490 1331 
Q 2490 1581 2432 1824 
Q 2374 2067 2253 2266 
Q 2010 2650 1594 2650 
Q 1158 2650 934 2266 
Q 813 2067 758 1824 
Q 704 1581 704 1331 
Q 704 1056 755 813 
Q 806 570 934 397 
Q 1216 6 1594 6 
Q 2035 6 2253 397 
Q 2381 570 2435 813 
Q 2490 1056 2490 1331 
z
M 2931 1331 
Q 2931 979 2851 668 
Q 2771 358 2605 147 
Q 2413 -102 2163 -240 
Q 1914 -378 1594 -378 
Q 1274 -378 1024 -240 
Q 774 -102 582 147 
Q 429 378 349 678 
Q 269 979 269 1331 
Q 269 2054 582 2515 
Q 947 3034 1594 3034 
Q 1920 3034 2166 2909 
Q 2413 2784 2605 2515 
Q 2931 2048 2931 1331 
z
" transform="scale(0.015625)"/>
      <path id="NanumGothicCoding-73" d="M 582 147 
Q 992 -13 1427 -13 
Q 1792 -13 2045 169 
Q 2298 352 2298 538 
Q 2298 710 2157 838 
Q 2016 966 1811 1069 
Q 1594 1184 1386 1289 
Q 1178 1395 966 1504 
Q 723 1626 611 1802 
Q 499 1978 499 2144 
Q 499 2349 588 2509 
Q 678 2669 832 2790 
Q 986 2912 1206 2973 
Q 1427 3034 1677 3034 
Q 1907 3034 2099 3008 
Q 2291 2982 2496 2918 
Q 2541 2906 2569 2880 
Q 2598 2854 2592 2816 
L 2573 2611 
Q 2566 2560 2531 2547 
Q 2496 2534 2464 2547 
Q 2278 2618 2105 2643 
Q 1933 2669 1722 2669 
Q 947 2669 947 2144 
Q 947 2048 1049 1942 
Q 1152 1837 1402 1728 
Q 1645 1613 1840 1520 
Q 2035 1427 2272 1299 
Q 2554 1133 2659 953 
Q 2765 774 2765 544 
Q 2765 358 2656 166 
Q 2547 -26 2364 -141 
Q 2182 -256 1945 -317 
Q 1709 -378 1466 -378 
Q 1312 -378 1193 -371 
Q 1075 -365 969 -352 
Q 864 -339 758 -320 
Q 653 -301 538 -269 
Q 435 -237 442 -160 
L 474 90 
Q 493 186 582 147 
z
" transform="scale(0.015625)"/>
      <path id="NanumGothicCoding-3b8" d="M 2291 1862 
Q 2298 1453 2358 1113 
Q 2419 774 2528 531 
Q 2637 288 2803 153 
Q 2970 19 3200 19 
Q 3430 19 3596 153 
Q 3763 288 3872 531 
Q 3981 774 4038 1113 
Q 4096 1453 4109 1862 
L 2291 1862 
z
M 4109 2234 
Q 4096 2637 4038 2969 
Q 3981 3302 3869 3539 
Q 3757 3776 3590 3907 
Q 3424 4038 3200 4038 
Q 2976 4038 2809 3907 
Q 2643 3776 2531 3539 
Q 2419 3302 2361 2969 
Q 2304 2637 2291 2234 
L 4109 2234 
z
M 4531 2029 
Q 4531 877 4224 262 
Q 3917 -352 3200 -352 
Q 2842 -352 2589 -195 
Q 2336 -38 2176 262 
Q 2016 563 1942 1008 
Q 1869 1453 1869 2029 
Q 1869 2605 1942 3049 
Q 2016 3494 2176 3795 
Q 2336 4096 2589 4253 
Q 2842 4410 3200 4410 
Q 3917 4410 4224 3795 
Q 4531 3181 4531 2029 
z
" transform="scale(0.015625)"/>
      <path id="NanumGothicCoding-2d" d="M 2938 2131 
L 2938 1850 
Q 2938 1779 2928 1769 
Q 2918 1760 2848 1760 
L 352 1760 
Q 282 1760 272 1769 
Q 262 1779 262 1850 
L 262 2131 
Q 262 2202 272 2211 
Q 282 2221 352 2221 
L 2848 2221 
Q 2918 2221 2928 2211 
Q 2938 2202 2938 2131 
z
" transform="scale(0.015625)"/>
      <path id="NanumGothicCoding-69" d="M 2656 122 
Q 2746 122 2746 32 
L 2746 -186 
Q 2746 -275 2656 -275 
L 614 -275 
Q 525 -275 525 -186 
L 525 32 
Q 525 122 614 122 
L 1434 122 
L 1434 2534 
L 685 2534 
Q 595 2534 595 2624 
L 595 2842 
Q 595 2931 685 2931 
L 1805 2931 
Q 1894 2931 1894 2842 
L 1894 122 
L 2656 122 
z
M 1235 3968 
Q 1235 4115 1340 4220 
Q 1446 4326 1594 4326 
Q 1741 4326 1846 4220 
Q 1952 4115 1952 3968 
Q 1952 3821 1846 3715 
Q 1741 3610 1594 3610 
Q 1446 3610 1340 3715 
Q 1235 3821 1235 3968 
z
" transform="scale(0.015625)"/>
      <path id="NanumGothicCoding-6e" d="M 2797 -186 
Q 2797 -275 2707 -275 
L 2451 -275 
Q 2362 -275 2362 -186 
L 2362 1574 
Q 2362 2163 2202 2409 
Q 2042 2656 1658 2656 
Q 1318 2656 1088 2384 
Q 858 2112 858 1562 
L 858 -186 
Q 858 -275 768 -275 
L 512 -275 
Q 422 -275 422 -186 
L 422 2118 
Q 422 2394 419 2547 
Q 416 2701 403 2842 
Q 397 2886 425 2908 
Q 454 2931 493 2931 
L 723 2931 
Q 813 2931 813 2842 
L 813 2483 
Q 966 2758 1187 2889 
Q 1408 3021 1696 3021 
Q 2259 3021 2528 2669 
Q 2797 2317 2797 1677 
L 2797 -186 
z
" transform="scale(0.015625)"/>
      <path id="NanumGothicCoding-30" d="M 1747 1242 
L 1453 1242 
Q 1376 1242 1376 1331 
L 1376 2355 
Q 1376 2445 1453 2445 
L 1747 2445 
Q 1824 2445 1824 2355 
L 1824 1331 
Q 1824 1242 1747 1242 
z
M 2470 1907 
Q 2483 3731 1600 3731 
Q 717 3731 730 1907 
Q 717 77 1600 77 
Q 2483 77 2470 1907 
z
M 2906 1907 
Q 2906 -326 1606 -326 
Q 294 -326 294 1907 
Q 294 2726 544 3354 
Q 909 4141 1606 4141 
Q 2285 4141 2662 3354 
Q 2790 3040 2848 2637 
Q 2906 2234 2906 1907 
z
" transform="scale(0.015625)"/>
      <path id="NanumGothicCoding-5d" d="M 2035 4998 
Q 2125 4998 2141 4985 
Q 2157 4973 2157 4883 
L 2157 -1005 
Q 2157 -1094 2141 -1110 
Q 2125 -1126 2035 -1126 
L 1165 -1126 
Q 1069 -1126 1053 -1113 
Q 1037 -1101 1037 -1011 
L 1037 -928 
Q 1037 -832 1053 -816 
Q 1069 -800 1171 -800 
L 1632 -800 
Q 1702 -800 1715 -787 
Q 1728 -774 1728 -698 
L 1728 4576 
Q 1728 4646 1718 4659 
Q 1709 4672 1638 4672 
L 1171 4672 
Q 1069 4672 1053 4688 
Q 1037 4704 1037 4800 
L 1037 4877 
Q 1037 4966 1053 4982 
Q 1069 4998 1171 4998 
L 2035 4998 
z
" transform="scale(0.015625)"/>
     </defs>
     <use xlink:href="#NanumGothicCoding-5b"/>
     <use xlink:href="#NanumGothicCoding-20" transform="translate(49.999985 0)"/>
     <use xlink:href="#NanumGothicCoding-63" transform="translate(99.999969 0)"/>
     <use xlink:href="#NanumGothicCoding-6f" transform="translate(149.999954 0)"/>
     <use xlink:href="#NanumGothicCoding-73" transform="translate(199.999939 0)"/>
     <use xlink:href="#NanumGothicCoding-3b8" transform="translate(249.999924 0)"/>
     <use xlink:href="#NanumGothicCoding-20" transform="translate(349.999908 0)"/>
     <use xlink:href="#NanumGothicCoding-20" transform="translate(399.999893 0)"/>
     <use xlink:href="#NanumGothicCoding-2d" transform="translate(449.999878 0)"/>
     <use xlink:href="#NanumGothicCoding-73" transform="translate(499.999863 0)"/>
     <use xlink:href="#NanumGothicCoding-69" transform="translate(549.999847 0)"/>
     <use xlink:href="#NanumGothicCoding-6e" transform="translate(599.999832 0)"/>
     <use xlink:href="#NanumGothicCoding-3b8" transform="translate(649.999817 0)"/>
     <use xlink:href="#NanumGothicCoding-20" transform="translate(749.999802 0)"/>
     <use xlink:href="#NanumGothicCoding-20" transform="translate(799.999786 0)"/>
     <use xlink:href="#NanumGothicCoding-30" transform="translate(849.999771 0)"/>
     <use xlink:href="#NanumGothicCoding-20" transform="translate(899.999756 0)"/>
     <use xlink:href="#NanumGothicCoding-5d" transform="translate(949.999741 0)"/>
    </g>
   </g>
   <g id="text_2">
    <!-- [ sinθ   cosθ  0 ] -->
    <g style="fill: #111827" transform="translate(16.56288 40.397784) scale(0.11 -0.11)">
     <use xlink:href="#NanumGothicCoding-5b"/>
     <use xlink:href="#NanumGothicCoding-20" transform="translate(49.999985 0)"/>
     <use xlink:href="#NanumGothicCoding-73" transform="translate(99.999969 0)"/>
     <use xlink:href="#NanumGothicCoding-69" transform="translate(149.999954 0)"/>
     <use xlink:href="#NanumGothicCoding-6e" transform="translate(199.999939 0)"/>
     <use xlink:href="#NanumGothicCoding-3b8" transform="translate(249.999924 0)"/>
     <use xlink:href="#NanumGothicCoding-20" transform="translate(349.999908 0)"/>
     <use xlink:href="#NanumGothicCoding-20" transform="translate(399.999893 0)"/>
     <use xlink:href="#NanumGothicCoding-20" transform="translate(449.999878 0)"/>
     <use xlink:href="#NanumGothicCoding-63" transform="translate(499.999863 0)"/>
     <use xlink:href="#NanumGothicCoding-6f" transform="translate(549.999847 0)"/>
     <use xlink:href="#NanumGothicCoding-73" transform="translate(599.999832 0)"/>
     <use xlink:href="#NanumGothicCoding-3b8" transform="translate(649.999817 0)"/>
     <use xlink:href="#NanumGothicCoding-20" transform="translate(749.999802 0)"/>
     <use xlink:href="#NanumGothicCoding-20" transform="translate(799.999786 0)"/>
     <use xlink:href="#NanumGothicCoding-30" transform="translate(849.999771 0)"/>
     <use xlink:href="#NanumGothicCoding-20" transform="translate(899.999756 0)"/>
     <use xlink:href="#NanumGothicCoding-5d" transform="translate(949.999741 0)"/>
    </g>
   </g>
   <g id="text_3">
    <!-- [ 0      0     1 ] -->
    <g style="fill: #111827" transform="translate(16.56288 52.960488) scale(0.11 -0.11)">
     <defs>
      <path id="NanumGothicCoding-31" d="M 2022 -211 
Q 2022 -301 1933 -301 
L 1670 -301 
Q 1581 -301 1581 -211 
L 1581 3565 
Q 1382 3398 1209 3251 
Q 1037 3104 845 2938 
Q 774 2880 717 2950 
L 589 3104 
Q 570 3136 570 3171 
Q 570 3206 602 3232 
L 1594 4064 
Q 1619 4090 1670 4090 
L 1843 4090 
Q 1978 4090 2000 4067 
Q 2022 4045 2022 3910 
L 2022 -211 
z
" transform="scale(0.015625)"/>
     </defs>
     <use xlink:href="#NanumGothicCoding-5b"/>
     <use xlink:href="#NanumGothicCoding-20" transform="translate(49.999985 0)"/>
     <use xlink:href="#NanumGothicCoding-30" transform="translate(99.999969 0)"/>
     <use xlink:href="#NanumGothicCoding-20" transform="translate(149.999954 0)"/>
     <use xlink:href="#NanumGothicCoding-20" transform="translate(199.999939 0)"/>
     <use xlink:href="#NanumGothicCoding-20" transform="translate(249.999924 0)"/>
     <use xlink:href="#NanumGothicCoding-20" transform="translate(299.999908 0)"/>
     <use xlink:href="#NanumGothicCoding-20" transform="translate(349.999893 0)"/>
     <use xlink:href="#NanumGothicCoding-20" transform="translate(399.999878 0)"/>
     <use xlink:href="#NanumGothicCoding-30" transform="translate(449.999863 0)"/>
     <use xlink:href="#NanumGothicCoding-20" transform="translate(499.999847 0)"/>
     <use xlink:href="#NanumGothicCoding-20" transform="translate(549.999832 0)"/>
     <use xlink:href="#NanumGothicCoding-20" transform="translate(599.999817 0)"/>
     <use xlink:href="#NanumGothicCoding-20" transform="translate(649.999802 0)"/>
     <use xlink:href="#NanumGothicCoding-20" transform="translate(699.999786 0)"/>
     <use xlink:href="#NanumGothicCoding-31" transform="translate(749.999771 0)"/>
     <use xlink:href="#NanumGothicCoding-20" transform="translate(799.999756 0)"/>
     <use xlink:href="#NanumGothicCoding-5d" transform="translate(849.999741 0)"/>
    </g>
   </g>
  </g>
 </g>
 <defs>
  <clipPath id="pbcc5326c0d">
   <rect x="5.76" y="5.76" width="270.072" height="114.2064"/>
  </clipPath>
 </defs>
</svg>
