<?xml version="1.0" encoding="utf-8" standalone="no"?>
<!DOCTYPE svg PUBLIC "-//W3C//DTD SVG 1.1//EN"
  "http://www.w3.org/Graphics/SVG/1.1/DTD/svg11.dtd">
<svg xmlns:xlink="http://www.w3.org/1999/xlink" width="419.04pt" height="210.507731pt" viewBox="0 0 419.04 210.507731" xmlns="http://www.w3.org/2000/svg" version="1.1">
 <metadata>
  <rdf:RDF xmlns:dc="http://purl.org/dc/elements/1.1/" xmlns:cc="http://creativecommons.org/ns#" xmlns:rdf="http://www.w3.org/1999/02/22-rdf-syntax-ns#">
   <cc:Work>
    <dc:type rdf:resource="http://purl.org/dc/dcmitype/StillImage"/>
    <dc:date>2026-07-08T05:12:54.471235</dc:date>
    <dc:format>image/svg+xml</dc:format>
    <dc:creator>
     <cc:Agent>
      <dc:title>Matplotlib v3.10.8, https://matplotlib.org/</dc:title>
     </cc:Agent>
    </dc:creator>
   </cc:Work>
  </rdf:RDF>
 </metadata>
 <defs>
  <style type="text/css">*{stroke-linejoin: round; stroke-linecap: butt}</style>
 </defs>
 <g id="figure_1">
  <g id="patch_1">
   <path d="M 0 210.507731 
L 419.04 210.507731 
L 419.04 0 
L 0 0 
z
" style="fill: #ffffff"/>
  </g>
  <g id="axes_1">
   <g id="line2d_1">
    <defs>
     <path id="m65685204e0" d="M 0 4 
C 1.060812 4 2.078319 3.578535 2.828427 2.828427 
C 3.578535 2.078319 4 1.060812 4 0 
C 4 -1.060812 3.578535 -2.078319 2.828427 -2.828427 
C 2.078319 -3.578535 1.060812 -4 0 -4 
C -1.060812 -4 -2.078319 -3.578535 -2.828427 -2.828427 
C -3.578535 -2.078319 -4 -1.060812 -4 0 
C -4 1.060812 -3.578535 2.078319 -2.828427 2.828427 
C -2.078319 3.578535 -1.060812 4 0 4 
z
" style="stroke: #2563eb"/>
    </defs>
    <g clip-path="url(#p4ee28bc74c)">
     <use xlink:href="#m65685204e0" x="88.992" y="129.550931" style="fill: #2563eb; stroke: #2563eb"/>
    </g>
   </g>
   <g id="line2d_2">
    <defs>
     <path id="me97e7390a6" d="M 0 4 
C 1.060812 4 2.078319 3.578535 2.828427 2.828427 
C 3.578535 2.078319 4 1.060812 4 0 
C 4 -1.060812 3.578535 -2.078319 2.828427 -2.828427 
C 2.078319 -3.578535 1.060812 -4 0 -4 
C -1.060812 -4 -2.078319 -3.578535 -2.828427 -2.828427 
C -3.578535 -2.078319 -4 -1.060812 -4 0 
C -4 1.060812 -3.578535 2.078319 -2.828427 2.828427 
C -2.078319 3.578535 -1.060812 4 0 4 
z
" style="stroke: #f59e0b"/>
    </defs>
    <g clip-path="url(#p4ee28bc74c)">
     <use xlink:href="#me97e7390a6" x="330.048" y="89.374931" style="fill: #f59e0b; stroke: #f59e0b"/>
    </g>
   </g>
   <g id="text_1">
    <!-- 플레이어에서 마우스로 향하는 방향 -->
    <g style="fill: #111827" transform="translate(8.64 20.054063) scale(0.15 -0.15)">
     <defs>
      <path id="NanumGothicBold-d50c" d="M 5139 -845 
Q 5139 -877 5107 -905 
Q 5075 -934 5050 -934 
L 1472 -934 
Q 1222 -934 1132 -844 
Q 1043 -755 1043 -550 
L 1043 211 
Q 1043 416 1129 509 
Q 1216 602 1466 602 
L 4192 602 
Q 4243 602 4256 611 
Q 4269 621 4269 678 
L 4269 877 
Q 4269 947 4256 963 
Q 4243 979 4186 979 
L 1120 979 
Q 1088 979 1059 1001 
Q 1030 1024 1030 1056 
L 1030 1485 
Q 1030 1517 1059 1545 
Q 1088 1574 1120 1574 
L 4550 1574 
Q 4813 1574 4899 1491 
Q 4986 1408 4986 1190 
L 4986 435 
Q 4986 211 4899 134 
Q 4813 58 4550 58 
L 1843 58 
Q 1792 58 1779 42 
Q 1766 26 1766 -26 
L 1766 -262 
Q 1766 -320 1779 -329 
Q 1792 -339 1850 -339 
L 5043 -339 
Q 5075 -339 5107 -361 
Q 5139 -384 5139 -429 
L 5139 -845 
z
M 1094 4422 
Q 1062 4422 1027 4454 
Q 992 4486 992 4531 
L 992 4896 
Q 992 4928 1027 4960 
Q 1062 4992 1094 4992 
L 4902 4992 
Q 4941 4992 4969 4963 
Q 4998 4934 4998 4896 
L 4998 4525 
Q 4998 4480 4969 4451 
Q 4941 4422 4902 4422 
L 4301 4422 
L 4301 3603 
L 5018 3603 
Q 5056 3603 5085 3574 
Q 5114 3546 5114 3507 
L 5114 3130 
Q 5114 3091 5085 3062 
Q 5056 3034 5018 3034 
L 979 3034 
Q 947 3034 908 3066 
Q 870 3098 870 3136 
L 870 3507 
Q 870 3539 908 3571 
Q 947 3603 979 3603 
L 1696 3603 
L 1696 4422 
L 1094 4422 
z
M 5875 2093 
Q 5875 2061 5843 2029 
Q 5811 1997 5779 1997 
L 211 1997 
Q 173 1997 147 2025 
Q 122 2054 122 2093 
L 122 2502 
Q 122 2598 211 2598 
L 5779 2598 
Q 5811 2598 5843 2569 
Q 5875 2541 5875 2502 
L 5875 2093 
z
M 2406 4422 
L 2406 3603 
L 3590 3603 
L 3590 4422 
L 2406 4422 
z
" transform="scale(0.015625)"/>
      <path id="NanumGothicBold-b808" d="M 3245 864 
Q 3258 826 3229 794 
Q 3200 762 3149 749 
Q 2931 691 2633 643 
Q 2336 595 2019 566 
Q 1702 538 1408 522 
Q 1114 506 902 518 
Q 608 531 505 633 
Q 403 736 403 979 
L 403 2458 
Q 403 2688 515 2787 
Q 627 2886 851 2886 
L 1830 2886 
Q 1888 2886 1907 2902 
Q 1926 2918 1926 2982 
L 1926 3866 
Q 1926 3917 1913 3936 
Q 1901 3955 1830 3955 
L 518 3955 
Q 486 3955 457 3980 
Q 429 4006 429 4038 
L 429 4461 
Q 429 4493 457 4518 
Q 486 4544 518 4544 
L 2195 4544 
Q 2470 4544 2550 4441 
Q 2630 4339 2630 4102 
L 2630 2720 
Q 2630 2477 2531 2390 
Q 2432 2304 2182 2304 
L 1210 2304 
Q 1114 2304 1114 2214 
L 1114 1248 
Q 1114 1178 1139 1155 
Q 1165 1133 1235 1133 
Q 1427 1126 1667 1139 
Q 1907 1152 2156 1181 
Q 2406 1210 2640 1245 
Q 2874 1280 3053 1318 
Q 3155 1338 3174 1229 
L 3245 864 
z
M 3629 4870 
Q 3629 4954 3718 4954 
L 4243 4954 
Q 4326 4954 4326 4870 
L 4326 -717 
Q 4326 -806 4243 -806 
L 3718 -806 
Q 3629 -806 3629 -717 
L 3629 2253 
L 2963 2253 
Q 2931 2253 2902 2278 
Q 2874 2304 2874 2336 
L 2874 2771 
Q 2874 2803 2902 2828 
Q 2931 2854 2963 2854 
L 3629 2854 
L 3629 4870 
z
M 5549 -941 
Q 5549 -1024 5466 -1024 
L 4909 -1024 
Q 4826 -1024 4826 -941 
L 4826 4979 
Q 4826 5062 4915 5062 
L 5466 5062 
Q 5549 5062 5549 4979 
L 5549 -941 
z
" transform="scale(0.015625)"/>
      <path id="NanumGothicBold-c774" d="M 5274 -928 
Q 5274 -1011 5190 -1011 
L 4621 -1011 
Q 4538 -1011 4538 -928 
L 4538 4979 
Q 4538 5062 4621 5062 
L 5190 5062 
Q 5274 5062 5274 4979 
L 5274 -928 
z
M 2963 2573 
Q 2963 2867 2905 3132 
Q 2848 3398 2739 3596 
Q 2630 3795 2473 3910 
Q 2317 4026 2112 4026 
Q 1907 4026 1750 3910 
Q 1594 3795 1485 3596 
Q 1376 3398 1318 3132 
Q 1261 2867 1261 2573 
Q 1261 2285 1318 2019 
Q 1376 1754 1485 1552 
Q 1594 1350 1750 1232 
Q 1907 1114 2112 1114 
Q 2317 1114 2473 1232 
Q 2630 1350 2739 1552 
Q 2848 1754 2905 2019 
Q 2963 2285 2963 2573 
z
M 2112 461 
Q 1747 461 1452 614 
Q 1158 768 956 1046 
Q 755 1325 646 1715 
Q 538 2106 538 2573 
Q 538 3053 646 3443 
Q 755 3834 956 4106 
Q 1158 4378 1452 4528 
Q 1747 4678 2112 4678 
Q 2483 4678 2774 4528 
Q 3066 4378 3267 4106 
Q 3469 3834 3577 3443 
Q 3686 3053 3686 2573 
Q 3686 2093 3577 1702 
Q 3469 1312 3267 1037 
Q 3066 762 2774 611 
Q 2483 461 2112 461 
z
" transform="scale(0.015625)"/>
      <path id="NanumGothicBold-c5b4" d="M 2061 454 
Q 1696 454 1405 611 
Q 1114 768 912 1046 
Q 710 1325 601 1715 
Q 493 2106 493 2573 
Q 493 3053 601 3443 
Q 710 3834 912 4109 
Q 1114 4384 1405 4534 
Q 1696 4685 2061 4685 
Q 2400 4685 2675 4557 
Q 2950 4429 3152 4195 
Q 3354 3962 3475 3629 
Q 3597 3296 3629 2886 
L 4582 2886 
L 4582 4979 
Q 4582 5062 4666 5062 
L 5235 5062 
Q 5318 5062 5318 4979 
L 5318 -928 
Q 5318 -1011 5235 -1011 
L 4666 -1011 
Q 4582 -1011 4582 -928 
L 4582 2272 
L 3629 2272 
Q 3597 1856 3475 1520 
Q 3354 1184 3152 947 
Q 2950 710 2675 582 
Q 2400 454 2061 454 
z
M 2918 2573 
Q 2918 2867 2860 3132 
Q 2803 3398 2694 3596 
Q 2586 3795 2426 3913 
Q 2266 4032 2061 4032 
Q 1862 4032 1705 3913 
Q 1549 3795 1440 3596 
Q 1331 3398 1273 3132 
Q 1216 2867 1216 2573 
Q 1216 2285 1273 2019 
Q 1331 1754 1440 1552 
Q 1549 1350 1705 1228 
Q 1862 1107 2061 1107 
Q 2266 1107 2426 1228 
Q 2586 1350 2694 1552 
Q 2803 1754 2860 2019 
Q 2918 2285 2918 2573 
z
" transform="scale(0.015625)"/>
      <path id="NanumGothicBold-c5d0" d="M 2342 2630 
Q 2342 2874 2304 3117 
Q 2266 3360 2182 3558 
Q 2099 3757 1968 3878 
Q 1837 4000 1658 4000 
Q 1491 4000 1369 3875 
Q 1248 3750 1171 3552 
Q 1094 3354 1056 3110 
Q 1018 2867 1018 2630 
Q 1018 2400 1056 2157 
Q 1094 1914 1171 1712 
Q 1248 1510 1369 1382 
Q 1491 1254 1658 1254 
Q 1837 1254 1965 1382 
Q 2093 1510 2176 1708 
Q 2259 1907 2300 2150 
Q 2342 2394 2342 2630 
z
M 4314 -717 
Q 4314 -806 4230 -806 
L 3706 -806 
Q 3616 -806 3616 -717 
L 3616 2291 
L 3034 2291 
Q 3002 1901 2883 1593 
Q 2765 1286 2582 1072 
Q 2400 858 2163 746 
Q 1926 634 1651 634 
Q 1344 634 1094 771 
Q 845 909 669 1168 
Q 493 1427 397 1798 
Q 301 2170 301 2637 
Q 301 3142 403 3520 
Q 506 3898 685 4147 
Q 864 4397 1110 4518 
Q 1357 4640 1651 4640 
Q 1933 4640 2176 4534 
Q 2419 4429 2604 4214 
Q 2790 4000 2905 3673 
Q 3021 3347 3046 2906 
L 3616 2906 
L 3616 4870 
Q 3616 4954 3706 4954 
L 4230 4954 
Q 4314 4954 4314 4870 
L 4314 -717 
z
M 5549 -934 
Q 5549 -1018 5466 -1018 
L 4909 -1018 
Q 4826 -1018 4826 -934 
L 4826 4979 
Q 4826 5062 4915 5062 
L 5466 5062 
Q 5549 5062 5549 4979 
L 5549 -934 
z
" transform="scale(0.015625)"/>
      <path id="NanumGothicBold-c11c" d="M 5382 -928 
Q 5382 -1011 5299 -1011 
L 4730 -1011 
Q 4646 -1011 4646 -928 
L 4646 2458 
L 3328 2458 
Q 3296 2458 3267 2483 
Q 3238 2509 3238 2541 
L 3238 2995 
Q 3238 3027 3267 3049 
Q 3296 3072 3328 3072 
L 4646 3072 
L 4646 4979 
Q 4646 5062 4730 5062 
L 5299 5062 
Q 5382 5062 5382 4979 
L 5382 -928 
z
M 800 339 
Q 678 243 576 346 
L 275 627 
Q 186 717 294 819 
Q 710 1203 1004 1664 
Q 1299 2125 1478 2650 
Q 1638 3117 1699 3600 
Q 1760 4083 1747 4653 
Q 1747 4691 1776 4720 
Q 1805 4749 1837 4749 
L 2406 4730 
Q 2438 4730 2464 4701 
Q 2490 4672 2490 4634 
Q 2490 3846 2374 3187 
Q 2432 2880 2566 2569 
Q 2701 2259 2883 1974 
Q 3066 1690 3277 1446 
Q 3488 1203 3699 1037 
Q 3802 960 3712 832 
L 3443 506 
Q 3411 461 3356 454 
Q 3302 448 3238 493 
Q 3078 614 2902 800 
Q 2726 986 2566 1200 
Q 2406 1414 2272 1641 
Q 2138 1869 2061 2080 
Q 1946 1811 1798 1561 
Q 1651 1312 1488 1085 
Q 1325 858 1149 669 
Q 973 480 800 339 
z
" transform="scale(0.015625)"/>
      <path id="NanumGothicBold-20" transform="scale(0.015625)"/>
      <path id="NanumGothicBold-b9c8" d="M 5965 2208 
Q 5965 2170 5936 2144 
Q 5907 2118 5875 2118 
L 5005 2118 
L 5005 -928 
Q 5005 -1011 4922 -1011 
L 4352 -1011 
Q 4269 -1011 4269 -928 
L 4269 4979 
Q 4269 5062 4352 5062 
L 4922 5062 
Q 5005 5062 5005 4979 
L 5005 2733 
L 5875 2733 
Q 5907 2733 5936 2710 
Q 5965 2688 5965 2656 
L 5965 2208 
z
M 3488 1229 
Q 3488 979 3385 880 
Q 3283 781 3040 781 
L 1030 781 
Q 762 781 659 880 
Q 557 979 557 1229 
L 557 4160 
Q 557 4403 656 4496 
Q 755 4589 998 4589 
L 3040 4589 
Q 3283 4589 3385 4502 
Q 3488 4416 3488 4160 
L 3488 1229 
z
M 2752 3904 
Q 2752 3955 2736 3971 
Q 2720 3987 2669 3987 
L 1370 3987 
Q 1318 3987 1302 3974 
Q 1286 3962 1286 3910 
L 1286 1466 
Q 1286 1408 1302 1395 
Q 1318 1382 1370 1382 
L 2669 1382 
Q 2720 1382 2736 1395 
Q 2752 1408 2752 1466 
L 2752 3904 
z
" transform="scale(0.015625)"/>
      <path id="NanumGothicBold-c6b0" d="M 5882 1286 
Q 5882 1254 5850 1219 
Q 5818 1184 5786 1184 
L 3366 1184 
L 3366 -877 
Q 3366 -966 3277 -966 
L 2720 -966 
Q 2630 -966 2630 -877 
L 2630 1184 
L 211 1184 
Q 173 1184 147 1219 
Q 122 1254 122 1286 
L 122 1702 
Q 122 1741 147 1769 
Q 173 1798 211 1798 
L 5786 1798 
Q 5818 1798 5850 1766 
Q 5882 1734 5882 1702 
L 5882 1286 
z
M 3002 2374 
Q 2592 2374 2214 2460 
Q 1837 2547 1545 2713 
Q 1254 2880 1078 3123 
Q 902 3366 902 3680 
Q 902 3994 1078 4237 
Q 1254 4480 1545 4646 
Q 1837 4813 2214 4899 
Q 2592 4986 3002 4986 
Q 3411 4986 3788 4899 
Q 4166 4813 4457 4646 
Q 4749 4480 4921 4237 
Q 5094 3994 5094 3680 
Q 5094 3366 4921 3123 
Q 4749 2880 4457 2713 
Q 4166 2547 3788 2460 
Q 3411 2374 3002 2374 
z
M 3002 4384 
Q 2752 4384 2515 4333 
Q 2278 4282 2089 4192 
Q 1901 4102 1785 3968 
Q 1670 3834 1670 3674 
Q 1670 3514 1785 3386 
Q 1901 3258 2089 3165 
Q 2278 3072 2515 3024 
Q 2752 2976 3002 2976 
Q 3251 2976 3488 3024 
Q 3725 3072 3910 3165 
Q 4096 3258 4211 3386 
Q 4326 3514 4326 3674 
Q 4326 3834 4211 3968 
Q 4096 4102 3910 4192 
Q 3725 4282 3488 4333 
Q 3251 4384 3002 4384 
z
" transform="scale(0.015625)"/>
      <path id="NanumGothicBold-c2a4" d="M 902 1760 
Q 870 1747 828 1756 
Q 787 1766 755 1818 
L 525 2214 
Q 499 2266 521 2307 
Q 544 2349 589 2362 
Q 1069 2541 1430 2749 
Q 1792 2957 2045 3225 
Q 2298 3494 2442 3840 
Q 2586 4186 2630 4640 
Q 2637 4685 2659 4729 
Q 2682 4774 2733 4768 
L 3290 4742 
Q 3398 4736 3392 4602 
Q 3386 4435 3354 4288 
Q 3430 3981 3622 3699 
Q 3814 3418 4092 3184 
Q 4371 2950 4710 2771 
Q 5050 2592 5414 2490 
Q 5459 2477 5468 2435 
Q 5478 2394 5466 2362 
L 5248 1952 
Q 5197 1856 5094 1882 
Q 4800 1958 4502 2099 
Q 4205 2240 3929 2429 
Q 3654 2618 3424 2851 
Q 3194 3085 3034 3354 
Q 2714 2790 2166 2393 
Q 1619 1997 902 1760 
z
M 5786 685 
Q 5818 685 5850 653 
Q 5882 621 5882 582 
L 5882 166 
Q 5882 134 5850 102 
Q 5818 70 5786 70 
L 211 70 
Q 173 70 147 102 
Q 122 134 122 166 
L 122 582 
Q 122 685 211 685 
L 5786 685 
z
" transform="scale(0.015625)"/>
      <path id="NanumGothicBold-b85c" d="M 5882 122 
Q 5882 90 5850 58 
Q 5818 26 5786 26 
L 211 26 
Q 173 26 147 58 
Q 122 90 122 122 
L 122 525 
Q 122 563 147 595 
Q 173 627 211 627 
L 2637 627 
L 2637 1581 
L 1491 1581 
Q 1350 1581 1260 1600 
Q 1171 1619 1120 1670 
Q 1069 1722 1049 1802 
Q 1030 1882 1030 2010 
L 1030 3040 
Q 1030 3168 1049 3248 
Q 1069 3328 1120 3376 
Q 1171 3424 1260 3440 
Q 1350 3456 1491 3456 
L 4154 3456 
Q 4218 3456 4234 3472 
Q 4250 3488 4250 3558 
L 4250 4058 
Q 4250 4128 4234 4137 
Q 4218 4147 4154 4147 
L 1139 4147 
Q 1107 4147 1081 4176 
Q 1056 4205 1056 4237 
L 1056 4666 
Q 1056 4698 1081 4723 
Q 1107 4749 1139 4749 
L 4506 4749 
Q 4774 4749 4870 4662 
Q 4966 4576 4966 4326 
L 4966 3290 
Q 4966 3040 4870 2953 
Q 4774 2867 4506 2867 
L 1837 2867 
Q 1773 2867 1760 2854 
Q 1747 2842 1747 2778 
L 1747 2272 
Q 1747 2202 1763 2186 
Q 1779 2170 1843 2170 
L 5018 2170 
Q 5050 2170 5075 2147 
Q 5101 2125 5101 2093 
L 5101 1664 
Q 5101 1632 5072 1606 
Q 5043 1581 5018 1581 
L 3373 1581 
L 3373 627 
L 5786 627 
Q 5818 627 5850 592 
Q 5882 557 5882 525 
L 5882 122 
z
" transform="scale(0.015625)"/>
      <path id="NanumGothicBold-d5a5" d="M 5069 77 
Q 5069 -160 4925 -358 
Q 4781 -557 4528 -697 
Q 4275 -838 3923 -915 
Q 3571 -992 3155 -992 
Q 2720 -992 2368 -915 
Q 2016 -838 1769 -697 
Q 1523 -557 1392 -358 
Q 1261 -160 1261 77 
Q 1261 314 1392 506 
Q 1523 698 1769 838 
Q 2016 979 2368 1056 
Q 2720 1133 3155 1133 
Q 3571 1133 3923 1056 
Q 4275 979 4528 838 
Q 4781 698 4925 506 
Q 5069 314 5069 77 
z
M 2118 3456 
Q 2413 3456 2665 3379 
Q 2918 3302 3104 3164 
Q 3290 3027 3395 2828 
Q 3501 2630 3501 2394 
Q 3501 2150 3395 1952 
Q 3290 1754 3101 1616 
Q 2912 1478 2659 1401 
Q 2406 1325 2112 1325 
Q 1824 1325 1574 1401 
Q 1325 1478 1139 1616 
Q 954 1754 848 1952 
Q 742 2150 742 2394 
Q 742 2630 848 2828 
Q 954 3027 1139 3164 
Q 1325 3302 1577 3379 
Q 1830 3456 2118 3456 
z
M 5875 2650 
Q 5914 2650 5942 2627 
Q 5971 2605 5971 2573 
L 5971 2118 
Q 5971 2086 5942 2060 
Q 5914 2035 5875 2035 
L 5011 2035 
L 5011 1318 
Q 5011 1235 4928 1235 
L 4358 1235 
Q 4275 1235 4275 1325 
L 4275 4979 
Q 4275 5062 4358 5062 
L 4928 5062 
Q 5011 5062 5011 4979 
L 5011 3821 
L 5875 3821 
Q 5914 3821 5942 3798 
Q 5971 3776 5971 3744 
L 5971 3296 
Q 5971 3264 5942 3238 
Q 5914 3213 5875 3213 
L 5011 3213 
L 5011 2650 
L 5875 2650 
z
M 3878 3738 
Q 3878 3699 3849 3670 
Q 3821 3642 3782 3642 
L 352 3642 
Q 314 3642 282 3674 
Q 250 3706 250 3744 
L 250 4102 
Q 250 4134 285 4169 
Q 320 4205 358 4205 
L 3782 4205 
Q 3821 4205 3849 4173 
Q 3878 4141 3878 4102 
L 3878 3738 
z
M 4314 58 
Q 4314 186 4221 285 
Q 4128 384 3968 451 
Q 3808 518 3600 550 
Q 3392 582 3155 582 
Q 2643 582 2332 451 
Q 2022 320 2022 58 
Q 2022 -192 2339 -313 
Q 2656 -435 3155 -435 
Q 3392 -435 3600 -406 
Q 3808 -378 3968 -314 
Q 4128 -250 4221 -160 
Q 4314 -70 4314 58 
z
M 2118 2899 
Q 1830 2899 1632 2761 
Q 1434 2624 1434 2394 
Q 1434 2157 1632 2019 
Q 1830 1882 2118 1882 
Q 2413 1882 2608 2019 
Q 2803 2157 2803 2394 
Q 2803 2624 2608 2761 
Q 2413 2899 2118 2899 
z
M 3046 4544 
Q 3046 4506 3017 4470 
Q 2989 4435 2938 4435 
L 1229 4435 
Q 1203 4435 1168 4460 
Q 1133 4486 1133 4538 
L 1133 4902 
Q 1133 4947 1168 4972 
Q 1203 4998 1229 4998 
L 2938 4998 
Q 2982 4998 3014 4966 
Q 3046 4934 3046 4896 
L 3046 4544 
z
" transform="scale(0.015625)"/>
      <path id="NanumGothicBold-d558" d="M 3917 3251 
Q 3917 3213 3888 3181 
Q 3859 3149 3821 3149 
L 352 3149 
Q 314 3149 278 3184 
Q 243 3219 243 3258 
L 243 3648 
Q 243 3680 278 3712 
Q 314 3744 352 3744 
L 3821 3744 
Q 3859 3744 3888 3715 
Q 3917 3686 3917 3648 
L 3917 3251 
z
M 3098 4275 
Q 3098 4237 3069 4205 
Q 3040 4173 2995 4173 
L 1197 4173 
Q 1171 4173 1136 4198 
Q 1101 4224 1101 4269 
L 1101 4691 
Q 1101 4736 1136 4761 
Q 1171 4787 1197 4787 
L 2995 4787 
Q 3034 4787 3066 4755 
Q 3098 4723 3098 4685 
L 3098 4275 
z
M 2131 2253 
Q 1805 2253 1609 2051 
Q 1414 1850 1414 1530 
Q 1414 1216 1609 1011 
Q 1805 806 2131 806 
Q 2470 806 2662 1011 
Q 2854 1216 2854 1530 
Q 2854 1850 2662 2051 
Q 2470 2253 2131 2253 
z
M 2131 2835 
Q 2445 2835 2707 2742 
Q 2970 2650 3155 2480 
Q 3341 2310 3446 2073 
Q 3552 1837 3552 1549 
Q 3552 1261 3446 1017 
Q 3341 774 3152 598 
Q 2963 422 2700 320 
Q 2438 218 2125 218 
Q 1811 218 1552 317 
Q 1293 416 1107 595 
Q 922 774 819 1017 
Q 717 1261 717 1549 
Q 717 1830 819 2067 
Q 922 2304 1110 2473 
Q 1299 2643 1558 2739 
Q 1818 2835 2131 2835 
z
M 5971 2118 
Q 5971 2086 5942 2060 
Q 5914 2035 5875 2035 
L 5011 2035 
L 5011 -928 
Q 5011 -1011 4928 -1011 
L 4358 -1011 
Q 4275 -1011 4275 -928 
L 4275 4979 
Q 4275 5062 4358 5062 
L 4928 5062 
Q 5011 5062 5011 4979 
L 5011 2650 
L 5875 2650 
Q 5914 2650 5942 2627 
Q 5971 2605 5971 2573 
L 5971 2118 
z
" transform="scale(0.015625)"/>
      <path id="NanumGothicBold-b294" d="M 5158 -787 
Q 5158 -826 5126 -845 
Q 5094 -864 5062 -864 
L 1542 -864 
Q 1248 -864 1149 -761 
Q 1050 -659 1050 -410 
L 1050 979 
Q 1050 1011 1078 1040 
Q 1107 1069 1139 1069 
L 1690 1069 
Q 1728 1069 1757 1040 
Q 1786 1011 1786 979 
L 1786 -147 
Q 1786 -211 1811 -230 
Q 1837 -250 1907 -250 
L 5062 -250 
Q 5094 -250 5126 -272 
Q 5158 -294 5158 -326 
L 5158 -787 
z
M 5082 2874 
Q 5082 2829 5053 2809 
Q 5024 2790 4992 2790 
L 1562 2790 
Q 1267 2790 1168 2896 
Q 1069 3002 1069 3251 
L 1069 4858 
Q 1069 4890 1097 4918 
Q 1126 4947 1158 4947 
L 1715 4947 
Q 1754 4947 1782 4918 
Q 1811 4890 1811 4858 
L 1811 3507 
Q 1811 3443 1836 3424 
Q 1862 3405 1933 3405 
L 4992 3405 
Q 5024 3405 5053 3382 
Q 5082 3360 5082 3328 
L 5082 2874 
z
M 5875 1619 
Q 5875 1587 5843 1552 
Q 5811 1517 5779 1517 
L 211 1517 
Q 173 1517 147 1549 
Q 122 1581 122 1619 
L 122 2042 
Q 122 2131 211 2131 
L 5779 2131 
Q 5811 2131 5843 2102 
Q 5875 2074 5875 2042 
L 5875 1619 
z
" transform="scale(0.015625)"/>
      <path id="NanumGothicBold-bc29" d="M 4307 186 
Q 4307 346 4214 464 
Q 4122 582 3965 665 
Q 3808 749 3600 790 
Q 3392 832 3155 832 
Q 2643 832 2329 669 
Q 2016 506 2016 186 
Q 2016 -115 2336 -272 
Q 2656 -429 3155 -429 
Q 3392 -429 3600 -390 
Q 3808 -352 3965 -275 
Q 4122 -198 4214 -83 
Q 4307 32 4307 186 
z
M 5062 205 
Q 5062 -64 4918 -288 
Q 4774 -512 4521 -672 
Q 4269 -832 3917 -921 
Q 3565 -1011 3155 -1011 
Q 2714 -1011 2365 -924 
Q 2016 -838 1769 -678 
Q 1523 -518 1392 -294 
Q 1261 -70 1261 205 
Q 1261 474 1392 698 
Q 1523 922 1769 1078 
Q 2016 1235 2365 1324 
Q 2714 1414 3155 1414 
Q 3565 1414 3917 1328 
Q 4269 1242 4521 1082 
Q 4774 922 4918 701 
Q 5062 480 5062 205 
z
M 5965 2963 
Q 5965 2931 5936 2905 
Q 5907 2880 5875 2880 
L 5005 2880 
L 5005 1594 
Q 5005 1562 4979 1533 
Q 4954 1504 4922 1504 
L 4352 1504 
Q 4320 1504 4294 1533 
Q 4269 1562 4269 1600 
L 4269 4979 
Q 4269 5062 4352 5062 
L 4922 5062 
Q 5005 5062 5005 4979 
L 5005 3488 
L 5875 3488 
Q 5907 3488 5936 3465 
Q 5965 3443 5965 3411 
L 5965 2963 
z
M 2688 3309 
L 1331 3309 
L 1331 2662 
Q 1331 2554 1446 2554 
L 2573 2554 
Q 2688 2554 2688 2662 
L 2688 3309 
z
M 3418 2381 
Q 3418 2163 3315 2057 
Q 3213 1952 2938 1952 
L 1088 1952 
Q 806 1952 704 2048 
Q 602 2144 602 2400 
L 602 4774 
Q 602 4858 685 4858 
L 1242 4858 
Q 1274 4858 1302 4832 
Q 1331 4806 1331 4774 
L 1331 3904 
L 2688 3904 
L 2688 4781 
Q 2688 4819 2713 4844 
Q 2739 4870 2771 4870 
L 3334 4870 
Q 3366 4870 3392 4844 
Q 3418 4819 3418 4781 
L 3418 2381 
z
" transform="scale(0.015625)"/>
     </defs>
     <use xlink:href="#NanumGothicBold-d50c"/>
     <use xlink:href="#NanumGothicBold-b808" transform="translate(93.999985 0)"/>
     <use xlink:href="#NanumGothicBold-c774" transform="translate(187.999969 0)"/>
     <use xlink:href="#NanumGothicBold-c5b4" transform="translate(281.999954 0)"/>
     <use xlink:href="#NanumGothicBold-c5d0" transform="translate(375.999939 0)"/>
     <use xlink:href="#NanumGothicBold-c11c" transform="translate(469.999924 0)"/>
     <use xlink:href="#NanumGothicBold-20" transform="translate(563.999908 0)"/>
     <use xlink:href="#NanumGothicBold-b9c8" transform="translate(591.999893 0)"/>
     <use xlink:href="#NanumGothicBold-c6b0" transform="translate(685.999878 0)"/>
     <use xlink:href="#NanumGothicBold-c2a4" transform="translate(779.999863 0)"/>
     <use xlink:href="#NanumGothicBold-b85c" transform="translate(873.999847 0)"/>
     <use xlink:href="#NanumGothicBold-20" transform="translate(967.999832 0)"/>
     <use xlink:href="#NanumGothicBold-d5a5" transform="translate(995.999817 0)"/>
     <use xlink:href="#NanumGothicBold-d558" transform="translate(1089.999802 0)"/>
     <use xlink:href="#NanumGothicBold-b294" transform="translate(1183.999786 0)"/>
     <use xlink:href="#NanumGothicBold-20" transform="translate(1277.999771 0)"/>
     <use xlink:href="#NanumGothicBold-bc29" transform="translate(1305.999756 0)"/>
     <use xlink:href="#NanumGothicBold-d5a5" transform="translate(1399.999741 0)"/>
    </g>
   </g>
   <g id="patch_2">
    <path d="M 90.967206 129.22173 
Q 209.520796 109.462799 324.986485 90.218517 
" clip-path="url(#p4ee28bc74c)" style="fill: none; stroke: #10b981; stroke-width: 2.8; stroke-linecap: round"/>
    <path d="M 319.002362 88.377248 
L 324.986485 90.218517 
L 319.922997 93.901054 
z
" clip-path="url(#p4ee28bc74c)" style="fill: #10b981; stroke: #10b981; stroke-width: 2.8; stroke-linecap: round"/>
   </g>
   <g id="text_2">
    <!-- player -->
    <g style="fill: #2563eb" transform="translate(73.7845 148.673831) scale(0.11 -0.11)">
     <defs>
      <path id="NanumGothic-70" d="M 2989 1504 
Q 2989 1766 2937 2012 
Q 2886 2259 2764 2451 
Q 2643 2643 2451 2761 
Q 2259 2880 1971 2880 
Q 1709 2880 1517 2771 
Q 1325 2662 1200 2473 
Q 1075 2285 1011 2035 
Q 947 1786 947 1504 
Q 947 762 1225 381 
Q 1504 0 1971 0 
Q 2214 0 2403 105 
Q 2592 211 2723 409 
Q 2854 608 2921 883 
Q 2989 1158 2989 1504 
z
M 518 3098 
Q 518 3187 608 3187 
L 851 3187 
Q 941 3187 941 3098 
L 909 2618 
Q 1037 2899 1341 3072 
Q 1645 3245 2048 3245 
Q 2426 3245 2691 3110 
Q 2957 2976 3126 2742 
Q 3296 2509 3376 2189 
Q 3456 1869 3456 1504 
Q 3456 1107 3363 768 
Q 3270 429 3094 179 
Q 2918 -70 2656 -214 
Q 2394 -358 2048 -358 
Q 1658 -358 1376 -208 
Q 1094 -58 947 211 
L 947 -1165 
Q 947 -1254 858 -1254 
L 614 -1254 
Q 576 -1254 547 -1228 
Q 518 -1203 518 -1165 
L 518 3098 
z
" transform="scale(0.015625)"/>
      <path id="NanumGothic-6c" d="M 1056 -186 
Q 1056 -275 966 -275 
L 685 -275 
Q 595 -275 595 -186 
L 595 4723 
Q 595 4813 685 4813 
L 966 4813 
Q 1056 4813 1056 4723 
L 1056 -186 
z
" transform="scale(0.015625)"/>
      <path id="NanumGothic-61" d="M 2566 1530 
L 2445 1530 
Q 2086 1542 1808 1500 
Q 1530 1459 1344 1389 
Q 1075 1293 940 1104 
Q 806 915 806 653 
Q 806 493 857 355 
Q 909 218 1018 141 
Q 1210 -13 1530 -13 
Q 1754 -13 1942 76 
Q 2131 166 2272 332 
Q 2413 499 2489 745 
Q 2566 992 2566 1312 
L 2566 1530 
z
M 742 2650 
Q 710 2630 681 2640 
Q 653 2650 653 2682 
L 653 2925 
Q 653 3014 742 3059 
Q 966 3181 1219 3229 
Q 1472 3277 1773 3277 
Q 2413 3277 2707 2973 
Q 3002 2669 3002 2054 
L 3002 448 
Q 3002 256 3008 105 
Q 3014 -45 3027 -186 
Q 3027 -275 2938 -275 
L 2707 -275 
Q 2618 -275 2618 -186 
L 2618 307 
Q 2483 -19 2166 -198 
Q 1850 -378 1478 -378 
Q 832 -378 531 0 
Q 429 128 377 297 
Q 326 467 326 634 
Q 326 1024 508 1305 
Q 691 1587 1069 1728 
Q 1530 1894 2483 1894 
L 2566 1894 
L 2566 2086 
Q 2566 2490 2384 2701 
Q 2202 2912 1773 2912 
Q 1485 2912 1229 2851 
Q 973 2790 742 2650 
z
" transform="scale(0.015625)"/>
      <path id="NanumGothic-79" d="M 301 -1222 
Q 224 -1203 237 -1126 
L 256 -909 
Q 256 -832 333 -864 
Q 435 -902 570 -902 
Q 704 -902 816 -860 
Q 928 -819 986 -749 
Q 1056 -659 1142 -454 
Q 1229 -250 1312 13 
Q 1024 794 742 1555 
Q 461 2317 173 3098 
Q 160 3130 173 3158 
Q 186 3187 224 3187 
L 525 3187 
Q 614 3187 653 3098 
L 1517 614 
Q 1754 1267 1968 1859 
Q 2182 2451 2419 3098 
Q 2451 3187 2547 3187 
L 2822 3187 
Q 2861 3187 2873 3158 
Q 2886 3130 2874 3098 
L 1542 -474 
Q 1472 -659 1385 -806 
Q 1299 -954 1210 -1043 
Q 1094 -1152 953 -1206 
Q 813 -1261 659 -1261 
Q 563 -1261 486 -1254 
Q 410 -1248 301 -1222 
z
" transform="scale(0.015625)"/>
      <path id="NanumGothic-65" d="M 2733 1696 
Q 2733 1958 2681 2163 
Q 2630 2368 2522 2534 
Q 2285 2912 1837 2912 
Q 1376 2912 1088 2528 
Q 973 2355 896 2131 
Q 819 1907 813 1696 
L 2733 1696 
z
M 813 1331 
Q 806 1011 886 764 
Q 966 518 1120 352 
Q 1274 186 1488 96 
Q 1702 6 1965 6 
Q 2221 6 2445 54 
Q 2669 102 2861 211 
Q 2944 250 2944 166 
L 2944 -122 
Q 2944 -179 2874 -211 
Q 2662 -294 2432 -336 
Q 2202 -378 1933 -378 
Q 1146 -378 742 80 
Q 339 538 339 1459 
Q 339 2272 742 2771 
Q 1165 3277 1811 3277 
Q 2170 3277 2432 3149 
Q 2694 3021 2880 2765 
Q 3206 2310 3206 1549 
Q 3206 1466 3203 1421 
Q 3200 1376 3181 1357 
Q 3162 1338 3114 1334 
Q 3066 1331 2976 1331 
L 813 1331 
z
" transform="scale(0.015625)"/>
      <path id="NanumGothic-72" d="M 2221 2797 
Q 2106 2835 1914 2835 
Q 1440 2835 1210 2368 
Q 1030 2003 1030 1434 
L 1030 -186 
Q 1030 -275 941 -275 
L 691 -275 
Q 602 -275 602 -186 
L 602 2413 
Q 602 2643 598 2787 
Q 595 2931 589 3098 
Q 589 3187 678 3187 
L 915 3187 
Q 1005 3187 1005 3098 
L 1005 2470 
Q 1318 3277 1926 3277 
Q 2074 3277 2221 3238 
Q 2259 3226 2288 3197 
Q 2317 3168 2317 3117 
L 2317 2848 
Q 2317 2810 2285 2797 
Q 2253 2784 2221 2797 
z
" transform="scale(0.015625)"/>
     </defs>
     <use xlink:href="#NanumGothic-70"/>
     <use xlink:href="#NanumGothic-6c" transform="translate(60.599991 0)"/>
     <use xlink:href="#NanumGothic-61" transform="translate(84.799988 0)"/>
     <use xlink:href="#NanumGothic-79" transform="translate(139.299973 0)"/>
     <use xlink:href="#NanumGothic-65" transform="translate(185.699966 0)"/>
     <use xlink:href="#NanumGothic-72" transform="translate(240.199951 0)"/>
    </g>
   </g>
   <g id="text_3">
    <!-- mouse -->
    <g style="fill: #f59e0b" transform="translate(313.059016 108.503847) scale(0.11 -0.11)">
     <defs>
      <path id="NanumGothic-6d" d="M 602 2374 
Q 602 2643 595 2800 
Q 589 2957 576 3098 
Q 576 3187 666 3187 
L 902 3187 
Q 992 3187 992 3098 
L 992 2752 
Q 1139 2989 1388 3126 
Q 1638 3264 2003 3264 
Q 2387 3264 2675 3075 
Q 2963 2886 3027 2522 
Q 3162 2886 3459 3075 
Q 3757 3264 4147 3264 
Q 4397 3264 4598 3174 
Q 4800 3085 4944 2928 
Q 5088 2771 5165 2560 
Q 5242 2349 5242 2112 
L 5242 -186 
Q 5242 -275 5152 -275 
L 4909 -275 
Q 4819 -275 4819 -192 
L 4819 2022 
Q 4819 2899 4083 2899 
Q 3859 2899 3683 2800 
Q 3507 2701 3382 2528 
Q 3258 2355 3197 2124 
Q 3136 1894 3142 1638 
L 3142 -186 
Q 3142 -275 3053 -275 
L 2797 -275 
Q 2707 -275 2707 -186 
L 2707 2022 
Q 2707 2899 1965 2899 
Q 1530 2899 1280 2617 
Q 1030 2336 1030 1875 
L 1030 -186 
Q 1030 -275 941 -275 
L 691 -275 
Q 602 -275 602 -186 
L 602 2374 
z
" transform="scale(0.015625)"/>
      <path id="NanumGothic-6f" d="M 3130 1453 
Q 3130 1754 3050 2016 
Q 2970 2278 2829 2483 
Q 2496 2893 1965 2893 
Q 1696 2893 1481 2787 
Q 1267 2682 1101 2483 
Q 954 2278 874 2016 
Q 794 1754 794 1453 
Q 794 1146 874 883 
Q 954 621 1101 422 
Q 1440 6 1965 6 
Q 2234 6 2448 115 
Q 2662 224 2829 422 
Q 2970 621 3050 883 
Q 3130 1146 3130 1453 
z
M 3603 1453 
Q 3603 1075 3494 752 
Q 3386 429 3206 186 
Q 2982 -83 2672 -230 
Q 2362 -378 1965 -378 
Q 1568 -378 1254 -230 
Q 941 -83 717 186 
Q 538 429 432 752 
Q 326 1075 326 1453 
Q 326 2227 717 2720 
Q 1165 3277 1965 3277 
Q 2368 3277 2675 3139 
Q 2982 3002 3206 2720 
Q 3603 2214 3603 1453 
z
" transform="scale(0.015625)"/>
      <path id="NanumGothic-75" d="M 3347 -186 
Q 3347 -275 3258 -275 
L 3027 -275 
Q 2938 -275 2938 -186 
L 2938 346 
Q 2771 -38 2492 -208 
Q 2214 -378 1792 -378 
Q 595 -378 595 960 
L 595 3098 
Q 595 3187 685 3187 
L 941 3187 
Q 1030 3187 1030 3098 
L 1030 1075 
Q 1030 -13 1862 -13 
Q 2106 -13 2301 92 
Q 2496 198 2630 380 
Q 2765 563 2835 806 
Q 2906 1050 2899 1318 
L 2899 3098 
Q 2899 3187 2989 3187 
L 3245 3187 
Q 3334 3187 3334 3098 
L 3334 525 
Q 3334 314 3337 147 
Q 3341 -19 3347 -186 
z
" transform="scale(0.015625)"/>
      <path id="NanumGothic-73" d="M 422 147 
Q 813 -13 1229 -13 
Q 1574 -13 1798 156 
Q 2022 326 2022 614 
Q 2022 781 1897 937 
Q 1773 1094 1594 1197 
Q 1395 1306 1187 1405 
Q 979 1504 787 1613 
Q 557 1741 448 1929 
Q 339 2118 339 2323 
Q 339 2560 428 2739 
Q 518 2918 672 3040 
Q 826 3162 1030 3219 
Q 1235 3277 1466 3277 
Q 1709 3277 1888 3251 
Q 2067 3226 2246 3174 
Q 2285 3162 2313 3136 
Q 2342 3110 2336 3066 
L 2317 2874 
Q 2310 2822 2278 2809 
Q 2246 2797 2214 2810 
Q 2054 2867 1894 2889 
Q 1734 2912 1510 2912 
Q 768 2912 768 2323 
Q 768 2195 867 2080 
Q 966 1965 1203 1850 
Q 1408 1747 1606 1654 
Q 1805 1562 2035 1434 
Q 2234 1325 2365 1101 
Q 2496 877 2496 614 
Q 2496 358 2393 172 
Q 2291 -13 2118 -134 
Q 1946 -256 1722 -317 
Q 1498 -378 1261 -378 
Q 1120 -378 1008 -371 
Q 896 -365 797 -352 
Q 698 -339 595 -320 
Q 493 -301 378 -269 
Q 288 -237 294 -154 
L 320 83 
Q 333 186 422 147 
z
" transform="scale(0.015625)"/>
     </defs>
     <use xlink:href="#NanumGothic-6d"/>
     <use xlink:href="#NanumGothic-6f" transform="translate(90.799988 0)"/>
     <use xlink:href="#NanumGothic-75" transform="translate(151.399979 0)"/>
     <use xlink:href="#NanumGothic-73" transform="translate(211.999969 0)"/>
     <use xlink:href="#NanumGothic-65" transform="translate(254.399963 0)"/>
    </g>
   </g>
   <g id="text_4">
    <!-- toMouse = mouse - player -->
    <g style="fill: #10b981" transform="translate(142.915859 98.453831) scale(0.11 -0.11)">
     <defs>
      <path id="NanumGothic-74" d="M 2208 -282 
Q 1939 -378 1677 -378 
Q 1158 -378 992 -38 
Q 883 192 883 774 
L 883 2816 
L 282 2816 
Q 192 2816 192 2906 
L 192 3098 
Q 192 3187 282 3187 
L 883 3187 
L 883 4051 
Q 883 4147 966 4147 
L 1235 4147 
Q 1318 4147 1318 4051 
L 1318 3187 
L 2029 3187 
Q 2118 3187 2118 3098 
L 2118 2906 
Q 2118 2816 2029 2816 
L 1318 2816 
L 1318 557 
Q 1318 -13 1779 -13 
Q 1958 -13 2182 64 
Q 2214 77 2243 64 
Q 2272 51 2272 13 
L 2285 -154 
Q 2298 -243 2208 -282 
z
" transform="scale(0.015625)"/>
      <path id="NanumGothic-4d" d="M 5523 -186 
Q 5523 -275 5434 -275 
L 5146 -275 
Q 5056 -275 5056 -186 
L 5056 4058 
Q 4582 2880 4205 1952 
Q 4045 1555 3891 1174 
Q 3738 794 3616 496 
Q 3494 198 3417 12 
Q 3341 -173 3341 -179 
Q 3309 -243 3245 -243 
L 2957 -243 
Q 2912 -243 2893 -227 
Q 2874 -211 2861 -179 
L 1094 4058 
L 1094 -186 
Q 1094 -275 1005 -275 
L 717 -275 
Q 627 -275 627 -186 
L 627 4294 
Q 627 4429 649 4451 
Q 672 4474 806 4474 
L 1286 4474 
Q 1338 4474 1360 4461 
Q 1382 4448 1402 4397 
L 3104 256 
L 4755 4403 
Q 4781 4474 4858 4474 
L 5344 4474 
Q 5478 4474 5500 4451 
Q 5523 4429 5523 4294 
L 5523 -186 
z
" transform="scale(0.015625)"/>
      <path id="NanumGothic-20" transform="scale(0.015625)"/>
      <path id="NanumGothic-3d" d="M 3757 2995 
Q 3827 2995 3836 2985 
Q 3846 2976 3846 2906 
L 3846 2618 
Q 3846 2547 3836 2537 
Q 3827 2528 3757 2528 
L 467 2528 
Q 397 2528 387 2537 
Q 378 2547 378 2618 
L 378 2906 
Q 378 2976 387 2985 
Q 397 2995 467 2995 
L 3757 2995 
z
M 3757 1626 
Q 3827 1626 3836 1616 
Q 3846 1606 3846 1536 
L 3846 1261 
Q 3846 1190 3836 1180 
Q 3827 1171 3757 1171 
L 467 1171 
Q 397 1171 387 1180 
Q 378 1190 378 1261 
L 378 1536 
Q 378 1606 387 1616 
Q 397 1626 467 1626 
L 3757 1626 
z
" transform="scale(0.015625)"/>
      <path id="NanumGothic-2d" d="M 1946 2419 
Q 2016 2419 2025 2409 
Q 2035 2400 2035 2330 
L 2035 2048 
Q 2035 1978 2025 1968 
Q 2016 1958 1946 1958 
L 448 1958 
Q 378 1958 368 1968 
Q 358 1978 358 2048 
L 358 2330 
Q 358 2400 368 2409 
Q 378 2419 448 2419 
L 1946 2419 
z
" transform="scale(0.015625)"/>
     </defs>
     <use xlink:href="#NanumGothic-74"/>
     <use xlink:href="#NanumGothic-6f" transform="translate(36.299988 0)"/>
     <use xlink:href="#NanumGothic-4d" transform="translate(96.899979 0)"/>
     <use xlink:href="#NanumGothic-6f" transform="translate(193.799973 0)"/>
     <use xlink:href="#NanumGothic-75" transform="translate(254.399963 0)"/>
     <use xlink:href="#NanumGothic-73" transform="translate(314.999954 0)"/>
     <use xlink:href="#NanumGothic-65" transform="translate(357.399948 0)"/>
     <use xlink:href="#NanumGothic-20" transform="translate(411.899933 0)"/>
     <use xlink:href="#NanumGothic-3d" transform="translate(439.899918 0)"/>
     <use xlink:href="#NanumGothic-20" transform="translate(505.299911 0)"/>
     <use xlink:href="#NanumGothic-6d" transform="translate(533.299896 0)"/>
     <use xlink:href="#NanumGothic-6f" transform="translate(624.099884 0)"/>
     <use xlink:href="#NanumGothic-75" transform="translate(684.699875 0)"/>
     <use xlink:href="#NanumGothic-73" transform="translate(745.299866 0)"/>
     <use xlink:href="#NanumGothic-65" transform="translate(787.69986 0)"/>
     <use xlink:href="#NanumGothic-20" transform="translate(842.199844 0)"/>
     <use xlink:href="#NanumGothic-2d" transform="translate(870.199829 0)"/>
     <use xlink:href="#NanumGothic-20" transform="translate(906.499817 0)"/>
     <use xlink:href="#NanumGothic-70" transform="translate(934.499802 0)"/>
     <use xlink:href="#NanumGothic-6c" transform="translate(995.099792 0)"/>
     <use xlink:href="#NanumGothic-61" transform="translate(1019.299789 0)"/>
     <use xlink:href="#NanumGothic-79" transform="translate(1073.799774 0)"/>
     <use xlink:href="#NanumGothic-65" transform="translate(1120.199768 0)"/>
     <use xlink:href="#NanumGothic-72" transform="translate(1174.699753 0)"/>
    </g>
   </g>
   <g id="text_5">
    <!-- 도착점 - 시작점을 하면 -->
    <g style="fill: #111827" transform="translate(52.8336 176.923955) scale(0.105 -0.105)">
     <defs>
      <path id="NanumGothic-b3c4" d="M 5030 1984 
Q 5030 1894 4947 1894 
L 3213 1894 
L 3213 499 
L 5728 499 
Q 5760 499 5792 476 
Q 5824 454 5824 416 
L 5824 198 
Q 5824 166 5792 140 
Q 5760 115 5728 115 
L 288 115 
Q 250 115 221 140 
Q 192 166 192 198 
L 192 416 
Q 192 454 221 476 
Q 250 499 288 499 
L 2771 499 
L 2771 1894 
L 1491 1894 
Q 1210 1894 1107 1987 
Q 1005 2080 1005 2349 
L 1005 4134 
Q 1005 4403 1107 4496 
Q 1210 4589 1491 4589 
L 4902 4589 
Q 4986 4589 4986 4506 
L 4986 4294 
Q 4986 4205 4902 4205 
L 1600 4205 
Q 1510 4205 1478 4166 
Q 1446 4128 1446 4032 
L 1446 2445 
Q 1446 2355 1478 2316 
Q 1510 2278 1600 2278 
L 4947 2278 
Q 5030 2278 5030 2195 
L 5030 1984 
z
" transform="scale(0.015625)"/>
      <path id="NanumGothic-cc29" d="M 3757 1677 
Q 3738 1632 3709 1619 
Q 3680 1606 3622 1626 
Q 3277 1760 2941 1952 
Q 2605 2144 2298 2394 
Q 1971 2125 1568 1881 
Q 1165 1638 666 1427 
Q 634 1414 602 1411 
Q 570 1408 550 1440 
L 435 1670 
Q 397 1734 480 1779 
Q 928 1984 1267 2179 
Q 1606 2374 1875 2576 
Q 2144 2778 2358 3005 
Q 2573 3232 2765 3507 
Q 2816 3584 2781 3629 
Q 2746 3674 2656 3674 
L 717 3674 
Q 640 3674 640 3757 
L 640 3981 
Q 640 4058 717 4058 
L 2829 4058 
Q 3162 4058 3280 3930 
Q 3398 3802 3251 3533 
Q 3123 3302 2963 3088 
Q 2803 2874 2598 2669 
Q 2886 2445 3190 2275 
Q 3494 2106 3795 2003 
Q 3885 1971 3853 1888 
L 3757 1677 
z
M 1197 973 
Q 1197 1011 1229 1030 
Q 1261 1050 1293 1050 
L 4442 1050 
Q 4742 1050 4835 938 
Q 4928 826 4928 563 
L 4928 -832 
Q 4928 -922 4838 -922 
L 4576 -922 
Q 4486 -922 4486 -832 
L 4486 531 
Q 4486 621 4457 643 
Q 4429 666 4339 666 
L 1293 666 
Q 1261 666 1229 688 
Q 1197 710 1197 742 
L 1197 973 
z
M 4928 1459 
Q 4928 1370 4838 1370 
L 4576 1370 
Q 4486 1370 4486 1459 
L 4486 4915 
Q 4486 5005 4576 5005 
L 4838 5005 
Q 4928 5005 4928 4915 
L 4928 3251 
L 5811 3251 
Q 5850 3251 5878 3228 
Q 5907 3206 5907 3168 
L 5907 2950 
Q 5907 2918 5878 2892 
Q 5850 2867 5811 2867 
L 4928 2867 
L 4928 1459 
z
M 2707 4877 
Q 2803 4877 2803 4787 
L 2803 4582 
Q 2803 4486 2707 4486 
L 1261 4486 
Q 1165 4486 1165 4582 
L 1165 4787 
Q 1165 4877 1261 4877 
L 2707 4877 
z
" transform="scale(0.015625)"/>
      <path id="NanumGothic-c810" d="M 1498 819 
Q 1498 1088 1600 1181 
Q 1702 1274 1984 1274 
L 4666 1274 
Q 4819 1274 4912 1254 
Q 5005 1235 5059 1184 
Q 5114 1133 5133 1043 
Q 5152 954 5152 819 
L 5152 -390 
Q 5152 -659 5049 -752 
Q 4947 -845 4666 -845 
L 1984 -845 
Q 1830 -845 1737 -825 
Q 1645 -806 1590 -752 
Q 1536 -698 1517 -611 
Q 1498 -525 1498 -390 
L 1498 819 
z
M 2093 890 
Q 2003 890 1971 854 
Q 1939 819 1939 723 
L 1939 -294 
Q 1939 -390 1971 -425 
Q 2003 -461 2093 -461 
L 4557 -461 
Q 4646 -461 4678 -425 
Q 4710 -390 4710 -294 
L 4710 723 
Q 4710 819 4678 854 
Q 4646 890 4557 890 
L 2093 890 
z
M 3309 4205 
Q 3219 3942 3056 3686 
Q 2893 3430 2669 3181 
Q 2886 2950 3206 2742 
Q 3526 2534 3904 2374 
Q 3955 2355 3961 2320 
Q 3968 2285 3949 2253 
L 3821 2022 
Q 3802 1990 3763 1987 
Q 3725 1984 3693 1997 
Q 3552 2061 3389 2150 
Q 3226 2240 3053 2355 
Q 2880 2470 2710 2604 
Q 2541 2739 2394 2886 
Q 2029 2528 1590 2233 
Q 1152 1939 704 1741 
Q 672 1728 640 1721 
Q 608 1715 589 1747 
L 461 1971 
Q 442 2003 458 2038 
Q 474 2074 506 2086 
Q 1331 2483 1913 2995 
Q 2496 3507 2822 4179 
Q 2867 4269 2835 4307 
Q 2803 4346 2714 4346 
L 838 4346 
Q 762 4346 762 4429 
L 762 4653 
Q 762 4730 838 4730 
L 2886 4730 
Q 3219 4730 3315 4611 
Q 3411 4493 3309 4205 
z
M 4710 3520 
L 4710 4915 
Q 4710 5005 4800 5005 
L 5062 5005 
Q 5152 5005 5152 4915 
L 5152 1728 
Q 5152 1638 5062 1638 
L 4800 1638 
Q 4710 1638 4710 1728 
L 4710 3136 
L 3526 3136 
Q 3443 3136 3443 3213 
L 3443 3443 
Q 3443 3520 3526 3520 
L 4710 3520 
z
" transform="scale(0.015625)"/>
      <path id="NanumGothic-c2dc" d="M 2406 4589 
Q 2406 4166 2371 3779 
Q 2336 3392 2259 3034 
Q 2323 2778 2457 2493 
Q 2592 2208 2774 1926 
Q 2957 1645 3184 1379 
Q 3411 1114 3667 902 
Q 3699 877 3702 838 
Q 3706 800 3686 774 
L 3526 576 
Q 3469 506 3392 576 
Q 3213 730 3024 944 
Q 2835 1158 2659 1395 
Q 2483 1632 2329 1881 
Q 2176 2131 2067 2362 
Q 1862 1779 1529 1289 
Q 1197 800 736 378 
Q 672 326 627 371 
L 435 570 
Q 416 589 419 621 
Q 422 653 454 685 
Q 845 1056 1133 1465 
Q 1421 1875 1603 2348 
Q 1786 2822 1872 3379 
Q 1958 3936 1958 4602 
Q 1958 4646 1980 4668 
Q 2003 4691 2035 4691 
L 2336 4678 
Q 2406 4678 2406 4589 
z
M 5152 -806 
Q 5152 -896 5062 -896 
L 4800 -896 
Q 4710 -896 4710 -806 
L 4710 4915 
Q 4710 5005 4800 5005 
L 5062 5005 
Q 5152 5005 5152 4915 
L 5152 -806 
z
" transform="scale(0.015625)"/>
      <path id="NanumGothic-c791" d="M 3264 4166 
Q 3174 3917 3020 3667 
Q 2867 3418 2656 3174 
Q 2880 2944 3209 2733 
Q 3539 2522 3917 2355 
Q 3955 2336 3952 2304 
Q 3949 2272 3936 2240 
L 3808 2016 
Q 3789 1984 3763 1971 
Q 3738 1958 3680 1990 
Q 3539 2054 3376 2144 
Q 3213 2234 3040 2349 
Q 2867 2464 2697 2598 
Q 2528 2733 2381 2880 
Q 2010 2515 1565 2211 
Q 1120 1907 659 1702 
Q 627 1690 595 1683 
Q 563 1677 544 1709 
L 416 1933 
Q 397 1965 413 2000 
Q 429 2035 461 2048 
Q 1286 2445 1868 2957 
Q 2451 3469 2778 4141 
Q 2822 4230 2790 4268 
Q 2758 4307 2669 4307 
L 794 4307 
Q 717 4307 717 4390 
L 717 4614 
Q 717 4691 806 4691 
L 2842 4691 
Q 3174 4691 3270 4572 
Q 3366 4454 3264 4166 
z
M 1197 1139 
Q 1197 1178 1229 1197 
Q 1261 1216 1293 1216 
L 4442 1216 
Q 4595 1216 4691 1197 
Q 4787 1178 4838 1123 
Q 4890 1069 4909 976 
Q 4928 883 4928 730 
L 4928 -832 
Q 4928 -922 4838 -922 
L 4576 -922 
Q 4486 -922 4486 -832 
L 4486 698 
Q 4486 787 4457 809 
Q 4429 832 4339 832 
L 1293 832 
Q 1261 832 1229 854 
Q 1197 877 1197 909 
L 1197 1139 
z
M 4928 1670 
Q 4928 1581 4838 1581 
L 4576 1581 
Q 4486 1581 4486 1670 
L 4486 4915 
Q 4486 5005 4576 5005 
L 4838 5005 
Q 4928 5005 4928 4915 
L 4928 3392 
L 5811 3392 
Q 5850 3392 5878 3369 
Q 5907 3347 5907 3309 
L 5907 3091 
Q 5907 3059 5878 3033 
Q 5850 3008 5811 3008 
L 4928 3008 
L 4928 1670 
z
" transform="scale(0.015625)"/>
      <path id="NanumGothic-c744" d="M 3002 2874 
Q 2701 2874 2355 2918 
Q 2010 2963 1715 3088 
Q 1421 3213 1229 3424 
Q 1037 3635 1037 3974 
Q 1037 4307 1229 4518 
Q 1421 4730 1715 4851 
Q 2010 4973 2355 5021 
Q 2701 5069 3002 5069 
Q 3315 5069 3660 5024 
Q 4006 4979 4297 4857 
Q 4589 4736 4777 4521 
Q 4966 4307 4966 3974 
Q 4966 3635 4774 3424 
Q 4582 3213 4291 3088 
Q 4000 2963 3654 2918 
Q 3309 2874 3002 2874 
z
M 3002 4678 
Q 2797 4678 2537 4652 
Q 2278 4627 2048 4550 
Q 1818 4474 1661 4333 
Q 1504 4192 1504 3968 
Q 1504 3744 1661 3606 
Q 1818 3469 2048 3392 
Q 2278 3315 2537 3289 
Q 2797 3264 3002 3264 
Q 3206 3264 3465 3289 
Q 3725 3315 3955 3392 
Q 4186 3469 4342 3606 
Q 4499 3744 4499 3968 
Q 4499 4192 4339 4333 
Q 4179 4474 3948 4550 
Q 3718 4627 3459 4652 
Q 3200 4678 3002 4678 
z
M 5728 2483 
Q 5760 2483 5792 2460 
Q 5824 2438 5824 2400 
L 5824 2182 
Q 5824 2150 5792 2124 
Q 5760 2099 5728 2099 
L 288 2099 
Q 250 2099 221 2124 
Q 192 2150 192 2182 
L 192 2400 
Q 192 2438 221 2460 
Q 250 2483 288 2483 
L 5728 2483 
z
M 5056 -781 
Q 5056 -813 5027 -835 
Q 4998 -858 4973 -858 
L 1568 -858 
Q 1267 -858 1174 -746 
Q 1082 -634 1082 -365 
L 1082 96 
Q 1082 365 1194 457 
Q 1306 550 1594 550 
L 4346 550 
Q 4435 550 4460 576 
Q 4486 602 4486 698 
L 4486 1056 
Q 4486 1152 4464 1177 
Q 4442 1203 4352 1203 
L 1158 1203 
Q 1126 1203 1097 1222 
Q 1069 1242 1069 1274 
L 1069 1498 
Q 1069 1530 1097 1549 
Q 1126 1568 1158 1568 
L 4416 1568 
Q 4570 1568 4666 1545 
Q 4762 1523 4819 1472 
Q 4877 1421 4899 1328 
Q 4922 1235 4922 1101 
L 4922 640 
Q 4922 371 4810 278 
Q 4698 186 4410 186 
L 1651 186 
Q 1562 186 1539 160 
Q 1517 134 1517 38 
L 1517 -339 
Q 1517 -429 1542 -457 
Q 1568 -486 1658 -486 
L 4966 -486 
Q 4998 -486 5027 -505 
Q 5056 -525 5056 -557 
L 5056 -781 
z
" transform="scale(0.015625)"/>
      <path id="NanumGothic-d558" d="M 3546 1542 
Q 3546 1280 3440 1056 
Q 3334 832 3148 662 
Q 2963 493 2707 397 
Q 2451 301 2157 301 
Q 1856 301 1603 397 
Q 1350 493 1164 659 
Q 979 826 873 1053 
Q 768 1280 768 1542 
Q 768 1811 873 2038 
Q 979 2266 1164 2432 
Q 1350 2598 1603 2694 
Q 1856 2790 2157 2790 
Q 2451 2790 2707 2691 
Q 2963 2592 3148 2425 
Q 3334 2259 3440 2028 
Q 3546 1798 3546 1542 
z
M 4928 -806 
Q 4928 -896 4838 -896 
L 4576 -896 
Q 4486 -896 4486 -806 
L 4486 4915 
Q 4486 5005 4576 5005 
L 4838 5005 
Q 4928 5005 4928 4915 
L 4928 2554 
L 5811 2554 
Q 5850 2554 5878 2531 
Q 5907 2509 5907 2470 
L 5907 2253 
Q 5907 2221 5878 2195 
Q 5850 2170 5811 2170 
L 4928 2170 
L 4928 -806 
z
M 3110 1542 
Q 3110 1728 3040 1888 
Q 2970 2048 2842 2166 
Q 2714 2285 2538 2352 
Q 2362 2419 2157 2419 
Q 1952 2419 1776 2352 
Q 1600 2285 1472 2166 
Q 1344 2048 1270 1888 
Q 1197 1728 1197 1542 
Q 1197 1357 1270 1200 
Q 1344 1043 1472 924 
Q 1600 806 1776 739 
Q 1952 672 2157 672 
Q 2362 672 2538 739 
Q 2714 806 2842 921 
Q 2970 1037 3040 1197 
Q 3110 1357 3110 1542 
z
M 4026 3328 
Q 4026 3245 3930 3245 
L 397 3245 
Q 365 3245 336 3270 
Q 307 3296 307 3334 
L 307 3539 
Q 307 3578 336 3603 
Q 365 3629 397 3629 
L 3930 3629 
Q 4026 3629 4026 3546 
L 4026 3328 
z
M 3091 4416 
Q 3091 4326 2995 4326 
L 1242 4326 
Q 1210 4326 1181 4348 
Q 1152 4371 1152 4410 
L 1152 4627 
Q 1152 4666 1177 4691 
Q 1203 4717 1235 4717 
L 2995 4717 
Q 3091 4717 3091 4627 
L 3091 4416 
z
" transform="scale(0.015625)"/>
      <path id="NanumGothic-ba74" d="M 5152 877 
Q 5152 787 5062 787 
L 4800 787 
Q 4710 787 4710 877 
L 4710 2381 
L 3443 2381 
L 3443 2227 
Q 3443 1958 3340 1865 
Q 3238 1773 2957 1773 
L 1197 1773 
Q 1043 1773 950 1792 
Q 858 1811 803 1865 
Q 749 1920 729 2006 
Q 710 2093 710 2227 
L 710 4205 
Q 710 4474 812 4566 
Q 915 4659 1197 4659 
L 2957 4659 
Q 3110 4659 3203 4640 
Q 3296 4621 3350 4569 
Q 3405 4518 3424 4428 
Q 3443 4339 3443 4205 
L 3443 3974 
L 4710 3974 
L 4710 4915 
Q 4710 5005 4800 5005 
L 5062 5005 
Q 5152 5005 5152 4915 
L 5152 877 
z
M 1306 4275 
Q 1216 4275 1184 4240 
Q 1152 4205 1152 4109 
L 1152 2323 
Q 1152 2227 1184 2192 
Q 1216 2157 1306 2157 
L 2848 2157 
Q 2938 2157 2970 2192 
Q 3002 2227 3002 2323 
L 3002 4109 
Q 3002 4205 2970 4240 
Q 2938 4275 2848 4275 
L 1306 4275 
z
M 5350 -704 
Q 5350 -742 5318 -761 
Q 5286 -781 5254 -781 
L 2048 -781 
Q 1747 -781 1654 -669 
Q 1562 -557 1562 -294 
L 1562 1005 
Q 1562 1094 1651 1094 
L 1914 1094 
Q 2003 1094 2003 1005 
L 2003 -262 
Q 2003 -352 2032 -374 
Q 2061 -397 2150 -397 
L 5254 -397 
Q 5286 -397 5318 -419 
Q 5350 -442 5350 -474 
L 5350 -704 
z
M 3443 2758 
L 4710 2758 
L 4710 3597 
L 3443 3597 
L 3443 2758 
z
" transform="scale(0.015625)"/>
     </defs>
     <use xlink:href="#NanumGothic-b3c4"/>
     <use xlink:href="#NanumGothic-cc29" transform="translate(93.999985 0)"/>
     <use xlink:href="#NanumGothic-c810" transform="translate(187.999969 0)"/>
     <use xlink:href="#NanumGothic-20" transform="translate(281.999954 0)"/>
     <use xlink:href="#NanumGothic-2d" transform="translate(309.999939 0)"/>
     <use xlink:href="#NanumGothic-20" transform="translate(346.299927 0)"/>
     <use xlink:href="#NanumGothic-c2dc" transform="translate(374.299911 0)"/>
     <use xlink:href="#NanumGothic-c791" transform="translate(468.299896 0)"/>
     <use xlink:href="#NanumGothic-c810" transform="translate(562.299881 0)"/>
     <use xlink:href="#NanumGothic-c744" transform="translate(656.299866 0)"/>
     <use xlink:href="#NanumGothic-20" transform="translate(750.29985 0)"/>
     <use xlink:href="#NanumGothic-d558" transform="translate(778.299835 0)"/>
     <use xlink:href="#NanumGothic-ba74" transform="translate(872.29982 0)"/>
    </g>
    <!-- 플레이어에서 마우스로 가는 방향 벡터가 됩니다. -->
    <g style="fill: #111827" transform="translate(52.8336 188.456892) scale(0.105 -0.105)">
     <defs>
      <path id="NanumGothic-d50c" d="M 5037 3072 
Q 5037 2989 4941 2989 
L 998 2989 
Q 966 2989 937 3014 
Q 909 3040 909 3078 
L 909 3277 
Q 909 3315 937 3340 
Q 966 3366 998 3366 
L 1786 3366 
L 1786 4614 
L 1126 4614 
Q 1094 4614 1065 4640 
Q 1037 4666 1037 4704 
L 1037 4902 
Q 1037 4941 1065 4966 
Q 1094 4992 1126 4992 
L 4813 4992 
Q 4909 4992 4909 4909 
L 4909 4698 
Q 4909 4614 4813 4614 
L 4186 4614 
L 4186 3366 
L 4941 3366 
Q 5037 3366 5037 3283 
L 5037 3072 
z
M 5056 -781 
Q 5056 -813 5027 -835 
Q 4998 -858 4973 -858 
L 1568 -858 
Q 1267 -858 1174 -746 
Q 1082 -634 1082 -365 
L 1082 70 
Q 1082 339 1194 432 
Q 1306 525 1594 525 
L 4346 525 
Q 4435 525 4460 550 
Q 4486 576 4486 672 
L 4486 1005 
Q 4486 1101 4464 1126 
Q 4442 1152 4352 1152 
L 1158 1152 
Q 1126 1152 1097 1171 
Q 1069 1190 1069 1222 
L 1069 1446 
Q 1069 1478 1097 1497 
Q 1126 1517 1158 1517 
L 4416 1517 
Q 4570 1517 4666 1494 
Q 4762 1472 4819 1421 
Q 4877 1370 4899 1277 
Q 4922 1184 4922 1050 
L 4922 614 
Q 4922 346 4810 253 
Q 4698 160 4410 160 
L 1651 160 
Q 1562 160 1539 134 
Q 1517 109 1517 13 
L 1517 -339 
Q 1517 -429 1542 -457 
Q 1568 -486 1658 -486 
L 4966 -486 
Q 4998 -486 5027 -505 
Q 5056 -525 5056 -557 
L 5056 -781 
z
M 5728 2419 
Q 5760 2419 5792 2396 
Q 5824 2374 5824 2336 
L 5824 2118 
Q 5824 2086 5792 2060 
Q 5760 2035 5728 2035 
L 288 2035 
Q 250 2035 221 2060 
Q 192 2086 192 2118 
L 192 2336 
Q 192 2374 221 2396 
Q 250 2419 288 2419 
L 5728 2419 
z
M 2221 3366 
L 3750 3366 
L 3750 4614 
L 2221 4614 
L 2221 3366 
z
" transform="scale(0.015625)"/>
      <path id="NanumGothic-b808" d="M 973 608 
Q 685 621 585 726 
Q 486 832 486 1101 
L 486 2323 
Q 486 2592 598 2685 
Q 710 2778 998 2778 
L 2061 2778 
Q 2150 2778 2176 2803 
Q 2202 2829 2202 2925 
L 2202 3949 
Q 2202 4045 2179 4070 
Q 2157 4096 2067 4096 
L 602 4096 
Q 570 4096 541 4115 
Q 512 4134 512 4166 
L 512 4410 
Q 512 4442 541 4461 
Q 570 4480 602 4480 
L 2138 4480 
Q 2291 4480 2387 4457 
Q 2483 4435 2540 4384 
Q 2598 4333 2620 4240 
Q 2643 4147 2643 4013 
L 2643 2848 
Q 2643 2579 2531 2486 
Q 2419 2394 2131 2394 
L 1062 2394 
Q 973 2394 950 2368 
Q 928 2342 928 2246 
L 928 1133 
Q 928 986 1069 986 
Q 1587 986 2099 1050 
Q 2611 1114 3091 1222 
Q 3181 1242 3200 1158 
L 3238 941 
Q 3251 858 3155 832 
Q 2611 704 2060 646 
Q 1510 589 973 608 
z
M 3808 2739 
L 3808 4806 
Q 3808 4896 3898 4896 
L 4141 4896 
Q 4230 4896 4230 4806 
L 4230 -563 
Q 4230 -653 4141 -653 
L 3898 -653 
Q 3808 -653 3808 -563 
L 3808 2355 
L 2976 2355 
Q 2893 2355 2893 2432 
L 2893 2662 
Q 2893 2739 2976 2739 
L 3808 2739 
z
M 5363 -806 
Q 5363 -896 5274 -896 
L 5030 -896 
Q 4941 -896 4941 -806 
L 4941 4915 
Q 4941 5005 5030 5005 
L 5274 5005 
Q 5363 5005 5363 4915 
L 5363 -806 
z
" transform="scale(0.015625)"/>
      <path id="NanumGothic-c774" d="M 3654 2566 
Q 3654 2208 3568 1843 
Q 3482 1478 3296 1184 
Q 3110 890 2819 701 
Q 2528 512 2118 512 
Q 1696 512 1405 697 
Q 1114 883 938 1180 
Q 762 1478 685 1843 
Q 608 2208 608 2566 
Q 608 2944 685 3312 
Q 762 3680 938 3974 
Q 1114 4269 1405 4448 
Q 1696 4627 2118 4627 
Q 2528 4627 2819 4448 
Q 3110 4269 3296 3977 
Q 3482 3686 3568 3318 
Q 3654 2950 3654 2566 
z
M 3200 2573 
Q 3200 2867 3139 3168 
Q 3078 3469 2950 3709 
Q 2822 3949 2617 4099 
Q 2413 4250 2118 4250 
Q 1811 4250 1609 4099 
Q 1408 3949 1286 3709 
Q 1165 3469 1113 3168 
Q 1062 2867 1062 2573 
Q 1062 2291 1110 1993 
Q 1158 1696 1280 1449 
Q 1402 1203 1606 1046 
Q 1811 890 2118 890 
Q 2413 890 2617 1046 
Q 2822 1203 2950 1449 
Q 3078 1696 3139 1993 
Q 3200 2291 3200 2573 
z
M 5152 -806 
Q 5152 -896 5062 -896 
L 4800 -896 
Q 4710 -896 4710 -806 
L 4710 4915 
Q 4710 5005 4800 5005 
L 5062 5005 
Q 5152 5005 5152 4915 
L 5152 -806 
z
" transform="scale(0.015625)"/>
      <path id="NanumGothic-c5b4" d="M 5152 -806 
Q 5152 -896 5062 -896 
L 4800 -896 
Q 4710 -896 4710 -806 
L 4710 2381 
L 3565 2381 
Q 3546 2042 3446 1709 
Q 3347 1376 3161 1110 
Q 2976 845 2697 678 
Q 2419 512 2035 512 
Q 1613 512 1321 697 
Q 1030 883 854 1180 
Q 678 1478 601 1843 
Q 525 2208 525 2566 
Q 525 2944 601 3312 
Q 678 3680 854 3974 
Q 1030 4269 1321 4448 
Q 1613 4627 2035 4627 
Q 2419 4627 2697 4470 
Q 2976 4314 3161 4051 
Q 3347 3789 3446 3453 
Q 3546 3117 3565 2765 
L 4710 2765 
L 4710 4915 
Q 4710 5005 4800 5005 
L 5062 5005 
Q 5152 5005 5152 4915 
L 5152 -806 
z
M 3117 2573 
Q 3117 2861 3056 3155 
Q 2995 3450 2867 3686 
Q 2739 3923 2534 4070 
Q 2330 4218 2035 4218 
Q 1728 4218 1526 4070 
Q 1325 3923 1203 3686 
Q 1082 3450 1030 3155 
Q 979 2861 979 2573 
Q 979 2298 1027 2003 
Q 1075 1709 1196 1469 
Q 1318 1229 1523 1075 
Q 1728 922 2035 922 
Q 2330 922 2534 1075 
Q 2739 1229 2867 1469 
Q 2995 1709 3056 2003 
Q 3117 2298 3117 2573 
z
" transform="scale(0.015625)"/>
      <path id="NanumGothic-c5d0" d="M 4230 -563 
Q 4230 -653 4141 -653 
L 3898 -653 
Q 3808 -653 3808 -563 
L 3808 2419 
L 3085 2419 
Q 3059 1978 2944 1648 
Q 2829 1318 2643 1097 
Q 2458 877 2218 768 
Q 1978 659 1709 659 
Q 1421 659 1177 784 
Q 934 909 755 1155 
Q 576 1402 473 1773 
Q 371 2144 371 2643 
Q 371 3142 473 3510 
Q 576 3878 758 4124 
Q 941 4371 1184 4489 
Q 1427 4608 1715 4608 
Q 1990 4608 2230 4499 
Q 2470 4390 2656 4166 
Q 2842 3942 2954 3603 
Q 3066 3264 3085 2803 
L 3808 2803 
L 3808 4806 
Q 3808 4896 3898 4896 
L 4141 4896 
Q 4230 4896 4230 4806 
L 4230 -563 
z
M 2643 2643 
Q 2643 2938 2585 3219 
Q 2528 3501 2413 3725 
Q 2298 3949 2122 4086 
Q 1946 4224 1709 4224 
Q 1459 4224 1289 4083 
Q 1120 3942 1014 3715 
Q 909 3488 864 3206 
Q 819 2925 819 2643 
Q 819 2362 870 2077 
Q 922 1792 1027 1561 
Q 1133 1331 1302 1187 
Q 1472 1043 1709 1043 
Q 1946 1043 2122 1184 
Q 2298 1325 2413 1552 
Q 2528 1779 2585 2067 
Q 2643 2355 2643 2643 
z
M 5363 -806 
Q 5363 -896 5274 -896 
L 5030 -896 
Q 4941 -896 4941 -806 
L 4941 4915 
Q 4941 5005 5030 5005 
L 5274 5005 
Q 5363 5005 5363 4915 
L 5363 -806 
z
" transform="scale(0.015625)"/>
      <path id="NanumGothic-c11c" d="M 5152 -806 
Q 5152 -896 5062 -896 
L 4800 -896 
Q 4710 -896 4710 -806 
L 4710 2534 
L 3309 2534 
Q 3226 2534 3226 2611 
L 3226 2842 
Q 3226 2918 3309 2918 
L 4710 2918 
L 4710 4915 
Q 4710 5005 4800 5005 
L 5062 5005 
Q 5152 5005 5152 4915 
L 5152 -806 
z
M 2323 4589 
Q 2323 4166 2288 3779 
Q 2253 3392 2176 3034 
Q 2240 2778 2374 2493 
Q 2509 2208 2691 1926 
Q 2874 1645 3101 1379 
Q 3328 1114 3584 902 
Q 3616 877 3619 838 
Q 3622 800 3603 774 
L 3443 576 
Q 3386 506 3309 576 
Q 3130 730 2941 944 
Q 2752 1158 2576 1395 
Q 2400 1632 2246 1881 
Q 2093 2131 1984 2362 
Q 1779 1779 1446 1289 
Q 1114 800 653 378 
Q 589 326 544 371 
L 352 570 
Q 333 589 336 621 
Q 339 653 371 685 
Q 762 1056 1050 1465 
Q 1338 1875 1520 2348 
Q 1702 2822 1788 3379 
Q 1875 3936 1875 4602 
Q 1875 4646 1897 4668 
Q 1920 4691 1952 4691 
L 2253 4678 
Q 2323 4678 2323 4589 
z
" transform="scale(0.015625)"/>
      <path id="NanumGothic-b9c8" d="M 608 4070 
Q 608 4339 710 4432 
Q 813 4525 1094 4525 
L 2976 4525 
Q 3130 4525 3222 4505 
Q 3315 4486 3369 4435 
Q 3424 4384 3443 4294 
Q 3462 4205 3462 4070 
L 3462 1235 
Q 3462 966 3360 873 
Q 3258 781 2976 781 
L 1094 781 
Q 941 781 848 800 
Q 755 819 700 873 
Q 646 928 627 1014 
Q 608 1101 608 1235 
L 608 4070 
z
M 1203 4141 
Q 1114 4141 1082 4105 
Q 1050 4070 1050 3974 
L 1050 1331 
Q 1050 1235 1082 1200 
Q 1114 1165 1203 1165 
L 2867 1165 
Q 2957 1165 2989 1200 
Q 3021 1235 3021 1331 
L 3021 3974 
Q 3021 4070 2989 4105 
Q 2957 4141 2867 4141 
L 1203 4141 
z
M 4928 -806 
Q 4928 -896 4838 -896 
L 4576 -896 
Q 4486 -896 4486 -806 
L 4486 4915 
Q 4486 5005 4576 5005 
L 4838 5005 
Q 4928 5005 4928 4915 
L 4928 2586 
L 5811 2586 
Q 5850 2586 5878 2563 
Q 5907 2541 5907 2502 
L 5907 2285 
Q 5907 2253 5878 2227 
Q 5850 2202 5811 2202 
L 4928 2202 
L 4928 -806 
z
" transform="scale(0.015625)"/>
      <path id="NanumGothic-c6b0" d="M 2995 2387 
Q 2669 2387 2307 2457 
Q 1946 2528 1642 2678 
Q 1338 2829 1142 3072 
Q 947 3315 947 3661 
Q 947 4006 1142 4249 
Q 1338 4493 1642 4643 
Q 1946 4794 2307 4861 
Q 2669 4928 2995 4928 
Q 3328 4928 3693 4861 
Q 4058 4794 4355 4643 
Q 4653 4493 4848 4249 
Q 5043 4006 5043 3661 
Q 5043 3315 4848 3072 
Q 4653 2829 4355 2678 
Q 4058 2528 3693 2457 
Q 3328 2387 2995 2387 
z
M 2995 4525 
Q 2771 4525 2499 4489 
Q 2227 4454 1987 4358 
Q 1747 4262 1584 4092 
Q 1421 3923 1421 3654 
Q 1421 3386 1584 3219 
Q 1747 3053 1987 2957 
Q 2227 2861 2499 2825 
Q 2771 2790 2995 2790 
Q 3213 2790 3485 2825 
Q 3757 2861 3997 2957 
Q 4237 3053 4403 3219 
Q 4570 3386 4570 3654 
Q 4570 3923 4403 4092 
Q 4237 4262 3997 4358 
Q 3757 4454 3485 4489 
Q 3213 4525 2995 4525 
z
M 2854 -858 
Q 2822 -858 2796 -829 
Q 2771 -800 2771 -762 
L 2771 1331 
L 288 1331 
Q 250 1331 221 1356 
Q 192 1382 192 1414 
L 192 1632 
Q 192 1670 221 1692 
Q 250 1715 288 1715 
L 5728 1715 
Q 5760 1715 5792 1692 
Q 5824 1670 5824 1632 
L 5824 1414 
Q 5824 1382 5792 1356 
Q 5760 1331 5728 1331 
L 3213 1331 
L 3213 -762 
Q 3213 -800 3190 -829 
Q 3168 -858 3130 -858 
L 2854 -858 
z
" transform="scale(0.015625)"/>
      <path id="NanumGothic-c2a4" d="M 3232 4608 
Q 3213 4429 3168 4269 
Q 3181 4198 3200 4137 
Q 3219 4077 3245 4032 
Q 3405 3718 3632 3436 
Q 3859 3155 4128 2924 
Q 4397 2694 4701 2524 
Q 5005 2355 5325 2266 
Q 5363 2253 5376 2214 
Q 5389 2176 5376 2144 
L 5274 1933 
Q 5254 1901 5232 1881 
Q 5210 1862 5146 1888 
Q 4794 2010 4470 2195 
Q 4147 2381 3868 2614 
Q 3590 2848 3360 3126 
Q 3130 3405 2963 3706 
Q 2816 3398 2598 3110 
Q 2381 2822 2112 2576 
Q 1843 2330 1529 2131 
Q 1216 1933 870 1805 
Q 768 1766 742 1830 
L 627 2054 
Q 614 2086 624 2121 
Q 634 2157 672 2176 
Q 1101 2336 1465 2595 
Q 1830 2854 2108 3177 
Q 2387 3501 2563 3878 
Q 2739 4256 2790 4653 
Q 2797 4730 2874 4730 
L 3162 4698 
Q 3238 4685 3232 4608 
z
M 5728 499 
Q 5760 499 5792 476 
Q 5824 454 5824 416 
L 5824 198 
Q 5824 166 5792 140 
Q 5760 115 5728 115 
L 288 115 
Q 250 115 221 140 
Q 192 166 192 198 
L 192 416 
Q 192 454 221 476 
Q 250 499 288 499 
L 5728 499 
z
" transform="scale(0.015625)"/>
      <path id="NanumGothic-b85c" d="M 2771 499 
L 2771 1613 
L 1491 1613 
Q 1190 1613 1097 1725 
Q 1005 1837 1005 2106 
L 1005 2906 
Q 1005 3181 1117 3270 
Q 1229 3360 1517 3360 
L 4403 3360 
Q 4493 3360 4515 3385 
Q 4538 3411 4538 3507 
L 4538 4173 
Q 4538 4269 4515 4294 
Q 4493 4320 4403 4320 
L 1094 4320 
Q 1062 4320 1033 4339 
Q 1005 4358 1005 4390 
L 1005 4634 
Q 1005 4666 1033 4685 
Q 1062 4704 1094 4704 
L 4474 4704 
Q 4627 4704 4723 4681 
Q 4819 4659 4876 4608 
Q 4934 4557 4956 4464 
Q 4979 4371 4979 4237 
L 4979 3437 
Q 4979 3162 4867 3072 
Q 4755 2982 4467 2982 
L 1581 2982 
Q 1491 2982 1468 2956 
Q 1446 2931 1446 2835 
L 1446 2144 
Q 1446 2054 1472 2025 
Q 1498 1997 1587 1997 
L 5024 1997 
Q 5056 1997 5085 1977 
Q 5114 1958 5114 1926 
L 5114 1690 
Q 5114 1658 5085 1635 
Q 5056 1613 5030 1613 
L 3213 1613 
L 3213 499 
L 5728 499 
Q 5760 499 5792 476 
Q 5824 454 5824 416 
L 5824 198 
Q 5824 166 5792 140 
Q 5760 115 5728 115 
L 288 115 
Q 250 115 221 140 
Q 192 166 192 198 
L 192 416 
Q 192 454 221 476 
Q 250 499 288 499 
L 2771 499 
z
" transform="scale(0.015625)"/>
      <path id="NanumGothic-ac00" d="M 3245 4064 
Q 3213 3514 3027 2982 
Q 2842 2451 2512 1968 
Q 2182 1485 1718 1072 
Q 1254 659 666 346 
Q 582 301 544 365 
L 403 589 
Q 358 666 429 698 
Q 973 979 1392 1340 
Q 1811 1702 2108 2124 
Q 2406 2547 2579 3014 
Q 2752 3482 2797 3974 
Q 2810 4070 2771 4105 
Q 2733 4141 2643 4141 
L 659 4141 
Q 582 4141 582 4224 
L 582 4448 
Q 582 4525 659 4525 
L 2765 4525 
Q 3066 4525 3162 4413 
Q 3258 4301 3245 4064 
z
M 4928 -806 
Q 4928 -896 4838 -896 
L 4576 -896 
Q 4486 -896 4486 -806 
L 4486 4915 
Q 4486 5005 4576 5005 
L 4838 5005 
Q 4928 5005 4928 4915 
L 4928 2650 
L 5811 2650 
Q 5850 2650 5878 2627 
Q 5907 2605 5907 2566 
L 5907 2349 
Q 5907 2317 5878 2291 
Q 5850 2266 5811 2266 
L 4928 2266 
L 4928 -806 
z
" transform="scale(0.015625)"/>
      <path id="NanumGothic-b294" d="M 5037 2893 
Q 5037 2854 5005 2835 
Q 4973 2816 4941 2816 
L 1619 2816 
Q 1318 2816 1225 2941 
Q 1133 3066 1133 3328 
L 1133 4806 
Q 1133 4896 1222 4896 
L 1485 4896 
Q 1574 4896 1574 4806 
L 1574 3341 
Q 1574 3251 1603 3225 
Q 1632 3200 1722 3200 
L 4941 3200 
Q 4973 3200 5005 3177 
Q 5037 3155 5037 3123 
L 5037 2893 
z
M 5133 -704 
Q 5133 -742 5101 -761 
Q 5069 -781 5037 -781 
L 1562 -781 
Q 1261 -781 1168 -656 
Q 1075 -531 1075 -269 
L 1075 979 
Q 1075 1069 1165 1069 
L 1427 1069 
Q 1517 1069 1517 979 
L 1517 -262 
Q 1517 -352 1545 -374 
Q 1574 -397 1664 -397 
L 5037 -397 
Q 5069 -397 5101 -419 
Q 5133 -442 5133 -474 
L 5133 -704 
z
M 5728 1958 
Q 5760 1958 5792 1936 
Q 5824 1914 5824 1875 
L 5824 1658 
Q 5824 1626 5792 1600 
Q 5760 1574 5728 1574 
L 288 1574 
Q 250 1574 221 1600 
Q 192 1626 192 1658 
L 192 1875 
Q 192 1914 221 1936 
Q 250 1958 288 1958 
L 5728 1958 
z
" transform="scale(0.015625)"/>
      <path id="NanumGothic-bc29" d="M 5005 250 
Q 5005 -26 4857 -243 
Q 4710 -461 4457 -611 
Q 4205 -762 3869 -842 
Q 3533 -922 3149 -922 
Q 2733 -922 2393 -842 
Q 2054 -762 1811 -611 
Q 1568 -461 1433 -243 
Q 1299 -26 1299 250 
Q 1299 518 1433 732 
Q 1568 947 1811 1097 
Q 2054 1248 2393 1328 
Q 2733 1408 3149 1408 
Q 3533 1408 3869 1328 
Q 4205 1248 4457 1101 
Q 4710 954 4857 739 
Q 5005 525 5005 250 
z
M 1158 1971 
Q 1005 1971 912 1990 
Q 819 2010 768 2064 
Q 717 2118 697 2204 
Q 678 2291 678 2426 
L 678 4730 
Q 678 4762 704 4784 
Q 730 4806 762 4806 
L 1037 4806 
Q 1069 4806 1091 4780 
Q 1114 4755 1114 4730 
L 1114 3731 
L 2982 3731 
L 2982 4723 
Q 2982 4755 3004 4780 
Q 3027 4806 3059 4806 
L 3334 4806 
Q 3366 4806 3392 4784 
Q 3418 4762 3418 4730 
L 3418 2381 
Q 3418 2138 3315 2054 
Q 3213 1971 2931 1971 
L 1158 1971 
z
M 4550 230 
Q 4550 422 4435 569 
Q 4320 717 4125 816 
Q 3930 915 3674 969 
Q 3418 1024 3142 1024 
Q 2835 1024 2579 969 
Q 2323 915 2140 816 
Q 1958 717 1856 569 
Q 1754 422 1754 230 
Q 1754 45 1856 -99 
Q 1958 -243 2140 -339 
Q 2323 -435 2579 -486 
Q 2835 -538 3142 -538 
Q 3418 -538 3674 -486 
Q 3930 -435 4125 -339 
Q 4320 -243 4435 -99 
Q 4550 45 4550 230 
z
M 4928 1530 
Q 4928 1440 4838 1440 
L 4576 1440 
Q 4486 1440 4486 1530 
L 4486 4915 
Q 4486 5005 4576 5005 
L 4838 5005 
Q 4928 5005 4928 4915 
L 4928 3373 
L 5811 3373 
Q 5850 3373 5878 3347 
Q 5907 3322 5907 3283 
L 5907 3072 
Q 5907 3040 5878 3014 
Q 5850 2989 5811 2989 
L 4928 2989 
L 4928 1530 
z
M 1114 3354 
L 1114 2502 
Q 1114 2406 1146 2377 
Q 1178 2349 1267 2349 
L 2829 2349 
Q 2918 2349 2950 2377 
Q 2982 2406 2982 2502 
L 2982 3354 
L 1114 3354 
z
" transform="scale(0.015625)"/>
      <path id="NanumGothic-d5a5" d="M 5005 64 
Q 5005 -160 4857 -339 
Q 4710 -518 4457 -646 
Q 4205 -774 3869 -844 
Q 3533 -915 3149 -915 
Q 2733 -915 2393 -844 
Q 2054 -774 1811 -646 
Q 1568 -518 1433 -339 
Q 1299 -160 1299 64 
Q 1299 282 1433 458 
Q 1568 634 1811 762 
Q 2054 890 2393 960 
Q 2733 1030 3149 1030 
Q 3533 1030 3869 963 
Q 4205 896 4457 768 
Q 4710 640 4857 461 
Q 5005 282 5005 64 
z
M 3533 2413 
Q 3533 2182 3427 1993 
Q 3322 1805 3139 1664 
Q 2957 1523 2704 1446 
Q 2451 1370 2157 1370 
Q 1856 1370 1606 1446 
Q 1357 1523 1171 1664 
Q 986 1805 883 1997 
Q 781 2189 781 2413 
Q 781 2643 883 2835 
Q 986 3027 1171 3161 
Q 1357 3296 1606 3373 
Q 1856 3450 2157 3450 
Q 2451 3450 2704 3373 
Q 2957 3296 3139 3158 
Q 3322 3021 3427 2829 
Q 3533 2637 3533 2413 
z
M 4550 45 
Q 4550 192 4435 307 
Q 4320 422 4125 502 
Q 3930 582 3674 624 
Q 3418 666 3142 666 
Q 2835 666 2579 624 
Q 2323 582 2140 502 
Q 1958 422 1856 307 
Q 1754 192 1754 45 
Q 1754 -96 1856 -208 
Q 1958 -320 2140 -397 
Q 2323 -474 2579 -512 
Q 2835 -550 3142 -550 
Q 3418 -550 3674 -512 
Q 3930 -474 4125 -397 
Q 4320 -320 4435 -208 
Q 4550 -96 4550 45 
z
M 4928 1254 
Q 4928 1165 4838 1165 
L 4576 1165 
Q 4486 1165 4486 1254 
L 4486 4915 
Q 4486 5005 4576 5005 
L 4838 5005 
Q 4928 5005 4928 4915 
L 4928 3776 
L 5811 3776 
Q 5850 3776 5878 3753 
Q 5907 3731 5907 3693 
L 5907 3482 
Q 5907 3450 5878 3424 
Q 5850 3398 5811 3398 
L 4928 3398 
L 4928 2630 
L 5811 2630 
Q 5850 2630 5878 2608 
Q 5907 2586 5907 2547 
L 5907 2336 
Q 5907 2304 5878 2278 
Q 5850 2253 5811 2253 
L 4928 2253 
L 4928 1254 
z
M 3104 2413 
Q 3104 2566 3033 2691 
Q 2963 2816 2835 2902 
Q 2707 2989 2534 3037 
Q 2362 3085 2157 3085 
Q 1952 3085 1779 3037 
Q 1606 2989 1478 2902 
Q 1350 2816 1276 2691 
Q 1203 2566 1203 2413 
Q 1203 2259 1276 2134 
Q 1350 2010 1478 1920 
Q 1606 1830 1779 1782 
Q 1952 1734 2157 1734 
Q 2362 1734 2534 1782 
Q 2707 1830 2835 1920 
Q 2963 2010 3033 2134 
Q 3104 2259 3104 2413 
z
M 4026 3827 
Q 4026 3744 3930 3744 
L 397 3744 
Q 365 3744 336 3769 
Q 307 3795 307 3834 
L 307 4038 
Q 307 4077 336 4102 
Q 365 4128 397 4128 
L 3930 4128 
Q 4026 4128 4026 4045 
L 4026 3827 
z
M 3091 4608 
Q 3091 4518 2995 4518 
L 1242 4518 
Q 1210 4518 1181 4540 
Q 1152 4563 1152 4602 
L 1152 4819 
Q 1152 4858 1177 4883 
Q 1203 4909 1235 4909 
L 2995 4909 
Q 3091 4909 3091 4819 
L 3091 4608 
z
" transform="scale(0.015625)"/>
      <path id="NanumGothic-bca1" d="M 998 1984 
Q 845 1984 752 2003 
Q 659 2022 608 2076 
Q 557 2131 537 2217 
Q 518 2304 518 2438 
L 518 4704 
Q 518 4736 544 4758 
Q 570 4781 602 4781 
L 877 4781 
Q 909 4781 931 4755 
Q 954 4730 954 4704 
L 954 3725 
L 2477 3725 
L 2477 4698 
Q 2477 4730 2499 4755 
Q 2522 4781 2554 4781 
L 2829 4781 
Q 2861 4781 2886 4758 
Q 2912 4736 2912 4704 
L 2912 3469 
L 3808 3469 
L 3808 4806 
Q 3808 4896 3898 4896 
L 4141 4896 
Q 4230 4896 4230 4806 
L 4230 1734 
Q 4230 1645 4141 1645 
L 3898 1645 
Q 3808 1645 3808 1734 
L 3808 3085 
L 2912 3085 
L 2912 2394 
Q 2912 2150 2809 2067 
Q 2707 1984 2426 1984 
L 998 1984 
z
M 1440 1114 
Q 1440 1152 1472 1171 
Q 1504 1190 1536 1190 
L 4877 1190 
Q 5178 1190 5270 1078 
Q 5363 966 5363 704 
L 5363 -832 
Q 5363 -922 5274 -922 
L 5011 -922 
Q 4922 -922 4922 -832 
L 4922 672 
Q 4922 762 4893 784 
Q 4864 806 4774 806 
L 1536 806 
Q 1504 806 1472 828 
Q 1440 851 1440 883 
L 1440 1114 
z
M 954 3347 
L 954 2515 
Q 954 2419 986 2390 
Q 1018 2362 1107 2362 
L 2323 2362 
Q 2413 2362 2445 2390 
Q 2477 2419 2477 2515 
L 2477 3347 
L 954 3347 
z
M 5363 1638 
Q 5363 1549 5274 1549 
L 5030 1549 
Q 4941 1549 4941 1638 
L 4941 4915 
Q 4941 5005 5030 5005 
L 5274 5005 
Q 5363 5005 5363 4915 
L 5363 1638 
z
" transform="scale(0.015625)"/>
      <path id="NanumGothic-d130" d="M 2982 2464 
Q 2797 2451 2582 2441 
Q 2368 2432 2150 2425 
Q 1933 2419 1728 2419 
Q 1523 2419 1357 2426 
L 1088 2426 
L 1088 1229 
Q 1088 1133 1120 1097 
Q 1152 1062 1242 1062 
Q 1779 1050 2406 1098 
Q 3034 1146 3590 1254 
Q 3699 1274 3718 1184 
L 3750 998 
Q 3763 941 3744 918 
Q 3725 896 3667 883 
Q 3398 826 3078 784 
Q 2758 742 2425 713 
Q 2093 685 1763 672 
Q 1434 659 1146 666 
Q 858 672 752 800 
Q 646 928 646 1197 
L 646 4077 
Q 646 4346 748 4435 
Q 851 4525 1133 4525 
L 3142 4525 
Q 3226 4525 3226 4448 
L 3226 4218 
Q 3226 4141 3142 4141 
L 1216 4141 
Q 1126 4141 1107 4118 
Q 1088 4096 1088 4000 
L 1088 2797 
L 1357 2797 
Q 1517 2797 1718 2797 
Q 1920 2797 2137 2803 
Q 2355 2810 2572 2816 
Q 2790 2822 2982 2835 
Q 3021 2842 3043 2816 
Q 3066 2790 3066 2758 
L 3066 2541 
Q 3066 2477 2982 2464 
z
M 5152 -806 
Q 5152 -896 5062 -896 
L 4800 -896 
Q 4710 -896 4710 -806 
L 4710 2470 
L 3622 2470 
Q 3539 2470 3539 2547 
L 3539 2778 
Q 3539 2854 3622 2854 
L 4710 2854 
L 4710 4915 
Q 4710 5005 4800 5005 
L 5062 5005 
Q 5152 5005 5152 4915 
L 5152 -806 
z
" transform="scale(0.015625)"/>
      <path id="NanumGothic-b429" d="M 1850 -845 
Q 1696 -845 1603 -825 
Q 1510 -806 1459 -752 
Q 1408 -698 1389 -611 
Q 1370 -525 1370 -390 
L 1370 1197 
Q 1370 1229 1395 1248 
Q 1421 1267 1453 1267 
L 1734 1267 
Q 1766 1267 1788 1244 
Q 1811 1222 1811 1197 
L 1811 621 
L 4710 621 
L 4710 1216 
Q 4710 1248 4732 1273 
Q 4755 1299 4787 1299 
L 5069 1299 
Q 5101 1299 5126 1276 
Q 5152 1254 5152 1222 
L 5152 -435 
Q 5152 -678 5049 -761 
Q 4947 -845 4666 -845 
L 1850 -845 
z
M 3770 2931 
Q 3770 2842 3686 2842 
L 2509 2842 
L 2509 2093 
Q 2995 2106 3443 2134 
Q 3891 2163 4256 2208 
Q 4314 2214 4330 2198 
Q 4346 2182 4352 2150 
L 4378 1933 
Q 4384 1894 4368 1872 
Q 4352 1850 4294 1843 
Q 3731 1779 3059 1737 
Q 2387 1696 1728 1696 
L 397 1696 
Q 358 1696 329 1721 
Q 301 1747 301 1779 
L 301 2003 
Q 301 2042 329 2061 
Q 358 2080 397 2080 
L 1504 2080 
L 2067 2080 
L 2067 2842 
L 1331 2842 
Q 1050 2842 947 2934 
Q 845 3027 845 3296 
L 845 4282 
Q 845 4550 947 4643 
Q 1050 4736 1331 4736 
L 3642 4736 
Q 3725 4736 3725 4653 
L 3725 4442 
Q 3725 4352 3642 4352 
L 1440 4352 
Q 1350 4352 1318 4317 
Q 1286 4282 1286 4186 
L 1286 3392 
Q 1286 3302 1318 3264 
Q 1350 3226 1440 3226 
L 3686 3226 
Q 3770 3226 3770 3142 
L 3770 2931 
z
M 1811 237 
L 1811 -307 
Q 1811 -403 1843 -432 
Q 1875 -461 1965 -461 
L 4557 -461 
Q 4646 -461 4678 -432 
Q 4710 -403 4710 -307 
L 4710 237 
L 1811 237 
z
M 5152 1747 
Q 5152 1658 5062 1658 
L 4800 1658 
Q 4710 1658 4710 1747 
L 4710 4915 
Q 4710 5005 4800 5005 
L 5062 5005 
Q 5152 5005 5152 4915 
L 5152 1747 
z
" transform="scale(0.015625)"/>
      <path id="NanumGothic-b2c8" d="M 5152 -806 
Q 5152 -896 5062 -896 
L 4800 -896 
Q 4710 -896 4710 -806 
L 4710 4915 
Q 4710 5005 4800 5005 
L 5062 5005 
Q 5152 5005 5152 4915 
L 5152 -806 
z
M 1267 1440 
Q 1267 1344 1299 1312 
Q 1331 1280 1421 1274 
Q 1734 1261 2089 1270 
Q 2445 1280 2803 1309 
Q 3162 1338 3504 1382 
Q 3846 1427 4141 1485 
Q 4250 1510 4269 1408 
L 4301 1229 
Q 4320 1139 4218 1114 
Q 4000 1062 3657 1017 
Q 3315 973 2918 937 
Q 2522 902 2106 886 
Q 1690 870 1331 877 
Q 1043 883 934 1011 
Q 826 1139 826 1408 
L 826 4557 
Q 826 4646 915 4646 
L 1178 4646 
Q 1267 4646 1267 4557 
L 1267 1440 
z
" transform="scale(0.015625)"/>
      <path id="NanumGothic-b2e4" d="M 4019 1171 
Q 4032 1082 3936 1062 
Q 3699 1005 3337 953 
Q 2976 902 2576 864 
Q 2176 826 1785 806 
Q 1395 787 1107 794 
Q 819 800 713 928 
Q 608 1056 608 1325 
L 608 4077 
Q 608 4346 710 4435 
Q 813 4525 1094 4525 
L 3296 4525 
Q 3379 4525 3379 4448 
L 3379 4218 
Q 3379 4141 3296 4141 
L 1178 4141 
Q 1088 4141 1069 4118 
Q 1050 4096 1050 4000 
L 1050 1357 
Q 1050 1261 1082 1229 
Q 1114 1197 1203 1190 
Q 1510 1178 1852 1194 
Q 2195 1210 2544 1245 
Q 2893 1280 3229 1328 
Q 3565 1376 3866 1434 
Q 3968 1453 3987 1363 
L 4019 1171 
z
M 4928 -806 
Q 4928 -896 4838 -896 
L 4576 -896 
Q 4486 -896 4486 -806 
L 4486 4915 
Q 4486 5005 4576 5005 
L 4838 5005 
Q 4928 5005 4928 4915 
L 4928 2586 
L 5811 2586 
Q 5850 2586 5878 2563 
Q 5907 2541 5907 2502 
L 5907 2285 
Q 5907 2253 5878 2227 
Q 5850 2202 5811 2202 
L 4928 2202 
L 4928 -806 
z
" transform="scale(0.015625)"/>
      <path id="NanumGothic-2e" d="M 691 -256 
Q 691 -122 784 -29 
Q 877 64 1011 64 
Q 1146 64 1238 -29 
Q 1331 -122 1331 -256 
Q 1331 -390 1238 -483 
Q 1146 -576 1011 -576 
Q 877 -576 784 -483 
Q 691 -390 691 -256 
z
" transform="scale(0.015625)"/>
     </defs>
     <use xlink:href="#NanumGothic-d50c"/>
     <use xlink:href="#NanumGothic-b808" transform="translate(93.999985 0)"/>
     <use xlink:href="#NanumGothic-c774" transform="translate(187.999969 0)"/>
     <use xlink:href="#NanumGothic-c5b4" transform="translate(281.999954 0)"/>
     <use xlink:href="#NanumGothic-c5d0" transform="translate(375.999939 0)"/>
     <use xlink:href="#NanumGothic-c11c" transform="translate(469.999924 0)"/>
     <use xlink:href="#NanumGothic-20" transform="translate(563.999908 0)"/>
     <use xlink:href="#NanumGothic-b9c8" transform="translate(591.999893 0)"/>
     <use xlink:href="#NanumGothic-c6b0" transform="translate(685.999878 0)"/>
     <use xlink:href="#NanumGothic-c2a4" transform="translate(779.999863 0)"/>
     <use xlink:href="#NanumGothic-b85c" transform="translate(873.999847 0)"/>
     <use xlink:href="#NanumGothic-20" transform="translate(967.999832 0)"/>
     <use xlink:href="#NanumGothic-ac00" transform="translate(995.999817 0)"/>
     <use xlink:href="#NanumGothic-b294" transform="translate(1089.999802 0)"/>
     <use xlink:href="#NanumGothic-20" transform="translate(1183.999786 0)"/>
     <use xlink:href="#NanumGothic-bc29" transform="translate(1211.999771 0)"/>
     <use xlink:href="#NanumGothic-d5a5" transform="translate(1305.999756 0)"/>
     <use xlink:href="#NanumGothic-20" transform="translate(1399.999741 0)"/>
     <use xlink:href="#NanumGothic-bca1" transform="translate(1427.999725 0)"/>
     <use xlink:href="#NanumGothic-d130" transform="translate(1521.99971 0)"/>
     <use xlink:href="#NanumGothic-ac00" transform="translate(1615.999695 0)"/>
     <use xlink:href="#NanumGothic-20" transform="translate(1709.99968 0)"/>
     <use xlink:href="#NanumGothic-b429" transform="translate(1737.999664 0)"/>
     <use xlink:href="#NanumGothic-b2c8" transform="translate(1831.999649 0)"/>
     <use xlink:href="#NanumGothic-b2e4" transform="translate(1925.999634 0)"/>
     <use xlink:href="#NanumGothic-2e" transform="translate(2019.999619 0)"/>
    </g>
   </g>
  </g>
 </g>
 <defs>
  <clipPath id="p4ee28bc74c">
   <rect x="8.64" y="29.110931" width="401.76" height="172.7568"/>
  </clipPath>
 </defs>
</svg>
