<?xml version="1.0" encoding="utf-8" standalone="no"?>
<!DOCTYPE svg PUBLIC "-//W3C//DTD SVG 1.1//EN"
  "http://www.w3.org/Graphics/SVG/1.1/DTD/svg11.dtd">
<svg xmlns:xlink="http://www.w3.org/1999/xlink" width="323.586pt" height="334.0065pt" viewBox="0 0 323.586 334.0065" xmlns="http://www.w3.org/2000/svg" version="1.1">
 <metadata>
  <rdf:RDF xmlns:dc="http://purl.org/dc/elements/1.1/" xmlns:cc="http://creativecommons.org/ns#" xmlns:rdf="http://www.w3.org/1999/02/22-rdf-syntax-ns#">
   <cc:Work>
    <dc:type rdf:resource="http://purl.org/dc/dcmitype/StillImage"/>
    <dc:date>2026-07-08T05:12:54.950102</dc:date>
    <dc:format>image/svg+xml</dc:format>
    <dc:creator>
     <cc:Agent>
      <dc:title>Matplotlib v3.10.8, https://matplotlib.org/</dc:title>
     </cc:Agent>
    </dc:creator>
   </cc:Work>
  </rdf:RDF>
 </metadata>
 <defs>
  <style type="text/css">*{stroke-linejoin: round; stroke-linecap: butt}</style>
 </defs>
 <g id="figure_1">
  <g id="patch_1">
   <path d="M 0 334.0065 
L 323.586 334.0065 
L 323.586 0 
L 0 0 
z
" style="fill: #ffffff"/>
  </g>
  <g id="axes_1">
   <g id="patch_2">
    <path d="M 152.784 280.3215 
C 176.676147 280.3215 199.592951 270.829049 216.48725 253.93475 
C 233.381549 237.040451 242.874 214.123647 242.874 190.2315 
C 242.874 166.339353 233.381549 143.422549 216.48725 126.52825 
C 199.592951 109.633951 176.676147 100.1415 152.784 100.1415 
C 128.891853 100.1415 105.975049 109.633951 89.08075 126.52825 
C 72.186451 143.422549 62.694 166.339353 62.694 190.2315 
C 62.694 214.123647 72.186451 237.040451 89.08075 253.93475 
C 105.975049 270.829049 128.891853 280.3215 152.784 280.3215 
L 152.784 280.3215 
z
" clip-path="url(#p181ff76082)" style="fill: none; stroke: #111827; stroke-width: 2; stroke-linejoin: miter"/>
   </g>
   <g id="line2d_1">
    <path d="M 216.48725 190.2315 
L 216.48725 126.52825 
" clip-path="url(#p181ff76082)" style="fill: none; stroke-dasharray: 5.55,2.4; stroke-dashoffset: 0; stroke: #6b7280; stroke-width: 1.5"/>
   </g>
   <g id="line2d_2">
    <path d="M 152.784 126.52825 
L 216.48725 126.52825 
" clip-path="url(#p181ff76082)" style="fill: none; stroke-dasharray: 5.55,2.4; stroke-dashoffset: 0; stroke: #6b7280; stroke-width: 1.5"/>
   </g>
   <g id="text_1">
    <!-- 단위원: cos는 x, sin은 y -->
    <g style="fill: #111827" transform="translate(8.64 20.504062) scale(0.15 -0.15)">
     <defs>
      <path id="NanumGothicBold-b2e8" d="M 3949 2067 
Q 3962 1997 3926 1974 
Q 3891 1952 3859 1939 
Q 3622 1869 3276 1821 
Q 2931 1773 2544 1741 
Q 2157 1709 1773 1696 
Q 1389 1683 1075 1696 
Q 864 1709 739 1805 
Q 614 1901 614 2125 
L 614 4288 
Q 614 4512 707 4601 
Q 800 4691 1043 4691 
L 3296 4691 
Q 3386 4691 3386 4608 
L 3386 4160 
Q 3386 4077 3296 4077 
L 1466 4077 
Q 1350 4077 1350 3968 
L 1350 2490 
Q 1350 2387 1385 2355 
Q 1421 2323 1542 2317 
Q 1747 2304 2019 2313 
Q 2291 2323 2588 2345 
Q 2886 2368 3187 2406 
Q 3488 2445 3750 2496 
Q 3859 2515 3878 2426 
L 3949 2067 
z
M 5254 -826 
Q 5254 -864 5225 -883 
Q 5197 -902 5165 -902 
L 1779 -902 
Q 1491 -902 1392 -800 
Q 1293 -698 1293 -448 
L 1293 915 
Q 1293 947 1321 979 
Q 1350 1011 1382 1011 
L 1933 1011 
Q 1971 1011 2000 982 
Q 2029 954 2029 915 
L 2029 -186 
Q 2029 -250 2054 -269 
Q 2080 -288 2144 -288 
L 5165 -288 
Q 5197 -288 5225 -313 
Q 5254 -339 5254 -371 
L 5254 -826 
z
M 5965 2566 
Q 5965 2534 5936 2512 
Q 5907 2490 5875 2490 
L 5005 2490 
L 5005 832 
Q 5005 749 4922 749 
L 4352 749 
Q 4269 749 4269 832 
L 4269 4979 
Q 4269 5062 4352 5062 
L 4922 5062 
Q 5005 5062 5005 4979 
L 5005 3104 
L 5875 3104 
Q 5907 3104 5936 3081 
Q 5965 3059 5965 3027 
L 5965 2566 
z
" transform="scale(0.015625)"/>
      <path id="NanumGothicBold-c704" d="M 2157 4768 
Q 2496 4768 2781 4675 
Q 3066 4582 3270 4416 
Q 3475 4250 3590 4022 
Q 3706 3795 3706 3520 
Q 3706 3238 3590 3008 
Q 3475 2778 3270 2611 
Q 3066 2445 2781 2352 
Q 2496 2259 2157 2259 
Q 1818 2259 1536 2352 
Q 1254 2445 1046 2611 
Q 838 2778 723 3008 
Q 608 3238 608 3520 
Q 608 3795 723 4022 
Q 838 4250 1046 4416 
Q 1254 4582 1536 4675 
Q 1818 4768 2157 4768 
z
M 5280 -928 
Q 5280 -1011 5190 -1011 
L 4627 -1011 
Q 4595 -1011 4566 -988 
Q 4538 -966 4538 -928 
L 4538 4979 
Q 4538 5011 4566 5036 
Q 4595 5062 4627 5062 
L 5190 5062 
Q 5280 5062 5280 4979 
L 5280 -928 
z
M 211 1632 
Q 211 1722 307 1722 
Q 762 1709 1267 1712 
Q 1773 1715 2275 1734 
Q 2778 1754 3251 1789 
Q 3725 1824 4122 1882 
Q 4154 1888 4195 1875 
Q 4237 1862 4243 1811 
L 4282 1402 
Q 4288 1350 4259 1324 
Q 4230 1299 4198 1293 
Q 3872 1242 3456 1203 
Q 3040 1165 2573 1139 
L 2573 -710 
Q 2573 -755 2544 -784 
Q 2515 -813 2477 -813 
L 1952 -813 
Q 1850 -813 1850 -710 
L 1850 1114 
Q 1446 1101 1049 1094 
Q 653 1088 307 1094 
Q 262 1094 236 1123 
Q 211 1152 211 1190 
L 211 1632 
z
M 2157 4166 
Q 1997 4166 1846 4118 
Q 1696 4070 1581 3984 
Q 1466 3898 1395 3776 
Q 1325 3654 1325 3507 
Q 1325 3354 1395 3232 
Q 1466 3110 1581 3020 
Q 1696 2931 1846 2883 
Q 1997 2835 2157 2835 
Q 2330 2835 2483 2883 
Q 2637 2931 2752 3020 
Q 2867 3110 2934 3232 
Q 3002 3354 3002 3507 
Q 3002 3654 2934 3776 
Q 2867 3898 2752 3984 
Q 2637 4070 2483 4118 
Q 2330 4166 2157 4166 
z
" transform="scale(0.015625)"/>
      <path id="NanumGothicBold-c6d0" d="M 2182 4410 
Q 2029 4410 1888 4362 
Q 1747 4314 1644 4234 
Q 1542 4154 1481 4042 
Q 1421 3930 1421 3802 
Q 1421 3667 1481 3555 
Q 1542 3443 1644 3363 
Q 1747 3283 1888 3235 
Q 2029 3187 2182 3187 
Q 2342 3187 2480 3235 
Q 2618 3283 2723 3363 
Q 2829 3443 2889 3555 
Q 2950 3667 2950 3802 
Q 2950 3930 2889 4042 
Q 2829 4154 2723 4234 
Q 2618 4314 2480 4362 
Q 2342 4410 2182 4410 
z
M 2182 4973 
Q 2509 4973 2781 4880 
Q 3053 4787 3248 4630 
Q 3443 4474 3552 4262 
Q 3661 4051 3661 3814 
Q 3661 3565 3552 3347 
Q 3443 3130 3248 2973 
Q 3053 2816 2781 2723 
Q 2509 2630 2182 2630 
Q 1856 2630 1587 2723 
Q 1318 2816 1123 2973 
Q 928 3130 822 3347 
Q 717 3565 717 3814 
Q 717 4051 822 4262 
Q 928 4474 1123 4630 
Q 1318 4787 1587 4880 
Q 1856 4973 2182 4973 
z
M 5274 371 
Q 5274 282 5190 282 
L 4621 282 
Q 4538 282 4538 371 
L 4538 954 
L 3443 954 
Q 3411 954 3382 979 
Q 3354 1005 3354 1037 
L 3354 1440 
Q 3354 1472 3382 1494 
Q 3411 1517 3443 1517 
L 4538 1517 
L 4538 4979 
Q 4538 5062 4621 5062 
L 5190 5062 
Q 5274 5062 5274 4979 
L 5274 371 
z
M 4320 2035 
Q 4326 1984 4297 1955 
Q 4269 1926 4237 1914 
Q 4058 1882 3840 1859 
Q 3622 1837 3392 1817 
Q 3162 1798 2934 1782 
Q 2707 1766 2509 1760 
L 2509 838 
Q 2509 800 2480 771 
Q 2451 742 2413 742 
L 1882 742 
Q 1843 742 1814 771 
Q 1786 800 1786 838 
L 1786 1709 
Q 1594 1702 1392 1699 
Q 1190 1696 998 1689 
Q 806 1683 633 1683 
Q 461 1683 333 1690 
Q 294 1690 268 1722 
Q 243 1754 243 1792 
L 243 2189 
Q 243 2227 268 2256 
Q 294 2285 333 2285 
Q 774 2285 1296 2294 
Q 1818 2304 2336 2326 
Q 2854 2349 3334 2384 
Q 3814 2419 4166 2470 
Q 4198 2477 4233 2457 
Q 4269 2438 4275 2400 
L 4320 2035 
z
M 5414 -826 
Q 5414 -864 5385 -883 
Q 5357 -902 5325 -902 
L 1696 -902 
Q 1402 -902 1302 -800 
Q 1203 -698 1203 -448 
L 1203 467 
Q 1203 499 1232 528 
Q 1261 557 1293 557 
L 1843 557 
Q 1882 557 1910 528 
Q 1939 499 1939 467 
L 1939 -186 
Q 1939 -250 1964 -269 
Q 1990 -288 2061 -288 
L 5325 -288 
Q 5357 -288 5385 -313 
Q 5414 -339 5414 -371 
L 5414 -826 
z
" transform="scale(0.015625)"/>
      <path id="NanumGothicBold-3a" d="M 1011 3053 
Q 806 3053 662 3197 
Q 518 3341 518 3533 
Q 518 3731 662 3875 
Q 806 4019 1011 4019 
Q 1216 4019 1357 3875 
Q 1498 3731 1498 3533 
Q 1498 3341 1357 3197 
Q 1216 3053 1011 3053 
z
M 1011 141 
Q 806 141 662 285 
Q 518 429 518 627 
Q 518 819 662 963 
Q 806 1107 1011 1107 
Q 1216 1107 1357 963 
Q 1498 819 1498 627 
Q 1498 429 1357 285 
Q 1216 141 1011 141 
z
" transform="scale(0.015625)"/>
      <path id="NanumGothicBold-20" transform="scale(0.015625)"/>
      <path id="NanumGothicBold-63" d="M 2867 -307 
Q 2797 -333 2694 -352 
Q 2592 -371 2473 -384 
Q 2355 -397 2224 -400 
Q 2093 -403 1971 -397 
Q 1568 -371 1257 -220 
Q 947 -70 736 173 
Q 525 416 419 745 
Q 314 1075 314 1459 
Q 314 1862 442 2201 
Q 570 2541 803 2787 
Q 1037 3034 1363 3168 
Q 1690 3302 2093 3302 
Q 2291 3302 2492 3280 
Q 2694 3258 2886 3194 
Q 2912 3187 2925 3168 
Q 2938 3149 2931 3091 
L 2874 2650 
Q 2867 2605 2844 2585 
Q 2822 2566 2765 2579 
Q 2624 2630 2435 2649 
Q 2246 2669 2080 2669 
Q 1562 2669 1293 2336 
Q 1024 2003 1024 1459 
Q 1024 934 1277 614 
Q 1530 294 2010 237 
Q 2451 186 2797 294 
Q 2861 320 2877 301 
Q 2893 282 2899 243 
L 2931 -198 
Q 2938 -250 2928 -272 
Q 2918 -294 2867 -307 
z
" transform="scale(0.015625)"/>
      <path id="NanumGothicBold-6f" d="M 3238 173 
Q 3008 -115 2688 -265 
Q 2368 -416 1965 -416 
Q 1555 -416 1241 -269 
Q 928 -122 717 134 
Q 506 390 400 729 
Q 294 1069 294 1453 
Q 294 1837 400 2176 
Q 506 2515 717 2768 
Q 928 3021 1238 3168 
Q 1549 3315 1965 3315 
Q 2374 3315 2688 3168 
Q 3002 3021 3213 2768 
Q 3424 2515 3529 2176 
Q 3635 1837 3635 1453 
Q 3635 1075 3532 745 
Q 3430 416 3238 173 
z
M 1965 2688 
Q 1715 2688 1532 2579 
Q 1350 2470 1235 2294 
Q 1120 2118 1062 1897 
Q 1005 1677 1005 1453 
Q 1005 1229 1062 1008 
Q 1120 787 1235 608 
Q 1350 429 1532 320 
Q 1715 211 1965 211 
Q 2214 211 2396 320 
Q 2579 429 2694 608 
Q 2810 787 2867 1008 
Q 2925 1229 2925 1453 
Q 2925 1670 2867 1891 
Q 2810 2112 2694 2288 
Q 2579 2464 2396 2576 
Q 2214 2688 1965 2688 
z
" transform="scale(0.015625)"/>
      <path id="NanumGothicBold-73" d="M 2099 -186 
Q 1754 -416 1280 -416 
Q 1152 -416 1011 -403 
Q 870 -390 739 -371 
Q 608 -352 505 -326 
Q 403 -301 346 -275 
Q 320 -262 291 -240 
Q 262 -218 269 -166 
L 307 250 
Q 314 314 326 326 
Q 339 339 410 320 
Q 621 256 848 227 
Q 1075 198 1254 198 
Q 1536 198 1673 339 
Q 1811 480 1811 666 
Q 1811 768 1740 873 
Q 1670 979 1504 1088 
Q 1331 1190 1145 1296 
Q 960 1402 781 1504 
Q 576 1626 438 1827 
Q 301 2029 301 2272 
Q 301 2541 397 2736 
Q 493 2931 653 3062 
Q 813 3194 1021 3254 
Q 1229 3315 1459 3315 
Q 1581 3315 1712 3302 
Q 1843 3290 1968 3267 
Q 2093 3245 2192 3216 
Q 2291 3187 2342 3155 
Q 2374 3136 2377 3120 
Q 2381 3104 2374 3072 
L 2336 2662 
Q 2330 2592 2304 2582 
Q 2278 2573 2208 2586 
Q 2086 2630 1933 2669 
Q 1843 2682 1744 2694 
Q 1645 2707 1498 2707 
Q 1235 2707 1126 2585 
Q 1018 2464 1018 2291 
Q 1018 2189 1139 2073 
Q 1261 1958 1446 1862 
Q 1645 1766 1814 1664 
Q 1984 1562 2067 1498 
Q 2298 1331 2413 1136 
Q 2528 941 2528 666 
Q 2528 128 2099 -186 
z
" transform="scale(0.015625)"/>
      <path id="NanumGothicBold-b294" d="M 5158 -787 
Q 5158 -826 5126 -845 
Q 5094 -864 5062 -864 
L 1542 -864 
Q 1248 -864 1149 -761 
Q 1050 -659 1050 -410 
L 1050 979 
Q 1050 1011 1078 1040 
Q 1107 1069 1139 1069 
L 1690 1069 
Q 1728 1069 1757 1040 
Q 1786 1011 1786 979 
L 1786 -147 
Q 1786 -211 1811 -230 
Q 1837 -250 1907 -250 
L 5062 -250 
Q 5094 -250 5126 -272 
Q 5158 -294 5158 -326 
L 5158 -787 
z
M 5082 2874 
Q 5082 2829 5053 2809 
Q 5024 2790 4992 2790 
L 1562 2790 
Q 1267 2790 1168 2896 
Q 1069 3002 1069 3251 
L 1069 4858 
Q 1069 4890 1097 4918 
Q 1126 4947 1158 4947 
L 1715 4947 
Q 1754 4947 1782 4918 
Q 1811 4890 1811 4858 
L 1811 3507 
Q 1811 3443 1836 3424 
Q 1862 3405 1933 3405 
L 4992 3405 
Q 5024 3405 5053 3382 
Q 5082 3360 5082 3328 
L 5082 2874 
z
M 5875 1619 
Q 5875 1587 5843 1552 
Q 5811 1517 5779 1517 
L 211 1517 
Q 173 1517 147 1549 
Q 122 1581 122 1619 
L 122 2042 
Q 122 2131 211 2131 
L 5779 2131 
Q 5811 2131 5843 2102 
Q 5875 2074 5875 2042 
L 5875 1619 
z
" transform="scale(0.015625)"/>
      <path id="NanumGothicBold-78" d="M 2515 -301 
Q 2445 -301 2419 -262 
L 1632 954 
L 845 -262 
Q 813 -301 749 -301 
L 90 -301 
Q 13 -301 70 -224 
L 1235 1542 
L 186 3142 
Q 160 3174 173 3196 
Q 186 3219 237 3219 
L 877 3219 
Q 928 3219 954 3181 
L 1632 2131 
L 2310 3181 
Q 2336 3219 2387 3219 
L 3027 3219 
Q 3078 3219 3091 3196 
Q 3104 3174 3078 3142 
L 2029 1542 
L 3194 -224 
Q 3251 -301 3174 -301 
L 2515 -301 
z
" transform="scale(0.015625)"/>
      <path id="NanumGothicBold-2c" d="M 1069 -1139 
Q 1050 -1190 1011 -1206 
Q 973 -1222 928 -1222 
L 416 -1222 
Q 384 -1222 365 -1200 
Q 346 -1178 358 -1139 
L 672 26 
Q 685 58 710 93 
Q 736 128 806 128 
L 1427 128 
Q 1510 128 1516 86 
Q 1523 45 1510 6 
L 1069 -1139 
z
" transform="scale(0.015625)"/>
      <path id="NanumGothicBold-69" d="M 813 3898 
Q 627 3898 502 4022 
Q 378 4147 378 4326 
Q 378 4512 502 4640 
Q 627 4768 813 4768 
Q 998 4768 1126 4640 
Q 1254 4512 1254 4326 
Q 1254 4147 1126 4022 
Q 998 3898 813 3898 
z
M 538 -326 
Q 506 -326 483 -304 
Q 461 -282 461 -250 
L 461 3123 
Q 461 3155 483 3177 
Q 506 3200 538 3200 
L 1075 3200 
Q 1107 3200 1129 3177 
Q 1152 3155 1152 3123 
L 1152 -250 
Q 1152 -282 1129 -304 
Q 1107 -326 1075 -326 
L 538 -326 
z
" transform="scale(0.015625)"/>
      <path id="NanumGothicBold-6e" d="M 2752 -314 
Q 2720 -314 2697 -285 
Q 2675 -256 2675 -224 
L 2675 1811 
Q 2675 2272 2531 2477 
Q 2387 2682 2080 2682 
Q 1658 2682 1456 2448 
Q 1254 2214 1254 1773 
L 1254 -230 
Q 1254 -314 1178 -314 
L 646 -314 
Q 614 -314 592 -285 
Q 570 -256 570 -224 
L 570 2323 
Q 570 2566 566 2790 
Q 563 3014 550 3142 
Q 538 3226 640 3226 
L 1146 3226 
Q 1216 3226 1203 3174 
L 1197 2944 
Q 1357 3098 1581 3206 
Q 1805 3315 2099 3315 
Q 2714 3315 3037 2953 
Q 3360 2592 3360 1907 
L 3360 -230 
Q 3360 -314 3283 -314 
L 2752 -314 
z
" transform="scale(0.015625)"/>
      <path id="NanumGothicBold-c740" d="M 3014 2637 
Q 2566 2637 2192 2717 
Q 1818 2797 1549 2944 
Q 1280 3091 1129 3308 
Q 979 3526 979 3802 
Q 979 4077 1129 4297 
Q 1280 4518 1549 4665 
Q 1818 4813 2192 4893 
Q 2566 4973 3014 4973 
Q 3462 4973 3833 4893 
Q 4205 4813 4473 4665 
Q 4742 4518 4892 4297 
Q 5043 4077 5043 3802 
Q 5043 3526 4892 3308 
Q 4742 3091 4473 2944 
Q 4205 2797 3833 2717 
Q 3462 2637 3014 2637 
z
M 3014 4384 
Q 2733 4384 2502 4342 
Q 2272 4301 2102 4224 
Q 1933 4147 1840 4038 
Q 1747 3930 1747 3802 
Q 1747 3674 1840 3568 
Q 1933 3462 2102 3385 
Q 2272 3309 2502 3267 
Q 2733 3226 3014 3226 
Q 3290 3226 3520 3267 
Q 3750 3309 3920 3385 
Q 4090 3462 4182 3568 
Q 4275 3674 4275 3802 
Q 4275 3930 4182 4038 
Q 4090 4147 3920 4224 
Q 3750 4301 3520 4342 
Q 3290 4384 3014 4384 
z
M 211 1510 
Q 173 1510 147 1542 
Q 122 1574 122 1613 
L 122 2029 
Q 122 2067 147 2096 
Q 173 2125 211 2125 
L 5786 2125 
Q 5818 2125 5850 2093 
Q 5882 2061 5882 2029 
L 5882 1613 
Q 5882 1581 5850 1545 
Q 5818 1510 5786 1510 
L 211 1510 
z
M 5184 -755 
Q 5184 -794 5155 -813 
Q 5126 -832 5088 -832 
L 1523 -832 
Q 1235 -832 1136 -729 
Q 1037 -627 1037 -371 
L 1037 1018 
Q 1037 1050 1065 1078 
Q 1094 1107 1126 1107 
L 1677 1107 
Q 1715 1107 1744 1078 
Q 1773 1050 1773 1018 
L 1773 -115 
Q 1773 -179 1798 -198 
Q 1824 -218 1894 -218 
L 5088 -218 
Q 5120 -218 5152 -240 
Q 5184 -262 5184 -294 
L 5184 -755 
z
" transform="scale(0.015625)"/>
      <path id="NanumGothicBold-79" d="M 1670 -454 
Q 1504 -922 1280 -1114 
Q 1056 -1306 704 -1306 
Q 576 -1306 461 -1293 
Q 346 -1280 269 -1242 
Q 237 -1229 217 -1206 
Q 198 -1184 205 -1146 
L 243 -723 
Q 243 -640 314 -666 
Q 410 -691 493 -700 
Q 576 -710 646 -710 
Q 755 -710 819 -678 
Q 883 -646 922 -595 
Q 941 -557 976 -486 
Q 1011 -416 1049 -329 
Q 1088 -243 1123 -144 
Q 1158 -45 1184 51 
L 90 3155 
Q 58 3232 141 3232 
L 736 3232 
Q 800 3232 813 3200 
L 1523 1082 
L 2246 3200 
Q 2259 3232 2323 3232 
L 2918 3232 
Q 3002 3232 2970 3155 
L 1670 -454 
z
" transform="scale(0.015625)"/>
     </defs>
     <use xlink:href="#NanumGothicBold-b2e8"/>
     <use xlink:href="#NanumGothicBold-c704" transform="translate(93.999985 0)"/>
     <use xlink:href="#NanumGothicBold-c6d0" transform="translate(187.999969 0)"/>
     <use xlink:href="#NanumGothicBold-3a" transform="translate(281.999954 0)"/>
     <use xlink:href="#NanumGothicBold-20" transform="translate(312.299942 0)"/>
     <use xlink:href="#NanumGothicBold-63" transform="translate(340.299927 0)"/>
     <use xlink:href="#NanumGothicBold-6f" transform="translate(388.699921 0)"/>
     <use xlink:href="#NanumGothicBold-73" transform="translate(449.299911 0)"/>
     <use xlink:href="#NanumGothicBold-b294" transform="translate(491.699905 0)"/>
     <use xlink:href="#NanumGothicBold-20" transform="translate(585.69989 0)"/>
     <use xlink:href="#NanumGothicBold-78" transform="translate(613.699875 0)"/>
     <use xlink:href="#NanumGothicBold-2c" transform="translate(664.69986 0)"/>
     <use xlink:href="#NanumGothicBold-20" transform="translate(694.999847 0)"/>
     <use xlink:href="#NanumGothicBold-73" transform="translate(722.999832 0)"/>
     <use xlink:href="#NanumGothicBold-69" transform="translate(765.399826 0)"/>
     <use xlink:href="#NanumGothicBold-6e" transform="translate(789.599823 0)"/>
     <use xlink:href="#NanumGothicBold-c740" transform="translate(850.199814 0)"/>
     <use xlink:href="#NanumGothicBold-20" transform="translate(944.199799 0)"/>
     <use xlink:href="#NanumGothicBold-79" transform="translate(972.199783 0)"/>
    </g>
   </g>
   <g id="patch_3">
    <path d="M 28.65525 190.2315 
Q 157.288222 190.2315 284.13234 190.2315 
" clip-path="url(#p181ff76082)" style="fill: none; stroke: #6b7280; stroke-width: 1.6; stroke-linecap: round"/>
    <path d="M 278.53234 187.4315 
L 284.13234 190.2315 
L 278.53234 193.0315 
z
" clip-path="url(#p181ff76082)" style="fill: #6b7280; stroke: #6b7280; stroke-width: 1.6; stroke-linecap: round"/>
   </g>
   <g id="patch_4">
    <path d="M 152.784 305.347951 
Q 152.784 185.726135 152.784 67.893174 
" clip-path="url(#p181ff76082)" style="fill: none; stroke: #6b7280; stroke-width: 1.6; stroke-linecap: round"/>
    <path d="M 149.984 73.493174 
L 152.784 67.893174 
L 155.584 73.493174 
z
" clip-path="url(#p181ff76082)" style="fill: #6b7280; stroke: #6b7280; stroke-width: 1.6; stroke-linecap: round"/>
   </g>
   <g id="patch_5">
    <path d="M 154.197338 188.818162 
Q 184.636096 158.379404 213.177487 129.838013 
" clip-path="url(#p181ff76082)" style="fill: none; stroke: #2563eb; stroke-width: 2.4; stroke-linecap: round"/>
    <path d="M 207.23779 131.817912 
L 213.177487 129.838013 
L 211.197588 135.77771 
z
" clip-path="url(#p181ff76082)" style="fill: #2563eb; stroke: #2563eb; stroke-width: 2.4; stroke-linecap: round"/>
   </g>
   <g id="text_2">
    <!-- P = (cosθ, sinθ) -->
    <g style="fill: #2563eb" transform="translate(220.99175 125.058906) scale(0.105 -0.105)">
     <defs>
      <path id="NanumGothic-50" d="M 3008 3123 
Q 3008 3578 2771 3824 
Q 2534 4070 2074 4070 
L 1114 4070 
L 1114 2157 
L 1632 2157 
Q 1939 2157 2185 2189 
Q 2432 2221 2608 2323 
Q 2784 2426 2886 2614 
Q 2989 2803 3008 3123 
z
M 1114 -186 
Q 1114 -275 1024 -275 
L 736 -275 
Q 646 -275 646 -186 
L 646 4282 
Q 646 4422 675 4448 
Q 704 4474 838 4474 
L 1978 4474 
Q 2682 4474 3078 4134 
Q 3488 3782 3488 3123 
Q 3488 2790 3369 2531 
Q 3251 2272 3040 2096 
Q 2829 1920 2541 1830 
Q 2253 1741 1926 1754 
L 1114 1754 
L 1114 -186 
z
" transform="scale(0.015625)"/>
      <path id="NanumGothic-20" transform="scale(0.015625)"/>
      <path id="NanumGothic-3d" d="M 3757 2995 
Q 3827 2995 3836 2985 
Q 3846 2976 3846 2906 
L 3846 2618 
Q 3846 2547 3836 2537 
Q 3827 2528 3757 2528 
L 467 2528 
Q 397 2528 387 2537 
Q 378 2547 378 2618 
L 378 2906 
Q 378 2976 387 2985 
Q 397 2995 467 2995 
L 3757 2995 
z
M 3757 1626 
Q 3827 1626 3836 1616 
Q 3846 1606 3846 1536 
L 3846 1261 
Q 3846 1190 3836 1180 
Q 3827 1171 3757 1171 
L 467 1171 
Q 397 1171 387 1180 
Q 378 1190 378 1261 
L 378 1536 
Q 378 1606 387 1616 
Q 397 1626 467 1626 
L 3757 1626 
z
" transform="scale(0.015625)"/>
      <path id="NanumGothic-28" d="M 1984 -1133 
Q 1939 -1133 1929 -1129 
Q 1920 -1126 1894 -1094 
Q 1312 -365 1030 384 
Q 749 1133 749 1933 
Q 749 2726 1030 3475 
Q 1312 4224 1894 4960 
Q 1920 4992 1929 4995 
Q 1939 4998 1971 4998 
L 2150 4998 
Q 2189 4998 2189 4992 
Q 2189 4986 2170 4954 
Q 1165 3379 1165 1933 
Q 1165 1197 1421 448 
Q 1677 -301 2176 -1088 
Q 2208 -1133 2144 -1133 
L 1984 -1133 
z
" transform="scale(0.015625)"/>
      <path id="NanumGothic-63" d="M 2816 -301 
Q 2624 -333 2445 -345 
Q 2266 -358 2016 -358 
Q 1619 -358 1308 -217 
Q 998 -77 784 166 
Q 570 410 454 742 
Q 339 1075 339 1459 
Q 339 1850 460 2179 
Q 582 2509 809 2749 
Q 1037 2989 1353 3126 
Q 1670 3264 2067 3264 
Q 2278 3264 2451 3248 
Q 2624 3232 2822 3187 
Q 2912 3162 2906 3066 
L 2886 2861 
Q 2874 2784 2790 2803 
Q 2624 2854 2470 2876 
Q 2317 2899 2131 2899 
Q 1805 2899 1558 2793 
Q 1312 2688 1145 2496 
Q 979 2304 896 2038 
Q 813 1773 813 1459 
Q 813 1171 899 908 
Q 986 646 1149 444 
Q 1312 243 1545 124 
Q 1779 6 2080 6 
Q 2304 6 2451 25 
Q 2598 45 2784 96 
Q 2880 122 2886 51 
L 2906 -186 
Q 2912 -282 2816 -301 
z
" transform="scale(0.015625)"/>
      <path id="NanumGothic-6f" d="M 3130 1453 
Q 3130 1754 3050 2016 
Q 2970 2278 2829 2483 
Q 2496 2893 1965 2893 
Q 1696 2893 1481 2787 
Q 1267 2682 1101 2483 
Q 954 2278 874 2016 
Q 794 1754 794 1453 
Q 794 1146 874 883 
Q 954 621 1101 422 
Q 1440 6 1965 6 
Q 2234 6 2448 115 
Q 2662 224 2829 422 
Q 2970 621 3050 883 
Q 3130 1146 3130 1453 
z
M 3603 1453 
Q 3603 1075 3494 752 
Q 3386 429 3206 186 
Q 2982 -83 2672 -230 
Q 2362 -378 1965 -378 
Q 1568 -378 1254 -230 
Q 941 -83 717 186 
Q 538 429 432 752 
Q 326 1075 326 1453 
Q 326 2227 717 2720 
Q 1165 3277 1965 3277 
Q 2368 3277 2675 3139 
Q 2982 3002 3206 2720 
Q 3603 2214 3603 1453 
z
" transform="scale(0.015625)"/>
      <path id="NanumGothic-73" d="M 422 147 
Q 813 -13 1229 -13 
Q 1574 -13 1798 156 
Q 2022 326 2022 614 
Q 2022 781 1897 937 
Q 1773 1094 1594 1197 
Q 1395 1306 1187 1405 
Q 979 1504 787 1613 
Q 557 1741 448 1929 
Q 339 2118 339 2323 
Q 339 2560 428 2739 
Q 518 2918 672 3040 
Q 826 3162 1030 3219 
Q 1235 3277 1466 3277 
Q 1709 3277 1888 3251 
Q 2067 3226 2246 3174 
Q 2285 3162 2313 3136 
Q 2342 3110 2336 3066 
L 2317 2874 
Q 2310 2822 2278 2809 
Q 2246 2797 2214 2810 
Q 2054 2867 1894 2889 
Q 1734 2912 1510 2912 
Q 768 2912 768 2323 
Q 768 2195 867 2080 
Q 966 1965 1203 1850 
Q 1408 1747 1606 1654 
Q 1805 1562 2035 1434 
Q 2234 1325 2365 1101 
Q 2496 877 2496 614 
Q 2496 358 2393 172 
Q 2291 -13 2118 -134 
Q 1946 -256 1722 -317 
Q 1498 -378 1261 -378 
Q 1120 -378 1008 -371 
Q 896 -365 797 -352 
Q 698 -339 595 -320 
Q 493 -301 378 -269 
Q 288 -237 294 -154 
L 320 83 
Q 333 186 422 147 
z
" transform="scale(0.015625)"/>
      <path id="NanumGothic-3b8" d="M 518 1862 
Q 525 1453 585 1113 
Q 646 774 755 531 
Q 864 288 1030 153 
Q 1197 19 1427 19 
Q 1658 19 1824 153 
Q 1990 288 2099 531 
Q 2208 774 2265 1113 
Q 2323 1453 2336 1862 
L 518 1862 
z
M 2336 2234 
Q 2323 2637 2265 2969 
Q 2208 3302 2096 3539 
Q 1984 3776 1817 3907 
Q 1651 4038 1427 4038 
Q 1203 4038 1036 3907 
Q 870 3776 758 3539 
Q 646 3302 588 2969 
Q 531 2637 518 2234 
L 2336 2234 
z
M 2758 2029 
Q 2758 877 2451 262 
Q 2144 -352 1427 -352 
Q 1069 -352 816 -195 
Q 563 -38 403 262 
Q 243 563 169 1008 
Q 96 1453 96 2029 
Q 96 2605 169 3049 
Q 243 3494 403 3795 
Q 563 4096 816 4253 
Q 1069 4410 1427 4410 
Q 2144 4410 2451 3795 
Q 2758 3181 2758 2029 
z
" transform="scale(0.015625)"/>
      <path id="NanumGothic-2c" d="M 1299 115 
Q 1382 115 1382 86 
Q 1382 58 1370 19 
L 947 -1126 
Q 922 -1178 899 -1194 
Q 877 -1210 832 -1210 
L 563 -1210 
Q 480 -1210 499 -1120 
L 800 6 
Q 813 45 838 80 
Q 864 115 934 115 
L 1299 115 
z
" transform="scale(0.015625)"/>
      <path id="NanumGothic-69" d="M 1050 -186 
Q 1050 -275 960 -275 
L 678 -275 
Q 589 -275 589 -186 
L 589 3098 
Q 589 3187 678 3187 
L 960 3187 
Q 1050 3187 1050 3098 
L 1050 -186 
z
M 506 4397 
Q 506 4525 595 4617 
Q 685 4710 813 4710 
Q 941 4710 1033 4617 
Q 1126 4525 1126 4397 
Q 1126 4269 1033 4179 
Q 941 4090 813 4090 
Q 685 4090 595 4179 
Q 506 4269 506 4397 
z
" transform="scale(0.015625)"/>
      <path id="NanumGothic-6e" d="M 3334 -186 
Q 3334 -275 3245 -275 
L 2989 -275 
Q 2899 -275 2899 -186 
L 2899 1830 
Q 2899 2419 2688 2665 
Q 2477 2912 2093 2912 
Q 1574 2912 1302 2624 
Q 1030 2336 1030 1818 
L 1030 -186 
Q 1030 -275 941 -275 
L 685 -275 
Q 595 -275 595 -186 
L 595 2374 
Q 595 2650 592 2803 
Q 589 2957 576 3098 
Q 570 3142 598 3164 
Q 627 3187 666 3187 
L 896 3187 
Q 986 3187 986 3098 
L 986 2746 
Q 1165 3021 1417 3149 
Q 1670 3277 2112 3277 
Q 2720 3277 3027 2925 
Q 3334 2573 3334 1933 
L 3334 -186 
z
" transform="scale(0.015625)"/>
      <path id="NanumGothic-29" d="M 301 -1133 
Q 243 -1133 275 -1088 
Q 774 -301 1027 448 
Q 1280 1197 1280 1933 
Q 1280 2662 1030 3414 
Q 781 4166 282 4954 
Q 262 4986 262 4992 
Q 262 4998 294 4998 
L 474 4998 
Q 506 4998 515 4995 
Q 525 4992 557 4960 
Q 1139 4224 1417 3475 
Q 1696 2726 1696 1933 
Q 1696 1133 1417 384 
Q 1139 -365 557 -1094 
Q 525 -1126 515 -1129 
Q 506 -1133 461 -1133 
L 301 -1133 
z
" transform="scale(0.015625)"/>
     </defs>
     <use xlink:href="#NanumGothic-50"/>
     <use xlink:href="#NanumGothic-20" transform="translate(57.699997 0)"/>
     <use xlink:href="#NanumGothic-3d" transform="translate(85.699982 0)"/>
     <use xlink:href="#NanumGothic-20" transform="translate(151.099976 0)"/>
     <use xlink:href="#NanumGothic-28" transform="translate(179.09996 0)"/>
     <use xlink:href="#NanumGothic-63" transform="translate(215.399948 0)"/>
     <use xlink:href="#NanumGothic-6f" transform="translate(263.799942 0)"/>
     <use xlink:href="#NanumGothic-73" transform="translate(324.399933 0)"/>
     <use xlink:href="#NanumGothic-3b8" transform="translate(366.799927 0)"/>
     <use xlink:href="#NanumGothic-2c" transform="translate(411.399918 0)"/>
     <use xlink:href="#NanumGothic-20" transform="translate(441.699905 0)"/>
     <use xlink:href="#NanumGothic-73" transform="translate(469.69989 0)"/>
     <use xlink:href="#NanumGothic-69" transform="translate(512.099884 0)"/>
     <use xlink:href="#NanumGothic-6e" transform="translate(536.299881 0)"/>
     <use xlink:href="#NanumGothic-3b8" transform="translate(596.899872 0)"/>
     <use xlink:href="#NanumGothic-29" transform="translate(641.499863 0)"/>
    </g>
   </g>
   <g id="text_3">
    <!-- θ -->
    <g style="fill: #111827" transform="translate(189.140125 168.645591) scale(0.11 -0.11)">
     <use xlink:href="#NanumGothic-3b8"/>
    </g>
   </g>
   <g id="text_4">
    <!-- cosθ -->
    <g style="fill: #10b981" transform="translate(174.345625 205.763592) scale(0.105 -0.105)">
     <use xlink:href="#NanumGothic-63"/>
     <use xlink:href="#NanumGothic-6f" transform="translate(48.399994 0)"/>
     <use xlink:href="#NanumGothic-73" transform="translate(108.999985 0)"/>
     <use xlink:href="#NanumGothic-3b8" transform="translate(151.399979 0)"/>
    </g>
   </g>
   <g id="text_5">
    <!-- sinθ -->
    <g style="fill: #ef4444" transform="translate(227.29805 161.299367) scale(0.105 -0.105)">
     <use xlink:href="#NanumGothic-73"/>
     <use xlink:href="#NanumGothic-69" transform="translate(42.399994 0)"/>
     <use xlink:href="#NanumGothic-6e" transform="translate(66.599991 0)"/>
     <use xlink:href="#NanumGothic-3b8" transform="translate(127.199982 0)"/>
    </g>
   </g>
  </g>
 </g>
 <defs>
  <clipPath id="p181ff76082">
   <rect x="8.64" y="37.0785" width="306.306" height="288.288"/>
  </clipPath>
 </defs>
</svg>
