<svg xmlns="http://www.w3.org/2000/svg" viewBox="0 0 820 280">
  <rect width="820" height="280" rx="16" fill="#f8fafc"/>
  <text x="410" y="28" text-anchor="middle" font-family="sans-serif" font-size="18" font-weight="700" fill="#0f172a">Broad Phase → Narrow Phase</text>
  <g transform="translate(35 55)">
    <rect width="420" height="190" fill="#fff" stroke="#94a3b8"/>
    <g stroke="#cbd5e1"><path d="M70 0V190M140 0V190M210 0V190M280 0V190M350 0V190"/><path d="M0 63H420M0 126H420"/></g>
    <g fill="#60a5fa"><circle cx="50" cy="35" r="13"/><circle cx="115" cy="95" r="14"/><circle cx="250" cy="45" r="12"/><circle cx="330" cy="145" r="15"/><circle cx="355" cy="155" r="12"/><circle cx="185" cy="160" r="13"/></g>
    <rect x="280" y="126" width="140" height="64" fill="#fef3c7" fill-opacity=".65" stroke="#f59e0b" stroke-width="2"/>
  </g>
  <g font-family="sans-serif" text-anchor="middle"><text x="245" y="265" font-size="12" fill="#475569">같은 셀의 물체만 후보 쌍으로 생성</text><text x="635" y="90" font-size="14" font-weight="700" fill="#0f172a">후보 쌍</text><rect x="545" y="110" width="180" height="75" rx="10" fill="#dbeafe" stroke="#2563eb"/><circle cx="610" cy="148" r="22" fill="#60a5fa"/><circle cx="654" cy="148" r="22" fill="#34d399"/><text x="635" y="220" font-size="12" fill="#475569">정확한 도형 충돌 검사</text></g>
</svg>
