<?xml version="1.0" encoding="utf-8" standalone="no"?>
<!DOCTYPE svg PUBLIC "-//W3C//DTD SVG 1.1//EN"
  "http://www.w3.org/Graphics/SVG/1.1/DTD/svg11.dtd">
<svg xmlns:xlink="http://www.w3.org/1999/xlink" width="508.32pt" height="149.473919pt" viewBox="0 0 508.32 149.473919" xmlns="http://www.w3.org/2000/svg" version="1.1">
 <metadata>
  <rdf:RDF xmlns:dc="http://purl.org/dc/elements/1.1/" xmlns:cc="http://creativecommons.org/ns#" xmlns:rdf="http://www.w3.org/1999/02/22-rdf-syntax-ns#">
   <cc:Work>
    <dc:type rdf:resource="http://purl.org/dc/dcmitype/StillImage"/>
    <dc:date>2026-07-08T05:12:55.436957</dc:date>
    <dc:format>image/svg+xml</dc:format>
    <dc:creator>
     <cc:Agent>
      <dc:title>Matplotlib v3.10.8, https://matplotlib.org/</dc:title>
     </cc:Agent>
    </dc:creator>
   </cc:Work>
  </rdf:RDF>
 </metadata>
 <defs>
  <style type="text/css">*{stroke-linejoin: round; stroke-linecap: butt}</style>
 </defs>
 <g id="figure_1">
  <g id="patch_1">
   <path d="M -0 149.473919 
L 508.32 149.473919 
L 508.32 0 
L -0 0 
z
" style="fill: #ffffff"/>
  </g>
  <g id="axes_1">
   <g id="text_1">
    <!-- 행렬 적용 순서 -->
    <g style="fill: #111827" transform="translate(8.64 20.054063) scale(0.15 -0.15)">
     <defs>
      <path id="NanumGothicBold-d589" d="M 4826 4979 
Q 4826 5062 4915 5062 
L 5466 5062 
Q 5549 5062 5549 4979 
L 5549 1376 
Q 5549 1293 5466 1293 
L 4909 1293 
Q 4826 1293 4826 1376 
L 4826 2752 
L 4275 2752 
L 4275 1574 
Q 4275 1485 4192 1485 
L 3661 1485 
Q 3571 1485 3571 1574 
L 3571 4877 
Q 3571 4960 3661 4960 
L 4192 4960 
Q 4275 4960 4275 4877 
L 4275 3366 
L 4826 3366 
L 4826 4979 
z
M 4845 83 
Q 4845 198 4745 297 
Q 4646 397 4470 470 
Q 4294 544 4054 585 
Q 3814 627 3526 627 
Q 3238 627 2998 585 
Q 2758 544 2585 470 
Q 2413 397 2313 297 
Q 2214 198 2214 83 
Q 2214 -19 2313 -112 
Q 2413 -205 2585 -275 
Q 2758 -346 2998 -387 
Q 3238 -429 3526 -429 
Q 3814 -429 4054 -387 
Q 4294 -346 4470 -275 
Q 4646 -205 4745 -112 
Q 4845 -19 4845 83 
z
M 5600 102 
Q 5600 -147 5440 -352 
Q 5280 -557 4998 -701 
Q 4717 -845 4339 -921 
Q 3962 -998 3526 -998 
Q 3091 -998 2713 -921 
Q 2336 -845 2054 -701 
Q 1773 -557 1613 -352 
Q 1453 -147 1453 102 
Q 1453 352 1613 553 
Q 1773 755 2054 899 
Q 2336 1043 2713 1120 
Q 3091 1197 3526 1197 
Q 3962 1197 4339 1120 
Q 4717 1043 4998 899 
Q 5280 755 5440 553 
Q 5600 352 5600 102 
z
M 3258 3661 
Q 3258 3622 3229 3593 
Q 3200 3565 3162 3565 
L 416 3565 
Q 384 3565 352 3597 
Q 320 3629 320 3667 
L 320 4019 
Q 320 4051 355 4083 
Q 390 4115 422 4115 
L 3162 4115 
Q 3200 4115 3229 4086 
Q 3258 4058 3258 4019 
L 3258 3661 
z
M 2618 4486 
Q 2618 4442 2589 4410 
Q 2560 4378 2515 4378 
L 1133 4378 
Q 1107 4378 1072 4403 
Q 1037 4429 1037 4474 
L 1037 4838 
Q 1037 4883 1072 4908 
Q 1107 4934 1133 4934 
L 2515 4934 
Q 2554 4934 2586 4902 
Q 2618 4870 2618 4832 
L 2618 4486 
z
M 1824 2810 
Q 1549 2810 1401 2669 
Q 1254 2528 1254 2342 
Q 1254 2157 1401 2009 
Q 1549 1862 1824 1862 
Q 2093 1862 2240 2009 
Q 2387 2157 2387 2342 
Q 2387 2528 2240 2669 
Q 2093 2810 1824 2810 
z
M 1824 3360 
Q 2106 3360 2333 3280 
Q 2560 3200 2723 3059 
Q 2886 2918 2972 2736 
Q 3059 2554 3059 2355 
Q 3059 2150 2972 1964 
Q 2886 1779 2723 1635 
Q 2560 1491 2329 1408 
Q 2099 1325 1811 1325 
Q 1530 1325 1306 1408 
Q 1082 1491 918 1628 
Q 755 1766 668 1952 
Q 582 2138 582 2342 
Q 582 2541 668 2726 
Q 755 2912 918 3053 
Q 1082 3194 1312 3277 
Q 1542 3360 1824 3360 
z
" transform="scale(0.015625)"/>
      <path id="NanumGothicBold-b82c" d="M 5440 -909 
Q 5440 -941 5411 -969 
Q 5382 -998 5357 -998 
L 1901 -998 
Q 1651 -998 1561 -902 
Q 1472 -806 1472 -602 
L 1472 134 
Q 1472 339 1558 428 
Q 1645 518 1894 518 
L 4480 518 
Q 4538 518 4550 534 
Q 4563 550 4563 614 
L 4563 800 
Q 4563 870 4550 886 
Q 4538 902 4474 902 
L 1549 902 
Q 1517 902 1488 924 
Q 1459 947 1459 979 
L 1459 1402 
Q 1459 1434 1488 1459 
Q 1517 1485 1549 1485 
L 4838 1485 
Q 5107 1485 5193 1401 
Q 5280 1318 5280 1094 
L 5280 365 
Q 5280 141 5193 57 
Q 5107 -26 4838 -26 
L 2278 -26 
Q 2221 -26 2208 -42 
Q 2195 -58 2195 -115 
L 2195 -333 
Q 2195 -390 2208 -400 
Q 2221 -410 2285 -410 
L 5350 -410 
Q 5382 -410 5411 -435 
Q 5440 -461 5440 -499 
L 5440 -909 
z
M 3635 2221 
Q 3642 2182 3606 2147 
Q 3571 2112 3539 2106 
Q 3296 2048 2989 2009 
Q 2682 1971 2355 1948 
Q 2029 1926 1705 1920 
Q 1382 1914 1094 1926 
Q 845 1939 755 2032 
Q 666 2125 666 2330 
L 666 3322 
Q 666 3520 752 3600 
Q 838 3680 1043 3680 
L 2266 3680 
Q 2330 3680 2342 3693 
Q 2355 3706 2355 3776 
L 2355 4224 
Q 2355 4294 2342 4304 
Q 2330 4314 2266 4314 
L 781 4314 
Q 749 4314 720 4339 
Q 691 4365 691 4397 
L 691 4794 
Q 691 4826 720 4851 
Q 749 4877 781 4877 
L 2643 4877 
Q 2893 4877 2982 4774 
Q 3072 4672 3072 4448 
L 3072 3578 
Q 3072 3341 2973 3248 
Q 2874 3155 2669 3155 
L 1472 3155 
Q 1421 3155 1401 3139 
Q 1382 3123 1382 3066 
L 1382 2605 
Q 1382 2534 1408 2515 
Q 1434 2496 1498 2490 
Q 1696 2477 1936 2483 
Q 2176 2490 2429 2506 
Q 2682 2522 2941 2554 
Q 3200 2586 3443 2630 
Q 3475 2637 3520 2621 
Q 3565 2605 3571 2566 
L 3635 2221 
z
M 3526 4352 
L 4544 4352 
L 4544 4979 
Q 4544 5062 4627 5062 
L 5197 5062 
Q 5280 5062 5280 4979 
L 5280 1875 
Q 5280 1779 5197 1779 
L 4627 1779 
Q 4544 1779 4544 1862 
L 4544 2810 
L 3526 2810 
Q 3494 2810 3465 2838 
Q 3437 2867 3437 2899 
L 3437 3290 
Q 3437 3322 3465 3344 
Q 3494 3366 3526 3366 
L 4544 3366 
L 4544 3795 
L 3526 3795 
Q 3494 3795 3465 3820 
Q 3437 3846 3437 3878 
L 3437 4275 
Q 3437 4307 3465 4329 
Q 3494 4352 3526 4352 
z
" transform="scale(0.015625)"/>
      <path id="NanumGothicBold-20" transform="scale(0.015625)"/>
      <path id="NanumGothicBold-c801" d="M 781 1568 
Q 742 1542 678 1545 
Q 614 1549 576 1619 
L 390 1933 
Q 358 1984 371 2041 
Q 384 2099 448 2125 
Q 806 2285 1126 2493 
Q 1446 2701 1705 2937 
Q 1965 3174 2157 3433 
Q 2349 3693 2451 3955 
Q 2477 4013 2473 4057 
Q 2470 4102 2368 4102 
L 781 4102 
Q 691 4102 691 4205 
L 691 4627 
Q 691 4666 720 4691 
Q 749 4717 787 4717 
L 2810 4717 
Q 3091 4717 3228 4614 
Q 3366 4512 3334 4301 
Q 3322 4230 3299 4153 
Q 3277 4077 3258 4019 
Q 3091 3546 2778 3123 
Q 2893 3008 3033 2889 
Q 3174 2771 3324 2665 
Q 3475 2560 3625 2470 
Q 3776 2381 3904 2323 
Q 4032 2259 3968 2138 
L 3757 1792 
Q 3725 1741 3680 1728 
Q 3635 1715 3565 1747 
Q 3450 1805 3296 1901 
Q 3142 1997 2976 2118 
Q 2810 2240 2650 2374 
Q 2490 2509 2355 2643 
Q 2029 2323 1635 2051 
Q 1242 1779 781 1568 
z
M 5286 -909 
Q 5286 -941 5254 -969 
Q 5222 -998 5190 -998 
L 4646 -998 
Q 4602 -998 4573 -969 
Q 4544 -941 4544 -909 
L 4544 480 
Q 4544 550 4518 569 
Q 4493 589 4429 589 
L 1466 589 
Q 1434 589 1405 611 
Q 1376 634 1376 666 
L 1376 1120 
Q 1376 1158 1405 1177 
Q 1434 1197 1466 1197 
L 4858 1197 
Q 5101 1197 5193 1097 
Q 5286 998 5286 755 
L 5286 -909 
z
M 3450 3059 
L 3450 3507 
Q 3450 3539 3478 3561 
Q 3507 3584 3539 3584 
L 4544 3584 
L 4544 4979 
Q 4544 5062 4634 5062 
L 5197 5062 
Q 5229 5062 5257 5036 
Q 5286 5011 5286 4979 
L 5286 1606 
Q 5286 1574 5257 1545 
Q 5229 1517 5197 1517 
L 4634 1517 
Q 4595 1517 4569 1545 
Q 4544 1574 4544 1606 
L 4544 2982 
L 3539 2982 
Q 3507 2982 3478 3004 
Q 3450 3027 3450 3059 
z
" transform="scale(0.015625)"/>
      <path id="NanumGothicBold-c6a9" d="M 5882 1600 
Q 5882 1568 5850 1536 
Q 5818 1504 5786 1504 
L 211 1504 
Q 173 1504 147 1536 
Q 122 1568 122 1600 
L 122 2003 
Q 122 2042 147 2070 
Q 173 2099 211 2099 
L 1594 2099 
L 1594 2970 
Q 1299 3117 1139 3334 
Q 979 3552 979 3827 
Q 979 4090 1129 4301 
Q 1280 4512 1549 4662 
Q 1818 4813 2192 4893 
Q 2566 4973 3014 4973 
Q 3462 4973 3833 4893 
Q 4205 4813 4473 4662 
Q 4742 4512 4892 4301 
Q 5043 4090 5043 3827 
Q 5043 3546 4876 3325 
Q 4710 3104 4403 2950 
L 4403 2099 
L 5786 2099 
Q 5818 2099 5850 2067 
Q 5882 2035 5882 2003 
L 5882 1600 
z
M 5037 58 
Q 5037 -186 4899 -384 
Q 4762 -582 4502 -729 
Q 4243 -877 3862 -957 
Q 3482 -1037 3002 -1037 
Q 2522 -1037 2141 -957 
Q 1760 -877 1501 -729 
Q 1242 -582 1104 -384 
Q 966 -186 966 58 
Q 966 294 1104 496 
Q 1242 698 1501 842 
Q 1760 986 2141 1066 
Q 2522 1146 3002 1146 
Q 3482 1146 3862 1066 
Q 4243 986 4502 842 
Q 4762 698 4899 496 
Q 5037 294 5037 58 
z
M 3014 4384 
Q 2733 4390 2499 4348 
Q 2266 4307 2099 4230 
Q 1933 4154 1837 4051 
Q 1741 3949 1741 3827 
Q 1741 3706 1837 3603 
Q 1933 3501 2099 3424 
Q 2266 3347 2499 3305 
Q 2733 3264 3014 3264 
Q 3290 3264 3523 3305 
Q 3757 3347 3923 3424 
Q 4090 3501 4186 3603 
Q 4282 3706 4282 3827 
Q 4282 3949 4186 4048 
Q 4090 4147 3923 4220 
Q 3757 4294 3523 4339 
Q 3290 4384 3014 4384 
z
M 3002 589 
Q 2682 589 2438 544 
Q 2195 499 2032 422 
Q 1869 346 1782 250 
Q 1696 154 1696 51 
Q 1696 -51 1782 -147 
Q 1869 -243 2032 -320 
Q 2195 -397 2438 -441 
Q 2682 -486 3002 -486 
Q 3315 -486 3561 -441 
Q 3808 -397 3971 -320 
Q 4134 -243 4220 -147 
Q 4307 -51 4307 51 
Q 4307 154 4220 250 
Q 4134 346 3971 422 
Q 3808 499 3561 544 
Q 3315 589 3002 589 
z
M 3014 2682 
Q 2822 2682 2652 2694 
Q 2483 2707 2317 2733 
L 2317 2099 
L 3680 2099 
L 3680 2733 
Q 3520 2707 3357 2694 
Q 3194 2682 3014 2682 
z
" transform="scale(0.015625)"/>
      <path id="NanumGothicBold-c21c" d="M 5882 1658 
Q 5882 1626 5850 1590 
Q 5818 1555 5786 1555 
L 3418 1555 
L 3418 371 
Q 3418 282 3328 282 
L 2771 282 
Q 2682 282 2682 371 
L 2682 1555 
L 211 1555 
Q 173 1555 147 1590 
Q 122 1626 122 1658 
L 122 2074 
Q 122 2112 147 2141 
Q 173 2170 211 2170 
L 5786 2170 
Q 5818 2170 5850 2138 
Q 5882 2106 5882 2074 
L 5882 1658 
z
M 986 2566 
Q 845 2522 813 2605 
L 640 3008 
Q 627 3040 640 3078 
Q 653 3117 698 3130 
Q 1613 3373 2083 3805 
Q 2554 4237 2624 4896 
Q 2637 4998 2746 4998 
L 3251 4979 
Q 3341 4979 3341 4890 
Q 3334 4819 3331 4758 
Q 3328 4698 3315 4640 
Q 3411 4390 3619 4160 
Q 3827 3930 4096 3738 
Q 4365 3546 4678 3402 
Q 4992 3258 5312 3181 
Q 5350 3168 5366 3133 
Q 5382 3098 5370 3066 
L 5178 2675 
Q 5146 2592 5030 2611 
Q 4768 2656 4480 2774 
Q 4192 2893 3920 3065 
Q 3648 3238 3414 3449 
Q 3181 3661 3027 3891 
Q 2726 3418 2198 3072 
Q 1670 2726 986 2566 
z
M 5184 -781 
Q 5184 -819 5155 -838 
Q 5126 -858 5088 -858 
L 1466 -858 
Q 1178 -858 1078 -755 
Q 979 -653 979 -403 
L 979 960 
Q 979 992 1008 1021 
Q 1037 1050 1069 1050 
L 1619 1050 
Q 1658 1050 1686 1021 
Q 1715 992 1715 960 
L 1715 -141 
Q 1715 -205 1740 -224 
Q 1766 -243 1830 -243 
L 5088 -243 
Q 5120 -243 5152 -265 
Q 5184 -288 5184 -320 
L 5184 -781 
z
" transform="scale(0.015625)"/>
      <path id="NanumGothicBold-c11c" d="M 5382 -928 
Q 5382 -1011 5299 -1011 
L 4730 -1011 
Q 4646 -1011 4646 -928 
L 4646 2458 
L 3328 2458 
Q 3296 2458 3267 2483 
Q 3238 2509 3238 2541 
L 3238 2995 
Q 3238 3027 3267 3049 
Q 3296 3072 3328 3072 
L 4646 3072 
L 4646 4979 
Q 4646 5062 4730 5062 
L 5299 5062 
Q 5382 5062 5382 4979 
L 5382 -928 
z
M 800 339 
Q 678 243 576 346 
L 275 627 
Q 186 717 294 819 
Q 710 1203 1004 1664 
Q 1299 2125 1478 2650 
Q 1638 3117 1699 3600 
Q 1760 4083 1747 4653 
Q 1747 4691 1776 4720 
Q 1805 4749 1837 4749 
L 2406 4730 
Q 2438 4730 2464 4701 
Q 2490 4672 2490 4634 
Q 2490 3846 2374 3187 
Q 2432 2880 2566 2569 
Q 2701 2259 2883 1974 
Q 3066 1690 3277 1446 
Q 3488 1203 3699 1037 
Q 3802 960 3712 832 
L 3443 506 
Q 3411 461 3356 454 
Q 3302 448 3238 493 
Q 3078 614 2902 800 
Q 2726 986 2566 1200 
Q 2406 1414 2272 1641 
Q 2138 1869 2061 2080 
Q 1946 1811 1798 1561 
Q 1651 1312 1488 1085 
Q 1325 858 1149 669 
Q 973 480 800 339 
z
" transform="scale(0.015625)"/>
     </defs>
     <use xlink:href="#NanumGothicBold-d589"/>
     <use xlink:href="#NanumGothicBold-b82c" transform="translate(93.999985 0)"/>
     <use xlink:href="#NanumGothicBold-20" transform="translate(187.999969 0)"/>
     <use xlink:href="#NanumGothicBold-c801" transform="translate(215.999954 0)"/>
     <use xlink:href="#NanumGothicBold-c6a9" transform="translate(309.999939 0)"/>
     <use xlink:href="#NanumGothicBold-20" transform="translate(403.999924 0)"/>
     <use xlink:href="#NanumGothicBold-c21c" transform="translate(431.999908 0)"/>
     <use xlink:href="#NanumGothicBold-c11c" transform="translate(525.999893 0)"/>
    </g>
   </g>
   <g id="text_2">
    <!-- localPosition -->
    <g style="fill: #111827" transform="translate(27.162372 88.791169) scale(0.11 -0.11)">
     <defs>
      <path id="NanumGothicBold-6c" d="M 544 -326 
Q 474 -326 474 -250 
L 474 4794 
Q 474 4826 496 4848 
Q 518 4870 550 4870 
L 1088 4870 
Q 1120 4870 1142 4848 
Q 1165 4826 1165 4794 
L 1165 -250 
Q 1165 -282 1142 -304 
Q 1120 -326 1088 -326 
L 544 -326 
z
" transform="scale(0.015625)"/>
      <path id="NanumGothicBold-6f" d="M 3238 173 
Q 3008 -115 2688 -265 
Q 2368 -416 1965 -416 
Q 1555 -416 1241 -269 
Q 928 -122 717 134 
Q 506 390 400 729 
Q 294 1069 294 1453 
Q 294 1837 400 2176 
Q 506 2515 717 2768 
Q 928 3021 1238 3168 
Q 1549 3315 1965 3315 
Q 2374 3315 2688 3168 
Q 3002 3021 3213 2768 
Q 3424 2515 3529 2176 
Q 3635 1837 3635 1453 
Q 3635 1075 3532 745 
Q 3430 416 3238 173 
z
M 1965 2688 
Q 1715 2688 1532 2579 
Q 1350 2470 1235 2294 
Q 1120 2118 1062 1897 
Q 1005 1677 1005 1453 
Q 1005 1229 1062 1008 
Q 1120 787 1235 608 
Q 1350 429 1532 320 
Q 1715 211 1965 211 
Q 2214 211 2396 320 
Q 2579 429 2694 608 
Q 2810 787 2867 1008 
Q 2925 1229 2925 1453 
Q 2925 1670 2867 1891 
Q 2810 2112 2694 2288 
Q 2579 2464 2396 2576 
Q 2214 2688 1965 2688 
z
" transform="scale(0.015625)"/>
      <path id="NanumGothicBold-63" d="M 2867 -307 
Q 2797 -333 2694 -352 
Q 2592 -371 2473 -384 
Q 2355 -397 2224 -400 
Q 2093 -403 1971 -397 
Q 1568 -371 1257 -220 
Q 947 -70 736 173 
Q 525 416 419 745 
Q 314 1075 314 1459 
Q 314 1862 442 2201 
Q 570 2541 803 2787 
Q 1037 3034 1363 3168 
Q 1690 3302 2093 3302 
Q 2291 3302 2492 3280 
Q 2694 3258 2886 3194 
Q 2912 3187 2925 3168 
Q 2938 3149 2931 3091 
L 2874 2650 
Q 2867 2605 2844 2585 
Q 2822 2566 2765 2579 
Q 2624 2630 2435 2649 
Q 2246 2669 2080 2669 
Q 1562 2669 1293 2336 
Q 1024 2003 1024 1459 
Q 1024 934 1277 614 
Q 1530 294 2010 237 
Q 2451 186 2797 294 
Q 2861 320 2877 301 
Q 2893 282 2899 243 
L 2931 -198 
Q 2938 -250 2928 -272 
Q 2918 -294 2867 -307 
z
" transform="scale(0.015625)"/>
      <path id="NanumGothicBold-61" d="M 2464 -314 
Q 2419 -314 2406 -304 
Q 2394 -294 2394 -256 
L 2394 32 
Q 2234 -192 1987 -304 
Q 1741 -416 1491 -416 
Q 1229 -416 1008 -345 
Q 787 -275 630 -134 
Q 474 6 384 214 
Q 294 422 294 698 
Q 294 1024 409 1270 
Q 525 1517 771 1680 
Q 1018 1843 1402 1923 
Q 1786 2003 2330 2003 
Q 2330 2125 2304 2246 
Q 2278 2368 2217 2464 
Q 2157 2560 2048 2621 
Q 1939 2682 1773 2682 
Q 1485 2682 1251 2605 
Q 1018 2528 813 2400 
Q 710 2336 675 2342 
Q 640 2349 640 2413 
L 640 2899 
Q 640 2925 637 2953 
Q 634 2982 646 3002 
Q 666 3027 742 3072 
Q 960 3181 1187 3251 
Q 1414 3322 1760 3322 
Q 2406 3322 2716 3008 
Q 3027 2694 3027 2022 
L 3027 506 
Q 3027 326 3030 131 
Q 3034 -64 3053 -211 
Q 3066 -314 2982 -314 
L 2464 -314 
z
M 2349 1395 
Q 1638 1395 1331 1222 
Q 1024 1050 1024 704 
Q 1024 461 1165 339 
Q 1306 218 1542 218 
Q 1907 218 2128 486 
Q 2349 755 2349 1325 
L 2349 1395 
z
" transform="scale(0.015625)"/>
      <path id="NanumGothicBold-50" d="M 1344 1638 
L 1344 -237 
Q 1344 -320 1261 -320 
L 691 -320 
Q 614 -320 614 -237 
L 614 4429 
Q 614 4461 636 4483 
Q 659 4506 691 4506 
L 1984 4506 
Q 2694 4506 3107 4160 
Q 3520 3814 3520 3085 
Q 3520 2733 3401 2461 
Q 3283 2189 3068 2006 
Q 2854 1824 2563 1731 
Q 2272 1638 1926 1638 
L 1344 1638 
z
M 1344 3834 
L 1344 2304 
L 1862 2304 
Q 2291 2304 2540 2486 
Q 2790 2669 2790 3091 
Q 2790 3456 2592 3645 
Q 2394 3834 2074 3834 
L 1344 3834 
z
" transform="scale(0.015625)"/>
      <path id="NanumGothicBold-73" d="M 2099 -186 
Q 1754 -416 1280 -416 
Q 1152 -416 1011 -403 
Q 870 -390 739 -371 
Q 608 -352 505 -326 
Q 403 -301 346 -275 
Q 320 -262 291 -240 
Q 262 -218 269 -166 
L 307 250 
Q 314 314 326 326 
Q 339 339 410 320 
Q 621 256 848 227 
Q 1075 198 1254 198 
Q 1536 198 1673 339 
Q 1811 480 1811 666 
Q 1811 768 1740 873 
Q 1670 979 1504 1088 
Q 1331 1190 1145 1296 
Q 960 1402 781 1504 
Q 576 1626 438 1827 
Q 301 2029 301 2272 
Q 301 2541 397 2736 
Q 493 2931 653 3062 
Q 813 3194 1021 3254 
Q 1229 3315 1459 3315 
Q 1581 3315 1712 3302 
Q 1843 3290 1968 3267 
Q 2093 3245 2192 3216 
Q 2291 3187 2342 3155 
Q 2374 3136 2377 3120 
Q 2381 3104 2374 3072 
L 2336 2662 
Q 2330 2592 2304 2582 
Q 2278 2573 2208 2586 
Q 2086 2630 1933 2669 
Q 1843 2682 1744 2694 
Q 1645 2707 1498 2707 
Q 1235 2707 1126 2585 
Q 1018 2464 1018 2291 
Q 1018 2189 1139 2073 
Q 1261 1958 1446 1862 
Q 1645 1766 1814 1664 
Q 1984 1562 2067 1498 
Q 2298 1331 2413 1136 
Q 2528 941 2528 666 
Q 2528 128 2099 -186 
z
" transform="scale(0.015625)"/>
      <path id="NanumGothicBold-69" d="M 813 3898 
Q 627 3898 502 4022 
Q 378 4147 378 4326 
Q 378 4512 502 4640 
Q 627 4768 813 4768 
Q 998 4768 1126 4640 
Q 1254 4512 1254 4326 
Q 1254 4147 1126 4022 
Q 998 3898 813 3898 
z
M 538 -326 
Q 506 -326 483 -304 
Q 461 -282 461 -250 
L 461 3123 
Q 461 3155 483 3177 
Q 506 3200 538 3200 
L 1075 3200 
Q 1107 3200 1129 3177 
Q 1152 3155 1152 3123 
L 1152 -250 
Q 1152 -282 1129 -304 
Q 1107 -326 1075 -326 
L 538 -326 
z
" transform="scale(0.015625)"/>
      <path id="NanumGothicBold-74" d="M 2278 -262 
Q 2189 -320 1993 -368 
Q 1798 -416 1574 -416 
Q 1306 -416 1146 -304 
Q 986 -192 909 -45 
Q 819 122 800 346 
Q 781 570 781 954 
L 781 2560 
L 250 2560 
Q 218 2560 195 2582 
Q 173 2605 173 2637 
L 173 3142 
Q 173 3174 195 3196 
Q 218 3219 250 3219 
L 781 3219 
L 781 4115 
Q 781 4147 806 4169 
Q 832 4192 864 4192 
L 1382 4192 
Q 1421 4192 1443 4169 
Q 1466 4147 1466 4115 
L 1466 3219 
L 2080 3219 
Q 2112 3219 2134 3196 
Q 2157 3174 2157 3142 
L 2157 2637 
Q 2157 2605 2134 2582 
Q 2112 2560 2080 2560 
L 1466 2560 
L 1466 909 
Q 1466 474 1485 358 
Q 1510 243 1606 217 
Q 1702 192 1824 205 
Q 1907 218 2009 240 
Q 2112 262 2189 294 
Q 2221 307 2233 297 
Q 2246 288 2259 237 
L 2310 -186 
Q 2317 -230 2278 -262 
z
" transform="scale(0.015625)"/>
      <path id="NanumGothicBold-6e" d="M 2752 -314 
Q 2720 -314 2697 -285 
Q 2675 -256 2675 -224 
L 2675 1811 
Q 2675 2272 2531 2477 
Q 2387 2682 2080 2682 
Q 1658 2682 1456 2448 
Q 1254 2214 1254 1773 
L 1254 -230 
Q 1254 -314 1178 -314 
L 646 -314 
Q 614 -314 592 -285 
Q 570 -256 570 -224 
L 570 2323 
Q 570 2566 566 2790 
Q 563 3014 550 3142 
Q 538 3226 640 3226 
L 1146 3226 
Q 1216 3226 1203 3174 
L 1197 2944 
Q 1357 3098 1581 3206 
Q 1805 3315 2099 3315 
Q 2714 3315 3037 2953 
Q 3360 2592 3360 1907 
L 3360 -230 
Q 3360 -314 3283 -314 
L 2752 -314 
z
" transform="scale(0.015625)"/>
     </defs>
     <use xlink:href="#NanumGothicBold-6c"/>
     <use xlink:href="#NanumGothicBold-6f" transform="translate(24.199997 0)"/>
     <use xlink:href="#NanumGothicBold-63" transform="translate(84.799988 0)"/>
     <use xlink:href="#NanumGothicBold-61" transform="translate(133.199982 0)"/>
     <use xlink:href="#NanumGothicBold-6c" transform="translate(187.699966 0)"/>
     <use xlink:href="#NanumGothicBold-50" transform="translate(211.899963 0)"/>
     <use xlink:href="#NanumGothicBold-6f" transform="translate(265.34996 0)"/>
     <use xlink:href="#NanumGothicBold-73" transform="translate(325.949951 0)"/>
     <use xlink:href="#NanumGothicBold-69" transform="translate(368.349945 0)"/>
     <use xlink:href="#NanumGothicBold-74" transform="translate(392.549942 0)"/>
     <use xlink:href="#NanumGothicBold-69" transform="translate(428.84993 0)"/>
     <use xlink:href="#NanumGothicBold-6f" transform="translate(453.049927 0)"/>
     <use xlink:href="#NanumGothicBold-6e" transform="translate(513.649918 0)"/>
    </g>
   </g>
   <g id="patch_2">
    <path d="M 90.810799 85.717184 
Q 111.357231 85.717184 129.891202 85.717184 
" clip-path="url(#p592fa2b0bb)" style="fill: none; stroke: #6b7280; stroke-width: 1.8; stroke-linecap: round"/>
    <path d="M 124.291202 82.917184 
L 129.891202 85.717184 
L 124.291202 88.517184 
z
" clip-path="url(#p592fa2b0bb)" style="fill: #6b7280; stroke: #6b7280; stroke-width: 1.8; stroke-linecap: round"/>
   </g>
   <g id="text_3">
    <!-- S 적용 -->
    <g style="fill: #111827" transform="translate(159.112704 88.791169) scale(0.11 -0.11)">
     <defs>
      <path id="NanumGothicBold-53" d="M 2784 26 
Q 2618 -154 2358 -278 
Q 2099 -403 1811 -429 
Q 1658 -442 1469 -429 
Q 1280 -416 1104 -387 
Q 928 -358 784 -323 
Q 640 -288 576 -256 
Q 480 -211 461 -188 
Q 442 -166 454 -96 
L 499 378 
Q 506 429 531 441 
Q 557 454 627 422 
Q 704 390 845 348 
Q 986 307 1158 278 
Q 1331 250 1507 243 
Q 1683 237 1824 269 
Q 2010 314 2125 387 
Q 2240 461 2307 560 
Q 2374 659 2400 777 
Q 2426 896 2426 1024 
Q 2426 1146 2269 1357 
Q 2112 1568 1818 1741 
Q 1459 1952 1196 2134 
Q 934 2317 764 2496 
Q 595 2675 512 2867 
Q 429 3059 429 3290 
Q 429 3552 541 3792 
Q 653 4032 848 4211 
Q 1043 4390 1315 4496 
Q 1587 4602 1914 4602 
Q 2246 4602 2460 4560 
Q 2675 4518 2829 4461 
Q 2899 4435 2915 4406 
Q 2931 4378 2918 4333 
L 2835 3923 
Q 2822 3853 2793 3827 
Q 2765 3802 2694 3827 
Q 2598 3859 2483 3888 
Q 2368 3917 2246 3936 
Q 2125 3955 2013 3961 
Q 1901 3968 1811 3955 
Q 1453 3898 1309 3722 
Q 1165 3546 1165 3277 
Q 1165 3117 1331 2921 
Q 1498 2726 1818 2534 
Q 2221 2291 2480 2099 
Q 2739 1907 2889 1731 
Q 3040 1555 3101 1376 
Q 3162 1197 3162 986 
Q 3162 422 2784 26 
z
" transform="scale(0.015625)"/>
     </defs>
     <use xlink:href="#NanumGothicBold-53"/>
     <use xlink:href="#NanumGothicBold-20" transform="translate(54.499985 0)"/>
     <use xlink:href="#NanumGothicBold-c801" transform="translate(82.499969 0)"/>
     <use xlink:href="#NanumGothicBold-c6a9" transform="translate(176.499954 0)"/>
    </g>
   </g>
   <g id="patch_3">
    <path d="M 206.054881 85.717184 
Q 226.601313 85.717184 245.135284 85.717184 
" clip-path="url(#p592fa2b0bb)" style="fill: none; stroke: #6b7280; stroke-width: 1.8; stroke-linecap: round"/>
    <path d="M 239.535284 82.917184 
L 245.135284 85.717184 
L 239.535284 88.517184 
z
" clip-path="url(#p592fa2b0bb)" style="fill: #6b7280; stroke: #6b7280; stroke-width: 1.8; stroke-linecap: round"/>
   </g>
   <g id="text_4">
    <!-- R 적용 -->
    <g style="fill: #111827" transform="translate(273.933114 88.791169) scale(0.11 -0.11)">
     <defs>
      <path id="NanumGothicBold-52" d="M 3206 -320 
Q 3136 -320 3107 -310 
Q 3078 -301 3046 -256 
L 2067 1638 
L 1338 1638 
L 1338 -237 
Q 1338 -320 1254 -320 
L 685 -320 
Q 608 -320 608 -237 
L 608 4429 
Q 608 4461 630 4483 
Q 653 4506 685 4506 
L 1978 4506 
Q 2688 4506 3104 4160 
Q 3520 3814 3520 3085 
Q 3520 2618 3315 2294 
Q 3110 1971 2752 1805 
L 3821 -230 
Q 3872 -320 3744 -320 
L 3206 -320 
z
M 1338 3834 
L 1338 2304 
L 1862 2304 
Q 2285 2304 2534 2486 
Q 2784 2669 2784 3091 
Q 2784 3456 2589 3645 
Q 2394 3834 2067 3834 
L 1338 3834 
z
" transform="scale(0.015625)"/>
     </defs>
     <use xlink:href="#NanumGothicBold-52"/>
     <use xlink:href="#NanumGothicBold-20" transform="translate(62.199997 0)"/>
     <use xlink:href="#NanumGothicBold-c801" transform="translate(90.199982 0)"/>
     <use xlink:href="#NanumGothicBold-c6a9" transform="translate(184.199966 0)"/>
    </g>
   </g>
   <g id="patch_4">
    <path d="M 321.298962 85.717184 
Q 341.845394 85.717184 360.379365 85.717184 
" clip-path="url(#p592fa2b0bb)" style="fill: none; stroke: #6b7280; stroke-width: 1.8; stroke-linecap: round"/>
    <path d="M 354.779365 82.917184 
L 360.379365 85.717184 
L 354.779365 88.517184 
z
" clip-path="url(#p592fa2b0bb)" style="fill: #6b7280; stroke: #6b7280; stroke-width: 1.8; stroke-linecap: round"/>
   </g>
   <g id="text_5">
    <!-- T 적용 -->
    <g style="fill: #111827" transform="translate(389.600867 88.791169) scale(0.11 -0.11)">
     <defs>
      <path id="NanumGothicBold-54" d="M 2138 3834 
L 2138 -243 
Q 2138 -320 2061 -320 
L 1491 -320 
Q 1414 -320 1414 -243 
L 1414 3834 
L 173 3834 
Q 141 3834 118 3856 
Q 96 3878 96 3917 
L 96 4429 
Q 96 4461 118 4483 
Q 141 4506 173 4506 
L 3386 4506 
Q 3418 4506 3440 4483 
Q 3462 4461 3462 4429 
L 3462 3917 
Q 3462 3834 3386 3834 
L 2138 3834 
z
" transform="scale(0.015625)"/>
     </defs>
     <use xlink:href="#NanumGothicBold-54"/>
     <use xlink:href="#NanumGothicBold-20" transform="translate(54.499985 0)"/>
     <use xlink:href="#NanumGothicBold-c801" transform="translate(82.499969 0)"/>
     <use xlink:href="#NanumGothicBold-c6a9" transform="translate(176.499954 0)"/>
    </g>
   </g>
  </g>
 </g>
 <defs>
  <clipPath id="p592fa2b0bb">
   <rect x="8.64" y="30.60045" width="491.04" height="110.233469"/>
  </clipPath>
 </defs>
</svg>
