<?xml version="1.0" encoding="utf-8" standalone="no"?>
<!DOCTYPE svg PUBLIC "-//W3C//DTD SVG 1.1//EN"
  "http://www.w3.org/Graphics/SVG/1.1/DTD/svg11.dtd">
<svg xmlns:xlink="http://www.w3.org/1999/xlink" width="312.96pt" height="259.387125pt" viewBox="0 0 312.96 259.387125" xmlns="http://www.w3.org/2000/svg" version="1.1">
 <metadata>
  <rdf:RDF xmlns:dc="http://purl.org/dc/elements/1.1/" xmlns:cc="http://creativecommons.org/ns#" xmlns:rdf="http://www.w3.org/1999/02/22-rdf-syntax-ns#">
   <cc:Work>
    <dc:type rdf:resource="http://purl.org/dc/dcmitype/StillImage"/>
    <dc:date>2026-07-08T05:12:54.763782</dc:date>
    <dc:format>image/svg+xml</dc:format>
    <dc:creator>
     <cc:Agent>
      <dc:title>Matplotlib v3.10.8, https://matplotlib.org/</dc:title>
     </cc:Agent>
    </dc:creator>
   </cc:Work>
  </rdf:RDF>
 </metadata>
 <defs>
  <style type="text/css">*{stroke-linejoin: round; stroke-linecap: butt}</style>
 </defs>
 <g id="figure_1">
  <g id="patch_1">
   <path d="M 0 259.387125 
L 312.96 259.387125 
L 312.96 0 
L 0 0 
z
" style="fill: #ffffff"/>
  </g>
  <g id="axes_1">
   <g id="line2d_1">
    <path d="M 156.48 65.947125 
L 156.48 213.787125 
" clip-path="url(#pa57cf20192)" style="fill: none; stroke-dasharray: 5.55,2.4; stroke-dashoffset: 0; stroke: #6b7280; stroke-width: 1.5"/>
   </g>
   <g id="text_1">
    <!-- 투영 예시: v = (3, 4)를 x축에 투영 -->
    <g style="fill: #111827" transform="translate(8.64 20.412656) scale(0.15 -0.15)">
     <defs>
      <path id="NanumGothicBold-d22c" d="M 5088 2234 
Q 5088 2182 5065 2156 
Q 5043 2131 5011 2131 
L 1402 2131 
Q 1146 2131 1043 2249 
Q 941 2368 941 2592 
L 941 4525 
Q 941 4768 1049 4854 
Q 1158 4941 1402 4941 
L 4954 4941 
Q 5043 4941 5043 4858 
L 5043 4442 
Q 5043 4352 4954 4352 
L 1792 4352 
Q 1677 4352 1677 4243 
L 1677 3827 
L 4870 3827 
Q 4902 3827 4931 3801 
Q 4960 3776 4960 3738 
L 4960 3347 
Q 4960 3309 4931 3286 
Q 4902 3264 4870 3264 
L 1677 3264 
L 1677 2861 
Q 1677 2720 1792 2720 
L 4986 2720 
Q 5037 2720 5062 2707 
Q 5088 2694 5088 2643 
L 5088 2234 
z
M 5882 1069 
Q 5882 1037 5850 1005 
Q 5818 973 5786 973 
L 3379 973 
L 3379 -877 
Q 3379 -966 3290 -966 
L 2733 -966 
Q 2643 -966 2643 -877 
L 2643 973 
L 211 973 
Q 173 973 147 1005 
Q 122 1037 122 1069 
L 122 1485 
Q 122 1587 211 1587 
L 5786 1587 
Q 5818 1587 5850 1555 
Q 5882 1523 5882 1485 
L 5882 1069 
z
" transform="scale(0.015625)"/>
      <path id="NanumGothicBold-c601" d="M 5280 1581 
Q 5280 1491 5197 1491 
L 4627 1491 
Q 4544 1491 4544 1581 
L 4544 2342 
L 3194 2342 
Q 2989 2131 2694 2016 
Q 2400 1901 2035 1901 
Q 1696 1901 1411 2009 
Q 1126 2118 924 2313 
Q 723 2509 611 2777 
Q 499 3046 499 3366 
Q 499 3674 611 3946 
Q 723 4218 924 4416 
Q 1126 4614 1411 4729 
Q 1696 4845 2035 4845 
Q 2451 4845 2777 4681 
Q 3104 4518 3309 4250 
L 4544 4250 
L 4544 4979 
Q 4544 5062 4627 5062 
L 5197 5062 
Q 5280 5062 5280 4979 
L 5280 1581 
z
M 5325 198 
Q 5325 -70 5181 -294 
Q 5037 -518 4781 -678 
Q 4525 -838 4173 -924 
Q 3821 -1011 3411 -1011 
Q 2970 -1011 2618 -924 
Q 2266 -838 2019 -681 
Q 1773 -525 1641 -301 
Q 1510 -77 1510 198 
Q 1510 467 1641 688 
Q 1773 909 2019 1069 
Q 2266 1229 2618 1315 
Q 2970 1402 3411 1402 
Q 3821 1402 4173 1315 
Q 4525 1229 4781 1072 
Q 5037 915 5181 694 
Q 5325 474 5325 198 
z
M 4570 179 
Q 4570 339 4477 457 
Q 4384 576 4224 656 
Q 4064 736 3853 777 
Q 3642 819 3411 819 
Q 2893 819 2579 659 
Q 2266 499 2266 179 
Q 2266 26 2349 -86 
Q 2432 -198 2585 -275 
Q 2739 -352 2950 -390 
Q 3162 -429 3411 -429 
Q 3642 -429 3853 -390 
Q 4064 -352 4224 -275 
Q 4384 -198 4477 -86 
Q 4570 26 4570 179 
z
M 2880 3354 
Q 2880 3738 2649 3965 
Q 2419 4192 2035 4192 
Q 1664 4192 1433 3965 
Q 1203 3738 1203 3354 
Q 1203 2963 1433 2736 
Q 1664 2509 2035 2509 
Q 2419 2509 2649 2736 
Q 2880 2963 2880 3354 
z
M 3603 3366 
Q 3603 3251 3587 3142 
Q 3571 3034 3539 2931 
L 4544 2931 
L 4544 3661 
L 3571 3661 
Q 3603 3501 3603 3366 
z
" transform="scale(0.015625)"/>
      <path id="NanumGothicBold-20" transform="scale(0.015625)"/>
      <path id="NanumGothicBold-c608" d="M 4320 -717 
Q 4320 -806 4237 -806 
L 3712 -806 
Q 3622 -806 3622 -717 
L 3622 1389 
L 2822 1389 
Q 2643 986 2348 800 
Q 2054 614 1670 614 
Q 1370 614 1120 739 
Q 870 864 688 1113 
Q 506 1363 406 1744 
Q 307 2125 307 2637 
Q 307 3149 406 3526 
Q 506 3904 688 4153 
Q 870 4403 1120 4528 
Q 1370 4653 1670 4653 
Q 2074 4653 2384 4435 
Q 2694 4218 2867 3770 
L 3622 3770 
L 3622 4877 
Q 3622 4960 3712 4960 
L 4237 4960 
Q 4320 4960 4320 4877 
L 4320 -717 
z
M 5549 -941 
Q 5549 -1024 5466 -1024 
L 4909 -1024 
Q 4826 -1024 4826 -941 
L 4826 4979 
Q 4826 5062 4915 5062 
L 5466 5062 
Q 5549 5062 5549 4979 
L 5549 -941 
z
M 2336 2637 
Q 2336 2874 2297 3117 
Q 2259 3360 2179 3558 
Q 2099 3757 1974 3885 
Q 1850 4013 1677 4013 
Q 1510 4013 1385 3885 
Q 1261 3757 1181 3558 
Q 1101 3360 1062 3117 
Q 1024 2874 1024 2637 
Q 1024 2400 1062 2153 
Q 1101 1907 1181 1708 
Q 1261 1510 1385 1382 
Q 1510 1254 1677 1254 
Q 1850 1254 1974 1382 
Q 2099 1510 2179 1708 
Q 2259 1907 2297 2153 
Q 2336 2400 2336 2637 
z
M 3040 2637 
Q 3040 2451 3027 2294 
Q 3014 2138 2989 1990 
L 3622 1990 
L 3622 3174 
L 3008 3174 
Q 3021 3046 3030 2912 
Q 3040 2778 3040 2637 
z
" transform="scale(0.015625)"/>
      <path id="NanumGothicBold-c2dc" d="M 851 403 
Q 736 307 627 410 
L 333 691 
Q 230 781 352 890 
Q 762 1267 1059 1728 
Q 1357 2189 1536 2714 
Q 1613 2944 1667 3171 
Q 1722 3398 1757 3632 
Q 1792 3866 1805 4118 
Q 1818 4371 1811 4653 
Q 1811 4691 1840 4720 
Q 1869 4749 1901 4749 
L 2470 4730 
Q 2502 4730 2528 4701 
Q 2554 4672 2554 4634 
Q 2554 4250 2525 3917 
Q 2496 3584 2445 3277 
Q 2502 2976 2640 2669 
Q 2778 2362 2960 2083 
Q 3142 1805 3353 1568 
Q 3565 1331 3770 1165 
Q 3872 1088 3782 966 
L 3514 640 
Q 3482 595 3427 588 
Q 3373 582 3315 627 
Q 3155 749 2982 928 
Q 2810 1107 2646 1318 
Q 2483 1530 2348 1750 
Q 2214 1971 2131 2176 
Q 2016 1907 1869 1651 
Q 1722 1395 1552 1164 
Q 1382 934 1203 739 
Q 1024 544 851 403 
z
M 5280 -928 
Q 5280 -1011 5190 -1011 
L 4627 -1011 
Q 4595 -1011 4566 -988 
Q 4538 -966 4538 -928 
L 4538 4979 
Q 4538 5011 4566 5036 
Q 4595 5062 4627 5062 
L 5190 5062 
Q 5280 5062 5280 4979 
L 5280 -928 
z
" transform="scale(0.015625)"/>
      <path id="NanumGothicBold-3a" d="M 1011 3053 
Q 806 3053 662 3197 
Q 518 3341 518 3533 
Q 518 3731 662 3875 
Q 806 4019 1011 4019 
Q 1216 4019 1357 3875 
Q 1498 3731 1498 3533 
Q 1498 3341 1357 3197 
Q 1216 3053 1011 3053 
z
M 1011 141 
Q 806 141 662 285 
Q 518 429 518 627 
Q 518 819 662 963 
Q 806 1107 1011 1107 
Q 1216 1107 1357 963 
Q 1498 819 1498 627 
Q 1498 429 1357 285 
Q 1216 141 1011 141 
z
" transform="scale(0.015625)"/>
      <path id="NanumGothicBold-76" d="M 1920 -250 
Q 1907 -288 1894 -297 
Q 1882 -307 1843 -307 
L 1293 -307 
Q 1254 -307 1238 -297 
Q 1222 -288 1210 -250 
L 45 3149 
Q 32 3181 45 3200 
Q 58 3219 128 3219 
L 685 3219 
Q 717 3219 736 3209 
Q 755 3200 768 3168 
L 1568 755 
L 2362 3168 
Q 2374 3200 2396 3209 
Q 2419 3219 2451 3219 
L 3014 3219 
Q 3085 3219 3097 3200 
Q 3110 3181 3098 3149 
L 1920 -250 
z
" transform="scale(0.015625)"/>
      <path id="NanumGothicBold-3d" d="M 422 2419 
Q 390 2419 368 2441 
Q 346 2464 346 2496 
L 346 3002 
Q 346 3034 368 3056 
Q 390 3078 422 3078 
L 3802 3078 
Q 3834 3078 3856 3056 
Q 3878 3034 3878 3002 
L 3878 2496 
Q 3878 2464 3856 2441 
Q 3834 2419 3802 2419 
L 422 2419 
z
M 422 1088 
Q 390 1088 368 1110 
Q 346 1133 346 1165 
L 346 1670 
Q 346 1702 368 1724 
Q 390 1747 422 1747 
L 3802 1747 
Q 3834 1747 3856 1724 
Q 3878 1702 3878 1670 
L 3878 1165 
Q 3878 1133 3856 1110 
Q 3834 1088 3802 1088 
L 422 1088 
z
" transform="scale(0.015625)"/>
      <path id="NanumGothicBold-28" d="M 1722 -1197 
Q 1670 -1197 1632 -1139 
Q 1030 -397 758 361 
Q 486 1120 486 1933 
Q 486 2739 758 3497 
Q 1030 4256 1632 5005 
Q 1670 5062 1722 5062 
L 2195 5062 
Q 2278 5062 2234 4992 
Q 1722 4186 1478 3434 
Q 1235 2682 1235 1933 
Q 1235 1178 1475 429 
Q 1715 -320 2234 -1126 
Q 2253 -1152 2246 -1174 
Q 2240 -1197 2195 -1197 
L 1722 -1197 
z
" transform="scale(0.015625)"/>
      <path id="NanumGothicBold-33" d="M 2854 -13 
Q 2611 -211 2268 -304 
Q 1926 -397 1555 -397 
Q 1280 -397 1001 -349 
Q 723 -301 486 -218 
Q 422 -198 396 -169 
Q 371 -141 378 -83 
L 435 397 
Q 442 454 474 473 
Q 506 493 595 461 
Q 762 410 928 362 
Q 1094 314 1267 301 
Q 1402 288 1542 281 
Q 1683 275 1820 291 
Q 1958 307 2083 348 
Q 2208 390 2317 467 
Q 2624 678 2624 1107 
Q 2624 1254 2557 1392 
Q 2490 1530 2349 1635 
Q 2208 1741 1987 1801 
Q 1766 1862 1459 1862 
L 1139 1862 
Q 1088 1862 1072 1878 
Q 1056 1894 1056 1946 
L 1056 2419 
Q 1056 2477 1072 2489 
Q 1088 2502 1139 2502 
L 1446 2502 
Q 1587 2502 1785 2544 
Q 1984 2586 2169 2682 
Q 2355 2778 2486 2925 
Q 2618 3072 2618 3283 
Q 2618 3450 2534 3571 
Q 2451 3693 2320 3769 
Q 2189 3846 2035 3881 
Q 1882 3917 1747 3917 
Q 1658 3917 1539 3897 
Q 1421 3878 1296 3849 
Q 1171 3821 1043 3782 
Q 915 3744 813 3706 
Q 736 3674 704 3690 
Q 672 3706 659 3763 
L 602 4230 
Q 589 4269 608 4301 
Q 627 4333 698 4358 
Q 979 4461 1248 4518 
Q 1517 4576 1786 4576 
Q 2074 4576 2352 4505 
Q 2630 4435 2844 4288 
Q 3059 4141 3193 3904 
Q 3328 3667 3328 3341 
Q 3328 3168 3267 2995 
Q 3206 2822 3097 2668 
Q 2989 2515 2835 2393 
Q 2682 2272 2502 2195 
Q 2925 2010 3142 1725 
Q 3360 1440 3360 1088 
Q 3360 749 3229 467 
Q 3098 186 2854 -13 
z
" transform="scale(0.015625)"/>
      <path id="NanumGothicBold-2c" d="M 1069 -1139 
Q 1050 -1190 1011 -1206 
Q 973 -1222 928 -1222 
L 416 -1222 
Q 384 -1222 365 -1200 
Q 346 -1178 358 -1139 
L 672 26 
Q 685 58 710 93 
Q 736 128 806 128 
L 1427 128 
Q 1510 128 1516 86 
Q 1523 45 1510 6 
L 1069 -1139 
z
" transform="scale(0.015625)"/>
      <path id="NanumGothicBold-34" d="M 3008 742 
L 3008 -230 
Q 3008 -301 2989 -323 
Q 2970 -346 2899 -346 
L 2438 -346 
Q 2368 -346 2345 -320 
Q 2323 -294 2323 -230 
L 2323 742 
L 275 742 
Q 211 742 192 755 
Q 173 768 173 819 
L 173 1293 
Q 173 1338 198 1382 
Q 224 1427 250 1459 
L 2227 4435 
Q 2266 4486 2282 4502 
Q 2298 4518 2362 4518 
L 2944 4518 
Q 2995 4518 3001 4499 
Q 3008 4480 3008 4422 
L 3008 1402 
L 3603 1402 
Q 3661 1402 3680 1386 
Q 3699 1370 3699 1306 
L 3699 838 
Q 3699 774 3680 758 
Q 3661 742 3603 742 
L 3008 742 
z
M 947 1402 
L 2323 1402 
L 2323 3488 
L 947 1402 
z
" transform="scale(0.015625)"/>
      <path id="NanumGothicBold-29" d="M 723 -1139 
Q 685 -1197 634 -1197 
L 160 -1197 
Q 115 -1197 108 -1174 
Q 102 -1152 122 -1126 
Q 640 -320 880 429 
Q 1120 1178 1120 1933 
Q 1120 2682 877 3434 
Q 634 4186 122 4992 
Q 77 5062 160 5062 
L 634 5062 
Q 685 5062 723 5005 
Q 1325 4256 1597 3497 
Q 1869 2739 1869 1933 
Q 1869 1120 1597 361 
Q 1325 -397 723 -1139 
z
" transform="scale(0.015625)"/>
      <path id="NanumGothicBold-b97c" d="M 5088 -870 
Q 5088 -902 5059 -931 
Q 5030 -960 5005 -960 
L 1478 -960 
Q 1229 -960 1139 -870 
Q 1050 -781 1050 -576 
L 1050 109 
Q 1050 314 1136 403 
Q 1222 493 1472 493 
L 4160 493 
Q 4211 493 4224 502 
Q 4237 512 4237 570 
L 4237 749 
Q 4237 819 4224 832 
Q 4211 845 4154 845 
L 1126 845 
Q 1094 845 1065 867 
Q 1037 890 1037 922 
L 1037 1331 
Q 1037 1363 1065 1388 
Q 1094 1414 1126 1414 
L 4518 1414 
Q 4781 1414 4867 1334 
Q 4954 1254 4954 1037 
L 4954 346 
Q 4954 122 4867 45 
Q 4781 -32 4518 -32 
L 1850 -32 
Q 1798 -32 1785 -48 
Q 1773 -64 1773 -122 
L 1773 -314 
Q 1773 -378 1785 -387 
Q 1798 -397 1862 -397 
L 4998 -397 
Q 5030 -397 5059 -419 
Q 5088 -442 5088 -480 
L 5088 -870 
z
M 5050 2829 
Q 5050 2797 5021 2768 
Q 4992 2739 4966 2739 
L 1498 2739 
Q 1248 2739 1158 2828 
Q 1069 2918 1069 3123 
L 1069 3782 
Q 1069 3987 1155 4076 
Q 1242 4166 1491 4166 
L 4154 4166 
Q 4205 4166 4217 4182 
Q 4230 4198 4230 4262 
L 4230 4454 
Q 4230 4512 4217 4521 
Q 4205 4531 4147 4531 
L 1184 4531 
Q 1152 4531 1123 4553 
Q 1094 4576 1094 4608 
L 1094 5011 
Q 1094 5043 1123 5068 
Q 1152 5094 1184 5094 
L 4512 5094 
Q 4774 5094 4860 5014 
Q 4947 4934 4947 4717 
L 4947 4019 
Q 4947 3795 4860 3718 
Q 4774 3642 4512 3642 
L 1875 3642 
Q 1818 3642 1805 3626 
Q 1792 3610 1792 3558 
L 1792 3386 
Q 1792 3328 1805 3318 
Q 1818 3309 1882 3309 
L 4960 3309 
Q 4992 3309 5021 3286 
Q 5050 3264 5050 3226 
L 5050 2829 
z
M 5875 1882 
Q 5875 1850 5843 1818 
Q 5811 1786 5779 1786 
L 211 1786 
Q 173 1786 147 1814 
Q 122 1843 122 1882 
L 122 2272 
Q 122 2362 211 2362 
L 5779 2362 
Q 5811 2362 5843 2333 
Q 5875 2304 5875 2272 
L 5875 1882 
z
" transform="scale(0.015625)"/>
      <path id="NanumGothicBold-78" d="M 2515 -301 
Q 2445 -301 2419 -262 
L 1632 954 
L 845 -262 
Q 813 -301 749 -301 
L 90 -301 
Q 13 -301 70 -224 
L 1235 1542 
L 186 3142 
Q 160 3174 173 3196 
Q 186 3219 237 3219 
L 877 3219 
Q 928 3219 954 3181 
L 1632 2131 
L 2310 3181 
Q 2336 3219 2387 3219 
L 3027 3219 
Q 3078 3219 3091 3196 
Q 3104 3174 3078 3142 
L 2029 1542 
L 3194 -224 
Q 3251 -301 3174 -301 
L 2515 -301 
z
" transform="scale(0.015625)"/>
      <path id="NanumGothicBold-cd95" d="M 4960 -928 
Q 4960 -960 4931 -989 
Q 4902 -1018 4870 -1018 
L 4320 -1018 
Q 4282 -1018 4253 -989 
Q 4224 -960 4224 -928 
L 4224 147 
Q 4224 218 4198 237 
Q 4173 256 4102 256 
L 998 256 
Q 966 256 937 278 
Q 909 301 909 333 
L 909 774 
Q 909 813 937 835 
Q 966 858 998 858 
L 2630 858 
L 2630 1357 
L 211 1357 
Q 122 1357 122 1446 
L 122 1850 
Q 122 1888 147 1917 
Q 173 1946 211 1946 
L 5779 1946 
Q 5811 1946 5843 1914 
Q 5875 1882 5875 1850 
L 5875 1446 
Q 5875 1414 5843 1385 
Q 5811 1357 5779 1357 
L 3366 1357 
L 3366 858 
L 4538 858 
Q 4781 858 4870 755 
Q 4960 653 4960 410 
L 4960 -928 
z
M 979 2240 
Q 934 2227 883 2243 
Q 832 2259 819 2298 
L 710 2669 
Q 698 2707 723 2745 
Q 749 2784 794 2797 
Q 1562 2944 2224 3133 
Q 2886 3322 3424 3571 
Q 3482 3597 3498 3613 
Q 3514 3629 3504 3638 
Q 3494 3648 3468 3651 
Q 3443 3654 3424 3654 
L 1216 3654 
Q 1126 3654 1126 3738 
L 1126 4128 
Q 1126 4205 1216 4205 
L 4122 4205 
Q 4403 4205 4537 4112 
Q 4672 4019 4672 3904 
Q 4672 3795 4605 3692 
Q 4538 3590 4442 3507 
Q 4230 3302 3840 3110 
Q 4160 3040 4518 2976 
Q 4877 2912 5222 2861 
Q 5274 2848 5293 2806 
Q 5312 2765 5299 2726 
L 5203 2394 
Q 5190 2362 5148 2333 
Q 5107 2304 5050 2317 
Q 4589 2387 4051 2505 
Q 3514 2624 3021 2771 
Q 2554 2605 2026 2467 
Q 1498 2330 979 2240 
z
M 3859 4563 
Q 3859 4525 3827 4493 
Q 3795 4461 3750 4461 
L 2112 4461 
Q 2086 4461 2051 4486 
Q 2016 4512 2016 4557 
L 2016 4909 
Q 2016 4954 2051 4979 
Q 2086 5005 2112 5005 
L 3750 5005 
Q 3789 5005 3824 4973 
Q 3859 4941 3859 4902 
L 3859 4563 
z
" transform="scale(0.015625)"/>
      <path id="NanumGothicBold-c5d0" d="M 2342 2630 
Q 2342 2874 2304 3117 
Q 2266 3360 2182 3558 
Q 2099 3757 1968 3878 
Q 1837 4000 1658 4000 
Q 1491 4000 1369 3875 
Q 1248 3750 1171 3552 
Q 1094 3354 1056 3110 
Q 1018 2867 1018 2630 
Q 1018 2400 1056 2157 
Q 1094 1914 1171 1712 
Q 1248 1510 1369 1382 
Q 1491 1254 1658 1254 
Q 1837 1254 1965 1382 
Q 2093 1510 2176 1708 
Q 2259 1907 2300 2150 
Q 2342 2394 2342 2630 
z
M 4314 -717 
Q 4314 -806 4230 -806 
L 3706 -806 
Q 3616 -806 3616 -717 
L 3616 2291 
L 3034 2291 
Q 3002 1901 2883 1593 
Q 2765 1286 2582 1072 
Q 2400 858 2163 746 
Q 1926 634 1651 634 
Q 1344 634 1094 771 
Q 845 909 669 1168 
Q 493 1427 397 1798 
Q 301 2170 301 2637 
Q 301 3142 403 3520 
Q 506 3898 685 4147 
Q 864 4397 1110 4518 
Q 1357 4640 1651 4640 
Q 1933 4640 2176 4534 
Q 2419 4429 2604 4214 
Q 2790 4000 2905 3673 
Q 3021 3347 3046 2906 
L 3616 2906 
L 3616 4870 
Q 3616 4954 3706 4954 
L 4230 4954 
Q 4314 4954 4314 4870 
L 4314 -717 
z
M 5549 -934 
Q 5549 -1018 5466 -1018 
L 4909 -1018 
Q 4826 -1018 4826 -934 
L 4826 4979 
Q 4826 5062 4915 5062 
L 5466 5062 
Q 5549 5062 5549 4979 
L 5549 -934 
z
" transform="scale(0.015625)"/>
     </defs>
     <use xlink:href="#NanumGothicBold-d22c"/>
     <use xlink:href="#NanumGothicBold-c601" transform="translate(93.999985 0)"/>
     <use xlink:href="#NanumGothicBold-20" transform="translate(187.999969 0)"/>
     <use xlink:href="#NanumGothicBold-c608" transform="translate(215.999954 0)"/>
     <use xlink:href="#NanumGothicBold-c2dc" transform="translate(309.999939 0)"/>
     <use xlink:href="#NanumGothicBold-3a" transform="translate(403.999924 0)"/>
     <use xlink:href="#NanumGothicBold-20" transform="translate(434.299911 0)"/>
     <use xlink:href="#NanumGothicBold-76" transform="translate(462.299896 0)"/>
     <use xlink:href="#NanumGothicBold-20" transform="translate(510.69989 0)"/>
     <use xlink:href="#NanumGothicBold-3d" transform="translate(538.699875 0)"/>
     <use xlink:href="#NanumGothicBold-20" transform="translate(604.099869 0)"/>
     <use xlink:href="#NanumGothicBold-28" transform="translate(632.099854 0)"/>
     <use xlink:href="#NanumGothicBold-33" transform="translate(668.399841 0)"/>
     <use xlink:href="#NanumGothicBold-2c" transform="translate(728.999832 0)"/>
     <use xlink:href="#NanumGothicBold-20" transform="translate(759.29982 0)"/>
     <use xlink:href="#NanumGothicBold-34" transform="translate(787.299805 0)"/>
     <use xlink:href="#NanumGothicBold-29" transform="translate(847.899796 0)"/>
     <use xlink:href="#NanumGothicBold-b97c" transform="translate(884.199783 0)"/>
     <use xlink:href="#NanumGothicBold-20" transform="translate(978.199768 0)"/>
     <use xlink:href="#NanumGothicBold-78" transform="translate(1006.199753 0)"/>
     <use xlink:href="#NanumGothicBold-cd95" transform="translate(1057.199738 0)"/>
     <use xlink:href="#NanumGothicBold-c5d0" transform="translate(1151.199722 0)"/>
     <use xlink:href="#NanumGothicBold-20" transform="translate(1245.199707 0)"/>
     <use xlink:href="#NanumGothicBold-d22c" transform="translate(1273.199692 0)"/>
     <use xlink:href="#NanumGothicBold-c601" transform="translate(1367.199677 0)"/>
    </g>
   </g>
   <g id="patch_2">
    <path d="M 47.599819 213.787125 
Q 156.478957 213.787125 263.122027 213.787125 
" clip-path="url(#pa57cf20192)" style="fill: none; stroke: #6b7280; stroke-width: 2; stroke-linecap: round"/>
    <path d="M 257.522027 210.987125 
L 263.122027 213.787125 
L 257.522027 216.587125 
z
" clip-path="url(#pa57cf20192)" style="fill: #6b7280; stroke: #6b7280; stroke-width: 2; stroke-linecap: round"/>
   </g>
   <g id="patch_3">
    <path d="M 46.799553 212.187721 
Q 101.039794 139.867399 153.401738 70.051474 
" clip-path="url(#pa57cf20192)" style="fill: none; stroke: #2563eb; stroke-width: 2.8; stroke-linecap: round"/>
    <path d="M 147.801738 72.851474 
L 153.401738 70.051474 
L 152.281738 76.211474 
z
" clip-path="url(#pa57cf20192)" style="fill: #2563eb; stroke: #2563eb; stroke-width: 2.8; stroke-linecap: round"/>
   </g>
   <g id="patch_4">
    <path d="M 47.599819 213.787125 
Q 101.04142 213.787125 151.12892 213.787125 
" clip-path="url(#pa57cf20192)" style="fill: none; stroke: #10b981; stroke-width: 3; stroke-linecap: round"/>
    <path d="M 145.52892 210.987125 
L 151.12892 213.787125 
L 145.52892 216.587125 
z
" clip-path="url(#pa57cf20192)" style="fill: #10b981; stroke: #10b981; stroke-width: 3; stroke-linecap: round"/>
   </g>
   <g id="text_2">
    <!-- v = (3, 4) -->
    <g style="fill: #2563eb" transform="translate(160.176 139.350813) scale(0.11 -0.11)">
     <defs>
      <path id="NanumGothic-76" d="M 1843 -192 
Q 1811 -275 1715 -275 
L 1402 -275 
Q 1306 -275 1280 -192 
L 154 3098 
Q 141 3130 160 3158 
Q 179 3187 218 3187 
L 506 3187 
Q 582 3187 621 3098 
L 1568 166 
L 2554 3098 
Q 2566 3136 2598 3161 
Q 2630 3187 2669 3187 
L 2950 3187 
Q 2989 3187 3008 3158 
Q 3027 3130 3014 3098 
L 1843 -192 
z
" transform="scale(0.015625)"/>
      <path id="NanumGothic-20" transform="scale(0.015625)"/>
      <path id="NanumGothic-3d" d="M 3757 2995 
Q 3827 2995 3836 2985 
Q 3846 2976 3846 2906 
L 3846 2618 
Q 3846 2547 3836 2537 
Q 3827 2528 3757 2528 
L 467 2528 
Q 397 2528 387 2537 
Q 378 2547 378 2618 
L 378 2906 
Q 378 2976 387 2985 
Q 397 2995 467 2995 
L 3757 2995 
z
M 3757 1626 
Q 3827 1626 3836 1616 
Q 3846 1606 3846 1536 
L 3846 1261 
Q 3846 1190 3836 1180 
Q 3827 1171 3757 1171 
L 467 1171 
Q 397 1171 387 1180 
Q 378 1190 378 1261 
L 378 1536 
Q 378 1606 387 1616 
Q 397 1626 467 1626 
L 3757 1626 
z
" transform="scale(0.015625)"/>
      <path id="NanumGothic-28" d="M 1984 -1133 
Q 1939 -1133 1929 -1129 
Q 1920 -1126 1894 -1094 
Q 1312 -365 1030 384 
Q 749 1133 749 1933 
Q 749 2726 1030 3475 
Q 1312 4224 1894 4960 
Q 1920 4992 1929 4995 
Q 1939 4998 1971 4998 
L 2150 4998 
Q 2189 4998 2189 4992 
Q 2189 4986 2170 4954 
Q 1165 3379 1165 1933 
Q 1165 1197 1421 448 
Q 1677 -301 2176 -1088 
Q 2208 -1133 2144 -1133 
L 1984 -1133 
z
" transform="scale(0.015625)"/>
      <path id="NanumGothic-33" d="M 493 -192 
Q 397 -166 410 -45 
L 435 205 
Q 448 282 538 243 
Q 806 134 1046 89 
Q 1286 45 1606 38 
Q 2112 32 2458 294 
Q 2861 563 2861 1082 
Q 2861 1990 1498 1990 
L 1165 1990 
Q 1082 1990 1082 2061 
L 1082 2298 
Q 1082 2381 1165 2381 
L 1197 2381 
Q 1882 2381 2266 2528 
Q 2848 2752 2848 3334 
Q 2848 3520 2749 3677 
Q 2650 3834 2483 3942 
Q 2330 4032 2138 4083 
Q 1946 4134 1734 4134 
Q 1517 4134 1254 4076 
Q 992 4019 749 3923 
Q 666 3891 653 3974 
L 627 4211 
Q 608 4301 710 4339 
Q 998 4435 1248 4480 
Q 1498 4525 1779 4525 
Q 2426 4525 2835 4250 
Q 3302 3936 3302 3334 
Q 3302 2906 2995 2592 
Q 2739 2317 2330 2189 
Q 2534 2163 2710 2080 
Q 2886 1997 3014 1850 
Q 3162 1690 3238 1488 
Q 3315 1286 3315 1043 
Q 3315 723 3184 464 
Q 3053 205 2810 19 
Q 2573 -154 2265 -253 
Q 1958 -352 1581 -346 
Q 1242 -339 995 -307 
Q 749 -275 493 -192 
z
" transform="scale(0.015625)"/>
      <path id="NanumGothic-2c" d="M 1299 115 
Q 1382 115 1382 86 
Q 1382 58 1370 19 
L 947 -1126 
Q 922 -1178 899 -1194 
Q 877 -1210 832 -1210 
L 563 -1210 
Q 480 -1210 499 -1120 
L 800 6 
Q 813 45 838 80 
Q 864 115 934 115 
L 1299 115 
z
" transform="scale(0.015625)"/>
      <path id="NanumGothic-34" d="M 2509 1216 
L 2509 4070 
Q 2035 3354 1568 2643 
Q 1101 1933 621 1216 
L 2509 1216 
z
M 2944 -211 
Q 2944 -301 2854 -301 
L 2598 -301 
Q 2509 -301 2509 -211 
L 2509 826 
L 397 826 
Q 262 826 240 848 
Q 218 870 218 1005 
L 218 1203 
Q 218 1261 224 1280 
Q 230 1299 262 1350 
L 2304 4397 
Q 2342 4454 2358 4464 
Q 2374 4474 2445 4474 
L 2765 4474 
Q 2899 4474 2921 4451 
Q 2944 4429 2944 4294 
L 2944 1216 
L 3578 1216 
Q 3667 1216 3667 1126 
L 3667 915 
Q 3667 826 3578 826 
L 2944 826 
L 2944 -211 
z
" transform="scale(0.015625)"/>
      <path id="NanumGothic-29" d="M 301 -1133 
Q 243 -1133 275 -1088 
Q 774 -301 1027 448 
Q 1280 1197 1280 1933 
Q 1280 2662 1030 3414 
Q 781 4166 282 4954 
Q 262 4986 262 4992 
Q 262 4998 294 4998 
L 474 4998 
Q 506 4998 515 4995 
Q 525 4992 557 4960 
Q 1139 4224 1417 3475 
Q 1696 2726 1696 1933 
Q 1696 1133 1417 384 
Q 1139 -365 557 -1094 
Q 525 -1126 515 -1129 
Q 506 -1133 461 -1133 
L 301 -1133 
z
" transform="scale(0.015625)"/>
     </defs>
     <use xlink:href="#NanumGothic-76"/>
     <use xlink:href="#NanumGothic-20" transform="translate(48.399994 0)"/>
     <use xlink:href="#NanumGothic-3d" transform="translate(76.399979 0)"/>
     <use xlink:href="#NanumGothic-20" transform="translate(141.799973 0)"/>
     <use xlink:href="#NanumGothic-28" transform="translate(169.799957 0)"/>
     <use xlink:href="#NanumGothic-33" transform="translate(206.099945 0)"/>
     <use xlink:href="#NanumGothic-2c" transform="translate(266.699936 0)"/>
     <use xlink:href="#NanumGothic-20" transform="translate(296.999924 0)"/>
     <use xlink:href="#NanumGothic-34" transform="translate(324.999908 0)"/>
     <use xlink:href="#NanumGothic-29" transform="translate(385.599899 0)"/>
    </g>
   </g>
   <g id="text_3">
    <!-- 투영 = (3, 0) -->
    <g style="fill: #10b981" transform="translate(160.176 200.340828) scale(0.11 -0.11)">
     <defs>
      <path id="NanumGothic-d22c" d="M 5030 2214 
Q 5030 2125 4947 2125 
L 1491 2125 
Q 1210 2125 1107 2217 
Q 1005 2310 1005 2579 
L 1005 4403 
Q 1005 4672 1107 4765 
Q 1210 4858 1491 4858 
L 4902 4858 
Q 4986 4858 4986 4774 
L 4986 4563 
Q 4986 4474 4902 4474 
L 1600 4474 
Q 1510 4474 1478 4438 
Q 1446 4403 1446 4307 
L 1446 3680 
L 4813 3680 
Q 4902 3680 4902 3610 
L 4902 3392 
Q 4902 3309 4819 3309 
L 1446 3309 
L 1446 2675 
Q 1446 2586 1478 2547 
Q 1510 2509 1600 2509 
L 4947 2509 
Q 5030 2509 5030 2426 
L 5030 2214 
z
M 2854 -858 
Q 2822 -858 2796 -829 
Q 2771 -800 2771 -762 
L 2771 998 
L 288 998 
Q 250 998 221 1024 
Q 192 1050 192 1082 
L 192 1299 
Q 192 1338 221 1360 
Q 250 1382 288 1382 
L 5728 1382 
Q 5760 1382 5792 1360 
Q 5824 1338 5824 1299 
L 5824 1082 
Q 5824 1050 5792 1024 
Q 5760 998 5728 998 
L 3213 998 
L 3213 -762 
Q 3213 -800 3190 -829 
Q 3168 -858 3130 -858 
L 2854 -858 
z
" transform="scale(0.015625)"/>
      <path id="NanumGothic-c601" d="M 5152 1504 
Q 5152 1414 5062 1414 
L 4800 1414 
Q 4710 1414 4710 1504 
L 4710 2438 
L 3302 2438 
Q 3098 2189 2781 2048 
Q 2464 1907 2086 1907 
Q 1773 1907 1497 2009 
Q 1222 2112 1017 2301 
Q 813 2490 694 2749 
Q 576 3008 576 3328 
Q 576 3661 694 3926 
Q 813 4192 1017 4374 
Q 1222 4557 1497 4656 
Q 1773 4755 2086 4755 
Q 2470 4755 2822 4592 
Q 3174 4429 3386 4122 
L 4710 4122 
L 4710 4915 
Q 4710 5005 4800 5005 
L 5062 5005 
Q 5152 5005 5152 4915 
L 5152 1504 
z
M 5203 250 
Q 5203 -26 5056 -243 
Q 4909 -461 4656 -611 
Q 4403 -762 4067 -842 
Q 3731 -922 3347 -922 
Q 2931 -922 2592 -842 
Q 2253 -762 2009 -611 
Q 1766 -461 1632 -243 
Q 1498 -26 1498 250 
Q 1498 518 1632 732 
Q 1766 947 2009 1097 
Q 2253 1248 2592 1328 
Q 2931 1408 3347 1408 
Q 3731 1408 4067 1328 
Q 4403 1248 4656 1101 
Q 4909 954 5056 739 
Q 5203 525 5203 250 
z
M 3174 3334 
Q 3174 3584 3084 3776 
Q 2995 3968 2844 4096 
Q 2694 4224 2496 4288 
Q 2298 4352 2086 4352 
Q 1862 4352 1670 4288 
Q 1478 4224 1334 4096 
Q 1190 3968 1107 3776 
Q 1024 3584 1024 3334 
Q 1024 3098 1104 2909 
Q 1184 2720 1328 2585 
Q 1472 2451 1664 2380 
Q 1856 2310 2086 2310 
Q 2298 2310 2496 2380 
Q 2694 2451 2844 2585 
Q 2995 2720 3084 2909 
Q 3174 3098 3174 3334 
z
M 4749 230 
Q 4749 422 4633 569 
Q 4518 717 4323 816 
Q 4128 915 3872 969 
Q 3616 1024 3341 1024 
Q 3034 1024 2778 969 
Q 2522 915 2339 816 
Q 2157 717 2054 569 
Q 1952 422 1952 230 
Q 1952 45 2054 -99 
Q 2157 -243 2339 -339 
Q 2522 -435 2778 -486 
Q 3034 -538 3341 -538 
Q 3616 -538 3872 -486 
Q 4128 -435 4323 -339 
Q 4518 -243 4633 -99 
Q 4749 45 4749 230 
z
M 3622 3328 
Q 3622 3046 3526 2816 
L 4710 2816 
L 4710 3744 
L 3565 3744 
Q 3622 3552 3622 3328 
z
" transform="scale(0.015625)"/>
      <path id="NanumGothic-30" d="M 3066 2093 
Q 3066 4102 1965 4102 
Q 864 4102 864 2093 
Q 864 77 1965 77 
Q 3066 77 3066 2093 
z
M 3526 2093 
Q 3526 -326 1965 -326 
Q 390 -326 390 2093 
Q 390 3098 698 3725 
Q 1088 4512 1965 4512 
Q 2829 4512 3226 3725 
Q 3373 3411 3449 3008 
Q 3526 2605 3526 2093 
z
" transform="scale(0.015625)"/>
     </defs>
     <use xlink:href="#NanumGothic-d22c"/>
     <use xlink:href="#NanumGothic-c601" transform="translate(93.999985 0)"/>
     <use xlink:href="#NanumGothic-20" transform="translate(187.999969 0)"/>
     <use xlink:href="#NanumGothic-3d" transform="translate(215.999954 0)"/>
     <use xlink:href="#NanumGothic-20" transform="translate(281.399948 0)"/>
     <use xlink:href="#NanumGothic-28" transform="translate(309.399933 0)"/>
     <use xlink:href="#NanumGothic-33" transform="translate(345.699921 0)"/>
     <use xlink:href="#NanumGothic-2c" transform="translate(406.299911 0)"/>
     <use xlink:href="#NanumGothic-20" transform="translate(436.599899 0)"/>
     <use xlink:href="#NanumGothic-30" transform="translate(464.599884 0)"/>
     <use xlink:href="#NanumGothic-29" transform="translate(525.199875 0)"/>
    </g>
   </g>
   <g id="text_4">
    <!-- y 성분 4는 버리고, x축 방향 성분 3만 남습니다. -->
    <g style="fill: #111827" transform="translate(45.6 245.727191) scale(0.106 -0.106)">
     <defs>
      <path id="NanumGothic-79" d="M 301 -1222 
Q 224 -1203 237 -1126 
L 256 -909 
Q 256 -832 333 -864 
Q 435 -902 570 -902 
Q 704 -902 816 -860 
Q 928 -819 986 -749 
Q 1056 -659 1142 -454 
Q 1229 -250 1312 13 
Q 1024 794 742 1555 
Q 461 2317 173 3098 
Q 160 3130 173 3158 
Q 186 3187 224 3187 
L 525 3187 
Q 614 3187 653 3098 
L 1517 614 
Q 1754 1267 1968 1859 
Q 2182 2451 2419 3098 
Q 2451 3187 2547 3187 
L 2822 3187 
Q 2861 3187 2873 3158 
Q 2886 3130 2874 3098 
L 1542 -474 
Q 1472 -659 1385 -806 
Q 1299 -954 1210 -1043 
Q 1094 -1152 953 -1206 
Q 813 -1261 659 -1261 
Q 563 -1261 486 -1254 
Q 410 -1248 301 -1222 
z
" transform="scale(0.015625)"/>
      <path id="NanumGothic-c131" d="M 5203 250 
Q 5203 -26 5056 -243 
Q 4909 -461 4656 -611 
Q 4403 -762 4067 -842 
Q 3731 -922 3347 -922 
Q 2931 -922 2592 -842 
Q 2253 -762 2009 -611 
Q 1766 -461 1632 -243 
Q 1498 -26 1498 250 
Q 1498 518 1632 732 
Q 1766 947 2009 1097 
Q 2253 1248 2592 1328 
Q 2931 1408 3347 1408 
Q 3731 1408 4067 1328 
Q 4403 1248 4656 1101 
Q 4909 954 5056 739 
Q 5203 525 5203 250 
z
M 4749 230 
Q 4749 422 4633 569 
Q 4518 717 4323 816 
Q 4128 915 3872 969 
Q 3616 1024 3341 1024 
Q 3034 1024 2778 969 
Q 2522 915 2339 816 
Q 2157 717 2054 569 
Q 1952 422 1952 230 
Q 1952 45 2054 -99 
Q 2157 -243 2339 -339 
Q 2522 -435 2778 -486 
Q 3034 -538 3341 -538 
Q 3616 -538 3872 -486 
Q 4128 -435 4323 -339 
Q 4518 -243 4633 -99 
Q 4749 45 4749 230 
z
M 2387 4774 
Q 2387 4307 2291 3904 
Q 2368 3635 2505 3392 
Q 2643 3149 2828 2937 
Q 3014 2726 3235 2556 
Q 3456 2387 3699 2272 
Q 3738 2253 3734 2217 
Q 3731 2182 3718 2157 
L 3584 1946 
Q 3565 1914 3539 1901 
Q 3514 1888 3456 1920 
Q 3309 1997 3120 2128 
Q 2931 2259 2739 2438 
Q 2547 2618 2374 2832 
Q 2202 3046 2086 3277 
Q 1875 2790 1516 2393 
Q 1158 1997 678 1683 
Q 646 1664 608 1657 
Q 570 1651 544 1683 
L 384 1894 
Q 365 1920 377 1958 
Q 390 1997 422 2016 
Q 1184 2483 1568 3193 
Q 1952 3904 1939 4781 
Q 1939 4883 2016 4883 
L 2317 4864 
Q 2387 4864 2387 4774 
z
M 4710 3622 
L 4710 4915 
Q 4710 5005 4800 5005 
L 5062 5005 
Q 5152 5005 5152 4915 
L 5152 1536 
Q 5152 1446 5062 1446 
L 4800 1446 
Q 4710 1446 4710 1536 
L 4710 3238 
L 3398 3238 
Q 3315 3238 3315 3315 
L 3315 3546 
Q 3315 3622 3398 3622 
L 4710 3622 
z
" transform="scale(0.015625)"/>
      <path id="NanumGothic-bd84" d="M 1600 2637 
Q 1446 2637 1353 2656 
Q 1261 2675 1209 2729 
Q 1158 2784 1139 2870 
Q 1120 2957 1120 3091 
L 1120 4838 
Q 1120 4870 1145 4892 
Q 1171 4915 1203 4915 
L 1478 4915 
Q 1510 4915 1532 4889 
Q 1555 4864 1555 4838 
L 1555 4179 
L 4461 4179 
L 4461 4832 
Q 4461 4864 4483 4889 
Q 4506 4915 4538 4915 
L 4813 4915 
Q 4845 4915 4870 4892 
Q 4896 4870 4896 4838 
L 4896 3046 
Q 4896 2803 4793 2720 
Q 4691 2637 4410 2637 
L 1600 2637 
z
M 2912 262 
Q 2880 262 2854 291 
Q 2829 320 2829 358 
L 2829 1626 
L 288 1626 
Q 250 1626 221 1651 
Q 192 1677 192 1709 
L 192 1926 
Q 192 1965 221 1987 
Q 250 2010 288 2010 
L 5728 2010 
Q 5760 2010 5792 1987 
Q 5824 1965 5824 1926 
L 5824 1709 
Q 5824 1677 5792 1651 
Q 5760 1626 5728 1626 
L 3270 1626 
L 3270 358 
Q 3270 320 3248 291 
Q 3226 262 3187 262 
L 2912 262 
z
M 1555 3802 
L 1555 3168 
Q 1555 3072 1587 3043 
Q 1619 3014 1709 3014 
L 4307 3014 
Q 4397 3014 4429 3043 
Q 4461 3072 4461 3168 
L 4461 3802 
L 1555 3802 
z
M 5133 -704 
Q 5133 -742 5101 -761 
Q 5069 -781 5037 -781 
L 1510 -781 
Q 1210 -781 1117 -656 
Q 1024 -531 1024 -269 
L 1024 915 
Q 1024 1005 1114 1005 
L 1376 1005 
Q 1466 1005 1466 915 
L 1466 -262 
Q 1466 -352 1494 -374 
Q 1523 -397 1613 -397 
L 5037 -397 
Q 5069 -397 5101 -419 
Q 5133 -442 5133 -474 
L 5133 -704 
z
" transform="scale(0.015625)"/>
      <path id="NanumGothic-b294" d="M 5037 2893 
Q 5037 2854 5005 2835 
Q 4973 2816 4941 2816 
L 1619 2816 
Q 1318 2816 1225 2941 
Q 1133 3066 1133 3328 
L 1133 4806 
Q 1133 4896 1222 4896 
L 1485 4896 
Q 1574 4896 1574 4806 
L 1574 3341 
Q 1574 3251 1603 3225 
Q 1632 3200 1722 3200 
L 4941 3200 
Q 4973 3200 5005 3177 
Q 5037 3155 5037 3123 
L 5037 2893 
z
M 5133 -704 
Q 5133 -742 5101 -761 
Q 5069 -781 5037 -781 
L 1562 -781 
Q 1261 -781 1168 -656 
Q 1075 -531 1075 -269 
L 1075 979 
Q 1075 1069 1165 1069 
L 1427 1069 
Q 1517 1069 1517 979 
L 1517 -262 
Q 1517 -352 1545 -374 
Q 1574 -397 1664 -397 
L 5037 -397 
Q 5069 -397 5101 -419 
Q 5133 -442 5133 -474 
L 5133 -704 
z
M 5728 1958 
Q 5760 1958 5792 1936 
Q 5824 1914 5824 1875 
L 5824 1658 
Q 5824 1626 5792 1600 
Q 5760 1574 5728 1574 
L 288 1574 
Q 250 1574 221 1600 
Q 192 1626 192 1658 
L 192 1875 
Q 192 1914 221 1936 
Q 250 1958 288 1958 
L 5728 1958 
z
" transform="scale(0.015625)"/>
      <path id="NanumGothic-bc84" d="M 1126 781 
Q 973 781 880 800 
Q 787 819 736 873 
Q 685 928 665 1014 
Q 646 1101 646 1235 
L 646 4602 
Q 646 4634 672 4656 
Q 698 4678 730 4678 
L 1005 4678 
Q 1037 4678 1059 4652 
Q 1082 4627 1082 4602 
L 1082 3117 
L 3002 3117 
L 3002 4595 
Q 3002 4627 3024 4652 
Q 3046 4678 3078 4678 
L 3354 4678 
Q 3386 4678 3411 4656 
Q 3437 4634 3437 4602 
L 3437 2918 
L 4710 2918 
L 4710 4915 
Q 4710 5005 4800 5005 
L 5062 5005 
Q 5152 5005 5152 4915 
L 5152 -806 
Q 5152 -896 5062 -896 
L 4800 -896 
Q 4710 -896 4710 -806 
L 4710 2534 
L 3437 2534 
L 3437 1190 
Q 3437 947 3334 864 
Q 3232 781 2950 781 
L 1126 781 
z
M 1082 2739 
L 1082 1312 
Q 1082 1216 1114 1187 
Q 1146 1158 1235 1158 
L 2848 1158 
Q 2938 1158 2970 1187 
Q 3002 1216 3002 1312 
L 3002 2739 
L 1082 2739 
z
" transform="scale(0.015625)"/>
      <path id="NanumGothic-b9ac" d="M 5152 -806 
Q 5152 -896 5062 -896 
L 4800 -896 
Q 4710 -896 4710 -806 
L 4710 4915 
Q 4710 5005 4800 5005 
L 5062 5005 
Q 5152 5005 5152 4915 
L 5152 -806 
z
M 1210 550 
Q 922 563 822 668 
Q 723 774 723 1043 
L 723 2317 
Q 723 2586 835 2678 
Q 947 2771 1235 2771 
L 2848 2771 
Q 2938 2771 2963 2796 
Q 2989 2822 2989 2918 
L 2989 3994 
Q 2989 4090 2966 4115 
Q 2944 4141 2854 4141 
L 838 4141 
Q 806 4141 777 4160 
Q 749 4179 749 4211 
L 749 4454 
Q 749 4486 777 4505 
Q 806 4525 838 4525 
L 2925 4525 
Q 3078 4525 3174 4502 
Q 3270 4480 3328 4429 
Q 3386 4378 3408 4285 
Q 3430 4192 3430 4058 
L 3430 2842 
Q 3430 2573 3318 2480 
Q 3206 2387 2918 2387 
L 1299 2387 
Q 1210 2387 1187 2361 
Q 1165 2336 1165 2240 
L 1165 1075 
Q 1165 928 1306 928 
Q 2067 915 2768 985 
Q 3469 1056 4128 1203 
Q 4218 1222 4237 1139 
L 4275 928 
Q 4294 845 4192 819 
Q 3853 742 3478 688 
Q 3104 634 2717 598 
Q 2330 563 1946 550 
Q 1562 538 1210 550 
z
" transform="scale(0.015625)"/>
      <path id="NanumGothic-ace0" d="M 5728 499 
Q 5760 499 5792 476 
Q 5824 454 5824 416 
L 5824 198 
Q 5824 166 5792 140 
Q 5760 115 5728 115 
L 288 115 
Q 250 115 221 140 
Q 192 166 192 198 
L 192 416 
Q 192 454 221 476 
Q 250 499 288 499 
L 2566 499 
L 2566 2464 
Q 2566 2502 2588 2531 
Q 2611 2560 2650 2560 
L 2925 2560 
Q 2957 2560 2982 2531 
Q 3008 2502 3008 2464 
L 3008 499 
L 5728 499 
z
M 998 4486 
Q 998 4525 1030 4544 
Q 1062 4563 1094 4563 
L 4506 4563 
Q 4659 4563 4752 4531 
Q 4845 4499 4896 4438 
Q 4947 4378 4966 4282 
Q 4986 4186 4992 4051 
Q 4998 3789 4992 3462 
Q 4986 3136 4960 2784 
Q 4934 2432 4889 2073 
Q 4845 1715 4781 1389 
Q 4774 1350 4748 1318 
Q 4723 1286 4685 1293 
L 4429 1312 
Q 4320 1318 4352 1427 
Q 4410 1677 4454 2038 
Q 4499 2400 4528 2774 
Q 4557 3149 4566 3491 
Q 4576 3834 4557 4045 
Q 4544 4134 4521 4156 
Q 4499 4179 4410 4179 
L 1094 4179 
Q 1062 4179 1030 4201 
Q 998 4224 998 4256 
L 998 4486 
z
" transform="scale(0.015625)"/>
      <path id="NanumGothic-78" d="M 3046 -186 
Q 3066 -218 3050 -246 
Q 3034 -275 2995 -275 
L 2637 -275 
Q 2560 -275 2509 -186 
L 1645 1222 
L 717 -186 
Q 659 -275 589 -275 
L 269 -275 
Q 230 -275 214 -246 
Q 198 -218 218 -186 
L 1389 1562 
L 339 3098 
Q 320 3130 336 3158 
Q 352 3187 390 3187 
L 742 3187 
Q 819 3187 870 3098 
L 1645 1894 
L 2432 3098 
Q 2490 3187 2560 3187 
L 2874 3187 
Q 2912 3187 2928 3158 
Q 2944 3130 2925 3098 
L 1901 1562 
L 3046 -186 
z
" transform="scale(0.015625)"/>
      <path id="NanumGothic-cd95" d="M 947 806 
Q 947 845 979 864 
Q 1011 883 1043 883 
L 2778 883 
L 2778 1587 
L 288 1587 
Q 250 1587 221 1612 
Q 192 1638 192 1670 
L 192 1888 
Q 192 1926 221 1948 
Q 250 1971 288 1971 
L 5728 1971 
Q 5760 1971 5792 1948 
Q 5824 1926 5824 1888 
L 5824 1670 
Q 5824 1638 5792 1612 
Q 5760 1587 5728 1587 
L 3219 1587 
L 3219 883 
L 4442 883 
Q 4742 883 4835 771 
Q 4928 659 4928 397 
L 4928 -870 
Q 4928 -960 4838 -960 
L 4576 -960 
Q 4486 -960 4486 -870 
L 4486 365 
Q 4486 454 4457 476 
Q 4429 499 4339 499 
L 1043 499 
Q 1011 499 979 521 
Q 947 544 947 576 
L 947 806 
z
M 4403 3610 
Q 4237 3482 4029 3366 
Q 3821 3251 3578 3142 
Q 3936 3040 4352 2953 
Q 4768 2867 5146 2816 
Q 5197 2803 5206 2784 
Q 5216 2765 5203 2720 
L 5146 2502 
Q 5126 2432 5043 2451 
Q 4838 2483 4585 2531 
Q 4333 2579 4064 2643 
Q 3795 2707 3526 2774 
Q 3258 2842 3014 2912 
Q 2573 2746 2064 2614 
Q 1555 2483 998 2387 
Q 902 2368 877 2432 
L 800 2650 
Q 787 2682 806 2710 
Q 826 2739 864 2752 
Q 1331 2842 1734 2944 
Q 2138 3046 2499 3161 
Q 2861 3277 3187 3408 
Q 3514 3539 3834 3693 
Q 3942 3744 3932 3789 
Q 3923 3834 3821 3834 
L 1274 3834 
Q 1190 3834 1190 3917 
L 1190 4141 
Q 1190 4218 1274 4218 
L 4038 4218 
Q 4538 4218 4646 4042 
Q 4755 3866 4403 3610 
z
M 3814 5005 
Q 3910 5005 3910 4915 
L 3910 4710 
Q 3910 4614 3814 4614 
L 2131 4614 
Q 2035 4614 2035 4710 
L 2035 4915 
Q 2035 5005 2131 5005 
L 3814 5005 
z
" transform="scale(0.015625)"/>
      <path id="NanumGothic-bc29" d="M 5005 250 
Q 5005 -26 4857 -243 
Q 4710 -461 4457 -611 
Q 4205 -762 3869 -842 
Q 3533 -922 3149 -922 
Q 2733 -922 2393 -842 
Q 2054 -762 1811 -611 
Q 1568 -461 1433 -243 
Q 1299 -26 1299 250 
Q 1299 518 1433 732 
Q 1568 947 1811 1097 
Q 2054 1248 2393 1328 
Q 2733 1408 3149 1408 
Q 3533 1408 3869 1328 
Q 4205 1248 4457 1101 
Q 4710 954 4857 739 
Q 5005 525 5005 250 
z
M 1158 1971 
Q 1005 1971 912 1990 
Q 819 2010 768 2064 
Q 717 2118 697 2204 
Q 678 2291 678 2426 
L 678 4730 
Q 678 4762 704 4784 
Q 730 4806 762 4806 
L 1037 4806 
Q 1069 4806 1091 4780 
Q 1114 4755 1114 4730 
L 1114 3731 
L 2982 3731 
L 2982 4723 
Q 2982 4755 3004 4780 
Q 3027 4806 3059 4806 
L 3334 4806 
Q 3366 4806 3392 4784 
Q 3418 4762 3418 4730 
L 3418 2381 
Q 3418 2138 3315 2054 
Q 3213 1971 2931 1971 
L 1158 1971 
z
M 4550 230 
Q 4550 422 4435 569 
Q 4320 717 4125 816 
Q 3930 915 3674 969 
Q 3418 1024 3142 1024 
Q 2835 1024 2579 969 
Q 2323 915 2140 816 
Q 1958 717 1856 569 
Q 1754 422 1754 230 
Q 1754 45 1856 -99 
Q 1958 -243 2140 -339 
Q 2323 -435 2579 -486 
Q 2835 -538 3142 -538 
Q 3418 -538 3674 -486 
Q 3930 -435 4125 -339 
Q 4320 -243 4435 -99 
Q 4550 45 4550 230 
z
M 4928 1530 
Q 4928 1440 4838 1440 
L 4576 1440 
Q 4486 1440 4486 1530 
L 4486 4915 
Q 4486 5005 4576 5005 
L 4838 5005 
Q 4928 5005 4928 4915 
L 4928 3373 
L 5811 3373 
Q 5850 3373 5878 3347 
Q 5907 3322 5907 3283 
L 5907 3072 
Q 5907 3040 5878 3014 
Q 5850 2989 5811 2989 
L 4928 2989 
L 4928 1530 
z
M 1114 3354 
L 1114 2502 
Q 1114 2406 1146 2377 
Q 1178 2349 1267 2349 
L 2829 2349 
Q 2918 2349 2950 2377 
Q 2982 2406 2982 2502 
L 2982 3354 
L 1114 3354 
z
" transform="scale(0.015625)"/>
      <path id="NanumGothic-d5a5" d="M 5005 64 
Q 5005 -160 4857 -339 
Q 4710 -518 4457 -646 
Q 4205 -774 3869 -844 
Q 3533 -915 3149 -915 
Q 2733 -915 2393 -844 
Q 2054 -774 1811 -646 
Q 1568 -518 1433 -339 
Q 1299 -160 1299 64 
Q 1299 282 1433 458 
Q 1568 634 1811 762 
Q 2054 890 2393 960 
Q 2733 1030 3149 1030 
Q 3533 1030 3869 963 
Q 4205 896 4457 768 
Q 4710 640 4857 461 
Q 5005 282 5005 64 
z
M 3533 2413 
Q 3533 2182 3427 1993 
Q 3322 1805 3139 1664 
Q 2957 1523 2704 1446 
Q 2451 1370 2157 1370 
Q 1856 1370 1606 1446 
Q 1357 1523 1171 1664 
Q 986 1805 883 1997 
Q 781 2189 781 2413 
Q 781 2643 883 2835 
Q 986 3027 1171 3161 
Q 1357 3296 1606 3373 
Q 1856 3450 2157 3450 
Q 2451 3450 2704 3373 
Q 2957 3296 3139 3158 
Q 3322 3021 3427 2829 
Q 3533 2637 3533 2413 
z
M 4550 45 
Q 4550 192 4435 307 
Q 4320 422 4125 502 
Q 3930 582 3674 624 
Q 3418 666 3142 666 
Q 2835 666 2579 624 
Q 2323 582 2140 502 
Q 1958 422 1856 307 
Q 1754 192 1754 45 
Q 1754 -96 1856 -208 
Q 1958 -320 2140 -397 
Q 2323 -474 2579 -512 
Q 2835 -550 3142 -550 
Q 3418 -550 3674 -512 
Q 3930 -474 4125 -397 
Q 4320 -320 4435 -208 
Q 4550 -96 4550 45 
z
M 4928 1254 
Q 4928 1165 4838 1165 
L 4576 1165 
Q 4486 1165 4486 1254 
L 4486 4915 
Q 4486 5005 4576 5005 
L 4838 5005 
Q 4928 5005 4928 4915 
L 4928 3776 
L 5811 3776 
Q 5850 3776 5878 3753 
Q 5907 3731 5907 3693 
L 5907 3482 
Q 5907 3450 5878 3424 
Q 5850 3398 5811 3398 
L 4928 3398 
L 4928 2630 
L 5811 2630 
Q 5850 2630 5878 2608 
Q 5907 2586 5907 2547 
L 5907 2336 
Q 5907 2304 5878 2278 
Q 5850 2253 5811 2253 
L 4928 2253 
L 4928 1254 
z
M 3104 2413 
Q 3104 2566 3033 2691 
Q 2963 2816 2835 2902 
Q 2707 2989 2534 3037 
Q 2362 3085 2157 3085 
Q 1952 3085 1779 3037 
Q 1606 2989 1478 2902 
Q 1350 2816 1276 2691 
Q 1203 2566 1203 2413 
Q 1203 2259 1276 2134 
Q 1350 2010 1478 1920 
Q 1606 1830 1779 1782 
Q 1952 1734 2157 1734 
Q 2362 1734 2534 1782 
Q 2707 1830 2835 1920 
Q 2963 2010 3033 2134 
Q 3104 2259 3104 2413 
z
M 4026 3827 
Q 4026 3744 3930 3744 
L 397 3744 
Q 365 3744 336 3769 
Q 307 3795 307 3834 
L 307 4038 
Q 307 4077 336 4102 
Q 365 4128 397 4128 
L 3930 4128 
Q 4026 4128 4026 4045 
L 4026 3827 
z
M 3091 4608 
Q 3091 4518 2995 4518 
L 1242 4518 
Q 1210 4518 1181 4540 
Q 1152 4563 1152 4602 
L 1152 4819 
Q 1152 4858 1177 4883 
Q 1203 4909 1235 4909 
L 2995 4909 
Q 3091 4909 3091 4819 
L 3091 4608 
z
" transform="scale(0.015625)"/>
      <path id="NanumGothic-b9cc" d="M 678 4192 
Q 678 4461 780 4553 
Q 883 4646 1165 4646 
L 2925 4646 
Q 3078 4646 3171 4627 
Q 3264 4608 3318 4557 
Q 3373 4506 3392 4416 
Q 3411 4326 3411 4192 
L 3411 2214 
Q 3411 1946 3308 1853 
Q 3206 1760 2925 1760 
L 1165 1760 
Q 1011 1760 918 1779 
Q 826 1798 771 1852 
Q 717 1907 697 1993 
Q 678 2080 678 2214 
L 678 4192 
z
M 1274 4262 
Q 1184 4262 1152 4227 
Q 1120 4192 1120 4096 
L 1120 2310 
Q 1120 2214 1152 2179 
Q 1184 2144 1274 2144 
L 2816 2144 
Q 2906 2144 2938 2179 
Q 2970 2214 2970 2310 
L 2970 4096 
Q 2970 4192 2938 4227 
Q 2906 4262 2816 4262 
L 1274 4262 
z
M 4928 845 
Q 4928 755 4838 755 
L 4576 755 
Q 4486 755 4486 845 
L 4486 4915 
Q 4486 5005 4576 5005 
L 4838 5005 
Q 4928 5005 4928 4915 
L 4928 3085 
L 5811 3085 
Q 5850 3085 5878 3062 
Q 5907 3040 5907 3002 
L 5907 2784 
Q 5907 2752 5878 2726 
Q 5850 2701 5811 2701 
L 4928 2701 
L 4928 845 
z
M 5216 -704 
Q 5216 -742 5184 -761 
Q 5152 -781 5120 -781 
L 1862 -781 
Q 1562 -781 1469 -665 
Q 1376 -550 1376 -288 
L 1376 960 
Q 1376 1050 1466 1050 
L 1728 1050 
Q 1818 1050 1818 960 
L 1818 -262 
Q 1818 -352 1846 -374 
Q 1875 -397 1965 -397 
L 5120 -397 
Q 5152 -397 5184 -419 
Q 5216 -442 5216 -474 
L 5216 -704 
z
" transform="scale(0.015625)"/>
      <path id="NanumGothic-b0a8" d="M 1274 819 
Q 1274 1088 1376 1181 
Q 1478 1274 1760 1274 
L 4442 1274 
Q 4595 1274 4688 1254 
Q 4781 1235 4835 1184 
Q 4890 1133 4909 1043 
Q 4928 954 4928 819 
L 4928 -390 
Q 4928 -659 4825 -752 
Q 4723 -845 4442 -845 
L 1760 -845 
Q 1606 -845 1513 -825 
Q 1421 -806 1366 -752 
Q 1312 -698 1293 -611 
Q 1274 -525 1274 -390 
L 1274 819 
z
M 1869 890 
Q 1779 890 1747 854 
Q 1715 819 1715 723 
L 1715 -294 
Q 1715 -390 1747 -425 
Q 1779 -461 1869 -461 
L 4333 -461 
Q 4422 -461 4454 -425 
Q 4486 -390 4486 -294 
L 4486 723 
Q 4486 819 4454 854 
Q 4422 890 4333 890 
L 1869 890 
z
M 1216 2611 
Q 1216 2515 1248 2483 
Q 1280 2451 1370 2445 
Q 1971 2426 2636 2477 
Q 3302 2528 3904 2643 
Q 4006 2662 4026 2573 
L 4058 2374 
Q 4064 2298 3974 2272 
Q 3731 2214 3398 2169 
Q 3066 2125 2701 2096 
Q 2336 2067 1965 2051 
Q 1594 2035 1280 2048 
Q 992 2061 883 2185 
Q 774 2310 774 2579 
L 774 4704 
Q 774 4794 864 4794 
L 1126 4794 
Q 1216 4794 1216 4704 
L 1216 2611 
z
M 4928 1715 
Q 4928 1626 4838 1626 
L 4576 1626 
Q 4486 1626 4486 1715 
L 4486 4915 
Q 4486 5005 4576 5005 
L 4838 5005 
Q 4928 5005 4928 4915 
L 4928 3392 
L 5811 3392 
Q 5850 3392 5878 3369 
Q 5907 3347 5907 3309 
L 5907 3091 
Q 5907 3059 5878 3033 
Q 5850 3008 5811 3008 
L 4928 3008 
L 4928 1715 
z
" transform="scale(0.015625)"/>
      <path id="NanumGothic-c2b5" d="M 1555 -858 
Q 1402 -858 1309 -838 
Q 1216 -819 1165 -764 
Q 1114 -710 1094 -624 
Q 1075 -538 1075 -403 
L 1075 1408 
Q 1075 1440 1100 1462 
Q 1126 1485 1158 1485 
L 1440 1485 
Q 1472 1485 1494 1459 
Q 1517 1434 1517 1408 
L 1517 717 
L 4486 717 
L 4486 1402 
Q 4486 1434 4508 1459 
Q 4531 1485 4563 1485 
L 4845 1485 
Q 4877 1485 4902 1462 
Q 4928 1440 4928 1408 
L 4928 -448 
Q 4928 -691 4825 -774 
Q 4723 -858 4442 -858 
L 1555 -858 
z
M 1517 333 
L 1517 -320 
Q 1517 -416 1549 -445 
Q 1581 -474 1670 -474 
L 4333 -474 
Q 4422 -474 4454 -445 
Q 4486 -416 4486 -320 
L 4486 333 
L 1517 333 
z
M 3232 4890 
Q 3219 4851 3216 4816 
Q 3213 4781 3200 4749 
Q 3219 4666 3254 4589 
Q 3290 4512 3334 4448 
Q 3469 4237 3680 4048 
Q 3891 3859 4144 3708 
Q 4397 3558 4681 3449 
Q 4966 3341 5254 3283 
Q 5293 3270 5299 3238 
Q 5306 3206 5293 3174 
L 5184 2957 
Q 5171 2925 5148 2909 
Q 5126 2893 5062 2906 
Q 4736 2982 4419 3120 
Q 4102 3258 3827 3440 
Q 3552 3622 3334 3833 
Q 3117 4045 2989 4256 
Q 2733 3814 2240 3481 
Q 1747 3149 947 2880 
Q 845 2848 819 2912 
L 710 3142 
Q 698 3174 707 3212 
Q 717 3251 762 3264 
Q 1229 3405 1584 3571 
Q 1939 3738 2188 3936 
Q 2438 4134 2588 4380 
Q 2739 4627 2790 4934 
Q 2810 5018 2874 5011 
L 3162 4979 
Q 3194 4979 3219 4956 
Q 3245 4934 3232 4890 
z
M 5728 2387 
Q 5760 2387 5792 2364 
Q 5824 2342 5824 2304 
L 5824 2086 
Q 5824 2054 5792 2028 
Q 5760 2003 5728 2003 
L 288 2003 
Q 250 2003 221 2028 
Q 192 2054 192 2086 
L 192 2310 
Q 192 2349 221 2368 
Q 250 2387 288 2387 
L 5728 2387 
z
" transform="scale(0.015625)"/>
      <path id="NanumGothic-b2c8" d="M 5152 -806 
Q 5152 -896 5062 -896 
L 4800 -896 
Q 4710 -896 4710 -806 
L 4710 4915 
Q 4710 5005 4800 5005 
L 5062 5005 
Q 5152 5005 5152 4915 
L 5152 -806 
z
M 1267 1440 
Q 1267 1344 1299 1312 
Q 1331 1280 1421 1274 
Q 1734 1261 2089 1270 
Q 2445 1280 2803 1309 
Q 3162 1338 3504 1382 
Q 3846 1427 4141 1485 
Q 4250 1510 4269 1408 
L 4301 1229 
Q 4320 1139 4218 1114 
Q 4000 1062 3657 1017 
Q 3315 973 2918 937 
Q 2522 902 2106 886 
Q 1690 870 1331 877 
Q 1043 883 934 1011 
Q 826 1139 826 1408 
L 826 4557 
Q 826 4646 915 4646 
L 1178 4646 
Q 1267 4646 1267 4557 
L 1267 1440 
z
" transform="scale(0.015625)"/>
      <path id="NanumGothic-b2e4" d="M 4019 1171 
Q 4032 1082 3936 1062 
Q 3699 1005 3337 953 
Q 2976 902 2576 864 
Q 2176 826 1785 806 
Q 1395 787 1107 794 
Q 819 800 713 928 
Q 608 1056 608 1325 
L 608 4077 
Q 608 4346 710 4435 
Q 813 4525 1094 4525 
L 3296 4525 
Q 3379 4525 3379 4448 
L 3379 4218 
Q 3379 4141 3296 4141 
L 1178 4141 
Q 1088 4141 1069 4118 
Q 1050 4096 1050 4000 
L 1050 1357 
Q 1050 1261 1082 1229 
Q 1114 1197 1203 1190 
Q 1510 1178 1852 1194 
Q 2195 1210 2544 1245 
Q 2893 1280 3229 1328 
Q 3565 1376 3866 1434 
Q 3968 1453 3987 1363 
L 4019 1171 
z
M 4928 -806 
Q 4928 -896 4838 -896 
L 4576 -896 
Q 4486 -896 4486 -806 
L 4486 4915 
Q 4486 5005 4576 5005 
L 4838 5005 
Q 4928 5005 4928 4915 
L 4928 2586 
L 5811 2586 
Q 5850 2586 5878 2563 
Q 5907 2541 5907 2502 
L 5907 2285 
Q 5907 2253 5878 2227 
Q 5850 2202 5811 2202 
L 4928 2202 
L 4928 -806 
z
" transform="scale(0.015625)"/>
      <path id="NanumGothic-2e" d="M 691 -256 
Q 691 -122 784 -29 
Q 877 64 1011 64 
Q 1146 64 1238 -29 
Q 1331 -122 1331 -256 
Q 1331 -390 1238 -483 
Q 1146 -576 1011 -576 
Q 877 -576 784 -483 
Q 691 -390 691 -256 
z
" transform="scale(0.015625)"/>
     </defs>
     <use xlink:href="#NanumGothic-79"/>
     <use xlink:href="#NanumGothic-20" transform="translate(46.399994 0)"/>
     <use xlink:href="#NanumGothic-c131" transform="translate(74.399979 0)"/>
     <use xlink:href="#NanumGothic-bd84" transform="translate(168.399963 0)"/>
     <use xlink:href="#NanumGothic-20" transform="translate(262.399948 0)"/>
     <use xlink:href="#NanumGothic-34" transform="translate(290.399933 0)"/>
     <use xlink:href="#NanumGothic-b294" transform="translate(350.999924 0)"/>
     <use xlink:href="#NanumGothic-20" transform="translate(444.999908 0)"/>
     <use xlink:href="#NanumGothic-bc84" transform="translate(472.999893 0)"/>
     <use xlink:href="#NanumGothic-b9ac" transform="translate(566.999878 0)"/>
     <use xlink:href="#NanumGothic-ace0" transform="translate(660.999863 0)"/>
     <use xlink:href="#NanumGothic-2c" transform="translate(754.999847 0)"/>
     <use xlink:href="#NanumGothic-20" transform="translate(785.299835 0)"/>
     <use xlink:href="#NanumGothic-78" transform="translate(813.29982 0)"/>
     <use xlink:href="#NanumGothic-cd95" transform="translate(864.299805 0)"/>
     <use xlink:href="#NanumGothic-20" transform="translate(958.299789 0)"/>
     <use xlink:href="#NanumGothic-bc29" transform="translate(986.299774 0)"/>
     <use xlink:href="#NanumGothic-d5a5" transform="translate(1080.299759 0)"/>
     <use xlink:href="#NanumGothic-20" transform="translate(1174.299744 0)"/>
     <use xlink:href="#NanumGothic-c131" transform="translate(1202.299728 0)"/>
     <use xlink:href="#NanumGothic-bd84" transform="translate(1296.299713 0)"/>
     <use xlink:href="#NanumGothic-20" transform="translate(1390.299698 0)"/>
     <use xlink:href="#NanumGothic-33" transform="translate(1418.299683 0)"/>
     <use xlink:href="#NanumGothic-b9cc" transform="translate(1478.899673 0)"/>
     <use xlink:href="#NanumGothic-20" transform="translate(1572.899658 0)"/>
     <use xlink:href="#NanumGothic-b0a8" transform="translate(1600.899643 0)"/>
     <use xlink:href="#NanumGothic-c2b5" transform="translate(1694.899628 0)"/>
     <use xlink:href="#NanumGothic-b2c8" transform="translate(1788.899612 0)"/>
     <use xlink:href="#NanumGothic-b2e4" transform="translate(1882.899597 0)"/>
     <use xlink:href="#NanumGothic-2e" transform="translate(1976.899582 0)"/>
    </g>
   </g>
  </g>
 </g>
 <defs>
  <clipPath id="pa57cf20192">
   <rect x="8.64" y="28.987125" width="295.68" height="221.76"/>
  </clipPath>
 </defs>
</svg>
