<svg xmlns="http://www.w3.org/2000/svg" viewBox="0 0 900 280"><rect width="900" height="280" rx="16" fill="#f8fafc"/><text x="450" y="28" text-anchor="middle" font-family="sans-serif" font-size="18" font-weight="700">Catmull–Rom과 Arc Length</text><path d="M70 210C180 35 290 240 430 130S680 35 830 180" fill="none" stroke="#2563eb" stroke-width="4"/><g fill="#0f172a" font-family="sans-serif"><circle cx="70" cy="210" r="7"/><circle cx="250" cy="155" r="8" fill="#ef4444"/><circle cx="600" cy="78" r="8" fill="#ef4444"/><circle cx="830" cy="180" r="7"/><text x="55" y="235">p0</text><text x="235" y="180">p1</text><text x="590" y="105">p2</text><text x="825" y="205">p3</text></g><g fill="#f59e0b"><circle cx="320" cy="178" r="6"/><circle cx="385" cy="158" r="6"/><circle cx="440" cy="122" r="6"/><circle cx="480" cy="92" r="6"/><circle cx="515" cy="75" r="6"/></g><g fill="#16a34a"><circle cx="300" cy="180" r="6"/><circle cx="380" cy="160" r="6"/><circle cx="460" cy="105" r="6"/><circle cx="540" cy="70" r="6"/><circle cx="620" cy="80" r="6"/></g><text x="450" y="255" text-anchor="middle" font-family="sans-serif" font-size="12">주황: 같은 Δt, 거리 불균일 · 초록: 누적 거리표로 간격 균일</text></svg>
