<?xml version="1.0" encoding="utf-8" standalone="no"?>
<!DOCTYPE svg PUBLIC "-//W3C//DTD SVG 1.1//EN"
  "http://www.w3.org/Graphics/SVG/1.1/DTD/svg11.dtd">
<svg xmlns:xlink="http://www.w3.org/1999/xlink" width="275.169438pt" height="229.439767pt" viewBox="0 0 275.169438 229.439767" xmlns="http://www.w3.org/2000/svg" version="1.1">
 <metadata>
  <rdf:RDF xmlns:dc="http://purl.org/dc/elements/1.1/" xmlns:cc="http://creativecommons.org/ns#" xmlns:rdf="http://www.w3.org/1999/02/22-rdf-syntax-ns#">
   <cc:Work>
    <dc:type rdf:resource="http://purl.org/dc/dcmitype/StillImage"/>
    <dc:date>2026-07-08T05:12:55.334978</dc:date>
    <dc:format>image/svg+xml</dc:format>
    <dc:creator>
     <cc:Agent>
      <dc:title>Matplotlib v3.10.8, https://matplotlib.org/</dc:title>
     </cc:Agent>
    </dc:creator>
   </cc:Work>
  </rdf:RDF>
 </metadata>
 <defs>
  <style type="text/css">*{stroke-linejoin: round; stroke-linecap: butt}</style>
 </defs>
 <g id="figure_1">
  <g id="patch_1">
   <path d="M 0 229.439767 
L 275.169438 229.439767 
L 275.169438 0 
L 0 0 
z
" style="fill: #ffffff"/>
  </g>
  <g id="axes_1">
   <g id="text_1">
    <!-- 피벗 회전 순서 -->
    <g style="fill: #111827" transform="translate(8.64 20.054062) scale(0.15 -0.15)">
     <defs>
      <path id="NanumGothicBold-d53c" d="M 3872 4064 
Q 3872 4026 3843 3997 
Q 3814 3968 3776 3968 
L 3315 3968 
L 3315 1440 
Q 3501 1459 3689 1475 
Q 3878 1491 4058 1517 
Q 4090 1523 4125 1507 
Q 4160 1491 4166 1459 
L 4224 1056 
Q 4237 1005 4208 979 
Q 4179 954 4147 947 
Q 3770 890 3309 851 
Q 2848 813 2349 787 
Q 1850 762 1338 755 
Q 826 749 346 762 
Q 301 762 275 790 
Q 250 819 250 858 
L 250 1267 
Q 250 1357 346 1357 
Q 493 1350 646 1350 
Q 800 1350 947 1350 
L 947 3968 
L 448 3968 
Q 416 3968 381 4000 
Q 346 4032 346 4070 
L 346 4467 
Q 346 4506 381 4538 
Q 416 4570 448 4570 
L 3776 4570 
Q 3814 4570 3843 4541 
Q 3872 4512 3872 4467 
L 3872 4064 
z
M 5280 -928 
Q 5280 -1011 5190 -1011 
L 4627 -1011 
Q 4595 -1011 4566 -988 
Q 4538 -966 4538 -928 
L 4538 4979 
Q 4538 5011 4566 5036 
Q 4595 5062 4627 5062 
L 5190 5062 
Q 5280 5062 5280 4979 
L 5280 -928 
z
M 1664 1357 
Q 2150 1370 2598 1395 
L 2598 3968 
L 1664 3968 
L 1664 1357 
z
" transform="scale(0.015625)"/>
      <path id="NanumGothicBold-bc97" d="M 3456 2272 
Q 3456 2054 3353 1945 
Q 3251 1837 2970 1837 
L 1126 1837 
Q 838 1837 736 1936 
Q 634 2035 634 2291 
L 634 4717 
Q 634 4749 659 4774 
Q 685 4800 723 4800 
L 1274 4800 
Q 1306 4800 1334 4774 
Q 1363 4749 1363 4717 
L 1363 3821 
L 2726 3821 
L 2726 4723 
Q 2726 4755 2752 4784 
Q 2778 4813 2810 4813 
L 3373 4813 
Q 3405 4813 3430 4784 
Q 3456 4755 3456 4723 
L 3456 3565 
L 4538 3565 
L 4538 4979 
Q 4538 5062 4621 5062 
L 5190 5062 
Q 5274 5062 5274 4979 
L 5274 1325 
Q 5274 1242 5190 1242 
L 4621 1242 
Q 4538 1242 4538 1325 
L 4538 2950 
L 3456 2950 
L 3456 2272 
z
M 1344 -1011 
Q 1229 -1037 1184 -934 
L 1018 -563 
Q 998 -518 1017 -480 
Q 1037 -442 1088 -422 
Q 1997 -147 2470 253 
Q 2944 653 3021 1274 
Q 3027 1318 3056 1356 
Q 3085 1395 3136 1389 
L 3635 1357 
Q 3725 1350 3737 1312 
Q 3750 1274 3744 1229 
Q 3731 1158 3718 1094 
Q 3706 1030 3693 966 
Q 3776 736 3974 521 
Q 4173 307 4435 124 
Q 4698 -58 4998 -189 
Q 5299 -320 5587 -378 
Q 5632 -390 5661 -428 
Q 5690 -467 5670 -518 
L 5504 -896 
Q 5459 -992 5338 -973 
Q 5082 -928 4803 -816 
Q 4525 -704 4259 -544 
Q 3994 -384 3763 -179 
Q 3533 26 3373 262 
Q 3046 -198 2521 -521 
Q 1997 -845 1344 -1011 
z
M 2726 3226 
L 1363 3226 
L 1363 2554 
Q 1363 2483 1395 2460 
Q 1427 2438 1485 2438 
L 2605 2438 
Q 2669 2438 2697 2460 
Q 2726 2483 2726 2554 
L 2726 3226 
z
" transform="scale(0.015625)"/>
      <path id="NanumGothicBold-20" transform="scale(0.015625)"/>
      <path id="NanumGothicBold-d68c" d="M 211 544 
Q 211 640 307 640 
Q 672 627 1072 633 
Q 1472 640 1875 653 
L 1875 1203 
Q 1651 1248 1462 1341 
Q 1274 1434 1136 1571 
Q 998 1709 921 1881 
Q 845 2054 845 2259 
Q 845 2496 957 2697 
Q 1069 2899 1261 3040 
Q 1453 3181 1709 3261 
Q 1965 3341 2253 3341 
Q 2547 3341 2806 3261 
Q 3066 3181 3258 3040 
Q 3450 2899 3558 2697 
Q 3667 2496 3667 2259 
Q 3667 2054 3584 1881 
Q 3501 1709 3357 1574 
Q 3213 1440 3017 1347 
Q 2822 1254 2592 1216 
L 2592 685 
Q 3014 710 3414 742 
Q 3814 774 4154 826 
Q 4186 832 4227 822 
Q 4269 813 4275 762 
L 4314 358 
Q 4320 307 4294 281 
Q 4269 256 4237 250 
Q 3878 192 3392 147 
Q 2906 102 2371 73 
Q 1837 45 1299 32 
Q 762 19 307 26 
Q 262 26 236 54 
Q 211 83 211 122 
L 211 544 
z
M 5280 -928 
Q 5280 -1011 5190 -1011 
L 4627 -1011 
Q 4595 -1011 4566 -988 
Q 4538 -966 4538 -928 
L 4538 4979 
Q 4538 5011 4566 5036 
Q 4595 5062 4627 5062 
L 5190 5062 
Q 5280 5062 5280 4979 
L 5280 -928 
z
M 4000 3661 
Q 4000 3622 3971 3593 
Q 3942 3565 3904 3565 
L 518 3565 
Q 486 3565 454 3597 
Q 422 3629 422 3667 
L 422 4026 
Q 422 4058 457 4090 
Q 493 4122 525 4122 
L 3904 4122 
Q 3942 4122 3971 4093 
Q 4000 4064 4000 4026 
L 4000 3661 
z
M 2253 2771 
Q 1946 2771 1741 2627 
Q 1536 2483 1536 2259 
Q 1536 2035 1737 1888 
Q 1939 1741 2253 1741 
Q 2573 1741 2774 1888 
Q 2976 2035 2976 2259 
Q 2976 2483 2774 2627 
Q 2573 2771 2253 2771 
z
M 3174 4493 
Q 3174 4448 3145 4416 
Q 3117 4384 3072 4384 
L 1376 4384 
Q 1350 4384 1312 4409 
Q 1274 4435 1274 4486 
L 1274 4858 
Q 1274 4902 1312 4928 
Q 1350 4954 1376 4954 
L 3072 4954 
Q 3110 4954 3142 4922 
Q 3174 4890 3174 4851 
L 3174 4493 
z
" transform="scale(0.015625)"/>
      <path id="NanumGothicBold-c804" d="M 755 1325 
Q 717 1306 656 1306 
Q 595 1306 557 1376 
L 365 1690 
Q 333 1741 349 1795 
Q 365 1850 422 1882 
Q 774 2054 1100 2291 
Q 1427 2528 1692 2797 
Q 1958 3066 2153 3347 
Q 2349 3629 2445 3891 
Q 2470 3955 2467 3996 
Q 2464 4038 2355 4038 
L 781 4038 
Q 736 4038 713 4067 
Q 691 4096 691 4134 
L 691 4563 
Q 691 4653 787 4653 
L 2816 4653 
Q 3098 4653 3232 4547 
Q 3366 4442 3334 4237 
Q 3322 4166 3302 4096 
Q 3283 4026 3264 3968 
Q 3194 3725 3059 3472 
Q 2925 3219 2746 2970 
Q 2861 2842 3008 2714 
Q 3155 2586 3312 2467 
Q 3469 2349 3622 2246 
Q 3776 2144 3904 2074 
Q 4032 2010 3955 1882 
L 3744 1555 
Q 3674 1453 3546 1517 
Q 3430 1574 3273 1680 
Q 3117 1786 2947 1917 
Q 2778 2048 2614 2195 
Q 2451 2342 2323 2477 
Q 1997 2131 1600 1836 
Q 1203 1542 755 1325 
z
M 3437 2918 
L 3437 3360 
Q 3437 3392 3465 3414 
Q 3494 3437 3526 3437 
L 4544 3437 
L 4544 4979 
Q 4544 5062 4627 5062 
L 5197 5062 
Q 5280 5062 5280 4979 
L 5280 826 
Q 5280 742 5197 742 
L 4627 742 
Q 4544 742 4544 826 
L 4544 2835 
L 3526 2835 
Q 3494 2835 3465 2860 
Q 3437 2886 3437 2918 
z
M 5466 -826 
Q 5466 -864 5437 -883 
Q 5408 -902 5376 -902 
L 2042 -902 
Q 1754 -902 1654 -800 
Q 1555 -698 1555 -448 
L 1555 947 
Q 1555 979 1584 1008 
Q 1613 1037 1645 1037 
L 2195 1037 
Q 2234 1037 2262 1008 
Q 2291 979 2291 947 
L 2291 -186 
Q 2291 -250 2316 -269 
Q 2342 -288 2413 -288 
L 5376 -288 
Q 5408 -288 5437 -313 
Q 5466 -339 5466 -371 
L 5466 -826 
z
" transform="scale(0.015625)"/>
      <path id="NanumGothicBold-c21c" d="M 5882 1658 
Q 5882 1626 5850 1590 
Q 5818 1555 5786 1555 
L 3418 1555 
L 3418 371 
Q 3418 282 3328 282 
L 2771 282 
Q 2682 282 2682 371 
L 2682 1555 
L 211 1555 
Q 173 1555 147 1590 
Q 122 1626 122 1658 
L 122 2074 
Q 122 2112 147 2141 
Q 173 2170 211 2170 
L 5786 2170 
Q 5818 2170 5850 2138 
Q 5882 2106 5882 2074 
L 5882 1658 
z
M 986 2566 
Q 845 2522 813 2605 
L 640 3008 
Q 627 3040 640 3078 
Q 653 3117 698 3130 
Q 1613 3373 2083 3805 
Q 2554 4237 2624 4896 
Q 2637 4998 2746 4998 
L 3251 4979 
Q 3341 4979 3341 4890 
Q 3334 4819 3331 4758 
Q 3328 4698 3315 4640 
Q 3411 4390 3619 4160 
Q 3827 3930 4096 3738 
Q 4365 3546 4678 3402 
Q 4992 3258 5312 3181 
Q 5350 3168 5366 3133 
Q 5382 3098 5370 3066 
L 5178 2675 
Q 5146 2592 5030 2611 
Q 4768 2656 4480 2774 
Q 4192 2893 3920 3065 
Q 3648 3238 3414 3449 
Q 3181 3661 3027 3891 
Q 2726 3418 2198 3072 
Q 1670 2726 986 2566 
z
M 5184 -781 
Q 5184 -819 5155 -838 
Q 5126 -858 5088 -858 
L 1466 -858 
Q 1178 -858 1078 -755 
Q 979 -653 979 -403 
L 979 960 
Q 979 992 1008 1021 
Q 1037 1050 1069 1050 
L 1619 1050 
Q 1658 1050 1686 1021 
Q 1715 992 1715 960 
L 1715 -141 
Q 1715 -205 1740 -224 
Q 1766 -243 1830 -243 
L 5088 -243 
Q 5120 -243 5152 -265 
Q 5184 -288 5184 -320 
L 5184 -781 
z
" transform="scale(0.015625)"/>
      <path id="NanumGothicBold-c11c" d="M 5382 -928 
Q 5382 -1011 5299 -1011 
L 4730 -1011 
Q 4646 -1011 4646 -928 
L 4646 2458 
L 3328 2458 
Q 3296 2458 3267 2483 
Q 3238 2509 3238 2541 
L 3238 2995 
Q 3238 3027 3267 3049 
Q 3296 3072 3328 3072 
L 4646 3072 
L 4646 4979 
Q 4646 5062 4730 5062 
L 5299 5062 
Q 5382 5062 5382 4979 
L 5382 -928 
z
M 800 339 
Q 678 243 576 346 
L 275 627 
Q 186 717 294 819 
Q 710 1203 1004 1664 
Q 1299 2125 1478 2650 
Q 1638 3117 1699 3600 
Q 1760 4083 1747 4653 
Q 1747 4691 1776 4720 
Q 1805 4749 1837 4749 
L 2406 4730 
Q 2438 4730 2464 4701 
Q 2490 4672 2490 4634 
Q 2490 3846 2374 3187 
Q 2432 2880 2566 2569 
Q 2701 2259 2883 1974 
Q 3066 1690 3277 1446 
Q 3488 1203 3699 1037 
Q 3802 960 3712 832 
L 3443 506 
Q 3411 461 3356 454 
Q 3302 448 3238 493 
Q 3078 614 2902 800 
Q 2726 986 2566 1200 
Q 2406 1414 2272 1641 
Q 2138 1869 2061 2080 
Q 1946 1811 1798 1561 
Q 1651 1312 1488 1085 
Q 1325 858 1149 669 
Q 973 480 800 339 
z
" transform="scale(0.015625)"/>
     </defs>
     <use xlink:href="#NanumGothicBold-d53c"/>
     <use xlink:href="#NanumGothicBold-bc97" transform="translate(93.999985 0)"/>
     <use xlink:href="#NanumGothicBold-20" transform="translate(187.999969 0)"/>
     <use xlink:href="#NanumGothicBold-d68c" transform="translate(215.999954 0)"/>
     <use xlink:href="#NanumGothicBold-c804" transform="translate(309.999939 0)"/>
     <use xlink:href="#NanumGothicBold-20" transform="translate(403.999924 0)"/>
     <use xlink:href="#NanumGothicBold-c21c" transform="translate(431.999908 0)"/>
     <use xlink:href="#NanumGothicBold-c11c" transform="translate(525.999893 0)"/>
    </g>
   </g>
   <g id="text_2">
    <!-- 1. pivot이 원점이 되도록 이동 -->
    <g style="fill: #111827" transform="translate(67.240578 58.559695) scale(0.11 -0.11)">
     <defs>
      <path id="NanumGothicBold-31" d="M 1830 -346 
Q 1741 -346 1741 -262 
L 1741 3526 
L 1267 3117 
Q 1235 3091 1193 3084 
Q 1152 3078 1126 3104 
L 838 3450 
Q 819 3475 822 3510 
Q 826 3546 858 3578 
L 1837 4480 
Q 1850 4493 1882 4505 
Q 1914 4518 1933 4518 
L 2272 4518 
Q 2381 4518 2403 4496 
Q 2426 4474 2426 4346 
L 2426 -262 
Q 2426 -346 2342 -346 
L 1830 -346 
z
" transform="scale(0.015625)"/>
      <path id="NanumGothicBold-2e" d="M 1011 -742 
Q 806 -742 662 -598 
Q 518 -454 518 -250 
Q 518 -45 662 96 
Q 806 237 1011 237 
Q 1216 237 1357 96 
Q 1498 -45 1498 -250 
Q 1498 -454 1357 -598 
Q 1216 -742 1011 -742 
z
" transform="scale(0.015625)"/>
      <path id="NanumGothicBold-70" d="M 2061 -474 
Q 1805 -474 1568 -365 
Q 1331 -256 1171 -70 
L 1171 -1210 
Q 1171 -1261 1158 -1277 
Q 1146 -1293 1101 -1293 
L 570 -1293 
Q 531 -1293 512 -1277 
Q 493 -1261 493 -1210 
L 493 3130 
Q 493 3232 589 3232 
L 1082 3232 
Q 1171 3232 1171 3130 
L 1171 2899 
Q 1350 3085 1574 3187 
Q 1798 3290 2061 3290 
Q 2406 3290 2678 3158 
Q 2950 3027 3139 2784 
Q 3328 2541 3427 2189 
Q 3526 1837 3526 1395 
Q 3526 966 3424 620 
Q 3322 275 3133 32 
Q 2944 -211 2672 -342 
Q 2400 -474 2061 -474 
z
M 1990 2637 
Q 1824 2637 1677 2557 
Q 1530 2477 1418 2320 
Q 1306 2163 1238 1932 
Q 1171 1702 1171 1402 
Q 1171 774 1395 473 
Q 1619 173 1990 173 
Q 2387 173 2598 493 
Q 2810 813 2810 1402 
Q 2810 2022 2592 2329 
Q 2374 2637 1990 2637 
z
" transform="scale(0.015625)"/>
      <path id="NanumGothicBold-69" d="M 813 3898 
Q 627 3898 502 4022 
Q 378 4147 378 4326 
Q 378 4512 502 4640 
Q 627 4768 813 4768 
Q 998 4768 1126 4640 
Q 1254 4512 1254 4326 
Q 1254 4147 1126 4022 
Q 998 3898 813 3898 
z
M 538 -326 
Q 506 -326 483 -304 
Q 461 -282 461 -250 
L 461 3123 
Q 461 3155 483 3177 
Q 506 3200 538 3200 
L 1075 3200 
Q 1107 3200 1129 3177 
Q 1152 3155 1152 3123 
L 1152 -250 
Q 1152 -282 1129 -304 
Q 1107 -326 1075 -326 
L 538 -326 
z
" transform="scale(0.015625)"/>
      <path id="NanumGothicBold-76" d="M 1920 -250 
Q 1907 -288 1894 -297 
Q 1882 -307 1843 -307 
L 1293 -307 
Q 1254 -307 1238 -297 
Q 1222 -288 1210 -250 
L 45 3149 
Q 32 3181 45 3200 
Q 58 3219 128 3219 
L 685 3219 
Q 717 3219 736 3209 
Q 755 3200 768 3168 
L 1568 755 
L 2362 3168 
Q 2374 3200 2396 3209 
Q 2419 3219 2451 3219 
L 3014 3219 
Q 3085 3219 3097 3200 
Q 3110 3181 3098 3149 
L 1920 -250 
z
" transform="scale(0.015625)"/>
      <path id="NanumGothicBold-6f" d="M 3238 173 
Q 3008 -115 2688 -265 
Q 2368 -416 1965 -416 
Q 1555 -416 1241 -269 
Q 928 -122 717 134 
Q 506 390 400 729 
Q 294 1069 294 1453 
Q 294 1837 400 2176 
Q 506 2515 717 2768 
Q 928 3021 1238 3168 
Q 1549 3315 1965 3315 
Q 2374 3315 2688 3168 
Q 3002 3021 3213 2768 
Q 3424 2515 3529 2176 
Q 3635 1837 3635 1453 
Q 3635 1075 3532 745 
Q 3430 416 3238 173 
z
M 1965 2688 
Q 1715 2688 1532 2579 
Q 1350 2470 1235 2294 
Q 1120 2118 1062 1897 
Q 1005 1677 1005 1453 
Q 1005 1229 1062 1008 
Q 1120 787 1235 608 
Q 1350 429 1532 320 
Q 1715 211 1965 211 
Q 2214 211 2396 320 
Q 2579 429 2694 608 
Q 2810 787 2867 1008 
Q 2925 1229 2925 1453 
Q 2925 1670 2867 1891 
Q 2810 2112 2694 2288 
Q 2579 2464 2396 2576 
Q 2214 2688 1965 2688 
z
" transform="scale(0.015625)"/>
      <path id="NanumGothicBold-74" d="M 2278 -262 
Q 2189 -320 1993 -368 
Q 1798 -416 1574 -416 
Q 1306 -416 1146 -304 
Q 986 -192 909 -45 
Q 819 122 800 346 
Q 781 570 781 954 
L 781 2560 
L 250 2560 
Q 218 2560 195 2582 
Q 173 2605 173 2637 
L 173 3142 
Q 173 3174 195 3196 
Q 218 3219 250 3219 
L 781 3219 
L 781 4115 
Q 781 4147 806 4169 
Q 832 4192 864 4192 
L 1382 4192 
Q 1421 4192 1443 4169 
Q 1466 4147 1466 4115 
L 1466 3219 
L 2080 3219 
Q 2112 3219 2134 3196 
Q 2157 3174 2157 3142 
L 2157 2637 
Q 2157 2605 2134 2582 
Q 2112 2560 2080 2560 
L 1466 2560 
L 1466 909 
Q 1466 474 1485 358 
Q 1510 243 1606 217 
Q 1702 192 1824 205 
Q 1907 218 2009 240 
Q 2112 262 2189 294 
Q 2221 307 2233 297 
Q 2246 288 2259 237 
L 2310 -186 
Q 2317 -230 2278 -262 
z
" transform="scale(0.015625)"/>
      <path id="NanumGothicBold-c774" d="M 5274 -928 
Q 5274 -1011 5190 -1011 
L 4621 -1011 
Q 4538 -1011 4538 -928 
L 4538 4979 
Q 4538 5062 4621 5062 
L 5190 5062 
Q 5274 5062 5274 4979 
L 5274 -928 
z
M 2963 2573 
Q 2963 2867 2905 3132 
Q 2848 3398 2739 3596 
Q 2630 3795 2473 3910 
Q 2317 4026 2112 4026 
Q 1907 4026 1750 3910 
Q 1594 3795 1485 3596 
Q 1376 3398 1318 3132 
Q 1261 2867 1261 2573 
Q 1261 2285 1318 2019 
Q 1376 1754 1485 1552 
Q 1594 1350 1750 1232 
Q 1907 1114 2112 1114 
Q 2317 1114 2473 1232 
Q 2630 1350 2739 1552 
Q 2848 1754 2905 2019 
Q 2963 2285 2963 2573 
z
M 2112 461 
Q 1747 461 1452 614 
Q 1158 768 956 1046 
Q 755 1325 646 1715 
Q 538 2106 538 2573 
Q 538 3053 646 3443 
Q 755 3834 956 4106 
Q 1158 4378 1452 4528 
Q 1747 4678 2112 4678 
Q 2483 4678 2774 4528 
Q 3066 4378 3267 4106 
Q 3469 3834 3577 3443 
Q 3686 3053 3686 2573 
Q 3686 2093 3577 1702 
Q 3469 1312 3267 1037 
Q 3066 762 2774 611 
Q 2483 461 2112 461 
z
" transform="scale(0.015625)"/>
      <path id="NanumGothicBold-c6d0" d="M 2182 4410 
Q 2029 4410 1888 4362 
Q 1747 4314 1644 4234 
Q 1542 4154 1481 4042 
Q 1421 3930 1421 3802 
Q 1421 3667 1481 3555 
Q 1542 3443 1644 3363 
Q 1747 3283 1888 3235 
Q 2029 3187 2182 3187 
Q 2342 3187 2480 3235 
Q 2618 3283 2723 3363 
Q 2829 3443 2889 3555 
Q 2950 3667 2950 3802 
Q 2950 3930 2889 4042 
Q 2829 4154 2723 4234 
Q 2618 4314 2480 4362 
Q 2342 4410 2182 4410 
z
M 2182 4973 
Q 2509 4973 2781 4880 
Q 3053 4787 3248 4630 
Q 3443 4474 3552 4262 
Q 3661 4051 3661 3814 
Q 3661 3565 3552 3347 
Q 3443 3130 3248 2973 
Q 3053 2816 2781 2723 
Q 2509 2630 2182 2630 
Q 1856 2630 1587 2723 
Q 1318 2816 1123 2973 
Q 928 3130 822 3347 
Q 717 3565 717 3814 
Q 717 4051 822 4262 
Q 928 4474 1123 4630 
Q 1318 4787 1587 4880 
Q 1856 4973 2182 4973 
z
M 5274 371 
Q 5274 282 5190 282 
L 4621 282 
Q 4538 282 4538 371 
L 4538 954 
L 3443 954 
Q 3411 954 3382 979 
Q 3354 1005 3354 1037 
L 3354 1440 
Q 3354 1472 3382 1494 
Q 3411 1517 3443 1517 
L 4538 1517 
L 4538 4979 
Q 4538 5062 4621 5062 
L 5190 5062 
Q 5274 5062 5274 4979 
L 5274 371 
z
M 4320 2035 
Q 4326 1984 4297 1955 
Q 4269 1926 4237 1914 
Q 4058 1882 3840 1859 
Q 3622 1837 3392 1817 
Q 3162 1798 2934 1782 
Q 2707 1766 2509 1760 
L 2509 838 
Q 2509 800 2480 771 
Q 2451 742 2413 742 
L 1882 742 
Q 1843 742 1814 771 
Q 1786 800 1786 838 
L 1786 1709 
Q 1594 1702 1392 1699 
Q 1190 1696 998 1689 
Q 806 1683 633 1683 
Q 461 1683 333 1690 
Q 294 1690 268 1722 
Q 243 1754 243 1792 
L 243 2189 
Q 243 2227 268 2256 
Q 294 2285 333 2285 
Q 774 2285 1296 2294 
Q 1818 2304 2336 2326 
Q 2854 2349 3334 2384 
Q 3814 2419 4166 2470 
Q 4198 2477 4233 2457 
Q 4269 2438 4275 2400 
L 4320 2035 
z
M 5414 -826 
Q 5414 -864 5385 -883 
Q 5357 -902 5325 -902 
L 1696 -902 
Q 1402 -902 1302 -800 
Q 1203 -698 1203 -448 
L 1203 467 
Q 1203 499 1232 528 
Q 1261 557 1293 557 
L 1843 557 
Q 1882 557 1910 528 
Q 1939 499 1939 467 
L 1939 -186 
Q 1939 -250 1964 -269 
Q 1990 -288 2061 -288 
L 5325 -288 
Q 5357 -288 5385 -313 
Q 5414 -339 5414 -371 
L 5414 -826 
z
" transform="scale(0.015625)"/>
      <path id="NanumGothicBold-c810" d="M 5286 -467 
Q 5286 -710 5177 -812 
Q 5069 -915 4826 -915 
L 2029 -915 
Q 1734 -915 1603 -812 
Q 1472 -710 1472 -461 
L 1472 806 
Q 1472 1050 1577 1158 
Q 1683 1267 1926 1267 
L 4794 1267 
Q 5082 1267 5184 1161 
Q 5286 1056 5286 800 
L 5286 -467 
z
M 781 1600 
Q 742 1574 678 1577 
Q 614 1581 576 1651 
L 390 1965 
Q 358 2016 371 2073 
Q 384 2131 448 2157 
Q 806 2317 1126 2525 
Q 1446 2733 1705 2969 
Q 1965 3206 2157 3465 
Q 2349 3725 2451 3987 
Q 2477 4045 2473 4089 
Q 2470 4134 2368 4134 
L 781 4134 
Q 691 4134 691 4237 
L 691 4659 
Q 691 4698 720 4723 
Q 749 4749 787 4749 
L 2810 4749 
Q 3091 4749 3228 4646 
Q 3366 4544 3334 4333 
Q 3322 4262 3299 4185 
Q 3277 4109 3258 4051 
Q 3098 3597 2784 3162 
Q 2899 3046 3040 2928 
Q 3181 2810 3331 2707 
Q 3482 2605 3629 2515 
Q 3776 2426 3904 2368 
Q 4038 2304 3955 2176 
L 3757 1837 
Q 3725 1786 3680 1773 
Q 3635 1760 3565 1792 
Q 3450 1850 3296 1942 
Q 3142 2035 2979 2156 
Q 2816 2278 2656 2412 
Q 2496 2547 2362 2682 
Q 2035 2362 1638 2090 
Q 1242 1818 781 1600 
z
M 3450 3130 
L 3450 3578 
Q 3450 3610 3478 3632 
Q 3507 3654 3539 3654 
L 4544 3654 
L 4544 4979 
Q 4544 5062 4634 5062 
L 5197 5062 
Q 5229 5062 5257 5036 
Q 5286 5011 5286 4979 
L 5286 1670 
Q 5286 1638 5257 1609 
Q 5229 1581 5197 1581 
L 4634 1581 
Q 4595 1581 4569 1609 
Q 4544 1638 4544 1670 
L 4544 3053 
L 3539 3053 
Q 3507 3053 3478 3075 
Q 3450 3098 3450 3130 
z
M 4550 589 
Q 4550 646 4534 662 
Q 4518 678 4467 678 
L 2285 678 
Q 2234 678 2218 665 
Q 2202 653 2202 595 
L 2202 -243 
Q 2202 -301 2218 -313 
Q 2234 -326 2285 -326 
L 4467 -326 
Q 4518 -326 4534 -313 
Q 4550 -301 4550 -243 
L 4550 589 
z
" transform="scale(0.015625)"/>
      <path id="NanumGothicBold-b418" d="M 211 691 
Q 211 781 307 781 
Q 1062 762 1901 800 
L 1901 1939 
L 1158 1939 
Q 902 1939 787 2064 
Q 672 2189 672 2413 
L 672 4058 
Q 672 4301 781 4403 
Q 890 4506 1133 4506 
L 3661 4506 
Q 3699 4506 3724 4477 
Q 3750 4448 3750 4416 
L 3750 3981 
Q 3750 3898 3661 3898 
L 1523 3898 
Q 1466 3898 1437 3875 
Q 1408 3853 1408 3782 
L 1408 2656 
Q 1408 2592 1430 2569 
Q 1453 2547 1523 2547 
L 3686 2547 
Q 3795 2547 3795 2458 
L 3795 2042 
Q 3795 1939 3686 1939 
L 2618 1939 
L 2618 838 
Q 3027 864 3411 902 
Q 3795 941 4122 986 
Q 4154 992 4195 982 
Q 4237 973 4243 922 
L 4282 499 
Q 4288 448 4259 422 
Q 4230 397 4198 390 
Q 3840 339 3360 291 
Q 2880 243 2352 211 
Q 1824 179 1293 163 
Q 762 147 307 154 
Q 211 154 211 256 
L 211 691 
z
M 5280 -941 
Q 5280 -1024 5190 -1024 
L 4627 -1024 
Q 4595 -1024 4566 -1001 
Q 4538 -979 4538 -941 
L 4538 4979 
Q 4538 5011 4566 5036 
Q 4595 5062 4627 5062 
L 5190 5062 
Q 5280 5062 5280 4979 
L 5280 -941 
z
" transform="scale(0.015625)"/>
      <path id="NanumGothicBold-b3c4" d="M 5069 1971 
Q 5069 1920 5046 1897 
Q 5024 1875 4992 1875 
L 3373 1875 
L 3373 640 
L 5786 640 
Q 5818 640 5850 608 
Q 5882 576 5882 544 
L 5882 122 
Q 5882 90 5850 58 
Q 5818 26 5786 26 
L 211 26 
Q 173 26 147 58 
Q 122 90 122 122 
L 122 544 
Q 122 582 147 611 
Q 173 640 211 640 
L 2637 640 
L 2637 1875 
L 1446 1875 
Q 1190 1875 1075 2003 
Q 960 2131 960 2355 
L 960 4224 
Q 960 4467 1069 4553 
Q 1178 4640 1421 4640 
L 4934 4640 
Q 5024 4640 5024 4557 
L 5024 4109 
Q 5024 4026 4934 4026 
L 1811 4026 
Q 1696 4026 1696 3917 
L 1696 2598 
Q 1696 2541 1718 2512 
Q 1741 2483 1811 2483 
L 4966 2483 
Q 5018 2483 5043 2470 
Q 5069 2458 5069 2406 
L 5069 1971 
z
" transform="scale(0.015625)"/>
      <path id="NanumGothicBold-b85d" d="M 5075 2560 
Q 5075 2528 5046 2499 
Q 5018 2470 4992 2470 
L 3366 2470 
L 3366 1926 
L 5779 1926 
Q 5811 1926 5843 1897 
Q 5875 1869 5875 1837 
L 5875 1421 
Q 5875 1389 5843 1357 
Q 5811 1325 5779 1325 
L 211 1325 
Q 173 1325 147 1353 
Q 122 1382 122 1421 
L 122 1837 
Q 122 1926 211 1926 
L 2630 1926 
L 2630 2470 
L 1485 2470 
Q 1235 2470 1145 2560 
Q 1056 2650 1056 2854 
L 1056 3597 
Q 1056 3802 1142 3891 
Q 1229 3981 1478 3981 
L 4160 3981 
Q 4211 3981 4224 3997 
Q 4237 4013 4237 4077 
L 4237 4307 
Q 4237 4358 4224 4368 
Q 4211 4378 4154 4378 
L 1165 4378 
Q 1133 4378 1104 4403 
Q 1075 4429 1075 4461 
L 1075 4870 
Q 1075 4902 1104 4928 
Q 1133 4954 1165 4954 
L 4518 4954 
Q 4781 4954 4867 4874 
Q 4954 4794 4954 4576 
L 4954 3827 
Q 4954 3603 4867 3526 
Q 4781 3450 4518 3450 
L 1862 3450 
Q 1805 3450 1792 3434 
Q 1779 3418 1779 3360 
L 1779 3123 
Q 1779 3059 1792 3049 
Q 1805 3040 1869 3040 
L 4986 3040 
Q 5018 3040 5046 3017 
Q 5075 2995 5075 2957 
L 5075 2560 
z
M 4966 -992 
Q 4966 -1024 4937 -1053 
Q 4909 -1082 4877 -1082 
L 4326 -1082 
Q 4288 -1082 4259 -1053 
Q 4230 -1024 4230 -992 
L 4230 205 
Q 4230 269 4204 288 
Q 4179 307 4109 307 
L 992 307 
Q 960 307 931 329 
Q 902 352 902 384 
L 902 832 
Q 902 870 931 889 
Q 960 909 992 909 
L 4544 909 
Q 4787 909 4876 806 
Q 4966 704 4966 461 
L 4966 -992 
z
" transform="scale(0.015625)"/>
      <path id="NanumGothicBold-b3d9" d="M 5011 2925 
Q 5011 2874 4988 2851 
Q 4966 2829 4934 2829 
L 3366 2829 
L 3366 2170 
L 5779 2170 
Q 5811 2170 5843 2138 
Q 5875 2106 5875 2074 
L 5875 1651 
Q 5875 1619 5843 1587 
Q 5811 1555 5779 1555 
L 211 1555 
Q 173 1555 147 1584 
Q 122 1613 122 1651 
L 122 2074 
Q 122 2112 147 2141 
Q 173 2170 211 2170 
L 2630 2170 
L 2630 2829 
L 1510 2829 
Q 1254 2829 1152 2944 
Q 1050 3059 1050 3283 
L 1050 4538 
Q 1050 4781 1158 4867 
Q 1267 4954 1510 4954 
L 4877 4954 
Q 4966 4954 4966 4870 
L 4966 4435 
Q 4966 4346 4877 4346 
L 1914 4346 
Q 1792 4346 1792 4237 
L 1792 3546 
Q 1792 3494 1817 3462 
Q 1843 3430 1914 3430 
L 4909 3430 
Q 4960 3430 4985 3417 
Q 5011 3405 5011 3354 
L 5011 2925 
z
M 5011 83 
Q 5011 -442 4489 -730 
Q 3968 -1018 2995 -1018 
Q 2022 -1018 1500 -730 
Q 979 -442 979 83 
Q 979 602 1500 893 
Q 2022 1184 2995 1184 
Q 3968 1184 4489 893 
Q 5011 602 5011 83 
z
M 2995 621 
Q 2355 621 2032 464 
Q 1709 307 1709 77 
Q 1709 -147 2032 -304 
Q 2355 -461 2995 -461 
Q 3635 -461 3958 -304 
Q 4282 -147 4282 77 
Q 4282 307 3958 464 
Q 3635 621 2995 621 
z
" transform="scale(0.015625)"/>
     </defs>
     <use xlink:href="#NanumGothicBold-31"/>
     <use xlink:href="#NanumGothicBold-2e" transform="translate(60.599991 0)"/>
     <use xlink:href="#NanumGothicBold-20" transform="translate(90.899979 0)"/>
     <use xlink:href="#NanumGothicBold-70" transform="translate(118.899963 0)"/>
     <use xlink:href="#NanumGothicBold-69" transform="translate(179.499954 0)"/>
     <use xlink:href="#NanumGothicBold-76" transform="translate(203.699951 0)"/>
     <use xlink:href="#NanumGothicBold-6f" transform="translate(252.099945 0)"/>
     <use xlink:href="#NanumGothicBold-74" transform="translate(312.699936 0)"/>
     <use xlink:href="#NanumGothicBold-c774" transform="translate(348.999924 0)"/>
     <use xlink:href="#NanumGothicBold-20" transform="translate(442.999908 0)"/>
     <use xlink:href="#NanumGothicBold-c6d0" transform="translate(470.999893 0)"/>
     <use xlink:href="#NanumGothicBold-c810" transform="translate(564.999878 0)"/>
     <use xlink:href="#NanumGothicBold-c774" transform="translate(658.999863 0)"/>
     <use xlink:href="#NanumGothicBold-20" transform="translate(752.999847 0)"/>
     <use xlink:href="#NanumGothicBold-b418" transform="translate(780.999832 0)"/>
     <use xlink:href="#NanumGothicBold-b3c4" transform="translate(874.999817 0)"/>
     <use xlink:href="#NanumGothicBold-b85d" transform="translate(968.999802 0)"/>
     <use xlink:href="#NanumGothicBold-20" transform="translate(1062.999786 0)"/>
     <use xlink:href="#NanumGothicBold-c774" transform="translate(1090.999771 0)"/>
     <use xlink:href="#NanumGothicBold-b3d9" transform="translate(1184.999756 0)"/>
    </g>
   </g>
   <g id="patch_2">
    <path d="M 137.584719 63.771113 
Q 137.584719 77.459209 137.584719 89.134845 
" clip-path="url(#pfb6118ac66)" style="fill: none; stroke: #6b7280; stroke-width: 1.8; stroke-linecap: round"/>
    <path d="M 140.384719 83.534845 
L 137.584719 89.134845 
L 134.784719 83.534845 
z
" clip-path="url(#pfb6118ac66)" style="fill: #6b7280; stroke: #6b7280; stroke-width: 1.8; stroke-linecap: round"/>
   </g>
   <g id="text_3">
    <!-- 2. 회전 -->
    <g style="fill: #111827" transform="translate(120.705735 116.419819) scale(0.11 -0.11)">
     <defs>
      <path id="NanumGothicBold-32" d="M 486 -352 
Q 365 -352 365 -269 
L 365 96 
Q 365 147 393 198 
Q 422 250 461 301 
L 1434 1453 
Q 1965 2086 2221 2508 
Q 2477 2931 2477 3200 
Q 2477 3507 2288 3705 
Q 2099 3904 1824 3904 
Q 1562 3904 1315 3830 
Q 1069 3757 781 3590 
Q 730 3558 678 3561 
Q 627 3565 614 3622 
L 525 4109 
Q 512 4141 531 4173 
Q 550 4205 614 4243 
Q 858 4371 1171 4473 
Q 1485 4576 1786 4576 
Q 2093 4576 2352 4489 
Q 2611 4403 2800 4233 
Q 2989 4064 3097 3808 
Q 3206 3552 3206 3219 
Q 3206 2931 3078 2633 
Q 2950 2336 2758 2051 
Q 2566 1766 2348 1507 
Q 2131 1248 1952 1037 
Q 1811 864 1654 675 
Q 1498 486 1338 307 
L 3213 307 
Q 3302 307 3302 205 
L 3302 -243 
Q 3302 -352 3213 -352 
L 486 -352 
z
" transform="scale(0.015625)"/>
     </defs>
     <use xlink:href="#NanumGothicBold-32"/>
     <use xlink:href="#NanumGothicBold-2e" transform="translate(60.599991 0)"/>
     <use xlink:href="#NanumGothicBold-20" transform="translate(90.899979 0)"/>
     <use xlink:href="#NanumGothicBold-d68c" transform="translate(118.899963 0)"/>
     <use xlink:href="#NanumGothicBold-c804" transform="translate(212.899948 0)"/>
    </g>
   </g>
   <g id="patch_3">
    <path d="M 137.584719 121.796236 
Q 137.584719 135.484333 137.584719 147.159968 
" clip-path="url(#pfb6118ac66)" style="fill: none; stroke: #6b7280; stroke-width: 1.8; stroke-linecap: round"/>
    <path d="M 140.384719 141.559968 
L 137.584719 147.159968 
L 134.784719 141.559968 
z
" clip-path="url(#pfb6118ac66)" style="fill: #6b7280; stroke: #6b7280; stroke-width: 1.8; stroke-linecap: round"/>
   </g>
   <g id="text_4">
    <!-- 3. 다시 pivot 위치로 복귀 -->
    <g style="fill: #111827" transform="translate(77.580578 174.609943) scale(0.11 -0.11)">
     <defs>
      <path id="NanumGothicBold-33" d="M 2854 -13 
Q 2611 -211 2268 -304 
Q 1926 -397 1555 -397 
Q 1280 -397 1001 -349 
Q 723 -301 486 -218 
Q 422 -198 396 -169 
Q 371 -141 378 -83 
L 435 397 
Q 442 454 474 473 
Q 506 493 595 461 
Q 762 410 928 362 
Q 1094 314 1267 301 
Q 1402 288 1542 281 
Q 1683 275 1820 291 
Q 1958 307 2083 348 
Q 2208 390 2317 467 
Q 2624 678 2624 1107 
Q 2624 1254 2557 1392 
Q 2490 1530 2349 1635 
Q 2208 1741 1987 1801 
Q 1766 1862 1459 1862 
L 1139 1862 
Q 1088 1862 1072 1878 
Q 1056 1894 1056 1946 
L 1056 2419 
Q 1056 2477 1072 2489 
Q 1088 2502 1139 2502 
L 1446 2502 
Q 1587 2502 1785 2544 
Q 1984 2586 2169 2682 
Q 2355 2778 2486 2925 
Q 2618 3072 2618 3283 
Q 2618 3450 2534 3571 
Q 2451 3693 2320 3769 
Q 2189 3846 2035 3881 
Q 1882 3917 1747 3917 
Q 1658 3917 1539 3897 
Q 1421 3878 1296 3849 
Q 1171 3821 1043 3782 
Q 915 3744 813 3706 
Q 736 3674 704 3690 
Q 672 3706 659 3763 
L 602 4230 
Q 589 4269 608 4301 
Q 627 4333 698 4358 
Q 979 4461 1248 4518 
Q 1517 4576 1786 4576 
Q 2074 4576 2352 4505 
Q 2630 4435 2844 4288 
Q 3059 4141 3193 3904 
Q 3328 3667 3328 3341 
Q 3328 3168 3267 2995 
Q 3206 2822 3097 2668 
Q 2989 2515 2835 2393 
Q 2682 2272 2502 2195 
Q 2925 2010 3142 1725 
Q 3360 1440 3360 1088 
Q 3360 749 3229 467 
Q 3098 186 2854 -13 
z
" transform="scale(0.015625)"/>
      <path id="NanumGothicBold-b2e4" d="M 5965 2195 
Q 5965 2157 5936 2131 
Q 5907 2106 5875 2106 
L 5005 2106 
L 5005 -928 
Q 5005 -1011 4922 -1011 
L 4352 -1011 
Q 4269 -1011 4269 -928 
L 4269 4979 
Q 4269 5062 4352 5062 
L 4922 5062 
Q 5005 5062 5005 4979 
L 5005 2720 
L 5875 2720 
Q 5907 2720 5936 2697 
Q 5965 2675 5965 2643 
L 5965 2195 
z
M 3949 1114 
Q 3962 1043 3933 1020 
Q 3904 998 3872 986 
Q 3616 909 3235 851 
Q 2854 794 2448 758 
Q 2042 723 1654 710 
Q 1267 698 1005 717 
Q 768 730 656 822 
Q 544 915 544 1146 
L 544 4179 
Q 544 4403 637 4492 
Q 730 4582 973 4582 
L 3296 4582 
Q 3386 4582 3386 4499 
L 3386 4051 
Q 3386 3968 3296 3968 
L 1395 3968 
Q 1280 3968 1280 3859 
L 1280 1530 
Q 1280 1427 1315 1398 
Q 1350 1370 1472 1357 
Q 1670 1338 1945 1350 
Q 2221 1363 2528 1392 
Q 2835 1421 3155 1465 
Q 3475 1510 3763 1562 
Q 3859 1581 3878 1485 
L 3949 1114 
z
" transform="scale(0.015625)"/>
      <path id="NanumGothicBold-c2dc" d="M 851 403 
Q 736 307 627 410 
L 333 691 
Q 230 781 352 890 
Q 762 1267 1059 1728 
Q 1357 2189 1536 2714 
Q 1613 2944 1667 3171 
Q 1722 3398 1757 3632 
Q 1792 3866 1805 4118 
Q 1818 4371 1811 4653 
Q 1811 4691 1840 4720 
Q 1869 4749 1901 4749 
L 2470 4730 
Q 2502 4730 2528 4701 
Q 2554 4672 2554 4634 
Q 2554 4250 2525 3917 
Q 2496 3584 2445 3277 
Q 2502 2976 2640 2669 
Q 2778 2362 2960 2083 
Q 3142 1805 3353 1568 
Q 3565 1331 3770 1165 
Q 3872 1088 3782 966 
L 3514 640 
Q 3482 595 3427 588 
Q 3373 582 3315 627 
Q 3155 749 2982 928 
Q 2810 1107 2646 1318 
Q 2483 1530 2348 1750 
Q 2214 1971 2131 2176 
Q 2016 1907 1869 1651 
Q 1722 1395 1552 1164 
Q 1382 934 1203 739 
Q 1024 544 851 403 
z
M 5280 -928 
Q 5280 -1011 5190 -1011 
L 4627 -1011 
Q 4595 -1011 4566 -988 
Q 4538 -966 4538 -928 
L 4538 4979 
Q 4538 5011 4566 5036 
Q 4595 5062 4627 5062 
L 5190 5062 
Q 5280 5062 5280 4979 
L 5280 -928 
z
" transform="scale(0.015625)"/>
      <path id="NanumGothicBold-c704" d="M 2157 4768 
Q 2496 4768 2781 4675 
Q 3066 4582 3270 4416 
Q 3475 4250 3590 4022 
Q 3706 3795 3706 3520 
Q 3706 3238 3590 3008 
Q 3475 2778 3270 2611 
Q 3066 2445 2781 2352 
Q 2496 2259 2157 2259 
Q 1818 2259 1536 2352 
Q 1254 2445 1046 2611 
Q 838 2778 723 3008 
Q 608 3238 608 3520 
Q 608 3795 723 4022 
Q 838 4250 1046 4416 
Q 1254 4582 1536 4675 
Q 1818 4768 2157 4768 
z
M 5280 -928 
Q 5280 -1011 5190 -1011 
L 4627 -1011 
Q 4595 -1011 4566 -988 
Q 4538 -966 4538 -928 
L 4538 4979 
Q 4538 5011 4566 5036 
Q 4595 5062 4627 5062 
L 5190 5062 
Q 5280 5062 5280 4979 
L 5280 -928 
z
M 211 1632 
Q 211 1722 307 1722 
Q 762 1709 1267 1712 
Q 1773 1715 2275 1734 
Q 2778 1754 3251 1789 
Q 3725 1824 4122 1882 
Q 4154 1888 4195 1875 
Q 4237 1862 4243 1811 
L 4282 1402 
Q 4288 1350 4259 1324 
Q 4230 1299 4198 1293 
Q 3872 1242 3456 1203 
Q 3040 1165 2573 1139 
L 2573 -710 
Q 2573 -755 2544 -784 
Q 2515 -813 2477 -813 
L 1952 -813 
Q 1850 -813 1850 -710 
L 1850 1114 
Q 1446 1101 1049 1094 
Q 653 1088 307 1094 
Q 262 1094 236 1123 
Q 211 1152 211 1190 
L 211 1632 
z
M 2157 4166 
Q 1997 4166 1846 4118 
Q 1696 4070 1581 3984 
Q 1466 3898 1395 3776 
Q 1325 3654 1325 3507 
Q 1325 3354 1395 3232 
Q 1466 3110 1581 3020 
Q 1696 2931 1846 2883 
Q 1997 2835 2157 2835 
Q 2330 2835 2483 2883 
Q 2637 2931 2752 3020 
Q 2867 3110 2934 3232 
Q 3002 3354 3002 3507 
Q 3002 3654 2934 3776 
Q 2867 3898 2752 3984 
Q 2637 4070 2483 4118 
Q 2330 4166 2157 4166 
z
" transform="scale(0.015625)"/>
      <path id="NanumGothicBold-ce58" d="M 710 378 
Q 659 352 604 355 
Q 550 358 518 403 
L 320 710 
Q 275 781 297 841 
Q 320 902 365 922 
Q 717 1114 1043 1344 
Q 1370 1574 1645 1836 
Q 1920 2099 2128 2384 
Q 2336 2669 2458 2970 
Q 2496 3059 2502 3100 
Q 2509 3142 2355 3142 
L 710 3142 
Q 672 3142 646 3174 
Q 621 3206 621 3245 
L 621 3667 
Q 621 3706 649 3731 
Q 678 3757 717 3757 
L 2874 3757 
Q 3149 3757 3257 3654 
Q 3366 3552 3366 3437 
Q 3366 3283 3309 3110 
Q 3200 2842 3069 2592 
Q 2938 2342 2771 2106 
Q 2893 1971 3037 1833 
Q 3181 1696 3334 1568 
Q 3488 1440 3641 1325 
Q 3795 1210 3930 1120 
Q 3981 1088 3974 1040 
Q 3968 992 3936 941 
L 3693 602 
Q 3667 563 3616 556 
Q 3565 550 3501 595 
Q 3386 666 3235 781 
Q 3085 896 2931 1033 
Q 2778 1171 2627 1318 
Q 2477 1466 2362 1600 
Q 1702 890 710 378 
z
M 5280 -928 
Q 5280 -1011 5190 -1011 
L 4627 -1011 
Q 4595 -1011 4566 -988 
Q 4538 -966 4538 -928 
L 4538 4979 
Q 4538 5011 4566 5036 
Q 4595 5062 4627 5062 
L 5190 5062 
Q 5280 5062 5280 4979 
L 5280 -928 
z
M 2970 4294 
Q 2970 4256 2938 4224 
Q 2906 4192 2861 4192 
L 1197 4192 
Q 1171 4192 1136 4217 
Q 1101 4243 1101 4288 
L 1101 4678 
Q 1101 4723 1136 4748 
Q 1171 4774 1197 4774 
L 2861 4774 
Q 2899 4774 2934 4742 
Q 2970 4710 2970 4672 
L 2970 4294 
z
" transform="scale(0.015625)"/>
      <path id="NanumGothicBold-b85c" d="M 5882 122 
Q 5882 90 5850 58 
Q 5818 26 5786 26 
L 211 26 
Q 173 26 147 58 
Q 122 90 122 122 
L 122 525 
Q 122 563 147 595 
Q 173 627 211 627 
L 2637 627 
L 2637 1581 
L 1491 1581 
Q 1350 1581 1260 1600 
Q 1171 1619 1120 1670 
Q 1069 1722 1049 1802 
Q 1030 1882 1030 2010 
L 1030 3040 
Q 1030 3168 1049 3248 
Q 1069 3328 1120 3376 
Q 1171 3424 1260 3440 
Q 1350 3456 1491 3456 
L 4154 3456 
Q 4218 3456 4234 3472 
Q 4250 3488 4250 3558 
L 4250 4058 
Q 4250 4128 4234 4137 
Q 4218 4147 4154 4147 
L 1139 4147 
Q 1107 4147 1081 4176 
Q 1056 4205 1056 4237 
L 1056 4666 
Q 1056 4698 1081 4723 
Q 1107 4749 1139 4749 
L 4506 4749 
Q 4774 4749 4870 4662 
Q 4966 4576 4966 4326 
L 4966 3290 
Q 4966 3040 4870 2953 
Q 4774 2867 4506 2867 
L 1837 2867 
Q 1773 2867 1760 2854 
Q 1747 2842 1747 2778 
L 1747 2272 
Q 1747 2202 1763 2186 
Q 1779 2170 1843 2170 
L 5018 2170 
Q 5050 2170 5075 2147 
Q 5101 2125 5101 2093 
L 5101 1664 
Q 5101 1632 5072 1606 
Q 5043 1581 5018 1581 
L 3373 1581 
L 3373 627 
L 5786 627 
Q 5818 627 5850 592 
Q 5882 557 5882 525 
L 5882 122 
z
" transform="scale(0.015625)"/>
      <path id="NanumGothicBold-bcf5" d="M 4934 3136 
Q 4934 2918 4832 2809 
Q 4730 2701 4448 2701 
L 3366 2701 
L 3366 2093 
L 5779 2093 
Q 5811 2093 5843 2064 
Q 5875 2035 5875 2003 
L 5875 1581 
Q 5875 1549 5843 1513 
Q 5811 1478 5779 1478 
L 211 1478 
Q 173 1478 147 1510 
Q 122 1542 122 1581 
L 122 2003 
Q 122 2093 211 2093 
L 2630 2093 
L 2630 2701 
L 1549 2701 
Q 1261 2701 1158 2800 
Q 1056 2899 1056 3155 
L 1056 4896 
Q 1056 4928 1081 4950 
Q 1107 4973 1139 4973 
L 1702 4973 
Q 1734 4973 1763 4950 
Q 1792 4928 1792 4896 
L 1792 4390 
L 4198 4390 
L 4198 4902 
Q 4198 4934 4224 4960 
Q 4250 4986 4282 4986 
L 4851 4986 
Q 4883 4986 4908 4960 
Q 4934 4934 4934 4902 
L 4934 3136 
z
M 4960 -928 
Q 4960 -960 4931 -989 
Q 4902 -1018 4870 -1018 
L 4320 -1018 
Q 4282 -1018 4253 -989 
Q 4224 -960 4224 -928 
L 4224 339 
Q 4224 403 4198 422 
Q 4173 442 4102 442 
L 998 442 
Q 966 442 937 467 
Q 909 493 909 525 
L 909 979 
Q 909 1018 937 1037 
Q 966 1056 998 1056 
L 4538 1056 
Q 4781 1056 4870 957 
Q 4960 858 4960 614 
L 4960 -928 
z
M 4198 3814 
L 1792 3814 
L 1792 3398 
Q 1792 3290 1914 3290 
L 4077 3290 
Q 4198 3290 4198 3398 
L 4198 3814 
z
" transform="scale(0.015625)"/>
      <path id="NanumGothicBold-adc0" d="M 3674 4083 
Q 3674 3878 3658 3638 
Q 3642 3398 3616 3158 
Q 3590 2918 3552 2684 
Q 3514 2451 3475 2259 
Q 3648 2272 3811 2291 
Q 3974 2310 4122 2330 
Q 4154 2336 4195 2326 
Q 4237 2317 4243 2266 
L 4282 1856 
Q 4288 1805 4259 1779 
Q 4230 1754 4198 1747 
Q 3872 1696 3446 1661 
Q 3021 1626 2541 1594 
L 2541 -550 
Q 2541 -589 2512 -617 
Q 2483 -646 2445 -646 
L 1914 -646 
Q 1875 -646 1846 -617 
Q 1818 -589 1818 -550 
L 1818 1555 
Q 1421 1530 1037 1523 
Q 653 1517 307 1523 
Q 262 1523 236 1555 
Q 211 1587 211 1626 
L 211 2061 
Q 211 2150 307 2150 
Q 890 2138 1530 2147 
Q 2170 2157 2790 2202 
Q 2880 2611 2921 3001 
Q 2963 3392 2963 3802 
Q 2963 3891 2918 3916 
Q 2874 3942 2784 3942 
L 806 3942 
Q 774 3942 742 3964 
Q 710 3987 710 4019 
L 710 4461 
Q 710 4506 742 4525 
Q 774 4544 806 4544 
L 3226 4544 
Q 3430 4544 3552 4432 
Q 3674 4320 3674 4083 
z
M 5280 -928 
Q 5280 -1011 5190 -1011 
L 4627 -1011 
Q 4595 -1011 4566 -988 
Q 4538 -966 4538 -928 
L 4538 4979 
Q 4538 5011 4566 5036 
Q 4595 5062 4627 5062 
L 5190 5062 
Q 5280 5062 5280 4979 
L 5280 -928 
z
" transform="scale(0.015625)"/>
     </defs>
     <use xlink:href="#NanumGothicBold-33"/>
     <use xlink:href="#NanumGothicBold-2e" transform="translate(60.599991 0)"/>
     <use xlink:href="#NanumGothicBold-20" transform="translate(90.899979 0)"/>
     <use xlink:href="#NanumGothicBold-b2e4" transform="translate(118.899963 0)"/>
     <use xlink:href="#NanumGothicBold-c2dc" transform="translate(212.899948 0)"/>
     <use xlink:href="#NanumGothicBold-20" transform="translate(306.899933 0)"/>
     <use xlink:href="#NanumGothicBold-70" transform="translate(334.899918 0)"/>
     <use xlink:href="#NanumGothicBold-69" transform="translate(395.499908 0)"/>
     <use xlink:href="#NanumGothicBold-76" transform="translate(419.699905 0)"/>
     <use xlink:href="#NanumGothicBold-6f" transform="translate(468.099899 0)"/>
     <use xlink:href="#NanumGothicBold-74" transform="translate(528.69989 0)"/>
     <use xlink:href="#NanumGothicBold-20" transform="translate(564.999878 0)"/>
     <use xlink:href="#NanumGothicBold-c704" transform="translate(592.999863 0)"/>
     <use xlink:href="#NanumGothicBold-ce58" transform="translate(686.999847 0)"/>
     <use xlink:href="#NanumGothicBold-b85c" transform="translate(780.999832 0)"/>
     <use xlink:href="#NanumGothicBold-20" transform="translate(874.999817 0)"/>
     <use xlink:href="#NanumGothicBold-bcf5" transform="translate(902.999802 0)"/>
     <use xlink:href="#NanumGothicBold-adc0" transform="translate(996.999786 0)"/>
    </g>
   </g>
  </g>
 </g>
 <defs>
  <clipPath id="pfb6118ac66">
   <rect x="8.64" y="29.531767" width="257.889438" height="191.268"/>
  </clipPath>
 </defs>
</svg>
