<?xml version="1.0" encoding="utf-8" standalone="no"?>
<!DOCTYPE svg PUBLIC "-//W3C//DTD SVG 1.1//EN"
  "http://www.w3.org/Graphics/SVG/1.1/DTD/svg11.dtd">
<svg xmlns:xlink="http://www.w3.org/1999/xlink" width="279.36pt" height="111.312pt" viewBox="0 0 279.36 111.312" xmlns="http://www.w3.org/2000/svg" version="1.1">
 <metadata>
  <rdf:RDF xmlns:dc="http://purl.org/dc/elements/1.1/" xmlns:cc="http://creativecommons.org/ns#" xmlns:rdf="http://www.w3.org/1999/02/22-rdf-syntax-ns#">
   <cc:Work>
    <dc:type rdf:resource="http://purl.org/dc/dcmitype/StillImage"/>
    <dc:date>2026-07-08T05:12:56.645526</dc:date>
    <dc:format>image/svg+xml</dc:format>
    <dc:creator>
     <cc:Agent>
      <dc:title>Matplotlib v3.10.8, https://matplotlib.org/</dc:title>
     </cc:Agent>
    </dc:creator>
   </cc:Work>
  </rdf:RDF>
 </metadata>
 <defs>
  <style type="text/css">*{stroke-linejoin: round; stroke-linecap: butt}</style>
 </defs>
 <g id="figure_1">
  <g id="patch_1">
   <path d="M 0 111.312 
L 279.36 111.312 
L 279.36 0 
L 0 0 
z
" style="fill: #ffffff"/>
  </g>
  <g id="axes_1">
   <g id="patch_2">
    <path d="M 5.76 105.552 
L 273.6 105.552 
L 273.6 5.76 
L 5.76 5.76 
z
" clip-path="url(#p9925f84c5f)" style="fill: #ffffff; stroke: #e5e7eb; stroke-linejoin: miter"/>
   </g>
   <g id="text_1">
    <!-- ra = 충돌점 - A 중심 -->
    <g style="fill: #111827" transform="translate(16.4736 25.809727) scale(0.11 -0.11)">
     <defs>
      <path id="NanumGothicCoding-72" d="M 1946 122 
Q 2035 122 2035 32 
L 2035 -186 
Q 2035 -275 1946 -275 
L 506 -275 
Q 416 -275 416 -186 
L 416 32 
Q 416 122 506 122 
L 883 122 
L 883 2534 
L 390 2534 
Q 301 2534 301 2624 
L 301 2842 
Q 301 2931 390 2931 
L 1165 2931 
Q 1254 2931 1254 2842 
L 1254 2214 
Q 1645 3021 2381 3021 
Q 2758 3021 3059 2874 
Q 3123 2848 3129 2809 
Q 3136 2771 3117 2726 
L 3040 2496 
Q 3021 2451 2992 2454 
Q 2963 2458 2918 2483 
Q 2637 2618 2317 2618 
Q 1792 2592 1485 2048 
Q 1312 1715 1312 1178 
L 1312 122 
L 1946 122 
z
" transform="scale(0.015625)"/>
      <path id="NanumGothicCoding-61" d="M 2368 1402 
L 2246 1402 
Q 1888 1414 1645 1376 
Q 1402 1338 1229 1254 
Q 1018 1165 902 976 
Q 787 787 787 589 
Q 787 474 838 342 
Q 890 211 998 141 
Q 1184 -13 1414 -13 
Q 1638 -13 1785 73 
Q 1933 160 2073 342 
Q 2214 525 2291 755 
Q 2368 986 2368 1203 
L 2368 1402 
z
M 723 2400 
Q 691 2381 662 2390 
Q 634 2400 634 2432 
L 634 2682 
Q 634 2765 723 2803 
Q 941 2931 1168 2982 
Q 1395 3034 1658 3034 
Q 2214 3046 2508 2713 
Q 2803 2381 2803 1888 
L 2803 397 
Q 2803 218 2809 77 
Q 2816 -64 2829 -192 
Q 2829 -275 2739 -275 
L 2509 -275 
Q 2419 -275 2419 -192 
L 2419 262 
Q 2285 -38 2009 -208 
Q 1734 -378 1363 -378 
Q 813 -378 512 -19 
Q 410 96 358 256 
Q 307 416 307 570 
Q 307 902 489 1180 
Q 672 1459 1050 1600 
Q 1414 1766 2285 1766 
L 2368 1766 
L 2368 1914 
Q 2368 2240 2185 2454 
Q 2003 2669 1658 2669 
Q 1382 2669 1168 2608 
Q 954 2547 723 2400 
z
" transform="scale(0.015625)"/>
      <path id="NanumGothicCoding-20" transform="scale(0.015625)"/>
      <path id="NanumGothicCoding-3d" d="M 3142 2810 
L 3142 2528 
Q 3142 2458 3132 2448 
Q 3123 2438 3053 2438 
L 147 2438 
Q 77 2438 67 2448 
Q 58 2458 58 2528 
L 58 2810 
Q 58 2880 67 2889 
Q 77 2899 147 2899 
L 3053 2899 
Q 3123 2899 3132 2889 
Q 3142 2880 3142 2810 
z
M 3142 1446 
L 3142 1165 
Q 3142 1094 3132 1084 
Q 3123 1075 3053 1075 
L 147 1075 
Q 77 1075 67 1084 
Q 58 1094 58 1165 
L 58 1446 
Q 58 1517 67 1526 
Q 77 1536 147 1536 
L 3053 1536 
Q 3123 1536 3132 1526 
Q 3142 1517 3142 1446 
z
" transform="scale(0.015625)"/>
      <path id="NanumGothicCoding-cda9" d="M 5920 1997 
Q 5952 1997 5984 1974 
Q 6016 1952 6016 1914 
L 6016 1696 
Q 6016 1664 5984 1638 
Q 5952 1613 5920 1613 
L 3411 1613 
L 3411 1037 
Q 3693 1024 4006 969 
Q 4320 915 4582 803 
Q 4845 691 5014 508 
Q 5184 326 5184 51 
Q 5184 -256 4979 -448 
Q 4774 -640 4470 -752 
Q 4166 -864 3817 -905 
Q 3469 -947 3187 -947 
Q 3002 -947 2781 -931 
Q 2560 -915 2339 -870 
Q 2118 -826 1913 -752 
Q 1709 -678 1549 -569 
Q 1389 -461 1293 -307 
Q 1197 -154 1197 51 
Q 1197 320 1369 502 
Q 1542 685 1804 800 
Q 2067 915 2377 969 
Q 2688 1024 2970 1037 
L 2970 1613 
L 480 1613 
Q 442 1613 413 1638 
Q 384 1664 384 1696 
L 384 1914 
Q 384 1952 413 1974 
Q 442 1997 480 1997 
L 5920 1997 
z
M 4595 3610 
Q 4250 3366 3770 3142 
Q 4122 3040 4538 2953 
Q 4954 2867 5338 2816 
Q 5389 2810 5398 2787 
Q 5408 2765 5395 2720 
L 5338 2502 
Q 5325 2432 5235 2451 
Q 5030 2483 4777 2531 
Q 4525 2579 4256 2640 
Q 3987 2701 3718 2768 
Q 3450 2835 3200 2906 
Q 2765 2746 2262 2614 
Q 1760 2483 1190 2387 
Q 1094 2368 1069 2432 
L 992 2650 
Q 979 2682 998 2714 
Q 1018 2746 1056 2752 
Q 1510 2835 1907 2934 
Q 2304 3034 2662 3149 
Q 3021 3264 3357 3398 
Q 3693 3533 4026 3693 
Q 4134 3744 4124 3789 
Q 4115 3834 4013 3834 
L 1466 3834 
Q 1382 3834 1382 3917 
L 1382 4141 
Q 1382 4218 1466 4218 
L 4230 4218 
Q 4730 4218 4838 4042 
Q 4947 3866 4595 3610 
z
M 4717 45 
Q 4717 237 4544 355 
Q 4371 474 4124 538 
Q 3878 602 3619 621 
Q 3360 640 3187 640 
Q 3008 640 2749 621 
Q 2490 602 2250 538 
Q 2010 474 1837 355 
Q 1664 237 1664 45 
Q 1664 -147 1837 -262 
Q 2010 -378 2250 -442 
Q 2490 -506 2749 -525 
Q 3008 -544 3187 -544 
Q 3360 -544 3619 -525 
Q 3878 -506 4124 -442 
Q 4371 -378 4544 -262 
Q 4717 -147 4717 45 
z
M 4006 5005 
Q 4102 5005 4102 4915 
L 4102 4710 
Q 4102 4614 4006 4614 
L 2323 4614 
Q 2227 4614 2227 4710 
L 2227 4915 
Q 2227 5005 2323 5005 
L 4006 5005 
z
" transform="scale(0.015625)"/>
      <path id="NanumGothicCoding-b3cc" d="M 5178 3219 
Q 5178 3130 5094 3130 
L 3418 3130 
L 3418 2528 
L 5920 2528 
Q 5952 2528 5984 2505 
Q 6016 2483 6016 2445 
L 6016 2227 
Q 6016 2195 5984 2169 
Q 5952 2144 5920 2144 
L 480 2144 
Q 442 2144 413 2169 
Q 384 2195 384 2227 
L 384 2445 
Q 384 2483 413 2505 
Q 442 2528 480 2528 
L 2976 2528 
L 2976 3130 
L 1779 3130 
Q 1498 3130 1395 3222 
Q 1293 3315 1293 3584 
L 1293 4544 
Q 1293 4813 1395 4905 
Q 1498 4998 1779 4998 
L 5050 4998 
Q 5133 4998 5133 4915 
L 5133 4704 
Q 5133 4614 5050 4614 
L 1888 4614 
Q 1798 4614 1766 4579 
Q 1734 4544 1734 4448 
L 1734 3680 
Q 1734 3590 1766 3552 
Q 1798 3514 1888 3514 
L 5094 3514 
Q 5178 3514 5178 3430 
L 5178 3219 
z
M 5248 -781 
Q 5248 -813 5219 -835 
Q 5190 -858 5165 -858 
L 1760 -858 
Q 1459 -858 1366 -746 
Q 1274 -634 1274 -365 
L 1274 141 
Q 1274 410 1386 502 
Q 1498 595 1786 595 
L 4538 595 
Q 4627 595 4652 620 
Q 4678 646 4678 742 
L 4678 1082 
Q 4678 1178 4656 1203 
Q 4634 1229 4544 1229 
L 1350 1229 
Q 1318 1229 1289 1248 
Q 1261 1267 1261 1299 
L 1261 1523 
Q 1261 1555 1289 1574 
Q 1318 1594 1350 1594 
L 4608 1594 
Q 4762 1594 4858 1571 
Q 4954 1549 5011 1497 
Q 5069 1446 5091 1353 
Q 5114 1261 5114 1126 
L 5114 685 
Q 5114 416 5002 323 
Q 4890 230 4602 230 
L 1843 230 
Q 1754 230 1731 204 
Q 1709 179 1709 83 
L 1709 -339 
Q 1709 -429 1734 -457 
Q 1760 -486 1850 -486 
L 5158 -486 
Q 5190 -486 5219 -505 
Q 5248 -525 5248 -557 
L 5248 -781 
z
" transform="scale(0.015625)"/>
      <path id="NanumGothicCoding-c810" d="M 1690 819 
Q 1690 1088 1792 1181 
Q 1894 1274 2176 1274 
L 4858 1274 
Q 5011 1274 5104 1254 
Q 5197 1235 5251 1184 
Q 5306 1133 5325 1043 
Q 5344 954 5344 819 
L 5344 -390 
Q 5344 -659 5241 -752 
Q 5139 -845 4858 -845 
L 2176 -845 
Q 2022 -845 1929 -825 
Q 1837 -806 1782 -752 
Q 1728 -698 1709 -611 
Q 1690 -525 1690 -390 
L 1690 819 
z
M 2285 890 
Q 2195 890 2163 854 
Q 2131 819 2131 723 
L 2131 -294 
Q 2131 -390 2163 -425 
Q 2195 -461 2285 -461 
L 4749 -461 
Q 4838 -461 4870 -425 
Q 4902 -390 4902 -294 
L 4902 723 
Q 4902 819 4870 854 
Q 4838 890 4749 890 
L 2285 890 
z
M 3501 4205 
Q 3411 3942 3248 3686 
Q 3085 3430 2861 3181 
Q 3078 2950 3398 2742 
Q 3718 2534 4096 2374 
Q 4147 2355 4153 2320 
Q 4160 2285 4141 2253 
L 4013 2022 
Q 3994 1990 3955 1987 
Q 3917 1984 3885 1997 
Q 3744 2061 3581 2150 
Q 3418 2240 3245 2355 
Q 3072 2470 2902 2604 
Q 2733 2739 2586 2886 
Q 2221 2528 1782 2233 
Q 1344 1939 896 1741 
Q 864 1728 832 1721 
Q 800 1715 781 1747 
L 653 1971 
Q 634 2003 650 2038 
Q 666 2074 698 2086 
Q 1523 2483 2105 2995 
Q 2688 3507 3014 4179 
Q 3059 4269 3027 4307 
Q 2995 4346 2906 4346 
L 1030 4346 
Q 954 4346 954 4429 
L 954 4653 
Q 954 4730 1030 4730 
L 3078 4730 
Q 3411 4730 3507 4611 
Q 3603 4493 3501 4205 
z
M 4902 3520 
L 4902 4915 
Q 4902 5005 4992 5005 
L 5254 5005 
Q 5344 5005 5344 4915 
L 5344 1728 
Q 5344 1638 5254 1638 
L 4992 1638 
Q 4902 1638 4902 1728 
L 4902 3136 
L 3718 3136 
Q 3635 3136 3635 3213 
L 3635 3443 
Q 3635 3520 3718 3520 
L 4902 3520 
z
" transform="scale(0.015625)"/>
      <path id="NanumGothicCoding-2d" d="M 2938 2131 
L 2938 1850 
Q 2938 1779 2928 1769 
Q 2918 1760 2848 1760 
L 352 1760 
Q 282 1760 272 1769 
Q 262 1779 262 1850 
L 262 2131 
Q 262 2202 272 2211 
Q 282 2221 352 2221 
L 2848 2221 
Q 2918 2221 2928 2211 
Q 2938 2202 2938 2131 
z
" transform="scale(0.015625)"/>
      <path id="NanumGothicCoding-41" d="M 2170 1402 
L 1619 3603 
L 1056 1402 
L 2170 1402 
z
M 3046 -186 
Q 3078 -275 2989 -275 
L 2688 -275 
Q 2650 -275 2621 -262 
Q 2592 -250 2566 -186 
L 2259 992 
L 954 992 
L 627 -186 
Q 602 -250 573 -262 
Q 544 -275 506 -275 
L 205 -275 
Q 115 -275 147 -186 
L 1325 4013 
Q 1357 4090 1440 4090 
L 1830 4090 
Q 1914 4090 1946 4013 
L 3046 -186 
z
" transform="scale(0.015625)"/>
      <path id="NanumGothicCoding-c911" d="M 5920 2310 
Q 5952 2310 5984 2288 
Q 6016 2266 6016 2227 
L 6016 2010 
Q 6016 1978 5984 1952 
Q 5952 1926 5920 1926 
L 3411 1926 
L 3411 1146 
Q 3699 1133 4009 1078 
Q 4320 1024 4582 905 
Q 4845 787 5014 595 
Q 5184 403 5184 109 
Q 5184 -218 4979 -422 
Q 4774 -627 4473 -742 
Q 4173 -858 3824 -899 
Q 3475 -941 3187 -941 
Q 2995 -941 2774 -921 
Q 2554 -902 2333 -860 
Q 2112 -819 1907 -742 
Q 1702 -666 1545 -547 
Q 1389 -429 1293 -269 
Q 1197 -109 1197 109 
Q 1197 397 1366 592 
Q 1536 787 1798 905 
Q 2061 1024 2374 1078 
Q 2688 1133 2970 1146 
L 2970 1926 
L 480 1926 
Q 442 1926 413 1952 
Q 384 1978 384 2010 
L 384 2227 
Q 384 2266 413 2288 
Q 442 2310 480 2310 
L 5920 2310 
z
M 4685 4218 
Q 4352 3904 3782 3610 
Q 3962 3558 4182 3500 
Q 4403 3443 4633 3385 
Q 4864 3328 5094 3277 
Q 5325 3226 5523 3187 
Q 5606 3168 5581 3098 
L 5491 2886 
Q 5459 2816 5376 2835 
Q 5158 2874 4889 2938 
Q 4621 3002 4342 3075 
Q 4064 3149 3792 3225 
Q 3520 3302 3290 3379 
Q 2784 3168 2205 3005 
Q 1626 2842 1024 2739 
Q 966 2726 944 2748 
Q 922 2771 909 2810 
L 851 3002 
Q 826 3098 902 3104 
Q 1344 3174 1830 3308 
Q 2317 3443 2768 3609 
Q 3219 3776 3596 3958 
Q 3974 4141 4198 4307 
Q 4301 4384 4278 4429 
Q 4256 4474 4166 4474 
L 1402 4474 
Q 1318 4474 1318 4557 
L 1318 4781 
Q 1318 4858 1402 4858 
L 4326 4858 
Q 4819 4858 4908 4688 
Q 4998 4518 4685 4218 
z
M 4717 102 
Q 4717 314 4544 438 
Q 4371 563 4128 633 
Q 3885 704 3625 726 
Q 3366 749 3187 749 
Q 3002 749 2742 726 
Q 2483 704 2243 633 
Q 2003 563 1833 438 
Q 1664 314 1664 102 
Q 1664 -102 1833 -230 
Q 2003 -358 2243 -425 
Q 2483 -493 2742 -515 
Q 3002 -538 3187 -538 
Q 3366 -538 3628 -515 
Q 3891 -493 4131 -425 
Q 4371 -358 4544 -230 
Q 4717 -102 4717 102 
z
" transform="scale(0.015625)"/>
      <path id="NanumGothicCoding-c2ec" d="M 1690 819 
Q 1690 1088 1792 1181 
Q 1894 1274 2176 1274 
L 4858 1274 
Q 5011 1274 5104 1254 
Q 5197 1235 5251 1184 
Q 5306 1133 5325 1043 
Q 5344 954 5344 819 
L 5344 -390 
Q 5344 -659 5241 -752 
Q 5139 -845 4858 -845 
L 2176 -845 
Q 2022 -845 1929 -825 
Q 1837 -806 1782 -752 
Q 1728 -698 1709 -611 
Q 1690 -525 1690 -390 
L 1690 819 
z
M 2285 890 
Q 2195 890 2163 854 
Q 2131 819 2131 723 
L 2131 -294 
Q 2131 -390 2163 -425 
Q 2195 -461 2285 -461 
L 4749 -461 
Q 4838 -461 4870 -425 
Q 4902 -390 4902 -294 
L 4902 723 
Q 4902 819 4870 854 
Q 4838 890 4749 890 
L 2285 890 
z
M 2534 4774 
Q 2534 4307 2438 3904 
Q 2515 3635 2652 3392 
Q 2790 3149 2976 2937 
Q 3162 2726 3382 2556 
Q 3603 2387 3846 2272 
Q 3885 2253 3881 2217 
Q 3878 2182 3866 2157 
L 3731 1946 
Q 3712 1914 3686 1901 
Q 3661 1888 3603 1920 
Q 3456 1997 3267 2128 
Q 3078 2259 2886 2438 
Q 2694 2618 2521 2832 
Q 2349 3046 2234 3277 
Q 2022 2790 1664 2393 
Q 1306 1997 826 1683 
Q 794 1664 755 1657 
Q 717 1651 691 1683 
L 531 1894 
Q 518 1920 528 1958 
Q 538 1997 570 2016 
Q 1331 2483 1715 3193 
Q 2099 3904 2086 4781 
Q 2086 4883 2163 4883 
L 2464 4864 
Q 2534 4864 2534 4774 
z
M 5344 1728 
Q 5344 1638 5254 1638 
L 4992 1638 
Q 4902 1638 4902 1728 
L 4902 4915 
Q 4902 5005 4992 5005 
L 5254 5005 
Q 5344 5005 5344 4915 
L 5344 1728 
z
" transform="scale(0.015625)"/>
     </defs>
     <use xlink:href="#NanumGothicCoding-72"/>
     <use xlink:href="#NanumGothicCoding-61" transform="translate(49.999985 0)"/>
     <use xlink:href="#NanumGothicCoding-20" transform="translate(99.999969 0)"/>
     <use xlink:href="#NanumGothicCoding-3d" transform="translate(149.999954 0)"/>
     <use xlink:href="#NanumGothicCoding-20" transform="translate(199.999939 0)"/>
     <use xlink:href="#NanumGothicCoding-cda9" transform="translate(249.999924 0)"/>
     <use xlink:href="#NanumGothicCoding-b3cc" transform="translate(349.999908 0)"/>
     <use xlink:href="#NanumGothicCoding-c810" transform="translate(449.999893 0)"/>
     <use xlink:href="#NanumGothicCoding-20" transform="translate(549.999878 0)"/>
     <use xlink:href="#NanumGothicCoding-2d" transform="translate(599.999863 0)"/>
     <use xlink:href="#NanumGothicCoding-20" transform="translate(649.999847 0)"/>
     <use xlink:href="#NanumGothicCoding-41" transform="translate(699.999832 0)"/>
     <use xlink:href="#NanumGothicCoding-20" transform="translate(749.999817 0)"/>
     <use xlink:href="#NanumGothicCoding-c911" transform="translate(799.999802 0)"/>
     <use xlink:href="#NanumGothicCoding-c2ec" transform="translate(899.999786 0)"/>
    </g>
   </g>
   <g id="text_2">
    <!-- rb = 충돌점 - B 중심 -->
    <g style="fill: #111827" transform="translate(16.4736 36.786847) scale(0.11 -0.11)">
     <defs>
      <path id="NanumGothicCoding-62" d="M 397 4371 
Q 397 4454 486 4454 
L 736 4454 
Q 826 4454 826 4371 
L 826 2464 
Q 947 2714 1174 2874 
Q 1402 3034 1722 3034 
Q 2323 3034 2656 2531 
Q 2989 2029 2989 1427 
Q 2989 1088 2915 781 
Q 2842 474 2669 208 
Q 2496 -58 2256 -198 
Q 2016 -339 1722 -339 
Q 1088 -339 826 275 
L 826 -192 
Q 826 -275 736 -275 
L 486 -275 
Q 397 -275 397 -192 
L 397 4371 
z
M 2534 1357 
Q 2541 1542 2499 1782 
Q 2458 2022 2349 2227 
Q 2240 2432 2080 2553 
Q 1920 2675 1683 2675 
Q 1446 2675 1286 2553 
Q 1126 2432 1020 2227 
Q 915 2022 876 1782 
Q 838 1542 838 1357 
Q 838 1158 876 924 
Q 915 691 1020 483 
Q 1126 275 1286 153 
Q 1446 32 1683 32 
Q 1920 32 2080 153 
Q 2240 275 2345 483 
Q 2451 691 2496 924 
Q 2541 1158 2534 1357 
z
" transform="scale(0.015625)"/>
      <path id="NanumGothicCoding-42" d="M 2278 3034 
Q 2278 3686 1299 3693 
L 883 3693 
L 883 2266 
L 1242 2266 
Q 1696 2266 1987 2470 
Q 2278 2675 2278 3034 
z
M 2426 1043 
Q 2426 1414 2080 1635 
Q 1734 1856 1114 1856 
L 883 1856 
L 883 134 
L 1190 134 
Q 2426 134 2426 1043 
z
M 2899 1069 
Q 2899 -275 1178 -275 
L 602 -275 
Q 467 -275 444 -252 
Q 422 -230 422 -96 
L 422 3930 
Q 422 4051 444 4070 
Q 467 4090 602 4090 
L 1299 4090 
Q 2752 4090 2752 3046 
Q 2752 2253 1907 2086 
Q 2394 1958 2646 1676 
Q 2899 1395 2899 1069 
z
" transform="scale(0.015625)"/>
     </defs>
     <use xlink:href="#NanumGothicCoding-72"/>
     <use xlink:href="#NanumGothicCoding-62" transform="translate(49.999985 0)"/>
     <use xlink:href="#NanumGothicCoding-20" transform="translate(99.999969 0)"/>
     <use xlink:href="#NanumGothicCoding-3d" transform="translate(149.999954 0)"/>
     <use xlink:href="#NanumGothicCoding-20" transform="translate(199.999939 0)"/>
     <use xlink:href="#NanumGothicCoding-cda9" transform="translate(249.999924 0)"/>
     <use xlink:href="#NanumGothicCoding-b3cc" transform="translate(349.999908 0)"/>
     <use xlink:href="#NanumGothicCoding-c810" transform="translate(449.999893 0)"/>
     <use xlink:href="#NanumGothicCoding-20" transform="translate(549.999878 0)"/>
     <use xlink:href="#NanumGothicCoding-2d" transform="translate(599.999863 0)"/>
     <use xlink:href="#NanumGothicCoding-20" transform="translate(649.999847 0)"/>
     <use xlink:href="#NanumGothicCoding-42" transform="translate(699.999832 0)"/>
     <use xlink:href="#NanumGothicCoding-20" transform="translate(749.999817 0)"/>
     <use xlink:href="#NanumGothicCoding-c911" transform="translate(799.999802 0)"/>
     <use xlink:href="#NanumGothicCoding-c2ec" transform="translate(899.999786 0)"/>
    </g>
   </g>
  </g>
 </g>
 <defs>
  <clipPath id="p9925f84c5f">
   <rect x="5.76" y="5.76" width="267.84" height="99.792"/>
  </clipPath>
 </defs>
</svg>
