<?xml version="1.0" encoding="utf-8" standalone="no"?>
<!DOCTYPE svg PUBLIC "-//W3C//DTD SVG 1.1//EN"
  "http://www.w3.org/Graphics/SVG/1.1/DTD/svg11.dtd">
<svg xmlns:xlink="http://www.w3.org/1999/xlink" width="301.68pt" height="125.7264pt" viewBox="0 0 301.68 125.7264" xmlns="http://www.w3.org/2000/svg" version="1.1">
 <metadata>
  <rdf:RDF xmlns:dc="http://purl.org/dc/elements/1.1/" xmlns:cc="http://creativecommons.org/ns#" xmlns:rdf="http://www.w3.org/1999/02/22-rdf-syntax-ns#">
   <cc:Work>
    <dc:type rdf:resource="http://purl.org/dc/dcmitype/StillImage"/>
    <dc:date>2026-07-08T05:12:56.567866</dc:date>
    <dc:format>image/svg+xml</dc:format>
    <dc:creator>
     <cc:Agent>
      <dc:title>Matplotlib v3.10.8, https://matplotlib.org/</dc:title>
     </cc:Agent>
    </dc:creator>
   </cc:Work>
  </rdf:RDF>
 </metadata>
 <defs>
  <style type="text/css">*{stroke-linejoin: round; stroke-linecap: butt}</style>
 </defs>
 <g id="figure_1">
  <g id="patch_1">
   <path d="M 0 125.7264 
L 301.68 125.7264 
L 301.68 0 
L 0 0 
z
" style="fill: #ffffff"/>
  </g>
  <g id="axes_1">
   <g id="patch_2">
    <path d="M 5.76 119.9664 
L 295.92 119.9664 
L 295.92 5.76 
L 5.76 5.76 
z
" clip-path="url(#pdd41f979bc)" style="fill: #ffffff; stroke: #e5e7eb; stroke-linejoin: miter"/>
   </g>
   <g id="text_1">
    <!-- e = 반발계수 restitution -->
    <g style="fill: #111827" transform="translate(17.3664 27.484455) scale(0.11 -0.11)">
     <defs>
      <path id="NanumGothicCoding-65" d="M 2458 1536 
Q 2458 1734 2410 1939 
Q 2362 2144 2266 2298 
Q 2042 2669 1626 2669 
Q 1210 2669 973 2291 
Q 864 2106 806 1907 
Q 749 1709 742 1536 
L 2458 1536 
z
M 736 1171 
Q 730 966 810 726 
Q 890 486 1030 336 
Q 1171 186 1350 96 
Q 1530 6 1786 6 
Q 2010 6 2202 51 
Q 2394 96 2586 198 
Q 2662 230 2669 154 
L 2669 -141 
Q 2669 -192 2598 -224 
Q 2400 -301 2211 -339 
Q 2022 -378 1754 -378 
Q 1069 -378 665 80 
Q 262 538 262 1312 
Q 262 2016 659 2541 
Q 1075 3034 1632 3034 
Q 1978 3034 2205 2912 
Q 2432 2790 2611 2541 
Q 2931 2112 2931 1376 
Q 2931 1299 2928 1257 
Q 2925 1216 2905 1197 
Q 2886 1178 2838 1174 
Q 2790 1171 2701 1171 
L 736 1171 
z
" transform="scale(0.015625)"/>
      <path id="NanumGothicCoding-20" transform="scale(0.015625)"/>
      <path id="NanumGothicCoding-3d" d="M 3142 2810 
L 3142 2528 
Q 3142 2458 3132 2448 
Q 3123 2438 3053 2438 
L 147 2438 
Q 77 2438 67 2448 
Q 58 2458 58 2528 
L 58 2810 
Q 58 2880 67 2889 
Q 77 2899 147 2899 
L 3053 2899 
Q 3123 2899 3132 2889 
Q 3142 2880 3142 2810 
z
M 3142 1446 
L 3142 1165 
Q 3142 1094 3132 1084 
Q 3123 1075 3053 1075 
L 147 1075 
Q 77 1075 67 1084 
Q 58 1094 58 1165 
L 58 1446 
Q 58 1517 67 1526 
Q 77 1536 147 1536 
L 3053 1536 
Q 3123 1536 3132 1526 
Q 3142 1517 3142 1446 
z
" transform="scale(0.015625)"/>
      <path id="NanumGothicCoding-bc18" d="M 1350 1715 
Q 1197 1715 1104 1734 
Q 1011 1754 960 1808 
Q 909 1862 889 1948 
Q 870 2035 870 2170 
L 870 4691 
Q 870 4723 896 4745 
Q 922 4768 954 4768 
L 1229 4768 
Q 1261 4768 1283 4742 
Q 1306 4717 1306 4691 
L 1306 3584 
L 3168 3584 
L 3168 4685 
Q 3168 4717 3190 4742 
Q 3213 4768 3245 4768 
L 3520 4768 
Q 3552 4768 3577 4745 
Q 3603 4723 3603 4691 
L 3603 2125 
Q 3603 1882 3500 1798 
Q 3398 1715 3117 1715 
L 1350 1715 
z
M 5120 832 
Q 5120 742 5030 742 
L 4768 742 
Q 4678 742 4678 832 
L 4678 4915 
Q 4678 5005 4768 5005 
L 5030 5005 
Q 5120 5005 5120 4915 
L 5120 3130 
L 6003 3130 
Q 6042 3130 6070 3107 
Q 6099 3085 6099 3046 
L 6099 2829 
Q 6099 2797 6070 2771 
Q 6042 2746 6003 2746 
L 5120 2746 
L 5120 832 
z
M 5408 -704 
Q 5408 -742 5376 -761 
Q 5344 -781 5312 -781 
L 2054 -781 
Q 1754 -781 1661 -669 
Q 1568 -557 1568 -294 
L 1568 960 
Q 1568 1050 1658 1050 
L 1920 1050 
Q 2010 1050 2010 960 
L 2010 -262 
Q 2010 -352 2038 -374 
Q 2067 -397 2157 -397 
L 5312 -397 
Q 5344 -397 5376 -419 
Q 5408 -442 5408 -474 
L 5408 -704 
z
M 1306 3206 
L 1306 2246 
Q 1306 2150 1338 2121 
Q 1370 2093 1459 2093 
L 3014 2093 
Q 3104 2093 3136 2121 
Q 3168 2150 3168 2246 
L 3168 3206 
L 1306 3206 
z
" transform="scale(0.015625)"/>
      <path id="NanumGothicCoding-bc1c" d="M 1350 2144 
Q 1197 2144 1104 2163 
Q 1011 2182 960 2236 
Q 909 2291 889 2377 
Q 870 2464 870 2598 
L 870 4838 
Q 870 4870 896 4892 
Q 922 4915 954 4915 
L 1229 4915 
Q 1261 4915 1283 4889 
Q 1306 4864 1306 4838 
L 1306 3840 
L 3174 3840 
L 3174 4832 
Q 3174 4864 3196 4889 
Q 3219 4915 3251 4915 
L 3526 4915 
Q 3558 4915 3584 4892 
Q 3610 4870 3610 4838 
L 3610 2554 
Q 3610 2310 3507 2227 
Q 3405 2144 3123 2144 
L 1350 2144 
z
M 5254 -838 
Q 5254 -870 5225 -892 
Q 5197 -915 5171 -915 
L 1952 -915 
Q 1651 -915 1558 -803 
Q 1466 -691 1466 -422 
L 1466 58 
Q 1466 326 1578 419 
Q 1690 512 1978 512 
L 4538 512 
Q 4627 512 4652 537 
Q 4678 563 4678 659 
L 4678 1024 
Q 4678 1120 4656 1145 
Q 4634 1171 4544 1171 
L 1542 1171 
Q 1510 1171 1481 1190 
Q 1453 1210 1453 1242 
L 1453 1472 
Q 1453 1504 1481 1523 
Q 1510 1542 1542 1542 
L 4614 1542 
Q 4768 1542 4864 1520 
Q 4960 1498 5017 1446 
Q 5075 1395 5097 1302 
Q 5120 1210 5120 1075 
L 5120 595 
Q 5120 326 5008 233 
Q 4896 141 4608 141 
L 2042 141 
Q 1952 141 1929 115 
Q 1907 90 1907 -6 
L 1907 -397 
Q 1907 -486 1932 -515 
Q 1958 -544 2048 -544 
L 5165 -544 
Q 5197 -544 5225 -563 
Q 5254 -582 5254 -614 
L 5254 -838 
z
M 1306 3462 
L 1306 2675 
Q 1306 2579 1338 2550 
Q 1370 2522 1459 2522 
L 3021 2522 
Q 3110 2522 3142 2550 
Q 3174 2579 3174 2675 
L 3174 3462 
L 1306 3462 
z
M 5120 1978 
Q 5120 1888 5030 1888 
L 4768 1888 
Q 4678 1888 4678 1978 
L 4678 4915 
Q 4678 5005 4768 5005 
L 5030 5005 
Q 5120 5005 5120 4915 
L 5120 3642 
L 6003 3642 
Q 6042 3642 6070 3619 
Q 6099 3597 6099 3558 
L 6099 3341 
Q 6099 3309 6070 3283 
Q 6042 3258 6003 3258 
L 5120 3258 
L 5120 1978 
z
" transform="scale(0.015625)"/>
      <path id="NanumGothicCoding-acc4" d="M 3130 4000 
Q 3117 3846 3094 3702 
Q 3072 3558 3040 3411 
L 4000 3411 
L 4000 4806 
Q 4000 4896 4090 4896 
L 4333 4896 
Q 4422 4896 4422 4806 
L 4422 -563 
Q 4422 -653 4333 -653 
L 4090 -653 
Q 4000 -653 4000 -563 
L 4000 1568 
L 2778 1568 
Q 2694 1568 2694 1645 
L 2694 1869 
Q 2694 1946 2778 1946 
L 4000 1946 
L 4000 3034 
L 2931 3034 
Q 2464 1594 922 570 
Q 838 512 794 576 
L 653 774 
Q 621 813 633 851 
Q 646 890 678 909 
Q 1107 1178 1456 1507 
Q 1805 1837 2061 2211 
Q 2317 2586 2470 2998 
Q 2624 3411 2662 3846 
Q 2675 4006 2636 4054 
Q 2598 4102 2470 4102 
L 915 4102 
Q 838 4102 838 4179 
L 838 4410 
Q 838 4442 864 4464 
Q 890 4486 922 4486 
L 2624 4486 
Q 2912 4486 3030 4364 
Q 3149 4243 3130 4000 
z
M 5555 -806 
Q 5555 -896 5466 -896 
L 5222 -896 
Q 5133 -896 5133 -806 
L 5133 4915 
Q 5133 5005 5222 5005 
L 5466 5005 
Q 5555 5005 5555 4915 
L 5555 -806 
z
" transform="scale(0.015625)"/>
      <path id="NanumGothicCoding-c218" d="M 3046 -858 
Q 3014 -858 2988 -829 
Q 2963 -800 2963 -762 
L 2963 1325 
L 480 1325 
Q 442 1325 413 1350 
Q 384 1376 384 1408 
L 384 1626 
Q 384 1664 413 1686 
Q 442 1709 480 1709 
L 5920 1709 
Q 5952 1709 5984 1686 
Q 6016 1664 6016 1626 
L 6016 1408 
Q 6016 1376 5984 1350 
Q 5952 1325 5920 1325 
L 3405 1325 
L 3405 -762 
Q 3405 -800 3382 -829 
Q 3360 -858 3322 -858 
L 3046 -858 
z
M 3424 4864 
Q 3411 4781 3392 4704 
Q 3373 4627 3354 4557 
Q 3373 4486 3398 4425 
Q 3424 4365 3456 4307 
Q 3565 4096 3776 3881 
Q 3987 3667 4262 3478 
Q 4538 3290 4858 3142 
Q 5178 2995 5517 2912 
Q 5555 2899 5568 2860 
Q 5581 2822 5568 2790 
L 5466 2573 
Q 5446 2541 5424 2528 
Q 5402 2515 5338 2528 
Q 4998 2618 4665 2774 
Q 4333 2931 4045 3136 
Q 3757 3341 3523 3577 
Q 3290 3814 3142 4058 
Q 2867 3558 2355 3158 
Q 1843 2758 1069 2451 
Q 966 2413 941 2477 
L 819 2701 
Q 806 2733 816 2771 
Q 826 2810 864 2822 
Q 1280 2963 1657 3196 
Q 2035 3430 2323 3712 
Q 2611 3994 2787 4301 
Q 2963 4608 2982 4909 
Q 2989 4986 3066 4986 
L 3354 4954 
Q 3386 4947 3411 4928 
Q 3437 4909 3424 4864 
z
" transform="scale(0.015625)"/>
      <path id="NanumGothicCoding-72" d="M 1946 122 
Q 2035 122 2035 32 
L 2035 -186 
Q 2035 -275 1946 -275 
L 506 -275 
Q 416 -275 416 -186 
L 416 32 
Q 416 122 506 122 
L 883 122 
L 883 2534 
L 390 2534 
Q 301 2534 301 2624 
L 301 2842 
Q 301 2931 390 2931 
L 1165 2931 
Q 1254 2931 1254 2842 
L 1254 2214 
Q 1645 3021 2381 3021 
Q 2758 3021 3059 2874 
Q 3123 2848 3129 2809 
Q 3136 2771 3117 2726 
L 3040 2496 
Q 3021 2451 2992 2454 
Q 2963 2458 2918 2483 
Q 2637 2618 2317 2618 
Q 1792 2592 1485 2048 
Q 1312 1715 1312 1178 
L 1312 122 
L 1946 122 
z
" transform="scale(0.015625)"/>
      <path id="NanumGothicCoding-73" d="M 582 147 
Q 992 -13 1427 -13 
Q 1792 -13 2045 169 
Q 2298 352 2298 538 
Q 2298 710 2157 838 
Q 2016 966 1811 1069 
Q 1594 1184 1386 1289 
Q 1178 1395 966 1504 
Q 723 1626 611 1802 
Q 499 1978 499 2144 
Q 499 2349 588 2509 
Q 678 2669 832 2790 
Q 986 2912 1206 2973 
Q 1427 3034 1677 3034 
Q 1907 3034 2099 3008 
Q 2291 2982 2496 2918 
Q 2541 2906 2569 2880 
Q 2598 2854 2592 2816 
L 2573 2611 
Q 2566 2560 2531 2547 
Q 2496 2534 2464 2547 
Q 2278 2618 2105 2643 
Q 1933 2669 1722 2669 
Q 947 2669 947 2144 
Q 947 2048 1049 1942 
Q 1152 1837 1402 1728 
Q 1645 1613 1840 1520 
Q 2035 1427 2272 1299 
Q 2554 1133 2659 953 
Q 2765 774 2765 544 
Q 2765 358 2656 166 
Q 2547 -26 2364 -141 
Q 2182 -256 1945 -317 
Q 1709 -378 1466 -378 
Q 1312 -378 1193 -371 
Q 1075 -365 969 -352 
Q 864 -339 758 -320 
Q 653 -301 538 -269 
Q 435 -237 442 -160 
L 474 90 
Q 493 186 582 147 
z
" transform="scale(0.015625)"/>
      <path id="NanumGothicCoding-74" d="M 2733 -269 
Q 2464 -378 2106 -378 
Q 1523 -378 1357 -38 
Q 1248 192 1248 774 
L 1248 2413 
L 416 2413 
Q 326 2413 326 2502 
L 326 2694 
Q 326 2784 416 2784 
L 1248 2784 
L 1248 3686 
Q 1248 3782 1331 3782 
L 1600 3782 
Q 1683 3782 1683 3686 
L 1683 2784 
L 2714 2784 
Q 2803 2784 2803 2694 
L 2803 2502 
Q 2803 2413 2714 2413 
L 1683 2413 
L 1683 486 
Q 1683 6 2208 6 
Q 2470 6 2707 115 
Q 2739 128 2768 115 
Q 2797 102 2797 64 
L 2810 -141 
Q 2822 -230 2733 -269 
z
" transform="scale(0.015625)"/>
      <path id="NanumGothicCoding-69" d="M 2656 122 
Q 2746 122 2746 32 
L 2746 -186 
Q 2746 -275 2656 -275 
L 614 -275 
Q 525 -275 525 -186 
L 525 32 
Q 525 122 614 122 
L 1434 122 
L 1434 2534 
L 685 2534 
Q 595 2534 595 2624 
L 595 2842 
Q 595 2931 685 2931 
L 1805 2931 
Q 1894 2931 1894 2842 
L 1894 122 
L 2656 122 
z
M 1235 3968 
Q 1235 4115 1340 4220 
Q 1446 4326 1594 4326 
Q 1741 4326 1846 4220 
Q 1952 4115 1952 3968 
Q 1952 3821 1846 3715 
Q 1741 3610 1594 3610 
Q 1446 3610 1340 3715 
Q 1235 3821 1235 3968 
z
" transform="scale(0.015625)"/>
      <path id="NanumGothicCoding-75" d="M 2816 -186 
Q 2816 -275 2726 -275 
L 2496 -275 
Q 2406 -275 2406 -186 
L 2406 346 
Q 2240 -38 1997 -208 
Q 1754 -378 1421 -378 
Q 384 -378 384 960 
L 384 2842 
Q 384 2931 474 2931 
L 730 2931 
Q 819 2931 819 2842 
L 819 1075 
Q 819 -13 1491 -13 
Q 1645 -13 1805 92 
Q 1965 198 2099 380 
Q 2234 563 2304 806 
Q 2374 1050 2368 1318 
L 2368 2842 
Q 2368 2931 2458 2931 
L 2714 2931 
Q 2803 2931 2803 2842 
L 2803 525 
Q 2803 314 2806 147 
Q 2810 -19 2816 -186 
z
" transform="scale(0.015625)"/>
      <path id="NanumGothicCoding-6f" d="M 2490 1331 
Q 2490 1581 2432 1824 
Q 2374 2067 2253 2266 
Q 2010 2650 1594 2650 
Q 1158 2650 934 2266 
Q 813 2067 758 1824 
Q 704 1581 704 1331 
Q 704 1056 755 813 
Q 806 570 934 397 
Q 1216 6 1594 6 
Q 2035 6 2253 397 
Q 2381 570 2435 813 
Q 2490 1056 2490 1331 
z
M 2931 1331 
Q 2931 979 2851 668 
Q 2771 358 2605 147 
Q 2413 -102 2163 -240 
Q 1914 -378 1594 -378 
Q 1274 -378 1024 -240 
Q 774 -102 582 147 
Q 429 378 349 678 
Q 269 979 269 1331 
Q 269 2054 582 2515 
Q 947 3034 1594 3034 
Q 1920 3034 2166 2909 
Q 2413 2784 2605 2515 
Q 2931 2048 2931 1331 
z
" transform="scale(0.015625)"/>
      <path id="NanumGothicCoding-6e" d="M 2797 -186 
Q 2797 -275 2707 -275 
L 2451 -275 
Q 2362 -275 2362 -186 
L 2362 1574 
Q 2362 2163 2202 2409 
Q 2042 2656 1658 2656 
Q 1318 2656 1088 2384 
Q 858 2112 858 1562 
L 858 -186 
Q 858 -275 768 -275 
L 512 -275 
Q 422 -275 422 -186 
L 422 2118 
Q 422 2394 419 2547 
Q 416 2701 403 2842 
Q 397 2886 425 2908 
Q 454 2931 493 2931 
L 723 2931 
Q 813 2931 813 2842 
L 813 2483 
Q 966 2758 1187 2889 
Q 1408 3021 1696 3021 
Q 2259 3021 2528 2669 
Q 2797 2317 2797 1677 
L 2797 -186 
z
" transform="scale(0.015625)"/>
     </defs>
     <use xlink:href="#NanumGothicCoding-65"/>
     <use xlink:href="#NanumGothicCoding-20" transform="translate(49.999985 0)"/>
     <use xlink:href="#NanumGothicCoding-3d" transform="translate(99.999969 0)"/>
     <use xlink:href="#NanumGothicCoding-20" transform="translate(149.999954 0)"/>
     <use xlink:href="#NanumGothicCoding-bc18" transform="translate(199.999939 0)"/>
     <use xlink:href="#NanumGothicCoding-bc1c" transform="translate(299.999924 0)"/>
     <use xlink:href="#NanumGothicCoding-acc4" transform="translate(399.999908 0)"/>
     <use xlink:href="#NanumGothicCoding-c218" transform="translate(499.999893 0)"/>
     <use xlink:href="#NanumGothicCoding-20" transform="translate(599.999878 0)"/>
     <use xlink:href="#NanumGothicCoding-72" transform="translate(649.999863 0)"/>
     <use xlink:href="#NanumGothicCoding-65" transform="translate(699.999847 0)"/>
     <use xlink:href="#NanumGothicCoding-73" transform="translate(749.999832 0)"/>
     <use xlink:href="#NanumGothicCoding-74" transform="translate(799.999817 0)"/>
     <use xlink:href="#NanumGothicCoding-69" transform="translate(849.999802 0)"/>
     <use xlink:href="#NanumGothicCoding-74" transform="translate(899.999786 0)"/>
     <use xlink:href="#NanumGothicCoding-75" transform="translate(949.999771 0)"/>
     <use xlink:href="#NanumGothicCoding-74" transform="translate(999.999756 0)"/>
     <use xlink:href="#NanumGothicCoding-69" transform="translate(1049.999741 0)"/>
     <use xlink:href="#NanumGothicCoding-6f" transform="translate(1099.999725 0)"/>
     <use xlink:href="#NanumGothicCoding-6e" transform="translate(1149.99971 0)"/>
    </g>
   </g>
   <g id="text_2">
    <!-- j = 임펄스 크기 -->
    <g style="fill: #111827" transform="translate(17.3664 40.629816) scale(0.11 -0.11)">
     <defs>
      <path id="NanumGothicCoding-6a" d="M 1453 3968 
Q 1453 4115 1558 4220 
Q 1664 4326 1811 4326 
Q 1958 4326 2064 4220 
Q 2170 4115 2170 3968 
Q 2170 3821 2064 3715 
Q 1958 3610 1811 3610 
Q 1664 3610 1558 3715 
Q 1453 3821 1453 3968 
z
M 614 134 
Q 704 134 704 45 
L 704 -288 
Q 704 -582 774 -698 
Q 832 -787 934 -838 
Q 1037 -896 1184 -896 
Q 1331 -896 1434 -838 
Q 1536 -787 1594 -698 
Q 1664 -582 1664 -243 
L 1664 2534 
L 794 2534 
Q 704 2534 704 2624 
L 704 2842 
Q 704 2931 794 2931 
L 2010 2931 
Q 2099 2931 2099 2842 
L 2099 -288 
Q 2099 -1267 1229 -1267 
Q 262 -1267 262 -288 
L 269 45 
Q 269 134 358 134 
L 614 134 
z
" transform="scale(0.015625)"/>
      <path id="NanumGothicCoding-c784" d="M 5344 1722 
Q 5344 1632 5254 1632 
L 4992 1632 
Q 4902 1632 4902 1722 
L 4902 4915 
Q 4902 5005 4992 5005 
L 5254 5005 
Q 5344 5005 5344 4915 
L 5344 1722 
z
M 1690 819 
Q 1690 1088 1792 1181 
Q 1894 1274 2176 1274 
L 4858 1274 
Q 5011 1274 5104 1254 
Q 5197 1235 5251 1184 
Q 5306 1133 5325 1043 
Q 5344 954 5344 819 
L 5344 -390 
Q 5344 -659 5241 -752 
Q 5139 -845 4858 -845 
L 2176 -845 
Q 2022 -845 1929 -825 
Q 1837 -806 1782 -752 
Q 1728 -698 1709 -611 
Q 1690 -525 1690 -390 
L 1690 819 
z
M 2285 890 
Q 2195 890 2163 854 
Q 2131 819 2131 723 
L 2131 -294 
Q 2131 -390 2163 -425 
Q 2195 -461 2285 -461 
L 4749 -461 
Q 4838 -461 4870 -425 
Q 4902 -390 4902 -294 
L 4902 723 
Q 4902 819 4870 854 
Q 4838 890 4749 890 
L 2285 890 
z
M 3776 3328 
Q 3776 3008 3661 2742 
Q 3546 2477 3341 2285 
Q 3136 2093 2857 1984 
Q 2579 1875 2253 1875 
Q 1939 1875 1664 1980 
Q 1389 2086 1187 2278 
Q 986 2470 870 2739 
Q 755 3008 755 3328 
Q 755 3667 870 3939 
Q 986 4211 1187 4400 
Q 1389 4589 1664 4688 
Q 1939 4787 2253 4787 
Q 2547 4787 2822 4688 
Q 3098 4589 3309 4403 
Q 3520 4218 3648 3946 
Q 3776 3674 3776 3328 
z
M 3328 3334 
Q 3328 3590 3241 3785 
Q 3155 3981 3008 4112 
Q 2861 4243 2665 4310 
Q 2470 4378 2253 4378 
Q 2029 4378 1840 4310 
Q 1651 4243 1507 4112 
Q 1363 3981 1283 3785 
Q 1203 3590 1203 3334 
Q 1203 3091 1280 2899 
Q 1357 2707 1497 2566 
Q 1638 2426 1830 2352 
Q 2022 2278 2253 2278 
Q 2470 2278 2665 2352 
Q 2861 2426 3008 2566 
Q 3155 2707 3241 2899 
Q 3328 3091 3328 3334 
z
" transform="scale(0.015625)"/>
      <path id="NanumGothicCoding-d384" d="M 4077 2707 
Q 4134 2720 4153 2710 
Q 4173 2701 4186 2656 
L 4224 2445 
Q 4230 2406 4217 2387 
Q 4205 2368 4141 2355 
Q 3776 2291 3328 2243 
Q 2880 2195 2413 2170 
Q 2234 2157 2003 2153 
Q 1773 2150 1529 2147 
Q 1286 2144 1049 2144 
Q 813 2144 627 2150 
Q 589 2150 560 2176 
Q 531 2202 531 2234 
L 531 2438 
Q 531 2477 560 2499 
Q 589 2522 627 2522 
L 1363 2522 
L 1363 4403 
L 672 4403 
Q 640 4403 611 4428 
Q 582 4454 582 4493 
L 582 4691 
Q 582 4730 611 4755 
Q 640 4781 672 4781 
L 3821 4781 
Q 3917 4781 3917 4698 
L 3917 4486 
Q 3917 4403 3821 4403 
L 3290 4403 
L 3290 2598 
Q 3494 2618 3692 2646 
Q 3891 2675 4077 2707 
z
M 5478 -838 
Q 5478 -870 5449 -892 
Q 5421 -915 5395 -915 
L 2170 -915 
Q 1869 -915 1776 -803 
Q 1683 -691 1683 -422 
L 1683 58 
Q 1683 326 1795 419 
Q 1907 512 2195 512 
L 4762 512 
Q 4851 512 4876 537 
Q 4902 563 4902 659 
L 4902 1024 
Q 4902 1120 4880 1145 
Q 4858 1171 4768 1171 
L 1760 1171 
Q 1728 1171 1699 1190 
Q 1670 1210 1670 1242 
L 1670 1472 
Q 1670 1504 1699 1523 
Q 1728 1542 1760 1542 
L 4838 1542 
Q 4992 1542 5088 1520 
Q 5184 1498 5241 1446 
Q 5299 1395 5321 1302 
Q 5344 1210 5344 1075 
L 5344 595 
Q 5344 326 5232 233 
Q 5120 141 4832 141 
L 2266 141 
Q 2176 141 2153 115 
Q 2131 90 2131 -6 
L 2131 -397 
Q 2131 -486 2156 -515 
Q 2182 -544 2272 -544 
L 5389 -544 
Q 5421 -544 5449 -563 
Q 5478 -582 5478 -614 
L 5478 -838 
z
M 2400 2541 
Q 2515 2547 2630 2550 
Q 2746 2554 2854 2566 
L 2854 4403 
L 1798 4403 
L 1798 2522 
Q 2150 2522 2400 2541 
z
M 4902 3770 
L 4902 4915 
Q 4902 5005 4992 5005 
L 5254 5005 
Q 5344 5005 5344 4915 
L 5344 1997 
Q 5344 1907 5254 1907 
L 4992 1907 
Q 4902 1907 4902 1997 
L 4902 3386 
L 3981 3386 
Q 3898 3386 3898 3462 
L 3898 3693 
Q 3898 3770 3981 3770 
L 4902 3770 
z
" transform="scale(0.015625)"/>
      <path id="NanumGothicCoding-c2a4" d="M 3424 4608 
Q 3405 4429 3360 4269 
Q 3373 4198 3392 4137 
Q 3411 4077 3437 4032 
Q 3597 3718 3824 3436 
Q 4051 3155 4320 2924 
Q 4589 2694 4893 2524 
Q 5197 2355 5517 2266 
Q 5555 2253 5568 2214 
Q 5581 2176 5568 2144 
L 5466 1933 
Q 5446 1901 5424 1881 
Q 5402 1862 5338 1888 
Q 4986 2010 4662 2195 
Q 4339 2381 4060 2614 
Q 3782 2848 3552 3126 
Q 3322 3405 3155 3706 
Q 3008 3398 2790 3110 
Q 2573 2822 2304 2576 
Q 2035 2330 1721 2131 
Q 1408 1933 1062 1805 
Q 960 1766 934 1830 
L 819 2054 
Q 806 2086 816 2121 
Q 826 2157 864 2176 
Q 1293 2336 1657 2595 
Q 2022 2854 2300 3177 
Q 2579 3501 2755 3878 
Q 2931 4256 2982 4653 
Q 2989 4730 3066 4730 
L 3354 4698 
Q 3430 4685 3424 4608 
z
M 5920 499 
Q 5952 499 5984 476 
Q 6016 454 6016 416 
L 6016 198 
Q 6016 166 5984 140 
Q 5952 115 5920 115 
L 480 115 
Q 442 115 413 140 
Q 384 166 384 198 
L 384 416 
Q 384 454 413 476 
Q 442 499 480 499 
L 5920 499 
z
" transform="scale(0.015625)"/>
      <path id="NanumGothicCoding-d06c" d="M 1216 4506 
Q 1216 4544 1248 4563 
Q 1280 4582 1312 4582 
L 4698 4582 
Q 4851 4582 4944 4550 
Q 5037 4518 5088 4457 
Q 5139 4397 5158 4301 
Q 5178 4205 5184 4070 
Q 5190 3898 5180 3626 
Q 5171 3354 5152 3034 
Q 5133 2714 5104 2362 
Q 5075 2010 5040 1670 
Q 5005 1331 4966 1027 
Q 4928 723 4890 499 
L 5920 499 
Q 5952 499 5984 476 
Q 6016 454 6016 416 
L 6016 198 
Q 6016 166 5984 140 
Q 5952 115 5920 115 
L 480 115 
Q 442 115 413 140 
Q 384 166 384 198 
L 384 416 
Q 384 454 413 476 
Q 442 499 480 499 
L 4454 499 
Q 4486 634 4518 835 
Q 4550 1037 4579 1283 
Q 4608 1530 4637 1805 
Q 4666 2080 4685 2362 
Q 4589 2349 4438 2342 
Q 4288 2336 4131 2333 
Q 3974 2330 3846 2326 
Q 3718 2323 3674 2323 
Q 3520 2317 3203 2313 
Q 2886 2310 2531 2307 
Q 2176 2304 1853 2301 
Q 1530 2298 1357 2298 
Q 1274 2298 1274 2374 
L 1274 2592 
Q 1274 2669 1357 2669 
Q 1485 2669 1680 2669 
Q 1875 2669 2102 2672 
Q 2330 2675 2570 2678 
Q 2810 2682 3018 2685 
Q 3226 2688 3392 2688 
Q 3558 2688 3635 2694 
Q 3674 2694 3814 2700 
Q 3955 2707 4124 2710 
Q 4294 2714 4460 2720 
Q 4627 2726 4717 2739 
Q 4742 3149 4752 3501 
Q 4762 3853 4749 4064 
Q 4742 4154 4716 4176 
Q 4691 4198 4602 4198 
L 1312 4198 
Q 1280 4198 1248 4220 
Q 1216 4243 1216 4275 
L 1216 4506 
z
" transform="scale(0.015625)"/>
      <path id="NanumGothicCoding-ae30" d="M 5344 -806 
Q 5344 -896 5254 -896 
L 4992 -896 
Q 4902 -896 4902 -806 
L 4902 4915 
Q 4902 5005 4992 5005 
L 5254 5005 
Q 5344 5005 5344 4915 
L 5344 -806 
z
M 3629 4064 
Q 3597 3514 3411 2982 
Q 3226 2451 2896 1968 
Q 2566 1485 2102 1072 
Q 1638 659 1050 346 
Q 966 301 928 365 
L 787 589 
Q 742 666 813 698 
Q 1357 979 1776 1340 
Q 2195 1702 2492 2124 
Q 2790 2547 2963 3014 
Q 3136 3482 3181 3974 
Q 3194 4070 3155 4105 
Q 3117 4141 3027 4141 
L 992 4141 
Q 915 4141 915 4224 
L 915 4448 
Q 915 4525 992 4525 
L 3149 4525 
Q 3450 4525 3546 4413 
Q 3642 4301 3629 4064 
z
" transform="scale(0.015625)"/>
     </defs>
     <use xlink:href="#NanumGothicCoding-6a"/>
     <use xlink:href="#NanumGothicCoding-20" transform="translate(49.999985 0)"/>
     <use xlink:href="#NanumGothicCoding-3d" transform="translate(99.999969 0)"/>
     <use xlink:href="#NanumGothicCoding-20" transform="translate(149.999954 0)"/>
     <use xlink:href="#NanumGothicCoding-c784" transform="translate(199.999939 0)"/>
     <use xlink:href="#NanumGothicCoding-d384" transform="translate(299.999924 0)"/>
     <use xlink:href="#NanumGothicCoding-c2a4" transform="translate(399.999908 0)"/>
     <use xlink:href="#NanumGothicCoding-20" transform="translate(499.999893 0)"/>
     <use xlink:href="#NanumGothicCoding-d06c" transform="translate(549.999878 0)"/>
     <use xlink:href="#NanumGothicCoding-ae30" transform="translate(649.999863 0)"/>
    </g>
   </g>
   <g id="text_3">
    <!-- invMass = 1 / mass -->
    <g style="fill: #111827" transform="translate(17.3664 52.20252) scale(0.11 -0.11)">
     <defs>
      <path id="NanumGothicCoding-76" d="M 1856 -192 
Q 1824 -275 1728 -275 
L 1414 -275 
Q 1318 -275 1293 -192 
L 282 2842 
Q 269 2874 288 2902 
Q 307 2931 346 2931 
L 627 2931 
Q 704 2931 742 2842 
L 1581 166 
L 2458 2842 
Q 2470 2880 2502 2905 
Q 2534 2931 2573 2931 
L 2854 2931 
Q 2893 2931 2912 2902 
Q 2931 2874 2918 2842 
L 1856 -192 
z
" transform="scale(0.015625)"/>
      <path id="NanumGothicCoding-4d" d="M 2867 -186 
Q 2867 -275 2778 -275 
L 2534 -275 
Q 2445 -275 2445 -186 
L 2445 3674 
L 2362 3187 
Q 1869 19 1869 13 
Q 1837 -51 1773 -51 
L 1421 -51 
Q 1376 -51 1357 -35 
Q 1338 -19 1325 13 
L 832 3187 
Q 819 3283 793 3414 
Q 768 3546 749 3674 
L 749 -186 
Q 749 -275 659 -275 
L 416 -275 
Q 326 -275 326 -186 
L 326 3910 
Q 326 4045 348 4067 
Q 371 4090 506 4090 
L 986 4090 
Q 1037 4090 1059 4077 
Q 1082 4064 1101 4013 
L 1536 966 
L 1600 480 
L 1664 966 
L 2099 4019 
Q 2125 4090 2202 4090 
L 2688 4090 
Q 2822 4090 2844 4067 
Q 2867 4045 2867 3910 
L 2867 -186 
z
" transform="scale(0.015625)"/>
      <path id="NanumGothicCoding-61" d="M 2368 1402 
L 2246 1402 
Q 1888 1414 1645 1376 
Q 1402 1338 1229 1254 
Q 1018 1165 902 976 
Q 787 787 787 589 
Q 787 474 838 342 
Q 890 211 998 141 
Q 1184 -13 1414 -13 
Q 1638 -13 1785 73 
Q 1933 160 2073 342 
Q 2214 525 2291 755 
Q 2368 986 2368 1203 
L 2368 1402 
z
M 723 2400 
Q 691 2381 662 2390 
Q 634 2400 634 2432 
L 634 2682 
Q 634 2765 723 2803 
Q 941 2931 1168 2982 
Q 1395 3034 1658 3034 
Q 2214 3046 2508 2713 
Q 2803 2381 2803 1888 
L 2803 397 
Q 2803 218 2809 77 
Q 2816 -64 2829 -192 
Q 2829 -275 2739 -275 
L 2509 -275 
Q 2419 -275 2419 -192 
L 2419 262 
Q 2285 -38 2009 -208 
Q 1734 -378 1363 -378 
Q 813 -378 512 -19 
Q 410 96 358 256 
Q 307 416 307 570 
Q 307 902 489 1180 
Q 672 1459 1050 1600 
Q 1414 1766 2285 1766 
L 2368 1766 
L 2368 1914 
Q 2368 2240 2185 2454 
Q 2003 2669 1658 2669 
Q 1382 2669 1168 2608 
Q 954 2547 723 2400 
z
" transform="scale(0.015625)"/>
      <path id="NanumGothicCoding-31" d="M 2022 -211 
Q 2022 -301 1933 -301 
L 1670 -301 
Q 1581 -301 1581 -211 
L 1581 3565 
Q 1382 3398 1209 3251 
Q 1037 3104 845 2938 
Q 774 2880 717 2950 
L 589 3104 
Q 570 3136 570 3171 
Q 570 3206 602 3232 
L 1594 4064 
Q 1619 4090 1670 4090 
L 1843 4090 
Q 1978 4090 2000 4067 
Q 2022 4045 2022 3910 
L 2022 -211 
z
" transform="scale(0.015625)"/>
      <path id="NanumGothicCoding-2f" d="M 2650 4410 
Q 2726 4410 2736 4397 
Q 2746 4384 2720 4314 
L 934 -486 
Q 909 -544 896 -553 
Q 883 -563 813 -563 
L 544 -563 
Q 467 -563 457 -550 
Q 448 -538 474 -474 
L 2259 4320 
Q 2285 4384 2301 4397 
Q 2317 4410 2400 4410 
L 2650 4410 
z
" transform="scale(0.015625)"/>
      <path id="NanumGothicCoding-6d" d="M 269 2118 
Q 269 2387 262 2544 
Q 256 2701 243 2842 
Q 243 2931 333 2931 
L 570 2931 
Q 659 2931 659 2842 
L 653 2566 
Q 698 2771 832 2889 
Q 966 3008 1101 3008 
Q 1338 3008 1482 2816 
Q 1626 2624 1664 2362 
Q 1683 2573 1804 2777 
Q 1926 2982 2202 3008 
Q 2445 3008 2585 2921 
Q 2726 2835 2809 2675 
Q 2893 2515 2925 2304 
Q 2957 2093 2957 1856 
L 2957 -186 
Q 2957 -275 2867 -275 
L 2624 -275 
Q 2534 -275 2534 -192 
L 2534 1766 
Q 2534 2611 2195 2611 
Q 2067 2611 1990 2508 
Q 1914 2406 1878 2252 
Q 1843 2099 1827 1868 
Q 1811 1638 1818 1382 
L 1818 -186 
Q 1818 -275 1728 -275 
L 1498 -275 
Q 1408 -275 1408 -186 
L 1408 1766 
Q 1389 2611 1050 2611 
Q 870 2611 777 2355 
Q 685 2099 691 1619 
L 691 -186 
Q 691 -275 602 -275 
L 358 -275 
Q 269 -275 269 -186 
L 269 2118 
z
" transform="scale(0.015625)"/>
     </defs>
     <use xlink:href="#NanumGothicCoding-69"/>
     <use xlink:href="#NanumGothicCoding-6e" transform="translate(49.999985 0)"/>
     <use xlink:href="#NanumGothicCoding-76" transform="translate(99.999969 0)"/>
     <use xlink:href="#NanumGothicCoding-4d" transform="translate(149.999954 0)"/>
     <use xlink:href="#NanumGothicCoding-61" transform="translate(199.999939 0)"/>
     <use xlink:href="#NanumGothicCoding-73" transform="translate(249.999924 0)"/>
     <use xlink:href="#NanumGothicCoding-73" transform="translate(299.999908 0)"/>
     <use xlink:href="#NanumGothicCoding-20" transform="translate(349.999893 0)"/>
     <use xlink:href="#NanumGothicCoding-3d" transform="translate(399.999878 0)"/>
     <use xlink:href="#NanumGothicCoding-20" transform="translate(449.999863 0)"/>
     <use xlink:href="#NanumGothicCoding-31" transform="translate(499.999847 0)"/>
     <use xlink:href="#NanumGothicCoding-20" transform="translate(549.999832 0)"/>
     <use xlink:href="#NanumGothicCoding-2f" transform="translate(599.999817 0)"/>
     <use xlink:href="#NanumGothicCoding-20" transform="translate(649.999802 0)"/>
     <use xlink:href="#NanumGothicCoding-6d" transform="translate(699.999786 0)"/>
     <use xlink:href="#NanumGothicCoding-61" transform="translate(749.999771 0)"/>
     <use xlink:href="#NanumGothicCoding-73" transform="translate(799.999756 0)"/>
     <use xlink:href="#NanumGothicCoding-73" transform="translate(849.999741 0)"/>
    </g>
   </g>
  </g>
 </g>
 <defs>
  <clipPath id="pdd41f979bc">
   <rect x="5.76" y="5.76" width="290.16" height="114.2064"/>
  </clipPath>
 </defs>
</svg>
