<svg xmlns="http://www.w3.org/2000/svg" viewBox="0 0 900 260"><rect width="900" height="260" rx="16" fill="#f8fafc"/><defs><marker id="a" markerWidth="8" markerHeight="8" refX="7" refY="4" orient="auto"><path d="M0 0L8 4L0 8Z" fill="#2563eb"/></marker></defs><text x="450" y="30" text-anchor="middle" font-family="sans-serif" font-size="18" font-weight="700">독자별 학습 경로</text><g font-family="sans-serif" text-anchor="middle"><rect x="35" y="95" width="150" height="70" rx="12" fill="#dbeafe" stroke="#2563eb"/><text x="110" y="125">공통 기초</text><text x="110" y="147" fill="#475569">1~22</text><g stroke="#2563eb" stroke-width="3" marker-end="url(#a)"><path d="M190 115H270"/><path d="M190 130H270"/><path d="M190 145H270"/></g><rect x="280" y="55" width="180" height="48" rx="10" fill="#ede9fe" stroke="#7c3aed"/><rect x="280" y="112" width="180" height="48" rx="10" fill="#dcfce7" stroke="#16a34a"/><rect x="280" y="169" width="180" height="48" rx="10" fill="#ffedd5" stroke="#ea580c"/><text x="370" y="85">그래픽스 경로</text><text x="370" y="142">물리엔진 경로</text><text x="370" y="199">게임플레이 경로</text><path d="M465 79H535M465 136H535M465 193H535" stroke="#2563eb" stroke-width="3" marker-end="url(#a)"/><rect x="545" y="55" width="310" height="48" rx="10" fill="#fff" stroke="#94a3b8"/><rect x="545" y="112" width="310" height="48" rx="10" fill="#fff" stroke="#94a3b8"/><rect x="545" y="169" width="310" height="48" rx="10" fill="#fff" stroke="#94a3b8"/><text x="700" y="85">회전 → MVP → 렌더링</text><text x="700" y="142">충돌 → 임펄스 → Solver</text><text x="700" y="199">보간 → Steering → 경로</text></g></svg>
