<svg xmlns="http://www.w3.org/2000/svg" viewBox="0 0 900 190">
  <rect width="900" height="190" rx="16" fill="#f8fafc"/>
  <defs><marker id="a" markerWidth="8" markerHeight="8" refX="7" refY="4" orient="auto"><path d="M0 0L8 4L0 8Z" fill="#2563eb"/></marker></defs>
  <text x="450" y="30" text-anchor="middle" font-family="sans-serif" font-size="18" font-weight="700" fill="#0f172a">정점이 화면 픽셀이 되기까지</text>
  <g font-family="sans-serif" text-anchor="middle">
    <g fill="#dbeafe" stroke="#2563eb"><rect x="25" y="70" width="110" height="55" rx="10"/><rect x="170" y="70" width="110" height="55" rx="10"/><rect x="315" y="70" width="110" height="55" rx="10"/><rect x="460" y="70" width="110" height="55" rx="10"/><rect x="605" y="70" width="110" height="55" rx="10"/><rect x="750" y="70" width="125" height="55" rx="10"/></g>
    <g fill="#0f172a" font-size="15"><text x="80" y="103">Local</text><text x="225" y="103">World</text><text x="370" y="103">View</text><text x="515" y="103">Clip</text><text x="660" y="103">NDC</text><text x="812" y="103">Screen</text></g>
    <g stroke="#2563eb" stroke-width="3" marker-end="url(#a)"><path d="M136 98H165"/><path d="M281 98H310"/><path d="M426 98H455"/><path d="M571 98H600"/><path d="M716 98H745"/></g>
    <g fill="#475569" font-size="11"><text x="151" y="62">Model</text><text x="296" y="62">View</text><text x="441" y="62">Projection</text><text x="586" y="62">÷ w</text><text x="731" y="62">Viewport</text></g>
  </g>
</svg>
