<?xml version="1.0" encoding="utf-8" standalone="no"?>
<!DOCTYPE svg PUBLIC "-//W3C//DTD SVG 1.1//EN"
  "http://www.w3.org/Graphics/SVG/1.1/DTD/svg11.dtd">
<svg xmlns:xlink="http://www.w3.org/1999/xlink" width="311.724pt" height="172.296pt" viewBox="0 0 311.724 172.296" xmlns="http://www.w3.org/2000/svg" version="1.1">
 <metadata>
  <rdf:RDF xmlns:dc="http://purl.org/dc/elements/1.1/" xmlns:cc="http://creativecommons.org/ns#" xmlns:rdf="http://www.w3.org/1999/02/22-rdf-syntax-ns#">
   <cc:Work>
    <dc:type rdf:resource="http://purl.org/dc/dcmitype/StillImage"/>
    <dc:date>2026-07-08T05:12:56.805816</dc:date>
    <dc:format>image/svg+xml</dc:format>
    <dc:creator>
     <cc:Agent>
      <dc:title>Matplotlib v3.10.8, https://matplotlib.org/</dc:title>
     </cc:Agent>
    </dc:creator>
   </cc:Work>
  </rdf:RDF>
 </metadata>
 <defs>
  <style type="text/css">*{stroke-linejoin: round; stroke-linecap: butt}</style>
 </defs>
 <g id="figure_1">
  <g id="patch_1">
   <path d="M 0 172.296 
L 311.724 172.296 
L 311.724 0 
L 0 0 
z
" style="fill: #ffffff"/>
  </g>
  <g id="axes_1">
   <g id="patch_2">
    <path d="M 5.76 166.536 
L 305.964 166.536 
L 305.964 5.76 
L 5.76 5.76 
z
" clip-path="url(#p1d2800fa2f)" style="fill: #ffffff; stroke: #e5e7eb; stroke-linejoin: miter"/>
   </g>
   <g id="text_1">
    <!-- 1. 적이 플레이어를 부드럽게 추적하기 -->
    <g style="fill: #111827" transform="translate(17.76816 33.117495) scale(0.11 -0.11)">
     <defs>
      <path id="NanumGothicCoding-31" d="M 2022 -211 
Q 2022 -301 1933 -301 
L 1670 -301 
Q 1581 -301 1581 -211 
L 1581 3565 
Q 1382 3398 1209 3251 
Q 1037 3104 845 2938 
Q 774 2880 717 2950 
L 589 3104 
Q 570 3136 570 3171 
Q 570 3206 602 3232 
L 1594 4064 
Q 1619 4090 1670 4090 
L 1843 4090 
Q 1978 4090 2000 4067 
Q 2022 4045 2022 3910 
L 2022 -211 
z
" transform="scale(0.015625)"/>
      <path id="NanumGothicCoding-2e" d="M 1210 -256 
Q 1210 -96 1325 19 
Q 1440 134 1600 134 
Q 1760 134 1872 19 
Q 1984 -96 1984 -256 
Q 1984 -416 1872 -531 
Q 1760 -646 1600 -646 
Q 1440 -646 1325 -531 
Q 1210 -416 1210 -256 
z
" transform="scale(0.015625)"/>
      <path id="NanumGothicCoding-20" transform="scale(0.015625)"/>
      <path id="NanumGothicCoding-c801" d="M 3501 4166 
Q 3411 3904 3248 3648 
Q 3085 3392 2861 3142 
Q 3078 2912 3398 2704 
Q 3718 2496 4096 2336 
Q 4147 2317 4153 2281 
Q 4160 2246 4141 2214 
L 4013 1984 
Q 3994 1952 3955 1949 
Q 3917 1946 3885 1958 
Q 3744 2022 3581 2112 
Q 3418 2202 3245 2317 
Q 3072 2432 2902 2566 
Q 2733 2701 2586 2848 
Q 2221 2490 1782 2195 
Q 1344 1901 896 1702 
Q 864 1690 832 1683 
Q 800 1677 781 1709 
L 653 1933 
Q 634 1965 650 2000 
Q 666 2035 698 2048 
Q 1523 2445 2105 2957 
Q 2688 3469 3014 4141 
Q 3059 4230 3027 4268 
Q 2995 4307 2906 4307 
L 1030 4307 
Q 954 4307 954 4390 
L 954 4614 
Q 954 4691 1030 4691 
L 3078 4691 
Q 3411 4691 3507 4572 
Q 3603 4454 3501 4166 
z
M 1613 1133 
Q 1613 1171 1645 1190 
Q 1677 1210 1709 1210 
L 4858 1210 
Q 5158 1210 5251 1098 
Q 5344 986 5344 723 
L 5344 -832 
Q 5344 -922 5254 -922 
L 4992 -922 
Q 4902 -922 4902 -832 
L 4902 691 
Q 4902 781 4873 803 
Q 4845 826 4755 826 
L 1709 826 
Q 1677 826 1645 848 
Q 1613 870 1613 902 
L 1613 1133 
z
M 4902 3462 
L 4902 4915 
Q 4902 5005 4992 5005 
L 5254 5005 
Q 5344 5005 5344 4915 
L 5344 1651 
Q 5344 1562 5254 1562 
L 4992 1562 
Q 4902 1562 4902 1651 
L 4902 3078 
L 3693 3078 
Q 3610 3078 3610 3155 
L 3610 3386 
Q 3610 3462 3693 3462 
L 4902 3462 
z
" transform="scale(0.015625)"/>
      <path id="NanumGothicCoding-c774" d="M 3846 2566 
Q 3846 2208 3760 1843 
Q 3674 1478 3488 1184 
Q 3302 890 3011 701 
Q 2720 512 2310 512 
Q 1888 512 1597 697 
Q 1306 883 1130 1180 
Q 954 1478 877 1843 
Q 800 2208 800 2566 
Q 800 2944 877 3312 
Q 954 3680 1130 3974 
Q 1306 4269 1597 4448 
Q 1888 4627 2310 4627 
Q 2720 4627 3011 4448 
Q 3302 4269 3488 3977 
Q 3674 3686 3760 3318 
Q 3846 2950 3846 2566 
z
M 3392 2573 
Q 3392 2867 3331 3168 
Q 3270 3469 3142 3709 
Q 3014 3949 2809 4099 
Q 2605 4250 2310 4250 
Q 2003 4250 1801 4099 
Q 1600 3949 1478 3709 
Q 1357 3469 1305 3168 
Q 1254 2867 1254 2573 
Q 1254 2291 1302 1993 
Q 1350 1696 1472 1449 
Q 1594 1203 1798 1046 
Q 2003 890 2310 890 
Q 2605 890 2809 1046 
Q 3014 1203 3142 1449 
Q 3270 1696 3331 1993 
Q 3392 2291 3392 2573 
z
M 5344 -806 
Q 5344 -896 5254 -896 
L 4992 -896 
Q 4902 -896 4902 -806 
L 4902 4915 
Q 4902 5005 4992 5005 
L 5254 5005 
Q 5344 5005 5344 4915 
L 5344 -806 
z
" transform="scale(0.015625)"/>
      <path id="NanumGothicCoding-d50c" d="M 5229 3072 
Q 5229 2989 5133 2989 
L 1190 2989 
Q 1158 2989 1129 3014 
Q 1101 3040 1101 3078 
L 1101 3277 
Q 1101 3315 1129 3340 
Q 1158 3366 1190 3366 
L 1978 3366 
L 1978 4614 
L 1318 4614 
Q 1286 4614 1257 4640 
Q 1229 4666 1229 4704 
L 1229 4902 
Q 1229 4941 1257 4966 
Q 1286 4992 1318 4992 
L 5005 4992 
Q 5101 4992 5101 4909 
L 5101 4698 
Q 5101 4614 5005 4614 
L 4378 4614 
L 4378 3366 
L 5133 3366 
Q 5229 3366 5229 3283 
L 5229 3072 
z
M 5248 -781 
Q 5248 -813 5219 -835 
Q 5190 -858 5165 -858 
L 1760 -858 
Q 1459 -858 1366 -746 
Q 1274 -634 1274 -365 
L 1274 70 
Q 1274 339 1386 432 
Q 1498 525 1786 525 
L 4538 525 
Q 4627 525 4652 550 
Q 4678 576 4678 672 
L 4678 1005 
Q 4678 1101 4656 1126 
Q 4634 1152 4544 1152 
L 1350 1152 
Q 1318 1152 1289 1171 
Q 1261 1190 1261 1222 
L 1261 1446 
Q 1261 1478 1289 1497 
Q 1318 1517 1350 1517 
L 4608 1517 
Q 4762 1517 4858 1494 
Q 4954 1472 5011 1421 
Q 5069 1370 5091 1277 
Q 5114 1184 5114 1050 
L 5114 614 
Q 5114 346 5002 253 
Q 4890 160 4602 160 
L 1843 160 
Q 1754 160 1731 134 
Q 1709 109 1709 13 
L 1709 -339 
Q 1709 -429 1734 -457 
Q 1760 -486 1850 -486 
L 5158 -486 
Q 5190 -486 5219 -505 
Q 5248 -525 5248 -557 
L 5248 -781 
z
M 5920 2419 
Q 5952 2419 5984 2396 
Q 6016 2374 6016 2336 
L 6016 2118 
Q 6016 2086 5984 2060 
Q 5952 2035 5920 2035 
L 480 2035 
Q 442 2035 413 2060 
Q 384 2086 384 2118 
L 384 2336 
Q 384 2374 413 2396 
Q 442 2419 480 2419 
L 5920 2419 
z
M 2413 3366 
L 3942 3366 
L 3942 4614 
L 2413 4614 
L 2413 3366 
z
" transform="scale(0.015625)"/>
      <path id="NanumGothicCoding-b808" d="M 1165 608 
Q 877 621 777 726 
Q 678 832 678 1101 
L 678 2323 
Q 678 2592 790 2685 
Q 902 2778 1190 2778 
L 2253 2778 
Q 2342 2778 2368 2803 
Q 2394 2829 2394 2925 
L 2394 3949 
Q 2394 4045 2371 4070 
Q 2349 4096 2259 4096 
L 794 4096 
Q 762 4096 733 4115 
Q 704 4134 704 4166 
L 704 4410 
Q 704 4442 733 4461 
Q 762 4480 794 4480 
L 2330 4480 
Q 2483 4480 2579 4457 
Q 2675 4435 2732 4384 
Q 2790 4333 2812 4240 
Q 2835 4147 2835 4013 
L 2835 2848 
Q 2835 2579 2723 2486 
Q 2611 2394 2323 2394 
L 1254 2394 
Q 1165 2394 1142 2368 
Q 1120 2342 1120 2246 
L 1120 1133 
Q 1120 986 1261 986 
Q 1779 986 2291 1050 
Q 2803 1114 3283 1222 
Q 3373 1242 3392 1158 
L 3430 941 
Q 3443 858 3347 832 
Q 2803 704 2252 646 
Q 1702 589 1165 608 
z
M 4000 2739 
L 4000 4806 
Q 4000 4896 4090 4896 
L 4333 4896 
Q 4422 4896 4422 4806 
L 4422 -563 
Q 4422 -653 4333 -653 
L 4090 -653 
Q 4000 -653 4000 -563 
L 4000 2355 
L 3168 2355 
Q 3085 2355 3085 2432 
L 3085 2662 
Q 3085 2739 3168 2739 
L 4000 2739 
z
M 5555 -806 
Q 5555 -896 5466 -896 
L 5222 -896 
Q 5133 -896 5133 -806 
L 5133 4915 
Q 5133 5005 5222 5005 
L 5466 5005 
Q 5555 5005 5555 4915 
L 5555 -806 
z
" transform="scale(0.015625)"/>
      <path id="NanumGothicCoding-c5b4" d="M 5344 -806 
Q 5344 -896 5254 -896 
L 4992 -896 
Q 4902 -896 4902 -806 
L 4902 2381 
L 3757 2381 
Q 3738 2042 3638 1709 
Q 3539 1376 3353 1110 
Q 3168 845 2889 678 
Q 2611 512 2227 512 
Q 1805 512 1513 697 
Q 1222 883 1046 1180 
Q 870 1478 793 1843 
Q 717 2208 717 2566 
Q 717 2944 793 3312 
Q 870 3680 1046 3974 
Q 1222 4269 1513 4448 
Q 1805 4627 2227 4627 
Q 2611 4627 2889 4470 
Q 3168 4314 3353 4051 
Q 3539 3789 3638 3453 
Q 3738 3117 3757 2765 
L 4902 2765 
L 4902 4915 
Q 4902 5005 4992 5005 
L 5254 5005 
Q 5344 5005 5344 4915 
L 5344 -806 
z
M 3309 2573 
Q 3309 2861 3248 3155 
Q 3187 3450 3059 3686 
Q 2931 3923 2726 4070 
Q 2522 4218 2227 4218 
Q 1920 4218 1718 4070 
Q 1517 3923 1395 3686 
Q 1274 3450 1222 3155 
Q 1171 2861 1171 2573 
Q 1171 2298 1219 2003 
Q 1267 1709 1388 1469 
Q 1510 1229 1715 1075 
Q 1920 922 2227 922 
Q 2522 922 2726 1075 
Q 2931 1229 3059 1469 
Q 3187 1709 3248 2003 
Q 3309 2298 3309 2573 
z
" transform="scale(0.015625)"/>
      <path id="NanumGothicCoding-b97c" d="M 5920 2278 
Q 5952 2278 5984 2256 
Q 6016 2234 6016 2195 
L 6016 1978 
Q 6016 1946 5984 1920 
Q 5952 1894 5920 1894 
L 480 1894 
Q 442 1894 413 1920 
Q 384 1946 384 1978 
L 384 2195 
Q 384 2234 413 2256 
Q 442 2278 480 2278 
L 5920 2278 
z
M 5254 -781 
Q 5254 -813 5225 -835 
Q 5197 -858 5171 -858 
L 1760 -858 
Q 1459 -858 1366 -746 
Q 1274 -634 1274 -365 
L 1274 13 
Q 1274 282 1386 374 
Q 1498 467 1786 467 
L 4544 467 
Q 4634 467 4656 492 
Q 4678 518 4678 614 
L 4678 858 
Q 4678 954 4656 979 
Q 4634 1005 4544 1005 
L 1350 1005 
Q 1318 1005 1289 1024 
Q 1261 1043 1261 1075 
L 1261 1299 
Q 1261 1331 1289 1350 
Q 1318 1370 1350 1370 
L 4608 1370 
Q 4762 1370 4858 1347 
Q 4954 1325 5011 1273 
Q 5069 1222 5091 1129 
Q 5114 1037 5114 902 
L 5114 557 
Q 5114 288 5002 195 
Q 4890 102 4602 102 
L 1843 102 
Q 1754 102 1731 76 
Q 1709 51 1709 -45 
L 1709 -339 
Q 1709 -429 1734 -457 
Q 1760 -486 1850 -486 
L 5165 -486 
Q 5197 -486 5225 -505 
Q 5254 -525 5254 -557 
L 5254 -781 
z
M 5203 2880 
Q 5203 2848 5174 2825 
Q 5146 2803 5120 2803 
L 1786 2803 
Q 1485 2803 1392 2915 
Q 1299 3027 1299 3296 
L 1299 3642 
Q 1299 3910 1411 4003 
Q 1523 4096 1811 4096 
L 4525 4096 
Q 4614 4096 4636 4118 
Q 4659 4141 4659 4243 
L 4659 4506 
Q 4659 4602 4636 4627 
Q 4614 4653 4525 4653 
L 1389 4653 
Q 1357 4653 1328 4672 
Q 1299 4691 1299 4723 
L 1299 4954 
Q 1299 4986 1328 5005 
Q 1357 5024 1389 5024 
L 4595 5024 
Q 4749 5024 4845 5001 
Q 4941 4979 4998 4928 
Q 5056 4877 5078 4784 
Q 5101 4691 5101 4557 
L 5101 4186 
Q 5101 3910 4989 3820 
Q 4877 3731 4589 3731 
L 1869 3731 
Q 1779 3731 1756 3705 
Q 1734 3680 1734 3584 
L 1734 3315 
Q 1734 3226 1760 3197 
Q 1786 3168 1875 3168 
L 5114 3168 
Q 5146 3168 5174 3149 
Q 5203 3130 5203 3098 
L 5203 2880 
z
" transform="scale(0.015625)"/>
      <path id="NanumGothicCoding-bd80" d="M 1690 2419 
Q 1536 2419 1443 2438 
Q 1350 2458 1299 2512 
Q 1248 2566 1229 2652 
Q 1210 2739 1210 2874 
L 1210 4909 
Q 1210 4941 1235 4963 
Q 1261 4986 1293 4986 
L 1568 4986 
Q 1600 4986 1622 4960 
Q 1645 4934 1645 4909 
L 1645 4058 
L 4723 4058 
L 4723 4902 
Q 4723 4934 4745 4960 
Q 4768 4986 4800 4986 
L 5075 4986 
Q 5107 4986 5132 4963 
Q 5158 4941 5158 4909 
L 5158 2829 
Q 5158 2586 5056 2502 
Q 4954 2419 4672 2419 
L 1690 2419 
z
M 3046 -858 
Q 3014 -858 2988 -829 
Q 2963 -800 2963 -762 
L 2963 1242 
L 480 1242 
Q 442 1242 413 1267 
Q 384 1293 384 1325 
L 384 1542 
Q 384 1581 413 1603 
Q 442 1626 480 1626 
L 5920 1626 
Q 5952 1626 5984 1603 
Q 6016 1581 6016 1542 
L 6016 1325 
Q 6016 1293 5984 1267 
Q 5952 1242 5920 1242 
L 3405 1242 
L 3405 -762 
Q 3405 -800 3382 -829 
Q 3360 -858 3322 -858 
L 3046 -858 
z
M 1645 3680 
L 1645 2950 
Q 1645 2854 1677 2825 
Q 1709 2797 1798 2797 
L 4570 2797 
Q 4659 2797 4691 2825 
Q 4723 2854 4723 2950 
L 4723 3680 
L 1645 3680 
z
" transform="scale(0.015625)"/>
      <path id="NanumGothicCoding-b4dc" d="M 5920 499 
Q 5952 499 5984 476 
Q 6016 454 6016 416 
L 6016 198 
Q 6016 166 5984 140 
Q 5952 115 5920 115 
L 480 115 
Q 442 115 413 140 
Q 384 166 384 198 
L 384 416 
Q 384 454 413 476 
Q 442 499 480 499 
L 5920 499 
z
M 5222 1920 
Q 5222 1830 5139 1830 
L 1683 1830 
Q 1402 1830 1299 1923 
Q 1197 2016 1197 2285 
L 1197 4134 
Q 1197 4403 1299 4496 
Q 1402 4589 1683 4589 
L 5094 4589 
Q 5178 4589 5178 4506 
L 5178 4294 
Q 5178 4205 5094 4205 
L 1792 4205 
Q 1702 4205 1670 4169 
Q 1638 4134 1638 4038 
L 1638 2381 
Q 1638 2291 1670 2252 
Q 1702 2214 1792 2214 
L 5139 2214 
Q 5222 2214 5222 2131 
L 5222 1920 
z
" transform="scale(0.015625)"/>
      <path id="NanumGothicCoding-b7fd" d="M 2170 -845 
Q 2016 -845 1923 -825 
Q 1830 -806 1779 -752 
Q 1728 -698 1709 -611 
Q 1690 -525 1690 -390 
L 1690 1280 
Q 1690 1312 1715 1331 
Q 1741 1350 1773 1350 
L 2054 1350 
Q 2086 1350 2108 1328 
Q 2131 1306 2131 1280 
L 2131 666 
L 4902 666 
L 4902 1274 
Q 4902 1306 4924 1331 
Q 4947 1357 4979 1357 
L 5261 1357 
Q 5293 1357 5318 1334 
Q 5344 1312 5344 1280 
L 5344 -435 
Q 5344 -678 5241 -761 
Q 5139 -845 4858 -845 
L 2170 -845 
z
M 1389 1914 
Q 1101 1920 1001 2029 
Q 902 2138 902 2406 
L 902 3130 
Q 902 3398 1014 3491 
Q 1126 3584 1414 3584 
L 2720 3584 
Q 2810 3584 2835 3609 
Q 2861 3635 2861 3731 
L 2861 4275 
Q 2861 4371 2838 4396 
Q 2816 4422 2726 4422 
L 1005 4422 
Q 928 4422 928 4506 
L 928 4730 
Q 928 4806 1005 4806 
L 2797 4806 
Q 2950 4806 3046 4784 
Q 3142 4762 3200 4710 
Q 3258 4659 3280 4566 
Q 3302 4474 3302 4339 
L 3302 3654 
Q 3302 3386 3190 3293 
Q 3078 3200 2790 3200 
L 1478 3200 
Q 1389 3200 1366 3174 
Q 1344 3149 1344 3053 
L 1344 2438 
Q 1344 2291 1485 2291 
Q 1779 2291 2044 2297 
Q 2310 2304 2569 2326 
Q 2829 2349 3094 2384 
Q 3360 2419 3648 2470 
Q 3712 2483 3734 2470 
Q 3757 2458 3770 2406 
L 3808 2202 
Q 3821 2144 3798 2125 
Q 3776 2106 3718 2093 
Q 3424 2035 3152 2000 
Q 2880 1965 2601 1942 
Q 2323 1920 2028 1913 
Q 1734 1907 1389 1914 
z
M 2131 282 
L 2131 -307 
Q 2131 -403 2163 -432 
Q 2195 -461 2285 -461 
L 4749 -461 
Q 4838 -461 4870 -432 
Q 4902 -403 4902 -307 
L 4902 282 
L 2131 282 
z
M 4902 3533 
L 4902 4915 
Q 4902 5005 4992 5005 
L 5254 5005 
Q 5344 5005 5344 4915 
L 5344 1786 
Q 5344 1696 5254 1696 
L 4992 1696 
Q 4902 1696 4902 1786 
L 4902 3149 
L 3808 3149 
Q 3725 3149 3725 3226 
L 3725 3456 
Q 3725 3533 3808 3533 
L 4902 3533 
z
" transform="scale(0.015625)"/>
      <path id="NanumGothicCoding-ac8c" d="M 3149 4013 
Q 3117 3712 3059 3437 
Q 3002 3162 2899 2899 
L 4000 2899 
L 4000 4806 
Q 4000 4896 4090 4896 
L 4333 4896 
Q 4422 4896 4422 4806 
L 4422 -563 
Q 4422 -653 4333 -653 
L 4090 -653 
Q 4000 -653 4000 -563 
L 4000 2515 
L 2733 2515 
Q 2189 1414 941 582 
Q 858 525 813 589 
L 672 787 
Q 640 826 653 864 
Q 666 902 698 922 
Q 1126 1190 1475 1520 
Q 1824 1850 2080 2224 
Q 2336 2598 2489 3011 
Q 2643 3424 2682 3859 
Q 2694 4019 2656 4067 
Q 2618 4115 2490 4115 
L 934 4115 
Q 858 4115 858 4192 
L 858 4422 
Q 858 4454 883 4476 
Q 909 4499 941 4499 
L 2643 4499 
Q 2931 4499 3049 4377 
Q 3168 4256 3149 4013 
z
M 5555 -806 
Q 5555 -896 5466 -896 
L 5222 -896 
Q 5133 -896 5133 -806 
L 5133 4915 
Q 5133 5005 5222 5005 
L 5466 5005 
Q 5555 5005 5555 4915 
L 5555 -806 
z
" transform="scale(0.015625)"/>
      <path id="NanumGothicCoding-cd94" d="M 4698 3501 
Q 4550 3347 4300 3180 
Q 4051 3014 3731 2848 
Q 3923 2790 4150 2720 
Q 4378 2650 4608 2586 
Q 4838 2522 5056 2467 
Q 5274 2413 5440 2381 
Q 5523 2362 5498 2291 
L 5421 2061 
Q 5402 1990 5306 2010 
Q 5120 2048 4864 2115 
Q 4608 2182 4326 2265 
Q 4045 2349 3760 2438 
Q 3475 2528 3226 2611 
Q 2694 2381 2112 2198 
Q 1530 2016 1024 1939 
Q 966 1926 944 1939 
Q 922 1952 909 2003 
L 851 2208 
Q 838 2259 854 2284 
Q 870 2310 902 2317 
Q 1286 2381 1750 2515 
Q 2214 2650 2665 2822 
Q 3117 2995 3517 3193 
Q 3917 3392 4173 3584 
Q 4243 3635 4256 3696 
Q 4269 3757 4166 3757 
L 1402 3757 
Q 1318 3757 1318 3840 
L 1318 4064 
Q 1318 4141 1402 4141 
L 4339 4141 
Q 5299 4141 4698 3501 
z
M 3046 -858 
Q 3014 -858 2988 -829 
Q 2963 -800 2963 -762 
L 2963 1024 
L 480 1024 
Q 442 1024 413 1049 
Q 384 1075 384 1107 
L 384 1325 
Q 384 1363 413 1385 
Q 442 1408 480 1408 
L 5920 1408 
Q 5952 1408 5984 1385 
Q 6016 1363 6016 1325 
L 6016 1107 
Q 6016 1075 5984 1049 
Q 5952 1024 5920 1024 
L 3405 1024 
L 3405 -762 
Q 3405 -800 3382 -829 
Q 3360 -858 3322 -858 
L 3046 -858 
z
M 4006 5005 
Q 4102 5005 4102 4915 
L 4102 4710 
Q 4102 4614 4006 4614 
L 2285 4614 
Q 2189 4614 2189 4710 
L 2189 4915 
Q 2189 5005 2285 5005 
L 4006 5005 
z
" transform="scale(0.015625)"/>
      <path id="NanumGothicCoding-d558" d="M 3738 1542 
Q 3738 1280 3632 1056 
Q 3526 832 3340 662 
Q 3155 493 2899 397 
Q 2643 301 2349 301 
Q 2048 301 1795 397 
Q 1542 493 1356 659 
Q 1171 826 1065 1053 
Q 960 1280 960 1542 
Q 960 1811 1065 2038 
Q 1171 2266 1356 2432 
Q 1542 2598 1795 2694 
Q 2048 2790 2349 2790 
Q 2643 2790 2899 2691 
Q 3155 2592 3340 2425 
Q 3526 2259 3632 2028 
Q 3738 1798 3738 1542 
z
M 5120 -806 
Q 5120 -896 5030 -896 
L 4768 -896 
Q 4678 -896 4678 -806 
L 4678 4915 
Q 4678 5005 4768 5005 
L 5030 5005 
Q 5120 5005 5120 4915 
L 5120 2554 
L 6003 2554 
Q 6042 2554 6070 2531 
Q 6099 2509 6099 2470 
L 6099 2253 
Q 6099 2221 6070 2195 
Q 6042 2170 6003 2170 
L 5120 2170 
L 5120 -806 
z
M 3302 1542 
Q 3302 1728 3232 1888 
Q 3162 2048 3034 2166 
Q 2906 2285 2730 2352 
Q 2554 2419 2349 2419 
Q 2144 2419 1968 2352 
Q 1792 2285 1664 2166 
Q 1536 2048 1462 1888 
Q 1389 1728 1389 1542 
Q 1389 1357 1462 1200 
Q 1536 1043 1664 924 
Q 1792 806 1968 739 
Q 2144 672 2349 672 
Q 2554 672 2730 739 
Q 2906 806 3034 921 
Q 3162 1037 3232 1197 
Q 3302 1357 3302 1542 
z
M 4218 3328 
Q 4218 3245 4122 3245 
L 589 3245 
Q 557 3245 528 3270 
Q 499 3296 499 3334 
L 499 3539 
Q 499 3578 528 3603 
Q 557 3629 589 3629 
L 4122 3629 
Q 4218 3629 4218 3546 
L 4218 3328 
z
M 3283 4416 
Q 3283 4326 3187 4326 
L 1434 4326 
Q 1402 4326 1373 4348 
Q 1344 4371 1344 4410 
L 1344 4627 
Q 1344 4666 1369 4691 
Q 1395 4717 1427 4717 
L 3187 4717 
Q 3283 4717 3283 4627 
L 3283 4416 
z
" transform="scale(0.015625)"/>
      <path id="NanumGothicCoding-ae30" d="M 5344 -806 
Q 5344 -896 5254 -896 
L 4992 -896 
Q 4902 -896 4902 -806 
L 4902 4915 
Q 4902 5005 4992 5005 
L 5254 5005 
Q 5344 5005 5344 4915 
L 5344 -806 
z
M 3629 4064 
Q 3597 3514 3411 2982 
Q 3226 2451 2896 1968 
Q 2566 1485 2102 1072 
Q 1638 659 1050 346 
Q 966 301 928 365 
L 787 589 
Q 742 666 813 698 
Q 1357 979 1776 1340 
Q 2195 1702 2492 2124 
Q 2790 2547 2963 3014 
Q 3136 3482 3181 3974 
Q 3194 4070 3155 4105 
Q 3117 4141 3027 4141 
L 992 4141 
Q 915 4141 915 4224 
L 915 4448 
Q 915 4525 992 4525 
L 3149 4525 
Q 3450 4525 3546 4413 
Q 3642 4301 3629 4064 
z
" transform="scale(0.015625)"/>
     </defs>
     <use xlink:href="#NanumGothicCoding-31"/>
     <use xlink:href="#NanumGothicCoding-2e" transform="translate(49.999985 0)"/>
     <use xlink:href="#NanumGothicCoding-20" transform="translate(99.999969 0)"/>
     <use xlink:href="#NanumGothicCoding-c801" transform="translate(149.999954 0)"/>
     <use xlink:href="#NanumGothicCoding-c774" transform="translate(249.999939 0)"/>
     <use xlink:href="#NanumGothicCoding-20" transform="translate(349.999924 0)"/>
     <use xlink:href="#NanumGothicCoding-d50c" transform="translate(399.999908 0)"/>
     <use xlink:href="#NanumGothicCoding-b808" transform="translate(499.999893 0)"/>
     <use xlink:href="#NanumGothicCoding-c774" transform="translate(599.999878 0)"/>
     <use xlink:href="#NanumGothicCoding-c5b4" transform="translate(699.999863 0)"/>
     <use xlink:href="#NanumGothicCoding-b97c" transform="translate(799.999847 0)"/>
     <use xlink:href="#NanumGothicCoding-20" transform="translate(899.999832 0)"/>
     <use xlink:href="#NanumGothicCoding-bd80" transform="translate(949.999817 0)"/>
     <use xlink:href="#NanumGothicCoding-b4dc" transform="translate(1049.999802 0)"/>
     <use xlink:href="#NanumGothicCoding-b7fd" transform="translate(1149.999786 0)"/>
     <use xlink:href="#NanumGothicCoding-ac8c" transform="translate(1249.999771 0)"/>
     <use xlink:href="#NanumGothicCoding-20" transform="translate(1349.999756 0)"/>
     <use xlink:href="#NanumGothicCoding-cd94" transform="translate(1399.999741 0)"/>
     <use xlink:href="#NanumGothicCoding-c801" transform="translate(1499.999725 0)"/>
     <use xlink:href="#NanumGothicCoding-d558" transform="translate(1599.99971 0)"/>
     <use xlink:href="#NanumGothicCoding-ae30" transform="translate(1699.999695 0)"/>
    </g>
   </g>
   <g id="text_2">
    <!-- 2. 총알이 벽에 반사되기 -->
    <g style="fill: #111827" transform="translate(17.76816 50.802855) scale(0.11 -0.11)">
     <defs>
      <path id="NanumGothicCoding-32" d="M 442 -301 
Q 378 -301 342 -297 
Q 307 -294 291 -278 
Q 275 -262 272 -227 
Q 269 -192 269 -122 
L 269 19 
Q 269 102 320 147 
L 1286 1146 
Q 2317 2246 2310 2854 
Q 2317 3277 2125 3501 
Q 1907 3744 1523 3757 
Q 1069 3757 602 3469 
Q 518 3424 499 3507 
L 461 3718 
Q 442 3827 525 3859 
Q 781 4000 1017 4070 
Q 1254 4141 1510 4141 
Q 2022 4141 2387 3834 
Q 2790 3501 2790 2886 
Q 2790 2650 2681 2365 
Q 2573 2080 2336 1760 
Q 2112 1478 1971 1308 
Q 1830 1139 1600 890 
Q 1350 627 1206 480 
Q 1062 333 826 96 
L 2803 96 
Q 2899 90 2893 6 
L 2893 -218 
Q 2893 -301 2810 -301 
L 442 -301 
z
" transform="scale(0.015625)"/>
      <path id="NanumGothicCoding-cd1d" d="M 5184 45 
Q 5184 -154 5088 -304 
Q 4992 -454 4832 -566 
Q 4672 -678 4464 -748 
Q 4256 -819 4035 -864 
Q 3814 -909 3593 -925 
Q 3373 -941 3187 -941 
Q 3008 -941 2787 -925 
Q 2566 -909 2345 -864 
Q 2125 -819 1917 -748 
Q 1709 -678 1549 -566 
Q 1389 -454 1293 -304 
Q 1197 -154 1197 45 
Q 1197 243 1293 390 
Q 1389 538 1549 646 
Q 1709 755 1917 828 
Q 2125 902 2345 944 
Q 2566 986 2784 1005 
Q 3002 1024 3187 1024 
Q 3469 1024 3814 982 
Q 4160 941 4464 832 
Q 4768 723 4976 531 
Q 5184 339 5184 45 
z
M 4595 3610 
Q 4230 3347 3744 3117 
Q 4102 3008 4521 2915 
Q 4941 2822 5338 2765 
Q 5389 2758 5398 2736 
Q 5408 2714 5395 2669 
L 5338 2451 
Q 5325 2381 5235 2400 
Q 5030 2432 4777 2483 
Q 4525 2534 4253 2598 
Q 3981 2662 3709 2736 
Q 3437 2810 3187 2880 
Q 2733 2701 2227 2563 
Q 1722 2426 1190 2336 
Q 1094 2317 1069 2381 
L 992 2598 
Q 979 2630 998 2659 
Q 1018 2688 1056 2701 
Q 1504 2790 1901 2896 
Q 2298 3002 2659 3120 
Q 3021 3238 3357 3382 
Q 3693 3526 4026 3693 
Q 4134 3750 4124 3792 
Q 4115 3834 4013 3834 
L 1466 3834 
Q 1382 3834 1382 3917 
L 1382 4141 
Q 1382 4218 1466 4218 
L 4230 4218 
Q 4730 4218 4838 4042 
Q 4947 3866 4595 3610 
z
M 4717 38 
Q 4717 230 4541 345 
Q 4365 461 4118 525 
Q 3872 589 3613 608 
Q 3354 627 3187 627 
Q 3014 627 2752 608 
Q 2490 589 2250 525 
Q 2010 461 1837 345 
Q 1664 230 1664 38 
Q 1664 -154 1837 -266 
Q 2010 -378 2250 -442 
Q 2490 -506 2752 -525 
Q 3014 -544 3187 -544 
Q 3360 -544 3619 -525 
Q 3878 -506 4121 -442 
Q 4365 -378 4541 -266 
Q 4717 -154 4717 38 
z
M 5920 1798 
Q 5952 1798 5984 1776 
Q 6016 1754 6016 1715 
L 6016 1498 
Q 6016 1466 5984 1440 
Q 5952 1414 5920 1414 
L 480 1414 
Q 442 1414 413 1440 
Q 384 1466 384 1498 
L 384 1715 
Q 384 1754 413 1776 
Q 442 1798 480 1798 
L 2957 1798 
L 2957 2470 
Q 2957 2560 3046 2560 
L 3309 2560 
Q 3398 2560 3398 2470 
L 3398 1798 
L 5920 1798 
z
M 4006 5005 
Q 4102 5005 4102 4915 
L 4102 4710 
Q 4102 4614 4006 4614 
L 2323 4614 
Q 2227 4614 2227 4710 
L 2227 4915 
Q 2227 5005 2323 5005 
L 4006 5005 
z
" transform="scale(0.015625)"/>
      <path id="NanumGothicCoding-c54c" d="M 3725 3469 
Q 3725 3168 3606 2915 
Q 3488 2662 3283 2476 
Q 3078 2291 2803 2185 
Q 2528 2080 2214 2080 
Q 1907 2080 1641 2182 
Q 1376 2285 1174 2467 
Q 973 2650 857 2906 
Q 742 3162 742 3469 
Q 742 3795 857 4054 
Q 973 4314 1174 4493 
Q 1376 4672 1641 4768 
Q 1907 4864 2214 4864 
Q 2502 4864 2774 4768 
Q 3046 4672 3257 4493 
Q 3469 4314 3597 4054 
Q 3725 3795 3725 3469 
z
M 5254 -838 
Q 5254 -870 5225 -892 
Q 5197 -915 5171 -915 
L 1952 -915 
Q 1651 -915 1558 -803 
Q 1466 -691 1466 -422 
L 1466 58 
Q 1466 326 1578 419 
Q 1690 512 1978 512 
L 4538 512 
Q 4627 512 4652 537 
Q 4678 563 4678 659 
L 4678 1024 
Q 4678 1120 4656 1145 
Q 4634 1171 4544 1171 
L 1542 1171 
Q 1510 1171 1481 1190 
Q 1453 1210 1453 1242 
L 1453 1472 
Q 1453 1504 1481 1523 
Q 1510 1542 1542 1542 
L 4614 1542 
Q 4768 1542 4864 1520 
Q 4960 1498 5017 1446 
Q 5075 1395 5097 1302 
Q 5120 1210 5120 1075 
L 5120 595 
Q 5120 326 5008 233 
Q 4896 141 4608 141 
L 2042 141 
Q 1952 141 1929 115 
Q 1907 90 1907 -6 
L 1907 -397 
Q 1907 -486 1932 -515 
Q 1958 -544 2048 -544 
L 5165 -544 
Q 5197 -544 5225 -563 
Q 5254 -582 5254 -614 
L 5254 -838 
z
M 3277 3475 
Q 3277 3712 3187 3897 
Q 3098 4083 2950 4204 
Q 2803 4326 2611 4390 
Q 2419 4454 2214 4454 
Q 2003 4454 1814 4393 
Q 1626 4333 1488 4211 
Q 1350 4090 1270 3904 
Q 1190 3718 1190 3475 
Q 1190 3245 1267 3062 
Q 1344 2880 1481 2749 
Q 1619 2618 1804 2550 
Q 1990 2483 2214 2483 
Q 2419 2483 2611 2550 
Q 2803 2618 2950 2746 
Q 3098 2874 3187 3059 
Q 3277 3245 3277 3475 
z
M 5120 1984 
Q 5120 1894 5030 1894 
L 4768 1894 
Q 4678 1894 4678 1984 
L 4678 4915 
Q 4678 5005 4768 5005 
L 5030 5005 
Q 5120 5005 5120 4915 
L 5120 3642 
L 6003 3642 
Q 6042 3642 6070 3619 
Q 6099 3597 6099 3558 
L 6099 3341 
Q 6099 3309 6070 3283 
Q 6042 3258 6003 3258 
L 5120 3258 
L 5120 1984 
z
" transform="scale(0.015625)"/>
      <path id="NanumGothicCoding-bcbd" d="M 1382 1920 
Q 1229 1920 1136 1939 
Q 1043 1958 992 2012 
Q 941 2067 921 2153 
Q 902 2240 902 2374 
L 902 4698 
Q 902 4730 928 4752 
Q 954 4774 986 4774 
L 1261 4774 
Q 1293 4774 1315 4748 
Q 1338 4723 1338 4698 
L 1338 3661 
L 3206 3661 
L 3206 4691 
Q 3206 4723 3228 4748 
Q 3251 4774 3283 4774 
L 3558 4774 
Q 3590 4774 3616 4752 
Q 3642 4730 3642 4698 
L 3642 3981 
L 4902 3981 
L 4902 4915 
Q 4902 5005 4992 5005 
L 5254 5005 
Q 5344 5005 5344 4915 
L 5344 1690 
Q 5344 1600 5254 1600 
L 4992 1600 
Q 4902 1600 4902 1690 
L 4902 2477 
L 3642 2477 
L 3642 2330 
Q 3642 2086 3539 2003 
Q 3437 1920 3155 1920 
L 1382 1920 
z
M 1613 1165 
Q 1613 1203 1645 1222 
Q 1677 1242 1709 1242 
L 4858 1242 
Q 5158 1242 5251 1130 
Q 5344 1018 5344 755 
L 5344 -832 
Q 5344 -922 5254 -922 
L 4992 -922 
Q 4902 -922 4902 -832 
L 4902 723 
Q 4902 813 4873 835 
Q 4845 858 4755 858 
L 1709 858 
Q 1677 858 1645 880 
Q 1613 902 1613 934 
L 1613 1165 
z
M 1338 3283 
L 1338 2451 
Q 1338 2355 1370 2326 
Q 1402 2298 1491 2298 
L 3053 2298 
Q 3142 2298 3174 2326 
Q 3206 2355 3206 2451 
L 3206 3283 
L 1338 3283 
z
M 3642 2854 
L 4902 2854 
L 4902 3603 
L 3642 3603 
L 3642 2854 
z
" transform="scale(0.015625)"/>
      <path id="NanumGothicCoding-c5d0" d="M 4422 -563 
Q 4422 -653 4333 -653 
L 4090 -653 
Q 4000 -653 4000 -563 
L 4000 2419 
L 3277 2419 
Q 3251 1978 3136 1648 
Q 3021 1318 2835 1097 
Q 2650 877 2410 768 
Q 2170 659 1901 659 
Q 1613 659 1369 784 
Q 1126 909 947 1155 
Q 768 1402 665 1773 
Q 563 2144 563 2643 
Q 563 3142 665 3510 
Q 768 3878 950 4124 
Q 1133 4371 1376 4489 
Q 1619 4608 1907 4608 
Q 2182 4608 2422 4499 
Q 2662 4390 2848 4166 
Q 3034 3942 3146 3603 
Q 3258 3264 3277 2803 
L 4000 2803 
L 4000 4806 
Q 4000 4896 4090 4896 
L 4333 4896 
Q 4422 4896 4422 4806 
L 4422 -563 
z
M 2835 2643 
Q 2835 2938 2777 3219 
Q 2720 3501 2605 3725 
Q 2490 3949 2314 4086 
Q 2138 4224 1901 4224 
Q 1651 4224 1481 4083 
Q 1312 3942 1206 3715 
Q 1101 3488 1056 3206 
Q 1011 2925 1011 2643 
Q 1011 2362 1062 2077 
Q 1114 1792 1219 1561 
Q 1325 1331 1494 1187 
Q 1664 1043 1901 1043 
Q 2138 1043 2314 1184 
Q 2490 1325 2605 1552 
Q 2720 1779 2777 2067 
Q 2835 2355 2835 2643 
z
M 5555 -806 
Q 5555 -896 5466 -896 
L 5222 -896 
Q 5133 -896 5133 -806 
L 5133 4915 
Q 5133 5005 5222 5005 
L 5466 5005 
Q 5555 5005 5555 4915 
L 5555 -806 
z
" transform="scale(0.015625)"/>
      <path id="NanumGothicCoding-bc18" d="M 1350 1715 
Q 1197 1715 1104 1734 
Q 1011 1754 960 1808 
Q 909 1862 889 1948 
Q 870 2035 870 2170 
L 870 4691 
Q 870 4723 896 4745 
Q 922 4768 954 4768 
L 1229 4768 
Q 1261 4768 1283 4742 
Q 1306 4717 1306 4691 
L 1306 3584 
L 3168 3584 
L 3168 4685 
Q 3168 4717 3190 4742 
Q 3213 4768 3245 4768 
L 3520 4768 
Q 3552 4768 3577 4745 
Q 3603 4723 3603 4691 
L 3603 2125 
Q 3603 1882 3500 1798 
Q 3398 1715 3117 1715 
L 1350 1715 
z
M 5120 832 
Q 5120 742 5030 742 
L 4768 742 
Q 4678 742 4678 832 
L 4678 4915 
Q 4678 5005 4768 5005 
L 5030 5005 
Q 5120 5005 5120 4915 
L 5120 3130 
L 6003 3130 
Q 6042 3130 6070 3107 
Q 6099 3085 6099 3046 
L 6099 2829 
Q 6099 2797 6070 2771 
Q 6042 2746 6003 2746 
L 5120 2746 
L 5120 832 
z
M 5408 -704 
Q 5408 -742 5376 -761 
Q 5344 -781 5312 -781 
L 2054 -781 
Q 1754 -781 1661 -669 
Q 1568 -557 1568 -294 
L 1568 960 
Q 1568 1050 1658 1050 
L 1920 1050 
Q 2010 1050 2010 960 
L 2010 -262 
Q 2010 -352 2038 -374 
Q 2067 -397 2157 -397 
L 5312 -397 
Q 5344 -397 5376 -419 
Q 5408 -442 5408 -474 
L 5408 -704 
z
M 1306 3206 
L 1306 2246 
Q 1306 2150 1338 2121 
Q 1370 2093 1459 2093 
L 3014 2093 
Q 3104 2093 3136 2121 
Q 3168 2150 3168 2246 
L 3168 3206 
L 1306 3206 
z
" transform="scale(0.015625)"/>
      <path id="NanumGothicCoding-c0ac" d="M 2477 4589 
Q 2477 4166 2441 3779 
Q 2406 3392 2330 3034 
Q 2394 2778 2528 2493 
Q 2662 2208 2844 1926 
Q 3027 1645 3254 1379 
Q 3482 1114 3738 902 
Q 3770 877 3773 838 
Q 3776 800 3757 774 
L 3597 576 
Q 3539 506 3462 576 
Q 3283 730 3094 944 
Q 2906 1158 2730 1395 
Q 2554 1632 2400 1881 
Q 2246 2131 2138 2362 
Q 1933 1779 1600 1289 
Q 1267 800 806 378 
Q 742 326 698 371 
L 506 570 
Q 486 589 489 621 
Q 493 653 525 685 
Q 915 1056 1203 1465 
Q 1491 1875 1673 2348 
Q 1856 2822 1942 3379 
Q 2029 3936 2029 4602 
Q 2029 4646 2051 4668 
Q 2074 4691 2106 4691 
L 2406 4678 
Q 2477 4678 2477 4589 
z
M 5120 -806 
Q 5120 -896 5030 -896 
L 4768 -896 
Q 4678 -896 4678 -806 
L 4678 4915 
Q 4678 5005 4768 5005 
L 5030 5005 
Q 5120 5005 5120 4915 
L 5120 2586 
L 6003 2586 
Q 6042 2586 6070 2563 
Q 6099 2541 6099 2502 
L 6099 2285 
Q 6099 2253 6070 2227 
Q 6042 2202 6003 2202 
L 5120 2202 
L 5120 -806 
z
" transform="scale(0.015625)"/>
      <path id="NanumGothicCoding-b418" d="M 4474 902 
Q 4576 922 4582 858 
L 4621 634 
Q 4634 557 4538 544 
Q 4326 506 4076 470 
Q 3827 435 3561 406 
Q 3296 378 3027 352 
Q 2758 326 2502 314 
Q 2317 301 2057 294 
Q 1798 288 1526 285 
Q 1254 282 998 282 
Q 742 282 563 288 
Q 525 288 496 313 
Q 467 339 467 371 
L 467 589 
Q 467 627 496 649 
Q 525 672 563 672 
Q 704 666 912 662 
Q 1120 659 1350 659 
Q 1581 659 1817 665 
Q 2054 672 2259 678 
L 2259 2029 
L 1434 2029 
Q 1152 2029 1049 2121 
Q 947 2214 947 2483 
L 947 3974 
Q 947 4243 1049 4336 
Q 1152 4429 1434 4429 
L 3885 4429 
Q 3968 4429 3968 4346 
L 3968 4134 
Q 3968 4045 3885 4045 
L 1542 4045 
Q 1453 4045 1421 4009 
Q 1389 3974 1389 3878 
L 1389 2579 
Q 1389 2490 1421 2451 
Q 1453 2413 1542 2413 
L 3930 2413 
Q 4013 2413 4013 2330 
L 4013 2118 
Q 4013 2029 3930 2029 
L 2701 2029 
L 2701 698 
Q 2918 710 3155 732 
Q 3392 755 3629 780 
Q 3866 806 4083 838 
Q 4301 870 4474 902 
z
M 5344 -806 
Q 5344 -896 5254 -896 
L 4992 -896 
Q 4902 -896 4902 -806 
L 4902 4915 
Q 4902 5005 4992 5005 
L 5254 5005 
Q 5344 5005 5344 4915 
L 5344 -806 
z
" transform="scale(0.015625)"/>
     </defs>
     <use xlink:href="#NanumGothicCoding-32"/>
     <use xlink:href="#NanumGothicCoding-2e" transform="translate(49.999985 0)"/>
     <use xlink:href="#NanumGothicCoding-20" transform="translate(99.999969 0)"/>
     <use xlink:href="#NanumGothicCoding-cd1d" transform="translate(149.999954 0)"/>
     <use xlink:href="#NanumGothicCoding-c54c" transform="translate(249.999939 0)"/>
     <use xlink:href="#NanumGothicCoding-c774" transform="translate(349.999924 0)"/>
     <use xlink:href="#NanumGothicCoding-20" transform="translate(449.999908 0)"/>
     <use xlink:href="#NanumGothicCoding-bcbd" transform="translate(499.999893 0)"/>
     <use xlink:href="#NanumGothicCoding-c5d0" transform="translate(599.999878 0)"/>
     <use xlink:href="#NanumGothicCoding-20" transform="translate(699.999863 0)"/>
     <use xlink:href="#NanumGothicCoding-bc18" transform="translate(749.999847 0)"/>
     <use xlink:href="#NanumGothicCoding-c0ac" transform="translate(849.999832 0)"/>
     <use xlink:href="#NanumGothicCoding-b418" transform="translate(949.999817 0)"/>
     <use xlink:href="#NanumGothicCoding-ae30" transform="translate(1049.999802 0)"/>
    </g>
   </g>
   <g id="text_3">
    <!-- 3. 캐릭터가 경사면에서 미끄러지기 -->
    <g style="fill: #111827" transform="translate(17.76816 68.455559) scale(0.11 -0.11)">
     <defs>
      <path id="NanumGothicCoding-33" d="M 461 -186 
Q 365 -160 378 -38 
L 403 192 
Q 416 269 506 230 
Q 704 147 928 96 
Q 1152 45 1382 45 
Q 1837 45 2125 262 
Q 2515 538 2515 973 
Q 2509 1798 1222 1798 
L 1088 1798 
Q 1005 1798 1005 1869 
L 1005 2106 
Q 1005 2189 1088 2189 
L 1120 2189 
Q 1536 2189 1914 2330 
Q 2483 2560 2483 3046 
Q 2483 3219 2396 3360 
Q 2310 3501 2125 3597 
Q 2003 3667 1833 3708 
Q 1664 3750 1453 3750 
Q 1254 3750 1056 3692 
Q 858 3635 678 3539 
Q 602 3507 589 3590 
L 563 3821 
Q 550 3910 640 3949 
Q 851 4045 1068 4093 
Q 1286 4141 1498 4141 
Q 2061 4141 2483 3872 
Q 2931 3552 2931 3046 
Q 2931 2643 2650 2368 
Q 2374 2112 1978 2010 
Q 2144 1990 2345 1894 
Q 2547 1798 2669 1664 
Q 2816 1504 2889 1321 
Q 2963 1139 2963 947 
Q 2963 666 2848 432 
Q 2733 198 2496 13 
Q 2259 -173 1987 -259 
Q 1715 -346 1395 -346 
Q 1184 -346 944 -310 
Q 704 -275 461 -186 
z
" transform="scale(0.015625)"/>
      <path id="NanumGothicCoding-ce90" d="M 4320 2592 
L 5133 2592 
L 5133 4915 
Q 5133 5005 5222 5005 
L 5466 5005 
Q 5555 5005 5555 4915 
L 5555 -806 
Q 5555 -896 5466 -896 
L 5222 -896 
Q 5133 -896 5133 -806 
L 5133 2208 
L 4320 2208 
L 4320 -563 
Q 4320 -653 4230 -653 
L 3987 -653 
Q 3898 -653 3898 -563 
L 3898 4806 
Q 3898 4896 3987 4896 
L 4230 4896 
Q 4320 4896 4320 4806 
L 4320 2592 
z
M 877 2970 
Q 1261 2970 1545 2982 
Q 1830 2995 2067 3008 
Q 2106 3008 2166 3011 
Q 2227 3014 2297 3017 
Q 2368 3021 2441 3024 
Q 2515 3027 2579 3034 
Q 2650 3232 2694 3437 
Q 2739 3642 2758 3853 
Q 2771 4013 2732 4061 
Q 2694 4109 2566 4109 
L 973 4109 
Q 896 4109 896 4186 
L 896 4416 
Q 896 4448 921 4470 
Q 947 4493 979 4493 
L 2720 4493 
Q 3008 4493 3126 4371 
Q 3245 4250 3226 4006 
Q 3136 2950 2589 2105 
Q 2042 1261 1018 576 
Q 934 518 890 582 
L 749 781 
Q 691 870 774 915 
Q 1331 1267 1744 1705 
Q 2157 2144 2413 2650 
Q 2330 2637 2243 2637 
Q 2157 2637 2106 2637 
Q 1798 2624 1510 2611 
Q 1222 2598 877 2598 
Q 794 2598 794 2675 
L 794 2893 
Q 794 2970 877 2970 
z
" transform="scale(0.015625)"/>
      <path id="NanumGothicCoding-b9ad" d="M 5344 1504 
Q 5344 1414 5254 1414 
L 4992 1414 
Q 4902 1414 4902 1504 
L 4902 4915 
Q 4902 5005 4992 5005 
L 5254 5005 
Q 5344 5005 5344 4915 
L 5344 1504 
z
M 1613 979 
Q 1613 1018 1645 1037 
Q 1677 1056 1709 1056 
L 4858 1056 
Q 5158 1056 5251 944 
Q 5344 832 5344 570 
L 5344 -832 
Q 5344 -922 5254 -922 
L 4992 -922 
Q 4902 -922 4902 -832 
L 4902 538 
Q 4902 627 4873 649 
Q 4845 672 4755 672 
L 1709 672 
Q 1677 672 1645 694 
Q 1613 717 1613 749 
L 1613 979 
z
M 1389 1773 
Q 1101 1773 1001 1885 
Q 902 1997 902 2266 
L 902 3021 
Q 902 3290 1014 3382 
Q 1126 3475 1414 3475 
L 2957 3475 
Q 3046 3475 3072 3500 
Q 3098 3526 3098 3622 
L 3098 4198 
Q 3098 4294 3075 4320 
Q 3053 4346 2963 4346 
L 1005 4346 
Q 928 4346 928 4429 
L 928 4653 
Q 928 4730 1005 4730 
L 3034 4730 
Q 3187 4730 3283 4707 
Q 3379 4685 3436 4633 
Q 3494 4582 3516 4489 
Q 3539 4397 3539 4262 
L 3539 3546 
Q 3539 3277 3427 3184 
Q 3315 3091 3027 3091 
L 1478 3091 
Q 1389 3091 1366 3065 
Q 1344 3040 1344 2944 
L 1344 2298 
Q 1344 2150 1485 2150 
Q 1862 2150 2208 2163 
Q 2554 2176 2883 2205 
Q 3213 2234 3533 2275 
Q 3853 2317 4186 2374 
Q 4250 2387 4272 2374 
Q 4294 2362 4307 2310 
L 4346 2106 
Q 4358 2048 4336 2029 
Q 4314 2010 4256 1997 
Q 3654 1888 2912 1827 
Q 2170 1766 1389 1773 
z
" transform="scale(0.015625)"/>
      <path id="NanumGothicCoding-d130" d="M 3174 2464 
Q 2989 2451 2774 2441 
Q 2560 2432 2342 2425 
Q 2125 2419 1920 2419 
Q 1715 2419 1549 2426 
L 1280 2426 
L 1280 1229 
Q 1280 1133 1312 1097 
Q 1344 1062 1434 1062 
Q 1971 1050 2598 1098 
Q 3226 1146 3782 1254 
Q 3891 1274 3910 1184 
L 3942 998 
Q 3955 941 3936 918 
Q 3917 896 3859 883 
Q 3590 826 3270 784 
Q 2950 742 2617 713 
Q 2285 685 1955 672 
Q 1626 659 1338 666 
Q 1050 672 944 800 
Q 838 928 838 1197 
L 838 4077 
Q 838 4346 940 4435 
Q 1043 4525 1325 4525 
L 3334 4525 
Q 3418 4525 3418 4448 
L 3418 4218 
Q 3418 4141 3334 4141 
L 1408 4141 
Q 1318 4141 1299 4118 
Q 1280 4096 1280 4000 
L 1280 2797 
L 1549 2797 
Q 1709 2797 1910 2797 
Q 2112 2797 2329 2803 
Q 2547 2810 2764 2816 
Q 2982 2822 3174 2835 
Q 3213 2842 3235 2816 
Q 3258 2790 3258 2758 
L 3258 2541 
Q 3258 2477 3174 2464 
z
M 5344 -806 
Q 5344 -896 5254 -896 
L 4992 -896 
Q 4902 -896 4902 -806 
L 4902 2470 
L 3814 2470 
Q 3731 2470 3731 2547 
L 3731 2778 
Q 3731 2854 3814 2854 
L 4902 2854 
L 4902 4915 
Q 4902 5005 4992 5005 
L 5254 5005 
Q 5344 5005 5344 4915 
L 5344 -806 
z
" transform="scale(0.015625)"/>
      <path id="NanumGothicCoding-ac00" d="M 3437 4064 
Q 3405 3514 3219 2982 
Q 3034 2451 2704 1968 
Q 2374 1485 1910 1072 
Q 1446 659 858 346 
Q 774 301 736 365 
L 595 589 
Q 550 666 621 698 
Q 1165 979 1584 1340 
Q 2003 1702 2300 2124 
Q 2598 2547 2771 3014 
Q 2944 3482 2989 3974 
Q 3002 4070 2963 4105 
Q 2925 4141 2835 4141 
L 851 4141 
Q 774 4141 774 4224 
L 774 4448 
Q 774 4525 851 4525 
L 2957 4525 
Q 3258 4525 3354 4413 
Q 3450 4301 3437 4064 
z
M 5120 -806 
Q 5120 -896 5030 -896 
L 4768 -896 
Q 4678 -896 4678 -806 
L 4678 4915 
Q 4678 5005 4768 5005 
L 5030 5005 
Q 5120 5005 5120 4915 
L 5120 2650 
L 6003 2650 
Q 6042 2650 6070 2627 
Q 6099 2605 6099 2566 
L 6099 2349 
Q 6099 2317 6070 2291 
Q 6042 2266 6003 2266 
L 5120 2266 
L 5120 -806 
z
" transform="scale(0.015625)"/>
      <path id="NanumGothicCoding-acbd" d="M 5395 250 
Q 5395 -26 5248 -243 
Q 5101 -461 4848 -611 
Q 4595 -762 4259 -842 
Q 3923 -922 3539 -922 
Q 3123 -922 2784 -842 
Q 2445 -762 2201 -611 
Q 1958 -461 1824 -243 
Q 1690 -26 1690 250 
Q 1690 518 1824 732 
Q 1958 947 2201 1097 
Q 2445 1248 2784 1328 
Q 3123 1408 3539 1408 
Q 3923 1408 4259 1328 
Q 4595 1248 4848 1101 
Q 5101 954 5248 739 
Q 5395 525 5395 250 
z
M 3622 4269 
Q 3603 4173 3584 4080 
Q 3565 3987 3539 3898 
L 4902 3898 
L 4902 4915 
Q 4902 5005 4992 5005 
L 5254 5005 
Q 5344 5005 5344 4915 
L 5344 1523 
Q 5344 1434 5254 1434 
L 4992 1434 
Q 4902 1434 4902 1523 
L 4902 2368 
L 3270 2368 
Q 3187 2368 3187 2445 
L 3187 2669 
Q 3187 2746 3270 2746 
L 4902 2746 
L 4902 3520 
L 3398 3520 
Q 3123 2899 2553 2403 
Q 1984 1907 1062 1523 
Q 960 1478 922 1562 
L 826 1773 
Q 800 1824 819 1856 
Q 838 1888 877 1901 
Q 1894 2323 2457 2902 
Q 3021 3482 3142 4154 
Q 3181 4339 2989 4339 
L 1050 4339 
Q 973 4339 973 4422 
L 973 4646 
Q 973 4723 1050 4723 
L 3136 4723 
Q 3443 4723 3552 4614 
Q 3661 4506 3622 4269 
z
M 4941 230 
Q 4941 422 4825 569 
Q 4710 717 4515 816 
Q 4320 915 4064 969 
Q 3808 1024 3533 1024 
Q 3226 1024 2970 969 
Q 2714 915 2531 816 
Q 2349 717 2246 569 
Q 2144 422 2144 230 
Q 2144 45 2246 -99 
Q 2349 -243 2531 -339 
Q 2714 -435 2970 -486 
Q 3226 -538 3533 -538 
Q 3808 -538 4064 -486 
Q 4320 -435 4515 -339 
Q 4710 -243 4825 -99 
Q 4941 45 4941 230 
z
" transform="scale(0.015625)"/>
      <path id="NanumGothicCoding-ba74" d="M 5344 877 
Q 5344 787 5254 787 
L 4992 787 
Q 4902 787 4902 877 
L 4902 2381 
L 3635 2381 
L 3635 2227 
Q 3635 1958 3532 1865 
Q 3430 1773 3149 1773 
L 1389 1773 
Q 1235 1773 1142 1792 
Q 1050 1811 995 1865 
Q 941 1920 921 2006 
Q 902 2093 902 2227 
L 902 4205 
Q 902 4474 1004 4566 
Q 1107 4659 1389 4659 
L 3149 4659 
Q 3302 4659 3395 4640 
Q 3488 4621 3542 4569 
Q 3597 4518 3616 4428 
Q 3635 4339 3635 4205 
L 3635 3974 
L 4902 3974 
L 4902 4915 
Q 4902 5005 4992 5005 
L 5254 5005 
Q 5344 5005 5344 4915 
L 5344 877 
z
M 1498 4275 
Q 1408 4275 1376 4240 
Q 1344 4205 1344 4109 
L 1344 2323 
Q 1344 2227 1376 2192 
Q 1408 2157 1498 2157 
L 3040 2157 
Q 3130 2157 3162 2192 
Q 3194 2227 3194 2323 
L 3194 4109 
Q 3194 4205 3162 4240 
Q 3130 4275 3040 4275 
L 1498 4275 
z
M 5542 -704 
Q 5542 -742 5510 -761 
Q 5478 -781 5446 -781 
L 2240 -781 
Q 1939 -781 1846 -669 
Q 1754 -557 1754 -294 
L 1754 1005 
Q 1754 1094 1843 1094 
L 2106 1094 
Q 2195 1094 2195 1005 
L 2195 -262 
Q 2195 -352 2224 -374 
Q 2253 -397 2342 -397 
L 5446 -397 
Q 5478 -397 5510 -419 
Q 5542 -442 5542 -474 
L 5542 -704 
z
M 3635 2758 
L 4902 2758 
L 4902 3597 
L 3635 3597 
L 3635 2758 
z
" transform="scale(0.015625)"/>
      <path id="NanumGothicCoding-c11c" d="M 5344 -806 
Q 5344 -896 5254 -896 
L 4992 -896 
Q 4902 -896 4902 -806 
L 4902 2534 
L 3501 2534 
Q 3418 2534 3418 2611 
L 3418 2842 
Q 3418 2918 3501 2918 
L 4902 2918 
L 4902 4915 
Q 4902 5005 4992 5005 
L 5254 5005 
Q 5344 5005 5344 4915 
L 5344 -806 
z
M 2515 4589 
Q 2515 4166 2480 3779 
Q 2445 3392 2368 3034 
Q 2432 2778 2566 2493 
Q 2701 2208 2883 1926 
Q 3066 1645 3293 1379 
Q 3520 1114 3776 902 
Q 3808 877 3811 838 
Q 3814 800 3795 774 
L 3635 576 
Q 3578 506 3501 576 
Q 3322 730 3133 944 
Q 2944 1158 2768 1395 
Q 2592 1632 2438 1881 
Q 2285 2131 2176 2362 
Q 1971 1779 1638 1289 
Q 1306 800 845 378 
Q 781 326 736 371 
L 544 570 
Q 525 589 528 621 
Q 531 653 563 685 
Q 954 1056 1242 1465 
Q 1530 1875 1712 2348 
Q 1894 2822 1980 3379 
Q 2067 3936 2067 4602 
Q 2067 4646 2089 4668 
Q 2112 4691 2144 4691 
L 2445 4678 
Q 2515 4678 2515 4589 
z
" transform="scale(0.015625)"/>
      <path id="NanumGothicCoding-bbf8" d="M 5344 -806 
Q 5344 -896 5254 -896 
L 4992 -896 
Q 4902 -896 4902 -806 
L 4902 4915 
Q 4902 5005 4992 5005 
L 5254 5005 
Q 5344 5005 5344 4915 
L 5344 -806 
z
M 896 4070 
Q 896 4339 998 4432 
Q 1101 4525 1382 4525 
L 3264 4525 
Q 3418 4525 3510 4505 
Q 3603 4486 3657 4435 
Q 3712 4384 3731 4294 
Q 3750 4205 3750 4070 
L 3750 1235 
Q 3750 966 3648 873 
Q 3546 781 3264 781 
L 1382 781 
Q 1229 781 1136 800 
Q 1043 819 988 873 
Q 934 928 915 1014 
Q 896 1101 896 1235 
L 896 4070 
z
M 1491 4141 
Q 1402 4141 1370 4105 
Q 1338 4070 1338 3974 
L 1338 1331 
Q 1338 1235 1370 1200 
Q 1402 1165 1491 1165 
L 3155 1165 
Q 3245 1165 3277 1200 
Q 3309 1235 3309 1331 
L 3309 3974 
Q 3309 4070 3277 4105 
Q 3245 4141 3155 4141 
L 1491 4141 
z
" transform="scale(0.015625)"/>
      <path id="NanumGothicCoding-b044" d="M 3123 4384 
Q 3123 4422 3155 4441 
Q 3187 4461 3219 4461 
L 4851 4461 
Q 5005 4461 5097 4429 
Q 5190 4397 5241 4336 
Q 5293 4275 5315 4179 
Q 5338 4083 5338 3949 
Q 5338 3827 5322 3577 
Q 5306 3328 5280 3008 
Q 5254 2688 5219 2326 
Q 5184 1965 5145 1622 
Q 5107 1280 5072 982 
Q 5037 685 5005 499 
L 5920 499 
Q 5952 499 5984 476 
Q 6016 454 6016 416 
L 6016 198 
Q 6016 166 5984 140 
Q 5952 115 5920 115 
L 480 115 
Q 442 115 413 140 
Q 384 166 384 198 
L 384 416 
Q 384 454 413 476 
Q 442 499 480 499 
L 2118 499 
Q 2189 845 2259 1296 
Q 2330 1747 2387 2220 
Q 2445 2694 2483 3148 
Q 2522 3603 2522 3955 
Q 2522 4045 2493 4067 
Q 2464 4090 2374 4090 
L 973 4090 
Q 941 4090 909 4112 
Q 877 4134 877 4166 
L 877 4384 
Q 877 4422 909 4441 
Q 941 4461 973 4461 
L 2458 4461 
Q 2758 4461 2854 4336 
Q 2950 4211 2944 3949 
Q 2938 3661 2909 3251 
Q 2880 2842 2825 2378 
Q 2771 1914 2700 1427 
Q 2630 941 2547 499 
L 4582 499 
Q 4614 691 4652 988 
Q 4691 1286 4729 1625 
Q 4768 1965 4803 2323 
Q 4838 2682 4864 3002 
Q 4890 3322 4902 3574 
Q 4915 3827 4915 3955 
Q 4915 4045 4886 4067 
Q 4858 4090 4768 4090 
L 3219 4090 
Q 3187 4090 3155 4112 
Q 3123 4134 3123 4166 
L 3123 4384 
z
" transform="scale(0.015625)"/>
      <path id="NanumGothicCoding-b7ec" d="M 1344 550 
Q 1056 563 957 668 
Q 858 774 858 1043 
L 858 2317 
Q 858 2586 970 2678 
Q 1082 2771 1370 2771 
L 2752 2771 
Q 2842 2771 2867 2796 
Q 2893 2822 2893 2918 
L 2893 3994 
Q 2893 4090 2870 4115 
Q 2848 4141 2758 4141 
L 973 4141 
Q 941 4141 912 4160 
Q 883 4179 883 4211 
L 883 4454 
Q 883 4486 912 4505 
Q 941 4525 973 4525 
L 2829 4525 
Q 2982 4525 3078 4502 
Q 3174 4480 3232 4429 
Q 3290 4378 3312 4285 
Q 3334 4192 3334 4058 
L 3334 2842 
Q 3334 2573 3222 2480 
Q 3110 2387 2822 2387 
L 1434 2387 
Q 1344 2387 1321 2361 
Q 1299 2336 1299 2240 
L 1299 1075 
Q 1299 928 1440 928 
Q 2061 915 2633 963 
Q 3206 1011 3814 1139 
Q 3904 1158 3923 1075 
L 3962 864 
Q 3974 774 3878 755 
Q 3302 634 2643 576 
Q 1984 518 1344 550 
z
M 4902 2746 
L 4902 4915 
Q 4902 5005 4992 5005 
L 5254 5005 
Q 5344 5005 5344 4915 
L 5344 -806 
Q 5344 -896 5254 -896 
L 4992 -896 
Q 4902 -896 4902 -806 
L 4902 2362 
L 3725 2362 
Q 3642 2362 3642 2438 
L 3642 2669 
Q 3642 2746 3725 2746 
L 4902 2746 
z
" transform="scale(0.015625)"/>
      <path id="NanumGothicCoding-c9c0" d="M 4019 858 
Q 4000 826 3971 819 
Q 3942 813 3891 851 
Q 3738 966 3565 1116 
Q 3392 1267 3225 1436 
Q 3059 1606 2899 1788 
Q 2739 1971 2605 2150 
Q 2285 1747 1875 1379 
Q 1466 1011 941 646 
Q 909 627 877 617 
Q 845 608 826 634 
L 672 832 
Q 646 864 652 899 
Q 659 934 685 954 
Q 1709 1677 2281 2419 
Q 2854 3162 3078 3968 
Q 3104 4058 3081 4099 
Q 3059 4141 2970 4141 
L 1030 4141 
Q 954 4141 954 4224 
L 954 4448 
Q 954 4525 1043 4525 
L 3142 4525 
Q 3475 4525 3564 4409 
Q 3654 4294 3565 4000 
Q 3315 3181 2861 2496 
Q 3008 2291 3174 2092 
Q 3341 1894 3507 1718 
Q 3674 1542 3840 1398 
Q 4006 1254 4154 1158 
Q 4186 1133 4186 1101 
Q 4186 1069 4166 1043 
L 4019 858 
z
M 5344 -806 
Q 5344 -896 5254 -896 
L 4992 -896 
Q 4902 -896 4902 -806 
L 4902 4915 
Q 4902 5005 4992 5005 
L 5254 5005 
Q 5344 5005 5344 4915 
L 5344 -806 
z
" transform="scale(0.015625)"/>
     </defs>
     <use xlink:href="#NanumGothicCoding-33"/>
     <use xlink:href="#NanumGothicCoding-2e" transform="translate(49.999985 0)"/>
     <use xlink:href="#NanumGothicCoding-20" transform="translate(99.999969 0)"/>
     <use xlink:href="#NanumGothicCoding-ce90" transform="translate(149.999954 0)"/>
     <use xlink:href="#NanumGothicCoding-b9ad" transform="translate(249.999939 0)"/>
     <use xlink:href="#NanumGothicCoding-d130" transform="translate(349.999924 0)"/>
     <use xlink:href="#NanumGothicCoding-ac00" transform="translate(449.999908 0)"/>
     <use xlink:href="#NanumGothicCoding-20" transform="translate(549.999893 0)"/>
     <use xlink:href="#NanumGothicCoding-acbd" transform="translate(599.999878 0)"/>
     <use xlink:href="#NanumGothicCoding-c0ac" transform="translate(699.999863 0)"/>
     <use xlink:href="#NanumGothicCoding-ba74" transform="translate(799.999847 0)"/>
     <use xlink:href="#NanumGothicCoding-c5d0" transform="translate(899.999832 0)"/>
     <use xlink:href="#NanumGothicCoding-c11c" transform="translate(999.999817 0)"/>
     <use xlink:href="#NanumGothicCoding-20" transform="translate(1099.999802 0)"/>
     <use xlink:href="#NanumGothicCoding-bbf8" transform="translate(1149.999786 0)"/>
     <use xlink:href="#NanumGothicCoding-b044" transform="translate(1249.999771 0)"/>
     <use xlink:href="#NanumGothicCoding-b7ec" transform="translate(1349.999756 0)"/>
     <use xlink:href="#NanumGothicCoding-c9c0" transform="translate(1449.999741 0)"/>
     <use xlink:href="#NanumGothicCoding-ae30" transform="translate(1549.999725 0)"/>
    </g>
   </g>
   <g id="text_4">
    <!-- 4. 마우스 방향으로 이동/회전하기 -->
    <g style="fill: #111827" transform="translate(17.76816 86.173575) scale(0.11 -0.11)">
     <defs>
      <path id="NanumGothicCoding-34" d="M 1907 1216 
L 1907 3622 
L 570 1216 
L 1907 1216 
z
M 2342 -211 
Q 2342 -301 2253 -301 
L 1997 -301 
Q 1907 -301 1907 -211 
L 1907 826 
L 346 826 
Q 211 826 188 848 
Q 166 870 166 1005 
L 166 1203 
Q 166 1261 172 1280 
Q 179 1299 211 1350 
L 1702 4013 
Q 1741 4070 1757 4080 
Q 1773 4090 1843 4090 
L 2163 4090 
Q 2298 4090 2320 4067 
Q 2342 4045 2342 3910 
L 2342 1216 
L 3040 1216 
Q 3130 1216 3130 1126 
L 3130 915 
Q 3130 826 3040 826 
L 2342 826 
L 2342 -211 
z
" transform="scale(0.015625)"/>
      <path id="NanumGothicCoding-b9c8" d="M 800 4070 
Q 800 4339 902 4432 
Q 1005 4525 1286 4525 
L 3168 4525 
Q 3322 4525 3414 4505 
Q 3507 4486 3561 4435 
Q 3616 4384 3635 4294 
Q 3654 4205 3654 4070 
L 3654 1235 
Q 3654 966 3552 873 
Q 3450 781 3168 781 
L 1286 781 
Q 1133 781 1040 800 
Q 947 819 892 873 
Q 838 928 819 1014 
Q 800 1101 800 1235 
L 800 4070 
z
M 1395 4141 
Q 1306 4141 1274 4105 
Q 1242 4070 1242 3974 
L 1242 1331 
Q 1242 1235 1274 1200 
Q 1306 1165 1395 1165 
L 3059 1165 
Q 3149 1165 3181 1200 
Q 3213 1235 3213 1331 
L 3213 3974 
Q 3213 4070 3181 4105 
Q 3149 4141 3059 4141 
L 1395 4141 
z
M 5120 -806 
Q 5120 -896 5030 -896 
L 4768 -896 
Q 4678 -896 4678 -806 
L 4678 4915 
Q 4678 5005 4768 5005 
L 5030 5005 
Q 5120 5005 5120 4915 
L 5120 2586 
L 6003 2586 
Q 6042 2586 6070 2563 
Q 6099 2541 6099 2502 
L 6099 2285 
Q 6099 2253 6070 2227 
Q 6042 2202 6003 2202 
L 5120 2202 
L 5120 -806 
z
" transform="scale(0.015625)"/>
      <path id="NanumGothicCoding-c6b0" d="M 3187 2387 
Q 2861 2387 2499 2457 
Q 2138 2528 1834 2678 
Q 1530 2829 1334 3072 
Q 1139 3315 1139 3661 
Q 1139 4006 1334 4249 
Q 1530 4493 1834 4643 
Q 2138 4794 2499 4861 
Q 2861 4928 3187 4928 
Q 3520 4928 3885 4861 
Q 4250 4794 4547 4643 
Q 4845 4493 5040 4249 
Q 5235 4006 5235 3661 
Q 5235 3315 5040 3072 
Q 4845 2829 4547 2678 
Q 4250 2528 3885 2457 
Q 3520 2387 3187 2387 
z
M 3187 4525 
Q 2963 4525 2691 4489 
Q 2419 4454 2179 4358 
Q 1939 4262 1776 4092 
Q 1613 3923 1613 3654 
Q 1613 3386 1776 3219 
Q 1939 3053 2179 2957 
Q 2419 2861 2691 2825 
Q 2963 2790 3187 2790 
Q 3405 2790 3677 2825 
Q 3949 2861 4189 2957 
Q 4429 3053 4595 3219 
Q 4762 3386 4762 3654 
Q 4762 3923 4595 4092 
Q 4429 4262 4189 4358 
Q 3949 4454 3677 4489 
Q 3405 4525 3187 4525 
z
M 3046 -858 
Q 3014 -858 2988 -829 
Q 2963 -800 2963 -762 
L 2963 1331 
L 480 1331 
Q 442 1331 413 1356 
Q 384 1382 384 1414 
L 384 1632 
Q 384 1670 413 1692 
Q 442 1715 480 1715 
L 5920 1715 
Q 5952 1715 5984 1692 
Q 6016 1670 6016 1632 
L 6016 1414 
Q 6016 1382 5984 1356 
Q 5952 1331 5920 1331 
L 3405 1331 
L 3405 -762 
Q 3405 -800 3382 -829 
Q 3360 -858 3322 -858 
L 3046 -858 
z
" transform="scale(0.015625)"/>
      <path id="NanumGothicCoding-c2a4" d="M 3424 4608 
Q 3405 4429 3360 4269 
Q 3373 4198 3392 4137 
Q 3411 4077 3437 4032 
Q 3597 3718 3824 3436 
Q 4051 3155 4320 2924 
Q 4589 2694 4893 2524 
Q 5197 2355 5517 2266 
Q 5555 2253 5568 2214 
Q 5581 2176 5568 2144 
L 5466 1933 
Q 5446 1901 5424 1881 
Q 5402 1862 5338 1888 
Q 4986 2010 4662 2195 
Q 4339 2381 4060 2614 
Q 3782 2848 3552 3126 
Q 3322 3405 3155 3706 
Q 3008 3398 2790 3110 
Q 2573 2822 2304 2576 
Q 2035 2330 1721 2131 
Q 1408 1933 1062 1805 
Q 960 1766 934 1830 
L 819 2054 
Q 806 2086 816 2121 
Q 826 2157 864 2176 
Q 1293 2336 1657 2595 
Q 2022 2854 2300 3177 
Q 2579 3501 2755 3878 
Q 2931 4256 2982 4653 
Q 2989 4730 3066 4730 
L 3354 4698 
Q 3430 4685 3424 4608 
z
M 5920 499 
Q 5952 499 5984 476 
Q 6016 454 6016 416 
L 6016 198 
Q 6016 166 5984 140 
Q 5952 115 5920 115 
L 480 115 
Q 442 115 413 140 
Q 384 166 384 198 
L 384 416 
Q 384 454 413 476 
Q 442 499 480 499 
L 5920 499 
z
" transform="scale(0.015625)"/>
      <path id="NanumGothicCoding-bc29" d="M 5197 250 
Q 5197 -26 5049 -243 
Q 4902 -461 4649 -611 
Q 4397 -762 4061 -842 
Q 3725 -922 3341 -922 
Q 2925 -922 2585 -842 
Q 2246 -762 2003 -611 
Q 1760 -461 1625 -243 
Q 1491 -26 1491 250 
Q 1491 518 1625 732 
Q 1760 947 2003 1097 
Q 2246 1248 2585 1328 
Q 2925 1408 3341 1408 
Q 3725 1408 4061 1328 
Q 4397 1248 4649 1101 
Q 4902 954 5049 739 
Q 5197 525 5197 250 
z
M 1350 1971 
Q 1197 1971 1104 1990 
Q 1011 2010 960 2064 
Q 909 2118 889 2204 
Q 870 2291 870 2426 
L 870 4730 
Q 870 4762 896 4784 
Q 922 4806 954 4806 
L 1229 4806 
Q 1261 4806 1283 4780 
Q 1306 4755 1306 4730 
L 1306 3731 
L 3174 3731 
L 3174 4723 
Q 3174 4755 3196 4780 
Q 3219 4806 3251 4806 
L 3526 4806 
Q 3558 4806 3584 4784 
Q 3610 4762 3610 4730 
L 3610 2381 
Q 3610 2138 3507 2054 
Q 3405 1971 3123 1971 
L 1350 1971 
z
M 4742 230 
Q 4742 422 4627 569 
Q 4512 717 4317 816 
Q 4122 915 3866 969 
Q 3610 1024 3334 1024 
Q 3027 1024 2771 969 
Q 2515 915 2332 816 
Q 2150 717 2048 569 
Q 1946 422 1946 230 
Q 1946 45 2048 -99 
Q 2150 -243 2332 -339 
Q 2515 -435 2771 -486 
Q 3027 -538 3334 -538 
Q 3610 -538 3866 -486 
Q 4122 -435 4317 -339 
Q 4512 -243 4627 -99 
Q 4742 45 4742 230 
z
M 5120 1530 
Q 5120 1440 5030 1440 
L 4768 1440 
Q 4678 1440 4678 1530 
L 4678 4915 
Q 4678 5005 4768 5005 
L 5030 5005 
Q 5120 5005 5120 4915 
L 5120 3373 
L 6003 3373 
Q 6042 3373 6070 3347 
Q 6099 3322 6099 3283 
L 6099 3072 
Q 6099 3040 6070 3014 
Q 6042 2989 6003 2989 
L 5120 2989 
L 5120 1530 
z
M 1306 3354 
L 1306 2502 
Q 1306 2406 1338 2377 
Q 1370 2349 1459 2349 
L 3021 2349 
Q 3110 2349 3142 2377 
Q 3174 2406 3174 2502 
L 3174 3354 
L 1306 3354 
z
" transform="scale(0.015625)"/>
      <path id="NanumGothicCoding-d5a5" d="M 5197 64 
Q 5197 -160 5049 -339 
Q 4902 -518 4649 -646 
Q 4397 -774 4061 -844 
Q 3725 -915 3341 -915 
Q 2925 -915 2585 -844 
Q 2246 -774 2003 -646 
Q 1760 -518 1625 -339 
Q 1491 -160 1491 64 
Q 1491 282 1625 458 
Q 1760 634 2003 762 
Q 2246 890 2585 960 
Q 2925 1030 3341 1030 
Q 3725 1030 4061 963 
Q 4397 896 4649 768 
Q 4902 640 5049 461 
Q 5197 282 5197 64 
z
M 3725 2413 
Q 3725 2182 3619 1993 
Q 3514 1805 3331 1664 
Q 3149 1523 2896 1446 
Q 2643 1370 2349 1370 
Q 2048 1370 1798 1446 
Q 1549 1523 1363 1664 
Q 1178 1805 1075 1997 
Q 973 2189 973 2413 
Q 973 2643 1075 2835 
Q 1178 3027 1363 3161 
Q 1549 3296 1798 3373 
Q 2048 3450 2349 3450 
Q 2643 3450 2896 3373 
Q 3149 3296 3331 3158 
Q 3514 3021 3619 2829 
Q 3725 2637 3725 2413 
z
M 4742 45 
Q 4742 192 4627 307 
Q 4512 422 4317 502 
Q 4122 582 3866 624 
Q 3610 666 3334 666 
Q 3027 666 2771 624 
Q 2515 582 2332 502 
Q 2150 422 2048 307 
Q 1946 192 1946 45 
Q 1946 -96 2048 -208 
Q 2150 -320 2332 -397 
Q 2515 -474 2771 -512 
Q 3027 -550 3334 -550 
Q 3610 -550 3866 -512 
Q 4122 -474 4317 -397 
Q 4512 -320 4627 -208 
Q 4742 -96 4742 45 
z
M 5120 1254 
Q 5120 1165 5030 1165 
L 4768 1165 
Q 4678 1165 4678 1254 
L 4678 4915 
Q 4678 5005 4768 5005 
L 5030 5005 
Q 5120 5005 5120 4915 
L 5120 3776 
L 6003 3776 
Q 6042 3776 6070 3753 
Q 6099 3731 6099 3693 
L 6099 3482 
Q 6099 3450 6070 3424 
Q 6042 3398 6003 3398 
L 5120 3398 
L 5120 2630 
L 6003 2630 
Q 6042 2630 6070 2608 
Q 6099 2586 6099 2547 
L 6099 2336 
Q 6099 2304 6070 2278 
Q 6042 2253 6003 2253 
L 5120 2253 
L 5120 1254 
z
M 3296 2413 
Q 3296 2566 3225 2691 
Q 3155 2816 3027 2902 
Q 2899 2989 2726 3037 
Q 2554 3085 2349 3085 
Q 2144 3085 1971 3037 
Q 1798 2989 1670 2902 
Q 1542 2816 1468 2691 
Q 1395 2566 1395 2413 
Q 1395 2259 1468 2134 
Q 1542 2010 1670 1920 
Q 1798 1830 1971 1782 
Q 2144 1734 2349 1734 
Q 2554 1734 2726 1782 
Q 2899 1830 3027 1920 
Q 3155 2010 3225 2134 
Q 3296 2259 3296 2413 
z
M 4218 3827 
Q 4218 3744 4122 3744 
L 589 3744 
Q 557 3744 528 3769 
Q 499 3795 499 3834 
L 499 4038 
Q 499 4077 528 4102 
Q 557 4128 589 4128 
L 4122 4128 
Q 4218 4128 4218 4045 
L 4218 3827 
z
M 3283 4608 
Q 3283 4518 3187 4518 
L 1434 4518 
Q 1402 4518 1373 4540 
Q 1344 4563 1344 4602 
L 1344 4819 
Q 1344 4858 1369 4883 
Q 1395 4909 1427 4909 
L 3187 4909 
Q 3283 4909 3283 4819 
L 3283 4608 
z
" transform="scale(0.015625)"/>
      <path id="NanumGothicCoding-c73c" d="M 3187 1741 
Q 2848 1741 2486 1824 
Q 2125 1907 1824 2083 
Q 1523 2259 1331 2531 
Q 1139 2803 1139 3187 
Q 1139 3571 1331 3843 
Q 1523 4115 1824 4291 
Q 2125 4467 2486 4547 
Q 2848 4627 3187 4627 
Q 3533 4627 3894 4547 
Q 4256 4467 4553 4291 
Q 4851 4115 5043 3843 
Q 5235 3571 5235 3187 
Q 5235 2803 5043 2531 
Q 4851 2259 4553 2083 
Q 4256 1907 3894 1824 
Q 3533 1741 3187 1741 
z
M 3187 4218 
Q 2957 4218 2681 4170 
Q 2406 4122 2169 4003 
Q 1933 3885 1773 3683 
Q 1613 3482 1613 3181 
Q 1613 2880 1773 2681 
Q 1933 2483 2169 2364 
Q 2406 2246 2681 2198 
Q 2957 2150 3187 2150 
Q 3411 2150 3683 2198 
Q 3955 2246 4195 2364 
Q 4435 2483 4598 2681 
Q 4762 2880 4762 3181 
Q 4762 3482 4598 3683 
Q 4435 3885 4195 4003 
Q 3955 4122 3683 4170 
Q 3411 4218 3187 4218 
z
M 5920 499 
Q 5952 499 5984 476 
Q 6016 454 6016 416 
L 6016 198 
Q 6016 166 5984 140 
Q 5952 115 5920 115 
L 480 115 
Q 442 115 413 140 
Q 384 166 384 198 
L 384 416 
Q 384 454 413 476 
Q 442 499 480 499 
L 5920 499 
z
" transform="scale(0.015625)"/>
      <path id="NanumGothicCoding-b85c" d="M 2963 499 
L 2963 1613 
L 1683 1613 
Q 1382 1613 1289 1725 
Q 1197 1837 1197 2106 
L 1197 2906 
Q 1197 3181 1309 3270 
Q 1421 3360 1709 3360 
L 4595 3360 
Q 4685 3360 4707 3385 
Q 4730 3411 4730 3507 
L 4730 4173 
Q 4730 4269 4707 4294 
Q 4685 4320 4595 4320 
L 1286 4320 
Q 1254 4320 1225 4339 
Q 1197 4358 1197 4390 
L 1197 4634 
Q 1197 4666 1225 4685 
Q 1254 4704 1286 4704 
L 4666 4704 
Q 4819 4704 4915 4681 
Q 5011 4659 5068 4608 
Q 5126 4557 5148 4464 
Q 5171 4371 5171 4237 
L 5171 3437 
Q 5171 3162 5059 3072 
Q 4947 2982 4659 2982 
L 1773 2982 
Q 1683 2982 1660 2956 
Q 1638 2931 1638 2835 
L 1638 2144 
Q 1638 2054 1664 2025 
Q 1690 1997 1779 1997 
L 5216 1997 
Q 5248 1997 5277 1977 
Q 5306 1958 5306 1926 
L 5306 1690 
Q 5306 1658 5277 1635 
Q 5248 1613 5222 1613 
L 3405 1613 
L 3405 499 
L 5920 499 
Q 5952 499 5984 476 
Q 6016 454 6016 416 
L 6016 198 
Q 6016 166 5984 140 
Q 5952 115 5920 115 
L 480 115 
Q 442 115 413 140 
Q 384 166 384 198 
L 384 416 
Q 384 454 413 476 
Q 442 499 480 499 
L 2963 499 
z
" transform="scale(0.015625)"/>
      <path id="NanumGothicCoding-b3d9" d="M 5184 109 
Q 5184 -218 4979 -422 
Q 4774 -627 4473 -742 
Q 4173 -858 3824 -899 
Q 3475 -941 3187 -941 
Q 2995 -941 2774 -921 
Q 2554 -902 2333 -860 
Q 2112 -819 1907 -742 
Q 1702 -666 1545 -547 
Q 1389 -429 1293 -269 
Q 1197 -109 1197 109 
Q 1197 429 1401 630 
Q 1606 832 1907 947 
Q 2208 1062 2557 1107 
Q 2906 1152 3187 1152 
Q 3475 1152 3824 1110 
Q 4173 1069 4477 953 
Q 4781 838 4982 633 
Q 5184 429 5184 109 
z
M 5920 1990 
Q 5952 1990 5984 1968 
Q 6016 1946 6016 1907 
L 6016 1690 
Q 6016 1658 5984 1632 
Q 5952 1606 5920 1606 
L 480 1606 
Q 442 1606 413 1632 
Q 384 1658 384 1690 
L 384 1907 
Q 384 1946 413 1968 
Q 442 1990 480 1990 
L 2970 1990 
L 2970 2816 
L 1786 2816 
Q 1504 2816 1401 2909 
Q 1299 3002 1299 3270 
L 1299 4422 
Q 1299 4691 1401 4784 
Q 1504 4877 1786 4877 
L 5043 4877 
Q 5126 4877 5126 4794 
L 5126 4582 
Q 5126 4493 5043 4493 
L 1894 4493 
Q 1805 4493 1773 4457 
Q 1741 4422 1741 4326 
L 1741 3366 
Q 1741 3277 1773 3238 
Q 1805 3200 1894 3200 
L 5088 3200 
Q 5171 3200 5171 3117 
L 5171 2906 
Q 5171 2816 5088 2816 
L 3411 2816 
L 3411 1990 
L 5920 1990 
z
M 4717 102 
Q 4717 314 4544 438 
Q 4371 563 4128 633 
Q 3885 704 3625 726 
Q 3366 749 3187 749 
Q 3002 749 2742 726 
Q 2483 704 2243 633 
Q 2003 563 1833 438 
Q 1664 314 1664 102 
Q 1664 -102 1833 -230 
Q 2003 -358 2243 -425 
Q 2483 -493 2742 -515 
Q 3002 -538 3187 -538 
Q 3366 -538 3628 -515 
Q 3891 -493 4131 -425 
Q 4371 -358 4544 -230 
Q 4717 -102 4717 102 
z
" transform="scale(0.015625)"/>
      <path id="NanumGothicCoding-2f" d="M 2650 4410 
Q 2726 4410 2736 4397 
Q 2746 4384 2720 4314 
L 934 -486 
Q 909 -544 896 -553 
Q 883 -563 813 -563 
L 544 -563 
Q 467 -563 457 -550 
Q 448 -538 474 -474 
L 2259 4320 
Q 2285 4384 2301 4397 
Q 2317 4410 2400 4410 
L 2650 4410 
z
" transform="scale(0.015625)"/>
      <path id="NanumGothicCoding-d68c" d="M 4474 826 
Q 4576 845 4582 781 
L 4621 538 
Q 4634 467 4538 448 
Q 4307 410 4051 371 
Q 3795 333 3532 301 
Q 3270 269 3004 246 
Q 2739 224 2502 218 
Q 2317 211 2057 204 
Q 1798 198 1526 195 
Q 1254 192 998 189 
Q 742 186 563 192 
Q 525 192 496 217 
Q 467 243 467 275 
L 467 493 
Q 467 531 496 553 
Q 525 576 563 576 
Q 704 570 912 566 
Q 1120 563 1350 566 
Q 1581 570 1817 573 
Q 2054 576 2259 582 
L 2259 1261 
Q 1997 1286 1782 1372 
Q 1568 1459 1414 1596 
Q 1261 1734 1174 1916 
Q 1088 2099 1088 2310 
Q 1088 2547 1193 2742 
Q 1299 2938 1484 3075 
Q 1670 3213 1923 3286 
Q 2176 3360 2477 3360 
Q 2771 3360 3027 3283 
Q 3283 3206 3468 3068 
Q 3654 2931 3760 2739 
Q 3866 2547 3866 2310 
Q 3866 2093 3779 1913 
Q 3693 1734 3539 1600 
Q 3386 1466 3171 1379 
Q 2957 1293 2701 1267 
L 2701 602 
Q 2899 614 3136 640 
Q 3373 666 3609 694 
Q 3846 723 4070 758 
Q 4294 794 4474 826 
z
M 5344 -806 
Q 5344 -896 5254 -896 
L 4992 -896 
Q 4902 -896 4902 -806 
L 4902 4915 
Q 4902 5005 4992 5005 
L 5254 5005 
Q 5344 5005 5344 4915 
L 5344 -806 
z
M 3430 2310 
Q 3430 2637 3161 2809 
Q 2893 2982 2477 2982 
Q 2272 2982 2096 2937 
Q 1920 2893 1792 2809 
Q 1664 2726 1590 2598 
Q 1517 2470 1517 2310 
Q 1517 2150 1590 2025 
Q 1664 1901 1792 1814 
Q 1920 1728 2096 1680 
Q 2272 1632 2477 1632 
Q 2893 1632 3161 1811 
Q 3430 1990 3430 2310 
z
M 4275 3776 
Q 4275 3693 4179 3693 
L 774 3693 
Q 742 3693 713 3718 
Q 685 3744 685 3782 
L 685 3994 
Q 685 4032 713 4057 
Q 742 4083 774 4083 
L 4179 4083 
Q 4275 4083 4275 4000 
L 4275 3776 
z
M 3373 4582 
Q 3373 4493 3277 4493 
L 1587 4493 
Q 1555 4493 1526 4515 
Q 1498 4538 1498 4576 
L 1498 4794 
Q 1498 4832 1523 4857 
Q 1549 4883 1581 4883 
L 3277 4883 
Q 3373 4883 3373 4794 
L 3373 4582 
z
" transform="scale(0.015625)"/>
      <path id="NanumGothicCoding-c804" d="M 3501 4038 
Q 3411 3770 3244 3494 
Q 3078 3219 2854 2950 
Q 3110 2650 3446 2384 
Q 3782 2118 4109 1946 
Q 4192 1907 4147 1824 
L 4000 1606 
Q 3981 1574 3942 1571 
Q 3904 1568 3872 1587 
Q 3546 1766 3210 2048 
Q 2874 2330 2586 2643 
Q 2221 2259 1785 1939 
Q 1350 1619 909 1414 
Q 877 1402 845 1392 
Q 813 1382 794 1414 
L 666 1638 
Q 646 1670 659 1705 
Q 672 1741 704 1754 
Q 1459 2138 2057 2707 
Q 2656 3277 3014 4013 
Q 3059 4102 3027 4140 
Q 2995 4179 2906 4179 
L 1030 4179 
Q 954 4179 954 4262 
L 954 4486 
Q 954 4563 1030 4563 
L 3078 4563 
Q 3411 4563 3507 4444 
Q 3603 4326 3501 4038 
z
M 4902 3296 
L 4902 4915 
Q 4902 5005 4992 5005 
L 5254 5005 
Q 5344 5005 5344 4915 
L 5344 781 
Q 5344 691 5254 691 
L 4992 691 
Q 4902 691 4902 781 
L 4902 2925 
L 3693 2925 
Q 3610 2925 3610 3002 
L 3610 3219 
Q 3610 3296 3693 3296 
L 4902 3296 
z
M 5542 -704 
Q 5542 -742 5510 -761 
Q 5478 -781 5446 -781 
L 2208 -781 
Q 1907 -781 1814 -669 
Q 1722 -557 1722 -294 
L 1722 922 
Q 1722 1011 1811 1011 
L 2074 1011 
Q 2163 1011 2163 922 
L 2163 -262 
Q 2163 -352 2192 -374 
Q 2221 -397 2310 -397 
L 5446 -397 
Q 5478 -397 5510 -419 
Q 5542 -442 5542 -474 
L 5542 -704 
z
" transform="scale(0.015625)"/>
     </defs>
     <use xlink:href="#NanumGothicCoding-34"/>
     <use xlink:href="#NanumGothicCoding-2e" transform="translate(49.999985 0)"/>
     <use xlink:href="#NanumGothicCoding-20" transform="translate(99.999969 0)"/>
     <use xlink:href="#NanumGothicCoding-b9c8" transform="translate(149.999954 0)"/>
     <use xlink:href="#NanumGothicCoding-c6b0" transform="translate(249.999939 0)"/>
     <use xlink:href="#NanumGothicCoding-c2a4" transform="translate(349.999924 0)"/>
     <use xlink:href="#NanumGothicCoding-20" transform="translate(449.999908 0)"/>
     <use xlink:href="#NanumGothicCoding-bc29" transform="translate(499.999893 0)"/>
     <use xlink:href="#NanumGothicCoding-d5a5" transform="translate(599.999878 0)"/>
     <use xlink:href="#NanumGothicCoding-c73c" transform="translate(699.999863 0)"/>
     <use xlink:href="#NanumGothicCoding-b85c" transform="translate(799.999847 0)"/>
     <use xlink:href="#NanumGothicCoding-20" transform="translate(899.999832 0)"/>
     <use xlink:href="#NanumGothicCoding-c774" transform="translate(949.999817 0)"/>
     <use xlink:href="#NanumGothicCoding-b3d9" transform="translate(1049.999802 0)"/>
     <use xlink:href="#NanumGothicCoding-2f" transform="translate(1149.999786 0)"/>
     <use xlink:href="#NanumGothicCoding-d68c" transform="translate(1199.999771 0)"/>
     <use xlink:href="#NanumGothicCoding-c804" transform="translate(1299.999756 0)"/>
     <use xlink:href="#NanumGothicCoding-d558" transform="translate(1399.999741 0)"/>
     <use xlink:href="#NanumGothicCoding-ae30" transform="translate(1499.999725 0)"/>
    </g>
   </g>
   <g id="text_5">
    <!-- 5. 카메라가 캐릭터를 따라가기 -->
    <g style="fill: #111827" transform="translate(17.76816 103.858935) scale(0.11 -0.11)">
     <defs>
      <path id="NanumGothicCoding-35" d="M 576 -205 
Q 493 -173 493 -90 
L 493 179 
Q 493 288 576 243 
Q 800 134 979 89 
Q 1158 45 1350 45 
Q 1773 45 2112 320 
Q 2464 621 2470 1062 
Q 2470 2042 1414 2042 
Q 1267 2042 1100 2013 
Q 934 1984 704 1907 
Q 634 1888 589 1923 
Q 544 1958 544 2029 
L 582 3910 
Q 582 4045 604 4067 
Q 627 4090 755 4090 
L 2611 4090 
Q 2694 4090 2694 4000 
L 2694 3789 
Q 2694 3699 2611 3699 
L 1005 3699 
Q 998 3296 988 2998 
Q 979 2701 973 2317 
Q 1254 2419 1581 2419 
Q 2099 2419 2496 2074 
Q 2899 1702 2899 1152 
Q 2899 486 2445 51 
Q 1965 -346 1350 -346 
Q 1184 -346 989 -317 
Q 794 -288 576 -205 
z
" transform="scale(0.015625)"/>
      <path id="NanumGothicCoding-ce74" d="M 806 2944 
Q 998 2944 1203 2950 
Q 1408 2957 1603 2963 
Q 1798 2970 1968 2976 
Q 2138 2982 2253 2989 
Q 2291 2989 2358 2995 
Q 2426 3002 2502 3005 
Q 2579 3008 2659 3014 
Q 2739 3021 2797 3034 
Q 2957 3482 3008 3974 
Q 3021 4070 2982 4105 
Q 2944 4141 2854 4141 
L 902 4141 
Q 826 4141 826 4224 
L 826 4448 
Q 826 4525 902 4525 
L 2976 4525 
Q 3277 4525 3373 4413 
Q 3469 4301 3456 4064 
Q 3424 3514 3238 2992 
Q 3053 2470 2723 2000 
Q 2394 1530 1930 1126 
Q 1466 723 877 410 
Q 794 365 755 429 
L 614 653 
Q 570 730 640 762 
Q 1338 1126 1834 1600 
Q 2330 2074 2618 2637 
Q 2528 2624 2438 2621 
Q 2349 2618 2291 2618 
Q 2138 2611 1949 2604 
Q 1760 2598 1565 2592 
Q 1370 2586 1174 2579 
Q 979 2573 806 2573 
Q 723 2573 723 2650 
L 723 2867 
Q 723 2944 806 2944 
z
M 5120 -806 
Q 5120 -896 5030 -896 
L 4768 -896 
Q 4678 -896 4678 -806 
L 4678 4915 
Q 4678 5005 4768 5005 
L 5030 5005 
Q 5120 5005 5120 4915 
L 5120 2656 
L 6003 2656 
Q 6042 2656 6070 2633 
Q 6099 2611 6099 2573 
L 6099 2355 
Q 6099 2323 6070 2297 
Q 6042 2272 6003 2272 
L 5120 2272 
L 5120 -806 
z
" transform="scale(0.015625)"/>
      <path id="NanumGothicCoding-ba54" d="M 678 4038 
Q 678 4307 780 4400 
Q 883 4493 1165 4493 
L 2694 4493 
Q 2848 4493 2941 4473 
Q 3034 4454 3088 4403 
Q 3142 4352 3161 4262 
Q 3181 4173 3181 4038 
L 3181 2803 
L 4000 2803 
L 4000 4806 
Q 4000 4896 4090 4896 
L 4333 4896 
Q 4422 4896 4422 4806 
L 4422 -563 
Q 4422 -653 4333 -653 
L 4090 -653 
Q 4000 -653 4000 -563 
L 4000 2419 
L 3181 2419 
L 3181 1267 
Q 3181 998 3078 905 
Q 2976 813 2694 813 
L 1165 813 
Q 1011 813 918 832 
Q 826 851 771 905 
Q 717 960 697 1046 
Q 678 1133 678 1267 
L 678 4038 
z
M 1274 4109 
Q 1184 4109 1152 4073 
Q 1120 4038 1120 3942 
L 1120 1363 
Q 1120 1267 1152 1232 
Q 1184 1197 1274 1197 
L 2586 1197 
Q 2675 1197 2707 1232 
Q 2739 1267 2739 1363 
L 2739 3942 
Q 2739 4038 2707 4073 
Q 2675 4109 2586 4109 
L 1274 4109 
z
M 5555 -806 
Q 5555 -896 5466 -896 
L 5222 -896 
Q 5133 -896 5133 -806 
L 5133 4915 
Q 5133 5005 5222 5005 
L 5466 5005 
Q 5555 5005 5555 4915 
L 5555 -806 
z
" transform="scale(0.015625)"/>
      <path id="NanumGothicCoding-b77c" d="M 1280 570 
Q 992 582 893 688 
Q 794 794 794 1062 
L 794 2330 
Q 794 2598 906 2691 
Q 1018 2784 1306 2784 
L 2918 2784 
Q 3008 2784 3033 2809 
Q 3059 2835 3059 2931 
L 3059 3994 
Q 3059 4090 3036 4115 
Q 3014 4141 2925 4141 
L 909 4141 
Q 877 4141 848 4160 
Q 819 4179 819 4211 
L 819 4454 
Q 819 4486 848 4505 
Q 877 4525 909 4525 
L 2995 4525 
Q 3149 4525 3245 4502 
Q 3341 4480 3398 4429 
Q 3456 4378 3478 4285 
Q 3501 4192 3501 4058 
L 3501 2854 
Q 3501 2586 3389 2493 
Q 3277 2400 2989 2400 
L 1370 2400 
Q 1280 2400 1257 2374 
Q 1235 2349 1235 2253 
L 1235 1094 
Q 1235 947 1376 947 
Q 2138 934 2838 1004 
Q 3539 1075 4198 1222 
Q 4288 1242 4307 1158 
L 4346 947 
Q 4358 864 4262 838 
Q 3923 762 3548 707 
Q 3174 653 2790 617 
Q 2406 582 2022 569 
Q 1638 557 1280 570 
z
M 5120 -806 
Q 5120 -896 5030 -896 
L 4768 -896 
Q 4678 -896 4678 -806 
L 4678 4915 
Q 4678 5005 4768 5005 
L 5030 5005 
Q 5120 5005 5120 4915 
L 5120 2586 
L 6003 2586 
Q 6042 2586 6070 2563 
Q 6099 2541 6099 2502 
L 6099 2285 
Q 6099 2253 6070 2227 
Q 6042 2202 6003 2202 
L 5120 2202 
L 5120 -806 
z
" transform="scale(0.015625)"/>
      <path id="NanumGothicCoding-b530" d="M 5120 -806 
Q 5120 -896 5030 -896 
L 4768 -896 
Q 4678 -896 4678 -806 
L 4678 4915 
Q 4678 5005 4768 5005 
L 5030 5005 
Q 5120 5005 5120 4915 
L 5120 2586 
L 6003 2586 
Q 6042 2586 6070 2563 
Q 6099 2541 6099 2502 
L 6099 2285 
Q 6099 2253 6070 2227 
Q 6042 2202 6003 2202 
L 5120 2202 
L 5120 -806 
z
M 4384 1114 
Q 4403 1018 4320 1005 
Q 3654 858 2867 858 
Q 2605 858 2505 986 
Q 2406 1114 2406 1325 
L 2406 4070 
Q 2406 4339 2508 4428 
Q 2611 4518 2893 4518 
L 3910 4518 
Q 3994 4518 3994 4442 
L 3994 4230 
Q 3994 4154 3910 4154 
L 2957 4154 
Q 2867 4154 2848 4131 
Q 2829 4109 2829 4013 
L 2829 1338 
Q 2829 1235 2944 1235 
Q 3290 1235 3626 1267 
Q 3962 1299 4230 1363 
Q 4282 1376 4307 1363 
Q 4333 1350 4346 1293 
L 4384 1114 
z
M 2285 998 
Q 2291 954 2272 931 
Q 2253 909 2189 896 
Q 1946 851 1693 844 
Q 1440 838 1210 858 
Q 928 883 819 1001 
Q 710 1120 710 1389 
L 710 4070 
Q 710 4339 812 4428 
Q 915 4518 1197 4518 
L 2157 4518 
Q 2240 4518 2240 4442 
L 2240 4230 
Q 2240 4154 2157 4154 
L 1261 4154 
Q 1171 4154 1152 4131 
Q 1133 4109 1133 4013 
L 1133 1402 
Q 1133 1306 1165 1274 
Q 1197 1242 1286 1235 
Q 1491 1222 1708 1225 
Q 1926 1229 2144 1254 
Q 2240 1261 2259 1171 
L 2285 998 
z
" transform="scale(0.015625)"/>
     </defs>
     <use xlink:href="#NanumGothicCoding-35"/>
     <use xlink:href="#NanumGothicCoding-2e" transform="translate(49.999985 0)"/>
     <use xlink:href="#NanumGothicCoding-20" transform="translate(99.999969 0)"/>
     <use xlink:href="#NanumGothicCoding-ce74" transform="translate(149.999954 0)"/>
     <use xlink:href="#NanumGothicCoding-ba54" transform="translate(249.999939 0)"/>
     <use xlink:href="#NanumGothicCoding-b77c" transform="translate(349.999924 0)"/>
     <use xlink:href="#NanumGothicCoding-ac00" transform="translate(449.999908 0)"/>
     <use xlink:href="#NanumGothicCoding-20" transform="translate(549.999893 0)"/>
     <use xlink:href="#NanumGothicCoding-ce90" transform="translate(599.999878 0)"/>
     <use xlink:href="#NanumGothicCoding-b9ad" transform="translate(699.999863 0)"/>
     <use xlink:href="#NanumGothicCoding-d130" transform="translate(799.999847 0)"/>
     <use xlink:href="#NanumGothicCoding-b97c" transform="translate(899.999832 0)"/>
     <use xlink:href="#NanumGothicCoding-20" transform="translate(999.999817 0)"/>
     <use xlink:href="#NanumGothicCoding-b530" transform="translate(1049.999802 0)"/>
     <use xlink:href="#NanumGothicCoding-b77c" transform="translate(1149.999786 0)"/>
     <use xlink:href="#NanumGothicCoding-ac00" transform="translate(1249.999771 0)"/>
     <use xlink:href="#NanumGothicCoding-ae30" transform="translate(1349.999756 0)"/>
    </g>
   </g>
  </g>
 </g>
 <defs>
  <clipPath id="p1d2800fa2f">
   <rect x="5.76" y="5.76" width="300.204" height="160.776"/>
  </clipPath>
 </defs>
</svg>
