<svg xmlns="http://www.w3.org/2000/svg" viewBox="0 0 820 300"><rect width="820" height="300" rx="16" fill="#f8fafc"/><text x="410" y="28" text-anchor="middle" font-family="sans-serif" font-size="18" font-weight="700">계층 변환: 부모가 움직이면 자식도 움직인다</text><g font-family="sans-serif" text-anchor="middle"><rect x="45" y="75" width="130" height="48" rx="9" fill="#dbeafe" stroke="#2563eb"/><rect x="45" y="145" width="130" height="48" rx="9" fill="#dcfce7" stroke="#16a34a"/><rect x="45" y="215" width="130" height="48" rx="9" fill="#ffedd5" stroke="#ea580c"/><text x="110" y="104">몸통 (부모)</text><text x="110" y="174">팔 (자식)</text><text x="110" y="244">무기 (손자)</text><path d="M110 123V145M110 193V215" stroke="#334155" stroke-width="3"/></g><g transform="translate(500 165)"><rect x="-65" y="-75" width="130" height="150" rx="50" fill="#dbeafe" stroke="#2563eb" stroke-width="3"/><g transform="rotate(-35)"><rect x="45" y="-12" width="150" height="24" rx="12" fill="#dcfce7" stroke="#16a34a" stroke-width="3"/><rect x="185" y="-7" width="105" height="14" fill="#ffedd5" stroke="#ea580c" stroke-width="3"/></g><path d="M545 150A170 170 0 0 0 680 65" fill="none" stroke="#7c3aed" stroke-dasharray="6 5" stroke-width="3"/><text x="220" y="115" font-family="sans-serif" font-size="12">부모 회전 → 자식 월드 위치가 호를 따라 이동</text></g></svg>
