<?xml version="1.0" encoding="utf-8" standalone="no"?>
<!DOCTYPE svg PUBLIC "-//W3C//DTD SVG 1.1//EN"
  "http://www.w3.org/Graphics/SVG/1.1/DTD/svg11.dtd">
<svg xmlns:xlink="http://www.w3.org/1999/xlink" width="368.4pt" height="247.663331pt" viewBox="0 0 368.4 247.663331" xmlns="http://www.w3.org/2000/svg" version="1.1">
 <metadata>
  <rdf:RDF xmlns:dc="http://purl.org/dc/elements/1.1/" xmlns:cc="http://creativecommons.org/ns#" xmlns:rdf="http://www.w3.org/1999/02/22-rdf-syntax-ns#">
   <cc:Work>
    <dc:type rdf:resource="http://purl.org/dc/dcmitype/StillImage"/>
    <dc:date>2026-07-08T05:13:19.937170</dc:date>
    <dc:format>image/svg+xml</dc:format>
    <dc:creator>
     <cc:Agent>
      <dc:title>Matplotlib v3.10.8, https://matplotlib.org/</dc:title>
     </cc:Agent>
    </dc:creator>
   </cc:Work>
  </rdf:RDF>
 </metadata>
 <defs>
  <style type="text/css">*{stroke-linejoin: round; stroke-linecap: butt}</style>
 </defs>
 <g id="figure_1">
  <g id="patch_1">
   <path d="M 0 247.663331 
L 368.4 247.663331 
L 368.4 0 
L 0 0 
z
" style="fill: #ffffff"/>
  </g>
  <g id="axes_1">
   <g id="patch_2">
    <path d="M 45.753624 203.911331 
Q 184.202876 203.911331 320.41606 203.911331 
" clip-path="url(#pbcc9c19cee)" style="fill: none; stroke: #111827; stroke-width: 2; stroke-linecap: round"/>
    <path d="M 314.81606 201.111331 
L 320.41606 203.911331 
L 314.81606 206.711331 
z
" clip-path="url(#pbcc9c19cee)" style="fill: #111827; stroke: #111827; stroke-width: 2; stroke-linecap: round"/>
   </g>
   <g id="patch_3">
    <path d="M 43.752 201.908636 
Q 43.752 130.175851 43.752 60.679133 
" clip-path="url(#pbcc9c19cee)" style="fill: none; stroke: #111827; stroke-width: 2; stroke-linecap: round"/>
    <path d="M 40.952 66.279133 
L 43.752 60.679133 
L 46.552 66.279133 
z
" clip-path="url(#pbcc9c19cee)" style="fill: #111827; stroke: #111827; stroke-width: 2; stroke-linecap: round"/>
   </g>
   <g id="line2d_1">
    <defs>
     <path id="m92c33b5468" d="M 0 2 
C 0.530406 2 1.03916 1.789267 1.414214 1.414214 
C 1.789267 1.03916 2 0.530406 2 0 
C 2 -0.530406 1.789267 -1.03916 1.414214 -1.414214 
C 1.03916 -1.789267 0.530406 -2 0 -2 
C -0.530406 -2 -1.03916 -1.789267 -1.414214 -1.414214 
C -1.789267 -1.03916 -2 -0.530406 -2 0 
C -2 0.530406 -1.789267 1.03916 -1.414214 1.414214 
C -1.03916 1.789267 -0.530406 2 0 2 
z
" style="stroke: #111827"/>
    </defs>
    <g clip-path="url(#pbcc9c19cee)">
     <use xlink:href="#m92c33b5468" x="43.752" y="203.911331" style="fill: #111827; stroke: #111827"/>
    </g>
   </g>
   <g id="text_1">
    <!-- 수학 좌표계 -->
    <g style="fill: #111827" transform="translate(8.64 20.054062) scale(0.15 -0.15)">
     <defs>
      <path id="NanumGothicBold-c218" d="M 5882 1318 
Q 5882 1286 5850 1251 
Q 5818 1216 5786 1216 
L 3360 1216 
L 3360 -877 
Q 3360 -966 3270 -966 
L 2714 -966 
Q 2624 -966 2624 -877 
L 2624 1216 
L 211 1216 
Q 173 1216 147 1251 
Q 122 1286 122 1318 
L 122 1734 
Q 122 1773 147 1801 
Q 173 1830 211 1830 
L 5786 1830 
Q 5818 1830 5850 1798 
Q 5882 1766 5882 1734 
L 5882 1318 
z
M 909 2419 
Q 864 2406 819 2409 
Q 774 2413 755 2445 
L 538 2854 
Q 518 2899 537 2940 
Q 557 2982 608 2995 
Q 1062 3123 1424 3296 
Q 1786 3469 2048 3709 
Q 2310 3949 2464 4259 
Q 2618 4570 2656 4966 
Q 2662 5011 2691 5046 
Q 2720 5082 2771 5082 
L 3309 5062 
Q 3398 5062 3398 4960 
Q 3386 4768 3360 4608 
Q 3450 4346 3651 4112 
Q 3853 3878 4125 3683 
Q 4397 3488 4726 3344 
Q 5056 3200 5402 3117 
Q 5446 3104 5472 3072 
Q 5498 3040 5478 2995 
L 5286 2573 
Q 5254 2490 5152 2509 
Q 4845 2566 4528 2691 
Q 4211 2816 3929 2989 
Q 3648 3162 3417 3366 
Q 3187 3571 3046 3795 
Q 2739 3302 2192 2953 
Q 1645 2605 909 2419 
z
" transform="scale(0.015625)"/>
      <path id="NanumGothicBold-d559" d="M 2118 2874 
Q 1818 2874 1622 2730 
Q 1427 2586 1427 2362 
Q 1427 2246 1478 2150 
Q 1530 2054 1622 1984 
Q 1715 1914 1843 1872 
Q 1971 1830 2118 1830 
Q 2419 1830 2614 1984 
Q 2810 2138 2810 2362 
Q 2810 2586 2618 2730 
Q 2426 2874 2118 2874 
z
M 2118 3430 
Q 2406 3430 2662 3350 
Q 2918 3270 3104 3129 
Q 3290 2989 3398 2793 
Q 3507 2598 3507 2362 
Q 3507 2125 3398 1926 
Q 3290 1728 3101 1584 
Q 2912 1440 2659 1360 
Q 2406 1280 2112 1280 
Q 1824 1280 1574 1360 
Q 1325 1440 1139 1584 
Q 954 1728 845 1926 
Q 736 2125 736 2362 
Q 736 2598 845 2793 
Q 954 2989 1139 3129 
Q 1325 3270 1577 3350 
Q 1830 3430 2118 3430 
z
M 3859 3731 
Q 3859 3693 3830 3664 
Q 3802 3635 3763 3635 
L 371 3635 
Q 333 3635 301 3667 
Q 269 3699 269 3738 
L 269 4096 
Q 269 4128 304 4163 
Q 339 4198 378 4198 
L 3763 4198 
Q 3802 4198 3830 4166 
Q 3859 4134 3859 4096 
L 3859 3731 
z
M 3034 4544 
Q 3034 4506 3005 4470 
Q 2976 4435 2925 4435 
L 1254 4435 
Q 1229 4435 1193 4460 
Q 1158 4486 1158 4538 
L 1158 4902 
Q 1158 4947 1193 4972 
Q 1229 4998 1254 4998 
L 2925 4998 
Q 2970 4998 3002 4966 
Q 3034 4934 3034 4896 
L 3034 4544 
z
M 5971 2726 
Q 5971 2694 5942 2668 
Q 5914 2643 5875 2643 
L 5011 2643 
L 5011 1248 
Q 5011 1158 4928 1158 
L 4358 1158 
Q 4275 1158 4275 1254 
L 4275 4979 
Q 4275 5062 4358 5062 
L 4928 5062 
Q 5011 5062 5011 4979 
L 5011 3258 
L 5875 3258 
Q 5914 3258 5942 3235 
Q 5971 3213 5971 3181 
L 5971 2726 
z
M 5005 -909 
Q 5005 -941 4976 -969 
Q 4947 -998 4909 -998 
L 4365 -998 
Q 4326 -998 4297 -969 
Q 4269 -941 4269 -909 
L 4269 192 
Q 4269 262 4240 281 
Q 4211 301 4147 301 
L 1254 301 
Q 1222 301 1193 323 
Q 1165 346 1165 378 
L 1165 819 
Q 1165 858 1193 880 
Q 1222 902 1254 902 
L 4576 902 
Q 4819 902 4912 800 
Q 5005 698 5005 454 
L 5005 -909 
z
" transform="scale(0.015625)"/>
      <path id="NanumGothicBold-20" transform="scale(0.015625)"/>
      <path id="NanumGothicBold-c88c" d="M 5971 2016 
Q 5971 1984 5942 1958 
Q 5914 1933 5882 1933 
L 5043 1933 
L 5043 -928 
Q 5043 -1011 4960 -1011 
L 4390 -1011 
Q 4307 -1011 4307 -928 
L 4307 4979 
Q 4307 5062 4390 5062 
L 4960 5062 
Q 5043 5062 5043 4979 
L 5043 2547 
L 5882 2547 
Q 5914 2547 5942 2521 
Q 5971 2496 5971 2464 
L 5971 2016 
z
M 550 1888 
Q 506 1875 458 1897 
Q 410 1920 397 1952 
L 243 2285 
Q 224 2330 253 2378 
Q 282 2426 326 2438 
Q 1050 2701 1613 3053 
Q 2176 3405 2490 3750 
Q 2560 3834 2560 3862 
Q 2560 3891 2458 3891 
L 691 3891 
Q 659 3891 630 3913 
Q 602 3936 602 3974 
L 602 4410 
Q 602 4493 691 4493 
L 2944 4493 
Q 3046 4493 3142 4467 
Q 3238 4442 3315 4397 
Q 3392 4352 3437 4294 
Q 3482 4237 3482 4179 
Q 3482 4090 3456 3984 
Q 3430 3878 3341 3750 
Q 3226 3584 3072 3414 
Q 2918 3245 2733 3078 
Q 2854 3014 2998 2947 
Q 3142 2880 3296 2816 
Q 3450 2752 3600 2697 
Q 3750 2643 3885 2605 
Q 3994 2573 3942 2464 
L 3770 2106 
Q 3757 2074 3709 2061 
Q 3661 2048 3610 2061 
Q 3258 2170 2890 2339 
Q 2522 2509 2202 2682 
Q 1830 2426 1408 2218 
Q 986 2010 550 1888 
z
M 1773 1933 
Q 1773 2022 1862 2022 
L 2406 2022 
Q 2496 2022 2496 1933 
L 2496 832 
Q 3200 877 3904 986 
Q 3936 992 3974 982 
Q 4013 973 4019 922 
L 4058 512 
Q 4064 461 4038 435 
Q 4013 410 3981 403 
Q 3085 256 2125 211 
Q 1165 166 243 179 
Q 154 179 154 282 
L 154 704 
Q 154 794 243 794 
Q 627 781 1008 784 
Q 1389 787 1773 800 
L 1773 1933 
z
" transform="scale(0.015625)"/>
      <path id="NanumGothicBold-d45c" d="M 5235 1856 
Q 5235 1811 5206 1782 
Q 5178 1754 5139 1754 
L 4346 1754 
L 4346 640 
L 5786 640 
Q 5818 640 5850 608 
Q 5882 576 5882 544 
L 5882 122 
Q 5882 90 5850 58 
Q 5818 26 5786 26 
L 211 26 
Q 173 26 147 58 
Q 122 90 122 122 
L 122 544 
Q 122 582 147 611 
Q 173 640 211 640 
L 1651 640 
L 1651 1754 
L 858 1754 
Q 826 1754 790 1786 
Q 755 1818 755 1862 
L 755 2246 
Q 755 2278 790 2310 
Q 826 2342 858 2342 
L 1587 2342 
L 1587 4045 
L 979 4045 
Q 947 4045 908 4077 
Q 870 4109 870 4154 
L 870 4538 
Q 870 4570 908 4602 
Q 947 4634 979 4634 
L 5018 4634 
Q 5056 4634 5085 4605 
Q 5114 4576 5114 4538 
L 5114 4147 
Q 5114 4102 5085 4073 
Q 5056 4045 5018 4045 
L 4410 4045 
L 4410 2342 
L 5139 2342 
Q 5178 2342 5206 2313 
Q 5235 2285 5235 2246 
L 5235 1856 
z
M 2304 4045 
L 2304 2342 
L 3693 2342 
L 3693 4045 
L 2304 4045 
z
M 3610 640 
L 3610 1754 
L 2387 1754 
L 2387 640 
L 3610 640 
z
" transform="scale(0.015625)"/>
      <path id="NanumGothicBold-acc4" d="M 755 461 
Q 704 429 653 422 
Q 602 416 570 461 
L 314 813 
Q 275 870 297 918 
Q 320 966 352 992 
Q 787 1261 1136 1603 
Q 1485 1946 1731 2314 
Q 1978 2682 2112 3053 
Q 2246 3424 2259 3744 
Q 2266 3878 2234 3926 
Q 2202 3974 2067 3974 
L 653 3974 
Q 563 3974 563 4058 
L 563 4493 
Q 563 4525 592 4550 
Q 621 4576 653 4576 
L 2515 4576 
Q 2790 4576 2892 4470 
Q 2995 4365 2989 4115 
Q 2982 3987 2972 3859 
Q 2963 3731 2944 3610 
L 3629 3610 
L 3629 4870 
Q 3629 4954 3718 4954 
L 4243 4954 
Q 4326 4954 4326 4870 
L 4326 -717 
Q 4326 -806 4243 -806 
L 3718 -806 
Q 3629 -806 3629 -717 
L 3629 1594 
L 2714 1594 
Q 2682 1594 2653 1619 
Q 2624 1645 2624 1677 
L 2624 2099 
Q 2624 2131 2653 2153 
Q 2682 2176 2714 2176 
L 3629 2176 
L 3629 3021 
L 2816 3021 
Q 2573 2246 2041 1593 
Q 1510 941 755 461 
z
M 5549 -941 
Q 5549 -1024 5466 -1024 
L 4909 -1024 
Q 4826 -1024 4826 -941 
L 4826 4979 
Q 4826 5062 4915 5062 
L 5466 5062 
Q 5549 5062 5549 4979 
L 5549 -941 
z
" transform="scale(0.015625)"/>
     </defs>
     <use xlink:href="#NanumGothicBold-c218"/>
     <use xlink:href="#NanumGothicBold-d559" transform="translate(93.999985 0)"/>
     <use xlink:href="#NanumGothicBold-20" transform="translate(187.999969 0)"/>
     <use xlink:href="#NanumGothicBold-c88c" transform="translate(215.999954 0)"/>
     <use xlink:href="#NanumGothicBold-d45c" transform="translate(309.999939 0)"/>
     <use xlink:href="#NanumGothicBold-acc4" transform="translate(403.999924 0)"/>
    </g>
   </g>
   <g id="text_2">
    <!-- x+ -->
    <g style="fill: #111827" transform="translate(326.4036 207.247894) scale(0.12 -0.12)">
     <defs>
      <path id="NanumGothic-78" d="M 3046 -186 
Q 3066 -218 3050 -246 
Q 3034 -275 2995 -275 
L 2637 -275 
Q 2560 -275 2509 -186 
L 1645 1222 
L 717 -186 
Q 659 -275 589 -275 
L 269 -275 
Q 230 -275 214 -246 
Q 198 -218 218 -186 
L 1389 1562 
L 339 3098 
Q 320 3130 336 3158 
Q 352 3187 390 3187 
L 742 3187 
Q 819 3187 870 3098 
L 1645 1894 
L 2432 3098 
Q 2490 3187 2560 3187 
L 2874 3187 
Q 2912 3187 2928 3158 
Q 2944 3130 2925 3098 
L 1901 1562 
L 3046 -186 
z
" transform="scale(0.015625)"/>
      <path id="NanumGothic-2b" d="M 3846 1971 
Q 3846 1882 3830 1869 
Q 3814 1856 3725 1856 
L 2342 1856 
L 2342 474 
Q 2342 390 2329 377 
Q 2317 365 2234 365 
L 1984 365 
Q 1901 365 1888 377 
Q 1875 390 1875 474 
L 1875 1856 
L 499 1856 
Q 410 1856 394 1869 
Q 378 1882 378 1971 
L 378 2202 
Q 378 2291 394 2304 
Q 410 2317 499 2317 
L 1875 2317 
L 1875 3686 
Q 1875 3776 1891 3789 
Q 1907 3802 1997 3802 
L 2221 3802 
Q 2310 3802 2326 3789 
Q 2342 3776 2342 3686 
L 2342 2317 
L 3725 2317 
Q 3814 2317 3830 2304 
Q 3846 2291 3846 2202 
L 3846 1971 
z
" transform="scale(0.015625)"/>
     </defs>
     <use xlink:href="#NanumGothic-78"/>
     <use xlink:href="#NanumGothic-2b" transform="translate(50.999985 0)"/>
    </g>
   </g>
   <g id="text_3">
    <!-- y+ -->
    <g style="fill: #111827" transform="translate(37.04325 48.809756) scale(0.12 -0.12)">
     <defs>
      <path id="NanumGothic-79" d="M 301 -1222 
Q 224 -1203 237 -1126 
L 256 -909 
Q 256 -832 333 -864 
Q 435 -902 570 -902 
Q 704 -902 816 -860 
Q 928 -819 986 -749 
Q 1056 -659 1142 -454 
Q 1229 -250 1312 13 
Q 1024 794 742 1555 
Q 461 2317 173 3098 
Q 160 3130 173 3158 
Q 186 3187 224 3187 
L 525 3187 
Q 614 3187 653 3098 
L 1517 614 
Q 1754 1267 1968 1859 
Q 2182 2451 2419 3098 
Q 2451 3187 2547 3187 
L 2822 3187 
Q 2861 3187 2873 3158 
Q 2886 3130 2874 3098 
L 1542 -474 
Q 1472 -659 1385 -806 
Q 1299 -954 1210 -1043 
Q 1094 -1152 953 -1206 
Q 813 -1261 659 -1261 
Q 563 -1261 486 -1254 
Q 410 -1248 301 -1222 
z
" transform="scale(0.015625)"/>
     </defs>
     <use xlink:href="#NanumGothic-79"/>
     <use xlink:href="#NanumGothic-2b" transform="translate(46.399994 0)"/>
    </g>
   </g>
   <g id="text_4">
    <!-- 원점 O -->
    <g style="fill: #6b7280" transform="translate(50.7744 216.52316) scale(0.1 -0.1)">
     <defs>
      <path id="NanumGothic-c6d0" d="M 3642 3699 
Q 3642 3456 3533 3245 
Q 3424 3034 3229 2877 
Q 3034 2720 2765 2627 
Q 2496 2534 2182 2534 
Q 1875 2534 1612 2624 
Q 1350 2714 1158 2874 
Q 966 3034 857 3245 
Q 749 3456 749 3699 
Q 749 3968 857 4185 
Q 966 4403 1158 4556 
Q 1350 4710 1612 4790 
Q 1875 4870 2182 4870 
Q 2477 4870 2739 4787 
Q 3002 4704 3203 4553 
Q 3405 4403 3523 4185 
Q 3642 3968 3642 3699 
z
M 4710 1434 
L 4710 4915 
Q 4710 5005 4800 5005 
L 5062 5005 
Q 5152 5005 5152 4915 
L 5152 339 
Q 5152 250 5062 250 
L 4800 250 
Q 4710 250 4710 339 
L 4710 1050 
L 3430 1050 
Q 3347 1050 3347 1126 
L 3347 1357 
Q 3347 1434 3430 1434 
L 4710 1434 
z
M 3219 3706 
Q 3219 3898 3136 4045 
Q 3053 4192 2912 4291 
Q 2771 4390 2582 4441 
Q 2394 4493 2182 4493 
Q 1965 4493 1779 4441 
Q 1594 4390 1459 4288 
Q 1325 4186 1248 4042 
Q 1171 3898 1171 3706 
Q 1171 3341 1449 3123 
Q 1728 2906 2182 2906 
Q 2394 2906 2582 2966 
Q 2771 3027 2912 3132 
Q 3053 3238 3136 3385 
Q 3219 3533 3219 3706 
z
M 2054 582 
Q 2022 582 1996 611 
Q 1971 640 1971 678 
L 1971 1709 
Q 1773 1696 1549 1689 
Q 1325 1683 1110 1676 
Q 896 1670 707 1667 
Q 518 1664 390 1670 
Q 352 1670 323 1696 
Q 294 1722 294 1754 
L 294 1971 
Q 294 2010 323 2032 
Q 352 2054 390 2054 
Q 576 2054 832 2057 
Q 1088 2061 1357 2067 
Q 1626 2074 1875 2083 
Q 2125 2093 2298 2106 
Q 2522 2118 2797 2144 
Q 3072 2170 3347 2202 
Q 3622 2234 3868 2269 
Q 4115 2304 4282 2336 
Q 4314 2342 4342 2326 
Q 4371 2310 4378 2285 
L 4410 2067 
Q 4416 1990 4333 1971 
Q 3923 1901 3414 1833 
Q 2906 1766 2413 1734 
L 2413 678 
Q 2413 640 2390 611 
Q 2368 582 2330 582 
L 2054 582 
z
M 5306 -704 
Q 5306 -742 5274 -761 
Q 5242 -781 5210 -781 
L 1728 -781 
Q 1427 -781 1334 -669 
Q 1242 -557 1242 -294 
L 1242 512 
Q 1242 602 1331 602 
L 1594 602 
Q 1683 602 1683 512 
L 1683 -262 
Q 1683 -352 1712 -374 
Q 1741 -397 1830 -397 
L 5210 -397 
Q 5242 -397 5274 -419 
Q 5306 -442 5306 -474 
L 5306 -704 
z
" transform="scale(0.015625)"/>
      <path id="NanumGothic-c810" d="M 1498 819 
Q 1498 1088 1600 1181 
Q 1702 1274 1984 1274 
L 4666 1274 
Q 4819 1274 4912 1254 
Q 5005 1235 5059 1184 
Q 5114 1133 5133 1043 
Q 5152 954 5152 819 
L 5152 -390 
Q 5152 -659 5049 -752 
Q 4947 -845 4666 -845 
L 1984 -845 
Q 1830 -845 1737 -825 
Q 1645 -806 1590 -752 
Q 1536 -698 1517 -611 
Q 1498 -525 1498 -390 
L 1498 819 
z
M 2093 890 
Q 2003 890 1971 854 
Q 1939 819 1939 723 
L 1939 -294 
Q 1939 -390 1971 -425 
Q 2003 -461 2093 -461 
L 4557 -461 
Q 4646 -461 4678 -425 
Q 4710 -390 4710 -294 
L 4710 723 
Q 4710 819 4678 854 
Q 4646 890 4557 890 
L 2093 890 
z
M 3309 4205 
Q 3219 3942 3056 3686 
Q 2893 3430 2669 3181 
Q 2886 2950 3206 2742 
Q 3526 2534 3904 2374 
Q 3955 2355 3961 2320 
Q 3968 2285 3949 2253 
L 3821 2022 
Q 3802 1990 3763 1987 
Q 3725 1984 3693 1997 
Q 3552 2061 3389 2150 
Q 3226 2240 3053 2355 
Q 2880 2470 2710 2604 
Q 2541 2739 2394 2886 
Q 2029 2528 1590 2233 
Q 1152 1939 704 1741 
Q 672 1728 640 1721 
Q 608 1715 589 1747 
L 461 1971 
Q 442 2003 458 2038 
Q 474 2074 506 2086 
Q 1331 2483 1913 2995 
Q 2496 3507 2822 4179 
Q 2867 4269 2835 4307 
Q 2803 4346 2714 4346 
L 838 4346 
Q 762 4346 762 4429 
L 762 4653 
Q 762 4730 838 4730 
L 2886 4730 
Q 3219 4730 3315 4611 
Q 3411 4493 3309 4205 
z
M 4710 3520 
L 4710 4915 
Q 4710 5005 4800 5005 
L 5062 5005 
Q 5152 5005 5152 4915 
L 5152 1728 
Q 5152 1638 5062 1638 
L 4800 1638 
Q 4710 1638 4710 1728 
L 4710 3136 
L 3526 3136 
Q 3443 3136 3443 3213 
L 3443 3443 
Q 3443 3520 3526 3520 
L 4710 3520 
z
" transform="scale(0.015625)"/>
      <path id="NanumGothic-20" transform="scale(0.015625)"/>
      <path id="NanumGothic-4f" d="M 4160 2093 
Q 4160 2496 4057 2854 
Q 3955 3213 3770 3501 
Q 3546 3814 3235 3984 
Q 2925 4154 2534 4154 
Q 2138 4154 1827 3984 
Q 1517 3814 1293 3501 
Q 1107 3213 1004 2854 
Q 902 2496 902 2093 
Q 902 1690 1004 1328 
Q 1107 966 1293 678 
Q 1523 371 1836 198 
Q 2150 26 2534 26 
Q 2925 26 3235 195 
Q 3546 365 3770 678 
Q 3955 966 4057 1328 
Q 4160 1690 4160 2093 
z
M 4627 2093 
Q 4614 954 4102 314 
Q 3546 -378 2534 -378 
Q 1523 -378 960 314 
Q 435 973 435 2093 
Q 435 2624 563 3053 
Q 691 3482 934 3814 
Q 1222 4166 1628 4361 
Q 2035 4557 2534 4557 
Q 3040 4557 3440 4365 
Q 3840 4173 4128 3808 
Q 4378 3462 4506 3036 
Q 4634 2611 4627 2093 
z
" transform="scale(0.015625)"/>
     </defs>
     <use xlink:href="#NanumGothic-c6d0"/>
     <use xlink:href="#NanumGothic-c810" transform="translate(93.999985 0)"/>
     <use xlink:href="#NanumGothic-20" transform="translate(187.999969 0)"/>
     <use xlink:href="#NanumGothic-4f" transform="translate(215.999954 0)"/>
    </g>
   </g>
  </g>
 </g>
 <defs>
  <clipPath id="pbcc9c19cee">
   <rect x="8.64" y="28.351331" width="351.12" height="210.672"/>
  </clipPath>
 </defs>
</svg>
