<?xml version="1.0" encoding="utf-8" standalone="no"?>
<!DOCTYPE svg PUBLIC "-//W3C//DTD SVG 1.1//EN"
  "http://www.w3.org/Graphics/SVG/1.1/DTD/svg11.dtd">
<svg xmlns:xlink="http://www.w3.org/1999/xlink" width="385.56pt" height="160.622531pt" viewBox="0 0 385.56 160.622531" xmlns="http://www.w3.org/2000/svg" version="1.1">
 <metadata>
  <rdf:RDF xmlns:dc="http://purl.org/dc/elements/1.1/" xmlns:cc="http://creativecommons.org/ns#" xmlns:rdf="http://www.w3.org/1999/02/22-rdf-syntax-ns#">
   <cc:Work>
    <dc:type rdf:resource="http://purl.org/dc/dcmitype/StillImage"/>
    <dc:date>2026-07-08T05:12:56.665902</dc:date>
    <dc:format>image/svg+xml</dc:format>
    <dc:creator>
     <cc:Agent>
      <dc:title>Matplotlib v3.10.8, https://matplotlib.org/</dc:title>
     </cc:Agent>
    </dc:creator>
   </cc:Work>
  </rdf:RDF>
 </metadata>
 <defs>
  <style type="text/css">*{stroke-linejoin: round; stroke-linecap: butt}</style>
 </defs>
 <g id="figure_1">
  <g id="patch_1">
   <path d="M 0 160.622531 
L 385.56 160.622531 
L 385.56 0 
L 0 0 
z
" style="fill: #ffffff"/>
  </g>
  <g id="axes_1">
   <g id="text_1">
    <!-- 회전 순서는 결과를 바꾼다 -->
    <g style="fill: #111827" transform="translate(8.64 20.054063) scale(0.15 -0.15)">
     <defs>
      <path id="NanumGothicBold-d68c" d="M 211 544 
Q 211 640 307 640 
Q 672 627 1072 633 
Q 1472 640 1875 653 
L 1875 1203 
Q 1651 1248 1462 1341 
Q 1274 1434 1136 1571 
Q 998 1709 921 1881 
Q 845 2054 845 2259 
Q 845 2496 957 2697 
Q 1069 2899 1261 3040 
Q 1453 3181 1709 3261 
Q 1965 3341 2253 3341 
Q 2547 3341 2806 3261 
Q 3066 3181 3258 3040 
Q 3450 2899 3558 2697 
Q 3667 2496 3667 2259 
Q 3667 2054 3584 1881 
Q 3501 1709 3357 1574 
Q 3213 1440 3017 1347 
Q 2822 1254 2592 1216 
L 2592 685 
Q 3014 710 3414 742 
Q 3814 774 4154 826 
Q 4186 832 4227 822 
Q 4269 813 4275 762 
L 4314 358 
Q 4320 307 4294 281 
Q 4269 256 4237 250 
Q 3878 192 3392 147 
Q 2906 102 2371 73 
Q 1837 45 1299 32 
Q 762 19 307 26 
Q 262 26 236 54 
Q 211 83 211 122 
L 211 544 
z
M 5280 -928 
Q 5280 -1011 5190 -1011 
L 4627 -1011 
Q 4595 -1011 4566 -988 
Q 4538 -966 4538 -928 
L 4538 4979 
Q 4538 5011 4566 5036 
Q 4595 5062 4627 5062 
L 5190 5062 
Q 5280 5062 5280 4979 
L 5280 -928 
z
M 4000 3661 
Q 4000 3622 3971 3593 
Q 3942 3565 3904 3565 
L 518 3565 
Q 486 3565 454 3597 
Q 422 3629 422 3667 
L 422 4026 
Q 422 4058 457 4090 
Q 493 4122 525 4122 
L 3904 4122 
Q 3942 4122 3971 4093 
Q 4000 4064 4000 4026 
L 4000 3661 
z
M 2253 2771 
Q 1946 2771 1741 2627 
Q 1536 2483 1536 2259 
Q 1536 2035 1737 1888 
Q 1939 1741 2253 1741 
Q 2573 1741 2774 1888 
Q 2976 2035 2976 2259 
Q 2976 2483 2774 2627 
Q 2573 2771 2253 2771 
z
M 3174 4493 
Q 3174 4448 3145 4416 
Q 3117 4384 3072 4384 
L 1376 4384 
Q 1350 4384 1312 4409 
Q 1274 4435 1274 4486 
L 1274 4858 
Q 1274 4902 1312 4928 
Q 1350 4954 1376 4954 
L 3072 4954 
Q 3110 4954 3142 4922 
Q 3174 4890 3174 4851 
L 3174 4493 
z
" transform="scale(0.015625)"/>
      <path id="NanumGothicBold-c804" d="M 755 1325 
Q 717 1306 656 1306 
Q 595 1306 557 1376 
L 365 1690 
Q 333 1741 349 1795 
Q 365 1850 422 1882 
Q 774 2054 1100 2291 
Q 1427 2528 1692 2797 
Q 1958 3066 2153 3347 
Q 2349 3629 2445 3891 
Q 2470 3955 2467 3996 
Q 2464 4038 2355 4038 
L 781 4038 
Q 736 4038 713 4067 
Q 691 4096 691 4134 
L 691 4563 
Q 691 4653 787 4653 
L 2816 4653 
Q 3098 4653 3232 4547 
Q 3366 4442 3334 4237 
Q 3322 4166 3302 4096 
Q 3283 4026 3264 3968 
Q 3194 3725 3059 3472 
Q 2925 3219 2746 2970 
Q 2861 2842 3008 2714 
Q 3155 2586 3312 2467 
Q 3469 2349 3622 2246 
Q 3776 2144 3904 2074 
Q 4032 2010 3955 1882 
L 3744 1555 
Q 3674 1453 3546 1517 
Q 3430 1574 3273 1680 
Q 3117 1786 2947 1917 
Q 2778 2048 2614 2195 
Q 2451 2342 2323 2477 
Q 1997 2131 1600 1836 
Q 1203 1542 755 1325 
z
M 3437 2918 
L 3437 3360 
Q 3437 3392 3465 3414 
Q 3494 3437 3526 3437 
L 4544 3437 
L 4544 4979 
Q 4544 5062 4627 5062 
L 5197 5062 
Q 5280 5062 5280 4979 
L 5280 826 
Q 5280 742 5197 742 
L 4627 742 
Q 4544 742 4544 826 
L 4544 2835 
L 3526 2835 
Q 3494 2835 3465 2860 
Q 3437 2886 3437 2918 
z
M 5466 -826 
Q 5466 -864 5437 -883 
Q 5408 -902 5376 -902 
L 2042 -902 
Q 1754 -902 1654 -800 
Q 1555 -698 1555 -448 
L 1555 947 
Q 1555 979 1584 1008 
Q 1613 1037 1645 1037 
L 2195 1037 
Q 2234 1037 2262 1008 
Q 2291 979 2291 947 
L 2291 -186 
Q 2291 -250 2316 -269 
Q 2342 -288 2413 -288 
L 5376 -288 
Q 5408 -288 5437 -313 
Q 5466 -339 5466 -371 
L 5466 -826 
z
" transform="scale(0.015625)"/>
      <path id="NanumGothicBold-20" transform="scale(0.015625)"/>
      <path id="NanumGothicBold-c21c" d="M 5882 1658 
Q 5882 1626 5850 1590 
Q 5818 1555 5786 1555 
L 3418 1555 
L 3418 371 
Q 3418 282 3328 282 
L 2771 282 
Q 2682 282 2682 371 
L 2682 1555 
L 211 1555 
Q 173 1555 147 1590 
Q 122 1626 122 1658 
L 122 2074 
Q 122 2112 147 2141 
Q 173 2170 211 2170 
L 5786 2170 
Q 5818 2170 5850 2138 
Q 5882 2106 5882 2074 
L 5882 1658 
z
M 986 2566 
Q 845 2522 813 2605 
L 640 3008 
Q 627 3040 640 3078 
Q 653 3117 698 3130 
Q 1613 3373 2083 3805 
Q 2554 4237 2624 4896 
Q 2637 4998 2746 4998 
L 3251 4979 
Q 3341 4979 3341 4890 
Q 3334 4819 3331 4758 
Q 3328 4698 3315 4640 
Q 3411 4390 3619 4160 
Q 3827 3930 4096 3738 
Q 4365 3546 4678 3402 
Q 4992 3258 5312 3181 
Q 5350 3168 5366 3133 
Q 5382 3098 5370 3066 
L 5178 2675 
Q 5146 2592 5030 2611 
Q 4768 2656 4480 2774 
Q 4192 2893 3920 3065 
Q 3648 3238 3414 3449 
Q 3181 3661 3027 3891 
Q 2726 3418 2198 3072 
Q 1670 2726 986 2566 
z
M 5184 -781 
Q 5184 -819 5155 -838 
Q 5126 -858 5088 -858 
L 1466 -858 
Q 1178 -858 1078 -755 
Q 979 -653 979 -403 
L 979 960 
Q 979 992 1008 1021 
Q 1037 1050 1069 1050 
L 1619 1050 
Q 1658 1050 1686 1021 
Q 1715 992 1715 960 
L 1715 -141 
Q 1715 -205 1740 -224 
Q 1766 -243 1830 -243 
L 5088 -243 
Q 5120 -243 5152 -265 
Q 5184 -288 5184 -320 
L 5184 -781 
z
" transform="scale(0.015625)"/>
      <path id="NanumGothicBold-c11c" d="M 5382 -928 
Q 5382 -1011 5299 -1011 
L 4730 -1011 
Q 4646 -1011 4646 -928 
L 4646 2458 
L 3328 2458 
Q 3296 2458 3267 2483 
Q 3238 2509 3238 2541 
L 3238 2995 
Q 3238 3027 3267 3049 
Q 3296 3072 3328 3072 
L 4646 3072 
L 4646 4979 
Q 4646 5062 4730 5062 
L 5299 5062 
Q 5382 5062 5382 4979 
L 5382 -928 
z
M 800 339 
Q 678 243 576 346 
L 275 627 
Q 186 717 294 819 
Q 710 1203 1004 1664 
Q 1299 2125 1478 2650 
Q 1638 3117 1699 3600 
Q 1760 4083 1747 4653 
Q 1747 4691 1776 4720 
Q 1805 4749 1837 4749 
L 2406 4730 
Q 2438 4730 2464 4701 
Q 2490 4672 2490 4634 
Q 2490 3846 2374 3187 
Q 2432 2880 2566 2569 
Q 2701 2259 2883 1974 
Q 3066 1690 3277 1446 
Q 3488 1203 3699 1037 
Q 3802 960 3712 832 
L 3443 506 
Q 3411 461 3356 454 
Q 3302 448 3238 493 
Q 3078 614 2902 800 
Q 2726 986 2566 1200 
Q 2406 1414 2272 1641 
Q 2138 1869 2061 2080 
Q 1946 1811 1798 1561 
Q 1651 1312 1488 1085 
Q 1325 858 1149 669 
Q 973 480 800 339 
z
" transform="scale(0.015625)"/>
      <path id="NanumGothicBold-b294" d="M 5158 -787 
Q 5158 -826 5126 -845 
Q 5094 -864 5062 -864 
L 1542 -864 
Q 1248 -864 1149 -761 
Q 1050 -659 1050 -410 
L 1050 979 
Q 1050 1011 1078 1040 
Q 1107 1069 1139 1069 
L 1690 1069 
Q 1728 1069 1757 1040 
Q 1786 1011 1786 979 
L 1786 -147 
Q 1786 -211 1811 -230 
Q 1837 -250 1907 -250 
L 5062 -250 
Q 5094 -250 5126 -272 
Q 5158 -294 5158 -326 
L 5158 -787 
z
M 5082 2874 
Q 5082 2829 5053 2809 
Q 5024 2790 4992 2790 
L 1562 2790 
Q 1267 2790 1168 2896 
Q 1069 3002 1069 3251 
L 1069 4858 
Q 1069 4890 1097 4918 
Q 1126 4947 1158 4947 
L 1715 4947 
Q 1754 4947 1782 4918 
Q 1811 4890 1811 4858 
L 1811 3507 
Q 1811 3443 1836 3424 
Q 1862 3405 1933 3405 
L 4992 3405 
Q 5024 3405 5053 3382 
Q 5082 3360 5082 3328 
L 5082 2874 
z
M 5875 1619 
Q 5875 1587 5843 1552 
Q 5811 1517 5779 1517 
L 211 1517 
Q 173 1517 147 1549 
Q 122 1581 122 1619 
L 122 2042 
Q 122 2131 211 2131 
L 5779 2131 
Q 5811 2131 5843 2102 
Q 5875 2074 5875 2042 
L 5875 1619 
z
" transform="scale(0.015625)"/>
      <path id="NanumGothicBold-acb0" d="M 3462 4467 
Q 3462 4416 3440 4323 
Q 3418 4230 3405 4160 
L 4544 4160 
L 4544 4979 
Q 4544 5062 4627 5062 
L 5197 5062 
Q 5280 5062 5280 4979 
L 5280 1946 
Q 5280 1907 5254 1878 
Q 5229 1850 5197 1850 
L 4627 1850 
Q 4595 1850 4569 1878 
Q 4544 1907 4544 1939 
L 4544 2374 
L 3168 2374 
Q 3136 2374 3104 2400 
Q 3072 2426 3072 2458 
L 3072 2886 
Q 3072 2918 3104 2940 
Q 3136 2963 3168 2963 
L 4544 2963 
L 4544 3571 
L 3174 3571 
Q 2848 2957 2272 2493 
Q 1696 2029 877 1728 
Q 723 1677 672 1786 
L 512 2099 
Q 480 2150 489 2211 
Q 499 2272 570 2298 
Q 1389 2611 1923 3072 
Q 2458 3533 2624 4077 
Q 2656 4186 2649 4224 
Q 2643 4262 2541 4262 
L 781 4262 
Q 742 4262 720 4291 
Q 698 4320 698 4358 
L 698 4762 
Q 698 4858 787 4858 
L 2938 4858 
Q 3219 4858 3340 4765 
Q 3462 4672 3462 4467 
z
M 5434 -909 
Q 5434 -941 5402 -969 
Q 5370 -998 5344 -998 
L 1907 -998 
Q 1658 -998 1565 -902 
Q 1472 -806 1472 -602 
L 1472 173 
Q 1472 378 1561 467 
Q 1651 557 1901 557 
L 4474 557 
Q 4525 557 4537 576 
Q 4550 595 4550 653 
L 4550 877 
Q 4550 947 4537 963 
Q 4525 979 4467 979 
L 1555 979 
Q 1523 979 1491 1001 
Q 1459 1024 1459 1056 
L 1459 1478 
Q 1459 1510 1491 1539 
Q 1523 1568 1555 1568 
L 4832 1568 
Q 5094 1568 5180 1478 
Q 5267 1389 5267 1171 
L 5267 403 
Q 5267 179 5180 96 
Q 5094 13 4832 13 
L 2278 13 
Q 2227 13 2214 -3 
Q 2202 -19 2202 -70 
L 2202 -333 
Q 2202 -390 2214 -400 
Q 2227 -410 2285 -410 
L 5338 -410 
Q 5370 -410 5402 -435 
Q 5434 -461 5434 -499 
L 5434 -909 
z
" transform="scale(0.015625)"/>
      <path id="NanumGothicBold-acfc" d="M 5971 2048 
Q 5971 2016 5942 1990 
Q 5914 1965 5882 1965 
L 5043 1965 
L 5043 -928 
Q 5043 -1011 4960 -1011 
L 4390 -1011 
Q 4307 -1011 4307 -928 
L 4307 4979 
Q 4307 5062 4390 5062 
L 4960 5062 
Q 5043 5062 5043 4979 
L 5043 2579 
L 5882 2579 
Q 5914 2579 5942 2556 
Q 5971 2534 5971 2496 
L 5971 2048 
z
M 154 768 
Q 154 858 243 858 
Q 544 845 835 845 
Q 1126 845 1427 851 
L 1427 2547 
Q 1427 2637 1517 2637 
L 2061 2637 
Q 2150 2637 2150 2547 
L 2150 877 
Q 2598 902 3033 940 
Q 3469 979 3904 1050 
Q 3936 1056 3974 1046 
Q 4013 1037 4019 986 
L 4058 582 
Q 4064 525 4038 499 
Q 4013 474 3981 467 
Q 3085 320 2125 275 
Q 1165 230 243 250 
Q 205 250 179 278 
Q 154 307 154 346 
L 154 768 
z
M 3674 4077 
Q 3674 3552 3629 2995 
Q 3584 2438 3482 1875 
Q 3469 1824 3440 1776 
Q 3411 1728 3360 1734 
L 2848 1779 
Q 2765 1786 2784 1914 
Q 2854 2374 2902 2844 
Q 2950 3315 2950 3795 
Q 2950 3885 2905 3910 
Q 2861 3936 2771 3936 
L 653 3936 
Q 614 3936 582 3958 
Q 550 3981 550 4013 
L 550 4454 
Q 550 4499 582 4518 
Q 614 4538 653 4538 
L 3251 4538 
Q 3450 4538 3562 4426 
Q 3674 4314 3674 4077 
z
" transform="scale(0.015625)"/>
      <path id="NanumGothicBold-b97c" d="M 5088 -870 
Q 5088 -902 5059 -931 
Q 5030 -960 5005 -960 
L 1478 -960 
Q 1229 -960 1139 -870 
Q 1050 -781 1050 -576 
L 1050 109 
Q 1050 314 1136 403 
Q 1222 493 1472 493 
L 4160 493 
Q 4211 493 4224 502 
Q 4237 512 4237 570 
L 4237 749 
Q 4237 819 4224 832 
Q 4211 845 4154 845 
L 1126 845 
Q 1094 845 1065 867 
Q 1037 890 1037 922 
L 1037 1331 
Q 1037 1363 1065 1388 
Q 1094 1414 1126 1414 
L 4518 1414 
Q 4781 1414 4867 1334 
Q 4954 1254 4954 1037 
L 4954 346 
Q 4954 122 4867 45 
Q 4781 -32 4518 -32 
L 1850 -32 
Q 1798 -32 1785 -48 
Q 1773 -64 1773 -122 
L 1773 -314 
Q 1773 -378 1785 -387 
Q 1798 -397 1862 -397 
L 4998 -397 
Q 5030 -397 5059 -419 
Q 5088 -442 5088 -480 
L 5088 -870 
z
M 5050 2829 
Q 5050 2797 5021 2768 
Q 4992 2739 4966 2739 
L 1498 2739 
Q 1248 2739 1158 2828 
Q 1069 2918 1069 3123 
L 1069 3782 
Q 1069 3987 1155 4076 
Q 1242 4166 1491 4166 
L 4154 4166 
Q 4205 4166 4217 4182 
Q 4230 4198 4230 4262 
L 4230 4454 
Q 4230 4512 4217 4521 
Q 4205 4531 4147 4531 
L 1184 4531 
Q 1152 4531 1123 4553 
Q 1094 4576 1094 4608 
L 1094 5011 
Q 1094 5043 1123 5068 
Q 1152 5094 1184 5094 
L 4512 5094 
Q 4774 5094 4860 5014 
Q 4947 4934 4947 4717 
L 4947 4019 
Q 4947 3795 4860 3718 
Q 4774 3642 4512 3642 
L 1875 3642 
Q 1818 3642 1805 3626 
Q 1792 3610 1792 3558 
L 1792 3386 
Q 1792 3328 1805 3318 
Q 1818 3309 1882 3309 
L 4960 3309 
Q 4992 3309 5021 3286 
Q 5050 3264 5050 3226 
L 5050 2829 
z
M 5875 1882 
Q 5875 1850 5843 1818 
Q 5811 1786 5779 1786 
L 211 1786 
Q 173 1786 147 1814 
Q 122 1843 122 1882 
L 122 2272 
Q 122 2362 211 2362 
L 5779 2362 
Q 5811 2362 5843 2333 
Q 5875 2304 5875 2272 
L 5875 1882 
z
" transform="scale(0.015625)"/>
      <path id="NanumGothicBold-bc14" d="M 2669 2656 
L 1293 2656 
L 1293 1459 
Q 1293 1350 1408 1350 
L 2554 1350 
Q 2669 1350 2669 1459 
L 2669 2656 
z
M 3405 1178 
Q 3405 966 3302 857 
Q 3200 749 2925 749 
L 1043 749 
Q 762 749 659 845 
Q 557 941 557 1197 
L 557 4653 
Q 557 4685 582 4707 
Q 608 4730 640 4730 
L 1203 4730 
Q 1235 4730 1264 4707 
Q 1293 4685 1293 4653 
L 1293 3251 
L 2669 3251 
L 2669 4659 
Q 2669 4691 2694 4716 
Q 2720 4742 2752 4742 
L 3322 4742 
Q 3354 4742 3379 4716 
Q 3405 4691 3405 4659 
L 3405 1178 
z
M 5965 2195 
Q 5965 2157 5936 2131 
Q 5907 2106 5875 2106 
L 5005 2106 
L 5005 -928 
Q 5005 -1011 4922 -1011 
L 4352 -1011 
Q 4269 -1011 4269 -928 
L 4269 4979 
Q 4269 5062 4352 5062 
L 4922 5062 
Q 5005 5062 5005 4979 
L 5005 2720 
L 5875 2720 
Q 5907 2720 5936 2697 
Q 5965 2675 5965 2643 
L 5965 2195 
z
" transform="scale(0.015625)"/>
      <path id="NanumGothicBold-afbc" d="M 5082 4390 
Q 5082 4218 5066 3958 
Q 5050 3699 5024 3427 
Q 4998 3155 4966 2912 
Q 4934 2669 4909 2528 
L 5786 2528 
Q 5818 2528 5850 2496 
Q 5882 2464 5882 2426 
L 5882 2010 
Q 5882 1978 5850 1946 
Q 5818 1914 5786 1914 
L 3418 1914 
L 3418 582 
Q 3418 544 3392 515 
Q 3366 486 3328 486 
L 2771 486 
Q 2733 486 2707 515 
Q 2682 544 2682 582 
L 2682 1914 
L 211 1914 
Q 173 1914 147 1946 
Q 122 1978 122 2010 
L 122 2426 
Q 122 2528 211 2528 
L 1901 2528 
Q 1946 2720 1987 2941 
Q 2029 3162 2054 3376 
Q 2080 3590 2096 3776 
Q 2112 3962 2112 4090 
Q 2112 4179 2073 4204 
Q 2035 4230 1946 4230 
L 800 4230 
Q 768 4230 736 4252 
Q 704 4275 704 4307 
L 704 4736 
Q 704 4781 736 4800 
Q 768 4819 800 4819 
L 2413 4819 
Q 2579 4819 2707 4723 
Q 2835 4627 2835 4390 
Q 2835 4186 2819 3946 
Q 2803 3706 2771 3462 
Q 2739 3219 2697 2979 
Q 2656 2739 2598 2528 
L 4218 2528 
Q 4243 2682 4265 2890 
Q 4288 3098 4307 3318 
Q 4326 3539 4339 3744 
Q 4352 3949 4352 4090 
Q 4352 4179 4313 4204 
Q 4275 4230 4186 4230 
L 3091 4230 
Q 3059 4230 3027 4252 
Q 2995 4275 2995 4307 
L 2995 4736 
Q 2995 4781 3027 4800 
Q 3059 4819 3091 4819 
L 4659 4819 
Q 4826 4819 4954 4723 
Q 5082 4627 5082 4390 
z
M 5184 -781 
Q 5184 -826 5155 -845 
Q 5126 -864 5088 -864 
L 1440 -864 
Q 1152 -864 1053 -758 
Q 954 -653 954 -403 
L 954 1043 
Q 954 1075 982 1104 
Q 1011 1133 1043 1133 
L 1594 1133 
Q 1632 1133 1661 1104 
Q 1690 1075 1690 1043 
L 1690 -147 
Q 1690 -211 1715 -230 
Q 1741 -250 1805 -250 
L 5088 -250 
Q 5120 -250 5152 -272 
Q 5184 -294 5184 -326 
L 5184 -781 
z
" transform="scale(0.015625)"/>
      <path id="NanumGothicBold-b2e4" d="M 5965 2195 
Q 5965 2157 5936 2131 
Q 5907 2106 5875 2106 
L 5005 2106 
L 5005 -928 
Q 5005 -1011 4922 -1011 
L 4352 -1011 
Q 4269 -1011 4269 -928 
L 4269 4979 
Q 4269 5062 4352 5062 
L 4922 5062 
Q 5005 5062 5005 4979 
L 5005 2720 
L 5875 2720 
Q 5907 2720 5936 2697 
Q 5965 2675 5965 2643 
L 5965 2195 
z
M 3949 1114 
Q 3962 1043 3933 1020 
Q 3904 998 3872 986 
Q 3616 909 3235 851 
Q 2854 794 2448 758 
Q 2042 723 1654 710 
Q 1267 698 1005 717 
Q 768 730 656 822 
Q 544 915 544 1146 
L 544 4179 
Q 544 4403 637 4492 
Q 730 4582 973 4582 
L 3296 4582 
Q 3386 4582 3386 4499 
L 3386 4051 
Q 3386 3968 3296 3968 
L 1395 3968 
Q 1280 3968 1280 3859 
L 1280 1530 
Q 1280 1427 1315 1398 
Q 1350 1370 1472 1357 
Q 1670 1338 1945 1350 
Q 2221 1363 2528 1392 
Q 2835 1421 3155 1465 
Q 3475 1510 3763 1562 
Q 3859 1581 3878 1485 
L 3949 1114 
z
" transform="scale(0.015625)"/>
     </defs>
     <use xlink:href="#NanumGothicBold-d68c"/>
     <use xlink:href="#NanumGothicBold-c804" transform="translate(93.999985 0)"/>
     <use xlink:href="#NanumGothicBold-20" transform="translate(187.999969 0)"/>
     <use xlink:href="#NanumGothicBold-c21c" transform="translate(215.999954 0)"/>
     <use xlink:href="#NanumGothicBold-c11c" transform="translate(309.999939 0)"/>
     <use xlink:href="#NanumGothicBold-b294" transform="translate(403.999924 0)"/>
     <use xlink:href="#NanumGothicBold-20" transform="translate(497.999908 0)"/>
     <use xlink:href="#NanumGothicBold-acb0" transform="translate(525.999893 0)"/>
     <use xlink:href="#NanumGothicBold-acfc" transform="translate(619.999878 0)"/>
     <use xlink:href="#NanumGothicBold-b97c" transform="translate(713.999863 0)"/>
     <use xlink:href="#NanumGothicBold-20" transform="translate(807.999847 0)"/>
     <use xlink:href="#NanumGothicBold-bc14" transform="translate(835.999832 0)"/>
     <use xlink:href="#NanumGothicBold-afbc" transform="translate(929.999817 0)"/>
     <use xlink:href="#NanumGothicBold-b2e4" transform="translate(1023.999802 0)"/>
    </g>
   </g>
   <g id="text_2">
    <!-- X → Y → Z 회전 -->
    <g style="fill: #2563eb" transform="translate(72.237188 89.584516) scale(0.11 -0.11)">
     <defs>
      <path id="NanumGothicBold-58" d="M 3482 -320 
Q 3411 -320 3386 -275 
L 2163 1562 
L 934 -275 
Q 909 -320 838 -320 
L 154 -320 
Q 77 -320 134 -237 
L 1747 2176 
L 250 4429 
Q 230 4461 243 4483 
Q 256 4506 307 4506 
L 954 4506 
Q 1024 4506 1043 4467 
L 2157 2797 
L 3277 4467 
Q 3296 4506 3366 4506 
L 4013 4506 
Q 4064 4506 4077 4483 
Q 4090 4461 4070 4429 
L 2573 2176 
L 4186 -237 
Q 4243 -320 4166 -320 
L 3482 -320 
z
" transform="scale(0.015625)"/>
      <path id="NanumGothicBold-2192" d="M 5882 1920 
L 4672 838 
L 4928 1722 
L 134 1722 
L 134 2118 
L 4928 2118 
L 4672 3002 
L 5882 1920 
z
" transform="scale(0.015625)"/>
      <path id="NanumGothicBold-59" d="M 2515 -243 
Q 2515 -320 2438 -320 
L 1869 -320 
Q 1792 -320 1792 -243 
L 1792 1690 
L 102 4422 
Q 58 4506 160 4506 
L 806 4506 
Q 870 4506 890 4467 
L 2157 2413 
L 3430 4467 
Q 3450 4506 3514 4506 
L 4160 4506 
Q 4262 4506 4218 4422 
L 2515 1683 
L 2515 -243 
z
" transform="scale(0.015625)"/>
      <path id="NanumGothicBold-5a" d="M 243 -320 
Q 211 -320 188 -297 
Q 166 -275 166 -243 
L 166 205 
Q 166 230 182 262 
Q 198 294 211 326 
L 2349 3834 
L 307 3834 
Q 224 3834 224 3917 
L 224 4429 
Q 224 4461 249 4483 
Q 275 4506 307 4506 
L 3155 4506 
Q 3187 4506 3212 4483 
Q 3238 4461 3238 4429 
L 3238 3968 
Q 3238 3955 3222 3916 
Q 3206 3878 3200 3866 
L 1056 352 
L 3251 352 
Q 3328 352 3328 269 
L 3328 -243 
Q 3328 -275 3305 -297 
Q 3283 -320 3251 -320 
L 243 -320 
z
" transform="scale(0.015625)"/>
     </defs>
     <use xlink:href="#NanumGothicBold-58"/>
     <use xlink:href="#NanumGothicBold-20" transform="translate(66.599991 0)"/>
     <use xlink:href="#NanumGothicBold-2192" transform="translate(94.599976 0)"/>
     <use xlink:href="#NanumGothicBold-20" transform="translate(188.59996 0)"/>
     <use xlink:href="#NanumGothicBold-59" transform="translate(216.599945 0)"/>
     <use xlink:href="#NanumGothicBold-20" transform="translate(283.199936 0)"/>
     <use xlink:href="#NanumGothicBold-2192" transform="translate(311.199921 0)"/>
     <use xlink:href="#NanumGothicBold-20" transform="translate(405.199905 0)"/>
     <use xlink:href="#NanumGothicBold-5a" transform="translate(433.19989 0)"/>
     <use xlink:href="#NanumGothicBold-20" transform="translate(487.699875 0)"/>
     <use xlink:href="#NanumGothicBold-d68c" transform="translate(515.69986 0)"/>
     <use xlink:href="#NanumGothicBold-c804" transform="translate(609.699844 0)"/>
    </g>
   </g>
   <g id="text_3">
    <!-- Z → Y → X 회전 -->
    <g style="fill: #10b981" transform="translate(235.917188 89.584516) scale(0.11 -0.11)">
     <use xlink:href="#NanumGothicBold-5a"/>
     <use xlink:href="#NanumGothicBold-20" transform="translate(54.499985 0)"/>
     <use xlink:href="#NanumGothicBold-2192" transform="translate(82.499969 0)"/>
     <use xlink:href="#NanumGothicBold-20" transform="translate(176.499954 0)"/>
     <use xlink:href="#NanumGothicBold-59" transform="translate(204.499939 0)"/>
     <use xlink:href="#NanumGothicBold-20" transform="translate(271.09993 0)"/>
     <use xlink:href="#NanumGothicBold-2192" transform="translate(299.099915 0)"/>
     <use xlink:href="#NanumGothicBold-20" transform="translate(393.099899 0)"/>
     <use xlink:href="#NanumGothicBold-58" transform="translate(421.099884 0)"/>
     <use xlink:href="#NanumGothicBold-20" transform="translate(487.699875 0)"/>
     <use xlink:href="#NanumGothicBold-d68c" transform="translate(515.69986 0)"/>
     <use xlink:href="#NanumGothicBold-c804" transform="translate(609.699844 0)"/>
    </g>
   </g>
   <g id="text_4">
    <!-- 같은 축을 써도 적용 순서가 다르면 최종 자세가 달라집니다. -->
    <g style="fill: #111827" transform="translate(60.989414 128.304023) scale(0.105 -0.105)">
     <defs>
      <path id="NanumGothic-ac19" d="M 4928 218 
Q 4928 134 4845 134 
L 1786 134 
L 1786 -378 
Q 1786 -467 1818 -505 
Q 1850 -544 1939 -544 
L 4986 -544 
Q 5069 -544 5069 -627 
L 5069 -826 
Q 5069 -915 4986 -915 
L 1824 -915 
Q 1542 -915 1440 -822 
Q 1338 -730 1338 -461 
L 1338 1088 
Q 1338 1357 1440 1449 
Q 1542 1542 1824 1542 
L 4877 1542 
Q 4960 1542 4960 1459 
L 4960 1261 
Q 4960 1171 4877 1171 
L 1939 1171 
Q 1850 1171 1818 1136 
Q 1786 1101 1786 1005 
L 1786 499 
L 4838 499 
Q 4928 499 4928 429 
L 4928 218 
z
M 3290 4326 
Q 3213 3904 3033 3545 
Q 2854 3187 2544 2867 
Q 2234 2547 1779 2262 
Q 1325 1978 698 1709 
Q 595 1664 557 1747 
L 461 1958 
Q 435 2010 457 2042 
Q 480 2074 512 2086 
Q 2579 2938 2810 4211 
Q 2848 4397 2656 4397 
L 685 4397 
Q 608 4397 608 4480 
L 608 4704 
Q 608 4781 685 4781 
L 2803 4781 
Q 3110 4781 3222 4672 
Q 3334 4563 3290 4326 
z
M 4928 1952 
Q 4928 1862 4838 1862 
L 4576 1862 
Q 4486 1862 4486 1952 
L 4486 4915 
Q 4486 5005 4576 5005 
L 4838 5005 
Q 4928 5005 4928 4915 
L 4928 3616 
L 5811 3616 
Q 5850 3616 5878 3593 
Q 5907 3571 5907 3533 
L 5907 3315 
Q 5907 3283 5878 3257 
Q 5850 3232 5811 3232 
L 4928 3232 
L 4928 1952 
z
" transform="scale(0.015625)"/>
      <path id="NanumGothic-c740" d="M 5728 2022 
Q 5760 2022 5792 2000 
Q 5824 1978 5824 1939 
L 5824 1722 
Q 5824 1690 5792 1664 
Q 5760 1638 5728 1638 
L 288 1638 
Q 250 1638 221 1664 
Q 192 1690 192 1722 
L 192 1939 
Q 192 1978 221 2000 
Q 250 2022 288 2022 
L 5728 2022 
z
M 3008 2624 
Q 2701 2624 2352 2681 
Q 2003 2739 1705 2873 
Q 1408 3008 1213 3229 
Q 1018 3450 1018 3776 
Q 1018 4122 1213 4342 
Q 1408 4563 1705 4691 
Q 2003 4819 2352 4867 
Q 2701 4915 3008 4915 
Q 3322 4915 3674 4857 
Q 4026 4800 4320 4669 
Q 4614 4538 4806 4320 
Q 4998 4102 4998 3776 
Q 4998 3450 4806 3229 
Q 4614 3008 4320 2873 
Q 4026 2739 3674 2681 
Q 3322 2624 3008 2624 
z
M 3008 4518 
Q 2803 4518 2540 4489 
Q 2278 4461 2048 4381 
Q 1818 4301 1658 4153 
Q 1498 4006 1498 3770 
Q 1498 3533 1658 3385 
Q 1818 3238 2048 3158 
Q 2278 3078 2540 3049 
Q 2803 3021 3008 3021 
Q 3213 3021 3475 3049 
Q 3738 3078 3968 3158 
Q 4198 3238 4358 3385 
Q 4518 3533 4518 3770 
Q 4518 4006 4358 4153 
Q 4198 4301 3968 4381 
Q 3738 4461 3475 4489 
Q 3213 4518 3008 4518 
z
M 5133 -704 
Q 5133 -742 5101 -761 
Q 5069 -781 5037 -781 
L 1562 -781 
Q 1261 -781 1168 -656 
Q 1075 -531 1075 -269 
L 1075 1037 
Q 1075 1126 1165 1126 
L 1427 1126 
Q 1517 1126 1517 1037 
L 1517 -262 
Q 1517 -352 1545 -374 
Q 1574 -397 1664 -397 
L 5037 -397 
Q 5069 -397 5101 -419 
Q 5133 -442 5133 -474 
L 5133 -704 
z
" transform="scale(0.015625)"/>
      <path id="NanumGothic-20" transform="scale(0.015625)"/>
      <path id="NanumGothic-cd95" d="M 947 806 
Q 947 845 979 864 
Q 1011 883 1043 883 
L 2778 883 
L 2778 1587 
L 288 1587 
Q 250 1587 221 1612 
Q 192 1638 192 1670 
L 192 1888 
Q 192 1926 221 1948 
Q 250 1971 288 1971 
L 5728 1971 
Q 5760 1971 5792 1948 
Q 5824 1926 5824 1888 
L 5824 1670 
Q 5824 1638 5792 1612 
Q 5760 1587 5728 1587 
L 3219 1587 
L 3219 883 
L 4442 883 
Q 4742 883 4835 771 
Q 4928 659 4928 397 
L 4928 -870 
Q 4928 -960 4838 -960 
L 4576 -960 
Q 4486 -960 4486 -870 
L 4486 365 
Q 4486 454 4457 476 
Q 4429 499 4339 499 
L 1043 499 
Q 1011 499 979 521 
Q 947 544 947 576 
L 947 806 
z
M 4403 3610 
Q 4237 3482 4029 3366 
Q 3821 3251 3578 3142 
Q 3936 3040 4352 2953 
Q 4768 2867 5146 2816 
Q 5197 2803 5206 2784 
Q 5216 2765 5203 2720 
L 5146 2502 
Q 5126 2432 5043 2451 
Q 4838 2483 4585 2531 
Q 4333 2579 4064 2643 
Q 3795 2707 3526 2774 
Q 3258 2842 3014 2912 
Q 2573 2746 2064 2614 
Q 1555 2483 998 2387 
Q 902 2368 877 2432 
L 800 2650 
Q 787 2682 806 2710 
Q 826 2739 864 2752 
Q 1331 2842 1734 2944 
Q 2138 3046 2499 3161 
Q 2861 3277 3187 3408 
Q 3514 3539 3834 3693 
Q 3942 3744 3932 3789 
Q 3923 3834 3821 3834 
L 1274 3834 
Q 1190 3834 1190 3917 
L 1190 4141 
Q 1190 4218 1274 4218 
L 4038 4218 
Q 4538 4218 4646 4042 
Q 4755 3866 4403 3610 
z
M 3814 5005 
Q 3910 5005 3910 4915 
L 3910 4710 
Q 3910 4614 3814 4614 
L 2131 4614 
Q 2035 4614 2035 4710 
L 2035 4915 
Q 2035 5005 2131 5005 
L 3814 5005 
z
" transform="scale(0.015625)"/>
      <path id="NanumGothic-c744" d="M 3002 2874 
Q 2701 2874 2355 2918 
Q 2010 2963 1715 3088 
Q 1421 3213 1229 3424 
Q 1037 3635 1037 3974 
Q 1037 4307 1229 4518 
Q 1421 4730 1715 4851 
Q 2010 4973 2355 5021 
Q 2701 5069 3002 5069 
Q 3315 5069 3660 5024 
Q 4006 4979 4297 4857 
Q 4589 4736 4777 4521 
Q 4966 4307 4966 3974 
Q 4966 3635 4774 3424 
Q 4582 3213 4291 3088 
Q 4000 2963 3654 2918 
Q 3309 2874 3002 2874 
z
M 3002 4678 
Q 2797 4678 2537 4652 
Q 2278 4627 2048 4550 
Q 1818 4474 1661 4333 
Q 1504 4192 1504 3968 
Q 1504 3744 1661 3606 
Q 1818 3469 2048 3392 
Q 2278 3315 2537 3289 
Q 2797 3264 3002 3264 
Q 3206 3264 3465 3289 
Q 3725 3315 3955 3392 
Q 4186 3469 4342 3606 
Q 4499 3744 4499 3968 
Q 4499 4192 4339 4333 
Q 4179 4474 3948 4550 
Q 3718 4627 3459 4652 
Q 3200 4678 3002 4678 
z
M 5728 2483 
Q 5760 2483 5792 2460 
Q 5824 2438 5824 2400 
L 5824 2182 
Q 5824 2150 5792 2124 
Q 5760 2099 5728 2099 
L 288 2099 
Q 250 2099 221 2124 
Q 192 2150 192 2182 
L 192 2400 
Q 192 2438 221 2460 
Q 250 2483 288 2483 
L 5728 2483 
z
M 5056 -781 
Q 5056 -813 5027 -835 
Q 4998 -858 4973 -858 
L 1568 -858 
Q 1267 -858 1174 -746 
Q 1082 -634 1082 -365 
L 1082 96 
Q 1082 365 1194 457 
Q 1306 550 1594 550 
L 4346 550 
Q 4435 550 4460 576 
Q 4486 602 4486 698 
L 4486 1056 
Q 4486 1152 4464 1177 
Q 4442 1203 4352 1203 
L 1158 1203 
Q 1126 1203 1097 1222 
Q 1069 1242 1069 1274 
L 1069 1498 
Q 1069 1530 1097 1549 
Q 1126 1568 1158 1568 
L 4416 1568 
Q 4570 1568 4666 1545 
Q 4762 1523 4819 1472 
Q 4877 1421 4899 1328 
Q 4922 1235 4922 1101 
L 4922 640 
Q 4922 371 4810 278 
Q 4698 186 4410 186 
L 1651 186 
Q 1562 186 1539 160 
Q 1517 134 1517 38 
L 1517 -339 
Q 1517 -429 1542 -457 
Q 1568 -486 1658 -486 
L 4966 -486 
Q 4998 -486 5027 -505 
Q 5056 -525 5056 -557 
L 5056 -781 
z
" transform="scale(0.015625)"/>
      <path id="NanumGothic-c368" d="M 3232 4589 
Q 3238 3693 3046 2835 
Q 3194 2355 3472 1916 
Q 3750 1478 4122 1133 
Q 4198 1069 4128 998 
L 3981 845 
Q 3949 813 3917 819 
Q 3872 832 3846 858 
Q 3706 992 3565 1161 
Q 3424 1331 3296 1513 
Q 3168 1696 3062 1881 
Q 2957 2067 2880 2246 
Q 2714 1747 2461 1270 
Q 2208 794 1856 339 
Q 1811 275 1747 314 
L 1536 474 
Q 1478 518 1536 595 
Q 1830 986 2048 1376 
Q 1850 1600 1680 1872 
Q 1510 2144 1389 2438 
Q 1242 2016 1021 1625 
Q 800 1235 499 877 
Q 454 813 390 851 
L 179 1011 
Q 122 1069 179 1133 
Q 499 1523 716 1926 
Q 934 2330 1065 2755 
Q 1197 3181 1251 3641 
Q 1306 4102 1306 4602 
Q 1306 4646 1325 4666 
Q 1350 4691 1382 4691 
L 1645 4678 
Q 1715 4678 1715 4589 
Q 1734 3782 1562 3034 
Q 1658 2707 1837 2361 
Q 2016 2016 2240 1741 
Q 2554 2406 2691 3110 
Q 2829 3814 2822 4602 
Q 2822 4646 2842 4666 
Q 2867 4691 2899 4691 
L 3162 4678 
Q 3232 4678 3232 4589 
z
M 5152 -806 
Q 5152 -896 5062 -896 
L 4800 -896 
Q 4710 -896 4710 -806 
L 4710 2662 
L 3712 2662 
Q 3629 2662 3629 2739 
L 3629 2970 
Q 3629 3046 3712 3046 
L 4710 3046 
L 4710 4915 
Q 4710 5005 4800 5005 
L 5062 5005 
Q 5152 5005 5152 4915 
L 5152 -806 
z
" transform="scale(0.015625)"/>
      <path id="NanumGothic-b3c4" d="M 5030 1984 
Q 5030 1894 4947 1894 
L 3213 1894 
L 3213 499 
L 5728 499 
Q 5760 499 5792 476 
Q 5824 454 5824 416 
L 5824 198 
Q 5824 166 5792 140 
Q 5760 115 5728 115 
L 288 115 
Q 250 115 221 140 
Q 192 166 192 198 
L 192 416 
Q 192 454 221 476 
Q 250 499 288 499 
L 2771 499 
L 2771 1894 
L 1491 1894 
Q 1210 1894 1107 1987 
Q 1005 2080 1005 2349 
L 1005 4134 
Q 1005 4403 1107 4496 
Q 1210 4589 1491 4589 
L 4902 4589 
Q 4986 4589 4986 4506 
L 4986 4294 
Q 4986 4205 4902 4205 
L 1600 4205 
Q 1510 4205 1478 4166 
Q 1446 4128 1446 4032 
L 1446 2445 
Q 1446 2355 1478 2316 
Q 1510 2278 1600 2278 
L 4947 2278 
Q 5030 2278 5030 2195 
L 5030 1984 
z
" transform="scale(0.015625)"/>
      <path id="NanumGothic-c801" d="M 3309 4166 
Q 3219 3904 3056 3648 
Q 2893 3392 2669 3142 
Q 2886 2912 3206 2704 
Q 3526 2496 3904 2336 
Q 3955 2317 3961 2281 
Q 3968 2246 3949 2214 
L 3821 1984 
Q 3802 1952 3763 1949 
Q 3725 1946 3693 1958 
Q 3552 2022 3389 2112 
Q 3226 2202 3053 2317 
Q 2880 2432 2710 2566 
Q 2541 2701 2394 2848 
Q 2029 2490 1590 2195 
Q 1152 1901 704 1702 
Q 672 1690 640 1683 
Q 608 1677 589 1709 
L 461 1933 
Q 442 1965 458 2000 
Q 474 2035 506 2048 
Q 1331 2445 1913 2957 
Q 2496 3469 2822 4141 
Q 2867 4230 2835 4268 
Q 2803 4307 2714 4307 
L 838 4307 
Q 762 4307 762 4390 
L 762 4614 
Q 762 4691 838 4691 
L 2886 4691 
Q 3219 4691 3315 4572 
Q 3411 4454 3309 4166 
z
M 1421 1133 
Q 1421 1171 1453 1190 
Q 1485 1210 1517 1210 
L 4666 1210 
Q 4966 1210 5059 1098 
Q 5152 986 5152 723 
L 5152 -832 
Q 5152 -922 5062 -922 
L 4800 -922 
Q 4710 -922 4710 -832 
L 4710 691 
Q 4710 781 4681 803 
Q 4653 826 4563 826 
L 1517 826 
Q 1485 826 1453 848 
Q 1421 870 1421 902 
L 1421 1133 
z
M 4710 3462 
L 4710 4915 
Q 4710 5005 4800 5005 
L 5062 5005 
Q 5152 5005 5152 4915 
L 5152 1651 
Q 5152 1562 5062 1562 
L 4800 1562 
Q 4710 1562 4710 1651 
L 4710 3078 
L 3501 3078 
Q 3418 3078 3418 3155 
L 3418 3386 
Q 3418 3462 3501 3462 
L 4710 3462 
z
" transform="scale(0.015625)"/>
      <path id="NanumGothic-c6a9" d="M 5728 1978 
Q 5760 1978 5792 1955 
Q 5824 1933 5824 1894 
L 5824 1677 
Q 5824 1645 5792 1619 
Q 5760 1594 5728 1594 
L 288 1594 
Q 250 1594 221 1619 
Q 192 1645 192 1677 
L 192 1894 
Q 192 1933 221 1955 
Q 250 1978 288 1978 
L 1741 1978 
L 1741 3008 
Q 1434 3136 1226 3347 
Q 1018 3558 1018 3885 
Q 1018 4198 1219 4409 
Q 1421 4621 1718 4742 
Q 2016 4864 2365 4915 
Q 2714 4966 3008 4966 
Q 3309 4966 3657 4908 
Q 4006 4851 4304 4723 
Q 4602 4595 4800 4387 
Q 4998 4179 4998 3885 
Q 4998 3571 4790 3360 
Q 4582 3149 4269 3021 
L 4269 1978 
L 5728 1978 
z
M 4992 109 
Q 4992 -218 4787 -422 
Q 4582 -627 4281 -742 
Q 3981 -858 3632 -899 
Q 3283 -941 2995 -941 
Q 2803 -941 2582 -921 
Q 2362 -902 2141 -860 
Q 1920 -819 1715 -742 
Q 1510 -666 1353 -547 
Q 1197 -429 1101 -269 
Q 1005 -109 1005 109 
Q 1005 429 1209 630 
Q 1414 832 1715 947 
Q 2016 1062 2365 1107 
Q 2714 1152 2995 1152 
Q 3283 1152 3632 1110 
Q 3981 1069 4285 953 
Q 4589 838 4790 633 
Q 4992 429 4992 109 
z
M 3008 4563 
Q 2803 4563 2540 4537 
Q 2278 4512 2044 4435 
Q 1811 4358 1648 4224 
Q 1485 4090 1485 3878 
Q 1485 3667 1648 3532 
Q 1811 3398 2044 3321 
Q 2278 3245 2540 3219 
Q 2803 3194 3008 3194 
Q 3206 3194 3468 3219 
Q 3731 3245 3968 3321 
Q 4205 3398 4368 3532 
Q 4531 3667 4531 3878 
Q 4531 4090 4368 4224 
Q 4205 4358 3968 4435 
Q 3731 4512 3468 4537 
Q 3206 4563 3008 4563 
z
M 4525 102 
Q 4525 314 4352 438 
Q 4179 563 3936 633 
Q 3693 704 3433 726 
Q 3174 749 2995 749 
Q 2810 749 2550 726 
Q 2291 704 2051 633 
Q 1811 563 1641 438 
Q 1472 314 1472 102 
Q 1472 -102 1641 -230 
Q 1811 -358 2051 -425 
Q 2291 -493 2550 -515 
Q 2810 -538 2995 -538 
Q 3174 -538 3436 -515 
Q 3699 -493 3939 -425 
Q 4179 -358 4352 -230 
Q 4525 -102 4525 102 
z
M 3008 2797 
Q 2822 2797 2608 2813 
Q 2394 2829 2182 2880 
L 2182 1978 
L 3827 1978 
L 3827 2886 
Q 3616 2835 3405 2816 
Q 3194 2797 3008 2797 
z
" transform="scale(0.015625)"/>
      <path id="NanumGothic-c21c" d="M 2912 314 
Q 2880 314 2854 342 
Q 2829 371 2829 410 
L 2829 1715 
L 288 1715 
Q 250 1715 221 1740 
Q 192 1766 192 1798 
L 192 2016 
Q 192 2054 221 2076 
Q 250 2099 288 2099 
L 5728 2099 
Q 5760 2099 5792 2076 
Q 5824 2054 5824 2016 
L 5824 1798 
Q 5824 1766 5792 1740 
Q 5760 1715 5728 1715 
L 3270 1715 
L 3270 410 
Q 3270 371 3248 342 
Q 3226 314 3187 314 
L 2912 314 
z
M 3232 4806 
Q 3219 4755 3209 4700 
Q 3200 4646 3187 4595 
Q 3219 4499 3264 4429 
Q 3379 4224 3577 4025 
Q 3776 3827 4035 3657 
Q 4294 3488 4604 3357 
Q 4915 3226 5254 3149 
Q 5293 3136 5299 3104 
Q 5306 3072 5293 3040 
L 5184 2822 
Q 5171 2790 5148 2774 
Q 5126 2758 5062 2771 
Q 4723 2854 4409 2995 
Q 4096 3136 3827 3315 
Q 3558 3494 3337 3705 
Q 3117 3917 2976 4141 
Q 2694 3680 2166 3302 
Q 1638 2925 934 2720 
Q 832 2694 806 2752 
L 710 2982 
Q 698 3014 707 3052 
Q 717 3091 762 3104 
Q 1190 3219 1548 3408 
Q 1907 3597 2172 3830 
Q 2438 4064 2598 4326 
Q 2758 4589 2790 4851 
Q 2803 4941 2874 4928 
L 3162 4896 
Q 3238 4883 3232 4806 
z
M 5133 -704 
Q 5133 -742 5101 -761 
Q 5069 -781 5037 -781 
L 1510 -781 
Q 1210 -781 1117 -656 
Q 1024 -531 1024 -269 
L 1024 1005 
Q 1024 1094 1114 1094 
L 1376 1094 
Q 1466 1094 1466 1005 
L 1466 -262 
Q 1466 -352 1494 -374 
Q 1523 -397 1613 -397 
L 5037 -397 
Q 5069 -397 5101 -419 
Q 5133 -442 5133 -474 
L 5133 -704 
z
" transform="scale(0.015625)"/>
      <path id="NanumGothic-c11c" d="M 5152 -806 
Q 5152 -896 5062 -896 
L 4800 -896 
Q 4710 -896 4710 -806 
L 4710 2534 
L 3309 2534 
Q 3226 2534 3226 2611 
L 3226 2842 
Q 3226 2918 3309 2918 
L 4710 2918 
L 4710 4915 
Q 4710 5005 4800 5005 
L 5062 5005 
Q 5152 5005 5152 4915 
L 5152 -806 
z
M 2323 4589 
Q 2323 4166 2288 3779 
Q 2253 3392 2176 3034 
Q 2240 2778 2374 2493 
Q 2509 2208 2691 1926 
Q 2874 1645 3101 1379 
Q 3328 1114 3584 902 
Q 3616 877 3619 838 
Q 3622 800 3603 774 
L 3443 576 
Q 3386 506 3309 576 
Q 3130 730 2941 944 
Q 2752 1158 2576 1395 
Q 2400 1632 2246 1881 
Q 2093 2131 1984 2362 
Q 1779 1779 1446 1289 
Q 1114 800 653 378 
Q 589 326 544 371 
L 352 570 
Q 333 589 336 621 
Q 339 653 371 685 
Q 762 1056 1050 1465 
Q 1338 1875 1520 2348 
Q 1702 2822 1788 3379 
Q 1875 3936 1875 4602 
Q 1875 4646 1897 4668 
Q 1920 4691 1952 4691 
L 2253 4678 
Q 2323 4678 2323 4589 
z
" transform="scale(0.015625)"/>
      <path id="NanumGothic-ac00" d="M 3245 4064 
Q 3213 3514 3027 2982 
Q 2842 2451 2512 1968 
Q 2182 1485 1718 1072 
Q 1254 659 666 346 
Q 582 301 544 365 
L 403 589 
Q 358 666 429 698 
Q 973 979 1392 1340 
Q 1811 1702 2108 2124 
Q 2406 2547 2579 3014 
Q 2752 3482 2797 3974 
Q 2810 4070 2771 4105 
Q 2733 4141 2643 4141 
L 659 4141 
Q 582 4141 582 4224 
L 582 4448 
Q 582 4525 659 4525 
L 2765 4525 
Q 3066 4525 3162 4413 
Q 3258 4301 3245 4064 
z
M 4928 -806 
Q 4928 -896 4838 -896 
L 4576 -896 
Q 4486 -896 4486 -806 
L 4486 4915 
Q 4486 5005 4576 5005 
L 4838 5005 
Q 4928 5005 4928 4915 
L 4928 2650 
L 5811 2650 
Q 5850 2650 5878 2627 
Q 5907 2605 5907 2566 
L 5907 2349 
Q 5907 2317 5878 2291 
Q 5850 2266 5811 2266 
L 4928 2266 
L 4928 -806 
z
" transform="scale(0.015625)"/>
      <path id="NanumGothic-b2e4" d="M 4019 1171 
Q 4032 1082 3936 1062 
Q 3699 1005 3337 953 
Q 2976 902 2576 864 
Q 2176 826 1785 806 
Q 1395 787 1107 794 
Q 819 800 713 928 
Q 608 1056 608 1325 
L 608 4077 
Q 608 4346 710 4435 
Q 813 4525 1094 4525 
L 3296 4525 
Q 3379 4525 3379 4448 
L 3379 4218 
Q 3379 4141 3296 4141 
L 1178 4141 
Q 1088 4141 1069 4118 
Q 1050 4096 1050 4000 
L 1050 1357 
Q 1050 1261 1082 1229 
Q 1114 1197 1203 1190 
Q 1510 1178 1852 1194 
Q 2195 1210 2544 1245 
Q 2893 1280 3229 1328 
Q 3565 1376 3866 1434 
Q 3968 1453 3987 1363 
L 4019 1171 
z
M 4928 -806 
Q 4928 -896 4838 -896 
L 4576 -896 
Q 4486 -896 4486 -806 
L 4486 4915 
Q 4486 5005 4576 5005 
L 4838 5005 
Q 4928 5005 4928 4915 
L 4928 2586 
L 5811 2586 
Q 5850 2586 5878 2563 
Q 5907 2541 5907 2502 
L 5907 2285 
Q 5907 2253 5878 2227 
Q 5850 2202 5811 2202 
L 4928 2202 
L 4928 -806 
z
" transform="scale(0.015625)"/>
      <path id="NanumGothic-b974" d="M 5728 499 
Q 5760 499 5792 476 
Q 5824 454 5824 416 
L 5824 198 
Q 5824 166 5792 140 
Q 5760 115 5728 115 
L 288 115 
Q 250 115 221 140 
Q 192 166 192 198 
L 192 416 
Q 192 454 221 476 
Q 250 499 288 499 
L 5728 499 
z
M 5114 1690 
Q 5114 1658 5085 1635 
Q 5056 1613 5030 1613 
L 1491 1613 
Q 1190 1613 1097 1725 
Q 1005 1837 1005 2106 
L 1005 2906 
Q 1005 3181 1117 3270 
Q 1229 3360 1517 3360 
L 4403 3360 
Q 4493 3360 4515 3385 
Q 4538 3411 4538 3507 
L 4538 4173 
Q 4538 4269 4515 4294 
Q 4493 4320 4403 4320 
L 1094 4320 
Q 1062 4320 1033 4339 
Q 1005 4358 1005 4390 
L 1005 4634 
Q 1005 4666 1033 4685 
Q 1062 4704 1094 4704 
L 4474 4704 
Q 4627 4704 4723 4681 
Q 4819 4659 4876 4608 
Q 4934 4557 4956 4464 
Q 4979 4371 4979 4237 
L 4979 3437 
Q 4979 3162 4867 3072 
Q 4755 2982 4467 2982 
L 1581 2982 
Q 1491 2982 1468 2956 
Q 1446 2931 1446 2835 
L 1446 2144 
Q 1446 2054 1472 2025 
Q 1498 1997 1587 1997 
L 5024 1997 
Q 5056 1997 5085 1977 
Q 5114 1958 5114 1926 
L 5114 1690 
z
" transform="scale(0.015625)"/>
      <path id="NanumGothic-ba74" d="M 5152 877 
Q 5152 787 5062 787 
L 4800 787 
Q 4710 787 4710 877 
L 4710 2381 
L 3443 2381 
L 3443 2227 
Q 3443 1958 3340 1865 
Q 3238 1773 2957 1773 
L 1197 1773 
Q 1043 1773 950 1792 
Q 858 1811 803 1865 
Q 749 1920 729 2006 
Q 710 2093 710 2227 
L 710 4205 
Q 710 4474 812 4566 
Q 915 4659 1197 4659 
L 2957 4659 
Q 3110 4659 3203 4640 
Q 3296 4621 3350 4569 
Q 3405 4518 3424 4428 
Q 3443 4339 3443 4205 
L 3443 3974 
L 4710 3974 
L 4710 4915 
Q 4710 5005 4800 5005 
L 5062 5005 
Q 5152 5005 5152 4915 
L 5152 877 
z
M 1306 4275 
Q 1216 4275 1184 4240 
Q 1152 4205 1152 4109 
L 1152 2323 
Q 1152 2227 1184 2192 
Q 1216 2157 1306 2157 
L 2848 2157 
Q 2938 2157 2970 2192 
Q 3002 2227 3002 2323 
L 3002 4109 
Q 3002 4205 2970 4240 
Q 2938 4275 2848 4275 
L 1306 4275 
z
M 5350 -704 
Q 5350 -742 5318 -761 
Q 5286 -781 5254 -781 
L 2048 -781 
Q 1747 -781 1654 -669 
Q 1562 -557 1562 -294 
L 1562 1005 
Q 1562 1094 1651 1094 
L 1914 1094 
Q 2003 1094 2003 1005 
L 2003 -262 
Q 2003 -352 2032 -374 
Q 2061 -397 2150 -397 
L 5254 -397 
Q 5286 -397 5318 -419 
Q 5350 -442 5350 -474 
L 5350 -704 
z
M 3443 2758 
L 4710 2758 
L 4710 3597 
L 3443 3597 
L 3443 2758 
z
" transform="scale(0.015625)"/>
      <path id="NanumGothic-cd5c" d="M 3507 3360 
Q 3354 3136 3171 2941 
Q 2989 2746 2765 2560 
Q 3034 2394 3360 2259 
Q 3686 2125 3987 2054 
Q 4077 2035 4038 1933 
L 3942 1728 
Q 3904 1651 3808 1683 
Q 3424 1805 3085 1961 
Q 2746 2118 2419 2310 
Q 1805 1907 851 1549 
Q 794 1523 771 1529 
Q 749 1536 730 1568 
L 621 1792 
Q 576 1869 666 1901 
Q 1485 2195 2061 2550 
Q 2637 2906 3021 3334 
Q 3078 3398 3049 3449 
Q 3021 3501 2912 3501 
L 909 3501 
Q 832 3501 832 3584 
L 832 3808 
Q 832 3885 909 3885 
L 3085 3885 
Q 3462 3885 3568 3741 
Q 3674 3597 3507 3360 
z
M 5152 -806 
Q 5152 -896 5062 -896 
L 4800 -896 
Q 4710 -896 4710 -806 
L 4710 4915 
Q 4710 5005 4800 5005 
L 5062 5005 
Q 5152 5005 5152 4915 
L 5152 -806 
z
M 4282 806 
Q 4384 826 4390 762 
L 4429 538 
Q 4442 461 4346 448 
Q 4122 410 3872 374 
Q 3622 339 3360 310 
Q 3098 282 2829 256 
Q 2560 230 2310 218 
Q 2125 205 1865 198 
Q 1606 192 1334 189 
Q 1062 186 806 186 
Q 550 186 371 192 
Q 333 192 304 217 
Q 275 243 275 275 
L 275 493 
Q 275 531 304 553 
Q 333 576 371 576 
Q 518 570 729 566 
Q 941 563 1174 563 
Q 1408 563 1648 569 
Q 1888 576 2093 582 
L 2093 1498 
Q 2093 1536 2115 1565 
Q 2138 1594 2176 1594 
L 2451 1594 
Q 2483 1594 2508 1565 
Q 2534 1536 2534 1498 
L 2534 608 
Q 2765 627 3005 649 
Q 3245 672 3475 697 
Q 3706 723 3914 748 
Q 4122 774 4282 806 
z
M 2931 4781 
Q 3027 4781 3027 4691 
L 3027 4486 
Q 3027 4390 2931 4390 
L 1485 4390 
Q 1389 4390 1389 4486 
L 1389 4691 
Q 1389 4781 1485 4781 
L 2931 4781 
z
" transform="scale(0.015625)"/>
      <path id="NanumGothic-c885" d="M 4992 109 
Q 4992 -218 4787 -422 
Q 4582 -627 4281 -742 
Q 3981 -858 3632 -899 
Q 3283 -941 2995 -941 
Q 2803 -941 2582 -921 
Q 2362 -902 2141 -860 
Q 1920 -819 1715 -742 
Q 1510 -666 1353 -547 
Q 1197 -429 1101 -269 
Q 1005 -109 1005 109 
Q 1005 429 1209 630 
Q 1414 832 1715 947 
Q 2016 1062 2365 1107 
Q 2714 1152 2995 1152 
Q 3283 1152 3632 1110 
Q 3981 1069 4285 953 
Q 4589 838 4790 633 
Q 4992 429 4992 109 
z
M 4493 4218 
Q 4160 3904 3590 3610 
Q 3770 3558 3990 3500 
Q 4211 3443 4441 3385 
Q 4672 3328 4902 3277 
Q 5133 3226 5331 3187 
Q 5414 3168 5389 3098 
L 5299 2886 
Q 5267 2816 5184 2835 
Q 4966 2874 4697 2938 
Q 4429 3002 4150 3075 
Q 3872 3149 3600 3225 
Q 3328 3302 3098 3379 
Q 2592 3168 2013 3005 
Q 1434 2842 832 2739 
Q 774 2726 752 2748 
Q 730 2771 717 2810 
L 659 3002 
Q 634 3098 710 3104 
Q 1152 3174 1638 3308 
Q 2125 3443 2576 3609 
Q 3027 3776 3404 3958 
Q 3782 4141 4006 4307 
Q 4109 4384 4086 4429 
Q 4064 4474 3974 4474 
L 1210 4474 
Q 1126 4474 1126 4557 
L 1126 4781 
Q 1126 4858 1210 4858 
L 4134 4858 
Q 4627 4858 4716 4688 
Q 4806 4518 4493 4218 
z
M 4525 102 
Q 4525 314 4352 438 
Q 4179 563 3936 633 
Q 3693 704 3433 726 
Q 3174 749 2995 749 
Q 2810 749 2550 726 
Q 2291 704 2051 633 
Q 1811 563 1641 438 
Q 1472 314 1472 102 
Q 1472 -102 1641 -230 
Q 1811 -358 2051 -425 
Q 2291 -493 2550 -515 
Q 2810 -538 2995 -538 
Q 3174 -538 3436 -515 
Q 3699 -493 3939 -425 
Q 4179 -358 4352 -230 
Q 4525 -102 4525 102 
z
M 3136 2944 
Q 3168 2944 3193 2915 
Q 3219 2886 3219 2848 
L 3219 1990 
L 5728 1990 
Q 5760 1990 5792 1968 
Q 5824 1946 5824 1907 
L 5824 1690 
Q 5824 1658 5792 1632 
Q 5760 1606 5728 1606 
L 288 1606 
Q 250 1606 221 1632 
Q 192 1658 192 1690 
L 192 1907 
Q 192 1946 221 1968 
Q 250 1990 288 1990 
L 2778 1990 
L 2778 2848 
Q 2778 2886 2800 2915 
Q 2822 2944 2861 2944 
L 3136 2944 
z
" transform="scale(0.015625)"/>
      <path id="NanumGothic-c790" d="M 3674 858 
Q 3654 826 3625 819 
Q 3597 813 3546 851 
Q 3392 966 3219 1116 
Q 3046 1267 2880 1436 
Q 2714 1606 2554 1788 
Q 2394 1971 2259 2150 
Q 1939 1747 1529 1379 
Q 1120 1011 595 646 
Q 563 627 531 617 
Q 499 608 480 634 
L 326 832 
Q 301 864 307 899 
Q 314 934 339 954 
Q 1363 1677 1936 2419 
Q 2509 3162 2733 3968 
Q 2758 4058 2736 4099 
Q 2714 4141 2624 4141 
L 685 4141 
Q 608 4141 608 4224 
L 608 4448 
Q 608 4525 698 4525 
L 2797 4525 
Q 3130 4525 3219 4409 
Q 3309 4294 3219 4000 
Q 2970 3181 2515 2496 
Q 2662 2291 2828 2092 
Q 2995 1894 3161 1718 
Q 3328 1542 3494 1398 
Q 3661 1254 3808 1158 
Q 3840 1133 3840 1101 
Q 3840 1069 3821 1043 
L 3674 858 
z
M 4928 -806 
Q 4928 -896 4838 -896 
L 4576 -896 
Q 4486 -896 4486 -806 
L 4486 4915 
Q 4486 5005 4576 5005 
L 4838 5005 
Q 4928 5005 4928 4915 
L 4928 2586 
L 5811 2586 
Q 5850 2586 5878 2563 
Q 5907 2541 5907 2502 
L 5907 2285 
Q 5907 2253 5878 2227 
Q 5850 2202 5811 2202 
L 4928 2202 
L 4928 -806 
z
" transform="scale(0.015625)"/>
      <path id="NanumGothic-c138" d="M 2035 4557 
Q 2035 4134 2019 3769 
Q 2003 3405 1952 3078 
Q 1990 2816 2092 2537 
Q 2195 2259 2342 1974 
Q 2490 1690 2685 1418 
Q 2880 1146 3110 909 
Q 3136 883 3139 844 
Q 3142 806 3110 781 
L 2931 608 
Q 2899 576 2860 579 
Q 2822 582 2797 614 
Q 2643 781 2492 979 
Q 2342 1178 2208 1392 
Q 2074 1606 1962 1824 
Q 1850 2042 1773 2240 
Q 1606 1709 1324 1289 
Q 1043 870 621 467 
Q 557 416 512 461 
L 307 653 
Q 250 698 326 768 
Q 666 1088 906 1446 
Q 1146 1805 1299 2253 
Q 1453 2701 1523 3267 
Q 1594 3834 1594 4570 
Q 1594 4614 1616 4636 
Q 1638 4659 1670 4659 
L 1952 4646 
Q 2035 4646 2035 4557 
z
M 3808 2803 
L 3808 4806 
Q 3808 4896 3898 4896 
L 4141 4896 
Q 4230 4896 4230 4806 
L 4230 -563 
Q 4230 -653 4141 -653 
L 3898 -653 
Q 3808 -653 3808 -563 
L 3808 2419 
L 2861 2419 
Q 2778 2419 2778 2496 
L 2778 2726 
Q 2778 2803 2861 2803 
L 3808 2803 
z
M 5363 -806 
Q 5363 -896 5274 -896 
L 5030 -896 
Q 4941 -896 4941 -806 
L 4941 4915 
Q 4941 5005 5030 5005 
L 5274 5005 
Q 5363 5005 5363 4915 
L 5363 -806 
z
" transform="scale(0.015625)"/>
      <path id="NanumGothic-b2ec" d="M 5069 -838 
Q 5069 -870 5040 -892 
Q 5011 -915 4986 -915 
L 1766 -915 
Q 1466 -915 1373 -803 
Q 1280 -691 1280 -422 
L 1280 58 
Q 1280 326 1392 419 
Q 1504 512 1792 512 
L 4352 512 
Q 4442 512 4467 537 
Q 4493 563 4493 659 
L 4493 1024 
Q 4493 1120 4470 1145 
Q 4448 1171 4358 1171 
L 1357 1171 
Q 1325 1171 1296 1190 
Q 1267 1210 1267 1242 
L 1267 1472 
Q 1267 1504 1296 1523 
Q 1325 1542 1357 1542 
L 4429 1542 
Q 4582 1542 4678 1520 
Q 4774 1498 4832 1446 
Q 4890 1395 4912 1302 
Q 4934 1210 4934 1075 
L 4934 595 
Q 4934 326 4822 233 
Q 4710 141 4422 141 
L 1856 141 
Q 1766 141 1744 115 
Q 1722 90 1722 -6 
L 1722 -397 
Q 1722 -486 1747 -515 
Q 1773 -544 1862 -544 
L 4979 -544 
Q 5011 -544 5040 -563 
Q 5069 -582 5069 -614 
L 5069 -838 
z
M 4058 2560 
Q 4070 2496 4044 2470 
Q 4019 2445 3981 2432 
Q 3744 2374 3385 2323 
Q 3027 2272 2633 2233 
Q 2240 2195 1853 2176 
Q 1466 2157 1178 2163 
Q 890 2170 784 2298 
Q 678 2426 678 2694 
L 678 4326 
Q 678 4595 780 4684 
Q 883 4774 1165 4774 
L 3341 4774 
Q 3424 4774 3424 4698 
L 3424 4467 
Q 3424 4390 3341 4390 
L 1248 4390 
Q 1158 4390 1139 4368 
Q 1120 4346 1120 4250 
L 1120 2726 
Q 1120 2630 1152 2598 
Q 1184 2566 1274 2560 
Q 1581 2547 1917 2563 
Q 2253 2579 2592 2614 
Q 2931 2650 3264 2698 
Q 3597 2746 3898 2803 
Q 3955 2816 3984 2803 
Q 4013 2790 4026 2733 
L 4058 2560 
z
M 4928 1971 
Q 4928 1882 4838 1882 
L 4576 1882 
Q 4486 1882 4486 1971 
L 4486 4915 
Q 4486 5005 4576 5005 
L 4838 5005 
Q 4928 5005 4928 4915 
L 4928 3642 
L 5811 3642 
Q 5850 3642 5878 3619 
Q 5907 3597 5907 3558 
L 5907 3341 
Q 5907 3309 5878 3283 
Q 5850 3258 5811 3258 
L 4928 3258 
L 4928 1971 
z
" transform="scale(0.015625)"/>
      <path id="NanumGothic-b77c" d="M 1088 570 
Q 800 582 701 688 
Q 602 794 602 1062 
L 602 2330 
Q 602 2598 714 2691 
Q 826 2784 1114 2784 
L 2726 2784 
Q 2816 2784 2841 2809 
Q 2867 2835 2867 2931 
L 2867 3994 
Q 2867 4090 2844 4115 
Q 2822 4141 2733 4141 
L 717 4141 
Q 685 4141 656 4160 
Q 627 4179 627 4211 
L 627 4454 
Q 627 4486 656 4505 
Q 685 4525 717 4525 
L 2803 4525 
Q 2957 4525 3053 4502 
Q 3149 4480 3206 4429 
Q 3264 4378 3286 4285 
Q 3309 4192 3309 4058 
L 3309 2854 
Q 3309 2586 3197 2493 
Q 3085 2400 2797 2400 
L 1178 2400 
Q 1088 2400 1065 2374 
Q 1043 2349 1043 2253 
L 1043 1094 
Q 1043 947 1184 947 
Q 1946 934 2646 1004 
Q 3347 1075 4006 1222 
Q 4096 1242 4115 1158 
L 4154 947 
Q 4166 864 4070 838 
Q 3731 762 3356 707 
Q 2982 653 2598 617 
Q 2214 582 1830 569 
Q 1446 557 1088 570 
z
M 4928 -806 
Q 4928 -896 4838 -896 
L 4576 -896 
Q 4486 -896 4486 -806 
L 4486 4915 
Q 4486 5005 4576 5005 
L 4838 5005 
Q 4928 5005 4928 4915 
L 4928 2586 
L 5811 2586 
Q 5850 2586 5878 2563 
Q 5907 2541 5907 2502 
L 5907 2285 
Q 5907 2253 5878 2227 
Q 5850 2202 5811 2202 
L 4928 2202 
L 4928 -806 
z
" transform="scale(0.015625)"/>
      <path id="NanumGothic-c9d1" d="M 1978 -845 
Q 1824 -845 1731 -825 
Q 1638 -806 1587 -752 
Q 1536 -698 1517 -611 
Q 1498 -525 1498 -390 
L 1498 1446 
Q 1498 1478 1523 1497 
Q 1549 1517 1581 1517 
L 1862 1517 
Q 1894 1517 1916 1494 
Q 1939 1472 1939 1446 
L 1939 768 
L 4710 768 
L 4710 1434 
Q 4710 1466 4732 1491 
Q 4755 1517 4787 1517 
L 5069 1517 
Q 5101 1517 5126 1494 
Q 5152 1472 5152 1440 
L 5152 -435 
Q 5152 -678 5049 -761 
Q 4947 -845 4666 -845 
L 1978 -845 
z
M 3328 4250 
Q 3245 4013 3097 3776 
Q 2950 3539 2746 3302 
Q 2989 3053 3312 2838 
Q 3635 2624 3981 2496 
Q 4019 2483 4016 2448 
Q 4013 2413 4000 2381 
L 3872 2157 
Q 3853 2125 3827 2112 
Q 3802 2099 3744 2131 
Q 3392 2291 3056 2515 
Q 2720 2739 2458 3002 
Q 2106 2656 1664 2358 
Q 1222 2061 723 1843 
Q 691 1830 659 1824 
Q 627 1818 608 1850 
L 480 2074 
Q 461 2106 477 2141 
Q 493 2176 525 2189 
Q 1414 2611 1974 3107 
Q 2534 3603 2842 4224 
Q 2886 4314 2854 4352 
Q 2822 4390 2733 4390 
L 858 4390 
Q 781 4390 781 4474 
L 781 4698 
Q 781 4774 870 4774 
L 2906 4774 
Q 3238 4774 3334 4656 
Q 3430 4538 3328 4250 
z
M 1939 384 
L 1939 -307 
Q 1939 -403 1971 -432 
Q 2003 -461 2093 -461 
L 4557 -461 
Q 4646 -461 4678 -432 
Q 4710 -403 4710 -307 
L 4710 384 
L 1939 384 
z
M 5152 1958 
Q 5152 1869 5062 1869 
L 4800 1869 
Q 4710 1869 4710 1958 
L 4710 4915 
Q 4710 5005 4800 5005 
L 5062 5005 
Q 5152 5005 5152 4915 
L 5152 1958 
z
" transform="scale(0.015625)"/>
      <path id="NanumGothic-b2c8" d="M 5152 -806 
Q 5152 -896 5062 -896 
L 4800 -896 
Q 4710 -896 4710 -806 
L 4710 4915 
Q 4710 5005 4800 5005 
L 5062 5005 
Q 5152 5005 5152 4915 
L 5152 -806 
z
M 1267 1440 
Q 1267 1344 1299 1312 
Q 1331 1280 1421 1274 
Q 1734 1261 2089 1270 
Q 2445 1280 2803 1309 
Q 3162 1338 3504 1382 
Q 3846 1427 4141 1485 
Q 4250 1510 4269 1408 
L 4301 1229 
Q 4320 1139 4218 1114 
Q 4000 1062 3657 1017 
Q 3315 973 2918 937 
Q 2522 902 2106 886 
Q 1690 870 1331 877 
Q 1043 883 934 1011 
Q 826 1139 826 1408 
L 826 4557 
Q 826 4646 915 4646 
L 1178 4646 
Q 1267 4646 1267 4557 
L 1267 1440 
z
" transform="scale(0.015625)"/>
      <path id="NanumGothic-2e" d="M 691 -256 
Q 691 -122 784 -29 
Q 877 64 1011 64 
Q 1146 64 1238 -29 
Q 1331 -122 1331 -256 
Q 1331 -390 1238 -483 
Q 1146 -576 1011 -576 
Q 877 -576 784 -483 
Q 691 -390 691 -256 
z
" transform="scale(0.015625)"/>
     </defs>
     <use xlink:href="#NanumGothic-ac19"/>
     <use xlink:href="#NanumGothic-c740" transform="translate(93.999985 0)"/>
     <use xlink:href="#NanumGothic-20" transform="translate(187.999969 0)"/>
     <use xlink:href="#NanumGothic-cd95" transform="translate(215.999954 0)"/>
     <use xlink:href="#NanumGothic-c744" transform="translate(309.999939 0)"/>
     <use xlink:href="#NanumGothic-20" transform="translate(403.999924 0)"/>
     <use xlink:href="#NanumGothic-c368" transform="translate(431.999908 0)"/>
     <use xlink:href="#NanumGothic-b3c4" transform="translate(525.999893 0)"/>
     <use xlink:href="#NanumGothic-20" transform="translate(619.999878 0)"/>
     <use xlink:href="#NanumGothic-c801" transform="translate(647.999863 0)"/>
     <use xlink:href="#NanumGothic-c6a9" transform="translate(741.999847 0)"/>
     <use xlink:href="#NanumGothic-20" transform="translate(835.999832 0)"/>
     <use xlink:href="#NanumGothic-c21c" transform="translate(863.999817 0)"/>
     <use xlink:href="#NanumGothic-c11c" transform="translate(957.999802 0)"/>
     <use xlink:href="#NanumGothic-ac00" transform="translate(1051.999786 0)"/>
     <use xlink:href="#NanumGothic-20" transform="translate(1145.999771 0)"/>
     <use xlink:href="#NanumGothic-b2e4" transform="translate(1173.999756 0)"/>
     <use xlink:href="#NanumGothic-b974" transform="translate(1267.999741 0)"/>
     <use xlink:href="#NanumGothic-ba74" transform="translate(1361.999725 0)"/>
     <use xlink:href="#NanumGothic-20" transform="translate(1455.99971 0)"/>
     <use xlink:href="#NanumGothic-cd5c" transform="translate(1483.999695 0)"/>
     <use xlink:href="#NanumGothic-c885" transform="translate(1577.99968 0)"/>
     <use xlink:href="#NanumGothic-20" transform="translate(1671.999664 0)"/>
     <use xlink:href="#NanumGothic-c790" transform="translate(1699.999649 0)"/>
     <use xlink:href="#NanumGothic-c138" transform="translate(1793.999634 0)"/>
     <use xlink:href="#NanumGothic-ac00" transform="translate(1887.999619 0)"/>
     <use xlink:href="#NanumGothic-20" transform="translate(1981.999603 0)"/>
     <use xlink:href="#NanumGothic-b2ec" transform="translate(2009.999588 0)"/>
     <use xlink:href="#NanumGothic-b77c" transform="translate(2103.999573 0)"/>
     <use xlink:href="#NanumGothic-c9d1" transform="translate(2197.999557 0)"/>
     <use xlink:href="#NanumGothic-b2c8" transform="translate(2291.999542 0)"/>
     <use xlink:href="#NanumGothic-b2e4" transform="translate(2385.999527 0)"/>
     <use xlink:href="#NanumGothic-2e" transform="translate(2479.999512 0)"/>
    </g>
   </g>
  </g>
 </g>
</svg>
