<?xml version="1.0" encoding="utf-8" standalone="no"?>
<!DOCTYPE svg PUBLIC "-//W3C//DTD SVG 1.1//EN"
  "http://www.w3.org/Graphics/SVG/1.1/DTD/svg11.dtd">
<svg xmlns:xlink="http://www.w3.org/1999/xlink" width="386.88pt" height="259.028531pt" viewBox="0 0 386.88 259.028531" xmlns="http://www.w3.org/2000/svg" version="1.1">
 <metadata>
  <rdf:RDF xmlns:dc="http://purl.org/dc/elements/1.1/" xmlns:cc="http://creativecommons.org/ns#" xmlns:rdf="http://www.w3.org/1999/02/22-rdf-syntax-ns#">
   <cc:Work>
    <dc:type rdf:resource="http://purl.org/dc/dcmitype/StillImage"/>
    <dc:date>2026-07-08T05:13:19.970450</dc:date>
    <dc:format>image/svg+xml</dc:format>
    <dc:creator>
     <cc:Agent>
      <dc:title>Matplotlib v3.10.8, https://matplotlib.org/</dc:title>
     </cc:Agent>
    </dc:creator>
   </cc:Work>
  </rdf:RDF>
 </metadata>
 <defs>
  <style type="text/css">*{stroke-linejoin: round; stroke-linecap: butt}</style>
 </defs>
 <g id="figure_1">
  <g id="patch_1">
   <path d="M 0 259.028531 
L 386.88 259.028531 
L 386.88 0 
L 0 0 
z
" style="fill: #ffffff"/>
  </g>
  <g id="axes_1">
   <g id="patch_2">
    <path d="M 47.598691 102.548531 
Q 193.437793 102.548531 337.040826 102.548531 
" clip-path="url(#p37ef3558c9)" style="fill: none; stroke: #111827; stroke-width: 2; stroke-linecap: round"/>
    <path d="M 331.440826 99.748531 
L 337.040826 102.548531 
L 331.440826 105.348531 
z
" clip-path="url(#p37ef3558c9)" style="fill: #111827; stroke: #111827; stroke-width: 2; stroke-linecap: round"/>
   </g>
   <g id="patch_3">
    <path d="M 119.52 67.587561 
Q 119.52 133.962693 119.52 198.101756 
" clip-path="url(#p37ef3558c9)" style="fill: none; stroke: #111827; stroke-width: 2; stroke-linecap: round"/>
    <path d="M 122.32 192.501756 
L 119.52 198.101756 
L 116.72 192.501756 
z
" clip-path="url(#p37ef3558c9)" style="fill: #111827; stroke: #111827; stroke-width: 2; stroke-linecap: round"/>
   </g>
   <g id="text_1">
    <!-- 화면 좌표계 -->
    <g style="fill: #111827" transform="translate(8.64 20.054063) scale(0.15 -0.15)">
     <defs>
      <path id="NanumGothicBold-d654" d="M 2093 3347 
Q 2387 3347 2643 3267 
Q 2899 3187 3091 3046 
Q 3283 2906 3392 2704 
Q 3501 2502 3501 2266 
Q 3501 2061 3421 1885 
Q 3341 1709 3197 1574 
Q 3053 1440 2854 1347 
Q 2656 1254 2426 1216 
L 2426 678 
Q 3174 717 3904 832 
Q 3936 838 3974 828 
Q 4013 819 4019 768 
L 4058 371 
Q 4064 320 4038 294 
Q 4013 269 3981 262 
Q 3085 115 2125 70 
Q 1165 26 243 38 
Q 205 38 179 67 
Q 154 96 154 134 
L 154 550 
Q 154 646 243 646 
Q 973 627 1715 646 
L 1715 1222 
Q 1491 1267 1302 1360 
Q 1114 1453 976 1587 
Q 838 1722 761 1891 
Q 685 2061 685 2266 
Q 685 2502 797 2704 
Q 909 2906 1101 3046 
Q 1293 3187 1549 3267 
Q 1805 3347 2093 3347 
z
M 5971 2016 
Q 5971 1984 5942 1958 
Q 5914 1933 5882 1933 
L 5043 1933 
L 5043 -928 
Q 5043 -1011 4960 -1011 
L 4390 -1011 
Q 4307 -1011 4307 -928 
L 4307 4979 
Q 4307 5062 4390 5062 
L 4960 5062 
Q 5043 5062 5043 4979 
L 5043 2547 
L 5882 2547 
Q 5914 2547 5942 2521 
Q 5971 2496 5971 2464 
L 5971 2016 
z
M 3834 3661 
Q 3834 3622 3805 3593 
Q 3776 3565 3738 3565 
L 358 3565 
Q 326 3565 291 3597 
Q 256 3629 256 3667 
L 256 4026 
Q 256 4058 294 4090 
Q 333 4122 365 4122 
L 3738 4122 
Q 3776 4122 3805 4093 
Q 3834 4064 3834 4026 
L 3834 3661 
z
M 2093 2778 
Q 1786 2778 1581 2634 
Q 1376 2490 1376 2266 
Q 1376 2042 1577 1894 
Q 1779 1747 2093 1747 
Q 2406 1747 2608 1894 
Q 2810 2042 2810 2266 
Q 2810 2490 2608 2634 
Q 2406 2778 2093 2778 
z
M 3021 4493 
Q 3021 4448 2992 4416 
Q 2963 4384 2918 4384 
L 1203 4384 
Q 1178 4384 1142 4409 
Q 1107 4435 1107 4486 
L 1107 4858 
Q 1107 4902 1142 4928 
Q 1178 4954 1203 4954 
L 2918 4954 
Q 2957 4954 2989 4922 
Q 3021 4890 3021 4851 
L 3021 4493 
z
" transform="scale(0.015625)"/>
      <path id="NanumGothicBold-ba74" d="M 3456 2080 
Q 3456 1830 3357 1734 
Q 3258 1638 3014 1638 
L 1114 1638 
Q 845 1638 742 1734 
Q 640 1830 640 2080 
L 640 4288 
Q 640 4531 739 4624 
Q 838 4717 1082 4717 
L 3014 4717 
Q 3258 4717 3357 4630 
Q 3456 4544 3456 4288 
L 3456 4045 
L 4544 4045 
L 4544 4979 
Q 4544 5062 4627 5062 
L 5197 5062 
Q 5280 5062 5280 4979 
L 5280 768 
Q 5280 685 5197 685 
L 4627 685 
Q 4544 685 4544 768 
L 4544 2202 
L 3456 2202 
L 3456 2080 
z
M 5466 -826 
Q 5466 -864 5437 -883 
Q 5408 -902 5376 -902 
L 2048 -902 
Q 1760 -902 1657 -800 
Q 1555 -698 1555 -448 
L 1555 870 
Q 1555 902 1587 934 
Q 1619 966 1651 966 
L 2195 966 
Q 2240 966 2269 934 
Q 2298 902 2298 870 
L 2298 -186 
Q 2298 -250 2323 -269 
Q 2349 -288 2413 -288 
L 5376 -288 
Q 5408 -288 5437 -313 
Q 5466 -339 5466 -371 
L 5466 -826 
z
M 2733 4045 
Q 2733 4096 2717 4112 
Q 2701 4128 2650 4128 
L 1446 4128 
Q 1395 4128 1379 4115 
Q 1363 4102 1363 4051 
L 1363 2310 
Q 1363 2246 1379 2233 
Q 1395 2221 1446 2221 
L 2650 2221 
Q 2701 2221 2717 2233 
Q 2733 2246 2733 2310 
L 2733 4045 
z
M 4544 2790 
L 4544 3456 
L 3456 3456 
L 3456 2790 
L 4544 2790 
z
" transform="scale(0.015625)"/>
      <path id="NanumGothicBold-20" transform="scale(0.015625)"/>
      <path id="NanumGothicBold-c88c" d="M 5971 2016 
Q 5971 1984 5942 1958 
Q 5914 1933 5882 1933 
L 5043 1933 
L 5043 -928 
Q 5043 -1011 4960 -1011 
L 4390 -1011 
Q 4307 -1011 4307 -928 
L 4307 4979 
Q 4307 5062 4390 5062 
L 4960 5062 
Q 5043 5062 5043 4979 
L 5043 2547 
L 5882 2547 
Q 5914 2547 5942 2521 
Q 5971 2496 5971 2464 
L 5971 2016 
z
M 550 1888 
Q 506 1875 458 1897 
Q 410 1920 397 1952 
L 243 2285 
Q 224 2330 253 2378 
Q 282 2426 326 2438 
Q 1050 2701 1613 3053 
Q 2176 3405 2490 3750 
Q 2560 3834 2560 3862 
Q 2560 3891 2458 3891 
L 691 3891 
Q 659 3891 630 3913 
Q 602 3936 602 3974 
L 602 4410 
Q 602 4493 691 4493 
L 2944 4493 
Q 3046 4493 3142 4467 
Q 3238 4442 3315 4397 
Q 3392 4352 3437 4294 
Q 3482 4237 3482 4179 
Q 3482 4090 3456 3984 
Q 3430 3878 3341 3750 
Q 3226 3584 3072 3414 
Q 2918 3245 2733 3078 
Q 2854 3014 2998 2947 
Q 3142 2880 3296 2816 
Q 3450 2752 3600 2697 
Q 3750 2643 3885 2605 
Q 3994 2573 3942 2464 
L 3770 2106 
Q 3757 2074 3709 2061 
Q 3661 2048 3610 2061 
Q 3258 2170 2890 2339 
Q 2522 2509 2202 2682 
Q 1830 2426 1408 2218 
Q 986 2010 550 1888 
z
M 1773 1933 
Q 1773 2022 1862 2022 
L 2406 2022 
Q 2496 2022 2496 1933 
L 2496 832 
Q 3200 877 3904 986 
Q 3936 992 3974 982 
Q 4013 973 4019 922 
L 4058 512 
Q 4064 461 4038 435 
Q 4013 410 3981 403 
Q 3085 256 2125 211 
Q 1165 166 243 179 
Q 154 179 154 282 
L 154 704 
Q 154 794 243 794 
Q 627 781 1008 784 
Q 1389 787 1773 800 
L 1773 1933 
z
" transform="scale(0.015625)"/>
      <path id="NanumGothicBold-d45c" d="M 5235 1856 
Q 5235 1811 5206 1782 
Q 5178 1754 5139 1754 
L 4346 1754 
L 4346 640 
L 5786 640 
Q 5818 640 5850 608 
Q 5882 576 5882 544 
L 5882 122 
Q 5882 90 5850 58 
Q 5818 26 5786 26 
L 211 26 
Q 173 26 147 58 
Q 122 90 122 122 
L 122 544 
Q 122 582 147 611 
Q 173 640 211 640 
L 1651 640 
L 1651 1754 
L 858 1754 
Q 826 1754 790 1786 
Q 755 1818 755 1862 
L 755 2246 
Q 755 2278 790 2310 
Q 826 2342 858 2342 
L 1587 2342 
L 1587 4045 
L 979 4045 
Q 947 4045 908 4077 
Q 870 4109 870 4154 
L 870 4538 
Q 870 4570 908 4602 
Q 947 4634 979 4634 
L 5018 4634 
Q 5056 4634 5085 4605 
Q 5114 4576 5114 4538 
L 5114 4147 
Q 5114 4102 5085 4073 
Q 5056 4045 5018 4045 
L 4410 4045 
L 4410 2342 
L 5139 2342 
Q 5178 2342 5206 2313 
Q 5235 2285 5235 2246 
L 5235 1856 
z
M 2304 4045 
L 2304 2342 
L 3693 2342 
L 3693 4045 
L 2304 4045 
z
M 3610 640 
L 3610 1754 
L 2387 1754 
L 2387 640 
L 3610 640 
z
" transform="scale(0.015625)"/>
      <path id="NanumGothicBold-acc4" d="M 755 461 
Q 704 429 653 422 
Q 602 416 570 461 
L 314 813 
Q 275 870 297 918 
Q 320 966 352 992 
Q 787 1261 1136 1603 
Q 1485 1946 1731 2314 
Q 1978 2682 2112 3053 
Q 2246 3424 2259 3744 
Q 2266 3878 2234 3926 
Q 2202 3974 2067 3974 
L 653 3974 
Q 563 3974 563 4058 
L 563 4493 
Q 563 4525 592 4550 
Q 621 4576 653 4576 
L 2515 4576 
Q 2790 4576 2892 4470 
Q 2995 4365 2989 4115 
Q 2982 3987 2972 3859 
Q 2963 3731 2944 3610 
L 3629 3610 
L 3629 4870 
Q 3629 4954 3718 4954 
L 4243 4954 
Q 4326 4954 4326 4870 
L 4326 -717 
Q 4326 -806 4243 -806 
L 3718 -806 
Q 3629 -806 3629 -717 
L 3629 1594 
L 2714 1594 
Q 2682 1594 2653 1619 
Q 2624 1645 2624 1677 
L 2624 2099 
Q 2624 2131 2653 2153 
Q 2682 2176 2714 2176 
L 3629 2176 
L 3629 3021 
L 2816 3021 
Q 2573 2246 2041 1593 
Q 1510 941 755 461 
z
M 5549 -941 
Q 5549 -1024 5466 -1024 
L 4909 -1024 
Q 4826 -1024 4826 -941 
L 4826 4979 
Q 4826 5062 4915 5062 
L 5466 5062 
Q 5549 5062 5549 4979 
L 5549 -941 
z
" transform="scale(0.015625)"/>
     </defs>
     <use xlink:href="#NanumGothicBold-d654"/>
     <use xlink:href="#NanumGothicBold-ba74" transform="translate(93.999985 0)"/>
     <use xlink:href="#NanumGothicBold-20" transform="translate(187.999969 0)"/>
     <use xlink:href="#NanumGothicBold-c88c" transform="translate(215.999954 0)"/>
     <use xlink:href="#NanumGothicBold-d45c" transform="translate(309.999939 0)"/>
     <use xlink:href="#NanumGothicBold-acc4" transform="translate(403.999924 0)"/>
    </g>
   </g>
   <g id="text_2">
    <!-- x+ -->
    <g style="fill: #111827" transform="translate(343.128 105.885094) scale(0.12 -0.12)">
     <defs>
      <path id="NanumGothic-78" d="M 3046 -186 
Q 3066 -218 3050 -246 
Q 3034 -275 2995 -275 
L 2637 -275 
Q 2560 -275 2509 -186 
L 1645 1222 
L 717 -186 
Q 659 -275 589 -275 
L 269 -275 
Q 230 -275 214 -246 
Q 198 -218 218 -186 
L 1389 1562 
L 339 3098 
Q 320 3130 336 3158 
Q 352 3187 390 3187 
L 742 3187 
Q 819 3187 870 3098 
L 1645 1894 
L 2432 3098 
Q 2490 3187 2560 3187 
L 2874 3187 
Q 2912 3187 2928 3158 
Q 2944 3130 2925 3098 
L 1901 1562 
L 3046 -186 
z
" transform="scale(0.015625)"/>
      <path id="NanumGothic-2b" d="M 3846 1971 
Q 3846 1882 3830 1869 
Q 3814 1856 3725 1856 
L 2342 1856 
L 2342 474 
Q 2342 390 2329 377 
Q 2317 365 2234 365 
L 1984 365 
Q 1901 365 1888 377 
Q 1875 390 1875 474 
L 1875 1856 
L 499 1856 
Q 410 1856 394 1869 
Q 378 1882 378 1971 
L 378 2202 
Q 378 2291 394 2304 
Q 410 2317 499 2317 
L 1875 2317 
L 1875 3686 
Q 1875 3776 1891 3789 
Q 1907 3802 1997 3802 
L 2221 3802 
Q 2310 3802 2326 3789 
Q 2342 3776 2342 3686 
L 2342 2317 
L 3725 2317 
Q 3814 2317 3830 2304 
Q 3846 2291 3846 2202 
L 3846 1971 
z
" transform="scale(0.015625)"/>
     </defs>
     <use xlink:href="#NanumGothic-78"/>
     <use xlink:href="#NanumGothic-2b" transform="translate(50.999985 0)"/>
    </g>
   </g>
   <g id="text_3">
    <!-- y+ -->
    <g style="fill: #111827" transform="translate(123.216 220.591781) scale(0.12 -0.12)">
     <defs>
      <path id="NanumGothic-79" d="M 301 -1222 
Q 224 -1203 237 -1126 
L 256 -909 
Q 256 -832 333 -864 
Q 435 -902 570 -902 
Q 704 -902 816 -860 
Q 928 -819 986 -749 
Q 1056 -659 1142 -454 
Q 1229 -250 1312 13 
Q 1024 794 742 1555 
Q 461 2317 173 3098 
Q 160 3130 173 3158 
Q 186 3187 224 3187 
L 525 3187 
Q 614 3187 653 3098 
L 1517 614 
Q 1754 1267 1968 1859 
Q 2182 2451 2419 3098 
Q 2451 3187 2547 3187 
L 2822 3187 
Q 2861 3187 2873 3158 
Q 2886 3130 2874 3098 
L 1542 -474 
Q 1472 -659 1385 -806 
Q 1299 -954 1210 -1043 
Q 1094 -1152 953 -1206 
Q 813 -1261 659 -1261 
Q 563 -1261 486 -1254 
Q 410 -1248 301 -1222 
z
" transform="scale(0.015625)"/>
     </defs>
     <use xlink:href="#NanumGothic-79"/>
     <use xlink:href="#NanumGothic-2b" transform="translate(46.399994 0)"/>
    </g>
   </g>
   <g id="text_4">
    <!-- x는 오른쪽으로 증가 -->
    <g style="fill: #6b7280" transform="translate(174.96 92.393) scale(0.1 -0.1)">
     <defs>
      <path id="NanumGothic-b294" d="M 5037 2893 
Q 5037 2854 5005 2835 
Q 4973 2816 4941 2816 
L 1619 2816 
Q 1318 2816 1225 2941 
Q 1133 3066 1133 3328 
L 1133 4806 
Q 1133 4896 1222 4896 
L 1485 4896 
Q 1574 4896 1574 4806 
L 1574 3341 
Q 1574 3251 1603 3225 
Q 1632 3200 1722 3200 
L 4941 3200 
Q 4973 3200 5005 3177 
Q 5037 3155 5037 3123 
L 5037 2893 
z
M 5133 -704 
Q 5133 -742 5101 -761 
Q 5069 -781 5037 -781 
L 1562 -781 
Q 1261 -781 1168 -656 
Q 1075 -531 1075 -269 
L 1075 979 
Q 1075 1069 1165 1069 
L 1427 1069 
Q 1517 1069 1517 979 
L 1517 -262 
Q 1517 -352 1545 -374 
Q 1574 -397 1664 -397 
L 5037 -397 
Q 5069 -397 5101 -419 
Q 5133 -442 5133 -474 
L 5133 -704 
z
M 5728 1958 
Q 5760 1958 5792 1936 
Q 5824 1914 5824 1875 
L 5824 1658 
Q 5824 1626 5792 1600 
Q 5760 1574 5728 1574 
L 288 1574 
Q 250 1574 221 1600 
Q 192 1626 192 1658 
L 192 1875 
Q 192 1914 221 1936 
Q 250 1958 288 1958 
L 5728 1958 
z
" transform="scale(0.015625)"/>
      <path id="NanumGothic-20" transform="scale(0.015625)"/>
      <path id="NanumGothic-c624" d="M 5728 499 
Q 5760 499 5792 476 
Q 5824 454 5824 416 
L 5824 198 
Q 5824 166 5792 140 
Q 5760 115 5728 115 
L 288 115 
Q 250 115 221 140 
Q 192 166 192 198 
L 192 416 
Q 192 454 221 476 
Q 250 499 288 499 
L 2771 499 
L 2771 1830 
Q 2458 1856 2134 1945 
Q 1811 2035 1545 2208 
Q 1280 2381 1113 2637 
Q 947 2893 947 3251 
Q 947 3642 1142 3914 
Q 1338 4186 1642 4352 
Q 1946 4518 2307 4595 
Q 2669 4672 2995 4672 
Q 3328 4672 3693 4595 
Q 4058 4518 4355 4352 
Q 4653 4186 4848 3914 
Q 5043 3642 5043 3251 
Q 5043 2893 4876 2633 
Q 4710 2374 4448 2204 
Q 4186 2035 3859 1942 
Q 3533 1850 3213 1830 
L 3213 499 
L 5728 499 
z
M 2995 4269 
Q 2771 4269 2499 4224 
Q 2227 4179 1987 4064 
Q 1747 3949 1584 3750 
Q 1421 3552 1421 3245 
Q 1421 2938 1584 2739 
Q 1747 2541 1987 2429 
Q 2227 2317 2499 2272 
Q 2771 2227 2995 2227 
Q 3213 2227 3485 2272 
Q 3757 2317 3997 2429 
Q 4237 2541 4403 2739 
Q 4570 2938 4570 3245 
Q 4570 3552 4403 3750 
Q 4237 3949 3997 4064 
Q 3757 4179 3485 4224 
Q 3213 4269 2995 4269 
z
" transform="scale(0.015625)"/>
      <path id="NanumGothic-b978" d="M 5728 1734 
Q 5760 1734 5792 1712 
Q 5824 1690 5824 1651 
L 5824 1434 
Q 5824 1402 5792 1376 
Q 5760 1350 5728 1350 
L 288 1350 
Q 250 1350 221 1376 
Q 192 1402 192 1434 
L 192 1651 
Q 192 1690 221 1712 
Q 250 1734 288 1734 
L 5728 1734 
z
M 5082 -704 
Q 5082 -742 5050 -761 
Q 5018 -781 4986 -781 
L 1562 -781 
Q 1261 -781 1168 -656 
Q 1075 -531 1075 -269 
L 1075 749 
Q 1075 838 1165 838 
L 1427 838 
Q 1517 838 1517 749 
L 1517 -262 
Q 1517 -352 1545 -374 
Q 1574 -397 1664 -397 
L 4986 -397 
Q 5018 -397 5050 -419 
Q 5082 -442 5082 -474 
L 5082 -704 
z
M 5043 2406 
Q 5043 2374 5014 2352 
Q 4986 2330 4960 2330 
L 1587 2330 
Q 1286 2330 1193 2442 
Q 1101 2554 1101 2822 
L 1101 3328 
Q 1101 3603 1213 3692 
Q 1325 3782 1613 3782 
L 4333 3782 
Q 4422 3782 4444 3808 
Q 4467 3834 4467 3930 
L 4467 4352 
Q 4467 4448 4444 4473 
Q 4422 4499 4333 4499 
L 1190 4499 
Q 1158 4499 1129 4518 
Q 1101 4538 1101 4570 
L 1101 4800 
Q 1101 4832 1129 4851 
Q 1158 4870 1190 4870 
L 4403 4870 
Q 4557 4870 4653 4848 
Q 4749 4826 4806 4774 
Q 4864 4723 4886 4630 
Q 4909 4538 4909 4403 
L 4909 3878 
Q 4909 3603 4797 3513 
Q 4685 3424 4397 3424 
L 1670 3424 
Q 1581 3424 1558 3398 
Q 1536 3373 1536 3277 
L 1536 2842 
Q 1536 2752 1561 2723 
Q 1587 2694 1677 2694 
L 4954 2694 
Q 4986 2694 5014 2675 
Q 5043 2656 5043 2624 
L 5043 2406 
z
" transform="scale(0.015625)"/>
      <path id="NanumGothic-cabd" d="M 2675 4243 
Q 2618 4166 2557 4089 
Q 2496 4013 2426 3942 
Q 2605 3763 2822 3622 
Q 3040 3482 3264 3373 
Q 3622 3590 3859 3820 
Q 4096 4051 4269 4339 
Q 4301 4390 4288 4432 
Q 4275 4474 4205 4474 
L 3104 4474 
Q 3027 4474 3027 4563 
L 3027 4768 
Q 3027 4845 3117 4845 
L 4365 4845 
Q 4723 4845 4803 4704 
Q 4883 4563 4742 4320 
Q 4659 4179 4572 4051 
Q 4486 3923 4384 3808 
Q 4493 3725 4637 3645 
Q 4781 3565 4925 3491 
Q 5069 3418 5206 3363 
Q 5344 3309 5446 3277 
Q 5491 3264 5500 3225 
Q 5510 3187 5485 3142 
L 5376 2957 
Q 5338 2886 5229 2938 
Q 5114 2982 4970 3049 
Q 4826 3117 4678 3200 
Q 4531 3283 4387 3369 
Q 4243 3456 4128 3546 
Q 3904 3341 3613 3158 
Q 3322 2976 2918 2778 
Q 2835 2733 2778 2810 
L 2675 2950 
Q 2643 2989 2659 3027 
Q 2675 3066 2714 3085 
Q 2758 3104 2796 3123 
Q 2835 3142 2874 3162 
Q 2688 3270 2502 3411 
Q 2317 3552 2163 3699 
Q 1581 3219 749 2906 
Q 698 2886 669 2883 
Q 640 2880 614 2925 
L 518 3110 
Q 493 3155 509 3184 
Q 525 3213 557 3226 
Q 806 3309 1059 3440 
Q 1312 3571 1536 3721 
Q 1760 3872 1939 4032 
Q 2118 4192 2214 4346 
Q 2246 4390 2236 4432 
Q 2227 4474 2157 4474 
L 1005 4474 
Q 922 4474 922 4563 
L 922 4768 
Q 922 4806 950 4825 
Q 979 4845 1018 4845 
L 2330 4845 
Q 3104 4845 2675 4243 
z
M 5824 1728 
Q 5824 1696 5792 1670 
Q 5760 1645 5728 1645 
L 288 1645 
Q 250 1645 221 1670 
Q 192 1696 192 1728 
L 192 1952 
Q 192 1990 221 2009 
Q 250 2029 288 2029 
L 2842 2029 
L 2842 2566 
Q 2842 2656 2931 2656 
L 3194 2656 
Q 3283 2656 3283 2566 
L 3283 2029 
L 5728 2029 
Q 5760 2029 5792 2006 
Q 5824 1984 5824 1946 
L 5824 1728 
z
M 4928 -870 
Q 4928 -960 4838 -960 
L 4576 -960 
Q 4486 -960 4486 -870 
L 4486 467 
Q 4486 557 4457 579 
Q 4429 602 4339 602 
L 1043 602 
Q 1011 602 979 624 
Q 947 646 947 678 
L 947 909 
Q 947 947 979 966 
Q 1011 986 1043 986 
L 4442 986 
Q 4742 986 4835 874 
Q 4928 762 4928 499 
L 4928 -870 
z
" transform="scale(0.015625)"/>
      <path id="NanumGothic-c73c" d="M 2995 1741 
Q 2656 1741 2294 1824 
Q 1933 1907 1632 2083 
Q 1331 2259 1139 2531 
Q 947 2803 947 3187 
Q 947 3571 1139 3843 
Q 1331 4115 1632 4291 
Q 1933 4467 2294 4547 
Q 2656 4627 2995 4627 
Q 3341 4627 3702 4547 
Q 4064 4467 4361 4291 
Q 4659 4115 4851 3843 
Q 5043 3571 5043 3187 
Q 5043 2803 4851 2531 
Q 4659 2259 4361 2083 
Q 4064 1907 3702 1824 
Q 3341 1741 2995 1741 
z
M 2995 4218 
Q 2765 4218 2489 4170 
Q 2214 4122 1977 4003 
Q 1741 3885 1581 3683 
Q 1421 3482 1421 3181 
Q 1421 2880 1581 2681 
Q 1741 2483 1977 2364 
Q 2214 2246 2489 2198 
Q 2765 2150 2995 2150 
Q 3219 2150 3491 2198 
Q 3763 2246 4003 2364 
Q 4243 2483 4406 2681 
Q 4570 2880 4570 3181 
Q 4570 3482 4406 3683 
Q 4243 3885 4003 4003 
Q 3763 4122 3491 4170 
Q 3219 4218 2995 4218 
z
M 5728 499 
Q 5760 499 5792 476 
Q 5824 454 5824 416 
L 5824 198 
Q 5824 166 5792 140 
Q 5760 115 5728 115 
L 288 115 
Q 250 115 221 140 
Q 192 166 192 198 
L 192 416 
Q 192 454 221 476 
Q 250 499 288 499 
L 5728 499 
z
" transform="scale(0.015625)"/>
      <path id="NanumGothic-b85c" d="M 2771 499 
L 2771 1613 
L 1491 1613 
Q 1190 1613 1097 1725 
Q 1005 1837 1005 2106 
L 1005 2906 
Q 1005 3181 1117 3270 
Q 1229 3360 1517 3360 
L 4403 3360 
Q 4493 3360 4515 3385 
Q 4538 3411 4538 3507 
L 4538 4173 
Q 4538 4269 4515 4294 
Q 4493 4320 4403 4320 
L 1094 4320 
Q 1062 4320 1033 4339 
Q 1005 4358 1005 4390 
L 1005 4634 
Q 1005 4666 1033 4685 
Q 1062 4704 1094 4704 
L 4474 4704 
Q 4627 4704 4723 4681 
Q 4819 4659 4876 4608 
Q 4934 4557 4956 4464 
Q 4979 4371 4979 4237 
L 4979 3437 
Q 4979 3162 4867 3072 
Q 4755 2982 4467 2982 
L 1581 2982 
Q 1491 2982 1468 2956 
Q 1446 2931 1446 2835 
L 1446 2144 
Q 1446 2054 1472 2025 
Q 1498 1997 1587 1997 
L 5024 1997 
Q 5056 1997 5085 1977 
Q 5114 1958 5114 1926 
L 5114 1690 
Q 5114 1658 5085 1635 
Q 5056 1613 5030 1613 
L 3213 1613 
L 3213 499 
L 5728 499 
Q 5760 499 5792 476 
Q 5824 454 5824 416 
L 5824 198 
Q 5824 166 5792 140 
Q 5760 115 5728 115 
L 288 115 
Q 250 115 221 140 
Q 192 166 192 198 
L 192 416 
Q 192 454 221 476 
Q 250 499 288 499 
L 2771 499 
z
" transform="scale(0.015625)"/>
      <path id="NanumGothic-c99d" d="M 4992 160 
Q 4992 -58 4896 -221 
Q 4800 -384 4640 -509 
Q 4480 -634 4272 -717 
Q 4064 -800 3843 -848 
Q 3622 -896 3401 -918 
Q 3181 -941 2995 -941 
Q 2816 -941 2595 -918 
Q 2374 -896 2153 -848 
Q 1933 -800 1725 -717 
Q 1517 -634 1357 -509 
Q 1197 -384 1101 -221 
Q 1005 -58 1005 160 
Q 1005 371 1101 534 
Q 1197 698 1357 819 
Q 1517 941 1725 1024 
Q 1933 1107 2153 1158 
Q 2374 1210 2592 1232 
Q 2810 1254 2995 1254 
Q 3181 1254 3401 1232 
Q 3622 1210 3846 1162 
Q 4070 1114 4275 1030 
Q 4480 947 4640 825 
Q 4800 704 4896 537 
Q 4992 371 4992 160 
z
M 4493 4218 
Q 4160 3904 3590 3610 
Q 3770 3558 3990 3500 
Q 4211 3443 4441 3385 
Q 4672 3328 4902 3277 
Q 5133 3226 5331 3187 
Q 5414 3168 5389 3098 
L 5299 2886 
Q 5267 2816 5184 2835 
Q 4966 2874 4697 2938 
Q 4429 3002 4150 3075 
Q 3872 3149 3600 3225 
Q 3328 3302 3098 3379 
Q 2592 3168 2013 3005 
Q 1434 2842 832 2739 
Q 774 2726 752 2748 
Q 730 2771 717 2810 
L 659 3002 
Q 634 3098 710 3104 
Q 1152 3174 1638 3308 
Q 2125 3443 2576 3609 
Q 3027 3776 3404 3958 
Q 3782 4141 4006 4307 
Q 4109 4384 4086 4429 
Q 4064 4474 3974 4474 
L 1210 4474 
Q 1126 4474 1126 4557 
L 1126 4781 
Q 1126 4858 1210 4858 
L 4134 4858 
Q 4627 4858 4716 4688 
Q 4806 4518 4493 4218 
z
M 4525 154 
Q 4525 371 4352 512 
Q 4179 653 3932 733 
Q 3686 813 3427 841 
Q 3168 870 2995 870 
Q 2816 870 2557 841 
Q 2298 813 2058 733 
Q 1818 653 1645 512 
Q 1472 371 1472 154 
Q 1472 -64 1645 -201 
Q 1818 -339 2058 -416 
Q 2298 -493 2557 -521 
Q 2816 -550 2995 -550 
Q 3168 -550 3427 -521 
Q 3686 -493 3932 -416 
Q 4179 -339 4352 -201 
Q 4525 -64 4525 154 
z
M 5728 2214 
Q 5760 2214 5792 2192 
Q 5824 2170 5824 2131 
L 5824 1914 
Q 5824 1882 5792 1856 
Q 5760 1830 5728 1830 
L 288 1830 
Q 250 1830 221 1856 
Q 192 1882 192 1914 
L 192 2131 
Q 192 2170 221 2192 
Q 250 2214 288 2214 
L 5728 2214 
z
" transform="scale(0.015625)"/>
      <path id="NanumGothic-ac00" d="M 3245 4064 
Q 3213 3514 3027 2982 
Q 2842 2451 2512 1968 
Q 2182 1485 1718 1072 
Q 1254 659 666 346 
Q 582 301 544 365 
L 403 589 
Q 358 666 429 698 
Q 973 979 1392 1340 
Q 1811 1702 2108 2124 
Q 2406 2547 2579 3014 
Q 2752 3482 2797 3974 
Q 2810 4070 2771 4105 
Q 2733 4141 2643 4141 
L 659 4141 
Q 582 4141 582 4224 
L 582 4448 
Q 582 4525 659 4525 
L 2765 4525 
Q 3066 4525 3162 4413 
Q 3258 4301 3245 4064 
z
M 4928 -806 
Q 4928 -896 4838 -896 
L 4576 -896 
Q 4486 -896 4486 -806 
L 4486 4915 
Q 4486 5005 4576 5005 
L 4838 5005 
Q 4928 5005 4928 4915 
L 4928 2650 
L 5811 2650 
Q 5850 2650 5878 2627 
Q 5907 2605 5907 2566 
L 5907 2349 
Q 5907 2317 5878 2291 
Q 5850 2266 5811 2266 
L 4928 2266 
L 4928 -806 
z
" transform="scale(0.015625)"/>
     </defs>
     <use xlink:href="#NanumGothic-78"/>
     <use xlink:href="#NanumGothic-b294" transform="translate(50.999985 0)"/>
     <use xlink:href="#NanumGothic-20" transform="translate(144.999969 0)"/>
     <use xlink:href="#NanumGothic-c624" transform="translate(172.999954 0)"/>
     <use xlink:href="#NanumGothic-b978" transform="translate(266.999939 0)"/>
     <use xlink:href="#NanumGothic-cabd" transform="translate(360.999924 0)"/>
     <use xlink:href="#NanumGothic-c73c" transform="translate(454.999908 0)"/>
     <use xlink:href="#NanumGothic-b85c" transform="translate(548.999893 0)"/>
     <use xlink:href="#NanumGothic-20" transform="translate(642.999878 0)"/>
     <use xlink:href="#NanumGothic-c99d" transform="translate(670.999863 0)"/>
     <use xlink:href="#NanumGothic-ac00" transform="translate(764.999847 0)"/>
    </g>
   </g>
   <g id="text_5">
    <!-- y는 아래로 증가 -->
    <g style="fill: #6b7280" transform="translate(132.456 157.217531) scale(0.1 -0.1)">
     <defs>
      <path id="NanumGothic-c544" d="M 3533 2566 
Q 3533 2208 3446 1843 
Q 3360 1478 3174 1184 
Q 2989 890 2697 701 
Q 2406 512 1997 512 
Q 1574 512 1283 697 
Q 992 883 816 1180 
Q 640 1478 563 1843 
Q 486 2208 486 2566 
Q 486 2944 563 3312 
Q 640 3680 816 3974 
Q 992 4269 1283 4448 
Q 1574 4627 1997 4627 
Q 2406 4627 2697 4448 
Q 2989 4269 3174 3977 
Q 3360 3686 3446 3318 
Q 3533 2950 3533 2566 
z
M 3078 2573 
Q 3078 2861 3017 3155 
Q 2957 3450 2829 3686 
Q 2701 3923 2496 4070 
Q 2291 4218 1997 4218 
Q 1690 4218 1488 4070 
Q 1286 3923 1164 3686 
Q 1043 3450 992 3155 
Q 941 2861 941 2573 
Q 941 2298 989 2003 
Q 1037 1709 1158 1469 
Q 1280 1229 1485 1075 
Q 1690 922 1997 922 
Q 2291 922 2496 1075 
Q 2701 1229 2829 1469 
Q 2957 1709 3017 2003 
Q 3078 2298 3078 2573 
z
M 4928 -806 
Q 4928 -896 4838 -896 
L 4576 -896 
Q 4486 -896 4486 -806 
L 4486 4915 
Q 4486 5005 4576 5005 
L 4838 5005 
Q 4928 5005 4928 4915 
L 4928 2586 
L 5811 2586 
Q 5850 2586 5878 2563 
Q 5907 2541 5907 2502 
L 5907 2285 
Q 5907 2253 5878 2227 
Q 5850 2202 5811 2202 
L 4928 2202 
L 4928 -806 
z
" transform="scale(0.015625)"/>
      <path id="NanumGothic-b798" d="M 4128 2586 
L 4941 2586 
L 4941 4915 
Q 4941 5005 5030 5005 
L 5274 5005 
Q 5363 5005 5363 4915 
L 5363 -806 
Q 5363 -896 5274 -896 
L 5030 -896 
Q 4941 -896 4941 -806 
L 4941 2202 
L 4128 2202 
L 4128 -563 
Q 4128 -653 4038 -653 
L 3795 -653 
Q 3706 -653 3706 -563 
L 3706 4806 
Q 3706 4896 3795 4896 
L 4038 4896 
Q 4128 4896 4128 4806 
L 4128 2586 
z
M 973 608 
Q 685 621 585 726 
Q 486 832 486 1101 
L 486 2323 
Q 486 2592 598 2685 
Q 710 2778 998 2778 
L 2227 2778 
Q 2317 2778 2342 2803 
Q 2368 2829 2368 2925 
L 2368 3949 
Q 2368 4045 2345 4070 
Q 2323 4096 2234 4096 
L 602 4096 
Q 570 4096 541 4115 
Q 512 4134 512 4166 
L 512 4410 
Q 512 4442 541 4461 
Q 570 4480 602 4480 
L 2304 4480 
Q 2458 4480 2554 4457 
Q 2650 4435 2707 4384 
Q 2765 4333 2787 4240 
Q 2810 4147 2810 4013 
L 2810 2848 
Q 2810 2579 2698 2486 
Q 2586 2394 2298 2394 
L 1062 2394 
Q 973 2394 950 2368 
Q 928 2342 928 2246 
L 928 1133 
Q 928 986 1069 986 
Q 1574 973 2124 1033 
Q 2675 1094 3232 1222 
Q 3322 1242 3341 1158 
L 3379 947 
Q 3392 864 3296 838 
Q 2746 710 2160 649 
Q 1574 589 973 608 
z
" transform="scale(0.015625)"/>
     </defs>
     <use xlink:href="#NanumGothic-79"/>
     <use xlink:href="#NanumGothic-b294" transform="translate(46.399994 0)"/>
     <use xlink:href="#NanumGothic-20" transform="translate(140.399979 0)"/>
     <use xlink:href="#NanumGothic-c544" transform="translate(168.399963 0)"/>
     <use xlink:href="#NanumGothic-b798" transform="translate(262.399948 0)"/>
     <use xlink:href="#NanumGothic-b85c" transform="translate(356.399933 0)"/>
     <use xlink:href="#NanumGothic-20" transform="translate(450.399918 0)"/>
     <use xlink:href="#NanumGothic-c99d" transform="translate(478.399902 0)"/>
     <use xlink:href="#NanumGothic-ac00" transform="translate(572.399887 0)"/>
    </g>
   </g>
  </g>
 </g>
 <defs>
  <clipPath id="p37ef3558c9">
   <rect x="8.64" y="28.628531" width="369.6" height="221.76"/>
  </clipPath>
 </defs>
</svg>
