<svg xmlns="http://www.w3.org/2000/svg" viewBox="0 0 900 280"><rect width="900" height="280" rx="16" fill="#f8fafc"/><text x="450" y="28" text-anchor="middle" font-family="-apple-system, BlinkMacSystemFont, 'Segoe UI', Roboto, 'Apple SD Gothic Neo', 'Malgun Gothic', 'Nanum Gothic', 'Noto Sans KR', sans-serif" font-size="18" font-weight="700">기저와 행렬식</text><g font-family="-apple-system, BlinkMacSystemFont, 'Segoe UI', Roboto, 'Apple SD Gothic Neo', 'Malgun Gothic', 'Nanum Gothic', 'Noto Sans KR', sans-serif" text-anchor="middle"><text x="145" y="55">기본 기저</text><text x="365" y="55">새 기저</text><text x="590" y="55">det &lt; 0</text><text x="790" y="55">det = 0</text></g><g transform="translate(145 180)" stroke-width="4"><path d="M0 0H80" stroke="#ef4444"/><path d="M0 0V-80" stroke="#2563eb"/><path d="M0 0L70-35L70-115L0-80Z" fill="#dbeafe" stroke="#94a3b8"/></g><g transform="translate(365 180)" stroke-width="4"><path d="M0 0L70-35" stroke="#ef4444"/><path d="M0 0L-25-85" stroke="#2563eb"/><path d="M0 0L70-35L45-120L-25-85Z" fill="#dcfce7" stroke="#16a34a"/></g><g transform="translate(590 180)"><path d="M0 0L-70-35L-45-120L25-85Z" fill="#fee2e2" stroke="#ef4444" stroke-width="3"/><text x="0" y="30" text-anchor="middle" font-family="-apple-system, BlinkMacSystemFont, 'Segoe UI', Roboto, 'Apple SD Gothic Neo', 'Malgun Gothic', 'Nanum Gothic', 'Noto Sans KR', sans-serif" font-size="12">방향 뒤집힘</text></g><g transform="translate(790 180)"><path d="M-70 0L70-80" stroke="#f59e0b" stroke-width="8"/><text x="0" y="30" text-anchor="middle" font-family="-apple-system, BlinkMacSystemFont, 'Segoe UI', Roboto, 'Apple SD Gothic Neo', 'Malgun Gothic', 'Nanum Gothic', 'Noto Sans KR', sans-serif" font-size="12">넓이 소멸</text></g></svg>
