<?xml version="1.0" encoding="utf-8" standalone="no"?>
<!DOCTYPE svg PUBLIC "-//W3C//DTD SVG 1.1//EN"
  "http://www.w3.org/Graphics/SVG/1.1/DTD/svg11.dtd">
<svg xmlns:xlink="http://www.w3.org/1999/xlink" width="277.349994pt" height="308.264187pt" viewBox="0 0 277.349994 308.264187" xmlns="http://www.w3.org/2000/svg" version="1.1">
 <metadata>
  <rdf:RDF xmlns:dc="http://purl.org/dc/elements/1.1/" xmlns:cc="http://creativecommons.org/ns#" xmlns:rdf="http://www.w3.org/1999/02/22-rdf-syntax-ns#">
   <cc:Work>
    <dc:type rdf:resource="http://purl.org/dc/dcmitype/StillImage"/>
    <dc:date>2026-07-08T05:12:54.989057</dc:date>
    <dc:format>image/svg+xml</dc:format>
    <dc:creator>
     <cc:Agent>
      <dc:title>Matplotlib v3.10.8, https://matplotlib.org/</dc:title>
     </cc:Agent>
    </dc:creator>
   </cc:Work>
  </rdf:RDF>
 </metadata>
 <defs>
  <style type="text/css">*{stroke-linejoin: round; stroke-linecap: butt}</style>
 </defs>
 <g id="figure_1">
  <g id="patch_1">
   <path d="M 0 308.264187 
L 277.349994 308.264187 
L 277.349994 0 
L 0 0 
z
" style="fill: #ffffff"/>
  </g>
  <g id="axes_1">
   <g id="text_1">
    <!-- 자주 쓰는 각도 -->
    <g style="fill: #111827" transform="translate(21.163948 20.054062) scale(0.15 -0.15)">
     <defs>
      <path id="NanumGothicBold-c790" d="M 570 531 
Q 518 499 464 505 
Q 410 512 378 563 
L 128 890 
Q 83 947 112 998 
Q 141 1050 179 1075 
Q 582 1325 947 1651 
Q 1312 1978 1606 2339 
Q 1901 2701 2105 3075 
Q 2310 3450 2400 3795 
Q 2426 3904 2406 3936 
Q 2387 3968 2278 3968 
L 627 3968 
Q 582 3968 560 3997 
Q 538 4026 538 4064 
L 538 4493 
Q 538 4531 566 4556 
Q 595 4582 634 4582 
L 2720 4582 
Q 2970 4582 3110 4486 
Q 3251 4390 3251 4237 
Q 3251 4154 3238 4067 
Q 3226 3981 3206 3910 
Q 3117 3565 2969 3216 
Q 2822 2867 2605 2522 
Q 2726 2355 2886 2172 
Q 3046 1990 3212 1820 
Q 3379 1651 3545 1507 
Q 3712 1363 3846 1267 
Q 3891 1235 3907 1184 
Q 3923 1133 3885 1082 
L 3610 768 
Q 3526 672 3398 755 
Q 3283 832 3129 966 
Q 2976 1101 2813 1267 
Q 2650 1434 2486 1616 
Q 2323 1798 2195 1965 
Q 1542 1152 570 531 
z
M 5971 2182 
Q 5971 2150 5942 2124 
Q 5914 2099 5882 2099 
L 5011 2099 
L 5011 -928 
Q 5011 -1011 4928 -1011 
L 4358 -1011 
Q 4275 -1011 4275 -928 
L 4275 4979 
Q 4275 5062 4358 5062 
L 4928 5062 
Q 5011 5062 5011 4979 
L 5011 2714 
L 5882 2714 
Q 5914 2714 5942 2691 
Q 5971 2669 5971 2637 
L 5971 2182 
z
" transform="scale(0.015625)"/>
      <path id="NanumGothicBold-c8fc" d="M 947 2355 
Q 890 2342 845 2368 
Q 800 2394 787 2432 
L 640 2816 
Q 627 2854 659 2899 
Q 691 2944 723 2957 
Q 1171 3066 1600 3203 
Q 2029 3341 2400 3497 
Q 2771 3654 3068 3824 
Q 3366 3994 3565 4166 
Q 3635 4224 3641 4259 
Q 3648 4294 3539 4294 
L 1197 4294 
Q 1114 4294 1114 4378 
L 1114 4813 
Q 1114 4890 1197 4890 
L 4205 4890 
Q 4454 4890 4604 4810 
Q 4755 4730 4755 4602 
Q 4755 4499 4694 4387 
Q 4634 4275 4582 4205 
Q 4288 3821 3776 3494 
Q 3949 3430 4144 3363 
Q 4339 3296 4540 3232 
Q 4742 3168 4940 3117 
Q 5139 3066 5312 3034 
Q 5357 3021 5382 2985 
Q 5408 2950 5389 2899 
L 5235 2515 
Q 5190 2413 5094 2432 
Q 4902 2470 4662 2540 
Q 4422 2611 4163 2704 
Q 3904 2797 3638 2905 
Q 3373 3014 3130 3123 
Q 2624 2874 2057 2678 
Q 1491 2483 947 2355 
z
M 5882 1280 
Q 5882 1248 5850 1216 
Q 5818 1184 5786 1184 
L 3373 1184 
L 3373 -877 
Q 3373 -966 3283 -966 
L 2726 -966 
Q 2637 -966 2637 -877 
L 2637 1184 
L 211 1184 
Q 173 1184 147 1216 
Q 122 1248 122 1280 
L 122 1696 
Q 122 1734 147 1763 
Q 173 1792 211 1792 
L 5786 1792 
Q 5818 1792 5850 1760 
Q 5882 1728 5882 1696 
L 5882 1280 
z
" transform="scale(0.015625)"/>
      <path id="NanumGothicBold-20" transform="scale(0.015625)"/>
      <path id="NanumGothicBold-c4f0" d="M 2874 1581 
Q 2758 1510 2701 1581 
L 2426 1901 
Q 2362 1984 2445 2042 
Q 2630 2170 2784 2317 
Q 2573 2458 2336 2726 
Q 2138 2950 2035 3142 
L 2003 3091 
Q 1562 2374 742 1907 
Q 627 1843 576 1914 
L 326 2253 
Q 262 2342 365 2406 
Q 1024 2771 1373 3366 
Q 1722 3962 1722 4666 
Q 1722 4794 1824 4781 
L 2330 4730 
Q 2426 4717 2426 4595 
Q 2426 4237 2342 3898 
Q 2400 3622 2720 3219 
Q 2989 2886 3194 2771 
Q 3750 3552 3750 4666 
Q 3750 4794 3859 4781 
L 4358 4730 
Q 4454 4717 4454 4602 
Q 4454 4243 4390 3898 
Q 4506 3546 4902 3059 
Q 5331 2534 5702 2355 
Q 5728 2342 5734 2291 
Q 5741 2240 5722 2208 
L 5498 1888 
Q 5440 1811 5331 1869 
Q 4998 2035 4595 2458 
Q 4288 2784 4122 3066 
Q 4090 2995 4058 2918 
Q 3642 2099 2874 1581 
z
M 5882 166 
Q 5882 134 5846 102 
Q 5811 70 5786 70 
L 211 70 
Q 122 70 122 166 
L 122 582 
Q 122 685 211 685 
L 5786 685 
Q 5882 685 5882 582 
L 5882 166 
z
" transform="scale(0.015625)"/>
      <path id="NanumGothicBold-b294" d="M 5158 -787 
Q 5158 -826 5126 -845 
Q 5094 -864 5062 -864 
L 1542 -864 
Q 1248 -864 1149 -761 
Q 1050 -659 1050 -410 
L 1050 979 
Q 1050 1011 1078 1040 
Q 1107 1069 1139 1069 
L 1690 1069 
Q 1728 1069 1757 1040 
Q 1786 1011 1786 979 
L 1786 -147 
Q 1786 -211 1811 -230 
Q 1837 -250 1907 -250 
L 5062 -250 
Q 5094 -250 5126 -272 
Q 5158 -294 5158 -326 
L 5158 -787 
z
M 5082 2874 
Q 5082 2829 5053 2809 
Q 5024 2790 4992 2790 
L 1562 2790 
Q 1267 2790 1168 2896 
Q 1069 3002 1069 3251 
L 1069 4858 
Q 1069 4890 1097 4918 
Q 1126 4947 1158 4947 
L 1715 4947 
Q 1754 4947 1782 4918 
Q 1811 4890 1811 4858 
L 1811 3507 
Q 1811 3443 1836 3424 
Q 1862 3405 1933 3405 
L 4992 3405 
Q 5024 3405 5053 3382 
Q 5082 3360 5082 3328 
L 5082 2874 
z
M 5875 1619 
Q 5875 1587 5843 1552 
Q 5811 1517 5779 1517 
L 211 1517 
Q 173 1517 147 1549 
Q 122 1581 122 1619 
L 122 2042 
Q 122 2131 211 2131 
L 5779 2131 
Q 5811 2131 5843 2102 
Q 5875 2074 5875 2042 
L 5875 1619 
z
" transform="scale(0.015625)"/>
      <path id="NanumGothicBold-ac01" d="M 5005 -909 
Q 5005 -941 4976 -969 
Q 4947 -998 4909 -998 
L 4365 -998 
Q 4326 -998 4294 -969 
Q 4262 -941 4262 -909 
L 4262 544 
Q 4262 614 4236 633 
Q 4211 653 4147 653 
L 1254 653 
Q 1222 653 1193 675 
Q 1165 698 1165 730 
L 1165 1184 
Q 1165 1229 1193 1248 
Q 1222 1267 1254 1267 
L 4576 1267 
Q 4819 1267 4912 1164 
Q 5005 1062 5005 819 
L 5005 -909 
z
M 5971 2995 
Q 5971 2963 5942 2937 
Q 5914 2912 5875 2912 
L 5011 2912 
L 5011 1670 
Q 5011 1587 4922 1587 
L 4358 1587 
Q 4326 1587 4297 1612 
Q 4269 1638 4269 1677 
L 4269 4979 
Q 4269 5011 4297 5036 
Q 4326 5062 4358 5062 
L 4922 5062 
Q 5011 5062 5011 4979 
L 5011 3526 
L 5875 3526 
Q 5914 3526 5942 3500 
Q 5971 3475 5971 3443 
L 5971 2995 
z
M 723 1523 
Q 570 1459 518 1581 
L 352 1914 
Q 326 1965 336 2016 
Q 346 2067 416 2099 
Q 1203 2438 1740 2918 
Q 2278 3398 2458 3981 
Q 2490 4083 2486 4124 
Q 2483 4166 2368 4166 
L 627 4166 
Q 589 4166 566 4195 
Q 544 4224 544 4262 
L 544 4685 
Q 544 4774 634 4774 
L 2803 4774 
Q 3085 4774 3200 4684 
Q 3315 4595 3315 4390 
Q 3315 4365 3305 4317 
Q 3296 4269 3286 4217 
Q 3277 4166 3267 4124 
Q 3258 4083 3251 4064 
Q 3008 3187 2371 2563 
Q 1734 1939 723 1523 
z
" transform="scale(0.015625)"/>
      <path id="NanumGothicBold-b3c4" d="M 5069 1971 
Q 5069 1920 5046 1897 
Q 5024 1875 4992 1875 
L 3373 1875 
L 3373 640 
L 5786 640 
Q 5818 640 5850 608 
Q 5882 576 5882 544 
L 5882 122 
Q 5882 90 5850 58 
Q 5818 26 5786 26 
L 211 26 
Q 173 26 147 58 
Q 122 90 122 122 
L 122 544 
Q 122 582 147 611 
Q 173 640 211 640 
L 2637 640 
L 2637 1875 
L 1446 1875 
Q 1190 1875 1075 2003 
Q 960 2131 960 2355 
L 960 4224 
Q 960 4467 1069 4553 
Q 1178 4640 1421 4640 
L 4934 4640 
Q 5024 4640 5024 4557 
L 5024 4109 
Q 5024 4026 4934 4026 
L 1811 4026 
Q 1696 4026 1696 3917 
L 1696 2598 
Q 1696 2541 1718 2512 
Q 1741 2483 1811 2483 
L 4966 2483 
Q 5018 2483 5043 2470 
Q 5069 2458 5069 2406 
L 5069 1971 
z
" transform="scale(0.015625)"/>
     </defs>
     <use xlink:href="#NanumGothicBold-c790"/>
     <use xlink:href="#NanumGothicBold-c8fc" transform="translate(93.999985 0)"/>
     <use xlink:href="#NanumGothicBold-20" transform="translate(187.999969 0)"/>
     <use xlink:href="#NanumGothicBold-c4f0" transform="translate(215.999954 0)"/>
     <use xlink:href="#NanumGothicBold-b294" transform="translate(309.999939 0)"/>
     <use xlink:href="#NanumGothicBold-20" transform="translate(403.999924 0)"/>
     <use xlink:href="#NanumGothicBold-ac01" transform="translate(431.999908 0)"/>
     <use xlink:href="#NanumGothicBold-b3c4" transform="translate(525.999893 0)"/>
    </g>
   </g>
   <g id="patch_2">
    <path d="M 41.730145 174.706485 
Q 144.936938 174.706485 245.907662 174.706485 
" clip-path="url(#pfad2512977)" style="fill: none; stroke: #111827; stroke-width: 2; stroke-linecap: round"/>
    <path d="M 240.307662 171.906485 
L 245.907662 174.706485 
L 240.307662 177.506485 
z
" clip-path="url(#pfad2512977)" style="fill: #111827; stroke: #111827; stroke-width: 2; stroke-linecap: round"/>
   </g>
   <g id="patch_3">
    <path d="M 144.936971 277.91331 
Q 144.936971 174.706518 144.936971 73.735793 
" clip-path="url(#pfad2512977)" style="fill: none; stroke: #111827; stroke-width: 2; stroke-linecap: round"/>
    <path d="M 142.136971 79.335793 
L 144.936971 73.735793 
L 147.736971 79.335793 
z
" clip-path="url(#pfad2512977)" style="fill: #111827; stroke: #111827; stroke-width: 2; stroke-linecap: round"/>
   </g>
   <g id="text_2">
    <!-- 0° -->
    <g style="fill: #111827" transform="translate(253.238366 177.765) scale(0.11 -0.11)">
     <defs>
      <path id="NanumGothic-30" d="M 3066 2093 
Q 3066 4102 1965 4102 
Q 864 4102 864 2093 
Q 864 77 1965 77 
Q 3066 77 3066 2093 
z
M 3526 2093 
Q 3526 -326 1965 -326 
Q 390 -326 390 2093 
Q 390 3098 698 3725 
Q 1088 4512 1965 4512 
Q 2829 4512 3226 3725 
Q 3373 3411 3449 3008 
Q 3526 2605 3526 2093 
z
" transform="scale(0.015625)"/>
      <path id="NanumGothic-b0" d="M 1920 3930 
Q 1920 4134 1776 4281 
Q 1632 4429 1427 4429 
Q 1222 4429 1078 4281 
Q 934 4134 934 3930 
Q 934 3725 1078 3577 
Q 1222 3430 1427 3430 
Q 1632 3430 1776 3577 
Q 1920 3725 1920 3930 
z
M 2112 3930 
Q 2112 3789 2057 3664 
Q 2003 3539 1910 3446 
Q 1818 3354 1693 3299 
Q 1568 3245 1427 3245 
Q 1286 3245 1161 3299 
Q 1037 3354 944 3446 
Q 851 3539 796 3664 
Q 742 3789 742 3930 
Q 742 4070 796 4195 
Q 851 4320 944 4413 
Q 1037 4506 1161 4560 
Q 1286 4614 1427 4614 
Q 1568 4614 1693 4560 
Q 1818 4506 1910 4413 
Q 2003 4320 2057 4195 
Q 2112 4070 2112 3930 
z
" transform="scale(0.015625)"/>
     </defs>
     <use xlink:href="#NanumGothic-30"/>
     <use xlink:href="#NanumGothic-b0" transform="translate(60.599991 0)"/>
    </g>
   </g>
   <g id="text_3">
    <!-- 90° -->
    <g style="fill: #111827" transform="translate(135.819002 61.155451) scale(0.11 -0.11)">
     <defs>
      <path id="NanumGothic-39" d="M 2995 2925 
Q 2995 3424 2726 3763 
Q 2432 4128 1946 4128 
Q 1427 4128 1133 3802 
Q 845 3494 845 2982 
Q 845 2438 1107 2138 
L 1101 2138 
Q 1376 1843 1882 1843 
Q 2406 1843 2701 2138 
Q 2995 2445 2995 2925 
z
M 653 -256 
Q 557 -237 570 -109 
L 589 115 
Q 602 192 691 154 
Q 851 90 1014 64 
Q 1178 38 1382 38 
Q 1830 38 2163 214 
Q 2496 390 2707 717 
Q 3027 1254 3040 2080 
Q 2650 1453 1882 1453 
Q 1293 1453 896 1754 
Q 390 2144 390 2950 
Q 390 3661 806 4083 
Q 1229 4525 1958 4525 
Q 3494 4525 3494 2259 
Q 3494 -346 1338 -346 
Q 1043 -346 653 -256 
z
" transform="scale(0.015625)"/>
     </defs>
     <use xlink:href="#NanumGothic-39"/>
     <use xlink:href="#NanumGothic-30" transform="translate(60.599991 0)"/>
     <use xlink:href="#NanumGothic-b0" transform="translate(121.199982 0)"/>
    </g>
   </g>
   <g id="text_4">
    <!-- 180° -->
    <g style="fill: #111827" transform="translate(8.64 177.765) scale(0.11 -0.11)">
     <defs>
      <path id="NanumGothic-31" d="M 2362 -211 
Q 2362 -301 2272 -301 
L 2010 -301 
Q 1920 -301 1920 -211 
L 1920 3949 
Q 1722 3782 1549 3635 
Q 1376 3488 1184 3322 
Q 1114 3264 1056 3334 
L 928 3488 
Q 909 3520 909 3555 
Q 909 3590 941 3616 
L 1933 4448 
Q 1958 4474 2010 4474 
L 2182 4474 
Q 2317 4474 2339 4451 
Q 2362 4429 2362 4294 
L 2362 -211 
z
" transform="scale(0.015625)"/>
      <path id="NanumGothic-38" d="M 2944 3360 
Q 2944 3725 2624 3936 
Q 2342 4134 1965 4134 
Q 1555 4134 1274 3930 
Q 966 3725 966 3360 
Q 966 3027 1286 2758 
Q 1376 2675 1526 2579 
Q 1677 2483 1882 2387 
Q 1933 2362 1965 2365 
Q 1997 2368 2061 2400 
Q 2470 2624 2707 2870 
Q 2944 3117 2944 3360 
z
M 3104 960 
Q 3104 1312 2784 1574 
Q 2682 1658 2496 1760 
Q 2310 1862 2042 1984 
Q 1958 2029 1856 1984 
Q 1606 1888 1414 1782 
Q 1222 1677 1107 1587 
Q 979 1459 899 1289 
Q 819 1120 819 928 
Q 819 538 1184 288 
Q 1517 38 1965 38 
Q 2426 38 2739 256 
Q 3104 506 3104 960 
z
M 3552 928 
Q 3552 614 3421 364 
Q 3290 115 3046 -51 
Q 2835 -192 2560 -269 
Q 2285 -346 1965 -346 
Q 1651 -346 1379 -262 
Q 1107 -179 883 -32 
Q 640 141 505 387 
Q 371 634 371 928 
Q 371 1427 704 1741 
Q 960 1984 1491 2182 
Q 518 2662 518 3411 
Q 518 3680 652 3888 
Q 787 4096 1030 4262 
Q 1235 4390 1468 4457 
Q 1702 4525 1965 4525 
Q 2272 4525 2515 4457 
Q 2758 4390 2957 4256 
Q 3398 3949 3398 3411 
Q 3398 2746 2400 2182 
Q 2662 2086 2870 1971 
Q 3078 1856 3206 1741 
Q 3552 1434 3552 928 
z
" transform="scale(0.015625)"/>
     </defs>
     <use xlink:href="#NanumGothic-31"/>
     <use xlink:href="#NanumGothic-38" transform="translate(60.599991 0)"/>
     <use xlink:href="#NanumGothic-30" transform="translate(121.199982 0)"/>
     <use xlink:href="#NanumGothic-b0" transform="translate(181.799973 0)"/>
    </g>
   </g>
   <g id="text_5">
    <!-- 270° -->
    <g style="fill: #111827" transform="translate(132.486346 297.468875) scale(0.11 -0.11)">
     <defs>
      <path id="NanumGothic-32" d="M 576 -301 
Q 506 -301 470 -297 
Q 435 -294 419 -278 
Q 403 -262 400 -227 
Q 397 -192 397 -122 
L 403 19 
Q 403 102 454 154 
L 1510 1318 
Q 2688 2592 2688 3251 
Q 2688 3635 2432 3891 
Q 2182 4141 1811 4141 
Q 1293 4141 730 3853 
Q 640 3808 627 3891 
L 589 4102 
Q 570 4211 653 4237 
Q 979 4384 1241 4454 
Q 1504 4525 1779 4525 
Q 2394 4525 2758 4218 
Q 3168 3885 3168 3270 
Q 3168 3034 3053 2752 
Q 2938 2470 2733 2163 
Q 2605 1984 2371 1696 
Q 2138 1408 1837 1082 
Q 1613 838 1392 588 
Q 1171 339 947 96 
L 3187 96 
Q 3277 96 3277 6 
L 3277 -211 
Q 3277 -301 3187 -301 
L 576 -301 
z
" transform="scale(0.015625)"/>
      <path id="NanumGothic-37" d="M 1549 -211 
Q 1504 -301 1421 -301 
L 1101 -301 
Q 1062 -301 1046 -275 
Q 1030 -250 1050 -211 
L 2912 4083 
L 538 4083 
Q 448 4083 448 4173 
L 448 4384 
Q 448 4474 538 4474 
L 3194 4474 
Q 3328 4474 3350 4451 
Q 3373 4429 3373 4294 
L 3373 4134 
Q 3373 4083 3354 4045 
L 1549 -211 
z
" transform="scale(0.015625)"/>
     </defs>
     <use xlink:href="#NanumGothic-32"/>
     <use xlink:href="#NanumGothic-37" transform="translate(60.599991 0)"/>
     <use xlink:href="#NanumGothic-30" transform="translate(121.199982 0)"/>
     <use xlink:href="#NanumGothic-b0" transform="translate(181.799973 0)"/>
    </g>
   </g>
  </g>
 </g>
 <defs>
  <clipPath id="pfad2512977">
   <rect x="21.163948" y="32.367508" width="247.546047" height="266.112"/>
  </clipPath>
 </defs>
</svg>
