<?xml version="1.0" encoding="utf-8" standalone="no"?>
<!DOCTYPE svg PUBLIC "-//W3C//DTD SVG 1.1//EN"
  "http://www.w3.org/Graphics/SVG/1.1/DTD/svg11.dtd">
<svg xmlns:xlink="http://www.w3.org/1999/xlink" width="351.9pt" height="125.7264pt" viewBox="0 0 351.9 125.7264" xmlns="http://www.w3.org/2000/svg" version="1.1">
 <metadata>
  <rdf:RDF xmlns:dc="http://purl.org/dc/elements/1.1/" xmlns:cc="http://creativecommons.org/ns#" xmlns:rdf="http://www.w3.org/1999/02/22-rdf-syntax-ns#">
   <cc:Work>
    <dc:type rdf:resource="http://purl.org/dc/dcmitype/StillImage"/>
    <dc:date>2026-07-08T05:12:55.462234</dc:date>
    <dc:format>image/svg+xml</dc:format>
    <dc:creator>
     <cc:Agent>
      <dc:title>Matplotlib v3.10.8, https://matplotlib.org/</dc:title>
     </cc:Agent>
    </dc:creator>
   </cc:Work>
  </rdf:RDF>
 </metadata>
 <defs>
  <style type="text/css">*{stroke-linejoin: round; stroke-linecap: butt}</style>
 </defs>
 <g id="figure_1">
  <g id="patch_1">
   <path d="M 0 125.7264 
L 351.9 125.7264 
L 351.9 0 
L 0 0 
z
" style="fill: #ffffff"/>
  </g>
  <g id="axes_1">
   <g id="patch_2">
    <path d="M 5.76 119.9664 
L 346.14 119.9664 
L 346.14 5.76 
L 5.76 5.76 
z
" clip-path="url(#p1f01379432)" style="fill: #ffffff; stroke: #e5e7eb; stroke-linejoin: miter"/>
   </g>
   <g id="text_1">
    <!-- p = (1, 0) -->
    <g style="fill: #111827" transform="translate(19.3752 27.682112) scale(0.11 -0.11)">
     <defs>
      <path id="NanumGothicCoding-70" d="M 397 2848 
Q 397 2931 486 2931 
L 736 2931 
Q 826 2931 826 2848 
L 826 2381 
Q 1088 2995 1722 2995 
Q 2016 2995 2256 2854 
Q 2496 2714 2669 2448 
Q 2842 2182 2915 1875 
Q 2989 1568 2989 1229 
Q 2989 627 2656 124 
Q 2323 -378 1722 -378 
Q 1402 -378 1174 -218 
Q 947 -58 826 173 
L 826 -1171 
Q 826 -1254 736 -1254 
L 486 -1254 
Q 397 -1254 397 -1171 
L 397 2848 
z
M 2534 1299 
Q 2541 1498 2496 1731 
Q 2451 1965 2345 2173 
Q 2240 2381 2080 2502 
Q 1920 2624 1683 2624 
Q 1446 2624 1286 2502 
Q 1126 2381 1020 2173 
Q 915 1965 876 1731 
Q 838 1498 838 1299 
Q 838 1114 876 874 
Q 915 634 1020 429 
Q 1126 224 1286 102 
Q 1446 -19 1683 -19 
Q 1920 -19 2080 102 
Q 2240 224 2349 429 
Q 2458 634 2499 874 
Q 2541 1114 2534 1299 
z
" transform="scale(0.015625)"/>
      <path id="NanumGothicCoding-20" transform="scale(0.015625)"/>
      <path id="NanumGothicCoding-3d" d="M 3142 2810 
L 3142 2528 
Q 3142 2458 3132 2448 
Q 3123 2438 3053 2438 
L 147 2438 
Q 77 2438 67 2448 
Q 58 2458 58 2528 
L 58 2810 
Q 58 2880 67 2889 
Q 77 2899 147 2899 
L 3053 2899 
Q 3123 2899 3132 2889 
Q 3142 2880 3142 2810 
z
M 3142 1446 
L 3142 1165 
Q 3142 1094 3132 1084 
Q 3123 1075 3053 1075 
L 147 1075 
Q 77 1075 67 1084 
Q 58 1094 58 1165 
L 58 1446 
Q 58 1517 67 1526 
Q 77 1536 147 1536 
L 3053 1536 
Q 3123 1536 3132 1526 
Q 3142 1517 3142 1446 
z
" transform="scale(0.015625)"/>
      <path id="NanumGothicCoding-28" d="M 2106 -915 
Q 2061 -915 2051 -915 
Q 2042 -915 2016 -883 
Q 1434 -205 1152 492 
Q 870 1190 870 1933 
Q 870 2669 1152 3366 
Q 1434 4064 2016 4749 
Q 2042 4781 2051 4781 
Q 2061 4781 2093 4781 
L 2272 4781 
Q 2310 4781 2310 4777 
Q 2310 4774 2291 4742 
Q 1286 3277 1286 1933 
Q 1286 1248 1542 550 
Q 1798 -147 2298 -877 
Q 2330 -915 2266 -915 
L 2106 -915 
z
" transform="scale(0.015625)"/>
      <path id="NanumGothicCoding-31" d="M 2022 -211 
Q 2022 -301 1933 -301 
L 1670 -301 
Q 1581 -301 1581 -211 
L 1581 3565 
Q 1382 3398 1209 3251 
Q 1037 3104 845 2938 
Q 774 2880 717 2950 
L 589 3104 
Q 570 3136 570 3171 
Q 570 3206 602 3232 
L 1594 4064 
Q 1619 4090 1670 4090 
L 1843 4090 
Q 1978 4090 2000 4067 
Q 2022 4045 2022 3910 
L 2022 -211 
z
" transform="scale(0.015625)"/>
      <path id="NanumGothicCoding-2c" d="M 2157 179 
Q 2227 179 2240 147 
Q 2253 115 2221 77 
L 1318 -1184 
Q 1280 -1242 1254 -1258 
Q 1229 -1274 1178 -1274 
L 864 -1274 
Q 774 -1274 826 -1178 
L 1536 64 
Q 1562 102 1590 140 
Q 1619 179 1696 179 
L 2157 179 
z
" transform="scale(0.015625)"/>
      <path id="NanumGothicCoding-30" d="M 1747 1242 
L 1453 1242 
Q 1376 1242 1376 1331 
L 1376 2355 
Q 1376 2445 1453 2445 
L 1747 2445 
Q 1824 2445 1824 2355 
L 1824 1331 
Q 1824 1242 1747 1242 
z
M 2470 1907 
Q 2483 3731 1600 3731 
Q 717 3731 730 1907 
Q 717 77 1600 77 
Q 2483 77 2470 1907 
z
M 2906 1907 
Q 2906 -326 1606 -326 
Q 294 -326 294 1907 
Q 294 2726 544 3354 
Q 909 4141 1606 4141 
Q 2285 4141 2662 3354 
Q 2790 3040 2848 2637 
Q 2906 2234 2906 1907 
z
" transform="scale(0.015625)"/>
      <path id="NanumGothicCoding-29" d="M 928 -915 
Q 870 -915 902 -877 
Q 1402 -147 1654 550 
Q 1907 1248 1907 1933 
Q 1907 2611 1657 3312 
Q 1408 4013 909 4742 
Q 890 4774 890 4777 
Q 890 4781 922 4781 
L 1101 4781 
Q 1133 4781 1142 4781 
Q 1152 4781 1184 4749 
Q 1766 4064 2044 3366 
Q 2323 2669 2323 1933 
Q 2323 1190 2044 492 
Q 1766 -205 1184 -883 
Q 1152 -915 1142 -915 
Q 1133 -915 1088 -915 
L 928 -915 
z
" transform="scale(0.015625)"/>
     </defs>
     <use xlink:href="#NanumGothicCoding-70"/>
     <use xlink:href="#NanumGothicCoding-20" transform="translate(49.999985 0)"/>
     <use xlink:href="#NanumGothicCoding-3d" transform="translate(99.999969 0)"/>
     <use xlink:href="#NanumGothicCoding-20" transform="translate(149.999954 0)"/>
     <use xlink:href="#NanumGothicCoding-28" transform="translate(199.999939 0)"/>
     <use xlink:href="#NanumGothicCoding-31" transform="translate(249.999924 0)"/>
     <use xlink:href="#NanumGothicCoding-2c" transform="translate(299.999908 0)"/>
     <use xlink:href="#NanumGothicCoding-20" transform="translate(349.999893 0)"/>
     <use xlink:href="#NanumGothicCoding-30" transform="translate(399.999878 0)"/>
     <use xlink:href="#NanumGothicCoding-29" transform="translate(449.999863 0)"/>
    </g>
   </g>
   <g id="text_2">
    <!-- 1. 이동 +10 → (11, 0) -->
    <g style="fill: #111827" transform="translate(19.3752 40.629816) scale(0.11 -0.11)">
     <defs>
      <path id="NanumGothicCoding-2e" d="M 1210 -256 
Q 1210 -96 1325 19 
Q 1440 134 1600 134 
Q 1760 134 1872 19 
Q 1984 -96 1984 -256 
Q 1984 -416 1872 -531 
Q 1760 -646 1600 -646 
Q 1440 -646 1325 -531 
Q 1210 -416 1210 -256 
z
" transform="scale(0.015625)"/>
      <path id="NanumGothicCoding-c774" d="M 3846 2566 
Q 3846 2208 3760 1843 
Q 3674 1478 3488 1184 
Q 3302 890 3011 701 
Q 2720 512 2310 512 
Q 1888 512 1597 697 
Q 1306 883 1130 1180 
Q 954 1478 877 1843 
Q 800 2208 800 2566 
Q 800 2944 877 3312 
Q 954 3680 1130 3974 
Q 1306 4269 1597 4448 
Q 1888 4627 2310 4627 
Q 2720 4627 3011 4448 
Q 3302 4269 3488 3977 
Q 3674 3686 3760 3318 
Q 3846 2950 3846 2566 
z
M 3392 2573 
Q 3392 2867 3331 3168 
Q 3270 3469 3142 3709 
Q 3014 3949 2809 4099 
Q 2605 4250 2310 4250 
Q 2003 4250 1801 4099 
Q 1600 3949 1478 3709 
Q 1357 3469 1305 3168 
Q 1254 2867 1254 2573 
Q 1254 2291 1302 1993 
Q 1350 1696 1472 1449 
Q 1594 1203 1798 1046 
Q 2003 890 2310 890 
Q 2605 890 2809 1046 
Q 3014 1203 3142 1449 
Q 3270 1696 3331 1993 
Q 3392 2291 3392 2573 
z
M 5344 -806 
Q 5344 -896 5254 -896 
L 4992 -896 
Q 4902 -896 4902 -806 
L 4902 4915 
Q 4902 5005 4992 5005 
L 5254 5005 
Q 5344 5005 5344 4915 
L 5344 -806 
z
" transform="scale(0.015625)"/>
      <path id="NanumGothicCoding-b3d9" d="M 5184 109 
Q 5184 -218 4979 -422 
Q 4774 -627 4473 -742 
Q 4173 -858 3824 -899 
Q 3475 -941 3187 -941 
Q 2995 -941 2774 -921 
Q 2554 -902 2333 -860 
Q 2112 -819 1907 -742 
Q 1702 -666 1545 -547 
Q 1389 -429 1293 -269 
Q 1197 -109 1197 109 
Q 1197 429 1401 630 
Q 1606 832 1907 947 
Q 2208 1062 2557 1107 
Q 2906 1152 3187 1152 
Q 3475 1152 3824 1110 
Q 4173 1069 4477 953 
Q 4781 838 4982 633 
Q 5184 429 5184 109 
z
M 5920 1990 
Q 5952 1990 5984 1968 
Q 6016 1946 6016 1907 
L 6016 1690 
Q 6016 1658 5984 1632 
Q 5952 1606 5920 1606 
L 480 1606 
Q 442 1606 413 1632 
Q 384 1658 384 1690 
L 384 1907 
Q 384 1946 413 1968 
Q 442 1990 480 1990 
L 2970 1990 
L 2970 2816 
L 1786 2816 
Q 1504 2816 1401 2909 
Q 1299 3002 1299 3270 
L 1299 4422 
Q 1299 4691 1401 4784 
Q 1504 4877 1786 4877 
L 5043 4877 
Q 5126 4877 5126 4794 
L 5126 4582 
Q 5126 4493 5043 4493 
L 1894 4493 
Q 1805 4493 1773 4457 
Q 1741 4422 1741 4326 
L 1741 3366 
Q 1741 3277 1773 3238 
Q 1805 3200 1894 3200 
L 5088 3200 
Q 5171 3200 5171 3117 
L 5171 2906 
Q 5171 2816 5088 2816 
L 3411 2816 
L 3411 1990 
L 5920 1990 
z
M 4717 102 
Q 4717 314 4544 438 
Q 4371 563 4128 633 
Q 3885 704 3625 726 
Q 3366 749 3187 749 
Q 3002 749 2742 726 
Q 2483 704 2243 633 
Q 2003 563 1833 438 
Q 1664 314 1664 102 
Q 1664 -102 1833 -230 
Q 2003 -358 2243 -425 
Q 2483 -493 2742 -515 
Q 3002 -538 3187 -538 
Q 3366 -538 3628 -515 
Q 3891 -493 4131 -425 
Q 4371 -358 4544 -230 
Q 4717 -102 4717 102 
z
" transform="scale(0.015625)"/>
      <path id="NanumGothicCoding-2b" d="M 3142 1875 
Q 3142 1786 3126 1773 
Q 3110 1760 3021 1760 
L 1830 1760 
L 1830 442 
Q 1830 358 1817 345 
Q 1805 333 1722 333 
L 1472 333 
Q 1389 333 1376 345 
Q 1363 358 1363 442 
L 1363 1760 
L 179 1760 
Q 90 1760 74 1773 
Q 58 1786 58 1875 
L 58 2106 
Q 58 2195 74 2208 
Q 90 2221 179 2221 
L 1363 2221 
L 1363 3526 
Q 1363 3616 1379 3629 
Q 1395 3642 1485 3642 
L 1709 3642 
Q 1798 3642 1814 3629 
Q 1830 3616 1830 3526 
L 1830 2221 
L 3021 2221 
Q 3110 2221 3126 2208 
Q 3142 2195 3142 2106 
L 3142 1875 
z
" transform="scale(0.015625)"/>
      <path id="NanumGothicCoding-2192" d="M 6080 1920 
L 4922 877 
L 5389 1843 
L 320 1843 
L 320 1997 
L 5389 1997 
L 4922 2963 
L 6080 1920 
z
" transform="scale(0.015625)"/>
     </defs>
     <use xlink:href="#NanumGothicCoding-31"/>
     <use xlink:href="#NanumGothicCoding-2e" transform="translate(49.999985 0)"/>
     <use xlink:href="#NanumGothicCoding-20" transform="translate(99.999969 0)"/>
     <use xlink:href="#NanumGothicCoding-c774" transform="translate(149.999954 0)"/>
     <use xlink:href="#NanumGothicCoding-b3d9" transform="translate(249.999939 0)"/>
     <use xlink:href="#NanumGothicCoding-20" transform="translate(349.999924 0)"/>
     <use xlink:href="#NanumGothicCoding-2b" transform="translate(399.999908 0)"/>
     <use xlink:href="#NanumGothicCoding-31" transform="translate(449.999893 0)"/>
     <use xlink:href="#NanumGothicCoding-30" transform="translate(499.999878 0)"/>
     <use xlink:href="#NanumGothicCoding-20" transform="translate(549.999863 0)"/>
     <use xlink:href="#NanumGothicCoding-2192" transform="translate(599.999847 0)"/>
     <use xlink:href="#NanumGothicCoding-20" transform="translate(699.999832 0)"/>
     <use xlink:href="#NanumGothicCoding-28" transform="translate(749.999817 0)"/>
     <use xlink:href="#NanumGothicCoding-31" transform="translate(799.999802 0)"/>
     <use xlink:href="#NanumGothicCoding-31" transform="translate(849.999786 0)"/>
     <use xlink:href="#NanumGothicCoding-2c" transform="translate(899.999771 0)"/>
     <use xlink:href="#NanumGothicCoding-20" transform="translate(949.999756 0)"/>
     <use xlink:href="#NanumGothicCoding-30" transform="translate(999.999741 0)"/>
     <use xlink:href="#NanumGothicCoding-29" transform="translate(1049.999725 0)"/>
    </g>
   </g>
   <g id="text_3">
    <!-- 2. 원점 기준 90도 회전 → (0, 11) -->
    <g style="fill: #111827" transform="translate(19.3752 53.19252) scale(0.11 -0.11)">
     <defs>
      <path id="NanumGothicCoding-32" d="M 442 -301 
Q 378 -301 342 -297 
Q 307 -294 291 -278 
Q 275 -262 272 -227 
Q 269 -192 269 -122 
L 269 19 
Q 269 102 320 147 
L 1286 1146 
Q 2317 2246 2310 2854 
Q 2317 3277 2125 3501 
Q 1907 3744 1523 3757 
Q 1069 3757 602 3469 
Q 518 3424 499 3507 
L 461 3718 
Q 442 3827 525 3859 
Q 781 4000 1017 4070 
Q 1254 4141 1510 4141 
Q 2022 4141 2387 3834 
Q 2790 3501 2790 2886 
Q 2790 2650 2681 2365 
Q 2573 2080 2336 1760 
Q 2112 1478 1971 1308 
Q 1830 1139 1600 890 
Q 1350 627 1206 480 
Q 1062 333 826 96 
L 2803 96 
Q 2899 90 2893 6 
L 2893 -218 
Q 2893 -301 2810 -301 
L 442 -301 
z
" transform="scale(0.015625)"/>
      <path id="NanumGothicCoding-c6d0" d="M 3834 3699 
Q 3834 3456 3725 3245 
Q 3616 3034 3421 2877 
Q 3226 2720 2957 2627 
Q 2688 2534 2374 2534 
Q 2067 2534 1804 2624 
Q 1542 2714 1350 2874 
Q 1158 3034 1049 3245 
Q 941 3456 941 3699 
Q 941 3968 1049 4185 
Q 1158 4403 1350 4556 
Q 1542 4710 1804 4790 
Q 2067 4870 2374 4870 
Q 2669 4870 2931 4787 
Q 3194 4704 3395 4553 
Q 3597 4403 3715 4185 
Q 3834 3968 3834 3699 
z
M 4902 1434 
L 4902 4915 
Q 4902 5005 4992 5005 
L 5254 5005 
Q 5344 5005 5344 4915 
L 5344 339 
Q 5344 250 5254 250 
L 4992 250 
Q 4902 250 4902 339 
L 4902 1050 
L 3622 1050 
Q 3539 1050 3539 1126 
L 3539 1357 
Q 3539 1434 3622 1434 
L 4902 1434 
z
M 3411 3706 
Q 3411 3898 3328 4045 
Q 3245 4192 3104 4291 
Q 2963 4390 2774 4441 
Q 2586 4493 2374 4493 
Q 2157 4493 1971 4441 
Q 1786 4390 1651 4288 
Q 1517 4186 1440 4042 
Q 1363 3898 1363 3706 
Q 1363 3341 1641 3123 
Q 1920 2906 2374 2906 
Q 2586 2906 2774 2966 
Q 2963 3027 3104 3132 
Q 3245 3238 3328 3385 
Q 3411 3533 3411 3706 
z
M 2246 582 
Q 2214 582 2188 611 
Q 2163 640 2163 678 
L 2163 1709 
Q 1965 1696 1741 1689 
Q 1517 1683 1302 1676 
Q 1088 1670 899 1667 
Q 710 1664 582 1670 
Q 544 1670 515 1696 
Q 486 1722 486 1754 
L 486 1971 
Q 486 2010 515 2032 
Q 544 2054 582 2054 
Q 768 2054 1024 2057 
Q 1280 2061 1549 2067 
Q 1818 2074 2067 2083 
Q 2317 2093 2490 2106 
Q 2714 2118 2989 2144 
Q 3264 2170 3539 2202 
Q 3814 2234 4060 2269 
Q 4307 2304 4474 2336 
Q 4506 2342 4534 2326 
Q 4563 2310 4570 2285 
L 4602 2067 
Q 4608 1990 4525 1971 
Q 4115 1901 3606 1833 
Q 3098 1766 2605 1734 
L 2605 678 
Q 2605 640 2582 611 
Q 2560 582 2522 582 
L 2246 582 
z
M 5498 -704 
Q 5498 -742 5466 -761 
Q 5434 -781 5402 -781 
L 1920 -781 
Q 1619 -781 1526 -669 
Q 1434 -557 1434 -294 
L 1434 512 
Q 1434 602 1523 602 
L 1786 602 
Q 1875 602 1875 512 
L 1875 -262 
Q 1875 -352 1904 -374 
Q 1933 -397 2022 -397 
L 5402 -397 
Q 5434 -397 5466 -419 
Q 5498 -442 5498 -474 
L 5498 -704 
z
" transform="scale(0.015625)"/>
      <path id="NanumGothicCoding-c810" d="M 1690 819 
Q 1690 1088 1792 1181 
Q 1894 1274 2176 1274 
L 4858 1274 
Q 5011 1274 5104 1254 
Q 5197 1235 5251 1184 
Q 5306 1133 5325 1043 
Q 5344 954 5344 819 
L 5344 -390 
Q 5344 -659 5241 -752 
Q 5139 -845 4858 -845 
L 2176 -845 
Q 2022 -845 1929 -825 
Q 1837 -806 1782 -752 
Q 1728 -698 1709 -611 
Q 1690 -525 1690 -390 
L 1690 819 
z
M 2285 890 
Q 2195 890 2163 854 
Q 2131 819 2131 723 
L 2131 -294 
Q 2131 -390 2163 -425 
Q 2195 -461 2285 -461 
L 4749 -461 
Q 4838 -461 4870 -425 
Q 4902 -390 4902 -294 
L 4902 723 
Q 4902 819 4870 854 
Q 4838 890 4749 890 
L 2285 890 
z
M 3501 4205 
Q 3411 3942 3248 3686 
Q 3085 3430 2861 3181 
Q 3078 2950 3398 2742 
Q 3718 2534 4096 2374 
Q 4147 2355 4153 2320 
Q 4160 2285 4141 2253 
L 4013 2022 
Q 3994 1990 3955 1987 
Q 3917 1984 3885 1997 
Q 3744 2061 3581 2150 
Q 3418 2240 3245 2355 
Q 3072 2470 2902 2604 
Q 2733 2739 2586 2886 
Q 2221 2528 1782 2233 
Q 1344 1939 896 1741 
Q 864 1728 832 1721 
Q 800 1715 781 1747 
L 653 1971 
Q 634 2003 650 2038 
Q 666 2074 698 2086 
Q 1523 2483 2105 2995 
Q 2688 3507 3014 4179 
Q 3059 4269 3027 4307 
Q 2995 4346 2906 4346 
L 1030 4346 
Q 954 4346 954 4429 
L 954 4653 
Q 954 4730 1030 4730 
L 3078 4730 
Q 3411 4730 3507 4611 
Q 3603 4493 3501 4205 
z
M 4902 3520 
L 4902 4915 
Q 4902 5005 4992 5005 
L 5254 5005 
Q 5344 5005 5344 4915 
L 5344 1728 
Q 5344 1638 5254 1638 
L 4992 1638 
Q 4902 1638 4902 1728 
L 4902 3136 
L 3718 3136 
Q 3635 3136 3635 3213 
L 3635 3443 
Q 3635 3520 3718 3520 
L 4902 3520 
z
" transform="scale(0.015625)"/>
      <path id="NanumGothicCoding-ae30" d="M 5344 -806 
Q 5344 -896 5254 -896 
L 4992 -896 
Q 4902 -896 4902 -806 
L 4902 4915 
Q 4902 5005 4992 5005 
L 5254 5005 
Q 5344 5005 5344 4915 
L 5344 -806 
z
M 3629 4064 
Q 3597 3514 3411 2982 
Q 3226 2451 2896 1968 
Q 2566 1485 2102 1072 
Q 1638 659 1050 346 
Q 966 301 928 365 
L 787 589 
Q 742 666 813 698 
Q 1357 979 1776 1340 
Q 2195 1702 2492 2124 
Q 2790 2547 2963 3014 
Q 3136 3482 3181 3974 
Q 3194 4070 3155 4105 
Q 3117 4141 3027 4141 
L 992 4141 
Q 915 4141 915 4224 
L 915 4448 
Q 915 4525 992 4525 
L 3149 4525 
Q 3450 4525 3546 4413 
Q 3642 4301 3629 4064 
z
" transform="scale(0.015625)"/>
      <path id="NanumGothicCoding-c900" d="M 4685 4179 
Q 4499 4013 4268 3859 
Q 4038 3706 3770 3558 
Q 4192 3424 4653 3299 
Q 5114 3174 5523 3091 
Q 5606 3072 5581 3002 
L 5491 2790 
Q 5459 2720 5376 2739 
Q 5165 2778 4899 2842 
Q 4634 2906 4355 2982 
Q 4077 3059 3795 3145 
Q 3514 3232 3277 3315 
Q 2368 2906 1062 2598 
Q 1005 2586 979 2605 
Q 954 2624 941 2662 
L 883 2848 
Q 858 2938 928 2957 
Q 1453 3078 1933 3228 
Q 2413 3379 2832 3548 
Q 3251 3718 3600 3904 
Q 3949 4090 4198 4275 
Q 4301 4352 4278 4393 
Q 4256 4435 4166 4435 
L 1402 4435 
Q 1318 4435 1318 4518 
L 1318 4742 
Q 1318 4819 1402 4819 
L 4326 4819 
Q 4819 4819 4915 4643 
Q 5011 4467 4685 4179 
z
M 3104 339 
Q 3072 339 3046 368 
Q 3021 397 3021 435 
L 3021 1728 
L 480 1728 
Q 442 1728 413 1753 
Q 384 1779 384 1811 
L 384 2029 
Q 384 2067 413 2089 
Q 442 2112 480 2112 
L 5920 2112 
Q 5952 2112 5984 2089 
Q 6016 2067 6016 2029 
L 6016 1811 
Q 6016 1779 5984 1753 
Q 5952 1728 5920 1728 
L 3462 1728 
L 3462 435 
Q 3462 397 3440 368 
Q 3418 339 3379 339 
L 3104 339 
z
M 5325 -704 
Q 5325 -742 5293 -761 
Q 5261 -781 5229 -781 
L 1702 -781 
Q 1402 -781 1309 -656 
Q 1216 -531 1216 -269 
L 1216 1005 
Q 1216 1094 1306 1094 
L 1568 1094 
Q 1658 1094 1658 1005 
L 1658 -262 
Q 1658 -352 1686 -374 
Q 1715 -397 1805 -397 
L 5229 -397 
Q 5261 -397 5293 -419 
Q 5325 -442 5325 -474 
L 5325 -704 
z
" transform="scale(0.015625)"/>
      <path id="NanumGothicCoding-39" d="M 563 154 
Q 704 102 848 73 
Q 992 45 1126 45 
Q 1760 45 2157 608 
Q 2483 1120 2502 1926 
Q 2374 1683 2163 1517 
Q 1888 1299 1510 1299 
Q 1088 1299 755 1587 
Q 282 1997 282 2694 
Q 282 3315 659 3738 
Q 1043 4160 1555 4160 
Q 2067 4160 2458 3744 
Q 2931 3219 2938 2054 
Q 2938 998 2477 339 
Q 1926 -352 1139 -352 
Q 1018 -352 851 -329 
Q 685 -307 538 -262 
Q 442 -250 454 -160 
L 467 96 
Q 467 134 499 150 
Q 531 166 563 154 
z
M 723 2726 
Q 717 2362 896 2074 
Q 1152 1702 1555 1702 
Q 1709 1696 1878 1779 
Q 2048 1862 2166 2022 
Q 2285 2182 2339 2368 
Q 2394 2554 2394 2726 
Q 2394 3091 2214 3379 
Q 1958 3770 1555 3770 
Q 1152 3770 896 3379 
Q 730 3091 723 2726 
z
" transform="scale(0.015625)"/>
      <path id="NanumGothicCoding-b3c4" d="M 5222 1984 
Q 5222 1894 5139 1894 
L 3405 1894 
L 3405 499 
L 5920 499 
Q 5952 499 5984 476 
Q 6016 454 6016 416 
L 6016 198 
Q 6016 166 5984 140 
Q 5952 115 5920 115 
L 480 115 
Q 442 115 413 140 
Q 384 166 384 198 
L 384 416 
Q 384 454 413 476 
Q 442 499 480 499 
L 2963 499 
L 2963 1894 
L 1683 1894 
Q 1402 1894 1299 1987 
Q 1197 2080 1197 2349 
L 1197 4134 
Q 1197 4403 1299 4496 
Q 1402 4589 1683 4589 
L 5094 4589 
Q 5178 4589 5178 4506 
L 5178 4294 
Q 5178 4205 5094 4205 
L 1792 4205 
Q 1702 4205 1670 4166 
Q 1638 4128 1638 4032 
L 1638 2445 
Q 1638 2355 1670 2316 
Q 1702 2278 1792 2278 
L 5139 2278 
Q 5222 2278 5222 2195 
L 5222 1984 
z
" transform="scale(0.015625)"/>
      <path id="NanumGothicCoding-d68c" d="M 4474 826 
Q 4576 845 4582 781 
L 4621 538 
Q 4634 467 4538 448 
Q 4307 410 4051 371 
Q 3795 333 3532 301 
Q 3270 269 3004 246 
Q 2739 224 2502 218 
Q 2317 211 2057 204 
Q 1798 198 1526 195 
Q 1254 192 998 189 
Q 742 186 563 192 
Q 525 192 496 217 
Q 467 243 467 275 
L 467 493 
Q 467 531 496 553 
Q 525 576 563 576 
Q 704 570 912 566 
Q 1120 563 1350 566 
Q 1581 570 1817 573 
Q 2054 576 2259 582 
L 2259 1261 
Q 1997 1286 1782 1372 
Q 1568 1459 1414 1596 
Q 1261 1734 1174 1916 
Q 1088 2099 1088 2310 
Q 1088 2547 1193 2742 
Q 1299 2938 1484 3075 
Q 1670 3213 1923 3286 
Q 2176 3360 2477 3360 
Q 2771 3360 3027 3283 
Q 3283 3206 3468 3068 
Q 3654 2931 3760 2739 
Q 3866 2547 3866 2310 
Q 3866 2093 3779 1913 
Q 3693 1734 3539 1600 
Q 3386 1466 3171 1379 
Q 2957 1293 2701 1267 
L 2701 602 
Q 2899 614 3136 640 
Q 3373 666 3609 694 
Q 3846 723 4070 758 
Q 4294 794 4474 826 
z
M 5344 -806 
Q 5344 -896 5254 -896 
L 4992 -896 
Q 4902 -896 4902 -806 
L 4902 4915 
Q 4902 5005 4992 5005 
L 5254 5005 
Q 5344 5005 5344 4915 
L 5344 -806 
z
M 3430 2310 
Q 3430 2637 3161 2809 
Q 2893 2982 2477 2982 
Q 2272 2982 2096 2937 
Q 1920 2893 1792 2809 
Q 1664 2726 1590 2598 
Q 1517 2470 1517 2310 
Q 1517 2150 1590 2025 
Q 1664 1901 1792 1814 
Q 1920 1728 2096 1680 
Q 2272 1632 2477 1632 
Q 2893 1632 3161 1811 
Q 3430 1990 3430 2310 
z
M 4275 3776 
Q 4275 3693 4179 3693 
L 774 3693 
Q 742 3693 713 3718 
Q 685 3744 685 3782 
L 685 3994 
Q 685 4032 713 4057 
Q 742 4083 774 4083 
L 4179 4083 
Q 4275 4083 4275 4000 
L 4275 3776 
z
M 3373 4582 
Q 3373 4493 3277 4493 
L 1587 4493 
Q 1555 4493 1526 4515 
Q 1498 4538 1498 4576 
L 1498 4794 
Q 1498 4832 1523 4857 
Q 1549 4883 1581 4883 
L 3277 4883 
Q 3373 4883 3373 4794 
L 3373 4582 
z
" transform="scale(0.015625)"/>
      <path id="NanumGothicCoding-c804" d="M 3501 4038 
Q 3411 3770 3244 3494 
Q 3078 3219 2854 2950 
Q 3110 2650 3446 2384 
Q 3782 2118 4109 1946 
Q 4192 1907 4147 1824 
L 4000 1606 
Q 3981 1574 3942 1571 
Q 3904 1568 3872 1587 
Q 3546 1766 3210 2048 
Q 2874 2330 2586 2643 
Q 2221 2259 1785 1939 
Q 1350 1619 909 1414 
Q 877 1402 845 1392 
Q 813 1382 794 1414 
L 666 1638 
Q 646 1670 659 1705 
Q 672 1741 704 1754 
Q 1459 2138 2057 2707 
Q 2656 3277 3014 4013 
Q 3059 4102 3027 4140 
Q 2995 4179 2906 4179 
L 1030 4179 
Q 954 4179 954 4262 
L 954 4486 
Q 954 4563 1030 4563 
L 3078 4563 
Q 3411 4563 3507 4444 
Q 3603 4326 3501 4038 
z
M 4902 3296 
L 4902 4915 
Q 4902 5005 4992 5005 
L 5254 5005 
Q 5344 5005 5344 4915 
L 5344 781 
Q 5344 691 5254 691 
L 4992 691 
Q 4902 691 4902 781 
L 4902 2925 
L 3693 2925 
Q 3610 2925 3610 3002 
L 3610 3219 
Q 3610 3296 3693 3296 
L 4902 3296 
z
M 5542 -704 
Q 5542 -742 5510 -761 
Q 5478 -781 5446 -781 
L 2208 -781 
Q 1907 -781 1814 -669 
Q 1722 -557 1722 -294 
L 1722 922 
Q 1722 1011 1811 1011 
L 2074 1011 
Q 2163 1011 2163 922 
L 2163 -262 
Q 2163 -352 2192 -374 
Q 2221 -397 2310 -397 
L 5446 -397 
Q 5478 -397 5510 -419 
Q 5542 -442 5542 -474 
L 5542 -704 
z
" transform="scale(0.015625)"/>
     </defs>
     <use xlink:href="#NanumGothicCoding-32"/>
     <use xlink:href="#NanumGothicCoding-2e" transform="translate(49.999985 0)"/>
     <use xlink:href="#NanumGothicCoding-20" transform="translate(99.999969 0)"/>
     <use xlink:href="#NanumGothicCoding-c6d0" transform="translate(149.999954 0)"/>
     <use xlink:href="#NanumGothicCoding-c810" transform="translate(249.999939 0)"/>
     <use xlink:href="#NanumGothicCoding-20" transform="translate(349.999924 0)"/>
     <use xlink:href="#NanumGothicCoding-ae30" transform="translate(399.999908 0)"/>
     <use xlink:href="#NanumGothicCoding-c900" transform="translate(499.999893 0)"/>
     <use xlink:href="#NanumGothicCoding-20" transform="translate(599.999878 0)"/>
     <use xlink:href="#NanumGothicCoding-39" transform="translate(649.999863 0)"/>
     <use xlink:href="#NanumGothicCoding-30" transform="translate(699.999847 0)"/>
     <use xlink:href="#NanumGothicCoding-b3c4" transform="translate(749.999832 0)"/>
     <use xlink:href="#NanumGothicCoding-20" transform="translate(849.999817 0)"/>
     <use xlink:href="#NanumGothicCoding-d68c" transform="translate(899.999802 0)"/>
     <use xlink:href="#NanumGothicCoding-c804" transform="translate(999.999786 0)"/>
     <use xlink:href="#NanumGothicCoding-20" transform="translate(1099.999771 0)"/>
     <use xlink:href="#NanumGothicCoding-2192" transform="translate(1149.999756 0)"/>
     <use xlink:href="#NanumGothicCoding-20" transform="translate(1249.999741 0)"/>
     <use xlink:href="#NanumGothicCoding-28" transform="translate(1299.999725 0)"/>
     <use xlink:href="#NanumGothicCoding-30" transform="translate(1349.99971 0)"/>
     <use xlink:href="#NanumGothicCoding-2c" transform="translate(1399.999695 0)"/>
     <use xlink:href="#NanumGothicCoding-20" transform="translate(1449.99968 0)"/>
     <use xlink:href="#NanumGothicCoding-31" transform="translate(1499.999664 0)"/>
     <use xlink:href="#NanumGothicCoding-31" transform="translate(1549.999649 0)"/>
     <use xlink:href="#NanumGothicCoding-29" transform="translate(1599.999634 0)"/>
    </g>
   </g>
  </g>
 </g>
 <defs>
  <clipPath id="p1f01379432">
   <rect x="5.76" y="5.76" width="340.38" height="114.2064"/>
  </clipPath>
 </defs>
</svg>
